<?xml version="1.0" encoding="UTF-8" standalone="no"?>
<svg
   xmlns:dc="http://purl.org/dc/elements/1.1/"
   xmlns:cc="http://creativecommons.org/ns#"
   xmlns:rdf="http://www.w3.org/1999/02/22-rdf-syntax-ns#"
   xmlns:svg="http://www.w3.org/2000/svg"
   xmlns="http://www.w3.org/2000/svg"
   xmlns:sodipodi="http://sodipodi.sourceforge.net/DTD/sodipodi-0.dtd"
   xmlns:inkscape="http://www.inkscape.org/namespaces/inkscape"
   id="Dark_Matter"
   data-name="Dark Matter"
   width="55.880001mm"
   height="128mm"
   viewBox="0 0 211.2 483.77957"
   version="1.1"
   sodipodi:docname="BlackHoles-DM.svg"
   inkscape:version="0.92.3 (2405546, 2018-03-11)">
  <metadata
     id="metadata256">
    <rdf:RDF>
      <cc:Work
         rdf:about="">
        <dc:format>image/svg+xml</dc:format>
        <dc:type
           rdf:resource="http://purl.org/dc/dcmitype/StillImage" />
        <dc:title>BlackHoles-DM</dc:title>
      </cc:Work>
    </rdf:RDF>
  </metadata>
  <sodipodi:namedview
     pagecolor="#ffffff"
     bordercolor="#666666"
     borderopacity="1"
     objecttolerance="10"
     gridtolerance="10"
     guidetolerance="10"
     inkscape:pageopacity="0"
     inkscape:pageshadow="2"
     inkscape:window-width="1118"
     inkscape:window-height="854"
     id="namedview254"
     showgrid="false"
     units="mm"
     inkscape:document-units="mm"
     fit-margin-top="0"
     fit-margin-left="0"
     fit-margin-right="0"
     fit-margin-bottom="0"
     inkscape:zoom="1.2421053"
     inkscape:cx="27.779302"
     inkscape:cy="228.67957"
     inkscape:window-x="0"
     inkscape:window-y="0"
     inkscape:window-maximized="0"
     inkscape:current-layer="Dark_Matter" />
  <defs
     id="defs11">
    <linearGradient
       id="linear-gradient"
       x1="-52.829559"
       y1="54.67207"
       x2="215.32088"
       y2="322.82251"
       gradientUnits="userSpaceOnUse"
       gradientTransform="matrix(1.2799927,0,0,1.2799927,0,-1.3088402)">
      <stop
         offset="0.38537"
         stop-color="#ffcc9e"
         id="stop2" />
      <stop
         offset="0.62112"
         stop-color="#f1ad8c"
         id="stop4" />
      <stop
         offset="0.85662"
         stop-color="#e6947e"
         id="stop6" />
      <stop
         offset="1"
         stop-color="#e28b79"
         id="stop8" />
    </linearGradient>
  </defs>
  <title
     id="title13">BlackHoles-DM</title>
  <rect
     x="1.0783554"
     y="-0.028808113"
     width="205.83098"
     height="480.63025"
     style="fill:url(#linear-gradient);stroke-width:1.2799927"
     id="rect15" />
  <g
     id="g87"
     transform="matrix(1.2799927,0,0,1.2799927,0,-1.3088402)">
    <path
       d="m 67.39453,341.5874 h -1.63965 v -1.63867 a 0.55274,0.55274 0 0 0 -1.10547,0 v 1.63867 h -1.63867 a 0.55274,0.55274 0 0 0 0,1.10547 h 1.63867 v 1.63965 a 0.55274,0.55274 0 0 0 1.10547,0 v -1.63965 h 1.63965 a 0.55274,0.55274 0 1 0 0,-1.10547 z"
       style="fill:#252626"
       id="path17"
       inkscape:connector-curvature="0" />
    <path
       d="m 101.89063,341.5874 h -4.38379 a 0.55274,0.55274 0 1 0 0,1.10547 h 4.38379 a 0.55274,0.55274 0 0 0 0,-1.10547 z"
       style="fill:#252626"
       id="path19"
       inkscape:connector-curvature="0" />
    <path
       d="m 137.44141,182.47852 -0.835,1.332 a 0.6744,0.6744 0 1 0 1.14257,0.71679 l 0.835,-1.333 a 0.67416,0.67416 0 0 0 -1.14257,-0.71582 z"
       style="fill:#252626"
       id="path21"
       inkscape:connector-curvature="0" />
    <path
       d="m 33.51172,173.7627 a 1.44488,1.44488 0 1 0 1.126,1.71 1.45144,1.45144 0 0 0 -1.126,-1.71 z"
       style="fill:#252626"
       id="path23"
       inkscape:connector-curvature="0" />
    <path
       d="m 11.19043,92.0083 h 1.63965 v 1.6397 a 0.55274,0.55274 0 0 0 1.10547,0 v -1.6397 h 1.63867 a 0.55274,0.55274 0 0 0 0,-1.10547 h -1.63867 v -1.63867 a 0.55274,0.55274 0 0 0 -1.10547,0 v 1.63867 h -1.63965 a 0.55274,0.55274 0 0 0 0,1.10547 z"
       style="fill:#252626"
       id="path25"
       inkscape:connector-curvature="0" />
    <path
       d="m 130.99414,332.47168 a 0.318,0.318 0 0 0 -0.38965,0.21875 l -0.20508,0.73047 0.6084,0.17187 0.20606,-0.73144 a 0.31812,0.31812 0 0 0 -0.21973,-0.38965 z"
       style="fill:#252626"
       id="path27"
       inkscape:connector-curvature="0" />
    <polygon
       points="134.324,328.651 133.238,328.361 133.855,329.302 "
       style="fill:#252626"
       id="polygon29" />
    <path
       d="m 36.02948,12.37384 c 0,-0.44043 -0.374,-0.68262 -0.8252,-0.7041 h -1.5625 v 1.51855 h 1.5625 a 0.82256,0.82256 0 0 0 0.8252,-0.81445 z"
       style="fill:#252626"
       id="path31"
       inkscape:connector-curvature="0" />
    <polygon
       points="55.455,11.417 55.092,10.272 54.718,11.417 "
       style="fill:#252626"
       id="polygon33" />
    <path
       d="M 34.95135,9.4588 A 0.38625,0.38625 0 0 0 34.70917,9.117 h -1.06739 v 0.68262 h 1.06739 C 34.841,9.78888 34.95135,9.59064 34.95135,9.4588 Z"
       style="fill:#252626"
       id="path35"
       inkscape:connector-curvature="0" />
    <path
       d="m 13.38281,123.20752 a 0.55348,0.55348 0 0 0 -0.55273,0.55273 v 4.38375 a 0.55274,0.55274 0 1 0 1.10547,0 v -4.38379 a 0.55348,0.55348 0 0 0 -0.55274,-0.55269 z"
       style="fill:#252626"
       id="path37"
       inkscape:connector-curvature="0" />
    <path
       d="m 11.19043,256.0083 h 1.63965 v 1.6397 a 0.55274,0.55274 0 0 0 1.10547,0 v -1.6397 h 1.63867 a 0.55274,0.55274 0 0 0 0,-1.10547 h -1.63867 v -1.63867 a 0.55274,0.55274 0 0 0 -1.10547,0 v 1.63867 h -1.63965 a 0.55274,0.55274 0 0 0 0,1.10547 z"
       style="fill:#252626"
       id="path39"
       inkscape:connector-curvature="0" />
    <polygon
       points="14.012,160.97 13.327,161.384 14.212,162.075 "
       style="fill:#252626"
       id="polygon41" />
    <path
       d="m 33.48926,337.98242 a 1.44471,1.44471 0 1 0 1.09668,1.72758 1.44946,1.44946 0 0 0 -1.09668,-1.72758 z"
       style="fill:#252626"
       id="path43"
       inkscape:connector-curvature="0" />
    <polygon
       points="14.207,324.862 13.515,325.265 14.389,325.971 "
       style="fill:#252626"
       id="polygon45" />
    <path
       d="m 17.37305,324.60742 a 0.30478,0.30478 0 0 0 -0.22559,0.36914 0.31571,0.31571 0 0 0 0.36719,0.23926 l 0.7207,-0.168 -0.14258,-0.6084 z"
       style="fill:#252626"
       id="path47"
       inkscape:connector-curvature="0" />
    <polygon
       points="26.468,348.306 27.173,347.923 26.318,347.191 "
       style="fill:#252626"
       id="polygon49" />
    <path
       d="m 13.38281,287.20752 a 0.55348,0.55348 0 0 0 -0.55273,0.55273 v 4.38375 a 0.55274,0.55274 0 1 0 1.10547,0 v -4.38379 a 0.55348,0.55348 0 0 0 -0.55274,-0.55269 z"
       style="fill:#252626"
       id="path51"
       inkscape:connector-curvature="0" />
    <polygon
       points="26.496,183.091 26.666,184.203 27.363,183.808 "
       style="fill:#252626"
       id="polygon53" />
    <path
       d="m 17.88867,160.48145 -0.71582,0.17968 a 0.30458,0.30458 0 0 0 -0.21875,0.374 0.31285,0.31285 0 0 0 0.37012,0.23144 l 0.7168,-0.17969 z"
       style="fill:#252626"
       id="path55"
       inkscape:connector-curvature="0" />
    <path
       d="m 65.75488,180.33252 v -1.63965 h 1.63965 a 0.55274,0.55274 0 1 0 0,-1.10547 h -1.63965 v -1.63867 a 0.55274,0.55274 0 0 0 -1.10547,0 v 1.63867 h -1.63867 a 0.55274,0.55274 0 0 0 0,1.10547 h 1.63867 v 1.63965 a 0.55274,0.55274 0 0 0 1.10547,0 z"
       style="fill:#252626"
       id="path57"
       inkscape:connector-curvature="0" />
    <path
       d="m 130.99414,168.47168 a 0.318,0.318 0 0 0 -0.38965,0.21875 l -0.20508,0.73047 0.6084,0.17187 0.20606,-0.73144 a 0.31812,0.31812 0 0 0 -0.21973,-0.38965 z"
       style="fill:#252626"
       id="path59"
       inkscape:connector-curvature="0" />
    <path
       d="m 99.51465,37.07568 v 1.63965 H 97.875 a 0.55274,0.55274 0 0 0 0,1.10547 h 1.63965 v 1.63867 a 0.55274,0.55274 0 1 0 1.10547,0 V 39.8208 h 1.63867 a 0.55274,0.55274 0 0 0 0,-1.10547 h -1.63867 v -1.63965 a 0.55274,0.55274 0 0 0 -1.10547,0 z"
       style="fill:#252626"
       id="path61"
       inkscape:connector-curvature="0" />
    <path
       d="m 99.75116,13.27618 a 2.18426,2.18426 0 0 0 0,-4.36816 2.18415,2.18415 0 0 0 0,4.36816 z"
       style="fill:#252626"
       id="path63"
       inkscape:connector-curvature="0" />
    <path
       d="m 97.875,203.8208 h 1.63965 v 1.63867 a 0.55274,0.55274 0 1 0 1.10547,0 v -1.63867 h 1.63867 a 0.55274,0.55274 0 0 0 0,-1.10547 h -1.63867 v -1.63965 a 0.55274,0.55274 0 0 0 -1.10547,0 v 1.63965 H 97.875 a 0.55274,0.55274 0 0 0 0,1.10547 z"
       style="fill:#252626"
       id="path65"
       inkscape:connector-curvature="0" />
    <path
       d="m 151.25488,258.20068 a 0.55348,0.55348 0 0 0 0.55274,-0.55273 v -4.38379 a 0.55274,0.55274 0 0 0 -1.10547,0 v 4.38384 a 0.55347,0.55347 0 0 0 0.55273,0.55268 z"
       style="fill:#252626"
       id="path67"
       inkscape:connector-curvature="0" />
    <path
       d="m 153.44629,125.3999 h -1.63867 v -1.63965 a 0.55274,0.55274 0 0 0 -1.10547,0 v 1.63965 h -1.63867 a 0.55274,0.55274 0 1 0 0,1.10547 h 1.63867 v 1.63863 a 0.55274,0.55274 0 1 0 1.10547,0 v -1.63867 h 1.63867 a 0.55274,0.55274 0 0 0 0,-1.10547 z"
       style="fill:#252626"
       id="path69"
       inkscape:connector-curvature="0" />
    <path
       d="m 153.44629,289.3999 h -1.63867 v -1.63965 a 0.55274,0.55274 0 0 0 -1.10547,0 v 1.63965 h -1.63867 a 0.55274,0.55274 0 1 0 0,1.10547 h 1.63867 v 1.63863 a 0.55274,0.55274 0 1 0 1.10547,0 v -1.63867 h 1.63867 a 0.55274,0.55274 0 0 0 0,-1.10547 z"
       style="fill:#252626"
       id="path71"
       inkscape:connector-curvature="0" />
    <polygon
       points="134.323,164.652 133.237,164.361 133.854,165.302 "
       style="fill:#252626"
       id="polygon73" />
    <path
       d="m 151.25488,94.20068 a 0.55348,0.55348 0 0 0 0.55274,-0.55273 v -4.38379 a 0.55274,0.55274 0 0 0 -1.10547,0 V 93.648 a 0.55347,0.55347 0 0 0 0.55273,0.55268 z"
       style="fill:#252626"
       id="path75"
       inkscape:connector-curvature="0" />
    <path
       d="m 63.37891,39.8208 h 4.38379 a 0.55274,0.55274 0 0 0 0,-1.10547 h -4.38379 a 0.55274,0.55274 0 1 0 0,1.10547 z"
       style="fill:#252626"
       id="path77"
       inkscape:connector-curvature="0" />
    <path
       d="M 0,0 V 380 H 165 V 0 Z m 151.25488,87.72083 a 3.735,3.735 0 1 1 -3.73492,3.735 3.73495,3.73495 0 0 1 3.73492,-3.735 z M 130.3537,12.033 a 7.54156,7.54156 0 0 1 -1.73828,-0.53906 2.16009,2.16009 0 0 1 -1.13379,-1.94727 2.283,2.283 0 0 1 0.40722,-1.27637 2.54073,2.54073 0 0 1 1.0127,-0.81445 l -0.0117,0.01074 a 3.19284,3.19284 0 0 1 1.34277,-0.29687 3.84257,3.84257 0 0 1 0.583,0.04394 4.57753,4.57753 0 0 1 2.2549,1.15534 l -1.21,1.45215 a 2.428,2.428 0 0 0 -1.65039,-0.76954 1.119,1.119 0 0 0 -0.50586,0.10938 0.45576,0.45576 0 0 0 -0.31933,0.38574 c 0,0.29688 0.39648,0.43946 1.03418,0.57129 0.0664,0.02246 0.14355,0.02246 0.2207,0.04492 a 5.80114,5.80114 0 0 1 1.48438,0.47266 h -0.0108 a 2.19155,2.19155 0 0 1 1.21,1.99121 2.30793,2.30793 0 0 1 -0.418,1.375 2.71076,2.71076 0 0 1 -1.04493,0.83594 2.86106,2.86106 0 0 1 -1.38574,0.29785 3.68026,3.68026 0 0 1 -0.793,-0.08887 5.29216,5.29216 0 0 1 -2.45312,-1.331 l 1.25488,-1.44043 a 3.24443,3.24443 0 0 0 1.584,0.92383 1.88324,1.88324 0 0 0 0.418,0.05468 1.2931,1.2931 0 0 0 0.57227,-0.12109 0.57066,0.57066 0 0 0 0.3623,-0.50586 c 1e-5,-0.30771 -0.57127,-0.49521 -1.06639,-0.59386 z m -2.85077,96.445 a 0.79409,0.79409 0 0 1 -0.0158,0.0779 15.905,15.905 0 0 0 4.68762,11.24634 0.82864,0.82864 0 0 1 -1.17187,1.17187 17.53169,17.53169 0 0 1 -5.13446,-11.64844 H 112.5 a 0.84766,0.84766 0 1 1 0,-1.69531 h 13.36847 a 17.53609,17.53609 0 0 1 5.13446,-11.64934 0.82864,0.82864 0 1 1 1.17187,1.17187 15.90891,15.90891 0 0 0 -4.68762,11.24732 0.79349,0.79349 0 0 1 0.0158,0.0778 z m -1.18359,16.41211 a 0.82673,0.82673 0 0 1 -0.79981,0.85058 h -0.0293 a 0.82527,0.82527 0 0 1 -0.0205,-1.65039 0.81919,0.81919 0 0 1 0.84961,0.79984 z m 5.6416,39.00732 0.43066,-0.5957 4.48438,1.17676 -0.51172,0.71 -1.20508,-0.32325 -0.83984,1.16309 0.68261,1.04688 -0.43994,0.60882 -0.24756,0.88043 -2.45215,0.90821 -0.0937,0.333 2.03516,0.57325 -0.21387,0.76074 -4.165,-1.17188 0.41895,-1.49121 a 1.12244,1.12244 0 0 1 1.36523,-0.76562 1.12053,1.12053 0 0 1 0.79395,0.87988 l 2.43311,-0.89911 z m 4.41308,-4.30273 0.69141,-0.52442 1.28809,4.45117 -0.585,0.44336 -3.94433,-2.43457 0.69629,-0.52832 2.749,1.70215 z m 7.36817,2.04687 -0.8086,0.0869 -0.3789,-3.501 -1.05567,0.11426 -0.0859,-0.79688 2.92187,-0.31543 0.0859,0.79688 -1.05762,0.11426 z m -0.64063,21.71 0.8418,0.20117 -2.62305,3.8086 -0.71289,-0.16992 -0.61328,-4.58692 0.84961,0.2041 0.42187,3.19922 z m -2.80956,-20.88673 -1.52051,-4.04687 0.7627,-0.28711 1.51855,4.04883 z m -1.502,19.13086 a 1.48287,1.48287 0 0 1 0.65918,0.91407 1.44454,1.44454 0 0 1 -0.18067,1.11328 l -0.835,1.333 a 1.4864,1.4864 0 0 1 -2.69824,-0.46484 1.44924,1.44924 0 0 1 0.18555,-1.1084 l 0.83594,-1.334 a 1.45993,1.45993 0 0 1 0.917,-0.65039 1.4948,1.4948 0 0 1 1.11624,0.19728 z m -3.48047,-0.97656 0.13477,-0.7959 1.21093,0.19727 0.43848,0.4541 -3.10938,3.00293 -0.56933,-0.58887 2.28418,-2.207 z m -5.56836,-8.4082 0.10352,-0.126 0.584,0.54785 -0.0859,0.11231 a 1.38678,1.38678 0 0 0 -0.30761,1.04883 1.45793,1.45793 0 0 0 2.90234,-0.28028 1.476,1.476 0 0 0 -0.55469,-1.01465 l -0.89648,0.0869 0.11328,1.17969 -0.80469,0.0771 -0.18945,-1.97168 1.98437,-0.1914 0.0391,0.0273 a 2.26089,2.26089 0 1 1 -3.39844,2.165 2.23342,2.23342 0 0 1 0.0908,-0.88867 2.19741,2.19741 0 0 1 0.41994,-0.7724 z m 1.26172,87.77 a 0.82864,0.82864 0 0 1 1.17187,1.17187 15.90891,15.90891 0 0 0 -4.68762,11.24732 0.20042,0.20042 0 0 1 0,0.15576 15.905,15.905 0 0 0 4.68762,11.24634 0.82864,0.82864 0 0 1 -1.17187,1.17187 17.53169,17.53169 0 0 1 -5.13446,-11.64844 H 112.5 a 0.84766,0.84766 0 1 1 0,-1.69531 h 13.36847 a 17.53609,17.53609 0 0 1 5.13446,-11.64935 z m -4.68359,28.90918 a 0.835,0.835 0 0 1 -0.79981,0.86035 h -0.0293 a 0.837,0.837 0 0 1 -0.83007,-0.81055 0.83,0.83 0 0 1 1.65918,-0.0498 z m -4.75977,0.11035 a 0.83011,0.83011 0 0 1 -1.66016,-0.01 0.83011,0.83011 0 0 1 1.66016,0.01 z M 111.37988,287.48 a 0.83123,0.83123 0 0 1 -0.13965,1.65039 0.54509,0.54509 0 0 1 -0.13085,-0.01 0.83141,0.83141 0 1 1 0.2705,-1.64063 z m -1.08008,-32.59961 a 0.84735,0.84735 0 0 1 -0.55957,-0.21 0.82417,0.82417 0 0 1 -0.0508,-1.16992 0.8345,0.8345 0 0 1 1.16993,-0.0606 0.82456,0.82456 0 0 1 0.0508,1.16992 0.80341,0.80341 0 0 1 -0.61036,0.27053 z m 1.54981,53.54 a 0.83153,0.83153 0 0 1 1.14062,-0.28027 0.82761,0.82761 0 1 1 -0.85058,1.41992 0.843,0.843 0 0 1 -0.29004,-1.13963 z M 112.75,249.85984 a 0.83313421,0.83313421 0 1 1 1.30957,1.03028 0.86451,0.86451 0 0 1 -0.66016,0.31054 0.80232,0.80232 0 0 1 -0.5,-0.16992 0.83357,0.83357 0 0 1 -0.14941,-1.17088 z m 2.81934,-3.83984 a 0.82083,0.82083 0 0 1 1.15039,-0.21 0.82983,0.82983 0 0 1 -0.46973,1.51074 0.8439,0.8439 0 0 1 -0.46973,-0.15039 0.82177,0.82177 0 0 1 -0.21093,-1.15035 z m 2.57031,-4.00977 a 0.82735,0.82735 0 0 1 1.41992,0.84961 0.83711,0.83711 0 0 1 -0.71,0.41016 0.84664,0.84664 0 0 1 -0.42969,-0.12012 0.83039,0.83039 0 0 1 -0.28023,-1.13963 z M 120.46,237.8501 a 0.82727,0.82727 0 1 1 1.46973,0.75976 0.846,0.846 0 0 1 -0.74024,0.4502 0.73308,0.73308 0 0 1 -0.37011,-0.0996 0.82239,0.82239 0 0 1 -0.35938,-1.11035 z m 2.41736,-3.809 a 0.82837,0.82837 0 1 1 0.75976,1.16015 0.788,0.788 0 0 1 -0.33007,-0.0703 0.8285,0.8285 0 0 1 -0.42973,-1.08986 z m -10.37726,0.33111 a 14.8399,14.8399 0 0 1 -13.91217,-20.09082 59.94708,59.94708 0 0 0 -15.53723,-2.1737 0.80043,0.80043 0 0 1 -1.09717,0.003 59.73557,59.73557 0 0 0 -29.27087,7.9964 0.82872,0.82872 0 0 1 -1.13184,-0.30175 0.82852,0.82852 0 0 1 0.30176,-1.13184 61.39042,61.39042 0 0 1 29.81934,-8.21442 V 194.6559 a 0.82813,0.82813 0 0 1 1.65625,0 v 15.8001 a 61.61174,61.61174 0 0 1 15.93127,2.29438 14.86773,14.86773 0 1 1 13.24066,21.62182 z m -5.57037,23.95838 a 0.8305,0.8305 0 0 1 -0.57031,-1.43067 0.83127,0.83127 0 0 1 1.15039,1.2002 0.86894,0.86894 0 0 1 -0.58012,0.23045 z m 0.46972,29.14941 a 0.842,0.842 0 0 1 -0.7998,0.60059 0.66758,0.66758 0 0 1 -0.24023,-0.04 0.82912,0.82912 0 0 1 0.4707,-1.58985 0.8411,0.8411 0 0 1 0.56929,1.02926 z m 0.41993,18.30078 a 0.83239,0.83239 0 0 1 1.16015,-0.21 0.8204,0.8204 0 0 1 0.21,1.14941 0.83066,0.83066 0 0 1 -1.37011,-0.93945 z m -46.6895,-22.12014 a 0.83056,0.83056 0 1 1 1.05957,1.2793 0.79719,0.79719 0 0 1 -0.52929,0.19043 0.82975,0.82975 0 0 1 -0.53028,-1.46973 z m -0.75976,-41.24023 a 0.87332,0.87332 0 0 1 -0.51074,-0.16992 0.83352,0.83352 0 0 1 1.03027,-1.31055 0.82718,0.82718 0 0 1 0.14062,1.16016 0.8448,0.8448 0 0 1 -0.66015,0.32031 z m 1.75976,16.58984 a 0.8182,0.8182 0 0 1 1.07032,-0.46 v -0.01 a 0.8298,0.8298 0 0 1 0.46972,1.08008 0.84486,0.84486 0 0 1 -0.77051,0.51953 0.81249,0.81249 0 0 1 -0.30957,-0.0596 0.82627,0.82627 0 0 1 -0.45996,-1.07028 z M 63.5,245.31006 a 0.83445,0.83445 0 0 1 -0.06055,-1.16992 0.832,0.832 0 0 1 1.23047,1.12011 0.83772,0.83772 0 0 1 -0.61035,0.27051 0.856,0.856 0 0 1 -0.55957,-0.2207 z m 1.49023,35.37012 a 0.82850262,0.82850262 0 0 1 0.96,1.35058 V 282.02 a 0.77163,0.77163 0 0 1 -0.48047,0.16016 0.82595,0.82595 0 0 1 -0.4795,-1.5 z m 1.05957,33.98046 a 0.83047,0.83047 0 1 1 0.04981,1.66016 H 66.08008 A 0.82856,0.82856 0 0 1 65.25,315.52 0.84086,0.84086 0 0 1 66.0498,314.66064 Z M 65.16992,310.73 A 0.83008,0.83008 0 1 1 66,311.56006 0.83441,0.83441 0 0 1 65.16992,310.73 Z m 0.99024,-3.92969 h -0.06055 a 0.86564,0.86564 0 1 1 0.06055,0 z m 0.54,-4.72949 c -0.05079,0 -0.09082,-0.0107 -0.14063,-0.0107 a 0.83742,0.83742 0 1 1 0.14063,0.0107 z m 0.90918,-41.56055 a 0.82933,0.82933 0 0 1 -0.36915,1.57032 0.82768,0.82768 0 1 1 0.36915,-1.57032 z m -0.67969,-13.04 a 0.82357,0.82357 0 0 1 1.16992,0.0205 0.83224,0.83224 0 0 1 -0.03027,1.16992 0.79667,0.79667 0 0 1 -0.56934,0.2295 0.82017,0.82017 0 0 1 -0.57031,-1.41993 z M 66.96,296.35986 a 0.82493,0.82493 0 0 1 1.01953,-0.55957 0.83085,0.83085 0 0 1 -0.22949,1.62989 0.58492,0.58492 0 0 1 -0.23047,-0.04 0.81167,0.81167 0 0 1 -0.55957,-1.03032 z m 1.58984,-4.55957 H 68.54 a 0.8298,0.8298 0 0 1 1.08008,-0.46972 0.84633,0.84633 0 0 1 0.46972,1.08007 0.83475,0.83475 0 0 1 -0.7705,0.51954 0.82592,0.82592 0 0 1 -0.76954,-1.12989 z m 1.4043,29.20313 a 17.53237,17.53237 0 0 1 11.71778,-5.13788 v -13.365 a 0.82813,0.82813 0 1 1 1.65625,0 v 13.36993 a 17.53555,17.53555 0 0 1 11.61914,5.133 0.82864076,0.82864076 0 1 1 -1.17188,1.17187 16.01422,16.01422 0 0 0 -22.64941,0 0.82864076,0.82864076 0 0 1 -1.17188,-1.17187 z m 0.56543,-33.61328 A 0.81191,0.81191 0 0 1 71.62016,287.02002 0.824,0.824 0 0 1 72,288.12061 v 0.01 a 0.82957,0.82957 0 0 1 -0.74023,0.4502 0.77816,0.77816 0 0 1 -0.37012,-0.0801 0.82565,0.82565 0 0 1 -0.37012,-1.11035 z m 20.35059,1.46972 a 0.83123,0.83123 0 0 1 1.16015,0.18067 0.84056,0.84056 0 0 1 -0.19043,1.16015 0.82346,0.82346 0 0 1 -1.16015,-0.19043 0.8288,0.8288 0 0 1 0.19039,-1.15039 z m 2.89941,3.84082 a 0.8272,0.8272 0 1 1 0.53027,1.46973 0.86351,0.86351 0 0 1 -0.63964,-0.2998 0.83591,0.83591 0 0 1 0.10933,-1.16993 z M 82.5,287.37213 A 14.87216,14.87216 0 1 1 97.37219,272.5 14.87209,14.87209 0 0 1 82.5,287.37213 Z M 96.4502,253.20068 H 96.46 a 0.82824,0.82824 0 0 1 -0.77051,0.51953 0.80536,0.80536 0 0 1 -0.30957,-0.0498 0.84193,0.84193 0 0 1 -0.46972,-1.08008 H 94.92 a 0.81111,0.81111 0 0 1 1.07031,-0.46 0.82626,0.82626 0 0 1 0.45993,1.07035 z m 0,-5.03027 A 0.84532,0.84532 0 0 1 97.47949,247.6001 0.83244,0.83244 0 0 1 97.25,249.23 0.66758,0.66758 0 0 1 97.00977,249.19 0.82845,0.82845 0 0 1 96.4502,248.17041 Z m -1.45313,-24.17383 a 17.53689,17.53689 0 0 1 -11.7243,5.13812 l -0.09211,13.067 a 0.82794,0.82794 0 0 1 -0.82812,0.82227 h -0.0059 a 0.82733,0.82733 0 0 1 -0.82227,-0.834 l 0.09211,-13.06061 a 17.53555,17.53555 0 0 1 -11.61359,-5.13275 0.82864,0.82864 0 1 1 1.17187,-1.17187 16.01541,16.01541 0 0 0 22.6504,0 0.82864,0.82864 0 1 1 1.17187,1.17187 z m -0.51758,33.61328 a 0.81586,0.81586 0 0 1 -0.73926,0.46094 0.8285,0.8285 0 1 1 0.36915,-1.57031 0.8221,0.8221 0 0 1 0.37011,1.10937 z m -20.34961,-1.46972 a 0.81243,0.81243 0 0 1 -0.48047,0.16015 0.82665,0.82665 0 0 1 -0.67968,-0.34961 v 0.01 a 0.831,0.831 0 1 1 1.16015,0.17969 z m -2.90039,-3.83985 a 0.84192,0.84192 0 0 1 -0.52929,0.19043 0.81587,0.81587 0 0 1 -0.64063,-0.30078 0.83093,0.83093 0 1 1 1.16992,0.11035 z m 25.7002,44.03028 a 0.83357,0.83357 0 0 1 1.16992,0.0293 0.82483,0.82483 0 0 1 -0.03027,1.1709 0.82264,0.82264 0 0 1 -1.16993,-0.0303 v 0.01 a 0.84556,0.84556 0 0 1 0.03028,-1.17968 z m 0.83008,-11.75977 a 0.8033,0.8033 0 0 1 -0.37012,-0.0908 0.81883,0.81883 0 0 1 -0.37012,-1.10937 0.82861,0.82861 0 0 1 1.10059,-0.37012 h 0.0098 a 0.83046,0.83046 0 0 1 0.37012,1.10937 0.84009,0.84009 0 0 1 -0.74023,0.46094 z m 0.54,-39.98047 c -0.0498,0 -0.08984,-0.01 -0.13964,-0.01 a 0.84327,0.84327 0 0 1 -0.68067,-0.96 0.83132,0.83132 0 1 1 0.82031,0.96972 z m 0.63965,-14.25976 h -0.01953 a 0.81149,0.81149 0 1 1 0.01953,0 z m 0.87989,3.93945 a 0.82959,0.82959 0 1 1 -1.65918,0 h 0.0098 A 0.82814,0.82814 0 0 1 99,233.43994 0.81907,0.81907 0 0 1 99.81934,234.27 Z m -0.92969,3.93066 a 0.83065,0.83065 0 0 1 -0.04981,1.65918 0.12592,0.12592 0 0 1 -0.05957,-0.01 0.82652137,0.82652137 0 1 1 0.10938,-1.64942 z M 99.04,262.97021 a 0.83133471,0.83133471 0 0 1 0.96973,1.35059 0.85191,0.85191 0 0 1 -0.4795,0.14941 0.82971,0.82971 0 0 1 -0.49023,-1.5 z m 1.29,36.77051 a 0.82768,0.82768 0 1 1 1.21972,1.11914 0.80337,0.80337 0 0 1 -0.61035,0.27051 0.8139,0.8139 0 0 1 -0.55957,-0.21973 0.82411,0.82411 0 0 1 -0.0497,-1.16992 z m 1,-14.36035 a 0.8283,0.8283 0 1 1 0.76953,1.12988 0.80013,0.80013 0 0 1 -0.29981,-0.0596 0.81944,0.81944 0 0 1 -0.46964,-1.07031 z M 102.7002,261.23 a 0.82680031,0.82680031 0 1 1 1.26953,-1.05957 0.81533,0.81533 0 0 1 -0.0996,1.16016 0.857,0.857 0 0 1 -0.53028,0.20019 0.844,0.844 0 0 1 -0.63964,-0.30078 z m 1.26953,41.66992 a 0.8302,0.8302 0 0 1 1.16992,-0.14941 0.848,0.848 0 0 1 0.14062,1.16992 0.865,0.865 0 0 1 -0.66015,0.30957 0.8048,0.8048 0 0 1 -0.51074,-0.16992 0.829,0.829 0 0 1 -0.13965,-1.16018 z m -46.4795,-16 a 0.84561,0.84561 0 0 1 1.17969,0.0303 0.83338,0.83338 0 0 1 -0.03027,1.16992 0.85074,0.85074 0 0 1 -0.58008,0.23047 0.83495,0.83495 0 0 1 -0.56934,-1.43067 z m -0.32031,-47.67969 a 0.83488,0.83488 0 0 1 -0.67969,0.36036 0.83142,0.83142 0 0 1 -0.68066,-1.29981 0.8309,0.8309 0 0 1 1.15039,-0.2207 0.843,0.843 0 0 1 0.20996,1.16013 z m 1.22949,19.36036 a 0.66244,0.66244 0 0 1 -0.23925,-0.04 v 0.01 a 0.82909,0.82909 0 0 1 -0.55078,-1.04 0.82423,0.82423 0 0 1 1.58007,0.46973 0.82162,0.82162 0 0 1 -0.79004,0.60049 z M 39.12482,273.3042 a 17.53223,17.53223 0 0 1 -5.13556,11.66992 0.82864076,0.82864076 0 0 1 -1.17188,-1.17187 16.0142,16.0142 0 0 0 0,-22.64942 0.82864076,0.82864076 0 1 1 1.17188,-1.17187 17.53646,17.53646 0 0 1 5.13556,11.6709 H 52.5 a 0.82617,0.82617 0 1 1 0,1.65234 z M 52.25,295.13037 a 0.8434,0.8434 0 0 1 -0.66016,0.32031 0.81347,0.81347 0 0 1 -0.50976,-0.18066 0.826,0.826 0 1 1 1.16992,-0.13965 z M 49.42969,298.98 a 0.83488,0.83488 0 0 1 -0.67969,0.36035 0.81348,0.81348 0 0 1 -0.46973,-0.15039 0.8302303,0.8302303 0 1 1 0.93946,-1.36914 0.84168,0.84168 0 0 1 0.20996,1.15918 z m -2.57031,4.01074 a 0.82733,0.82733 0 0 1 -0.71,0.39942 0.8466,0.8466 0 0 1 -0.42968,-0.12012 0.82738,0.82738 0 1 1 1.13965,-0.2793 z M 44.54,307.1499 a 0.82958,0.82958 0 0 1 -0.74024,0.4502 0.7424,0.7424 0 0 1 -0.37988,-0.0996 0.82727,0.82727 0 0 1 0.75977,-1.46973 0.82957,0.82957 0 0 1 0.36035,1.11914 z m -2.87,3.9093 a 0.84311,0.84311 0 0 1 -0.7705,0.5 0.77285,0.77285 0 0 1 -0.31934,-0.0703 0.82163,0.82163 0 0 1 -0.43066,-1.08984 0.82881214,0.82881214 0 1 1 1.5205,0.66015 z m -2.99035,-54.9591 a 0.82557074,0.82557074 0 0 1 1.65039,-0.0498 0.82915,0.82915 0 0 1 -0.79981,0.86035 h -0.0205 A 0.83048,0.83048 0 0 1 38.67969,256.1001 Z M 26.9707,186.293 l -0.75488,0.42871 -0.68652,-4.584 0.63965,-0.36329 3.58789,2.93946 -0.76172,0.43164 -0.96094,-0.7959 -1.248,0.707 z m 1.69336,-5.44629 -0.73144,0.76855 -0.58008,-0.55175 2.02441,-2.125 0.5791,0.55078 -0.73046,0.76953 2.54589,2.42578 -0.56054,0.58789 z m 1.13965,-2.707 0.39453,-0.71 3.77442,2.09961 -0.39551,0.71 z m 2.95313,-0.75195 a 2.26078,2.26078 0 1 1 2.665,-1.751 2.26321,2.26321 0 0 1 -2.665,1.75094 z m -1.26075,-5.208 -0.14648,-0.77637 2.42383,-2.41113 -2.78321,0.53027 -0.15234,-0.7998 4.251,-0.80957 0.14648,0.76953 -2.42773,2.418 2.78711,-0.53223 0.15234,0.80078 z m 2.49317,-51.20557 a 0.82864076,0.82864076 0 0 1 -1.17188,-1.17187 16.0142,16.0142 0 0 0 0,-22.64942 0.82865137,0.82865137 0 1 1 1.17188,-1.1719 17.53646,17.53646 0 0 1 5.13556,11.6709 H 52.5 a 0.82617,0.82617 0 0 1 0,1.65234 H 39.12482 a 17.53223,17.53223 0 0 1 -5.13556,11.66988 z m 4.69043,-28.874 a 0.82563,0.82563 0 1 1 0.85058,0.81054 h -0.0205 A 0.83048,0.83048 0 0 1 38.67969,92.1001 Z m 6.41992,-0.09961 a 0.83008,0.83008 0 1 1 -0.83008,-0.83008 0.83441,0.83441 0 0 1 0.83008,0.82999 z M 43.87988,68.56006 a 0.9589,0.9589 0 0 1 -0.33008,-0.05957 0.83209,0.83209 0 0 1 -0.42968,-1.08985 0.82625,0.82625 0 0 1 1.51953,0.64942 0.81043,0.81043 0 0 1 -0.75977,0.5 z m 9.87989,24.9707 a 0.68869,0.68869 0 0 1 -0.13965,-0.02051 0.81545,0.81545 0 0 1 -0.68067,-0.95019 0.8314,0.8314 0 1 1 0.82032,0.9707 z m 1.5,32.79981 a 0.83293,0.83293 0 0 1 0.0498,1.16992 0.82045,0.82045 0 0 1 -0.60937,0.26953 0.81006,0.81006 0 0 1 -0.56055,-0.21973 0.8280075,0.8280075 0 1 1 1.12012,-1.21972 z M 53.14941,72.5708 a 0.83706,0.83706 0 0 1 -0.71,0.40918 0.82085,0.82085 0 0 1 -0.42968,-0.12012 0.843,0.843 0 0 1 -0.29,-1.13965 0.83183,0.83183 0 0 1 1.42968,0.85059 z M 52.25,131.13037 a 0.8434,0.8434 0 0 1 -0.66016,0.32031 0.87035,0.87035 0 0 1 -0.50976,-0.16992 0.84111,0.84111 0 0 1 -0.14063,-1.1709 0.83054,0.83054 0 0 1 1.31055,1.02051 z M 49.42969,134.98 a 0.83488,0.83488 0 0 1 -0.67969,0.36035 0.81348,0.81348 0 0 1 -0.46973,-0.15039 0.82621,0.82621 0 1 1 1.14942,-0.21 z m -2.57031,4.01074 a 0.82733,0.82733 0 0 1 -0.71,0.39942 0.8466,0.8466 0 0 1 -0.42968,-0.12012 0.82738,0.82738 0 1 1 1.13965,-0.2793 z M 44.54,143.1499 a 0.83768,0.83768 0 0 1 -1.12012,0.36035 0.83159,0.83159 0 1 1 1.12012,-0.36035 z m -2.79981,4.80078 a 0.78485,0.78485 0 0 1 -0.33007,-0.0703 0.82164,0.82164 0 0 1 -0.43067,-1.08984 0.82882,0.82882 0 1 1 1.52051,0.66015 v -0.0107 a 0.83241,0.83241 0 0 1 -0.75973,0.51074 z M 52.5,146.62781 a 14.84106,14.84106 0 0 1 14.03436,19.75708 59.95142,59.95142 0 0 0 15.318,2.13391 0.81671,0.81671 0 0 1 1.19464,-0.002 59.74638,59.74638 0 0 0 29.19909,-7.96112 0.82864394,0.82864394 0 0 1 0.82813,1.43555 61.40647,61.40647 0 0 1 -29.7959,8.178 v 16.17456 a 0.82813,0.82813 0 0 1 -1.65625,0 v -16.173 A 61.61252,61.61252 0 0 1 65.89679,167.9256 14.86612,14.86612 0 1 1 52.5,146.62781 Z m 6.16992,-23.69763 a 0.83361,0.83361 0 0 1 -0.03027,1.16992 0.85074,0.85074 0 0 1 -0.58008,0.23047 0.83495,0.83495 0 0 1 -0.56934,-1.43067 0.83654,0.83654 0 0 1 1.17969,0.0303 z M 57.60938,93.51025 a 0.81824,0.81824 0 0 1 1.0205,-0.55957 0.83266,0.83266 0 0 1 -0.23047,1.62989 0.66244,0.66244 0 0 1 -0.23925,-0.04 0.8148,0.8148 0 0 1 -0.55078,-1.03032 z m -0.43946,-18.29 a 0.83488,0.83488 0 0 1 -0.67969,0.36036 0.83142,0.83142 0 0 1 -0.68066,-1.29981 0.8309,0.8309 0 0 1 1.15039,-0.2207 0.843,0.843 0 0 1 0.20996,1.16011 z M 68.54,127.80029 a 0.8298,0.8298 0 0 1 1.08008,-0.46972 0.84633,0.84633 0 0 1 0.46972,1.08007 0.83475,0.83475 0 0 1 -0.7705,0.51954 0.82592,0.82592 0 0 1 -0.76954,-1.12989 z m 35.33008,-30.46972 a 0.857,0.857 0 0 1 -0.53028,0.20019 0.844,0.844 0 0 1 -0.63964,-0.30078 0.82680031,0.82680031 0 1 1 1.26953,-1.05957 0.81533,0.81533 0 0 1 -0.0996,1.16016 z m 1.26953,41.41992 a 0.848,0.848 0 0 1 0.14062,1.16992 0.865,0.865 0 0 1 -0.66015,0.30957 0.8048,0.8048 0 0 1 -0.51074,-0.16992 0.83313112,0.83313112 0 0 1 1.03027,-1.30957 z m -2.26953,-16.75977 a 0.83476,0.83476 0 0 1 -0.77051,0.51953 0.80013,0.80013 0 0 1 -0.29981,-0.0596 0.8283,0.8283 0 1 1 0.61036,-1.54 0.83329,0.83329 0 0 1 0.46,1.08004 z M 101.5,135.68994 a 0.825,0.825 0 0 1 0.0498,1.16992 0.80337,0.80337 0 0 1 -0.61035,0.27051 0.8139,0.8139 0 0 1 -0.55957,-0.21973 0.82837,0.82837 0 0 1 1.12012,-1.2207 z m -1.49023,-35.36914 a 0.85191,0.85191 0 0 1 -0.4795,0.14941 0.82276,0.82276 0 1 1 0.4795,-0.14941 z M 98.93945,66.34033 h -0.01953 a 0.83035,0.83035 0 0 1 -0.03027,-1.66015 0.81475,0.81475 0 0 1 0.85058,0.7998 0.82935,0.82935 0 0 1 -0.80078,0.86035 z M 99.81934,70.27 a 0.82959,0.82959 0 1 1 -1.65918,0 h 0.0098 A 0.82814,0.82814 0 0 1 99,69.43994 0.81907,0.81907 0 0 1 99.81934,70.27 Z m -0.92969,3.93066 a 0.82557,0.82557 0 0 1 -0.04981,1.64942 h -0.05957 a 0.82652137,0.82652137 0 1 1 0.10938,-1.64942 z m -0.46,4.73926 a 0.83028,0.83028 0 0 1 -0.12989,1.65039 c -0.0498,0 -0.08984,-0.0098 -0.13964,-0.0098 a 0.84327,0.84327 0 0 1 -0.68067,-0.96 0.83352,0.83352 0 0 1 0.95024,-0.68061 z m -0.66992,41.63086 a 0.8033,0.8033 0 0 1 -0.37012,-0.0908 0.83083,0.83083 0 0 1 -0.37988,-1.10937 0.83176,0.83176 0 1 1 0.75,1.20019 z m 0.30957,12.96 a 0.78491,0.78491 0 0 1 -0.56934,0.22949 0.83408,0.83408 0 0 1 -0.60059,-0.25 0.84532,0.84532 0 0 1 0.03028,-1.17968 0.83335,0.83335 0 0 1 1.16992,0.0293 0.81542,0.81542 0 0 1 -0.03023,1.17088 z M 98.04,84.63037 a 0.82246,0.82246 0 0 1 -0.79,0.59961 0.66758,0.66758 0 0 1 -0.24023,-0.04 0.82889,0.82889 0 1 1 1.03023,-0.55961 z m -1.5898,4.57031 H 96.46 a 0.84072,0.84072 0 0 1 -0.78027,0.5293 0.80013,0.80013 0 0 1 -0.29981,-0.05957 0.8383,0.8383 0 0 1 -0.46972,-1.08008 H 94.92 a 0.81111,0.81111 0 0 1 1.07031,-0.46 0.82275,0.82275 0 0 1 0.45993,1.07035 z M 71.22949,88.30029 a 0.84192,0.84192 0 0 1 -0.52929,0.19043 0.83078,0.83078 0 1 1 0.63964,-1.36035 h -0.0098 a 0.82693,0.82693 0 0 1 -0.10059,1.16992 z m -0.71,35.08985 A 0.81191,0.81191 0 0 1 71.62008,123.02002 0.824,0.824 0 0 1 72,124.12061 v 0.01 a 0.82957,0.82957 0 0 1 -0.74023,0.4502 0.77816,0.77816 0 0 1 -0.37012,-0.0801 0.82565,0.82565 0 0 1 -0.37012,-1.11035 z M 92.8877,98.27 a 0.82867309,0.82867309 0 0 1 -1.18165,1.16211 12.83872,12.83872 0 0 0 -9.10742,-3.85938 H 82.49121 A 12.83569,12.83569 0 0 0 73.42969,99.28367 0.82867,0.82867 0 1 1 72.26758,98.10203 14.59926,14.59926 0 0 1 92.8877,98.27 Z M 73.16016,90.80029 a 0.827,0.827 0 1 1 0.96972,1.33985 0.81243,0.81243 0 0 1 -0.48047,0.16015 0.82865,0.82865 0 0 1 -0.48925,-1.5 z m 21.31933,2.80957 a 0.81586,0.81586 0 0 1 -0.73926,0.46094 0.8285,0.8285 0 1 1 0.36915,-1.57031 0.81938,0.81938 0 0 1 0.37011,1.10937 z m 0.46,35.2002 a 0.825,0.825 0 0 1 -0.10937,1.16015 0.80476,0.80476 0 0 1 -0.53028,0.19043 0.85329,0.85329 0 0 1 -0.63964,-0.29 0.83591,0.83591 0 0 1 0.10937,-1.16993 0.827,0.827 0 0 1 1.16988,0.10935 z m -22.8291,-11.25977 a 0.83112,0.83112 0 0 1 1.17188,0.01 12.83468,12.83468 0 0 0 9.10742,3.85937 12.656,12.656 0 0 0 9.16894,-3.71093 0.82867,0.82867 0 1 1 1.16211,1.18164 14.485,14.485 0 0 1 -10.22265,4.18652 H 82.376 a 14.48968,14.48968 0 0 1 -10.27539,-4.35449 0.82933,0.82933 0 0 1 0.0097,-1.17188 z m 19.72949,8.65039 a 0.83133,0.83133 0 1 1 -0.96972,-1.35058 0.83133,0.83133 0 0 1 0.96972,1.35058 z m -10.168,25.66486 v -13.365 a 0.82813,0.82813 0 1 1 1.65625,0 v 13.36993 a 17.53555,17.53555 0 0 1 11.61914,5.133 0.82864076,0.82864076 0 1 1 -1.17188,1.17187 16.01422,16.01422 0 0 0 -22.64941,0 0.82864076,0.82864076 0 1 1 -1.17188,-1.17187 17.53237,17.53237 0 0 1 11.71778,-5.13793 z m 13.32519,-91.869 a 17.53689,17.53689 0 0 1 -11.7243,5.13812 l -0.09211,13.067 a 0.82794,0.82794 0 0 1 -0.82812,0.82227 h -0.0059 a 0.82733,0.82733 0 0 1 -0.82227,-0.834 l 0.09211,-13.06061 a 17.53555,17.53555 0 0 1 -11.61359,-5.13275 0.82864,0.82864 0 1 1 1.17187,-1.17187 16.01541,16.01541 0 0 0 22.6504,0 0.82864,0.82864 0 1 1 1.17187,1.17187 z m -26.44727,72.834 a 0.84415,0.84415 0 0 1 -0.7998,0.59961 0.58492,0.58492 0 0 1 -0.23047,-0.04 0.80494,0.80494 0 0 1 -0.55957,-1.01953 0.82273,0.82273 0 0 1 1.01953,-0.57032 0.84148,0.84148 0 0 1 0.57031,1.03027 z M 68.06934,84.66061 a 0.79667,0.79667 0 0 1 -0.56934,0.2295 0.82628,0.82628 0 1 1 0.59961,-1.39942 0.8325,0.8325 0 0 1 -0.03027,1.16995 z m -0.46,11.85938 v -0.0098 A 0.83179,0.83179 0 1 1 66.5,96.89014 0.8114,0.8114 0 0 1 67.60938,96.52 Z m -0.7793,39.90039 a 0.83037,0.83037 0 0 1 -0.12988,1.65039 c -0.05079,0 -0.09082,-0.0107 -0.14063,-0.0107 a 0.83093,0.83093 0 0 1 0.27051,-1.63965 z m -0.78028,14.24023 a 0.83047,0.83047 0 1 1 0.04981,1.66016 H 66.08004 A 0.82856,0.82856 0 0 1 65.25,151.52 0.84086,0.84086 0 0 1 66.0498,150.66064 Z M 65.16992,146.73 A 0.83008,0.83008 0 1 1 66,147.56006 0.83441,0.83441 0 0 1 65.16992,146.73 Z m 0.99024,-3.92969 h -0.06055 a 0.86564,0.86564 0 1 1 0.06055,0 z m -0.21,-24.78027 a 0.77163,0.77163 0 0 1 -0.48047,0.16016 0.83141,0.83141 0 1 1 0.48047,-0.16016 z M 64.66992,81.26025 A 0.822,0.822 0 0 1 64.05957,81.53076 0.856,0.856 0 0 1 63.5,81.31006 0.828,0.828 0 1 1 64.66992,81.26025 Z m -1,14.36036 a 0.84486,0.84486 0 0 1 -0.77051,0.51953 0.81249,0.81249 0 0 1 -0.30957,-0.05957 0.82831,0.82831 0 1 1 1.08008,-0.46 z M 62.2998,119.77 a 0.836,0.836 0 0 1 -0.11035,1.16992 0.85694,0.85694 0 0 1 -0.52929,0.19043 A 0.83054,0.83054 0 1 1 62.2998,119.77 Z M 61.03027,78.1001 a 0.8448,0.8448 0 0 1 -0.66015,0.32031 0.87332,0.87332 0 0 1 -0.51074,-0.16992 0.83352,0.83352 0 0 1 1.03027,-1.31055 0.82718,0.82718 0 0 1 0.14062,1.16016 z m 46.4795,16 a 0.86894,0.86894 0 0 1 -0.58008,0.23047 0.8305,0.8305 0 0 1 -0.57031,-1.43067 0.83127,0.83127 0 0 1 1.15039,1.2002 z m 0.32031,47.68066 a 0.818,0.818 0 0 1 1.14941,-0.21 0.82931,0.82931 0 0 1 -0.46972,1.50977 0.83143,0.83143 0 0 1 -0.67969,-1.29981 z m -1,-19.33008 a 0.8411,0.8411 0 0 1 0.56933,1.0293 0.83015,0.83015 0 0 1 -0.7998,0.60059 0.96406,0.96406 0 0 1 -0.24023,-0.0303 0.851,0.851 0 0 1 -0.55958,-1.04 0.83236,0.83236 0 0 1 1.03028,-0.55961 z m 4.41015,2.67969 c -0.0508,0 -0.0908,-0.01 -0.13085,-0.01 a 0.8337,0.8337 0 1 1 0.13085,0.01 z m 1.75,19.00977 a 0.82761,0.82761 0 1 1 -0.85058,1.41992 0.82762,0.82762 0 1 1 0.85058,-1.41992 z m -2.08007,-53.53028 a 0.83043,0.83043 0 0 1 -0.61036,0.28028 0.85792,0.85792 0 0 1 -0.55957,-0.21973 0.82417,0.82417 0 0 1 -0.0508,-1.16992 0.8345,0.8345 0 0 1 1.16993,-0.06055 0.82456,0.82456 0 0 1 0.0508,1.16992 z m -10.8432,108.923 a 3.735,3.735 0 1 1 -3.735,3.735 3.735,3.735 0 0 1 3.73504,-3.73502 z m -4.10321,-21.39258 a 3.735,3.735 0 1 1 3.735,3.735 3.73495,3.73495 0 0 1 -3.735,-3.73502 z M 65.5705,199.53284 a 3.735,3.735 0 1 1 -3.735,3.735 3.735,3.735 0 0 1 3.735,-3.735 z m -4.10321,-21.39258 a 3.735,3.735 0 1 1 3.735,3.735 3.73495,3.73495 0 0 1 -3.735,-3.735 z m -12.38721,77.19031 a 0.83117,0.83117 0 0 1 -0.04981,1.66015 h -0.06054 a 0.83192,0.83192 0 0 1 0.11035,-1.66015 z m -1.23047,-20.79 a 0.83771,0.83771 0 1 1 0.37988,0.0898 0.85474,0.85474 0 0 1 -0.37988,-0.0899 z m -4.237,-3.76428 a 0.82837,0.82837 0 1 1 0.75977,1.16015 0.97642,0.97642 0 0 1 -0.33008,-0.0703 0.82851,0.82851 0 0 1 -0.42969,-1.08988 z m 1.487,25.22424 a 0.83008,0.83008 0 1 1 -0.83008,-0.83008 0.83441,0.83441 0 0 1 0.83008,0.83004 z m 6.62012,-20.28028 a 0.83432,0.83432 0 0 1 1.42968,0.86036 0.84958,0.84958 0 0 1 -0.71,0.39941 0.82085,0.82085 0 0 1 -0.42968,-0.12012 0.843,0.843 0 0 1 -0.29,-1.13969 z m 1.21972,20.83985 a 0.8314,0.8314 0 1 1 0.82032,0.9707 0.68869,0.68869 0 0 1 -0.13965,-0.0205 0.82044,0.82044 0 0 1 -0.68067,-0.95023 z m 1.15039,33.82031 a 0.82369,0.82369 0 0 1 1.16993,-0.0498 0.83293,0.83293 0 0 1 0.0498,1.16992 0.82045,0.82045 0 0 1 -0.60937,0.26953 0.81006,0.81006 0 0 1 -0.56055,-0.21973 0.82494,0.82494 0 0 1 -0.04981,-1.16996 z m 61.87989,-164.71973 h -0.0498 a 0.85956,0.85956 0 1 1 0.0498,0 z m 1.17968,20.79981 a 0.83351,0.83351 0 0 1 -0.37988,1.57031 0.74352,0.74352 0 0 1 -0.37988,-0.10058 0.81989,0.81989 0 0 1 -0.35938,-1.10938 0.82956,0.82956 0 0 1 1.11914,-0.36039 z m 4.73047,3.12988 a 0.83842,0.83842 0 0 1 -0.75976,0.5 0.7703,0.7703 0 0 1 -0.33012,-0.0704 0.82837,0.82837 0 1 1 1.08984,-0.42969 z m -1.98047,-24.59961 a 0.81381,0.81381 0 0 1 0.83008,-0.82031 0.82521,0.82521 0 1 1 -0.83008,0.82031 z M 112.75,85.85986 a 0.83313421,0.83313421 0 1 1 1.30957,1.03028 0.86451,0.86451 0 0 1 -0.66016,0.31054 0.80232,0.80232 0 0 1 -0.5,-0.16992 0.83357,0.83357 0 0 1 -0.14941,-1.1709 z M 115.56934,82.02 a 0.82083,0.82083 0 0 1 1.15039,-0.21 0.82983,0.82983 0 0 1 -0.46973,1.5108 0.8439,0.8439 0 0 1 -0.46973,-0.15039 0.82177,0.82177 0 0 1 -0.21093,-1.15041 z m 2.57031,-4.00977 a 0.82735,0.82735 0 0 1 1.41992,0.84961 0.83711,0.83711 0 0 1 -0.71,0.41016 0.84664,0.84664 0 0 1 -0.42969,-0.12012 0.83039,0.83039 0 0 1 -0.28023,-1.13963 z M 120.46,73.8501 a 0.82727,0.82727 0 1 1 1.46973,0.75976 0.846,0.846 0 0 1 -0.74024,0.4502 0.73308,0.73308 0 0 1 -0.37011,-0.09961 A 0.82239,0.82239 0 0 1 120.46,73.8501 Z m 2.04,-4.29981 a 0.82837,0.82837 0 1 1 0.75977,1.16016 0.78816,0.78816 0 0 1 -0.33008,-0.07031 A 0.82852,0.82852 0 0 1 122.5,69.55029 Z M 117.88983,7.23615 h 5.33594 v 1.87011 h -3.42188 v 0.6709 h 2.99219 v 1.90332 h -2.99219 v 1.49609 h 3.34473 v 1.89258 h -5.25879 z m -9.87793,0 h 1.90332 v 5.95214 h 3.71878 v 1.88086 h -5.6221 z m -8.26074,-0.209 a 4.07032,4.07032 0 1 1 -4.07031,4.08106 4.09445,4.09445 0 0 1 4.07031,-4.08105 z m 4.05072,32.24066 a 3.735,3.735 0 1 1 -3.73492,-3.735 3.735,3.735 0 0 1 3.73492,3.73501 z M 85.36346,7.23615 h 1.90332 v 2.61816 h 2.43165 V 7.23615 h 1.91406 v 7.833 h -1.91406 v -3.333 h -2.43165 v 3.333 h -1.90332 z m -3.69158,23.41961 a 0.82813,0.82813 0 0 1 1.65625,0 V 46.456 a 61.61174,61.61174 0 0 1 15.93127,2.29437 15.13817,15.13817 0 1 1 -0.67151,1.531 59.94708,59.94708 0 0 0 -15.53723,-2.1737 0.80043,0.80043 0 0 1 -1.09717,0.0029 59.73557,59.73557 0 0 0 -29.27087,7.9964 0.82872,0.82872 0 0 1 -1.13184,-0.30175 0.82852,0.82852 0 0 1 0.30176,-1.13184 61.39042,61.39042 0 0 1 29.81934,-8.21442 z M 73.70331,7.23615 h 1.89258 v 2.38769 l 2.541,-2.38769 h 2.75 L 77.884,10.074 c 1.07813,1.50781 2.57422,3.59765 3.56446,4.99511 h -2.376 l -2.61914,-3.6748 c -0.26367,0.24219 -0.53906,0.51758 -0.85742,0.81445 v 2.86035 h -1.89259 z m -7.48926,-0.209 a 4.2268,4.2268 0 0 1 3.4541,1.91406 l -1.5293,1.12207 a 2.375,2.375 0 0 0 -1.9248,-1.15528 2.18946,2.18946 0 0 0 0,4.37891 2.2947,2.2947 0 0 0 1.90332,-1.10059 l 1.50684,1.11133 a 4.14528,4.14528 0 0 1 -3.41016,1.88183 4.07617,4.07617 0 1 1 0,-8.15234 z M 65.5705,35.53284 a 3.735,3.735 0 1 1 -3.735,3.735 3.735,3.735 0 0 1 3.735,-3.735 z M 54.28925,7.23615 h 1.60644 l 3.02539,7.833 h -2.05762 l -0.67089,-1.78222 h -2.2002 L 53.299,15.06915 h -2.0244 z m -4.43964,84.98406 a 0.8269,0.8269 0 1 1 -0.76953,-0.88964 0.82892,0.82892 0 0 1 0.76953,0.88964 z M 48.60938,69.06006 a 0.83067,0.83067 0 0 1 -0.37989,1.57031 0.85474,0.85474 0 0 1 -0.37988,-0.08984 0.83202192,0.83202192 0 0 1 0.75977,-1.48047 z M 42.07928,7.23615 h 1.90332 v 5.95214 h 3.71875 v 1.88086 h -5.62207 z m -10.33007,0 h 2.96 a 2.118,2.118 0 0 1 1.51758,0.63769 2.32563,2.32563 0 0 1 0.61621,1.585 2.73705,2.73705 0 0 1 -0.10938,0.792 1.96612,1.96612 0 0 1 0.38977,0.33588 l -0.005,-0.0058 0.01074,0.01074 -0.0057,-0.0049 a 2.42911,2.42911 0 0 1 0.79773,1.78717 2.62076,2.62076 0 0 1 -0.792,1.88086 2.73948,2.73948 0 0 1 -1.92481,0.81445 h -3.4551 z m -18.3667,80.48468 a 3.735,3.735 0 1 1 -3.735,3.735 3.73493,3.73493 0 0 1 3.735,-3.735 z m -8.73505,19.95056 h 16.038 A 61.61089,61.61089 0 0 1 22.973,91.8479 a 15.0127,15.0127 0 1 1 1.53766,0.64819 59.82325,59.82325 0 0 0 5.7901,45.8501 0.82864394,0.82864394 0 0 1 -1.43555,0.82813 61.39721,61.39721 0 0 1 -8.17974,-29.84668 H 4.64746 a 0.82813,0.82813 0 0 1 0,-1.65625 z m 17.15723,52.519 a 1.667,1.667 0 0 0 -0.55567,-0.2373 1.34362,1.34362 0 0 1 -0.13086,-0.0371 2.80724,2.80724 0 0 1 -0.81347,-0.31348 1.23781,1.23781 0 0 1 -0.44531,-0.4668 1.13538,1.13538 0 0 1 -0.125,-0.61133 1.2149,1.2149 0 0 1 0.26367,-0.70507 1.46974,1.46974 0 0 1 0.59277,-0.41211 1.5599,1.5599 0 0 1 0.75391,-0.11133 2.30008,2.30008 0 0 1 0.43359,0.0762 2.79173,2.79173 0 0 1 1.22559,0.72266 l 0.10742,0.11035 -0.57129,0.57226 -0.10938,-0.11132 a 1.98233,1.98233 0 0 0 -0.85937,-0.52149 l -0.0068,-0.001 a 1.44286,1.44286 0 0 0 -0.2705,-0.0479 0.958,0.958 0 0 0 -0.41114,0.0586 0.47566,0.47566 0 0 0 -0.34375,0.42285 0.37069,0.37069 0 0 0 0.18653,0.335 1.80523,1.80523 0 0 0 0.55175,0.22266 4.33525,4.33525 0 0 1 0.95508,0.35839 1.28575,1.28575 0 0 1 0.40918,0.459 1.131,1.131 0 0 1 0.11524,0.59082 1.23844,1.23844 0 0 1 -0.25586,0.6582 1.42242,1.42242 0 0 1 -0.55957,0.39063 1.6812,1.6812 0 0 1 -0.73047,0.11133 2.93435,2.93435 0 0 1 -0.32031,-0.0449 2.45839,2.45839 0 0 1 -1.1045,-0.61816 l -0.1084,-0.10352 0.55469,-0.59179 0.1084,0.10547 a 1.52731,1.52731 0 0 0 0.92676,0.4541 0.91983,0.91983 0 0 0 0.38086,-0.0557 0.43718,0.43718 0 0 0 0.30176,-0.35156 0.3236,0.3236 0 0 0 -0.14551,-0.30663 z m 0.33789,22.91895 a 2.25936,2.25936 0 0 1 1.03711,0.10058 2.23033,2.23033 0 0 1 0.87793,0.55176 l 0.11328,0.10644 -0.57617,0.56446 -0.10743,-0.10742 a 1.42958,1.42958 0 0 0 -1.23339,-0.417 1.45579,1.45579 0 1 0 1.47363,2.14649 l 0.07519,-0.126 0.70118,0.37988 -0.07911,0.13379 a 2.23786,2.23786 0 0 1 -1.66015,1.14258 2.28168,2.28168 0 0 1 -0.89453,-0.0537 2.31237,2.31237 0 0 1 -0.77637,-0.38086 2.11022,2.11022 0 0 1 -0.58008,-0.64941 2.19581,2.19581 0 0 1 -0.30078,-0.84473 2.26537,2.26537 0 0 1 1.92969,-2.54681 z m -5.83692,0.97558 -0.31445,0.73731 -1.03223,-0.44141 -0.82031,1.9209 -0.74219,-0.31738 1.69629,-3.97559 2.61328,1.11523 -0.3125,0.73243 -1.87109,-0.79883 -0.249,0.58691 z m -10.12793,-16.71773 0.23047,-0.7793 4.13965,1.22461 -0.23144,0.77832 -1.37207,-0.40527 -0.4961,1.67968 1.37207,0.40528 -0.22949,0.77929 -4.14062,-1.22363 0.23046,-0.77929 2.00684,0.59375 0.49609,-1.68063 z m 4.73438,-6.82031 0.749,-0.45313 0.98145,0.76855 1.22461,-0.74218 -0.21973,-1.22949 0.74317,-0.44825 0.81349,4.55762 -0.6289,0.37988 z m 3.25195,20.78417 -2.65332,3.417 -0.64355,-0.499 2.65429,-3.418 z m -0.78155,-51.64379 a 3.735,3.735 0 1 1 3.73492,-3.735 3.735,3.735 0 0 1 -3.73492,3.735 z M 11.60645,162.794 a 2.25847,2.25847 0 0 1 -0.30372,3.749 2.21355,2.21355 0 0 1 -0.83789,0.26758 l -0.16211,0.0195 -0.043,-0.79981 0.1416,-0.0205 a 1.39029,1.39029 0 0 0 0.94629,-0.54493 1.45686,1.45686 0 0 0 -2.28907,-1.80273 1.47175,1.47175 0 0 0 -0.2998,1.11523 l 0.70605,0.55664 0.73243,-0.93066 0.63378,0.501 -1.22456,1.55365 -1.56345,-1.23339 -0.00977,-0.0459 a 2.28591,2.28591 0 0 1 0.39746,-2.01367 2.26273,2.26273 0 0 1 3.17576,-0.37104 z m -2.01954,8.94921 0.127,2.84082 -0.78711,0.0361 -0.09082,-2.03028 -0.63672,0.0283 0.0791,1.77051 -0.80566,0.0361 -0.07911,-1.76953 -1.28515,0.0576 0.08887,1.97559 -0.79981,0.0361 -0.126,-2.78809 z m -0.16113,4.47168 -0.37109,-0.99316 0.749,-0.28027 1.02832,2.748 -0.749,0.28028 L 9.71094,176.97657 6.417,178.21 6.13185,177.44828 Z m 1.59961,3.10059 -0.65332,-0.83887 0.63379,-0.49316 1.80566,2.32031 -0.63281,0.49317 -0.65234,-0.83887 -2.78223,2.16308 -0.499,-0.6416 z m 2.35712,72.4054 a 3.735,3.735 0 1 1 -3.735,3.735 3.73493,3.73493 0 0 1 3.735,-3.73505 z m 4.13507,-89.68274 a 1.1065,1.1065 0 1 1 -0.53809,-2.14649 l 0.7168,-0.17969 -0.51172,-2.041 0.78223,-0.19629 1.0498,4.18652 z m 0.95508,21.1455 0.80468,0.12012 -0.64257,4.27442 -0.80469,-0.1211 z M 3.81934,272.49951 a 0.82791,0.82791 0 0 1 0.82812,-0.82812 h 16.038 a 61.61089,61.61089 0 0 1 2.28754,-15.82349 15.0127,15.0127 0 1 1 1.53766,0.64819 59.82325,59.82325 0 0 0 5.7901,45.8501 0.82864394,0.82864394 0 0 1 -1.43555,0.82813 61.39721,61.39721 0 0 1 -8.17974,-29.84668 H 4.64746 a 0.82792,0.82792 0 0 1 -0.82812,-0.82813 z m 6.04,61.59131 -0.24317,0.77539 -4.11816,-1.29394 0.24414,-0.77442 1.99511,0.627 0.52442,-1.67187 -1.99508,-0.62698 0.24414,-0.77442 4.11719,1.29395 -0.24414,0.77441 -1.36426,-0.42871 -0.52441,1.67188 z m 0.70312,-3.44824 -0.16211,0.0156 -0.0293,-0.79882 0.14063,-0.0186 a 1.39022,1.39022 0 0 0 0.956,-0.52832 1.4565,1.4565 0 1 0 -2.57617,-0.73145 l 0.69531,0.56836 0.74805,-0.917 0.626,0.50977 L 9.71,330.27441 8.167,329.0166 8.15919,328.9707 a 2.28878,2.28878 0 0 1 0.42969,-2.00683 2.26134,2.26134 0 1 1 2.81543,3.4248 2.19332,2.19332 0 0 1 -0.84181,0.25391 z m 0.55273,-6.25586 0.75684,-0.44043 0.96777,0.78516 1.23731,-0.72071 -0.19824,-1.23242 0.751,-0.43652 0.73535,4.57031 -0.63476,0.36914 z m 2.26728,-30.69946 a 3.735,3.735 0 1 1 3.73492,-3.735 3.735,3.735 0 0 1 -3.73488,3.735 z m -8.09735,41.9934 4.31738,-0.12207 0.08008,2.84473 -0.78809,0.0215 -0.05762,-2.03125 -0.63671,0.0186 0.0498,1.76953 -0.80664,0.0234 -0.04883,-1.77051 -1.28613,0.0352 0.05566,1.97754 -0.7998,0.0225 z m 0.76757,5.52637 3.3125,-1.17773 -0.35449,-1 0.75391,-0.26758 0.98242,2.76465 -0.75488,0.26758 -0.35449,-1 -3.31348,1.17773 z m 2.04395,4.06543 2.81543,-2.11719 -0.63867,-0.84863 0.6416,-0.4834 1.7666,2.35059 -0.6416,0.48144 -0.63867,-0.84863 -2.81633,2.11621 z m 2.57422,2.81348 2.71094,-3.37207 0.63476,0.50976 -2.71094,3.37207 z m 6.5332,-0.28321 -1.85742,-0.83007 -0.25977,0.582 1.02442,0.459 -0.32617,0.73145 -1.02539,-0.458 -0.85254,1.90625 -0.73633,-0.33008 1.76367,-3.94629 2.59375,1.16016 z m 1.17774,3.74219 -0.80176,-0.13379 0.71387,-4.26269 0.80273,0.13379 z m -0.6875,-25.55664 a 1.10594,1.10594 0 1 1 -0.501,-2.1543 l 0.71973,-0.168 -0.47754,-2.04786 0.78515,-0.18359 0.9795,4.20313 z m 2.17871,-1.06348 0.56445,-0.582 0.1084,0.10645 a 1.51827,1.51827 0 0 0 0.918,0.46973 0.92384,0.92384 0 0 0 0.38086,-0.0479 0.445,0.445 0 0 0 0.30859,-0.34765 0.327,0.327 0 0 0 -0.14062,-0.30957 1.684,1.684 0 0 0 -0.55274,-0.24512 c -0.03516,-0.009 -0.082,-0.0244 -0.12988,-0.041 a 2.79541,2.79541 0 0 1 -0.80762,-0.32617 1.23547,1.23547 0 0 1 -0.43652,-0.47363 1.12339,1.12339 0 0 1 -0.11524,-0.6123 1.22829,1.22829 0 0 1 0.27539,-0.70313 1.492,1.492 0 0 1 0.59864,-0.40234 1.58443,1.58443 0 0 1 0.75683,-0.0977 2.34314,2.34314 0 0 1 0.43262,0.084 2.78412,2.78412 0 0 1 1.21191,0.74317 l 0.10645,0.11133 -0.58008,0.56347 -0.10742,-0.11328 a 1.9751,1.9751 0 0 0 -0.85156,-0.53613 l -0.0068,-10e-4 a 1.34732,1.34732 0 0 0 -0.26855,-0.0527 0.95164,0.95164 0 0 0 -0.41309,0.0527 0.46962,0.46962 0 0 0 -0.34961,0.416 0.362,0.362 0 0 0 0.18066,0.33691 1.77336,1.77336 0 0 0 0.54688,0.2334 4.35607,4.35607 0 0 1 0.9502,0.375 1.28408,1.28408 0 0 1 0.40039,0.46484 1.13041,1.13041 0 0 1 0.10449,0.59278 1.23839,1.23839 0 0 1 -0.26563,0.65429 1.44288,1.44288 0 0 1 -0.56738,0.37989 1.65828,1.65828 0 0 1 -0.73242,0.0996 2.99381,2.99381 0 0 1 -0.31934,-0.0498 2.47015,2.47015 0 0 1 -1.09277,-0.63672 z m 4.31738,25.582 a 2.23791,2.23791 0 0 1 -1.67871,1.11523 2.231,2.231 0 0 1 -1.66406,-0.46289 2.07646,2.07646 0 0 1 -0.56836,-0.6582 2.1884,2.1884 0 0 1 -0.28809,-0.85059 2.25688,2.25688 0 0 1 3.00883,-2.39449 2.21693,2.21693 0 0 1 0.86914,0.56543 l 0.11035,0.10937 -0.58594,0.55372 -0.10449,-0.10938 a 1.43046,1.43046 0 0 0 -1.22754,-0.4375 1.45554,1.45554 0 1 0 1.43848,2.1709 l 0.07617,-0.126 0.69531,0.39258 z m 4.59082,-1.21875 -0.94727,-0.8125 -1.25976,0.68652 0.16406,1.23926 -0.76269,0.417 -0.60938,-4.59668 0.64551,-0.35156 3.53906,2.999 z m 2.249,-1.83594 -2.50586,-2.46777 -0.74414,0.75585 -0.57031,-0.56152 2.05957,-2.09082 0.57031,0.56152 -0.74414,0.75684 2.50489,2.46777 z m 2.416,-2.99219 -3.73821,-2.16304 0.40722,-0.70313 3.73926,2.16309 z m 1.9209,-4.57226 a 2.25756,2.25756 0 1 1 -1.69727,-2.70411 2.2547,2.2547 0 0 1 1.69735,2.70415 z m -3.86611,-3.52243 -0.13477,-0.77832 2.46387,-2.37011 -2.79,0.4834 -0.13867,-0.80176 4.26367,-0.73828 0.13379,0.77246 -2.46973,2.376 2.79688,-0.48437 0.13867,0.80176 z m 33.70129,9.51 a 3.735,3.735 0 1 1 3.735,-3.735 3.735,3.735 0 0 1 -3.73502,3.73501 z M 91,372.78314 A 3.21688,3.21688 0 0 1 87.78314,376 H 77.21692 A 3.21689,3.21689 0 0 1 74,372.78314 V 342.21692 A 3.2169,3.2169 0 0 1 77.21692,339 H 87.78314 A 3.21689,3.21689 0 0 1 91,342.21692 Z m -4.413,-8.88309 a 1.82122,1.82122 0 0 1 -1.10036,1.03444 2.30462,2.30462 0 0 1 -0.75781,0.12505 2.27843,2.27843 0 0 1 -1.04757,-0.19755 1.82258,1.82258 0 0 1 -0.58632,-0.46126 1.41951,1.41951 0 0 1 -0.28341,-0.64567 4.30892,4.30892 0 0 1 -0.05937,-0.7116 q 0,-0.50113 0.01972,-0.69188 a 0.53341,0.53341 0 0 1 0.04621,-0.2175 1.19481,1.19481 0 0 1 0.43475,-0.0394 h 3.08382 a 0.99658,0.99658 0 0 1 0.21749,0.0197 0.19613,0.19613 0 0 1 0.13162,0.10534 0.671,0.671 0 0 1 0.05936,0.25691 q 0.013,0.17139 0.01338,0.4744 a 2.38151,2.38151 0 0 1 -0.17151,0.949 m -5.32349,-12.82164 a 0.293,0.293 0 0 1 0.107,-0.1959 0.53848,0.53848 0 0 1 0.28506,-0.0892 q 0.196,-0.0176 0.55252,-0.0178 a 2.80553,2.80553 0 0 1 2.12987,0.77518 2.88439,2.88439 0 0 1 0.73975,2.07661 c 0,0.0821 -0.01712,0.25925 -0.02792,0.38078 -0.06827,-9.4e-4 -0.13655,-0.002 -0.20482,-0.003 q -0.28049,-0.006 -0.60954,-0.0305 a 0.1528,0.1528 0 0 0 -0.0793,0.14007 0.20328,0.20328 0 0 0 0.05514,0.1647 l 0.21913,0.0244 a 1.5481,1.5481 0 0 1 0.36577,0.0791 q 0.1464,0.0549 0.1464,0.1159 a 0.70261,0.70261 0 0 1 -0.0732,0.22547 q -0.0732,0.1647 -0.195,0.396 -0.12211,0.23193 -0.26206,0.49387 -0.14043,0.2622 -0.26231,0.49364 -0.28049,0.53669 -0.57293,1.05437 -0.29247,0.5184 -0.57271,1.00581 -0.354,-0.63383 -0.69494,-1.32864 -0.34137,-0.69505 -0.68274,-1.37768 c -0.01642,-0.0324 -0.04458,-0.0931 -0.08517,-0.18276 q -0.06123,-0.13374 -0.1281,-0.28647 c -0.04481,-0.10159 -0.08352,-0.19685 -0.11589,-0.28647 a 0.66492,0.66492 0 0 1 -0.04857,-0.18277 c 0,-0.0488 0.03214,-0.0873 0.09736,-0.1159 a 2.41544,2.41544 0 0 1 0.41458,-0.10347 l 0.15836,-0.0244 a 0.21355,0.21355 0 0 0 0.05491,-0.1708 0.13,0.13 0 0 0 -0.09127,-0.134 q -0.25973,0.0204 -0.63723,0.0293 v -2.58635 a 2.50718,2.50718 0 0 1 0.01783,-0.33879 m 1.00933,9.125 q 0,0.48777 -0.0122,0.78011 a 1.28727,1.28727 0 0 1 -0.0854,0.457 0.4867,0.4867 0 0 1 -0.0617,0.10441 l -0.0016,9.4e-4 a 2.28289,2.28289 0 0 1 -0.35826,-0.0945 0.59649,0.59649 0 0 1 -0.34747,-0.32073 1.88044,1.88044 0 0 1 -0.13373,-0.65059 q -0.02675,-0.41844 -0.02675,-1.11373 v -2.53787 l 0.63723,1.2416 q 0.13372,0.2562 0.21326,0.43287 a 1.9,1.9 0 0 1 0.11567,0.32917 2.002,2.002 0 0 1 0.0488,0.32307 q 0.012,0.17068 0.0122,0.42654 z m 5.03092,1.50742 q 0.07917,-0.2196 0.15836,-0.46923 0.07919,-0.24987 0.1464,-0.48777 0.06687,-0.23755 0.10371,-0.39627 a 0.19005,0.19005 0 0 0 -0.14031,-0.10957 0.18467,0.18467 0 0 0 -0.1647,0.0244 5.71306,5.71306 0 0 1 -0.46924,0.78011 1.4725,1.4725 0 0 1 -0.396,0.40237 1.30973,1.30973 0 0 1 -0.2257,0.0852 1.791,1.791 0 0 1 -0.30477,0.0549 q -0.17667,0.0183 -0.42654,0.0305 -0.24987,0.0122 -0.60343,0.0122 -0.40225,0 -0.66444,-0.0244 a 3.337,3.337 0 0 1 -0.42043,-0.0608 1.05233,1.05233 0 0 1 -0.24987,-0.0854 0.43776,0.43776 0 0 1 -0.14031,-0.10981 0.8459,0.8459 0 0 1 -0.18887,-0.46923 6.051,6.051 0 0 1 -0.0427,-0.79864 v -0.80451 c 0.0019,-0.11144 0.0052,-0.21 0.0099,-0.29444 a 1.92638,1.92638 0 0 1 0.06687,-0.42044 2.12154,2.12154 0 0 1 0.1708,-0.41457 c 0.0183,-0.035 0.03894,-0.0727 0.06077,-0.11238 0.02932,-9.4e-4 0.05982,-0.001 0.09384,-0.001 h 0.70714 q 0.35334,0 0.579,0.0122 a 1.78038,1.78038 0 0 1 0.35966,0.0486 0.42946,0.42946 0 0 1 0.26207,0.1708 0.8698,0.8698 0 0 1 0.11591,0.29257 l 0.10956,0.47534 a 0.18508,0.18508 0 0 0 0.16447,0.0549 0.17523,0.17523 0 0 0 0.1525,-0.0671 q 0,-0.20729 -0.0244,-0.52413 -0.02463,-0.31709 -0.0244,-0.64614 0,-0.35334 0.0244,-0.6825 0.02428,-0.32941 0.0244,-0.54878 a 0.177,0.177 0 0 0 -0.1525,-0.0671 0.18632,0.18632 0 0 0 -0.16447,0.0549 l -0.09737,0.5 a 0.76166,0.76166 0 0 1 -0.1159,0.31086 0.38642,0.38642 0 0 1 -0.17666,0.11567 1.71986,1.71986 0 0 1 -0.378,0.0549 q -0.26851,0.0183 -0.65834,0.0183 h -0.55089 l 0.0122,-0.0202 0.76791,-1.32865 q 0.23121,-0.39029 0.42067,-0.72544 a 6.56734,6.56734 0 0 1 0.37163,-0.59123 2.10527,2.10527 0 0 1 0.378,-0.41434 1.00562,1.00562 0 0 1 0.08305,-0.0601 0.99485,0.99485 0 0 1 0.46783,0.37281 1.37892,1.37892 0 0 1 0.1586,0.32893 q 0.06052,0.183 0.134,0.40237 a 0.16527,0.16527 0 0 0 0.1586,0.0488 0.18108,0.18108 0 0 0 0.14616,-0.0732 q -0.02463,-0.195 -0.04246,-0.44483 -0.01865,-0.24987 -0.04293,-0.48754 c -0.01619,-0.1586 -0.03754,-0.30008 -0.05467,-0.42677 a 3.82358,3.82358 0 0 1 -0.03285,-0.58115 3.21012,3.21012 0 0 0 -1.46754,-2.6784 4.20836,4.20836 0 0 0 -1.46143,-0.55252 10.53439,10.53439 0 0 0 -1.96047,-0.16048 q -1.123,0 -1.96938,0.0267 -0.84674,0.0267 -1.55974,0.11591 a 0.22336,0.22336 0 0 0 -0.11567,0.20482 0.29669,0.29669 0 0 0 0.08024,0.24071 l 0.64145,0.0713 a 1.56947,1.56947 0 0 1 0.47252,0.1159 0.49919,0.49919 0 0 1 0.2494,0.294 1.94407,1.94407 0 0 1 0.09807,0.57035 q 0.0176,0.35651 0.01783,0.92674 v 6.57682 q 0,0.69469 -0.01783,1.11373 a 1.77427,1.77427 0 0 1 -0.12482,0.65059 0.60544,0.60544 0 0 1 -0.32072,0.32073 2.52651,2.52651 0 0 1 -0.606,0.14264 l -0.37445,0.0535 a 0.27666,0.27666 0 0 0 -0.0732,0.22171 c -4.7e-4,0.19075 -0.0026,0.25128 -0.0066,0.46619 q -0.0063,0.36917 -0.03355,0.82538 c 0.01806,0.0448 0.06921,0.0716 0.15438,0.0807 a 0.19312,0.19312 0 0 0 0.18136,-0.0537 l 0.04011,-0.282 a 1.90437,1.90437 0 0 1 0.10746,-0.45609 0.45579,0.45579 0 0 1 0.24166,-0.24166 1.33214,1.33214 0 0 1 0.48988,-0.0943 q 0.31533,-0.013 0.839,-0.0131 H 81.972 a 0.84011,0.84011 0 0 1 0.168,0.0131 0.12068,0.12068 0 0 1 0.087,0.0741 0.56931,0.56931 0 0 1 0.03379,0.1877 c 0.0042,0.0852 0.0066,0.20341 0.0066,0.35568 a 1.40209,1.40209 0 0 1 -0.10066,0.60414 0.90111,0.90111 0 0 1 -0.32893,0.34911 q -0.22841,0.16119 -0.50326,0.3355 -0.27555,0.17421 -0.55041,0.34888 -0.2752,0.17455 -0.53023,0.33574 -0.25515,0.16083 -0.443,0.29515 a 7.44732,7.44732 0 0 0 -0.839,0.678 2.97071,2.97071 0 0 0 -0.51663,0.63745 2.23581,2.23581 0 0 0 -0.26183,0.67781 3.88494,3.88494 0 0 0 -0.07367,0.78527 1.9807,1.9807 0 0 0 0.06687,0.59053 0.10913,0.10913 0 0 0 0.18816,-0.0134 1.7656,1.7656 0 0 1 0.1274,-0.50982 1.56466,1.56466 0 0 1 0.24846,-0.41622 5.1893,5.1893 0 0 1 0.63745,-0.65787 q 0.35544,-0.30864 0.78527,-0.63088 0.42935,-0.322 0.96639,-0.66421 0.53668,-0.34242 1.18131,-0.74514 a 0.8392,0.8392 0 0 1 0.16775,-0.0873 0.14659,0.14659 0 0 1 0.15437,0.0202 2.74788,2.74788 0 0 0 0.28178,0.54361 2.90518,2.90518 0 0 0 0.46313,0.54384 2.41057,2.41057 0 0 0 0.64426,0.42278 2.04368,2.04368 0 0 0 0.85237,0.16775 2.01051,2.01051 0 0 0 1.16794,-0.31556 2.2181,2.2181 0 0 0 0.71135,-0.79864 2.95913,2.95913 0 0 0 0.32894,-1.04006 9.07734,9.07734 0 0 0 0.07367,-1.20171 5.06313,5.06313 0 0 1 0.137,-1.27539 m 12.395,-15.83559 a 3.735,3.735 0 1 1 3.735,-3.735 3.735,3.735 0 0 1 -3.73488,3.73499 z m 13.37549,-19.88354 a 61.48931,61.48931 0 0 1 -47.17743,5.9339 14.93841,14.93841 0 1 1 0.63757,-1.54071 59.83967,59.83967 0 0 0 45.71173,-5.82874 0.82864394,0.82864394 0 0 1 0.82813,1.43555 z m 2.07519,-37.21094 a 0.82700531,0.82700531 0 1 1 1.65039,0.10938 0.83063,0.83063 0 0 1 -0.83007,0.7705 h -0.0498 a 0.81525,0.81525 0 0 1 -0.77039,-0.87989 z m 2.36036,22.79981 a 0.85028,0.85028 0 0 1 -0.74024,0.45019 0.74352,0.74352 0 0 1 -0.37988,-0.10058 0.81989,0.81989 0 0 1 -0.35938,-1.10938 0.83159045,0.83159045 0 1 1 1.4795,0.75977 z m 3.87835,2.97842 a 0.83842,0.83842 0 0 1 -0.75977,0.5 0.77026,0.77026 0 0 1 -0.33007,-0.0703 0.82837,0.82837 0 1 1 1.08984,-0.42969 z m 10.30927,25.34631 a 2.26357,2.26357 0 0 1 -2.4668,-2.0332 2.23342,2.23342 0 0 1 0.0908,-0.88867 2.19741,2.19741 0 0 1 0.41992,-0.77246 l 0.10352,-0.126 0.584,0.54785 -0.0859,0.11231 a 1.38678,1.38678 0 0 0 -0.30761,1.04883 1.45793,1.45793 0 0 0 2.90234,-0.28028 1.476,1.476 0 0 0 -0.55469,-1.01465 l -0.89648,0.0869 0.11328,1.17969 -0.80469,0.0771 -0.18945,-1.97168 1.98437,-0.1914 0.0391,0.0273 a 2.25892,2.25892 0 0 1 -0.93164,4.19824 z m 0.26464,-12.00781 0.42969,-0.59668 4.48535,1.17774 -0.51172,0.71 -1.20507,-0.32325 -0.83985,1.16211 0.68262,1.04688 -0.44147,0.61182 -0.247,0.87841 -2.45215,0.90821 -0.0937,0.333 2.03516,0.57325 -0.21387,0.76074 -4.165,-1.17188 0.41895,-1.49121 a 1.12244,1.12244 0 0 1 1.36523,-0.76562 1.12053,1.12053 0 0 1 0.79395,0.87988 l 2.4339,-0.89941 z m 4.41016,-4.30078 0.69141,-0.52539 1.28906,4.45117 -0.585,0.44336 -3.94531,-2.43457 0.69628,-0.52832 2.749,1.70312 z m -3.14941,23.082 2.32519,-2.16308 -0.38867,-0.0693 0.14941,-0.793 1.208,0.21875 0.42969,0.46289 -3.165,2.94434 z m 5.83886,0.84473 -0.86132,1.31738 a 1.48488,1.48488 0 0 1 -2.6875,-0.51562 1.44706,1.44706 0 0 1 0.20605,-1.10547 l 0.86035,-1.31739 a 1.46572,1.46572 0 0 1 0.92969,-0.63379 1.50434,1.50434 0 0 1 1.75391,1.14551 1.44752,1.44752 0 0 1 -0.20118,1.10937 z m -0.30078,-25.09961 0.76074,-0.28711 1.52832,4.041 -0.76074,0.28711 z m 2.28125,28.87695 -0.709,-0.18555 -0.52735,-4.59668 0.84571,0.22071 0.36133,3.207 1.88574,-2.623 0.83691,0.21875 z m 2.69922,-25.6582 -0.80859,0.0879 -0.37793,-3.501 -1.05664,0.11328 -0.0859,-0.79687 2.92187,-0.31543 0.0859,0.79785 -1.05664,0.11231 z m 4.00195,-1.74414 -0.46679,2.084 -0.79981,-0.17969 0.4668,-2.084 -1.042,-2.47266 0.9707,0.21778 0.6543,1.54687 1.252,-1.11914 0.96484,0.2168 z m 6.62207,7.90039 a 1.733,1.733 0 0 1 -0.35742,-0.47852 1.48831,1.48831 0 0 1 -0.14062,-1.15429 1.15413,1.15413 0 0 1 0.0918,-0.24317 l 0.0703,-0.13965 0.73144,0.36817 -0.0674,0.13086 a 0.745,0.745 0 0 0 -0.005,0.67675 0.728,0.728 0 0 0 0.96093,0.30665 0.74176,0.74176 0 0 0 0.30957,-0.98145 0.68761,0.68761 0 0 0 -0.23242,-0.24219 l -0.0469,-0.0361 -0.165,-0.751 2.09472,-0.48242 0.95508,1.79492 -0.71289,0.37989 -0.65234,-1.24024 -0.584,0.13086 0.04,0.0752 a 1.57092,1.57092 0 0 1 0.12793,1.16894 1.48478,1.48478 0 0 1 -0.28027,0.53418 1.65925,1.65925 0 0 1 -0.46582,0.37891 1.47683,1.47683 0 0 1 -1.14649,0.0937 1.6703,1.6703 0 0 1 -0.52538,-0.29003 z m -3.11035,-38.11157 a 3.735,3.735 0 1 1 3.735,-3.735 3.735,3.735 0 0 1 -3.735,3.73499 z m 4.03418,41.39868 -0.12207,-0.72364 3.98242,-2.35742 0.14356,0.86035 -2.78027,1.64063 3.16406,0.65039 0.14355,0.85449 z m 5.05567,-61.75733 h -16.03022 a 61.60543,61.60543 0 0 1 -2.28723,15.82361 15.01279,15.01279 0 1 1 -1.53753,-0.64819 59.82695,59.82695 0 0 0 -5.77491,-45.82288 0.82864144,0.82864144 0 0 1 1.43555,-0.82812 61.409,61.409 0 0 1 8.16419,29.81933 h 16.03015 a 0.82813,0.82813 0 0 1 0,1.65625 z M 155.96,166.2832 a 0.69641,0.69641 0 0 0 -0.23242,-0.24218 l -0.0459,-0.0361 -0.166,-0.751 2.09473,-0.48243 0.95508,1.79493 -0.71289,0.37988 -0.65332,-1.24121 -0.583,0.13183 c 0.0147,0.0264 0.0283,0.0527 0.04,0.0752 a 1.57066,1.57066 0 0 1 0.12695,1.16894 1.47529,1.47529 0 0 1 -0.27929,0.53418 1.65921,1.65921 0 0 1 -0.46582,0.37891 1.47684,1.47684 0 0 1 -1.14649,0.0937 1.64345,1.64345 0 0 1 -0.52539,-0.291 1.69525,1.69525 0 0 1 -0.35742,-0.47754 1.48148,1.48148 0 0 1 -0.13965,-1.15528 1.107,1.107 0 0 1 0.0908,-0.24218 l 0.0693,-0.13965 0.73242,0.36816 -0.0674,0.13086 a 0.742,0.742 0 0 0 -0.005,0.67676 0.72888,0.72888 0 0 0 0.96094,0.30664 0.74175,0.74175 0 0 0 0.30958,-0.98143 z m 3.71875,4.8711 0.14356,0.85547 -4.53131,-0.92577 -0.1211,-0.72265 3.98145,-2.35742 0.14453,0.86035 -2.78028,1.64062 z m -8.42383,-41.467 a 3.735,3.735 0 1 1 3.735,-3.735 3.735,3.735 0 0 1 -3.73504,3.73496 z m 3.735,125.76855 a 3.735,3.735 0 1 1 -3.735,-3.735 3.735,3.735 0 0 1 3.73495,3.73496 z m -7.24573,-95.55835 -0.4668,2.084 -0.7998,-0.17872 0.4668,-2.084 -1.042,-2.47266 0.97071,0.2168 0.65332,1.54688 1.25293,-1.11914 0.96484,0.21777 z m 12.60059,-50.56885 h -16.03027 a 61.60543,61.60543 0 0 1 -2.28723,15.82361 15.01279,15.01279 0 1 1 -1.53753,-0.64819 59.82695,59.82695 0 0 0 -5.77491,-45.82288 0.82864144,0.82864144 0 0 1 1.43555,-0.82812 61.409,61.409 0 0 1 8.16419,29.81933 h 16.03015 a 0.82813,0.82813 0 0 1 0,1.65625 z"
       style="fill:#252626"
       id="path79"
       inkscape:connector-curvature="0" />
    <path
       d="m 63.37891,203.8208 h 4.38379 a 0.55274,0.55274 0 0 0 0,-1.10547 h -4.38379 a 0.55274,0.55274 0 1 0 0,1.10547 z"
       style="fill:#252626"
       id="path81"
       inkscape:connector-curvature="0" />
    <path
       d="m 102.44336,178.14014 a 0.55348,0.55348 0 0 0 -0.55273,-0.55274 h -4.38379 a 0.55274,0.55274 0 1 0 0,1.10547 h 4.38379 a 0.55348,0.55348 0 0 0 0.55273,-0.55273 z"
       style="fill:#252626"
       id="path83"
       inkscape:connector-curvature="0" />
    <path
       d="m 138.18457,346.15332 a 0.67038,0.67038 0 0 0 -0.92871,0.19141 l -0.86133,1.3164 a 0.6745841,0.6745841 0 1 0 1.12988,0.73731 l 0.85938,-1.31739 a 0.67049,0.67049 0 0 0 -0.19922,-0.92773 z"
       style="fill:#252626"
       id="path85"
       inkscape:connector-curvature="0" />
  </g>
  <g
     id="g97"
     transform="matrix(1.2799927,0,0,1.2799927,0,-1.3088402)">
    <g
       id="g93">
      <circle
         cx="23"
         cy="7"
         r="5.73633"
         style="fill:#bcbcbc"
         id="circle89" />
      <path
         d="M 23.00005,1.5275 A 5.47253,5.47253 0 1 1 17.52752,7 5.47874,5.47874 0 0 1 23.00005,1.5275 m 0,-0.52747 a 6,6 0 1 0 6,6 6,6 0 0 0 -6,-6 z"
         style="fill:#808080"
         id="path91"
         inkscape:connector-curvature="0" />
    </g>
    <polygon
       points="23.659,3.506 22.341,3.506 22.341,6.341 19.506,6.341 19.506,7.659 22.341,7.659 22.341,10.495 23.659,10.495 23.659,7.659 26.495,7.659 26.495,6.341 23.659,6.341 "
       style="fill:#6e6e6e"
       id="polygon95" />
  </g>
  <g
     id="g107"
     transform="matrix(1.2799927,0,0,1.2799927,0,-1.3088402)">
    <g
       id="g103">
      <circle
         cx="142"
         cy="7"
         r="5.73633"
         style="fill:#bcbcbc"
         id="circle99" />
      <path
         d="M 142,1.5275 A 5.47253,5.47253 0 1 1 136.52751,7 5.47874,5.47874 0 0 1 142,1.5275 M 142,1 a 6,6 0 1 0 6,6 6,6 0 0 0 -6,-6 z"
         style="fill:#808080"
         id="path101"
         inkscape:connector-curvature="0" />
    </g>
    <polygon
       points="142.659,3.506 141.341,3.506 141.341,6.341 138.506,6.341 138.506,7.659 141.341,7.659 141.341,10.495 142.659,10.495 142.659,7.659 145.495,7.659 145.495,6.341 142.659,6.341 "
       style="fill:#6e6e6e"
       id="polygon105" />
  </g>
  <g
     id="g117"
     transform="matrix(1.2799927,0,0,1.2799927,0,-1.3088402)">
    <g
       id="g113">
      <circle
         cx="23"
         cy="373"
         r="5.73633"
         style="fill:#bcbcbc"
         id="circle109" />
      <path
         d="M 23.00005,367.5275 A 5.47253,5.47253 0 1 1 17.52752,373 a 5.47873,5.47873 0 0 1 5.47253,-5.47253 m 0,-0.52747 a 6,6 0 1 0 6,6 6,6 0 0 0 -6,-6 z"
         style="fill:#808080"
         id="path111"
         inkscape:connector-curvature="0" />
    </g>
    <polygon
       points="23.659,369.506 22.341,369.506 22.341,372.341 19.506,372.341 19.506,373.659 22.341,373.659 22.341,376.495 23.659,376.495 23.659,373.659 26.495,373.659 26.495,372.341 23.659,372.341 "
       style="fill:#6e6e6e"
       id="polygon115" />
  </g>
  <g
     id="g127"
     transform="matrix(1.2799927,0,0,1.2799927,0,-1.3088402)">
    <g
       id="g123">
      <circle
         cx="142"
         cy="373"
         r="5.73633"
         style="fill:#bcbcbc"
         id="circle119" />
      <path
         d="M 142,367.5275 A 5.47253,5.47253 0 1 1 136.52751,373 5.47873,5.47873 0 0 1 142,367.5275 M 142,367 a 6,6 0 1 0 6,6 6,6 0 0 0 -6,-6 z"
         style="fill:#808080"
         id="path121"
         inkscape:connector-curvature="0" />
    </g>
    <polygon
       points="142.659,369.506 141.341,369.506 141.341,372.341 138.506,372.341 138.506,373.659 141.341,373.659 141.341,376.495 142.659,376.495 142.659,373.659 145.495,373.659 145.495,372.341 142.659,372.341 "
       style="fill:#6e6e6e"
       id="polygon125" />
  </g>
  <g
     id="g251"
     transform="matrix(1.2799927,0,0,1.2799927,0,-1.3088402)">
    <g
       id="g145">
      <path
         d="m 10.43946,212.76175 -1.1582,1.88086 2.207,0.0361 0.35938,0.65527 -3.21094,3.13672 -0.4082,-0.74609 2.31738,-2.25195 -1.94434,-0.0361 -0.35937,-0.65527 1.0205,-1.65137 -3.14941,0.73438 -0.40527,-0.74024 4.37207,-1.0166 z"
         style="fill:#e5e5e5"
         id="path129"
         inkscape:connector-curvature="0" />
      <path
         d="m 7.55567,211.37991 a 2.26182,2.26182 0 1 1 2.14453,-2.36328 2.26354,2.26354 0 0 1 -2.14453,2.36328 z m -0.03711,-0.8125 a 1.446,1.446 0 1 0 -1.52441,-1.375 1.451,1.451 0 0 0 1.52441,1.375 z"
         style="fill:#e5e5e5"
         id="path131"
         inkscape:connector-curvature="0" />
      <path
         d="m 10.56642,203.96976 -2.499,0.75781 -0.11426,0.32715 1.99512,0.69238 -0.25879,0.74512 -4.082,-1.417 0.50781,-1.46289 a 1.11969,1.11969 0 0 1 1.40528,-0.67968 1.118,1.118 0 0 1 0.73926,0.9248 l 2.62109,-0.793 z m -3.10938,0.10937 a 0.31533,0.31533 0 0 0 -0.5957,-0.207 l -0.25,0.71582 0.59765,0.208 z"
         style="fill:#e5e5e5"
         id="path133"
         inkscape:connector-curvature="0" />
      <path
         d="m 12.8711,200.67093 -2.21386,-1.85742 0.456,1.85546 -1.9043,-0.13085 2.21485,1.85742 -0.51953,0.61816 -3.31153,-2.77734 0.48828,-0.58106 1.98536,0.13575 -0.4795,-1.93165 0.49219,-0.58593 3.31055,2.77832 z"
         style="fill:#e5e5e5"
         id="path135"
         inkscape:connector-curvature="0" />
      <path
         d="m 16.19532,198.46878 -0.9873,-1.84766 -1.5459,0.82715 0.98633,1.84668 -0.71778,0.38281 -2.03613,-3.81054 0.71777,-0.38379 0.67481,1.26269 1.54687,-0.82519 -0.6748,-1.26367 0.71777,-0.38379 2.03516,3.81152 z"
         style="fill:#e5e5e5"
         id="path137"
         inkscape:connector-curvature="0" />
      <path
         d="m 16.92677,195.73245 a 2.26077,2.26077 0 1 1 2.4707,2.01465 2.26348,2.26348 0 0 1 -2.4707,-2.01465 z m 0.80957,-0.082 a 1.44422,1.44422 0 1 0 1.292,-1.59375 1.44607,1.44607 0 0 0 -1.292,1.59372 z"
         style="fill:#e5e5e5"
         id="path139"
         inkscape:connector-curvature="0" />
      <path
         d="m 22,197.64651 1.10937,-4.17773 0.78614,0.21 -0.9043,3.4082 2.12891,0.56543 -0.2041,0.76856 z"
         style="fill:#e5e5e5"
         id="path141"
         inkscape:connector-curvature="0" />
      <path
         d="m 25.35841,198.69144 2.35159,-3.63282 2.39356,1.54883 -0.42969,0.66309 -1.71,-1.10547 -0.34571,0.53515 1.48926,0.96387 -0.43848,0.67871 -1.49023,-0.96484 -0.70019,1.082 1.66406,1.07617 -0.43653,0.67383 z"
         style="fill:#e5e5e5"
         id="path143"
         inkscape:connector-curvature="0" />
    </g>
    <g
       id="g197">
      <path
         d="m 35.40235,25.38431 c -0.0088,1.46386 -0.57031,2.35742 -2.17675,2.35742 -0.9795,0 -1.94825,-0.4375 -2.03418,-1.48242 h 0.59863 a 1.28976,1.28976 0 0 0 1.43555,0.97851 c 1.10253,0 1.57812,-0.65527 1.57812,-1.85351 v -0.665 h -0.01855 a 1.70242,1.70242 0 0 1 -1.55957,1.00781 c -1.56836,0 -2.21485,-1.12207 -2.21485,-2.51953 a 2.2442,2.2442 0 0 1 2.21485,-2.47168 1.72869,1.72869 0 0 1 1.55957,0.98828 h 0.01855 v -0.8457 h 0.59863 z M 34.80372,23.274 c 0,-0.96 -0.44727,-2.03418 -1.57812,-2.03418 -1.14063,0 -1.61622,1.01758 -1.61622,2.03418 0,0.98926 0.51368,1.94922 1.61622,1.94922 1.03613,-5e-5 1.57812,-0.95122 1.57812,-1.94922 z"
         style="fill:#e5e5e5"
         id="path147"
         inkscape:connector-curvature="0" />
      <path
         d="m 36.54005,20.87845 h 0.55176 v 1.15039 h 0.01855 a 1.81276,1.81276 0 0 1 1.85352,-1.2168 v 0.59863 a 1.69014,1.69014 0 0 0 -1.8252,1.75879 v 2.61426 h -0.59863 z"
         style="fill:#e5e5e5"
         id="path149"
         inkscape:connector-curvature="0" />
      <path
         d="m 39.4756,22.3804 c 0.05664,-1.15039 0.86425,-1.64453 1.98632,-1.64453 0.86524,0 1.80664,0.2666 1.80664,1.57812 v 2.6045 a 0.31851,0.31851 0 0 0 0.35157,0.36132 0.5543,0.5543 0 0 0 0.19043,-0.03808 v 0.5039 a 1.66177,1.66177 0 0 1 -0.39063,0.03809 c -0.6084,0 -0.70312,-0.3418 -0.70312,-0.85547 h -0.01856 a 1.87169,1.87169 0 0 1 -1.78711,0.99805 c -0.90332,0 -1.64551,-0.44629 -1.64551,-1.43555 0,-1.37793 1.34082,-1.42578 2.63379,-1.57812 0.49414,-0.05664 0.76953,-0.123 0.76953,-0.665 0,-0.8086 -0.5791,-1.00782 -1.2832,-1.00782 -0.74121,0 -1.293,0.3418 -1.31152,1.14063 z m 3.19335,0.72266 H 42.6504 c -0.07617,0.14257 -0.3418,0.19043 -0.50391,0.21875 -1.01757,0.18066 -2.28125,0.17089 -2.28125,1.13086 a 1.02153,1.02153 0 0 0 1.09278,0.96972 1.57654,1.57654 0 0 0 1.71093,-1.54 z"
         style="fill:#e5e5e5"
         id="path151"
         inkscape:connector-curvature="0" />
      <path
         d="m 43.91114,20.87845 h 0.666 l 1.54,4.30664 h 0.01855 l 1.52149,-4.30664 h 0.61816 l -1.835,4.90527 h -0.63672 z"
         style="fill:#e5e5e5"
         id="path153"
         inkscape:connector-curvature="0" />
      <path
         d="m 48.8711,18.99661 h 0.59864 v 0.96 H 48.8711 Z m 0,1.88184 h 0.59864 v 4.90527 H 48.8711 Z"
         style="fill:#e5e5e5"
         id="path155"
         inkscape:connector-curvature="0" />
      <path
         d="m 51.57032,20.87845 h 0.998 v 0.5039 h -0.998 V 24.691 c 0,0.38965 0.05664,0.61718 0.48438,0.6455 a 4.53782,4.53782 0 0 0 0.51367,-0.02832 v 0.51368 c -0.18067,0 -0.35254,0.01855 -0.5332,0.01855 -0.79786,0 -1.07422,-0.26562 -1.06446,-1.10254 v -3.35552 h -0.85547 v -0.5039 h 0.85547 v -1.47364 h 0.59961 z"
         style="fill:#e5e5e5"
         id="path157"
         inkscape:connector-curvature="0" />
      <path
         d="m 53.374,22.3804 c 0.05664,-1.15039 0.86426,-1.64453 1.98633,-1.64453 0.86524,0 1.80664,0.2666 1.80664,1.57812 v 2.6045 a 0.31851,0.31851 0 0 0 0.35156,0.36132 0.55421,0.55421 0 0 0 0.19043,-0.03808 v 0.5039 a 1.66168,1.66168 0 0 1 -0.39062,0.03809 c -0.6084,0 -0.70313,-0.3418 -0.70313,-0.85547 h -0.01855 a 1.8717,1.8717 0 0 1 -1.78711,0.99805 c -0.90332,0 -1.64551,-0.44629 -1.64551,-1.43555 0,-1.37793 1.34082,-1.42578 2.63379,-1.57812 0.49414,-0.05664 0.76953,-0.123 0.76953,-0.665 0,-0.8086 -0.5791,-1.00782 -1.2832,-1.00782 -0.74121,0 -1.293,0.3418 -1.31152,1.14063 z m 3.19336,0.72266 h -0.01855 c -0.07617,0.14257 -0.3418,0.19043 -0.50391,0.21875 -1.01758,0.18066 -2.28125,0.17089 -2.28125,1.13086 a 1.02153,1.02153 0 0 0 1.09277,0.96972 1.57654,1.57654 0 0 0 1.71094,-1.54 z"
         style="fill:#e5e5e5"
         id="path159"
         inkscape:connector-curvature="0" />
      <path
         d="m 59.31251,20.87845 h 0.998 v 0.5039 h -0.998 V 24.691 c 0,0.38965 0.05664,0.61718 0.48437,0.6455 a 4.538,4.538 0 0 0 0.51368,-0.02832 v 0.51368 c -0.18067,0 -0.35254,0.01855 -0.53321,0.01855 -0.79785,0 -1.07422,-0.26562 -1.06445,-1.10254 v -3.35552 h -0.85547 v -0.5039 h 0.85547 v -1.47364 h 0.59961 z"
         style="fill:#e5e5e5"
         id="path161"
         inkscape:connector-curvature="0" />
      <path
         d="m 61.18263,18.99661 h 0.59863 v 0.96 h -0.59863 z m 0,1.88184 h 0.59863 v 4.90527 h -0.59863 z"
         style="fill:#e5e5e5"
         id="path163"
         inkscape:connector-curvature="0" />
      <path
         d="m 67.32228,23.33157 a 2.334,2.334 0 1 1 -4.63868,0 2.33405,2.33405 0 1 1 4.63868,0 z m -4.04,0 a 1.75346,1.75346 0 1 0 3.4414,0 1.75362,1.75362 0 1 0 -3.4414,0 z"
         style="fill:#e5e5e5"
         id="path165"
         inkscape:connector-curvature="0" />
      <path
         d="m 68.20313,20.87845 h 0.59961 v 0.8457 h 0.01856 a 1.66407,1.66407 0 0 1 1.56836,-0.98828 c 1.3789,0 1.79687,0.72265 1.79687,1.8916 v 3.15625 H 71.5879 v -3.06055 c 0,-0.84668 -0.27637,-1.4834 -1.24512,-1.4834 a 1.548,1.548 0 0 0 -1.54,1.68262 v 2.86133 h -0.59961 z"
         style="fill:#e5e5e5"
         id="path167"
         inkscape:connector-curvature="0" />
      <path
         d="m 73.25782,22.3804 c 0.05664,-1.15039 0.86426,-1.64453 1.98633,-1.64453 0.86523,0 1.80664,0.2666 1.80664,1.57812 v 2.6045 a 0.31851,0.31851 0 0 0 0.35156,0.36132 0.55421,0.55421 0 0 0 0.19043,-0.03808 v 0.5039 a 1.66168,1.66168 0 0 1 -0.39062,0.03809 c -0.6084,0 -0.70313,-0.3418 -0.70313,-0.85547 h -0.01855 a 1.8717,1.8717 0 0 1 -1.78711,0.99805 c -0.90332,0 -1.64453,-0.44629 -1.64453,-1.43555 0,-1.37793 1.33984,-1.42578 2.63281,-1.57812 0.49414,-0.05664 0.76953,-0.123 0.76953,-0.665 0,-0.8086 -0.5791,-1.00782 -1.2832,-1.00782 -0.74121,0 -1.293,0.3418 -1.31153,1.14063 z m 3.19336,0.72266 h -0.01855 c -0.07618,0.14257 -0.34278,0.19043 -0.50391,0.21875 -1.01758,0.18066 -2.28125,0.17089 -2.28125,1.13086 a 1.02153,1.02153 0 0 0 1.09277,0.96972 1.57654,1.57654 0 0 0 1.71094,-1.54 z"
         style="fill:#e5e5e5"
         id="path169"
         inkscape:connector-curvature="0" />
      <path
         d="m 78.25489,18.99661 h 0.59864 v 6.78711 h -0.59864 z"
         style="fill:#e5e5e5"
         id="path171"
         inkscape:connector-curvature="0" />
      <path
         d="m 82.58692,22.3804 c 0.05664,-1.15039 0.86426,-1.64453 1.98633,-1.64453 0.86524,0 1.80664,0.2666 1.80664,1.57812 v 2.6045 a 0.31851,0.31851 0 0 0 0.35156,0.36132 0.55421,0.55421 0 0 0 0.19043,-0.03808 v 0.5039 a 1.66163,1.66163 0 0 1 -0.39062,0.03809 c -0.6084,0 -0.70313,-0.3418 -0.70313,-0.85547 h -0.01855 a 1.8717,1.8717 0 0 1 -1.78711,0.99805 c -0.90332,0 -1.64551,-0.44629 -1.64551,-1.43555 0,-1.37793 1.34082,-1.42578 2.63379,-1.57812 0.49414,-0.05664 0.76953,-0.123 0.76953,-0.665 0,-0.8086 -0.5791,-1.00782 -1.2832,-1.00782 -0.74121,0 -1.293,0.3418 -1.31152,1.14063 z m 3.19336,0.72266 h -0.01855 c -0.07617,0.14257 -0.3418,0.19043 -0.50391,0.21875 -1.01758,0.18066 -2.28125,0.17089 -2.28125,1.13086 a 1.02153,1.02153 0 0 0 1.09278,0.96972 1.57654,1.57654 0 0 0 1.71093,-1.54 z"
         style="fill:#e5e5e5"
         id="path173"
         inkscape:connector-curvature="0" />
      <path
         d="m 88.5254,20.87845 h 0.998 v 0.5039 h -0.998 V 24.691 c 0,0.38965 0.05664,0.61718 0.48438,0.6455 a 4.538,4.538 0 0 0 0.51367,-0.02832 v 0.51368 c -0.18067,0 -0.35254,0.01855 -0.53321,0.01855 -0.79785,0 -1.07421,-0.26562 -1.06445,-1.10254 v -3.35552 h -0.85547 v -0.5039 h 0.85547 v -1.47364 h 0.59961 z"
         style="fill:#e5e5e5"
         id="path175"
         inkscape:connector-curvature="0" />
      <path
         d="m 91.336,20.87845 h 0.999 v 0.5039 H 91.336 V 24.691 c 0,0.38965 0.05761,0.61718 0.48535,0.6455 a 4.5377,4.5377 0 0 0 0.51367,-0.02832 v 0.51368 c -0.18066,0 -0.35254,0.01855 -0.5332,0.01855 -0.79785,0 -1.07324,-0.26562 -1.06446,-1.10254 V 21.38235 H 89.8819 v -0.5039 h 0.85546 V 19.40481 H 91.336 Z"
         style="fill:#e5e5e5"
         id="path177"
         inkscape:connector-curvature="0" />
      <path
         d="m 93.54884,23.4927 a 1.7394,1.7394 0 0 0 1.61616,1.92969 1.49457,1.49457 0 0 0 1.54,-1.25488 h 0.59863 A 2.0029,2.0029 0 0 1 95.165,25.9263 c -1.5586,0 -2.21485,-1.19824 -2.21485,-2.59473 0,-1.293 0.65625,-2.5957 2.21485,-2.5957 1.57812,0 2.20508,1.3789 2.1582,2.75683 z m 3.17578,-0.5039 a 1.64879,1.64879 0 0 0 -1.55957,-1.749 1.74074,1.74074 0 0 0 -1.61621,1.749 z"
         style="fill:#e5e5e5"
         id="path179"
         inkscape:connector-curvature="0" />
      <path
         d="m 98.11817,20.87845 h 0.59961 v 0.8457 h 0.01856 a 1.66407,1.66407 0 0 1 1.56836,-0.98828 c 1.3789,0 1.79687,0.72265 1.79687,1.8916 v 3.15625 h -0.59863 v -3.06055 c 0,-0.84668 -0.27637,-1.4834 -1.24512,-1.4834 a 1.548,1.548 0 0 0 -1.54,1.68262 v 2.86133 h -0.59961 z"
         style="fill:#e5e5e5"
         id="path181"
         inkscape:connector-curvature="0" />
      <path
         d="m 107.20313,25.78372 h -0.55175 v -0.88379 h -0.0186 a 1.82521,1.82521 0 0 1 -1.69238,1.02637 c -1.23535,0 -1.7207,-0.72266 -1.7207,-1.86328 v -3.18457 h 0.59961 v 3.19433 c 0.0283,0.88379 0.36035,1.34961 1.31152,1.34961 1.02637,0 1.47363,-0.96972 1.47363,-1.96777 v -2.57617 h 0.59863 z"
         style="fill:#e5e5e5"
         id="path183"
         inkscape:connector-curvature="0" />
      <path
         d="m 108.33106,20.87845 h 0.55176 v 0.82715 h 0.0283 a 1.71188,1.71188 0 0 1 1.60645,-0.96973 1.36358,1.36358 0 0 1 1.40722,0.96 1.65649,1.65649 0 0 1 1.5586,-0.96 c 1.07422,0 1.626,0.56055 1.626,1.7207 v 3.32715 h -0.5996 v -3.29883 c 0,-0.80762 -0.30372,-1.24512 -1.15918,-1.24512 -1.03614,0 -1.33106,0.85547 -1.33106,1.76856 v 2.77539 h -0.59863 v -3.32715 c 0.009,-0.665 -0.2666,-1.2168 -1.02735,-1.2168 -1.03613,0 -1.4541,0.7793 -1.46386,1.80665 v 2.7373 h -0.59864 z"
         style="fill:#e5e5e5"
         id="path185"
         inkscape:connector-curvature="0" />
      <path
         d="m 116.25392,18.99661 h 0.59863 v 0.96 h -0.59863 z m 0,1.88184 h 0.59863 v 4.90527 h -0.59863 z"
         style="fill:#e5e5e5"
         id="path187"
         inkscape:connector-curvature="0" />
      <path
         d="M 119.34278,23.23587 117.584,20.87845 h 0.751 l 1.39746,1.86328 1.36817,-1.86328 h 0.751 l -1.76763,2.34765 1.91016,2.55762 h -0.75977 l -1.54,-2.0625 -1.51172,2.0625 h -0.74121 z"
         style="fill:#e5e5e5"
         id="path189"
         inkscape:connector-curvature="0" />
      <path
         d="m 125.5088,22.314 a 1.12878,1.12878 0 0 0 -1.2832,-1.07422 c -0.53223,0 -1.16016,0.209 -1.16016,0.84571 0,0.53222 0.6084,0.72265 1.01758,0.82715 l 0.79883,0.18066 a 1.43753,1.43753 0 0 1 1.39648,1.35938 c 0,1.06445 -1.05469,1.47363 -1.96777,1.47363 a 1.77646,1.77646 0 0 1 -2.01465,-1.73047 h 0.59863 a 1.29293,1.29293 0 0 0 1.44531,1.22656 c 0.56055,0 1.33985,-0.24707 1.33985,-0.93164 0,-0.57031 -0.53223,-0.76074 -1.07422,-0.89355 l -0.76953,-0.1709 c -0.7793,-0.209 -1.36914,-0.47559 -1.36914,-1.31153 0,-0.999 0.97949,-1.3789 1.84375,-1.3789 a 1.608,1.608 0 0 1 1.79687,1.57812 z"
         style="fill:#e5e5e5"
         id="path191"
         inkscape:connector-curvature="0" />
      <path
         d="m 127.4922,23.4927 a 1.7394,1.7394 0 0 0 1.61621,1.92969 1.49457,1.49457 0 0 0 1.54,-1.25488 h 0.59863 a 2.0029,2.0029 0 0 1 -2.13867,1.75879 c -1.5586,0 -2.21485,-1.19824 -2.21485,-2.59473 0,-1.293 0.65625,-2.5957 2.21485,-2.5957 1.57812,0 2.20508,1.3789 2.1582,2.75683 z m 3.17578,-0.5039 a 1.6488,1.6488 0 0 0 -1.55957,-1.749 1.74074,1.74074 0 0 0 -1.61621,1.749 z"
         style="fill:#e5e5e5"
         id="path193"
         inkscape:connector-curvature="0" />
      <path
         d="m 133.02149,20.87845 h 0.999 v 0.5039 h -0.999 V 24.691 c 0,0.38965 0.0576,0.61718 0.48536,0.6455 a 4.538,4.538 0 0 0 0.51367,-0.02832 v 0.51368 c -0.18067,0 -0.35254,0.01855 -0.53321,0.01855 -0.79785,0 -1.07324,-0.26562 -1.06445,-1.10254 v -3.35552 h -0.85547 v -0.5039 h 0.85547 v -1.47364 h 0.59863 z"
         style="fill:#e5e5e5"
         id="path195"
         inkscape:connector-curvature="0" />
    </g>
    <path
       d="m 69.79981,115.6802 a 0.83233,0.83233 0 0 1 0.30957,-1.12988 v 0 a 0.83171,0.83171 0 0 1 1.13086,0.30957 v 0 a 0.8227,0.8227 0 0 1 -0.31054,1.13086 v 0 a 0.76426,0.76426 0 0 1 -0.41016,0.10938 v 0 a 0.81816,0.81816 0 0 1 -0.71973,-0.41993 z m -1.41992,-3.53027 h -0.0098 a 0.84226,0.84226 0 0 1 0.59961,-1.00976 v 0 a 0.83455,0.83455 0 0 1 1.00976,0.60058 v 0 a 0.83538,0.83538 0 0 1 -0.58984,1.00977 v 0 a 0.7658,0.7658 0 0 1 -0.21,0.0195 v 0 a 0.81083,0.81083 0 0 1 -0.79977,-0.62012 z m 0.34961,-2.93945 a 0.82521,0.82521 0 0 1 -0.81933,-0.83008 v 0 a 0.82207,0.82207 0 0 1 0.83984,-0.82031 v 0 a 0.82527,0.82527 0 0 1 0.81934,0.83008 v 0 a 0.83214,0.83214 0 0 1 -0.82911,0.82031 z m 0.29,-3.58008 a 0.82914,0.82914 0 0 1 -0.58008,-1.02051 v 0 a 0.82242,0.82242 0 0 1 1.01074,-0.5791 v 0 a 0.84643,0.84643 0 0 1 0.58985,1.01953 v 0 a 0.844,0.844 0 0 1 -0.81055,0.61035 v 0 a 0.7851,0.7851 0 0 1 -0.20992,-0.0303 z m 1.1905,-3.38965 a 0.83784,0.83784 0 0 1 -0.29,-1.14062 v 0 a 0.83845,0.83845 0 0 1 1.13965,-0.29 v 0 a 0.82766,0.82766 0 0 1 0.29,1.12988 v 0 0.0107 0 a 0.82852,0.82852 0 0 1 -0.71,0.39942 v 0 A 0.83376,0.83376 0 0 1 70.21,102.24075 Z"
       style="fill:#e5e5e5"
       id="path199"
       inkscape:connector-curvature="0" />
    <path
       d="m 93.84962,116.10013 a 0.82918,0.82918 0 0 1 -0.29,-1.12989 v 0 a 0.823,0.823 0 0 1 1.12988,-0.2998 v 0 a 0.83215,0.83215 0 0 1 0.30078,1.13965 v 0 a 0.84244,0.84244 0 0 1 -0.7207,0.41015 v 0 a 0.8127,0.8127 0 0 1 -0.41996,-0.12011 z m 1.60058,-3.21973 a 0.83249,0.83249 0 0 1 -0.58007,-1.02051 v 0 a 0.83208,0.83208 0 0 1 1.01953,-0.5791 v 0 a 0.831,0.831 0 0 1 0.58008,1.01953 v 0 a 0.83053,0.83053 0 0 1 -0.79981,0.61035 v 0 a 0.84549,0.84549 0 0 1 -0.21973,-0.0303 z m 0.71,-3.53027 a 0.81382,0.81382 0 0 1 -0.82032,-0.83008 v 0 a 0.81241,0.81241 0 0 1 0.83008,-0.81934 v 0 a 0.81381,0.81381 0 0 1 0.82031,0.83008 v 0 a 0.81688,0.81688 0 0 1 -0.82031,0.81934 z m -1.23047,-4.17969 v 0 a 0.82791,0.82791 0 0 1 0.58984,-1.00977 v 0 a 0.8342,0.8342 0 0 1 1.01074,0.59961 v 0 a 0.82694,0.82694 0 0 1 -0.60058,1.00977 v 0 a 0.63138,0.63138 0 0 1 -0.2002,0.0205 v 0 a 0.82245,0.82245 0 0 1 -0.79983,-0.62012 z m -1.26953,-3.12012 v -0.01 0 a 0.82908,0.82908 0 0 1 0.30957,-1.12012 v 0 a 0.83465,0.83465 0 0 1 1.13964,0.30957 v 0 a 0.83745,0.83745 0 0 1 -0.31933,1.12988 v 0 A 0.8668,0.8668 0 0 1 94.37992,102.47 v 0 a 0.85146,0.85146 0 0 1 -0.71975,-0.41992 z"
       style="fill:#e5e5e5"
       id="path201"
       inkscape:connector-curvature="0" />
    <g
       id="g209">
      <path
         d="m 43.87989,209.4302 a 0.86754,0.86754 0 0 1 -0.32031,-0.0596 0.68209,0.68209 0 0 1 -0.25977,-0.18066 0.80054,0.80054 0 0 1 -0.17968,-0.26953 0.70042,0.70042 0 0 1 -0.07032,-0.32031 0.81128,0.81128 0 0 1 0.25,-0.58008 0.67989,0.67989 0 0 1 0.25977,-0.17969 0.83625,0.83625 0 0 1 0.91016,0.17969 0.82506,0.82506 0 0 1 0.24023,0.58008 0.86458,0.86458 0 0 1 -0.06055,0.32031 0.80054,0.80054 0 0 1 -0.17968,0.26953 0.86625,0.86625 0 0 1 -0.58985,0.24023 z"
         style="fill:#e5e5e5"
         id="path203"
         inkscape:connector-curvature="0" />
      <path
         d="m 38.79981,225.10013 a 0.82909,0.82909 0 0 1 0.4502,-1.08008 v 0 a 0.81993,0.81993 0 0 1 1.08008,0.44043 v 0 a 0.81993,0.81993 0 0 1 -0.44043,1.08008 v 0 a 0.74129,0.74129 0 0 1 -0.32031,0.0693 v 0 a 0.83371,0.83371 0 0 1 -0.76954,-0.50976 z m -0.99023,-3.67969 a 0.83083,0.83083 0 0 1 0.7207,-0.92969 v 0 a 0.831,0.831 0 0 1 0.92969,0.71 v 0 a 0.84015,0.84015 0 0 1 -0.71973,0.93946 h -0.11035 a 0.83652,0.83652 0 0 1 -0.82031,-0.71977 z m 0.71,-2.87012 a 0.83064,0.83064 0 0 1 -0.71,-0.92969 v 0 a 0.8346,0.8346 0 0 1 0.93066,-0.7207 v 0 a 0.83284,0.83284 0 0 1 0.71,0.93067 v 0 a 0.82189,0.82189 0 0 1 -0.82031,0.71972 z m 0.7207,-3.53027 a 0.81489,0.81489 0 0 1 -0.45019,-1.08008 v 0 a 0.82829,0.82829 0 0 1 1.08008,-0.44922 v 0 a 0.83094,0.83094 0 0 1 0.44922,1.08008 v 0 a 0.83345,0.83345 0 0 1 -0.76954,0.51953 v 0 a 0.68719,0.68719 0 0 1 -0.30961,-0.0703 z m 1.59961,-3.21973 a 0.81879,0.81879 0 0 1 -0.15039,-1.16015 v 0 a 0.82608,0.82608 0 0 1 1.16016,-0.14942 v 0 A 0.82536,0.82536 0 0 1 42,211.64993 v 0 a 0.82943,0.82943 0 0 1 -0.66016,0.32031 v 0 a 0.79645,0.79645 0 0 1 -0.49999,-0.16992 z"
         style="fill:#e5e5e5"
         id="path205"
         inkscape:connector-curvature="0" />
      <path
         d="m 41.37013,228.72024 a 0.82785,0.82785 0 0 1 -0.31055,-0.0703 0.80042,0.80042 0 0 1 -0.26953,-0.17969 0.81122,0.81122 0 0 1 -0.25,-0.58007 0.711,0.711 0 0 1 0.06933,-0.31934 0.79758,0.79758 0 0 1 0.18067,-0.27051 1.03853,1.03853 0 0 1 0.26953,-0.17969 0.85586,0.85586 0 0 1 0.62988,0 1.24189,1.24189 0 0 1 0.27051,0.17969 0.79472,0.79472 0 0 1 0.17969,0.27051 0.86326,0.86326 0 0 1 0.06054,0.31934 0.8205,0.8205 0 0 1 -0.51074,0.75976 0.87269,0.87269 0 0 1 -0.31933,0.0703 z"
         style="fill:#e5e5e5"
         id="path207"
         inkscape:connector-curvature="0" />
    </g>
    <g
       id="g217">
      <path
         d="m 2.40936,23.83677 a 0.82031,0.82031 0 0 1 -0.83007,-0.82031 0.82523,0.82523 0 0 1 1.41015,-0.58985 1.01189,1.01189 0 0 1 0.18946,0.26953 0.86857,0.86857 0 0 1 0.06054,0.32032 0.79477,0.79477 0 0 1 -0.25,0.58007 0.78572,0.78572 0 0 1 -0.58008,0.24024 z"
         style="fill:#e5e5e5"
         id="path211"
         inkscape:connector-curvature="0" />
      <path
         d="m 20.35956,23.01646 a 0.82751,0.82751 0 0 1 0.83008,-0.83008 v 0 a 0.8273,0.8273 0 0 1 0.8291,0.83008 v 0 a 0.82525,0.82525 0 0 1 -0.8291,0.82031 v 0 a 0.82547,0.82547 0 0 1 -0.83008,-0.82031 z m -4.69043,0 a 0.82814,0.82814 0 0 1 0.83008,-0.83008 v 0 a 0.83441,0.83441 0 0 1 0.83008,0.83008 v 0 a 0.83244,0.83244 0 0 1 -0.83008,0.82031 v 0 a 0.8261,0.8261 0 0 1 -0.83008,-0.82031 z m -4.7002,0 a 0.82814,0.82814 0 0 1 0.83008,-0.83008 v 0 a 0.82814,0.82814 0 0 1 0.83008,0.83008 v 0 a 0.8261,0.8261 0 0 1 -0.83008,0.82031 v 0 a 0.8261,0.8261 0 0 1 -0.83008,-0.82031 z m -4.68945,0 a 0.82814,0.82814 0 0 1 0.83008,-0.83008 v 0 a 0.8259,0.8259 0 0 1 0.81934,0.83008 v 0 a 0.82379,0.82379 0 0 1 -0.81934,0.82031 v 0 A 0.8261,0.8261 0 0 1 6.27948,23.01646 Z"
         style="fill:#e5e5e5"
         id="path213"
         inkscape:connector-curvature="0" />
      <path
         d="m 25.88886,23.83677 a 0.86327,0.86327 0 0 1 -0.31934,-0.06055 0.82109,0.82109 0 0 1 -0.45019,-0.45019 0.80968,0.80968 0 0 1 -0.06055,-0.30957 0.86837,0.86837 0 0 1 0.06055,-0.32032 1.2588,1.2588 0 0 1 0.17968,-0.26953 0.8451,0.8451 0 0 1 0.91016,-0.17969 0.67242,0.67242 0 0 1 0.25976,0.17969 0.80335,0.80335 0 0 1 0.18067,0.26953 0.87673,0.87673 0 0 1 0.06933,0.32032 0.81768,0.81768 0 0 1 -0.06933,0.30957 0.79754,0.79754 0 0 1 -0.18067,0.2705 0.67242,0.67242 0 0 1 -0.25976,0.17969 0.86458,0.86458 0 0 1 -0.32031,0.06055 z"
         style="fill:#e5e5e5"
         id="path215"
         inkscape:connector-curvature="0" />
    </g>
    <g
       id="g225">
      <path
         d="m 138.85956,23.83677 a 0.86458,0.86458 0 0 1 -0.32031,-0.06055 0.80424,0.80424 0 0 1 -0.27051,-0.17969 0.95891,0.95891 0 0 1 -0.16992,-0.2705 0.81769,0.81769 0 0 1 -0.0693,-0.30957 0.87674,0.87674 0 0 1 0.0693,-0.32032 0.96793,0.96793 0 0 1 0.16992,-0.26953 0.80424,0.80424 0 0 1 0.27051,-0.17969 0.84509,0.84509 0 0 1 0.91015,0.17969 0.87076,0.87076 0 0 1 0.24024,0.58985 0.84709,0.84709 0 0 1 -0.24024,0.58007 0.82361,0.82361 0 0 1 -0.58984,0.24024 z"
         style="fill:#e5e5e5"
         id="path219"
         inkscape:connector-curvature="0" />
      <path
         d="m 156.86933,23.01646 a 0.82813,0.82813 0 0 1 0.83007,-0.83008 v 0 a 0.82814,0.82814 0 0 1 0.83008,0.83008 v 0 a 0.83441,0.83441 0 0 1 -0.83008,0.83007 v 0 a 0.8344,0.8344 0 0 1 -0.83007,-0.83007 z m -4.71,0 a 0.82814,0.82814 0 0 1 0.83008,-0.83008 v 0 a 0.82814,0.82814 0 0 1 0.83008,0.83008 v 0 a 0.83441,0.83441 0 0 1 -0.83008,0.83007 v 0 a 0.83441,0.83441 0 0 1 -0.83005,-0.83007 z m -4.71,0 a 0.82814,0.82814 0 0 1 0.83008,-0.83008 v 0 a 0.82814,0.82814 0 0 1 0.83008,0.83008 v 0 a 0.83441,0.83441 0 0 1 -0.83008,0.83007 v 0 a 0.83441,0.83441 0 0 1 -0.83001,-0.83007 z m -4.71,0 a 0.82814,0.82814 0 0 1 0.83008,-0.83008 v 0 a 0.82814,0.82814 0 0 1 0.83008,0.83008 v 0 a 0.83441,0.83441 0 0 1 -0.83008,0.83007 v 0 a 0.83441,0.83441 0 0 1 -0.82997,-0.83007 z"
         style="fill:#e5e5e5"
         id="path221"
         inkscape:connector-curvature="0" />
      <path
         d="m 162.40936,23.83677 a 0.82031,0.82031 0 0 1 -0.83007,-0.82031 0.84651,0.84651 0 0 1 0.24023,-0.58985 0.80042,0.80042 0 0 1 0.26953,-0.17969 0.82913,0.82913 0 0 1 0.90039,0.17969 0.815,0.815 0 0 1 0.25,0.58985 0.79477,0.79477 0 0 1 -0.25,0.58007 0.78572,0.78572 0 0 1 -0.58008,0.24024 z"
         style="fill:#e5e5e5"
         id="path223"
         inkscape:connector-curvature="0" />
    </g>
    <g
       id="g233">
      <path
         d="m 146.35938,235.04056 a 0.80742,0.80742 0 0 1 -0.5791,-0.25 0.78576,0.78576 0 0 1 -0.24023,-0.58008 0.8675,0.8675 0 0 1 0.0596,-0.32031 0.80336,0.80336 0 0 1 0.18066,-0.26954 1.27453,1.27453 0 0 1 0.26953,-0.18066 0.85579,0.85579 0 0 1 0.62989,0 1.28132,1.28132 0 0 1 0.2705,0.18066 0.80046,0.80046 0 0 1 0.17969,0.26954 0.8675,0.8675 0 0 1 0.0596,0.32031 0.78861,0.78861 0 0 1 -0.23926,0.58008 0.83389,0.83389 0 0 1 -0.59082,0.25 z"
         style="fill:#e5e5e5"
         id="path227"
         inkscape:connector-curvature="0" />
      <path
         d="m 143.33009,232.31009 a 0.82755,0.82755 0 0 1 -0.15039,-1.16016 v 0 a 0.83131,0.83131 0 0 1 1.16992,-0.14941 v 0 a 0.82706,0.82706 0 0 1 0.14062,1.16015 v 0 a 0.81,0.81 0 0 1 -0.65039,0.31934 v 0 a 0.86368,0.86368 0 0 1 -0.50976,-0.16992 z m -2.91016,-1.7002 a 0.83047,0.83047 0 0 1 -0.44043,-1.08984 v 0 a 0.81868,0.81868 0 0 1 1.08008,-0.43945 v 0 a 0.82321,0.82321 0 0 1 0.44043,1.08007 v 0 a 0.822,0.822 0 0 1 -0.75977,0.50977 v 0 a 0.86458,0.86458 0 0 1 -0.32031,-0.0606 z m -10.96973,-0.50976 a 0.82864,0.82864 0 0 1 0.44922,-1.08008 v 0 a 0.82068,0.82068 0 0 1 1.08008,0.45019 v 0 a 0.81978,0.81978 0 0 1 -0.44922,1.08008 v 0 a 0.8585,0.8585 0 0 1 -0.31054,0.0596 v 0 a 0.82294,0.82294 0 0 1 -0.76954,-0.50976 z m 7.71,-0.37989 v 0 a 0.81585,0.81585 0 0 1 -0.7002,-0.92968 v 0 a 0.81609,0.81609 0 0 1 0.92969,-0.71 v 0 a 0.82993,0.82993 0 0 1 0.71,0.92968 v 0 a 0.84435,0.84435 0 0 1 -0.81934,0.71973 v 0 c -0.0401,3e-5 -0.0802,-0.01 -0.12018,-0.01 z m -4.30079,-0.74023 a 0.84023,0.84023 0 0 1 0.72071,-0.92969 v 0.01 a 0.82594,0.82594 0 0 1 0.92969,0.71 v 0 a 0.841,0.841 0 0 1 -0.71973,0.93066 h -0.10059 A 0.83245,0.83245 0 0 1 132.85938,228.98 Z"
         style="fill:#e5e5e5"
         id="path229"
         inkscape:connector-curvature="0" />
      <path
         d="m 127.09962,232.39993 a 0.681,0.681 0 0 1 -0.31934,-0.0693 0.95894,0.95894 0 0 1 -0.2705,-0.16993 0.82361,0.82361 0 0 1 -0.24024,-0.58984 0.86458,0.86458 0 0 1 0.0605,-0.32031 0.79472,0.79472 0 0 1 0.17969,-0.27051 0.95891,0.95891 0 0 1 0.2705,-0.16992 0.83132,0.83132 0 0 1 0.89942,0.16992 0.79455,0.79455 0 0 1 0.17968,0.27051 0.87493,0.87493 0 0 1 0,0.63965 0.79451,0.79451 0 0 1 -0.17968,0.2705 0.968,0.968 0 0 1 -0.26953,0.16993 0.67478,0.67478 0 0 1 -0.31055,0.0693 z"
         style="fill:#e5e5e5"
         id="path231"
         inkscape:connector-curvature="0" />
    </g>
    <g
       id="g241">
      <path
         d="m 120.34962,337.51028 a 0.86245,0.86245 0 0 1 -0.31934,-0.0596 0.82934,0.82934 0 0 1 -0.45019,-0.45019 0.86837,0.86837 0 0 1 -0.0605,-0.32032 0.81333,0.81333 0 0 1 0.0605,-0.30957 0.6433,0.6433 0 0 1 0.17969,-0.2705 0.853,0.853 0 0 1 1.16992,0 0.64319,0.64319 0 0 1 0.17968,0.2705 0.81333,0.81333 0 0 1 0.0605,0.30957 0.86837,0.86837 0 0 1 -0.0605,0.32032 0.83171,0.83171 0 0 1 -0.44921,0.45019 0.85474,0.85474 0 0 1 -0.31055,0.0596 z"
         style="fill:#e5e5e5"
         id="path235"
         inkscape:connector-curvature="0" />
      <path
         d="m 122.46974,334.89993 a 0.82675,0.82675 0 0 1 -0.0996,-1.16992 v 0 a 0.80688,0.80688 0 0 1 1.16015,-0.0996 v 0 a 0.81525,0.81525 0 0 1 0.0996,1.16016 v 0 a 0.80941,0.80941 0 0 1 -0.62988,0.2998 v 0 a 0.7997,0.7997 0 0 1 -0.53027,-0.19043 z m 2.11035,-2.91992 a 0.81406,0.81406 0 0 1 -0.40039,-1.09961 v 0 a 0.83224,0.83224 0 0 1 1.10058,-0.40039 v 0 a 0.83528,0.83528 0 0 1 0.39942,1.10059 v 0.01 a 0.82166,0.82166 0 0 1 -0.75,0.46973 v 0 a 0.70961,0.70961 0 0 1 -0.34961,-0.0801 z m 1.27929,-3.34961 a 0.82833,0.82833 0 0 1 -0.66992,-0.96 v 0 a 0.814,0.814 0 0 1 0.96,-0.66992 v 0 a 0.813,0.813 0 0 1 0.66993,0.95019 v 0 a 0.8232,0.8232 0 0 1 -0.80957,0.68946 v 0 c -0.0498,4e-5 -0.0997,-0.01 -0.15044,-0.01 z m -0.50976,-4.33008 h -0.01 a 0.84474,0.84474 0 0 1 0.75977,-0.90039 v 0 a 0.83087,0.83087 0 0 1 0.90039,0.75 h -0.01 a 0.82346,0.82346 0 0 1 -0.75,0.90039 h -0.0703 a 0.812,0.812 0 0 1 -0.82031,-0.75 z m -0.72949,-3.2998 a 0.82745,0.82745 0 0 1 0.5,-1.06055 v 0 a 0.82013,0.82013 0 0 1 1.05957,0.5 v 0 a 0.836,0.836 0 0 1 -0.5,1.06055 v 0 a 0.90673,0.90673 0 0 1 -0.28028,0.0498 v 0 a 0.82553,0.82553 0 0 1 -0.77929,-0.5498 z"
         style="fill:#e5e5e5"
         id="path237"
         inkscape:connector-curvature="0" />
      <path
         d="m 123.74024,318.35989 a 0.81719,0.81719 0 0 1 -0.83007,-0.8291 0.82422,0.82422 0 0 1 1.40918,-0.58008 0.79162,0.79162 0 0 1 0.25,0.58008 0.86265,0.86265 0 0 1 -0.0596,0.31934 0.8272,0.8272 0 0 1 -0.19043,0.2705 0.66533,0.66533 0 0 1 -0.25977,0.17969 0.86245,0.86245 0 0 1 -0.31934,0.0596 z"
         style="fill:#e5e5e5"
         id="path239"
         inkscape:connector-curvature="0" />
    </g>
    <g
       id="g249">
      <path
         d="m 17.84962,310.87063 a 0.71185,0.71185 0 0 1 -0.31934,-0.0703 0.7783,0.7783 0 0 1 -0.26074,-0.16992 0.83336,0.83336 0 0 1 -0.25,-0.58984 0.71609,0.71609 0 0 1 0.07031,-0.32032 0.67978,0.67978 0 0 1 0.17969,-0.25976 0.78749,0.78749 0 0 1 1.16992,0 0.68211,0.68211 0 0 1 0.18067,0.25976 0.88834,0.88834 0 0 1 0,0.63965 0.79758,0.79758 0 0 1 -0.18067,0.27051 0.94618,0.94618 0 0 1 -0.26953,0.16992 0.71591,0.71591 0 0 1 -0.32031,0.0703 z"
         style="fill:#e5e5e5"
         id="path243"
         inkscape:connector-curvature="0" />
      <path
         d="m 30.04005,317.30032 a 0.8285,0.8285 0 0 1 -0.86035,-0.7998 v 0 a 0.82061,0.82061 0 0 1 0.7998,-0.85059 v 0 a 0.81962,0.81962 0 0 1 0.85059,0.79 v 0 a 0.82705,0.82705 0 0 1 -0.79,0.86035 z M 26.25,316.94 a 0.82508,0.82508 0 0 1 -0.62988,-0.98926 v 0 a 0.82651,0.82651 0 0 1 1,-0.62011 v 0 a 0.82825,0.82825 0 0 1 0.62011,0.99023 v 0 a 0.83406,0.83406 0 0 1 -0.81054,0.63965 v 0 A 0.53882,0.53882 0 0 1 26.25,316.94 Z m 6.5,-0.81934 a 0.83637,0.83637 0 0 1 0.5498,-1.04 v 0 a 0.8218,0.8218 0 0 1 1.03028,0.5498 v 0 a 0.82387,0.82387 0 0 1 -0.54,1.04 v 0 a 1.0122,1.0122 0 0 1 -0.24024,0.0303 v 0 A 0.82459,0.82459 0 0 1 32.75,316.12063 Z m -10.07031,-0.5 a 0.82678,0.82678 0 0 1 -0.33985,-1.12011 v 0 a 0.81831,0.81831 0 0 1 1.11035,-0.35059 v 0 a 0.83313,0.83313 0 0 1 0.34961,1.12012 v 0 a 0.845,0.845 0 0 1 -0.73046,0.45019 v 0 a 0.78754,0.78754 0 0 1 -0.38964,-0.0996 z m -3.09961,-2.20019 v 0 a 0.82447,0.82447 0 0 1 -0.04981,-1.16992 v 0 a 0.82476,0.82476 0 0 1 1.16992,-0.0498 v 0 l 0.0098,0.01 v 0 a 0.833,0.833 0 0 1 0.04,1.16992 v 0 a 0.8666,0.8666 0 0 1 -0.61035,0.25977 v 0 a 0.83878,0.83878 0 0 1 -0.55952,-0.21976 z"
         style="fill:#e5e5e5"
         id="path245"
         inkscape:connector-curvature="0" />
      <path
         d="m 36.80958,315.21048 a 0.712,0.712 0 0 1 -0.31934,-0.0703 0.79468,0.79468 0 0 1 -0.2705,-0.17969 0.80757,0.80757 0 0 1 -0.17969,-0.25977 0.8775,0.8775 0 0 1 0,-0.64062 1.25821,1.25821 0 0 1 0.17969,-0.26953 0.97128,0.97128 0 0 1 0.2705,-0.18067 0.89176,0.89176 0 0 1 0.63965,0 0.98078,0.98078 0 0 1 0.26953,0.18067 0.92511,0.92511 0 0 1 0.16993,0.26953 0.70314,0.70314 0 0 1 0.07031,0.32031 0.7316,0.7316 0 0 1 -0.07031,0.32031 0.76894,0.76894 0 0 1 -0.16993,0.25977 0.80032,0.80032 0 0 1 -0.26953,0.17969 0.71321,0.71321 0 0 1 -0.32031,0.0703 z"
         style="fill:#e5e5e5"
         id="path247"
         inkscape:connector-curvature="0" />
    </g>
  </g>
</svg>
