<?xml version="1.0" encoding="UTF-8"?>
<svg id="uuid-b2d897bc-59a5-4dde-8a27-2a665b5d2348" xmlns="http://www.w3.org/2000/svg" width="55.88mm" height="128.49999mm" version="1.1" xmlns:inkscape="http://www.inkscape.org/namespaces/inkscape" xmlns:sodipodi="http://sodipodi.sourceforge.net/DTD/sodipodi-0.dtd" xmlns:svg="http://www.w3.org/2000/svg" xmlns:xlink="http://www.w3.org/1999/xlink" viewBox="0 0 158.40001 364.25195">
  <!-- Generator: Adobe Illustrator 29.6.1, SVG Export Plug-In . SVG Version: 2.1.1 Build 9)  -->
  <defs>
    <linearGradient id="linear-gradient" x1="-265.96337" y1="-441.59653" x2="-4.22896" y2="-703.3309" gradientTransform="translate(512.894 -867.06742) scale(2.09714 -2.09399)" gradientUnits="userSpaceOnUse">
      <stop offset=".38537" stop-color="#ffcc9e"/>
      <stop offset=".62112" stop-color="#f1ad8c"/>
      <stop offset=".85662" stop-color="#e6947e"/>
      <stop offset="1" stop-color="#e28b79"/>
    </linearGradient>
    <linearGradient id="linear-gradient1" x1="80.41526" y1="-3290.41892" x2="93.41526" y2="-3290.41892" gradientTransform="translate(-5593.57567 -136.76245) rotate(90) scale(1.70411)" gradientUnits="userSpaceOnUse">
      <stop offset=".00559" stop-color="#303030"/>
      <stop offset="1" stop-color="#222"/>
    </linearGradient>
    <linearGradient id="linear-gradient2" x1="80.81811" y1="-3290.41892" x2="92.44201" y2="-3290.41892" gradientTransform="translate(-5593.57567 -136.76245) rotate(90) scale(1.70411)" gradientUnits="userSpaceOnUse">
      <stop offset=".01118" stop-color="#636363"/>
      <stop offset="1" stop-color="#2b2b2b"/>
    </linearGradient>
    <linearGradient id="linear-gradient3" x1="81.08006" y1="-3290.41892" x2="91.80981" y2="-3290.41892" gradientTransform="translate(-5593.57567 -136.76245) rotate(90) scale(1.70411)" gradientUnits="userSpaceOnUse">
      <stop offset=".01118" stop-color="#4c4c4c"/>
      <stop offset="1" stop-color="#3b3b3b"/>
    </linearGradient>
    <linearGradient id="linear-gradient4" x1="286.28998" y1="-3290.41892" x2="299.28998" y2="-3290.41892" gradientTransform="translate(-5593.57567 -136.76245) rotate(90) scale(1.70411)" gradientUnits="userSpaceOnUse">
      <stop offset=".00559" stop-color="#303030"/>
      <stop offset="1" stop-color="#222"/>
    </linearGradient>
    <linearGradient id="linear-gradient5" x1="286.69283" y1="-3290.41892" x2="298.31668" y2="-3290.41892" gradientTransform="translate(-5593.57567 -136.76245) rotate(90) scale(1.70411)" gradientUnits="userSpaceOnUse">
      <stop offset=".01118" stop-color="#636363"/>
      <stop offset="1" stop-color="#2b2b2b"/>
    </linearGradient>
    <linearGradient id="linear-gradient6" x1="286.95479" y1="-3290.41892" x2="297.68453" y2="-3290.41892" gradientTransform="translate(-5593.57567 -136.76245) rotate(90) scale(1.70411)" gradientUnits="userSpaceOnUse">
      <stop offset=".01118" stop-color="#4c4c4c"/>
      <stop offset="1" stop-color="#3b3b3b"/>
    </linearGradient>
    <linearGradient id="linear-gradient7" x1="80.41526" y1="-3357.18195" x2="93.41526" y2="-3357.18195" gradientTransform="translate(-5593.57567 -136.76245) rotate(90) scale(1.70411)" gradientUnits="userSpaceOnUse">
      <stop offset=".00559" stop-color="#303030"/>
      <stop offset="1" stop-color="#222"/>
    </linearGradient>
    <linearGradient id="linear-gradient8" x1="80.81811" y1="-3357.18195" x2="92.44201" y2="-3357.18195" gradientTransform="translate(-5593.57567 -136.76245) rotate(90) scale(1.70411)" gradientUnits="userSpaceOnUse">
      <stop offset=".01118" stop-color="#636363"/>
      <stop offset="1" stop-color="#2b2b2b"/>
    </linearGradient>
    <linearGradient id="linear-gradient9" x1="81.08006" y1="-3357.18195" x2="91.80981" y2="-3357.18195" gradientTransform="translate(-5593.57567 -136.76245) rotate(90) scale(1.70411)" gradientUnits="userSpaceOnUse">
      <stop offset=".01118" stop-color="#4c4c4c"/>
      <stop offset="1" stop-color="#3b3b3b"/>
    </linearGradient>
    <linearGradient id="linear-gradient10" x1="286.28998" y1="-3357.18195" x2="299.28998" y2="-3357.18195" gradientTransform="translate(-5593.57567 -136.76245) rotate(90) scale(1.70411)" gradientUnits="userSpaceOnUse">
      <stop offset=".00559" stop-color="#303030"/>
      <stop offset="1" stop-color="#222"/>
    </linearGradient>
    <linearGradient id="linear-gradient11" x1="286.69283" y1="-3357.18195" x2="298.31668" y2="-3357.18195" gradientTransform="translate(-5593.57567 -136.76245) rotate(90) scale(1.70411)" gradientUnits="userSpaceOnUse">
      <stop offset=".01118" stop-color="#636363"/>
      <stop offset="1" stop-color="#2b2b2b"/>
    </linearGradient>
    <linearGradient id="linear-gradient12" x1="286.95479" y1="-3357.18195" x2="297.68453" y2="-3357.18195" gradientTransform="translate(-5593.57567 -136.76245) rotate(90) scale(1.70411)" gradientUnits="userSpaceOnUse">
      <stop offset=".01118" stop-color="#4c4c4c"/>
      <stop offset="1" stop-color="#3b3b3b"/>
    </linearGradient>
  </defs>
  <sodipodi:namedview id="namedview126" bordercolor="#000000" borderopacity="0.25" inkscape:current-layer="uuid-b2d897bc-59a5-4dde-8a27-2a665b5d2348" inkscape:cx="133.16044" inkscape:cy="287.40652" inkscape:deskcolor="#d1d1d1" inkscape:document-units="mm" inkscape:pagecheckerboard="0" inkscape:pageopacity="0.0" inkscape:showpageshadow="2" inkscape:window-height="1009" inkscape:window-maximized="1" inkscape:window-width="1920" inkscape:window-x="-8" inkscape:window-y="-8" inkscape:zoom="6.5447368" pagecolor="#ffffff" showgrid="false"/>
  <g id="uuid-89813eec-eb59-495b-a10f-8b1a96598cff">
    <rect id="uuid-d713fa61-8428-47f7-872d-842e2d21337c" x="7.18404" y="5.65669" width="147.16054" height="354.83571" fill="url(#linear-gradient)"/>
    <g id="uuid-5fc82deb-38d5-4481-a916-f57e2e77c504">
      <path id="uuid-710554ee-9b34-4002-a0d0-94a17d6c5c50" d="M65.36211,179.12577h-1.25572v6.18449h1.25572c1.77434,0,3.21404-1.40412,3.21404-3.09244-.00002-1.68798-1.43971-3.09207-3.21404-3.09207h0Z" fill="#252626"/>
      <path id="uuid-4fd4950f-ee64-4ea6-9b75-186334ee5393" d="M51.45283,182.15091c0-1.82185-1.45623-3.34277-3.28085-3.34277s-3.29788,1.52091-3.29788,3.34277c0,1.80543,1.47328,3.29294,3.29788,3.29294,1.82459-.00004,3.28085-1.48752,3.28085-3.29294Z" fill="#252626"/>
      <path id="uuid-61709261-d307-4681-a8ea-af6d5ef521a1" d="M0,0v364.25198h158.40001V.00002S0,.00002,0,0ZM109.93536,176.26736h2.91297v11.90105h-2.91297v-11.90105ZM93.28089,186.11256l1.90839-2.18969c1.05456.91918,1.67409,1.27028,2.41055,1.40412.21757.04993.43513.08349.63621.08349.33463,0,.63597-.06662.8703-.18378.20108-.10037.55241-.31764.55241-.76887,0-.46793-.87052-.75209-1.62381-.90267-.33458-.06662-1.97514-.41773-2.64487-.81904-1.13837-.66849-1.72406-1.68799-1.72406-2.95858,0-.70191.23431-1.37063.61921-1.93872.38512-.53487.92082-.9529,1.54025-1.23705l-.01672.01707c.63599-.30089,1.35598-.45125,2.04218-.45125.2846,0,.55241.01707.88734.06681,1.07134.18378,2.0589.61829,3.43159,1.75494l-1.84137,2.20644c-1.23892-1.01951-1.87488-1.17013-2.51109-1.17013-.31811,0-.56917.06681-.76998.16734-.31811.1336-.4854.36755-.4854.58476,0,.4515.60271.66872,1.57348.86928.10054.03336.21761.03336.33487.06681.65273.15032,1.62381.35115,2.25979.71868h-.01671c1.20538.66872,1.84137,1.72177,1.84137,3.02545,0,.76887-.20086,1.48752-.63597,2.0893-.38512.55167-.95432.95265-1.59029,1.27028-.66971.35108-1.35591.45147-2.1092.45147-.4019,0-.83701-.05033-1.20538-.13393-1.20516-.25073-2.31001-.80232-3.73301-2.0224h.00005l-.00013-.00012v-.00003ZM65.36211,188.16842h-4.13489v-11.90103h4.1349c3.36458,0,6.09327,2.67434,6.09327,5.95047-.00002,3.2762-2.72873,5.95059-6.09328,5.95059h0v-.00003ZM78.4173,188.1684v-11.90105h8.11892v2.84167h-5.20594v1.01951h4.55298v2.89163h-4.55298v2.27336h5.0887v2.87485s-8.00169.00001-8.00169.00001h0ZM58.72634,58.50239c0-4.74158,3.84961-8.58543,8.59835-8.58543h28.24223c4.74874,0,8.59835,3.84381,8.59835,8.58543v81.57709c0,4.7416-3.84961,8.58542-8.59835,8.58542h-28.24222c-4.74874,0-8.59835-3.84383-8.59835-8.58542,0,.00004,0-81.57709-.00001-81.57709ZM92.36974,116.37173c-.3054.70319-.71051,1.28365-1.21532,1.74074-.50543.45709-1.07988.79645-1.7258,1.02004-.64652.22292-1.32132.33374-2.02554.33374-1.19777,0-2.13092-.17532-2.8-.52725-.66913-.3519-1.19216-.76202-1.56715-1.23104-.40009-.51593-.65216-1.09015-.75751-1.72319-.10598-.63306-.15867-1.2661-.15867-1.89916,0-.89165.01819-1.50654.05271-1.84657.03576-.34064.07588-.53348.12352-.58046.09346-.07074.48099-.1052,1.16204-.1052h8.24268c.23455,0,.42831.01754.58132.05263.15176.03508.26966.12837.35181.28113.08214.15215.13482.38069.15863.68564.02321.30494.03576.72699.03576,1.2661-.00002.98497-.15365,1.82966-.45843,2.53284M78.14073,82.15254c.03136-.22104.12668-.39573.28597-.52286.15863-.12647.412-.20599.76195-.23794.34928-.03131.84155-.04758,1.47683-.04758,2.47707,0,4.3747.68942,5.69287,2.06884,1.31756,1.37943,1.97726,3.22726,1.97726,5.54217,0,.21916-.04578.6919-.07461,1.01625-.1825-.00259-.36498-.00499-.54745-.00872-.4998-.01056-1.04287-.03821-1.6292-.08141-.13045.06513-.20067.18973-.21197.37381-.01058.1847.03763.33123.14739.43958l.5857.06512c.39133.04319.71678.11395.97765.21102.26088.09768.39133.20098.39133.30932,0,.10832-.06521.30933-.19564.60175-.13045.29306-.30416.64555-.52112,1.05697-.21761.41265-.45152.85221-.70047,1.31805-.25023.4665-.48413.90605-.7011,1.31746-.4998.95492-1.00963,1.89227-1.53139,2.81398-.52115.92234-1.03159,1.81712-1.53076,2.68437-.63089-1.12773-1.24984-2.30992-1.8575-3.54597-.60831-1.23669-1.21658-2.46146-1.8249-3.67683-.04391-.08641-.11914-.24861-.22765-.48778-.1091-.23794-.22323-.49279-.34239-.76455-.11977-.27114-.22323-.52534-.30979-.76455-.08718-.23858-.12982-.40139-.12982-.48778,0-.13026.08591-.23293.26024-.30933.1737-.07576.54309-.16779,1.10811-.27613l.42327-.06512c.10848-.10832.15742-.26049.14676-.45585-.01126-.19473-.09281-.31434-.24393-.35754-.4628.03631-1.03033.0626-1.70323.07827v-6.90284c-.00002-.38073.0157-.68193.04762-.90422M80.83851,106.50583c0,.86785-.01126,1.56166-.03262,2.08198-.02194.52035-.09779.92736-.22825,1.21979-.04641.10519-.10159.19787-.16493.27864-.00125.00062-.00327.00192-.00442.00287-.37939-.07266-.69921-.15652-.95756-.25233-.42895-.15841-.7381-.44396-.92875-.85596-.19063-.41199-.30979-.99059-.35744-1.73635-.04767-.74452-.07151-1.73635-.07151-2.9724v-6.77322l1.70323,3.31365c.23832.45585.42831.84094.57005,1.15528.14109.31497.24393.60737.30916.8785.06521.27175.10848.55853.13042.86224.02131.30369.03262.68313.03262,1.13838-.00002,0-.00002,1.65932-.00002,1.65932l.00004-.00026v-.00015ZM94.28555,110.52893c.14109-.39073.28156-.80776.42331-1.25234.14109-.44459.27152-.87851.39133-1.3018.11914-.42267.21135-.77519.27718-1.05759-.06586-.15092-.19065-.24861-.37504-.29243-.18498-.04323-.33109-.02195-.44021.06509-.43458.84532-.85224,1.53974-1.25421,2.08198-.40197.54288-.75503.90044-1.05855,1.07387-.17434.08703-.37501.16218-.60328.22728-.22765.06509-.4998.11395-.81463.14653-.31479.03259-.69485.0601-1.14007.08138-.44526.02195-.9833.03259-1.61292.03259-.71678,0-1.30876-.02128-1.77596-.06509-.4672-.04323-.84158-.0977-1.12375-.16219-.28283-.06576-.50545-.14153-.66787-.22792-.16306-.08637-.28848-.1841-.37501-.29305-.26087-.28178-.42895-.69943-.50484-1.25233-.07649-.55353-.11414-1.26359-.11414-2.13144v-2.1471c.005-.29742.01382-.56041.02637-.78584.02131-.40073.08088-.77519.17873-1.12207.09782-.3469.24956-.71632.45654-1.10645.04893-.09327.10409-.1941.16242-.29992.07838-.00287.1599-.00383.25085-.00383h1.8901c.62963,0,1.14573.01055,1.5477.03259.40134.02128.72179.06451.96134.12963.32548.08703.55876.23919.70047.45585.14111.21665.24396.47711.30981.78084l.29285,1.26859c.08654.10896.2333.15718.43962.14653.2063-.01055.34238-.07016.40761-.17909,0-.36883-.02197-.83469-.06523-1.39884-.04391-.56418-.06523-1.13897-.06523-1.72445,0-.62868.02131-1.23604.06523-1.82152.04326-.58608.06523-1.07387.06523-1.46461-.06523-.10769-.20132-.16779-.40761-.17907-.20632-.01006-.35307.03825-.43962.14651l-.26024,1.33435c-.08714.412-.19063.68878-.30979.82966-.11979.1409-.27716.24357-.47221.30868-.19567.06509-.53304.11397-1.01026.14651-.47848.03259-1.06484.04889-1.75966.04889h-1.47243c.01126-.01811.02131-.03508.03262-.05387l2.05252-3.54597c.412-.6944.78702-1.33936,1.1244-1.93609.33612-.59611.66787-1.12271.99331-1.57793.32612-.45522.66222-.82402,1.0103-1.10579.07212-.05824.1461-.11084.22199-.16031.22074.08767.41515.19099.58258.31184.27155.19475.49351.42267.66785.68313.1737.25985.31481.55292.42392.87786.10786.32561.22765.68377.35807,1.07389.08654.10896.22827.15216.42392.13026.19502-.02128.32544-.08641.39066-.19537-.04387-.34682-.08153-.74257-.11349-1.18716-.03323-.44457-.07149-.8785-.11476-1.30116-.04327-.42328-.10033-.80086-.14612-1.13897-.1135-.83657-.0878-1.55101-.0878-1.55101,0-1.64806-.46844-3.08888-1.18334-4.29485-.71428-1.20476-1.62798-2.15587-2.7392-2.85341-1.11185-.69756-2.41373-1.18909-3.90622-1.47461-1.49314-.28552-3.23964-.42831-5.24011-.42831-2.0011,0-3.75636.02379-5.26391.07138-1.50883.04758-2.89848.15089-4.16899.30935-.19002.09517-.29352.27803-.30918.54663-.01638.26989.05457.48401.21448.64244l1.7145.19036c.53994.06387.96009.16656,1.26297.30932.30102.14213.52365.40387.66661.78459.14298.3807.23016.88789.26213,1.52221.03135.6343.04765,1.45897.04765,2.47334v17.5526c0,1.23604-.01638,2.22789-.04765,2.9724-.03197.74577-.14298,1.32434-.33364,1.73635-.19062.41203-.47659.69754-.85724.85596-.38129.15906-.92184.28552-1.61979.38069l-1.00085.14277c-.14487.14463-.20947.3425-.19564.59173-.00125.50906-.00682.67064-.01755,1.24418-.01126.65682-.0414,1.3907-.08969,2.20284.04828.11961.18502.191.41262.21539.227.0232.3888-.02444.48476-.14338l.10721-.75266c.07214-.52536.16745-.9311.28721-1.21727.11979-.28679.33489-.50156.64594-.64495.31041-.14338.74689-.22792,1.30941-.25172.56187-.0232,1.30939-.03508,2.24253-.03508h4.52018c.19125,0,.34115.01198.44899.03508.10723.02378.185.0902.23267.19787.04765.10706.07775.27423.0903.50093.01126.22728.01758.54288.01758.94925,0,.71695-.08966,1.25421-.26902,1.61237-.17934.35817-.47221.66875-.87921.93174-.40698.28678-.85536.58485-1.34512.8954-.49101.30994-.98142.62054-1.4712.9311-.49038.31059-.96261.60927-1.41727.89605-.45466.28616-.8491.54914-1.18397.78772-.90931.64495-1.65682,1.24796-2.24253,1.80963-.5857.56104-1.04602,1.12833-1.3809,1.70127-.33549.57295-.56817,1.17594-.69985,1.80901-.13106.63305-.19691,1.33121-.19691,2.09575,0,.69253.05957,1.21851.17873,1.57609.07212.09576.16179.13775.26966.1259.10723-.01275.185-.06633.23328-.16155.04702-.47779.16115-.93109.34051-1.36067.17934-.43018.40008-.80087.6641-1.11082.5023-.62117,1.06984-1.20599,1.70385-1.75576.63336-.54913,1.33323-1.11019,2.09892-1.68377.76507-.57294,1.62609-1.16402,2.58307-1.77267.95633-.60925,2.00922-1.27236,3.15749-1.98869.14358-.09576.29221-.17345.44837-.23293.15489-.0601.29285-.04199.41262.05387.16681.45335.41827.93736.75315,1.4508.33487.51344.74752.99749,1.2379,1.45145.49041.45334,1.06421.82906,1.72203,1.12833.65783.29805,1.41727.44772,2.27826.44772,1.268,0,2.30839-.28113,3.12175-.8422.81274-.56104,1.44673-1.27173,1.90136-2.13148.45404-.83593.74752-1.7614.87921-2.77578.13106-1.01565.20191-2.08454.1969-3.20722-.00883-2.08013.36618-3.40384.36618-3.40383M19.88475,185.5944l-.13375.2005c-1.20545,1.60465-3.09708,2.55723-5.03871,2.55723-3.4319,0-6.22734-2.79118-6.22734-6.23444,0-3.42672,2.79545-6.21797,6.22734-6.21797,1.6738,0,3.24732.65175,4.41926,1.83862l.55243.56832-2.07568,1.80514-.48544-.46793c-.65297-.63526-1.50675-.98611-2.41055-.98611-1.90841,0-3.46519,1.55444-3.46519,3.45996,0,1.92197,1.55677,3.4767,3.46519,3.4767.92056,0,1.75758-.35111,2.41055-.98636v-1.4708h-3.08033v-2.75808h5.84221s0,5.2152.00002,5.2152v.00003h0ZM35.70213,179.10897h-5.20623v1.01951h4.55356v2.89165h-4.55356v2.27336h5.08921v2.87485h-8.00194v-11.90105h8.11892l.00004,2.84167h0ZM41.97815,182.15087c0-3.42643,2.77891-6.20096,6.19382-6.20096,3.39808,0,6.2106,2.77453,6.2106,6.20096,0,3.39333-2.8125,6.16779-6.21059,6.16779-3.41488-.00001-6.19382-2.77447-6.19383-6.16779ZM87.98942,318.30664c0,1.10833.86157,1.85065,1.89281,1.85065.75658,0,1.59188-.45588,1.9575-1.17292l-2.17969-3.04885c-1.31811.91169-1.6706,1.64188-1.67062,2.37109,0,0,0,.00003,0,.00003ZM72.00693,314.28051c-.96562,0-1.44843.62531-1.47469,2.34491h2.95031c-.02625-1.7196-.50906-2.34491-1.47563-2.34491ZM77.79131,314.28051c-.44342,0-.83531.23402-1.09594.6122-.33939.48209-.44438,1.15982-.44438,2.35895,0,2.55366.71813,2.95805,1.51408,2.95805.78281,0,1.51408-.40439,1.51408-2.95805,0-2.51528-.73126-2.97115-1.48782-2.97115h-.00001ZM60.20991,274.07918c-.78281,0-1.51407.40346-1.51407,2.95805,0,2.56676.73126,2.97113,1.51407,2.97113.79594,0,1.51408-.40436,1.51408-2.97113-.00002-2.55459-.71815-2.95805-1.51408-2.95805ZM91.10942,313.09454c0-.60003-.45751-1.04281-1.0575-1.04281-.61313,0-1.07061.44277-1.07061,1.04281,0,.49519.35249,1.18603.87469,1.88903,1.03124-.78164,1.25342-1.38076,1.25342-1.88903ZM65.96802,274.07915c-.96563,0-1.44843.62531-1.47469,2.34491h2.95031c-.02626-1.71966-.50908-2.34491-1.47563-2.34491ZM55.33348,314.28054c-.87374,0-1.5525.75543-1.5525,2.95805,0,2.21479.67874,2.97115,1.5525,2.97115.87468,0,1.55344-.75636,1.55344-2.97115,0-2.20262-.67876-2.95805-1.55344-2.95805ZM88.43895,274.07915c-.96562,0-1.44843.62531-1.47469,2.34491h2.95031c-.02626-1.71966-.50906-2.34491-1.47563-2.34491ZM102.25303,277.05031l-.65251.16937c-.78374.20781-1.18781.6122-1.18781,1.43316,0,.80785.41719,1.35543,1.09594,1.35543.9525,0,1.60501-.71702,1.60501-1.95453v-1.4603h-.02534c-.07872.23496-.52219.37818-.83531.45681,0,0,.00004.00006.00003.00006ZM112.60676,274.07915c-.96562,0-1.44843.62531-1.47467,2.34491h2.95031c-.02621-1.71966-.50906-2.34491-1.47564-2.34491ZM73.00584,278.10528c0,1.10833.86157,1.85062,1.89281,1.85062.75657,0,1.59188-.45585,1.95751-1.17289l-2.17969-3.04885c-1.31813.91178-1.67064,1.64193-1.67064,2.37112ZM76.12583,272.89312c0-.60003-.45751-1.04281-1.0575-1.04281-.61313,0-1.07061.44277-1.07061,1.04281,0,.49519.35249,1.18603.87469,1.88903,1.03124-.78167,1.25342-1.38076,1.25342-1.88903ZM96.40302,274.07915c-.96562,0-1.44843.62531-1.47469,2.34491h2.95031c-.02621-1.71966-.50906-2.34491-1.47563-2.34491ZM56.16177,277.0372c0-2.20262-.67874-2.95805-1.55344-2.95805-.87374,0-1.5525.75543-1.5525,2.95805,0,2.21479.67874,2.97113,1.5525,2.97113.87468-.00003,1.55344-.75633,1.55344-2.97113ZM105.15273,278.28782h.78281v.18254c0,1.0166.44342,1.53797,1.33125,1.53797.83531,0,1.3706-.46895,1.3706-1.23842,0-.6122-.24844-1.00349-.94031-1.27683l-1.09594-.42967c-.97876-.37818-1.33125-.95201-1.33125-1.64284,0-1.42005.88781-1.99388,2.0625-1.99388,1.30502,0,1.90499.66463,1.90499,1.92928v.19564h-.78278v-.19564c0-.89958-.41813-1.27683-1.13531-1.27683-.91406,0-1.26657.48209-1.26657,1.17199,0,.48302.15657.86027.94031,1.16075l1.13531.42967c.93938.35197,1.29186,1.00349,1.29186,1.75892,0,1.186-.67874,2.05937-2.14031,2.05937-1.42313,0-2.12721-.58599-2.12721-2.15017,0,.00003,0-.22182.00002-.22182v-.00003h.00002ZM103.15303,279.72191v-.23496h-.02621c-.31313.91266-1.01813,1.17289-1.7878,1.17289-1.21406,0-1.76157-.75543-1.76157-1.95453,0-.91269.41719-1.6419,1.39594-1.91618l1.47469-.41656c.54844-.15627.66562-.28738.66562-1.09523,0-.88554-.49594-1.1982-1.19999-1.1982-.92719,0-1.33125.55978-1.33125,1.56327h-.78374c0-1.42005.67876-2.21573,2.14125-2.21573,1.43531,0,1.9575.74326,1.9575,1.83755v4.09259c0,.39126.13031.57286.40406.57286h.22221v.57382c-.14343.05254-.26062.0786-.36562.0786-.61314,0-1.00501-.14416-1.00501-.86027l-.00005.00012-.00003-.00006ZM83.1585,320.13111c.15655,0,.31313-.02539.48282-.07772v.65152c-.09188.05233-.28781.0786-.54844.0786-1.0575,0-1.46157-.28738-1.46157-1.21224v-5.13446h-.95343v-.65246h.95343v-1.91524h.78283v1.91524h1.22719v.65246h-1.22719v4.96503c0,.54761.23531.72922.74438.72922l-.00002.00009v-.00003ZM78.08334,280.50352l-.8222-1.13358c-.52219.78161-1.33125,1.28991-2.4797,1.28991-1.60592,0-2.61092-1.09426-2.61092-2.46283,0-.97728.49594-1.74675,1.34438-2.39827l.77061-.58599c-.66562-.87337-1.07061-1.56421-1.07061-2.29436,0-1.1205.87469-1.7196,1.90594-1.7196,1.08281,0,1.7878.69084,1.7878,1.7196,0,.75636-.31313,1.4603-1.64438,2.39827l2.00999,2.81483c.23438-.57289.32625-1.18603.33939-1.75892h.78281c0,.80785-.23531,1.66812-.65251,2.41044l1.22719,1.72051s-.88775.00003-.88777.00003v-.00003h-.00001ZM52.22052,277.0372c0-2.39827.86062-3.61051,2.3878-3.61051s2.38876,1.21224,2.38876,3.61051c0,2.41044-.86157,3.62265-2.38876,3.62265s-2.3878-1.21221-2.3878-3.62265ZM61.80271,280.50352v-1.14668h-.02625c-.20907.79471-.87468,1.30301-1.69687,1.30301-1.5272,0-2.21906-1.22531-2.21906-3.62265,0-2.38516.69187-3.61051,2.21906-3.61051.86157,0,1.44843.46992,1.61813,1.19913h.02625v-3.42703h.78281v9.30472s-.70408,0-.70407,0ZM65.96801,280.00833c.82219,0,1.33125-.5869,1.46251-1.7982h.78281c-.11718,1.47247-.92718,2.44972-2.2322,2.44972-1.46157,0-2.32313-1.01657-2.32313-3.62265,0-2.39827.86157-3.61051,2.38875-3.61051,1.54032,0,2.2322,1.05591,2.2322,3.36244v.28738h-3.78563v.32576c0,1.99388.70501,2.60611,1.47469,2.60611v-.00006ZM83.59581,274.66514c.30001-.76853.93938-1.23845,1.74844-1.23845.09188,0,.18282.0136.27469.0392v.78164c-.13124-.02522-.26156-.03835-.37874-.03835-.86157,0-1.6706.62531-1.6706,1.96766v4.32659h-.78374v-6.9205h.78374v1.08212l.02622.00012v-.00003ZM86.12895,277.0372c0-2.39827.86157-3.61051,2.38875-3.61051,1.54032,0,2.23218,1.05591,2.23218,3.36244v.28738h-3.78563v.32576c0,1.99388.70501,2.60605,1.47469,2.60605.82219,0,1.33125-.5869,1.46249-1.7982h.78281c-.11718,1.47247-.92719,2.44972-2.23218,2.44972-1.46157,0-2.32313-1.01654-2.32313-3.62262v-.00003s.00002,0,.00001,0ZM92.0305,280.50352v-9.30472h.78281v9.30472h-.78281ZM48.68051,271.04247c1.89281,0,2.67563,1.34236,2.67563,2.86725h-.83532c0-1.26466-.63939-2.16331-1.8403-2.16331-1.33125,0-2.14031,1.09429-2.14031,4.10476s.80906,4.10473,2.14031,4.10473c1.17468,0,1.8403-1.00346,1.93218-2.60605h.83532c-.11814,2.12399-1.09688,3.30999-2.7675,3.30999-1.90501,0-2.97563-1.47244-2.97563-4.80867s1.07062-4.80867,2.97563-4.80867v-.00003h-.00001ZM46.43004,316.05256c0-3.33623,1.07061-4.8087,2.97561-4.8087,1.89281,0,2.67563,1.34236,2.67563,2.86725h-.8353c0-1.26466-.63939-2.16331-1.8403-2.16331-1.33125,0-2.14031,1.09429-2.14031,4.10476s.80906,4.10476,2.14031,4.10476c1.17468,0,1.8403-1.00349,1.9322-2.60608h.83532c-.11814,2.12399-1.09688,3.31002-2.7675,3.31002-1.90503,0-2.97565-1.47253-2.97565-4.80867v-.00003ZM55.33349,320.86124c-1.52624,0-2.3878-1.21224-2.3878-3.62267,0-2.39827.86157-3.61051,2.3878-3.61051,1.5272,0,2.38875,1.21224,2.38875,3.61051,0,2.41044-.86156,3.62267-2.38875,3.62267ZM61.1835,314.28051c-.91406,0-1.5272.703-1.5272,1.77202v4.65238h-.78375v-6.92053h.705v.96511h.02623c.39187-.76947,1.07062-1.12144,1.77469-1.12144,1.0575,0,1.77563.54761,1.77563,1.85065v5.2262h-.78281v-5.00435c0-.9511-.39188-1.42005-1.18781-1.42005h.00001ZM64.30537,317.23856c0-2.39827.86062-3.61051,2.38782-3.61051,1.30592,0,2.0625.79568,2.14125,2.21573h-.78378c-.09093-1.08119-.52219-1.56327-1.3575-1.56327-.84844,0-1.5525.52047-1.5525,2.97115,0,2.60608.74344,2.95805,1.47469,2.95805.79594,0,1.30502-.58693,1.43533-1.79823h.78374c-.11814,1.47247-.92719,2.44975-2.20594,2.44975-1.46249,0-2.32313-1.0166-2.32313-3.62267,0,0,.00004,0,.00003,0ZM69.69693,317.23856c0-2.39827.86157-3.61051,2.38875-3.61051,1.54032,0,2.2322,1.05591,2.2322,3.36244v.28738h-3.78563v.32576c0,1.99388.70501,2.60608,1.47469,2.60608.8222,0,1.33125-.58693,1.46251-1.79823h.78281c-.11718,1.47247-.92718,2.44975-2.2322,2.44975-1.46157,0-2.32313-1.0166-2.32314-3.62267ZM77.89536,320.86124c-.86062,0-1.44844-.46898-1.61813-1.19913h-.02626v3.33623h-.78281v-9.21395h.70501v.99132h.02626c.2475-.63935.8222-1.14765,1.70908-1.14765,1.54032,0,2.20594,1.22534,2.20594,3.62361-.00003,2.38423-.6919,3.60957-2.21908,3.60957ZM92.24475,319.57133c-.52221.78164-1.33125,1.28993-2.4797,1.28993-1.60594,0-2.61092-1.09429-2.61092-2.46286,0-.97728.49594-1.74675,1.34438-2.39827l.77061-.58599c-.66562-.87337-1.07061-1.56421-1.07061-2.29436,0-1.1205.87469-1.7196,1.90594-1.7196,1.08281,0,1.7878.69084,1.7878,1.7196,0,.75636-.31313,1.4603-1.64438,2.39827l2.00999,2.81483c.2344-.57289.32625-1.18603.33937-1.75892h.78281c0,.80785-.23531,1.66812-.65251,2.41044l1.22719,1.72054h-.88781s-.82217-1.13361-.82216-1.13361ZM94.09302,277.0372c0-2.39827.86157-3.61051,2.38875-3.61051,1.54032,0,2.23218,1.05591,2.23218,3.36244v.28738h-3.78563v.32576c0,1.99388.70501,2.60605,1.47469,2.60605.82219,0,1.33125-.5869,1.46249-1.7982h.78281c-.11718,1.47247-.92719,2.44972-2.23218,2.44972-1.46157,0-2.32313-1.01654-2.32313-3.62262,0,0,0-.00003,0-.00003ZM97.66443,316.05256c0-3.33623,1.07061-4.8087,2.9756-4.8087,1.77563,0,2.57156,1.15982,2.67563,2.76241h-.83531c0-1.1205-.61313-2.05847-1.8403-2.05847-1.33125,0-2.14031,1.09429-2.14031,4.10476s.80906,4.10476,2.14031,4.10476c1.25344,0,1.94533-1.1205,1.94533-3.29691v-.19564h-2.20594v-.70394h2.98875v4.74411h-.65251v-1.538h-.02621c-.28688,1.0297-1.1222,1.69433-2.04938,1.69433-1.90501-.00006-2.97563-1.47253-2.97563-4.80876,0,0-.00004.00006-.00003.00006ZM104.6235,311.40019h.83531v6.68557c0,1.39384.60094,2.07157,1.82719,2.07157,1.22719,0,1.82813-.67773,1.82813-2.07157v-6.68557h.83531v6.69867c0,1.95456-.95343,2.76241-2.66342,2.76241-1.70908,0-2.6625-.80785-2.6625-2.76241-.00002,0-.00002-6.69867-.00002-6.69867ZM111.33507,320.70494v-9.30475h.83531v9.30475h-.83531ZM114.91772,277.07652h-3.78563v.32576c0,1.99388.70501,2.60605,1.47467,2.60605.82217,0,1.33125-.5869,1.4625-1.7982h.78281c-.11718,1.47247-.92719,2.44972-2.23219,2.44972-1.46157,0-2.32314-1.01657-2.32314-3.62265,0-2.39827.86157-3.61051,2.38875-3.61051,1.54031,0,2.23219,1.05591,2.23219,3.36244v.28738h.00003ZM126.5071,185.46057c1.03787,0,1.95839-.43446,2.896-1.67157l2.29324,1.68831c-1.48973,1.98919-3.24762,2.85812-5.18924,2.85812-3.41514,0-6.21061-2.79118-6.21061-6.20096,0-3.41001,2.79543-6.18449,6.21061-6.18449,1.97514,0,3.76652.91918,5.25627,2.90836l-2.32674,1.70473c-.93763-1.25354-1.89164-1.75494-2.92951-1.75494-1.85814,0-3.33136,1.48752-3.33136,3.32631,0,1.85536,1.47322,3.32614,3.33135,3.32612,0,.00001,0,0,0,0h.00001-.00001ZM146.45916,186.54703c-.38514.55167-.95433.95265-1.59029,1.27028-.66973.35108-1.35598.45147-2.1092.45147-.40188,0-.83701-.05023-1.20543-.13393-1.20511-.2507-2.31001-.80226-3.73296-2.02237l1.9084-2.18969c1.05457.91918,1.67402,1.27028,2.41055,1.40412.21756.04993.43513.08349.63621.08349.33457,0,.63592-.06662.87029-.18375.20102-.10037.55241-.31764.55241-.76887,0-.46793-.87054-.75212-1.62381-.9027-.33457-.06662-1.97514-.41773-2.64486-.81901-1.13843-.66849-1.72406-1.68799-1.72406-2.95858,0-.70188.23433-1.3706.61917-1.93869.38514-.53487.92087-.9529,1.54031-1.23705l-.0167.01707c.63592-.30089,1.35592-.45125,2.04218-.45125.2846,0,.55241.01707.88729.06681,1.07139.18375,2.05896.61829,3.43165,1.75494l-1.84138,2.20641c-1.23892-1.01951-1.87487-1.17013-2.51108-1.17013-.31812,0-.56918.06681-.77002.16734-.31812.1336-.48539.36755-.48539.58476,0,.45147.60271.66872,1.57352.86928.10059.03336.21756.03336.33486.06681.65273.15032,1.62381.35115,2.25973.71868h-.0167c1.20545.66872,1.84138,1.72177,1.84138,3.02545,0,.76885-.2008,1.48749-.63589,2.08928h0l-.00016-.00019Z" fill="#252626"/>
    </g>
    <g id="uuid-a14b6fc8-3314-44e6-994f-bcd9902ac4ea">
      <g id="uuid-e5166977-d6a0-4161-9cf8-b60ffb8ae142">
        <ellipse id="uuid-d5f8d78b-d566-40cf-b330-cad33e643d6b" cx="22.08004" cy="6.76382" rx="6.5" ry="6.49023" fill="url(#linear-gradient1)"/>
        <ellipse id="uuid-a96d0a16-c929-4fa9-acb8-94539eceb3de" cx="22.08004" cy="6.7633" rx="5.81194" ry="5.80321" fill="url(#linear-gradient2)"/>
        <ellipse id="uuid-64e1c07a-fd34-4b0a-875c-3cc717c908f9" cx="22.08004" cy="6.7633" rx="5.36487" ry="5.35681" fill="url(#linear-gradient3)"/>
        <path id="uuid-c724b1d1-6263-4a86-86f1-6054168d784e" d="M25.54892,6.0754l-1.9636-.23491c-.30143-.03606-.53902-.27339-.57501-.57439l-.23429-1.95933c-.0102-.08541-.08275-.14971-.16889-.14971h-1.05414c-.08614,0-.15867.06428-.16889.14967l-.23483,1.96045c-.03606.30104-.27376.53833-.57527.57428l-1.96275.23397c-.08554.01019-.14993.08263-.14993.16864v1.05261c0,.086.06438.15843.14989.16864l1.96299.23445c.30143.036.53907.27327.57513.57425l.23479,1.95997c.01024.08539.08277.14967.16889.14967h1.0542c.08612,0,.15865-.06426.16889-.14964l.23521-1.96023c.03612-.30093.27372-.53813.57512-.57413l1.96248-.23435c.08552-.01021.14989-.08263.14989-.16864v-1.05266c-.00002-.08599-.06438-.15841-.14987-.16863Z" fill="#171717"/>
      </g>
      <g id="uuid-4ddb68e2-f40e-49c3-a59a-9ccae7363410">
        <ellipse id="uuid-686e2535-c283-4325-aa1e-24785607e1e0" cx="22.08004" cy="357.59599" rx="6.5" ry="6.49025" fill="url(#linear-gradient4)"/>
        <ellipse id="uuid-dcc4dbc7-55f0-45c7-84b8-4c5e40c242f8" cx="22.08004" cy="357.59546" rx="5.81194" ry="5.80321" fill="url(#linear-gradient5)"/>
        <ellipse id="uuid-b754635d-af5f-4515-9469-26b36ccdef94" cx="22.08004" cy="357.59546" rx="5.36487" ry="5.35681" fill="url(#linear-gradient6)"/>
        <path id="uuid-3942c791-14a5-4900-a070-4d40b6831762" d="M25.54892,356.90755l-1.9636-.2349c-.30143-.03613-.53902-.2734-.57501-.57441l-.23429-1.95933c-.01024-.08542-.08275-.1498-.16889-.1498h-1.05414c-.08614,0-.15867.06421-.16889.14963l-.23483,1.96047c-.03606.30104-.27376.53834-.57527.57426l-1.96275.23399c-.08554.01027-.14993.08264-.14993.1687v1.05264c0,.08609.06438.15849.14989.16856l1.96299.23443c.30143.03595.53907.27328.57513.57426l.23479,1.95997c.01024.08542.08277.14963.16889.14963h1.0542c.08612,0,.15865-.06421.16889-.14963l.23521-1.96023c.03612-.30092.27372-.53814.57512-.57415l1.96248-.23434c.08552-.01027.14989-.08264.14989-.1687v-1.05266c-.00002-.08609-.06438-.15849-.14988-.1687v.00032Z" fill="#171717"/>
      </g>
    </g>
    <g id="uuid-41a72071-4d36-4893-b594-ed9b4fa029cf">
      <g id="uuid-fe74abca-fa0a-4292-bba9-7816f982b40b">
        <ellipse id="uuid-28348e1d-f4ec-4dcf-8b75-25ee8a455481" cx="136.02244" cy="6.76382" rx="6.49998" ry="6.49022" fill="url(#linear-gradient7)"/>
        <ellipse id="uuid-9ff38e65-f8bb-4ba3-b657-b488cde4b61f" cx="136.02244" cy="6.7633" rx="5.81194" ry="5.80321" fill="url(#linear-gradient8)"/>
        <ellipse id="uuid-33bce0ae-67dd-43b3-9bf1-3ef4fab55e09" cx="136.02244" cy="6.7633" rx="5.36487" ry="5.35681" fill="url(#linear-gradient9)"/>
        <path id="uuid-e4f32880-381f-469a-8342-a976734c6bf3" d="M139.4913,6.0754l-1.96359-.23491c-.30144-.03606-.53902-.27339-.57501-.57439l-.2343-1.95933c-.01018-.08541-.08275-.14971-.1689-.14971h-1.05413c-.08612,0-.15867.06428-.1689.14967l-.23484,1.96045c-.03609.30104-.27376.53833-.57526.57428l-1.96274.23397c-.08553.01019-.14993.08263-.14993.16864v1.05261c0,.086.06441.15843.1499.16864l1.96296.23445c.30145.036.53906.27327.57513.57425l.23479,1.95997c.01027.08539.08275.14967.1689.14967h1.0542c.08612,0,.15864-.06426.16888-.14964l.23524-1.96023c.03609-.30093.27372-.53813.57511-.57413l1.96247-.23435c.08553-.01021.1499-.08263.1499-.16864v-1.05266c0-.08599-.06432-.15841-.14985-.16864h-.00001Z" fill="#171717"/>
      </g>
      <g id="uuid-329a3076-25c1-42b6-b011-45b70330d1fb">
        <ellipse id="uuid-5e9a81b8-0aad-4c1e-a016-bc3954d0a847" cx="136.02244" cy="357.59599" rx="6.5" ry="6.49025" fill="url(#linear-gradient10)"/>
        <ellipse id="uuid-7acdc207-db61-4b82-a212-a2bc93e7c820" cx="136.02244" cy="357.59546" rx="5.81194" ry="5.80321" fill="url(#linear-gradient11)"/>
        <ellipse id="uuid-f5f64eb7-32a7-4811-b177-177e8853503e" cx="136.02244" cy="357.59546" rx="5.36487" ry="5.35681" fill="url(#linear-gradient12)"/>
        <path id="uuid-39774d41-72e8-44dc-b33f-8a214a7da002" d="M139.4913,356.90755l-1.96361-.2349c-.30144-.03613-.539-.2734-.57501-.57441l-.2343-1.95933c-.01027-.08542-.08275-.1498-.1689-.1498h-1.05413c-.08612,0-.15867.06421-.1689.14963l-.23484,1.96047c-.03609.30104-.27376.53834-.57526.57426l-1.96274.23399c-.08553.01027-.14993.08264-.14993.1687v1.05264c0,.08609.06441.15849.1499.16856l1.96296.23443c.30145.03595.53906.27328.57513.57426l.23479,1.95997c.01027.08542.08275.14963.1689.14963h1.0542c.08612,0,.15864-.06421.16888-.14963l.23524-1.96023c.03609-.30092.27372-.53814.57511-.57415l1.96247-.23434c.08553-.01027.1499-.08264.1499-.1687v-1.05266c0-.08609-.06432-.15849-.14985-.1687v.00032Z" fill="#171717"/>
      </g>
    </g>
  </g>
  <g id="uuid-2c4977a1-5469-4bbe-8aaf-26ed6fe5df99">
    <g id="uuid-7859a575-de31-473d-86c5-9dcb44fd1c92">
      <g id="uuid-dfd95afe-173f-4c4c-8808-d3da2a776612">
        <path id="uuid-3b60febb-d80f-41d9-8e11-bf15fa45fdf5" d="M4.80318,22.84903c-.2114,0-.41296-.08613-.56672-.23963-.07641-.06648-.13407-.16288-.17251-.249-.03844-.10484-.05767-.20126-.05767-.30609,0-.10578.01924-.21156.05767-.30703.03844-.09642.09609-.18254.17251-.2593.29764-.29675.82593-.29675,1.1236,0,.07641.07675.13407.16288.17251.2593.03844.09548.05765.20126.05765.30703,0,.10486-.01922.20126-.05765.30609-.03844.08613-.09611.18254-.17251.249-.07689.07675-.1636.13479-.25921.17317-.09612.03836-.19222.06646-.29768.06646Z" fill="#e5e5e5"/>
      </g>
      <g id="uuid-fec7fcaf-50d9-47b2-8f0d-0a597f305c5e">
        <path id="uuid-771d6470-2208-46bf-b9ab-5889806c9fd4" d="M150.48317,22.05428c0-.44184.35531-.79568.78703-.79568h0c.44156,0,.79688.35384.79688.79568h0c0,.4409-.35531.79472-.79688.79472h0c-.43172.00002-.78703-.35384-.78703-.79472ZM145.75019,22.05428c0-.44184.35531-.79568.79688-.79568h0c.44156,0,.79688.35384.79688.79568h0c0,.4409-.35531.79472-.79688.79472h0c-.44156.00002-.79688-.35384-.79688-.79472ZM141.02708,22.05428c0-.44184.35531-.79568.79688-.79568h0c.44156,0,.79688.35384.79688.79568h0c0,.4409-.35531.79472-.79688.79472h0c-.44156.00002-.79688-.35384-.79688-.79472ZM136.30394,22.05428c0-.44184.35531-.79568.79688-.79568h0c.44156,0,.79688.35384.79688.79568h0c0,.4409-.35531.79472-.79688.79472h0c-.44159.00002-.79688-.35384-.79688-.79472ZM131.5808,22.05428c0-.44184.35484-.79568.79688-.79568h0c.43172,0,.79639.35384.79639.79568h0c0,.4409-.36467.79472-.79639.79472h0c-.44205.00002-.79688-.35384-.79688-.79472ZM126.85766,22.05428c0-.44184.35484-.79568.79639-.79568h0c.43217,0,.78749.35384.78749.79568h0c0,.4409-.35531.79472-.78749.79472h0c-.44155.00002-.79639-.35384-.79639-.79472ZM122.12468,22.05428c0-.44184.36467-.79568.79688-.79568h0c.44156,0,.79688.35384.79688.79568h0c0,.4409-.35531.79472-.79688.79472h0c-.43221.00002-.79688-.35384-.79688-.79472ZM117.40157,22.05428c0-.44184.35484-.79568.79688-.79568h0c.44156,0,.7964.35384.7964.79568h0c0,.4409-.35484.79472-.7964.79472h0c-.44203.00002-.79688-.35384-.79688-.79472ZM112.67843,22.05428c0-.44184.35484-.79568.7964-.79568h0c.44156,0,.79688.35384.79688.79568h0c0,.4409-.35531.79472-.79688.79472h0c-.44156.00002-.7964-.35384-.7964-.79472ZM107.95484,22.05428c0-.44184.35531-.79568.79688-.79568h0c.43218,0,.78749.35384.78749.79568h0c0,.4409-.35531.79472-.78749.79472h0c-.44157.00002-.79688-.35384-.79688-.79472ZM103.23173,22.05428c0-.44184.35531-.79568.79688-.79568h0c.43218,0,.78701.35384.78701.79568h0c0,.4409-.35481.79472-.78701.79472h0c-.44157.00002-.79688-.35384-.79688-.79472ZM98.50859,22.05428c0-.44184.3553-.79568.78701-.79568h0c.44202,0,.79688.35384.79688.79568h0c0,.4409-.35485.79472-.79688.79472h0c-.43172.00002-.78701-.35384-.78701-.79472ZM93.77561,22.05428c0-.44184.35531-.79568.79688-.79568h0c.44157,0,.79688.35384.79688.79568h0c0,.4409-.35531.79472-.79688.79472h0c-.44157.00002-.79688-.35384-.79688-.79472ZM89.05248,22.05428c0-.44184.35531-.79568.79688-.79568h0c.44157,0,.79688.35384.79688.79568h0c0,.4409-.35531.79472-.79688.79472h0c-.44157.00002-.79688-.35384-.79688-.79472ZM84.32937,22.05428c0-.44184.35531-.79568.79688-.79568h0c.44157,0,.79688.35384.79688.79568h0c0,.4409-.35531.79472-.79688.79472h0c-.44157.00002-.79688-.35384-.79688-.79472ZM79.60623,22.05428c0-.44184.35531-.79568.79688-.79568h0c.43172,0,.78701.35384.78701.79568h0c0,.4409-.35531.79472-.78701.79472h0c-.44157.00002-.79688-.35384-.79688-.79472ZM74.8831,22.05428c0-.44184.35531-.79568.78702-.79568h0c.44157,0,.79688.35384.79688.79568h0c0,.4409-.35531.79472-.79688.79472h0c-.4317.00002-.78702-.35384-.78702-.79472ZM70.15014,22.05428c0-.44184.35531-.79568.79688-.79568h0c.44157,0,.79688.35384.79688.79568h0c0,.4409-.35531.79472-.79688.79472h0c-.44157.00002-.79688-.35384-.79688-.79472ZM65.42701,22.05428c0-.44184.35531-.79568.79688-.79568h0c.44157,0,.79688.35384.79688.79568h0c0,.4409-.35531.79472-.79688.79472h0c-.44157.00002-.79688-.35384-.79688-.79472ZM60.70387,22.05428c0-.44184.35532-.79568.79688-.79568h0c.44157,0,.79688.35384.79688.79568h0c0,.4409-.35531.79472-.79688.79472h0c-.44157.00002-.79688-.35384-.79688-.79472ZM65.62199,295.28818c.84844,0,1.26563-.63841,1.26563-1.66812v-1.17292c-.36469.28644-1.14843.45588-1.56562.65152-.40501.19564-.57469.61314-.57469,1.13361-.00002.58696.28686,1.05591.87467,1.05591ZM89.63466,330.19878c-1.01813,0-1.20093,1.09429-1.20093,2.64539,0,1.78513.18282,2.64539,1.20093,2.64539,1.03124,0,1.21406-.86027,1.21406-2.64539.00002-1.5511-.18282-2.64539-1.21406-2.64539ZM50.17717,328.16559h-.95342v3.21922h1.05751c.79594,0,1.4878-.4306,1.4878-1.60352.00002-1.00349-.40407-1.61569-1.59188-1.61569ZM91.81392,295.28818c1.03124,0,1.21406-.86027,1.21406-2.64539,0-1.5511-.18282-2.64539-1.21406-2.64539-1.01813,0-1.20093,1.09429-1.20093,2.64539-.00002,1.78513.18281,2.64539,1.20093,2.64539ZM59.46032,330.12015c-.90095,0-1.17468.88648-1.17468,1.79917v.14331h2.2575v-.37818c0-.88651-.28688-1.56424-1.08281-1.56424v-.00006ZM86.59014,289.29342c0-1.1074-.66562-1.32925-1.50093-1.32925h-1.04438v2.80172h1.17469c.90095.00003,1.37064-.5991,1.37062-1.47247ZM86.89014,293.38601c0-1.00349-.59999-1.57731-1.46156-1.57731h-1.38375v3.21922h1.47562c.88689,0,1.36969-.57382,1.36969-1.6419ZM73.73187,330.12012c-.90095,0-1.17469.88648-1.17469,1.79917v.14331h2.2575v-.37818c-.00002-.88651-.28689-1.56424-1.08281-1.56424v-.00006ZM108.17328,291.48294c0-.88648-.28688-1.56421-1.08281-1.56421-.90093,0-1.17469.88648-1.17469,1.79917v.14313h2.2575v-.37809ZM100.27623,334.43363c0,.58693.28688,1.05591.87469,1.05591.84844,0,1.26563-.63841,1.26563-1.66812v-1.17292c-.36469.28644-1.14843.45588-1.56562.65152-.40499.19564-.5747.61314-.5747,1.13361ZM111.60873,330.27645c-.80906,0-1.09594.65152-1.09594,2.54149,0,1.59042.20813,2.59391,1.1878,2.59391.96562,0,1.18686-.99038,1.18686-2.48907,0-1.68122-.19501-2.64633-1.27874-2.64633h.00002ZM108.83888,286.34847l-1.38374,1.87686h-.96563l.78374-1.87686h1.56563ZM103.27761,286.8437v9.30475h-1.40904v-9.30475h1.40904ZM75.87169,295.28818c.78281.0136,1.07061-.63841,1.07061-1.69433h1.33125c-.09189,1.68122-.66562,2.73713-2.40188,2.73713-2.03626,0-2.60999-1.51179-2.60999-3.6882s.57375-3.6882,2.60999-3.6882c2.10094-.02627,2.41501,1.6419,2.41501,2.51528h-1.41c0-.65152-.18281-1.49868-1.00501-1.47247-1.01813,0-1.20093,1.09429-1.20093,2.64539s.18282,2.64539,1.20094,2.64539ZM60.7245,288.40697l-1.87969,7.74148h-1.2525l-1.87969-7.74148h-.02625v7.74148h-1.41v-9.30475h2.32311l1.64532,6.89338h.02532l1.61906-6.89338h2.27062v9.30475h-1.40902v-7.74148h-.02627ZM64.96951,292.1607l1.09594-.29955c.50906-.14313.82219-.28738.82219-.89958,0-.63841-.22125-1.04281-.96562-1.04281-.93938,0-1.06969.66463-1.06969,1.34236h-1.33221c0-1.48558.61406-2.30653,2.4675-2.30653,1.23938,0,2.23124.48209,2.23124,1.72054v4.01396c0,.26023.15657.49519.36562.49519.09188,0,.18281-.0136.23531-.0392v.91269c-.16969.07772-.41813.16937-.69188.16937-.62625,0-1.14843-.24806-1.18781-.92579h-.02625c-.37874.69084-.92625,1.0297-1.74844,1.0297-1.12313,0-1.82719-.62531-1.82719-1.96766,0-1.56421.67876-1.88997,1.63125-2.20262v-.00003l.00003-.00006v.00003ZM69.65794,289.13712h1.41v1.09429h.02533c.31313-.78164.83531-1.27683,1.63219-1.27683.15657,0,.2475.02627.33939.05233v1.43316c-.10501-.02627-.35249-.07772-.58779-.07772-.63939,0-1.40906.28644-1.40906,1.58948v4.1965h-1.41v-7.01133h-.00002v.00003s-.00003.00009-.00004.00009ZM82.55702,296.14845v-9.30475h3.01501c1.38375,0,2.50594.6122,2.50594,2.25411,0,1.13361-.44342,1.82444-1.36969,2.11182v.02539c1.01719.18254,1.67062.79568,1.67062,2.37206,0,1.5511-1.12313,2.54149-2.87156,2.54149h-2.95031s0-.00012,0-.00012ZM91.81387,288.95458c2.04938,0,2.62313,1.51179,2.62313,3.6882s-.66562,3.6882-2.62313,3.6882c-1.94437,0-2.61001-1.51179-2.61001-3.6882s.57375-3.6882,2.61001-3.6882ZM50.52966,332.50531h-1.30593v3.84453h-1.4878v-9.30472h2.95032c1.7878,0,2.57063,1.12047,2.57063,2.71089-.00003,1.66809-.97879,2.7493-2.72722,2.7493ZM55.6484,336.34984h-1.40904v-7.01133h1.40906v7.01133h-.00002ZM55.6484,328.34813h-1.40904v-1.40785h1.40906v1.40785h-.00002ZM61.95311,333.02671h-3.66749v.40439c0,.93796.11718,2.1371,1.17468,2.1371,1.005,0,1.12219-1.14671,1.12219-1.56421h1.33125c0,1.5511-.93938,2.52838-2.46657,2.52838-1.14845,0-2.57155-.33887-2.57155-3.58429,0-1.83755.39187-3.79211,2.59782-3.79211,1.9575,0,2.4797,1.17292,2.4797,3.12748v.74326h-.00004ZM66.52435,330.64158c-.10501-.02627-.35249-.07772-.58781-.07772-.63939,0-1.41.28644-1.41,1.58948v4.1965h-1.40906v-7.01133h1.40906v1.09429h.02625c.31313-.78164.83531-1.2768,1.63219-1.2768.15657,0,.2475.02627.33937.05233v1.4331h-.00002l.00003.00015h-.00001ZM70.63716,330.64158c-.10501-.02627-.35249-.07772-.58781-.07772-.63939,0-1.40906.28644-1.40906,1.58948v4.1965h-1.41v-7.01133h1.41v1.09429h.02533c.31313-.78164.83531-1.2768,1.63219-1.2768.15657,0,.2475.02627.33939.05233v1.4331h-.00003v.00015h-.00001ZM76.22467,333.02671h-3.6675v.40439c0,.93796.11718,2.1371,1.17469,2.1371,1.00501,0,1.12219-1.14671,1.12219-1.56421h1.33125c0,1.5511-.93938,2.52838-2.46658,2.52838-1.14844,0-2.57156-.33887-2.57156-3.58429,0-1.83755.39188-3.79211,2.59782-3.79211,1.9575,0,2.47967,1.17292,2.47967,3.12748,0,.00003,0,.74326.00002.74326h-.00001ZM86.3431,333.20925c0,1.68122-.67876,3.32313-2.87156,3.32313-2.3494,0-3.0797-1.51179-3.0797-4.83491s.73032-4.83488,3.09282-4.83488c2.64936,0,2.80594,1.95453,2.80594,2.9187v.16937h-1.48782v-.15627c0-.86027-.26062-1.85065-1.33125-1.81134-1.09594,0-1.59188.67773-1.59188,3.6751s.49592,3.75373,1.59188,3.75373c1.24031,0,1.38375-1.38167,1.38375-2.24194v-.15627h1.48782v.19558ZM89.63466,336.53238c-1.94437,0-2.61001-1.51179-2.61001-3.6882s.57375-3.6882,2.61001-3.6882c2.04938,0,2.62313,1.51179,2.62313,3.6882s-.66563,3.6882-2.62313,3.6882ZM94.81811,336.34984h-1.40906v-9.30472h1.40906v9.30472ZM95.52264,294.03759v-4.90044h1.40908v5.03056c0,.78164.35249,1.04281.95343,1.04281.59999,0,1.14842-.39129,1.14842-1.17292v-4.90044h1.40906v7.01133h-1.33125v-.82095h-.0384c-.35249.62531-1.01813,1.00349-1.80186,1.00349-1.04343,0-1.74843-.48209-1.74843-2.29342.00002-.00003-.00002-.00003-.00003-.00003v.00003h-.00001ZM97.71687,336.34984h-1.40908v-9.30472h1.40908v9.30472ZM104.34875,336.25907c-.16969.07772-.41813.16937-.69188.16937-.62625,0-1.14843-.24806-1.18781-.92579h-.02621c-.37874.69084-.92625,1.0297-1.74844,1.0297-1.12313,0-1.82719-.62531-1.82719-1.96766,0-1.56421.67876-1.88997,1.63125-2.20262l1.09594-.29955c.50906-.14313.82219-.28738.82219-.89958,0-.63841-.22125-1.04281-.96562-1.04281-.93938,0-1.06969.66463-1.06969,1.34236h-1.33221c0-1.48558.61406-2.30653,2.4675-2.30653,1.23938,0,2.23124.48209,2.23124,1.72054v4.01396c0,.26023.15657.49519.36562.49519.09188,0,.18282-.0136.23531-.0392v.91263ZM107.10359,288.95464c1.9575,0,2.4797,1.17292,2.4797,3.12748v.74326h-3.66749v.40439c0,.93796.11718,2.1371,1.17469,2.1371,1.00501,0,1.1222-1.14671,1.1222-1.56421h1.33126c0,1.5511-.93937,2.52838-2.46658,2.52838-1.14843,0-2.57156-.33887-2.57156-3.58429-.00002-1.83755.39183-3.79211,2.59777-3.79211ZM108.5928,330.64158c-.10501-.02627-.35249-.07764-.58781-.07764-.63939,0-1.40906.28644-1.40906,1.58948v4.1965h-1.41v-7.01133h1.41v1.09429h.02534c.31313-.78164.83531-1.27683,1.63219-1.27683.15655,0,.2475.02627.33937.05233v1.43316h-.00003v.00012-.00009ZM114.21877,336.34987h-1.33125v-.86027h-.02534c-.18281.45588-.53531,1.04281-1.54031,1.04281-1.64438,0-2.29687-1.36857-2.29687-3.779,0-3.11531,1.09594-3.5974,2.16656-3.5974.75658,0,1.33125.37818,1.59188,1.00349h.02621v-3.11438h1.40906s.00004,9.30475,0,9.30475c0-.00003.00004-.00003.00005-.00003v.00003h.00001ZM55.98083,22.05428c0-.44184.35485-.79568.79688-.79568h0c.43172,0,.7964.35384.7964.79568h0c0,.4409-.36468.79472-.7964.79472h0c-.44204.00002-.79688-.35384-.79688-.79472ZM51.25769,22.05428c0-.44184.35485-.79568.7964-.79568h0c.4322,0,.78749.35384.78749.79568h0c0,.4409-.35532.79472-.78749.79472h0c-.44156.00002-.7964-.35384-.7964-.79472ZM46.52473,22.05428c0-.44184.36468-.79568.79688-.79568h0c.44156,0,.79688.35384.79688.79568h0c0,.4409-.35532.79472-.79688.79472h0c-.4322.00002-.79688-.35384-.79688-.79472ZM41.8016,22.05428c0-.44184.35485-.79568.79688-.79568h0c.44156,0,.7964.35384.7964.79568h0c0,.4409-.35485.79472-.7964.79472h0c-.44204.00002-.79688-.35384-.79688-.79472ZM37.07846,22.05428c0-.44184.35484-.79568.7964-.79568h0c.44156,0,.79688.35384.79688.79568h0c0,.4409-.35532.79472-.79688.79472h0c-.44155.00002-.7964-.35384-.7964-.79472ZM32.35489,22.05428c0-.44184.35532-.79568.79688-.79568h0c.44156,0,.78749.35384.78749.79568h0c0,.4409-.34594.79472-.78749.79472h0c-.44158.00002-.79688-.35384-.79688-.79472ZM27.63176,22.05428c0-.44184.35531-.79568.79688-.79568h0c.4322,0,.78703.35384.78703.79568h0c0,.4409-.35483.79472-.78703.79472h0c-.44155.00002-.79688-.35384-.79688-.79472ZM22.90864,22.05428c0-.44184.35531-.79568.78703-.79568h0c.44204,0,.79688.35384.79688.79568h0c0,.4409-.35485.79472-.79688.79472h0c-.43172.00002-.78703-.35384-.78703-.79472ZM18.17568,22.05428c0-.44184.35531-.79568.79688-.79568h0c.44156,0,.79688.35384.79688.79568h0c0,.4409-.35531.79472-.79688.79472h0c-.44158.00002-.79687-.35384-.79688-.79472ZM13.45255,22.05428c0-.44184.35532-.79568.79688-.79568h0c.44156,0,.79688.35384.79688.79568h0c0,.4409-.35532.79472-.79688.79472h0c-.44156.00002-.79688-.35384-.79688-.79472ZM8.72943,22.05428c0-.44184.35532-.79568.79688-.79568h0c.44156,0,.79688.35384.79688.79568h0c0,.4409-.35532.79472-.79688.79472h0c-.44156.00002-.7969-.35384-.79688-.79472Z" fill="#e5e5e5"/>
      </g>
      <g id="uuid-74435d6c-e30e-470e-89a6-c7d6536ecbed">
        <path id="uuid-2ae07f11-7be6-4d29-8188-827497eb4b05" d="M156.00317,22.84903c-.10547,0-.21141-.02809-.30751-.06646-.09561-.03838-.18234-.09642-.2592-.17317-.07642-.06648-.13406-.16288-.17251-.249-.03839-.10486-.0577-.20126-.0577-.30611,0-.10578.0192-.21156.0577-.30703.03839-.09642.09614-.18253.17251-.2593.29764-.29675.83531-.29675,1.12361,0,.07642.07677.13406.16288.17251.2593.03839.09548.0577.20126.0577.30703,0,.10486-.0192.20126-.0577.30611-.03839.08613-.09614.18253-.17251.249-.14442.1535-.34597.23963-.55689.23963Z" fill="#e5e5e5"/>
      </g>
    </g>
  </g>
  <g>
    <path d="M49.13428,209.06952h1.51172l1.22559,5.52539h.02539l1.10742-5.52539h1.49902l-1.85059,7.01074h-1.6416l-1.87695-7.01074Z" fill="#e5e5e5"/>
    <path d="M56.48193,212.75702v.4043c0,.93848.11719,2.13672,1.17285,2.13672,1.00293,0,1.12012-1.14648,1.12012-1.56348h1.3291c0,1.55078-.9375,2.52832-2.46289,2.52832-1.14648,0-2.56641-.33887-2.56641-3.58398,0-1.83691.39062-3.79199,2.59277-3.79199,1.95508,0,2.47559,1.17285,2.47559,3.12793v.74219h-3.66113ZM58.73584,211.79315v-.37793c0-.88574-.28613-1.56348-1.08105-1.56348-.89941,0-1.17285.88574-1.17285,1.79785v.14355h2.25391Z" fill="#e5e5e5"/>
    <path d="M61.30029,209.06952h1.40723v1.09473h.02637c.3125-.78223.83398-1.27734,1.62891-1.27734.15625,0,.24707.02637.33887.05273v1.43262c-.10449-.02539-.35254-.07812-.58691-.07812-.63867,0-1.40723.28711-1.40723,1.58984v4.19629h-1.40723v-7.01074Z" fill="#e5e5e5"/>
    <path d="M68.42725,211.11542v-.18262c0-.56055-.19629-1.08105-.92578-1.08105-.56055,0-1.00293.26074-1.00293.91211,0,.54688.24707.76855.99023,1.0293l.89941.3125c1.04199.35156,1.52441.91211,1.52441,2.01953,0,1.49902-1.09473,2.1377-2.51562,2.1377-1.77148,0-2.30566-.82129-2.30566-2.17676v-.25977h1.25098v.2207c0,.80859.28613,1.25098,1.09375,1.25098.76953,0,1.14746-.39062,1.14746-1.0293,0-.52148-.27344-.85938-.76953-1.0293l-1.14648-.4043c-1.05566-.36426-1.49805-.89844-1.49805-2.01953,0-1.31641.95117-1.92871,2.39746-1.92871,1.78516,0,2.18945,1.04297,2.18945,1.91602v.3125h-1.3291Z" fill="#e5e5e5"/>
    <path d="M71.01807,206.67206h1.40723v1.40723h-1.40723v-1.40723ZM71.01807,209.06952h1.40723v7.01074h-1.40723v-7.01074Z" fill="#e5e5e5"/>
    <path d="M76.17529,208.8869c2.0459,0,2.62012,1.51172,2.62012,3.68848,0,2.17578-.66504,3.6875-2.62012,3.6875-1.94141,0-2.60547-1.51172-2.60547-3.6875,0-2.17676.57324-3.68848,2.60547-3.68848ZM76.17529,215.21991c1.03027,0,1.21191-.85938,1.21191-2.64453,0-1.55078-.18164-2.64551-1.21191-2.64551-1.01562,0-1.19824,1.09473-1.19824,2.64551,0,1.78516.18262,2.64453,1.19824,2.64453Z" fill="#e5e5e5"/>
    <path d="M79.87451,209.06952h1.32861v.82129h.03906c.35156-.62598,1.0166-1.00391,1.79785-1.00391,1.06934,0,1.74609.48242,1.74609,1.90234v5.29102h-1.40723v-4.80859c0-.91211-.27344-1.26367-.97656-1.26367-.57422,0-1.12109.45605-1.12109,1.36816v4.7041h-1.40674v-7.01074Z" fill="#e5e5e5"/>
    <path d="M94.41211,216.08026h-5.39551c0-4.01367,3.87012-3.92188,3.87012-6.78906,0-.75586-.3252-1.39453-1.14648-1.39453-1.10742,0-1.29004.99023-1.29004,1.92871h-1.40723c0-1.83691.75586-2.9707,2.72363-2.9707,1.88965,0,2.60645,1.12012,2.60645,2.46289,0,3.06152-2.99707,3.25781-3.70117,5.51172h3.74023v1.25098Z" fill="#e5e5e5"/>
    <path d="M95.66016,214.36053h1.48535v1.71973h-1.48535v-1.71973Z" fill="#e5e5e5"/>
    <path d="M98.23828,212.73163l3.19238-5.87695h1.51172v5.96777h1.00391v1.18555h-1.00391v2.07227h-1.40723v-2.07227h-3.29688v-1.27637ZM101.53516,209.01776h-.02539l-2.07227,3.80469h2.09766v-3.80469Z" fill="#e5e5e5"/>
  </g>
</svg>