<?xml version="1.0" encoding="UTF-8" standalone="no"?>
<!-- Generator: Adobe Illustrator 25.2.3, SVG Export Plug-In . SVG Version: 6.00 Build 0)  -->

<svg
   xmlns:dc="http://purl.org/dc/elements/1.1/"
   xmlns:cc="http://creativecommons.org/ns#"
   xmlns:rdf="http://www.w3.org/1999/02/22-rdf-syntax-ns#"
   xmlns:svg="http://www.w3.org/2000/svg"
   xmlns="http://www.w3.org/2000/svg"
   xmlns:sodipodi="http://sodipodi.sourceforge.net/DTD/sodipodi-0.dtd"
   xmlns:inkscape="http://www.inkscape.org/namespaces/inkscape"
   version="1.0"
   id="Layer_1"
   inkscape:version="0.92.3 (2405546, 2018-03-11)"
   sodipodi:docname="BlankInfo-DM.svg"
   x="0px"
   y="0px"
   width="165"
   height="380"
   viewBox="0 0 165 380"
   enable-background="new 0 0 158.40001 364.25195"
   xml:space="preserve"><metadata
   id="metadata146"><rdf:RDF><cc:Work
       rdf:about=""><dc:format>image/svg+xml</dc:format><dc:type
         rdf:resource="http://purl.org/dc/dcmitype/StillImage" /><dc:title></dc:title></cc:Work></rdf:RDF></metadata><defs
   id="defs144" />
<sodipodi:namedview
   bordercolor="#666666"
   borderopacity="1"
   fit-margin-bottom="0"
   fit-margin-left="0"
   fit-margin-right="0"
   fit-margin-top="0"
   gridtolerance="10"
   guidetolerance="10"
   id="namedview120"
   inkscape:current-layer="Layer_1"
   inkscape:cx="-307.39095"
   inkscape:cy="206.56329"
   inkscape:document-units="mm"
   inkscape:pageopacity="0"
   inkscape:pageshadow="2"
   inkscape:window-height="1017"
   inkscape:window-maximized="1"
   inkscape:window-width="1920"
   inkscape:window-x="-8"
   inkscape:window-y="-8"
   inkscape:zoom="1.2421053"
   objecttolerance="10"
   pagecolor="#ffffff"
   showgrid="false"
   units="mm">
	</sodipodi:namedview>
<g
   id="bg"
   transform="matrix(1.7777782,0,0,1.7777782,1.7777782e-4,-0.22149339)">
	
		<linearGradient
   id="rect11_1_"
   gradientUnits="userSpaceOnUse"
   x1="-35.334801"
   y1="-213.71812"
   x2="226.39961"
   y2="-475.45258"
   gradientTransform="matrix(1.22879,0,0,-1.22879,17.1289,-228.67079)">
		<stop
   offset="0.38537"
   style="stop-color:#FFCC9E"
   id="stop3" />
		<stop
   offset="0.62112"
   style="stop-color:#F1AD8C"
   id="stop5" />
		<stop
   offset="0.85662"
   style="stop-color:#E6947E"
   id="stop7" />
		<stop
   offset="1"
   style="stop-color:#E28B79"
   id="stop9" />
	</linearGradient>
	<rect
   id="rect11"
   x="4.2093"
   y="3.4440401"
   width="86.22686"
   height="208.2243"
   style="fill:url(#rect11_1_)" />
	<g
   id="g19">
		<path
   id="path13"
   inkscape:connector-curvature="0"
   d="m 38.298,105.23898 h -0.73577 v 3.62918 H 38.298 c 1.03965,0 1.88323,-0.82397 1.88323,-1.8147 -10e-6,-0.99054 -0.84358,-1.81448 -1.88323,-1.81448 z"
   style="fill:#252626" />
		<path
   id="path15"
   inkscape:connector-curvature="0"
   d="m 30.14803,107.01419 c 0,-1.0691 -0.85326,-1.9616 -1.92237,-1.9616 -1.06911,0 -1.93235,0.8925 -1.93235,1.9616 0,1.05946 0.86325,1.93236 1.93235,1.93236 1.0691,-2e-5 1.92237,-0.8729 1.92237,-1.93236 z"
   style="fill:#252626" />
		<path
   id="path17"
   inkscape:connector-curvature="0"
   d="M -1e-4,0.12459 V 213.87454 H 92.81238 V 0.1246 c 10e-6,0 -92.81248,0 -92.81248,-10e-6 z m 64.41524,103.43703 h 1.70682 v 6.98376 h -1.70682 z m -9.75848,5.77735 1.1182,-1.28495 c 0.61791,0.53939 0.98091,0.74542 1.41243,0.82397 0.12748,0.0293 0.25496,0.049 0.37278,0.049 0.19607,0 0.37264,-0.0391 0.50994,-0.10784 0.11782,-0.0589 0.32368,-0.18639 0.32368,-0.45119 0,-0.27459 -0.51007,-0.44134 -0.95145,-0.52971 -0.19604,-0.0391 -1.15731,-0.24513 -1.54973,-0.48062 -0.66701,-0.39228 -1.01019,-0.99055 -1.01019,-1.73615 0,-0.41189 0.13729,-0.80431 0.36282,-1.13767 0.22566,-0.31387 0.53954,-0.55917 0.90249,-0.72592 l -0.0098,0.01 c 0.37265,-0.17657 0.79452,-0.26481 1.19659,-0.26481 0.16676,0 0.32368,0.01 0.51993,0.0392 0.62774,0.10784 1.20639,0.36282 2.0107,1.02983 l -1.07893,1.29478 c -0.72593,-0.59827 -1.09856,-0.68665 -1.47134,-0.68665 -0.18639,0 -0.3335,0.0392 -0.45116,0.0982 -0.18639,0.0784 -0.28441,0.21568 -0.28441,0.34315 0,0.26495 0.35315,0.39242 0.92196,0.51011 0.05891,0.0196 0.12751,0.0196 0.19621,0.0392 0.38246,0.0882 0.95145,0.20606 1.32409,0.42174 h -0.0098 c 0.70628,0.39242 1.07893,1.01037 1.07893,1.77539 0,0.45119 -0.11769,0.8729 -0.37264,1.22604 -0.22566,0.32372 -0.55917,0.55903 -0.93181,0.74542 -0.39241,0.20602 -0.79448,0.26494 -1.23586,0.26494 -0.23549,0 -0.49044,-0.0295 -0.70628,-0.0786 -0.70615,-0.14713 -1.35352,-0.47081 -2.18731,-1.18678 h 3e-5 z M 38.298,110.54538 h -2.42279 v -6.98376 H 38.298 c 1.97143,0 3.57028,1.56936 3.57028,3.49185 -10e-6,1.92254 -1.59886,3.49191 -3.57028,3.49191 z m 7.64953,0 v -6.98376 h 4.75718 v 1.66755 h -3.05035 v 0.59827 h 2.66776 v 1.69686 h -2.66776 v 1.33405 h 2.98166 v 1.68702 c -1e-5,10e-6 -4.68849,10e-6 -4.68849,10e-6 z M 34.40986,34.4549 c 0,-2.78245 2.25563,-5.03809 5.03809,-5.03809 h 16.54818 c 2.78246,0 5.03809,2.25562 5.03809,5.03809 v 47.87098 c 0,2.78246 -2.25563,5.03809 -5.03809,5.03809 H 39.44796 c -2.78246,0 -5.03809,-2.25563 -5.03809,-5.03809 0,2e-5 0,-47.87098 -10e-6,-47.87098 z m 19.71292,33.95883 c -0.17894,0.41264 -0.41631,0.75327 -0.7121,1.0215 -0.29615,0.26823 -0.63274,0.46738 -1.01121,0.59858 -0.37882,0.13081 -0.77421,0.19585 -1.18684,0.19585 -0.70182,0 -1.24858,-0.10288 -1.64063,-0.3094 -0.39207,-0.2065 -0.69853,-0.44717 -0.91825,-0.7224 -0.23443,-0.30276 -0.38213,-0.63972 -0.44386,-1.0112 -0.0621,-0.37149 -0.09297,-0.74297 -0.09297,-1.11446 0,-0.52324 0.01066,-0.88407 0.03088,-1.0836 0.02095,-0.1999 0.04446,-0.31306 0.07237,-0.34063 0.05476,-0.0415 0.28183,-0.06174 0.68088,-0.06174 h 4.82969 c 0.13743,0 0.25096,0.0103 0.34062,0.03089 0.08892,0.02058 0.158,0.07533 0.20614,0.16498 0.04813,0.08929 0.079,0.2234 0.09295,0.40234 0.0136,0.17894 0.02095,0.42661 0.02095,0.74297 -10e-6,0.578 -0.09003,1.07368 -0.26861,1.48632 M 45.78546,48.33327 c 0.01838,-0.12971 0.07423,-0.23222 0.16756,-0.30682 0.09295,-0.07422 0.24141,-0.12088 0.44645,-0.13963 0.20466,-0.01837 0.4931,-0.02792 0.86533,-0.02792 1.45141,0 2.5633,0.40456 3.33567,1.21404 0.77201,0.80948 1.15855,1.89382 1.15855,3.25225 0,0.12861 -0.02682,0.40602 -0.04372,0.59636 -0.10693,-0.0015 -0.21386,-0.0029 -0.32077,-0.0051 -0.29285,-0.0062 -0.61106,-0.02242 -0.95461,-0.04777 -0.07644,0.03822 -0.11758,0.11134 -0.1242,0.21936 -0.0062,0.10839 0.02205,0.19437 0.08636,0.25795 l 0.34319,0.03821 c 0.22929,0.02535 0.41999,0.06687 0.57284,0.12383 0.15286,0.05732 0.22929,0.11794 0.22929,0.18151 0,0.06357 -0.03821,0.18152 -0.11464,0.35312 -0.07644,0.17197 -0.17822,0.37882 -0.30534,0.62025 -0.12751,0.24215 -0.26456,0.50009 -0.41043,0.77346 -0.14662,0.27375 -0.28367,0.53169 -0.4108,0.77311 -0.29285,0.56036 -0.59158,1.11042 -0.8973,1.6513 -0.30536,0.54124 -0.60445,1.06632 -0.89693,1.57524 -0.36966,-0.66177 -0.73233,-1.3555 -1.08838,-2.08084 -0.35643,-0.72571 -0.71284,-1.44443 -1.06927,-2.15763 -0.02573,-0.0507 -0.06981,-0.14588 -0.13339,-0.28624 -0.06393,-0.13962 -0.1308,-0.28918 -0.20062,-0.44865 -0.07018,-0.15911 -0.1308,-0.30828 -0.18151,-0.44865 -0.05108,-0.14 -0.07607,-0.23554 -0.07607,-0.28624 0,-0.07644 0.05034,-0.13669 0.15248,-0.18152 0.10178,-0.04446 0.31822,-0.09846 0.64928,-0.16204 L 46.8125,53.346 c 0.06356,-0.06356 0.09224,-0.15286 0.08599,-0.2675 -0.0066,-0.11427 -0.05438,-0.18446 -0.14293,-0.20981 -0.27117,0.02131 -0.60371,0.03674 -0.99799,0.04593 V 48.8639 c -1e-5,-0.22342 0.0092,-0.40017 0.02791,-0.53061 m 1.58072,14.291 c 0,0.50927 -0.0066,0.91641 -0.01911,1.22175 -0.01286,0.30535 -0.0573,0.54419 -0.13374,0.71579 -0.02719,0.06173 -0.05953,0.11611 -0.09664,0.16351 -7.3e-4,3.7e-4 -0.0019,0.0011 -0.0026,0.0016 -0.2223,-0.04263 -0.4097,-0.09185 -0.56107,-0.14807 -0.25134,-0.09296 -0.43248,-0.26052 -0.54419,-0.5023 -0.1117,-0.24176 -0.18152,-0.5813 -0.20944,-1.01892 -0.02793,-0.4369 -0.0419,-1.01892 -0.0419,-1.74426 v -3.97465 l 0.99799,1.94452 c 0.13964,0.2675 0.25096,0.49348 0.33401,0.67794 0.08267,0.18483 0.14293,0.35642 0.18115,0.51552 0.03821,0.15947 0.06356,0.32776 0.07642,0.50598 0.01249,0.17821 0.01911,0.40088 0.01911,0.66802 -1e-5,0 -1e-5,0.97372 -1e-5,0.97372 z m 7.87912,2.36083 c 0.08267,-0.22929 0.16498,-0.47401 0.24803,-0.73489 0.08267,-0.26089 0.1591,-0.51553 0.22929,-0.76392 0.06981,-0.24803 0.12384,-0.45489 0.16241,-0.62061 -0.03859,-0.08856 -0.11171,-0.14588 -0.21975,-0.1716 -0.10839,-0.02537 -0.194,-0.01289 -0.25794,0.03819 -0.25464,0.49605 -0.49936,0.90355 -0.73489,1.22175 -0.23553,0.31857 -0.4424,0.52839 -0.62024,0.63017 -0.10215,0.05107 -0.21973,0.09517 -0.35349,0.13338 -0.13339,0.03819 -0.29285,0.06687 -0.47732,0.08598 -0.18445,0.01912 -0.40714,0.03527 -0.66801,0.04775 -0.26089,0.01289 -0.57615,0.01912 -0.94507,0.01912 -0.41999,0 -0.76685,-0.01248 -1.0406,-0.03819 -0.27375,-0.02538 -0.49312,-0.05733 -0.65845,-0.09518 -0.16572,-0.03859 -0.29616,-0.08305 -0.39133,-0.13374 -0.09554,-0.05069 -0.16903,-0.10803 -0.21973,-0.17197 -0.15285,-0.16535 -0.25134,-0.41044 -0.2958,-0.73489 -0.04482,-0.32482 -0.06688,-0.7415 -0.06688,-1.25077 v -1.25996 c 0.0029,-0.17453 0.0081,-0.32886 0.01545,-0.46115 0.01249,-0.23516 0.04739,-0.45489 0.10472,-0.65845 0.05732,-0.20357 0.14623,-0.42035 0.2675,-0.64928 0.02867,-0.05473 0.06099,-0.1139 0.09517,-0.176 0.04593,-0.0016 0.09369,-0.0022 0.14698,-0.0022 h 1.10748 c 0.36892,0 0.67133,0.0062 0.90685,0.01912 0.23516,0.01249 0.42292,0.03786 0.56329,0.07607 0.19071,0.05107 0.3274,0.14036 0.41043,0.2675 0.08268,0.12713 0.14294,0.27998 0.18153,0.45821 l 0.17159,0.74443 c 0.05071,0.06394 0.1367,0.09224 0.25759,0.08599 0.12088,-0.0062 0.20061,-0.04117 0.23884,-0.10509 0,-0.21643 -0.01287,-0.48981 -0.03822,-0.82087 -0.02573,-0.33107 -0.03822,-0.66837 -0.03822,-1.01194 0,-0.36892 0.01249,-0.72533 0.03822,-1.0689 0.02535,-0.34392 0.03822,-0.63017 0.03822,-0.85946 -0.03822,-0.06319 -0.11796,-0.09846 -0.23884,-0.10508 -0.12089,-0.0059 -0.20688,0.02245 -0.25759,0.08598 l -0.15249,0.78302 c -0.05106,0.24177 -0.1117,0.40419 -0.18151,0.48686 -0.07019,0.08268 -0.1624,0.14293 -0.27668,0.18114 -0.11465,0.0382 -0.31233,0.06688 -0.59195,0.08598 -0.28036,0.01912 -0.62393,0.02869 -1.03105,0.02869 h -0.86275 c 0.0066,-0.01064 0.01249,-0.02059 0.01911,-0.03161 l 1.20265,-2.08084 c 0.24141,-0.40749 0.46115,-0.78596 0.65883,-1.13614 0.19695,-0.34981 0.39133,-0.65883 0.58202,-0.92596 0.19109,-0.26713 0.38802,-0.48355 0.59197,-0.6489 0.04226,-0.03418 0.08561,-0.06504 0.13007,-0.09407 0.12934,0.05145 0.24325,0.11208 0.34135,0.18299 0.15911,0.11428 0.28917,0.24803 0.39132,0.40088 0.10178,0.15249 0.18446,0.32446 0.24839,0.51515 0.0632,0.19108 0.13339,0.40125 0.20981,0.63018 0.05071,0.06394 0.13375,0.08929 0.24839,0.07644 0.11427,-0.01249 0.19069,-0.05071 0.2289,-0.11465 -0.02571,-0.20355 -0.04777,-0.43578 -0.0665,-0.69667 -0.01947,-0.26088 -0.04189,-0.51552 -0.06724,-0.76355 -0.02536,-0.24839 -0.05879,-0.46996 -0.08562,-0.66837 -0.0665,-0.49091 -0.05145,-0.91016 -0.05145,-0.91016 0,-0.96711 -0.27447,-1.81261 -0.69336,-2.5203 -0.41852,-0.70697 -0.95389,-1.26511 -1.605,-1.67444 -0.65147,-0.40934 -1.41429,-0.69778 -2.2888,-0.86533 -0.87489,-0.16755 -1.89823,-0.25134 -3.07037,-0.25134 -1.17252,0 -2.20099,0.01396 -3.08432,0.04189 -0.88408,0.02792 -1.69833,0.08855 -2.44277,0.18153 -0.11134,0.05585 -0.17198,0.16315 -0.18116,0.32077 -0.0096,0.15838 0.03197,0.28403 0.12567,0.377 l 1.00459,0.11171 c 0.31637,0.03748 0.56255,0.09774 0.74002,0.18151 0.17638,0.08341 0.30682,0.237 0.39059,0.46041 0.08377,0.2234 0.13486,0.52103 0.15359,0.89326 0.01837,0.37222 0.02792,0.85615 0.02792,1.4514 v 10.3002 c 0,0.72533 -0.0096,1.30737 -0.02792,1.74426 -0.01873,0.43763 -0.08377,0.77715 -0.19549,1.01892 -0.11169,0.24178 -0.27925,0.40933 -0.50229,0.5023 -0.22341,0.09334 -0.54014,0.16755 -0.9491,0.2234 l -0.58644,0.08378 c -0.08488,0.08487 -0.12273,0.20099 -0.11464,0.34724 -7.2e-4,0.29873 -0.004,0.39354 -0.01028,0.73011 -0.0066,0.38544 -0.02426,0.81609 -0.05255,1.29266 0.02829,0.07019 0.10841,0.11208 0.24177,0.1264 0.13301,0.01362 0.22781,-0.01434 0.28404,-0.08414 l 0.06282,-0.44167 c 0.04227,-0.30829 0.09811,-0.54639 0.16829,-0.71432 0.07019,-0.1683 0.19622,-0.29433 0.37848,-0.37847 0.18188,-0.08414 0.43763,-0.13375 0.76723,-0.14771 0.32922,-0.01361 0.76722,-0.02059 1.31398,-0.02059 h 2.64854 c 0.11206,0 0.19989,0.007 0.26308,0.02059 0.06283,0.01395 0.1084,0.05293 0.13633,0.11612 0.02792,0.06283 0.04556,0.16093 0.05291,0.29395 0.0066,0.13338 0.0103,0.31857 0.0103,0.55704 0,0.42072 -0.05254,0.73599 -0.15763,0.94617 -0.10508,0.21018 -0.27668,0.39243 -0.51516,0.54676 -0.23847,0.16829 -0.50119,0.3432 -0.78816,0.52544 -0.2877,0.18188 -0.57505,0.36414 -0.86203,0.54639 -0.28733,0.18226 -0.56403,0.35753 -0.83043,0.52582 -0.2664,0.16792 -0.49752,0.32224 -0.69373,0.46225 -0.5328,0.37847 -0.97079,0.73232 -1.31398,1.06192 -0.34319,0.32923 -0.6129,0.66213 -0.80912,0.99834 -0.19658,0.33621 -0.33291,0.69006 -0.41007,1.06156 -0.07679,0.37148 -0.11538,0.78118 -0.11538,1.22983 0,0.40639 0.0349,0.71505 0.10472,0.92487 0.04226,0.05617 0.0948,0.08083 0.158,0.07388 0.06283,-0.0075 0.1084,-0.03893 0.13669,-0.0948 0.02755,-0.28038 0.09443,-0.54639 0.19952,-0.79846 0.10508,-0.25243 0.23442,-0.46996 0.38912,-0.65185 0.29432,-0.36451 0.62686,-0.7077 0.99835,-1.03031 0.37111,-0.32224 0.78119,-0.65148 1.22983,-0.98807 0.44828,-0.33621 0.95279,-0.68307 1.51352,-1.04024 0.56035,-0.35752 1.17728,-0.74664 1.85009,-1.167 0.08413,-0.05619 0.17122,-0.10178 0.26272,-0.13669 0.09075,-0.03526 0.17159,-0.02464 0.24177,0.03162 0.09774,0.26604 0.24508,0.55006 0.4413,0.85136 0.19621,0.3013 0.438,0.58534 0.72533,0.85174 0.28735,0.26603 0.62356,0.4865 1.009,0.66213 0.38545,0.1749 0.83043,0.26273 1.33492,0.26273 0.74297,0 1.35257,-0.16498 1.82915,-0.49422 0.47621,-0.32923 0.84769,-0.74628 1.11408,-1.25079 0.26604,-0.49054 0.438,-1.03362 0.51516,-1.62888 0.07679,-0.596 0.11831,-1.22324 0.11537,-1.88206 -0.0052,-1.22066 0.21456,-1.99744 0.21456,-1.99743 m -43.59417,44.04981 -0.07837,0.11765 c -0.70632,0.94164 -1.8147,1.50063 -2.95237,1.50063 -2.01088,0 -3.64883,-1.63792 -3.64883,-3.65849 0,-2.01087 1.63796,-3.64883 3.64883,-3.64883 0.98074,0 1.90273,0.38246 2.58941,1.07893 l 0.32369,0.3335 -1.21622,1.05929 -0.28444,-0.27459 c -0.3826,-0.37278 -0.88286,-0.57867 -1.41243,-0.57867 -1.11821,0 -2.03038,0.91217 -2.03038,2.03037 0,1.12785 0.91217,2.0402 2.03038,2.0402 0.53939,0 1.02983,-0.20603 1.41243,-0.57881 v -0.8631 H 8.22793 v -1.61849 h 3.42317 c 0,-2e-5 0,3.06038 10e-6,3.06038 z m 9.26799,-3.80577 h -3.05053 v 0.59827 h 2.6681 v 1.69688 h -2.6681 v 1.33405 h 2.98196 v 1.68702 H 16.1619 v -6.98376 h 4.75718 z m 3.67736,1.78505 c 0,-2.0107 1.62827,-3.63884 3.62919,-3.63884 1.99106,0 3.63902,1.62814 3.63902,3.63884 0,1.99127 -1.64795,3.61938 -3.63902,3.61938 -2.00091,-1e-5 -3.62919,-1.62811 -3.62919,-3.61938 z m 26.95972,79.89879 c 0,0.65039 0.50483,1.086 1.10907,1.086 0.44331,0 0.93274,-0.26752 1.14697,-0.68829 l -1.27716,-1.78912 c -0.77233,0.53501 -0.97887,0.96348 -0.97888,1.39141 z m -9.36474,-2.36261 c -0.56579,0 -0.84869,0.36694 -0.86407,1.37604 h 1.7287 c -0.01538,-1.0091 -0.29828,-1.37604 -0.86463,-1.37604 z m 3.38928,0 c -0.25982,0 -0.48944,0.13733 -0.64215,0.35925 -0.19886,0.2829 -0.26038,0.6806 -0.26038,1.38428 0,1.49854 0.42078,1.73584 0.88715,1.73584 0.45868,0 0.88715,-0.2373 0.88715,-1.73584 0,-1.47601 -0.42847,-1.74353 -0.87177,-1.74353 z M 35.27913,160.95944 c -0.45868,0 -0.88715,0.23676 -0.88715,1.73584 0,1.50623 0.42847,1.74352 0.88715,1.74352 0.46637,0 0.88715,-0.23729 0.88715,-1.74352 -1e-5,-1.49908 -0.42079,-1.73584 -0.88715,-1.73584 z m 18.10518,22.89495 c 0,-0.35211 -0.26807,-0.61194 -0.61963,-0.61194 -0.35925,0 -0.62731,0.25983 -0.62731,0.61194 0,0.29059 0.20654,0.69598 0.51251,1.10852 0.60424,-0.45868 0.73443,-0.81025 0.73443,-1.10852 z M 38.65302,160.95943 c -0.5658,0 -0.84869,0.36694 -0.86407,1.37604 h 1.7287 c -0.01539,-1.00912 -0.29829,-1.37604 -0.86463,-1.37604 z m -6.23117,23.59094 c -0.51196,0 -0.90967,0.4433 -0.90967,1.73584 0,1.29968 0.3977,1.74353 0.90967,1.74353 0.51251,0 0.91022,-0.44385 0.91022,-1.74353 0,-1.29254 -0.39771,-1.73584 -0.91022,-1.73584 z m 19.39773,-23.59094 c -0.56579,0 -0.84869,0.36694 -0.86407,1.37604 h 1.7287 c -0.01539,-1.00912 -0.29828,-1.37604 -0.86463,-1.37604 z m 8.09418,1.74353 -0.38233,0.0994 c -0.45922,0.12195 -0.69598,0.35925 -0.69598,0.841 0,0.47406 0.24445,0.79539 0.64215,0.79539 0.55811,0 0.94043,-0.42076 0.94043,-1.14696 v -0.85693 h -0.01485 c -0.04612,0.13788 -0.30597,0.22192 -0.48944,0.26807 z m 6.06664,-1.74353 c -0.56579,0 -0.84869,0.36694 -0.86407,1.37604 h 1.7287 c -0.01536,-1.00912 -0.29828,-1.37604 -0.86463,-1.37604 z m -23.20366,2.36261 c 0,0.65039 0.50483,1.08598 1.10907,1.08598 0.4433,0 0.93274,-0.2675 1.14698,-0.68828 l -1.27716,-1.78912 c -0.77234,0.53505 -0.97889,0.96351 -0.97889,1.39142 z m 1.82812,-3.0586 c 0,-0.35211 -0.26807,-0.61194 -0.61963,-0.61194 -0.35925,0 -0.62731,0.25983 -0.62731,0.61194 0,0.29059 0.20654,0.69598 0.51251,1.10852 0.60424,-0.45869 0.73443,-0.81025 0.73443,-1.10852 z m 11.88116,0.69599 c -0.56579,0 -0.84869,0.36694 -0.86407,1.37604 h 1.7287 c -0.01536,-1.00912 -0.29828,-1.37604 -0.86463,-1.37604 z m -23.57885,1.73584 c 0,-1.29254 -0.3977,-1.73584 -0.91022,-1.73584 -0.51196,0 -0.90967,0.4433 -0.90967,1.73584 0,1.29968 0.3977,1.74352 0.90967,1.74352 0.51251,-1e-5 0.91022,-0.44384 0.91022,-1.74352 z m 28.70563,0.73388 h 0.45868 v 0.10712 c 0,0.59656 0.25982,0.90251 0.78003,0.90251 0.48944,0 0.80309,-0.27519 0.80309,-0.72673 0,-0.35925 -0.14557,-0.58887 -0.55096,-0.74927 l -0.64215,-0.25214 c -0.57349,-0.22192 -0.78003,-0.55865 -0.78003,-0.96405 0,-0.83331 0.5202,-1.17004 1.2085,-1.17004 0.76466,0 1.11621,0.39001 1.11621,1.13214 v 0.11481 H 63.5475 v -0.11481 c 0,-0.52789 -0.245,-0.74927 -0.66522,-0.74927 -0.53558,0 -0.74213,0.2829 -0.74213,0.68774 0,0.28345 0.09174,0.50482 0.55096,0.68115 l 0.66522,0.25214 c 0.55042,0.20654 0.75695,0.58887 0.75695,1.03217 0,0.69597 -0.3977,1.20848 -1.25409,1.20848 -0.83386,0 -1.24641,-0.34387 -1.24641,-1.26176 0,2e-5 0,-0.13017 10e-6,-0.13017 v -2e-5 z m -1.1717,0.84156 v -0.13788 h -0.01536 c -0.18347,0.53557 -0.59656,0.68828 -1.04754,0.68828 -0.71136,0 -1.03217,-0.4433 -1.03217,-1.14696 0,-0.53558 0.24445,-0.9635 0.81793,-1.12445 l 0.86407,-0.24445 c 0.32135,-0.0917 0.39001,-0.16864 0.39001,-0.6427 0,-0.51965 -0.29059,-0.70312 -0.70312,-0.70312 -0.54328,0 -0.78003,0.32849 -0.78003,0.91736 h -0.45922 c 0,-0.83331 0.39771,-1.30023 1.25464,-1.30023 0.841,0 1.14697,0.43616 1.14697,1.07831 v 2.40161 c 0,0.2296 0.07635,0.33617 0.23675,0.33617 h 0.1302 v 0.33673 c -0.08404,0.0308 -0.15271,0.0461 -0.21423,0.0461 -0.35926,0 -0.58887,-0.0846 -0.58887,-0.50482 z M 48.72556,187.9836 c 0.09173,0 0.18347,-0.0149 0.2829,-0.0456 v 0.38232 c -0.05383,0.0307 -0.16864,0.0461 -0.32135,0.0461 -0.61963,0 -0.85639,-0.16864 -0.85639,-0.71136 v -3.013 h -0.55865 v -0.38287 h 0.55865 v -1.1239 h 0.45869 v 1.1239 h 0.71906 v 0.38287 h -0.71906 v 2.91357 c 0,0.32135 0.13788,0.42792 0.43616,0.42792 z m -2.97373,-23.25423 -0.48176,-0.66521 c -0.30597,0.45866 -0.78003,0.75694 -1.45295,0.75694 -0.94097,0 -1.52984,-0.64214 -1.52984,-1.44524 0,-0.57349 0.29059,-1.02502 0.78772,-1.40735 l 0.45153,-0.34387 c -0.39001,-0.51251 -0.62731,-0.91791 -0.62731,-1.34637 0,-0.65753 0.51251,-1.00909 1.11676,-1.00909 0.63446,0 1.04754,0.4054 1.04754,1.00909 0,0.44385 -0.18347,0.85693 -0.9635,1.40735 l 1.17773,1.65179 c 0.13733,-0.33618 0.19116,-0.69598 0.19886,-1.03217 h 0.45868 c 0,0.47406 -0.13788,0.97888 -0.38233,1.41449 l 0.71906,1.00963 c 2e-5,2e-5 -0.52017,2e-5 -0.52018,2e-5 z m -15.15398,-2.0341 c 0,-1.40735 0.50427,-2.11871 1.3991,-2.11871 0.89483,0 1.39966,0.71136 1.39966,2.11871 0,1.41449 -0.50483,2.12584 -1.39966,2.12584 -0.89483,0 -1.3991,-0.71135 -1.3991,-2.12584 z m 5.61456,2.0341 v -0.6729 h -0.01538 c -0.1225,0.46635 -0.51251,0.76463 -0.99426,0.76463 -0.89484,0 -1.30023,-0.71904 -1.30023,-2.12584 0,-1.39966 0.40539,-2.11871 1.30023,-2.11871 0.50483,0 0.84869,0.27576 0.94812,0.70367 h 0.01538 v -2.01105 h 0.45868 v 5.46019 h -0.41254 z m 2.44061,-0.29059 c 0.48175,0 0.78003,-0.34441 0.85694,-1.05522 h 0.45868 c -0.06866,0.86407 -0.54327,1.43755 -1.30793,1.43755 -0.85639,0 -1.36121,-0.59654 -1.36121,-2.12584 0,-1.40735 0.50483,-2.11871 1.39966,-2.11871 0.90253,0 1.30793,0.61963 1.30793,1.97314 v 0.16864 h -2.21814 v 0.19116 c 0,1.17004 0.41309,1.52931 0.86407,1.52931 z m 10.32879,-3.13548 c 0.17579,-0.45099 0.55042,-0.72675 1.02448,-0.72675 0.05383,0 0.10712,0.008 0.16095,0.023 v 0.45868 c -0.0769,-0.0148 -0.15326,-0.0225 -0.22192,-0.0225 -0.50483,0 -0.97887,0.36694 -0.97887,1.15466 v 2.53893 h -0.45922 v -4.06108 h 0.45922 v 0.63501 z m 1.48426,1.39197 c 0,-1.40735 0.50483,-2.11871 1.39966,-2.11871 0.90253,0 1.30792,0.61963 1.30792,1.97314 v 0.16864 h -2.21814 v 0.19116 c 0,1.17004 0.41309,1.52928 0.86407,1.52928 0.48175,0 0.78003,-0.34441 0.85693,-1.05522 h 0.45868 c -0.06866,0.86407 -0.54328,1.43755 -1.30792,1.43755 -0.85639,0 -1.36121,-0.59653 -1.36121,-2.12582 v -2e-5 z m 3.45794,2.0341 v -5.46019 h 0.45868 v 5.46019 z m -25.40038,-5.55193 c 1.10907,0 1.56775,0.78772 1.56775,1.68256 h -0.48944 c 0,-0.74213 -0.37464,-1.26947 -1.0783,-1.26947 -0.78003,0 -1.25409,0.64215 -1.25409,2.40875 0,1.7666 0.47406,2.40874 1.25409,2.40874 0.68829,0 1.0783,-0.58885 1.13214,-1.52928 h 0.48944 c -0.06922,1.2464 -0.6427,1.94237 -1.62158,1.94237 -1.11622,0 -1.74353,-0.86406 -1.74353,-2.82182 0,-1.95778 0.62732,-2.82182 1.74353,-2.82182 v -3e-5 z M 27.205,185.59023 c 0,-1.95776 0.62731,-2.82184 1.74352,-2.82184 1.10907,0 1.56775,0.78772 1.56775,1.68256 h -0.48943 c 0,-0.74213 -0.37464,-1.26947 -1.0783,-1.26947 -0.78003,0 -1.25409,0.64215 -1.25409,2.40875 0,1.7666 0.47406,2.40875 1.25409,2.40875 0.68829,0 1.0783,-0.58887 1.13215,-1.5293 h 0.48944 c -0.06922,1.2464 -0.6427,1.94238 -1.62158,1.94238 -1.11623,0 -1.74355,-0.8641 -1.74355,-2.82183 z m 5.21686,2.82183 c -0.89428,0 -1.3991,-0.71136 -1.3991,-2.12585 0,-1.40735 0.50483,-2.11871 1.3991,-2.11871 0.89484,0 1.39966,0.71136 1.39966,2.11871 0,1.41449 -0.50482,2.12585 -1.39966,2.12585 z m 3.42774,-3.86169 c -0.53558,0 -0.89484,0.41254 -0.89484,1.03986 v 2.7301 h -0.45923 v -4.0611 h 0.41309 v 0.56635 h 0.01537 c 0.22961,-0.45154 0.62732,-0.65808 1.03986,-0.65808 0.61963,0 1.04041,0.32135 1.04041,1.086 v 3.06683 h -0.45868 v -2.93665 c 0,-0.55812 -0.22961,-0.83331 -0.69598,-0.83331 z m 1.82922,1.73584 c 0,-1.40735 0.50427,-2.11871 1.39911,-2.11871 0.76519,0 1.2085,0.46692 1.25464,1.30023 h -0.45924 c -0.05328,-0.63446 -0.30597,-0.91736 -0.79541,-0.91736 -0.49713,0 -0.90967,0.30542 -0.90967,1.74353 0,1.5293 0.43561,1.73584 0.86407,1.73584 0.46637,0 0.76466,-0.34442 0.84101,-1.05524 h 0.45922 c -0.06922,0.86407 -0.54328,1.43756 -1.29254,1.43756 -0.85693,0 -1.36121,-0.59656 -1.36121,-2.12585 0,0 2e-5,0 2e-5,0 z m 3.15912,0 c 0,-1.40735 0.50483,-2.11871 1.39966,-2.11871 0.90253,0 1.30793,0.61963 1.30793,1.97314 v 0.16864 h -2.21814 v 0.19116 c 0,1.17004 0.41309,1.5293 0.86407,1.5293 0.48176,0 0.78003,-0.34442 0.85694,-1.05524 h 0.45868 c -0.06866,0.86407 -0.54327,1.43756 -1.30793,1.43756 -0.85639,0 -1.36121,-0.59655 -1.36121,-2.12585 z m 4.80377,2.12585 c -0.50427,0 -0.8487,-0.27521 -0.94812,-0.70367 H 44.6782 v 1.95776 h -0.45868 v -5.40692 h 0.41309 v 0.58173 H 44.648 c 0.14502,-0.37518 0.48176,-0.67346 1.00141,-0.67346 0.90253,0 1.29254,0.71906 1.29254,2.1264 -2e-5,1.39911 -0.40541,2.11816 -1.30024,2.11816 z m 8.40784,-0.75695 c -0.30598,0.45868 -0.78003,0.75696 -1.45295,0.75696 -0.94098,0 -1.52984,-0.64215 -1.52984,-1.44525 0,-0.57349 0.29059,-1.02502 0.78772,-1.40735 l 0.45153,-0.34387 c -0.39001,-0.51251 -0.62731,-0.91791 -0.62731,-1.34637 0,-0.65753 0.51251,-1.00909 1.11676,-1.00909 0.63446,0 1.04754,0.4054 1.04754,1.00909 0,0.44385 -0.18347,0.85693 -0.9635,1.40735 l 1.17773,1.65179 c 0.13734,-0.33618 0.19116,-0.69598 0.19885,-1.03217 h 0.45868 c 0,0.47406 -0.13788,0.97888 -0.38233,1.41449 l 0.71906,1.00964 h -0.5202 z m 1.08297,-24.95984 c 0,-1.40735 0.50483,-2.11871 1.39966,-2.11871 0.90253,0 1.30792,0.61963 1.30792,1.97314 v 0.16864 h -2.21814 v 0.19116 c 0,1.17004 0.41309,1.52928 0.86408,1.52928 0.48175,0 0.78003,-0.34441 0.85693,-1.05522 h 0.45868 c -0.06866,0.86407 -0.54328,1.43755 -1.30792,1.43755 -0.85639,0 -1.36121,-0.59653 -1.36121,-2.12582 z m 2.09262,22.89496 c 0,-1.95776 0.62731,-2.82184 1.74352,-2.82184 1.04041,0 1.50677,0.6806 1.56775,1.62103 h -0.48944 c 0,-0.65753 -0.35925,-1.20795 -1.0783,-1.20795 -0.78003,0 -1.25409,0.64215 -1.25409,2.40875 0,1.7666 0.47406,2.40875 1.25409,2.40875 0.73444,0 1.13984,-0.65753 1.13984,-1.93469 v -0.11481 h -1.29254 v -0.41309 h 1.75122 v 2.78394 h -0.38233 v -0.90253 h -0.01535 c -0.16809,0.60425 -0.65754,0.99426 -1.20081,0.99426 -1.11621,-3e-5 -1.74353,-0.86411 -1.74353,-2.82187 z m 4.07758,-2.73011 h 0.48944 v 3.92322 c 0,0.81793 0.35211,1.21564 1.07062,1.21564 0.71906,0 1.07117,-0.39771 1.07117,-1.21564 v -3.92322 h 0.48944 v 3.93091 c 0,1.14697 -0.55865,1.62103 -1.5606,1.62103 -1.00141,0 -1.56006,-0.47406 -1.56006,-1.62103 -10e-6,0 -10e-6,-3.93091 -10e-6,-3.93091 z m 3.93256,5.46021 v -5.46021 h 0.48944 v 5.46021 z m 2.09921,-25.60199 h -2.21814 v 0.19116 c 0,1.17004 0.41309,1.52928 0.86407,1.52928 0.48174,0 0.78003,-0.34441 0.85693,-1.05522 h 0.45868 c -0.06866,0.86407 -0.54328,1.43755 -1.30792,1.43755 -0.85639,0 -1.36121,-0.59654 -1.36121,-2.12584 0,-1.40735 0.50483,-2.11871 1.39966,-2.11871 0.90253,0 1.30792,0.61963 1.30792,1.97314 v 0.16864 z m 6.79065,-53.76197 c 0.60813,0 1.14749,-0.25495 1.69688,-0.98091 l 1.3437,0.99073 c -0.87289,1.1673 -1.9029,1.6772 -3.04057,1.6772 -2.00106,0 -3.63902,-1.63792 -3.63902,-3.63885 0,-2.00105 1.63795,-3.62918 3.63902,-3.62918 1.15731,0 2.20695,0.53939 3.07984,1.70669 l -1.36333,1.00037 c -0.54939,-0.7356 -1.10838,-1.02983 -1.71651,-1.02983 -1.08875,0 -1.95197,0.8729 -1.95197,1.95195 0,1.08876 0.86322,1.95184 1.95196,1.95183 0,10e-6 0,0 0,0 z m 11.69065,0.63755 c -0.22566,0.32372 -0.55917,0.55903 -0.93181,0.74542 -0.39242,0.20602 -0.79452,0.26494 -1.23586,0.26494 -0.23548,0 -0.49044,-0.0295 -0.70631,-0.0786 -0.70612,-0.14711 -1.35352,-0.47079 -2.18728,-1.18676 l 1.1182,-1.28496 c 0.61791,0.5394 0.98087,0.74542 1.41243,0.82397 0.12748,0.0293 0.25496,0.049 0.37278,0.049 0.19604,0 0.37261,-0.0391 0.50994,-0.10783 0.11779,-0.0589 0.32368,-0.18639 0.32368,-0.45119 0,-0.27459 -0.51008,-0.44135 -0.95145,-0.52972 -0.19604,-0.0391 -1.15731,-0.24513 -1.54972,-0.48061 -0.66705,-0.39228 -1.01019,-0.99055 -1.01019,-1.73615 0,-0.41188 0.1373,-0.8043 0.36279,-1.13766 0.22566,-0.31387 0.53957,-0.55917 0.90253,-0.72592 l -0.0098,0.01 c 0.37261,-0.17657 0.79449,-0.2648 1.19659,-0.2648 0.16676,0 0.32368,0.01 0.51989,0.0392 0.62777,0.10783 1.20641,0.36282 2.01073,1.02983 l -1.07893,1.29477 c -0.72593,-0.59827 -1.09856,-0.68665 -1.47134,-0.68665 -0.18639,0 -0.3335,0.0392 -0.45119,0.0982 -0.18639,0.0784 -0.28441,0.21568 -0.28441,0.34315 0,0.26494 0.35315,0.39242 0.92199,0.51011 0.05894,0.0196 0.12747,0.0196 0.19621,0.0392 0.38246,0.0882 0.95145,0.20606 1.32406,0.42174 h -0.0098 c 0.70632,0.39242 1.07893,1.01036 1.07893,1.77539 0,0.45118 -0.11766,0.87289 -0.3726,1.22603 v 0 z"
   style="fill:#252626" />
	</g>
	<g
   id="g67">
		<g
   id="g40">
			
				<linearGradient
   id="SVGID_1_"
   gradientUnits="userSpaceOnUse"
   x1="243.22845"
   y1="-3033.7515"
   x2="256.22845"
   y2="-3033.7515"
   gradientTransform="rotate(90,-1388.9353,-1631.8786)">
				<stop
   offset="0.00559"
   style="stop-color:#303030"
   id="stop17" />
				<stop
   offset="1"
   style="stop-color:#222222"
   id="stop19" />
			</linearGradient>
			<circle
   cx="12.93742"
   cy="4.09373"
   r="3.8085899"
   id="circle22"
   style="fill:url(#SVGID_1_)" />
			
				<linearGradient
   id="SVGID_2_"
   gradientUnits="userSpaceOnUse"
   x1="243.6313"
   y1="-3033.7515"
   x2="255.25519"
   y2="-3033.7515"
   gradientTransform="rotate(90,-1388.9353,-1631.8786)">
				<stop
   offset="0.01118"
   style="stop-color:#636363"
   id="stop24" />
				<stop
   offset="1"
   style="stop-color:#2B2B2B"
   id="stop26" />
			</linearGradient>
			<circle
   cx="12.93742"
   cy="4.09342"
   r="3.4054301"
   id="circle29"
   style="fill:url(#SVGID_2_)" />
			
				<linearGradient
   id="SVGID_3_"
   gradientUnits="userSpaceOnUse"
   x1="243.89326"
   y1="-3033.7515"
   x2="254.623"
   y2="-3033.7515"
   gradientTransform="rotate(90,-1388.9353,-1631.8786)">
				<stop
   offset="0.01118"
   style="stop-color:#4C4C4C"
   id="stop31" />
				<stop
   offset="1"
   style="stop-color:#3B3B3B"
   id="stop33" />
			</linearGradient>
			<circle
   cx="12.93742"
   cy="4.09342"
   r="3.1434801"
   id="circle36"
   style="fill:url(#SVGID_3_)" />
			<path
   d="M 14.96997,3.68975 13.81942,3.5519 C 13.6428,3.53074 13.50359,3.39147 13.4825,3.21484 L 13.34522,2.06507 C 13.33924,2.01495 13.29673,1.97722 13.24626,1.97722 H 12.6286 c -0.05047,0 -0.09297,0.03772 -0.09896,0.08783 l -0.1376,1.15043 c -0.02113,0.17666 -0.16041,0.3159 -0.33707,0.337 l -1.15005,0.1373 C 10.8548,3.69576 10.81707,3.73827 10.81707,3.78874 v 0.61769 c 0,0.05047 0.03772,0.09297 0.08783,0.09896 l 1.15019,0.13758 c 0.17662,0.02113 0.31586,0.16036 0.33699,0.33698 l 0.13757,1.15015 c 0.006,0.05011 0.0485,0.08783 0.09896,0.08783 h 0.6177 c 0.05046,0 0.09296,-0.03771 0.09896,-0.08781 l 0.13782,-1.1503 C 13.50425,4.80323 13.64347,4.66403 13.82007,4.64291 L 14.96996,4.50539 C 15.02007,4.4994 15.05779,4.4569 15.05779,4.40643 V 3.78871 c -1e-5,-0.05046 -0.03772,-0.09296 -0.08782,-0.09896 z"
   id="path38"
   inkscape:connector-curvature="0"
   style="fill:#171717" />
		</g>
		<g
   id="g65">
			
				<linearGradient
   id="SVGID_4_"
   gradientUnits="userSpaceOnUse"
   x1="449.10339"
   y1="-3033.7515"
   x2="462.10339"
   y2="-3033.7515"
   gradientTransform="rotate(90,-1388.9353,-1631.8786)">
				<stop
   offset="0.00559"
   style="stop-color:#303030"
   id="stop42" />
				<stop
   offset="1"
   style="stop-color:#222222"
   id="stop44" />
			</linearGradient>
			<circle
   cx="12.93742"
   cy="209.96867"
   r="3.8085899"
   id="circle47"
   style="fill:url(#SVGID_4_)" />
			
				<linearGradient
   id="SVGID_5_"
   gradientUnits="userSpaceOnUse"
   x1="449.50626"
   y1="-3033.7515"
   x2="461.13013"
   y2="-3033.7515"
   gradientTransform="rotate(90,-1388.9353,-1631.8786)">
				<stop
   offset="0.01118"
   style="stop-color:#636363"
   id="stop49" />
				<stop
   offset="1"
   style="stop-color:#2B2B2B"
   id="stop51" />
			</linearGradient>
			<circle
   cx="12.93742"
   cy="209.96837"
   r="3.4054301"
   id="circle54"
   style="fill:url(#SVGID_5_)" />
			
				<linearGradient
   id="SVGID_6_"
   gradientUnits="userSpaceOnUse"
   x1="449.76819"
   y1="-3033.7515"
   x2="460.49792"
   y2="-3033.7515"
   gradientTransform="rotate(90,-1388.9353,-1631.8786)">
				<stop
   offset="0.01118"
   style="stop-color:#4C4C4C"
   id="stop56" />
				<stop
   offset="1"
   style="stop-color:#3B3B3B"
   id="stop58" />
			</linearGradient>
			<circle
   cx="12.93742"
   cy="209.96837"
   r="3.1434801"
   id="circle61"
   style="fill:url(#SVGID_6_)" />
			<path
   d="m 14.96997,209.5647 -1.15055,-0.13785 c -0.17662,-0.0212 -0.31583,-0.16043 -0.33692,-0.33707 l -0.13728,-1.14977 c -0.006,-0.0501 -0.04849,-0.0879 -0.09896,-0.0879 H 12.6286 c -0.05047,0 -0.09297,0.0377 -0.09896,0.0878 l -0.1376,1.15044 c -0.02113,0.17665 -0.16041,0.3159 -0.33707,0.33699 l -1.15005,0.13731 c -0.05012,0.006 -0.08785,0.0485 -0.08785,0.099 v 0.61771 c 0,0.0505 0.03772,0.093 0.08783,0.0989 l 1.15019,0.13757 c 0.17662,0.0211 0.31586,0.16037 0.33699,0.33699 l 0.13757,1.15015 c 0.006,0.0501 0.0485,0.0878 0.09896,0.0878 h 0.6177 c 0.05046,0 0.09296,-0.0377 0.09896,-0.0878 l 0.13782,-1.1503 c 0.02116,-0.17659 0.16038,-0.31578 0.33698,-0.33691 l 1.14989,-0.13751 c 0.05011,-0.006 0.08783,-0.0485 0.08783,-0.099 v -0.61772 c -1e-5,-0.0505 -0.03772,-0.093 -0.08782,-0.099 z"
   id="path63"
   inkscape:connector-curvature="0"
   style="fill:#171717" />
		</g>
	</g>
	<g
   id="g119">
		<g
   id="g92">
			
				<linearGradient
   id="SVGID_7_"
   gradientUnits="userSpaceOnUse"
   x1="243.22845"
   y1="-3100.5146"
   x2="256.22845"
   y2="-3100.5146"
   gradientTransform="rotate(90,-1388.9353,-1631.8786)">
				<stop
   offset="0.00559"
   style="stop-color:#303030"
   id="stop69" />
				<stop
   offset="1"
   style="stop-color:#222222"
   id="stop71" />
			</linearGradient>
			<circle
   cx="79.700523"
   cy="4.09373"
   r="3.8085899"
   id="circle74"
   style="fill:url(#SVGID_7_)" />
			
				<linearGradient
   id="SVGID_8_"
   gradientUnits="userSpaceOnUse"
   x1="243.6313"
   y1="-3100.5146"
   x2="255.25519"
   y2="-3100.5146"
   gradientTransform="rotate(90,-1388.9353,-1631.8786)">
				<stop
   offset="0.01118"
   style="stop-color:#636363"
   id="stop76" />
				<stop
   offset="1"
   style="stop-color:#2B2B2B"
   id="stop78" />
			</linearGradient>
			<circle
   cx="79.700523"
   cy="4.09342"
   r="3.4054301"
   id="circle81"
   style="fill:url(#SVGID_8_)" />
			
				<linearGradient
   id="SVGID_9_"
   gradientUnits="userSpaceOnUse"
   x1="243.89326"
   y1="-3100.5146"
   x2="254.623"
   y2="-3100.5146"
   gradientTransform="rotate(90,-1388.9353,-1631.8786)">
				<stop
   offset="0.01118"
   style="stop-color:#4C4C4C"
   id="stop83" />
				<stop
   offset="1"
   style="stop-color:#3B3B3B"
   id="stop85" />
			</linearGradient>
			<circle
   cx="79.700523"
   cy="4.09342"
   r="3.1434801"
   id="circle88"
   style="fill:url(#SVGID_9_)" />
			<path
   d="M 81.73307,3.68975 80.58252,3.5519 C 80.4059,3.53074 80.26669,3.39147 80.2456,3.21484 L 80.10832,2.06507 C 80.10234,2.01495 80.05984,1.97722 80.00936,1.97722 H 79.3917 c -0.05047,0 -0.09297,0.03772 -0.09896,0.08783 l -0.1376,1.15043 c -0.02113,0.17666 -0.16041,0.3159 -0.33707,0.337 l -1.15005,0.1373 C 77.6179,3.69576 77.58017,3.73827 77.58017,3.78874 v 0.61769 c 0,0.05047 0.03772,0.09297 0.08783,0.09896 l 1.15018,0.13758 c 0.17663,0.02113 0.31586,0.16036 0.33699,0.33698 l 0.13757,1.15015 c 0.006,0.05011 0.04849,0.08783 0.09896,0.08783 h 0.6177 c 0.05045,0 0.09296,-0.03771 0.09895,-0.08781 l 0.13783,-1.1503 C 80.26734,4.80323 80.40656,4.66403 80.58316,4.64291 L 81.73305,4.50539 C 81.78315,4.4994 81.82088,4.4569 81.82088,4.40643 V 3.78871 c 0,-0.05046 -0.03771,-0.09296 -0.08781,-0.09896 z"
   id="path90"
   inkscape:connector-curvature="0"
   style="fill:#171717" />
		</g>
		<g
   id="g117">
			
				<linearGradient
   id="SVGID_10_"
   gradientUnits="userSpaceOnUse"
   x1="449.10339"
   y1="-3100.5146"
   x2="462.10339"
   y2="-3100.5146"
   gradientTransform="rotate(90,-1388.9353,-1631.8786)">
				<stop
   offset="0.00559"
   style="stop-color:#303030"
   id="stop94" />
				<stop
   offset="1"
   style="stop-color:#222222"
   id="stop96" />
			</linearGradient>
			<circle
   cx="79.700523"
   cy="209.96867"
   r="3.8085899"
   id="circle99"
   style="fill:url(#SVGID_10_)" />
			
				<linearGradient
   id="SVGID_11_"
   gradientUnits="userSpaceOnUse"
   x1="449.50626"
   y1="-3100.5146"
   x2="461.13013"
   y2="-3100.5146"
   gradientTransform="rotate(90,-1388.9353,-1631.8786)">
				<stop
   offset="0.01118"
   style="stop-color:#636363"
   id="stop101" />
				<stop
   offset="1"
   style="stop-color:#2B2B2B"
   id="stop103" />
			</linearGradient>
			<circle
   cx="79.700523"
   cy="209.96837"
   r="3.4054301"
   id="circle106"
   style="fill:url(#SVGID_11_)" />
			
				<linearGradient
   id="SVGID_12_"
   gradientUnits="userSpaceOnUse"
   x1="449.76819"
   y1="-3100.5146"
   x2="460.49792"
   y2="-3100.5146"
   gradientTransform="rotate(90,-1388.9353,-1631.8786)">
				<stop
   offset="0.01118"
   style="stop-color:#4C4C4C"
   id="stop108" />
				<stop
   offset="1"
   style="stop-color:#3B3B3B"
   id="stop110" />
			</linearGradient>
			<circle
   cx="79.700523"
   cy="209.96837"
   r="3.1434801"
   id="circle113"
   style="fill:url(#SVGID_12_)" />
			<path
   d="m 81.73307,209.5647 -1.15055,-0.13785 c -0.17662,-0.0212 -0.31583,-0.16043 -0.33692,-0.33707 l -0.13728,-1.14977 c -0.006,-0.0501 -0.04848,-0.0879 -0.09896,-0.0879 H 79.3917 c -0.05047,0 -0.09297,0.0377 -0.09896,0.0878 l -0.1376,1.15044 c -0.02113,0.17665 -0.16041,0.3159 -0.33707,0.33699 l -1.15005,0.13731 c -0.05012,0.006 -0.08785,0.0485 -0.08785,0.099 v 0.61771 c 0,0.0505 0.03772,0.093 0.08783,0.0989 l 1.15018,0.13757 c 0.17663,0.0211 0.31586,0.16037 0.33699,0.33699 l 0.13757,1.15015 c 0.006,0.0501 0.04849,0.0878 0.09896,0.0878 h 0.6177 c 0.05045,0 0.09296,-0.0377 0.09895,-0.0878 l 0.13783,-1.1503 c 0.02116,-0.17659 0.16038,-0.31578 0.33698,-0.33691 l 1.14989,-0.13751 c 0.0501,-0.006 0.08783,-0.0485 0.08783,-0.099 v -0.61772 c 0,-0.0505 -0.03771,-0.093 -0.08781,-0.099 z"
   id="path115"
   inkscape:connector-curvature="0"
   style="fill:#171717" />
		</g>
	</g>
</g>
<g
   id="serigraphy"
   transform="matrix(1.7777782,0,0,1.7777782,1.7777782e-4,-0.22149339)">
	<g
   id="g90">
		<g
   id="g80">
			<path
   id="path78"
   inkscape:connector-curvature="0"
   d="m 2.81426,13.53283 c -0.12387,0 -0.24197,-0.05054 -0.33206,-0.14062 C 2.43743,13.3532 2.40364,13.29663 2.38112,13.24609 2.3586,13.18457 2.34733,13.12799 2.34733,13.06647 c 0,-0.06207 0.01127,-0.12415 0.03379,-0.18017 0.02252,-0.05658 0.0563,-0.10712 0.10108,-0.15216 0.1744,-0.17414 0.48394,-0.17414 0.65836,0 0.04477,0.04504 0.07856,0.09558 0.10108,0.15216 0.02252,0.05603 0.03378,0.1181 0.03378,0.18017 0,0.06153 -0.01126,0.1181 -0.03378,0.17962 -0.02252,0.05054 -0.05631,0.10712 -0.10108,0.14612 -0.04505,0.04504 -0.09586,0.0791 -0.15188,0.10162 -0.05632,0.02251 -0.11263,0.039 -0.17442,0.039 z"
   style="fill:#e5e5e5" />
		</g>
		<g
   id="g84">
			<path
   id="path82"
   inkscape:connector-curvature="0"
   d="m 88.17361,13.06646 c 0,-0.25928 0.20819,-0.46692 0.46115,-0.46692 v 0 c 0.25873,0 0.46692,0.20764 0.46692,0.46692 v 0 c 0,0.25873 -0.20819,0.46636 -0.46692,0.46636 v 0 c -0.25296,1e-5 -0.46115,-0.20764 -0.46115,-0.46636 z m -2.77323,0 c 0,-0.25928 0.20819,-0.46692 0.46692,-0.46692 v 0 c 0.25873,0 0.46692,0.20764 0.46692,0.46692 v 0 c 0,0.25873 -0.20819,0.46636 -0.46692,0.46636 v 0 c -0.25873,1e-5 -0.46692,-0.20764 -0.46692,-0.46636 z m -2.76745,0 c 0,-0.25928 0.20819,-0.46692 0.46692,-0.46692 v 0 c 0.25873,0 0.46692,0.20764 0.46692,0.46692 v 0 c 0,0.25873 -0.20819,0.46636 -0.46692,0.46636 v 0 c -0.25873,1e-5 -0.46692,-0.20764 -0.46692,-0.46636 z m -2.76746,0 c 0,-0.25928 0.20819,-0.46692 0.46692,-0.46692 v 0 c 0.25873,0 0.46692,0.20764 0.46692,0.46692 v 0 c 0,0.25873 -0.20819,0.46636 -0.46692,0.46636 v 0 c -0.25874,1e-5 -0.46692,-0.20764 -0.46692,-0.46636 z m -2.76746,0 c 0,-0.25928 0.20792,-0.46692 0.46692,-0.46692 v 0 c 0.25296,0 0.46664,0.20764 0.46664,0.46692 v 0 c 0,0.25873 -0.21368,0.46636 -0.46664,0.46636 v 0 c -0.25901,1e-5 -0.46692,-0.20764 -0.46692,-0.46636 z m -2.76746,0 c 0,-0.25928 0.20792,-0.46692 0.46664,-0.46692 v 0 c 0.25323,0 0.46142,0.20764 0.46142,0.46692 v 0 c 0,0.25873 -0.20819,0.46636 -0.46142,0.46636 v 0 c -0.25872,1e-5 -0.46664,-0.20764 -0.46664,-0.46636 z m -2.77322,0 c 0,-0.25928 0.21368,-0.46692 0.46693,-0.46692 v 0 c 0.25873,0 0.46692,0.20764 0.46692,0.46692 v 0 c 0,0.25873 -0.20819,0.46636 -0.46692,0.46636 v 0 c -0.25325,1e-5 -0.46692,-0.20764 -0.46693,-0.46636 z m -2.76745,0 c 0,-0.25928 0.20792,-0.46692 0.46692,-0.46692 v 0 c 0.25873,0 0.46664,0.20764 0.46664,0.46692 v 0 c 0,0.25873 -0.20792,0.46636 -0.46664,0.46636 v 0 c -0.259,1e-5 -0.46692,-0.20764 -0.46692,-0.46636 z m -2.76746,0 c 0,-0.25928 0.20792,-0.46692 0.46664,-0.46692 v 0 c 0.25873,0 0.46692,0.20764 0.46692,0.46692 v 0 c 0,0.25873 -0.20819,0.46636 -0.46692,0.46636 v 0 c -0.25872,1e-5 -0.46664,-0.20764 -0.46664,-0.46636 z m -2.76773,0 c 0,-0.25928 0.20819,-0.46692 0.46692,-0.46692 v 0 c 0.25323,0 0.46142,0.20764 0.46142,0.46692 v 0 c 0,0.25873 -0.20819,0.46636 -0.46142,0.46636 v 0 c -0.25873,1e-5 -0.46692,-0.20764 -0.46692,-0.46636 z m -2.76745,0 c 0,-0.25928 0.20819,-0.46692 0.46692,-0.46692 v 0 c 0.25323,0 0.46114,0.20764 0.46114,0.46692 v 0 c 0,0.25873 -0.2079,0.46636 -0.46114,0.46636 v 0 c -0.25873,1e-5 -0.46692,-0.20764 -0.46692,-0.46636 z m -2.76746,0 c 0,-0.25928 0.20818,-0.46692 0.46114,-0.46692 v 0 c 0.259,0 0.46692,0.20764 0.46692,0.46692 v 0 c 0,0.25873 -0.20792,0.46636 -0.46692,0.46636 v 0 c -0.25296,1e-5 -0.46114,-0.20764 -0.46114,-0.46636 z m -2.77323,0 c 0,-0.25928 0.20819,-0.46692 0.46692,-0.46692 v 0 c 0.25873,0 0.46692,0.20764 0.46692,0.46692 v 0 c 0,0.25873 -0.20819,0.46636 -0.46692,0.46636 v 0 c -0.25873,1e-5 -0.46692,-0.20764 -0.46692,-0.46636 z m -2.76746,0 c 0,-0.25928 0.20819,-0.46692 0.46692,-0.46692 v 0 c 0.25873,0 0.46692,0.20764 0.46692,0.46692 v 0 c 0,0.25873 -0.20819,0.46636 -0.46692,0.46636 v 0 c -0.25873,1e-5 -0.46692,-0.20764 -0.46692,-0.46636 z m -2.76745,0 c 0,-0.25928 0.20819,-0.46692 0.46692,-0.46692 v 0 c 0.25873,0 0.46692,0.20764 0.46692,0.46692 v 0 c 0,0.25873 -0.20819,0.46636 -0.46692,0.46636 v 0 c -0.25873,1e-5 -0.46692,-0.20764 -0.46692,-0.46636 z m -2.76746,0 c 0,-0.25928 0.20819,-0.46692 0.46692,-0.46692 v 0 c 0.25296,0 0.46114,0.20764 0.46114,0.46692 v 0 c 0,0.25873 -0.20819,0.46636 -0.46114,0.46636 v 0 c -0.25873,1e-5 -0.46692,-0.20764 -0.46692,-0.46636 z m -2.76746,0 c 0,-0.25928 0.20819,-0.46692 0.46115,-0.46692 v 0 c 0.25873,0 0.46692,0.20764 0.46692,0.46692 v 0 c 0,0.25873 -0.20819,0.46636 -0.46692,0.46636 v 0 c -0.25295,1e-5 -0.46115,-0.20764 -0.46115,-0.46636 z m -2.77322,0 c 0,-0.25928 0.20819,-0.46692 0.46692,-0.46692 v 0 c 0.25873,0 0.46692,0.20764 0.46692,0.46692 v 0 c 0,0.25873 -0.20819,0.46636 -0.46692,0.46636 v 0 c -0.25873,1e-5 -0.46692,-0.20764 -0.46692,-0.46636 z m -2.76746,0 c 0,-0.25928 0.20819,-0.46692 0.46692,-0.46692 v 0 c 0.25873,0 0.46692,0.20764 0.46692,0.46692 v 0 c 0,0.25873 -0.20819,0.46636 -0.46692,0.46636 v 0 c -0.25873,1e-5 -0.46692,-0.20764 -0.46692,-0.46636 z m -2.76746,0 c 0,-0.25928 0.20819,-0.46692 0.46692,-0.46692 v 0 c 0.25873,0 0.46692,0.20764 0.46692,0.46692 v 0 c 0,0.25873 -0.20819,0.46636 -0.46692,0.46636 v 0 c -0.25873,1e-5 -0.46692,-0.20764 -0.46692,-0.46636 z m 2.88171,160.33881 c 0.49713,0 0.74158,-0.37463 0.74158,-0.97888 v -0.68829 c -0.21368,0.16809 -0.67291,0.26752 -0.91735,0.38232 -0.23731,0.11481 -0.33673,0.3598 -0.33673,0.66522 -1e-5,0.34443 0.16808,0.61963 0.5125,0.61963 z m 14.06992,20.48621 c -0.59656,0 -0.70367,0.64215 -0.70367,1.55237 0,1.04755 0.10712,1.55237 0.70367,1.55237 0.60424,0 0.71136,-0.50482 0.71136,-1.55237 1e-5,-0.91022 -0.10712,-1.55237 -0.71136,-1.55237 z m -23.11962,-1.19312 h -0.55865 v 1.8891 h 0.61963 c 0.46637,0 0.87176,-0.25269 0.87176,-0.94098 10e-6,-0.58886 -0.23676,-0.94812 -0.93274,-0.94812 z M 53.7971,173.40527 c 0.60424,0 0.71136,-0.50482 0.71136,-1.55237 0,-0.91022 -0.10712,-1.55237 -0.71136,-1.55237 -0.59656,0 -0.70367,0.64215 -0.70367,1.55237 -10e-6,1.04755 0.10711,1.55237 0.70367,1.55237 z m -18.95718,20.44007 c -0.5279,0 -0.68829,0.5202 -0.68829,1.05579 v 0.0841 h 1.32275 v -0.22192 c 0,-0.52022 -0.16809,-0.91792 -0.63446,-0.91792 z m 15.89639,-23.95789 c 0,-0.64984 -0.39001,-0.78003 -0.87945,-0.78003 h -0.61194 v 1.6441 h 0.68829 c 0.5279,1e-5 0.80311,-0.35156 0.8031,-0.86407 z m 0.17578,2.40161 c 0,-0.58887 -0.35156,-0.9256 -0.85638,-0.9256 h -0.81079 v 1.8891 h 0.86462 c 0.51966,0 0.80255,-0.33673 0.80255,-0.9635 z m -7.70992,21.55628 c -0.5279,0 -0.68829,0.5202 -0.68829,1.05579 v 0.0841 h 1.32275 v -0.22192 c -10e-6,-0.52022 -0.1681,-0.91792 -0.63446,-0.91792 z M 63.38268,171.1723 c 0,-0.5202 -0.16809,-0.91791 -0.63446,-0.91791 -0.52789,0 -0.68829,0.5202 -0.68829,1.05579 v 0.084 h 1.32275 z m -4.62718,25.20429 c 0,0.34442 0.16809,0.61963 0.51251,0.61963 0.49713,0 0.74158,-0.37463 0.74158,-0.97888 v -0.68829 c -0.21368,0.16809 -0.67291,0.26752 -0.91735,0.38232 -0.2373,0.1148 -0.33674,0.3598 -0.33674,0.66522 z m 6.64014,-2.43952 c -0.47406,0 -0.64215,0.38232 -0.64215,1.49139 0,0.93329 0.12195,1.52216 0.69598,1.52216 0.56579,0 0.69543,-0.58118 0.69543,-1.46063 10e-6,-0.98657 -0.11426,-1.55292 -0.74926,-1.55292 z m -1.62296,-25.77777 -0.81078,1.10138 h -0.5658 l 0.45922,-1.10138 z m -3.25855,0.29061 v 5.46021 h -0.82561 v -5.46021 z m -16.05816,4.95538 c 0.45868,0.008 0.62731,-0.37463 0.62731,-0.99426 h 0.78003 c -0.05384,0.98657 -0.39001,1.6062 -1.40735,1.6062 -1.19312,0 -1.52929,-0.88715 -1.52929,-2.16431 0,-1.27716 0.33618,-2.16431 1.52929,-2.16431 1.23102,-0.0154 1.41504,0.9635 1.41504,1.47601 h -0.82617 c 0,-0.38232 -0.10711,-0.87946 -0.58887,-0.86407 -0.59656,0 -0.70367,0.64215 -0.70367,1.55237 0,0.91022 0.10712,1.55237 0.70368,1.55237 z m -8.8753,-4.03803 -1.10138,4.54285 H 33.7454 l -1.10138,-4.54285 h -0.01538 v 4.54285 h -0.82617 v -5.46021 h 1.3612 l 0.96405,4.04517 h 0.01483 l 0.94867,-4.04517 h 1.33044 v 5.46021 h -0.8256 v -4.54285 z m 2.48731,2.20276 0.64215,-0.17578 c 0.29828,-0.084 0.48175,-0.16864 0.48175,-0.52789 0,-0.37463 -0.12964,-0.61194 -0.56579,-0.61194 -0.55042,0 -0.62677,0.39001 -0.62677,0.78772 h -0.78059 c 0,-0.87177 0.3598,-1.35352 1.4458,-1.35352 0.7262,0 1.30737,0.2829 1.30737,1.00964 v 2.35547 c 0,0.15271 0.09174,0.29059 0.21423,0.29059 0.05383,0 0.10711,-0.008 0.13788,-0.023 v 0.53558 c -0.09943,0.0456 -0.245,0.0994 -0.4054,0.0994 -0.36694,0 -0.67291,-0.14557 -0.69598,-0.54327 h -0.01538 c -0.22192,0.4054 -0.54272,0.60425 -1.02448,0.60425 -0.65808,0 -1.07062,-0.36694 -1.07062,-1.15466 0,-0.91791 0.39771,-1.10907 0.95581,-1.29254 v -2e-5 z m 2.74713,-1.77429 h 0.82617 v 0.64215 h 0.01484 c 0.18347,-0.45868 0.48944,-0.74927 0.95636,-0.74927 0.09174,0 0.14502,0.0154 0.19886,0.0307 v 0.841 c -0.06153,-0.0154 -0.20654,-0.0456 -0.34441,-0.0456 -0.37464,0 -0.82562,0.16809 -0.82562,0.93274 v 2.46259 h -0.82617 v -4.11438 h -10e-6 v 0 1e-5 z m 7.55805,4.11438 v -5.46021 h 1.7666 c 0.81079,0 1.46832,0.35925 1.46832,1.32275 0,0.66522 -0.25982,1.07062 -0.80255,1.23926 v 0.0149 c 0.59601,0.10712 0.97888,0.46692 0.97888,1.39197 0,0.91022 -0.65808,1.49139 -1.68255,1.49139 h -1.7287 z m 5.42394,-4.2215 c 1.20081,0 1.53699,0.88715 1.53699,2.16431 0,1.27716 -0.39001,2.16431 -1.53699,2.16431 -1.13928,0 -1.5293,-0.88715 -1.5293,-2.16431 0,-1.27716 0.33618,-2.16431 1.5293,-2.16431 z M 29.60714,195.245 h -0.76519 v 2.25604 h -0.87176 v -5.46019 h 1.7287 c 1.04754,0 1.50623,0.65752 1.50623,1.59081 -2e-5,0.97887 -0.57351,1.61334 -1.59798,1.61334 z m 2.99926,2.25604 h -0.82561 v -4.11438 h 0.82562 v 4.11438 z m 0,-4.69556 h -0.82561 v -0.82616 h 0.82562 v 0.82616 z m 3.69416,2.74548 h -2.14892 v 0.2373 c 0,0.55042 0.06866,1.25409 0.68829,1.25409 0.58887,0 0.65753,-0.67291 0.65753,-0.91791 h 0.78003 c 0,0.91022 -0.55042,1.4837 -1.44525,1.4837 -0.67292,0 -1.50677,-0.19885 -1.50677,-2.10333 0,-1.07831 0.22961,-2.22528 1.52216,-2.22528 1.14697,0 1.45295,0.68829 1.45295,1.83527 v 0.43616 z m 2.67846,-1.39965 c -0.06153,-0.0154 -0.20654,-0.0456 -0.34442,-0.0456 -0.37464,0 -0.82617,0.16809 -0.82617,0.93274 v 2.46259 h -0.82562 v -4.11438 h 0.82562 v 0.64215 h 0.01538 c 0.18347,-0.45868 0.48944,-0.74925 0.95636,-0.74925 0.09174,0 0.14502,0.0154 0.19885,0.0307 v 0.84097 h -10e-6 z m 2.40985,0 c -0.06153,-0.0154 -0.20654,-0.0456 -0.34442,-0.0456 -0.37464,0 -0.82562,0.16809 -0.82562,0.93274 v 2.46259 h -0.82617 v -4.11438 h 0.82617 v 0.64215 h 0.01484 c 0.18347,-0.45868 0.48944,-0.74925 0.95636,-0.74925 0.09174,0 0.14502,0.0154 0.19886,0.0307 v 0.84097 h -2e-5 z m 3.27393,1.39965 h -2.14892 v 0.2373 c 0,0.55042 0.06866,1.25409 0.68829,1.25409 0.58887,0 0.65753,-0.67291 0.65753,-0.91791 h 0.78003 c 0,0.91022 -0.55042,1.4837 -1.44526,1.4837 -0.67292,0 -1.50677,-0.19885 -1.50677,-2.10333 0,-1.07831 0.22961,-2.22528 1.52216,-2.22528 1.14697,0 1.45293,0.68829 1.45293,1.83527 0,1e-5 0,0.43616 10e-6,0.43616 z m 5.92877,0.10712 c 0,0.98657 -0.39771,1.95007 -1.68255,1.95007 -1.3766,0 -1.80451,-0.88715 -1.80451,-2.83722 0,-1.95007 0.42792,-2.8372 1.8122,-2.8372 1.55236,0 1.6441,1.14696 1.6441,1.71275 v 0.0994 h -0.87177 v -0.0917 c 0,-0.50482 -0.15271,-1.086 -0.78003,-1.06293 -0.64215,0 -0.93274,0.39771 -0.93274,2.15662 0,1.75891 0.29058,2.20276 0.93274,2.20276 0.72674,0 0.81079,-0.81079 0.81079,-1.31561 v -0.0917 h 0.87177 v 0.11478 z m 1.92865,1.95007 c -1.13928,0 -1.5293,-0.88715 -1.5293,-2.16431 0,-1.27716 0.33618,-2.16431 1.5293,-2.16431 1.20081,0 1.53699,0.88715 1.53699,2.16431 0,1.27716 -0.39002,2.16431 -1.53699,2.16431 z m 3.03717,-0.10711 h -0.82562 v -5.46019 h 0.82562 z M 55.9702,172.6714 v -2.87567 h 0.82563 v 2.95203 c 0,0.45868 0.20654,0.61194 0.55865,0.61194 0.35156,0 0.6729,-0.22961 0.6729,-0.68829 v -2.87567 H 58.853 v 4.11438 h -0.78003 v -0.48175 h -0.0225 c -0.20654,0.36694 -0.59656,0.58887 -1.05578,0.58887 -0.61139,0 -1.02447,-0.2829 -1.02447,-1.34583 1e-5,-1e-5 -10e-6,-1e-5 -2e-5,-1e-5 z m 1.28568,24.82964 h -0.82563 v -5.46019 h 0.82563 z m 3.88587,-0.0533 c -0.09943,0.0456 -0.245,0.0994 -0.4054,0.0994 -0.36694,0 -0.67291,-0.14557 -0.69598,-0.54327 h -0.01536 c -0.22192,0.4054 -0.54272,0.60425 -1.02448,0.60425 -0.65808,0 -1.07062,-0.36694 -1.07062,-1.15466 0,-0.91791 0.39771,-1.10907 0.95581,-1.29254 l 0.64215,-0.17578 c 0.29828,-0.084 0.48175,-0.16864 0.48175,-0.52789 0,-0.37463 -0.12964,-0.61194 -0.56579,-0.61194 -0.55042,0 -0.62677,0.39001 -0.62677,0.78772 h -0.78059 c 0,-0.87177 0.3598,-1.35352 1.4458,-1.35352 0.7262,0 1.30737,0.2829 1.30737,1.00964 v 2.35547 c 0,0.15271 0.09174,0.29059 0.21423,0.29059 0.05383,0 0.10712,-0.008 0.13788,-0.023 v 0.53558 z m 1.61416,-27.75914 c 1.14697,0 1.45295,0.68829 1.45295,1.83527 v 0.43616 h -2.14892 v 0.2373 c 0,0.55042 0.06866,1.25409 0.68829,1.25409 0.58887,0 0.65754,-0.67291 0.65754,-0.91791 h 0.78003 c 0,0.91022 -0.55041,1.4837 -1.44526,1.4837 -0.67291,0 -1.50677,-0.19885 -1.50677,-2.10333 -1e-5,-1.07831 0.22959,-2.22528 1.52214,-2.22528 z m 0.87259,24.46269 c -0.06153,-0.0154 -0.20654,-0.0456 -0.34442,-0.0456 -0.37464,0 -0.82562,0.16809 -0.82562,0.93274 v 2.46259 h -0.82617 v -4.11438 h 0.82617 v 0.64215 h 0.01485 c 0.18347,-0.45868 0.48944,-0.74927 0.95636,-0.74927 0.09173,0 0.14502,0.0154 0.19885,0.0307 v 0.841 h -2e-5 z m 3.29646,3.34973 h -0.78003 v -0.50482 h -0.01485 c -0.10712,0.26752 -0.31366,0.61194 -0.90253,0.61194 -0.9635,0 -1.34582,-0.8031 -1.34582,-2.21759 0,-1.82812 0.64215,-2.11102 1.26947,-2.11102 0.44331,0 0.78003,0.22192 0.93274,0.58887 h 0.01536 v -1.82758 h 0.82562 c 2e-5,0 2e-5,5.46021 1e-5,5.46021 -1e-5,-10e-6 2e-5,-10e-6 3e-5,-10e-6 z M 32.80116,13.06646 c 0,-0.25928 0.20792,-0.46692 0.46692,-0.46692 v 0 c 0.25296,0 0.46664,0.20764 0.46664,0.46692 v 0 c 0,0.25873 -0.21368,0.46636 -0.46664,0.46636 v 0 c -0.25901,1e-5 -0.46692,-0.20764 -0.46692,-0.46636 z m -2.76746,0 c 0,-0.25928 0.20792,-0.46692 0.46664,-0.46692 v 0 c 0.25324,0 0.46142,0.20764 0.46142,0.46692 v 0 c 0,0.25873 -0.20819,0.46636 -0.46142,0.46636 v 0 c -0.25873,1e-5 -0.46664,-0.20764 -0.46664,-0.46636 z m -2.77322,0 c 0,-0.25928 0.21368,-0.46692 0.46692,-0.46692 v 0 c 0.25873,0 0.46692,0.20764 0.46692,0.46692 v 0 c 0,0.25873 -0.20819,0.46636 -0.46692,0.46636 v 0 c -0.25324,1e-5 -0.46692,-0.20764 -0.46692,-0.46636 z m -2.76746,0 c 0,-0.25928 0.20792,-0.46692 0.46692,-0.46692 v 0 c 0.25873,0 0.46664,0.20764 0.46664,0.46692 v 0 c 0,0.25873 -0.20792,0.46636 -0.46664,0.46636 v 0 c -0.25901,1e-5 -0.46692,-0.20764 -0.46692,-0.46636 z m -2.76746,0 c 0,-0.25928 0.20791,-0.46692 0.46664,-0.46692 v 0 c 0.25873,0 0.46692,0.20764 0.46692,0.46692 v 0 c 0,0.25873 -0.20819,0.46636 -0.46692,0.46636 v 0 c -0.25872,1e-5 -0.46664,-0.20764 -0.46664,-0.46636 z m -2.76772,0 c 0,-0.25928 0.20819,-0.46692 0.46692,-0.46692 v 0 c 0.25873,0 0.46142,0.20764 0.46142,0.46692 v 0 c 0,0.25873 -0.2027,0.46636 -0.46142,0.46636 v 0 c -0.25874,1e-5 -0.46692,-0.20764 -0.46692,-0.46636 z m -2.76746,0 c 0,-0.25928 0.20819,-0.46692 0.46692,-0.46692 v 0 c 0.25324,0 0.46115,0.20764 0.46115,0.46692 v 0 c 0,0.25873 -0.20791,0.46636 -0.46115,0.46636 v 0 c -0.25872,1e-5 -0.46692,-0.20764 -0.46692,-0.46636 z m -2.76745,0 c 0,-0.25928 0.20819,-0.46692 0.46115,-0.46692 v 0 c 0.25901,0 0.46692,0.20764 0.46692,0.46692 v 0 c 0,0.25873 -0.20792,0.46636 -0.46692,0.46636 v 0 c -0.25296,1e-5 -0.46115,-0.20764 -0.46115,-0.46636 z m -2.77322,0 c 0,-0.25928 0.20819,-0.46692 0.46692,-0.46692 v 0 c 0.25873,0 0.46692,0.20764 0.46692,0.46692 v 0 c 0,0.25873 -0.20819,0.46636 -0.46692,0.46636 v 0 c -0.25874,1e-5 -0.46692,-0.20764 -0.46692,-0.46636 z m -2.76746,0 c 0,-0.25928 0.20819,-0.46692 0.46692,-0.46692 v 0 c 0.25873,0 0.46692,0.20764 0.46692,0.46692 v 0 c 0,0.25873 -0.20819,0.46636 -0.46692,0.46636 v 0 c -0.25873,1e-5 -0.46692,-0.20764 -0.46692,-0.46636 z m -2.76745,0 c 0,-0.25928 0.20819,-0.46692 0.46692,-0.46692 v 0 c 0.25873,0 0.46692,0.20764 0.46692,0.46692 v 0 c 0,0.25873 -0.20819,0.46636 -0.46692,0.46636 v 0 c -0.25873,1e-5 -0.46693,-0.20764 -0.46692,-0.46636 z"
   style="fill:#e5e5e5" />
		</g>
		<g
   id="g88">
			<path
   id="path86"
   inkscape:connector-curvature="0"
   d="m 91.40799,13.53283 c -0.0618,0 -0.12387,-0.01648 -0.18018,-0.039 -0.05602,-0.02252 -0.10684,-0.05658 -0.15188,-0.10162 -0.04478,-0.03901 -0.07855,-0.09558 -0.10108,-0.14612 -0.0225,-0.06153 -0.03382,-0.1181 -0.03382,-0.17963 0,-0.06207 0.01125,-0.12415 0.03382,-0.18017 0.0225,-0.05658 0.05633,-0.10711 0.10108,-0.15216 0.1744,-0.17414 0.48944,-0.17414 0.65836,0 0.04478,0.04505 0.07855,0.09558 0.10108,0.15216 0.0225,0.05603 0.03382,0.1181 0.03382,0.18017 0,0.06153 -0.01125,0.1181 -0.03382,0.17963 -0.0225,0.05054 -0.05633,0.10711 -0.10108,0.14612 -0.08462,0.09008 -0.20271,0.14062 -0.3263,0.14062 z"
   style="fill:#e5e5e5" />
		</g>
	</g>
</g>
<g
   id="g78"
   transform="matrix(1.3888971,0,0,1.3888971,-6.6994645e-4,0.28397561)">
	<path
   id="path54"
   inkscape:connector-curvature="0"
   d="m 37.16908,156.79947 h 1.13379 l 0.91919,4.14404 h 0.01904 l 0.83057,-4.14404 h 1.12426 l -1.38794,5.25806 h -1.2312 z"
   style="fill:#e5e5e5" />
	<path
   id="path56"
   inkscape:connector-curvature="0"
   d="m 42.67983,159.56509 v 0.30322 c 0,0.70386 0.08789,1.60254 0.87964,1.60254 0.7522,0 0.84009,-0.85986 0.84009,-1.17261 h 0.99683 c 0,1.16309 -0.70312,1.89624 -1.84717,1.89624 -0.85986,0 -1.92481,-0.25415 -1.92481,-2.68799 0,-1.37769 0.29297,-2.84399 1.94458,-2.84399 1.46631,0 1.85669,0.87964 1.85669,2.34595 v 0.55664 c 0,0 -2.74585,0 -2.74585,0 z m 1.69043,-0.7229 v -0.28345 c 0,-0.66431 -0.2146,-1.17261 -0.81079,-1.17261 -0.67456,0 -0.87964,0.66431 -0.87964,1.34839 v 0.10767 c 0,0 1.69043,0 1.69043,0 z"
   style="fill:#e5e5e5" />
	<path
   id="path58"
   inkscape:connector-curvature="0"
   d="m 46.2936,156.79947 h 1.05542 v 0.82104 h 0.01978 c 0.23438,-0.58667 0.62548,-0.95801 1.22168,-0.95801 0.11719,0 0.1853,0.0198 0.25415,0.0395 v 1.07446 c -0.07837,-0.019 -0.2644,-0.0586 -0.44018,-0.0586 -0.479,0 -1.05542,0.21533 -1.05542,1.19238 v 3.14722 h -1.05542 c 0,1e-5 0,-5.25805 -1e-5,-5.25805 z"
   style="fill:#e5e5e5" />
	<path
   id="path60"
   inkscape:connector-curvature="0"
   d="m 51.63881,158.33389 v -0.13696 c 0,-0.42041 -0.14722,-0.81079 -0.69434,-0.81079 -0.42041,0 -0.7522,0.19556 -0.7522,0.68408 0,0.41016 0.1853,0.57642 0.74267,0.77197 l 0.67455,0.23438 c 0.78149,0.26367 1.14331,0.68408 1.14331,1.51465 0,1.12427 -0.82104,1.60327 -1.88673,1.60327 -1.32861,0 -1.72924,-0.61597 -1.72924,-1.63257 v -0.19482 h 0.93823 v 0.16553 c 0,0.60645 0.2146,0.93823 0.82031,0.93823 0.57715,0 0.8606,-0.29297 0.8606,-0.77197 0,-0.39111 -0.20508,-0.64453 -0.57715,-0.77197 l -0.85986,-0.30322 c -0.79174,-0.27319 -1.12354,-0.67383 -1.12354,-1.51465 0,-0.9873 0.71338,-1.44653 1.7981,-1.44653 1.33887,0 1.64209,0.78223 1.64209,1.43701 v 0.23438 h -0.9968 z"
   style="fill:#e5e5e5" />
	<path
   id="path62"
   inkscape:connector-curvature="0"
   d="m 53.58193,155.00137 h 1.05542 v 1.05542 h -1.05542 z m 0,1.7981 h 1.05542 v 5.25806 h -1.05542 z"
   style="fill:#e5e5e5" />
	<path
   id="path64"
   inkscape:connector-curvature="0"
   d="m 57.44985,156.66251 c 1.53442,0 1.96509,1.13379 1.96509,2.76636 0,1.63184 -0.49878,2.76562 -1.96509,2.76562 -1.45605,0 -1.9541,-1.13379 -1.9541,-2.76562 0,-1.63257 0.42993,-2.76636 1.9541,-2.76636 z m 0,4.74975 c 0.77271,0 0.90893,-0.64453 0.90893,-1.9834 0,-1.16309 -0.13623,-1.98413 -0.90893,-1.98413 -0.76173,0 -0.89868,0.82104 -0.89868,1.98413 0,1.33887 0.13696,1.9834 0.89868,1.9834 z"
   style="fill:#e5e5e5" />
	<path
   id="path66"
   inkscape:connector-curvature="0"
   d="m 60.22427,156.79947 h 0.99683 v 0.61597 h 0.0293 c 0.26367,-0.46948 0.76245,-0.75293 1.34839,-0.75293 0.80201,0 1.30957,0.36182 1.30957,1.42676 v 3.96826 h -1.05542 v -3.60645 c 0,-0.68408 -0.20508,-0.94775 -0.73242,-0.94775 -0.43066,0 -0.84082,0.34204 -0.84082,1.02612 v 3.52808 h -1.05542 c -2e-5,0 -2e-5,-5.25806 -1e-5,-5.25806 z"
   style="fill:#e5e5e5" />
	<path
   id="path70"
   inkscape:connector-curvature="0"
   d="m 72.06387,160.76773 h 1.11402 v 1.28979 h -1.11402 z"
   style="fill:#e5e5e5" />
	<path
   id="path72"
   inkscape:connector-curvature="0"
   d="m 78.16129,162.05753 h -4.04663 c 0,-3.01025 2.90259,-2.94141 2.90259,-5.0918 0,-0.56689 -0.2439,-1.0459 -0.85986,-1.0459 -0.83057,0 -0.96753,0.74268 -0.96753,1.44653 h -1.05542 c 0,-1.37769 0.56689,-2.22803 2.04272,-2.22803 1.41724,0 1.95483,0.84009 1.95483,1.84717 0,2.29614 -2.2478,2.44336 -2.77588,4.13379 h 2.80518 z"
   style="fill:#e5e5e5" />
	<path
   id="path72_1_"
   inkscape:connector-curvature="0"
   d="M 70.51133,162.05753 H 66.4647 c 0,-3.01025 2.90259,-2.94141 2.90259,-5.0918 0,-0.56689 -0.2439,-1.0459 -0.85986,-1.0459 -0.83057,0 -0.96753,0.74268 -0.96753,1.44653 h -1.05542 c 0,-1.37769 0.56689,-2.22803 2.04272,-2.22803 1.41724,0 1.95483,0.84009 1.95483,1.84717 0,2.29614 -2.2478,2.44336 -2.77588,4.13379 h 2.80518 z"
   style="fill:#e5e5e5" />
	<path
   id="path74"
   inkscape:connector-curvature="0"
   d="m 79.09732,160.76773 h 1.11401 v 1.28979 h -1.11401 z"
   style="fill:#e5e5e5" />
	<path
   id="path76"
   inkscape:connector-curvature="0"
   d="m 83.17178,155.13834 c 1.32861,0 2.07129,0.84009 2.07129,3.52808 0,2.68726 -0.74267,3.52808 -2.07129,3.52808 -1.32935,0 -2.07203,-0.84082 -2.07203,-3.52808 0,-2.688 0.74269,-3.52808 2.07203,-3.52808 z m 0,6.27392 c 0.76173,0 0.95728,-0.73242 0.95728,-2.74585 0,-2.01343 -0.19556,-2.74658 -0.95728,-2.74658 -0.76245,0 -0.95801,0.73315 -0.95801,2.74658 0,2.01343 0.19556,2.74585 0.95801,2.74585 z"
   style="fill:#e5e5e5" />
</g>
</svg>