<?xml version="1.0" encoding="UTF-8" standalone="no"?>
<svg
   id="uuid-b2d897bc-59a5-4dde-8a27-2a665b5d2348"
   data-name="Layer 1"
   width="55.880001mm"
   height="128.5mm"
   viewBox="0 0 158.40002 364.25196"
   version="1.1"
   sodipodi:docname="DM3.svg"
   inkscape:version="1.2.1 (9c6d41e410, 2022-07-14)"
   xmlns:inkscape="http://www.inkscape.org/namespaces/inkscape"
   xmlns:sodipodi="http://sodipodi.sourceforge.net/DTD/sodipodi-0.dtd"
   xmlns="http://www.w3.org/2000/svg"
   xmlns:svg="http://www.w3.org/2000/svg">
  <sodipodi:namedview
     id="namedview126"
     pagecolor="#ffffff"
     bordercolor="#000000"
     borderopacity="0.25"
     inkscape:showpageshadow="2"
     inkscape:pageopacity="0.0"
     inkscape:pagecheckerboard="0"
     inkscape:deskcolor="#d1d1d1"
     inkscape:document-units="mm"
     showgrid="false"
     inkscape:zoom="6.5447368"
     inkscape:cx="133.16044"
     inkscape:cy="287.40652"
     inkscape:window-width="1920"
     inkscape:window-height="1009"
     inkscape:window-x="-8"
     inkscape:window-y="-8"
     inkscape:window-maximized="1"
     inkscape:current-layer="uuid-b2d897bc-59a5-4dde-8a27-2a665b5d2348" />
  <defs
     id="defs71">
    <linearGradient
       id="uuid-dec2ecbc-394f-4362-9266-6948069fd403"
       x1="-151.91476"
       y1="930.35181"
       x2="109.81965"
       y2="1192.0862"
       gradientTransform="matrix(2.18452,0,0,2.18452,285.12252,-1972.2461)"
       gradientUnits="userSpaceOnUse">
      <stop
         offset=".38537"
         stop-color="#ffcc9e"
         id="stop2" />
      <stop
         offset=".62112"
         stop-color="#f1ad8c"
         id="stop4" />
      <stop
         offset=".85662"
         stop-color="#e6947e"
         id="stop6" />
      <stop
         offset="1"
         stop-color="#e28b79"
         id="stop8" />
    </linearGradient>
    <linearGradient
       id="uuid-2c2b166f-004d-49e2-831b-408601d5376b"
       x1="158.16585"
       y1="3765.5786"
       x2="171.16585"
       y2="3765.5786"
       gradientTransform="matrix(0,1.77778,1.77778,0,-6671.3635,-280.89837)"
       gradientUnits="userSpaceOnUse">
      <stop
         offset=".00559"
         stop-color="#303030"
         id="stop11" />
      <stop
         offset="1"
         stop-color="#222"
         id="stop13" />
    </linearGradient>
    <linearGradient
       id="uuid-481fde16-ffb8-4fbc-81fa-f603a72083f4"
       x1="158.5687"
       y1="3765.5786"
       x2="170.1926"
       y2="3765.5786"
       gradientTransform="matrix(0,1.77778,1.77778,0,-6671.3635,-280.89837)"
       gradientUnits="userSpaceOnUse">
      <stop
         offset=".01118"
         stop-color="#636363"
         id="stop16" />
      <stop
         offset="1"
         stop-color="#2b2b2b"
         id="stop18" />
    </linearGradient>
    <linearGradient
       id="uuid-45ec1abe-108b-4b09-9944-912d4ffe3504"
       x1="158.83064"
       y1="3765.5786"
       x2="169.56039"
       y2="3765.5786"
       gradientTransform="matrix(0,1.77778,1.77778,0,-6671.3635,-280.89837)"
       gradientUnits="userSpaceOnUse">
      <stop
         offset=".01118"
         stop-color="#4c4c4c"
         id="stop21" />
      <stop
         offset="1"
         stop-color="#3b3b3b"
         id="stop23" />
    </linearGradient>
    <linearGradient
       id="uuid-b1256dd9-01d6-4d87-bf58-35206387586c"
       x1="364.0408"
       y1="3765.5786"
       x2="377.0408"
       y2="3765.5786"
       gradientTransform="matrix(0,1.77778,1.77778,0,-6671.3635,-280.89837)"
       gradientUnits="userSpaceOnUse">
      <stop
         offset=".00559"
         stop-color="#303030"
         id="stop26" />
      <stop
         offset="1"
         stop-color="#222"
         id="stop28" />
    </linearGradient>
    <linearGradient
       id="uuid-ecc7ab38-d837-48c1-b7c7-8856e0fe3f79"
       x1="364.44366"
       y1="3765.5786"
       x2="376.0675"
       y2="3765.5786"
       gradientTransform="matrix(0,1.77778,1.77778,0,-6671.3635,-280.89837)"
       gradientUnits="userSpaceOnUse">
      <stop
         offset=".01118"
         stop-color="#636363"
         id="stop31" />
      <stop
         offset="1"
         stop-color="#2b2b2b"
         id="stop33" />
    </linearGradient>
    <linearGradient
       id="uuid-87562af2-dfbe-41fa-b61a-c2f1aee7a3ac"
       x1="364.7056"
       y1="3765.5786"
       x2="375.43533"
       y2="3765.5786"
       gradientTransform="matrix(0,1.77778,1.77778,0,-6671.3635,-280.89837)"
       gradientUnits="userSpaceOnUse">
      <stop
         offset=".01118"
         stop-color="#4c4c4c"
         id="stop36" />
      <stop
         offset="1"
         stop-color="#3b3b3b"
         id="stop38" />
    </linearGradient>
    <linearGradient
       id="uuid-2101cf44-2a33-4326-8606-fa65c11449ae"
       x1="158.16585"
       y1="3832.3418"
       x2="171.16585"
       y2="3832.3418"
       gradientTransform="matrix(0,1.77778,1.77778,0,-6671.3635,-280.89837)"
       gradientUnits="userSpaceOnUse">
      <stop
         offset=".00559"
         stop-color="#303030"
         id="stop41" />
      <stop
         offset="1"
         stop-color="#222"
         id="stop43" />
    </linearGradient>
    <linearGradient
       id="uuid-0bb3c6ab-1356-4a46-9f9b-1de294ec5834"
       x1="158.5687"
       y1="3832.3418"
       x2="170.1926"
       y2="3832.3418"
       gradientTransform="matrix(0,1.77778,1.77778,0,-6671.3635,-280.89837)"
       gradientUnits="userSpaceOnUse">
      <stop
         offset=".01118"
         stop-color="#636363"
         id="stop46" />
      <stop
         offset="1"
         stop-color="#2b2b2b"
         id="stop48" />
    </linearGradient>
    <linearGradient
       id="uuid-05e80591-80e1-448d-ba32-6390a6772552"
       x1="158.83064"
       y1="3832.3418"
       x2="169.56039"
       y2="3832.3418"
       gradientTransform="matrix(0,1.77778,1.77778,0,-6671.3635,-280.89837)"
       gradientUnits="userSpaceOnUse">
      <stop
         offset=".01118"
         stop-color="#4c4c4c"
         id="stop51" />
      <stop
         offset="1"
         stop-color="#3b3b3b"
         id="stop53" />
    </linearGradient>
    <linearGradient
       id="uuid-02f7e026-829b-4ada-b583-96bcec01f234"
       x1="364.0408"
       y1="3832.3418"
       x2="377.0408"
       y2="3832.3418"
       gradientTransform="matrix(0,1.77778,1.77778,0,-6671.3635,-280.89837)"
       gradientUnits="userSpaceOnUse">
      <stop
         offset=".00559"
         stop-color="#303030"
         id="stop56" />
      <stop
         offset="1"
         stop-color="#222"
         id="stop58" />
    </linearGradient>
    <linearGradient
       id="uuid-a8207785-11d3-45c9-8073-d051ffa3fa31"
       x1="364.44366"
       y1="3832.3418"
       x2="376.0675"
       y2="3832.3418"
       gradientTransform="matrix(0,1.77778,1.77778,0,-6671.3635,-280.89837)"
       gradientUnits="userSpaceOnUse">
      <stop
         offset=".01118"
         stop-color="#636363"
         id="stop61" />
      <stop
         offset="1"
         stop-color="#2b2b2b"
         id="stop63" />
    </linearGradient>
    <linearGradient
       id="uuid-1597b6d7-1e51-42a6-995b-ba73a803dabc"
       x1="364.7056"
       y1="3832.3418"
       x2="375.43533"
       y2="3832.3418"
       gradientTransform="matrix(0,1.77778,1.77778,0,-6671.3635,-280.89837)"
       gradientUnits="userSpaceOnUse">
      <stop
         offset=".01118"
         stop-color="#4c4c4c"
         id="stop66" />
      <stop
         offset="1"
         stop-color="#3b3b3b"
         id="stop68" />
    </linearGradient>
  </defs>
  <g
     id="uuid-89813eec-eb59-495b-a10f-8b1a96598cff"
     data-name="bg"
     transform="scale(0.96000001,0.95855785)"
     style="mix-blend-mode:normal">
    <rect
       id="uuid-d713fa61-8428-47f7-872d-842e2d21337c"
       data-name="rect11"
       x="7.4833798"
       y="5.9012499"
       width="153.29222"
       height="370.17664"
       fill="url(#uuid-dec2ecbc-394f-4362-9266-6948069fd403)"
       style="fill:url(#uuid-dec2ecbc-394f-4362-9266-6948069fd403)" />
    <g
       id="uuid-5fc82deb-38d5-4481-a916-f57e2e77c504"
       data-name="g19">
      <path
         id="uuid-710554ee-9b34-4002-a0d0-94a17d6c5c50"
         data-name="path13"
         d="m 68.08553,186.87007 h -1.30804 v 6.45188 h 1.30804 c 1.84827,0 3.34796,-1.46483 3.34796,-3.22613 -2e-5,-1.76096 -1.4997,-3.22575 -3.34796,-3.22575 z"
         fill="#252626" />
      <path
         id="uuid-4fd4950f-ee64-4ea6-9b75-186334ee5393"
         data-name="path15"
         d="m 53.59669,190.026 c 0,-1.90062 -1.51691,-3.48729 -3.41755,-3.48729 -1.90064,0 -3.43529,1.58667 -3.43529,3.48729 0,1.88349 1.53467,3.4353 3.43529,3.4353 1.90062,-4e-5 3.41755,-1.55183 3.41755,-3.4353 z"
         fill="#252626" />
      <path
         id="uuid-61709261-d307-4681-a8ea-af6d5ef521a1"
         data-name="path17"
         d="M 0,0 V 379.99999 H 165 V 2e-5 C 165,2e-5 0,2e-5 0,0 Z m 114.516,183.88808 h 3.03434 v 12.41557 H 114.516 Z m -17.34841,10.27085 1.98791,-2.28436 c 1.0985,0.95892 1.74384,1.3252 2.51099,1.46483 0.22663,0.0521 0.45326,0.0871 0.66272,0.0871 0.34857,0 0.66247,-0.0695 0.90656,-0.19172 0.20946,-0.10471 0.57543,-0.33137 0.57543,-0.80211 0,-0.48816 -0.90679,-0.7846 -1.69147,-0.9417 -0.34852,-0.0695 -2.05744,-0.43579 -2.75507,-0.85444 -1.1858,-0.69739 -1.79589,-1.76097 -1.79589,-3.08649 0,-0.73225 0.24407,-1.42989 0.64501,-2.02253 0.40117,-0.558 0.95918,-0.99409 1.60442,-1.29053 l -0.01742,0.0178 c 0.66249,-0.3139 1.41248,-0.47077 2.12727,-0.47077 0.29646,0 0.57543,0.0178 0.92432,0.0697 1.11598,0.19172 2.14469,0.64502 3.57458,1.83081 l -1.9181,2.30183 c -1.29054,-1.06359 -1.953,-1.22072 -2.61572,-1.22072 -0.33136,0 -0.59289,0.0697 -0.80206,0.17457 -0.33136,0.13938 -0.50562,0.38344 -0.50562,0.61004 0,0.47103 0.62782,0.69763 1.63904,0.90686 0.10473,0.0348 0.22668,0.0348 0.34882,0.0697 0.67993,0.15681 1.69147,0.36633 2.35394,0.74976 h -0.0174 c 1.25561,0.69763 1.9181,1.79621 1.9181,3.15625 0,0.80211 -0.20923,1.55183 -0.66247,2.17963 -0.40117,0.57551 -0.99408,0.99383 -1.65655,1.3252 -0.69762,0.36625 -1.41241,0.471 -2.19708,0.471 -0.41865,0 -0.87189,-0.0525 -1.25561,-0.13973 -1.25538,-0.26157 -2.40626,-0.837 -3.88855,-2.10984 h 5e-5 l -1.4e-4,-1.2e-4 z m -29.08206,2.14474 H 63.77835 V 183.8881 h 4.30718 c 3.50477,0 6.34716,2.78997 6.34716,6.20774 -2e-5,3.41785 -2.84242,6.20785 -6.34717,6.20785 v 0 z m 13.59916,-1e-5 v -12.41557 h 8.45721 v 2.96453 h -5.42285 v 1.06359 h 4.74268 v 3.01664 h -4.74268 v 2.37165 h 5.30073 v 2.99915 c 0,0 -8.3351,1e-5 -8.33509,1e-5 z M 61.17327,61.03167 c 0,-4.94658 4.01001,-8.95661 8.95661,-8.95661 h 29.41899 c 4.9466,0 8.95661,4.00999 8.95661,8.95661 v 85.10399 c 0,4.9466 -4.01001,8.95661 -8.95661,8.95661 H 70.1299 c -4.9466,0 -8.95661,-4.01001 -8.95661,-8.95661 0,4e-5 0,-85.10398 -2e-5,-85.10399 z m 35.0452,60.37126 c -0.31812,0.73359 -0.74011,1.33915 -1.26596,1.816 -0.52649,0.47685 -1.12487,0.83089 -1.79771,1.06414 -0.67346,0.23256 -1.37637,0.34817 -2.10994,0.34817 -1.24768,0 -2.2197,-0.1829 -2.91667,-0.55005 -0.69701,-0.36711 -1.24183,-0.79496 -1.63245,-1.28426 -0.41676,-0.53824 -0.67934,-1.13728 -0.78908,-1.79769 -0.1104,-0.66043 -0.16528,-1.32084 -0.16528,-1.98127 0,-0.9302 0.01895,-1.57168 0.0549,-1.92641 0.03725,-0.35537 0.07904,-0.55655 0.12866,-0.60556 0.09735,-0.0738 0.50103,-0.10975 1.21046,-0.10975 h 8.58612 c 0.24432,0 0.44615,0.0183 0.60554,0.0549 0.15808,0.0366 0.28089,0.13392 0.36647,0.29329 0.08556,0.15873 0.14044,0.39715 0.16524,0.71528 0.02418,0.31812 0.03725,0.75842 0.03725,1.32084 -2e-5,1.02756 -0.16005,1.90876 -0.47753,2.64235 m -14.8219,-35.6986 c 0.03267,-0.2306 0.13196,-0.41284 0.29789,-0.54546 0.16524,-0.13194 0.42917,-0.2149 0.79369,-0.24823 0.36384,-0.03266 0.87662,-0.04964 1.53836,-0.04964 2.58028,0 4.55698,0.71922 5.93008,2.15829 1.37246,1.43907 2.05965,3.36679 2.05965,5.78178 0,0.22864 -0.04768,0.72182 -0.07772,1.06019 -0.1901,-0.0027 -0.38019,-0.0052 -0.57026,-0.0091 -0.52062,-0.01102 -1.08633,-0.03986 -1.69708,-0.08493 -0.13589,0.06795 -0.20903,0.19794 -0.2208,0.38997 -0.01102,0.19269 0.0392,0.34555 0.15353,0.45858 l 0.61011,0.06793 c 0.40763,0.04506 0.74665,0.11888 1.01839,0.22014 0.27175,0.1019 0.40763,0.20967 0.40763,0.32269 0,0.11301 -0.06793,0.3227 -0.2038,0.62777 -0.13589,0.30573 -0.31683,0.67346 -0.54283,1.10267 -0.22668,0.43049 -0.47033,0.88905 -0.72966,1.37504 -0.26066,0.48667 -0.5043,0.94522 -0.73031,1.37442 -0.52062,0.9962 -1.0517,1.97408 -1.5952,2.93564 -0.54286,0.96221 -1.07458,1.89568 -1.59454,2.80043 -0.65717,-1.17648 -1.30192,-2.40978 -1.9349,-3.69927 -0.63365,-1.29015 -1.26727,-2.56788 -1.90093,-3.83579 -0.04574,-0.09014 -0.1241,-0.25935 -0.23714,-0.50887 -0.11365,-0.24822 -0.23253,-0.5141 -0.35666,-0.7976 -0.12476,-0.28286 -0.23253,-0.54806 -0.32269,-0.7976 -0.09081,-0.24889 -0.13523,-0.41874 -0.13523,-0.50887 0,-0.13589 0.08949,-0.243 0.27108,-0.3227 0.18094,-0.07904 0.56572,-0.17504 1.15428,-0.28807 l 0.44091,-0.06793 c 0.113,-0.113 0.16398,-0.27175 0.15287,-0.47556 -0.01173,-0.20315 -0.09667,-0.32793 -0.2541,-0.37299 -0.48208,0.03788 -1.07326,0.06531 -1.7742,0.08165 v -7.20128 c -2e-5,-0.39719 0.01636,-0.71141 0.04961,-0.94331 m 2.81017,25.40623 c 0,0.90537 -0.01173,1.62917 -0.03398,2.172 -0.02286,0.54285 -0.10187,0.96745 -0.23776,1.27252 -0.04834,0.10974 -0.10583,0.20642 -0.17181,0.29069 -0.0013,6.5e-4 -0.0034,0.002 -0.0046,0.003 -0.3952,-0.0758 -0.72835,-0.16329 -0.99746,-0.26324 -0.44682,-0.16526 -0.76885,-0.46315 -0.96745,-0.89297 -0.19857,-0.4298 -0.3227,-1.03342 -0.37233,-1.81142 -0.04966,-0.77671 -0.07449,-1.81142 -0.07449,-3.10091 v -7.06605 l 1.7742,3.45692 c 0.24825,0.47556 0.44615,0.8773 0.5938,1.20523 0.14697,0.32859 0.2541,0.63363 0.32204,0.91648 0.06793,0.2835 0.113,0.58268 0.13586,0.89952 0.0222,0.31682 0.03398,0.71267 0.03398,1.18759 -2e-5,0 -2e-5,1.73106 -2e-5,1.73106 l 4e-5,-2.7e-4 z m 14.00733,4.19704 c 0.14697,-0.40762 0.2933,-0.84268 0.44095,-1.30648 0.14697,-0.46381 0.28284,-0.9165 0.40763,-1.35808 0.1241,-0.44095 0.22016,-0.8087 0.28873,-1.10331 -0.0686,-0.15744 -0.19859,-0.25935 -0.39067,-0.30507 -0.19269,-0.0451 -0.34489,-0.0229 -0.45856,0.0679 -0.45269,0.88187 -0.88775,1.60631 -1.30647,2.172 -0.41872,0.56635 -0.78649,0.93937 -1.10265,1.1203 -0.1816,0.0908 -0.39063,0.16919 -0.62842,0.23711 -0.23714,0.0679 -0.52062,0.11888 -0.84857,0.15286 -0.32791,0.034 -0.7238,0.0627 -1.18757,0.0849 -0.46381,0.0229 -1.02427,0.034 -1.68012,0.034 -0.74665,0 -1.36329,-0.0222 -1.84996,-0.0679 -0.48667,-0.0451 -0.87665,-0.10192 -1.17058,-0.1692 -0.29462,-0.0686 -0.52651,-0.14765 -0.6957,-0.23777 -0.16985,-0.0901 -0.3005,-0.19206 -0.39063,-0.30572 -0.27174,-0.29396 -0.44682,-0.72967 -0.52587,-1.30647 -0.07968,-0.57746 -0.1189,-1.31822 -0.1189,-2.22359 v -2.23993 c 0.0052,-0.31028 0.0144,-0.58464 0.02747,-0.81982 0.0222,-0.41806 0.08425,-0.8087 0.18617,-1.17058 0.1019,-0.3619 0.25996,-0.74729 0.47556,-1.15428 0.05097,-0.0973 0.10843,-0.20249 0.16919,-0.31289 0.08165,-0.003 0.16656,-0.004 0.2613,-0.004 h 1.96885 c 0.65586,0 1.19347,0.011 1.61218,0.034 0.41806,0.0222 0.75186,0.0673 1.0014,0.13523 0.33904,0.0908 0.58204,0.24953 0.72966,0.47556 0.14699,0.22601 0.25412,0.49774 0.32272,0.8146 l 0.30505,1.32343 c 0.09015,0.11367 0.24302,0.16398 0.45794,0.15287 0.2149,-0.011 0.35664,-0.0732 0.4246,-0.18683 0,-0.38477 -0.02288,-0.87078 -0.06795,-1.45932 -0.04574,-0.58857 -0.06795,-1.18821 -0.06795,-1.799 0,-0.65586 0.0222,-1.28948 0.06795,-1.90027 0.04506,-0.61142 0.06795,-1.1203 0.06795,-1.52793 -0.06795,-0.11234 -0.20971,-0.17504 -0.4246,-0.18681 -0.21492,-0.0105 -0.36778,0.0399 -0.45794,0.15285 l -0.27109,1.39204 c -0.09077,0.42982 -0.19857,0.71856 -0.32269,0.86553 -0.12478,0.14699 -0.28871,0.2541 -0.49188,0.32203 -0.20382,0.0679 -0.55525,0.1189 -1.05235,0.15285 -0.49842,0.034 -1.10921,0.051 -1.83298,0.051 h -1.53378 c 0.01173,-0.0189 0.0222,-0.0366 0.03398,-0.0562 l 2.13804,-3.69927 c 0.42917,-0.72443 0.81982,-1.39726 1.17125,-2.0198 0.35013,-0.62189 0.6957,-1.17125 1.0347,-1.64615 0.33971,-0.4749 0.68981,-0.85965 1.05239,-1.1536 0.07513,-0.06076 0.15219,-0.11563 0.23124,-0.16724 0.22994,0.09146 0.43245,0.19925 0.60685,0.32532 0.28286,0.20317 0.51408,0.44095 0.69568,0.71267 0.18094,0.27109 0.32793,0.57682 0.44158,0.91582 0.11235,0.33969 0.23714,0.71333 0.37299,1.12032 0.09015,0.11367 0.23778,0.15874 0.44158,0.13589 0.20315,-0.0222 0.339,-0.09015 0.40694,-0.20382 C 97.13305,97.80546 97.09383,97.3926 97.06053,96.92879 97.02592,96.465 96.98606,96.01231 96.94099,95.57137 96.89591,95.12979 96.83648,94.73589 96.78878,94.38316 96.67055,93.51043 96.69732,92.7651 96.69732,92.7651 c 0,-1.71931 -0.48795,-3.22242 -1.23264,-4.48054 -0.74404,-1.25684 -1.69581,-2.24908 -2.85333,-2.97678 -1.15817,-0.72772 -2.5143,-1.2405 -4.06898,-1.53836 -1.55536,-0.29787 -3.37463,-0.44682 -5.45844,-0.44682 -2.08448,0 -3.91287,0.02482 -5.48324,0.07447 -1.5717,0.04964 -3.01925,0.15742 -4.3427,0.32272 -0.19794,0.09929 -0.30575,0.29005 -0.32206,0.57026 -0.01707,0.28156 0.05684,0.50494 0.22342,0.67022 l 1.78594,0.19859 c 0.56244,0.06663 1.00009,0.17376 1.31559,0.32269 0.31356,0.14828 0.54546,0.42133 0.69438,0.81851 0.14893,0.39716 0.23975,0.92628 0.27305,1.58802 0.03266,0.66172 0.04964,1.52205 0.04964,2.58027 v 18.31147 c 0,1.28948 -0.01707,2.32421 -0.04964,3.10091 -0.0333,0.77801 -0.14893,1.3816 -0.34754,1.81142 -0.19856,0.42984 -0.49645,0.7277 -0.89296,0.89297 -0.39718,0.16593 -0.96025,0.29787 -1.68729,0.39715 l -1.04256,0.14894 c -0.1509,0.15088 -0.21819,0.35731 -0.2038,0.61731 -0.0013,0.53107 -0.0071,0.69963 -0.01828,1.29797 -0.01173,0.68522 -0.04313,1.45083 -0.09342,2.29807 0.05029,0.12478 0.19273,0.19926 0.42982,0.2247 0.23646,0.0242 0.405,-0.0255 0.50496,-0.14958 l 0.11168,-0.7852 c 0.07515,-0.54807 0.17442,-0.97135 0.29918,-1.2699 0.12478,-0.29919 0.34884,-0.52325 0.67285,-0.67284 0.32334,-0.14958 0.77801,-0.23778 1.36397,-0.2626 0.58528,-0.0242 1.36395,-0.0366 2.33597,-0.0366 h 4.70852 c 0.19922,0 0.35536,0.0125 0.4677,0.0366 0.1117,0.0248 0.19271,0.0941 0.24236,0.20643 0.04964,0.11169 0.08099,0.28609 0.09406,0.52258 0.01173,0.23711 0.01831,0.56635 0.01831,0.99029 0,0.74795 -0.0934,1.30843 -0.28023,1.68208 -0.18681,0.37366 -0.49188,0.69766 -0.91584,0.97202 -0.42394,0.29918 -0.891,0.61013 -1.40117,0.93411 -0.51147,0.32334 -1.02231,0.64737 -1.5325,0.97135 -0.51081,0.32402 -1.00272,0.63561 -1.47632,0.93479 -0.4736,0.29853 -0.88448,0.57288 -1.2333,0.82178 -0.9472,0.67284 -1.72585,1.30191 -2.33597,1.88786 -0.61011,0.5853 -1.0896,1.17712 -1.43844,1.77482 -0.34947,0.59771 -0.59184,1.22678 -0.72901,1.88722 -0.13652,0.66041 -0.20512,1.38877 -0.20512,2.18636 0,0.72247 0.06205,1.2712 0.18617,1.64422 0.07513,0.0999 0.16853,0.1437 0.28089,0.13135 0.1117,-0.0133 0.19271,-0.0692 0.243,-0.16854 0.04898,-0.49845 0.16787,-0.97135 0.3547,-1.41949 0.18681,-0.44877 0.41675,-0.83549 0.69177,-1.15884 0.52323,-0.64802 1.11442,-1.25814 1.77484,-1.83167 0.65975,-0.57288 1.38878,-1.15819 2.18637,-1.75657 0.79694,-0.59771 1.69385,-1.21434 2.6907,-1.84931 0.99618,-0.63559 2.09294,-1.32737 3.28905,-2.07467 0.14956,-0.0999 0.30439,-0.18095 0.46705,-0.243 0.16134,-0.0627 0.30505,-0.0438 0.42982,0.0562 0.17376,0.47295 0.4357,0.97788 0.78453,1.51352 0.34882,0.53564 0.77867,1.04061 1.28948,1.5142 0.51084,0.47294 1.10855,0.8649 1.79378,1.17712 0.68524,0.31093 1.47632,0.46708 2.37319,0.46708 1.32083,0 2.40457,-0.29329 3.25182,-0.87861 0.8466,-0.5853 1.50701,-1.32671 1.98058,-2.22363 0.47296,-0.87207 0.77867,-1.83755 0.91584,-2.89579 0.13652,-1.05956 0.21033,-2.17466 0.20511,-3.34588 -0.0092,-2.17006 0.38144,-3.551 0.38144,-3.55099 m -77.5008,78.31081 -0.13932,0.20916 c -1.25568,1.67403 -3.22613,2.66779 -5.24866,2.66779 -3.5749,0 -6.48681,-2.91185 -6.48681,-6.50399 0,-3.57488 2.91193,-6.4868 6.48681,-6.4868 1.74354,0 3.38263,0.67993 4.6034,1.9181 l 0.57545,0.5929 -2.16217,1.88318 -0.50567,-0.48816 c -0.68018,-0.66272 -1.56953,-1.02874 -2.51099,-1.02874 -1.98793,0 -3.60957,1.62164 -3.60957,3.60955 0,2.00507 1.62164,3.62702 3.60957,3.62702 0.95892,0 1.83081,-0.36628 2.51099,-1.029 v -1.5344 h -3.20868 v -2.87732 h 6.08564 c 0,0 0,5.44067 2e-5,5.44067 v 3e-5 z m 16.47643,-6.76582 h -5.42316 v 1.06359 h 4.74329 v 3.01667 h -4.74329 v 2.37165 h 5.30126 v 2.99915 h -8.33535 v -12.41557 h 8.45721 l 4e-5,2.96452 z m 6.53753,3.17342 c 0,-3.57457 2.8947,-6.46905 6.4519,-6.46905 3.53966,0 6.46937,2.89448 6.46937,6.46905 0,3.54004 -2.92969,6.43445 -6.46937,6.43445 -3.55717,-1e-5 -6.4519,-2.89442 -6.4519,-6.43445 z m 47.9284,142.04232 c 0,1.15625 0.89747,1.93066 1.97168,1.93066 0.78811,0 1.6582,-0.47559 2.03906,-1.22363 l -2.27051,-3.18066 c -1.37303,0.95112 -1.74021,1.71286 -1.74023,2.47361 v 3e-5 z m -16.64842,-4.2002 c -1.00585,0 -1.50878,0.65234 -1.53613,2.44629 h 3.07324 c -0.02734,-1.79395 -0.53027,-2.44629 -1.53712,-2.44629 z m 6.02539,0 c -0.4619,0 -0.87012,0.24414 -1.1416,0.63867 -0.35353,0.50293 -0.4629,1.20996 -0.4629,2.46094 0,2.66406 0.74805,3.08594 1.57716,3.08594 0.81543,0 1.57716,-0.42188 1.57716,-3.08594 0,-2.62402 -0.76173,-3.09961 -1.54981,-3.09961 z M 62.71865,285.92867 c -0.81543,0 -1.57716,0.4209 -1.57716,3.08594 0,2.67773 0.76173,3.09958 1.57716,3.09958 0.8291,0 1.57716,-0.42185 1.57716,-3.09958 -2e-5,-2.66504 -0.74807,-3.08594 -1.57716,-3.08594 z m 32.18699,40.70216 c 0,-0.62598 -0.47657,-1.08789 -1.10156,-1.08789 -0.63867,0 -1.11522,0.46191 -1.11522,1.08789 0,0.5166 0.36718,1.2373 0.91113,1.9707 1.07421,-0.81543 1.30565,-1.44046 1.30566,-1.9707 z M 68.71668,285.92865 c -1.00587,0 -1.50878,0.65234 -1.53613,2.44629 h 3.07324 c -0.02736,-1.794 -0.53029,-2.44629 -1.53712,-2.44629 z m -11.07764,41.93946 c -0.91015,0 -1.61719,0.78809 -1.61719,3.08594 0,2.31055 0.70702,3.09961 1.61719,3.09961 0.91113,0 1.61817,-0.78906 1.61817,-3.09961 0,-2.29785 -0.70704,-3.08594 -1.61817,-3.08594 z M 92.1239,285.92865 c -1.00585,0 -1.50878,0.65234 -1.53613,2.44629 h 3.07324 c -0.02736,-1.794 -0.53027,-2.44629 -1.53712,-2.44629 z m 14.38966,3.09961 -0.6797,0.1767 c -0.81639,0.2168 -1.2373,0.63867 -1.2373,1.49512 0,0.84277 0.43458,1.41404 1.1416,1.41404 0.99219,0 1.67188,-0.74802 1.67188,-2.03904 v -1.52344 h -0.0264 c -0.082,0.24512 -0.54395,0.39453 -0.87012,0.47656 l 4e-5,5e-5 z m 10.78514,-3.09961 c -1.00585,0 -1.50878,0.65234 -1.53612,2.44629 h 3.07324 c -0.0273,-1.794 -0.53027,-2.44629 -1.53712,-2.44629 z m -41.25096,4.2002 c 0,1.15625 0.89747,1.93064 1.97168,1.93064 0.78809,0 1.6582,-0.47556 2.03908,-1.22361 l -2.27051,-3.18066 c -1.37305,0.9512 -1.74025,1.71292 -1.74025,2.47363 z m 3.24999,-5.4375 c 0,-0.62598 -0.47657,-1.08789 -1.10156,-1.08789 -0.63867,0 -1.11522,0.46191 -1.11522,1.08789 0,0.5166 0.36718,1.2373 0.91113,1.9707 1.07421,-0.81546 1.30565,-1.44046 1.30566,-1.9707 z m 21.12207,1.2373 c -1.00585,0 -1.50878,0.65234 -1.53613,2.44629 h 3.07324 c -0.0273,-1.794 -0.53027,-2.44629 -1.53712,-2.44629 z m -41.91796,3.08594 c 0,-2.29785 -0.70702,-3.08594 -1.61817,-3.08594 -0.91015,0 -1.61719,0.78809 -1.61719,3.08594 0,2.31055 0.70702,3.09958 1.61719,3.09958 0.91113,-3e-5 1.61817,-0.78904 1.61817,-3.09958 z m 51.03224,1.30469 h 0.81543 v 0.19043 c 0,1.06055 0.4619,1.60447 1.38672,1.60447 0.87012,0 1.42771,-0.48923 1.42771,-1.29197 0,-0.63867 -0.25879,-1.04688 -0.97949,-1.33203 l -1.1416,-0.44824 c -1.01954,-0.39453 -1.38672,-0.99316 -1.38672,-1.71387 0,-1.48145 0.9248,-2.08008 2.14844,-2.08008 1.3594,0 1.98437,0.69336 1.98437,2.0127 v 0.2041 h -0.8154 v -0.2041 c 0,-0.93848 -0.43555,-1.33203 -1.18261,-1.33203 -0.95214,0 -1.31934,0.50293 -1.31934,1.22266 0,0.50391 0.16309,0.89746 0.97949,1.21094 l 1.18261,0.44824 c 0.97852,0.36719 1.34569,1.04688 1.34569,1.83496 0,1.23728 -0.70702,2.14841 -2.22949,2.14841 -1.48242,0 -2.21584,-0.61133 -2.21584,-2.24314 0,3e-5 0,-0.23142 2e-5,-0.23142 v -3e-5 z m -2.08302,1.49609 v -0.24512 h -0.0273 c -0.32617,0.95212 -1.06055,1.22361 -1.86229,1.22361 -1.26464,0 -1.83497,-0.78809 -1.83497,-2.03904 0,-0.95215 0.43458,-1.71289 1.4541,-1.99902 l 1.53613,-0.43457 c 0.57129,-0.16303 0.69335,-0.2998 0.69335,-1.14258 0,-0.92383 -0.5166,-1.25 -1.24999,-1.25 -0.96583,0 -1.38672,0.58398 -1.38672,1.63086 h -0.81639 c 0,-1.48145 0.70704,-2.31152 2.23047,-2.31152 1.49511,0 2.03906,0.77539 2.03906,1.91699 v 4.26953 c 0,0.40818 0.13574,0.59763 0.42089,0.59763 h 0.23147 v 0.59863 c -0.14941,0.0548 -0.27148,0.082 -0.38085,0.082 -0.63869,0 -1.04688,-0.15039 -1.04688,-0.89746 l -5e-5,1.1e-4 z m -20.82763,42.15626 c 0.16307,0 0.32617,-0.0265 0.50294,-0.0811 v 0.67969 c -0.0957,0.0546 -0.2998,0.082 -0.57129,0.082 -1.10156,0 -1.52247,-0.2998 -1.52247,-1.26465 v -5.35645 h -0.99316 v -0.68066 h 0.99316 v -1.99805 h 0.81545 v 1.99805 h 1.27833 v 0.68066 h -1.27833 v 5.17969 c 0,0.57129 0.24512,0.76074 0.7754,0.76074 l -2e-5,8e-5 z m -5.28663,-41.34086 -0.85646,-1.18259 c -0.54395,0.8154 -1.38672,1.34568 -2.58302,1.34568 -1.67284,0 -2.71971,-1.14157 -2.71971,-2.56931 0,-1.01953 0.5166,-1.82227 1.40039,-2.50195 l 0.80272,-0.61133 c -0.69335,-0.91113 -1.11522,-1.63184 -1.11522,-2.39356 0,-1.16895 0.91113,-1.79395 1.98535,-1.79395 1.12793,0 1.86229,0.7207 1.86229,1.79395 0,0.78906 -0.32617,1.52344 -1.71289,2.50195 l 2.09374,2.93652 c 0.24414,-0.59766 0.33984,-1.2373 0.35353,-1.83496 h 0.81543 c 0,0.84277 -0.24512,1.74023 -0.6797,2.51465 l 1.27833,1.7949 c 0,0 -0.92474,3e-5 -0.92476,3e-5 v -3e-5 z m -26.94043,-3.61618 c 0,-2.50195 0.89648,-3.7666 2.48729,-3.7666 1.59081,0 2.48829,1.26465 2.48829,3.7666 0,2.51465 -0.89747,3.77927 -2.48829,3.77927 -1.59082,0 -2.48729,-1.26462 -2.48729,-3.77927 z m 9.98144,3.61618 v -1.19626 h -0.02734 c -0.21778,0.82907 -0.91113,1.35935 -1.76757,1.35935 -1.59083,0 -2.31152,-1.27829 -2.31152,-3.77927 0,-2.48828 0.7207,-3.7666 2.31152,-3.7666 0.89747,0 1.50878,0.49023 1.68555,1.25098 h 0.02734 v -3.5752 h 0.81543 v 9.70701 h -0.73341 z m 4.33886,-0.5166 c 0.85645,0 1.38672,-0.61228 1.52345,-1.87595 h 0.81543 c -0.12206,1.53613 -0.96581,2.55564 -2.32521,2.55564 -1.52247,0 -2.41993,-1.06052 -2.41993,-3.77927 0,-2.50195 0.89747,-3.7666 2.48828,-3.7666 1.6045,0 2.32521,1.10156 2.32521,3.50781 v 0.2998 h -3.94336 v 0.33984 c 0,2.08008 0.73438,2.71878 1.53613,2.71878 z m 18.36229,-5.57419 c 0.31251,-0.80176 0.97852,-1.29199 1.8213,-1.29199 0.0957,0 0.19044,0.0142 0.28613,0.0409 v 0.81543 c -0.13671,-0.0263 -0.27246,-0.04 -0.39452,-0.04 -0.89747,0 -1.74021,0.65234 -1.74021,2.05273 v 4.51365 h -0.81639 v -7.2197 h 0.81639 v 1.12891 l 0.02731,1.1e-4 z m 2.63869,2.47461 c 0,-2.50195 0.89747,-3.7666 2.48828,-3.7666 1.6045,0 2.32519,1.10156 2.32519,3.50781 v 0.2998 h -3.94336 v 0.33984 c 0,2.08008 0.73438,2.71872 1.53613,2.71872 0.85645,0 1.38672,-0.61228 1.52343,-1.87595 h 0.81543 c -0.12206,1.53613 -0.96583,2.55564 -2.32519,2.55564 -1.52247,0 -2.41993,-1.06049 -2.41993,-3.77924 v -3e-5 h 2e-5 z m 6.14745,3.61618 v -9.70701 h 0.81543 v 9.70701 z m -45.15624,-9.87009 c 1.97168,0 2.78711,1.40039 2.78711,2.99121 h -0.87012 c 0,-1.31934 -0.66603,-2.25684 -1.91698,-2.25684 -1.38672,0 -2.22949,1.1416 -2.22949,4.28223 0,3.14063 0.84277,4.2822 2.22949,4.2822 1.22363,0 1.91698,-1.04685 2.01269,-2.71872 h 0.87012 c -0.12306,2.21582 -1.14258,3.4531 -2.88281,3.4531 -1.98439,0 -3.09961,-1.53611 -3.09961,-5.01658 0,-3.48047 1.11523,-5.01658 3.09961,-5.01658 v -3e-5 z m -2.34424,46.95606 c 0,-3.48047 1.11522,-5.0166 3.09959,-5.0166 1.97168,0 2.78711,1.40039 2.78711,2.99121 h -0.8701 c 0,-1.31934 -0.66603,-2.25684 -1.91698,-2.25684 -1.38672,0 -2.22949,1.1416 -2.22949,4.28223 0,3.14063 0.84277,4.28223 2.22949,4.28223 1.22363,0 1.91698,-1.04688 2.01271,-2.71875 h 0.87012 c -0.12306,2.21582 -1.14258,3.45313 -2.88281,3.45313 -1.98441,0 -3.09964,-1.53619 -3.09964,-5.01658 z m 9.27442,5.01658 c -1.58983,0 -2.48729,-1.26465 -2.48729,-3.7793 0,-2.50195 0.89747,-3.7666 2.48729,-3.7666 1.59083,0 2.48828,1.26465 2.48828,3.7666 0,2.51465 -0.89746,3.7793 -2.48828,3.7793 z m 6.09376,-6.86524 c -0.95214,0 -1.59083,0.7334 -1.59083,1.84863 v 4.85352 h -0.81641 v -7.21973 h 0.73438 v 1.00684 h 0.02732 c 0.4082,-0.80273 1.11523,-1.16992 1.84864,-1.16992 1.10156,0 1.84962,0.57129 1.84962,1.93066 v 5.45215 h -0.81543 v -5.2207 c 0,-0.99221 -0.4082,-1.48145 -1.2373,-1.48145 z m 3.25195,3.08594 c 0,-2.50195 0.89648,-3.7666 2.48731,-3.7666 1.36034,0 2.14844,0.83008 2.23047,2.31152 H 70.8861 c -0.09472,-1.12793 -0.54395,-1.63086 -1.41406,-1.63086 -0.88379,0 -1.61719,0.54297 -1.61719,3.09961 0,2.71875 0.77442,3.08594 1.53613,3.08594 0.8291,0 1.3594,-0.6123 1.49513,-1.87598 h 0.81639 c -0.12306,1.53613 -0.96583,2.55566 -2.29785,2.55566 -1.52343,0 -2.41993,-1.06055 -2.41993,-3.7793 h 4e-5 z m 5.61621,0 c 0,-2.50195 0.89747,-3.7666 2.48828,-3.7666 1.6045,0 2.32521,1.10156 2.32521,3.50781 v 0.2998 h -3.94336 v 0.33984 c 0,2.08008 0.73438,2.71875 1.53613,2.71875 0.85646,0 1.38672,-0.6123 1.52345,-1.87598 h 0.81543 c -0.12206,1.53613 -0.96581,2.55566 -2.32521,2.55566 -1.52247,0 -2.41993,-1.06055 -2.41993,-3.7793 z m 8.54003,3.7793 c -0.89648,0 -1.5088,-0.48926 -1.68555,-1.25098 h -0.02736 v 3.48047 h -0.81543 v -9.61231 h 0.73438 v 1.03418 h 0.02736 c 0.25781,-0.66699 0.85646,-1.19727 1.78029,-1.19727 1.6045,0 2.29785,1.27832 2.29785,3.78027 -3e-5,2.48731 -0.72073,3.76563 -2.31154,3.76563 z m 14.94728,-1.34568 c -0.54397,0.81543 -1.38672,1.3457 -2.58302,1.3457 -1.67285,0 -2.71971,-1.1416 -2.71971,-2.56934 0,-1.01953 0.5166,-1.82227 1.40039,-2.50195 l 0.80272,-0.61133 c -0.69335,-0.91113 -1.11522,-1.63184 -1.11522,-2.39356 0,-1.16895 0.91113,-1.79395 1.98535,-1.79395 1.12793,0 1.86229,0.7207 1.86229,1.79395 0,0.78906 -0.32617,1.52344 -1.71289,2.50195 l 2.09374,2.93652 c 0.24416,-0.59766 0.33984,-1.2373 0.35351,-1.83496 h 0.81543 c 0,0.84277 -0.24512,1.74023 -0.6797,2.51465 l 1.27833,1.79492 h -0.9248 l -0.85642,-1.18262 z m 1.92528,-44.37306 c 0,-2.50195 0.89747,-3.7666 2.48828,-3.7666 1.6045,0 2.32519,1.10156 2.32519,3.50781 v 0.2998 h -3.94336 v 0.33984 c 0,2.08008 0.73438,2.71872 1.53614,2.71872 0.85645,0 1.38672,-0.61228 1.52343,-1.87595 h 0.81543 c -0.12206,1.53613 -0.96583,2.55564 -2.32519,2.55564 -1.52247,0 -2.41993,-1.06049 -2.41993,-3.77924 v -3e-5 z m 3.72022,40.70216 c 0,-3.48047 1.11522,-5.0166 3.09959,-5.0166 1.84962,0 2.6787,1.20996 2.78711,2.88184 h -0.87012 c 0,-1.16895 -0.63867,-2.14746 -1.91698,-2.14746 -1.38672,0 -2.22949,1.1416 -2.22949,4.28223 0,3.14063 0.84277,4.28223 2.22949,4.28223 1.30567,0 2.02638,-1.16895 2.02638,-3.43945 v -0.2041 h -2.29785 v -0.73438 h 3.11328 v 4.94922 h -0.6797 v -1.60449 h -0.0273 c -0.29883,1.07422 -1.16896,1.76758 -2.13477,1.76758 -1.98438,-5e-5 -3.09961,-1.53619 -3.09961,-5.01666 l -4e-5,5e-5 z m 7.24903,-4.85352 h 0.87012 v 6.97461 c 0,1.4541 0.62598,2.16113 1.90333,2.16113 1.27833,0 1.9043,-0.70703 1.9043,-2.16113 v -6.97461 h 0.87012 v 6.98828 c 0,2.03906 -0.99316,2.88184 -2.7744,2.88184 -1.78029,0 -2.77344,-0.84277 -2.77344,-2.88184 -2e-5,0 -2e-5,-6.98828 -3e-5,-6.98828 z m 6.99121,9.70703 v -9.70703 h 0.87012 v 9.70703 z m 3.73193,-45.51466 h -3.94336 v 0.33984 c 0,2.08008 0.73439,2.71872 1.53612,2.71872 0.85643,0 1.38672,-0.61228 1.52344,-1.87595 h 0.81543 c -0.12206,1.53613 -0.96583,2.55564 -2.3252,2.55564 -1.52247,0 -2.41994,-1.06052 -2.41994,-3.77927 0,-2.50195 0.89747,-3.7666 2.48828,-3.7666 1.60449,0 2.3252,1.10156 2.3252,3.50781 v 0.2998 h 3e-5 z m 12.07227,-95.57686 c 1.08112,0 2.03999,-0.45325 3.01667,-1.74384 l 2.38879,1.7613 c -1.5518,2.0752 -3.38294,2.98169 -5.40546,2.98169 -3.55744,0 -6.46938,-2.91185 -6.46938,-6.46906 0,-3.55743 2.91191,-6.45188 6.46938,-6.45188 2.05744,0 3.92346,0.95892 5.47528,3.03411 l -2.42369,1.77843 c -0.9767,-1.30774 -1.97046,-1.83081 -3.05157,-1.83081 -1.93556,0 -3.47017,1.55183 -3.47017,3.47013 0,1.93557 1.53461,3.46994 3.47015,3.46992 0,1e-5 0,0 0,0 h 1e-5 z m 20.78338,1.13344 c -0.40118,0.57551 -0.99409,0.99383 -1.65655,1.3252 -0.69763,0.36625 -1.41248,0.471 -2.19709,0.471 -0.41863,0 -0.87189,-0.0524 -1.25566,-0.13973 -1.25533,-0.26153 -2.40626,-0.83695 -3.8885,-2.1098 l 1.98792,-2.28437 c 1.09851,0.95893 1.74377,1.3252 2.51099,1.46483 0.22663,0.0521 0.45326,0.0871 0.66272,0.0871 0.34851,0 0.66242,-0.0695 0.90656,-0.19169 0.2094,-0.10471 0.57543,-0.33137 0.57543,-0.80211 0,-0.48816 -0.90681,-0.78463 -1.69146,-0.94172 -0.34851,-0.0695 -2.05744,-0.43579 -2.75506,-0.85442 -1.18587,-0.69739 -1.7959,-1.76097 -1.7959,-3.08649 0,-0.73223 0.24409,-1.42986 0.64497,-2.0225 0.40118,-0.558 0.95924,-0.99409 1.60449,-1.29053 l -0.0174,0.0178 c 0.66242,-0.3139 1.41242,-0.47076 2.12727,-0.47076 0.29647,0 0.57543,0.0178 0.92425,0.0697 1.11603,0.19169 2.14474,0.64502 3.57463,1.83081 l -1.9181,2.30181 c -1.29054,-1.06359 -1.95299,-1.22072 -2.61571,-1.22072 -0.33137,0 -0.5929,0.0697 -0.80211,0.17457 -0.33137,0.13938 -0.50562,0.38344 -0.50562,0.61004 0,0.471 0.62782,0.69763 1.63909,0.90686 0.10478,0.0348 0.22662,0.0348 0.34882,0.0697 0.67993,0.15681 1.69146,0.36633 2.35388,0.74976 h -0.0174 c 1.25568,0.69763 1.9181,1.7962 1.9181,3.15625 0,0.8021 -0.20917,1.5518 -0.66239,2.17961 v 0 z"
         fill="#252626" />
    </g>
    <g
       id="uuid-a14b6fc8-3314-44e6-994f-bcd9902ac4ea"
       data-name="g67">
      <g
         id="uuid-e5166977-d6a0-4161-9cf8-b60ffb8ae142"
         data-name="g40">
        <circle
           id="uuid-d5f8d78b-d566-40cf-b330-cad33e643d6b"
           data-name="circle22"
           cx="23.00004"
           cy="7.0562501"
           r="6.7708302"
           fill="url(#uuid-2c2b166f-004d-49e2-831b-408601d5376b)"
           style="fill:url(#uuid-2c2b166f-004d-49e2-831b-408601d5376b)" />
        <circle
           id="uuid-a96d0a16-c929-4fa9-acb8-94539eceb3de"
           data-name="circle29"
           cx="23.00004"
           cy="7.0556998"
           r="6.0541"
           fill="url(#uuid-481fde16-ffb8-4fbc-81fa-f603a72083f4)"
           style="fill:url(#uuid-481fde16-ffb8-4fbc-81fa-f603a72083f4)" />
        <circle
           id="uuid-64e1c07a-fd34-4b0a-875c-3cc717c908f9"
           data-name="circle36"
           cx="23.00004"
           cy="7.0556998"
           r="5.5884099"
           fill="url(#uuid-45ec1abe-108b-4b09-9944-912d4ffe3504)"
           style="fill:url(#uuid-45ec1abe-108b-4b09-9944-912d4ffe3504)" />
        <path
           id="uuid-c724b1d1-6263-4a86-86f1-6054168d784e"
           data-name="path38"
           d="M 26.61346,6.33806 24.56804,6.09299 C 24.25405,6.05537 24.00656,5.80778 23.96907,5.49377 L 23.72502,3.44973 C 23.71439,3.36063 23.63882,3.29355 23.54909,3.29355 h -1.09806 c -0.08973,0 -0.16528,0.06706 -0.17593,0.15614 L 22.03048,5.4949 C 21.99292,5.80896 21.74531,6.0565 21.43124,6.09401 L 19.38671,6.3381 c -0.0891,0.01063 -0.15618,0.0862 -0.15618,0.17593 v 1.09812 c 0,0.08972 0.06706,0.16528 0.15614,0.17593 l 2.04478,0.24459 c 0.31399,0.03756 0.56153,0.28508 0.59909,0.59908 l 0.24457,2.04471 c 0.01067,0.08908 0.08622,0.15614 0.17593,0.15614 h 1.09813 c 0.08971,0 0.16526,-0.06704 0.17593,-0.15611 l 0.24501,-2.04498 c 0.03762,-0.31394 0.28512,-0.5614 0.59908,-0.59895 l 2.04425,-0.24448 c 0.08908,-0.01065 0.15614,-0.0862 0.15614,-0.17593 V 6.51398 c -2e-5,-0.08971 -0.06706,-0.16526 -0.15612,-0.17593 z"
           fill="#171717" />
      </g>
      <g
         id="uuid-4ddb68e2-f40e-49c3-a59a-9ccae7363410"
         data-name="g65">
        <circle
           id="uuid-686e2535-c283-4325-aa1e-24785607e1e0"
           data-name="circle47"
           cx="23.00004"
           cy="373.05624"
           r="6.7708302"
           fill="url(#uuid-b1256dd9-01d6-4d87-bf58-35206387586c)"
           style="fill:url(#uuid-b1256dd9-01d6-4d87-bf58-35206387586c)" />
        <circle
           id="uuid-dcc4dbc7-55f0-45c7-84b8-4c5e40c242f8"
           data-name="circle54"
           cx="23.00004"
           cy="373.05569"
           r="6.0541"
           fill="url(#uuid-ecc7ab38-d837-48c1-b7c7-8856e0fe3f79)"
           style="fill:url(#uuid-ecc7ab38-d837-48c1-b7c7-8856e0fe3f79)" />
        <circle
           id="uuid-b754635d-af5f-4515-9469-26b36ccdef94"
           data-name="circle61"
           cx="23.00004"
           cy="373.05569"
           r="5.5884099"
           fill="url(#uuid-87562af2-dfbe-41fa-b61a-c2f1aee7a3ac)"
           style="fill:url(#uuid-87562af2-dfbe-41fa-b61a-c2f1aee7a3ac)" />
        <path
           id="uuid-3942c791-14a5-4900-a070-4d40b6831762"
           data-name="path63"
           d="m 26.61346,372.33805 -2.04542,-0.24506 c -0.31399,-0.0377 -0.56148,-0.28521 -0.59897,-0.59923 l -0.24405,-2.04403 c -0.01067,-0.0891 -0.0862,-0.15628 -0.17593,-0.15628 h -1.09806 c -0.08973,0 -0.16528,0.067 -0.17593,0.15609 l -0.24462,2.04522 c -0.03756,0.31405 -0.28517,0.5616 -0.59924,0.59909 l -2.04453,0.24411 c -0.0891,0.0107 -0.15618,0.0862 -0.15618,0.176 v 1.09814 c 0,0.0898 0.06706,0.16534 0.15614,0.17584 l 2.04478,0.24457 c 0.31399,0.0375 0.56153,0.2851 0.59909,0.59909 l 0.24457,2.04471 c 0.01067,0.0891 0.08622,0.15609 0.17593,0.15609 h 1.09813 c 0.08971,0 0.16526,-0.067 0.17593,-0.15609 l 0.24501,-2.04498 c 0.03762,-0.31394 0.28512,-0.56139 0.59908,-0.59896 l 2.04425,-0.24447 c 0.08908,-0.0107 0.15614,-0.0862 0.15614,-0.176 v -1.09817 c -2e-5,-0.0898 -0.06706,-0.16534 -0.15612,-0.176 v 3e-4 z"
           fill="#171717" />
      </g>
    </g>
    <g
       id="uuid-41a72071-4d36-4893-b594-ed9b4fa029cf"
       data-name="g119">
      <g
         id="uuid-fe74abca-fa0a-4292-bba9-7816f982b40b"
         data-name="g92">
        <circle
           id="uuid-28348e1d-f4ec-4dcf-8b75-25ee8a455481"
           data-name="circle74"
           cx="141.69003"
           cy="7.0562501"
           r="6.7708201"
           fill="url(#uuid-2101cf44-2a33-4326-8606-fa65c11449ae)"
           style="fill:url(#uuid-2101cf44-2a33-4326-8606-fa65c11449ae)" />
        <circle
           id="uuid-9ff38e65-f8bb-4ba3-b657-b488cde4b61f"
           data-name="circle81"
           cx="141.69003"
           cy="7.0556998"
           r="6.0541"
           fill="url(#uuid-0bb3c6ab-1356-4a46-9f9b-1de294ec5834)"
           style="fill:url(#uuid-0bb3c6ab-1356-4a46-9f9b-1de294ec5834)" />
        <circle
           id="uuid-33bce0ae-67dd-43b3-9bf1-3ef4fab55e09"
           data-name="circle88"
           cx="141.69003"
           cy="7.0556998"
           r="5.5884099"
           fill="url(#uuid-05e80591-80e1-448d-ba32-6390a6772552)"
           style="fill:url(#uuid-05e80591-80e1-448d-ba32-6390a6772552)" />
        <path
           id="uuid-e4f32880-381f-469a-8342-a976734c6bf3"
           data-name="path90"
           d="M 145.30344,6.33806 143.25802,6.09299 C 142.94403,6.05537 142.69655,5.80778 142.65905,5.49377 L 142.415,3.44973 c -0.0106,-0.0891 -0.0862,-0.15618 -0.17593,-0.15618 h -1.09806 c -0.0897,0 -0.16528,0.06706 -0.17593,0.15614 l -0.24463,2.04521 c -0.0376,0.31406 -0.28517,0.5616 -0.59923,0.59911 l -2.04453,0.24409 c -0.0891,0.01063 -0.15618,0.0862 -0.15618,0.17593 v 1.09812 c 0,0.08972 0.0671,0.16528 0.15614,0.17593 l 2.04476,0.24459 c 0.31401,0.03756 0.56152,0.28508 0.59909,0.59908 l 0.24457,2.04471 c 0.0107,0.08908 0.0862,0.15614 0.17593,0.15614 h 1.09813 c 0.0897,0 0.16526,-0.06704 0.17592,-0.15611 l 0.24504,-2.04498 c 0.0376,-0.31394 0.28512,-0.5614 0.59907,-0.59895 l 2.04424,-0.24448 c 0.0891,-0.01065 0.15614,-0.0862 0.15614,-0.17593 V 6.51398 c 0,-0.08971 -0.067,-0.16526 -0.1561,-0.17593 z"
           fill="#171717" />
      </g>
      <g
         id="uuid-329a3076-25c1-42b6-b011-45b70330d1fb"
         data-name="g117">
        <circle
           id="uuid-5e9a81b8-0aad-4c1e-a016-bc3954d0a847"
           data-name="circle99"
           cx="141.69003"
           cy="373.05624"
           r="6.7708302"
           fill="url(#uuid-02f7e026-829b-4ada-b583-96bcec01f234)"
           style="fill:url(#uuid-02f7e026-829b-4ada-b583-96bcec01f234)" />
        <circle
           id="uuid-7acdc207-db61-4b82-a212-a2bc93e7c820"
           data-name="circle106"
           cx="141.69003"
           cy="373.05569"
           r="6.0541"
           fill="url(#uuid-a8207785-11d3-45c9-8073-d051ffa3fa31)"
           style="fill:url(#uuid-a8207785-11d3-45c9-8073-d051ffa3fa31)" />
        <circle
           id="uuid-f5f64eb7-32a7-4811-b177-177e8853503e"
           data-name="circle113"
           cx="141.69003"
           cy="373.05569"
           r="5.5884099"
           fill="url(#uuid-1597b6d7-1e51-42a6-995b-ba73a803dabc)"
           style="fill:url(#uuid-1597b6d7-1e51-42a6-995b-ba73a803dabc)" />
        <path
           id="uuid-39774d41-72e8-44dc-b33f-8a214a7da002"
           data-name="path115"
           d="m 145.30344,372.33805 -2.04542,-0.24506 c -0.31399,-0.0377 -0.56147,-0.28521 -0.59897,-0.59923 l -0.24406,-2.04403 c -0.0107,-0.0891 -0.0862,-0.15628 -0.17593,-0.15628 h -1.09805 c -0.0897,0 -0.16528,0.067 -0.17593,0.15609 l -0.24463,2.04522 c -0.0376,0.31405 -0.28517,0.5616 -0.59923,0.59909 l -2.04453,0.24411 c -0.0891,0.0107 -0.15618,0.0862 -0.15618,0.176 v 1.09814 c 0,0.0898 0.0671,0.16534 0.15614,0.17584 l 2.04476,0.24457 c 0.31401,0.0375 0.56152,0.2851 0.59909,0.59909 l 0.24457,2.04471 c 0.0107,0.0891 0.0862,0.15609 0.17593,0.15609 h 1.09813 c 0.0897,0 0.16526,-0.067 0.17592,-0.15609 l 0.24504,-2.04498 c 0.0376,-0.31394 0.28512,-0.56139 0.59908,-0.59896 l 2.04424,-0.24447 c 0.0891,-0.0107 0.15614,-0.0862 0.15614,-0.176 v -1.09817 c 0,-0.0898 -0.067,-0.16534 -0.1561,-0.176 v 3e-4 z"
           fill="#171717" />
      </g>
    </g>
  </g>
  <g
     id="uuid-2c4977a1-5469-4bbe-8aaf-26ed6fe5df99"
     data-name="serigraphy"
     transform="scale(0.96000001,0.95855785)"
     style="mix-blend-mode:normal">
    <g
       id="uuid-7859a575-de31-473d-86c5-9dcb44fd1c92"
       data-name="g90">
      <g
         id="uuid-dfd95afe-173f-4c4c-8808-d3da2a776612"
         data-name="g80">
        <path
           id="uuid-3b60febb-d80f-41d9-8e11-bf15fa45fdf5"
           data-name="path78"
           d="m 5.00331,23.83688 c -0.22021,0 -0.43017,-0.08985 -0.59033,-0.24999 C 4.33339,23.51754 4.27332,23.41697 4.23328,23.32712 4.19324,23.21775 4.17321,23.11716 4.17321,23.0078 c 0,-0.11035 0.02004,-0.22071 0.06007,-0.3203 0.04004,-0.10059 0.10009,-0.19043 0.1797,-0.27051 0.31004,-0.30958 0.86034,-0.30958 1.17042,0 0.07959,0.08007 0.13966,0.16992 0.1797,0.27051 0.04004,0.09961 0.06005,0.20996 0.06005,0.3203 0,0.10939 -0.02002,0.20996 -0.06005,0.31932 -0.04004,0.08985 -0.10011,0.19043 -0.1797,0.25977 -0.08009,0.08007 -0.17042,0.14062 -0.27001,0.18066 -0.10012,0.04002 -0.20023,0.06933 -0.31008,0.06933 z"
           fill="#e5e5e5" />
      </g>
      <g
         id="uuid-fec7fcaf-50d9-47b2-8f0d-0a597f305c5e"
         data-name="g84">
        <path
           id="uuid-771d6470-2208-46bf-b9ab-5889806c9fd4"
           data-name="path82"
           d="m 156.75329,23.00777 c 0,-0.46094 0.37012,-0.83008 0.81982,-0.83008 v 0 c 0.45996,0 0.83008,0.36914 0.83008,0.83008 v 0 c 0,0.45996 -0.37012,0.82908 -0.83008,0.82908 v 0 c -0.44971,2e-5 -0.81982,-0.36914 -0.81982,-0.82908 z m -4.93019,0 c 0,-0.46094 0.37012,-0.83008 0.83008,-0.83008 v 0 c 0.45996,0 0.83008,0.36914 0.83008,0.83008 v 0 c 0,0.45996 -0.37012,0.82908 -0.83008,0.82908 v 0 c -0.45996,2e-5 -0.83008,-0.36914 -0.83008,-0.82908 z m -4.91991,0 c 0,-0.46094 0.37012,-0.83008 0.83008,-0.83008 v 0 c 0.45996,0 0.83008,0.36914 0.83008,0.83008 v 0 c 0,0.45996 -0.37012,0.82908 -0.83008,0.82908 v 0 c -0.45996,2e-5 -0.83008,-0.36914 -0.83008,-0.82908 z m -4.91994,0 c 0,-0.46094 0.37012,-0.83008 0.83008,-0.83008 v 0 c 0.45996,0 0.83008,0.36914 0.83008,0.83008 v 0 c 0,0.45996 -0.37012,0.82908 -0.83008,0.82908 v 0 c -0.45999,2e-5 -0.83008,-0.36914 -0.83008,-0.82908 z m -4.91994,0 c 0,-0.46094 0.36963,-0.83008 0.83008,-0.83008 v 0 c 0.44971,0 0.82958,0.36914 0.82958,0.83008 v 0 c 0,0.45996 -0.37987,0.82908 -0.82958,0.82908 v 0 c -0.46046,2e-5 -0.83008,-0.36914 -0.83008,-0.82908 z m -4.91994,0 c 0,-0.46094 0.36963,-0.83008 0.82958,-0.83008 v 0 c 0.45018,0 0.8203,0.36914 0.8203,0.83008 v 0 c 0,0.45996 -0.37012,0.82908 -0.8203,0.82908 v 0 c -0.45995,2e-5 -0.82958,-0.36914 -0.82958,-0.82908 z m -4.93018,0 c 0,-0.46094 0.37987,-0.83008 0.83009,-0.83008 v 0 c 0.45996,0 0.83008,0.36914 0.83008,0.83008 v 0 c 0,0.45996 -0.37012,0.82908 -0.83008,0.82908 v 0 c -0.45022,2e-5 -0.83008,-0.36914 -0.83009,-0.82908 z m -4.91991,0 c 0,-0.46094 0.36963,-0.83008 0.83008,-0.83008 v 0 c 0.45996,0 0.82958,0.36914 0.82958,0.83008 v 0 c 0,0.45996 -0.36963,0.82908 -0.82958,0.82908 v 0 c -0.46045,2e-5 -0.83008,-0.36914 -0.83008,-0.82908 z m -4.91994,0 c 0,-0.46094 0.36963,-0.83008 0.82958,-0.83008 v 0 c 0.45996,0 0.83008,0.36914 0.83008,0.83008 v 0 c 0,0.45996 -0.37012,0.82908 -0.83008,0.82908 v 0 c -0.45995,2e-5 -0.82958,-0.36914 -0.82958,-0.82908 z m -4.92041,0 c 0,-0.46094 0.37012,-0.83008 0.83008,-0.83008 v 0 c 0.45019,0 0.8203,0.36914 0.8203,0.83008 v 0 c 0,0.45996 -0.37012,0.82908 -0.8203,0.82908 v 0 c -0.45997,2e-5 -0.83008,-0.36914 -0.83008,-0.82908 z m -4.91991,0 c 0,-0.46094 0.37012,-0.83008 0.83008,-0.83008 v 0 c 0.45019,0 0.8198,0.36914 0.8198,0.83008 v 0 c 0,0.45996 -0.3696,0.82908 -0.8198,0.82908 v 0 c -0.45997,2e-5 -0.83008,-0.36914 -0.83008,-0.82908 z m -4.91993,0 c 0,-0.46094 0.3701,-0.83008 0.8198,-0.83008 v 0 c 0.46044,0 0.83008,0.36914 0.83008,0.83008 v 0 c 0,0.45996 -0.36964,0.82908 -0.83008,0.82908 v 0 c -0.44971,2e-5 -0.8198,-0.36914 -0.8198,-0.82908 z m -4.93019,0 c 0,-0.46094 0.37012,-0.83008 0.83008,-0.83008 v 0 c 0.45997,0 0.83008,0.36914 0.83008,0.83008 v 0 c 0,0.45996 -0.37012,0.82908 -0.83008,0.82908 v 0 c -0.45997,2e-5 -0.83008,-0.36914 -0.83008,-0.82908 z m -4.91993,0 c 0,-0.46094 0.37012,-0.83008 0.83008,-0.83008 v 0 c 0.45997,0 0.83008,0.36914 0.83008,0.83008 v 0 c 0,0.45996 -0.37012,0.82908 -0.83008,0.82908 v 0 c -0.45997,2e-5 -0.83008,-0.36914 -0.83008,-0.82908 z m -4.91991,0 c 0,-0.46094 0.37012,-0.83008 0.83008,-0.83008 v 0 c 0.45997,0 0.83008,0.36914 0.83008,0.83008 v 0 c 0,0.45996 -0.37012,0.82908 -0.83008,0.82908 v 0 c -0.45997,2e-5 -0.83008,-0.36914 -0.83008,-0.82908 z m -4.91993,0 c 0,-0.46094 0.37012,-0.83008 0.83008,-0.83008 v 0 c 0.44971,0 0.8198,0.36914 0.8198,0.83008 v 0 c 0,0.45996 -0.37012,0.82908 -0.8198,0.82908 v 0 c -0.45997,2e-5 -0.83008,-0.36914 -0.83008,-0.82908 z m -4.91993,0 c 0,-0.46094 0.37012,-0.83008 0.81982,-0.83008 v 0 c 0.45997,0 0.83008,0.36914 0.83008,0.83008 v 0 c 0,0.45996 -0.37012,0.82908 -0.83008,0.82908 v 0 c -0.44969,2e-5 -0.81982,-0.36914 -0.81982,-0.82908 z m -4.93017,0 c 0,-0.46094 0.37012,-0.83008 0.83008,-0.83008 v 0 c 0.45997,0 0.83008,0.36914 0.83008,0.83008 v 0 c 0,0.45996 -0.37012,0.82908 -0.83008,0.82908 v 0 c -0.45997,2e-5 -0.83008,-0.36914 -0.83008,-0.82908 z m -4.91993,0 c 0,-0.46094 0.37012,-0.83008 0.83008,-0.83008 v 0 c 0.45997,0 0.83008,0.36914 0.83008,0.83008 v 0 c 0,0.45996 -0.37012,0.82908 -0.83008,0.82908 v 0 c -0.45997,2e-5 -0.83008,-0.36914 -0.83008,-0.82908 z m -4.91993,0 c 0,-0.46094 0.37012,-0.83008 0.83008,-0.83008 v 0 c 0.45997,0 0.83008,0.36914 0.83008,0.83008 v 0 c 0,0.45996 -0.37012,0.82908 -0.83008,0.82908 v 0 c -0.45997,2e-5 -0.83008,-0.36914 -0.83008,-0.82908 z m 5.12304,285.04684 c 0.88379,0 1.31837,-0.66602 1.31837,-1.74023 v -1.22363 c -0.37988,0.29883 -1.19628,0.47559 -1.63085,0.67969 -0.42188,0.2041 -0.59863,0.63965 -0.59863,1.18262 -2e-5,0.61233 0.29881,1.10156 0.91111,1.10156 z m 25.0132,36.41993 c -1.06055,0 -1.25097,1.1416 -1.25097,2.75977 0,1.86231 0.19044,2.75977 1.25097,2.75977 1.07421,0 1.26464,-0.89746 1.26464,-2.75977 2e-5,-1.61816 -0.19044,-2.75977 -1.26464,-2.75977 z m -41.10155,-2.12109 h -0.99315 v 3.3584 h 1.10157 c 0.8291,0 1.54979,-0.44922 1.54979,-1.67285 2e-5,-1.04688 -0.42091,-1.68555 -1.65821,-1.68555 z m 43.37161,-34.29884 c 1.07421,0 1.26464,-0.89746 1.26464,-2.75977 0,-1.61816 -0.19044,-2.75977 -1.26464,-2.75977 -1.06055,0 -1.25097,1.1416 -1.25097,2.75977 -2e-5,1.86231 0.19042,2.75977 1.25097,2.75977 z m -33.70166,36.3379 c -0.93849,0 -1.22363,0.9248 -1.22363,1.87695 v 0.14952 h 2.35156 v -0.39453 c 0,-0.92483 -0.29883,-1.63186 -1.12793,-1.63186 z M 90.19806,301.8007 c 0,-1.15527 -0.69335,-1.38672 -1.56347,-1.38672 H 87.5467 v 2.92285 h 1.22363 c 0.93849,3e-5 1.42775,-0.625 1.42773,-1.53613 z m 0.3125,4.26953 c 0,-1.04688 -0.62499,-1.64551 -1.52245,-1.64551 H 87.5467 v 3.3584 h 1.5371 c 0.92384,0 1.42676,-0.59863 1.42676,-1.71289 z M 76.80403,344.3925 c -0.93849,0 -1.22363,0.9248 -1.22363,1.87695 v 0.14952 h 2.35156 v -0.39453 c -2e-5,-0.92483 -0.29884,-1.63186 -1.12793,-1.63186 z m 35.87647,-40.30763 c 0,-0.9248 -0.29883,-1.63184 -1.12793,-1.63184 -0.93847,0 -1.22363,0.9248 -1.22363,1.87695 v 0.14933 h 2.35156 v -0.39445 z m -8.2261,44.80763 c 0,0.6123 0.29883,1.10156 0.91113,1.10156 0.88379,0 1.31837,-0.66602 1.31837,-1.74023 v -1.22363 c -0.37988,0.29883 -1.19628,0.47559 -1.63085,0.67969 -0.42187,0.2041 -0.59865,0.63965 -0.59865,1.18262 z m 11.80469,-4.33691 c -0.84277,0 -1.1416,0.67969 -1.1416,2.65137 0,1.65918 0.2168,2.70606 1.23729,2.70606 1.00585,0 1.23631,-1.0332 1.23631,-2.59668 1e-5,-1.75391 -0.20313,-2.76074 -1.33202,-2.76074 h 1e-5 z m -2.88526,-45.82716 -1.44139,1.95801 h -1.00587 l 0.81639,-1.95801 h 1.63086 z m -5.79298,0.51663 v 9.70703 h -1.46775 v -9.70703 z m -28.54784,8.80957 c 0.81543,0.0142 1.11522,-0.66602 1.11522,-1.76758 h 1.38672 c -0.09572,1.75391 -0.69335,2.85547 -2.50195,2.85547 -2.1211,0 -2.71874,-1.57715 -2.71874,-3.84766 0,-2.27051 0.59766,-3.84766 2.71874,-3.84766 2.18848,-0.0274 2.51563,1.71289 2.51563,2.62402 h -1.46875 c 0,-0.67969 -0.19042,-1.56348 -1.04688,-1.53613 -1.06055,0 -1.25097,1.1416 -1.25097,2.75977 0,1.61817 0.19044,2.75977 1.25099,2.75977 z m -15.77832,-7.17871 -1.95801,8.07617 h -1.30469 l -1.95801,-8.07617 h -0.02734 v 8.07617 h -1.46875 v -9.70703 h 2.41991 l 1.71387,7.19141 h 0.02637 l 1.68652,-7.19141 h 2.36523 v 9.70703 h -1.46773 v -8.07617 H 63.2547 Z m 4.42188,3.91602 1.1416,-0.3125 c 0.53027,-0.14933 0.85645,-0.2998 0.85645,-0.93848 0,-0.66602 -0.23047,-1.08789 -1.00585,-1.08789 -0.97852,0 -1.11426,0.69336 -1.11426,1.40039 h -1.38772 c 0,-1.54981 0.63964,-2.40625 2.57031,-2.40625 1.29102,0 2.32421,0.50293 2.32421,1.79492 v 4.1875 c 0,0.27148 0.16309,0.5166 0.38085,0.5166 0.0957,0 0.19042,-0.0142 0.24512,-0.0409 v 0.95215 c -0.17676,0.0811 -0.43555,0.1767 -0.72071,0.1767 -0.65234,0 -1.19628,-0.25879 -1.2373,-0.96582 h -0.02734 c -0.39452,0.7207 -0.96484,1.07422 -1.8213,1.07422 -1.16992,0 -1.90333,-0.65234 -1.90333,-2.05273 0,-1.63184 0.70704,-1.97168 1.69922,-2.29785 v -3e-5 l 3e-5,-5e-5 z m 4.88379,-3.1543 h 1.46875 v 1.1416 h 0.02638 c 0.32617,-0.81543 0.87012,-1.33203 1.7002,-1.33203 0.16309,0 0.25781,0.0274 0.35353,0.0546 v 1.49512 c -0.10939,-0.0274 -0.36718,-0.0811 -0.61228,-0.0811 -0.66603,0 -1.46777,0.29883 -1.46777,1.6582 v 4.37793 h -1.46875 v -7.31445 h -2e-5 v 3e-5 l -3e-5,8e-5 z m 13.43654,7.31445 v -9.70703 h 3.14063 c 1.44141,0 2.61035,0.63867 2.61035,2.35156 0,1.18262 -0.4619,1.90332 -1.42676,2.20313 v 0.0265 c 1.05957,0.19043 1.74023,0.83008 1.74023,2.47461 0,1.61816 -1.16992,2.65137 -2.9912,2.65137 h -3.07324 v -1.1e-4 z m 9.64255,-7.50488 c 2.13477,0 2.73243,1.57715 2.73243,3.84766 0,2.27051 -0.69335,3.84766 -2.73243,3.84766 -2.02538,0 -2.71876,-1.57715 -2.71876,-3.84766 0,-2.27051 0.59766,-3.84766 2.71876,-3.84766 z m -43.00438,45.43358 h -1.36034 v 4.01074 h -1.54979 v -9.70701 h 3.07325 c 1.86229,0 2.67774,1.16892 2.67774,2.8281 -3e-5,1.74021 -1.01957,2.86816 -2.84085,2.86816 z m 5.33202,4.01074 h -1.46775 v -7.31445 h 1.46777 v 7.31445 z m 0,-8.34766 h -1.46775 v -1.46872 h 1.46777 v 1.46872 z m 6.5674,4.88086 h -3.8203 v 0.42188 c 0,0.97852 0.12206,2.22949 1.22363,2.22949 1.04688,0 1.16895,-1.19629 1.16895,-1.63184 h 1.38672 c 0,1.61816 -0.97852,2.6377 -2.56934,2.6377 -1.1963,0 -2.6787,-0.35352 -2.6787,-3.73926 0,-1.91699 0.4082,-3.95606 2.70606,-3.95606 2.03906,0 2.58302,1.22363 2.58302,3.2627 v 0.77539 h -3e-5 z m 4.76171,-2.48825 c -0.10939,-0.0274 -0.36718,-0.0811 -0.6123,-0.0811 -0.66603,0 -1.46875,0.29883 -1.46875,1.6582 v 4.37793 h -1.46777 v -7.31445 h 1.46777 v 1.1416 h 0.02734 c 0.32617,-0.81543 0.87012,-1.332 1.7002,-1.332 0.16309,0 0.25781,0.0274 0.35351,0.0546 v 1.49506 h -2e-5 l 3e-5,1.4e-4 z m 4.28418,0 c -0.10939,-0.0274 -0.36718,-0.0811 -0.6123,-0.0811 -0.66603,0 -1.46777,0.29883 -1.46777,1.6582 v 4.37793 h -1.46875 v -7.31445 h 1.46875 v 1.1416 h 0.02638 c 0.32617,-0.81543 0.87012,-1.332 1.7002,-1.332 0.16309,0 0.25781,0.0274 0.35353,0.0546 v 1.49506 h -3e-5 v 1.4e-4 z m 5.82032,2.48825 h -3.82031 v 0.42188 c 0,0.97852 0.12206,2.22949 1.22363,2.22949 1.04688,0 1.16895,-1.19629 1.16895,-1.63184 h 1.38672 c 0,1.61816 -0.97852,2.6377 -2.56935,2.6377 -1.1963,0 -2.6787,-0.35352 -2.6787,-3.73926 0,-1.91699 0.4082,-3.95606 2.70606,-3.95606 2.03906,0 2.58299,1.22363 2.58299,3.2627 0,3e-5 0,0.77539 2e-5,0.77539 z m 10.54003,0.19043 c 0,1.75391 -0.70704,3.4668 -2.9912,3.4668 -2.44729,0 -3.20802,-1.57715 -3.20802,-5.04395 0,-3.4668 0.76075,-5.04392 3.22169,-5.04392 2.75975,0 2.92285,2.03904 2.92285,3.0449 v 0.1767 h -1.54981 v -0.16303 c 0,-0.89746 -0.27148,-1.93066 -1.38672,-1.88965 -1.1416,0 -1.6582,0.70703 -1.6582,3.83399 0,3.12696 0.51659,3.91602 1.6582,3.91602 1.29199,0 1.44141,-1.44141 1.44141,-2.33887 v -0.16303 h 1.54981 c 0,0 0,0.20405 0,0.20405 z m 3.42871,3.4668 c -2.02538,0 -2.71876,-1.57715 -2.71876,-3.84766 0,-2.27051 0.59766,-3.84766 2.71876,-3.84766 2.13477,0 2.73243,1.57715 2.73243,3.84766 0,2.27051 -0.69337,3.84766 -2.73243,3.84766 z m 5.39942,-0.19043 h -1.46777 v -9.70701 h 1.46777 z m 0.73389,-44.14158 v -5.11231 h 1.46779 v 5.24805 c 0,0.81543 0.36718,1.08789 0.99316,1.08789 0.62499,0 1.19627,-0.4082 1.19627,-1.22363 v -5.11231 h 1.46777 v 7.31445 h -1.38672 v -0.85645 h -0.04 c -0.36718,0.65234 -1.06055,1.04688 -1.87694,1.04688 -1.08691,0 -1.82128,-0.50293 -1.82128,-2.39258 2e-5,-3e-5 -2e-5,-3e-5 -3e-5,-3e-5 v 3e-5 z m 2.28565,44.14158 h -1.46779 v -9.70701 h 1.46779 z m 6.90821,-0.0947 c -0.17676,0.0811 -0.43555,0.1767 -0.72071,0.1767 -0.65234,0 -1.19628,-0.25879 -1.2373,-0.96582 h -0.0273 c -0.39452,0.7207 -0.96484,1.07422 -1.8213,1.07422 -1.16992,0 -1.90333,-0.65234 -1.90333,-2.05273 0,-1.63184 0.70704,-1.97168 1.69922,-2.29785 l 1.1416,-0.3125 c 0.53027,-0.14933 0.85645,-0.2998 0.85645,-0.93848 0,-0.66602 -0.23047,-1.08789 -1.00585,-1.08789 -0.97852,0 -1.11426,0.69336 -1.11426,1.40039 h -1.38772 c 0,-1.54981 0.63964,-2.40625 2.57031,-2.40625 1.29102,0 2.32421,0.50293 2.32421,1.79492 v 4.1875 c 0,0.27148 0.16309,0.5166 0.38085,0.5166 0.0957,0 0.19044,-0.0142 0.24512,-0.0409 v 0.95207 z m 2.86962,-49.34959 c 2.03906,0 2.58302,1.22363 2.58302,3.2627 v 0.77539 h -3.8203 v 0.42188 c 0,0.97852 0.12206,2.22949 1.22363,2.22949 1.04688,0 1.16896,-1.19629 1.16896,-1.63184 h 1.38673 c 0,1.61816 -0.97851,2.6377 -2.56935,2.6377 -1.19628,0 -2.6787,-0.35352 -2.6787,-3.73926 -2e-5,-1.91699 0.40816,-3.95606 2.70602,-3.95606 z m 1.55127,43.48924 c -0.10939,-0.0274 -0.36718,-0.081 -0.6123,-0.081 -0.66603,0 -1.46777,0.29883 -1.46777,1.6582 v 4.37793 h -1.46875 v -7.31445 h 1.46875 v 1.1416 h 0.0264 c 0.32617,-0.81543 0.87012,-1.33203 1.7002,-1.33203 0.16307,0 0.25781,0.0274 0.35351,0.0546 v 1.49512 h -3e-5 v 1.1e-4 z m 5.86038,5.95508 h -1.38672 v -0.89746 h -0.0264 c -0.19043,0.47559 -0.55762,1.08789 -1.60449,1.08789 -1.71289,0 -2.39257,-1.42773 -2.39257,-3.94238 0,-3.25 1.1416,-3.75293 2.25683,-3.75293 0.78811,0 1.38672,0.39453 1.6582,1.04688 h 0.0273 v -3.24902 h 1.46777 c 0,0 4e-5,9.70703 1e-5,9.70703 -1e-5,-3e-5 4e-5,-3e-5 5e-5,-3e-5 v 3e-5 z M 58.31336,23.00777 c 0,-0.46094 0.36964,-0.83008 0.83008,-0.83008 v 0 c 0.44971,0 0.82958,0.36914 0.82958,0.83008 v 0 c 0,0.45996 -0.37988,0.82908 -0.82958,0.82908 v 0 c -0.46046,2e-5 -0.83008,-0.36914 -0.83008,-0.82908 z m -4.91993,0 c 0,-0.46094 0.36964,-0.83008 0.82958,-0.83008 v 0 c 0.45021,0 0.8203,0.36914 0.8203,0.83008 v 0 c 0,0.45996 -0.37012,0.82908 -0.8203,0.82908 v 0 c -0.45996,2e-5 -0.82958,-0.36914 -0.82958,-0.82908 z m -4.93017,0 c 0,-0.46094 0.37988,-0.83008 0.83008,-0.83008 v 0 c 0.45996,0 0.83008,0.36914 0.83008,0.83008 v 0 c 0,0.45996 -0.37012,0.82908 -0.83008,0.82908 v 0 c -0.45021,2e-5 -0.83008,-0.36914 -0.83008,-0.82908 z m -4.91993,0 c 0,-0.46094 0.36964,-0.83008 0.83008,-0.83008 v 0 c 0.45996,0 0.82958,0.36914 0.82958,0.83008 v 0 c 0,0.45996 -0.36964,0.82908 -0.82958,0.82908 v 0 c -0.46046,2e-5 -0.83008,-0.36914 -0.83008,-0.82908 z m -4.91993,0 c 0,-0.46094 0.36962,-0.83008 0.82958,-0.83008 v 0 c 0.45996,0 0.83008,0.36914 0.83008,0.83008 v 0 c 0,0.45996 -0.37012,0.82908 -0.83008,0.82908 v 0 c -0.45995,2e-5 -0.82958,-0.36914 -0.82958,-0.82908 z m -4.92039,0 c 0,-0.46094 0.37012,-0.83008 0.83008,-0.83008 v 0 c 0.45996,0 0.8203,0.36914 0.8203,0.83008 v 0 c 0,0.45996 -0.36036,0.82908 -0.8203,0.82908 v 0 c -0.45998,2e-5 -0.83008,-0.36914 -0.83008,-0.82908 z m -4.91993,0 c 0,-0.46094 0.37012,-0.83008 0.83008,-0.83008 v 0 c 0.45021,0 0.81982,0.36914 0.81982,0.83008 v 0 c 0,0.45996 -0.36962,0.82908 -0.81982,0.82908 v 0 c -0.45995,2e-5 -0.83008,-0.36914 -0.83008,-0.82908 z m -4.91991,0 c 0,-0.46094 0.37012,-0.83008 0.81982,-0.83008 v 0 c 0.46046,0 0.83008,0.36914 0.83008,0.83008 v 0 c 0,0.45996 -0.36964,0.82908 -0.83008,0.82908 v 0 c -0.44971,2e-5 -0.81982,-0.36914 -0.81982,-0.82908 z m -4.93017,0 c 0,-0.46094 0.37012,-0.83008 0.83008,-0.83008 v 0 c 0.45996,0 0.83008,0.36914 0.83008,0.83008 v 0 c 0,0.45996 -0.37012,0.82908 -0.83008,0.82908 v 0 C 19.3031,23.83687 18.933,23.46771 18.933,23.00777 Z m -4.91993,0 c 0,-0.46094 0.37012,-0.83008 0.83008,-0.83008 v 0 c 0.45996,0 0.83008,0.36914 0.83008,0.83008 v 0 c 0,0.45996 -0.37012,0.82908 -0.83008,0.82908 v 0 c -0.45996,2e-5 -0.83008,-0.36914 -0.83008,-0.82908 z m -4.91991,0 c 0,-0.46094 0.37012,-0.83008 0.83008,-0.83008 v 0 c 0.45996,0 0.83008,0.36914 0.83008,0.83008 v 0 c 0,0.45996 -0.37012,0.82908 -0.83008,0.82908 v 0 c -0.45996,2e-5 -0.8301,-0.36914 -0.83008,-0.82908 z"
           fill="#e5e5e5" />
      </g>
      <g
         id="uuid-74435d6c-e30e-470e-89a6-c7d6536ecbed"
         data-name="g88">
        <path
           id="uuid-2ae07f11-7be6-4d29-8188-827497eb4b05"
           data-name="path86"
           d="m 162.5033,23.83688 c -0.10986,0 -0.22021,-0.0293 -0.32033,-0.06933 -0.0996,-0.04004 -0.18994,-0.10059 -0.27001,-0.18066 -0.0796,-0.06935 -0.13965,-0.16992 -0.1797,-0.25977 -0.04,-0.10939 -0.0601,-0.20996 -0.0601,-0.31934 0,-0.11035 0.02,-0.22071 0.0601,-0.3203 0.04,-0.10059 0.10014,-0.19042 0.1797,-0.27051 0.31005,-0.30958 0.87012,-0.30958 1.17042,0 0.0796,0.08009 0.13965,0.16992 0.1797,0.27051 0.04,0.09961 0.0601,0.20996 0.0601,0.3203 0,0.10939 -0.02,0.20996 -0.0601,0.31934 -0.04,0.08985 -0.10014,0.19042 -0.1797,0.25977 -0.15043,0.16014 -0.36038,0.24999 -0.58009,0.24999 z"
           fill="#e5e5e5" />
      </g>
    </g>
  </g>
  <g
     id="uuid-acec47ef-4f3d-429b-84ea-52e9456da9b6"
     data-name="g78"
     transform="scale(0.96000001,0.95855785)"
     style="mix-blend-mode:normal">
    <path
       id="uuid-e9c467f0-f11a-4bdc-89d5-5955fd6bc5d6"
       data-name="path54"
       d="m 51.62335,218.0623 h 1.57472 l 1.27666,5.75565 h 0.02644 l 1.15358,-5.75565 h 1.56148 l -1.92771,7.3029 h -1.71001 z"
       fill="#e5e5e5" />
    <path
       id="uuid-61932585-6c5e-47d7-96d9-a0c371326d40"
       data-name="path56"
       d="m 59.27722,221.90347 v 0.42115 c 0,0.97759 0.12207,2.22576 1.22173,2.22576 1.04473,0 1.1668,-1.19426 1.1668,-1.62863 h 1.38449 c 0,1.61541 -0.97656,2.63368 -2.56553,2.63368 -1.19426,0 -2.67336,-0.35299 -2.67336,-3.73334 0,-1.91346 0.4069,-3.95002 2.70082,-3.95002 2.03655,0 2.57875,1.22173 2.57875,3.25828 v 0.77312 z m 2.34783,-1.00403 v -0.39368 c 0,-0.92265 -0.29806,-1.62863 -1.12611,-1.62863 -0.9369,0 -1.22173,0.92265 -1.22173,1.87277 v 0.14954 h 2.34783 z"
       fill="#e5e5e5" />
    <path
       id="uuid-3355fcf9-6dd4-4be7-9e8a-11b3214ae70b"
       data-name="path58"
       d="m 64.29637,218.0623 h 1.46587 v 1.14035 h 0.02747 c 0.32553,-0.81482 0.86873,-1.33057 1.69679,-1.33057 0.16277,0 0.25736,0.0275 0.35299,0.0549 v 1.49232 c -0.10885,-0.0264 -0.36723,-0.0814 -0.61137,-0.0814 -0.66528,0 -1.46587,0.29907 -1.46587,1.6561 v 4.37116 h -1.46587 c 0,0 0,-7.3029 -2e-5,-7.3029 v 6e-5 z"
       fill="#e5e5e5" />
    <path
       id="uuid-551d5f78-68ef-424a-ad07-3d0c60db69f6"
       data-name="path60"
       d="m 71.72032,220.19345 v -0.19023 c 0,-0.58391 -0.20447,-1.12611 -0.96437,-1.12611 -0.58391,0 -1.04473,0.27161 -1.04473,0.95012 0,0.56966 0.25736,0.80058 1.03149,1.07219 l 0.93688,0.32552 c 1.08541,0.36621 1.58794,0.95012 1.58794,2.10369 0,1.56149 -1.14034,2.22678 -2.62047,2.22678 -1.8453,0 -2.40174,-0.85551 -2.40174,-2.26747 v -0.27059 h 1.3031 v 0.2299 c 0,0.84229 0.29806,1.30311 1.13932,1.30311 0.8016,0 1.19528,-0.4069 1.19528,-1.07219 0,-0.54322 -0.28483,-0.89519 -0.8016,-1.07219 l -1.19426,-0.42115 c -1.09965,-0.37944 -1.56048,-0.93588 -1.56048,-2.10369 0,-1.37126 0.99081,-2.00909 2.49738,-2.00909 1.85955,0 2.28069,1.08643 2.28069,1.99586 v 0.32552 c 0,0 -1.38445,0 -1.38445,0 z"
       fill="#e5e5e5" />
    <path
       id="uuid-cc050aa5-51a4-41b2-b5e5-2b46f2c38b13"
       data-name="path62"
       d="m 74.41911,215.56493 h 1.46587 v 1.46587 h -1.46587 z m 0,2.49737 h 1.46587 v 7.3029 h -1.46587 z"
       fill="#e5e5e5" />
    <path
       id="uuid-fc1d7998-d87b-4846-82d7-92f4d23f4cd5"
       data-name="path64"
       d="m 79.79126,217.87207 c 2.13115,0 2.72931,1.57472 2.72931,3.84219 0,2.26645 -0.69275,3.84117 -2.72931,3.84117 -2.0223,0 -2.71405,-1.57472 -2.71405,-3.84117 0,-2.26747 0.59713,-3.84219 2.71405,-3.84219 z m 0,6.59692 c 1.07321,0 1.26241,-0.89519 1.26241,-2.75474 0,-1.61541 -0.18921,-2.75575 -1.26241,-2.75575 -1.05796,0 -1.24818,1.14035 -1.24818,2.75575 0,1.85955 0.19022,2.75474 1.24818,2.75474 z"
       fill="#e5e5e5" />
    <path
       id="uuid-b041bc58-bf84-45c3-ae66-9c9b25faf235"
       data-name="path66"
       d="m 83.64464,218.0623 h 1.38449 v 0.85551 h 0.0407 c 0.36621,-0.65206 1.05897,-1.04574 1.87277,-1.04574 1.11391,0 1.81886,0.50253 1.81886,1.98162 v 5.51151 h -1.46587 v -5.00898 c 0,-0.95012 -0.28483,-1.31633 -1.01726,-1.31633 -0.59814,0 -1.16781,0.47506 -1.16781,1.42518 v 4.90013 h -1.46587 c 0,0 -3e-5,-7.3029 -1e-5,-7.3029 z"
       fill="#e5e5e5" />
    <path
       id="uuid-9ad18697-b158-4bfd-9a12-f7098f2e8437"
       data-name="path70"
       d="m 100.08863,223.5738 h 1.54726 v 1.79139 h -1.54726 z"
       fill="#e5e5e5" />
    <path
       id="uuid-772121e7-202c-4d2e-9ebb-b13f9b9b20af"
       data-name="path72"
       d="m 97.93231,225.3652 h -5.62035 c 0,-4.18093 4.0314,-4.08531 4.0314,-7.07198 0,-0.78736 -0.33875,-1.45265 -1.19426,-1.45265 -1.15357,0 -1.3438,1.0315 -1.3438,2.00909 h -1.46587 c 0,-1.91346 0.78735,-3.0945 2.83712,-3.0945 1.9684,0 2.71505,1.1668 2.71505,2.56553 0,3.18911 -3.12197,3.39357 -3.85541,5.74141 h 3.89611 v 1.30311 z"
       fill="#e5e5e5" />
  </g>
  <path
     d="m 100.23563,213.56293 c 0,0.83312 0.26905,1.75892 1.30406,1.75892 0.95531,0 1.33125,-0.76479 1.33125,-1.70463 0,-1.16824 -0.39,-1.77295 -1.54593,-1.77295 h -0.5925 v -1.0737 h 0.55219 c 1.02187,0 1.37156,-0.69833 1.37156,-1.62506 0,-0.68428 -0.30938,-1.3695 -1.10343,-1.3695 -0.94126,0 -1.20939,0.80598 -1.20939,1.66531 h -1.453119 c 0,-1.77296 0.928129,-2.73901 2.744059,-2.73901 1.14282,0 2.55469,0.52328 2.55469,2.4301 0,0.98009 -0.57844,1.93303 -1.51968,2.08093 v 0.0403 c 0.98155,0.0805 1.73436,0.87244 1.73436,2.20263 0,1.87967 -0.94124,2.94026 -2.90437,2.94026 -1.721251,0 -2.715935,-0.84623 -2.715935,-2.83355 h 1.452195 z"
     fill="#e5e5e5"
     id="path121"
     style="mix-blend-mode:normal;stroke-width:0.959279" />
</svg>
