<?xml version="1.0" encoding="UTF-8" standalone="no"?>
<!-- Generator: Adobe Illustrator 24.0.2, SVG Export Plug-In . SVG Version: 6.00 Build 0)  -->

<svg
   xmlns:dc="http://purl.org/dc/elements/1.1/"
   xmlns:cc="http://creativecommons.org/ns#"
   xmlns:rdf="http://www.w3.org/1999/02/22-rdf-syntax-ns#"
   xmlns:svg="http://www.w3.org/2000/svg"
   xmlns="http://www.w3.org/2000/svg"
   xmlns:sodipodi="http://sodipodi.sourceforge.net/DTD/sodipodi-0.dtd"
   xmlns:inkscape="http://www.inkscape.org/namespaces/inkscape"
   version="1.0"
   id="Layer_1"
   x="0px"
   y="0px"
   width="55.880001mm"
   height="128.5mm"
   viewBox="0 0 211.2 485.66931"
   xml:space="preserve"
   sodipodi:docname="BlankInfo-DM.svg"
   inkscape:version="0.92.3 (2405546, 2018-03-11)"><metadata
   id="metadata83"><rdf:RDF><cc:Work
       rdf:about=""><dc:format>image/svg+xml</dc:format><dc:type
         rdf:resource="http://purl.org/dc/dcmitype/StillImage" /><dc:title></dc:title></cc:Work></rdf:RDF></metadata><defs
   id="defs81" />
<sodipodi:namedview
   bordercolor="#666666"
   borderopacity="1"
   fit-margin-bottom="0"
   fit-margin-left="0"
   fit-margin-right="0"
   fit-margin-top="0"
   gridtolerance="10"
   guidetolerance="10"
   id="namedview120"
   inkscape:current-layer="Layer_1"
   inkscape:cx="-180.18754"
   inkscape:cy="206.28918"
   inkscape:document-units="mm"
   inkscape:pageopacity="0"
   inkscape:pageshadow="2"
   inkscape:window-height="1017"
   inkscape:window-maximized="1"
   inkscape:window-width="1920"
   inkscape:window-x="-8"
   inkscape:window-y="-8"
   inkscape:zoom="1.2421053"
   objecttolerance="10"
   pagecolor="#ffffff"
   showgrid="false"
   units="mm">
	</sodipodi:namedview>
<g
   id="bg"
   transform="matrix(1.7066674,0,0,1.7066674,1.9095865e-4,-0.48664028)">
	
		<linearGradient
   id="rect11_1_"
   gradientUnits="userSpaceOnUse"
   x1="-19.71509"
   y1="773.61798"
   x2="242.01932"
   y2="1035.3524"
   gradientTransform="matrix(0.95999,0,0,0.95999,-16.12701,-697.5061)">
		<stop
   offset="0.38537"
   style="stop-color:#FFCC9E"
   id="stop3" />
		<stop
   offset="0.62112"
   style="stop-color:#F1AD8C"
   id="stop5" />
		<stop
   offset="0.85662"
   style="stop-color:#E6947E"
   id="stop7" />
		<stop
   offset="1"
   style="stop-color:#E28B79"
   id="stop9" />
	</linearGradient>
	<rect
   id="rect11"
   x="5.6124201"
   y="4.4970102"
   style="fill:url(#rect11_1_)"
   width="114.96913"
   height="277.63235" />
	<g
   id="g19">
		<path
   id="path13"
   inkscape:connector-curvature="0"
   style="fill:#252626"
   d="m 51.06401,140.22357 h -0.98103 v 4.83891 h 0.98103 c 1.3862,0 2.51097,-1.09863 2.51097,-2.4196 -10e-6,-1.32072 -1.12477,-2.41931 -2.51097,-2.41931 z" />
		<path
   id="path15"
   inkscape:connector-curvature="0"
   style="fill:#252626"
   d="m 40.19739,142.59052 c 0,-1.42546 -1.13768,-2.61546 -2.56316,-2.61546 -1.42548,0 -2.57647,1.19 -2.57647,2.61546 0,1.41261 1.151,2.57648 2.57647,2.57648 1.42547,-1e-5 2.56316,-1.16387 2.56316,-2.57648 z" />
		<path
   id="path17"
   inkscape:connector-curvature="0"
   style="fill:#252626"
   d="M -1.1e-4,0.07107 V 285.07095 H 123.74984 V 0.07108 c 10e-6,0 -123.74995,0 -123.74995,-1e-5 z m 85.88697,137.91601 h 2.27576 v 9.31168 h -2.27576 z m -13.0113,7.70314 1.49094,-1.71327 c 0.82388,0.71919 1.30788,0.9939 1.88324,1.09863 0.16997,0.0391 0.33994,0.0653 0.49704,0.0653 0.26143,0 0.49686,-0.0521 0.67992,-0.14378 0.1571,-0.0786 0.43158,-0.24852 0.43158,-0.60159 0,-0.36612 -0.6801,-0.58846 -1.26859,-0.70628 -0.26138,-0.0521 -1.54308,-0.32684 -2.06631,-0.64082 -0.88934,-0.52304 -1.34692,-1.32074 -1.34692,-2.31487 0,-0.54918 0.18306,-1.0724 0.48376,-1.51689 0.30088,-0.41849 0.71938,-0.74556 1.20332,-0.9679 l -0.0131,0.0131 c 0.49686,-0.23543 1.05936,-0.35307 1.59544,-0.35307 0.22234,0 0.43158,0.0131 0.69324,0.0523 0.83698,0.14378 1.60853,0.48376 2.68093,1.37311 l -1.43857,1.72636 c -0.9679,-0.7977 -1.46475,-0.91553 -1.96179,-0.91553 -0.24852,0 -0.44467,0.0523 -0.60155,0.13092 -0.24852,0.10451 -0.37921,0.28757 -0.37921,0.45753 0,0.35326 0.47086,0.52322 1.22928,0.68015 0.07855,0.0262 0.17001,0.0262 0.26161,0.0523 0.50995,0.11765 1.2686,0.27475 1.76546,0.56232 h -0.01312 c 0.94171,0.52322 1.43857,1.34715 1.43857,2.36719 0,0.60159 -0.15692,1.16386 -0.49686,1.63472 -0.30088,0.43163 -0.74556,0.74538 -1.24242,0.9939 -0.52322,0.2747 -1.0593,0.35326 -1.64781,0.35326 -0.31398,0 -0.65392,-0.0393 -0.94171,-0.10474 -0.94153,-0.19617 -1.80469,-0.62775 -2.91641,-1.58237 z m -21.81155,1.60853 h -3.23039 v -9.31168 h 3.23039 c 2.62857,0 4.76037,2.09248 4.76037,4.65581 0,2.56339 -2.13181,4.65587 -4.76037,4.65587 z m 10.19938,0 v -9.31168 h 6.3429 v 2.2234 h -4.06714 v 0.7977 h 3.55701 v 2.26248 h -3.55701 v 1.77873 h 3.97554 v 2.24936 h -6.2513 z M 45.87983,45.84481 c 0,-3.70994 3.00751,-6.71745 6.71745,-6.71745 h 22.06424 c 3.70994,0 6.71745,3.0075 6.71745,6.71745 v 63.82797 c 0,3.70995 -3.00751,6.71745 -6.71745,6.71745 H 52.59729 c -3.70994,0 -6.71745,-3.00751 -6.71745,-6.71745 0,2e-5 0,-63.82797 -1e-5,-63.82797 z m 26.28389,45.27844 c -0.23859,0.55019 -0.55508,1.00435 -0.94947,1.36199 -0.39487,0.35764 -0.84366,0.62318 -1.34828,0.7981 -0.5051,0.17442 -1.03228,0.26114 -1.58246,0.26114 -0.93576,0 -1.66477,-0.13718 -2.18751,-0.41253 -0.52276,-0.27534 -0.93137,-0.59624 -1.22433,-0.9632 -0.31258,-0.40369 -0.50951,-0.85296 -0.59182,-1.34827 -0.0828,-0.49532 -0.12396,-0.99062 -0.12396,-1.48595 0,-0.69765 0.01421,-1.17876 0.04117,-1.44479 0.02793,-0.26653 0.05928,-0.41742 0.0965,-0.45417 0.07301,-0.05534 0.37578,-0.08231 0.90784,-0.08231 h 6.43959 c 0.18324,0 0.33462,0.01373 0.45416,0.04118 0.11857,0.02744 0.21066,0.10043 0.27486,0.21997 0.06417,0.11905 0.10533,0.29787 0.12394,0.53646 0.01813,0.23859 0.02793,0.56881 0.02793,0.99063 -10e-6,0.77066 -0.12003,1.43157 -0.35815,1.98176 M 61.04729,64.3493 c 0.02451,-0.17294 0.09898,-0.30963 0.22342,-0.40909 0.12394,-0.09896 0.32188,-0.16118 0.59526,-0.18617 0.27288,-0.02449 0.65747,-0.03723 1.15377,-0.03723 1.93521,0 3.41773,0.53942 4.44755,1.61872 1.02934,1.07931 1.54473,2.52509 1.54473,4.33633 0,0.17148 -0.03576,0.54137 -0.0583,0.79515 -0.14257,-0.002 -0.28514,-0.0039 -0.4277,-0.0068 -0.39047,-0.0083 -0.81474,-0.02989 -1.27282,-0.0637 -0.10191,0.05096 -0.15678,0.14845 -0.1656,0.29249 -0.0083,0.14452 0.0294,0.25916 0.11514,0.34393 l 0.45759,0.05095 c 0.30572,0.0338 0.55999,0.08916 0.76379,0.16511 0.20382,0.07643 0.30572,0.15726 0.30572,0.24202 0,0.08476 -0.05095,0.24203 -0.15285,0.47083 -0.10191,0.22929 -0.23763,0.5051 -0.40712,0.827 -0.17001,0.32286 -0.35275,0.66679 -0.54725,1.03129 -0.19549,0.365 -0.37823,0.70892 -0.54774,1.03081 -0.39047,0.74715 -0.78877,1.48056 -1.1964,2.20173 -0.40714,0.72166 -0.80593,1.42176 -1.19591,2.10032 -0.49288,-0.88236 -0.97644,-1.80733 -1.45117,-2.77445 -0.47523,-0.96761 -0.95045,-1.9259 -1.42569,-2.87685 -0.0343,-0.0676 -0.09308,-0.1945 -0.17785,-0.38165 -0.08524,-0.18616 -0.1744,-0.38557 -0.26749,-0.5982 -0.09358,-0.21214 -0.1744,-0.41105 -0.24202,-0.5982 -0.06811,-0.18667 -0.10142,-0.31405 -0.10142,-0.38165 0,-0.10191 0.06712,-0.18225 0.20331,-0.24203 0.13571,-0.05928 0.42429,-0.13129 0.86571,-0.21606 l 0.3307,-0.05095 c 0.08475,-0.08475 0.12298,-0.20381 0.11465,-0.35667 -0.0088,-0.15237 -0.07251,-0.24594 -0.19058,-0.27975 -0.36156,0.02841 -0.80495,0.04899 -1.33065,0.06124 v -5.40098 c -10e-6,-0.2979 0.01224,-0.53356 0.03722,-0.70747 M 63.15495,83.404 c 0,0.67903 -0.0088,1.22188 -0.02548,1.629 -0.01715,0.40713 -0.07641,0.72558 -0.17832,0.95438 -0.03625,0.08231 -0.07937,0.15482 -0.12885,0.21802 -9.7e-4,4.9e-4 -0.0025,0.0015 -0.0035,0.0022 C 62.5224,86.15075 62.27253,86.08512 62.0707,86.01016 61.73558,85.88621 61.49406,85.6628 61.34511,85.34044 61.19618,85.01808 61.10309,84.56538 61.06586,83.98187 61.02862,83.39934 61.01,82.62331 61.01,81.65619 v -5.29953 l 1.33065,2.59269 c 0.18618,0.35667 0.33461,0.65797 0.44534,0.90392 0.11023,0.24644 0.19058,0.47523 0.24154,0.68736 0.05094,0.21263 0.08474,0.43702 0.10189,0.67464 0.01666,0.23762 0.02548,0.53451 0.02548,0.89069 -10e-6,-10e-6 -10e-6,1.29829 -10e-6,1.29829 z m 10.5055,3.14776 c 0.11023,-0.30572 0.21997,-0.632 0.3307,-0.97985 0.11023,-0.34785 0.21213,-0.68737 0.30572,-1.01856 0.09308,-0.3307 0.16512,-0.60652 0.21655,-0.82748 -0.05145,-0.11808 -0.14894,-0.1945 -0.293,-0.2288 -0.14452,-0.03382 -0.25866,-0.01718 -0.34392,0.05093 -0.33952,0.6614 -0.66581,1.20473 -0.97985,1.629 -0.31404,0.42477 -0.58987,0.70451 -0.82699,0.84022 -0.1362,0.0681 -0.29298,0.12689 -0.47131,0.17785 -0.17785,0.05093 -0.39047,0.08916 -0.63642,0.11463 -0.24593,0.0255 -0.54285,0.04703 -0.89068,0.06367 -0.34785,0.01718 -0.7682,0.0255 -1.26009,0.0255 -0.55998,0 -1.02247,-0.01665 -1.38747,-0.05093 C 67.05869,86.3141 66.7662,86.27149 66.54575,86.22103 66.32479,86.16958 66.15088,86.1103 66.02398,86.0427 65.89659,85.97512 65.79861,85.89866 65.731,85.81341 65.5272,85.59294 65.39589,85.26616 65.33661,84.83355 65.27685,84.40046 65.24744,83.84489 65.24744,83.16585 V 81.4859 c 0.0039,-0.23271 0.01078,-0.43848 0.02059,-0.61486 0.01665,-0.31355 0.06319,-0.60652 0.13963,-0.87794 0.07642,-0.27142 0.19498,-0.56047 0.35667,-0.8657 0.03822,-0.07297 0.08132,-0.15187 0.12689,-0.23467 0.06124,-0.0022 0.12492,-0.003 0.19597,-0.003 h 1.47664 c 0.49189,0 0.8951,0.0083 1.20913,0.0255 0.31355,0.01665 0.5639,0.05048 0.75105,0.10142 0.25428,0.0681 0.43653,0.18715 0.54724,0.35667 0.11024,0.16951 0.19059,0.37331 0.24204,0.61094 l 0.22879,0.99258 c 0.06761,0.08525 0.18226,0.12298 0.34345,0.11465 0.16117,-0.0083 0.26749,-0.05489 0.31845,-0.14012 0,-0.28857 -0.01716,-0.65308 -0.05096,-1.09449 -0.0343,-0.44142 -0.05096,-0.89117 -0.05096,-1.34926 0,-0.49189 0.01665,-0.96711 0.05096,-1.42519 0.0338,-0.45856 0.05096,-0.84023 0.05096,-1.14594 -0.05096,-0.08426 -0.15728,-0.13129 -0.31845,-0.14011 -0.16119,-0.0079 -0.27584,0.02993 -0.34345,0.11465 l -0.20332,1.04403 c -0.06808,0.32236 -0.14893,0.53892 -0.24202,0.64915 -0.09358,0.11024 -0.21654,0.19057 -0.36891,0.24152 -0.15286,0.05093 -0.41644,0.08917 -0.78927,0.11464 -0.37381,0.0255 -0.8319,0.03825 -1.37473,0.03825 h -1.15034 c 0.0088,-0.01418 0.01665,-0.02745 0.02548,-0.04215 L 68.0425,75.182 c 0.32188,-0.54332 0.61487,-1.04795 0.87844,-1.51485 0.2626,-0.46641 0.52177,-0.87844 0.77603,-1.23462 0.25478,-0.35617 0.51736,-0.64474 0.78929,-0.8652 0.05634,-0.04557 0.11415,-0.08672 0.17343,-0.12543 0.17245,0.0686 0.32433,0.14944 0.45513,0.24399 0.21215,0.15237 0.38557,0.3307 0.52177,0.53451 0.13571,0.20332 0.24594,0.43261 0.33119,0.68687 0.08427,0.25477 0.17785,0.535 0.27975,0.84023 0.06761,0.08525 0.17833,0.11906 0.33119,0.10191 0.15237,-0.01665 0.25426,-0.06761 0.30521,-0.15286 -0.03429,-0.2714 -0.06369,-0.58103 -0.08867,-0.92889 -0.02596,-0.34784 -0.05585,-0.68736 -0.08965,-1.01807 -0.03381,-0.33119 -0.07839,-0.62661 -0.11416,-0.89117 -0.08867,-0.65454 -0.0686,-1.21355 -0.0686,-1.21355 0,-1.28948 -0.36596,-2.41681 -0.92448,-3.3604 -0.55803,-0.94262 -1.27186,-1.68681 -2.14001,-2.23259 -0.86863,-0.54578 -1.88572,-0.93037 -3.05173,-1.15377 -1.16652,-0.2234 -2.53097,-0.33512 -4.09383,-0.33512 -1.56336,0 -2.93465,0.01862 -4.11243,0.05585 -1.17877,0.03723 -2.26444,0.11806 -3.25703,0.24203 -0.14845,0.07447 -0.2293,0.21753 -0.24154,0.4277 -0.01274,0.21117 0.04263,0.37871 0.16756,0.50266 l 1.33946,0.14894 c 0.42182,0.04998 0.75006,0.13032 0.9867,0.24202 0.23517,0.11121 0.4091,0.316 0.52079,0.61388 0.1117,0.29787 0.17981,0.6947 0.20479,1.19101 0.02449,0.49629 0.03723,1.14153 0.03723,1.9352 V 81.6559 c 0,0.96711 -0.01274,1.74316 -0.03723,2.32568 -0.02498,0.5835 -0.1117,1.03619 -0.26065,1.35856 -0.14893,0.32238 -0.37233,0.54578 -0.66972,0.66973 -0.29788,0.12444 -0.72019,0.2234 -1.26546,0.29787 l -0.78192,0.1117 c -0.11318,0.11317 -0.16364,0.26799 -0.15286,0.46298 -9.7e-4,0.39831 -0.0054,0.52472 -0.01371,0.97348 -0.0088,0.51393 -0.03234,1.08813 -0.07006,1.72356 0.03772,0.09358 0.14454,0.14943 0.32236,0.16854 0.17735,0.01815 0.30375,-0.01913 0.37872,-0.1122 l 0.08376,-0.58889 c 0.05636,-0.41105 0.13082,-0.72852 0.22439,-0.95242 0.09358,-0.22439 0.26162,-0.39243 0.50463,-0.50462 0.24251,-0.11219 0.5835,-0.17834 1.02297,-0.19695 0.43897,-0.01815 1.02296,-0.02745 1.75197,-0.02745 h 3.53139 c 0.14942,0 0.26652,0.0093 0.35078,0.02745 0.08377,0.0186 0.14453,0.07057 0.18177,0.15482 0.03723,0.08378 0.06075,0.21458 0.07055,0.39194 0.0088,0.17784 0.01373,0.42477 0.01373,0.74273 0,0.56097 -0.07005,0.98132 -0.21018,1.26157 -0.14011,0.28024 -0.36891,0.52323 -0.68688,0.72901 -0.31796,0.22439 -0.66825,0.4576 -1.05088,0.7006 -0.3836,0.24251 -0.76674,0.48551 -1.14937,0.72852 -0.38311,0.24301 -0.75204,0.4767 -1.10723,0.70109 -0.3552,0.22389 -0.66336,0.42966 -0.92498,0.61633 -0.7104,0.50462 -1.29439,0.97643 -1.75198,1.41589 -0.45759,0.43897 -0.8172,0.88284 -1.07882,1.33112 -0.26211,0.44829 -0.44388,0.92008 -0.54676,1.41541 -0.10239,0.49531 -0.15383,1.04158 -0.15383,1.63978 0,0.54185 0.04654,0.95339 0.13963,1.23315 0.05634,0.0749 0.1264,0.10778 0.21066,0.0985 0.08377,-0.01 0.14454,-0.0519 0.18226,-0.1264 0.03674,-0.37383 0.12591,-0.72852 0.26603,-1.06461 0.14011,-0.33658 0.31257,-0.62662 0.51883,-0.86913 0.39243,-0.48601 0.83581,-0.9436 1.33114,-1.37375 0.49481,-0.42966 1.04158,-0.86864 1.63977,-1.31742 0.59771,-0.44828 1.27039,-0.91077 2.01802,-1.38698 0.74713,-0.4767 1.56971,-0.99553 2.46678,-1.556 0.11217,-0.07493 0.22829,-0.13571 0.35029,-0.18225 0.121,-0.04702 0.22879,-0.03285 0.32236,0.04215 0.13032,0.35471 0.32677,0.73342 0.5884,1.13515 0.26161,0.40174 0.58399,0.78046 0.96711,1.13565 0.38313,0.35471 0.83141,0.64867 1.34534,0.88284 0.51393,0.23321 1.10724,0.3503 1.7799,0.3503 0.99063,0 1.80342,-0.21997 2.43887,-0.65896 0.63494,-0.43897 1.13025,-0.99503 1.48544,-1.66771 0.35471,-0.65405 0.584,-1.37816 0.68688,-2.17184 0.10239,-0.79466 0.15775,-1.63097 0.15383,-2.50941 -0.0069,-1.62754 0.28608,-2.66325 0.28608,-2.66324 m -58.12562,58.73307 -0.1045,0.15688 c -0.94176,1.25551 -2.4196,2.00084 -3.93649,2.00084 -2.68117,0 -4.86511,-2.1839 -4.86511,-4.87798 0,-2.68117 2.18395,-4.86511 4.86511,-4.86511 1.30765,0 2.53697,0.50995 3.45254,1.43857 l 0.43158,0.44467 -1.62163,1.41238 -0.37926,-0.36612 c -0.51013,-0.49704 -1.17714,-0.77156 -1.88324,-0.77156 -1.49094,0 -2.70717,1.21623 -2.70717,2.70717 0,1.5038 1.21623,2.72026 2.70717,2.72026 0.71919,0 1.37311,-0.2747 1.88324,-0.77174 v -1.1508 H 10.9706 v -2.15799 h 4.56422 c 0,-3e-5 0,4.0805 10e-6,4.0805 z m 12.35732,-5.07435 h -4.06737 v 0.7977 h 3.55747 v 2.2625 h -3.55747 v 1.77873 h 3.97595 v 2.24936 h -6.2515 v -9.31169 h 6.34291 z m 4.90315,2.38006 c 0,-2.68094 2.17103,-4.85179 4.83892,-4.85179 2.65475,0 4.85202,2.17085 4.85202,4.85179 0,2.65503 -2.19727,4.82584 -4.85202,4.82584 -2.66788,-1e-5 -4.83892,-2.17082 -4.83892,-4.82584 z m 35.94629,106.53169 c 0,0.86719 0.6731,1.448 1.47876,1.448 0.59107,0 1.24365,-0.35669 1.5293,-0.91772 l -1.70288,-2.3855 c -1.02978,0.71337 -1.30517,1.28466 -1.30518,1.85522 z m -12.48632,-3.15015 c -0.75439,0 -1.13159,0.48926 -1.1521,1.83472 h 2.30493 c -0.0205,-1.34546 -0.3977,-1.83472 -1.15283,-1.83472 z m 4.51904,0 c -0.34643,0 -0.65259,0.18311 -0.8562,0.479 -0.26514,0.3772 -0.34717,0.90747 -0.34717,1.8457 0,1.99805 0.56104,2.31445 1.18286,2.31445 0.61157,0 1.18286,-0.31641 1.18286,-2.31445 10e-6,-1.96801 -0.57128,-2.3247 -1.16235,-2.3247 z m -13.73546,-31.4546 c -0.61157,0 -1.18286,0.31567 -1.18286,2.31445 0,2.0083 0.57129,2.32469 1.18286,2.32469 0.62183,0 1.18286,-0.31639 1.18286,-2.32469 0,-1.99878 -0.56103,-2.31445 -1.18286,-2.31445 z m 24.14024,30.52659 c 0,-0.46948 -0.35742,-0.81592 -0.82617,-0.81592 -0.479,0 -0.83642,0.34644 -0.83642,0.81592 0,0.38745 0.27539,0.92798 0.68335,1.47803 0.80566,-0.61157 0.97924,-1.08032 0.97924,-1.47803 z M 51.53737,214.51749 c -0.75439,0 -1.13159,0.48926 -1.1521,1.83472 h 2.30493 c -0.0205,-1.34547 -0.3977,-1.83472 -1.15283,-1.83472 z m -8.30821,31.45457 c -0.68262,0 -1.21289,0.59106 -1.21289,2.31445 0,1.73291 0.53027,2.32471 1.21289,2.32471 0.68335,0 1.21362,-0.5918 1.21362,-2.32471 0,-1.72338 -0.53028,-2.31445 -1.21362,-2.31445 z m 25.86363,-31.45457 c -0.75439,0 -1.13159,0.48926 -1.1521,1.83472 h 2.30493 c -0.02051,-1.34547 -0.3977,-1.83472 -1.15283,-1.83472 z m 10.79224,2.3247 -0.50977,0.13257 c -0.6123,0.1626 -0.92797,0.479 -0.92797,1.12134 0,0.63208 0.32593,1.06053 0.8562,1.06053 0.74414,0 1.25391,-0.56102 1.25391,-1.52928 v -1.14258 h -0.0198 c -0.0615,0.18384 -0.40796,0.2959 -0.65259,0.35742 z m 8.08885,-2.3247 c -0.75439,0 -1.13159,0.48926 -1.1521,1.83472 h 2.30493 c -0.02046,-1.34547 -0.3977,-1.83472 -1.15283,-1.83472 z m -30.93821,3.15014 c 0,0.86719 0.6731,1.44798 1.47876,1.44798 0.59107,0 1.24365,-0.35667 1.5293,-0.91771 l -1.70288,-2.3855 c -1.02978,0.71339 -1.30517,1.28468 -1.30518,1.85523 z m 2.4375,-4.07812 c 0,-0.46948 -0.35742,-0.81592 -0.82617,-0.81592 -0.479,0 -0.83642,0.34644 -0.83642,0.81592 0,0.38745 0.27539,0.92798 0.68335,1.47803 0.80565,-0.61158 0.97924,-1.08033 0.97924,-1.47803 z m 15.84154,0.92798 c -0.75439,0 -1.13159,0.48926 -1.1521,1.83472 h 2.30493 c -0.02047,-1.34547 -0.3977,-1.83472 -1.15283,-1.83472 z m -31.43846,2.31445 c 0,-1.72339 -0.53027,-2.31445 -1.21362,-2.31445 -0.68262,0 -1.21289,0.59106 -1.21289,2.31445 0,1.73291 0.53027,2.32469 1.21289,2.32469 0.68334,0 1.21362,-0.59178 1.21362,-2.32469 z m 38.27416,0.97852 h 0.61157 v 0.14282 c 0,0.79541 0.34643,1.20335 1.04004,1.20335 0.65259,0 1.07079,-0.36693 1.07079,-0.96898 0,-0.479 -0.19409,-0.78516 -0.73462,-0.99902 l -0.8562,-0.33618 c -0.76465,-0.2959 -1.04004,-0.74487 -1.04004,-1.2854 0,-1.11108 0.6936,-1.56006 1.61133,-1.56006 1.01954,0 1.48829,0.52002 1.48829,1.50952 v 0.15308 H 84.73 v -0.15308 c 0,-0.70386 -0.32666,-0.99902 -0.88696,-0.99902 -0.71411,0 -0.98951,0.3772 -0.98951,0.91699 0,0.37793 0.12232,0.6731 0.73462,0.9082 l 0.88696,0.33618 c 0.73389,0.27539 1.00928,0.78516 1.00928,1.37622 0,0.92796 -0.53027,1.61131 -1.67212,1.61131 -1.11182,0 -1.66187,-0.4585 -1.66187,-1.68236 -1e-5,1e-5 -1e-5,-0.17357 10e-6,-0.17357 z m -1.56226,1.12207 v -0.18384 h -0.02048 c -0.24463,0.7141 -0.79541,0.91771 -1.39672,0.91771 -0.94849,0 -1.37622,-0.59106 -1.37622,-1.52928 0,-0.71411 0.32593,-1.28467 1.09058,-1.49927 l 1.1521,-0.32593 c 0.42847,-0.12231 0.52002,-0.22485 0.52002,-0.85693 0,-0.69287 -0.38745,-0.9375 -0.9375,-0.9375 -0.72437,0 -1.04004,0.43799 -1.04004,1.22314 h -0.6123 c 0,-1.11108 0.53027,-1.73364 1.67285,-1.73364 1.12134,0 1.5293,0.58154 1.5293,1.43774 v 3.20215 c 0,0.30614 0.10181,0.44823 0.31567,0.44823 H 81.659 v 0.44897 c -0.11205,0.041 -0.20361,0.0615 -0.28564,0.0615 -0.47901,0 -0.78516,-0.11279 -0.78516,-0.6731 z M 64.96743,250.5497 c 0.12231,0 0.24463,-0.0198 0.3772,-0.0608 v 0.50977 c -0.07178,0.041 -0.22485,0.0615 -0.42847,0.0615 -0.82617,0 -1.14185,-0.22485 -1.14185,-0.94849 v -4.01733 h -0.74487 v -0.5105 h 0.74487 v -1.49854 h 0.61158 v 1.49854 h 0.95874 v 0.5105 h -0.95874 v 3.88477 c 0,0.42847 0.18384,0.57056 0.58154,0.57056 z m -3.96497,-31.00562 -0.64234,-0.88695 c -0.40796,0.61156 -1.04004,1.00926 -1.93726,1.00926 -1.25463,0 -2.03979,-0.85619 -2.03979,-1.92699 0,-0.76465 0.38745,-1.3667 1.05029,-1.87646 l 0.60204,-0.4585 c -0.52002,-0.68335 -0.83642,-1.22388 -0.83642,-1.79517 0,-0.87671 0.68335,-1.34546 1.48901,-1.34546 0.84595,0 1.39672,0.54053 1.39672,1.34546 0,0.5918 -0.24463,1.14258 -1.28467,1.87646 l 1.57031,2.20239 c 0.18311,-0.44824 0.25488,-0.92798 0.26514,-1.37622 h 0.61157 c 0,0.63208 -0.18384,1.30518 -0.50977,1.88599 l 0.95874,1.34618 c 3e-5,1e-5 -0.69356,1e-5 -0.69357,1e-5 z m -20.20531,-2.71214 c 0,-1.87646 0.67236,-2.82495 1.86547,-2.82495 1.19311,0 1.86621,0.94849 1.86621,2.82495 0,1.88599 -0.6731,2.83446 -1.86621,2.83446 -1.19311,0 -1.86547,-0.94847 -1.86547,-2.83446 z m 7.48608,2.71214 v -0.8972 h -0.02051 c -0.16333,0.62181 -0.68335,1.01952 -1.32568,1.01952 -1.19312,0 -1.73364,-0.95872 -1.73364,-2.83446 0,-1.86621 0.54052,-2.82495 1.73364,-2.82495 0.6731,0 1.13159,0.36768 1.26416,0.93823 h 0.02051 v -2.6814 h 0.61157 v 7.28026 z m 3.25415,-0.38745 c 0.64234,0 1.04004,-0.45921 1.14258,-1.40697 h 0.61157 c -0.09155,1.1521 -0.72436,1.91673 -1.7439,1.91673 -1.14185,0 -1.81494,-0.79539 -1.81494,-2.83446 0,-1.87646 0.6731,-2.82495 1.86621,-2.82495 1.20337,0 1.7439,0.82617 1.7439,2.63086 v 0.22485 h -2.95752 v 0.25488 c 0,1.56006 0.55079,2.03908 1.1521,2.03908 z m 13.77172,-4.18065 c 0.23438,-0.60132 0.73389,-0.96899 1.36597,-0.96899 0.07178,0 0.14282,0.0103 0.2146,0.0307 v 0.61157 c -0.10254,-0.0198 -0.20435,-0.03 -0.2959,-0.03 -0.6731,0 -1.30517,0.48926 -1.30517,1.53955 v 3.38524 h -0.6123 v -5.41478 h 0.6123 v 0.84669 z m 1.97901,1.85596 c 0,-1.87646 0.6731,-2.82495 1.86621,-2.82495 1.20337,0 1.7439,0.82617 1.7439,2.63086 v 0.22485 H 67.9407 v 0.25488 c 0,1.56006 0.55079,2.03905 1.1521,2.03905 0.64234,0 1.04004,-0.45921 1.14258,-1.40697 h 0.61157 c -0.09155,1.1521 -0.72437,1.91673 -1.7439,1.91673 -1.14185,0 -1.81494,-0.79538 -1.81494,-2.83444 z m 4.61059,2.71214 v -7.28026 h 0.61157 v 7.28026 z m -33.86717,-7.40257 c 1.47876,0 2.09033,1.05029 2.09033,2.24341 h -0.65259 c 0,-0.9895 -0.49952,-1.69263 -1.43774,-1.69263 -1.04004,0 -1.67212,0.8562 -1.67212,3.21167 0,2.35547 0.63208,3.21165 1.67212,3.21165 0.91772,0 1.43774,-0.78514 1.50952,-2.03905 h 0.65259 c -0.09229,1.66187 -0.85693,2.58983 -2.16211,2.58983 -1.48829,0 -2.32471,-1.15208 -2.32471,-3.76244 0,-2.61036 0.83643,-3.76244 2.32471,-3.76244 z m -1.75818,35.21703 c 0,-2.61035 0.83642,-3.76245 2.3247,-3.76245 1.47876,0 2.09033,1.05029 2.09033,2.24341 H 40.0358 c 0,-0.9895 -0.49952,-1.69263 -1.43774,-1.69263 -1.04004,0 -1.67212,0.8562 -1.67212,3.21167 0,2.35547 0.63208,3.21167 1.67212,3.21167 0.91772,0 1.43774,-0.78516 1.50953,-2.03906 h 0.65259 c -0.09229,1.66187 -0.85693,2.58984 -2.16211,2.58984 -1.48829,0 -2.32472,-1.15213 -2.32472,-3.76245 z m 6.95581,3.76245 c -1.19238,0 -1.86547,-0.94849 -1.86547,-2.83447 0,-1.87646 0.6731,-2.82495 1.86547,-2.82495 1.19312,0 1.86621,0.94849 1.86621,2.82495 10e-6,1.88598 -0.67309,2.83447 -1.86621,2.83447 z m 4.57032,-5.14893 c -0.71411,0 -1.19312,0.55005 -1.19312,1.38647 v 3.64014 h -0.61231 v -5.41479 h 0.55079 v 0.75513 h 0.0205 c 0.30615,-0.60205 0.83643,-0.87744 1.38647,-0.87744 0.82617,0 1.38721,0.42847 1.38721,1.448 v 4.08911 h -0.61157 v -3.91553 c 0,-0.74415 -0.30615,-1.11109 -0.92797,-1.11109 z m 2.43896,2.31445 c 0,-1.87646 0.67236,-2.82495 1.86547,-2.82495 1.02026,0 1.61133,0.62256 1.67285,1.73364 h -0.61232 c -0.07104,-0.84595 -0.40796,-1.22314 -1.06055,-1.22314 -0.66284,0 -1.21289,0.40723 -1.21289,2.32471 0,2.03906 0.58081,2.31445 1.1521,2.31445 0.62183,0 1.01954,-0.45923 1.12134,-1.40698 h 0.6123 c -0.09229,1.1521 -0.72437,1.91675 -1.72339,1.91675 -1.14257,0 -1.81494,-0.79541 -1.81494,-2.83447 h 3e-5 z m 4.21216,0 c 0,-1.87646 0.6731,-2.82495 1.86621,-2.82495 1.20337,0 1.7439,0.82617 1.7439,2.63086 v 0.22485 h -2.95752 v 0.25488 c 0,1.56006 0.55079,2.03906 1.1521,2.03906 0.64234,0 1.04004,-0.45923 1.14258,-1.40698 h 0.61157 c -0.09155,1.1521 -0.72436,1.91675 -1.7439,1.91675 -1.14185,2e-5 -1.81494,-0.79539 -1.81494,-2.83446 z m 6.40503,2.83448 c -0.67236,0 -1.13159,-0.36694 -1.26416,-0.93823 h -0.02052 v 2.61035 h -0.61157 v -7.20923 h 0.55079 v 0.77563 h 0.02051 c 0.19336,-0.50024 0.64234,-0.89795 1.33521,-0.89795 1.20337,0 1.72339,0.95874 1.72339,2.83521 -2e-5,1.86548 -0.54055,2.82422 -1.73365,2.82422 z m 11.21045,-1.00928 c -0.40797,0.61157 -1.04004,1.00928 -1.93726,1.00928 -1.25464,0 -2.03979,-0.8562 -2.03979,-1.927 0,-0.76465 0.38745,-1.3667 1.05029,-1.87646 l 0.60204,-0.4585 c -0.52002,-0.68335 -0.83642,-1.22388 -0.83642,-1.79517 0,-0.87671 0.68335,-1.34546 1.48901,-1.34546 0.84595,0 1.39672,0.54053 1.39672,1.34546 0,0.5918 -0.24463,1.14258 -1.28467,1.87646 l 1.57031,2.20239 c 0.18311,-0.44824 0.25488,-0.92798 0.26514,-1.37622 h 0.61157 c 0,0.63208 -0.18384,1.30518 -0.50977,1.88599 l 0.95874,1.34619 h -0.6936 z m 1.44396,-33.27977 c 0,-1.87646 0.6731,-2.82495 1.86621,-2.82495 1.20337,0 1.7439,0.82617 1.7439,2.63086 v 0.22485 h -2.95752 v 0.25488 c 0,1.56006 0.55079,2.03905 1.1521,2.03905 0.64234,0 1.04004,-0.45921 1.14258,-1.40697 h 0.61157 c -0.09155,1.1521 -0.72437,1.91673 -1.7439,1.91673 -1.14185,0 -1.81494,-0.79538 -1.81494,-2.83444 z m 2.79016,30.5266 c 0,-2.61035 0.83642,-3.76245 2.3247,-3.76245 1.38721,0 2.00903,0.90747 2.09033,2.16138 h -0.65259 c 0,-0.87671 -0.479,-1.6106 -1.43774,-1.6106 -1.04004,0 -1.67211,0.8562 -1.67211,3.21167 0,2.35547 0.63207,3.21167 1.67211,3.21167 0.97925,0 1.51978,-0.87671 1.51978,-2.57959 v -0.15308 h -1.72339 v -0.55078 h 2.33496 v 3.71191 h -0.50977 v -1.20337 h -0.02047 c -0.22412,0.80566 -0.87672,1.32568 -1.60108,1.32568 -1.48827,-3e-5 -2.32471,-1.15213 -2.32471,-3.76248 z m 5.43677,-3.64014 h 0.65259 v 5.23096 c 0,1.09058 0.46948,1.62085 1.42749,1.62085 0.95874,0 1.42822,-0.53027 1.42822,-1.62085 v -5.23096 h 0.65259 v 5.24121 c 0,1.5293 -0.74487,2.16138 -2.0808,2.16138 -1.33521,0 -2.08008,-0.63208 -2.08008,-2.16138 0,0 0,-5.24121 -1e-5,-5.24121 z m 5.24341,7.28027 v -7.28027 h 0.65259 v 7.28027 z m 2.79895,-34.13597 h -2.95752 v 0.25488 c 0,1.56006 0.55078,2.03905 1.1521,2.03905 0.64233,0 1.04004,-0.45921 1.14258,-1.40697 h 0.61157 c -0.09155,1.1521 -0.72437,1.91673 -1.7439,1.91673 -1.14185,0 -1.81494,-0.79539 -1.81494,-2.83446 0,-1.87646 0.6731,-2.82495 1.86621,-2.82495 1.20337,0 1.7439,0.82617 1.7439,2.63086 z m 9.0542,-71.68262 c 0.81084,0 1.52998,-0.33994 2.2625,-1.30788 l 1.7916,1.32097 c -1.16386,1.5564 -2.5372,2.23627 -4.05409,2.23627 -2.66808,0 -4.85202,-2.1839 -4.85202,-4.85179 0,-2.66806 2.18394,-4.83891 4.85202,-4.83891 1.54308,0 2.9426,0.71919 4.10646,2.27559 l -1.81778,1.33383 c -0.73251,-0.9808 -1.47784,-1.37311 -2.28868,-1.37311 -1.45166,0 -2.60262,1.16386 -2.60262,2.6026 0,1.45168 1.15096,2.60245 2.60262,2.60245 v -2e-5 z m 15.58753,0.85007 c -0.30089,0.43163 -0.74556,0.74538 -1.24242,0.9939 -0.52322,0.2747 -1.05936,0.35326 -1.64781,0.35326 -0.31398,0 -0.65392,-0.0393 -0.94176,-0.10474 -0.94148,-0.19615 -1.80469,-0.62773 -2.91637,-1.58235 l 1.49094,-1.71327 c 0.82388,0.71919 1.30783,0.9939 1.88324,1.09863 0.16997,0.0391 0.33994,0.0653 0.49704,0.0653 0.26138,0 0.49681,-0.0521 0.67992,-0.14378 0.15706,-0.0786 0.43158,-0.24852 0.43158,-0.60159 0,-0.36612 -0.6801,-0.58846 -1.2686,-0.70628 -0.26138,-0.0521 -1.54308,-0.32684 -2.0663,-0.64082 -0.88939,-0.52304 -1.34692,-1.32074 -1.34692,-2.31487 0,-0.54918 0.18306,-1.0724 0.48372,-1.51689 0.30089,-0.41849 0.71942,-0.74556 1.20337,-0.9679 l -0.0131,0.0131 c 0.49681,-0.23543 1.05931,-0.35307 1.59544,-0.35307 0.22234,0 0.43158,0.0131 0.69319,0.0523 0.83702,0.14378 1.60854,0.48376 2.68098,1.37311 l -1.43857,1.72636 c -0.9679,-0.7977 -1.46475,-0.91553 -1.96179,-0.91553 -0.24852,0 -0.44467,0.0523 -0.60159,0.13092 -0.24852,0.10451 -0.37921,0.28757 -0.37921,0.45753 0,0.35326 0.47086,0.52322 1.22932,0.68015 0.0786,0.0262 0.16997,0.0262 0.26161,0.0523 0.50995,0.11765 1.2686,0.27475 1.76541,0.56232 h -0.0131 c 0.94176,0.52322 1.43857,1.34715 1.43857,2.36719 0,0.60158 -0.15688,1.16385 -0.49681,1.6347 z" />
	</g>
	<g
   id="g33">
		<g
   id="g31">
			<g
   id="g29">
				<g
   id="g25">
					<circle
   id="circle21"
   style="fill:#bcbcbc"
   cx="17.24995"
   cy="5.3210702"
   r="4.3021898" />
					<path
   id="path23"
   inkscape:connector-curvature="0"
   style="fill:#808080"
   d="m 17.24992,1.21657 c 2.26685,-2e-5 4.10451,1.83761 4.10452,4.10446 10e-6,2.26685 -1.83761,4.10451 -4.10446,4.10452 -2.26685,2e-5 -4.10451,-1.83761 -4.10452,-4.10446 0,-10e-6 0,-2e-5 0,-3e-5 0.0026,-2.26576 1.8387,-4.10188 4.10446,-4.10449 m 0,-0.3955 c -2.48528,0 -4.5,2.01472 -4.5,4.5 0,2.48528 2.01472,4.5 4.5,4.5 2.48528,0 4.5,-2.01472 4.5,-4.5 -1.2e-4,-2.48523 -2.01477,-4.49988 -4.5,-4.5 z" />
				</g>
				<polygon
   id="polygon27"
   style="fill:#6e6e6e"
   points="17.74417,4.82682 17.74417,2.69982 16.75567,2.69982 16.75567,4.82682 14.62943,4.82682 14.62943,5.81532 16.75567,5.81532 16.75567,7.94232 17.74417,7.94232 17.74417,5.81532 19.87117,5.81532 19.87117,4.82682 " />
			</g>
		</g>
	</g>
	<g
   id="g47">
		<g
   id="g45">
			<g
   id="g43">
				<g
   id="g39">
					<circle
   id="circle35"
   style="fill:#bcbcbc"
   cx="106.49992"
   cy="5.3210702"
   r="4.3021998" />
					<path
   id="path37"
   inkscape:connector-curvature="0"
   style="fill:#808080"
   d="m 106.49989,1.21657 c 2.26685,-2e-5 4.10452,1.83761 4.10452,4.10446 2e-5,2.26685 -1.83761,4.10451 -4.10445,4.10452 -2.26685,2e-5 -4.10452,-1.83761 -4.10452,-4.10446 0,-10e-6 0,-2e-5 0,-3e-5 0.002,-2.26576 1.83868,-4.10188 4.10445,-4.10449 m 0,-0.3955 c -2.48528,0 -4.5,2.01472 -4.5,4.5 0,2.48528 2.01472,4.5 4.5,4.5 2.48529,0 4.5,-2.01472 4.5,-4.5 -1.2e-4,-2.48523 -2.01477,-4.49988 -4.5,-4.5 z" />
				</g>
				<polygon
   id="polygon41"
   style="fill:#6e6e6e"
   points="106.99414,4.82682 106.99414,2.69982 106.00564,2.69982 106.00564,4.82682 103.87939,4.82682 103.87939,5.81532 106.00564,5.81532 106.00564,7.94232 106.99414,7.94232 106.99414,5.81532 109.12114,5.81532 109.12114,4.82682 " />
			</g>
		</g>
	</g>
	<g
   id="g61">
		<g
   id="g59">
			<g
   id="g57">
				<g
   id="g53">
					<circle
   id="circle49"
   style="fill:#bcbcbc"
   cx="17.24995"
   cy="279.82095"
   r="4.3021998" />
					<path
   id="path51"
   inkscape:connector-curvature="0"
   style="fill:#808080"
   d="m 17.24992,275.71649 c 2.26685,-3e-5 4.10451,1.83762 4.10452,4.10446 10e-6,2.26684 -1.83761,4.10449 -4.10446,4.10449 -2.26685,3e-5 -4.10451,-1.83759 -4.10452,-4.10446 v -3e-5 c 0.0026,-2.26574 1.8387,-4.10186 4.10446,-4.10446 m 0,-0.39551 c -2.48528,0 -4.5,2.01468 -4.5,4.49997 0,2.48529 2.01472,4.5 4.5,4.5 2.48528,0 4.5,-2.01471 4.5,-4.5 -1.2e-4,-2.4852 -2.01477,-4.49987 -4.5,-4.49997 z" />
				</g>
				<polygon
   id="polygon55"
   style="fill:#6e6e6e"
   points="17.74417,279.32672 17.74417,277.19971 16.75567,277.19971 16.75567,279.32672 14.62943,279.32672 14.62943,280.31522 16.75567,280.31522 16.75567,282.4422 17.74417,282.4422 17.74417,280.31522 19.87117,280.31522 19.87117,279.32672 " />
			</g>
		</g>
	</g>
	<g
   id="g75">
		<g
   id="g73">
			<g
   id="g71">
				<g
   id="g67">
					<circle
   id="circle63"
   style="fill:#bcbcbc"
   cx="106.49992"
   cy="279.82095"
   r="4.3021998" />
					<path
   id="path65"
   inkscape:connector-curvature="0"
   style="fill:#808080"
   d="m 106.49989,275.71649 c 2.26685,-3e-5 4.10452,1.83762 4.10452,4.10446 2e-5,2.26685 -1.83761,4.10449 -4.10445,4.10449 -2.26685,3e-5 -4.10452,-1.83759 -4.10452,-4.10446 v -3e-5 c 0.002,-2.26574 1.83868,-4.10186 4.10445,-4.10446 m 0,-0.39551 c -2.48528,0 -4.5,2.01468 -4.5,4.49997 0,2.48529 2.01472,4.5 4.5,4.5 2.48529,0 4.5,-2.01471 4.5,-4.5 -1.2e-4,-2.4852 -2.01477,-4.49987 -4.5,-4.49997 z" />
				</g>
				<polygon
   id="polygon69"
   style="fill:#6e6e6e"
   points="106.99414,279.32672 106.99414,277.19971 106.00564,277.19971 106.00564,279.32672 103.87939,279.32672 103.87939,280.31522 106.00564,280.31522 106.00564,282.4422 106.99414,282.4422 106.99414,280.31522 109.12114,280.31522 109.12114,279.32672 " />
			</g>
		</g>
	</g>
</g>
<g
   id="serigraphy"
   transform="matrix(1.7066674,0,0,1.7066674,1.9095865e-4,-0.48664028)">
	<g
   id="g90">
		<g
   id="g80">
			<path
   id="path78"
   inkscape:connector-curvature="0"
   style="fill:#e5e5e5"
   d="m 3.75237,17.94872 c -0.16516,0 -0.32263,-0.06738 -0.44275,-0.1875 C 3.24993,17.70921 3.20488,17.63378 3.17485,17.56639 3.14482,17.48436 3.1298,17.40892 3.1298,17.32689 c 0,-0.08276 0.01502,-0.16553 0.04505,-0.24023 0.03003,-0.07544 0.07507,-0.14282 0.13477,-0.20288 0.23254,-0.23218 0.64526,-0.23218 0.87781,0 0.05969,0.06006 0.10474,0.12744 0.13477,0.20288 0.03003,0.07471 0.04504,0.15747 0.04504,0.24023 0,0.08204 -0.01502,0.15747 -0.04504,0.2395 -0.03003,0.06738 -0.07508,0.14282 -0.13477,0.19483 -0.06006,0.06006 -0.12781,0.10547 -0.20251,0.13549 -0.07508,0.03003 -0.15016,0.05201 -0.23255,0.05201 z" />
		</g>
		<g
   id="g84">
			<path
   id="path82"
   inkscape:connector-curvature="0"
   style="fill:#e5e5e5"
   d="m 117.56482,17.32689 c 0,-0.34571 0.27759,-0.62256 0.61487,-0.62256 v 0 c 0.34497,0 0.62256,0.27686 0.62256,0.62256 v 0 c 0,0.34497 -0.27759,0.62182 -0.62256,0.62182 v 0 c -0.33728,1e-5 -0.61487,-0.27685 -0.61487,-0.62182 z m -3.69763,0 c 0,-0.34571 0.27759,-0.62256 0.62256,-0.62256 v 0 c 0.34497,0 0.62256,0.27686 0.62256,0.62256 v 0 c 0,0.34497 -0.27759,0.62182 -0.62256,0.62182 v 0 c -0.34497,1e-5 -0.62256,-0.27685 -0.62256,-0.62182 z m -3.68994,0 c 0,-0.34571 0.27759,-0.62256 0.62256,-0.62256 v 0 c 0.34497,0 0.62256,0.27686 0.62256,0.62256 v 0 c 0,0.34497 -0.27759,0.62182 -0.62256,0.62182 v 0 c -0.34498,1e-5 -0.62256,-0.27685 -0.62256,-0.62182 z m -3.68995,0 c 0,-0.34571 0.27759,-0.62256 0.62256,-0.62256 v 0 c 0.34497,0 0.62256,0.27686 0.62256,0.62256 v 0 c 0,0.34497 -0.27759,0.62182 -0.62256,0.62182 v 0 c -0.34498,1e-5 -0.62256,-0.27685 -0.62256,-0.62182 z m -3.68994,0 c 0,-0.34571 0.27722,-0.62256 0.62256,-0.62256 v 0 c 0.33728,0 0.62219,0.27686 0.62219,0.62256 v 0 c 0,0.34497 -0.28491,0.62182 -0.62219,0.62182 v 0 c -0.34534,1e-5 -0.62256,-0.27685 -0.62256,-0.62182 z m -3.68995,0 c 0,-0.34571 0.27722,-0.62256 0.62219,-0.62256 v 0 c 0.33765,0 0.61523,0.27686 0.61523,0.62256 v 0 c 0,0.34497 -0.27759,0.62182 -0.61523,0.62182 v 0 c -0.34496,1e-5 -0.62219,-0.27685 -0.62219,-0.62182 z m -3.69762,0 c 0,-0.34571 0.28491,-0.62256 0.62257,-0.62256 v 0 c 0.34497,0 0.62256,0.27686 0.62256,0.62256 v 0 c 0,0.34497 -0.27759,0.62182 -0.62256,0.62182 v 0 c -0.33766,1e-5 -0.62256,-0.27685 -0.62257,-0.62182 z m -3.68994,0 c 0,-0.34571 0.27722,-0.62256 0.62256,-0.62256 v 0 c 0.34497,0 0.62219,0.27686 0.62219,0.62256 v 0 c 0,0.34497 -0.27722,0.62182 -0.62219,0.62182 v 0 c -0.34534,1e-5 -0.62256,-0.27685 -0.62256,-0.62182 z m -3.68994,0 c 0,-0.34571 0.27722,-0.62256 0.62219,-0.62256 v 0 c 0.34497,0 0.62256,0.27686 0.62256,0.62256 v 0 c 0,0.34497 -0.27759,0.62182 -0.62256,0.62182 v 0 c -0.34497,1e-5 -0.62219,-0.27685 -0.62219,-0.62182 z m -3.69031,0 c 0,-0.34571 0.27759,-0.62256 0.62256,-0.62256 v 0 c 0.33765,0 0.61523,0.27686 0.61523,0.62256 v 0 c 0,0.34497 -0.27759,0.62182 -0.61523,0.62182 v 0 c -0.34497,1e-5 -0.62256,-0.27685 -0.62256,-0.62182 z m -3.68994,0 c 0,-0.34571 0.27759,-0.62256 0.62256,-0.62256 v 0 c 0.33765,0 0.61486,0.27686 0.61486,0.62256 v 0 c 0,0.34497 -0.27721,0.62182 -0.61486,0.62182 v 0 c -0.34497,1e-5 -0.62256,-0.27685 -0.62256,-0.62182 z m -3.68994,0 c 0,-0.34571 0.27758,-0.62256 0.61486,-0.62256 v 0 c 0.34534,0 0.62256,0.27686 0.62256,0.62256 v 0 c 0,0.34497 -0.27722,0.62182 -0.62256,0.62182 v 0 c -0.33728,1e-5 -0.61486,-0.27685 -0.61486,-0.62182 z m -3.69764,0 c 0,-0.34571 0.27759,-0.62256 0.62256,-0.62256 v 0 c 0.34497,0 0.62256,0.27686 0.62256,0.62256 v 0 c 0,0.34497 -0.27759,0.62182 -0.62256,0.62182 v 0 c -0.34497,1e-5 -0.62256,-0.27685 -0.62256,-0.62182 z m -3.68994,0 c 0,-0.34571 0.27759,-0.62256 0.62256,-0.62256 v 0 c 0.34497,0 0.62256,0.27686 0.62256,0.62256 v 0 c 0,0.34497 -0.27759,0.62182 -0.62256,0.62182 v 0 c -0.34497,1e-5 -0.62256,-0.27685 -0.62256,-0.62182 z m -3.68994,0 c 0,-0.34571 0.27759,-0.62256 0.62256,-0.62256 v 0 c 0.34497,0 0.62256,0.27686 0.62256,0.62256 v 0 c 0,0.34497 -0.27759,0.62182 -0.62256,0.62182 v 0 c -0.34497,1e-5 -0.62256,-0.27685 -0.62256,-0.62182 z m -3.68994,0 c 0,-0.34571 0.27759,-0.62256 0.62256,-0.62256 v 0 c 0.33728,0 0.61486,0.27686 0.61486,0.62256 v 0 c 0,0.34497 -0.27759,0.62182 -0.61486,0.62182 v 0 c -0.34497,1e-5 -0.62256,-0.27685 -0.62256,-0.62182 z m -3.68994,0 c 0,-0.34571 0.27759,-0.62256 0.61486,-0.62256 v 0 c 0.34497,0 0.62256,0.27686 0.62256,0.62256 v 0 c 0,0.34497 -0.27759,0.62182 -0.62256,0.62182 v 0 c -0.33727,1e-5 -0.61486,-0.27685 -0.61486,-0.62182 z m -3.69763,0 c 0,-0.34571 0.27759,-0.62256 0.62256,-0.62256 v 0 c 0.34497,0 0.62256,0.27686 0.62256,0.62256 v 0 c 0,0.34497 -0.27759,0.62182 -0.62256,0.62182 v 0 c -0.34497,1e-5 -0.62256,-0.27685 -0.62256,-0.62182 z m -3.68994,0 c 0,-0.34571 0.27759,-0.62256 0.62256,-0.62256 v 0 c 0.34497,0 0.62256,0.27686 0.62256,0.62256 v 0 c 0,0.34497 -0.27759,0.62182 -0.62256,0.62182 v 0 c -0.34497,1e-5 -0.62256,-0.27685 -0.62256,-0.62182 z m -3.68994,0 c 0,-0.34571 0.27759,-0.62256 0.62256,-0.62256 v 0 c 0.34497,0 0.62256,0.27686 0.62256,0.62256 v 0 c 0,0.34497 -0.27759,0.62182 -0.62256,0.62182 v 0 c -0.34498,1e-5 -0.62256,-0.27685 -0.62256,-0.62182 z m 3.84228,213.78506 c 0.66284,0 0.98877,-0.49951 0.98877,-1.30518 v -0.91772 c -0.28491,0.22412 -0.89722,0.35669 -1.22314,0.50977 -0.31641,0.15308 -0.44897,0.47974 -0.44897,0.88696 -1e-5,0.45923 0.22411,0.82617 0.68334,0.82617 z m 18.75988,27.31493 c -0.79541,0 -0.93823,0.8562 -0.93823,2.06982 0,1.39673 0.14282,2.06982 0.93823,2.06982 0.80566,0 0.94849,-0.6731 0.94849,-2.06982 0,-1.21362 -0.14283,-2.06982 -0.94849,-2.06982 z m -30.82616,-1.59082 h -0.74487 v 2.5188 h 0.82617 c 0.62183,0 1.16235,-0.33691 1.16235,-1.25464 1e-5,-0.78516 -0.31567,-1.26416 -1.24365,-1.26416 z m 32.52867,-25.72411 c 0.80566,0 0.94849,-0.6731 0.94849,-2.06982 0,-1.21362 -0.14282,-2.06982 -0.94849,-2.06982 -0.79541,0 -0.93823,0.8562 -0.93823,2.06982 0,1.39673 0.14282,2.06982 0.93823,2.06982 z m -25.27623,27.25341 c -0.70386,0 -0.91772,0.6936 -0.91772,1.40771 v 0.11206 h 1.76367 v -0.2959 c 0,-0.6936 -0.22412,-1.22387 -0.84595,-1.22387 z m 21.19518,-31.94384 c 0,-0.86646 -0.52001,-1.04004 -1.1726,-1.04004 h -0.81592 v 2.19214 h 0.91772 c 0.70386,0 1.07081,-0.46875 1.0708,-1.1521 z m 0.23437,3.20215 c 0,-0.78516 -0.46875,-1.23413 -1.14184,-1.23413 h -1.08105 v 2.5188 h 1.15283 c 0.69287,0 1.07006,-0.44897 1.07006,-1.28467 z m -10.27989,28.74169 c -0.70386,0 -0.91772,0.6936 -0.91772,1.40771 v 0.11206 h 1.76367 v -0.2959 c -1e-5,-0.6936 -0.22413,-1.22387 -0.84595,-1.22387 z m 26.90734,-30.2307 c 0,-0.6936 -0.22412,-1.22388 -0.84595,-1.22388 -0.70386,0 -0.91772,0.6936 -0.91772,1.40771 v 0.11206 h 1.76367 z m -6.16956,33.6057 c 0,0.45923 0.22412,0.82617 0.68335,0.82617 0.66284,0 0.98877,-0.49951 0.98877,-1.30518 v -0.91772 c -0.28491,0.22412 -0.89722,0.35669 -1.22314,0.50977 -0.3164,0.15307 -0.44898,0.47973 -0.44898,0.88696 z m 8.85351,-3.25269 c -0.63207,0 -0.85619,0.50977 -0.85619,1.98853 0,1.24438 0.1626,2.02954 0.92797,2.02954 0.75439,0 0.92725,-0.7749 0.92725,-1.94751 -1e-5,-1.31543 -0.15236,-2.07056 -0.99903,-2.07056 z m -2.16394,-34.37035 -1.08105,1.46851 h -0.75439 l 0.6123,-1.46851 z m -4.34473,0.38746 v 7.28027 H 79.5847 v -7.28027 z m -21.41088,6.60717 c 0.61157,0.0103 0.83642,-0.49951 0.83642,-1.32568 h 1.04004 c -0.07178,1.31543 -0.52002,2.1416 -1.87646,2.1416 -1.59082,0 -2.03906,-1.18286 -2.03906,-2.88574 0,-1.70288 0.44824,-2.88574 2.03906,-2.88574 1.64136,-0.0205 1.88672,1.28467 1.88672,1.96802 h -1.10156 c 0,-0.50977 -0.14282,-1.17261 -0.78516,-1.1521 -0.79541,0 -0.93823,0.8562 -0.93823,2.06982 0,1.21362 0.14282,2.06982 0.93823,2.06982 z m -11.83373,-5.38403 -1.46851,6.05713 h -0.97852 l -1.46851,-6.05713 h -0.02051 v 6.05713 h -1.10156 v -7.28027 h 1.81494 l 1.2854,5.39355 h 0.01978 l 1.26489,-5.39355 h 1.77392 v 7.28027 h -1.1008 v -6.05713 z m 3.31641,2.93701 0.8562,-0.23438 c 0.39771,-0.11206 0.64234,-0.22485 0.64234,-0.70386 0,-0.49951 -0.17285,-0.81592 -0.75439,-0.81592 -0.73389,0 -0.83569,0.52002 -0.83569,1.05029 H 49.625 c 0,-1.16235 0.47974,-1.80469 1.92773,-1.80469 0.96827,0 1.74316,0.3772 1.74316,1.34619 v 3.14063 c 0,0.20361 0.12232,0.38745 0.28564,0.38745 0.07178,0 0.14282,-0.0103 0.18384,-0.0307 v 0.71411 c -0.13257,0.0608 -0.32666,0.13257 -0.54053,0.13257 -0.48925,0 -0.89721,-0.19409 -0.92797,-0.72437 h -0.02051 c -0.2959,0.54053 -0.72363,0.80566 -1.36597,0.80566 -0.87744,0 -1.42749,-0.48926 -1.42749,-1.53955 0,-1.22388 0.53027,-1.47876 1.27441,-1.72339 v -1e-5 z m 3.66283,-2.36572 h 1.10156 v 0.8562 h 0.01978 c 0.24463,-0.61157 0.65259,-0.99902 1.27515,-0.99902 0.12232,0 0.19336,0.0205 0.26514,0.041 v 1.12134 c -0.08204,-0.0205 -0.27539,-0.0608 -0.45922,-0.0608 -0.49952,0 -1.10083,0.22412 -1.10083,1.24365 v 3.28345 h -1.10156 v -5.48584 h -2e-5 v 1e-5 z m 10.0774,5.48584 v -7.28027 h 2.35547 c 1.08105,0 1.95776,0.479 1.95776,1.76367 0,0.88696 -0.34643,1.42749 -1.07007,1.65234 v 0.0198 c 0.79468,0.14282 1.30517,0.62256 1.30517,1.85596 0,1.21362 -0.87744,1.98853 -2.2434,1.98853 h -2.30493 z m 7.23192,-5.62866 c 1.60108,0 2.04932,1.18286 2.04932,2.88574 0,1.70288 -0.52002,2.88574 -2.04932,2.88574 -1.51904,0 -2.03906,-1.18286 -2.03906,-2.88574 0,-1.70288 0.44824,-2.88574 2.03906,-2.88574 z M 39.4762,260.23157 h -1.02026 v 3.00806 h -1.16235 v -7.28026 h 2.30493 c 1.39672,0 2.0083,0.87669 2.0083,2.12108 -10e-6,1.30517 -0.76466,2.15112 -2.13062,2.15112 z m 3.99902,3.00805 H 42.3744 v -5.48584 h 1.10083 v 5.48584 z m 0,-6.26074 H 42.3744 v -1.10155 h 1.10083 v 1.10155 z m 4.92554,3.66065 h -2.86523 v 0.31641 c 0,0.73389 0.09155,1.67212 0.91772,1.67212 0.78516,0 0.87671,-0.89722 0.87671,-1.22388 H 48.37 c 0,1.21362 -0.73389,1.97827 -1.927,1.97827 -0.89722,0 -2.00903,-0.26514 -2.00903,-2.80444 0,-1.43774 0.30615,-2.96704 2.02954,-2.96704 1.52929,0 1.93726,0.91772 1.93726,2.44702 v 0.58154 z m 3.57128,-1.86621 c -0.08204,-0.0205 -0.27539,-0.0608 -0.45922,-0.0608 -0.49952,0 -1.10156,0.22412 -1.10156,1.24365 v 3.28345 h -1.10083 v -5.48584 h 1.10083 v 0.8562 h 0.02051 c 0.24463,-0.61157 0.65259,-0.99899 1.27515,-0.99899 0.12232,0 0.19336,0.0205 0.26514,0.041 v 1.12131 h -10e-6 z m 3.21314,0 c -0.08204,-0.0205 -0.27539,-0.0608 -0.45922,-0.0608 -0.49952,0 -1.10083,0.22412 -1.10083,1.24365 v 3.28345 h -1.10156 v -5.48584 h 1.10156 v 0.8562 h 0.01978 c 0.24463,-0.61157 0.65259,-0.99899 1.27515,-0.99899 0.12232,0 0.19336,0.0205 0.26514,0.041 v 1.12131 h -2e-5 z m 4.36524,1.86621 h -2.86523 v 0.31641 c 0,0.73389 0.09155,1.67212 0.91772,1.67212 0.78516,0 0.87671,-0.89722 0.87671,-1.22388 h 1.04004 c 0,1.21362 -0.73389,1.97827 -1.92701,1.97827 -0.89722,0 -2.00903,-0.26514 -2.00903,-2.80444 0,-1.43774 0.30615,-2.96704 2.02954,-2.96704 1.52929,0 1.93725,0.91772 1.93725,2.44702 -10e-6,-1e-5 -10e-6,0.58154 1e-5,0.58154 z m 7.90502,0.14282 c 0,1.31543 -0.53027,2.6001 -2.2434,2.6001 -1.83546,0 -2.40601,-1.18286 -2.40601,-3.78296 0,-2.6001 0.57056,-3.78294 2.41626,-3.78294 2.06982,0 2.19213,1.52928 2.19213,2.28368 v 0.13257 h -1.16235 v -0.12231 c 0,-0.6731 -0.20361,-1.448 -1.04004,-1.41724 -0.8562,0 -1.24365,0.53027 -1.24365,2.87549 0,2.34522 0.38745,2.93701 1.24365,2.93701 0.96899,0 1.08105,-1.08105 1.08105,-1.75415 v -0.12231 h 1.16235 v 0.15306 z m 2.57153,2.6001 c -1.51904,0 -2.03906,-1.18286 -2.03906,-2.88574 0,-1.70288 0.44824,-2.88574 2.03906,-2.88574 1.60108,0 2.04932,1.18286 2.04932,2.88574 0,1.70288 -0.52002,2.88574 -2.04932,2.88574 z m 4.04955,-0.14283 h -1.10083 v -7.28026 h 1.10083 z m 0.55042,-33.10618 v -3.83423 h 1.10083 v 3.93604 c 0,0.61157 0.27539,0.81592 0.74487,0.81592 0.46875,0 0.89721,-0.30615 0.89721,-0.91772 v -3.83423 h 1.10083 v 5.48584 h -1.04004 v -0.64233 h -0.03 c -0.27539,0.48926 -0.79541,0.78516 -1.40771,0.78516 -0.81518,0 -1.36596,-0.3772 -1.36596,-1.79443 h -3e-5 z m 1.71423,33.10618 h -1.10083 v -7.28026 h 1.10083 z m 5.18115,-0.071 c -0.13257,0.0608 -0.32666,0.13257 -0.54053,0.13257 -0.48926,0 -0.89722,-0.19409 -0.92797,-0.72437 h -0.02048 c -0.2959,0.54053 -0.72363,0.80566 -1.36597,0.80566 -0.87744,0 -1.42749,-0.48926 -1.42749,-1.53955 0,-1.22388 0.53027,-1.47876 1.27441,-1.72339 l 0.8562,-0.23438 c 0.39771,-0.11206 0.64234,-0.22485 0.64234,-0.70386 0,-0.49951 -0.17285,-0.81592 -0.75439,-0.81592 -0.73389,0 -0.83569,0.52002 -0.83569,1.05029 h -1.04078 c 0,-1.16235 0.47974,-1.80469 1.92773,-1.80469 0.96827,0 1.74316,0.3772 1.74316,1.34619 v 3.14063 c 0,0.20361 0.12232,0.38745 0.28564,0.38745 0.07178,0 0.14282,-0.0103 0.18384,-0.0307 0,0 0,0.71411 0,0.71411 z m 2.15222,-37.01219 c 1.5293,0 1.93726,0.91772 1.93726,2.44702 v 0.58154 h -2.86523 v 0.31641 c 0,0.73389 0.09155,1.67212 0.91772,1.67212 0.78516,0 0.87672,-0.89722 0.87672,-1.22388 h 1.04004 c 0,1.21362 -0.73389,1.97827 -1.92701,1.97827 -0.89722,0 -2.00903,-0.26514 -2.00903,-2.80444 -1e-5,-1.43775 0.30614,-2.96704 2.02953,-2.96704 z m 1.16345,32.61693 c -0.08204,-0.0205 -0.27539,-0.0608 -0.45922,-0.0608 -0.49952,0 -1.10083,0.22412 -1.10083,1.24365 v 3.28345 h -1.10156 v -5.48584 h 1.10156 v 0.8562 h 0.0198 c 0.24463,-0.61157 0.65259,-0.99902 1.27515,-0.99902 0.12231,0 0.19336,0.0205 0.26514,0.041 v 1.12134 h -2e-5 z m 4.39527,4.4663 h -1.04004 v -0.6731 h -0.0198 c -0.14282,0.35669 -0.41821,0.81592 -1.20337,0.81592 -1.28467,0 -1.79443,-1.0708 -1.79443,-2.95679 0,-2.4375 0.8562,-2.8147 1.69263,-2.8147 0.59107,0 1.04004,0.2959 1.24365,0.78516 h 0.02048 v -2.43677 h 1.10083 c 2e-5,0 2e-5,7.28027 1e-5,7.28027 h 4e-5 z M 43.73489,17.32689 c 0,-0.34571 0.27722,-0.62256 0.62256,-0.62256 v 0 c 0.33728,0 0.62219,0.27686 0.62219,0.62256 v 0 c 0,0.34497 -0.28491,0.62182 -0.62219,0.62182 v 0 c -0.34534,1e-5 -0.62256,-0.27685 -0.62256,-0.62182 z m -3.68994,0 c 0,-0.34571 0.27722,-0.62256 0.62219,-0.62256 v 0 c 0.33765,0 0.61523,0.27686 0.61523,0.62256 v 0 c 0,0.34497 -0.27759,0.62182 -0.61523,0.62182 v 0 c -0.34497,1e-5 -0.62219,-0.27685 -0.62219,-0.62182 z m -3.69762,0 c 0,-0.34571 0.28491,-0.62256 0.62256,-0.62256 v 0 c 0.34497,0 0.62256,0.27686 0.62256,0.62256 v 0 c 0,0.34497 -0.27759,0.62182 -0.62256,0.62182 v 0 c -0.33765,1e-5 -0.62256,-0.27685 -0.62256,-0.62182 z m -3.68995,0 c 0,-0.34571 0.27722,-0.62256 0.62256,-0.62256 v 0 c 0.34497,0 0.62219,0.27686 0.62219,0.62256 v 0 c 0,0.34497 -0.27722,0.62182 -0.62219,0.62182 v 0 c -0.34534,1e-5 -0.62256,-0.27685 -0.62256,-0.62182 z m -3.68994,0 c 0,-0.34571 0.27722,-0.62256 0.62219,-0.62256 v 0 c 0.34497,0 0.62256,0.27686 0.62256,0.62256 v 0 c 0,0.34497 -0.27759,0.62182 -0.62256,0.62182 v 0 c -0.34497,1e-5 -0.62219,-0.27685 -0.62219,-0.62182 z m -3.6903,0 c 0,-0.34571 0.27759,-0.62256 0.62256,-0.62256 v 0 c 0.34497,0 0.61523,0.27686 0.61523,0.62256 v 0 c 0,0.34497 -0.27026,0.62182 -0.61523,0.62182 v 0 c -0.34498,1e-5 -0.62256,-0.27685 -0.62256,-0.62182 z m -3.68994,0 c 0,-0.34571 0.27759,-0.62256 0.62256,-0.62256 v 0 c 0.33765,0 0.61486,0.27686 0.61486,0.62256 v 0 c 0,0.34497 -0.27722,0.62182 -0.61486,0.62182 v 0 c -0.34497,1e-5 -0.62256,-0.27685 -0.62256,-0.62182 z m -3.68994,0 c 0,-0.34571 0.27759,-0.62256 0.61486,-0.62256 v 0 c 0.34534,0 0.62256,0.27686 0.62256,0.62256 v 0 c 0,0.34497 -0.27722,0.62182 -0.62256,0.62182 v 0 c -0.33727,1e-5 -0.61486,-0.27685 -0.61486,-0.62182 z m -3.69763,0 c 0,-0.34571 0.27759,-0.62256 0.62256,-0.62256 v 0 c 0.34497,0 0.62256,0.27686 0.62256,0.62256 v 0 c 0,0.34497 -0.27759,0.62182 -0.62256,0.62182 v 0 c -0.34498,1e-5 -0.62256,-0.27685 -0.62256,-0.62182 z m -3.68994,0 c 0,-0.34571 0.27759,-0.62256 0.62256,-0.62256 v 0 c 0.34497,0 0.62256,0.27686 0.62256,0.62256 v 0 c 0,0.34497 -0.27759,0.62182 -0.62256,0.62182 v 0 c -0.34497,1e-5 -0.62256,-0.27685 -0.62256,-0.62182 z m -3.68994,0 c 0,-0.34571 0.27759,-0.62256 0.62256,-0.62256 v 0 c 0.34497,0 0.62256,0.27686 0.62256,0.62256 v 0 c 0,0.34497 -0.27759,0.62182 -0.62256,0.62182 v 0 c -0.34497,1e-5 -0.62256,-0.27685 -0.62256,-0.62182 z" />
		</g>
		<g
   id="g88">
			<path
   id="path86"
   inkscape:connector-curvature="0"
   style="fill:#e5e5e5"
   d="m 121.87732,17.94872 c -0.0824,0 -0.16516,-0.02197 -0.24023,-0.052 -0.0747,-0.03003 -0.14246,-0.07544 -0.20251,-0.13549 -0.0597,-0.05201 -0.10474,-0.12744 -0.13477,-0.19483 -0.03,-0.08204 -0.0451,-0.15747 -0.0451,-0.2395 0,-0.08276 0.015,-0.16553 0.0451,-0.24023 0.03,-0.07544 0.0751,-0.14282 0.13477,-0.20288 0.23254,-0.23218 0.65259,-0.23218 0.87781,0 0.0597,0.06006 0.10474,0.12744 0.13477,0.20288 0.03,0.07471 0.0451,0.15747 0.0451,0.24023 0,0.08204 -0.015,0.15747 -0.0451,0.2395 -0.03,0.06738 -0.0751,0.14282 -0.13477,0.19483 -0.11282,0.12011 -0.27029,0.18749 -0.43507,0.18749 z" />
		</g>
	</g>
</g>
<g
   id="g78"
   transform="matrix(1.3333415,0,0,1.3333415,-6.2285681e-4,-0.00139028)">
	<path
   style="fill:#e5e5e5"
   d="m 49.55859,209.06555 h 1.51172 l 1.22559,5.52539 h 0.02539 l 1.10742,-5.52539 h 1.49902 l -1.85059,7.01074 h -1.6416 z"
   id="path54"
   inkscape:connector-curvature="0" />
	<path
   style="fill:#e5e5e5"
   d="m 56.90625,212.75305 v 0.4043 c 0,0.93848 0.11719,2.13672 1.17285,2.13672 1.00293,0 1.12012,-1.14648 1.12012,-1.56348 h 1.3291 c 0,1.55078 -0.9375,2.52832 -2.46289,2.52832 -1.14648,0 -2.56641,-0.33887 -2.56641,-3.58398 0,-1.83691 0.39063,-3.79199 2.59277,-3.79199 1.95508,0 2.47559,1.17285 2.47559,3.12793 v 0.74219 h -3.66113 z m 2.25391,-0.96387 v -0.37793 c 0,-0.88574 -0.28613,-1.56348 -1.08105,-1.56348 -0.89941,0 -1.17285,0.88574 -1.17285,1.79785 v 0.14355 h 2.2539 z"
   id="path56"
   inkscape:connector-curvature="0" />
	<path
   style="fill:#e5e5e5"
   d="m 61.72461,209.06555 h 1.40723 v 1.09473 h 0.02637 c 0.3125,-0.78223 0.83398,-1.27734 1.62891,-1.27734 0.15625,0 0.24707,0.0264 0.33887,0.0527 v 1.43262 c -0.10449,-0.0254 -0.35254,-0.0781 -0.58691,-0.0781 -0.63867,0 -1.40723,0.28711 -1.40723,1.58984 v 4.19629 h -1.40723 v -7.01074 z"
   id="path58"
   inkscape:connector-curvature="0" />
	<path
   style="fill:#e5e5e5"
   d="m 68.85156,211.11145 v -0.18262 c 0,-0.56055 -0.19629,-1.08105 -0.92578,-1.08105 -0.56055,0 -1.00293,0.26074 -1.00293,0.91211 0,0.54688 0.24707,0.76855 0.99023,1.0293 l 0.89941,0.3125 c 1.04199,0.35156 1.52441,0.91211 1.52441,2.01953 0,1.49902 -1.09473,2.1377 -2.51563,2.1377 -1.77148,0 -2.30566,-0.82129 -2.30566,-2.17676 v -0.25977 h 1.25098 v 0.2207 c 0,0.80859 0.28613,1.25098 1.09375,1.25098 0.76953,0 1.14746,-0.39063 1.14746,-1.0293 0,-0.52148 -0.27344,-0.85938 -0.76953,-1.0293 l -1.14648,-0.4043 c -1.05566,-0.36426 -1.49805,-0.89844 -1.49805,-2.01953 0,-1.31641 0.95117,-1.92871 2.39746,-1.92871 1.78516,0 2.18945,1.04297 2.18945,1.91602 v 0.3125 z"
   id="path60"
   inkscape:connector-curvature="0" />
	<path
   style="fill:#e5e5e5"
   d="m 71.44238,206.66809 h 1.40723 v 1.40723 h -1.40723 z m 0,2.39746 h 1.40723 v 7.01074 h -1.40723 z"
   id="path62"
   inkscape:connector-curvature="0" />
	<path
   style="fill:#e5e5e5"
   d="m 76.59961,208.88293 c 2.0459,0 2.62012,1.51172 2.62012,3.68848 0,2.17578 -0.66504,3.6875 -2.62012,3.6875 -1.94141,0 -2.60547,-1.51172 -2.60547,-3.6875 0,-2.17676 0.57324,-3.68848 2.60547,-3.68848 z m 0,6.33301 c 1.03027,0 1.21191,-0.85938 1.21191,-2.64453 0,-1.55078 -0.18164,-2.64551 -1.21191,-2.64551 -1.01563,0 -1.19824,1.09473 -1.19824,2.64551 0,1.78516 0.18261,2.64453 1.19824,2.64453 z"
   id="path64"
   inkscape:connector-curvature="0" />
	<path
   style="fill:#e5e5e5"
   d="m 80.29883,209.06555 h 1.3291 v 0.82129 h 0.03906 c 0.35156,-0.62598 1.0166,-1.00391 1.79785,-1.00391 1.06934,0 1.74609,0.48242 1.74609,1.90234 v 5.29102 H 83.8037 v -4.80859 c 0,-0.91211 -0.27344,-1.26367 -0.97656,-1.26367 -0.57422,0 -1.12109,0.45605 -1.12109,1.36816 v 4.7041 h -1.40723 v -7.01074 z"
   id="path66"
   inkscape:connector-curvature="0" />
	<path
   style="fill:#e5e5e5"
   d="m 91.70898,216.07629 v -6.69824 h -1.91504 v -0.96387 h 0.14258 c 0.88672,0 1.91602,-0.20898 2.17676,-1.38184 v -0.18164 h 1.08105 v 9.22559 z"
   id="path68"
   inkscape:connector-curvature="0" />
	<path
   style="fill:#e5e5e5"
   d="m 96.08496,214.35657 h 1.48535 v 1.71973 h -1.48535 z"
   id="path70"
   inkscape:connector-curvature="0" />
	<path
   style="fill:#e5e5e5"
   d="m 104.21484,216.07629 h -5.39551 c 0,-4.01367 3.87012,-3.92188 3.87012,-6.78906 0,-0.75586 -0.3252,-1.39453 -1.14648,-1.39453 -1.10742,0 -1.29004,0.99023 -1.29004,1.92871 H 98.8457 c 0,-1.83691 0.75586,-2.9707 2.72363,-2.9707 1.88965,0 2.60645,1.12012 2.60645,2.46289 0,3.06152 -2.99707,3.25781 -3.70117,5.51172 h 3.74023 z"
   id="path72"
   inkscape:connector-curvature="0" />
	<path
   style="fill:#e5e5e5"
   d="m 105.46289,214.35657 h 1.48535 v 1.71973 h -1.48535 z"
   id="path74"
   inkscape:connector-curvature="0" />
	<path
   style="fill:#e5e5e5"
   d="m 110.89551,206.85071 c 1.77148,0 2.76172,1.12012 2.76172,4.7041 0,3.58301 -0.99023,4.7041 -2.76172,4.7041 -1.77246,0 -2.7627,-1.12109 -2.7627,-4.7041 0,-3.58398 0.99024,-4.7041 2.7627,-4.7041 z m 0,8.36523 c 1.01563,0 1.27637,-0.97656 1.27637,-3.66113 0,-2.68457 -0.26074,-3.66211 -1.27637,-3.66211 -1.0166,0 -1.27734,0.97754 -1.27734,3.66211 0,2.68457 0.26074,3.66113 1.27734,3.66113 z"
   id="path76"
   inkscape:connector-curvature="0" />
</g>
</svg>