<?xml version="1.0" encoding="UTF-8" standalone="no"?>
<!-- Generator: Adobe Illustrator 25.2.3, SVG Export Plug-In . SVG Version: 6.00 Build 0)  -->

<svg
   xmlns:dc="http://purl.org/dc/elements/1.1/"
   xmlns:cc="http://creativecommons.org/ns#"
   xmlns:rdf="http://www.w3.org/1999/02/22-rdf-syntax-ns#"
   xmlns:svg="http://www.w3.org/2000/svg"
   xmlns="http://www.w3.org/2000/svg"
   xmlns:sodipodi="http://sodipodi.sourceforge.net/DTD/sodipodi-0.dtd"
   xmlns:inkscape="http://www.inkscape.org/namespaces/inkscape"
   version="1.0"
   id="Layer_1"
   inkscape:version="0.92.3 (2405546, 2018-03-11)"
   sodipodi:docname="Energy-DM.svg"
   x="0px"
   y="0px"
   width="105"
   height="380"
   viewBox="0 0 105 380"
   enable-background="new 0 0 100.8 364.25195"
   xml:space="preserve"><metadata
   id="metadata229"><rdf:RDF><cc:Work
       rdf:about=""><dc:format>image/svg+xml</dc:format><dc:type
         rdf:resource="http://purl.org/dc/dcmitype/StillImage" /><dc:title></dc:title></cc:Work></rdf:RDF></metadata><defs
   id="defs227" />
<sodipodi:namedview
   bordercolor="#666666"
   borderopacity="1"
   fit-margin-bottom="0"
   fit-margin-left="0"
   fit-margin-right="0"
   fit-margin-top="0"
   gridtolerance="10"
   guidetolerance="10"
   id="namedview286"
   inkscape:current-layer="Layer_1"
   inkscape:cx="-316.02142"
   inkscape:cy="243.47005"
   inkscape:document-units="mm"
   inkscape:pageopacity="0"
   inkscape:pageshadow="2"
   inkscape:window-height="1017"
   inkscape:window-maximized="1"
   inkscape:window-width="1920"
   inkscape:window-x="-8"
   inkscape:window-y="-8"
   inkscape:zoom="0.62105263"
   objecttolerance="10"
   pagecolor="#ffffff"
   showgrid="false"
   units="mm">
	</sodipodi:namedview>
<g
   id="bg"
   transform="matrix(1.333334,0,0,1.333334,1.4666674e-4,-0.09457338)">
	
		<linearGradient
   id="rect11_1_"
   gradientUnits="userSpaceOnUse"
   x1="-44.008369"
   y1="-98.386673"
   x2="193.82932"
   y2="-336.22433"
   gradientTransform="matrix(0.95999,0,0,-0.95999,-7.72016,-41.70976)">
		<stop
   offset="0.38537"
   style="stop-color:#FFCC9E"
   id="stop3" />
		<stop
   offset="0.62112"
   style="stop-color:#F1AD8C"
   id="stop5" />
		<stop
   offset="0.85662"
   style="stop-color:#E6947E"
   id="stop7" />
		<stop
   offset="1"
   style="stop-color:#E28B79"
   id="stop9" />
	</linearGradient>
	<rect
   id="rect11"
   x="1.49986"
   y="1.27291"
   width="75.442833"
   height="281.31351"
   style="fill:url(#rect11_1_)" />
	<g
   id="g107">
		<path
   id="path13"
   inkscape:connector-curvature="0"
   d="m 57.97398,44.01654 -8.22473,-3.93768 c -0.5484,1.29726 -1.34472,2.51477 -2.40198,3.57197 -0.22358,0.22362 -0.45868,0.4281 -0.6958,0.62897 l 11.3225,5.36494 v -5.6282 z"
   style="fill:#252626" />
		<path
   id="path15"
   inkscape:connector-curvature="0"
   d="m 64.70054,54.07713 -5.60156,-2.6542 v 5.34535 c 2.12017,0.74831 4.0296,1.94335 5.60156,3.48844 z"
   style="fill:#252626" />
		<polygon
   id="polygon17"
   points="39.13903,51.88682 41.307,51.88682 41.307,50.70176 37.92614,50.70176 37.92614,55.66392 41.25866,55.66392 41.25866,54.46494 39.13903,54.46494 39.13903,53.51719 41.03453,53.51719 41.03453,52.31162 39.13903,52.31162 "
   style="fill:#252626" />
		<path
   id="path19"
   inkscape:connector-curvature="0"
   d="m 31.43743,43.65083 c -0.97037,-0.97036 -1.71368,-2.07838 -2.25531,-3.25625 l -4.9303,2.36023 v 5.29541 L 32.1281,44.28278 C 31.8919,44.0825 31.66027,43.87372 31.43743,43.65083 Z"
   style="fill:#252626" />
		<path
   id="path21"
   inkscape:connector-curvature="0"
   d="m 62.49741,87.37077 c 1.4176,-2.11034 2.20312,-4.61398 2.20312,-7.15828 V 61.90781 c -1.5022,-1.73955 -3.42078,-3.10241 -5.60156,-3.94267 v 4.83883 c 2.09875,2.1329 3.39844,5.05449 3.39844,8.27595 z"
   style="fill:#252626" />
		<path
   id="path23"
   inkscape:connector-curvature="0"
   d="m 50.13781,39.01694 7.83618,3.75165 v -5.632 c 0,-0.60425 -0.33618,-1.14771 -0.87672,-1.4187 l -7.01953,-3.5148 c 0.72024,2.20998 0.74377,4.59475 0.06007,6.81385 z"
   style="fill:#252626" />
		<path
   id="path25"
   inkscape:connector-curvature="0"
   d="m 23.12683,43.29336 -4.78711,2.2917 c -0.54859,0.26221 -0.90235,0.82397 -0.90235,1.43115 v 4.2935 l 5.68945,-2.72141 c 1e-5,0 1e-5,-5.29494 1e-5,-5.29494 z"
   style="fill:#252626" />
		<path
   id="path27"
   inkscape:connector-curvature="0"
   d="m 55.74814,92.41911 c 1.87737,-0.56575 3.61258,-1.59452 5.08154,-3.03597 0.19125,-0.18768 0.36438,-0.39052 0.54272,-0.589 V 71.07993 c 0,-2.47609 -0.85437,-4.75214 -2.27343,-6.56602 v 15.73008 c 0,3.04688 -1.30079,5.80344 -3.35083,7.72119 z"
   style="fill:#252626" />
		<path
   id="path29"
   inkscape:connector-curvature="0"
   d="m 28.39257,33.36598 -3.2384,1.54844 c -0.54785,0.26147 -0.90235,0.82324 -0.90235,1.43115 v 5.16128 l 4.5108,-2.1594 C 28.10143,37.4177 27.97454,35.34869 28.39257,33.36598 Z"
   style="fill:#252626" />
		<polygon
   id="polygon31"
   points="4.90491,222.23708 5.6886,222.54982 5.69739,221.94777 "
   style="fill:#252626" />
		<polygon
   id="polygon33"
   points="5.95594,243.7981 5.2389,244.24341 6.0702,244.38843 "
   style="fill:#252626" />
		<path
   id="path35"
   inkscape:connector-curvature="0"
   d="m 6.35364,228.30446 c -0.10694,0.0688 -0.14282,0.2168 -0.07617,0.31934 L 6.5785,229.09253 6.974,228.83839 6.67297,228.3711 C 6.60339,228.2627 6.4613,228.2356 6.35364,228.3044 Z"
   style="fill:#252626" />
		<path
   id="path37"
   inkscape:connector-curvature="0"
   d="m 21.59991,107.7427 c 0,2.41882 -1.8187,4.40991 -4.16253,4.68846 v 2.66359 c 2.04913,0.0866 3.98218,0.62677 5.68945,1.54417 V 49.83535 l -5.68945,2.7214 v 50.49749 c 2.34384,0.27855 4.16253,2.26964 4.16253,4.68846 z"
   style="fill:#252626" />
		<polygon
   id="polygon39"
   points="14.93542,271.59204 14.53039,272.33176 15.12586,272.41379 "
   style="fill:#252626" />
		<path
   id="path41"
   inkscape:connector-curvature="0"
   d="m 6.08997,236.39111 -0.25488,0.49365 0.41674,0.21533 0.25488,-0.49365 c 0.0586,-0.11426 0.01172,-0.25049 -0.10181,-0.30981 -0.11351,-0.0586 -0.25853,-0.0154 -0.31493,0.0945 z"
   style="fill:#252626" />
		<path
   id="path43"
   inkscape:connector-curvature="0"
   d="m 14.6366,105.20198 v 4.96215 h 1.20703 v -2.74585 l 1.03125,1.41504 c 0.28564,-0.39771 0.66797,-0.91333 1.03858,-1.41504 v 2.74585 h 1.19824 v -4.96215 h -1.07373 l -1.16309,1.60253 -1.16455,-1.60253 z"
   style="fill:#252626" />
		<path
   id="path45"
   inkscape:connector-curvature="0"
   d="m 16.31238,112.43116 c -2.34384,-0.27855 -4.16253,-2.26964 -4.16253,-4.68846 0,-2.41882 1.8187,-4.4099 4.16253,-4.68845 V 53.09486 l -4.65893,2.22849 c -0.54785,0.26147 -0.90161,0.82324 -0.90161,1.43115 v 59.82227 c 1.67597,-0.8774 3.56167,-1.39755 5.56054,-1.48201 z"
   style="fill:#252626" />
		<polygon
   id="polygon47"
   points="72.38144,238.36572 73.00839,237.80029 72.16391,237.80469 "
   style="fill:#252626" />
		<path
   id="path49"
   inkscape:connector-curvature="0"
   d="m 23.4696,248.97412 c -0.42188,0.40356 -0.44678,1.06421 -0.05567,1.47217 0.38965,0.40942 1.05103,0.41455 1.4729,0.0117 l 0.34937,-0.33398 -1.41724,-1.48315 z"
   style="fill:#252626" />
		<path
   id="path51"
   inkscape:connector-curvature="0"
   d="m 52.07066,94.0472 c -3.3468,-0.06277 -6.39862,-1.37888 -8.7323,-3.47909 0.50161,0.64008 1.0393,1.25797 1.64611,1.82674 2.6749,2.50768 6.03991,3.94418 9.63867,4.19856 V 93.8341 c -0.75659,0.13609 -1.52618,0.21529 -2.3064,0.21529 -0.08202,0 -0.16404,-7.3e-4 -0.24608,-0.0022 z"
   style="fill:#252626" />
		<path
   id="path53"
   inkscape:connector-curvature="0"
   d="m 73.26767,245.82764 c 0.12232,0.0381 0.25708,-0.0308 0.2937,-0.14795 l 0.1626,-0.53174 -0.44824,-0.1377 -0.16333,0.53174 c -0.03736,0.12158 0.03295,0.24903 0.15527,0.28565 z"
   style="fill:#252626" />
		<path
   id="path55"
   inkscape:connector-curvature="0"
   d="m 57.97398,61.80449 v -4.22273 c -1.24292,-0.36068 -2.55203,-0.56433 -3.90966,-0.56433 -4.06073,0 -7.71405,1.74038 -10.28338,4.50219 1.94477,-1.409 4.3266,-2.25 6.90619,-2.25 2.75005,10e-6 5.27736,0.9527 7.28685,2.53487 z"
   style="fill:#252626" />
		<path
   id="path57"
   inkscape:connector-curvature="0"
   d="m 48.97398,90.68392 c -2.07825,0 -4.05551,-0.62828 -5.73184,-1.78683 2.21603,2.41008 5.35812,3.95979 8.84903,4.02511 0.86005,0.01756 1.70618,-0.06277 2.53198,-0.22522 v -3.81101 c -1.56784,1.09795 -3.44238,1.75932 -5.45801,1.79649 -0.06372,7.4e-4 -0.12745,0.0015 -0.19117,0.0015 z"
   style="fill:#252626" />
		<path
   id="path59"
   inkscape:connector-curvature="0"
   d="m 68.05283,212.5713 -0.24023,0.40283 0.47827,0.28418 c 0.10986,0.0659 0.24902,0.0264 0.31422,-0.082 0.06592,-0.10986 0.03149,-0.25781 -0.07397,-0.3208 z"
   style="fill:#252626" />
		<polygon
   id="polygon61"
   points="72.03062,218.56837 72.61142,217.95607 71.76987,218.02638 "
   style="fill:#252626" />
		<path
   id="path63"
   inkscape:connector-curvature="0"
   d="m 55.74814,86.33887 c 1.38007,-1.64062 2.22583,-3.77257 2.22583,-6.09489 V 63.28691 c -1.91108,-1.78806 -4.4696,-2.89228 -7.28686,-2.89228 -3.19912,0 -6.06683,1.42049 -8.02679,3.65556 1.33474,-0.88623 2.93316,-1.40556 4.65179,-1.40556 4.65161,0 8.43603,3.78442 8.43603,8.4353 z"
   style="fill:#252626" />
		<path
   id="path65"
   inkscape:connector-curvature="0"
   d="m 69.25034,88.7322 c 1.42757,-2.46103 2.25878,-5.33098 2.25878,-8.39227 V 58.3065 c 0,-0.60718 -0.35376,-1.16821 -0.90161,-1.43042 L 65.82554,54.6102 v 6.8762 c 2.13904,2.61758 3.42627,5.95724 3.42627,9.59353 z"
   style="fill:#252626" />
		<path
   id="path67"
   inkscape:connector-curvature="0"
   d="m 62.49741,95.09538 c 2.20944,-1.08481 4.13177,-2.68881 5.62774,-4.65659 l 0.0016,-19.35886 c 0,-2.83657 -0.85089,-5.47504 -2.30126,-7.68663 v 16.81919 c 0,3.28358 -1.20245,6.5024 -3.32812,9.01854 v 5.86435 z"
   style="fill:#252626" />
		<path
   id="path69"
   inkscape:connector-curvature="0"
   d="m 62.49741,96.32246 v 6.73114 c 2.34595,0.27663 4.16674,2.26881 4.16674,4.68909 0,2.42029 -1.82079,4.41248 -4.16674,4.6891 v 2.66597 c 2.02533,0.0948 3.93604,0.63217 5.62554,1.53937 l 0.002,-24.43363 c -1.5672,1.74843 -3.48267,3.15184 -5.62756,4.11896 h -1e-5 z"
   style="fill:#252626" />
		<path
   id="path71"
   inkscape:connector-curvature="0"
   d="m 57.21408,107.7427 c 0,-2.41735 1.8165,-4.40734 4.15832,-4.68781 v -6.26642 c -1.42035,0.51668 -2.92493,0.85085 -4.49414,0.95233 -0.37885,0.02476 -0.75549,0.03705 -1.13013,0.03721 v 13.25701 5.54351 c 1.69373,-0.88733 3.60169,-1.41046 5.62426,-1.48682 v -2.66116 c -2.34181,-0.28049 -4.15831,-2.27048 -4.15831,-4.68784 z"
   style="fill:#252626" />
		<path
   id="path73"
   inkscape:connector-curvature="0"
   d="m 56.80503,96.61873 c 1.60245,-0.10378 3.13422,-0.46376 4.56738,-1.02929 v -5.1843 c -1.63303,1.53002 -3.55463,2.60517 -5.62426,3.17133 v 3.0563 c 0.35156,4.2e-4 0.70211,0.0083 1.05688,-0.01403 z"
   style="fill:#252626" />
		<path
   id="path75"
   inkscape:connector-curvature="0"
   d="m 64.70054,48.23643 c 0,-0.60718 -0.35376,-1.16894 -0.90162,-1.43115 l -4.69995,-2.25013 v 5.62262 l 5.60156,2.65416 v -4.5955 z"
   style="fill:#252626" />
		<path
   id="path77"
   inkscape:connector-curvature="0"
   d="m 64.15342,109.04206 -0.95507,-0.70386 c -0.39038,0.51562 -0.77344,0.69653 -1.20557,0.69653 -0.77344,0 -1.38721,-0.61304 -1.38721,-1.38647 0,-0.76685 0.61377,-1.38721 1.38721,-1.38721 0.43213,0 0.8291,0.20947 1.21948,0.73169 l 0.96899,-0.71045 c -0.62036,-0.82983 -1.36596,-1.21288 -2.18847,-1.21288 -1.42163,0 -2.58545,1.15722 -2.58545,2.57885 0,1.42163 1.16382,2.58545 2.58545,2.58545 0.80859,0 1.54028,-0.36255 2.16064,-1.19165 z"
   style="fill:#252626" />
		<path
   id="path79"
   inkscape:connector-curvature="0"
   d="m 32.39342,100.88142 c 0.41675,-0.42627 0.41016,-1.11548 -0.0205,-1.53589 -0.43286,-0.42407 -1.12207,-0.41602 -1.53955,0.01102 -0.41748,0.42627 -0.40942,1.11475 0.02344,1.53882 0.42993,0.42041 1.11914,0.41235 1.53661,-0.0139 z"
   style="fill:#252626" />
		<path
   id="path81"
   inkscape:connector-curvature="0"
   d="m 55.69981,269.11646 -1.15357,1.69263 0.39844,0.271 c 0.4812,0.32812 1.13086,0.2146 1.44873,-0.25122 0.31787,-0.46655 0.18604,-1.11255 -0.29516,-1.44067 z"
   style="fill:#252626" />
		<path
   id="path83"
   inkscape:connector-curvature="0"
   d="m 61.67857,271.24341 c -0.59547,-0.0337 -1.10962,0.42554 -1.14331,1.03049 -0.03369,0.60059 0.42627,1.11475 1.02172,1.14844 0.59546,0.0323 1.10889,-0.427 1.14258,-1.02686 0.03443,-0.60495 -0.4248,-1.11838 -1.02099,-1.15207 z"
   style="fill:#252626" />
		<path
   id="path85"
   inkscape:connector-curvature="0"
   d="m 40.98107,233.83936 c -0.02637,-0.60352 -0.53467,-1.06787 -1.13086,-1.0415 -0.59546,0.0264 -1.05981,0.5332 -1.03271,1.13965 0.02637,0.59912 0.53394,1.06348 1.13013,1.03711 0.59545,-0.0264 1.0598,-0.53468 1.03344,-1.13526 z"
   style="fill:#252626" />
		<polygon
   id="polygon87"
   points="54.31334,249.13965 53.95665,249.90283 54.73155,249.57178 "
   style="fill:#252626" />
		<path
   id="path89"
   inkscape:connector-curvature="0"
   d="m 52.04722,245.78369 c -0.51049,0.24097 -0.7251,0.86499 -0.47681,1.39233 l 0.2058,0.43652 1.85376,-0.87231 -0.20508,-0.43652 c -0.24828,-0.52734 -0.86644,-0.76025 -1.37767,-0.52002 z"
   style="fill:#252626" />
		<polygon
   id="polygon91"
   points="27.88317,243.77393 27.15075,243.35645 27.0592,243.95117 "
   style="fill:#252626" />
		<path
   id="path93"
   inkscape:connector-curvature="0"
   d="m 51.71471,263.35449 c 0.12524,-0.0257 0.21094,-0.15088 0.18604,-0.271 l -0.11279,-0.54419 -0.4585,0.0952 0.11205,0.54346 c 0.02563,0.12525 0.14868,0.20216 0.2732,0.17652 z"
   style="fill:#252626" />
		<path
   id="path95"
   inkscape:connector-curvature="0"
   d="m 51.34117,242.30981 c -0.56177,0.0637 -0.96533,0.5874 -0.89941,1.16675 l 0.05566,0.48047 2.0376,-0.23364 -0.05493,-0.47974 c -0.06593,-0.57934 -0.57716,-0.99829 -1.13892,-0.93384 z"
   style="fill:#252626" />
		<path
   id="path97"
   inkscape:connector-curvature="0"
   d="M -1.1e-4,0.07093 V 285.07078 H 78.74985 V 0.07093 Z m 75.457,259.25817 -2.61914,0.33911 0.10254,0.79028 -0.59619,0.0769 -0.28271,-2.18481 0.59619,-0.0776 0.10181,0.79028 2.61841,-0.33838 z M 63.1207,178.64407 c -0.3413,-0.0388 -0.58593,-0.34717 -0.54712,-0.68774 0.03882,-0.34131 0.34863,-0.59253 0.68774,-0.54712 6.69067,0.76465 11.73632,6.42261 11.73632,13.16162 0,2.56055 -0.73096,5.04492 -2.11451,7.18506 -0.11865,0.18384 -0.3186,0.28345 -0.52222,0.28345 -0.11572,0 -0.23218,-0.0323 -0.33691,-0.0996 -0.28784,-0.18604 -0.37061,-0.57056 -0.18384,-0.85913 1.25244,-1.93799 1.91528,-4.18872 1.91528,-6.50977 2e-5,-6.10695 -4.57249,-11.2339 -10.63474,-11.92676 z m -11.55907,18.30249 c 0.18237,0.29077 0.09448,0.67383 -0.19629,0.85693 -0.10254,0.0637 -0.2168,0.0945 -0.32959,0.0945 -0.20654,0 -0.40869,-0.10254 -0.52735,-0.29077 -1.32129,-2.10571 -2.01928,-4.53882 -2.01928,-7.03638 0,-6.73975 5.04565,-12.39771 11.73779,-13.16162 0.33252,-0.0447 0.64819,0.20581 0.68774,0.54712 0.03882,0.34058 -0.20581,0.64893 -0.54712,0.68774 -6.06372,0.69215 -10.63623,5.81911 -10.63623,11.92676 0,2.26393 0.63282,4.46852 1.83033,6.37574 z m -35.1848,-44.14689 h 1.125 v 13.30243 c 0,0.23657 0.19409,0.4292 0.44165,0.43945 5.97363,0.2439 11.62133,2.68433 15.9038,6.87083 1.42236,1.39087 2.67041,2.95312 3.70898,4.64209 0.09449,0.15308 0.23803,0.19116 0.31567,0.20068 0.14209,0.0176 0.2688,-0.0315 0.36475,-0.12671 l 22.1909,-22.17772 c 0.48999,-0.48999 0.75953,-1.14111 0.75953,-1.83325 v -1.31781 h 1.125 v 1.31781 c 0,0.99316 -0.38672,1.92627 -1.08911,2.62866 l -22.19091,22.17772 c -0.29736,0.29736 -0.69287,0.45923 -1.10596,0.45923 -0.06152,0 -0.12378,-0.004 -0.18676,-0.011 -0.47534,-0.0556 -0.89136,-0.32153 -1.14111,-0.72876 -0.99023,-1.61058 -2.18042,-3.09959 -3.5376,-4.42674 -4.08252,-3.9917 -9.46801,-6.3186 -15.16259,-6.55151 -0.85327,-0.0344 -1.52124,-0.7207 -1.52124,-1.56299 0,2e-5 0,-13.30241 0,-13.30241 z m 33.98216,26.32853 c -0.10986,0.10986 -0.25415,0.16479 -0.39771,0.16479 -0.14429,0 -0.28784,-0.0549 -0.39771,-0.16479 -0.21973,-0.21973 -0.21973,-0.57568 0,-0.79541 3.30615,-3.30542 7.70141,-5.12622 12.37573,-5.12622 1.92627,0 3.80933,0.30469 5.59789,0.90601 0.13989,0.0476 0.29004,0.0256 0.41016,-0.0593 0.06738,-0.0483 0.17944,-0.1582 0.17944,-0.35229 v -33.68602 c -1.77484,0.95164 -3.75549,1.47258 -5.81469,1.53928 v 4.04648 h -1.125 v -4.0587 c -1.9217,-0.098 -3.76849,-0.59335 -5.43896,-1.46631 v 11.39116 c 0,0.99902 -0.41162,1.97095 -1.12866,2.66675 l -10.3623,10.05176 c -0.30175,0.30176 -0.6958,0.45337 -1.09277,0.45337 -0.38965,0 -0.78149,-0.14575 -1.09058,-0.43945 -4.98468,-4.72801 -11.13555,-7.92476 -17.82091,-9.2829 l 3.7e-4,5.38495 c 0,0.19849 0.13989,0.3728 0.33985,0.42407 5.36645,1.36597 10.28466,4.16968 14.22216,8.10718 0.21973,0.21973 0.21973,0.57568 0,0.79541 -0.10986,0.10986 -0.25342,0.16479 -0.3977,0.16479 -0.14428,0 -0.28784,-0.0549 -0.3977,-0.16479 -3.79468,-3.79468 -8.53344,-6.49658 -13.7036,-7.81274 -0.69946,-0.17725 -1.18798,-0.7998 -1.18798,-1.51392 l -0.0011,-20.28661 c -1.72027,0.92244 -3.63427,1.4377 -5.62537,1.53026 v 4.05573 h -1.125 v -4.04945 c -1.98853,-0.0734 -3.90061,-0.57335 -5.625,-1.47382 v 33.62354 c 0,0.19409 0.11279,0.30396 0.17945,0.35229 0.11865,0.0857 0.26806,0.1084 0.40942,0.0593 1.78858,-0.60132 3.67163,-0.90601 5.59863,-0.90601 4.67431,0 9.06957,1.8208 12.37573,5.12622 0.08661,0.0866 0.12891,0.19574 0.14731,0.30798 0.0076,0.007 0.01749,0.01 0.02481,0.0172 3.11572,3.26074 4.83106,7.54028 4.83106,12.05054 0,1.81932 -0.27905,3.61378 -0.83056,5.33205 -0.08204,0.25708 0.0564,0.53833 0.31567,0.64233 l 5.77953,2.29834 c 0.28858,0.11499 0.4292,0.44238 0.31494,0.73096 -0.08789,0.22046 -0.29956,0.35448 -0.52295,0.35448 -0.06958,0 -0.13989,-0.0125 -0.208,-0.0395 l -5.77953,-2.29907 c -0.80713,-0.32153 -1.2334,-1.21362 -0.97046,-2.03101 0.51489,-1.60693 0.77637,-3.28564 0.77637,-4.98853 0,-4.21948 -1.60474,-8.22289 -4.51904,-11.27269 -0.08075,-0.0846 -0.11966,-0.18919 -0.13769,-0.29645 -0.0051,-0.005 -0.0119,-0.006 -0.01685,-0.0112 -3.09375,-3.09302 -7.2063,-4.79663 -11.58032,-4.79663 -1.80469,0 -3.56763,0.28491 -5.23974,0.84741 -0.48266,0.1626 -1.0144,0.082 -1.42529,-0.2124 -0.41162,-0.2959 -0.64746,-0.75732 -0.64746,-1.26562 v -34.2837 c -0.7564,-0.49617 -1.47006,-1.06906 -2.12476,-1.72357 -0.24243,-0.24243 -0.24243,-0.63574 0,-0.87891 0.24317,-0.2417 0.63575,-0.24316 0.87891,0 2.26904,2.26904 5.28588,3.51855 8.49389,3.51855 3.20801,0 6.22485,-1.24951 8.49389,-3.51855 0.24316,-0.2417 0.63575,-0.2417 0.87891,0 0.0813,0.0816 0.12524,0.18178 0.15198,0.28583 l 12.47277,10.77168 v -9.32062 c -1.85321,-0.13641 -3.57568,-0.92285 -4.89111,-2.25911 -0.21753,-0.22192 -0.2146,-0.57788 0.0066,-0.79541 0.22339,-0.21973 0.57788,-0.21387 0.79614,0.006 1.22095,1.24146 2.85205,1.93506 4.59375,1.95264 0.05658,5.5e-4 0.10785,0.0178 0.1593,0.0338 0.25983,0.0496 0.46033,0.26752 0.46033,0.54185 v 10.01367 c 0,0.24614 -0.16058,0.44957 -0.38086,0.52583 0.10163,0.19789 0.08102,0.44531 -0.07324,0.62407 -0.11133,0.12891 -0.26807,0.19482 -0.42553,0.19482 -0.13037,0 -0.26147,-0.0447 -0.36768,-0.13696 l -12.93271,-11.1691 c -0.49686,0.4558 -1.01458,0.88156 -1.56518,1.25194 l 7.4e-4,14.43327 c 6.97943,1.37302 13.40093,4.68736 18.59581,9.61427 0.17871,0.16992 0.45044,0.16919 0.6189,7.3e-4 L 53.83589,153.3264 c 0.50024,-0.4856 0.78735,-1.16309 0.78735,-1.85962 v -12.0518 c -0.75513,-0.49567 -1.46741,-1.06792 -2.1211,-1.72137 -0.24243,-0.24243 -0.24243,-0.63574 0,-0.87891 0.24316,-0.2417 0.63574,-0.24316 0.87891,0 2.26904,2.26904 5.28588,3.51855 8.4939,3.51855 3.20802,0 6.22484,-1.24951 8.4939,-3.51855 0.24316,-0.2417 0.63574,-0.2417 0.87891,0 0.24243,0.24316 0.24243,0.63647 0,0.87891 -0.61789,0.61771 -1.28677,1.16547 -1.99584,1.64236 v 34.36493 c 0,0.5083 -0.23584,0.96973 -0.64746,1.26562 -0.41089,0.29443 -0.94336,0.37427 -1.42529,0.2124 -1.67285,-0.5625 -3.43579,-0.84741 -5.23975,-0.84741 -4.3741,5e-5 -8.48665,1.70366 -11.5804,4.79666 v 3e-5 z m -32.10643,-0.48411 c -0.34131,-0.0388 -0.58594,-0.34717 -0.54712,-0.68774 0.03955,-0.34131 0.3545,-0.59253 0.68774,-0.54712 6.69067,0.76465 11.73633,6.42261 11.73633,13.16162 0,2.55908 -0.73096,5.04346 -2.11377,7.18431 -0.11938,0.18457 -0.3186,0.28418 -0.52295,0.28418 -0.11573,0 -0.23218,-0.0323 -0.33618,-0.0989 -0.28858,-0.18677 -0.37134,-0.57129 -0.1853,-0.85913 1.25317,-1.93945 1.91602,-4.19092 1.91602,-6.5105 0,-6.10695 -4.57251,-11.2339 -10.63476,-11.92676 z m 14.17748,-114.2856 0.58887,-0.4519 0.07031,2.01416 0.97705,1.27148 -0.48779,0.375 -0.97705,-1.27222 -1.92701,-0.5874 0.59253,-0.45483 1.20556,0.36621 z m 5.20899,32.09618 1.31982,-0.16406 0.07544,0.60132 -1.31982,0.16406 0.11865,0.95801 1.47437,-0.18384 0.07397,0.59692 -2.07935,0.25928 -0.3999,-3.21827 2.11816,-0.26366 0.07397,0.58739 -1.51391,0.18823 z m 1.2334,22.09954 v -4.70746 c 0,-0.31055 0.25195,-0.5625 0.5625,-0.5625 0.31054,0 0.5625,0.25195 0.5625,0.5625 v 9.48165 c 1.82867,0.1496 3.52688,0.9343 4.82739,2.2554 0.21827,0.22192 0.21533,0.57788 -0.0059,0.79541 -0.10986,0.1084 -0.25195,0.16187 -0.39478,0.16187 -0.14576,0 -0.29078,-0.0564 -0.40063,-0.16772 -1.2193,-1.23834 -2.84546,-1.93094 -4.58148,-1.95186 -0.0025,5e-5 -0.0046,0.002 -0.0071,0.002 -0.23511,0 -0.43543,-0.14488 -0.51947,-0.34978 -0.008,-0.0193 -0.0067,-0.042 -0.01264,-0.0623 -0.01391,-0.0489 -0.0304,-0.0971 -0.0304,-0.15042 v -4.18126 c -1.83645,0.0559 -3.63912,0.54785 -5.23461,1.44273 -0.08716,0.0484 -0.18164,0.0718 -0.27466,0.0718 -0.19703,0 -0.38818,-0.10327 -0.49145,-0.28711 -0.15161,-0.271 -0.05566,-0.61377 0.21533,-0.76611 1.76312,-0.98863 3.75687,-1.52985 5.7854,-1.58625 z M 31.35778,80.19711 C 31.1527,79.89535 30.73962,79.82357 30.43786,80.02865 l -1.67725,1.14258 -0.34423,-0.50464 1.67725,-1.14258 c 0.27979,-0.19043 0.61816,-0.26074 0.94702,-0.19775 0.33179,0.06518 0.62183,0.25562 0.81152,0.53467 0.39331,0.57568 0.2439,1.3623 -0.33325,1.75488 l -1.67725,1.1433 -0.34131,-0.50244 1.67725,-1.14185 c 0.30176,-0.2058 0.38379,-0.62108 0.18017,-0.91771 z m -1.68018,-3.82837 0.56983,-0.17432 0.66211,2.1643 -3.10108,0.94849 -0.17871,-0.58374 2.53125,-0.77417 z m 0.72291,22.56371 c 0.65625,-0.67017 1.73218,-0.68188 2.40234,-0.02641 0.66797,0.65259 0.67603,1.72485 0.0205,2.39575 -0.65332,0.66797 -1.72558,0.68262 -2.39282,0.0293 -0.6709,-0.65625 -0.68262,-1.73145 -0.03003,-2.39868 v 2e-5 z m 5.84326,0.07469 -0.91772,-1.96801 -0.27905,1.40918 -1.25537,-0.6936 0.91772,1.96801 -0.54932,0.25708 -1.37403,-2.94433 0.51636,-0.24097 1.3103,0.7229 0.28638,-1.46851 0.52075,-0.24316 1.37476,2.94434 z m -2.90552,-13.3352 -0.46216,-0.33398 -0.0051,-1.49487 -1.42016,0.46362 -0.46509,-0.33691 1.90137,-2.62793 0.49073,0.35449 -1.27148,1.75781 1.36597,-0.44165 0.0051,1.43261 1.27075,-1.75854 0.49146,0.35596 z m -1.90503,-16.68016 1.0166,-1.30444 0.47095,0.36767 -1.39234,1.78418 -2.55688,-1.99512 0.375,-0.48048 z m -2.35547,0.28858 c 0.427,0.17505 0.62548,0.66431 0.4519,1.09057 l -0.21094,0.51489 1.46557,0.59839 -0.22924,0.56104 -3.00586,-1.22681 0.43946,-1.07665 c 0.0835,-0.20654 0.24316,-0.36768 0.45117,-0.45557 0.20655,-0.0835 0.43067,-0.09082 0.63794,-0.0059 z m 1.31397,3.58446 -0.10034,0.60132 -3.19629,-0.52954 0.09961,-0.60132 z m -2.86817,1.44361 0.04761,0.79761 2.64038,-0.1582 0.03662,0.60938 -2.64038,0.15893 0.04688,0.79688 -0.60059,0.03585 -0.13183,-2.20388 z m 0.05787,29.2888 1.45678,-0.32812 -0.75879,-1.28613 0.22778,-0.52734 2.9773,1.2876 -0.24023,0.55591 -1.99072,-0.8606 0.72583,1.23779 -1.39672,0.31348 1.99072,0.86133 -0.24096,0.55591 -2.97656,-1.2876 z m 44.93698,138.13324 1.14258,-0.86133 -2.16724,0.0337 -0.0095,-0.60498 3.24171,-0.0527 0.0088,0.56982 -1.19238,0.89795 1.22021,0.85986 0.0095,0.57275 -3.24097,0.0527 -0.01025,-0.60498 2.16724,-0.0366 z m -0.20068,-11.42285 -0.48779,0.7251 -0.26954,-1.61426 -2.59789,0.0688 0.42407,-0.62987 2.07861,-0.0556 -0.11792,-0.70605 -0.99756,-0.6709 0.33765,-0.50244 2.69019,1.80908 -0.33838,0.50244 -1.00854,-0.67822 z m 1.02172,-3.03661 -0.23364,-0.55957 0.10474,-0.0454 c 0.3186,-0.1333 0.55005,-0.4043 0.63354,-0.74561 0.14355,-0.58447 -0.21313,-1.1792 -0.79761,-1.32275 -0.5896,-0.14502 -1.18506,0.21533 -1.32861,0.80127 -0.08204,0.33545 -0.0029,0.68408 0.2168,0.95361 l 0.06812,0.0879 -0.46069,0.38525 -0.07104,-0.0937 c -0.17065,-0.20508 -0.28638,-0.44092 -0.34497,-0.69873 -0.06006,-0.25488 -0.05566,-0.52148 0.0074,-0.77783 0.05421,-0.22119 0.15161,-0.4292 0.28638,-0.61084 0.13184,-0.17432 0.29443,-0.32227 0.48193,-0.43652 0.18896,-0.11719 0.39551,-0.19336 0.6145,-0.22412 0.22485,-0.0395 0.44897,-0.0307 0.67456,0.0249 0.9082,0.22266 1.46484,1.14844 1.24218,2.05664 -0.06298,0.25635 -0.1875,0.49805 -0.35815,0.6958 -0.16626,0.19775 -0.38891,0.36035 -0.62988,0.45996 z m -1.77246,-4.03564 -0.06592,-0.58301 1.95337,-1.66846 -2.1145,0.2373 -0.06812,-0.60645 3.22266,-0.36182 0.06665,0.5874 -1.94897,1.66406 2.10938,-0.2373 0.06885,0.60645 z m 1.80688,-5.95606 0.23877,0.49805 -2.3811,2.53564 -0.28491,-0.59033 0.64454,-0.67969 -0.46582,-0.96973 -0.9353,0.0762 -0.28198,-0.5874 z m -3.15892,-0.22851 -0.4314,0.41309 -1.56519,-1.63623 2.34375,-2.24268 0.42261,0.44092 -1.91309,1.82959 z m -1.08472,-3.5625 c -0.23511,0.39551 -0.74927,0.52002 -1.14478,0.28271 l -0.47827,-0.28271 -0.80933,1.35938 -0.52076,-0.31055 1.65967,-2.79053 0.99976,0.59619 c 0.19189,0.11279 0.32739,0.29443 0.38306,0.51416 0.05201,0.2168 0.02491,0.43945 -0.08935,0.63135 z m 0.698,35.61692 c 0.20508,-0.27539 0.59399,-0.33252 0.86938,-0.12817 0.27539,0.20508 0.33252,0.59399 0.12817,0.86938 l -8.3225,11.18774 c -0.12232,0.16406 -0.30982,0.25049 -0.49952,0.25049 -0.12891,0 -0.25854,-0.0395 -0.36987,-0.12231 -0.27539,-0.20508 -0.33252,-0.59399 -0.12817,-0.86938 z m 0.75072,-11.30346 -0.23584,-0.60791 3.479,-0.008 0.19923,0.51416 -2.57446,2.34082 -0.2373,-0.6123 0.69653,-0.62549 -0.38891,-1.00342 z m 0.79248,5.98974 3.10108,0.95215 -0.34058,1.11182 c -0.06518,0.2124 -0.21021,0.38672 -0.40942,0.49365 -0.19775,0.10107 -0.42041,0.12744 -0.63428,0.063 -0.43945,-0.13623 -0.68188,-0.60498 -0.54639,-1.04443 l 0.1626,-0.5332 -1.51172,-0.46289 z M 55.91953,5.45276 57.05406,7.03552 58.18931,5.45276 h 1.75634 L 57.7755,8.49378 v 2.85864 H 56.33336 V 8.49378 C 55.72838,7.64051 54.72643,6.26502 54.15441,5.45276 c 0,0 1.76512,0 1.76512,0 z M 49.65659,5.27112 c 0.82837,0 1.60766,0.32299 2.18702,0.91113 L 52.11753,6.46423 51.08995,7.35852 50.84971,7.12707 C 50.52672,6.81213 50.1041,6.63782 49.65659,6.63782 c -0.94483,0 -1.71533,0.7705 -1.71533,1.71533 0,0.95288 0.77051,1.72339 1.71533,1.72339 0.45557,0 0.87012,-0.17431 1.19312,-0.48925 V 8.85852 h -1.5249 V 7.49109 h 2.8916 v 2.58545 l -0.06592,0.09961 c -0.59692,0.79541 -1.53296,1.26709 -2.4939,1.26709 -1.69849,0 -3.08203,-1.38355 -3.08203,-3.09009 1e-5,-1.69848 1.38355,-3.08203 3.08203,-3.08203 z m -9.72582,0.18164 h 2.16284 c 0.43066,0 0.83643,0.17431 1.13525,0.47241 0.2981,0.30689 0.47241,0.7705 0.47241,1.2019 0,0.56323 -0.27392,1.11035 -0.71265,1.3916 l 2.14599,2.83374 H 43.41928 L 41.46371,8.80066 h -0.13256 v 2.55175 h -1.40039 c 1e-5,10e-6 1e-5,-5.89965 1e-5,-5.89965 z m -6.70092,0 h 4.0188 v 1.40918 h -2.57666 v 0.50537 h 2.25293 v 1.43335 h -2.25293 v 1.12646 h 2.51806 v 1.42529 h -3.9602 c 0,10e-6 0,-5.89965 0,-5.89965 z m -7.7373,0 h 1.31763 l 2.11231,3.14062 V 5.45276 h 1.44214 v 5.89965 h -1.30884 l -2.1211,-3.15673 v 3.15673 h -1.44214 z m -6.74267,0 h 4.0188 v 1.40918 h -2.57666 v 0.50537 h 2.25293 v 1.43335 h -2.25293 v 1.12646 h 2.51806 v 1.42529 h -3.9602 z M 9.62684,117.23704 V 56.7545 c 0,-1.03858 0.60498,-1.99878 1.54174,-2.44629 l 5.1438,-2.46039 v -4.8316 c 0,-1.03784 0.60498,-1.99732 1.54102,-2.44629 l 5.27344,-2.52452 v -5.69984 c 0,-1.03857 0.60571,-1.99878 1.54248,-2.44629 l 4.13626,-1.97776 c 0.54235,-1.52504 1.41119,-2.9599 2.63187,-4.18057 4.39343,-4.39338 11.51651,-4.39338 15.90984,0 0.86628,0.86622 1.55502,1.84099 2.07971,2.87763 l 8.17419,4.09296 c 0.92359,0.46289 1.4978,1.39234 1.4978,2.42505 v 6.1706 l 5.18628,2.48296 c 0.93604,0.44897 1.54028,1.40918 1.54028,2.44629 v 5.12855 l 5.2661,2.49523 c 0.9375,0.44897 1.54248,1.40918 1.54248,2.44629 v 22.03344 c 0,3.9098 -1.26251,7.53331 -3.38396,10.45788 L 69.248,117.3131 c 3.544,2.38152 5.88152,6.42612 5.88152,11.00778 0,2.55981 -0.73096,5.04419 -2.11523,7.18506 -0.11865,0.18384 -0.3186,0.28345 -0.52222,0.28345 -0.11572,0 -0.23218,-0.0322 -0.33691,-0.0996 -0.28784,-0.18604 -0.37061,-0.57056 -0.18384,-0.85913 1.25317,-1.93872 1.91602,-4.18945 1.91602,-6.50977 0,-6.62328 -5.38915,-12.01244 -12.01244,-12.01244 -6.62328,0 -12.01244,5.38913 -12.01244,12.01242 0,2.26392 0.63281,4.46851 1.83032,6.37573 0.18311,0.29077 0.09521,0.67383 -0.19556,0.8562 -0.29078,0.18164 -0.67456,0.0952 -0.8562,-0.19556 -1.32203,-2.10498 -2.02076,-4.53809 -2.02076,-7.03638 0,-3.17542 1.12445,-6.09178 2.99332,-8.37679 L 39.09731,108.80841 c -0.23218,-0.20654 -0.25342,-0.5625 -0.04688,-0.79395 0.20728,-0.23364 0.56324,-0.25269 0.79394,-0.0469 l 12.52129,11.14027 c 0.68078,-0.70248 1.43665,-1.32962 2.25751,-1.86859 v -6.2043 -13.30881 C 50.73621,97.47319 47.10193,95.92187 44.21473,93.2159 41.10679,90.30256 39.21851,86.29008 38.92262,82.06396 c -0.05667,-0.49763 -0.09266,-1.0009 -0.09266,-1.51236 0,-0.31055 0.25196,-0.5625 0.5625,-0.5625 0.08148,0 0.15784,0.01897 0.22778,0.05025 0.20865,0.08221 0.35742,0.28327 0.35742,0.52107 0,0.09723 0.01117,0.19244 0.01428,0.28917 0.0014,0.01702 0.0099,0.03179 0.0099,0.04919 0,0.21854 0.02398,0.43221 0.03268,0.64911 0.22302,2.05879 1.13782,3.96103 2.63773,5.43439 1.73731,1.70508 4.02612,2.63306 6.47241,2.5752 2.06973,-0.03802 3.97137,-0.82004 5.47852,-2.0885 V 71.07993 c 0,-4.03125 -3.27979,-7.3103 -7.31104,-7.3103 -3.77929,0 -6.89749,2.88194 -7.27249,6.56382 -0.0131,0.24876 -0.03782,0.49452 -0.03782,0.74648 0,0.31055 -0.25195,0.5625 -0.5625,0.5625 -0.31055,0 -0.5625,-0.25195 -0.5625,-0.5625 0,-0.29068 0.01483,-0.57797 0.04358,-0.86118 0.45044,-7.97309 7.06009,-14.32631 15.14391,-14.32631 1.3537,0 2.65979,0.19501 3.90966,0.52885 V 50.88986 L 45.64382,45.04733 c -1.73529,1.16267 -3.72271,1.78189 -5.72991,1.87532 v 1.59457 c 2.38659,0.23818 4.25024,2.25169 4.25024,4.70101 0,2.60953 -2.11542,4.72499 -4.72503,4.72499 -2.60953,0 -4.72503,-2.11546 -4.72503,-4.72499 0,-2.38838 1.77383,-4.35754 4.07483,-4.67509 v -1.62497 c -1.97955,-0.10501 -3.9342,-0.72702 -5.64606,-1.87367 l -8.89105,4.25276 v 68.01817 c 3.54199,2.38188 5.87768,6.42539 5.87768,11.00545 0,2.55981 -0.73096,5.04419 -2.11523,7.18506 -0.11865,0.18384 -0.3186,0.28345 -0.52222,0.28345 -0.11573,0 -0.23218,-0.0322 -0.33691,-0.0996 -0.28784,-0.18604 -0.37061,-0.57056 -0.18384,-0.85913 1.25317,-1.93872 1.91602,-4.18945 1.91602,-6.50977 0,-6.62328 -5.38916,-12.01244 -12.01244,-12.01244 -6.62328,0 -12.01241,5.38913 -12.01241,12.01242 0,2.26392 0.63281,4.46851 1.83032,6.37573 0.1831,0.29077 0.09521,0.67383 -0.19555,0.8562 -0.2915,0.18237 -0.67456,0.0945 -0.8562,-0.19556 -1.32203,-2.10498 -2.02076,-4.53809 -2.02076,-7.03638 -2e-5,-4.63393 2.39435,-8.7137 6.00657,-11.08381 z m 30.24607,-18.81729 0.6189,-3.18457 0.58081,0.11353 1.00488,2.35693 0.40429,-2.08374 0.59912,0.11646 -0.6189,3.18457 -0.57715,-0.11206 -1.00708,-2.36353 -0.40577,2.08887 z m 4.24438,-1.63916 0.29004,-0.52808 1.93433,1.06201 -0.28858,0.52808 -0.70019,-0.38452 -1.27295,2.31958 -0.5354,-0.2937 1.27295,-2.31958 z m 2.21046,4.06128 c 0.25635,0.25928 0.67529,0.25488 0.93384,-0.002 l 1.44141,-1.42529 0.42921,0.43359 -1.44067,1.42603 c -0.24023,0.23657 -0.55957,0.36768 -0.89428,0.36548 -0.33765,-0.004 -0.65625,-0.13843 -0.89356,-0.37793 -0.49072,-0.49512 -0.48633,-1.29492 0.0095,-1.78418 l 1.44067,-1.42675 0.42553,0.43066 -1.44068,1.42602 c -0.25929,0.25635 -0.26441,0.67895 -0.01099,0.93384 z m 4.73436,2.43604 0.24023,0.52075 -2.94287,1.35718 -0.25415,-0.54932 1.96801,-0.9082 -1.40479,-0.28418 0.69727,-1.24878 -1.96729,0.90747 -0.25342,-0.54932 2.94213,-1.35791 0.23877,0.51636 -0.72729,1.30298 z m -35.70408,74.1313 c 0.32812,-0.0447 0.6482,0.20581 0.68774,0.54712 0.03882,0.34058 -0.20581,0.64893 -0.54712,0.68774 -6.06299,0.69215 -10.63549,5.81911 -10.63549,11.92676 0,2.26392 0.63281,4.46851 1.83032,6.37573 0.18237,0.29077 0.09449,0.67383 -0.19629,0.85693 -0.10254,0.0637 -0.21679,0.0945 -0.32959,0.0945 -0.20654,0 -0.40869,-0.10254 -0.52735,-0.29077 -1.32129,-2.10571 -2.01928,-4.53882 -2.01928,-7.03638 1e-5,-6.73973 5.04566,-12.39769 11.73706,-13.16161 z m -7.87865,38.69164 c 0.46289,0.39258 1.15723,0.33545 1.54614,-0.12451 0.22412,-0.26367 0.30908,-0.61084 0.23291,-0.95068 l -0.02197,-0.1084 0.58374,-0.13843 0.0227,0.11426 c 0.06006,0.26074 0.0586,0.52368 -0.00443,0.78076 -0.05932,0.25415 -0.18237,0.49072 -0.35376,0.69287 -0.14722,0.17358 -0.32666,0.31421 -0.52881,0.41895 -0.19555,0.0959 -0.40723,0.15601 -0.62548,0.17432 -0.22192,0.0205 -0.44092,-0.003 -0.65039,-0.0733 -0.21896,-0.0659 -0.41525,-0.17282 -0.59249,-0.32297 -0.71338,-0.60498 -0.79834,-1.68237 -0.19409,-2.39502 0.17139,-0.20142 0.39111,-0.36255 0.63208,-0.46362 0.23731,-0.10254 0.5083,-0.14795 0.76904,-0.13037 l 0.11645,0.004 -0.04028,0.60425 -0.11425,-0.007 c -0.34497,-0.0227 -0.67309,0.11792 -0.90015,0.38524 -0.38965,0.45923 -0.33544,1.15063 0.12305,1.53955 z m 5.83813,-2.55249 -0.66138,0.375 -1.88525,-0.87817 -0.20874,0.68335 0.59253,1.0459 -0.52661,0.2981 -1.59888,-2.81909 0.52661,-0.2981 0.59985,1.05688 0.52515,-1.69556 0.76099,-0.43066 -0.47974,1.56372 z m -6.67309,10.57031 0.56983,-0.17651 0.67016,2.16284 -3.09814,0.96021 -0.18091,-0.58301 2.52832,-0.78369 z m -1.71241,-6.67456 0.208,-0.57422 3.04907,1.10669 -0.20069,0.55225 -2.49097,0.62695 2.00024,0.72583 -0.208,0.57349 -3.04907,-1.10596 0.20215,-0.55664 2.48437,-0.62476 z m 0.62696,18.67308 c 0.10254,-0.19849 0.27539,-0.34497 0.48999,-0.41382 0.21313,-0.0644 0.43726,-0.052 0.63574,0.0506 0.40869,0.21094 0.56396,0.71558 0.35302,1.12573 l -0.25488,0.49438 1.40551,0.72437 -0.27759,0.53833 -2.88427,-1.48682 z m 0.84448,-6.19116 -0.62842,-0.97852 C 5.65418,228.76003 5.6139,228.5359 5.6615,228.31618 c 0.05053,-0.21753 0.17359,-0.40503 0.36181,-0.52588 0.38745,-0.24902 0.90307,-0.12964 1.1521,0.25781 l 0.30029,0.46729 1.33154,-0.85547 0.32812,0.5105 z m -2.47486,-7.9768 3.26367,-1.2063 -0.00953,0.65698 -0.88037,0.31934 -0.01538,1.07593 0.87012,0.3501 -0.00952,0.65112 -3.22705,-1.29492 z m 0.14502,19.02172 1.33228,-0.6731 -1.04956,-1.06201 0.09229,-0.56543 3.19995,0.52148 -0.09741,0.59766 -2.1394,-0.34863 1.00488,1.02173 -1.27735,0.64526 2.1394,0.34937 -0.09741,0.59766 -3.19995,-0.52295 z m 0.15088,3.19043 2.94799,-1.8479 0.12524,0.64453 -0.79614,0.49365 0.20434,1.05542 0.92431,0.16479 0.12378,0.64014 -3.42481,-0.60864 z m 7.19311,28.84054 0.94336,-1.95114 -1.26489,0.67236 -0.25562,-1.40698 -0.94335,1.95114 -0.54492,-0.26437 1.41064,-2.91797 0.51269,0.24756 0.26514,1.46851 1.31689,-0.70312 0.51636,0.24902 -1.41064,2.91867 z m 4.07153,0.95142 -0.2102,-0.91187 -1.06494,-0.14575 -0.45191,0.82104 -0.646,-0.0894 1.67725,-3.04318 0.54565,0.0747 0.80053,3.38303 z m 0.63501,-12.91916 -8.32177,-11.18774 c -0.20435,-0.27539 -0.14722,-0.66431 0.12818,-0.86938 0.27539,-0.20435 0.6643,-0.14722 0.86938,0.12817 l 8.32177,11.18774 c 0.20435,0.27539 0.14722,0.66431 -0.12818,0.86938 -0.11133,0.0828 -0.24097,0.12231 -0.36987,0.12231 -0.18969,1e-5 -0.37719,-0.0864 -0.49951,-0.25048 z m 3.1919,12.22263 c -0.07544,0.14429 -0.19995,0.27759 -0.37134,0.39331 -0.14648,0.104 -0.31641,0.16553 -0.5376,0.19702 -0.104,0.0146 -0.21387,0.0161 -0.32959,0.01 -0.34351,-0.019 -0.69067,-0.13477 -1.01001,-0.34277 l -0.09741,-0.0652 0.33326,-0.5061 0.09595,0.0637 c 0.23364,0.15088 0.48047,0.2395 0.71191,0.25269 l 0.0051,-7.3e-4 c 0.06958,0.004 0.13843,0.003 0.20508,-0.006 0.11353,-0.0169 0.21387,-0.0535 0.29443,-0.1062 0.10108,-0.0608 0.21313,-0.17871 0.1875,-0.36328 -0.01538,-0.0989 -0.07544,-0.16846 -0.1875,-0.2168 -0.13769,-0.0586 -0.31421,-0.0747 -0.43945,-0.0798 -0.05493,-7.3e-4 -0.52881,-0.03 -0.75733,-0.11719 -0.15161,-0.0667 -0.27539,-0.15894 -0.36987,-0.27393 -0.09595,-0.12012 -0.15235,-0.25928 -0.17431,-0.41675 -0.02417,-0.17139 0.0044,-0.3501 0.08642,-0.52295 0.08056,-0.14502 0.20069,-0.27173 0.35156,-0.37134 0.15161,-0.0996 0.32593,-0.16626 0.52002,-0.19336 0.07617,-0.0111 0.15821,-0.014 0.24097,-0.0169 0.30542,0.0117 0.61743,0.10474 0.90454,0.28491 l 0.09668,0.0601 -0.31714,0.51929 -0.09668,-0.0601 c -0.32593,-0.19702 -0.58594,-0.21606 -0.7478,-0.19189 -0.10474,0.0146 -0.19629,0.0506 -0.27246,0.0981 -0.11645,0.0769 -0.18311,0.19629 -0.16772,0.30396 0.01391,0.0996 0.06006,0.15747 0.15307,0.20361 0.09375,0.0469 0.23144,0.0725 0.44531,0.0886 0.0271,7.3e-4 0.06446,0.005 0.10254,0.009 0.19336,0.009 0.4541,0.0264 0.64454,0.10547 0.1648,0.0586 0.29883,0.15527 0.39844,0.27393 0.09961,0.11865 0.16187,0.2666 0.18457,0.4292 0.02856,0.20215 7.3e-4,0.39111 -0.0857,0.55884 z m 3.15454,-1.17771 c -0.03662,0.15964 -0.12085,0.32004 -0.25708,0.47678 -0.11353,0.13843 -0.26294,0.24316 -0.46729,0.33032 -0.09668,0.0418 -0.20288,0.0725 -0.31641,0.0967 -0.33692,0.0703 -0.70312,0.0484 -1.06494,-0.0681 l -0.1106,-0.0374 0.18896,-0.57642 0.10986,0.0366 c 0.2644,0.085 0.52661,0.10693 0.75366,0.0586 l 0.0051,-0.002 c 0.06738,-0.0146 0.1333,-0.0323 0.19629,-0.0601 0.10547,-0.0447 0.19263,-0.10693 0.25562,-0.17868 0.08276,-0.0857 0.15967,-0.22778 0.08716,-0.39844 -0.04028,-0.0923 -0.11645,-0.14429 -0.23804,-0.16187 -0.14868,-0.0205 -0.32299,0.0102 -0.44605,0.0374 -0.05273,0.0139 -0.51782,0.10913 -0.76099,0.085 -0.16406,-0.0242 -0.30762,-0.0813 -0.42993,-0.16772 -0.12304,-0.0908 -0.21387,-0.21094 -0.27612,-0.35742 -0.06885,-0.1582 -0.08642,-0.33984 -0.0542,-0.52661 0.04028,-0.16187 0.12304,-0.31567 0.24317,-0.45117 0.12012,-0.13623 0.27172,-0.24609 0.4519,-0.323 0.07105,-0.0308 0.15015,-0.0549 0.22924,-0.0791 0.29736,-0.0681 0.62256,-0.0601 0.94849,0.0395 l 0.10766,0.0315 -0.16992,0.58521 -0.10913,-0.0337 c -0.36767,-0.10474 -0.62256,-0.0542 -0.77417,0.0109 -0.09521,0.041 -0.17431,0.0989 -0.23657,0.16553 -0.09301,0.10474 -0.12451,0.2373 -0.08204,0.33765 0.03955,0.0923 0.09814,0.13623 0.20069,0.15674 0.10254,0.0212 0.24243,0.0103 0.45337,-0.0307 0.0271,-0.007 0.06445,-0.0125 0.10034,-0.019 0.19043,-0.0418 0.44677,-0.0923 0.65112,-0.0659 0.17431,0.0146 0.32812,0.0718 0.4563,0.16113 0.12671,0.0886 0.22632,0.21606 0.29077,0.36621 0.08058,0.1875 0.10255,0.3772 0.06373,0.56177 z m 2.82861,-21.1897 c -0.66284,0.63281 -1.70654,0.62183 -2.32397,-0.0241 -0.61743,-0.646 -0.58081,-1.68896 0.08204,-2.32251 l 0.78735,-0.7522 2.24267,2.34668 z m 2.38183,-3.2893 c -0.42407,0.81152 -1.4165,1.13525 -2.20678,0.72144 -0.79102,-0.41382 -1.09057,-1.41357 -0.66577,-2.2251 l 0.50464,-0.9646 2.87329,1.50366 z m 1.12867,-3.40723 -3.39478,0.74487 0.10034,-0.64819 0.9148,-0.19629 0.1626,-1.06128 -0.81298,-0.46582 0.09961,-0.6438 3.01465,1.72559 z m 2.00097,-11.78467 1.51465,-1.83984 -0.29516,-0.0132 0.03149,-0.60498 0.92065,0.044 0.36547,0.30176 -2.0625,2.50342 z m 2.74878,-1.83252 0.58813,0.2915 -0.22705,2.41846 1.7915,-1.64209 0.583,0.29004 -2.56054,2.35254 -0.49438,-0.24609 z m 3.92358,1.55274 0.6394,0.14062 -1.92041,2.8916 -0.63501,-0.14062 z m 8.55129,47.73178 c 0,1.32855 -1.07703,2.40558 -2.40555,2.40558 h -7.84972 c -1.32861,0 -2.40564,-1.07703 -2.40564,-2.40558 v -19.7486 c 0,-1.32858 1.07703,-2.40561 2.40564,-2.40561 h 7.84973 c 1.32852,0 2.40555,1.07703 2.40555,2.40561 z m -7.82692,-45.89633 c -0.04102,-0.9375 0.68408,-1.72998 1.61572,-1.771 0.93677,-0.0425 1.72998,0.68408 1.77172,1.62012 0.04175,0.93311 -0.68335,1.71973 -1.62012,1.76221 -0.93236,0.041 -1.72558,-0.67969 -1.76732,-1.61133 z m 4.46045,-0.50537 c 0.21753,0.56396 0.85328,0.84521 1.4143,0.62988 0.32153,-0.12451 0.56104,-0.38818 0.65699,-0.72217 l 0.03296,-0.10547 0.57714,0.15674 -0.03516,0.11133 c -0.07105,0.25635 -0.19775,0.48633 -0.37574,0.68115 -0.17359,0.19336 -0.39478,0.34277 -0.64087,0.43799 -0.21167,0.082 -0.43579,0.12012 -0.66211,0.11572 -0.21827,-0.009 -0.43213,-0.0586 -0.63208,-0.14648 -0.20435,-0.0879 -0.38525,-0.2124 -0.53467,-0.375 -0.1604,-0.16113 -0.28199,-0.34863 -0.36621,-0.56543 -0.33545,-0.87012 0.10327,-1.85449 0.97339,-2.19141 0.24609,-0.0952 0.51562,-0.13037 0.7749,-0.10254 0.25708,0.022 0.51709,0.11133 0.73682,0.25049 l 0.10034,0.0601 -0.32447,0.50977 -0.09668,-0.0601 c -0.2915,-0.18604 -0.646,-0.21973 -0.97266,-0.0923 -0.56029,0.21683 -0.84301,0.84818 -0.62621,1.40775 z m 4.38427,-0.35889 -1.57617,-2.1167 -0.63867,0.47607 -0.35889,-0.48193 1.76587,-1.31543 0.35962,0.48193 -0.6394,0.47607 1.57764,2.11523 z m 1.92699,27.0769 c 0.0044,-0.10474 0.02344,-0.2124 0.05127,-0.32666 0.08422,-0.33325 0.26221,-0.65332 0.52588,-0.92798 l 0.0813,-0.0828 0.43726,0.42041 -0.0813,0.0835 c -0.19189,0.20068 -0.3252,0.42773 -0.38159,0.65332 v 0.004 c -0.01685,0.0674 -0.0293,0.13477 -0.03223,0.20361 -0.0051,0.11353 0.01245,0.21899 0.05054,0.30688 0.03954,0.11206 0.13403,0.24463 0.32079,0.25269 0.09961,0.005 0.17944,-0.041 0.24829,-0.14355 0.08276,-0.12451 0.13184,-0.29517 0.15967,-0.41675 0.01172,-0.0542 0.12891,-0.51416 0.25708,-0.72217 0.09302,-0.1377 0.20728,-0.24097 0.33838,-0.31348 0.13549,-0.071 0.28271,-0.10107 0.44165,-0.0937 0.17359,0.008 0.34351,0.0703 0.49878,0.18311 0.12671,0.10547 0.22924,0.24756 0.29955,0.41528 0.06958,0.16699 0.10254,0.35083 0.09375,0.54639 -0.0037,0.0784 -0.01685,0.15894 -0.03003,0.24023 -0.06738,0.2981 -0.21827,0.58813 -0.44824,0.83716 l -0.0769,0.0828 -0.45117,-0.40796 0.0769,-0.0835 c 0.25488,-0.28491 0.32153,-0.53687 0.32886,-0.70093 0.0044,-0.10474 -0.01391,-0.20142 -0.04688,-0.28418 -0.05273,-0.1311 -0.1582,-0.21753 -0.26807,-0.22266 -0.09961,-0.005 -0.16479,0.0286 -0.22852,0.11279 -0.06298,0.0842 -0.11499,0.21387 -0.16919,0.42114 -0.0059,0.0264 -0.01611,0.063 -0.02783,0.0989 -0.04395,0.1897 -0.1106,0.44165 -0.22412,0.6145 -0.08936,0.15161 -0.20801,0.26367 -0.34423,0.33984 -0.13477,0.0762 -0.29224,0.1106 -0.45557,0.10254 -0.20508,-0.01 -0.38453,-0.0725 -0.53467,-0.1897 -0.12744,-0.10107 -0.23511,-0.24683 -0.31787,-0.43799 -0.07396,-0.16333 -0.10179,-0.34277 -0.09153,-0.56543 v -7e-5 z m 6.34864,-10.85376 0.86205,-0.36475 0.45337,0.46729 -3.19629,1.35864 -0.38379,-0.39551 1.45752,-3.15454 0.4563,0.47168 -0.39624,0.84595 z m -3.8335,-0.9082 -0.46362,-0.98438 c -0.38965,-0.8291 -0.04834,-1.81421 0.75879,-2.19434 0.80786,-0.37939 1.78491,-0.0146 2.17529,0.81372 l 0.46289,0.98511 z M 49.973,244.6272 49.84848,243.54468 c -0.104,-0.91113 0.53613,-1.73584 1.42383,-1.83691 0.8877,-0.10181 1.69703,0.55737 1.80102,1.46851 l 0.12378,1.08252 z m -0.89721,17.85571 3.17359,-0.65698 0.23511,1.13599 c 0.04541,0.21899 0.0029,0.44165 -0.12085,0.62988 -0.12452,0.18384 -0.30688,0.31421 -0.52515,0.35962 -0.45044,0.0923 -0.8877,-0.20288 -0.98071,-0.65186 l -0.11279,-0.54419 -1.54541,0.32007 z m 1.69922,4.98853 -0.89941,-1.89258 2.92968,-1.3916 0.91626,1.9292 -0.53467,0.25415 -0.65479,-1.37769 -0.4314,0.20508 0.56983,1.20117 -0.54785,0.26001 -0.56909,-1.2019 -0.87305,0.41455 0.63721,1.3418 z m 2.01782,2.62426 -1.34033,-1.61206 2.49463,-2.07422 1.36671,1.64282 -0.45557,0.37866 -0.97559,-1.17334 -0.36841,0.30615 0.85108,1.02319 -0.46655,0.38672 -0.85108,-1.02246 -0.74267,0.61743 0.94995,1.14258 z m 4.10009,1.07447 c -0.50171,0.73608 -1.52929,0.91772 -2.28516,0.4021 l -0.89795,-0.6123 1.8252,-2.67627 0.89868,0.6123 c 0.75586,0.51562 0.96167,1.53735 0.45923,2.27417 z m -2.96557,-58.79076 c -0.65039,0.95654 -0.99463,2.07422 -0.99463,3.23071 v 22.58568 c 0,0.31055 -0.25195,0.5625 -0.5625,0.5625 -0.31055,0 -0.5625,-0.25195 -0.5625,-0.5625 v -22.58568 c 0,-1.38281 0.41162,-2.71875 1.18945,-3.86353 l 5.64404,-8.30045 c -2.10709,-0.50363 -4.05405,-1.51831 -5.69879,-2.98439 L 39.9044,219.6355 c -0.10913,0.15967 -0.28564,0.24609 -0.46582,0.24609 -0.1084,0 -0.21899,-0.0315 -0.31567,-0.0974 -0.08057,-0.0547 -0.13513,-0.12946 -0.1767,-0.21039 -0.11407,-0.0374 -0.22064,-0.0975 -0.29352,-0.20416 L 25.75,200.39502 c -1.66095,1.50348 -3.63666,2.54228 -5.77752,3.0531 l 5.64313,8.29848 c 0.77783,1.14404 1.18872,2.47998 1.18872,3.86353 v 22.58568 c 0,0.31055 -0.25196,0.5625 -0.5625,0.5625 -0.31054,0 -0.5625,-0.25195 -0.5625,-0.5625 v -22.58568 c 0,-1.15723 -0.34351,-2.27417 -0.9939,-3.23071 l -5.91833,-8.70309 c -0.62265,0.0886 -1.25207,0.14914 -1.89221,0.14914 -2.3335,0 -4.5694,-0.6102 -6.54346,-1.73561 l 6.23437,9.16823 c 0.17505,0.25708 0.1084,0.60718 -0.14868,0.78149 -0.09668,0.0659 -0.20728,0.0974 -0.31568,0.0974 -0.18017,0 -0.35669,-0.0864 -0.46582,-0.24609 L 7.55628,200.00954 c -0.00607,-0.009 -0.00653,-0.0192 -0.0119,-0.0283 -0.01337,-0.0132 -0.0282,-0.0244 -0.04156,-0.0376 -0.24243,-0.24243 -0.24243,-0.63647 0,-0.87891 0.24317,-0.2417 0.63574,-0.2417 0.87891,0 2.26831,2.26904 5.28516,3.51855 8.49316,3.51855 3.20874,0 6.22558,-1.24951 8.49389,-3.51855 0.24316,-0.2417 0.63575,-0.2417 0.87891,0 0.08111,0.0811 0.12487,0.18091 0.15179,0.28459 l 12.96953,19.07289 12.82983,-18.86763 c -0.01428,-0.1756 0.0379,-0.35522 0.17212,-0.48985 0.24316,-0.2417 0.63574,-0.24316 0.87891,0 2.26904,2.26831 5.28516,3.51782 8.4939,3.51782 3.20874,0 6.22485,-1.24951 8.4939,-3.51782 0.24316,-0.24316 0.63574,-0.2417 0.87891,0 0.02087,0.021 0.02984,0.048 0.04705,0.071 0.01025,0.005 0.02151,0.007 0.03131,0.0132 0.25708,0.17432 0.32373,0.52441 0.14868,0.78149 l -8.49096,12.48779 c -0.1084,0.15967 -0.28564,0.24609 -0.46582,0.24609 -0.1084,0 -0.21899,-0.0315 -0.31567,-0.0974 -0.25708,-0.17432 -0.32373,-0.52441 -0.14868,-0.78149 l 6.74945,-9.92665 c -2.06552,1.2724 -4.44094,1.96596 -6.92816,1.96596 -0.64197,0 -1.27313,-0.0608 -1.89752,-0.14992 z m 7.59594,61.64204 c -0.93237,-0.052 -1.65015,-0.84961 -1.59814,-1.78198 0.05273,-0.93674 0.85547,-1.65305 1.78711,-1.60104 0.9375,0.0527 1.65453,0.854 1.6018,1.79074 -0.05273,0.93237 -0.85326,1.64502 -1.79077,1.59228 z m 2.89966,-2.40231 0.82178,-0.18896 0.13549,0.58594 -0.82178,0.18967 0.35303,1.5271 -0.59107,0.13696 -0.73096,-3.1611 2.07935,-0.4812 0.13403,0.58228 -1.48682,0.34351 z m 5.56274,-0.0549 -2.08301,-2.4873 0.46802,-0.39258 1.69923,2.02954 1.26855,-1.06201 0.38306,0.45776 z m 2.50708,-2.38696 -2.54883,-2.00537 0.37646,-0.47974 2.54955,2.00464 z m 1.88452,-2.91724 c -0.39404,0.84521 -1.40405,1.21289 -2.25366,0.81665 -0.84595,-0.39404 -1.21362,-1.40405 -0.81885,-2.25 0.09595,-0.20508 0.23145,-0.38818 0.39697,-0.5376 0.16406,-0.14868 0.35449,-0.26587 0.5647,-0.33911 l 0.11353,-0.0417 0.16992,0.57568 -0.09888,0.0388 c -0.2644,0.093 -0.47314,0.29224 -0.59839,0.56104 -0.25342,0.54419 -0.0183,1.19092 0.52661,1.44434 0.54859,0.25562 1.19971,0.022 1.45312,-0.52222 0.12891,-0.27539 0.13477,-0.57935 0.02783,-0.86572 l -0.61011,-0.28418 -0.37573,0.8042 -0.54858,-0.25562 0.62768,-1.34473 1.35204,0.63062 0.01538,0.0323 c 0.26148,0.4834 0.28053,1.05469 0.0564,1.53735 z m 1.12647,-4.47363 -1.55786,-0.20581 -0.17139,1.30444 1.5564,0.20581 -0.07984,0.60498 -3.2124,-0.4248 0.07984,-0.60571 1.06422,0.14136 0.17285,-1.30444 -1.06567,-0.13989 0.07983,-0.60571 3.21387,0.42554 z"
   style="fill:#252626" />
		<path
   id="path99"
   inkscape:connector-curvature="0"
   d="m 28.54089,69.96738 -0.20947,0.51636 0.43432,0.17725 0.2102,-0.51562 c 0.04834,-0.11865 -0.01025,-0.25048 -0.12891,-0.29883 -0.11866,-0.04836 -0.25927,0.0073 -0.30614,0.12084 z"
   style="fill:#252626" />
		<path
   id="path101"
   inkscape:connector-curvature="0"
   d="m 42.2921,7.12708 c 0,-0.11645 -0.08276,-0.26514 -0.19849,-0.26514 h -0.76245 v 0.53027 h 0.76245 c 0.11573,10e-6 0.19849,-0.14941 0.19849,-0.26513 z"
   style="fill:#252626" />
		<path
   id="path103"
   inkscape:connector-curvature="0"
   d="m 25.75475,247.7854 c 0.50098,0.26074 1.12793,0.0549 1.39746,-0.46216 l 0.22412,-0.427 -1.81567,-0.95068 -0.22339,0.42773 c -0.27099,0.51709 -0.08276,1.14917 0.41748,1.41211 z"
   style="fill:#252626" />
		<path
   id="path105"
   inkscape:connector-curvature="0"
   d="m 43.20378,270.62488 c -0.12195,0.23752 -0.23914,0.43268 -0.35192,0.58505 -0.11279,0.15259 -0.21185,0.25302 -0.297,0.30176 -0.04889,0.0244 -0.10519,0.0456 -0.16928,0.0639 -0.06381,0.0182 -0.14017,0.032 -0.22861,0.0412 -0.08826,0.009 -0.19492,0.0169 -0.31988,0.0229 -0.12487,0.006 -0.27594,0.009 -0.45254,0.009 -0.20114,0 -0.36721,-0.006 -0.49832,-0.0183 -0.1311,-0.0122 -0.23621,-0.0275 -0.31531,-0.0456 -0.07937,-0.0185 -0.14191,-0.0398 -0.1875,-0.0641 -0.04568,-0.0243 -0.08093,-0.0518 -0.10511,-0.0823 -0.07325,-0.0792 -0.12048,-0.19656 -0.14172,-0.35193 -0.02142,-0.15555 -0.03204,-0.3551 -0.03204,-0.599 v -0.60336 c 0.0015,-0.0836 0.0038,-0.15747 0.0074,-0.22083 0.0059,-0.11261 0.0227,-0.21786 0.05017,-0.31531 0.02737,-0.0975 0.07003,-0.20132 0.12809,-0.31097 0.01373,-0.0262 0.02921,-0.0545 0.04559,-0.0843 0.02198,-7e-4 0.04486,-7.6e-4 0.07031,-7.6e-4 h 0.53046 c 0.1766,0 0.32144,0.003 0.43423,0.009 0.11261,0.006 0.20251,0.0182 0.26981,0.0365 0.09128,0.0244 0.15674,0.0672 0.19647,0.12808 0.03955,0.0609 0.06848,0.13406 0.08698,0.21939 l 0.08221,0.35651 c 0.02417,0.0306 0.06537,0.0442 0.12323,0.0412 0.05795,-0.003 0.09613,-0.0197 0.11444,-0.0503 0,-0.10364 -0.0062,-0.23456 -0.01831,-0.39307 -0.01227,-0.15854 -0.01831,-0.32007 -0.01831,-0.48459 0,-0.1767 0.0061,-0.34735 0.01831,-0.51187 0.01208,-0.1647 0.01831,-0.30182 0.01831,-0.41162 -0.01831,-0.0302 -0.05649,-0.0472 -0.11444,-0.0503 -0.05786,-0.003 -0.09906,0.0107 -0.12323,0.0412 l -0.07306,0.37494 c -0.02453,0.11578 -0.05347,0.1936 -0.08698,0.23315 -0.0336,0.0396 -0.07782,0.0685 -0.13248,0.0867 -0.05484,0.0183 -0.14951,0.032 -0.28354,0.0412 -0.13422,0.009 -0.29874,0.0137 -0.49365,0.0137 h -0.41327 c 0.0033,-0.005 0.0061,-0.01 0.0092,-0.0151 l 0.57605,-0.99646 c 0.11554,-0.19516 0.22083,-0.37643 0.31549,-0.5441 0.0943,-0.16751 0.18732,-0.31549 0.27869,-0.44345 0.09155,-0.1279 0.18585,-0.23154 0.28345,-0.31073 0.02032,-0.0163 0.04102,-0.0312 0.06226,-0.045 0.06198,0.0246 0.11655,0.0536 0.16352,0.0876 0.07617,0.0548 0.13843,0.11877 0.18741,0.19199 0.04879,0.0731 0.08835,0.15536 0.11893,0.24667 0.03031,0.0915 0.06391,0.19217 0.10052,0.30182 0.02426,0.0306 0.06409,0.0428 0.11893,0.0366 0.05475,-0.006 0.09127,-0.0243 0.10959,-0.0549 -0.01227,-0.0975 -0.02289,-0.20871 -0.03186,-0.33362 -0.0093,-0.12497 -0.01996,-0.24689 -0.03214,-0.36566 -0.01218,-0.11899 -0.02811,-0.2251 -0.04102,-0.32007 -0.03186,-0.23511 -0.02463,-0.43588 -0.02463,-0.43588 0,-0.46313 -0.13147,-0.86801 -0.33206,-1.20694 -0.20041,-0.33856 -0.45676,-0.60587 -0.76859,-0.80188 -0.31202,-0.19601 -0.67731,-0.33417 -1.09607,-0.41437 -0.41894,-0.0802 -0.90903,-0.12039 -1.47033,-0.12039 -0.56158,0 -1.05405,0.007 -1.47711,0.0201 -0.42334,0.0133 -0.81326,0.0424 -1.16977,0.0869 -0.05338,0.0268 -0.08231,0.0781 -0.0867,0.15363 -0.0046,0.0758 0.0152,0.13605 0.06015,0.18054 l 0.48111,0.0535 c 0.15143,0.0179 0.26935,0.0468 0.35431,0.0869 0.0845,0.0399 0.14703,0.11349 0.18713,0.22046 0.0401,0.10699 0.06454,0.24954 0.07351,0.4278 0.0088,0.17825 0.01336,0.40997 0.01336,0.69507 v 4.93259 c 0,0.34735 -0.0046,0.62607 -0.01336,0.83533 -0.009,0.20956 -0.04019,0.37216 -0.09366,0.48792 -0.05347,0.11578 -0.13366,0.19601 -0.24051,0.24057 -0.10703,0.0447 -0.25864,0.0802 -0.45456,0.10696 l -0.28079,0.0401 c -0.04065,0.0406 -0.05878,0.0962 -0.05484,0.16629 -3.7e-4,0.14307 -0.002,0.18848 -0.005,0.34964 -0.0032,0.18457 -0.01172,0.39081 -0.02527,0.61905 0.01355,0.0336 0.052,0.0536 0.11591,0.0605 0.06363,0.007 0.10904,-0.007 0.13595,-0.0403 l 0.03012,-0.21155 c 0.02024,-0.14761 0.04696,-0.26166 0.08057,-0.34204 0.0336,-0.0806 0.09393,-0.14093 0.18127,-0.18127 0.08707,-0.0403 0.20956,-0.064 0.3674,-0.0707 0.15766,-0.007 0.3674,-0.01 0.62924,-0.01 h 1.26837 c 0.05365,0 0.09567,0.003 0.12598,0.01 0.03003,0.007 0.05182,0.0254 0.06528,0.0556 0.01336,0.0301 0.02179,0.0771 0.02536,0.14075 0.0031,0.0638 0.005,0.15259 0.005,0.26678 0,0.20148 -0.02527,0.35245 -0.07553,0.45309 -0.05035,0.10068 -0.13248,0.18793 -0.24673,0.26184 -0.11417,0.0806 -0.24005,0.16434 -0.37738,0.25165 -0.13788,0.0871 -0.27539,0.17435 -0.4129,0.26166 -0.13751,0.0872 -0.27008,0.1712 -0.39761,0.25177 -0.12753,0.0804 -0.23831,0.1543 -0.33224,0.22137 -0.25516,0.18121 -0.4649,0.35068 -0.62924,0.50851 -0.16434,0.15765 -0.29352,0.31711 -0.38745,0.47809 -0.09421,0.16101 -0.15939,0.33047 -0.19638,0.50836 -0.0368,0.17792 -0.0553,0.37411 -0.0553,0.58896 0,0.19464 0.01675,0.34244 0.05017,0.44293 0.02024,0.0269 0.04541,0.0387 0.07562,0.0353 0.03012,-0.004 0.05201,-0.0186 0.06555,-0.0453 0.01318,-0.13428 0.04522,-0.26166 0.09549,-0.38239 0.05035,-0.12085 0.11234,-0.22504 0.18631,-0.31213 0.14099,-0.17456 0.30029,-0.3389 0.47809,-0.49338 0.1778,-0.15433 0.37418,-0.31201 0.58905,-0.47321 0.2146,-0.16098 0.4563,-0.32712 0.72473,-0.49814 0.26843,-0.1712 0.56378,-0.35754 0.88605,-0.55887 0.04028,-0.0269 0.08194,-0.0487 0.12579,-0.0654 0.0434,-0.017 0.08221,-0.0118 0.11573,0.0151 0.04688,0.12741 0.11737,0.26346 0.2113,0.40775 0.09402,0.14429 0.20984,0.28027 0.34735,0.40787 0.13769,0.12738 0.29864,0.23294 0.48322,0.31708 0.18457,0.0838 0.3977,0.12579 0.63931,0.12579 0.35587,0 0.64774,-0.079 0.87598,-0.23666 0.22806,-0.15765 0.40594,-0.35736 0.53347,-0.59897 0.12744,-0.23492 0.20984,-0.495 0.24673,-0.78003 0.03671,-0.28543 0.05667,-0.58582 0.05521,-0.90131 -0.0024,-0.58456 0.10281,-0.95654 0.10281,-0.95654 0.03955,-0.1098 0.07901,-0.22699 0.11874,-0.35193 0.03955,-0.12491 0.07617,-0.24686 0.10986,-0.36584 0.03333,-0.11874 0.05923,-0.2178 0.07773,-0.29718 -0.01849,-0.0424 -0.05356,-0.0698 -0.10519,-0.0822 -0.05199,-0.0121 -0.09291,-0.006 -0.12358,0.0183 z m -3.8507,-0.0518 c 0,0.2439 -0.0032,0.43884 -0.0092,0.58511 -0.0062,0.14621 -0.02747,0.26059 -0.06409,0.34277 -0.013,0.0295 -0.02857,0.0556 -0.04633,0.0783 -3.7e-4,1.8e-4 -8.2e-4,5.5e-4 -0.0012,7.3e-4 -0.10648,-0.0204 -0.1962,-0.044 -0.26871,-0.0709 -0.1203,-0.0445 -0.20709,-0.12479 -0.26056,-0.24054 -0.05347,-0.11578 -0.08698,-0.27838 -0.10034,-0.48795 -0.01336,-0.20923 -0.02005,-0.48798 -0.02005,-0.83533 v -1.90338 l 0.47791,0.93118 c 0.06693,0.12814 0.12021,0.23636 0.15995,0.32465 0.03955,0.0885 0.06848,0.17072 0.08679,0.24689 0.01831,0.0764 0.0304,0.15695 0.03662,0.24234 0.0059,0.0853 0.0092,0.19193 0.0092,0.31989 z m 0.02747,-2.52328 c -0.17075,-0.34753 -0.34149,-0.69174 -0.51215,-1.03326 -0.01227,-0.0243 -0.03342,-0.0698 -0.06391,-0.13712 -0.03058,-0.0668 -0.06263,-0.13846 -0.09595,-0.21481 -0.03369,-0.0762 -0.06271,-0.14764 -0.08698,-0.21487 -0.02453,-0.067 -0.03643,-0.11279 -0.03643,-0.13705 0,-0.0366 0.02417,-0.0655 0.07306,-0.0869 0.04871,-0.0213 0.15235,-0.0472 0.31091,-0.0776 l 0.11875,-0.0183 c 0.03049,-0.0305 0.04422,-0.0732 0.0412,-0.12808 -0.0032,-0.0548 -0.02609,-0.0883 -0.06848,-0.10049 -0.12983,0.0102 -0.28904,0.0176 -0.47791,0.022 v -1.93982 c 0,-0.10696 0.0044,-0.19162 0.01336,-0.25409 0.0089,-0.0621 0.03562,-0.11121 0.0803,-0.14691 0.0445,-0.0355 0.11554,-0.0579 0.21377,-0.0669 0.09806,-0.009 0.23611,-0.0133 0.41437,-0.0133 0.69507,0 1.22754,0.19373 1.59741,0.58136 0.36969,0.38766 0.55481,0.90692 0.55481,1.5575 0,0.0615 -0.01291,0.1944 -0.02096,0.28555 -0.05118,-7e-4 -0.10236,-0.002 -0.15362,-0.002 -0.14026,-0.003 -0.29261,-0.0107 -0.45713,-0.0229 -0.03662,0.0183 -0.0563,0.0532 -0.05941,0.10507 -0.0031,0.0519 0.01044,0.093 0.04129,0.1235 l 0.16434,0.0183 c 0.10986,0.0122 0.20114,0.032 0.27429,0.0592 0.07325,0.0275 0.10986,0.0565 0.10986,0.0869 0,0.0304 -0.01831,0.0869 -0.05493,0.1691 -0.03662,0.0823 -0.08533,0.1814 -0.14621,0.29703 -0.06107,0.11597 -0.12671,0.2395 -0.19656,0.37039 -0.07013,0.1311 -0.13586,0.25464 -0.19666,0.37024 -0.14026,0.26834 -0.28336,0.53177 -0.42975,0.79077 -0.1463,0.25919 -0.28949,0.51065 -0.42956,0.75436 -0.17697,-0.31693 -0.35065,-0.64911 -0.52111,-0.99646 z m 3.20809,5.29577 c -0.08569,0.1976 -0.19931,0.36072 -0.34103,0.4892 -0.14182,0.12845 -0.30304,0.22382 -0.48422,0.28662 -0.18137,0.0627 -0.37069,0.0938 -0.56836,0.0938 -0.33609,0 -0.59793,-0.0493 -0.78561,-0.14813 -0.18787,-0.0989 -0.33453,-0.21417 -0.43982,-0.34598 -0.11224,-0.14496 -0.18293,-0.30634 -0.21259,-0.48422 -0.02966,-0.17792 -0.0445,-0.3558 -0.0445,-0.53369 0,-0.25058 0.0051,-0.4234 0.01484,-0.51892 0.01,-0.0957 0.02124,-0.14993 0.0346,-0.16312 0.02618,-0.0199 0.13495,-0.0295 0.32611,-0.0295 h 2.3128 c 0.06583,0 0.12021,0.005 0.16315,0.0148 0.04257,0.01 0.07562,0.0361 0.09869,0.079 0.02307,0.0428 0.03791,0.10696 0.0445,0.19266 0.0066,0.0857 0.01007,0.20428 0.01007,0.35577 0,0.27679 -0.04311,0.51416 -0.12863,0.71176 z"
   style="fill:#252626" />
	</g>
	<g
   id="g111">
		<g
   id="g84">
			
				<linearGradient
   id="SVGID_1_"
   gradientUnits="userSpaceOnUse"
   x1="301.4379"
   y1="-4056.5405"
   x2="314.4379"
   y2="-4056.5405"
   gradientTransform="rotate(90,-1874.5869,-2175.9539)">
				<stop
   offset="0.00559"
   style="stop-color:#303030"
   id="stop61" />
				<stop
   offset="1"
   style="stop-color:#222222"
   id="stop63" />
			</linearGradient>
			<circle
   cx="5.9998498"
   cy="5.1490998"
   r="5.0781698"
   id="circle66"
   style="fill:url(#SVGID_1_)" />
			
				<linearGradient
   id="SVGID_2_"
   gradientUnits="userSpaceOnUse"
   x1="301.97504"
   y1="-4056.5405"
   x2="313.59891"
   y2="-4056.5405"
   gradientTransform="rotate(90,-1874.5869,-2175.9539)">
				<stop
   offset="0.01118"
   style="stop-color:#636363"
   id="stop68" />
				<stop
   offset="1"
   style="stop-color:#2B2B2B"
   id="stop70" />
			</linearGradient>
			<circle
   cx="5.9998498"
   cy="5.1486802"
   r="4.5406199"
   id="circle73"
   style="fill:url(#SVGID_2_)" />
			
				<linearGradient
   id="SVGID_3_"
   gradientUnits="userSpaceOnUse"
   x1="302.32431"
   y1="-4056.5405"
   x2="313.05405"
   y2="-4056.5405"
   gradientTransform="rotate(90,-1874.5869,-2175.9539)">
				<stop
   offset="0.01118"
   style="stop-color:#4C4C4C"
   id="stop75" />
				<stop
   offset="1"
   style="stop-color:#3B3B3B"
   id="stop77" />
			</linearGradient>
			<circle
   cx="5.9998498"
   cy="5.1486802"
   r="4.19134"
   id="circle80"
   style="fill:url(#SVGID_3_)" />
			<path
   d="M 8.70994,4.61045 7.17586,4.42665 C 6.94036,4.39844 6.75475,4.21275 6.72663,3.97724 L 6.54359,2.44419 C 6.53562,2.37737 6.47894,2.32706 6.41164,2.32706 H 5.58809 c -0.06729,0 -0.12396,0.0503 -0.13195,0.11711 L 5.27267,3.97808 C 5.24449,4.21362 5.05878,4.39929 4.82324,4.42741 L 3.28982,4.61049 C 3.22299,4.61847 3.17268,4.67514 3.17268,4.74244 v 0.8236 c 0,0.06729 0.0503,0.12396 0.11711,0.13195 l 1.5336,0.18344 C 5.05888,5.9096 5.24453,6.09524 5.2727,6.33074 L 5.45613,7.86429 C 5.46413,7.93111 5.5208,7.9814 5.58809,7.9814 h 0.8236 c 0.06728,0 0.12394,-0.05028 0.13195,-0.11708 L 6.7274,6.33057 C 6.75561,6.09511 6.94125,5.90951 7.17671,5.88135 L 8.70992,5.69799 C 8.77673,5.69 8.82703,5.63333 8.82703,5.56604 V 4.74239 c 0,-0.06728 -0.05029,-0.12394 -0.11709,-0.13194 z"
   id="path82"
   inkscape:connector-curvature="0"
   style="fill:#171717" />
		</g>
		<g
   id="g109">
			
				<linearGradient
   id="SVGID_4_"
   gradientUnits="userSpaceOnUse"
   x1="575.94025"
   y1="-4056.5405"
   x2="588.94025"
   y2="-4056.5405"
   gradientTransform="rotate(90,-1874.5869,-2175.9539)">
				<stop
   offset="0.00559"
   style="stop-color:#303030"
   id="stop86" />
				<stop
   offset="1"
   style="stop-color:#222222"
   id="stop88" />
			</linearGradient>
			<circle
   cx="5.9998498"
   cy="279.65143"
   r="5.0781698"
   id="circle91"
   style="fill:url(#SVGID_4_)" />
			
				<linearGradient
   id="SVGID_5_"
   gradientUnits="userSpaceOnUse"
   x1="576.47736"
   y1="-4056.5405"
   x2="588.10126"
   y2="-4056.5405"
   gradientTransform="rotate(90,-1874.5869,-2175.9539)">
				<stop
   offset="0.01118"
   style="stop-color:#636363"
   id="stop93" />
				<stop
   offset="1"
   style="stop-color:#2B2B2B"
   id="stop95" />
			</linearGradient>
			<circle
   cx="5.9998498"
   cy="279.65103"
   r="4.5406199"
   id="circle98"
   style="fill:url(#SVGID_5_)" />
			
				<linearGradient
   id="SVGID_6_"
   gradientUnits="userSpaceOnUse"
   x1="576.82666"
   y1="-4056.5405"
   x2="587.5564"
   y2="-4056.5405"
   gradientTransform="rotate(90,-1874.5869,-2175.9539)">
				<stop
   offset="0.01118"
   style="stop-color:#4C4C4C"
   id="stop100" />
				<stop
   offset="1"
   style="stop-color:#3B3B3B"
   id="stop102" />
			</linearGradient>
			<circle
   cx="5.9998498"
   cy="279.65103"
   r="4.19134"
   id="circle105"
   style="fill:url(#SVGID_6_)" />
			<path
   d="m 8.70994,279.11279 -1.53408,-0.18381 c -0.2355,-0.0282 -0.42111,-0.2139 -0.44923,-0.4494 L 6.54359,276.94653 C 6.53561,276.8797 6.47894,276.82937 6.41164,276.82937 H 5.58809 c -0.06729,0 -0.12396,0.0503 -0.13195,0.11713 l -0.18347,1.53391 c -0.02817,0.23557 -0.21388,0.42123 -0.44943,0.44934 l -1.53342,0.18307 c -0.06683,0.008 -0.11714,0.0647 -0.11714,0.13196 v 0.82361 c 0,0.0673 0.0503,0.12393 0.11711,0.13193 l 1.5336,0.18344 c 0.2355,0.0282 0.42115,0.21381 0.44932,0.44931 l 0.18343,1.53357 c 0.00799,0.0668 0.06466,0.1171 0.13195,0.1171 h 0.8236 c 0.06728,0 0.12394,-0.0503 0.13195,-0.11707 l 0.18376,-1.53375 c 0.02821,-0.23547 0.21385,-0.42108 0.44931,-0.44922 l 1.53321,-0.18338 c 0.06681,-0.008 0.11711,-0.0647 0.11711,-0.13196 v -0.82364 c 0,-0.0673 -0.05029,-0.12393 -0.11709,-0.13193 z"
   id="path107"
   inkscape:connector-curvature="0"
   style="fill:#171717" />
		</g>
	</g>
	<g
   id="g163">
		<g
   id="g136">
			
				<linearGradient
   id="SVGID_7_"
   gradientUnits="userSpaceOnUse"
   x1="301.4379"
   y1="-4122.8555"
   x2="314.4379"
   y2="-4122.8555"
   gradientTransform="rotate(90,-1874.5869,-2175.9539)">
				<stop
   offset="0.00559"
   style="stop-color:#303030"
   id="stop113" />
				<stop
   offset="1"
   style="stop-color:#222222"
   id="stop115" />
			</linearGradient>
			<circle
   cx="72.314789"
   cy="5.1490998"
   r="5.0781698"
   id="circle118"
   style="fill:url(#SVGID_7_)" />
			
				<linearGradient
   id="SVGID_8_"
   gradientUnits="userSpaceOnUse"
   x1="301.97504"
   y1="-4122.8555"
   x2="313.59891"
   y2="-4122.8555"
   gradientTransform="rotate(90,-1874.5869,-2175.9539)">
				<stop
   offset="0.01118"
   style="stop-color:#636363"
   id="stop120" />
				<stop
   offset="1"
   style="stop-color:#2B2B2B"
   id="stop122" />
			</linearGradient>
			<circle
   cx="72.314789"
   cy="5.1486802"
   r="4.5406199"
   id="circle125"
   style="fill:url(#SVGID_8_)" />
			
				<linearGradient
   id="SVGID_9_"
   gradientUnits="userSpaceOnUse"
   x1="302.32431"
   y1="-4122.8555"
   x2="313.05405"
   y2="-4122.8555"
   gradientTransform="rotate(90,-1874.5869,-2175.9539)">
				<stop
   offset="0.01118"
   style="stop-color:#4C4C4C"
   id="stop127" />
				<stop
   offset="1"
   style="stop-color:#3B3B3B"
   id="stop129" />
			</linearGradient>
			<circle
   cx="72.314789"
   cy="5.1486802"
   r="4.19134"
   id="circle132"
   style="fill:url(#SVGID_9_)" />
			<path
   d="M 75.02488,4.61045 73.4908,4.42665 C 73.2553,4.39844 73.06969,4.21275 73.04157,3.97724 L 72.85853,2.4442 C 72.85056,2.37738 72.79388,2.32706 72.72658,2.32706 h -0.82355 c -0.06729,0 -0.12395,0.0503 -0.13195,0.11711 L 71.5876,3.97808 c -0.02818,0.23554 -0.21388,0.42121 -0.44942,0.44933 l -1.53342,0.18307 c -0.06683,0.00798 -0.11713,0.06465 -0.11713,0.13195 v 0.8236 c 0,0.06729 0.05029,0.12396 0.1171,0.13195 l 1.5336,0.18344 c 0.2355,0.02817 0.42115,0.21382 0.44932,0.44932 l 0.18343,1.53355 c 0.008,0.06681 0.06466,0.11711 0.13195,0.11711 h 0.8236 c 0.06728,0 0.12395,-0.05028 0.13195,-0.11708 l 0.18376,-1.53375 c 0.02821,-0.23546 0.21384,-0.42106 0.44931,-0.44922 l 1.5332,-0.18336 C 75.09167,5.69 75.14196,5.63333 75.14196,5.56604 V 4.74239 c 0,-0.06728 -0.05028,-0.12394 -0.11708,-0.13194 z"
   id="path134"
   inkscape:connector-curvature="0"
   style="fill:#171717" />
		</g>
		<g
   id="g161">
			
				<linearGradient
   id="SVGID_10_"
   gradientUnits="userSpaceOnUse"
   x1="575.94025"
   y1="-4122.8555"
   x2="588.94025"
   y2="-4122.8555"
   gradientTransform="rotate(90,-1874.5869,-2175.9539)">
				<stop
   offset="0.00559"
   style="stop-color:#303030"
   id="stop138" />
				<stop
   offset="1"
   style="stop-color:#222222"
   id="stop140" />
			</linearGradient>
			<circle
   cx="72.314789"
   cy="279.65143"
   r="5.0781698"
   id="circle143"
   style="fill:url(#SVGID_10_)" />
			
				<linearGradient
   id="SVGID_11_"
   gradientUnits="userSpaceOnUse"
   x1="576.47736"
   y1="-4122.8555"
   x2="588.10126"
   y2="-4122.8555"
   gradientTransform="rotate(90,-1874.5869,-2175.9539)">
				<stop
   offset="0.01118"
   style="stop-color:#636363"
   id="stop145" />
				<stop
   offset="1"
   style="stop-color:#2B2B2B"
   id="stop147" />
			</linearGradient>
			<circle
   cx="72.314789"
   cy="279.65103"
   r="4.5406199"
   id="circle150"
   style="fill:url(#SVGID_11_)" />
			
				<linearGradient
   id="SVGID_12_"
   gradientUnits="userSpaceOnUse"
   x1="576.82666"
   y1="-4122.8555"
   x2="587.5564"
   y2="-4122.8555"
   gradientTransform="rotate(90,-1874.5869,-2175.9539)">
				<stop
   offset="0.01118"
   style="stop-color:#4C4C4C"
   id="stop152" />
				<stop
   offset="1"
   style="stop-color:#3B3B3B"
   id="stop154" />
			</linearGradient>
			<circle
   cx="72.314789"
   cy="279.65103"
   r="4.19134"
   id="circle157"
   style="fill:url(#SVGID_12_)" />
			<path
   d="m 75.02488,279.11279 -1.53408,-0.18381 c -0.2355,-0.0282 -0.42111,-0.2139 -0.44923,-0.4494 l -0.18304,-1.53305 c -0.008,-0.0668 -0.06465,-0.11716 -0.13195,-0.11716 h -0.82355 c -0.06729,0 -0.12395,0.0503 -0.13195,0.11713 l -0.18347,1.53391 c -0.02818,0.23557 -0.21388,0.42123 -0.44942,0.44934 l -1.53342,0.18307 c -0.06683,0.008 -0.11713,0.0647 -0.11713,0.13196 v 0.82361 c 0,0.0673 0.05029,0.12393 0.1171,0.13193 l 1.5336,0.18344 c 0.2355,0.0282 0.42115,0.21381 0.44932,0.44931 l 0.18343,1.53357 c 0.008,0.0668 0.06466,0.1171 0.13195,0.1171 h 0.8236 c 0.06728,0 0.12395,-0.0503 0.13195,-0.11707 l 0.18376,-1.53375 c 0.02821,-0.23547 0.21384,-0.42108 0.44931,-0.44922 l 1.5332,-0.18338 c 0.06682,-0.008 0.11711,-0.0647 0.11711,-0.13196 v -0.82364 c -1e-5,-0.0673 -0.05029,-0.12393 -0.11709,-0.13193 z"
   id="path159"
   inkscape:connector-curvature="0"
   style="fill:#171717" />
		</g>
	</g>
</g>
<g
   id="serigraphy"
   transform="matrix(1.333334,0,0,1.333334,1.4666674e-4,-0.09457338)">
	<g
   id="g282">
		<g
   id="g168">
			<path
   id="path166"
   inkscape:connector-curvature="0"
   d="m 12.59754,15.88171 h 0.40796 v 0.85108 h 0.01391 c 0.22558,-0.58374 0.71777,-0.92871 1.37256,-0.90088 v 0.44385 c -0.80273,-0.04248 -1.35132,0.54859 -1.35132,1.30151 v 1.93579 h -0.44312 z"
   style="fill:#e5e5e5" />
		</g>
		<g
   id="g172">
			<path
   id="path170"
   inkscape:connector-curvature="0"
   d="m 14.8219,14.48792 h 0.44385 v 0.71045 H 14.8219 Z m 0,1.39379 h 0.44385 v 3.63135 H 14.8219 Z"
   style="fill:#e5e5e5" />
		</g>
		<g
   id="g176">
			<path
   id="path174"
   inkscape:connector-curvature="0"
   d="m 16.11096,15.88171 h 0.44312 v 0.62622 h 0.01465 c 0.16187,-0.43652 0.64746,-0.73242 1.16089,-0.73242 1.02026,0 1.33008,0.5354 1.33008,1.40112 v 2.33642 h -0.44312 v -2.26611 c 0,-0.62622 -0.20435,-1.0979 -0.92212,-1.0979 -0.70386,0 -1.12573,0.53467 -1.14038,1.24585 v 2.11816 h -0.44312 c 0,0 0,-3.63134 0,-3.63134 z"
   style="fill:#e5e5e5" />
		</g>
		<g
   id="g180">
			<path
   id="path178"
   inkscape:connector-curvature="0"
   d="m 22.96789,19.21716 c -0.0066,1.08398 -0.42188,1.7461 -1.61133,1.7461 -0.7251,0 -1.44287,-0.32373 -1.50659,-1.09863 h 0.44385 c 0.09814,0.5354 0.56983,0.7251 1.06274,0.7251 0.81592,0 1.16821,-0.48559 1.16821,-1.37256 v -0.49219 h -0.01391 c -0.20435,0.44312 -0.63355,0.7456 -1.15429,0.7456 -1.16162,0 -1.63989,-0.83056 -1.63989,-1.86475 0,-0.99976 0.59107,-1.83032 1.63989,-1.83032 0.52735,0 0.97778,0.33106 1.15429,0.73242 h 0.01391 v -0.62622 h 0.44312 z M 22.52477,17.6549 c 0,-0.71045 -0.33106,-1.50586 -1.16821,-1.50586 -0.84449,0 -1.19678,0.75293 -1.19678,1.50586 0,0.73169 0.38013,1.44287 1.19678,1.44287 0.76685,0 1.16821,-0.70385 1.16821,-1.44287 z"
   style="fill:#e5e5e5" />
		</g>
		<g
   id="g184">
			<path
   id="path182"
   inkscape:connector-curvature="0"
   d="m 23.81457,15.88171 h 0.40796 v 0.61231 h 0.02124 c 0.23218,-0.43652 0.61231,-0.71851 1.18946,-0.71851 0.47828,0 0.90747,0.23291 1.0415,0.71118 0.21827,-0.47827 0.67529,-0.71118 1.15429,-0.71118 0.79541,0 1.20337,0.41528 1.20337,1.27442 v 2.46313 h -0.44311 v -2.44189 c 0,-0.59839 -0.22559,-0.92212 -0.85913,-0.92212 -0.76684,0 -0.98511,0.63355 -0.98511,1.30884 v 2.05517 h -0.44312 v -2.46313 c 0.0066,-0.49292 -0.19702,-0.90088 -0.76025,-0.90088 -0.76758,0 -1.07666,0.57715 -1.08398,1.33667 v 2.02735 h -0.44312 c 0,0 0,-3.63136 0,-3.63136 z"
   style="fill:#e5e5e5" />
		</g>
		<g
   id="g188">
			<path
   id="path186"
   inkscape:connector-curvature="0"
   d="m 32.93102,17.69738 c 0,1.0415 -0.60498,1.92114 -1.71753,1.92114 -1.11181,0 -1.71679,-0.87964 -1.71679,-1.92114 0,-1.0415 0.60498,-1.92187 1.71679,-1.92187 1.11255,0 1.71753,0.88037 1.71753,1.92187 z m -2.99121,0 c 0,0.77417 0.42261,1.54834 1.27368,1.54834 0.8518,0 1.27441,-0.77417 1.27441,-1.54834 0,-0.77417 -0.42261,-1.54834 -1.27441,-1.54834 -0.85107,10e-6 -1.27368,0.77418 -1.27368,1.54834 z"
   style="fill:#e5e5e5" />
		</g>
		<g
   id="g192">
			<path
   id="path190"
   inkscape:connector-curvature="0"
   d="m 36.78941,19.51306 h -0.40796 v -0.68994 h -0.01392 c -0.19043,0.47168 -0.76758,0.79541 -1.29492,0.79541 -1.10522,0 -1.6333,-0.89356 -1.6333,-1.92114 0,-1.02758 0.52808,-1.92187 1.6333,-1.92187 0.54126,0 1.06934,0.27466 1.25977,0.79541 h 0.01391 v -2.083 h 0.44312 c 1e-5,0 1e-5,5.02513 0,5.02513 z m -1.71679,-0.26733 c 0.94263,0 1.27368,-0.79541 1.27368,-1.54834 0,-0.75293 -0.33105,-1.54834 -1.27368,-1.54834 -0.84521,0 -1.18945,0.79541 -1.18945,1.54834 0,0.75293 0.34424,1.54834 1.18945,1.54834 z"
   style="fill:#e5e5e5" />
		</g>
		<g
   id="g196">
			<path
   id="path194"
   inkscape:connector-curvature="0"
   d="m 42.84508,17.69738 c 0,1.0415 -0.60498,1.92114 -1.71753,1.92114 -1.11181,0 -1.71679,-0.87964 -1.71679,-1.92114 0,-1.0415 0.60498,-1.92187 1.71679,-1.92187 1.11255,0 1.71753,0.88037 1.71753,1.92187 z m -2.99121,0 c 0,0.77417 0.42261,1.54834 1.27368,1.54834 0.8518,0 1.27441,-0.77417 1.27441,-1.54834 0,-0.77417 -0.42261,-1.54834 -1.27441,-1.54834 -0.85108,10e-6 -1.27368,0.77418 -1.27368,1.54834 z"
   style="fill:#e5e5e5" />
		</g>
		<g
   id="g200">
			<path
   id="path198"
   inkscape:connector-curvature="0"
   d="m 45.68321,16.94446 c -0.02124,-0.54931 -0.44385,-0.79541 -0.94995,-0.79541 -0.39478,0 -0.85913,0.15454 -0.85913,0.62622 0,0.39404 0.45044,0.53467 0.75293,0.61231 l 0.59179,0.13403 c 0.50684,0.0769 1.03418,0.3728 1.03418,1.00635 0,0.78808 -0.78077,1.09057 -1.45678,1.09057 -0.84449,0 -1.42163,-0.39404 -1.49195,-1.28101 h 0.44312 c 0.03516,0.59839 0.479,0.9082 1.07007,0.9082 0.41528,0 0.99243,-0.18311 0.99243,-0.68994 0,-0.42188 -0.39404,-0.56323 -0.79541,-0.66138 l -0.56982,-0.12671 c -0.57715,-0.15527 -1.01367,-0.3523 -1.01367,-0.97119 0,-0.73901 0.7251,-1.021 1.36523,-1.021 0.7251,0 1.30225,0.38013 1.33008,1.16894 0,10e-6 -0.44312,10e-6 -0.44312,2e-5 z"
   style="fill:#e5e5e5" />
		</g>
		<g
   id="g204">
			<path
   id="path202"
   inkscape:connector-curvature="0"
   d="m 49.45665,17.02136 c -0.11938,-0.54199 -0.45044,-0.87232 -1.02759,-0.87232 -0.85108,0 -1.27368,0.77417 -1.27368,1.54834 0,0.77417 0.42261,1.54834 1.27368,1.54834 0.54932,0 0.99976,-0.4292 1.05615,-1.03491 h 0.44312 c -0.11938,0.87304 -0.68994,1.40771 -1.49927,1.40771 -1.11182,0 -1.71679,-0.87964 -1.71679,-1.92114 0,-1.0415 0.60498,-1.92187 1.71679,-1.92187 0.77417,0 1.37256,0.41528 1.47143,1.24585 z"
   style="fill:#e5e5e5" />
		</g>
		<g
   id="g208">
			<path
   id="path206"
   inkscape:connector-curvature="0"
   d="m 50.55674,14.48792 h 0.44385 v 0.71045 h -0.44385 z m 0,1.39379 h 0.44385 v 3.63135 h -0.44385 z"
   style="fill:#e5e5e5" />
		</g>
		<g
   id="g212">
			<path
   id="path210"
   inkscape:connector-curvature="0"
   d="m 51.85972,14.48792 h 0.44384 v 5.02515 h -0.44384 z"
   style="fill:#e5e5e5" />
		</g>
		<g
   id="g216">
			<path
   id="path214"
   inkscape:connector-curvature="0"
   d="m 53.1627,14.48792 h 0.44385 v 5.02515 H 53.1627 Z"
   style="fill:#e5e5e5" />
		</g>
		<g
   id="g220">
			<path
   id="path218"
   inkscape:connector-curvature="0"
   d="m 54.4166,16.99353 c 0.04248,-0.8518 0.64014,-1.21801 1.4707,-1.21801 0.64087,0 1.3374,0.19702 1.3374,1.16894 v 1.92847 c 0,0.16846 0.08422,0.26734 0.26074,0.26734 0.04907,0 0.10547,-0.01465 0.14062,-0.02857 v 0.37354 c -0.09888,0.0205 -0.1692,0.02783 -0.28858,0.02783 -0.45044,0 -0.52076,-0.25342 -0.52076,-0.63355 h -0.01465 c -0.30908,0.47168 -0.62622,0.73901 -1.32275,0.73901 -0.6687,0 -1.21802,-0.33106 -1.21802,-1.06274 0,-1.02026 0.99243,-1.05542 1.94971,-1.16821 0.36621,-0.04248 0.57056,-0.09155 0.57056,-0.49292 0,-0.59766 -0.42993,-0.74561 -0.95068,-0.74561 -0.54859,0 -0.95654,0.25342 -0.97119,0.84449 -2e-5,0 -0.44312,0 -0.44312,0 z m 2.36499,0.53467 h -0.01465 c -0.05566,0.10547 -0.25268,0.14062 -0.3728,0.16187 -0.75293,0.13403 -1.68896,0.12671 -1.68896,0.83789 0,0.44311 0.39404,0.71777 0.80933,0.71777 0.67529,0 1.27368,-0.4292 1.26709,-1.14038 V 17.5282 Z"
   style="fill:#e5e5e5" />
		</g>
		<g
   id="g224">
			<path
   id="path222"
   inkscape:connector-curvature="0"
   d="M 58.81699,15.88171 H 59.556 v 0.3728 h -0.73901 v 2.44922 c 0,0.28858 0.04248,0.45776 0.35962,0.47827 0.12672,0 0.25342,-0.0066 0.37939,-0.0205 v 0.37939 c -0.1333,0 -0.26001,0.01465 -0.39404,0.01465 -0.59107,0 -0.79468,-0.19702 -0.78809,-0.81665 v -2.48438 h -0.63355 v -0.3728 h 0.63354 V 14.7904 h 0.44312 c 0,10e-6 0,1.09131 10e-6,1.09131 z"
   style="fill:#e5e5e5" />
		</g>
		<g
   id="g228">
			<path
   id="path226"
   inkscape:connector-curvature="0"
   d="m 63.44956,17.69738 c 0,1.0415 -0.60498,1.92114 -1.71753,1.92114 -1.11182,0 -1.7168,-0.87964 -1.7168,-1.92114 0,-1.0415 0.60498,-1.92187 1.7168,-1.92187 1.11255,0 1.71753,0.88037 1.71753,1.92187 z m -2.99121,0 c 0,0.77417 0.42261,1.54834 1.27368,1.54834 0.85181,0 1.27441,-0.77417 1.27441,-1.54834 0,-0.77417 -0.4226,-1.54834 -1.27441,-1.54834 -0.85108,10e-6 -1.27368,0.77418 -1.27368,1.54834 z"
   style="fill:#e5e5e5" />
		</g>
		<g
   id="g232">
			<path
   id="path230"
   inkscape:connector-curvature="0"
   d="m 64.11314,15.88171 h 0.40797 v 0.85108 h 0.01391 c 0.22559,-0.58374 0.71777,-0.92871 1.37256,-0.90088 v 0.44385 c -0.80273,-0.04248 -1.35132,0.54859 -1.35132,1.30151 v 1.93579 h -0.44312 z"
   style="fill:#e5e5e5" />
		</g>
		<g
   id="g242">
			<g
   id="g236">
				<path
   id="path234"
   inkscape:connector-curvature="0"
   d="m 35.32457,125.08063 c -0.16479,-0.29956 -0.06006,-0.67456 0.23291,-0.84741 v 0 c 0.29956,-0.16479 0.68188,-0.0601 0.84741,0.24023 v 0 c 0.17212,0.29224 0.06738,0.67456 -0.23291,0.84009 v 0 c -0.09741,0.0593 -0.20215,0.082 -0.30762,0.082 v 0 c -0.21752,-1e-5 -0.42699,-0.11206 -0.53979,-0.31494 z m 1.6648,-0.84741 c -0.08936,-0.33032 0.11279,-0.66724 0.44312,-0.75732 v 0.008 c 0.33691,-0.0901 0.67456,0.11279 0.75732,0.44238 v 0 c 0.09009,0.33032 -0.11279,0.67529 -0.44238,0.75732 v 0 0 0 c -0.05273,0.0154 -0.10547,0.0227 -0.15747,0.0227 v 0 c -0.2776,1e-5 -0.53247,-0.18749 -0.60059,-0.47241 v -2e-4 z"
   style="fill:#e5e5e5" />
			</g>
			<g
   id="g240">
				<path
   id="path238"
   inkscape:connector-curvature="0"
   d="m 34.38707,126.52057 c -0.09009,0 -0.16479,-0.0146 -0.24023,-0.052 -0.07471,-0.03 -0.14209,-0.0754 -0.20215,-0.1355 -0.12012,-0.11206 -0.18017,-0.26953 -0.18017,-0.43506 0,-0.082 0.01538,-0.16479 0.04541,-0.2395 0.03003,-0.0754 0.07471,-0.14282 0.13477,-0.20288 0.05273,-0.0527 0.12012,-0.10474 0.20214,-0.13477 0.15015,-0.0601 0.323,-0.0601 0.47314,0 0.07471,0.03 0.14209,0.082 0.20215,0.13477 0.06006,0.0601 0.10474,0.12744 0.13477,0.20288 0.03003,0.0747 0.04541,0.15747 0.04541,0.2395 0,0.16553 -0.06006,0.323 -0.18017,0.43506 -0.12014,0.12012 -0.27761,0.1875 -0.43508,0.1875 z"
   style="fill:#e5e5e5" />
			</g>
		</g>
		<g
   id="g252">
			<g
   id="g246">
				<path
   id="path244"
   inkscape:connector-curvature="0"
   d="m 40.61192,137.95074 c -0.08204,-0.33765 0.12012,-0.67529 0.45044,-0.75732 v 0 0 0 c 0.32959,-0.0828 0.66723,0.11206 0.75732,0.44971 v 0 c 0.08276,0.33032 -0.12012,0.66724 -0.44971,0.75 v 0 c -0.05273,0.0154 -0.10547,0.0227 -0.15747,0.0227 v 0 c -0.27027,2e-5 -0.52515,-0.18748 -0.60059,-0.46509 v -2e-5 z m 1.78492,-0.54785 c -0.1648,-0.29956 -0.06738,-0.67456 0.23291,-0.83936 v 0 c 0,0 0,0 0,-0.008 v 0 c 0.30029,-0.16479 0.68262,-0.0601 0.84741,0.24023 v 0 c 0.17285,0.29224 0.06738,0.67529 -0.23218,0.84741 v 0 c -0.09814,0.0527 -0.20288,0.0754 -0.30762,0.0754 v 0 c -0.2102,0 -0.42773,-0.11279 -0.54052,-0.31566 z"
   style="fill:#e5e5e5" />
			</g>
			<g
   id="g250">
				<path
   id="path248"
   inkscape:connector-curvature="0"
   d="m 44.42198,136.60089 c -0.08203,0 -0.16479,-0.0154 -0.2395,-0.0455 -0.07544,-0.03 -0.14282,-0.082 -0.19556,-0.13477 -0.06006,-0.0601 -0.10474,-0.12744 -0.13477,-0.20215 -0.03003,-0.0754 -0.05273,-0.1582 -0.05273,-0.24023 0,-0.0828 0.02271,-0.16479 0.05273,-0.24023 0.03003,-0.0747 0.07471,-0.14209 0.13477,-0.19482 0.05273,-0.0601 0.12012,-0.10474 0.19556,-0.13477 0.23218,-0.0981 0.50977,-0.0381 0.68188,0.13477 0.05273,0.0527 0.09814,0.12012 0.13549,0.19482 0.03003,0.0754 0.04468,0.15747 0.04468,0.24023 0,0.082 -0.01465,0.16479 -0.04468,0.24023 -0.03003,0.0747 -0.07544,0.14209 -0.13549,0.20215 -0.11938,0.11281 -0.26953,0.18018 -0.44238,0.18018 z"
   style="fill:#e5e5e5" />
			</g>
		</g>
		<g
   id="g266">
			<g
   id="g256">
				<path
   id="path254"
   inkscape:connector-curvature="0"
   d="m 1.02748,18.23572 c -0.16552,0 -0.32299,-0.06006 -0.44311,-0.18017 -0.11206,-0.11206 -0.17944,-0.26954 -0.17944,-0.43506 0,-0.08204 0.01465,-0.1648 0.052,-0.23951 0.03003,-0.07544 0.07544,-0.14282 0.12744,-0.20288 0.17285,-0.17212 0.45043,-0.23218 0.68261,-0.13477 0.07544,0.03003 0.14282,0.07471 0.20288,0.13477 0.052,0.06006 0.09741,0.12744 0.13477,0.20288 0.03003,0.07471 0.04541,0.15747 0.04541,0.23951 0,0.16552 -0.06811,0.32299 -0.18017,0.43506 -0.06006,0.06006 -0.12744,0.10547 -0.20288,0.1355 -0.07472,0.03002 -0.15749,0.04467 -0.23951,0.04467 z"
   style="fill:#e5e5e5" />
			</g>
			<g
   id="g260">
				<path
   id="path258"
   inkscape:connector-curvature="0"
   d="m 4.03479,17.62048 c 0,-0.34497 0.28491,-0.62256 0.62256,-0.62256 v 0 c 0.34497,0 0.62256,0.27759 0.62256,0.62256 v 0 c 0,0.33765 -0.27759,0.61523 -0.62256,0.61523 v 0 c -0.33764,10e-6 -0.62256,-0.27758 -0.62256,-0.61523 z"
   style="fill:#e5e5e5" />
			</g>
			<g
   id="g264">
				<path
   id="path262"
   inkscape:connector-curvature="0"
   d="m 8.29456,18.23572 c -0.1648,0 -0.32227,-0.06006 -0.44238,-0.18017 C 7.79212,17.99549 7.74744,17.92811 7.71741,17.8534 7.68738,17.77796 7.672,17.70325 7.672,17.62049 c 0,-0.1648 0.06738,-0.32959 0.18017,-0.44238 0.06006,-0.06006 0.12744,-0.10474 0.20288,-0.13477 0.14941,-0.06006 0.32227,-0.06006 0.47241,0 0.07471,0.03003 0.14209,0.07471 0.20215,0.13477 0.12012,0.11279 0.18017,0.27759 0.18017,0.44238 0,0.08276 -0.01538,0.15747 -0.04541,0.23291 -0.03003,0.07471 -0.07471,0.14209 -0.13477,0.20215 -0.06006,0.06006 -0.12744,0.10547 -0.20215,0.1355 -0.07542,0.03002 -0.15013,0.04467 -0.23289,0.04467 z"
   style="fill:#e5e5e5" />
			</g>
		</g>
		<g
   id="g280">
			<g
   id="g270">
				<path
   id="path268"
   inkscape:connector-curvature="0"
   d="m 68.68491,18.23572 c -0.08276,0 -0.16553,-0.01465 -0.24023,-0.04468 -0.0747,-0.03003 -0.14281,-0.07544 -0.20214,-0.1355 -0.1128,-0.11206 -0.18018,-0.26954 -0.18018,-0.43507 0,-0.08204 0.01465,-0.1648 0.04468,-0.2395 0.03735,-0.07544 0.08276,-0.14282 0.1355,-0.20288 0.23218,-0.23218 0.65186,-0.23218 0.87744,0 0.11938,0.11279 0.17944,0.27759 0.17944,0.44238 0,0.16553 -0.06006,0.323 -0.17944,0.43506 -0.05273,0.06007 -0.12012,0.10548 -0.19556,0.13551 -0.07472,0.03003 -0.15748,0.04468 -0.23951,0.04468 z"
   style="fill:#e5e5e5" />
			</g>
			<g
   id="g274">
				<path
   id="path272"
   inkscape:connector-curvature="0"
   d="m 71.69223,17.62048 c 0,-0.34497 0.27759,-0.62256 0.62256,-0.62256 v 0 c 0.34497,0 0.62256,0.27759 0.62256,0.62256 v 0 c 0,0.33765 -0.27759,0.62256 -0.62256,0.62256 v 0 c -0.34497,0 -0.62256,-0.28491 -0.62256,-0.62256 z"
   style="fill:#e5e5e5" />
			</g>
			<g
   id="g278">
				<path
   id="path276"
   inkscape:connector-curvature="0"
   d="m 75.94468,18.24304 c -0.08276,0 -0.15747,-0.02198 -0.23218,-0.05201 -0.07545,-0.03003 -0.14282,-0.07544 -0.20288,-0.13549 -0.12012,-0.12012 -0.1875,-0.26954 -0.1875,-0.43506 0,-0.08204 0.02272,-0.1648 0.05272,-0.2395 0.03,-0.07544 0.0747,-0.14282 0.13477,-0.20288 0.17285,-0.17212 0.44971,-0.22485 0.67529,-0.13477 0.0747,0.03003 0.14209,0.07471 0.20215,0.13477 0.06007,0.06006 0.10548,0.12744 0.13477,0.20288 0.03,0.07471 0.04538,0.15747 0.04538,0.2395 0,0.16552 -0.06008,0.32299 -0.18018,0.43506 -0.06007,0.06006 -0.12744,0.10547 -0.20215,0.13549 -0.07545,0.03004 -0.15747,0.05201 -0.24023,0.05201 z"
   style="fill:#e5e5e5" />
			</g>
		</g>
	</g>
</g>
</svg>