<?xml version="1.0" encoding="utf-8"?>
<!-- Generator: Adobe Illustrator 23.0.3, SVG Export Plug-In . SVG Version: 6.00 Build 0)  -->
<svg version="1.0" id="Layer_1" xmlns="http://www.w3.org/2000/svg" xmlns:xlink="http://www.w3.org/1999/xlink" x="0px" y="0px"
	 viewBox="0 0 105 380" enable-background="new 0 0 105 380" xml:space="preserve">
<g id="bg">
	
		<linearGradient id="SVGID_1_" gradientUnits="userSpaceOnUse" x1="-66.62363" y1="480.22623" x2="171.21405" y2="718.0639" gradientTransform="matrix(1 0 0 1 0 -410)">
		<stop  offset="0.38537" style="stop-color:#FFCC9E"/>
		<stop  offset="0.62112" style="stop-color:#F1AD8C"/>
		<stop  offset="0.85662" style="stop-color:#E6947E"/>
		<stop  offset="1" style="stop-color:#E28B79"/>
	</linearGradient>
	<rect x="1.99996" y="1.60264" fill="url(#SVGID_1_)" width="100.59049" height="375.08487"/>
	<g>
		<path fill="#252626" d="M77.29883,58.59418l-10.96631-5.25024c-0.7312,1.72968-1.79297,3.35303-3.20264,4.76263
			c-0.2981,0.29816-0.61157,0.5708-0.92773,0.83862l15.09668,7.15326V58.59418z"/>
		<path fill="#252626" d="M86.26758,72.0083l-7.46875-3.53894v7.12714c2.8269,0.99774,5.3728,2.59113,7.46875,4.65125V72.0083z"/>
		<polygon fill="#252626" points="50.56836,74.12402 55.01172,74.12402 55.01172,72.52539 52.18555,72.52539 52.18555,71.26172 
			54.71289,71.26172 54.71289,69.6543 52.18555,69.6543 52.18555,69.08789 55.07617,69.08789 55.07617,67.50781 50.56836,67.50781 
					"/>
		<path fill="#252626" d="M41.91675,58.10657c-1.29382-1.29382-2.28491-2.77118-3.00708-4.34167l-6.57373,3.14697v7.06055
			l10.50171-5.02325C42.52271,58.68213,42.21387,58.40375,41.91675,58.10657z"/>
		<path fill="#252626" d="M83.33008,116.39984c1.89014-2.81378,2.9375-6.15198,2.9375-9.54437V82.44922
			c-2.00293-2.3194-4.56104-4.13654-7.46875-5.2569v6.45178c2.79834,2.84387,4.53125,6.73932,4.53125,11.03461V116.39984z"/>
		<path fill="#252626" d="M66.85059,51.92804l10.44824,5.0022V49.4209c0-0.80566-0.44824-1.53027-1.16895-1.8916l-9.35938-4.6864
			C67.73083,45.78955,67.76221,48.96924,66.85059,51.92804z"/>
		<path fill="#252626" d="M30.83594,57.62994l-6.38281,3.0556c-0.73145,0.34961-1.20313,1.09863-1.20313,1.9082v5.72467
			l7.58594-3.62854C30.83594,64.68987,30.83594,57.62994,30.83594,57.62994z"/>
		<path fill="#252626" d="M74.33105,123.13098c2.50317-0.75433,4.81677-2.12604,6.77539-4.04797
			c0.255-0.25024,0.48584-0.52069,0.72363-0.78534V94.67871c0-3.30145-1.13916-6.33618-3.03125-8.7547v20.97345
			c0,4.0625-1.73438,7.73792-4.46777,10.29492V123.13098z"/>
		<path fill="#252626" d="M37.85693,44.39343l-4.31787,2.06458c-0.73047,0.34863-1.20313,1.09766-1.20313,1.9082v6.88171
			l6.0144-2.87921C37.46875,49.79572,37.29956,47.03705,37.85693,44.39343z"/>
		<polygon fill="#252626" points="7.58496,296.63867 7.59668,295.83594 6.54004,296.22168 		"/>
		<polygon fill="#252626" points="6.98535,325.56348 8.09375,325.75684 7.94141,324.96973 		"/>
		<path fill="#252626" d="M8.47168,304.31152c-0.14258,0.0918-0.19043,0.28906-0.10156,0.42578l0.40137,0.625l0.52734-0.33887
			l-0.40137-0.62305C8.80469,304.25586,8.61523,304.21973,8.47168,304.31152z"/>
		<path fill="#252626" d="M28.80005,143.56244c0,3.2251-2.42493,5.87988-5.55005,6.25128v3.55145
			c2.73218,0.11548,5.30957,0.83569,7.58594,2.0589V66.3526L23.25,69.98114v67.33002
			C26.37512,137.68256,28.80005,140.33734,28.80005,143.56244z"/>
		<polygon fill="#252626" points="19.37402,363.01465 20.16797,363.12402 19.91406,362.02832 		"/>
		<path fill="#252626" d="M8.12012,315.09375l-0.33984,0.6582l0.55566,0.28711l0.33984-0.6582
			c0.07813-0.15234,0.01563-0.33398-0.13574-0.41309C8.38867,314.88965,8.19531,314.94727,8.12012,315.09375z"/>
		<path fill="#252626" d="M19.51563,140.1748v6.61621H21.125v-3.66113l1.375,1.88672
			c0.38086-0.53027,0.89063-1.21777,1.38477-1.88672v3.66113h1.59766v-6.61621h-1.43164L22.5,142.31152l-1.55273-2.13672H19.51563z"
			/>
		<path fill="#252626" d="M21.75,149.81372c-3.12512-0.3714-5.55005-3.02618-5.55005-6.25128s2.42493-5.87988,5.55005-6.25128
			V70.69861l-6.21191,2.97131c-0.73047,0.34863-1.20215,1.09766-1.20215,1.9082v79.76306
			c2.23462-1.16986,4.7489-1.8634,7.41406-1.97601V149.81372z"/>
		<polygon fill="#252626" points="97.34473,316.97266 96.21875,316.97852 96.50879,317.72656 		"/>
		<path fill="#252626" d="M31.29297,331.87109c-0.5625,0.53809-0.5957,1.41895-0.07422,1.96289
			c0.51953,0.5459,1.40137,0.55273,1.96387,0.01563l0.46582-0.44531l-1.88965-1.97754L31.29297,331.87109z"/>
		<path fill="#252626" d="M69.42773,125.30176c-4.4624-0.08374-8.53149-1.8385-11.64307-4.63879
			c0.66882,0.85345,1.38574,1.67731,2.19482,2.43567c3.56653,3.34357,8.05322,5.25891,12.85156,5.59808v-3.67908
			c-1.00879,0.18146-2.03491,0.28705-3.0752,0.28705C69.64648,125.30469,69.53711,125.30371,69.42773,125.30176z"/>
		<path fill="#252626" d="M97.69043,327.67578c0.16309,0.05078,0.34277-0.04102,0.3916-0.19727l0.2168-0.70898l-0.59766-0.18359
			l-0.21777,0.70898C97.43359,327.45703,97.52734,327.62695,97.69043,327.67578z"/>
		<path fill="#252626" d="M77.29883,82.31146v-5.63031c-1.65723-0.4809-3.40271-0.75244-5.21289-0.75244
			c-5.41431,0-10.2854,2.3205-13.71118,6.00293c2.59302-1.87866,5.7688-3,9.20825-3
			C71.24976,78.93164,74.61951,80.2019,77.29883,82.31146z"/>
		<path fill="#252626" d="M65.29883,120.81738c-2.771,0-5.40735-0.83771-7.64246-2.38245
			c2.95471,3.21344,7.14417,5.27972,11.79871,5.36682c1.14673,0.02344,2.2749-0.08374,3.37598-0.30029v-5.08136
			c-2.09045,1.46393-4.58984,2.34576-7.27734,2.39532C65.46875,120.81641,65.38379,120.81738,65.29883,120.81738z"/>
		<path fill="#252626" d="M90.7373,283.33398l-0.32031,0.53711l0.6377,0.37891c0.14648,0.08789,0.33203,0.03516,0.41895-0.10938
			c0.08789-0.14648,0.04199-0.34375-0.09863-0.42773L90.7373,283.33398z"/>
		<polygon fill="#252626" points="96.81543,290.51367 95.69336,290.60742 96.04102,291.33008 		"/>
		<path fill="#252626" d="M74.33105,115.02399c1.84009-2.1875,2.96777-5.03009,2.96777-8.12653V84.28802
			c-2.5481-2.38409-5.95947-3.85638-9.71582-3.85638c-4.2655,0-8.08911,1.89398-10.70239,4.87408
			c1.77966-1.18164,3.91089-1.87408,6.20239-1.87408c6.20215,0,11.24805,5.0459,11.24805,11.24707V115.02399z"/>
		<path fill="#252626" d="M92.33398,118.21509c1.90344-3.28137,3.01172-7.10797,3.01172-11.1897V77.64746
			c0-0.80957-0.47168-1.55762-1.20215-1.90723l-6.37598-3.02118v9.16827c2.85205,3.49011,4.56836,7.94299,4.56836,12.79138
			L92.33398,118.21509z"/>
		<path fill="#252626" d="M83.33008,126.69934c2.94592-1.44641,5.50903-3.58508,7.50366-6.2088l0.0022-25.81183
			c0-3.7821-1.13452-7.30005-3.06836-10.24884v22.4256c0,4.37811-1.60327,8.66986-4.4375,12.02472V126.69934z"/>
		<path fill="#252626" d="M83.33008,128.33545v8.97485c3.12793,0.36884,5.55566,3.02509,5.55566,6.25214
			s-2.42773,5.8833-5.55566,6.25214v3.55463c2.70044,0.12634,5.24805,0.8429,7.50073,2.05249l0.00269-32.57819
			C88.7439,125.17474,86.18994,127.04596,83.33008,128.33545z"/>
		<path fill="#252626" d="M76.28564,143.56244c0-3.22314,2.422-5.87646,5.54443-6.25043v-8.35522
			c-1.8938,0.6889-3.8999,1.13446-5.99219,1.26978c-0.50513,0.03302-1.00732,0.04944-1.50684,0.04956v17.67603v7.39136
			c2.2583-1.18311,4.80225-1.88062,7.49902-1.98242v-3.54822C78.70764,149.4389,76.28564,146.78558,76.28564,143.56244z"/>
		<path fill="#252626" d="M75.74023,128.73047c2.1366-0.13837,4.17896-0.61835,6.08984-1.37238v-6.91241
			c-2.17737,2.04004-4.7395,3.47357-7.49902,4.22845v4.07507C74.7998,128.74976,75.26721,128.76031,75.74023,128.73047z"/>
		<path fill="#252626" d="M86.26758,64.2207c0-0.80957-0.47168-1.55859-1.20215-1.9082l-6.2666-3.00018v7.49683l7.46875,3.53888
			V64.2207z"/>
		<path fill="#252626" d="M85.53809,145.29492l-1.27344-0.93848c-0.52051,0.6875-1.03125,0.92871-1.60742,0.92871
			c-1.03125,0-1.84961-0.81738-1.84961-1.84863c0-1.02246,0.81836-1.84961,1.84961-1.84961
			c0.57617,0,1.10547,0.2793,1.62598,0.97559l1.29199-0.94727c-0.82715-1.10645-1.82129-1.61719-2.91797-1.61719
			c-1.89551,0-3.44727,1.54297-3.44727,3.43848s1.55176,3.44727,3.44727,3.44727
			C83.73535,146.88379,84.71094,146.40039,85.53809,145.29492z"/>
		<path fill="#252626" d="M43.19141,134.41406c0.55566-0.56836,0.54688-1.4873-0.02734-2.04785
			c-0.57715-0.56543-1.49609-0.55469-2.05273,0.01465c-0.55664,0.56836-0.5459,1.48633,0.03125,2.05176
			C41.71582,134.99316,42.63477,134.98242,43.19141,134.41406z"/>
		<path fill="#252626" d="M74.2666,358.72754l-1.53809,2.25684l0.53125,0.36133c0.6416,0.4375,1.50781,0.28613,1.93164-0.33496
			c0.42383-0.62207,0.24805-1.4834-0.39355-1.9209L74.2666,358.72754z"/>
		<path fill="#252626" d="M82.23828,361.56348c-0.79395-0.04492-1.47949,0.56738-1.52441,1.37402
			c-0.04492,0.80078,0.56836,1.48633,1.3623,1.53125c0.79395,0.04297,1.47852-0.56934,1.52344-1.36914
			C83.64551,362.29297,83.0332,361.6084,82.23828,361.56348z"/>
		<path fill="#252626" d="M54.6416,311.69141c-0.03516-0.80469-0.71289-1.42383-1.50781-1.38867
			c-0.79395,0.03516-1.41309,0.71094-1.37695,1.51953c0.03516,0.79883,0.71191,1.41797,1.50684,1.38281
			C54.05762,313.16992,54.67676,312.49219,54.6416,311.69141z"/>
		<polygon fill="#252626" points="71.94238,333.10938 72.97559,332.66797 72.41797,332.0918 		"/>
		<path fill="#252626" d="M69.39648,327.61719c-0.68066,0.32129-0.9668,1.15332-0.63574,1.85645l0.27441,0.58203l2.47168-1.16309
			l-0.27344-0.58203C70.90234,327.60742,70.07813,327.29688,69.39648,327.61719z"/>
		<polygon fill="#252626" points="36.20117,324.38086 36.0791,325.17383 37.17773,324.9375 		"/>
		<path fill="#252626" d="M68.95313,351.04492c0.16699-0.03418,0.28125-0.20117,0.24805-0.36133l-0.15039-0.72559l-0.61133,0.12695
			l0.14941,0.72461C68.62305,350.97656,68.78711,351.0791,68.95313,351.04492z"/>
		<path fill="#252626" d="M68.45508,322.98535c-0.74902,0.08496-1.28711,0.7832-1.19922,1.55566l0.07422,0.64063l2.7168-0.31152
			l-0.07324-0.63965C69.88574,323.45801,69.2041,322.89941,68.45508,322.98535z"/>
		<path fill="#252626" d="M0,0v380h105V0H0z M100.60938,345.67773l-3.49219,0.45215l0.13672,1.05371l-0.79492,0.10254
			l-0.37695-2.91309l0.79492-0.10352l0.13574,1.05371l3.49121-0.45117L100.60938,345.67773z M84.16113,238.09766
			c-0.45508-0.05176-0.78125-0.46289-0.72949-0.91699c0.05176-0.45508,0.46484-0.79004,0.91699-0.72949
			c8.9209,1.01953,15.64844,8.56348,15.64844,17.54883c0,3.41406-0.97461,6.72656-2.81934,9.58008
			c-0.1582,0.24512-0.4248,0.37793-0.69629,0.37793c-0.1543,0-0.30957-0.04297-0.44922-0.13281
			c-0.38379-0.24805-0.49414-0.76074-0.24512-1.14551c1.66992-2.58398,2.55371-5.58496,2.55371-8.67969
			C98.34082,245.85742,92.24414,239.02148,84.16113,238.09766z M68.74902,262.50098c0.24316,0.3877,0.12598,0.89844-0.26172,1.14258
			c-0.13672,0.08496-0.28906,0.12598-0.43945,0.12598c-0.27539,0-0.54492-0.13672-0.70313-0.3877
			c-1.76172-2.80762-2.69238-6.05176-2.69238-9.38184c0-8.98633,6.72754-16.53027,15.65039-17.54883
			c0.44336-0.05957,0.86426,0.27441,0.91699,0.72949c0.05176,0.4541-0.27441,0.86523-0.72949,0.91699
			C72.40527,239.02051,66.30859,245.85645,66.30859,254C66.30859,257.01855,67.15234,259.95801,68.74902,262.50098z
			 M21.83594,203.63843h1.5V221.375c0,0.31543,0.25879,0.57227,0.58887,0.58594c7.96484,0.3252,15.49512,3.5791,21.20508,9.16113
			c1.89648,1.85449,3.56055,3.9375,4.94531,6.18945c0.12598,0.2041,0.31738,0.25488,0.4209,0.26758
			c0.18945,0.02344,0.3584-0.04199,0.48633-0.16895l29.58789-29.57031c0.65332-0.65332,1.0127-1.52148,1.0127-2.44434v-1.75708h1.5
			v1.75708c0,1.32422-0.51563,2.56836-1.45215,3.50488l-29.5879,29.57031c-0.39648,0.39648-0.92383,0.6123-1.47461,0.6123
			c-0.08203,0-0.16504-0.00488-0.24902-0.01465c-0.63379-0.07422-1.18848-0.42871-1.52148-0.97168
			c-1.32031-2.14746-2.90723-4.13281-4.7168-5.90234c-5.44336-5.32227-12.62402-8.4248-20.2168-8.73535
			c-1.1377-0.0459-2.02832-0.96094-2.02832-2.08398C21.83594,221.375,21.83594,203.63843,21.83594,203.63843z M67.14551,238.74316
			c-0.14648,0.14648-0.33887,0.21973-0.53027,0.21973c-0.19238,0-0.38379-0.07324-0.53027-0.21973
			c-0.29297-0.29297-0.29297-0.76758,0-1.06055c4.4082-4.40723,10.26855-6.83496,16.50098-6.83496
			c2.56836,0,5.0791,0.40625,7.46387,1.20801c0.18652,0.06348,0.38672,0.03418,0.54688-0.0791
			c0.08984-0.06445,0.23926-0.21094,0.23926-0.46973V186.5921c-2.36646,1.26886-5.00732,1.96344-7.75293,2.05237v5.39532h-1.5
			v-5.41162c-2.56226-0.13068-5.02466-0.79114-7.25195-1.95508v15.18823c0,1.33203-0.54883,2.62793-1.50488,3.55566
			l-13.81641,13.40234c-0.40234,0.40234-0.92773,0.60449-1.45703,0.60449c-0.51953,0-1.04199-0.19434-1.4541-0.58594
			c-6.64624-6.30402-14.84741-10.56635-23.76123-12.3772l0.00049,7.17993c0,0.26465,0.18652,0.49707,0.45313,0.56543
			c7.15527,1.82129,13.71289,5.55957,18.96289,10.80957c0.29297,0.29297,0.29297,0.76758,0,1.06055
			c-0.14648,0.14648-0.33789,0.21973-0.53027,0.21973s-0.38379-0.07324-0.53027-0.21973
			c-5.05957-5.05957-11.37793-8.66211-18.27148-10.41699c-0.93262-0.23633-1.58398-1.06641-1.58398-2.01855l-0.00146-27.04883
			c-2.2937,1.22992-4.8457,1.91693-7.50049,2.04034v5.40765h-1.5v-5.39929c-2.65137-0.09784-5.20081-0.76447-7.5-1.96509v44.83142
			c0,0.25879,0.15039,0.40527,0.23926,0.46973c0.1582,0.11426,0.35742,0.14453,0.5459,0.0791
			c2.38477-0.80176,4.89551-1.20801,7.46484-1.20801c6.23242,0,12.09277,2.42773,16.50098,6.83496
			c0.11548,0.11542,0.17188,0.26099,0.19641,0.41064c0.01013,0.00946,0.02332,0.01288,0.03308,0.02295
			c4.1543,4.34766,6.44141,10.05371,6.44141,16.06738c0,2.42578-0.37207,4.81836-1.10742,7.10938
			c-0.10938,0.34277,0.0752,0.71777,0.4209,0.85645l7.70605,3.06445c0.38477,0.15332,0.57227,0.58984,0.41992,0.97461
			c-0.11719,0.29395-0.39941,0.47266-0.69727,0.47266c-0.09277,0-0.18652-0.0166-0.27734-0.05273l-7.70605-3.06543
			c-1.07617-0.42871-1.64453-1.61816-1.29395-2.70801c0.68652-2.14258,1.03516-4.38086,1.03516-6.65137
			c0-5.62598-2.13965-10.96387-6.02539-15.03027c-0.10767-0.11285-0.15955-0.25226-0.18359-0.39526
			c-0.00684-0.00635-0.01587-0.00824-0.02246-0.01489c-4.125-4.12402-9.6084-6.39551-15.44043-6.39551
			c-2.40625,0-4.75684,0.37988-6.98633,1.12988c-0.64355,0.2168-1.35254,0.10938-1.90039-0.2832
			c-0.54883-0.39453-0.86328-1.00977-0.86328-1.6875v-45.71167c-1.00854-0.66156-1.96008-1.42542-2.83301-2.2981
			c-0.32324-0.32324-0.32324-0.84766,0-1.17188c0.32422-0.32227,0.84766-0.32422,1.17188,0
			c3.02539,3.02539,7.04785,4.69141,11.3252,4.69141s8.2998-1.66602,11.3252-4.69141c0.32422-0.32227,0.84766-0.32227,1.17188,0
			c0.1084,0.10876,0.16699,0.24237,0.20264,0.3811l16.63037,14.36224v-12.42749c-2.47095-0.18188-4.76758-1.23047-6.52148-3.01215
			c-0.29004-0.2959-0.28613-0.77051,0.00879-1.06055c0.29785-0.29297,0.77051-0.28516,1.06152,0.00781
			c1.62793,1.65527,3.80273,2.58008,6.125,2.60352c0.07544,0.00073,0.1438,0.02368,0.2124,0.0451
			c0.34644,0.0661,0.61377,0.35669,0.61377,0.72247v13.35156c0,0.32819-0.21411,0.59943-0.50781,0.70111
			c0.1355,0.26385,0.10803,0.59375-0.09766,0.83209c-0.14844,0.17188-0.35742,0.25977-0.56738,0.25977
			c-0.17383,0-0.34863-0.05957-0.49023-0.18262l-17.24365-14.89185c-0.66248,0.60773-1.35278,1.17542-2.08691,1.66925
			l0.00098,19.24438c9.30591,1.83069,17.86792,6.24982,24.79443,12.81903c0.23828,0.22656,0.60059,0.22559,0.8252,0.00098
			l13.82422-13.41016c0.66699-0.64746,1.0498-1.55078,1.0498-2.47949v-16.06909c-1.00684-0.66089-1.95654-1.42389-2.82813-2.29517
			c-0.32324-0.32324-0.32324-0.84766,0-1.17188c0.32422-0.32227,0.84766-0.32422,1.17188,0
			c3.02539,3.02539,7.04785,4.69141,11.3252,4.69141s8.2998-1.66602,11.3252-4.69141c0.32422-0.32227,0.84766-0.32227,1.17188,0
			c0.32324,0.32422,0.32324,0.84863,0,1.17188c-0.82385,0.82361-1.7157,1.55396-2.66113,2.18982v45.81995
			c0,0.67773-0.31445,1.29297-0.86328,1.6875c-0.54785,0.39258-1.25781,0.49902-1.90039,0.2832
			c-2.23047-0.75-4.58105-1.12988-6.98633-1.12988C76.75391,232.34766,71.27051,234.61914,67.14551,238.74316z M24.33691,238.09766
			c-0.45508-0.05176-0.78125-0.46289-0.72949-0.91699c0.05273-0.45508,0.47266-0.79004,0.91699-0.72949
			c8.9209,1.01953,15.64844,8.56348,15.64844,17.54883c0,3.41211-0.97461,6.72461-2.81836,9.5791
			c-0.15918,0.24609-0.4248,0.37891-0.69727,0.37891c-0.1543,0-0.30957-0.04297-0.44824-0.13184
			c-0.38477-0.24902-0.49512-0.76172-0.24707-1.14551c1.6709-2.58594,2.55469-5.58789,2.55469-8.68066
			C38.5166,245.85742,32.41992,239.02148,24.33691,238.09766z M43.24023,85.7168l0.78516-0.60254l0.09375,2.68555l1.30273,1.69531
			l-0.65039,0.5l-1.30273-1.69629l-2.56934-0.7832l0.79004-0.60645l1.60742,0.48828L43.24023,85.7168z M50.18555,128.51172
			l1.75977-0.21875l0.10059,0.80176l-1.75977,0.21875l0.1582,1.27734l1.96582-0.24512l0.09863,0.7959l-2.77246,0.3457
			l-0.5332-4.29102l2.82422-0.35156l0.09863,0.7832l-2.01855,0.25098L50.18555,128.51172z M51.83008,157.97778v-6.27661
			c0-0.41406,0.33594-0.75,0.75-0.75s0.75,0.33594,0.75,0.75v12.64221c2.43823,0.19946,4.70251,1.24573,6.43652,3.0072
			c0.29102,0.2959,0.28711,0.77051-0.00781,1.06055c-0.14648,0.14453-0.33594,0.21582-0.52637,0.21582
			c-0.19434,0-0.3877-0.0752-0.53418-0.22363c-1.62573-1.65112-3.79395-2.57458-6.10864-2.60248
			c-0.00342,0.00006-0.0061,0.00189-0.00952,0.00189c-0.31348,0-0.58057-0.19318-0.69263-0.46637
			c-0.01074-0.0257-0.00903-0.05603-0.01685-0.08307c-0.01855-0.06525-0.04053-0.12946-0.04053-0.20056v-5.57501
			c-2.44861,0.07465-4.85217,0.73047-6.97949,1.92365c-0.11621,0.06445-0.24219,0.0957-0.36621,0.0957
			c-0.2627,0-0.51758-0.1377-0.65527-0.38281c-0.20215-0.36133-0.07422-0.81836,0.28711-1.02148
			C46.46704,158.7746,49.12537,158.05298,51.83008,157.97778z M41.81055,106.83496
			c-0.27344-0.40234-0.82422-0.49805-1.22656-0.22461l-2.23633,1.52344l-0.45898-0.67285l2.23633-1.52344
			c0.37305-0.25391,0.82422-0.34766,1.2627-0.26367c0.44238,0.08691,0.8291,0.34082,1.08203,0.71289
			c0.52441,0.76758,0.3252,1.81641-0.44434,2.33984l-2.23633,1.52441l-0.45508-0.66992l2.23633-1.52246
			C41.97266,107.78418,42.08203,107.23047,41.81055,106.83496z M39.57031,101.73047l0.75977-0.23242l0.88281,2.88574
			l-4.13477,1.26465l-0.23828-0.77832l3.375-1.03223L39.57031,101.73047z M40.53418,131.81543
			c0.875-0.89355,2.30957-0.90918,3.20313-0.03516c0.89063,0.87012,0.90137,2.2998,0.02734,3.19434
			c-0.87109,0.89063-2.30078,0.91016-3.19043,0.03906C39.67969,134.13867,39.66406,132.70508,40.53418,131.81543z
			 M48.3252,131.91504l-1.22363-2.62402l-0.37207,1.87891l-1.67383-0.9248l1.22363,2.62402l-0.73242,0.34277l-1.83203-3.92578
			l0.68848-0.32129l1.74707,0.96387l0.38184-1.95801l0.69434-0.32422l1.83301,3.92578L48.3252,131.91504z M44.45117,114.13477
			l-0.61621-0.44531l-0.00684-1.99316l-1.89355,0.61816l-0.62012-0.44922l2.53516-3.50391l0.6543,0.47266l-1.69531,2.34375
			l1.82129-0.58887l0.00684,1.91016l1.69434-2.34473l0.65527,0.47461L44.45117,114.13477z M41.91113,91.89453l1.35547-1.73926
			l0.62793,0.49023l-1.85645,2.37891l-3.40918-2.66016l0.5-0.64063L41.91113,91.89453z M38.77051,92.2793
			c0.56934,0.2334,0.83398,0.88574,0.60254,1.4541l-0.28125,0.68652l1.9541,0.79785l-0.30566,0.74805l-4.00781-1.63574
			l0.58594-1.43555c0.11133-0.27539,0.32422-0.49023,0.60156-0.60742C38.19531,92.17578,38.49414,92.16602,38.77051,92.2793z
			 M40.52246,97.05859l-0.13379,0.80176l-4.26172-0.70605l0.13281-0.80176L40.52246,97.05859z M36.69824,98.9834l0.06348,1.06348
			l3.52051-0.21094l0.04883,0.8125l-3.52051,0.21191l0.0625,1.0625l-0.80078,0.04785l-0.17578-2.93848L36.69824,98.9834z
			 M36.77539,138.03516l1.94238-0.4375l-1.01172-1.71484l0.30371-0.70313l3.96973,1.7168l-0.32031,0.74121l-2.6543-1.14746
			l0.96777,1.65039l-1.8623,0.41797l2.6543,1.14844l-0.32129,0.74121l-3.96875-1.7168L36.77539,138.03516z M96.69141,322.21289
			l1.52344-1.14844l-2.88965,0.04492l-0.0127-0.80664l4.32227-0.07031l0.01172,0.75977l-1.58984,1.19727l1.62695,1.14648
			l0.0127,0.76367l-4.32129,0.07031l-0.01367-0.80664l2.88965-0.04883L96.69141,322.21289z M96.42383,306.98242l-0.65039,0.9668
			l-0.35938-2.15234l-3.46387,0.0918l0.56543-0.83984l2.77148-0.07422l-0.15723-0.94141l-1.33008-0.89453l0.4502-0.66992
			l3.58691,2.41211l-0.45117,0.66992l-1.34473-0.9043L96.42383,306.98242z M97.78613,302.93359l-0.31152-0.74609l0.13965-0.06055
			c0.4248-0.17773,0.7334-0.53906,0.84473-0.99414c0.19141-0.7793-0.28418-1.57227-1.06348-1.76367
			c-0.78613-0.19336-1.58008,0.28711-1.77148,1.06836c-0.10938,0.44727-0.00391,0.91211,0.28906,1.27148l0.09082,0.11719
			l-0.61426,0.51367l-0.09473-0.125c-0.22754-0.27344-0.38184-0.58789-0.45996-0.93164
			c-0.08008-0.33984-0.07422-0.69531,0.00977-1.03711c0.07227-0.29492,0.20215-0.57227,0.38184-0.81445
			c0.17578-0.23242,0.39258-0.42969,0.64258-0.58203c0.25195-0.15625,0.52734-0.25781,0.81934-0.29883
			c0.2998-0.05273,0.59863-0.04102,0.89941,0.0332c1.21094,0.29688,1.95313,1.53125,1.65625,2.74219
			c-0.08398,0.3418-0.25,0.66406-0.47754,0.92773c-0.22168,0.26367-0.51855,0.48047-0.83984,0.61328L97.78613,302.93359z
			 M95.42285,297.55273l-0.08789-0.77734l2.60449-2.22461l-2.81934,0.31641l-0.09082-0.80859l4.29688-0.48242l0.08887,0.7832
			l-2.59863,2.21875l2.8125-0.31641l0.0918,0.80859L95.42285,297.55273z M97.83203,289.61133l0.31836,0.66406l-3.1748,3.38086
			l-0.37988-0.78711l0.85938-0.90625l-0.62109-1.29297l-1.24707,0.10156l-0.37598-0.7832L97.83203,289.61133z M93.62012,289.30664
			l-0.5752,0.55078l-2.08691-2.18164l3.125-2.99023l0.56348,0.58789l-2.55078,2.43945L93.62012,289.30664z M92.17383,284.55664
			c-0.31348,0.52734-0.99902,0.69336-1.52637,0.37695l-0.6377-0.37695l-1.0791,1.8125l-0.69434-0.41406l2.21289-3.7207
			l1.33301,0.79492c0.25586,0.15039,0.43652,0.39258,0.51074,0.68555C92.3623,284.00391,92.32617,284.30078,92.17383,284.55664z
			 M93.10449,332.0459c0.27344-0.36719,0.79199-0.44336,1.15918-0.1709c0.36719,0.27344,0.44336,0.79199,0.1709,1.15918
			l-11.09668,14.91699c-0.16309,0.21875-0.41309,0.33398-0.66602,0.33398c-0.17188,0-0.34473-0.05273-0.49316-0.16309
			c-0.36719-0.27344-0.44336-0.79199-0.1709-1.15918L93.10449,332.0459z M94.10547,316.97461l-0.31445-0.81055l4.63867-0.00977
			l0.26563,0.68555l-3.43262,3.12109l-0.31641-0.81641l0.92871-0.83398l-0.51855-1.33789L94.10547,316.97461z M95.16211,324.96094
			l4.13477,1.26953l-0.4541,1.48242c-0.08691,0.2832-0.28027,0.51563-0.5459,0.6582
			c-0.26367,0.13477-0.56055,0.16992-0.8457,0.08398c-0.58594-0.18164-0.90918-0.80664-0.72852-1.39258l0.2168-0.71094
			l-2.01563-0.61719L95.16211,324.96094z M74.55957,7.17578l1.5127,2.11035l1.51367-2.11035h2.3418l-2.89355,4.05469v3.81152
			h-1.92285v-3.81152c-0.80664-1.1377-2.14258-2.97168-2.90527-4.05469C72.20607,7.17578,74.55957,7.17578,74.55957,7.17578z
			 M66.20898,6.93359c1.10449,0,2.14355,0.43066,2.91602,1.21484l0.36523,0.37598L68.12012,9.7168L67.7998,9.4082
			c-0.43066-0.41992-0.99414-0.65234-1.59082-0.65234c-1.25977,0-2.28711,1.02734-2.28711,2.28711
			c0,1.27051,1.02734,2.29785,2.28711,2.29785c0.60742,0,1.16016-0.23242,1.59082-0.65234V11.7168h-2.0332V9.89355h3.85547v3.44727
			l-0.08789,0.13281c-0.7959,1.06055-2.04395,1.68945-3.3252,1.68945c-2.26465,0-4.10938-1.84473-4.10938-4.12012
			C62.09961,8.77832,63.94434,6.93359,66.20898,6.93359z M53.24121,7.17578H56.125c0.57422,0,1.11523,0.23242,1.51367,0.62988
			c0.39746,0.40918,0.62988,1.02734,0.62988,1.60254c0,0.75098-0.36523,1.48047-0.9502,1.85547l2.86133,3.77832h-2.28711
			l-2.60742-3.40234H55.1084v3.40234h-1.86719C53.24121,15.04199,53.24121,7.17578,53.24121,7.17578z M44.30664,7.17578h5.3584
			v1.87891h-3.43555v0.67383h3.00391v1.91113h-3.00391v1.50195h3.35742v1.90039h-5.28027
			C44.30664,15.04199,44.30664,7.17578,44.30664,7.17578z M33.99023,7.17578h1.75684l2.81641,4.1875v-4.1875h1.92285v7.86621
			h-1.74512l-2.82813-4.20898v4.20898h-1.92285V7.17578z M25,7.17578h5.3584v1.87891h-3.43555v0.67383h3.00391v1.91113h-3.00391
			v1.50195h3.35742v1.90039H25V7.17578z M12.83594,156.22156V75.57813c0-1.38477,0.80664-2.66504,2.05566-3.26172L21.75,69.0359
			v-6.44214c0-1.38379,0.80664-2.66309,2.05469-3.26172l7.03125-3.36603v-7.59979c0-1.38477,0.80762-2.66504,2.05664-3.26172
			l5.51501-2.63702c0.72314-2.03339,1.88159-3.94653,3.50916-5.5741c5.85791-5.85785,15.35535-5.85785,21.21313,0
			c1.15503,1.15497,2.07336,2.45465,2.77295,3.83685l10.89893,5.45728c1.23145,0.61719,1.99707,1.85645,1.99707,3.2334v8.22748
			l6.91504,3.31061c1.24805,0.59863,2.05371,1.87891,2.05371,3.26172v6.83807l7.02148,3.32697
			c1.25,0.59863,2.05664,1.87891,2.05664,3.26172v29.37793c0,5.21307-1.68335,10.04443-4.51196,13.94385l-0.00293,35.35371
			c4.72534,3.17535,7.84204,8.56818,7.84204,14.67706c0,3.41309-0.97461,6.72559-2.82031,9.58008
			c-0.1582,0.24512-0.4248,0.37793-0.69629,0.37793c-0.1543,0-0.30957-0.04297-0.44922-0.13281
			c-0.38379-0.24805-0.49414-0.76074-0.24512-1.14551c1.6709-2.58496,2.55469-5.58594,2.55469-8.67969
			c0-8.83105-7.18555-16.0166-16.0166-16.0166S66.4834,162.16895,66.4834,171c0,3.01855,0.84375,5.95801,2.44043,8.50098
			c0.24414,0.3877,0.12695,0.89844-0.26074,1.1416c-0.3877,0.24219-0.89941,0.12695-1.1416-0.26074
			c-1.7627-2.80664-2.69434-6.05078-2.69434-9.38184c0-4.23389,1.49927-8.12238,3.99109-11.16907L52.12988,144.9834
			c-0.30957-0.27539-0.33789-0.75-0.0625-1.05859c0.27637-0.31152,0.75098-0.33691,1.05859-0.0625l16.69507,14.8537
			c0.90771-0.93665,1.91553-1.77283,3.01001-2.49146v-8.2724v-17.74512c-5.18262-0.33728-10.02832-2.4057-13.87793-6.01367
			c-4.14392-3.88446-6.66162-9.23444-7.05615-14.86926c-0.07556-0.66351-0.12354-1.33453-0.12354-2.01648
			c0-0.41406,0.33594-0.75,0.75-0.75c0.10864,0,0.21045,0.02533,0.30371,0.06696c0.2782,0.10962,0.47656,0.37769,0.47656,0.69476
			c0,0.12964,0.01489,0.25659,0.01904,0.38556c0.00195,0.02271,0.01318,0.04236,0.01318,0.06561
			c0,0.29138,0.03198,0.57629,0.04358,0.86548c0.29736,2.74506,1.51709,5.28137,3.51697,7.24585
			c2.31641,2.27344,5.36816,3.51074,8.62988,3.43359c2.75964-0.05066,5.29517-1.09338,7.30469-2.78467V94.67871
			c0-5.375-4.37305-9.74707-9.74805-9.74707c-5.03906,0-9.19666,3.84259-9.69666,8.75177
			c-0.01746,0.33167-0.05042,0.65936-0.05042,0.9953c0,0.41406-0.33594,0.75-0.75,0.75s-0.75-0.33594-0.75-0.75
			c0-0.38757,0.01978-0.77063,0.05811-1.14825c0.60059-10.6308,9.41345-19.10175,20.19189-19.10175
			c1.80493,0,3.54639,0.26001,5.21289,0.70514v-7.37524l-16.44019-7.79004c-2.31372,1.55023-4.96362,2.37585-7.63989,2.50043v2.1261
			c3.18213,0.31757,5.66699,3.00226,5.66699,6.26801c0,3.47937-2.82056,6.29999-6.30005,6.29999
			c-3.47937,0-6.30005-2.82062-6.30005-6.29999c0-3.18451,2.36511-5.81006,5.43311-6.23346v-2.16663
			c-2.6394-0.14001-5.24561-0.96936-7.52808-2.49823L32.3359,65.63515v90.69093c4.72266,3.17584,7.83691,8.5672,7.83691,14.67395
			c0,3.41309-0.97461,6.72559-2.82031,9.58008c-0.1582,0.24512-0.4248,0.37793-0.69629,0.37793
			c-0.1543,0-0.30957-0.04297-0.44922-0.13281c-0.38379-0.24805-0.49414-0.76074-0.24512-1.14551
			c1.6709-2.58496,2.55469-5.58594,2.55469-8.67969c0-8.83105-7.18555-16.0166-16.0166-16.0166S6.4834,162.16895,6.4834,171
			c0,3.01855,0.84375,5.95801,2.44043,8.50098c0.24414,0.3877,0.12695,0.89844-0.26074,1.1416
			c-0.38867,0.24316-0.89941,0.12598-1.1416-0.26074C5.75879,177.5752,4.82715,174.33105,4.82715,171
			C4.82715,164.82141,8.01965,159.38171,12.83594,156.22156z M53.16406,131.13184l0.8252-4.24609l0.77441,0.15137l1.33984,3.14258
			l0.53906-2.77832l0.79883,0.15527l-0.8252,4.24609l-0.76953-0.14941l-1.34277-3.15137l-0.54102,2.78516L53.16406,131.13184z
			 M58.82324,128.94629l0.38672-0.7041l2.5791,1.41602l-0.38477,0.7041l-0.93359-0.5127l-1.69727,3.09277l-0.71387-0.3916
			l1.69727-3.09277L58.82324,128.94629z M61.77051,134.36133c0.3418,0.3457,0.90039,0.33984,1.24512-0.00195l1.92188-1.90039
			l0.57227,0.57813l-1.9209,1.90137c-0.32031,0.31543-0.74609,0.49023-1.19238,0.4873
			c-0.4502-0.00586-0.875-0.18457-1.19141-0.50391c-0.6543-0.66016-0.64844-1.72656,0.0127-2.37891l1.9209-1.90234l0.56738,0.57422
			l-1.9209,1.90137C61.43945,133.45801,61.43262,134.02148,61.77051,134.36133z M68.08301,137.60938l0.32031,0.69434
			l-3.92383,1.80957l-0.33887-0.73242l2.62402-1.21094l-1.87305-0.37891l0.92969-1.66504l-2.62305,1.20996l-0.33789-0.73242
			l3.92285-1.81055l0.31836,0.68848l-0.96973,1.7373L68.08301,137.60938z M20.47754,236.45117
			c0.4375-0.05957,0.86426,0.27441,0.91699,0.72949c0.05176,0.4541-0.27441,0.86523-0.72949,0.91699
			C12.58105,239.02051,6.48438,245.85645,6.48438,254c0,3.01855,0.84375,5.95801,2.44043,8.50098
			c0.24316,0.3877,0.12598,0.89844-0.26172,1.14258c-0.13672,0.08496-0.28906,0.12598-0.43945,0.12598
			c-0.27539,0-0.54492-0.13672-0.70313-0.3877C5.75879,260.57422,4.82813,257.33008,4.82813,254
			C4.82813,245.01367,11.55566,237.46973,20.47754,236.45117z M9.97266,288.04004c0.61719,0.52344,1.54297,0.44727,2.06152-0.16602
			c0.29883-0.35156,0.41211-0.81445,0.31055-1.26758l-0.0293-0.14453l0.77832-0.18457l0.03027,0.15234
			c0.08008,0.34766,0.07813,0.69824-0.00586,1.04102c-0.0791,0.33887-0.24316,0.6543-0.47168,0.92383
			c-0.19629,0.23145-0.43555,0.41895-0.70508,0.55859c-0.26074,0.12793-0.54297,0.20801-0.83398,0.23242
			c-0.2959,0.02734-0.58789-0.00391-0.86719-0.09766C9.94824,289,9.68652,288.85742,9.4502,288.65723
			c-0.95117-0.80664-1.06445-2.24316-0.25879-3.19336c0.22852-0.26855,0.52148-0.4834,0.84277-0.61816
			c0.31641-0.13672,0.67773-0.19727,1.02539-0.17383l0.15527,0.00488l-0.05371,0.80566l-0.15234-0.00879
			c-0.45996-0.03027-0.89746,0.15723-1.2002,0.51367C9.28906,286.59961,9.36133,287.52148,9.97266,288.04004z M17.75684,284.63672
			l-0.88184,0.5l-2.51367-1.1709l-0.27832,0.91113l0.79004,1.39453l-0.70215,0.39746l-2.13184-3.75879l0.70215-0.39746
			l0.7998,1.40918l0.7002-2.26074l1.01465-0.57422l-0.63965,2.08496L17.75684,284.63672z M8.85938,298.73047l0.75977-0.23535
			l0.89355,2.88379l-4.13086,1.28027l-0.24121-0.77734l3.37109-1.04492L8.85938,298.73047z M6.57617,289.83105l0.27734-0.76563
			l4.06543,1.47559l-0.26758,0.73633l-3.32129,0.83594l2.66699,0.96777l-0.27734,0.76465l-4.06543-1.47461l0.26953-0.74219
			l3.3125-0.83301L6.57617,289.83105z M7.41211,314.72852c0.13672-0.26465,0.36719-0.45996,0.65332-0.55176
			c0.28418-0.08594,0.58301-0.06934,0.84766,0.06738c0.54492,0.28125,0.75195,0.9541,0.4707,1.50098l-0.33984,0.65918
			l1.87402,0.96582l-0.37012,0.71777l-3.8457-1.98242L7.41211,314.72852z M8.53809,306.47363l-0.83789-1.30469
			c-0.16113-0.25-0.21484-0.54883-0.15137-0.8418c0.06738-0.29004,0.23145-0.54004,0.48242-0.70117
			c0.5166-0.33203,1.2041-0.17285,1.53613,0.34375l0.40039,0.62305l1.77539-1.14063l0.4375,0.68066L8.53809,306.47363z
			 M5.23828,295.83789l4.35156-1.6084l-0.0127,0.87598l-1.17383,0.42578l-0.02051,1.43457l1.16016,0.4668l-0.0127,0.86816
			l-4.30273-1.72656L5.23828,295.83789z M5.43164,321.2002l1.77637-0.89746l-1.39941-1.41602l0.12305-0.75391l4.2666,0.69531
			l-0.12988,0.79688l-2.85254-0.46484l1.33984,1.3623l-1.70313,0.86035l2.85254,0.46582l-0.12988,0.79688l-4.2666-0.69727
			L5.43164,321.2002z M5.63281,325.4541l3.93066-2.46387l0.16699,0.85938l-1.06152,0.6582l0.27246,1.40723l1.23242,0.21973
			l0.16504,0.85352l-4.56641-0.81152L5.63281,325.4541z M15.22363,363.9082l1.25781-2.60156l-1.68652,0.89648l-0.34082-1.87598
			l-1.25781,2.60156l-0.72656-0.35254l1.88086-3.89063l0.68359,0.33008l0.35352,1.95801l1.75586-0.9375l0.68848,0.33203
			l-1.88086,3.8916L15.22363,363.9082z M20.65234,365.17676l-0.28027-1.21582l-1.41992-0.19434l-0.60254,1.09473l-0.86133-0.11914
			l2.23633-4.05762l0.72754,0.09961l1.06738,4.51074L20.65234,365.17676z M21.49902,347.95117l-11.0957-14.91699
			c-0.27246-0.36719-0.19629-0.88574,0.1709-1.15918c0.36719-0.27246,0.88574-0.19629,1.15918,0.1709l11.0957,14.91699
			c0.27246,0.36719,0.19629,0.88574-0.1709,1.15918c-0.14844,0.11035-0.32129,0.16309-0.49316,0.16309
			C21.91211,348.28516,21.66211,348.16992,21.49902,347.95117z M25.75488,364.24805
			c-0.10059,0.19238-0.2666,0.37012-0.49512,0.52441c-0.19531,0.13867-0.42188,0.2207-0.7168,0.2627
			c-0.13867,0.01953-0.28516,0.02148-0.43945,0.0127c-0.45801-0.02539-0.9209-0.17969-1.34668-0.45703l-0.12988-0.08691
			l0.44434-0.6748l0.12793,0.08496c0.31152,0.20117,0.64063,0.31934,0.94922,0.33691l0.00684-0.00098
			c0.09277,0.00488,0.18457,0.00391,0.27344-0.00781c0.15137-0.02246,0.28516-0.07129,0.39258-0.1416
			c0.13477-0.08105,0.28418-0.23828,0.25-0.48438c-0.02051-0.13184-0.10059-0.22461-0.25-0.28906
			c-0.18359-0.07813-0.41895-0.09961-0.58594-0.10645c-0.07324-0.00098-0.70508-0.04004-1.00977-0.15625
			c-0.20215-0.08887-0.36719-0.21191-0.49316-0.36523c-0.12793-0.16016-0.20313-0.3457-0.23242-0.55566
			c-0.03223-0.22852,0.00586-0.4668,0.11523-0.69727c0.10742-0.19336,0.26758-0.3623,0.46875-0.49512
			c0.20215-0.13281,0.43457-0.22168,0.69336-0.25781c0.10156-0.01465,0.21094-0.01855,0.32129-0.02246
			c0.40723,0.01563,0.82324,0.13965,1.20605,0.37988l0.12891,0.08008l-0.42285,0.69238l-0.12891-0.08008
			c-0.43457-0.2627-0.78125-0.28809-0.99707-0.25586c-0.13965,0.01953-0.26172,0.06738-0.36328,0.13086
			c-0.15527,0.10254-0.24414,0.26172-0.22363,0.40527c0.01855,0.13281,0.08008,0.20996,0.2041,0.27148
			c0.125,0.0625,0.30859,0.09668,0.59375,0.11816c0.03613,0.00098,0.08594,0.00586,0.13672,0.01172
			c0.25781,0.01172,0.60547,0.03516,0.85938,0.14063c0.21973,0.07813,0.39844,0.20703,0.53125,0.36523
			s0.21582,0.35547,0.24609,0.57227C25.90723,363.77246,25.87012,364.02441,25.75488,364.24805z M29.96094,362.67773
			c-0.04883,0.21289-0.16113,0.42676-0.34277,0.63574c-0.15137,0.18457-0.35059,0.32422-0.62305,0.44043
			c-0.12891,0.05566-0.27051,0.09668-0.42188,0.12891c-0.44922,0.09375-0.9375,0.06445-1.41992-0.09082l-0.14746-0.0498
			l0.25195-0.76855l0.14648,0.04883c0.35254,0.11328,0.70215,0.14258,1.00488,0.07813l0.00684-0.00293
			c0.08984-0.01953,0.17773-0.04297,0.26172-0.08008c0.14063-0.05957,0.25684-0.14258,0.34082-0.23828
			c0.11035-0.11426,0.21289-0.30371,0.11621-0.53125c-0.05371-0.12305-0.15527-0.19238-0.31738-0.21582
			c-0.19824-0.02734-0.43066,0.01367-0.59473,0.0498c-0.07031,0.01855-0.69043,0.14551-1.01465,0.11328
			c-0.21875-0.03223-0.41016-0.1084-0.57324-0.22363c-0.16406-0.12109-0.28516-0.28125-0.36816-0.47656
			c-0.0918-0.21094-0.11523-0.45313-0.07227-0.70215c0.05371-0.21582,0.16406-0.4209,0.32422-0.60156
			c0.16016-0.18164,0.3623-0.32813,0.60254-0.43066c0.09473-0.04102,0.2002-0.07324,0.30566-0.10547
			c0.39648-0.09082,0.83008-0.08008,1.26465,0.05273l0.14355,0.04199l-0.22656,0.78027l-0.14551-0.04492
			c-0.49023-0.13965-0.83008-0.07227-1.03223,0.01465c-0.12695,0.05469-0.23242,0.13184-0.31543,0.2207
			c-0.12402,0.13965-0.16602,0.31641-0.10938,0.4502c0.05273,0.12305,0.13086,0.18164,0.26758,0.20898
			c0.13672,0.02832,0.32324,0.01367,0.60449-0.04102c0.03613-0.00879,0.08594-0.0166,0.13379-0.02539
			c0.25391-0.05566,0.5957-0.12305,0.86816-0.08789c0.23242,0.01953,0.4375,0.0957,0.6084,0.21484
			c0.16895,0.11816,0.30176,0.28809,0.3877,0.48828C29.9834,362.17871,30.0127,362.43164,29.96094,362.67773z M33.73242,334.4248
			c-0.88379,0.84375-2.27539,0.8291-3.09863-0.03223s-0.77441-2.25195,0.10938-3.09668l1.0498-1.00293l2.99023,3.12891
			L33.73242,334.4248z M36.9082,330.03906c-0.56543,1.08203-1.88867,1.51367-2.94238,0.96191
			c-1.05469-0.55176-1.4541-1.88477-0.8877-2.9668l0.67285-1.28613l3.83105,2.00488L36.9082,330.03906z M38.41309,325.49609
			l-4.52637,0.99316l0.13379-0.86426l1.21973-0.26172l0.2168-1.41504l-1.08398-0.62109l0.13281-0.8584l4.01953,2.30078
			L38.41309,325.49609z M41.08105,309.7832l2.01953-2.45313l-0.39355-0.01758l0.04199-0.80664l1.22754,0.05859l0.4873,0.40234
			l-2.75,3.33789L41.08105,309.7832z M44.74609,307.33984l0.78418,0.38867l-0.30273,3.22461l2.38867-2.18945l0.77734,0.38672
			l-3.41406,3.13672l-0.65918-0.32813L44.74609,307.33984z M49.97754,309.41016l0.85254,0.1875l-2.56055,3.85547l-0.84668-0.1875
			L49.97754,309.41016z M61.37927,373.05255c0,1.77142-1.43604,3.20746-3.2074,3.20746h-10.4663
			c-1.77148,0-3.20752-1.43604-3.20752-3.20746v-26.33148c0-1.77142,1.43604-3.20746,3.20752-3.20746h10.46631
			c1.77136,0,3.2074,1.43604,3.2074,3.20746L61.37927,373.05255L61.37927,373.05255z M50.94336,311.85742
			c-0.05469-1.25,0.91211-2.30664,2.1543-2.36133c1.24902-0.05664,2.30664,0.91211,2.3623,2.16016
			c0.05566,1.24414-0.91113,2.29297-2.16016,2.34961C52.05664,314.06055,50.99902,313.09961,50.94336,311.85742z
			 M56.89063,311.18359c0.29004,0.75195,1.1377,1.12695,1.88574,0.83984c0.42871-0.16602,0.74805-0.51758,0.87598-0.96289
			l0.04395-0.14063l0.76953,0.20898l-0.04688,0.14844c-0.09473,0.3418-0.26367,0.64844-0.50098,0.9082
			c-0.23145,0.25781-0.52637,0.45703-0.85449,0.58398c-0.28223,0.10938-0.58105,0.16016-0.88281,0.1543
			c-0.29102-0.01172-0.57617-0.07813-0.84277-0.19531c-0.27246-0.11719-0.51367-0.2832-0.71289-0.5
			c-0.21387-0.21484-0.37598-0.46484-0.48828-0.75391c-0.44727-1.16016,0.1377-2.47266,1.29785-2.92188
			c0.32813-0.12695,0.6875-0.17383,1.0332-0.13672c0.34277,0.0293,0.68945,0.14844,0.98242,0.33398l0.13379,0.08008
			l-0.43262,0.67969l-0.12891-0.08008c-0.38867-0.24805-0.86133-0.29297-1.29688-0.12305
			C56.97852,309.5957,56.60156,310.4375,56.89063,311.18359z M62.73633,310.70508l-2.10156-2.82227l-0.85156,0.63477
			l-0.47852-0.64258l2.35449-1.75391l0.47949,0.64258l-0.85254,0.63477l2.10352,2.82031L62.73633,310.70508z M65.30566,346.80762
			c0.00586-0.13965,0.03125-0.2832,0.06836-0.43555c0.1123-0.44434,0.34961-0.87109,0.70117-1.2373l0.1084-0.11035l0.58301,0.56055
			l-0.1084,0.11133c-0.25586,0.26758-0.43359,0.57031-0.50879,0.87109v0.00586c-0.02246,0.08984-0.03906,0.17969-0.04297,0.27148
			c-0.00684,0.15137,0.0166,0.29199,0.06738,0.40918c0.05273,0.14941,0.17871,0.32617,0.42773,0.33691
			c0.13281,0.00586,0.23926-0.05469,0.33105-0.19141c0.11035-0.16602,0.17578-0.39355,0.21289-0.55566
			c0.01563-0.07227,0.17188-0.68555,0.34277-0.96289c0.12402-0.18359,0.27637-0.32129,0.45117-0.41797
			c0.18066-0.09473,0.37695-0.13477,0.58887-0.125c0.23145,0.01074,0.45801,0.09375,0.66504,0.24414
			c0.16895,0.14063,0.30566,0.33008,0.39941,0.55371c0.09277,0.22266,0.13672,0.46777,0.125,0.72852
			c-0.00488,0.10449-0.02246,0.21191-0.04004,0.32031c-0.08984,0.39746-0.29102,0.78418-0.59766,1.11621l-0.10254,0.11035
			l-0.60156-0.54395l0.10254-0.11133c0.33984-0.37988,0.42871-0.71582,0.43848-0.93457
			c0.00586-0.13965-0.01855-0.26855-0.0625-0.37891c-0.07031-0.1748-0.21094-0.29004-0.35742-0.29688
			c-0.13281-0.00684-0.21973,0.03809-0.30469,0.15039c-0.08398,0.1123-0.15332,0.28516-0.22559,0.56152
			c-0.00781,0.03516-0.02148,0.08398-0.03711,0.13184c-0.05859,0.25293-0.14746,0.58887-0.29883,0.81934
			c-0.11914,0.20215-0.27734,0.35156-0.45898,0.45313c-0.17969,0.10156-0.38965,0.14746-0.60742,0.13672
			c-0.27344-0.0127-0.5127-0.09668-0.71289-0.25293c-0.16992-0.13477-0.31348-0.3291-0.42383-0.58398
			C65.3291,347.34375,65.29199,347.10449,65.30566,346.80762z M73.77051,332.33594l1.14941-0.48633l0.60449,0.62305
			l-4.26172,1.81152l-0.51172-0.52734l1.94336-4.20605l0.6084,0.62891l-0.52832,1.12793L73.77051,332.33594z M68.65918,331.125
			l-0.61816-1.3125c-0.51953-1.10547-0.06445-2.41895,1.01172-2.92578c1.07715-0.50586,2.37988-0.01953,2.90039,1.08496
			l0.61719,1.31348L68.65918,331.125z M66.63086,326.0752l-0.16602-1.44336c-0.13867-1.21484,0.71484-2.31445,1.89844-2.44922
			c1.18359-0.13574,2.2627,0.74316,2.40137,1.95801l0.16504,1.44336L66.63086,326.0752z M65.43457,349.88281l4.23145-0.87598
			l0.31348,1.51465c0.06055,0.29199,0.00391,0.58887-0.16113,0.83984c-0.16602,0.24512-0.40918,0.41895-0.7002,0.47949
			c-0.60059,0.12305-1.18359-0.27051-1.30762-0.86914l-0.15039-0.72559l-2.06055,0.42676L65.43457,349.88281z M67.7002,356.53418
			l-1.19922-2.52344l3.90625-1.85547l1.22168,2.57227l-0.71289,0.33887l-0.87305-1.83691l-0.5752,0.27344l0.75977,1.60156
			l-0.73047,0.34668l-0.75879-1.60254l-1.16406,0.55273l0.84961,1.78906L67.7002,356.53418z M70.39063,360.0332l-1.78711-2.14941
			l3.32617-2.76563l1.82227,2.19043l-0.60742,0.50488l-1.30078-1.56445l-0.49121,0.4082l1.13477,1.36426l-0.62207,0.51563
			l-1.13477-1.36328l-0.99023,0.82324l1.2666,1.52344L70.39063,360.0332z M75.85742,361.46582
			c-0.66895,0.98145-2.03906,1.22363-3.04688,0.53613l-1.19727-0.81641l2.43359-3.56836l1.19824,0.81641
			C76.25293,359.12109,76.52734,360.4834,75.85742,361.46582z M71.90332,283.07813
			c-0.86719,1.27539-1.32617,2.76563-1.32617,4.30762V317.5c0,0.41406-0.33594,0.75-0.75,0.75s-0.75-0.33594-0.75-0.75v-30.11426
			c0-1.84375,0.54883-3.625,1.58594-5.15137l7.52539-11.06726c-2.80945-0.67151-5.4054-2.02441-7.59839-3.97919l-17.38403,25.565
			c-0.14551,0.21289-0.38086,0.32813-0.62109,0.32813c-0.14453,0-0.29199-0.04199-0.4209-0.12988
			c-0.10742-0.07288-0.18018-0.17261-0.2356-0.28052c-0.1521-0.0498-0.29419-0.12994-0.39136-0.27222l-17.20361-25.2995
			c-2.2146,2.00464-4.84888,3.38971-7.70337,4.0708l7.52417,11.06464c1.03711,1.52539,1.58496,3.30664,1.58496,5.15137V317.5
			c0,0.41406-0.33594,0.75-0.75,0.75s-0.75-0.33594-0.75-0.75v-30.11426c0-1.54297-0.45801-3.03223-1.3252-4.30762L25.02295,271.474
			c-0.8302,0.11816-1.66943,0.19885-2.52295,0.19885c-3.11133,0-6.09253-0.8136-8.72461-2.31415l8.3125,12.2243
			c0.2334,0.34277,0.14453,0.80957-0.19824,1.04199c-0.12891,0.08789-0.27637,0.12988-0.4209,0.12988
			c-0.24023,0-0.47559-0.11523-0.62109-0.32813l-10.77246-15.8418c-0.00806-0.01178-0.00867-0.02563-0.01587-0.03766
			c-0.01782-0.01764-0.0376-0.03247-0.05542-0.05023c-0.32324-0.32324-0.32324-0.84863,0-1.17188
			c0.32422-0.32227,0.84766-0.32227,1.17188,0c3.02441,3.02539,7.04688,4.69141,11.32422,4.69141
			c4.27832,0,8.30078-1.66602,11.3252-4.69141c0.32422-0.32227,0.84766-0.32227,1.17188,0
			c0.10815,0.10815,0.1665,0.24121,0.20239,0.37946l17.29272,25.43054l17.10645-25.15686
			c-0.01904-0.23413,0.05054-0.47363,0.22949-0.65314c0.32422-0.32227,0.84766-0.32422,1.17188,0
			c3.02539,3.02441,7.04688,4.69043,11.3252,4.69043s8.2998-1.66602,11.3252-4.69043c0.32422-0.32422,0.84766-0.32227,1.17188,0
			c0.02783,0.02802,0.03979,0.06403,0.06274,0.09473c0.01367,0.00696,0.02869,0.00873,0.04175,0.01758
			c0.34277,0.23242,0.43164,0.69922,0.19824,1.04199l-11.32129,16.65039c-0.14453,0.21289-0.38086,0.32813-0.62109,0.32813
			c-0.14453,0-0.29199-0.04199-0.4209-0.12988c-0.34277-0.23242-0.43164-0.69922-0.19824-1.04199l8.99927-13.23553
			c-2.75403,1.69653-5.92126,2.62128-9.23755,2.62128c-0.85596,0-1.69751-0.08105-2.53003-0.19989L71.90332,283.07813z
			 M82.03125,365.26758c-1.24316-0.06934-2.2002-1.13281-2.13086-2.37598c0.07031-1.24902,1.14063-2.2041,2.38281-2.13477
			c1.25,0.07031,2.20605,1.13867,2.13574,2.3877C84.34863,364.3877,83.28125,365.33789,82.03125,365.26758z M85.89746,362.06445
			l1.0957-0.25195l0.18066,0.78125l-1.0957,0.25293l0.4707,2.03613l-0.78809,0.18262l-0.97461-4.21484l2.77246-0.6416
			l0.17871,0.77637l-1.98242,0.45801L85.89746,362.06445z M93.31445,361.99121l-2.77734-3.31641l0.62402-0.52344l2.26563,2.70605
			l1.69141-1.41602l0.51074,0.61035L93.31445,361.99121z M96.65723,358.80859l-3.39844-2.67383l0.50195-0.63965l3.39941,2.67285
			L96.65723,358.80859z M99.16992,354.91895c-0.52539,1.12695-1.87207,1.61719-3.00488,1.08887
			c-1.12793-0.52539-1.61816-1.87207-1.0918-3c0.12793-0.27344,0.30859-0.51758,0.5293-0.7168
			c0.21875-0.19824,0.47266-0.35449,0.75293-0.45215l0.15137-0.05566l0.22656,0.76758l-0.13184,0.05176
			c-0.35254,0.12402-0.63086,0.38965-0.79785,0.74805c-0.33789,0.72559-0.02441,1.58789,0.70215,1.92578
			c0.73145,0.34082,1.59961,0.0293,1.9375-0.69629c0.17188-0.36719,0.17969-0.77246,0.03711-1.1543l-0.81348-0.37891
			l-0.50098,1.07227l-0.73145-0.34082l0.83691-1.79297l1.80273,0.84082l0.02051,0.04297
			C99.44336,353.51367,99.46875,354.27539,99.16992,354.91895z M100.67188,348.9541l-2.07715-0.27441l-0.22852,1.73926
			l2.0752,0.27441L100.33496,351.5l-4.2832-0.56641l0.10645-0.80762l1.41895,0.18848l0.23047-1.73926l-1.4209-0.18652
			l0.10645-0.80762l4.28516,0.56738L100.67188,348.9541z"/>
		<path fill="#252626" d="M38.05469,93.19531l-0.2793,0.68848l0.5791,0.23633l0.28027-0.6875
			c0.06445-0.1582-0.01367-0.33398-0.17188-0.39844S38.11719,93.04395,38.05469,93.19531z"/>
		<path fill="#252626" d="M56.38965,9.4082c0-0.15527-0.11035-0.35352-0.26465-0.35352h-1.0166v0.70703h1.0166
			C56.2793,9.76172,56.38965,9.5625,56.38965,9.4082z"/>
		<path fill="#252626" d="M34.33984,330.28613c0.66797,0.34766,1.50391,0.07324,1.86328-0.61621l0.29883-0.56934l-2.4209-1.26758
			l-0.29785,0.57031C33.42188,329.09277,33.67285,329.93555,34.33984,330.28613z"/>
		<path fill="#252626" d="M57.60522,360.73877c-0.1626,0.31671-0.31885,0.5769-0.46924,0.78009
			c-0.15039,0.20343-0.28247,0.33734-0.396,0.40234c-0.06519,0.03265-0.14026,0.06079-0.22571,0.08521
			c-0.08508,0.02435-0.18689,0.04266-0.30481,0.05487c-0.11768,0.01221-0.25989,0.02252-0.42651,0.03052
			c-0.1665,0.00818-0.36792,0.01221-0.60339,0.01221c-0.26819,0-0.48962-0.008-0.66443-0.02441
			c-0.1748-0.01617-0.31494-0.03662-0.42041-0.06079c-0.10583-0.0246-0.18921-0.05298-0.25-0.08539
			c-0.06091-0.03235-0.10791-0.06897-0.14014-0.1098c-0.09766-0.10559-0.16064-0.26208-0.18896-0.46924
			c-0.02856-0.2074-0.04272-0.47345-0.04272-0.79865v-0.8045c0.00195-0.11145,0.00513-0.20996,0.00989-0.29443
			c0.00793-0.15015,0.03027-0.29047,0.06689-0.42041c0.0365-0.13,0.09338-0.26843,0.17078-0.41461
			c0.01831-0.03491,0.03894-0.07269,0.06079-0.11237c0.0293-0.00092,0.05981-0.0014,0.09375-0.0014h0.70728
			c0.23547,0,0.42859,0.00397,0.57898,0.01221c0.15015,0.008,0.27002,0.02417,0.35974,0.04858
			c0.1217,0.03259,0.20898,0.0896,0.26196,0.17078c0.05273,0.08118,0.09131,0.17877,0.11597,0.29254l0.10962,0.47534
			c0.03223,0.04083,0.08716,0.0589,0.16431,0.05493c0.07727-0.00397,0.12817-0.02631,0.15259-0.06714
			c0-0.13818-0.0083-0.31274-0.02441-0.52411c-0.01636-0.21136-0.02441-0.42676-0.02441-0.64612
			c0-0.2356,0.00806-0.46313,0.02441-0.6825c0.01611-0.2196,0.02441-0.4024,0.02441-0.54883
			c-0.02441-0.04034-0.07532-0.06287-0.15259-0.06708c-0.07715-0.00372-0.13208,0.01434-0.16431,0.05493l-0.09741,0.49994
			c-0.03271,0.15436-0.07129,0.25812-0.11597,0.31085c-0.0448,0.0528-0.10376,0.09131-0.17664,0.11566
			c-0.07312,0.02441-0.19934,0.04272-0.37805,0.05493c-0.17896,0.01221-0.39832,0.01831-0.6582,0.01831h-0.55103
			c0.00439-0.00684,0.00806-0.01312,0.01221-0.0202l0.76807-1.32861c0.15405-0.26019,0.29443-0.50189,0.42065-0.72546
			c0.12573-0.22333,0.24976-0.42065,0.37158-0.59125c0.12207-0.17053,0.2478-0.30872,0.37793-0.41431
			c0.0271-0.02185,0.05469-0.04156,0.08301-0.06006c0.08264,0.03284,0.1554,0.07153,0.21802,0.11682
			c0.10156,0.073,0.18457,0.15839,0.24988,0.25598c0.06506,0.09735,0.1178,0.20715,0.15857,0.32892
			c0.04041,0.12201,0.08521,0.25623,0.13403,0.4024c0.03235,0.04077,0.08545,0.05701,0.15857,0.04877
			c0.073-0.008,0.1217-0.03235,0.14612-0.07318c-0.01636-0.13-0.03052-0.27826-0.04248-0.44482
			c-0.01245-0.16663-0.02661-0.32916-0.04285-0.48755c-0.01624-0.15863-0.03748-0.30011-0.05469-0.42676
			c-0.04248-0.31348-0.03284-0.58118-0.03284-0.58118c0-0.61749-0.17529-1.15735-0.44275-1.60925
			c-0.26721-0.45142-0.60901-0.8078-1.02478-1.06915c-0.41602-0.26135-0.90308-0.44556-1.46143-0.55249
			c-0.55859-0.10699-1.21204-0.16052-1.96045-0.16052c-0.74878,0-1.4054,0.00891-1.96948,0.02679
			c-0.56445,0.01782-1.08435,0.05652-1.55969,0.11584c-0.07117,0.03571-0.10974,0.10419-0.1156,0.20483
			c-0.0061,0.10114,0.02026,0.1814,0.0802,0.24072l0.64148,0.07135c0.2019,0.02393,0.35913,0.06238,0.47241,0.11591
			c0.11267,0.05322,0.19604,0.15131,0.24951,0.29395s0.08606,0.3327,0.09802,0.57037
			c0.01172,0.23767,0.01782,0.54663,0.01782,0.92676v6.57678c0,0.46313-0.0061,0.83478-0.01782,1.11377
			c-0.01196,0.27942-0.05359,0.49622-0.12488,0.65057s-0.17822,0.26135-0.32068,0.32074
			c-0.1427,0.05957-0.34485,0.10693-0.60608,0.14264l-0.37439,0.05347c-0.0542,0.0542-0.07837,0.12836-0.07312,0.22174
			c-0.00049,0.19073-0.00269,0.25128-0.00659,0.46619c-0.00427,0.24609-0.01563,0.52106-0.03369,0.82538
			c0.01807,0.0448,0.06934,0.07153,0.15454,0.08069c0.08484,0.00867,0.14539-0.00916,0.18127-0.05371l0.04016-0.28204
			c0.02698-0.19684,0.06262-0.34888,0.10742-0.45605c0.0448-0.10748,0.12524-0.18793,0.2417-0.2417
			c0.11609-0.05371,0.27942-0.08539,0.48987-0.0943c0.21021-0.00867,0.48987-0.01312,0.83899-0.01312h1.69116
			c0.07153,0,0.12756,0.00446,0.16797,0.01312c0.04004,0.00891,0.06909,0.03381,0.08704,0.07416
			c0.01782,0.0401,0.02905,0.10278,0.03381,0.18768c0.00415,0.08514,0.00659,0.20343,0.00659,0.35571
			c0,0.26862-0.03369,0.46991-0.10071,0.60413c-0.06714,0.13422-0.17664,0.25055-0.32898,0.34912
			c-0.15222,0.10742-0.32007,0.21912-0.50317,0.33551c-0.18384,0.11609-0.36719,0.23248-0.55054,0.34888
			c-0.18335,0.11633-0.36011,0.22827-0.53015,0.33569c-0.17004,0.10724-0.31775,0.20575-0.44299,0.29517
			c-0.34021,0.24164-0.61987,0.46759-0.83899,0.67804c-0.21912,0.21021-0.39136,0.42279-0.5166,0.63745
			c-0.12561,0.21466-0.21252,0.44061-0.26184,0.6778c-0.04907,0.23724-0.07373,0.49884-0.07373,0.78528
			c0,0.25952,0.02234,0.4566,0.06689,0.59058c0.02698,0.03589,0.06055,0.05157,0.10083,0.04712
			c0.04016-0.0047,0.06934-0.02484,0.0874-0.06055c0.01758-0.17902,0.0603-0.34888,0.12732-0.50983
			c0.06714-0.16113,0.14978-0.30005,0.24841-0.4162c0.18799-0.23273,0.40039-0.45184,0.63745-0.65784
			c0.23706-0.20575,0.4989-0.41602,0.7854-0.63092c0.28613-0.21466,0.6084-0.43616,0.96631-0.66418
			c0.35791-0.22827,0.75171-0.47675,1.1814-0.74518c0.05371-0.03589,0.10925-0.06494,0.16772-0.08722
			c0.05786-0.02258,0.10962-0.01575,0.1543,0.02014c0.0625,0.16986,0.15649,0.35126,0.28174,0.54364
			c0.12537,0.19238,0.27979,0.37372,0.46313,0.54382c0.18359,0.16986,0.39819,0.31061,0.64429,0.42279
			c0.24609,0.11169,0.53027,0.16772,0.85242,0.16772c0.47449,0,0.86365-0.10535,1.16797-0.31555
			c0.30408-0.21021,0.54126-0.4765,0.7113-0.79865c0.16992-0.31323,0.27979-0.65997,0.32898-1.04004
			c0.04895-0.38055,0.07556-0.78107,0.07361-1.20172c-0.00317-0.77942,0.13708-1.27539,0.13708-1.27539
			c0.05273-0.14642,0.10535-0.30267,0.15833-0.46924c0.05273-0.16656,0.10156-0.32916,0.14648-0.48779
			c0.04443-0.15833,0.07898-0.29041,0.10364-0.39624c-0.02466-0.05652-0.07141-0.09314-0.14026-0.10956
			C57.70068,360.69818,57.64612,360.70612,57.60522,360.73877z M52.47095,360.66974c0,0.3252-0.00427,0.58514-0.01221,0.78015
			c-0.0083,0.19495-0.03662,0.34747-0.08545,0.45703c-0.01733,0.03943-0.03809,0.0741-0.06177,0.10437
			c-0.00049,0.00024-0.0011,0.00073-0.00159,0.00098c-0.14197-0.02722-0.2616-0.05865-0.35828-0.09454
			c-0.1604-0.05939-0.27612-0.16638-0.34741-0.32074s-0.11597-0.37115-0.13379-0.65057
			c-0.01782-0.27899-0.02673-0.65063-0.02673-1.11377v-2.53784l0.63721,1.24158c0.08923,0.17084,0.16028,0.31512,0.21326,0.43286
			c0.05273,0.11804,0.09131,0.2276,0.11572,0.32916c0.02441,0.10187,0.04053,0.20929,0.04883,0.32312
			c0.00793,0.11377,0.01221,0.25592,0.01221,0.42651V360.66974z M52.50757,357.30536
			c-0.22766-0.46338-0.45532-0.9223-0.68286-1.37769c-0.01636-0.03241-0.04456-0.09314-0.08521-0.1828
			c-0.04077-0.08911-0.0835-0.18463-0.12793-0.28644c-0.04492-0.10162-0.08362-0.19684-0.11597-0.2865
			c-0.03271-0.08936-0.04858-0.15039-0.04858-0.18274c0-0.04883,0.03223-0.08728,0.09741-0.11591
			c0.06494-0.02838,0.20313-0.06287,0.41455-0.10345l0.15833-0.02441c0.04065-0.04059,0.05896-0.0976,0.05493-0.17078
			c-0.00427-0.073-0.03479-0.1178-0.09131-0.13397c-0.1731,0.01361-0.38538,0.02344-0.63721,0.0293v-2.58643
			c0-0.14264,0.00586-0.25549,0.01782-0.33881c0.01184-0.08276,0.04749-0.14825,0.10706-0.19586
			c0.05933-0.04742,0.15405-0.07721,0.28503-0.08917c0.13074-0.01172,0.31482-0.01782,0.55249-0.01782
			c0.92676,0,1.63672,0.2583,2.12988,0.77515c0.49292,0.51691,0.73975,1.20923,0.73975,2.07666
			c0,0.08209-0.01721,0.25922-0.02795,0.38074c-0.06824-0.00092-0.13647-0.00183-0.20483-0.0033
			c-0.18701-0.00397-0.39014-0.01428-0.6095-0.03046c-0.04883,0.02441-0.07507,0.07104-0.07922,0.14008
			c-0.00415,0.06921,0.01392,0.12408,0.05505,0.16467l0.21912,0.02441c0.14648,0.01617,0.26819,0.04266,0.36572,0.07904
			c0.09766,0.03662,0.14648,0.07532,0.14648,0.11591s-0.02441,0.11591-0.07324,0.22546
			c-0.04883,0.1098-0.11377,0.24188-0.19495,0.39606c-0.08142,0.1546-0.16895,0.31934-0.26208,0.49384
			c-0.09351,0.1748-0.18115,0.33954-0.26221,0.49365c-0.18701,0.35779-0.37781,0.70905-0.573,1.05438
			c-0.19507,0.34558-0.38599,0.68085-0.57275,1.0058C52.96643,358.21143,52.73486,357.76849,52.50757,357.30536z
			 M56.78503,364.36639c-0.11426,0.26349-0.26575,0.48096-0.45471,0.65228c-0.18909,0.17126-0.40405,0.2984-0.64563,0.38214
			c-0.24182,0.08356-0.49426,0.12506-0.75781,0.12506c-0.44812,0-0.79724-0.06567-1.04749-0.19751
			c-0.25049-0.1319-0.44604-0.28558-0.58643-0.4613c-0.14966-0.1933-0.2439-0.40845-0.28345-0.64563
			c-0.03955-0.23724-0.05933-0.47443-0.05933-0.71161c0-0.33411,0.00684-0.56451,0.01978-0.69189
			c0.01331-0.12762,0.02832-0.19989,0.04614-0.21747c0.03491-0.02655,0.17993-0.03943,0.43481-0.03943h3.08374
			c0.08777,0,0.16028,0.00653,0.21753,0.01971c0.05676,0.01312,0.10083,0.0481,0.13159,0.10535
			c0.03076,0.05701,0.05054,0.14264,0.05933,0.2569s0.01343,0.2724,0.01343,0.47437
			C56.95654,363.78644,56.89905,364.10291,56.78503,364.36639z"/>
	</g>
	<g>
		<g>
			<g>
				<g>
					<circle fill="#BCBCBC" cx="97.00985" cy="373.60947" r="5.73626"/>
					<path fill="#808080" d="M97.0098,379.08212c-3.02102-0.00348-5.46916-2.45166-5.47262-5.47269c0,0,0,0,0-0.00003
						c0.00002-3.02246,2.45023-5.47263,5.4727-5.4726c3.02247,0,5.47264,2.45023,5.47262,5.47269
						S100.03227,379.08215,97.0098,379.08212 M103.0098,373.60947c0-3.31372-2.68629-6-6-6s-6,2.68628-6,6c0,3.31369,2.68629,6,6,6
						C100.32345,379.60928,103.00964,376.9231,103.0098,373.60947z"/>
				</g>
				<polygon fill="#6E6E6E" points="100.50481,374.26846 97.66881,374.26846 97.66881,377.10446 96.35081,377.10446 
					96.35081,374.26846 93.51581,374.26846 93.51581,372.95047 96.35081,372.95047 96.35081,370.11447 97.66881,370.11447 
					97.66881,372.95047 100.50481,372.95047 				"/>
			</g>
		</g>
	</g>
	<g>
		<g>
			<g>
				<g>
					<circle fill="#BCBCBC" cx="7.99992" cy="373.60947" r="5.73626"/>
					<path fill="#808080" d="M7.99996,379.08212c3.02102-0.00348,5.46916-2.45166,5.47262-5.47269c0,0,0,0,0-0.00003
						c-0.00002-3.02246-2.45023-5.47263-5.4727-5.4726c-3.02247,0-5.47264,2.45023-5.47262,5.47269
						S4.97749,379.08215,7.99996,379.08212 M1.99996,373.60947c0-3.31372,2.68629-6,6-6s6,2.68628,6,6c0,3.31369-2.68629,6-6,6
						C4.68632,379.60928,2.00012,376.9231,1.99996,373.60947z"/>
				</g>
				<polygon fill="#6E6E6E" points="4.50496,374.26846 7.34096,374.26846 7.34096,377.10446 8.65896,377.10446 8.65896,374.26846 
					11.49396,374.26846 11.49396,372.95047 8.65896,372.95047 8.65896,370.11447 7.34096,370.11447 7.34096,372.95047 
					4.50496,372.95047 				"/>
			</g>
		</g>
	</g>
	<g>
		<g>
			<g>
				<g>
					<circle fill="#BCBCBC" cx="97.00985" cy="6.39054" r="5.73626"/>
					<path fill="#808080" d="M97.0098,11.8632c-3.02102-0.00348-5.46916-2.45164-5.47262-5.47267c0,0,0-0.00001,0-0.00003
						c0.00002-3.02247,2.45023-5.47264,5.4727-5.47262s5.47264,2.45023,5.47262,5.4727S100.03227,11.86322,97.0098,11.8632
						 M103.0098,6.39054c0-3.31371-2.68629-6-6-6s-6,2.68629-6,6s2.68629,6,6,6
						C100.32345,12.39038,103.00964,9.70418,103.0098,6.39054z"/>
				</g>
				<polygon fill="#6E6E6E" points="100.50481,7.04954 97.66881,7.04954 97.66881,9.88554 96.35081,9.88554 96.35081,7.04954 
					93.51581,7.04954 93.51581,5.73154 96.35081,5.73154 96.35081,2.89554 97.66881,2.89554 97.66881,5.73154 100.50481,5.73154 
									"/>
			</g>
		</g>
	</g>
	<g>
		<g>
			<g>
				<g>
					<circle fill="#BCBCBC" cx="7.99992" cy="6.39054" r="5.73626"/>
					<path fill="#808080" d="M7.99996,11.8632c3.02102-0.00348,5.46916-2.45164,5.47262-5.47267c0,0,0-0.00001,0-0.00003
						c-0.00002-3.02247-2.45023-5.47264-5.4727-5.47262s-5.47264,2.45023-5.47262,5.4727S4.97749,11.86322,7.99996,11.8632
						 M1.99996,6.39054c0-3.31371,2.68629-6,6-6s6,2.68629,6,6s-2.68629,6-6,6C4.68632,12.39038,2.00012,9.70418,1.99996,6.39054z"
						/>
				</g>
				<polygon fill="#6E6E6E" points="4.50496,7.04954 7.34096,7.04954 7.34096,9.88554 8.65896,9.88554 8.65896,7.04954 
					11.49396,7.04954 11.49396,5.73154 8.65896,5.73154 8.65896,2.89554 7.34096,2.89554 7.34096,5.73154 4.50496,5.73154 				"/>
			</g>
		</g>
	</g>
</g>
<g id="serigraphy">
	<g>
		<g>
			<path fill="#E5E5E5" d="M16.79688,21.08105h0.54395v1.13477h0.01855c0.30078-0.77832,0.95703-1.23828,1.83008-1.20117v0.5918
				c-1.07031-0.05664-1.80176,0.73145-1.80176,1.73535v2.58105h-0.59082V21.08105z"/>
		</g>
		<g>
			<path fill="#E5E5E5" d="M19.7627,19.22266h0.5918v0.94727h-0.5918V19.22266z M19.7627,21.08105h0.5918v4.8418h-0.5918V21.08105z"
				/>
		</g>
		<g>
			<path fill="#E5E5E5" d="M21.48145,21.08105h0.59082v0.83496h0.01953c0.21582-0.58203,0.86328-0.97656,1.54785-0.97656
				c1.36035,0,1.77344,0.71387,1.77344,1.86816v3.11523h-0.59082v-3.02148c0-0.83496-0.27246-1.46387-1.22949-1.46387
				c-0.93848,0-1.50098,0.71289-1.52051,1.66113v2.82422h-0.59082C21.48145,25.92284,21.48145,21.08105,21.48145,21.08105z"/>
		</g>
		<g>
			<path fill="#E5E5E5" d="M30.62402,25.52832c-0.00879,1.44531-0.5625,2.32813-2.14844,2.32813
				c-0.9668,0-1.92383-0.43164-2.00879-1.46484h0.5918c0.13086,0.71387,0.75977,0.9668,1.41699,0.9668
				c1.08789,0,1.55762-0.64746,1.55762-1.83008v-0.65625h-0.01855c-0.27246,0.59082-0.84473,0.99414-1.53906,0.99414
				c-1.54883,0-2.18652-1.10742-2.18652-2.48633c0-1.33301,0.78809-2.44043,2.18652-2.44043
				c0.70313,0,1.30371,0.44141,1.53906,0.97656h0.01855v-0.83496h0.59082V25.52832z M30.0332,23.44531
				c0-0.94727-0.44141-2.00781-1.55762-2.00781c-1.12598,0-1.5957,1.00391-1.5957,2.00781c0,0.97559,0.50684,1.92383,1.5957,1.92383
				C29.49805,25.36914,30.0332,24.43066,30.0332,23.44531z"/>
		</g>
		<g>
			<path fill="#E5E5E5" d="M31.75293,21.08105h0.54395v0.81641h0.02832c0.30957-0.58203,0.81641-0.95801,1.58594-0.95801
				c0.6377,0,1.20996,0.31055,1.38867,0.94824c0.29102-0.6377,0.90039-0.94824,1.53906-0.94824
				c1.06055,0,1.60449,0.55371,1.60449,1.69922v3.28418h-0.59082v-3.25586c0-0.79785-0.30078-1.22949-1.14551-1.22949
				c-1.02246,0-1.31348,0.84473-1.31348,1.74512v2.74023h-0.59082v-3.28418c0.00879-0.65723-0.2627-1.20117-1.01367-1.20117
				c-1.02344,0-1.43555,0.76953-1.44531,1.78223v2.70313h-0.59082C31.75293,25.92286,31.75293,21.08105,31.75293,21.08105z"/>
		</g>
		<g>
			<path fill="#E5E5E5" d="M43.9082,23.50195c0,1.38867-0.80664,2.56152-2.29004,2.56152
				c-1.48242,0-2.28906-1.17285-2.28906-2.56152s0.80664-2.5625,2.28906-2.5625
				C43.10156,20.93945,43.9082,22.11328,43.9082,23.50195z M39.91992,23.50195c0,1.03223,0.56348,2.06445,1.69824,2.06445
				c1.13574,0,1.69922-1.03223,1.69922-2.06445s-0.56348-2.06445-1.69922-2.06445
				C40.4834,21.4375,39.91992,22.46973,39.91992,23.50195z"/>
		</g>
		<g>
			<path fill="#E5E5E5" d="M49.05273,25.92285h-0.54395v-0.91992h-0.01855c-0.25391,0.62891-1.02344,1.06055-1.72656,1.06055
				c-1.47363,0-2.17773-1.19141-2.17773-2.56152s0.7041-2.5625,2.17773-2.5625c0.72168,0,1.42578,0.36621,1.67969,1.06055h0.01855
				v-2.77734h0.59082C49.05273,19.22267,49.05273,25.92285,49.05273,25.92285z M46.76367,25.56641
				c1.25684,0,1.69824-1.06055,1.69824-2.06445s-0.44141-2.06445-1.69824-2.06445c-1.12695,0-1.58594,1.06055-1.58594,2.06445
				S45.63672,25.56641,46.76367,25.56641z"/>
		</g>
		<g>
			<path fill="#E5E5E5" d="M57.12695,23.50195c0,1.38867-0.80664,2.56152-2.29004,2.56152
				c-1.48242,0-2.28906-1.17285-2.28906-2.56152s0.80664-2.5625,2.28906-2.5625
				C56.32031,20.93945,57.12695,22.11328,57.12695,23.50195z M53.13867,23.50195c0,1.03223,0.56348,2.06445,1.69824,2.06445
				c1.13574,0,1.69922-1.03223,1.69922-2.06445s-0.56348-2.06445-1.69922-2.06445
				C53.70215,21.4375,53.13867,22.46973,53.13867,23.50195z"/>
		</g>
		<g>
			<path fill="#E5E5E5" d="M60.91113,22.49805c-0.02832-0.73242-0.5918-1.06055-1.2666-1.06055
				c-0.52637,0-1.14551,0.20605-1.14551,0.83496c0,0.52539,0.60059,0.71289,1.00391,0.81641l0.78906,0.17871
				c0.67578,0.10254,1.37891,0.49707,1.37891,1.3418c0,1.05078-1.04102,1.4541-1.94238,1.4541
				c-1.12598,0-1.89551-0.52539-1.98926-1.70801h0.59082c0.04688,0.79785,0.63867,1.21094,1.42676,1.21094
				c0.55371,0,1.32324-0.24414,1.32324-0.91992c0-0.5625-0.52539-0.75098-1.06055-0.88184l-0.75977-0.16895
				c-0.76953-0.20703-1.35156-0.46973-1.35156-1.29492c0-0.98535,0.9668-1.36133,1.82031-1.36133
				c0.9668,0,1.73633,0.50684,1.77344,1.55859C61.50195,22.49804,60.91113,22.49804,60.91113,22.49805z"/>
		</g>
		<g>
			<path fill="#E5E5E5" d="M65.94238,22.60059c-0.15918-0.72266-0.60059-1.16309-1.37012-1.16309
				c-1.13477,0-1.69824,1.03223-1.69824,2.06445s0.56348,2.06445,1.69824,2.06445c0.73242,0,1.33301-0.57227,1.4082-1.37988h0.59082
				c-0.15918,1.16406-0.91992,1.87695-1.99902,1.87695c-1.48242,0-2.28906-1.17285-2.28906-2.56152s0.80664-2.5625,2.28906-2.5625
				c1.03223,0,1.83008,0.55371,1.96191,1.66113h-0.59179V22.60059z"/>
		</g>
		<g>
			<path fill="#E5E5E5" d="M67.40918,19.22266h0.5918v0.94727h-0.5918V19.22266z M67.40918,21.08105h0.5918v4.8418h-0.5918V21.08105
				z"/>
		</g>
		<g>
			<path fill="#E5E5E5" d="M69.14648,19.22266h0.5918v6.7002h-0.5918V19.22266z"/>
		</g>
		<g>
			<path fill="#E5E5E5" d="M70.88379,19.22266h0.5918v6.7002h-0.5918V19.22266z"/>
		</g>
		<g>
			<path fill="#E5E5E5" d="M72.55566,22.56348c0.05664-1.13574,0.85352-1.62402,1.96094-1.62402
				c0.85449,0,1.7832,0.2627,1.7832,1.55859v2.57129c0,0.22461,0.1123,0.35645,0.34766,0.35645
				c0.06543,0,0.14063-0.01953,0.1875-0.03809v0.49805c-0.13184,0.02734-0.22559,0.03711-0.38477,0.03711
				c-0.60059,0-0.69434-0.33789-0.69434-0.84473h-0.01953c-0.41211,0.62891-0.83496,0.98535-1.76367,0.98535
				c-0.8916,0-1.62402-0.44141-1.62402-1.41699c0-1.36035,1.32324-1.40723,2.59961-1.55762
				c0.48828-0.05664,0.76074-0.12207,0.76074-0.65723c0-0.79688-0.57324-0.99414-1.26758-0.99414
				c-0.73145,0-1.27539,0.33789-1.29492,1.12598C73.14646,22.56348,72.55566,22.56348,72.55566,22.56348z M75.70898,23.27637
				h-0.01953c-0.07422,0.14063-0.33691,0.1875-0.49707,0.21582c-1.00391,0.17871-2.25195,0.16895-2.25195,1.11719
				c0,0.59082,0.52539,0.95703,1.0791,0.95703c0.90039,0,1.69824-0.57227,1.68945-1.52051V23.27637z"/>
		</g>
		<g>
			<path fill="#E5E5E5" d="M78.42285,21.08105h0.98535v0.49707h-0.98535v3.26563c0,0.38477,0.05664,0.61035,0.47949,0.6377
				c0.16895,0,0.33789-0.00879,0.50586-0.02734v0.50586c-0.17773,0-0.34668,0.01953-0.52539,0.01953
				c-0.78809,0-1.05957-0.2627-1.05078-1.08887v-3.3125H76.9873v-0.49707h0.84473v-1.45508h0.59082
				C78.42284,19.62598,78.42284,21.08105,78.42285,21.08105z"/>
		</g>
		<g>
			<path fill="#E5E5E5" d="M84.59961,23.50195c0,1.38867-0.80664,2.56152-2.29004,2.56152
				c-1.48242,0-2.28906-1.17285-2.28906-2.56152s0.80664-2.5625,2.28906-2.5625
				C83.79297,20.93945,84.59961,22.11328,84.59961,23.50195z M80.61133,23.50195c0,1.03223,0.56348,2.06445,1.69824,2.06445
				c1.13574,0,1.69922-1.03223,1.69922-2.06445s-0.56348-2.06445-1.69922-2.06445
				C81.1748,21.4375,80.61133,22.46973,80.61133,23.50195z"/>
		</g>
		<g>
			<path fill="#E5E5E5" d="M85.48438,21.08105h0.54395v1.13477h0.01855c0.30078-0.77832,0.95703-1.23828,1.83008-1.20117v0.5918
				c-1.07031-0.05664-1.80176,0.73145-1.80176,1.73535v2.58105h-0.59082V21.08105z"/>
		</g>
		<g>
			<g>
				<path fill="#E5E5E5" d="M47.09961,166.67969c-0.21973-0.39941-0.08008-0.89941,0.31055-1.12988l0,0
					c0.39941-0.21973,0.90918-0.08008,1.12988,0.32031l0,0c0.22949,0.38965,0.08984,0.89941-0.31055,1.12012l0,0
					c-0.12988,0.0791-0.26953,0.10938-0.41016,0.10938l0,0C47.5293,167.09961,47.25,166.9502,47.09961,166.67969z
					 M49.31934,165.5498c-0.11914-0.44043,0.15039-0.88965,0.59082-1.00977v0.00977
					c0.44922-0.12012,0.89941,0.15039,1.00977,0.58984l0,0c0.12012,0.44043-0.15039,0.90039-0.58984,1.00977l0,0l0,0l0,0
					c-0.07031,0.02051-0.14063,0.03027-0.20996,0.03027l0,0C49.75,166.17969,49.41016,165.92969,49.31934,165.5498z"/>
			</g>
			<g>
				<path fill="#E5E5E5" d="M45.84961,168.59961c-0.12012,0-0.21973-0.01953-0.32031-0.06934
					c-0.09961-0.04004-0.18945-0.10059-0.26953-0.18066c-0.16016-0.14941-0.24023-0.35938-0.24023-0.58008
					c0-0.10938,0.02051-0.21973,0.06055-0.31934c0.04004-0.10059,0.09961-0.19043,0.17969-0.27051
					c0.07031-0.07031,0.16016-0.13965,0.26953-0.17969c0.2002-0.08008,0.43066-0.08008,0.63086,0
					c0.09961,0.04004,0.18945,0.10938,0.26953,0.17969c0.08008,0.08008,0.13965,0.16992,0.17969,0.27051
					c0.04004,0.09961,0.06055,0.20996,0.06055,0.31934c0,0.2207-0.08008,0.43066-0.24023,0.58008
					C46.26953,168.50977,46.05957,168.59961,45.84961,168.59961z"/>
			</g>
		</g>
		<g>
			<g>
				<path fill="#E5E5E5" d="M54.14941,183.83984c-0.10938-0.4502,0.16016-0.90039,0.60059-1.00977l0,0l0,0l0,0
					c0.43945-0.11035,0.88965,0.14941,1.00977,0.59961l0,0c0.11035,0.44043-0.16016,0.88965-0.59961,1l0,0
					c-0.07031,0.02051-0.14063,0.03027-0.20996,0.03027l0,0C54.58984,184.45996,54.25,184.20996,54.14941,183.83984z
					 M56.5293,183.10938c-0.21973-0.39941-0.08984-0.89941,0.31055-1.11914l0,0c0,0,0,0,0-0.01074l0,0
					c0.40039-0.21973,0.91016-0.08008,1.12988,0.32031l0,0c0.23047,0.38965,0.08984,0.90039-0.30957,1.12988l0,0
					c-0.13086,0.07031-0.27051,0.10059-0.41016,0.10059l0,0C56.96973,183.53027,56.67969,183.37988,56.5293,183.10938z"/>
			</g>
			<g>
				<path fill="#E5E5E5" d="M59.22949,182.04004c-0.10938,0-0.21973-0.02051-0.31934-0.06055
					c-0.10059-0.04004-0.19043-0.10938-0.26074-0.17969c-0.08008-0.08008-0.13965-0.16992-0.17969-0.26953
					c-0.04004-0.10059-0.07031-0.21094-0.07031-0.32031c0-0.11035,0.03027-0.21973,0.07031-0.32031
					c0.04004-0.09961,0.09961-0.18945,0.17969-0.25977c0.07031-0.08008,0.16016-0.13965,0.26074-0.17969
					c0.30957-0.13086,0.67969-0.05078,0.90918,0.17969c0.07031,0.07031,0.13086,0.16016,0.18066,0.25977
					c0.04004,0.10059,0.05957,0.20996,0.05957,0.32031c0,0.10938-0.01953,0.21973-0.05957,0.32031
					c-0.04004,0.09961-0.10059,0.18945-0.18066,0.26953C59.66016,181.9502,59.45996,182.04004,59.22949,182.04004z"/>
			</g>
		</g>
		<g>
			<g>
				<path fill="#E5E5E5" d="M1.37012,24.21973c-0.2207,0-0.43066-0.08008-0.59082-0.24023
					c-0.14941-0.14941-0.23926-0.35938-0.23926-0.58008c0-0.10938,0.01953-0.21973,0.06934-0.31934
					c0.04004-0.10059,0.10059-0.19043,0.16992-0.27051C1.00977,22.58008,1.37988,22.5,1.68945,22.62988
					c0.10059,0.04004,0.19043,0.09961,0.27051,0.17969c0.06934,0.08008,0.12988,0.16992,0.17969,0.27051
					c0.04004,0.09961,0.06055,0.20996,0.06055,0.31934c0,0.2207-0.09082,0.43066-0.24023,0.58008
					c-0.08008,0.08008-0.16992,0.14063-0.27051,0.18066C1.58984,24.2002,1.47949,24.21973,1.37012,24.21973z"/>
			</g>
			<g>
				<path fill="#E5E5E5" d="M5.37988,23.39941c0-0.45996,0.37988-0.83008,0.83008-0.83008l0,0
					c0.45996,0,0.83008,0.37012,0.83008,0.83008l0,0c0,0.4502-0.37012,0.82031-0.83008,0.82031l0,0
					C5.75977,24.21973,5.37988,23.84961,5.37988,23.39941z"/>
			</g>
			<g>
				<path fill="#E5E5E5" d="M11.05957,24.21973c-0.21973,0-0.42969-0.08008-0.58984-0.24023
					c-0.08008-0.08008-0.13965-0.16992-0.17969-0.26953c-0.04004-0.10059-0.06055-0.2002-0.06055-0.31055
					c0-0.21973,0.08984-0.43945,0.24023-0.58984c0.08008-0.08008,0.16992-0.13965,0.27051-0.17969
					c0.19922-0.08008,0.42969-0.08008,0.62988,0c0.09961,0.04004,0.18945,0.09961,0.26953,0.17969
					c0.16016,0.15039,0.24023,0.37012,0.24023,0.58984c0,0.11035-0.02051,0.20996-0.06055,0.31055
					c-0.04004,0.09961-0.09961,0.18945-0.17969,0.26953s-0.16992,0.14063-0.26953,0.18066
					C11.26953,24.2002,11.16992,24.21973,11.05957,24.21973z"/>
			</g>
		</g>
		<g>
			<g>
				<path fill="#E5E5E5" d="M91.58008,24.21973c-0.11035,0-0.2207-0.01953-0.32031-0.05957s-0.19043-0.10059-0.26953-0.18066
					C90.83984,23.83008,90.75,23.62012,90.75,23.39941c0-0.10938,0.01953-0.21973,0.05957-0.31934
					c0.0498-0.10059,0.11035-0.19043,0.18066-0.27051c0.30957-0.30957,0.86914-0.30957,1.16992,0
					c0.15918,0.15039,0.23926,0.37012,0.23926,0.58984c0,0.2207-0.08008,0.43066-0.23926,0.58008
					c-0.0703,0.08009-0.16015,0.14064-0.26074,0.18068C91.7998,24.2002,91.68945,24.21973,91.58008,24.21973z"/>
			</g>
			<g>
				<path fill="#E5E5E5" d="M95.58984,23.39941c0-0.45996,0.37012-0.83008,0.83008-0.83008l0,0
					c0.45996,0,0.83008,0.37012,0.83008,0.83008l0,0c0,0.4502-0.37012,0.83008-0.83008,0.83008l0,0
					C95.95996,24.22949,95.58984,23.84961,95.58984,23.39941z"/>
			</g>
			<g>
				<path fill="#E5E5E5" d="M101.25977,24.22949c-0.11035,0-0.20996-0.0293-0.30957-0.06934
					c-0.10059-0.04004-0.19043-0.10059-0.27051-0.18066c-0.16016-0.16016-0.25-0.35938-0.25-0.58008
					c0-0.10938,0.03027-0.21973,0.07031-0.31934c0.04004-0.10059,0.09961-0.19043,0.17969-0.27051
					c0.23047-0.22949,0.59961-0.2998,0.90039-0.17969c0.09961,0.04004,0.18945,0.09961,0.26953,0.17969
					s0.14063,0.16992,0.17969,0.27051c0.04004,0.09961,0.06055,0.20996,0.06055,0.31934c0,0.2207-0.08008,0.43066-0.24023,0.58008
					c-0.08008,0.08008-0.16992,0.14063-0.26953,0.18066C101.47949,24.2002,101.37012,24.22949,101.25977,24.22949z"/>
			</g>
		</g>
	</g>
</g>
</svg>
