<?xml version="1.0" encoding="UTF-8" standalone="no"?>
<!-- Generator: Adobe Illustrator 23.0.3, SVG Export Plug-In . SVG Version: 6.00 Build 0)  -->

<svg
   xmlns:dc="http://purl.org/dc/elements/1.1/"
   xmlns:cc="http://creativecommons.org/ns#"
   xmlns:rdf="http://www.w3.org/1999/02/22-rdf-syntax-ns#"
   xmlns:svg="http://www.w3.org/2000/svg"
   xmlns="http://www.w3.org/2000/svg"
   xmlns:sodipodi="http://sodipodi.sourceforge.net/DTD/sodipodi-0.dtd"
   xmlns:inkscape="http://www.inkscape.org/namespaces/inkscape"
   version="1.0"
   id="Layer_1"
   x="0px"
   y="0px"
   viewBox="0 0 134.40001 485.66934"
   enable-background="new 0 0 105 380"
   xml:space="preserve"
   sodipodi:docname="Energy-DM.svg"
   width="35.560001mm"
   height="128.5mm"
   inkscape:version="0.92.3 (2405546, 2018-03-11)"><metadata
   id="metadata290"><rdf:RDF><cc:Work
       rdf:about=""><dc:format>image/svg+xml</dc:format><dc:type
         rdf:resource="http://purl.org/dc/dcmitype/StillImage" /><dc:title></dc:title></cc:Work></rdf:RDF></metadata><defs
   id="defs288" /><sodipodi:namedview
   pagecolor="#ffffff"
   bordercolor="#666666"
   borderopacity="1"
   objecttolerance="10"
   gridtolerance="10"
   guidetolerance="10"
   inkscape:pageopacity="0"
   inkscape:pageshadow="2"
   inkscape:window-width="1920"
   inkscape:window-height="1017"
   id="namedview286"
   showgrid="false"
   inkscape:document-units="mm"
   units="mm"
   fit-margin-top="0"
   fit-margin-left="0"
   fit-margin-right="0"
   fit-margin-bottom="0"
   inkscape:zoom="0.62105263"
   inkscape:cx="67.199393"
   inkscape:cy="243.19783"
   inkscape:window-x="-8"
   inkscape:window-y="-8"
   inkscape:window-maximized="1"
   inkscape:current-layer="Layer_1" />
<g
   id="bg"
   transform="matrix(1.2799885,0,0,1.2799885,6.1063776e-4,-0.36315382)">
	
		<linearGradient
   id="SVGID_1_"
   gradientUnits="userSpaceOnUse"
   x1="-66.623627"
   y1="480.22623"
   x2="171.21405"
   y2="718.0639"
   gradientTransform="translate(0,-410)">
		<stop
   offset="0.38537"
   style="stop-color:#FFCC9E"
   id="stop2" />
		<stop
   offset="0.62112"
   style="stop-color:#F1AD8C"
   id="stop4" />
		<stop
   offset="0.85662"
   style="stop-color:#E6947E"
   id="stop6" />
		<stop
   offset="1"
   style="stop-color:#E28B79"
   id="stop8" />
	</linearGradient>
	<rect
   x="1.9999599"
   y="1.60264"
   width="100.59049"
   height="375.08487"
   id="rect11"
   style="fill:url(#SVGID_1_)" />
	<g
   id="g107">
		<path
   d="M 77.29883,58.59418 66.33252,53.34394 c -0.7312,1.72968 -1.79297,3.35303 -3.20264,4.76263 -0.2981,0.29816 -0.61157,0.5708 -0.92773,0.83862 l 15.09668,7.15326 z"
   id="path13"
   inkscape:connector-curvature="0"
   style="fill:#252626" />
		<path
   d="m 86.26758,72.0083 -7.46875,-3.53894 v 7.12714 c 2.8269,0.99774 5.3728,2.59113 7.46875,4.65125 z"
   id="path15"
   inkscape:connector-curvature="0"
   style="fill:#252626" />
		<polygon
   points="55.01172,72.52539 52.18555,72.52539 52.18555,71.26172 54.71289,71.26172 54.71289,69.6543 52.18555,69.6543 52.18555,69.08789 55.07617,69.08789 55.07617,67.50781 50.56836,67.50781 50.56836,74.12402 55.01172,74.12402 "
   id="polygon17"
   style="fill:#252626" />
		<path
   d="M 41.91675,58.10657 C 40.62293,56.81275 39.63184,55.33539 38.90967,53.7649 l -6.57373,3.14697 v 7.06055 l 10.50171,-5.02325 c -0.31494,-0.26704 -0.62378,-0.54542 -0.9209,-0.8426 z"
   id="path19"
   inkscape:connector-curvature="0"
   style="fill:#252626" />
		<path
   d="m 83.33008,116.39984 c 1.89014,-2.81378 2.9375,-6.15198 2.9375,-9.54437 V 82.44922 c -2.00293,-2.3194 -4.56104,-4.13654 -7.46875,-5.2569 v 6.45178 c 2.79834,2.84387 4.53125,6.73932 4.53125,11.03461 z"
   id="path21"
   inkscape:connector-curvature="0"
   style="fill:#252626" />
		<path
   d="m 66.85059,51.92804 10.44824,5.0022 V 49.4209 c 0,-0.80566 -0.44824,-1.53027 -1.16895,-1.8916 L 66.7705,42.8429 c 0.96033,2.94665 0.99171,6.12634 0.08009,9.08514 z"
   id="path23"
   inkscape:connector-curvature="0"
   style="fill:#252626" />
		<path
   d="m 30.83594,57.62994 -6.38281,3.0556 C 23.72168,61.03515 23.25,61.78417 23.25,62.59374 v 5.72467 l 7.58594,-3.62854 c 0,0 0,-7.05993 0,-7.05993 z"
   id="path25"
   inkscape:connector-curvature="0"
   style="fill:#252626" />
		<path
   d="m 74.33105,123.13098 c 2.50317,-0.75433 4.81677,-2.12604 6.77539,-4.04797 0.255,-0.25024 0.48584,-0.52069 0.72363,-0.78534 V 94.67871 c 0,-3.30145 -1.13916,-6.33618 -3.03125,-8.7547 v 20.97345 c 0,4.0625 -1.73438,7.73792 -4.46777,10.29492 z"
   id="path27"
   inkscape:connector-curvature="0"
   style="fill:#252626" />
		<path
   d="m 37.85693,44.39343 -4.31787,2.06458 c -0.73047,0.34863 -1.20313,1.09766 -1.20313,1.9082 v 6.88171 l 6.0144,-2.87921 c -0.88158,-2.57299 -1.05077,-5.33166 -0.4934,-7.97528 z"
   id="path29"
   inkscape:connector-curvature="0"
   style="fill:#252626" />
		<polygon
   points="6.54004,296.22168 7.58496,296.63867 7.59668,295.83594 "
   id="polygon31"
   style="fill:#252626" />
		<polygon
   points="7.94141,324.96973 6.98535,325.56348 8.09375,325.75684 "
   id="polygon33"
   style="fill:#252626" />
		<path
   d="m 8.47168,304.31152 c -0.14258,0.0918 -0.19043,0.28906 -0.10156,0.42578 l 0.40137,0.625 0.52734,-0.33887 -0.40137,-0.62305 c -0.09277,-0.14452 -0.28223,-0.18065 -0.42578,-0.0889 z"
   id="path35"
   inkscape:connector-curvature="0"
   style="fill:#252626" />
		<path
   d="m 28.80005,143.56244 c 0,3.2251 -2.42493,5.87988 -5.55005,6.25128 v 3.55145 c 2.73218,0.11548 5.30957,0.83569 7.58594,2.0589 V 66.3526 L 23.25,69.98114 v 67.33002 c 3.12512,0.3714 5.55005,3.02618 5.55005,6.25128 z"
   id="path37"
   inkscape:connector-curvature="0"
   style="fill:#252626" />
		<polygon
   points="19.91406,362.02832 19.37402,363.01465 20.16797,363.12402 "
   id="polygon39"
   style="fill:#252626" />
		<path
   d="m 8.12012,315.09375 -0.33984,0.6582 0.55566,0.28711 0.33984,-0.6582 c 0.07813,-0.15234 0.01563,-0.33398 -0.13574,-0.41309 -0.15137,-0.0781 -0.34473,-0.0205 -0.41992,0.12598 z"
   id="path41"
   inkscape:connector-curvature="0"
   style="fill:#252626" />
		<path
   d="m 19.51563,140.1748 v 6.61621 H 21.125 v -3.66113 l 1.375,1.88672 c 0.38086,-0.53027 0.89063,-1.21777 1.38477,-1.88672 v 3.66113 h 1.59766 V 140.1748 H 24.05079 L 22.5,142.31152 20.94727,140.1748 Z"
   id="path43"
   inkscape:connector-curvature="0"
   style="fill:#252626" />
		<path
   d="m 21.75,149.81372 c -3.12512,-0.3714 -5.55005,-3.02618 -5.55005,-6.25128 0,-3.2251 2.42493,-5.87988 5.55005,-6.25128 V 70.69861 l -6.21191,2.97131 c -0.73047,0.34863 -1.20215,1.09766 -1.20215,1.9082 v 79.76306 c 2.23462,-1.16986 4.7489,-1.8634 7.41406,-1.97601 z"
   id="path45"
   inkscape:connector-curvature="0"
   style="fill:#252626" />
		<polygon
   points="96.50879,317.72656 97.34473,316.97266 96.21875,316.97852 "
   id="polygon47"
   style="fill:#252626" />
		<path
   d="m 31.29297,331.87109 c -0.5625,0.53809 -0.5957,1.41895 -0.07422,1.96289 0.51953,0.5459 1.40137,0.55273 1.96387,0.0156 l 0.46582,-0.44531 -1.88965,-1.97754 z"
   id="path49"
   inkscape:connector-curvature="0"
   style="fill:#252626" />
		<path
   d="m 69.42773,125.30176 c -4.4624,-0.0837 -8.53149,-1.8385 -11.64307,-4.63879 0.66882,0.85345 1.38574,1.67731 2.19482,2.43567 3.56653,3.34357 8.05322,5.25891 12.85156,5.59808 v -3.67908 c -1.00879,0.18146 -2.03491,0.28705 -3.0752,0.28705 -0.10936,0 -0.21873,-9.8e-4 -0.32811,-0.003 z"
   id="path51"
   inkscape:connector-curvature="0"
   style="fill:#252626" />
		<path
   d="m 97.69043,327.67578 c 0.16309,0.0508 0.34277,-0.041 0.3916,-0.19727 l 0.2168,-0.70898 -0.59766,-0.18359 -0.21777,0.70898 c -0.04981,0.16211 0.04394,0.33203 0.20703,0.38086 z"
   id="path53"
   inkscape:connector-curvature="0"
   style="fill:#252626" />
		<path
   d="m 77.29883,82.31146 v -5.63031 c -1.65723,-0.4809 -3.40271,-0.75244 -5.21289,-0.75244 -5.41431,0 -10.2854,2.3205 -13.71118,6.00293 2.59302,-1.87866 5.7688,-3 9.20825,-3 3.66675,0 7.0365,1.27026 9.71582,3.37982 z"
   id="path55"
   inkscape:connector-curvature="0"
   style="fill:#252626" />
		<path
   d="m 65.29883,120.81738 c -2.771,0 -5.40735,-0.83771 -7.64246,-2.38245 2.95471,3.21344 7.14417,5.27972 11.79871,5.36682 1.14673,0.0234 2.2749,-0.0837 3.37598,-0.30029 v -5.08136 c -2.09045,1.46393 -4.58984,2.34576 -7.27734,2.39532 -0.08497,9.9e-4 -0.16993,0.002 -0.25489,0.002 z"
   id="path57"
   inkscape:connector-curvature="0"
   style="fill:#252626" />
		<path
   d="m 90.7373,283.33398 -0.32031,0.53711 0.6377,0.37891 c 0.14648,0.0879 0.33203,0.0352 0.41895,-0.10938 0.08789,-0.14648 0.04199,-0.34375 -0.09863,-0.42773 z"
   id="path59"
   inkscape:connector-curvature="0"
   style="fill:#252626" />
		<polygon
   points="96.04102,291.33008 96.81543,290.51367 95.69336,290.60742 "
   id="polygon61"
   style="fill:#252626" />
		<path
   d="m 74.33105,115.02399 c 1.84009,-2.1875 2.96777,-5.03009 2.96777,-8.12653 V 84.28802 c -2.5481,-2.38409 -5.95947,-3.85638 -9.71582,-3.85638 -4.2655,0 -8.08911,1.89398 -10.70239,4.87408 1.77966,-1.18164 3.91089,-1.87408 6.20239,-1.87408 6.20215,0 11.24805,5.0459 11.24805,11.24707 z"
   id="path63"
   inkscape:connector-curvature="0"
   style="fill:#252626" />
		<path
   d="m 92.33398,118.21509 c 1.90344,-3.28137 3.01172,-7.10797 3.01172,-11.1897 V 77.64746 c 0,-0.80957 -0.47168,-1.55762 -1.20215,-1.90723 l -6.37598,-3.02118 v 9.16827 c 2.85205,3.49011 4.56836,7.94299 4.56836,12.79138 z"
   id="path65"
   inkscape:connector-curvature="0"
   style="fill:#252626" />
		<path
   d="m 83.33008,126.69934 c 2.94592,-1.44641 5.50903,-3.58508 7.50366,-6.2088 l 0.0022,-25.81183 c 0,-3.7821 -1.13452,-7.30005 -3.06836,-10.24884 v 22.4256 c 0,4.37811 -1.60327,8.66986 -4.4375,12.02472 z"
   id="path67"
   inkscape:connector-curvature="0"
   style="fill:#252626" />
		<path
   d="m 83.33008,128.33545 v 8.97485 c 3.12793,0.36884 5.55566,3.02509 5.55566,6.25214 0,3.22705 -2.42773,5.8833 -5.55566,6.25214 v 3.55463 c 2.70044,0.12634 5.24805,0.8429 7.50073,2.05249 l 0.0027,-32.57819 c -2.0896,2.33123 -4.64356,4.20245 -7.50342,5.49194 z"
   id="path69"
   inkscape:connector-curvature="0"
   style="fill:#252626" />
		<path
   d="m 76.28564,143.56244 c 0,-3.22314 2.422,-5.87646 5.54443,-6.25043 v -8.35522 c -1.8938,0.6889 -3.8999,1.13446 -5.99219,1.26978 -0.50513,0.033 -1.00732,0.0494 -1.50684,0.0496 v 17.67603 7.39136 c 2.2583,-1.18311 4.80225,-1.88062 7.49902,-1.98242 v -3.54822 c -3.12242,-0.37398 -5.54442,-3.0273 -5.54442,-6.25044 z"
   id="path71"
   inkscape:connector-curvature="0"
   style="fill:#252626" />
		<path
   d="m 75.74023,128.73047 c 2.1366,-0.13837 4.17896,-0.61835 6.08984,-1.37238 v -6.91241 c -2.17737,2.04004 -4.7395,3.47357 -7.49902,4.22845 v 4.07507 c 0.46875,5.6e-4 0.93616,0.0111 1.40918,-0.0187 z"
   id="path73"
   inkscape:connector-curvature="0"
   style="fill:#252626" />
		<path
   d="m 86.26758,64.2207 c 0,-0.80957 -0.47168,-1.55859 -1.20215,-1.9082 l -6.2666,-3.00018 v 7.49683 l 7.46875,3.53888 z"
   id="path75"
   inkscape:connector-curvature="0"
   style="fill:#252626" />
		<path
   d="m 85.53809,145.29492 -1.27344,-0.93848 c -0.52051,0.6875 -1.03125,0.92871 -1.60742,0.92871 -1.03125,0 -1.84961,-0.81738 -1.84961,-1.84863 0,-1.02246 0.81836,-1.84961 1.84961,-1.84961 0.57617,0 1.10547,0.2793 1.62598,0.97559 l 1.29199,-0.94727 c -0.82715,-1.10645 -1.82129,-1.61719 -2.91797,-1.61719 -1.89551,0 -3.44727,1.54297 -3.44727,3.43848 0,1.89551 1.55176,3.44727 3.44727,3.44727 1.07812,0 2.05371,-0.4834 2.88086,-1.58887 z"
   id="path77"
   inkscape:connector-curvature="0"
   style="fill:#252626" />
		<path
   d="m 43.19141,134.41406 c 0.55566,-0.56836 0.54688,-1.4873 -0.02734,-2.04785 -0.57715,-0.56543 -1.49609,-0.55469 -2.05273,0.0147 -0.55664,0.56836 -0.5459,1.48633 0.03125,2.05176 0.57323,0.56054 1.49218,0.5498 2.04882,-0.0186 z"
   id="path79"
   inkscape:connector-curvature="0"
   style="fill:#252626" />
		<path
   d="m 74.2666,358.72754 -1.53809,2.25684 0.53125,0.36133 c 0.6416,0.4375 1.50781,0.28613 1.93164,-0.33496 0.42383,-0.62207 0.24805,-1.4834 -0.39355,-1.9209 z"
   id="path81"
   inkscape:connector-curvature="0"
   style="fill:#252626" />
		<path
   d="m 82.23828,361.56348 c -0.79395,-0.0449 -1.47949,0.56738 -1.52441,1.37402 -0.04492,0.80078 0.56836,1.48633 1.3623,1.53125 0.79395,0.043 1.47852,-0.56934 1.52344,-1.36914 0.0459,-0.80664 -0.56641,-1.49121 -1.36133,-1.53613 z"
   id="path83"
   inkscape:connector-curvature="0"
   style="fill:#252626" />
		<path
   d="m 54.6416,311.69141 c -0.03516,-0.80469 -0.71289,-1.42383 -1.50781,-1.38867 -0.79395,0.0352 -1.41309,0.71094 -1.37695,1.51953 0.03516,0.79883 0.71191,1.41797 1.50684,1.38281 0.79394,-0.0352 1.41308,-0.71289 1.37792,-1.51367 z"
   id="path85"
   inkscape:connector-curvature="0"
   style="fill:#252626" />
		<polygon
   points="72.41797,332.0918 71.94238,333.10938 72.97559,332.66797 "
   id="polygon87"
   style="fill:#252626" />
		<path
   d="m 69.39648,327.61719 c -0.68066,0.32129 -0.9668,1.15332 -0.63574,1.85645 l 0.27441,0.58203 2.47168,-1.16309 -0.27344,-0.58203 c -0.33105,-0.70313 -1.15526,-1.01367 -1.83691,-0.69336 z"
   id="path89"
   inkscape:connector-curvature="0"
   style="fill:#252626" />
		<polygon
   points="37.17773,324.9375 36.20117,324.38086 36.0791,325.17383 "
   id="polygon91"
   style="fill:#252626" />
		<path
   d="m 68.95313,351.04492 c 0.16699,-0.0342 0.28125,-0.20117 0.24805,-0.36133 l -0.15039,-0.72559 -0.61133,0.12695 0.14941,0.72461 c 0.03418,0.167 0.19824,0.26954 0.36426,0.23536 z"
   id="path93"
   inkscape:connector-curvature="0"
   style="fill:#252626" />
		<path
   d="m 68.45508,322.98535 c -0.74902,0.085 -1.28711,0.7832 -1.19922,1.55566 l 0.07422,0.64063 2.7168,-0.31152 -0.07324,-0.63965 c -0.0879,-0.77246 -0.76954,-1.33106 -1.51856,-1.24512 z"
   id="path95"
   inkscape:connector-curvature="0"
   style="fill:#252626" />
		<path
   d="M 0,0 V 380 H 105 V 0 Z m 100.60938,345.67773 -3.49219,0.45215 0.13672,1.05371 -0.79492,0.10254 -0.37695,-2.91309 0.79492,-0.10352 0.13574,1.05371 3.49121,-0.45117 z M 84.16113,238.09766 c -0.45508,-0.0518 -0.78125,-0.46289 -0.72949,-0.91699 0.05176,-0.45508 0.46484,-0.79004 0.91699,-0.72949 8.9209,1.01953 15.64844,8.56348 15.64844,17.54883 0,3.41406 -0.97461,6.72656 -2.81934,9.58008 -0.1582,0.24512 -0.4248,0.37793 -0.69629,0.37793 -0.1543,0 -0.30957,-0.043 -0.44922,-0.13281 -0.38379,-0.24805 -0.49414,-0.76074 -0.24512,-1.14551 1.66992,-2.58398 2.55371,-5.58496 2.55371,-8.67969 10e-6,-8.14259 -6.09667,-14.97853 -14.17968,-15.90235 z m -15.41211,24.40332 c 0.24316,0.3877 0.12598,0.89844 -0.26172,1.14258 -0.13672,0.085 -0.28906,0.12598 -0.43945,0.12598 -0.27539,0 -0.54492,-0.13672 -0.70313,-0.3877 C 65.583,260.57422 64.65234,257.33008 64.65234,254 c 0,-8.98633 6.72754,-16.53027 15.65039,-17.54883 0.44336,-0.0596 0.86426,0.27441 0.91699,0.72949 0.05176,0.4541 -0.27441,0.86523 -0.72949,0.91699 -8.08496,0.92286 -14.18164,7.7588 -14.18164,15.90235 0,3.01855 0.84375,5.95801 2.44043,8.50098 z M 21.83594,203.63843 h 1.5 V 221.375 c 0,0.31543 0.25879,0.57227 0.58887,0.58594 7.96484,0.3252 15.49512,3.5791 21.20508,9.16113 1.89648,1.85449 3.56055,3.9375 4.94531,6.18945 0.12598,0.2041 0.31738,0.25488 0.4209,0.26758 0.18945,0.0234 0.3584,-0.042 0.48633,-0.16895 l 29.58789,-29.57031 c 0.65332,-0.65332 1.0127,-1.52148 1.0127,-2.44434 v -1.75708 h 1.5 v 1.75708 c 0,1.32422 -0.51563,2.56836 -1.45215,3.50488 l -29.5879,29.57031 c -0.39648,0.39648 -0.92383,0.6123 -1.47461,0.6123 -0.08203,0 -0.16504,-0.005 -0.24902,-0.0146 -0.63379,-0.0742 -1.18848,-0.42871 -1.52148,-0.97168 -1.32031,-2.14746 -2.90723,-4.13281 -4.7168,-5.90234 -5.44336,-5.32227 -12.62402,-8.4248 -20.2168,-8.73535 -1.1377,-0.0459 -2.02832,-0.96094 -2.02832,-2.08398 0,10e-6 0,-17.73656 0,-17.73656 z m 45.30957,35.10473 c -0.14648,0.14648 -0.33887,0.21973 -0.53027,0.21973 -0.19238,0 -0.38379,-0.0732 -0.53027,-0.21973 -0.29297,-0.29297 -0.29297,-0.76758 0,-1.06055 4.4082,-4.40723 10.26855,-6.83496 16.50098,-6.83496 2.56836,0 5.0791,0.40625 7.46387,1.20801 0.18652,0.0635 0.38672,0.0342 0.54688,-0.0791 0.08984,-0.0644 0.23926,-0.21094 0.23926,-0.46973 V 186.5921 c -2.36646,1.26886 -5.00732,1.96344 -7.75293,2.05237 v 5.39532 h -1.5 v -5.41162 c -2.56226,-0.13068 -5.02466,-0.79114 -7.25195,-1.95508 v 15.18823 c 0,1.33203 -0.54883,2.62793 -1.50488,3.55566 l -13.81641,13.40234 c -0.40234,0.40234 -0.92773,0.60449 -1.45703,0.60449 -0.51953,0 -1.04199,-0.19434 -1.4541,-0.58594 -6.64624,-6.30402 -14.84741,-10.56635 -23.76123,-12.3772 l 4.9e-4,7.17993 c 0,0.26465 0.18652,0.49707 0.45313,0.56543 7.15527,1.82129 13.71289,5.55957 18.96289,10.80957 0.29297,0.29297 0.29297,0.76758 0,1.06055 -0.14648,0.14648 -0.33789,0.21973 -0.53027,0.21973 -0.19238,0 -0.38379,-0.0732 -0.53027,-0.21973 -5.05957,-5.05957 -11.37793,-8.66211 -18.27148,-10.41699 -0.93262,-0.23633 -1.58398,-1.06641 -1.58398,-2.01855 l -0.0015,-27.04883 c -2.2937,1.22992 -4.8457,1.91693 -7.50049,2.04034 v 5.40765 h -1.5 v -5.39929 c -2.65137,-0.0978 -5.20081,-0.76447 -7.5,-1.96509 v 44.83142 c 0,0.25879 0.15039,0.40527 0.23926,0.46973 0.1582,0.11426 0.35742,0.14453 0.5459,0.0791 2.38477,-0.80176 4.89551,-1.20801 7.46484,-1.20801 6.23242,0 12.09277,2.42773 16.50098,6.83496 0.11548,0.11542 0.17188,0.26099 0.19641,0.41064 0.01013,0.009 0.02332,0.0129 0.03308,0.023 4.1543,4.34766 6.44141,10.05371 6.44141,16.06738 0,2.42578 -0.37207,4.81836 -1.10742,7.10938 -0.10938,0.34277 0.0752,0.71777 0.4209,0.85645 l 7.70605,3.06445 c 0.38477,0.15332 0.57227,0.58984 0.41992,0.97461 -0.11719,0.29395 -0.39941,0.47266 -0.69727,0.47266 -0.09277,0 -0.18652,-0.0166 -0.27734,-0.0527 l -7.70605,-3.06543 c -1.07617,-0.42871 -1.64453,-1.61816 -1.29395,-2.70801 0.68652,-2.14258 1.03516,-4.38086 1.03516,-6.65137 0,-5.62598 -2.13965,-10.96387 -6.02539,-15.03027 -0.10767,-0.11285 -0.15955,-0.25226 -0.18359,-0.39526 -0.0068,-0.006 -0.01587,-0.008 -0.02246,-0.0149 -4.125,-4.12402 -9.6084,-6.39551 -15.44043,-6.39551 -2.40625,0 -4.75684,0.37988 -6.98633,1.12988 -0.64355,0.2168 -1.35254,0.10938 -1.90039,-0.2832 -0.54883,-0.39453 -0.86328,-1.00977 -0.86328,-1.6875 v -45.71167 c -1.00854,-0.66156 -1.96008,-1.42542 -2.83301,-2.2981 -0.32324,-0.32324 -0.32324,-0.84766 0,-1.17188 0.32422,-0.32227 0.84766,-0.32422 1.17188,0 3.02539,3.02539 7.04785,4.69141 11.3252,4.69141 4.27735,0 8.2998,-1.66602 11.3252,-4.69141 0.32422,-0.32227 0.84766,-0.32227 1.17188,0 0.1084,0.10876 0.16699,0.24237 0.20264,0.3811 l 16.63037,14.36224 v -12.42749 c -2.47095,-0.18188 -4.76758,-1.23047 -6.52148,-3.01215 -0.29004,-0.2959 -0.28613,-0.77051 0.0088,-1.06055 0.29785,-0.29297 0.77051,-0.28516 1.06152,0.008 1.62793,1.65527 3.80273,2.58008 6.125,2.60352 0.07544,7.3e-4 0.1438,0.0237 0.2124,0.0451 0.34644,0.0661 0.61377,0.35669 0.61377,0.72247 v 13.35156 c 0,0.32819 -0.21411,0.59943 -0.50781,0.70111 0.1355,0.26385 0.10803,0.59375 -0.09766,0.83209 -0.14844,0.17188 -0.35742,0.25977 -0.56738,0.25977 -0.17383,0 -0.34863,-0.0596 -0.49023,-0.18262 L 34.42343,184.01728 c -0.66248,0.60773 -1.35278,1.17542 -2.08691,1.66925 l 9.8e-4,19.24438 c 9.30591,1.83069 17.86792,6.24982 24.79443,12.81903 0.23828,0.22656 0.60059,0.22559 0.8252,9.8e-4 l 13.82422,-13.41016 c 0.66699,-0.64746 1.0498,-1.55078 1.0498,-2.47949 v -16.06909 c -1.00684,-0.66089 -1.95654,-1.42389 -2.82813,-2.29517 -0.32324,-0.32324 -0.32324,-0.84766 0,-1.17188 0.32422,-0.32227 0.84766,-0.32422 1.17188,0 3.02539,3.02539 7.04785,4.69141 11.3252,4.69141 4.27735,0 8.2998,-1.66602 11.3252,-4.69141 0.32422,-0.32227 0.84766,-0.32227 1.17188,0 0.32324,0.32422 0.32324,0.84863 0,1.17188 -0.82385,0.82361 -1.7157,1.55396 -2.66113,2.18982 v 45.81995 c 0,0.67773 -0.31445,1.29297 -0.86328,1.6875 -0.54785,0.39258 -1.25781,0.49902 -1.90039,0.2832 -2.23047,-0.75 -4.58105,-1.12988 -6.98633,-1.12988 -5.83214,6e-5 -11.31554,2.27154 -15.44054,6.39556 z m -42.8086,-0.6455 c -0.45508,-0.0518 -0.78125,-0.46289 -0.72949,-0.91699 0.05273,-0.45508 0.47266,-0.79004 0.91699,-0.72949 8.9209,1.01953 15.64844,8.56348 15.64844,17.54883 0,3.41211 -0.97461,6.72461 -2.81836,9.5791 -0.15918,0.24609 -0.4248,0.37891 -0.69727,0.37891 -0.1543,0 -0.30957,-0.043 -0.44824,-0.13184 -0.38477,-0.24902 -0.49512,-0.76172 -0.24707,-1.14551 1.6709,-2.58594 2.55469,-5.58789 2.55469,-8.68066 0,-8.14259 -6.09668,-14.97853 -14.17969,-15.90235 z M 43.24023,85.7168 l 0.78516,-0.60254 0.09375,2.68555 1.30273,1.69531 -0.65039,0.5 -1.30273,-1.69629 -2.56934,-0.7832 0.79004,-0.60645 1.60742,0.48828 z m 6.94532,42.79492 1.75977,-0.21875 0.10059,0.80176 -1.75977,0.21875 0.1582,1.27734 1.96582,-0.24512 0.09863,0.7959 -2.77246,0.3457 -0.5332,-4.29102 2.82422,-0.35156 0.09863,0.7832 -2.01855,0.25098 z m 1.64453,29.46606 v -6.27661 c 0,-0.41406 0.33594,-0.75 0.75,-0.75 0.41406,0 0.75,0.33594 0.75,0.75 v 12.64221 c 2.43823,0.19946 4.70251,1.24573 6.43652,3.0072 0.29102,0.2959 0.28711,0.77051 -0.0078,1.06055 -0.14648,0.14453 -0.33594,0.21582 -0.52637,0.21582 -0.19434,0 -0.3877,-0.0752 -0.53418,-0.22363 -1.62573,-1.65112 -3.79395,-2.57458 -6.10864,-2.60248 -0.0034,6e-5 -0.0061,0.002 -0.0095,0.002 -0.31348,0 -0.58057,-0.19318 -0.69263,-0.46637 -0.01074,-0.0257 -0.009,-0.056 -0.01685,-0.0831 -0.01855,-0.0652 -0.04053,-0.12946 -0.04053,-0.20056 v -5.57501 c -2.44861,0.0746 -4.85217,0.73047 -6.97949,1.92365 -0.11621,0.0645 -0.24219,0.0957 -0.36621,0.0957 -0.2627,0 -0.51758,-0.1377 -0.65527,-0.38281 -0.20215,-0.36133 -0.07422,-0.81836 0.28711,-1.02148 2.35083,-1.31818 5.00916,-2.0398 7.71387,-2.115 z M 41.81055,106.83496 c -0.27344,-0.40234 -0.82422,-0.49805 -1.22656,-0.22461 l -2.23633,1.52344 -0.45898,-0.67285 2.23633,-1.52344 c 0.37305,-0.25391 0.82422,-0.34766 1.2627,-0.26367 0.44238,0.0869 0.8291,0.34082 1.08203,0.71289 0.52441,0.76758 0.3252,1.81641 -0.44434,2.33984 l -2.23633,1.52441 -0.45508,-0.66992 2.23633,-1.52246 c 0.40234,-0.27441 0.51171,-0.82812 0.24023,-1.22363 z m -2.24024,-5.10449 0.75977,-0.23242 0.88281,2.88574 -4.13477,1.26465 -0.23828,-0.77832 3.375,-1.03223 z m 0.96387,30.08496 c 0.875,-0.89355 2.30957,-0.90918 3.20313,-0.0352 0.89063,0.87012 0.90137,2.2998 0.02734,3.19434 -0.87109,0.89063 -2.30078,0.91016 -3.19043,0.0391 -0.89453,-0.875 -0.91016,-2.30859 -0.04004,-3.19824 z m 7.79102,0.0996 -1.22363,-2.62402 -0.37207,1.87891 -1.67383,-0.9248 1.22363,2.62402 -0.73242,0.34277 -1.83203,-3.92578 0.68848,-0.32129 1.74707,0.96387 0.38184,-1.95801 0.69434,-0.32422 1.83301,3.92578 z m -3.87403,-17.78027 -0.61621,-0.44531 -0.0068,-1.99316 -1.89355,0.61816 -0.62012,-0.44922 2.53516,-3.50391 0.6543,0.47266 -1.69531,2.34375 1.82129,-0.58887 0.0068,1.91016 1.69434,-2.34473 0.65527,0.47461 z m -2.54004,-22.24024 1.35547,-1.73926 0.62793,0.49023 -1.85645,2.37891 -3.40918,-2.66016 0.5,-0.64063 z m -3.14062,0.38477 c 0.56934,0.2334 0.83398,0.88574 0.60254,1.4541 l -0.28125,0.68652 1.9541,0.79785 -0.30566,0.74805 -4.00781,-1.63574 0.58594,-1.43555 c 0.11133,-0.27539 0.32422,-0.49023 0.60156,-0.60742 0.27538,-0.11133 0.57421,-0.12109 0.85058,-0.0078 z m 1.75195,4.77929 -0.13379,0.80176 -4.26172,-0.70605 0.13281,-0.80176 z m -3.82422,1.92481 0.06348,1.06348 3.52051,-0.21094 0.04883,0.8125 -3.52051,0.21191 0.0625,1.0625 -0.80078,0.0478 -0.17578,-2.93848 z m 0.07715,39.05176 1.94238,-0.4375 -1.01172,-1.71484 0.30371,-0.70313 3.96973,1.7168 -0.32031,0.74121 -2.6543,-1.14746 0.96777,1.65039 -1.8623,0.41797 2.6543,1.14844 -0.32129,0.74121 -3.96875,-1.7168 z m 59.91602,184.17773 1.52344,-1.14844 -2.88965,0.0449 -0.0127,-0.80664 4.32227,-0.0703 0.01172,0.75977 -1.58984,1.19727 1.62695,1.14648 0.0127,0.76367 -4.32129,0.0703 -0.01367,-0.80664 2.88965,-0.0488 z m -0.26758,-15.23047 -0.65039,0.9668 -0.35938,-2.15234 -3.46387,0.0918 0.56543,-0.83984 2.77148,-0.0742 -0.15723,-0.94141 -1.33008,-0.89453 0.4502,-0.66992 3.58691,2.41211 -0.45117,0.66992 -1.34473,-0.9043 z m 1.3623,-4.04883 -0.31152,-0.74609 0.13965,-0.0605 c 0.4248,-0.17773 0.7334,-0.53906 0.84473,-0.99414 0.19141,-0.7793 -0.28418,-1.57227 -1.06348,-1.76367 -0.78613,-0.19336 -1.58008,0.28711 -1.77148,1.06836 -0.10938,0.44727 -0.0039,0.91211 0.28906,1.27148 l 0.09082,0.11719 -0.61426,0.51367 -0.09473,-0.125 c -0.22754,-0.27344 -0.38184,-0.58789 -0.45996,-0.93164 -0.08008,-0.33984 -0.07422,-0.69531 0.0098,-1.03711 0.07227,-0.29492 0.20215,-0.57227 0.38184,-0.81445 0.17578,-0.23242 0.39258,-0.42969 0.64258,-0.58203 0.25195,-0.15625 0.52734,-0.25781 0.81934,-0.29883 0.2998,-0.0527 0.59863,-0.041 0.89941,0.0332 1.21094,0.29688 1.95313,1.53125 1.65625,2.74219 -0.08398,0.3418 -0.25,0.66406 -0.47754,0.92773 -0.22168,0.26367 -0.51855,0.48047 -0.83984,0.61328 z m -2.36328,-5.38086 -0.08789,-0.77734 2.60449,-2.22461 -2.81934,0.31641 -0.09082,-0.80859 4.29688,-0.48242 0.08887,0.7832 -2.59863,2.21875 2.8125,-0.31641 0.0918,0.80859 z m 2.40918,-7.9414 0.31836,0.66406 -3.1748,3.38086 -0.37988,-0.78711 0.85938,-0.90625 -0.62109,-1.29297 -1.24707,0.10156 -0.37598,-0.7832 z m -4.21191,-0.30469 -0.5752,0.55078 -2.08691,-2.18164 3.125,-2.99023 0.56348,0.58789 -2.55078,2.43945 z m -1.44629,-4.75 c -0.31348,0.52734 -0.99902,0.69336 -1.52637,0.37695 l -0.6377,-0.37695 -1.0791,1.8125 -0.69434,-0.41406 2.21289,-3.7207 1.33301,0.79492 c 0.25586,0.15039 0.43652,0.39258 0.51074,0.68555 0.06934,0.28906 0.03321,0.58593 -0.11913,0.84179 z m 0.93066,47.48926 c 0.27344,-0.36719 0.79199,-0.44336 1.15918,-0.1709 0.36719,0.27344 0.44336,0.79199 0.1709,1.15918 l -11.09668,14.91699 c -0.16309,0.21875 -0.41309,0.33398 -0.66602,0.33398 -0.17188,0 -0.34473,-0.0527 -0.49316,-0.16309 -0.36719,-0.27344 -0.44336,-0.79199 -0.1709,-1.15918 z m 1.00098,-15.07129 -0.31445,-0.81055 4.63867,-0.01 0.26563,0.68555 -3.43262,3.12109 -0.31641,-0.81641 0.92871,-0.83398 -0.51855,-1.33789 z m 1.05664,7.98633 4.13477,1.26953 -0.4541,1.48242 c -0.08691,0.2832 -0.28027,0.51563 -0.5459,0.6582 -0.26367,0.13477 -0.56055,0.16992 -0.8457,0.084 -0.58594,-0.18164 -0.90918,-0.80664 -0.72852,-1.39258 l 0.2168,-0.71094 -2.01563,-0.61719 z M 74.55957,7.17578 l 1.5127,2.11035 1.51367,-2.11035 h 2.3418 l -2.89355,4.05469 v 3.81152 h -1.92285 v -3.81152 c -0.80664,-1.1377 -2.14258,-2.97168 -2.90527,-4.05469 0,0 2.3535,0 2.3535,0 z M 66.20898,6.93359 c 1.10449,0 2.14355,0.43066 2.91602,1.21484 L 69.49023,8.52441 68.12012,9.7168 67.7998,9.4082 C 67.36914,8.98828 66.80566,8.75586 66.20898,8.75586 c -1.25977,0 -2.28711,1.02734 -2.28711,2.28711 0,1.27051 1.02734,2.29785 2.28711,2.29785 0.60742,0 1.16016,-0.23242 1.59082,-0.65234 V 11.7168 H 65.7666 V 9.89355 h 3.85547 v 3.44727 l -0.08789,0.13281 c -0.7959,1.06055 -2.04395,1.68945 -3.3252,1.68945 -2.26465,0 -4.10938,-1.84473 -4.10938,-4.12012 10e-6,-2.26464 1.84474,-4.10937 4.10938,-4.10937 z M 53.24121,7.17578 H 56.125 c 0.57422,0 1.11523,0.23242 1.51367,0.62988 0.39746,0.40918 0.62988,1.02734 0.62988,1.60254 0,0.75098 -0.36523,1.48047 -0.9502,1.85547 l 2.86133,3.77832 H 57.89257 L 55.28515,11.63965 H 55.1084 v 3.40234 h -1.86719 c 0,0 0,-7.86621 0,-7.86621 z m -8.93457,0 h 5.3584 v 1.87891 h -3.43555 v 0.67383 h 3.00391 v 1.91113 h -3.00391 v 1.50195 h 3.35742 v 1.90039 h -5.28027 c 0,0 0,-7.86621 0,-7.86621 z m -10.31641,0 h 1.75684 l 2.81641,4.1875 v -4.1875 h 1.92285 v 7.86621 h -1.74512 l -2.82813,-4.20898 v 4.20898 h -1.92285 z m -8.99023,0 h 5.3584 v 1.87891 h -3.43555 v 0.67383 h 3.00391 v 1.91113 h -3.00391 v 1.50195 h 3.35742 v 1.90039 H 25 Z M 12.83594,156.22156 V 75.57813 c 0,-1.38477 0.80664,-2.66504 2.05566,-3.26172 L 21.75,69.0359 v -6.44214 c 0,-1.38379 0.80664,-2.66309 2.05469,-3.26172 l 7.03125,-3.36603 v -7.59979 c 0,-1.38477 0.80762,-2.66504 2.05664,-3.26172 l 5.51501,-2.63702 c 0.72314,-2.03339 1.88159,-3.94653 3.50916,-5.5741 5.85791,-5.85785 15.35535,-5.85785 21.21313,0 1.15503,1.15497 2.07336,2.45465 2.77295,3.83685 l 10.89893,5.45728 c 1.23145,0.61719 1.99707,1.85645 1.99707,3.2334 v 8.22748 l 6.91504,3.31061 c 1.24805,0.59863 2.05371,1.87891 2.05371,3.26172 v 6.83807 l 7.02148,3.32697 c 1.25,0.59863 2.05664,1.87891 2.05664,3.26172 v 29.37793 c 0,5.21307 -1.68335,10.04443 -4.51196,13.94385 l -0.0029,35.35371 c 4.72534,3.17535 7.84204,8.56818 7.84204,14.67706 0,3.41309 -0.97461,6.72559 -2.82031,9.58008 -0.1582,0.24512 -0.4248,0.37793 -0.69629,0.37793 -0.1543,0 -0.30957,-0.043 -0.44922,-0.13281 -0.38379,-0.24805 -0.49414,-0.76074 -0.24512,-1.14551 1.6709,-2.58496 2.55469,-5.58594 2.55469,-8.67969 0,-8.83105 -7.18555,-16.0166 -16.0166,-16.0166 -8.83105,0 -16.0166,7.18552 -16.0166,16.01657 0,3.01855 0.84375,5.95801 2.44043,8.50098 0.24414,0.3877 0.12695,0.89844 -0.26074,1.1416 -0.3877,0.24219 -0.89941,0.12695 -1.1416,-0.26074 -1.7627,-2.80664 -2.69434,-6.05078 -2.69434,-9.38184 0,-4.23389 1.49927,-8.12238 3.99109,-11.16907 L 52.12988,144.9834 c -0.30957,-0.27539 -0.33789,-0.75 -0.0625,-1.05859 0.27637,-0.31152 0.75098,-0.33691 1.05859,-0.0625 l 16.69507,14.8537 c 0.90771,-0.93665 1.91553,-1.77283 3.01001,-2.49146 v -8.2724 -17.74512 c -5.18262,-0.33728 -10.02832,-2.4057 -13.87793,-6.01367 -4.14392,-3.88446 -6.66162,-9.23444 -7.05615,-14.86926 -0.07556,-0.66351 -0.12354,-1.33453 -0.12354,-2.01648 0,-0.41406 0.33594,-0.75 0.75,-0.75 0.10864,0 0.21045,0.0253 0.30371,0.067 0.2782,0.10962 0.47656,0.37769 0.47656,0.69476 0,0.12964 0.01489,0.25659 0.01904,0.38556 0.0019,0.0227 0.01318,0.0424 0.01318,0.0656 0,0.29138 0.03198,0.57629 0.04358,0.86548 0.29736,2.74506 1.51709,5.28137 3.51697,7.24585 2.31641,2.27344 5.36816,3.51074 8.62988,3.43359 2.75964,-0.0507 5.29517,-1.09338 7.30469,-2.78467 V 94.67871 c 0,-5.375 -4.37305,-9.74707 -9.74805,-9.74707 -5.03906,0 -9.19666,3.84259 -9.69666,8.75177 -0.01746,0.33167 -0.05042,0.65936 -0.05042,0.9953 0,0.41406 -0.33594,0.75 -0.75,0.75 -0.41406,0 -0.75,-0.33594 -0.75,-0.75 0,-0.38757 0.01978,-0.77063 0.05811,-1.14825 0.60059,-10.6308 9.41345,-19.10175 20.19189,-19.10175 1.80493,0 3.54639,0.26001 5.21289,0.70514 V 67.75861 L 60.85861,59.96857 c -2.31372,1.55023 -4.96362,2.37585 -7.63989,2.50043 v 2.1261 c 3.18213,0.31757 5.66699,3.00226 5.66699,6.26801 0,3.47937 -2.82056,6.29999 -6.30005,6.29999 -3.47937,0 -6.30005,-2.82062 -6.30005,-6.29999 0,-3.18451 2.36511,-5.81006 5.43311,-6.23346 v -2.16663 c -2.6394,-0.14001 -5.24561,-0.96936 -7.52808,-2.49823 L 32.3359,65.63515 v 90.69093 c 4.72266,3.17584 7.83691,8.5672 7.83691,14.67395 0,3.41309 -0.97461,6.72559 -2.82031,9.58008 -0.1582,0.24512 -0.4248,0.37793 -0.69629,0.37793 -0.1543,0 -0.30957,-0.043 -0.44922,-0.13281 -0.38379,-0.24805 -0.49414,-0.76074 -0.24512,-1.14551 1.6709,-2.58496 2.55469,-5.58594 2.55469,-8.67969 0,-8.83105 -7.18555,-16.0166 -16.0166,-16.0166 -8.83105,0 -16.01656,7.18552 -16.01656,16.01657 0,3.01855 0.84375,5.95801 2.44043,8.50098 0.24414,0.3877 0.12695,0.89844 -0.26074,1.1416 -0.38867,0.24316 -0.89941,0.12598 -1.1416,-0.26074 C 5.75879,177.5752 4.82715,174.33105 4.82715,171 c 0,-6.17859 3.1925,-11.61829 8.00879,-14.77844 z m 40.32812,-25.08972 0.8252,-4.24609 0.77441,0.15137 1.33984,3.14258 0.53906,-2.77832 0.79883,0.15527 -0.8252,4.24609 -0.76953,-0.14941 -1.34277,-3.15137 -0.54102,2.78516 z m 5.65918,-2.18555 0.38672,-0.7041 2.5791,1.41602 -0.38477,0.7041 -0.93359,-0.5127 -1.69727,3.09277 -0.71387,-0.3916 1.69727,-3.09277 z m 2.94727,5.41504 c 0.3418,0.3457 0.90039,0.33984 1.24512,-0.002 l 1.92188,-1.90039 0.57227,0.57813 -1.9209,1.90137 c -0.32031,0.31543 -0.74609,0.49023 -1.19238,0.4873 -0.4502,-0.006 -0.875,-0.18457 -1.19141,-0.50391 -0.6543,-0.66016 -0.64844,-1.72656 0.0127,-2.37891 l 1.9209,-1.90234 0.56738,0.57422 -1.9209,1.90137 c -0.34572,0.34179 -0.35255,0.90526 -0.01466,1.24511 z m 6.3125,3.24805 0.32031,0.69434 -3.92383,1.80957 -0.33887,-0.73242 2.62402,-1.21094 -1.87305,-0.37891 0.92969,-1.66504 -2.62305,1.20996 -0.33789,-0.73242 3.92285,-1.81055 0.31836,0.68848 -0.96973,1.7373 z m -47.60547,98.84179 c 0.4375,-0.0596 0.86426,0.27441 0.91699,0.72949 0.05176,0.4541 -0.27441,0.86523 -0.72949,0.91699 -8.08399,0.92286 -14.18066,7.7588 -14.18066,15.90235 0,3.01855 0.84375,5.95801 2.44043,8.50098 0.24316,0.3877 0.12598,0.89844 -0.26172,1.14258 -0.13672,0.085 -0.28906,0.12598 -0.43945,0.12598 -0.27539,0 -0.54492,-0.13672 -0.70313,-0.3877 C 5.75879,260.57422 4.82813,257.33008 4.82813,254 c 0,-8.98633 6.72753,-16.53027 15.64941,-17.54883 z M 9.97266,288.04004 c 0.61719,0.52344 1.54297,0.44727 2.06152,-0.16602 0.29883,-0.35156 0.41211,-0.81445 0.31055,-1.26758 l -0.0293,-0.14453 0.77832,-0.18457 0.03027,0.15234 c 0.08008,0.34766 0.07813,0.69824 -0.0059,1.04102 -0.0791,0.33887 -0.24316,0.6543 -0.47168,0.92383 -0.19629,0.23145 -0.43555,0.41895 -0.70508,0.55859 -0.26074,0.12793 -0.54297,0.20801 -0.83398,0.23242 -0.2959,0.0273 -0.58789,-0.004 -0.86719,-0.0977 C 9.94824,289 9.68652,288.85742 9.4502,288.65723 c -0.95117,-0.80664 -1.06445,-2.24316 -0.25879,-3.19336 0.22852,-0.26855 0.52148,-0.4834 0.84277,-0.61816 0.31641,-0.13672 0.67773,-0.19727 1.02539,-0.17383 l 0.15527,0.005 -0.05371,0.80566 -0.15234,-0.009 c -0.45996,-0.0303 -0.89746,0.15723 -1.2002,0.51367 -0.51953,0.61231 -0.44726,1.53418 0.16407,2.05274 z m 7.78418,-3.40332 -0.88184,0.5 -2.51367,-1.1709 -0.27832,0.91113 0.79004,1.39453 -0.70215,0.39746 -2.13184,-3.75879 0.70215,-0.39746 0.7998,1.40918 0.7002,-2.26074 1.01465,-0.57422 -0.63965,2.08496 z m -8.89746,14.09375 0.75977,-0.23535 0.89355,2.88379 -4.13086,1.28027 -0.24121,-0.77734 3.37109,-1.04492 z m -2.28321,-8.89942 0.27734,-0.76563 4.06543,1.47559 -0.26758,0.73633 -3.32129,0.83594 2.66699,0.96777 -0.27734,0.76465 -4.06543,-1.47461 0.26953,-0.74219 3.3125,-0.83301 z m 0.83594,24.89747 c 0.13672,-0.26465 0.36719,-0.45996 0.65332,-0.55176 0.28418,-0.0859 0.58301,-0.0693 0.84766,0.0674 0.54492,0.28125 0.75195,0.9541 0.4707,1.50098 l -0.33984,0.65918 1.87402,0.96582 -0.37012,0.71777 -3.8457,-1.98242 z m 1.12598,-8.25489 -0.83789,-1.30469 c -0.16113,-0.25 -0.21484,-0.54883 -0.15137,-0.8418 0.06738,-0.29004 0.23145,-0.54004 0.48242,-0.70117 0.5166,-0.33203 1.2041,-0.17285 1.53613,0.34375 l 0.40039,0.62305 1.77539,-1.14063 0.4375,0.68066 z m -3.29981,-10.63574 4.35156,-1.6084 -0.0127,0.87598 -1.17383,0.42578 -0.02051,1.43457 1.16016,0.4668 -0.0127,0.86816 -4.30273,-1.72656 z m 0.19336,25.36231 1.77637,-0.89746 -1.39941,-1.41602 0.12305,-0.75391 4.2666,0.69531 -0.12988,0.79688 -2.85254,-0.46484 1.33984,1.3623 -1.70313,0.86035 2.85254,0.46582 -0.12988,0.79688 -4.2666,-0.69727 z m 0.20117,4.2539 3.93066,-2.46387 0.16699,0.85938 -1.06152,0.6582 0.27246,1.40723 1.23242,0.21973 0.16504,0.85352 -4.56641,-0.81152 z m 9.59082,38.4541 1.25781,-2.60156 -1.68652,0.89648 -0.34082,-1.87598 -1.25781,2.60156 -0.72656,-0.35254 1.88086,-3.89063 0.68359,0.33008 0.35352,1.95801 1.75586,-0.9375 0.68848,0.33203 -1.88086,3.8916 z m 5.42871,1.26856 -0.28027,-1.21582 -1.41992,-0.19434 -0.60254,1.09473 -0.86133,-0.11914 2.23633,-4.05762 0.72754,0.0996 1.06738,4.51074 z m 0.84668,-17.22559 -11.0957,-14.91699 c -0.27246,-0.36719 -0.19629,-0.88574 0.1709,-1.15918 0.36719,-0.27246 0.88574,-0.19629 1.15918,0.1709 l 11.0957,14.91699 c 0.27246,0.36719 0.19629,0.88574 -0.1709,1.15918 -0.14844,0.11035 -0.32129,0.16309 -0.49316,0.16309 -0.25293,0 -0.50293,-0.11524 -0.66602,-0.33399 z m 4.25586,16.29688 c -0.10059,0.19238 -0.2666,0.37012 -0.49512,0.52441 -0.19531,0.13867 -0.42188,0.2207 -0.7168,0.2627 -0.13867,0.0195 -0.28516,0.0215 -0.43945,0.0127 -0.45801,-0.0254 -0.9209,-0.17969 -1.34668,-0.45703 l -0.12988,-0.0869 0.44434,-0.6748 0.12793,0.085 c 0.31152,0.20117 0.64063,0.31934 0.94922,0.33691 l 0.0068,-9.8e-4 c 0.09277,0.005 0.18457,0.004 0.27344,-0.008 0.15137,-0.0225 0.28516,-0.0713 0.39258,-0.1416 0.13477,-0.0811 0.28418,-0.23828 0.25,-0.48438 -0.02051,-0.13184 -0.10059,-0.22461 -0.25,-0.28906 -0.18359,-0.0781 -0.41895,-0.0996 -0.58594,-0.10645 -0.07324,-9.8e-4 -0.70508,-0.04 -1.00977,-0.15625 -0.20215,-0.0889 -0.36719,-0.21191 -0.49316,-0.36523 -0.12793,-0.16016 -0.20313,-0.3457 -0.23242,-0.55566 -0.03223,-0.22852 0.0059,-0.4668 0.11523,-0.69727 0.10742,-0.19336 0.26758,-0.3623 0.46875,-0.49512 0.20215,-0.13281 0.43457,-0.22168 0.69336,-0.25781 0.10156,-0.0147 0.21094,-0.0186 0.32129,-0.0225 0.40723,0.0156 0.82324,0.13965 1.20605,0.37988 l 0.12891,0.0801 -0.42285,0.69238 -0.12891,-0.0801 c -0.43457,-0.2627 -0.78125,-0.28809 -0.99707,-0.25586 -0.13965,0.0195 -0.26172,0.0674 -0.36328,0.13086 -0.15527,0.10254 -0.24414,0.26172 -0.22363,0.40527 0.01855,0.13281 0.08008,0.20996 0.2041,0.27148 0.125,0.0625 0.30859,0.0967 0.59375,0.11816 0.03613,9.8e-4 0.08594,0.006 0.13672,0.0117 0.25781,0.0117 0.60547,0.0352 0.85938,0.14063 0.21973,0.0781 0.39844,0.20703 0.53125,0.36523 0.13281,0.1582 0.21582,0.35547 0.24609,0.57227 0.03808,0.26953 9.7e-4,0.52148 -0.11427,0.74512 z m 4.20606,-1.57032 c -0.04883,0.21289 -0.16113,0.42676 -0.34277,0.63574 -0.15137,0.18457 -0.35059,0.32422 -0.62305,0.44043 -0.12891,0.0557 -0.27051,0.0967 -0.42188,0.12891 -0.44922,0.0937 -0.9375,0.0645 -1.41992,-0.0908 l -0.14746,-0.0498 0.25195,-0.76855 0.14648,0.0488 c 0.35254,0.11328 0.70215,0.14258 1.00488,0.0781 l 0.0068,-0.003 c 0.08984,-0.0195 0.17773,-0.043 0.26172,-0.0801 0.14063,-0.0596 0.25684,-0.14258 0.34082,-0.23828 0.11035,-0.11426 0.21289,-0.30371 0.11621,-0.53125 -0.05371,-0.12305 -0.15527,-0.19238 -0.31738,-0.21582 -0.19824,-0.0273 -0.43066,0.0137 -0.59473,0.0498 -0.07031,0.0186 -0.69043,0.14551 -1.01465,0.11328 -0.21875,-0.0322 -0.41016,-0.1084 -0.57324,-0.22363 -0.16406,-0.12109 -0.28516,-0.28125 -0.36816,-0.47656 -0.0918,-0.21094 -0.11523,-0.45313 -0.07227,-0.70215 0.05371,-0.21582 0.16406,-0.4209 0.32422,-0.60156 0.16016,-0.18164 0.3623,-0.32813 0.60254,-0.43066 0.09473,-0.041 0.2002,-0.0732 0.30566,-0.10547 0.39648,-0.0908 0.83008,-0.0801 1.26465,0.0527 l 0.14355,0.042 -0.22656,0.78027 -0.14551,-0.0449 c -0.49023,-0.13965 -0.83008,-0.0723 -1.03223,0.0146 -0.12695,0.0547 -0.23242,0.13184 -0.31543,0.2207 -0.12402,0.13965 -0.16602,0.31641 -0.10938,0.4502 0.05273,0.12305 0.13086,0.18164 0.26758,0.20898 0.13672,0.0283 0.32324,0.0137 0.60449,-0.041 0.03613,-0.009 0.08594,-0.0166 0.13379,-0.0254 0.25391,-0.0557 0.5957,-0.12305 0.86816,-0.0879 0.23242,0.0195 0.4375,0.0957 0.6084,0.21484 0.16895,0.11816 0.30176,0.28809 0.3877,0.48828 0.10744,0.25 0.13674,0.50293 0.08498,0.74902 z m 3.77148,-28.25293 c -0.88379,0.84375 -2.27539,0.8291 -3.09863,-0.0322 -0.82324,-0.86133 -0.77441,-2.25195 0.10938,-3.09668 l 1.0498,-1.00293 2.99023,3.12891 z m 3.17578,-4.38574 c -0.56543,1.08203 -1.88867,1.51367 -2.94238,0.96191 -1.05469,-0.55176 -1.4541,-1.88477 -0.8877,-2.9668 l 0.67285,-1.28613 3.83105,2.00488 z m 1.50489,-4.54297 -4.52637,0.99316 0.13379,-0.86426 1.21973,-0.26172 0.2168,-1.41504 -1.08398,-0.62109 0.13281,-0.8584 4.01953,2.30078 z m 2.66796,-15.71289 2.01953,-2.45313 -0.39355,-0.0176 0.04199,-0.80664 1.22754,0.0586 0.4873,0.40234 -2.75,3.33789 z m 3.66504,-2.44336 0.78418,0.38867 -0.30273,3.22461 2.38867,-2.18945 0.77734,0.38672 -3.41406,3.13672 -0.65918,-0.32813 z m 5.23145,2.07032 0.85254,0.1875 -2.56055,3.85547 -0.84668,-0.1875 z m 11.40173,63.64239 c 0,1.77142 -1.43604,3.20746 -3.2074,3.20746 h -10.4663 c -1.77148,0 -3.20752,-1.43604 -3.20752,-3.20746 v -26.33148 c 0,-1.77142 1.43604,-3.20746 3.20752,-3.20746 h 10.46631 c 1.77136,0 3.2074,1.43604 3.2074,3.20746 z M 50.94336,311.85742 c -0.05469,-1.25 0.91211,-2.30664 2.1543,-2.36133 1.24902,-0.0566 2.30664,0.91211 2.3623,2.16016 0.05566,1.24414 -0.91113,2.29297 -2.16016,2.34961 -1.24316,0.0547 -2.30078,-0.90625 -2.35644,-2.14844 z m 5.94727,-0.67383 c 0.29004,0.75195 1.1377,1.12695 1.88574,0.83984 0.42871,-0.16602 0.74805,-0.51758 0.87598,-0.96289 l 0.04395,-0.14063 0.76953,0.20898 -0.04688,0.14844 c -0.09473,0.3418 -0.26367,0.64844 -0.50098,0.9082 -0.23145,0.25781 -0.52637,0.45703 -0.85449,0.58398 -0.28223,0.10938 -0.58105,0.16016 -0.88281,0.1543 -0.29102,-0.0117 -0.57617,-0.0781 -0.84277,-0.19531 -0.27246,-0.11719 -0.51367,-0.2832 -0.71289,-0.5 -0.21387,-0.21484 -0.37598,-0.46484 -0.48828,-0.75391 -0.44727,-1.16016 0.1377,-2.47266 1.29785,-2.92188 0.32813,-0.12695 0.6875,-0.17383 1.0332,-0.13672 0.34277,0.0293 0.68945,0.14844 0.98242,0.33398 l 0.13379,0.0801 -0.43262,0.67969 -0.12891,-0.0801 c -0.38867,-0.24805 -0.86133,-0.29297 -1.29688,-0.12305 -0.74706,0.28909 -1.12402,1.13089 -0.83495,1.87698 z m 5.8457,-0.47851 -2.10156,-2.82227 -0.85156,0.63477 -0.47852,-0.64258 2.35449,-1.75391 0.47949,0.64258 -0.85254,0.63477 2.10352,2.82031 z m 2.56933,36.10254 c 0.0059,-0.13965 0.03125,-0.2832 0.06836,-0.43555 0.1123,-0.44434 0.34961,-0.87109 0.70117,-1.2373 l 0.1084,-0.11035 0.58301,0.56055 -0.1084,0.11133 c -0.25586,0.26758 -0.43359,0.57031 -0.50879,0.87109 v 0.006 c -0.02246,0.0898 -0.03906,0.17969 -0.04297,0.27148 -0.0068,0.15137 0.0166,0.29199 0.06738,0.40918 0.05273,0.14941 0.17871,0.32617 0.42773,0.33691 0.13281,0.006 0.23926,-0.0547 0.33105,-0.19141 0.11035,-0.16602 0.17578,-0.39355 0.21289,-0.55566 0.01563,-0.0723 0.17188,-0.68555 0.34277,-0.96289 0.12402,-0.18359 0.27637,-0.32129 0.45117,-0.41797 0.18066,-0.0947 0.37695,-0.13477 0.58887,-0.125 0.23145,0.0107 0.45801,0.0937 0.66504,0.24414 0.16895,0.14063 0.30566,0.33008 0.39941,0.55371 0.09277,0.22266 0.13672,0.46777 0.125,0.72852 -0.0049,0.10449 -0.02246,0.21191 -0.04004,0.32031 -0.08984,0.39746 -0.29102,0.78418 -0.59766,1.11621 l -0.10254,0.11035 -0.60156,-0.54395 0.10254,-0.11133 c 0.33984,-0.37988 0.42871,-0.71582 0.43848,-0.93457 0.0059,-0.13965 -0.01855,-0.26855 -0.0625,-0.37891 -0.07031,-0.1748 -0.21094,-0.29004 -0.35742,-0.29688 -0.13281,-0.007 -0.21973,0.0381 -0.30469,0.15039 -0.08398,0.1123 -0.15332,0.28516 -0.22559,0.56152 -0.0078,0.0352 -0.02148,0.084 -0.03711,0.13184 -0.05859,0.25293 -0.14746,0.58887 -0.29883,0.81934 -0.11914,0.20215 -0.27734,0.35156 -0.45898,0.45313 -0.17969,0.10156 -0.38965,0.14746 -0.60742,0.13672 -0.27344,-0.0127 -0.5127,-0.0967 -0.71289,-0.25293 -0.16992,-0.13477 -0.31348,-0.3291 -0.42383,-0.58398 -0.09861,-0.21777 -0.13572,-0.45703 -0.12205,-0.7539 z m 8.46485,-14.47168 1.14941,-0.48633 0.60449,0.62305 -4.26172,1.81152 -0.51172,-0.52734 1.94336,-4.20605 0.6084,0.62891 -0.52832,1.12793 z m -5.11133,-1.21094 -0.61816,-1.3125 c -0.51953,-1.10547 -0.06445,-2.41895 1.01172,-2.92578 1.07715,-0.50586 2.37988,-0.0195 2.90039,1.08496 l 0.61719,1.31348 z m -2.02832,-5.0498 -0.16602,-1.44336 c -0.13867,-1.21484 0.71484,-2.31445 1.89844,-2.44922 1.18359,-0.13574 2.2627,0.74316 2.40137,1.95801 l 0.16504,1.44336 z m -1.19629,23.80761 4.23145,-0.87598 0.31348,1.51465 c 0.06055,0.29199 0.0039,0.58887 -0.16113,0.83984 -0.16602,0.24512 -0.40918,0.41895 -0.7002,0.47949 -0.60059,0.12305 -1.18359,-0.27051 -1.30762,-0.86914 l -0.15039,-0.72559 -2.06055,0.42676 z m 2.26563,6.65137 -1.19922,-2.52344 3.90625,-1.85547 1.22168,2.57227 -0.71289,0.33887 -0.87305,-1.83691 -0.5752,0.27344 0.75977,1.60156 -0.73047,0.34668 -0.75879,-1.60254 -1.16406,0.55273 0.84961,1.78906 z m 2.69043,3.49902 -1.78711,-2.14941 3.32617,-2.76563 1.82227,2.19043 -0.60742,0.50488 -1.30078,-1.56445 -0.49121,0.4082 1.13477,1.36426 -0.62207,0.51563 -1.13477,-1.36328 -0.99023,0.82324 1.2666,1.52344 z m 5.46679,1.43262 c -0.66895,0.98145 -2.03906,1.22363 -3.04688,0.53613 l -1.19727,-0.81641 2.43359,-3.56836 1.19824,0.81641 c 1.00783,0.6875 1.28224,2.04981 0.61232,3.03223 z m -3.9541,-78.38769 c -0.86719,1.27539 -1.32617,2.76563 -1.32617,4.30762 V 317.5 c 0,0.41406 -0.33594,0.75 -0.75,0.75 -0.41406,0 -0.75,-0.33594 -0.75,-0.75 v -30.11426 c 0,-1.84375 0.54883,-3.625 1.58594,-5.15137 l 7.52539,-11.06726 c -2.80945,-0.67151 -5.4054,-2.02441 -7.59839,-3.97919 l -17.38403,25.565 c -0.14551,0.21289 -0.38086,0.32813 -0.62109,0.32813 -0.14453,0 -0.29199,-0.042 -0.4209,-0.12988 -0.10742,-0.0729 -0.18018,-0.17261 -0.2356,-0.28052 -0.1521,-0.0498 -0.29419,-0.12994 -0.39136,-0.27222 L 34.3335,267.09893 c -2.2146,2.00464 -4.84888,3.38971 -7.70337,4.0708 l 7.52417,11.06464 c 1.03711,1.52539 1.58496,3.30664 1.58496,5.15137 V 317.5 c 0,0.41406 -0.33594,0.75 -0.75,0.75 -0.41406,0 -0.75,-0.33594 -0.75,-0.75 v -30.11426 c 0,-1.54297 -0.45801,-3.03223 -1.3252,-4.30762 L 25.02295,271.474 c -0.8302,0.11816 -1.66943,0.19885 -2.52295,0.19885 -3.11133,0 -6.09253,-0.8136 -8.72461,-2.31415 l 8.3125,12.2243 c 0.2334,0.34277 0.14453,0.80957 -0.19824,1.04199 -0.12891,0.0879 -0.27637,0.12988 -0.4209,0.12988 -0.24023,0 -0.47559,-0.11523 -0.62109,-0.32813 L 10.0752,266.58494 c -0.0081,-0.0118 -0.0087,-0.0256 -0.01587,-0.0377 -0.01782,-0.0176 -0.0376,-0.0325 -0.05542,-0.0502 -0.32324,-0.32324 -0.32324,-0.84863 0,-1.17188 0.32422,-0.32227 0.84766,-0.32227 1.17188,0 3.02441,3.02539 7.04688,4.69141 11.32422,4.69141 4.27832,0 8.30078,-1.66602 11.3252,-4.69141 0.32422,-0.32227 0.84766,-0.32227 1.17188,0 0.10815,0.10815 0.1665,0.24121 0.20239,0.37946 L 52.4922,291.13516 69.59865,265.9783 c -0.01904,-0.23413 0.05054,-0.47363 0.22949,-0.65314 0.32422,-0.32227 0.84766,-0.32422 1.17188,0 3.02539,3.02441 7.04688,4.69043 11.3252,4.69043 4.27832,0 8.2998,-1.66602 11.3252,-4.69043 0.32422,-0.32422 0.84766,-0.32227 1.17188,0 0.02783,0.028 0.03979,0.064 0.06274,0.0947 0.01367,0.007 0.02869,0.009 0.04175,0.0176 0.34277,0.23242 0.43164,0.69922 0.19824,1.04199 l -11.32129,16.65039 c -0.14453,0.21289 -0.38086,0.32813 -0.62109,0.32813 -0.14453,0 -0.29199,-0.042 -0.4209,-0.12988 -0.34277,-0.23242 -0.43164,-0.69922 -0.19824,-1.04199 l 8.99927,-13.23553 c -2.75403,1.69653 -5.92126,2.62128 -9.23755,2.62128 -0.85596,0 -1.69751,-0.0811 -2.53003,-0.19989 z m 10.12793,82.18945 c -1.24316,-0.0693 -2.2002,-1.13281 -2.13086,-2.37598 0.07031,-1.24902 1.14063,-2.2041 2.38281,-2.13477 1.25,0.0703 2.20605,1.13867 2.13574,2.3877 -0.07031,1.24317 -1.13769,2.19336 -2.38769,2.12305 z m 3.86621,-3.20313 1.0957,-0.25195 0.18066,0.78125 -1.0957,0.25293 0.4707,2.03613 -0.78809,0.18262 -0.97461,-4.21484 2.77246,-0.6416 0.17871,0.77637 -1.98242,0.45801 z m 7.41699,-0.0732 -2.77734,-3.31641 0.62402,-0.52344 2.26563,2.70605 1.69141,-1.41602 0.51074,0.61035 z m 3.34278,-3.18262 -3.39844,-2.67383 0.50195,-0.63965 3.39941,2.67285 z m 2.51269,-3.88964 c -0.52539,1.12695 -1.87207,1.61719 -3.00488,1.08887 -1.12793,-0.52539 -1.61816,-1.87207 -1.0918,-3 0.12793,-0.27344 0.30859,-0.51758 0.5293,-0.7168 0.21875,-0.19824 0.47266,-0.35449 0.75293,-0.45215 l 0.15137,-0.0557 0.22656,0.76758 -0.13184,0.0518 c -0.35254,0.12402 -0.63086,0.38965 -0.79785,0.74805 -0.33789,0.72559 -0.02441,1.58789 0.70215,1.92578 0.73145,0.34082 1.59961,0.0293 1.9375,-0.69629 0.17188,-0.36719 0.17969,-0.77246 0.03711,-1.1543 l -0.81348,-0.37891 -0.50098,1.07227 -0.73145,-0.34082 0.83691,-1.79297 1.80273,0.84082 0.02051,0.043 c 0.34865,0.64452 0.37404,1.40624 0.07521,2.0498 z m 1.50196,-5.96485 -2.07715,-0.27441 -0.22852,1.73926 2.0752,0.27441 -0.10645,0.80664 -4.2832,-0.56641 0.10645,-0.80762 1.41895,0.18848 0.23047,-1.73926 -1.4209,-0.18652 0.10645,-0.80762 4.28516,0.56738 z"
   id="path97"
   inkscape:connector-curvature="0"
   style="fill:#252626" />
		<path
   d="m 38.05469,93.19531 -0.2793,0.68848 0.5791,0.23633 0.28027,-0.6875 c 0.06445,-0.1582 -0.01367,-0.33398 -0.17188,-0.39844 -0.15821,-0.06446 -0.34569,0.0098 -0.40819,0.16113 z"
   id="path99"
   inkscape:connector-curvature="0"
   style="fill:#252626" />
		<path
   d="m 56.38965,9.4082 c 0,-0.15527 -0.11035,-0.35352 -0.26465,-0.35352 h -1.0166 v 0.70703 h 1.0166 c 0.1543,10e-6 0.26465,-0.19921 0.26465,-0.35351 z"
   id="path101"
   inkscape:connector-curvature="0"
   style="fill:#252626" />
		<path
   d="m 34.33984,330.28613 c 0.66797,0.34766 1.50391,0.0732 1.86328,-0.61621 l 0.29883,-0.56934 -2.4209,-1.26758 -0.29785,0.57031 c -0.36132,0.68946 -0.11035,1.53224 0.55664,1.88282 z"
   id="path103"
   inkscape:connector-curvature="0"
   style="fill:#252626" />
		<path
   d="m 57.60522,360.73877 c -0.1626,0.31671 -0.31885,0.5769 -0.46924,0.78009 -0.15039,0.20343 -0.28247,0.33734 -0.396,0.40234 -0.06519,0.0326 -0.14026,0.0608 -0.22571,0.0852 -0.08508,0.0243 -0.18689,0.0427 -0.30481,0.0549 -0.11768,0.0122 -0.25989,0.0225 -0.42651,0.0305 -0.1665,0.008 -0.36792,0.0122 -0.60339,0.0122 -0.26819,0 -0.48962,-0.008 -0.66443,-0.0244 -0.1748,-0.0162 -0.31494,-0.0366 -0.42041,-0.0608 -0.10583,-0.0246 -0.18921,-0.053 -0.25,-0.0854 -0.06091,-0.0324 -0.10791,-0.069 -0.14014,-0.1098 -0.09766,-0.10559 -0.16064,-0.26208 -0.18896,-0.46924 -0.02856,-0.2074 -0.04272,-0.47345 -0.04272,-0.79865 v -0.8045 c 0.002,-0.11145 0.0051,-0.20996 0.0099,-0.29443 0.0079,-0.15015 0.03027,-0.29047 0.06689,-0.42041 0.0365,-0.13 0.09338,-0.26843 0.17078,-0.41461 0.01831,-0.0349 0.03894,-0.0727 0.06079,-0.11237 0.0293,-9.2e-4 0.05981,-10e-4 0.09375,-10e-4 h 0.70728 c 0.23547,0 0.42859,0.004 0.57898,0.0122 0.15015,0.008 0.27002,0.0242 0.35974,0.0486 0.1217,0.0326 0.20898,0.0896 0.26196,0.17078 0.05273,0.0812 0.09131,0.17877 0.11597,0.29254 l 0.10962,0.47534 c 0.03223,0.0408 0.08716,0.0589 0.16431,0.0549 0.07727,-0.004 0.12817,-0.0263 0.15259,-0.0671 0,-0.13818 -0.0083,-0.31274 -0.02441,-0.52411 -0.01636,-0.21136 -0.02441,-0.42676 -0.02441,-0.64612 0,-0.2356 0.0081,-0.46313 0.02441,-0.6825 0.01611,-0.2196 0.02441,-0.4024 0.02441,-0.54883 -0.02441,-0.0403 -0.07532,-0.0629 -0.15259,-0.0671 -0.07715,-0.004 -0.13208,0.0143 -0.16431,0.0549 l -0.09741,0.49994 c -0.03271,0.15436 -0.07129,0.25812 -0.11597,0.31085 -0.0448,0.0528 -0.10376,0.0913 -0.17664,0.11566 -0.07312,0.0244 -0.19934,0.0427 -0.37805,0.0549 -0.17896,0.0122 -0.39832,0.0183 -0.6582,0.0183 h -0.55103 c 0.0044,-0.007 0.0081,-0.0131 0.01221,-0.0202 l 0.76807,-1.32861 c 0.15405,-0.26019 0.29443,-0.50189 0.42065,-0.72546 0.12573,-0.22333 0.24976,-0.42065 0.37158,-0.59125 0.12207,-0.17053 0.2478,-0.30872 0.37793,-0.41431 0.0271,-0.0218 0.05469,-0.0416 0.08301,-0.0601 0.08264,0.0328 0.1554,0.0715 0.21802,0.11682 0.10156,0.073 0.18457,0.15839 0.24988,0.25598 0.06506,0.0974 0.1178,0.20715 0.15857,0.32892 0.04041,0.12201 0.08521,0.25623 0.13403,0.4024 0.03235,0.0408 0.08545,0.057 0.15857,0.0488 0.073,-0.008 0.1217,-0.0324 0.14612,-0.0732 -0.01636,-0.13 -0.03052,-0.27826 -0.04248,-0.44482 -0.01245,-0.16663 -0.02661,-0.32916 -0.04285,-0.48755 -0.01624,-0.15863 -0.03748,-0.30011 -0.05469,-0.42676 -0.04248,-0.31348 -0.03284,-0.58118 -0.03284,-0.58118 0,-0.61749 -0.17529,-1.15735 -0.44275,-1.60925 -0.26721,-0.45142 -0.60901,-0.8078 -1.02478,-1.06915 -0.41602,-0.26135 -0.90308,-0.44556 -1.46143,-0.55249 -0.55859,-0.10699 -1.21204,-0.16052 -1.96045,-0.16052 -0.74878,0 -1.4054,0.009 -1.96948,0.0268 -0.56445,0.0178 -1.08435,0.0565 -1.55969,0.11584 -0.07117,0.0357 -0.10974,0.10419 -0.1156,0.20483 -0.0061,0.10114 0.02026,0.1814 0.0802,0.24072 l 0.64148,0.0713 c 0.2019,0.0239 0.35913,0.0624 0.47241,0.11591 0.11267,0.0532 0.19604,0.15131 0.24951,0.29395 0.05347,0.14264 0.08606,0.3327 0.09802,0.57037 0.01172,0.23767 0.01782,0.54663 0.01782,0.92676 v 6.57678 c 0,0.46313 -0.0061,0.83478 -0.01782,1.11377 -0.01196,0.27942 -0.05359,0.49622 -0.12488,0.65057 -0.07129,0.15435 -0.17822,0.26135 -0.32068,0.32074 -0.1427,0.0596 -0.34485,0.10693 -0.60608,0.14264 l -0.37439,0.0535 c -0.0542,0.0542 -0.07837,0.12836 -0.07312,0.22174 -4.9e-4,0.19073 -0.0027,0.25128 -0.0066,0.46619 -0.0043,0.24609 -0.01563,0.52106 -0.03369,0.82538 0.01807,0.0448 0.06934,0.0715 0.15454,0.0807 0.08484,0.009 0.14539,-0.009 0.18127,-0.0537 l 0.04016,-0.28204 c 0.02698,-0.19684 0.06262,-0.34888 0.10742,-0.45605 0.0448,-0.10748 0.12524,-0.18793 0.2417,-0.2417 0.11609,-0.0537 0.27942,-0.0854 0.48987,-0.0943 0.21021,-0.009 0.48987,-0.0131 0.83899,-0.0131 h 1.69116 c 0.07153,0 0.12756,0.004 0.16797,0.0131 0.04004,0.009 0.06909,0.0338 0.08704,0.0742 0.01782,0.0401 0.02905,0.10278 0.03381,0.18768 0.0042,0.0851 0.0066,0.20343 0.0066,0.35571 0,0.26862 -0.03369,0.46991 -0.10071,0.60413 -0.06714,0.13422 -0.17664,0.25055 -0.32898,0.34912 -0.15222,0.10742 -0.32007,0.21912 -0.50317,0.33551 -0.18384,0.11609 -0.36719,0.23248 -0.55054,0.34888 -0.18335,0.11633 -0.36011,0.22827 -0.53015,0.33569 -0.17004,0.10724 -0.31775,0.20575 -0.44299,0.29517 -0.34021,0.24164 -0.61987,0.46759 -0.83899,0.67804 -0.21912,0.21021 -0.39136,0.42279 -0.5166,0.63745 -0.12561,0.21466 -0.21252,0.44061 -0.26184,0.6778 -0.04907,0.23724 -0.07373,0.49884 -0.07373,0.78528 0,0.25952 0.02234,0.4566 0.06689,0.59058 0.02698,0.0359 0.06055,0.0516 0.10083,0.0471 0.04016,-0.005 0.06934,-0.0248 0.0874,-0.0605 0.01758,-0.17902 0.0603,-0.34888 0.12732,-0.50983 0.06714,-0.16113 0.14978,-0.30005 0.24841,-0.4162 0.18799,-0.23273 0.40039,-0.45184 0.63745,-0.65784 0.23706,-0.20575 0.4989,-0.41602 0.7854,-0.63092 0.28613,-0.21466 0.6084,-0.43616 0.96631,-0.66418 0.35791,-0.22827 0.75171,-0.47675 1.1814,-0.74518 0.05371,-0.0359 0.10925,-0.0649 0.16772,-0.0872 0.05786,-0.0226 0.10962,-0.0157 0.1543,0.0201 0.0625,0.16986 0.15649,0.35126 0.28174,0.54364 0.12537,0.19238 0.27979,0.37372 0.46313,0.54382 0.18359,0.16986 0.39819,0.31061 0.64429,0.42279 0.24609,0.11169 0.53027,0.16772 0.85242,0.16772 0.47449,0 0.86365,-0.10535 1.16797,-0.31555 0.30408,-0.21021 0.54126,-0.4765 0.7113,-0.79865 0.16992,-0.31323 0.27979,-0.65997 0.32898,-1.04004 0.04895,-0.38055 0.07556,-0.78107 0.07361,-1.20172 -0.0032,-0.77942 0.13708,-1.27539 0.13708,-1.27539 0.05273,-0.14642 0.10535,-0.30267 0.15833,-0.46924 0.05273,-0.16656 0.10156,-0.32916 0.14648,-0.48779 0.04443,-0.15833 0.07898,-0.29041 0.10364,-0.39624 -0.02466,-0.0565 -0.07141,-0.0931 -0.14026,-0.10956 -0.06932,-0.0162 -0.12388,-0.008 -0.16478,0.0244 z m -5.13427,-0.069 c 0,0.3252 -0.0043,0.58514 -0.01221,0.78015 -0.0083,0.19495 -0.03662,0.34747 -0.08545,0.45703 -0.01733,0.0394 -0.03809,0.0741 -0.06177,0.10437 -4.9e-4,2.4e-4 -0.0011,7.3e-4 -0.0016,9.8e-4 -0.14197,-0.0272 -0.2616,-0.0587 -0.35828,-0.0945 -0.1604,-0.0594 -0.27612,-0.16638 -0.34741,-0.32074 -0.07129,-0.15436 -0.11597,-0.37115 -0.13379,-0.65057 -0.01782,-0.27899 -0.02673,-0.65063 -0.02673,-1.11377 v -2.53784 l 0.63721,1.24158 c 0.08923,0.17084 0.16028,0.31512 0.21326,0.43286 0.05273,0.11804 0.09131,0.2276 0.11572,0.32916 0.02441,0.10187 0.04053,0.20929 0.04883,0.32312 0.0079,0.11377 0.01221,0.25592 0.01221,0.42651 z m 0.03662,-3.36438 c -0.22766,-0.46338 -0.45532,-0.9223 -0.68286,-1.37769 -0.01636,-0.0324 -0.04456,-0.0931 -0.08521,-0.1828 -0.04077,-0.0891 -0.0835,-0.18463 -0.12793,-0.28644 -0.04492,-0.10162 -0.08362,-0.19684 -0.11597,-0.2865 -0.03271,-0.0894 -0.04858,-0.15039 -0.04858,-0.18274 0,-0.0488 0.03223,-0.0873 0.09741,-0.11591 0.06494,-0.0284 0.20313,-0.0629 0.41455,-0.10345 l 0.15833,-0.0244 c 0.04065,-0.0406 0.05896,-0.0976 0.05493,-0.17078 -0.0043,-0.073 -0.03479,-0.1178 -0.09131,-0.13397 -0.1731,0.0136 -0.38538,0.0234 -0.63721,0.0293 v -2.58643 c 0,-0.14264 0.0059,-0.25549 0.01782,-0.33881 0.01184,-0.0828 0.04749,-0.14825 0.10706,-0.19586 0.05933,-0.0474 0.15405,-0.0772 0.28503,-0.0892 0.13074,-0.0117 0.31482,-0.0178 0.55249,-0.0178 0.92676,0 1.63672,0.2583 2.12988,0.77515 0.49292,0.51691 0.73975,1.20923 0.73975,2.07666 0,0.0821 -0.01721,0.25922 -0.02795,0.38074 -0.06824,-9.2e-4 -0.13647,-0.002 -0.20483,-0.003 -0.18701,-0.004 -0.39014,-0.0143 -0.6095,-0.0305 -0.04883,0.0244 -0.07507,0.071 -0.07922,0.14008 -0.0042,0.0692 0.01392,0.12408 0.05505,0.16467 l 0.21912,0.0244 c 0.14648,0.0162 0.26819,0.0427 0.36572,0.079 0.09766,0.0366 0.14648,0.0753 0.14648,0.11591 0,0.0406 -0.02441,0.11591 -0.07324,0.22546 -0.04883,0.1098 -0.11377,0.24188 -0.19495,0.39606 -0.08142,0.1546 -0.16895,0.31934 -0.26208,0.49384 -0.09351,0.1748 -0.18115,0.33954 -0.26221,0.49365 -0.18701,0.35779 -0.37781,0.70905 -0.573,1.05438 -0.19507,0.34558 -0.38599,0.68085 -0.57275,1.0058 -0.23596,-0.42254 -0.46753,-0.86548 -0.69482,-1.32861 z m 4.27746,7.06103 c -0.11426,0.26349 -0.26575,0.48096 -0.45471,0.65228 -0.18909,0.17126 -0.40405,0.2984 -0.64563,0.38214 -0.24182,0.0836 -0.49426,0.12506 -0.75781,0.12506 -0.44812,0 -0.79724,-0.0657 -1.04749,-0.19751 -0.25049,-0.1319 -0.44604,-0.28558 -0.58643,-0.4613 -0.14966,-0.1933 -0.2439,-0.40845 -0.28345,-0.64563 -0.03955,-0.23724 -0.05933,-0.47443 -0.05933,-0.71161 0,-0.33411 0.0068,-0.56451 0.01978,-0.69189 0.01331,-0.12762 0.02832,-0.19989 0.04614,-0.21747 0.03491,-0.0265 0.17993,-0.0394 0.43481,-0.0394 h 3.08374 c 0.08777,0 0.16028,0.007 0.21753,0.0197 0.05676,0.0131 0.10083,0.0481 0.13159,0.10535 0.03076,0.057 0.05054,0.14264 0.05933,0.2569 0.0088,0.11426 0.01343,0.2724 0.01343,0.47437 10e-6,0.36908 -0.05748,0.68555 -0.1715,0.94903 z"
   id="path105"
   inkscape:connector-curvature="0"
   style="fill:#252626" />
	</g>
	<g
   id="g121">
		<g
   id="g119">
			<g
   id="g117">
				<g
   id="g113">
					<circle
   cx="97.00985"
   cy="373.60947"
   r="5.7362599"
   id="circle109"
   style="fill:#bcbcbc" />
					<path
   d="m 97.0098,379.08212 c -3.02102,-0.003 -5.46916,-2.45166 -5.47262,-5.47269 0,0 0,0 0,-3e-5 2e-5,-3.02246 2.45023,-5.47263 5.4727,-5.4726 3.02247,0 5.47264,2.45023 5.47262,5.47269 -2e-5,3.02246 -2.45023,5.47266 -5.4727,5.47263 m 6,-5.47265 c 0,-3.31372 -2.68629,-6 -6,-6 -3.31371,0 -6,2.68628 -6,6 0,3.31369 2.68629,6 6,6 3.31365,-1.9e-4 5.99984,-2.68637 6,-6 z"
   id="path111"
   inkscape:connector-curvature="0"
   style="fill:#808080" />
				</g>
				<polygon
   points="97.66881,377.10446 96.35081,377.10446 96.35081,374.26846 93.51581,374.26846 93.51581,372.95047 96.35081,372.95047 96.35081,370.11447 97.66881,370.11447 97.66881,372.95047 100.50481,372.95047 100.50481,374.26846 97.66881,374.26846 "
   id="polygon115"
   style="fill:#6e6e6e" />
			</g>
		</g>
	</g>
	<g
   id="g135">
		<g
   id="g133">
			<g
   id="g131">
				<g
   id="g127">
					<circle
   cx="7.9999199"
   cy="373.60947"
   r="5.7362599"
   id="circle123"
   style="fill:#bcbcbc" />
					<path
   d="m 7.99996,379.08212 c 3.02102,-0.003 5.46916,-2.45166 5.47262,-5.47269 0,0 0,0 0,-3e-5 -2e-5,-3.02246 -2.45023,-5.47263 -5.4727,-5.4726 -3.02247,0 -5.47264,2.45023 -5.47262,5.47269 2e-5,3.02246 2.45023,5.47266 5.4727,5.47263 m -6,-5.47265 c 0,-3.31372 2.68629,-6 6,-6 3.31371,0 6,2.68628 6,6 0,3.31369 -2.68629,6 -6,6 -3.31364,-1.9e-4 -5.99984,-2.68637 -6,-6 z"
   id="path125"
   inkscape:connector-curvature="0"
   style="fill:#808080" />
				</g>
				<polygon
   points="7.34096,377.10446 8.65896,377.10446 8.65896,374.26846 11.49396,374.26846 11.49396,372.95047 8.65896,372.95047 8.65896,370.11447 7.34096,370.11447 7.34096,372.95047 4.50496,372.95047 4.50496,374.26846 7.34096,374.26846 "
   id="polygon129"
   style="fill:#6e6e6e" />
			</g>
		</g>
	</g>
	<g
   id="g149">
		<g
   id="g147">
			<g
   id="g145">
				<g
   id="g141">
					<circle
   cx="97.00985"
   cy="6.3905401"
   r="5.7362599"
   id="circle137"
   style="fill:#bcbcbc" />
					<path
   d="m 97.0098,11.8632 c -3.02102,-0.0035 -5.46916,-2.45164 -5.47262,-5.47267 0,0 0,-10e-6 0,-3e-5 2e-5,-3.02247 2.45023,-5.47264 5.4727,-5.47262 3.02247,2e-5 5.47264,2.45023 5.47262,5.4727 -2e-5,3.02247 -2.45023,5.47264 -5.4727,5.47262 m 6,-5.47266 c 0,-3.31371 -2.68629,-6 -6,-6 -3.31371,0 -6,2.68629 -6,6 0,3.31371 2.68629,6 6,6 3.31365,-1.6e-4 5.99984,-2.68636 6,-6 z"
   id="path139"
   inkscape:connector-curvature="0"
   style="fill:#808080" />
				</g>
				<polygon
   points="97.66881,9.88554 96.35081,9.88554 96.35081,7.04954 93.51581,7.04954 93.51581,5.73154 96.35081,5.73154 96.35081,2.89554 97.66881,2.89554 97.66881,5.73154 100.50481,5.73154 100.50481,7.04954 97.66881,7.04954 "
   id="polygon143"
   style="fill:#6e6e6e" />
			</g>
		</g>
	</g>
	<g
   id="g163">
		<g
   id="g161">
			<g
   id="g159">
				<g
   id="g155">
					<circle
   cx="7.9999199"
   cy="6.3905401"
   r="5.7362599"
   id="circle151"
   style="fill:#bcbcbc" />
					<path
   d="m 7.99996,11.8632 c 3.02102,-0.0035 5.46916,-2.45164 5.47262,-5.47267 0,0 0,-10e-6 0,-3e-5 -2e-5,-3.02247 -2.45023,-5.47264 -5.4727,-5.47262 -3.02247,2e-5 -5.47264,2.45023 -5.47262,5.4727 2e-5,3.02247 2.45023,5.47264 5.4727,5.47262 m -6,-5.47266 c 0,-3.31371 2.68629,-6 6,-6 3.31371,0 6,2.68629 6,6 0,3.31371 -2.68629,6 -6,6 -3.31364,-1.6e-4 -5.99984,-2.68636 -6,-6 z"
   id="path153"
   inkscape:connector-curvature="0"
   style="fill:#808080" />
				</g>
				<polygon
   points="7.34096,9.88554 8.65896,9.88554 8.65896,7.04954 11.49396,7.04954 11.49396,5.73154 8.65896,5.73154 8.65896,2.89554 7.34096,2.89554 7.34096,5.73154 4.50496,5.73154 4.50496,7.04954 7.34096,7.04954 "
   id="polygon157"
   style="fill:#6e6e6e" />
			</g>
		</g>
	</g>
</g>
<g
   id="serigraphy"
   transform="matrix(1.2799885,0,0,1.2799885,6.1063776e-4,-0.36315382)">
	<g
   id="g282">
		<g
   id="g168">
			<path
   d="m 16.79688,21.08105 h 0.54395 v 1.13477 h 0.01855 c 0.30078,-0.77832 0.95703,-1.23828 1.83008,-1.20117 v 0.5918 C 18.11915,21.54981 17.3877,22.3379 17.3877,23.3418 v 2.58105 h -0.59082 z"
   id="path166"
   inkscape:connector-curvature="0"
   style="fill:#e5e5e5" />
		</g>
		<g
   id="g172">
			<path
   d="m 19.7627,19.22266 h 0.5918 v 0.94727 h -0.5918 z m 0,1.85839 h 0.5918 v 4.8418 h -0.5918 z"
   id="path170"
   inkscape:connector-curvature="0"
   style="fill:#e5e5e5" />
		</g>
		<g
   id="g176">
			<path
   d="m 21.48145,21.08105 h 0.59082 v 0.83496 h 0.01953 c 0.21582,-0.58203 0.86328,-0.97656 1.54785,-0.97656 1.36035,0 1.77344,0.71387 1.77344,1.86816 v 3.11523 h -0.59082 v -3.02148 c 0,-0.83496 -0.27246,-1.46387 -1.22949,-1.46387 -0.93848,0 -1.50098,0.71289 -1.52051,1.66113 v 2.82422 h -0.59082 c 0,0 0,-4.84179 0,-4.84179 z"
   id="path174"
   inkscape:connector-curvature="0"
   style="fill:#e5e5e5" />
		</g>
		<g
   id="g180">
			<path
   d="m 30.62402,25.52832 c -0.0088,1.44531 -0.5625,2.32813 -2.14844,2.32813 -0.9668,0 -1.92383,-0.43164 -2.00879,-1.46484 h 0.5918 c 0.13086,0.71387 0.75977,0.9668 1.41699,0.9668 1.08789,0 1.55762,-0.64746 1.55762,-1.83008 v -0.65625 h -0.01855 c -0.27246,0.59082 -0.84473,0.99414 -1.53906,0.99414 -1.54883,0 -2.18652,-1.10742 -2.18652,-2.48633 0,-1.33301 0.78809,-2.44043 2.18652,-2.44043 0.70313,0 1.30371,0.44141 1.53906,0.97656 h 0.01855 v -0.83496 h 0.59082 z M 30.0332,23.44531 c 0,-0.94727 -0.44141,-2.00781 -1.55762,-2.00781 -1.12598,0 -1.5957,1.00391 -1.5957,2.00781 0,0.97559 0.50684,1.92383 1.5957,1.92383 1.02247,0 1.55762,-0.93848 1.55762,-1.92383 z"
   id="path178"
   inkscape:connector-curvature="0"
   style="fill:#e5e5e5" />
		</g>
		<g
   id="g184">
			<path
   d="m 31.75293,21.08105 h 0.54395 v 0.81641 h 0.02832 c 0.30957,-0.58203 0.81641,-0.95801 1.58594,-0.95801 0.6377,0 1.20996,0.31055 1.38867,0.94824 0.29102,-0.6377 0.90039,-0.94824 1.53906,-0.94824 1.06055,0 1.60449,0.55371 1.60449,1.69922 v 3.28418 h -0.59082 v -3.25586 c 0,-0.79785 -0.30078,-1.22949 -1.14551,-1.22949 -1.02246,0 -1.31348,0.84473 -1.31348,1.74512 v 2.74023 h -0.59082 v -3.28418 c 0.0088,-0.65723 -0.2627,-1.20117 -1.01367,-1.20117 -1.02344,0 -1.43555,0.76953 -1.44531,1.78223 v 2.70313 h -0.59082 c 0,0 0,-4.84181 0,-4.84181 z"
   id="path182"
   inkscape:connector-curvature="0"
   style="fill:#e5e5e5" />
		</g>
		<g
   id="g188">
			<path
   d="m 43.9082,23.50195 c 0,1.38867 -0.80664,2.56152 -2.29004,2.56152 -1.48242,0 -2.28906,-1.17285 -2.28906,-2.56152 0,-1.38867 0.80664,-2.5625 2.28906,-2.5625 1.4834,0 2.29004,1.17383 2.29004,2.5625 z m -3.98828,0 c 0,1.03223 0.56348,2.06445 1.69824,2.06445 1.13574,0 1.69922,-1.03223 1.69922,-2.06445 0,-1.03222 -0.56348,-2.06445 -1.69922,-2.06445 -1.13476,0 -1.69824,1.03223 -1.69824,2.06445 z"
   id="path186"
   inkscape:connector-curvature="0"
   style="fill:#e5e5e5" />
		</g>
		<g
   id="g192">
			<path
   d="m 49.05273,25.92285 h -0.54395 v -0.91992 h -0.01855 c -0.25391,0.62891 -1.02344,1.06055 -1.72656,1.06055 -1.47363,0 -2.17773,-1.19141 -2.17773,-2.56152 0,-1.37011 0.7041,-2.5625 2.17773,-2.5625 0.72168,0 1.42578,0.36621 1.67969,1.06055 h 0.01855 v -2.77734 h 0.59082 c 0,0 0,6.70018 0,6.70018 z m -2.28906,-0.35644 c 1.25684,0 1.69824,-1.06055 1.69824,-2.06445 0,-1.0039 -0.44141,-2.06445 -1.69824,-2.06445 -1.12695,0 -1.58594,1.06055 -1.58594,2.06445 0,1.0039 0.45899,2.06445 1.58594,2.06445 z"
   id="path190"
   inkscape:connector-curvature="0"
   style="fill:#e5e5e5" />
		</g>
		<g
   id="g196">
			<path
   d="m 57.12695,23.50195 c 0,1.38867 -0.80664,2.56152 -2.29004,2.56152 -1.48242,0 -2.28906,-1.17285 -2.28906,-2.56152 0,-1.38867 0.80664,-2.5625 2.28906,-2.5625 1.4834,0 2.29004,1.17383 2.29004,2.5625 z m -3.98828,0 c 0,1.03223 0.56348,2.06445 1.69824,2.06445 1.13574,0 1.69922,-1.03223 1.69922,-2.06445 0,-1.03222 -0.56348,-2.06445 -1.69922,-2.06445 -1.13476,0 -1.69824,1.03223 -1.69824,2.06445 z"
   id="path194"
   inkscape:connector-curvature="0"
   style="fill:#e5e5e5" />
		</g>
		<g
   id="g200">
			<path
   d="m 60.91113,22.49805 c -0.02832,-0.73242 -0.5918,-1.06055 -1.2666,-1.06055 -0.52637,0 -1.14551,0.20605 -1.14551,0.83496 0,0.52539 0.60059,0.71289 1.00391,0.81641 l 0.78906,0.17871 c 0.67578,0.10254 1.37891,0.49707 1.37891,1.3418 0,1.05078 -1.04102,1.4541 -1.94238,1.4541 -1.12598,0 -1.89551,-0.52539 -1.98926,-1.70801 h 0.59082 c 0.04688,0.79785 0.63867,1.21094 1.42676,1.21094 0.55371,0 1.32324,-0.24414 1.32324,-0.91992 0,-0.5625 -0.52539,-0.75098 -1.06055,-0.88184 L 59.25976,23.5957 c -0.76953,-0.20703 -1.35156,-0.46973 -1.35156,-1.29492 0,-0.98535 0.9668,-1.36133 1.82031,-1.36133 0.9668,0 1.73633,0.50684 1.77344,1.55859 0,0 -0.59082,0 -0.59082,10e-6 z"
   id="path198"
   inkscape:connector-curvature="0"
   style="fill:#e5e5e5" />
		</g>
		<g
   id="g204">
			<path
   d="M 65.94238,22.60059 C 65.7832,21.87793 65.34179,21.4375 64.57226,21.4375 c -1.13477,0 -1.69824,1.03223 -1.69824,2.06445 0,1.03222 0.56348,2.06445 1.69824,2.06445 0.73242,0 1.33301,-0.57227 1.4082,-1.37988 h 0.59082 c -0.15918,1.16406 -0.91992,1.87695 -1.99902,1.87695 -1.48242,0 -2.28906,-1.17285 -2.28906,-2.56152 0,-1.38867 0.80664,-2.5625 2.28906,-2.5625 1.03223,0 1.83008,0.55371 1.96191,1.66113 h -0.59179 z"
   id="path202"
   inkscape:connector-curvature="0"
   style="fill:#e5e5e5" />
		</g>
		<g
   id="g208">
			<path
   d="m 67.40918,19.22266 h 0.5918 v 0.94727 h -0.5918 z m 0,1.85839 h 0.5918 v 4.8418 h -0.5918 z"
   id="path206"
   inkscape:connector-curvature="0"
   style="fill:#e5e5e5" />
		</g>
		<g
   id="g212">
			<path
   d="m 69.14648,19.22266 h 0.5918 v 6.7002 h -0.5918 z"
   id="path210"
   inkscape:connector-curvature="0"
   style="fill:#e5e5e5" />
		</g>
		<g
   id="g216">
			<path
   d="m 70.88379,19.22266 h 0.5918 v 6.7002 h -0.5918 z"
   id="path214"
   inkscape:connector-curvature="0"
   style="fill:#e5e5e5" />
		</g>
		<g
   id="g220">
			<path
   d="m 72.55566,22.56348 c 0.05664,-1.13574 0.85352,-1.62402 1.96094,-1.62402 0.85449,0 1.7832,0.2627 1.7832,1.55859 v 2.57129 c 0,0.22461 0.1123,0.35645 0.34766,0.35645 0.06543,0 0.14063,-0.01953 0.1875,-0.03809 v 0.49805 c -0.13184,0.02734 -0.22559,0.03711 -0.38477,0.03711 -0.60059,0 -0.69434,-0.33789 -0.69434,-0.84473 h -0.01953 c -0.41211,0.62891 -0.83496,0.98535 -1.76367,0.98535 -0.8916,0 -1.62402,-0.44141 -1.62402,-1.41699 0,-1.36035 1.32324,-1.40723 2.59961,-1.55762 0.48828,-0.05664 0.76074,-0.12207 0.76074,-0.65723 0,-0.79688 -0.57324,-0.99414 -1.26758,-0.99414 -0.73145,0 -1.27539,0.33789 -1.29492,1.12598 -2e-5,0 -0.59082,0 -0.59082,0 z m 3.15332,0.71289 h -0.01953 c -0.07422,0.14063 -0.33691,0.1875 -0.49707,0.21582 -1.00391,0.17871 -2.25195,0.16895 -2.25195,1.11719 0,0.59082 0.52539,0.95703 1.0791,0.95703 0.90039,0 1.69824,-0.57227 1.68945,-1.52051 z"
   id="path218"
   inkscape:connector-curvature="0"
   style="fill:#e5e5e5" />
		</g>
		<g
   id="g224">
			<path
   d="m 78.42285,21.08105 h 0.98535 v 0.49707 h -0.98535 v 3.26563 c 0,0.38477 0.05664,0.61035 0.47949,0.6377 0.16895,0 0.33789,-0.0088 0.50586,-0.02734 v 0.50586 c -0.17773,0 -0.34668,0.01953 -0.52539,0.01953 -0.78809,0 -1.05957,-0.2627 -1.05078,-1.08887 v -3.3125 H 76.9873 v -0.49707 h 0.84473 v -1.45508 h 0.59082 c -1e-5,0 -1e-5,1.45507 0,1.45507 z"
   id="path222"
   inkscape:connector-curvature="0"
   style="fill:#e5e5e5" />
		</g>
		<g
   id="g228">
			<path
   d="m 84.59961,23.50195 c 0,1.38867 -0.80664,2.56152 -2.29004,2.56152 -1.48242,0 -2.28906,-1.17285 -2.28906,-2.56152 0,-1.38867 0.80664,-2.5625 2.28906,-2.5625 1.4834,0 2.29004,1.17383 2.29004,2.5625 z m -3.98828,0 c 0,1.03223 0.56348,2.06445 1.69824,2.06445 1.13574,0 1.69922,-1.03223 1.69922,-2.06445 0,-1.03222 -0.56348,-2.06445 -1.69922,-2.06445 -1.13477,0 -1.69824,1.03223 -1.69824,2.06445 z"
   id="path226"
   inkscape:connector-curvature="0"
   style="fill:#e5e5e5" />
		</g>
		<g
   id="g232">
			<path
   d="m 85.48438,21.08105 h 0.54395 v 1.13477 h 0.01855 c 0.30078,-0.77832 0.95703,-1.23828 1.83008,-1.20117 v 0.5918 C 86.80665,21.54981 86.0752,22.3379 86.0752,23.3418 v 2.58105 h -0.59082 z"
   id="path230"
   inkscape:connector-curvature="0"
   style="fill:#e5e5e5" />
		</g>
		<g
   id="g242">
			<g
   id="g236">
				<path
   d="m 47.09961,166.67969 c -0.21973,-0.39941 -0.08008,-0.89941 0.31055,-1.12988 v 0 c 0.39941,-0.21973 0.90918,-0.0801 1.12988,0.32031 v 0 c 0.22949,0.38965 0.08984,0.89941 -0.31055,1.12012 v 0 c -0.12988,0.0791 -0.26953,0.10938 -0.41016,0.10938 v 0 c -0.29003,-10e-6 -0.56933,-0.14942 -0.71972,-0.41993 z m 2.21973,-1.12989 c -0.11914,-0.44043 0.15039,-0.88965 0.59082,-1.00977 v 0.01 c 0.44922,-0.12012 0.89941,0.15039 1.00977,0.58984 v 0 c 0.12012,0.44043 -0.15039,0.90039 -0.58984,1.00977 v 0 0 0 c -0.07031,0.0205 -0.14063,0.0303 -0.20996,0.0303 v 0 c -0.37013,1e-5 -0.70997,-0.24999 -0.80079,-0.62988 z"
   id="path234"
   inkscape:connector-curvature="0"
   style="fill:#e5e5e5" />
			</g>
			<g
   id="g240">
				<path
   d="m 45.84961,168.59961 c -0.12012,0 -0.21973,-0.0195 -0.32031,-0.0693 -0.09961,-0.04 -0.18945,-0.10059 -0.26953,-0.18066 -0.16016,-0.14941 -0.24023,-0.35938 -0.24023,-0.58008 0,-0.10938 0.02051,-0.21973 0.06055,-0.31934 0.04004,-0.10059 0.09961,-0.19043 0.17969,-0.27051 0.07031,-0.0703 0.16016,-0.13965 0.26953,-0.17969 0.2002,-0.0801 0.43066,-0.0801 0.63086,0 0.09961,0.04 0.18945,0.10938 0.26953,0.17969 0.08008,0.0801 0.13965,0.16992 0.17969,0.27051 0.04004,0.0996 0.06055,0.20996 0.06055,0.31934 0,0.2207 -0.08008,0.43066 -0.24023,0.58008 -0.16018,0.16016 -0.37014,0.25 -0.5801,0.25 z"
   id="path238"
   inkscape:connector-curvature="0"
   style="fill:#e5e5e5" />
			</g>
		</g>
		<g
   id="g252">
			<g
   id="g246">
				<path
   d="m 54.14941,183.83984 c -0.10938,-0.4502 0.16016,-0.90039 0.60059,-1.00977 v 0 0 0 c 0.43945,-0.11035 0.88965,0.14941 1.00977,0.59961 v 0 c 0.11035,0.44043 -0.16016,0.88965 -0.59961,1 v 0 c -0.07031,0.0205 -0.14063,0.0303 -0.20996,0.0303 v 0 c -0.36036,1e-5 -0.7002,-0.24999 -0.80079,-0.62011 z m 2.37989,-0.73046 c -0.21973,-0.39941 -0.08984,-0.89941 0.31055,-1.11914 v 0 c 0,0 0,0 0,-0.0107 v 0 c 0.40039,-0.21973 0.91016,-0.0801 1.12988,0.32031 v 0 c 0.23047,0.38965 0.08984,0.90039 -0.30957,1.12988 v 0 C 57.5293,183.5 57.38965,183.53028 57.25,183.53028 v 0 c -0.28027,-1e-5 -0.57031,-0.1504 -0.7207,-0.4209 z"
   id="path244"
   inkscape:connector-curvature="0"
   style="fill:#e5e5e5" />
			</g>
			<g
   id="g250">
				<path
   d="m 59.22949,182.04004 c -0.10938,0 -0.21973,-0.0205 -0.31934,-0.0606 -0.10059,-0.04 -0.19043,-0.10938 -0.26074,-0.17969 -0.08008,-0.0801 -0.13965,-0.16992 -0.17969,-0.26953 -0.04004,-0.10059 -0.07031,-0.21094 -0.07031,-0.32031 0,-0.11035 0.03027,-0.21973 0.07031,-0.32031 0.04004,-0.0996 0.09961,-0.18945 0.17969,-0.25977 0.07031,-0.0801 0.16016,-0.13965 0.26074,-0.17969 0.30957,-0.13086 0.67969,-0.0508 0.90918,0.17969 0.07031,0.0703 0.13086,0.16016 0.18066,0.25977 0.04004,0.10059 0.05957,0.20996 0.05957,0.32031 0,0.10938 -0.01953,0.21973 -0.05957,0.32031 -0.04004,0.0996 -0.10059,0.18945 -0.18066,0.26953 -0.15917,0.1504 -0.35937,0.24024 -0.58984,0.24024 z"
   id="path248"
   inkscape:connector-curvature="0"
   style="fill:#e5e5e5" />
			</g>
		</g>
		<g
   id="g266">
			<g
   id="g256">
				<path
   d="m 1.37012,24.21973 c -0.2207,0 -0.43066,-0.08008 -0.59082,-0.24023 -0.14941,-0.14941 -0.23926,-0.35938 -0.23926,-0.58008 0,-0.10938 0.01953,-0.21973 0.06934,-0.31934 C 0.64942,22.97949 0.70997,22.88965 0.7793,22.80957 1.00977,22.58008 1.37988,22.5 1.68945,22.62988 c 0.10059,0.04004 0.19043,0.09961 0.27051,0.17969 0.06934,0.08008 0.12988,0.16992 0.17969,0.27051 0.04004,0.09961 0.06055,0.20996 0.06055,0.31934 0,0.2207 -0.09082,0.43066 -0.24023,0.58008 -0.08008,0.08008 -0.16992,0.14063 -0.27051,0.18066 -0.09962,0.04004 -0.20997,0.05957 -0.31934,0.05957 z"
   id="path254"
   inkscape:connector-curvature="0"
   style="fill:#e5e5e5" />
			</g>
			<g
   id="g260">
				<path
   d="m 5.37988,23.39941 c 0,-0.45996 0.37988,-0.83008 0.83008,-0.83008 v 0 c 0.45996,0 0.83008,0.37012 0.83008,0.83008 v 0 c 0,0.4502 -0.37012,0.82031 -0.83008,0.82031 v 0 c -0.45019,10e-6 -0.83008,-0.37011 -0.83008,-0.82031 z"
   id="path258"
   inkscape:connector-curvature="0"
   style="fill:#e5e5e5" />
			</g>
			<g
   id="g264">
				<path
   d="m 11.05957,24.21973 c -0.21973,0 -0.42969,-0.08008 -0.58984,-0.24023 -0.08008,-0.08008 -0.13965,-0.16992 -0.17969,-0.26953 -0.04004,-0.10059 -0.06055,-0.2002 -0.06055,-0.31055 0,-0.21973 0.08984,-0.43945 0.24023,-0.58984 0.08008,-0.08008 0.16992,-0.13965 0.27051,-0.17969 0.19922,-0.08008 0.42969,-0.08008 0.62988,0 0.09961,0.04004 0.18945,0.09961 0.26953,0.17969 0.16016,0.15039 0.24023,0.37012 0.24023,0.58984 0,0.11035 -0.02051,0.20996 -0.06055,0.31055 -0.04004,0.09961 -0.09961,0.18945 -0.17969,0.26953 -0.08008,0.08008 -0.16992,0.14063 -0.26953,0.18066 -0.10057,0.04004 -0.20018,0.05957 -0.31053,0.05957 z"
   id="path262"
   inkscape:connector-curvature="0"
   style="fill:#e5e5e5" />
			</g>
		</g>
		<g
   id="g280">
			<g
   id="g270">
				<path
   d="m 91.58008,24.21973 c -0.11035,0 -0.2207,-0.01953 -0.32031,-0.05957 C 91.16016,24.12012 91.06934,24.05957 90.99024,23.9795 90.83984,23.83008 90.75,23.62012 90.75,23.39941 c 0,-0.10938 0.01953,-0.21973 0.05957,-0.31934 0.0498,-0.10059 0.11035,-0.19043 0.18066,-0.27051 0.30957,-0.30957 0.86914,-0.30957 1.16992,0 0.15918,0.15039 0.23926,0.37012 0.23926,0.58984 0,0.2207 -0.08008,0.43066 -0.23926,0.58008 -0.0703,0.08009 -0.16015,0.14064 -0.26074,0.18068 -0.09961,0.04004 -0.20996,0.05957 -0.31933,0.05957 z"
   id="path268"
   inkscape:connector-curvature="0"
   style="fill:#e5e5e5" />
			</g>
			<g
   id="g274">
				<path
   d="m 95.58984,23.39941 c 0,-0.45996 0.37012,-0.83008 0.83008,-0.83008 v 0 c 0.45996,0 0.83008,0.37012 0.83008,0.83008 v 0 c 0,0.4502 -0.37012,0.83008 -0.83008,0.83008 v 0 c -0.45996,0 -0.83008,-0.37988 -0.83008,-0.83008 z"
   id="path272"
   inkscape:connector-curvature="0"
   style="fill:#e5e5e5" />
			</g>
			<g
   id="g278">
				<path
   d="m 101.25977,24.22949 c -0.11035,0 -0.20996,-0.0293 -0.30957,-0.06934 -0.10059,-0.04004 -0.19043,-0.10059 -0.27051,-0.18066 -0.16016,-0.16016 -0.25,-0.35938 -0.25,-0.58008 0,-0.10938 0.0303,-0.21973 0.0703,-0.31934 0.04,-0.10059 0.0996,-0.19043 0.17969,-0.27051 0.23047,-0.22949 0.59961,-0.2998 0.90039,-0.17969 0.0996,0.04004 0.18945,0.09961 0.26953,0.17969 0.0801,0.08008 0.14063,0.16992 0.17969,0.27051 0.04,0.09961 0.0605,0.20996 0.0605,0.31934 0,0.2207 -0.0801,0.43066 -0.24023,0.58008 -0.0801,0.08008 -0.16992,0.14063 -0.26953,0.18066 -0.1006,0.04005 -0.20997,0.06934 -0.32032,0.06934 z"
   id="path276"
   inkscape:connector-curvature="0"
   style="fill:#e5e5e5" />
			</g>
		</g>
	</g>
</g>
</svg>