<?xml version="1.0" encoding="UTF-8" standalone="no"?>
<!-- Generator: Adobe Illustrator 24.0.0, SVG Export Plug-In . SVG Version: 6.00 Build 0)  -->

<svg
   xmlns:dc="http://purl.org/dc/elements/1.1/"
   xmlns:cc="http://creativecommons.org/ns#"
   xmlns:rdf="http://www.w3.org/1999/02/22-rdf-syntax-ns#"
   xmlns:svg="http://www.w3.org/2000/svg"
   xmlns="http://www.w3.org/2000/svg"
   xmlns:xlink="http://www.w3.org/1999/xlink"
   xmlns:sodipodi="http://sodipodi.sourceforge.net/DTD/sodipodi-0.dtd"
   xmlns:inkscape="http://www.inkscape.org/namespaces/inkscape"
   version="1.0"
   x="0px"
   y="0px"
   width="25.4mm"
   height="128.5mm"
   viewBox="0 0 95.999999 485.66934"
   enable-background="new 0 0 75 380"
   xml:space="preserve"
   id="svg287"
   sodipodi:docname="Fate-DM.svg"
   inkscape:version="0.92.3 (2405546, 2018-03-11)"><metadata
   id="metadata293"><rdf:RDF><cc:Work
       rdf:about=""><dc:format>image/svg+xml</dc:format><dc:type
         rdf:resource="http://purl.org/dc/dcmitype/StillImage" /><dc:title></dc:title></cc:Work></rdf:RDF></metadata><defs
   id="defs291" /><sodipodi:namedview
   pagecolor="#ffffff"
   bordercolor="#666666"
   borderopacity="1"
   objecttolerance="10"
   gridtolerance="10"
   guidetolerance="10"
   inkscape:pageopacity="0"
   inkscape:pageshadow="2"
   inkscape:window-width="1920"
   inkscape:window-height="1017"
   id="namedview289"
   showgrid="false"
   inkscape:document-units="mm"
   units="mm"
   fit-margin-top="0"
   fit-margin-left="0"
   fit-margin-right="0"
   fit-margin-bottom="0"
   inkscape:zoom="0.62105263"
   inkscape:cx="37.5"
   inkscape:cy="190.00003"
   inkscape:window-x="-8"
   inkscape:window-y="-8"
   inkscape:window-maximized="1"
   inkscape:current-layer="svg287" />
<symbol
   id="New_Symbol_1"
   viewBox="-13.97357 -13.97357 27.94715 27.94715"
   transform="translate(0,105.66929)">
	<g
   id="g48">
		<g
   id="g14">
			<circle
   cx="-7.0000002e-005"
   cy="-7.0000002e-005"
   r="12.92234"
   id="circle2"
   style="fill:#383838" />
			<path
   d="M 0.18597,1.05501 2.288,12.97617 c 0.05171,0.29326 0.33814,0.49424 0.62912,0.43093 1.85517,-0.40365 3.6086,-1.1885 5.14775,-2.30675 C 9.60402,9.9821 10.89229,8.55701 11.84946,6.91738 11.99959,6.66021 11.89696,6.32569 11.63403,6.18589 L 0.94589,0.5029 C 0.56149,0.29851 0.11038,0.62627 0.18597,1.05501 Z"
   id="path4"
   inkscape:connector-curvature="0"
   style="fill:#595959" />
			<path
   d="M 1.06087,0.14903 13.05143,1.83419 C 13.34428,1.87535 13.62242,1.66641 13.652,1.37216 13.69784,0.9163 13.72081,0.45831 13.72081,-8e-5 c 0,-3.37255 -1.24344,-6.62313 -3.47967,-9.13118 C 10.04268,-9.35383 9.6922,-9.35978 9.47769,-9.15263 L 0.77061,-0.7443 C 0.45744,-0.44188 0.62975,0.08844 1.06087,0.14903 Z"
   id="path6"
   inkscape:connector-curvature="0"
   style="fill:#595959" />
			<path
   d="M 0.46959,-0.96301 5.7761,-11.84296 c 0.13054,-0.26765 0.01695,-0.59861 -0.25567,-0.71842 -1.73813,-0.76388 -3.618,-1.15957 -5.52049,-1.15957 -1.90249,0 -3.78237,0.39569 -5.52049,1.15957 -0.27262,0.11981 -0.38621,0.45077 -0.25567,0.71842 l 5.30651,10.87995 c 0.19084,0.3913 0.74845,0.3913 0.9393,0 z"
   id="path8"
   inkscape:connector-curvature="0"
   style="fill:#595959" />
			<path
   d="m -0.77074,-0.7443 -8.70708,-8.40833 c -0.21451,-0.20715 -0.56499,-0.20119 -0.76345,0.02138 -2.23623,2.50805 -3.47967,5.75863 -3.47967,9.13118 0,0.45839 0.02297,0.91638 0.06881,1.37224 0.02958,0.29424 0.30772,0.50319 0.60057,0.46203 L -1.061,0.14903 c 0.43112,-0.06059 0.60343,-0.59091 0.29026,-0.89333 z"
   id="path10"
   inkscape:connector-curvature="0"
   style="fill:#595959" />
			<path
   d="m -0.94602,0.5029 -10.68813,5.68298 c -0.26293,0.1398 -0.36556,0.47432 -0.21543,0.73149 0.95718,1.63964 2.24545,3.06472 3.78459,4.18297 1.53914,1.11825 3.29258,1.9031 5.14775,2.30675 0.29098,0.06331 0.57741,-0.13767 0.62912,-0.43093 L -0.1861,1.05501 C -0.11051,0.62627 -0.56163,0.29851 -0.94602,0.5029 Z"
   id="path12"
   inkscape:connector-curvature="0"
   style="fill:#595959" />
		</g>
		<path
   d="M -7e-5,-0.01736 1.98732,11.2537 c 1.71216,-0.3019 3.33323,-0.99 4.73977,-2.01191 1.40654,-1.02191 2.5619,-2.351 3.37811,-3.88607 z"
   id="path16"
   inkscape:connector-curvature="0"
   style="fill:#424242" />
		<path
   d="m -7e-5,-0.01736 11.33355,1.59283 c 0.07416,-0.5277 0.11138,-1.05994 0.11138,-1.59283 0,-2.96519 -1.15234,-5.81734 -3.21214,-7.95032 z"
   id="path18"
   inkscape:connector-curvature="0"
   style="fill:#424242" />
		<path
   d="M -7e-5,-0.01736 5.01706,-10.304 c -1.56262,-0.76214 -3.27855,-1.15829 -5.01713,-1.15829 -1.73858,0 -3.45451,0.39615 -5.01713,1.15829 z"
   id="path20"
   inkscape:connector-curvature="0"
   style="fill:#424242" />
		<path
   d="m -7e-5,-0.01736 -8.23279,-7.95032 c -2.05979,2.13298 -3.21214,4.98513 -3.21214,7.95032 0,0.53289 0.03722,1.06512 0.11138,1.59283 z"
   id="path22"
   inkscape:connector-curvature="0"
   style="fill:#424242" />
		<path
   d="m -7e-5,-0.01736 -10.10527,5.37307 c 0.81621,1.53507 1.97158,2.86417 3.37811,3.88607 1.40653,1.0219 3.02761,1.71001 4.73977,2.01191 z"
   id="path24"
   inkscape:connector-curvature="0"
   style="fill:#424242" />
		<circle
   cx="-7.0000002e-005"
   cy="-0.01736"
   r="10.34727"
   id="circle26"
   style="fill:#424242" />
		<g
   id="g32">
			<path
   d="m -2.5e-4,2.79876 c -0.04639,0 -0.1984,0.01382 -0.22998,0.19297 L -2,13.02897 c -0.01184,0.06514 0.00395,0.13276 0.04244,0.18606 0.03751,0.05083 0.09081,0.08291 0.15003,0.0913 0.59815,0.08094 1.20617,0.1219 1.80728,0.1219 0.60111,0 1.20913,-0.04096 1.80728,-0.12239 0.05922,-0.0079 0.11252,-0.03998 0.15003,-0.09081 0.03849,-0.05379 0.05527,-0.12141 0.04343,-0.18655 L 0.23072,2.99222 C 0.19914,2.81258 0.04614,2.79876 -2.5e-4,2.79876 Z"
   id="path28"
   inkscape:connector-curvature="0"
   style="fill:#fcfcfc" />
			<path
   d="m -7e-5,13.13559 c 0.56724,0 1.13962,-0.03726 1.70239,-0.11081 l -1.70267,-9.65593 -1.7166,9.65402 c 0.56744,0.07481 1.14479,0.11272 1.71688,0.11272 m 0,0.58522 c -0.6179,0 -1.23489,-0.04174 -1.84677,-0.12488 -0.29416,-0.03998 -0.49323,-0.32524 -0.44167,-0.6176 L -0.51876,2.94156 C -0.4676,2.6514 -0.23383,2.50633 -7e-5,2.50633 c 0.23376,0 0.46753,0.14507 0.51869,0.43523 L 2.28837,12.97833 C 2.33993,13.27068 2.14086,13.55595 1.8467,13.59593 1.23483,13.67906 0.61784,13.72081 -7e-5,13.72081 Z"
   id="path30"
   inkscape:connector-curvature="0"
   style="fill:#b2b2b2" />
		</g>
		<g
   id="g38">
			<path
   d="m -1.58642,6.4069 c -0.23097,0 -0.41851,0.18704 -0.41851,0.41752 v 6.18629 c 0,0.23047 0.18754,0.41752 0.41851,0.41752 h 3.17334 c 0.22998,0 0.41752,-0.18704 0.41752,-0.41752 V 6.82442 C 2.00444,6.59395 1.8169,6.4069 1.58692,6.4069 Z"
   id="path34"
   inkscape:connector-curvature="0"
   style="fill:#fcfcfc" />
			<path
   d="m 1.58645,13.13559 c 0.06884,0 0.12485,-0.056 0.12485,-0.12485 V 6.8243 c 0,-0.06884 -0.05601,-0.12485 -0.12485,-0.12485 h -3.17303 c -0.06884,0 -0.12485,0.05601 -0.12485,0.12485 v 6.18645 c 0,0.06884 0.05601,0.12485 0.12485,0.12485 h 3.17303 m 0,0.58521 h -3.17303 c -0.39215,0 -0.71006,-0.31791 -0.71006,-0.71006 V 6.8243 c 0,-0.39215 0.31791,-0.71006 0.71006,-0.71006 h 3.17303 c 0.39216,0 0.71006,0.3179 0.71006,0.71006 v 6.18645 c 0,0.39215 -0.3179,0.71006 -0.71006,0.71006 z"
   id="path36"
   inkscape:connector-curvature="0"
   style="fill:#b2b2b2" />
		</g>
		<rect
   x="-2.2966399"
   y="7.6682401"
   width="4.5931501"
   height="4.1503201"
   id="rect40"
   style="opacity:0.36000001;fill:#969696" />
		
			<circle
   stroke-miterlimit="10"
   cx="-7.0000002e-005"
   cy="-0.00966"
   r="8.9293203"
   id="circle42"
   style="fill:#f3f3f3;stroke:#b2b2b2;stroke-width:0.57857001;stroke-miterlimit:10" />
		<g
   id="g46">
			<path
   d="m 0,13.72089 c 0.61789,0 1.23479,-0.04183 1.84676,-0.12486 0.29214,-0.0397 0.49058,-0.32148 0.44272,-0.61168 -5.2e-4,-0.0027 -0.00103,-0.0054 -0.00151,-0.0082 l -0.0459,-0.26107 0.04639,0.2633 c 3.5e-4,0.002 6.9e-4,0.004 0.00102,0.0059 0.04865,0.25244 0.27159,0.4345 0.51945,0.43447 0.03571,0 0.07199,-0.0038 0.10828,-0.01168 C 4.77236,13.00344 6.5256,12.21862 8.06489,11.10029 9.60418,9.9821 10.89227,8.55706 11.84946,6.91745 11.99974,6.66021 11.89709,6.32572 11.63404,6.18593 L 11.408,6.06563 c 0.69512,-1.30487 1.16274,-2.74571 1.37495,-4.26908 l 0.26847,0.03763 c 0.02481,0.00349 0.04952,0.00519 0.07398,0.00519 0.26426,0 0.49953,-0.1979 0.52664,-0.46712 0.0459,-0.4559 0.06885,-0.91389 0.06885,-1.37225 0,-3.3726 -1.24343,-6.62319 -3.47983,-9.13126 -0.10234,-0.11482 -0.24514,-0.17199 -0.38885,-0.17199 -0.13487,0 -0.27056,0.05035 -0.37437,0.15064 l -0.18853,0.18212 c -1.04108,-1.07786 -2.26896,-1.96793 -3.62984,-2.63319 l 0.11671,-0.23936 C 5.90672,-12.11052 5.79321,-12.44156 5.52029,-12.56136 3.78235,-13.32533 1.90252,-13.72089 0,-13.72089 c -1.90252,0 -3.78235,0.39556 -5.52053,1.15953 -0.27268,0.1198 -0.38618,0.45084 -0.25564,0.71832 l 0.11671,0.23936 c -1.36112,0.66526 -2.58876,1.55534 -3.62984,2.63319 L -9.47784,-9.1526 c -0.10383,-0.10031 -0.23954,-0.15064 -0.37449,-0.15064 -0.14376,0 -0.28665,0.05718 -0.38899,0.17199 -2.23614,2.50806 -3.47957,5.75865 -3.47957,9.13125 0,0.45836 0.02295,0.91635 0.06885,1.37224 0.02711,0.26923 0.26236,0.46715 0.52664,0.46712 0.02444,0 0.04918,-0.0017 0.07398,-0.00519 l 0.26823,-0.03776 c 0.21246,1.52339 0.67983,2.96435 1.37519,4.26921 l -0.22603,0.1203 c -0.26304,0.13978 -0.36569,0.47428 -0.21567,0.73152 0.95744,1.63961 2.24552,3.06465 3.78482,4.18284 1.53905,1.11832 3.29253,1.90315 5.14768,2.30685 0.03633,0.0079 0.07259,0.01169 0.10832,0.01169 0.25044,0 0.47532,-0.18587 0.52067,-0.44241 l -2.4e-4,0.002 c -0.05158,0.29228 0.14757,0.57766 0.4417,0.61764 0.61172,0.08303 1.22886,0.12486 1.84675,0.12486 m 0,0.25268 c -0.62632,0 -1.2591,-0.04278 -1.88075,-0.12716 -0.2041,-0.02775 -0.38464,-0.13436 -0.50964,-0.30066 -0.12259,0.07961 -0.26708,0.12574 -0.41849,0.12574 -0.05428,0 -0.10879,-0.0059 -0.16204,-0.01747 -1.90327,-0.41416 -3.66709,-1.20459 -5.2425,-2.34933 -1.57529,-1.14435 -2.87214,-2.57757 -3.85449,-4.25984 -0.10598,-0.18173 -0.13218,-0.39463 -0.07386,-0.59964 0.05871,-0.20637 0.20056,-0.38221 0.38916,-0.48243 l 0.0049,-0.00263 c -0.61247,-1.2065 -1.03177,-2.50902 -1.24853,-3.87859 l -0.02,0.00281 c -0.03662,0.00515 -0.07314,0.00765 -0.1092,0.00765 -0.39707,3e-5 -0.73884,-0.30503 -0.77805,-0.69448 C -13.94998,0.93538 -13.97357,0.46518 -13.97357,0 c 0,-3.43377 1.25849,-6.73637 3.54366,-9.29941 0.14529,-0.16301 0.35583,-0.25651 0.57759,-0.25651 0.20679,0 0.40213,0.0787 0.55005,0.22159 l 0.00853,0.00824 c 0.96477,-0.96105 2.07211,-1.76417 3.29755,-2.39164 l -0.0071,-0.01456 c -0.09362,-0.19184 -0.10497,-0.41746 -0.0311,-0.61894 0.07337,-0.20013 0.21976,-0.3569 0.41223,-0.44146 1.78275,-0.78358 3.67433,-1.18088 5.62216,-1.18088 1.94791,0 3.83942,0.39731 5.62198,1.1809 0.19247,0.08449 0.33897,0.24127 0.41239,0.44143 0.0739,0.20147 0.06257,0.4271 -0.03111,0.61903 l -0.00707,0.01449 c 1.22561,0.62765 2.33296,1.43076 3.29756,2.39163 l 0.00854,-0.00825 c 0.1479,-0.14289 0.3432,-0.22158 0.54993,-0.22158 0.22168,0 0.43217,0.0935 0.57748,0.25654 2.2853,2.5629 3.54388,5.8655 3.54388,9.29938 0,0.46518 -0.02359,0.93538 -0.07012,1.39755 -0.03921,0.38943 -0.38098,0.69449 -0.77805,0.69449 -0.03608,0 -0.07253,-0.0025 -0.10914,-0.00764 L 12.99603,2.08156 c -0.21647,1.36892 -0.63567,2.67133 -1.24837,3.87858 l 0.0051,0.00272 c 0.18853,0.10019 0.33038,0.27609 0.38903,0.48252 0.05825,0.20504 0.03192,0.41794 -0.07415,0.59951 -0.982,1.68212 -2.27877,3.11535 -3.85425,4.25982 -1.57573,1.1448 -3.33956,1.93523 -5.24246,2.34932 C 2.91772,13.66561 2.86324,13.67148 2.809,13.6715 2.65591,13.67151 2.51134,13.62634 2.3891,13.54748 2.26412,13.71275 2.08396,13.81879 1.8808,13.8464 1.25885,13.93079 0.62608,13.97357 0,13.97357 Z"
   id="path44"
   inkscape:connector-curvature="0"
   style="fill:#141414" />
		</g>
	</g>
</symbol>
<symbol
   id="New_Symbol_3"
   viewBox="-17.67266 -17.67271 35.34532 35.34532"
   transform="translate(0,105.66929)">
	<g
   id="g63">
		<g
   id="g61">
			<g
   id="g59">
				<polyline
   stroke-miterlimit="10"
   points="      -11.91069,-11.91073 0,-0.00005 11.91069,-11.91073     "
   id="polyline51"
   style="fill:none;stroke:#262626;stroke-width:1.65681005;stroke-linejoin:round;stroke-miterlimit:10" />
				<circle
   cx="0"
   cy="-4.9999999e-005"
   r="16.84425"
   id="circle53"
   style="fill:#e5e5e5" />
				
					<path
   stroke-miterlimit="10"
   d="m 14.15755,-9.13026 c 1.69995,2.63056 2.68671,5.76515 2.68671,9.13022 0,9.30282 -7.54143,16.84425 -16.84425,16.84425 -9.30282,0 -16.84426,-7.54143 -16.84426,-16.84426 0,-3.28493 0.94032,-6.35024 2.56648,-8.94144"
   id="path55"
   inkscape:connector-curvature="0"
   style="fill:#e5e5e5;stroke:#262626;stroke-width:1.65681005;stroke-linecap:round;stroke-linejoin:round;stroke-miterlimit:10" />
				
					<path
   stroke-miterlimit="10"
   d="M -11.9107,-11.91072 C -8.86249,-14.95894 -4.65142,-16.8443 0,-16.8443 c 4.65141,0 8.86247,1.88536 11.91068,4.93356"
   id="path57"
   inkscape:connector-curvature="0"
   style="fill:#e5e5e5;stroke:#262626;stroke-width:1.65681005;stroke-linecap:round;stroke-linejoin:round;stroke-miterlimit:10" />
			</g>
		</g>
	</g>
	
		<use
   xlink:href="#New_Symbol_1"
   width="27.947149"
   height="27.947149"
   x="-13.97357"
   y="-13.97357"
   transform="translate(8.87217e-6,-105.66931)"
   overflow="visible"
   id="use65"
   style="overflow:visible" />
</symbol>
<g
   id="base"
   display="none"
   style="display:none"
   transform="translate(0,105.66929)">
</g>
<g
   id="GUIDES"
   display="none"
   style="display:none"
   transform="translate(0,105.66929)">
</g>
<g
   id="bg"
   transform="matrix(1.2800162,0,0,1.2800162,-6.0555561e-4,-0.36841885)">
	<linearGradient
   id="SVGID_1_"
   gradientUnits="userSpaceOnUse"
   x1="-73.762527"
   y1="79.648537"
   x2="149.23051"
   y2="302.6416">
		<stop
   offset="0.38537"
   style="stop-color:#FFCC9E"
   id="stop70" />
		<stop
   offset="0.62112"
   style="stop-color:#F1AD8C"
   id="stop72" />
		<stop
   offset="0.85662"
   style="stop-color:#E6947E"
   id="stop74" />
		<stop
   offset="1"
   style="stop-color:#E28B79"
   id="stop76" />
	</linearGradient>
	<rect
   x="2.28338"
   y="3.6026399"
   width="70.901222"
   height="375.08487"
   id="rect79"
   style="fill:url(#SVGID_1_)" />
	<g
   id="g97">
		<path
   d="m 23.43164,331.22168 c 0.6875,0.21484 1.41992,-0.16797 1.63281,-0.85059 0.21387,-0.68164 -0.16992,-1.41406 -0.85645,-1.62891 -0.69238,-0.2168 -1.4248,0.16602 -1.6377,0.84863 -0.21385,0.68165 0.16993,1.41407 0.86134,1.63087 z"
   id="path81"
   inkscape:connector-curvature="0"
   style="fill:#252626" />
		<path
   d="m 10.57031,103.27051 c -0.07129,-0.1416 -0.24512,-0.19531 -0.38086,-0.12695 l -0.61133,0.30566 0.25488,0.50879 0.61035,-0.30566 c 0.1377,-0.0684 0.19728,-0.24024 0.12696,-0.38184 z"
   id="path83"
   inkscape:connector-curvature="0"
   style="fill:#252626" />
		<path
   d="m 29.80176,107.0127 -0.44727,0.34961 0.41992,0.53906 c 0.09277,0.12109 0.27246,0.14648 0.39746,0.0498 0.12598,-0.0977 0.14355,-0.27832 0.05078,-0.40039 z"
   id="path85"
   inkscape:connector-curvature="0"
   style="fill:#252626" />
		<path
   d="m 45.39844,319.99316 -1.21777,2.13281 0.50293,0.28711 c 0.60645,0.34668 1.37305,0.14844 1.70898,-0.43848 0.33496,-0.58887 0.11719,-1.34766 -0.49023,-1.69434 z"
   id="path87"
   inkscape:connector-curvature="0"
   style="fill:#252626" />
		<polygon
   points="33.10449,13.18164 32.74023,12.0332 32.36426,13.18164 "
   id="polygon89"
   style="fill:#252626" />
		<path
   d="m 52.16504,327.02148 c 0.13184,-0.0762 0.18262,-0.25098 0.10938,-0.37891 l -0.33203,-0.57617 -0.4873,0.28027 0.33203,0.57617 c 0.07714,0.1338 0.24608,0.17482 0.37792,0.0986 z"
   id="path91"
   inkscape:connector-curvature="0"
   style="fill:#252626" />
		<path
   d="M 0,0 V 380 H 75 V 0 Z m 66.35229,116.94623 c 0.23096,0.28668 0.25,0.70404 0.0188,1.01324 -0.27368,0.36713 -0.7915,0.44336 -1.15869,0.1698 -4.72314,-3.51477 -11.22778,-3.38684 -15.81934,0.31262 -5.54907,4.47083 -6.42627,12.62317 -1.95557,18.17218 4.47095,5.54895 12.62329,6.42615 18.17236,1.95532 4.4502,-3.58551 6.02319,-9.76904 3.82446,-15.03674 -0.17627,-0.42242 0.02393,-0.90723 0.4458,-1.08405 0.42236,-0.17609 0.9082,0.0206 1.08398,0.4458 2.479,5.94379 0.70532,12.91968 -4.31519,16.96466 -6.26074,5.04437 -15.45654,4.05487 -20.50098,-2.20587 -5.04443,-6.2608 -4.05493,-15.45673 2.20581,-20.50104 5.17944,-4.17303 12.51953,-4.31812 17.84741,-0.35138 0.05814,0.0424 0.1077,0.0914 0.15115,0.14546 z m -27.67358,197.1701 v 20.33875 c 0,0.41406 -0.33594,0.75 -0.75,0.75 -0.41406,0 -0.75,-0.33594 -0.75,-0.75 v -20.29877 c -4.5918,-0.0866 -8.89917,-1.90216 -12.15625,-5.15924 -0.32324,-0.32324 -0.32324,-0.84863 0,-1.17188 0.32422,-0.32227 0.84766,-0.32227 1.17188,0 3.02441,3.02539 7.04688,4.69141 11.32422,4.69141 4.27734,0 8.2998,-1.66602 11.3252,-4.69141 0.32422,-0.32227 0.84766,-0.32227 1.17188,0 0.32324,0.32422 0.32324,0.84863 0,1.17188 -3.063,3.06207 -7.05495,4.84277 -11.33693,5.11926 z m 8.34375,8.21863 c -0.53027,0.92871 -1.74023,1.24316 -2.69336,0.69922 l -1.13281,-0.64746 1.92676,-3.375 1.13281,0.64746 c 0.95312,0.54395 1.29785,1.74609 0.7666,2.67578 z m -16.4248,-1.56445 1.41797,-0.73145 0.33301,0.64648 -1.41797,0.73145 0.53027,1.0293 1.58301,-0.81641 0.33105,0.63965 -2.23242,1.1543 -1.78516,-3.45801 2.27734,-1.1748 0.32617,0.63086 -1.62695,0.83984 z m -6.52832,-85.29102 c 0.06055,0.11035 0.17871,0.22949 0.37695,0.39258 0.02734,0.0186 0.06152,0.0488 0.09473,0.0781 0.18555,0.1416 0.42969,0.33789 0.5625,0.5459 0.12109,0.17188 0.18652,0.35742 0.20313,0.54297 0.01661,0.18555 -0.02344,0.37402 -0.11133,0.54883 -0.11133,0.21973 -0.26855,0.38477 -0.46875,0.49121 -0.17383,0.0898 -0.38574,0.13672 -0.63477,0.13184 -0.21484,0.003 -0.4248,-0.0547 -0.66406,-0.17578 -0.11133,-0.0557 -0.22168,-0.12891 -0.33105,-0.21582 -0.32422,-0.25488 -0.58691,-0.60645 -0.75879,-1.0293 l -0.05078,-0.13086 0.67578,-0.27051 0.0498,0.12988 c 0.12695,0.30762 0.30957,0.56445 0.52832,0.73633 l 0.0039,0.003 c 0.06641,0.0508 0.13477,0.0986 0.20898,0.13477 0.12109,0.0615 0.24512,0.0928 0.35938,0.0957 0.14258,0.0117 0.33203,-0.0273 0.43359,-0.22656 0.05273,-0.1084 0.04199,-0.21875 -0.03613,-0.3418 -0.09473,-0.15234 -0.25684,-0.29004 -0.37695,-0.38086 -0.05371,-0.0381 -0.49902,-0.39258 -0.66406,-0.63379 -0.10449,-0.16992 -0.16211,-0.3457 -0.17676,-0.52344 -0.01172,-0.18359 0.0293,-0.35938 0.11523,-0.5293 0.09277,-0.18457 0.24414,-0.34082 0.44336,-0.45508 0.17773,-0.0879 0.38281,-0.13086 0.60059,-0.125 0.2168,0.006 0.43457,0.0596 0.64355,0.16602 0.08398,0.042 0.16699,0.0957 0.24902,0.14941 0.29199,0.2207 0.53613,0.52734 0.69531,0.90137 l 0.05273,0.12402 -0.66699,0.29297 -0.05371,-0.125 c -0.18652,-0.41699 -0.43066,-0.61328 -0.60449,-0.70117 -0.11328,-0.0586 -0.22754,-0.085 -0.33594,-0.0898 -0.16699,-0.006 -0.31445,0.0684 -0.37305,0.18457 -0.05468,0.10644 -0.0498,0.19433 0.01075,0.30468 z m -4.5,-2.00488 0.14941,-0.70605 2.58984,0.55078 -0.15137,0.70508 -0.93457,-0.19824 -0.66016,3.10254 -0.71582,-0.15234 0.6582,-3.10352 z M 15.92871,211.5 c 0,-9.48242 6.33984,-17.99805 15.41699,-20.70801 0.40234,-0.12012 0.81445,0.1084 0.93359,0.50391 0.11816,0.39746 -0.10742,0.81543 -0.50391,0.93359 -8.44727,2.52148 -14.34668,10.44629 -14.34668,19.27051 0,8.82422 5.89941,16.74902 14.34668,19.27051 0.39648,0.11816 0.62207,0.53613 0.50391,0.93359 -0.09766,0.3252 -0.39551,0.53516 -0.71875,0.53516 -0.07031,0 -0.14258,-0.01 -0.21484,-0.0312 C 22.26855,229.49805 15.92871,220.98242 15.92871,211.5 Z m 16.65137,-84.48047 c -0.18066,0 -0.36035,-0.0596 -0.52051,-0.17969 -0.34961,-0.29004 -0.41016,-0.80957 -0.12012,-1.16992 0.28027,-0.35059 0.80078,-0.41016 1.16016,-0.12012 0.36035,0.28027 0.41016,0.80957 0.12988,1.16016 -0.16992,0.20996 -0.41015,0.30957 -0.64941,0.30957 z m 2.93945,75.35059 c -0.45996,0 -0.83008,-0.37012 -0.83008,-0.83008 0,-0.45996 0.37012,-0.83008 0.83008,-0.83008 0.45996,0 0.83008,0.37012 0.83008,0.83008 0,0.45996 -0.37012,0.83008 -0.83008,0.83008 z m 0.82031,2.80957 c 0,0.11035 -0.02051,0.21973 -0.06055,0.31055 -0.03906,0.10938 -0.09961,0.19922 -0.17969,0.26953 -0.08008,0.0801 -0.16992,0.13965 -0.26953,0.17969 -0.10059,0.04 -0.2002,0.0703 -0.31055,0.0703 -0.10938,0 -0.21973,-0.0303 -0.31934,-0.0703 -0.10059,-0.04 -0.19043,-0.0996 -0.27051,-0.17969 -0.07031,-0.0703 -0.13965,-0.16016 -0.17969,-0.26953 -0.04004,-0.0908 -0.06055,-0.2002 -0.06055,-0.31055 0,-0.21973 0.08984,-0.43945 0.24023,-0.58984 0.08008,-0.0801 0.16992,-0.13965 0.27051,-0.17969 0.30957,-0.12988 0.67969,-0.0508 0.89941,0.17969 0.16019,0.15038 0.24026,0.37011 0.24026,0.58984 z m -0.82031,-6.43946 c -0.45996,0 -0.83008,-0.37012 -0.83008,-0.83008 0,-0.45996 0.37012,-0.83008 0.83008,-0.83008 0.45996,0 0.83008,0.37012 0.83008,0.83008 0,0.45996 -0.37012,0.83008 -0.83008,0.83008 z m 0,-3.63085 c -0.45996,0 -0.83008,-0.37988 -0.83008,-0.8291 0,-0.46094 0.37012,-0.83008 0.83008,-0.83008 0.45996,0 0.83008,0.36914 0.83008,0.83008 0,0.44921 -0.37012,0.8291 -0.83008,0.8291 z m 0,-3.63965 c -0.45996,0 -0.83008,-0.37012 -0.83008,-0.82031 0,-0.45996 0.37012,-0.83008 0.83008,-0.83008 0.45996,0 0.83008,0.37012 0.83008,0.83008 0,0.45019 -0.37012,0.82031 -0.83008,0.82031 z m 0,-3.62989 c -0.45996,0 -0.83008,-0.37012 -0.83008,-0.82031 0,-0.45996 0.37012,-0.83008 0.83008,-0.83008 0.45996,0 0.83008,0.37012 0.83008,0.83008 0,0.4502 -0.37012,0.82031 -0.83008,0.82031 z m 0,-3.62988 c -0.45996,0 -0.83008,-0.37012 -0.83008,-0.82031 0,-0.45996 0.37012,-0.83008 0.83008,-0.83008 0.45996,0 0.83008,0.37012 0.83008,0.83008 0,0.45019 -0.37012,0.82031 -0.83008,0.82031 z m 0,-3.62988 c -0.45996,0 -0.83008,-0.37012 -0.83008,-0.82031 0,-0.45996 0.37012,-0.83008 0.83008,-0.83008 0.45996,0 0.83008,0.37012 0.83008,0.83008 0,0.45019 -0.37012,0.82031 -0.83008,0.82031 z m 0,-3.62988 c -0.45996,0 -0.83008,-0.37012 -0.83008,-0.83008 0,-0.4502 0.37012,-0.82031 0.83008,-0.82031 0.45996,0 0.83008,0.37012 0.83008,0.82031 0,0.45996 -0.37012,0.83008 -0.83008,0.83008 z m 0,-3.63086 c -0.45996,0 -0.83008,-0.36914 -0.83008,-0.8291 0,-0.45996 0.37012,-0.83008 0.83008,-0.83008 0.45996,0 0.83008,0.37012 0.83008,0.83008 0,0.45996 -0.37012,0.8291 -0.83008,0.8291 z m 0,-3.62989 c -0.45996,0 -0.83008,-0.37012 -0.83008,-0.83008 0,-0.44922 0.37012,-0.8291 0.83008,-0.8291 0.45996,0 0.83008,0.37988 0.83008,0.8291 0,0.45997 -0.37012,0.83008 -0.83008,0.83008 z m 0,-3.62988 c -0.45996,0 -0.83008,-0.37012 -0.83008,-0.83008 0,-0.44922 0.37012,-0.83008 0.83008,-0.83008 0.45996,0 0.83008,0.38086 0.83008,0.83008 0,0.45996 -0.37012,0.83008 -0.83008,0.83008 z m 0,-3.62988 c -0.45996,0 -0.83008,-0.37012 -0.83008,-0.83008 0,-0.4502 0.37012,-0.83008 0.83008,-0.83008 0.45996,0 0.83008,0.37988 0.83008,0.83008 0,0.45996 -0.37012,0.83008 -0.83008,0.83008 z m 0,-3.62989 c -0.45996,0 -0.83008,-0.37012 -0.83008,-0.83008 0,-0.45996 0.37012,-0.83008 0.83008,-0.83008 0.45996,0 0.83008,0.37012 0.83008,0.83008 0,0.45996 -0.37012,0.83008 -0.83008,0.83008 z m 0,-3.62988 c -0.45996,0 -0.83008,-0.37012 -0.83008,-0.83008 0,-0.45996 0.37012,-0.83008 0.83008,-0.83008 0.45996,0 0.83008,0.37012 0.83008,0.83008 0,0.45996 -0.37012,0.83008 -0.83008,0.83008 z m 0,-3.62988 c -0.45996,0 -0.83008,-0.37012 -0.83008,-0.83008 0,-0.45996 0.37012,-0.83008 0.83008,-0.83008 0.45996,0 0.83008,0.37012 0.83008,0.83008 0,0.45996 -0.37012,0.83008 -0.83008,0.83008 z m 0,-3.62988 c -0.45996,0 -0.83008,-0.37988 -0.83008,-0.83008 0,-0.45996 0.37012,-0.83008 0.83008,-0.83008 0.45996,0 0.83008,0.37012 0.83008,0.83008 0,0.45019 -0.37012,0.83008 -0.83008,0.83008 z m 0,-3.64063 c -0.45996,0 -0.83008,-0.37012 -0.83008,-0.81934 0,-0.45996 0.37012,-0.83008 0.83008,-0.83008 0.45996,0 0.83008,0.37012 0.83008,0.83008 0,0.44922 -0.37012,0.81934 -0.83008,0.81934 z m 0,-3.62988 c -0.45996,0 -0.83008,-0.37012 -0.83008,-0.82031 0,-0.45996 0.37012,-0.8291 0.83008,-0.8291 0.45996,0 0.83008,0.36914 0.83008,0.8291 0,0.45019 -0.37012,0.82031 -0.83008,0.82031 z m 0,-3.62012 c -0.45996,0 -0.83008,-0.37012 -0.83008,-0.83008 0,-0.45996 0.37012,-0.83008 0.83008,-0.83008 0.45996,0 0.83008,0.37012 0.83008,0.83008 0,0.45996 -0.37012,0.83008 -0.83008,0.83008 z m 0,-3.63965 c -0.45996,0 -0.83008,-0.37012 -0.83008,-0.82031 0,-0.45996 0.37012,-0.83008 0.83008,-0.83008 0.45996,0 0.83008,0.37012 0.83008,0.83008 0,0.4502 -0.37012,0.82031 -0.83008,0.82031 z m -0.37988,-3.59961 c -0.11035,0.0498 -0.22949,0.0791 -0.33984,0.0791 -0.32031,0 -0.61035,-0.17969 -0.75977,-0.47949 -0.19043,-0.41992 -0.01074,-0.91016 0.41016,-1.09961 0.41992,-0.19043 0.90918,-0.0107 1.09961,0.39941 0.19042,0.41993 0.0098,0.91016 -0.41016,1.10059 z m 5.75879,-38.08496 0.12012,-1.5918 0.72559,0.05566 -0.1211,1.59083 1.1543,0.08789 0.13672,-1.77637 0.71875,0.05566 -0.19238,2.50586 -3.87793,-0.29492 0.19434,-2.55664 0.70801,0.05469 -0.13867,1.8252 z m 0.02148,2.46289 0.71582,-0.13281 0.29199,1.57031 1.13867,-0.21289 -0.3252,-1.75195 0.70898,-0.13184 0.45996,2.47168 -3.82617,0.71191 -0.46875,-2.52051 0.69922,-0.12891 0.33398,1.7998 0.56445,-0.10449 z m 0.32617,5.62305 c -0.11035,-0.2373 -0.12109,-0.50391 -0.03027,-0.75879 0.09277,-0.25391 0.26953,-0.45215 0.50684,-0.56348 0.35156,-0.16602 0.76563,-0.10742 1.05762,0.12988 l 1.1875,-2.1582 0.36816,0.78125 -1.13281,2.05859 0.13281,0.28223 1.71875,-0.80957 0.30273,0.6416 -3.51758,1.65625 z m 2.05274,2.19727 1.19824,1.38086 0.43262,-0.37402 -0.66113,-0.76367 0.54492,-0.47168 0.66113,0.7627 1.41895,-1.22949 0.47559,0.5498 -2.9375,2.54395 -1.67285,-1.93164 z m 15.75879,-26.21485 0.71191,0.16211 -0.70703,3.09082 1.93164,0.44238 -0.16016,0.69531 -2.64355,-0.60449 z m -1.56934,3.68946 -2.71289,0.10352 -0.14844,-3.88867 0.73145,-0.02734 0.12109,3.17285 1.98145,-0.0752 z M 55.83081,45.24982 c 0.41992,-0.17664 0.90601,0.02209 1.08301,0.44196 0.177,0.41962 -0.02222,0.90558 -0.44189,1.08246 -0.10522,0.04419 -0.21582,0.06635 -0.32056,0.06635 -0.32593,0 -0.63013,-0.18799 -0.76245,-0.50269 -0.18238,-0.42524 0.01635,-0.9112 0.44189,-1.08808 z m -0.59399,6.35858 c 0.04443,0.45844 -0.2876,0.86157 -0.74023,0.90558 -0.02808,0.0056 -0.05566,0.0056 -0.08301,0.0056 -0.41992,0 -0.78467,-0.3147 -0.82349,-0.74561 -0.04956,-0.45276 0.2876,-0.86157 0.74048,-0.90576 0.45312,-0.04963 0.86206,0.28179 0.90625,0.74017 z M 48.61133,8.9834 h 5.3584 v 1.87891 H 50.5332 v 0.67383 h 3.00586 v 1.91113 H 50.5332 v 1.50195 h 3.35938 v 1.90039 h -5.28125 z m 4.92773,70.84961 -0.70703,0.18457 -0.98242,-3.75781 0.70703,-0.18555 z m -4.6875,2.09277 -0.57227,0.35156 -2.95508,-2.74414 0.65039,-0.40039 2.125,1.98145 -0.05273,-1.74512 0.57031,-0.35156 1.52734,0.84277 -0.79785,-2.79395 0.64648,-0.39648 1.10449,3.87891 -0.57227,0.35059 -1.73828,-0.95605 z m 1.40137,-39.7337 c -0.1604,0.16016 -0.37012,0.23755 -0.58008,0.23755 -0.21533,0 -0.43115,-0.08276 -0.59131,-0.24866 -0.32056,-0.32574 -0.32056,-0.85052 0.01123,-1.17059 0.32593,-0.32037 0.85083,-0.31494 1.17139,0.01105 0.32056,0.32574 0.31445,0.85027 -0.01123,1.17065 z M 47.7998,36.76886 c 0.25439,-0.38104 0.76807,-0.48596 1.14941,-0.2265 0.38086,0.25397 0.48022,0.7677 0.22607,1.14874 -0.16016,0.23755 -0.41992,0.36456 -0.68457,0.36456 -0.1604,0 -0.32056,-0.04419 -0.46484,-0.13806 C 47.64502,37.65796 47.5459,37.14447 47.7998,36.76886 Z M 39.03516,8.9834 h 5.5127 v 1.90039 h -1.80078 v 5.96582 H 40.83595 V 10.88379 H 39.03517 V 8.9834 Z m 5.09033,28.84576 c -0.12158,0.33679 -0.44189,0.54688 -0.7793,0.54688 -0.09375,0 -0.18774,-0.01672 -0.28174,-0.04987 -0.43091,-0.15454 -0.65161,-0.62939 -0.49731,-1.06036 0.15479,-0.4306 0.63013,-0.65173 1.06079,-0.49695 0.43115,0.15448 0.65234,0.62964 0.49756,1.0603 z m -1.75684,-3.33575 c -0.08325,0.39209 -0.42578,0.66284 -0.81274,0.66284 -0.05493,0 -0.11011,-0.0057 -0.16577,-0.01672 -0.44727,-0.09381 -0.73486,-0.53015 -0.64624,-0.97754 0.08838,-0.44733 0.5249,-0.73425 0.97827,-0.64612 0.44726,0.0885 0.73486,0.53021 0.64648,0.97754 z m 6.60401,31.95386 c 0.32422,-0.32227 0.84766,-0.32422 1.17188,0 0.32324,0.32324 0.32324,0.84766 0,1.17188 -3.19385,3.19495 -7.3999,4.99634 -11.89453,5.14648 v 5.90039 c 0,1.94434 1.06543,3.72363 2.7793,4.64355 l 17.20313,9.22754 c 0.36523,0.19629 0.50195,0.65039 0.30664,1.01563 -0.13574,0.25195 -0.39453,0.39551 -0.66211,0.39551 -0.11914,0 -0.24023,-0.02832 -0.35352,-0.08887 L 40.32032,84.63184 C 38.11816,83.4502 36.75,81.16406 36.75,78.66602 v -5.91486 c -4.38184,-0.21881 -8.47437,-2.00769 -11.59863,-5.13202 -0.32324,-0.32324 -0.32324,-0.84863 0,-1.17188 0.32422,-0.32227 0.84766,-0.32227 1.17188,0 3.02441,3.02539 7.04688,4.69141 11.3252,4.69141 4.27832,0 8.30077,-1.66601 11.32421,-4.6914 z m -19.42481,42.16992 -0.68262,2.36914 -0.53125,-0.67969 0.65039,-2.26172 -0.19141,-0.24609 -1.5,1.16992 -0.43848,-0.55957 3.07129,-2.39453 0.85645,1.10059 c 0.16211,0.20703 0.23047,0.46484 0.19727,0.73242 -0.0332,0.26855 -0.16309,0.50195 -0.36914,0.66406 -0.30762,0.23828 -0.72363,0.27246 -1.0625,0.10547 z m 0.63184,16.14258 c -0.15039,0.27051 -0.42969,0.42969 -0.72949,0.42969 -0.13086,0 -0.27051,-0.0293 -0.39063,-0.0996 -0.39941,-0.20996 -0.55957,-0.71973 -0.33984,-1.12012 0.21973,-0.40039 0.71973,-0.5498 1.12012,-0.33984 0.41015,0.21972 0.55956,0.71972 0.33984,1.12988 z m -6.52344,-19.69043 -0.03613,0.0225 c -0.54199,0.37402 -1.22168,0.47266 -1.82617,0.26563 -1.05957,-0.35938 -1.62891,-1.51563 -1.26758,-2.58008 0.36035,-1.06055 1.51758,-1.62891 2.57617,-1.26953 0.25879,0.0889 0.49414,0.22656 0.69238,0.40332 0.2002,0.17676 0.36426,0.38867 0.47949,0.62891 l 0.06445,0.13184 -0.66504,0.27539 -0.05957,-0.1123 c -0.14551,-0.30273 -0.40918,-0.52539 -0.74609,-0.63965 -0.68066,-0.23145 -1.42285,0.13379 -1.6543,0.81641 -0.2334,0.6875 0.12891,1.43262 0.81152,1.66504 0.34668,0.11719 0.70996,0.085 1.03613,-0.081 l 0.26074,-0.76465 -1.00781,-0.3418 0.2334,-0.6875 1.68457,0.57227 z m 0.12305,16.25 c -0.14941,0.28027 -0.42969,0.44043 -0.72949,0.44043 -0.12988,0 -0.25977,-0.0303 -0.38965,-0.0996 -0.40039,-0.20996 -0.55078,-0.7207 -0.34082,-1.12012 0.2207,-0.40039 0.7207,-0.56055 1.12012,-0.33984 0.41015,0.21972 0.56054,0.71972 0.33984,1.11914 z M 23.875,43.66119 c 0.38135,0.24292 0.49756,0.75665 0.25415,1.14307 -0.15967,0.24866 -0.43066,0.38104 -0.70142,0.38104 -0.15479,0 -0.30933,-0.03857 -0.44727,-0.12701 -0.38696,-0.24835 -0.49756,-0.76208 -0.24878,-1.14307 0.24269,-0.38672 0.75709,-0.50268 1.14332,-0.25403 z m -0.34814,-4.84881 c 0.33203,-0.315 0.85693,-0.30396 1.177,0.02185 0.31519,0.32599 0.30957,0.85046 -0.02222,1.17084 -0.15967,0.15479 -0.37012,0.23193 -0.57422,0.23193 -0.21582,0 -0.43652,-0.08282 -0.59668,-0.24835 -0.32055,-0.33142 -0.30957,-0.8562 0.01612,-1.17627 z m -0.75098,22.94671 c 0.03833,-0.03857 0.08252,-0.07172 0.12671,-0.10492 0.04419,-0.02777 0.09399,-0.05524 0.14355,-0.07172 0.05029,-0.02209 0.10522,-0.03882 0.15503,-0.04987 0.27075,-0.0553 0.55786,0.03314 0.74609,0.2265 0.1543,0.15454 0.24292,0.37 0.24292,0.58545 0,0.22083 -0.08862,0.43066 -0.24292,0.58545 -0.03345,0.03851 -0.07764,0.07172 -0.12207,0.10486 -0.04419,0.02753 -0.09375,0.0553 -0.14331,0.07739 -0.04956,0.01648 -0.10522,0.0329 -0.15503,0.04395 -0.05493,0.01111 -0.10986,0.01672 -0.16016,0.01672 -0.2207,0 -0.43066,-0.08844 -0.59082,-0.24292 C 22.74242,62.8911 22.70409,62.84691 22.67602,62.80297 22.64306,62.75872 22.62109,62.70885 22.59887,62.65923 22.57665,62.60961 22.56006,62.56 22.54932,62.5047 c -0.01147,-0.04987 -0.01685,-0.10486 -0.01685,-0.16016 0,-0.21545 0.08862,-0.4309 0.24341,-0.58545 z M 22.54932,48.02972 c -0.12158,0.34222 -0.44189,0.55225 -0.78467,0.55225 -0.08838,0 -0.18237,-0.01672 -0.27637,-0.04987 -0.43091,-0.14911 -0.65771,-0.62402 -0.50269,-1.05463 0.15479,-0.43634 0.62964,-0.65723 1.06079,-0.50269 0.43116,0.14912 0.65186,0.62404 0.50294,1.05494 z m -0.04981,10.60346 c 0.14893,0.43091 -0.08301,0.90576 -0.51416,1.05487 -0.08789,0.02753 -0.18237,0.04425 -0.27026,0.04425 -0.34253,0 -0.6687,-0.21545 -0.78467,-0.55792 -0.14941,-0.43066 0.08276,-0.90552 0.51367,-1.05469 0.43115,-0.14911 0.90601,0.08282 1.05542,0.51349 z m -1.51929,4.29114 c 0.26489,-0.0553 0.55249,0.03314 0.74561,0.2265 0.03882,0.03857 0.07178,0.08282 0.09937,0.12701 0.03345,0.04425 0.05542,0.09387 0.07764,0.14349 0.02197,0.04987 0.03833,0.09949 0.04956,0.15479 0.01099,0.05524 0.01685,0.10486 0.01685,0.16016 0,0.22083 -0.08862,0.43066 -0.24341,0.58545 -0.15479,0.15448 -0.37012,0.24298 -0.58545,0.24298 -0.05542,0 -0.1106,-0.0057 -0.16016,-0.01672 -0.05566,-0.01111 -0.1106,-0.02216 -0.1604,-0.04425 -0.04956,-0.02185 -0.09375,-0.04962 -0.13818,-0.07715 -0.04956,-0.02777 -0.09375,-0.06628 -0.1272,-0.10486 -0.15503,-0.15479 -0.24292,-0.36462 -0.24292,-0.58545 0,-0.0553 0.0054,-0.10492 0.01636,-0.16016 0.0059,-0.0553 0.02197,-0.10492 0.04419,-0.15479 0.02197,-0.04962 0.04956,-0.09924 0.07764,-0.14349 0.02759,-0.04419 0.06641,-0.08844 0.10474,-0.12701 0.03345,-0.03857 0.07764,-0.07172 0.1272,-0.09949 0.04443,-0.0332 0.08862,-0.06067 0.13818,-0.07715 0.04979,-0.02209 0.10472,-0.03882 0.16038,-0.04986 z m -0.40014,56.68506 c -0.15039,0.28027 -0.43066,0.43066 -0.73047,0.43066 -0.12988,0 -0.25977,-0.0303 -0.38965,-0.10059 -0.40039,-0.20996 -0.5498,-0.70996 -0.33984,-1.12012 0.21973,-0.39941 0.71973,-0.5498 1.12988,-0.33984 0.39941,0.22071 0.5498,0.72071 0.33008,1.12989 z m 5.91797,-16.39454 2.07813,1.50586 -0.41699,0.5752 -1.48438,-1.0752 -0.33691,0.46582 1.29395,0.93652 -0.42578,0.58984 -1.29395,-0.93652 -0.68066,0.93848 1.44336,1.04688 -0.42383,0.58398 -2.03711,-1.47559 z m -0.97852,19.04493 c 0.2207,-0.41016 0.7207,-0.55957 1.12988,-0.33984 0.40039,0.20996 0.55078,0.71973 0.33008,1.12012 -0.14941,0.2793 -0.42969,0.43945 -0.72949,0.43945 -0.12988,0 -0.27051,-0.04 -0.39063,-0.0996 -0.39941,-0.21973 -0.5498,-0.71973 -0.33984,-1.12012 z m 4.12402,-86.62861 c -0.1709,-0.42529 0.03906,-0.91119 0.45874,-1.07709 0.43115,-0.17096 0.91187,0.0332 1.08276,0.45844 0.16577,0.42529 -0.03857,0.91119 -0.46387,1.07703 -0.09985,0.04425 -0.20459,0.06073 -0.30371,0.06073 -0.33202,0 -0.6411,-0.19879 -0.77392,-0.51911 z m 6.32666,1.83905 c 0,0 0,0 0.0054,0.0054 -0.03296,0 -0.06104,0.0057 -0.08838,0.0057 -0.41992,0 -0.7793,-0.32037 -0.82349,-0.74567 -0.04956,-0.45276 0.28223,-0.86157 0.73486,-0.91119 h 0.0061 c 0.45264,-0.04419 0.8562,0.28723 0.90576,0.73999 0.04445,0.45301 -0.28172,0.86158 -0.74022,0.90576 z M 31.93359,8.9834 h 1.61328 l 3.03711,7.86621 h -2.06543 l -0.67383,-1.79004 h -2.20996 l -0.69531,1.79004 h -2.0332 z m -3.59423,29.39264 c 0.38696,-0.24323 0.89526,-0.12164 1.13867,0.26508 0.24268,0.39209 0.12134,0.90015 -0.26563,1.14313 -0.13818,0.08276 -0.28711,0.12158 -0.43652,0.12158 -0.27612,0 -0.54639,-0.13806 -0.70679,-0.39233 -0.23804,-0.38642 -0.12182,-0.89448 0.27027,-1.13746 z M 21.39551,8.9834 h 5.3584 v 1.88965 h -3.44727 v 0.67383 h 1.90039 v 1.90039 h -1.90039 v 3.40234 h -1.91113 z m -0.41529,32.82764 c 0.25952,-0.37537 0.77905,-0.46387 1.15454,-0.20441 0.37549,0.25964 0.46411,0.77338 0.20459,1.15442 -0.16016,0.22626 -0.42041,0.35327 -0.67993,0.35327 -0.16553,0 -0.3313,-0.04962 -0.47485,-0.14917 -0.37598,-0.26508 -0.46997,-0.7785 -0.20435,-1.15411 z m -0.13183,12.67993 c 0.45313,-0.04987 0.86157,0.28156 0.91187,0.73431 0.04956,0.453 -0.28223,0.86157 -0.73486,0.91144 -0.03369,0.0054 -0.06104,0.0054 -0.08862,0.0054 -0.41968,0 -0.77905,-0.3147 -0.82349,-0.73993 -0.04957,-0.45843 0.28173,-0.86725 0.7351,-0.91119 z m -0.63648,5.53393 c 0.16016,0.42523 -0.05518,0.90576 -0.48096,1.06598 -0.09912,0.03857 -0.19849,0.05524 -0.29248,0.05524 -0.33716,0 -0.65234,-0.20435 -0.77905,-0.53577 -0.1604,-0.42529 0.05493,-0.90582 0.48071,-1.06598 0.4253,-0.16559 0.90601,0.04987 1.07178,0.48053 z m -1.62963,-2.53485 c -0.04419,0.01105 -0.09448,0.01105 -0.13818,0.01105 -0.39819,0 -0.74634,-0.2818 -0.81812,-0.69031 -0.07715,-0.45306 0.23218,-0.87805 0.67993,-0.95007 0.45288,-0.08276 0.87866,0.22656 0.95581,0.67389 0.07715,0.45282 -0.22681,0.87805 -0.67944,0.95544 z M 17.8252,48.98517 c 0.09937,-0.44739 0.54126,-0.72919 0.98901,-0.6297 0.44751,0.09949 0.729,0.5412 0.62964,0.98291 -0.08838,0.38672 -0.43115,0.65179 -0.80664,0.65179 -0.06104,0 -0.12134,-0.0054 -0.18237,-0.01642 -0.44727,-0.09954 -0.7295,-0.54125 -0.62964,-0.98858 z m 0.37011,3.09814 c 0.45874,0.0054 0.81738,0.38666 0.81201,0.84485 -0.01074,0.453 -0.38135,0.80627 -0.82861,0.80627 -0.0054,0 -0.01685,0 -0.02222,0 -0.45874,-0.01074 -0.81738,-0.39209 -0.80664,-0.84485 0.01075,-0.45843 0.39234,-0.82275 0.84546,-0.80627 z m -0.60449,48.47919 c 0.27344,0 0.54102,0.0547 0.78613,0.15723 0.24512,0.10352 0.46973,0.25098 0.65527,0.44141 l 0.10352,0.10352 -0.53906,0.47559 -0.0918,-0.0869 c -0.23633,-0.24023 -0.55859,-0.36523 -0.91211,-0.36523 -0.7207,0.002 -1.30371,0.58594 -1.30273,1.30566 0.0019,0.72559 0.58496,1.31445 1.30566,1.31348 0.36523,0 0.69727,-0.14746 0.95508,-0.41113 l -0.002,-0.80664 H 17.4853 l -9.8e-4,-0.72363 1.7793,-0.003 0.0019,1.78906 -0.02832,0.0332 c -0.3916,0.5293 -1.00293,0.8418 -1.64063,0.84277 -1.11816,9.8e-4 -2.03125,-0.90918 -2.03223,-2.03223 -9.6e-4,-1.12013 0.90919,-2.03127 2.02638,-2.03322 z M 17.47949,117.5 c 0,0.21973 -0.08008,0.42969 -0.23926,0.58008 -0.08008,0.0801 -0.1709,0.13965 -0.27051,0.18945 -0.09961,0.04 -0.20996,0.0605 -0.32031,0.0605 -0.10938,0 -0.20996,-0.0205 -0.30957,-0.0605 -0.09961,-0.0498 -0.19043,-0.10938 -0.27051,-0.18945 -0.0791,-0.0703 -0.13965,-0.16016 -0.17969,-0.26074 -0.04004,-0.0996 -0.07031,-0.20996 -0.07031,-0.31934 0,-0.21973 0.09082,-0.43066 0.25,-0.58984 0.30078,-0.30078 0.86035,-0.30078 1.1709,0 0.0791,0.0801 0.13965,0.16992 0.17969,0.26953 0.04004,0.10058 0.05957,0.20996 0.05957,0.32031 z m -3.64258,-16.41895 0.92578,3.77637 -0.70996,0.17383 -0.92578,-3.77539 z m -3.96582,1.42774 c 0.23535,-0.11719 0.5,-0.13477 0.75781,-0.0488 0.25684,0.085 0.45996,0.25781 0.57715,0.49316 0.17383,0.3457 0.125,0.7627 -0.10547,1.05957 l 2.18848,1.13574 -0.77148,0.38672 -2.08887,-1.08203 -0.27734,0.14063 0.85156,1.69922 -0.63574,0.31934 -1.74219,-3.4795 z m -2.60156,1.57422 0.47754,0.53906 -0.71484,0.63477 2.10156,2.36914 -0.5459,0.48633 -2.10254,-2.37012 -0.71582,0.63477 -0.47949,-0.54004 z m -0.27392,41.90075 c 5.80786,-5.80792 15.22437,-5.80792 21.03247,0 4.73853,4.73871 5.60742,11.8783 2.61353,17.50153 1.03101,1.43597 1.62695,3.17169 1.62695,5.00787 v 19.79492 c 0,0.41406 -0.33594,0.75 -0.75,0.75 -0.41406,0 -0.75,-0.33594 -0.75,-0.75 v -19.79492 c 0,-1.29468 -0.35229,-2.53339 -0.98462,-3.60626 -0.51245,0.74823 -1.09131,1.46472 -1.75586,2.12927 -5.80811,5.80798 -15.22461,5.80798 -21.03247,0 -5.80811,-5.80792 -5.80811,-15.22448 0,-21.03241 z m -0.60498,96.74476 -3.12793,-2.32129 1.52832,-2.06152 0.57227,0.4248 -1.09277,1.47266 0.46191,0.34082 0.95215,-1.28223 0.58301,0.43457 -0.95117,1.28223 0.93164,0.69043 1.0625,-1.43164 0.58008,0.43066 z m 3.05761,-3.37012 -3.53613,-2.21387 0.62988,-0.47168 2.46484,1.5498 -0.78809,-2.80469 0.625,-0.46777 1.13477,4.01172 z m 2.30957,-1.50879 -1.40234,-3.62988 2.39063,-0.9248 0.25684,0.66309 -1.70898,0.66113 0.20703,0.53516 1.48926,-0.57617 0.26172,0.67773 -1.48828,0.57617 0.41797,1.08105 1.66113,-0.64258 0.26074,0.67285 z m 3.19727,-1.12402 -0.2959,-3.87305 0.70801,-0.0537 1.90625,2.4043 -0.19336,-2.53516 0.72852,-0.0557 0.29688,3.87305 -0.70313,0.0537 -1.91211,-2.40918 0.19336,2.54004 z m 2.03418,13.83105 c -0.26758,0 -0.52637,-0.14355 -0.66211,-0.39551 -0.19531,-0.36523 -0.05859,-0.81934 0.30664,-1.01563 l 10.38965,-5.57227 c 2.31055,-1.23828 3.74512,-3.63672 3.74512,-6.25879 v -2.61426 c 0,-0.41406 0.33594,-0.75 0.75,-0.75 0.41406,0 0.75,0.33594 0.75,0.75 v 2.61426 c 0,3.17578 -1.73828,6.08105 -4.53613,7.58105 l -10.38965,5.57227 c -0.11329,0.0606 -0.23438,0.0889 -0.35352,0.0889 z m 7.43847,77.48242 c 1.06836,0.33398 1.66113,1.47461 1.3252,2.54785 -0.33496,1.06738 -1.47168,1.66602 -2.53906,1.33203 -1.07324,-0.33594 -1.6709,-1.47754 -1.33594,-2.54492 0.33496,-1.07324 1.47754,-1.66992 2.5498,-1.33496 z m -3.18261,7.52149 1.28711,-0.0293 -0.03418,-1.57715 -1.28711,0.0303 -0.01563,-0.73242 3.88379,-0.084 0.01563,0.73047 -1.88184,0.041 0.03418,1.57617 1.88184,-0.041 0.01563,0.73242 -3.88379,0.084 z m 4.49316,4.53515 c -0.11328,0.24121 -0.27148,0.45215 -0.4707,0.625 -0.20313,0.18457 -0.43164,0.32227 -0.69531,0.41211 -1.05664,0.36523 -2.2168,-0.2041 -2.58203,-1.26172 -0.10254,-0.2998 -0.13379,-0.62305 -0.08984,-0.93164 0.03809,-0.30762 0.15625,-0.61523 0.33398,-0.87109 l 0.07422,-0.11914 0.59961,0.41211 -0.07813,0.1123 c -0.23438,0.34082 -0.29102,0.76465 -0.15234,1.16113 0.2334,0.68066 0.97754,1.04688 1.6582,0.8125 0.68555,-0.23633 1.05078,-0.98633 0.81641,-1.66602 -0.13477,-0.39258 -0.44043,-0.69141 -0.83594,-0.81934 l -0.12598,-0.0439 0.21387,-0.68457 0.13086,0.0459 c 0.30469,0.0967 0.57422,0.25879 0.80078,0.48047 0.22461,0.2168 0.39453,0.4873 0.49707,0.78711 0.08789,0.25781 0.12402,0.52734 0.10742,0.79883 -0.01855,0.25978 -0.08691,0.51466 -0.20215,0.75001 z m 1.14942,-12.20996 -3.2998,-2.06445 0.38867,-0.62109 3.29883,2.06543 z m 1.6455,-2.38867 c -0.24414,0.0937 -0.50293,0.14063 -0.76563,0.1377 -0.26758,0 -0.52539,-0.0537 -0.76563,-0.16113 -0.25391,-0.10449 -0.47656,-0.25488 -0.66992,-0.45313 -0.78223,-0.80176 -0.75977,-2.0957 0.04102,-2.87598 0.22656,-0.22168 0.50684,-0.3877 0.80469,-0.48047 0.2959,-0.0967 0.62402,-0.11914 0.93262,-0.0693 l 0.13867,0.0186 -0.11719,0.71582 -0.13477,-0.0205 c -0.40918,-0.0674 -0.81543,0.0625 -1.11719,0.35547 -0.5166,0.50391 -0.53223,1.33301 -0.02832,1.84961 0.50684,0.51953 1.34082,0.53125 1.85645,0.0283 0.29688,-0.28906 0.43848,-0.69336 0.38574,-1.10742 l -0.01367,-0.13086 0.71191,-0.0986 0.01367,0.13867 c 0.04199,0.31738 0.01074,0.62988 -0.09375,0.92969 -0.09961,0.29688 -0.27441,0.56348 -0.50098,0.78516 -0.19529,0.19043 -0.42576,0.33692 -0.67772,0.43848 z m 18.01783,46.5401 c 0,1.77142 -1.43604,3.20746 -3.20728,3.20746 H 32.87744 c -1.77148,0 -3.20752,-1.43604 -3.20752,-3.20746 v -31.33142 c 0,-1.77142 1.43604,-3.20746 3.20752,-3.20746 h 10.46631 c 1.77124,0 3.20728,1.43604 3.20728,3.20746 z m 0.02026,-47.51471 2.76172,-2.73242 1.7998,1.82031 -0.50391,0.49805 -1.28613,-1.2998 -0.40723,0.40234 1.12012,1.13281 -0.51465,0.51074 -1.12109,-1.13281 -0.82227,0.81348 1.25098,1.26465 -0.5127,0.50684 z m 2.25879,2.49805 3.36914,-1.94141 0.69531,1.20703 c 0.13281,0.23242 0.16895,0.5 0.09961,0.76172 -0.07422,0.25684 -0.23242,0.47363 -0.46289,0.60742 -0.47852,0.27539 -1.08887,0.10352 -1.36328,-0.37402 l -0.33203,-0.57813 -1.64258,0.94629 z m 1.66015,3.44336 3.03711,-0.88477 -0.26563,-0.91797 0.69141,-0.2002 0.73828,2.53418 -0.6914,0.20118 -0.26758,-0.91602 -3.03906,0.88477 z m 0.63672,5.36328 -0.0098,-0.73145 1.88282,-0.0254 -0.02051,-1.57715 -1.88379,0.0254 -0.0098,-0.73242 3.88672,-0.0518 0.0098,0.73242 -1.28906,0.0166 0.02246,1.57813 1.28809,-0.0176 0.0098,0.73047 z m 7.03223,-74.97266 c -0.13574,0.25195 -0.39453,0.39551 -0.66211,0.39551 -0.11914,0 -0.24023,-0.0283 -0.35352,-0.0889 l -9.83887,-5.27637 c -2.79785,-1.50195 -4.53613,-4.40625 -4.53613,-7.58105 l 0.03711,-13.60547 c 9.8e-4,-0.41406 0.33691,-0.74805 0.75,-0.74805 9.8e-4,0 9.8e-4,0 0.0019,0 0.41406,9.8e-4 0.74902,0.33789 0.74805,0.75195 l -0.03711,13.60352 c 0,2.61914 1.43555,5.01758 3.74512,6.25684 l 9.83887,5.27637 c 0.36523,0.19629 0.50195,0.65039 0.30664,1.01562 z m -9.57715,-13.16992 1.33398,-0.87988 0.39941,0.60938 -1.33301,0.87793 0.6377,0.96777 1.49023,-0.98145 0.39746,0.60449 -2.10254,1.38379 -2.14258,-3.25293 2.14258,-1.41113 0.3916,0.59277 -1.53223,1.00977 z m 2.30567,-2.83496 0.75293,-0.22754 1.7832,2.29883 0.2207,-2.9043 0.74902,-0.22461 -0.31055,4.15723 -0.63281,0.19141 z m 5.23242,2.67285 -0.07422,-3.8916 2.56445,-0.0488 0.0127,0.71094 -1.83008,0.0352 0.0098,0.57422 1.59668,-0.0312 0.01367,0.72754 -1.5957,0.0303 0.02246,1.1582 1.78027,-0.0332 0.01465,0.7207 z m -12.3916,-15.31445 c -0.07227,0.0215 -0.14453,0.0312 -0.21484,0.0312 -0.32324,0 -0.62109,-0.20996 -0.71875,-0.53516 -0.11816,-0.39746 0.10742,-0.81543 0.50391,-0.93359 8.44727,-2.52148 14.34668,-10.44531 14.34668,-19.27051 0,-8.8252 -5.89941,-16.74902 -14.34668,-19.27051 -0.39648,-0.11816 -0.62207,-0.53613 -0.50391,-0.93359 0.11914,-0.39648 0.5293,-0.625 0.93359,-0.50391 9.07715,2.70996 15.41699,11.22559 15.41699,20.70801 0,9.48242 -6.33985,17.99805 -15.41699,20.70801 z m 18.82128,16.20898 -0.67676,-0.19043 -0.97168,-2.91895 -0.68945,2.45215 -0.70313,-0.19629 1.04883,-3.74023 0.68457,0.19238 0.96582,2.91113 0.68848,-2.44727 0.70313,0.19727 z m 2.16016,1.25586 -0.62207,-0.3877 1.68164,-2.69043 -0.81152,-0.50684 0.38281,-0.61133 2.24512,1.40332 -0.38379,0.6123 -0.81152,-0.50781 z m 4.91602,0.70801 -0.0078,-0.13574 c -0.03223,-0.45605 -0.19336,-0.72461 -0.32813,-0.86719 -0.08594,-0.0918 -0.18359,-0.15723 -0.2832,-0.19922 -0.15625,-0.0625 -0.31934,-0.0439 -0.41406,0.0459 -0.08789,0.082 -0.11426,0.16602 -0.09473,0.29102 0.01855,0.12402 0.08887,0.27539 0.21973,0.49707 0.01953,0.0264 0.04004,0.0664 0.0625,0.10645 0.125,0.19629 0.28711,0.46387 0.34082,0.70508 0.05566,0.20313 0.05273,0.40039 0.0049,0.5791 -0.04785,0.18164 -0.15039,0.34277 -0.29395,0.47754 -0.17871,0.16895 -0.38281,0.27051 -0.6084,0.30176 -0.19336,0.0244 -0.40918,-0.005 -0.64063,-0.0937 -0.20313,-0.0713 -0.37988,-0.19727 -0.56445,-0.39258 -0.08496,-0.0908 -0.16309,-0.19727 -0.23633,-0.31641 -0.2168,-0.35156 -0.34277,-0.77148 -0.35938,-1.22754 l -0.0029,-0.13965 0.72656,-0.0225 0.0029,0.1377 c 0.01367,0.33301 0.09668,0.6377 0.24414,0.87402 l 0.0029,0.004 c 0.04395,0.0703 0.0918,0.13867 0.14844,0.19824 0.09277,0.0986 0.19824,0.17188 0.30566,0.21289 0.12988,0.0596 0.32129,0.0889 0.48438,-0.0654 0.08887,-0.082 0.11523,-0.18945 0.08398,-0.33301 -0.03711,-0.1748 -0.14258,-0.35938 -0.22266,-0.48633 -0.03809,-0.0557 -0.33496,-0.53906 -0.4082,-0.82324 -0.04004,-0.19434 -0.0332,-0.37988 0.01465,-0.55273 0.05176,-0.1748 0.14941,-0.32715 0.28906,-0.45703 0.15137,-0.14258 0.34668,-0.23633 0.57129,-0.27637 0.19922,-0.0215 0.40527,0.009 0.6084,0.0889 0.20215,0.0801 0.3877,0.20508 0.54785,0.37695 0.06445,0.0684 0.12305,0.14648 0.18262,0.22461 0.19824,0.30859 0.32227,0.67969 0.34473,1.08594 l 0.0059,0.13477 z m -1.70264,-72.36469 c -5.80811,5.80798 -15.22461,5.80798 -21.03247,0 -0.61646,-0.61639 -1.15308,-1.28052 -1.63843,-1.96954 -0.63159,1.0722 -0.98389,2.30951 -0.98389,3.60278 v 8.63867 c 0,0.41406 -0.33594,0.75 -0.75,0.75 -0.41406,0 -0.75,-0.33594 -0.75,-0.75 v -8.63867 c 0,-1.82684 0.59106,-3.55444 1.61328,-4.98694 -3.10986,-5.65009 -2.28052,-12.88922 2.50903,-17.67871 5.80786,-5.80792 15.22437,-5.80792 21.03247,0 5.80787,5.80793 5.80787,15.22449 10e-6,21.03241 z"
   id="path93"
   inkscape:connector-curvature="0"
   style="fill:#252626" />
		<path
   d="m 42.02539,99.10059 c -0.14355,0.06738 -0.20117,0.23926 -0.13672,0.37793 l 0.29199,0.61719 0.5127,-0.24219 -0.29004,-0.61621 c -0.06445,-0.1377 -0.23535,-0.20411 -0.37793,-0.13672 z"
   id="path95"
   inkscape:connector-curvature="0"
   style="fill:#252626" />
	</g>
	<g
   id="g111">
		<g
   id="g109">
			<g
   id="g107">
				<g
   id="g103">
					<circle
   cx="8.1747198"
   cy="6.3905401"
   r="5.7362599"
   id="circle99"
   style="fill:#bcbcbc" />
					<path
   d="m 8.17476,11.8632 c 3.02102,-0.0035 5.46916,-2.45164 5.47262,-5.47267 0,0 0,-10e-6 0,-3e-5 -2e-5,-3.02247 -2.45023,-5.47264 -5.4727,-5.47262 -3.02247,2e-5 -5.47264,2.45023 -5.47262,5.4727 2e-5,3.02247 2.45023,5.47264 5.4727,5.47262 m -6,-5.47266 c 0,-3.31371 2.68629,-6 6,-6 3.31371,0 6,2.68629 6,6 0,3.31371 -2.68629,6 -6,6 -3.31365,-1.6e-4 -5.99984,-2.68636 -6,-6 z"
   id="path101"
   inkscape:connector-curvature="0"
   style="fill:#808080" />
				</g>
				<polygon
   points="4.67976,5.73154 4.67976,7.04954 7.51576,7.04954 7.51576,9.88554 8.83376,9.88554 8.83376,7.04954 11.66876,7.04954 11.66876,5.73154 8.83376,5.73154 8.83376,2.89554 7.51576,2.89554 7.51576,5.73154 "
   id="polygon105"
   style="fill:#6e6e6e" />
			</g>
		</g>
	</g>
	<g
   id="g125">
		<g
   id="g123">
			<g
   id="g121">
				<g
   id="g117">
					<circle
   cx="67.184647"
   cy="373.60947"
   r="5.7362599"
   id="circle113"
   style="fill:#bcbcbc" />
					<path
   d="m 67.1846,379.08212 c -3.02102,-0.003 -5.46916,-2.45166 -5.47262,-5.47269 0,0 0,0 0,-3e-5 2e-5,-3.02246 2.45023,-5.47263 5.4727,-5.4726 3.02247,0 5.47264,2.45023 5.47262,5.47269 -2e-5,3.02246 -2.45023,5.47266 -5.4727,5.47263 m 6,-5.47265 c 0,-3.31372 -2.68629,-6 -6,-6 -3.31371,0 -6,2.68628 -6,6 0,3.31369 2.68629,6 6,6 3.31365,-1.9e-4 5.99984,-2.68637 6,-6 z"
   id="path115"
   inkscape:connector-curvature="0"
   style="fill:#808080" />
				</g>
				<polygon
   points="70.6796,372.95047 70.6796,374.26846 67.84361,374.26846 67.84361,377.10446 66.5256,377.10446 66.5256,374.26846 63.69061,374.26846 63.69061,372.95047 66.5256,372.95047 66.5256,370.11447 67.84361,370.11447 67.84361,372.95047 "
   id="polygon119"
   style="fill:#6e6e6e" />
			</g>
		</g>
	</g>
	<g
   id="g129">
		<path
   d="m 41.95682,363.35104 c -0.11426,0.26349 -0.26582,0.48099 -0.45469,0.65225 -0.1891,0.17126 -0.40401,0.29843 -0.64567,0.3822 -0.24189,0.0835 -0.49434,0.12503 -0.75781,0.12503 -0.44812,0 -0.79723,-0.0657 -1.04757,-0.19754 -0.25034,-0.13184 -0.44601,-0.28552 -0.58632,-0.46124 -0.14968,-0.19333 -0.244,-0.40848 -0.28341,-0.64569 -0.03965,-0.23718 -0.05936,-0.4744 -0.05936,-0.71158 0,-0.33411 0.0068,-0.56451 0.01971,-0.69189 0.01337,-0.12762 0.02839,-0.19989 0.04622,-0.2175 0.03496,-0.0265 0.17995,-0.0394 0.43475,-0.0394 h 3.08382 c 0.08775,0 0.16024,0.007 0.21749,0.0197 0.05678,0.0131 0.10088,0.0481 0.13162,0.10535 0.03073,0.057 0.05044,0.14267 0.05936,0.25693 0.0087,0.11426 0.01337,0.27237 0.01337,0.4744 0,0.36905 -0.05748,0.68555 -0.17151,0.949 m -5.32348,-12.82162 c 0.01174,-0.0828 0.0474,-0.14828 0.10699,-0.19592 0.05935,-0.0474 0.15414,-0.0772 0.28506,-0.0891 0.13068,-0.0117 0.31485,-0.0178 0.55252,-0.0178 0.92675,0 1.6367,0.2583 2.12986,0.77518 0.49294,0.51685 0.73975,1.20923 0.73975,2.0766 0,0.0821 -0.01712,0.25925 -0.02792,0.3808 -0.06827,-9.5e-4 -0.13655,-0.002 -0.20482,-0.003 -0.18699,-0.004 -0.39017,-0.0143 -0.60954,-0.0305 -0.0488,0.0244 -0.07508,0.0711 -0.0793,0.14008 -0.004,0.0692 0.01408,0.12411 0.05514,0.1647 l 0.21913,0.0244 c 0.1464,0.0162 0.26817,0.0427 0.36577,0.0791 0.09761,0.0366 0.1464,0.0753 0.1464,0.11588 0,0.0406 -0.0244,0.11591 -0.0732,0.22549 -0.0488,0.1098 -0.11379,0.24188 -0.19497,0.39603 -0.08142,0.1546 -0.16893,0.31931 -0.26207,0.49387 -0.09362,0.1748 -0.18113,0.33948 -0.26231,0.49362 -0.18699,0.35782 -0.37773,0.70901 -0.57293,1.05438 -0.19497,0.34561 -0.38595,0.68088 -0.5727,1.0058 -0.23603,-0.42255 -0.4676,-0.86548 -0.69494,-1.32861 -0.22758,-0.46338 -0.45516,-0.9223 -0.68274,-1.37769 -0.01642,-0.0324 -0.04458,-0.0931 -0.08517,-0.18277 -0.04082,-0.0892 -0.08352,-0.18466 -0.1281,-0.28647 -0.04482,-0.10159 -0.08352,-0.19684 -0.1159,-0.28647 -0.03262,-0.0894 -0.04857,-0.15039 -0.04857,-0.18277 0,-0.0488 0.03214,-0.0873 0.09736,-0.11591 0.06499,-0.0284 0.20319,-0.0629 0.41458,-0.10345 l 0.15836,-0.0244 c 0.04059,-0.0406 0.05889,-0.0976 0.0549,-0.17081 -0.0042,-0.073 -0.03473,-0.11777 -0.09127,-0.13397 -0.17315,0.0136 -0.38548,0.0235 -0.63722,0.0293 v -2.58643 c 2e-5,-0.14264 0.0059,-0.2555 0.01785,-0.33878 m 1.00932,9.125 c 0,0.32516 -0.0042,0.58514 -0.0122,0.78009 -0.0082,0.19498 -0.03659,0.34747 -0.0854,0.45706 -0.01736,0.0394 -0.03801,0.0741 -0.06171,0.1044 -4.7e-4,2.1e-4 -0.0012,7e-4 -0.0016,9.2e-4 -0.14194,-0.0272 -0.2616,-0.0587 -0.35826,-0.0945 -0.16048,-0.0594 -0.27615,-0.16635 -0.34747,-0.32071 -0.07132,-0.15439 -0.1159,-0.37119 -0.13373,-0.6506 -0.01783,-0.27896 -0.02675,-0.6506 -0.02675,-1.11374 v -2.53784 l 0.63722,1.24158 c 0.08916,0.17081 0.16024,0.31509 0.21327,0.43289 0.05279,0.11801 0.09127,0.22757 0.11567,0.32916 0.02439,0.10181 0.04058,0.20926 0.04879,0.32306 0.008,0.1138 0.0122,0.25598 0.0122,0.42654 v 0.62173 z m 5.03092,1.50741 c 0.05278,-0.14639 0.10534,-0.30264 0.15836,-0.46924 0.05279,-0.16656 0.10159,-0.32916 0.1464,-0.48776 0.04458,-0.15836 0.07907,-0.29047 0.10371,-0.39627 -0.02464,-0.0566 -0.07133,-0.0931 -0.14031,-0.10956 -0.06921,-0.0162 -0.12387,-0.008 -0.1647,0.0244 -0.16259,0.31674 -0.31885,0.57693 -0.46924,0.78012 -0.15039,0.2034 -0.28247,0.33737 -0.39603,0.40237 -0.06523,0.0326 -0.1403,0.0608 -0.2257,0.0851 -0.08517,0.0244 -0.18699,0.0427 -0.30477,0.0549 -0.11777,0.0122 -0.25996,0.0225 -0.42653,0.0305 -0.16658,0.008 -0.36788,0.0122 -0.60344,0.0122 -0.26817,0 -0.48965,-0.008 -0.66444,-0.0244 -0.17479,-0.0162 -0.31486,-0.0366 -0.42043,-0.0608 -0.10582,-0.0247 -0.1891,-0.053 -0.24987,-0.0854 -0.061,-0.0324 -0.10793,-0.069 -0.1403,-0.1098 -0.0976,-0.10556 -0.16048,-0.26205 -0.18887,-0.46924 -0.02862,-0.2074 -0.0427,-0.47345 -0.0427,-0.79861 v -0.8045 c 0.0019,-0.11145 0.0052,-0.20999 0.0099,-0.29446 0.008,-0.15015 0.03027,-0.29047 0.06687,-0.42044 0.03659,-0.12997 0.09337,-0.2684 0.1708,-0.41455 0.0183,-0.035 0.03894,-0.0727 0.06077,-0.1124 0.02933,-9.5e-4 0.05982,-0.001 0.09385,-0.001 H 39.754 c 0.23555,0 0.42865,0.004 0.57903,0.0122 0.15015,0.008 0.27005,0.0242 0.35967,0.0485 0.12177,0.0326 0.20905,0.0896 0.26207,0.17081 0.05279,0.0812 0.09127,0.17877 0.11591,0.29257 l 0.10956,0.47534 c 0.03238,0.0408 0.08728,0.0589 0.16447,0.0549 0.07718,-0.004 0.1281,-0.0263 0.1525,-0.0671 0,-0.13818 -0.0082,-0.31274 -0.0244,-0.52414 -0.01642,-0.2114 -0.0244,-0.42676 -0.0244,-0.64615 0,-0.23553 0.008,-0.46313 0.0244,-0.6825 0.01619,-0.2196 0.0244,-0.40237 0.0244,-0.54877 -0.0244,-0.0403 -0.07532,-0.0629 -0.1525,-0.0671 -0.07719,-0.004 -0.1321,0.0143 -0.16447,0.0549 l -0.09737,0.49997 c -0.03261,0.15439 -0.07132,0.25809 -0.1159,0.31088 -0.04482,0.0528 -0.1037,0.0913 -0.17667,0.11566 -0.0732,0.0244 -0.19942,0.0427 -0.37797,0.0549 -0.17901,0.0122 -0.39839,0.0183 -0.65834,0.0183 H 39.2031 c 0.0042,-0.007 0.008,-0.0131 0.0122,-0.0202 l 0.76791,-1.32861 c 0.15414,-0.26019 0.29445,-0.50186 0.42067,-0.72546 0.12576,-0.22336 0.24987,-0.42065 0.37163,-0.59122 0.12201,-0.17056 0.24776,-0.30878 0.37798,-0.41434 0.02698,-0.0218 0.05467,-0.0415 0.08306,-0.0601 0.08258,0.0328 0.15531,0.0715 0.21796,0.11682 0.10159,0.073 0.18464,0.15839 0.24987,0.25598 0.06499,0.0974 0.11777,0.20715 0.1586,0.32892 0.04035,0.12201 0.08517,0.25623 0.13397,0.40237 0.03238,0.0408 0.0854,0.057 0.1586,0.0488 0.07297,-0.008 0.12177,-0.0324 0.14616,-0.0732 -0.01643,-0.13 -0.0305,-0.27826 -0.04247,-0.44485 -0.01243,-0.16656 -0.02674,-0.32916 -0.04293,-0.48752 -0.01619,-0.1586 -0.03754,-0.30008 -0.05467,-0.42679 -0.04247,-0.31345 -0.03285,-0.58115 -0.03285,-0.58115 0,-0.61752 -0.17525,-1.15738 -0.44272,-1.60925 -0.26723,-0.45139 -0.60907,-0.80777 -1.02481,-1.06915 -0.41597,-0.26135 -0.90305,-0.44553 -1.46143,-0.55252 -0.55863,-0.10699 -1.21204,-0.16046 -1.96047,-0.16046 -0.74867,0 -1.40536,0.009 -1.96938,0.0267 -0.56449,0.0178 -1.08441,0.0565 -1.55974,0.11591 -0.07109,0.0357 -0.10981,0.10416 -0.11567,0.2048 -0.0061,0.10114 0.02041,0.18137 0.08024,0.24072 l 0.64145,0.0713 c 0.202,0.024 0.3592,0.0624 0.47252,0.11591 0.11262,0.0533 0.19591,0.15134 0.2494,0.29398 0.05349,0.14267 0.08611,0.3327 0.09807,0.57037 0.01173,0.23767 0.01783,0.54666 0.01783,0.92673 v 6.57681 c 0,0.46313 -0.0061,0.83478 -0.01783,1.11374 -0.01196,0.27942 -0.05349,0.49622 -0.12482,0.6506 -0.07132,0.15436 -0.17831,0.26135 -0.32072,0.32071 -0.14265,0.0596 -0.34489,0.10699 -0.60601,0.14264 l -0.37445,0.0535 c -0.0542,0.0542 -0.07837,0.12836 -0.0732,0.22171 -4.7e-4,0.19077 -0.0026,0.25128 -0.0066,0.46619 -0.0042,0.24612 -0.01549,0.52109 -0.03355,0.82541 0.01807,0.0448 0.06922,0.0716 0.15438,0.0807 0.08493,0.009 0.14546,-0.009 0.18136,-0.0537 l 0.04012,-0.28201 c 0.02699,-0.19684 0.06264,-0.34888 0.10746,-0.45612 0.04481,-0.10745 0.12528,-0.18793 0.24165,-0.24164 0.11613,-0.0537 0.27943,-0.0854 0.48989,-0.0943 0.21022,-0.009 0.48988,-0.0131 0.83899,-0.0131 h 1.69113 c 0.07156,0 0.12763,0.004 0.16799,0.0131 0.04012,0.009 0.06921,0.0338 0.08704,0.0742 0.01783,0.0401 0.02909,0.10275 0.03378,0.18768 0.0042,0.0852 0.0066,0.20343 0.0066,0.35568 0,0.26865 -0.03355,0.46994 -0.10065,0.60416 -0.0671,0.13419 -0.17667,0.25055 -0.32894,0.34909 -0.15226,0.10745 -0.32001,0.21915 -0.50325,0.33551 -0.1837,0.11615 -0.36718,0.23251 -0.55042,0.34888 -0.18347,0.11636 -0.36014,0.22827 -0.53023,0.33575 -0.1701,0.10721 -0.31767,0.20575 -0.44296,0.29514 -0.3402,0.24167 -0.61986,0.46759 -0.839,0.67804 -0.21913,0.21024 -0.39134,0.42279 -0.51663,0.63745 -0.12552,0.21469 -0.21257,0.44061 -0.26183,0.67783 -0.04903,0.23718 -0.07367,0.49878 -0.07367,0.78528 0,0.25946 0.02229,0.45654 0.06687,0.59052 0.02698,0.0359 0.06053,0.0516 0.10088,0.0471 0.04012,-0.005 0.06921,-0.0249 0.08728,-0.0605 0.01759,-0.17902 0.0603,-0.34888 0.1274,-0.50983 0.0671,-0.16119 0.14969,-0.30008 0.24846,-0.4162 0.18793,-0.23276 0.40026,-0.4519 0.63746,-0.6579 0.23696,-0.20575 0.4988,-0.41595 0.78526,-0.63086 0.28624,-0.21469 0.60837,-0.43616 0.9664,-0.66422 0.35779,-0.22827 0.75171,-0.47675 1.1813,-0.74515 0.05372,-0.0359 0.10933,-0.065 0.16775,-0.0873 0.05795,-0.0225 0.10956,-0.0157 0.15437,0.0202 0.06241,0.16986 0.15649,0.35123 0.28178,0.54361 0.12528,0.19238 0.27967,0.37375 0.46313,0.54385 0.18348,0.16986 0.39815,0.31064 0.64426,0.42279 0.24612,0.11166 0.53024,0.16772 0.85237,0.16772 0.4744,0 0.86363,-0.10532 1.16793,-0.31555 0.30406,-0.21021 0.54126,-0.4765 0.71136,-0.79865 0.16986,-0.3132 0.27967,-0.65997 0.32894,-1.04004 0.04903,-0.38055 0.07555,-0.78107 0.07367,-1.20172 -0.0033,-0.77939 0.137,-1.27537 0.137,-1.27537"
   id="path127"
   inkscape:connector-curvature="0"
   style="fill:#252626" />
	</g>
</g>
<g
   id="serigraphy"
   transform="matrix(1.2800162,0,0,1.2800162,-6.0555561e-4,-0.36841885)">
	<g
   id="g280">
		<path
   d="m 27.83008,188.95996 c -0.30078,-0.12988 -0.66016,-0.0498 -0.90039,0.17969 -0.08008,0.0801 -0.13965,0.16992 -0.17969,0.27051 -0.04004,0.0996 -0.06055,0.20996 -0.06055,0.31934 0,0.10059 0.02051,0.20996 0.06055,0.31055 0.04004,0.0996 0.09961,0.18945 0.17969,0.26953 0.08008,0.0801 0.16992,0.14063 0.27051,0.18066 0.09961,0.04 0.20996,0.0596 0.31934,0.0596 0.11035,0 0.20996,-0.0195 0.31055,-0.0596 0.09961,-0.04 0.18945,-0.10059 0.26953,-0.18066 0.08008,-0.0801 0.14063,-0.16992 0.17969,-0.26953 0.05078,-0.10059 0.07031,-0.20996 0.07031,-0.31055 0,-0.10938 -0.01953,-0.21973 -0.07031,-0.31934 -0.03906,-0.10059 -0.09961,-0.19043 -0.17969,-0.27051 -0.08008,-0.0801 -0.16017,-0.13965 -0.26954,-0.17969 z"
   id="path132"
   inkscape:connector-curvature="0"
   style="fill:#e5e5e5" />
		<circle
   cx="27.519529"
   cy="182.25"
   r="0.83007997"
   id="circle134"
   style="fill:#e5e5e5" />
		<path
   d="m 27.51953,173.9502 c -0.45996,0 -0.83008,0.36914 -0.83008,0.83008 0,0.44922 0.37012,0.81934 0.83008,0.81934 0.4502,0 0.83008,-0.37012 0.83008,-0.81934 0,-0.46094 -0.37988,-0.83008 -0.83008,-0.83008 z"
   id="path136"
   inkscape:connector-curvature="0"
   style="fill:#e5e5e5" />
		<circle
   cx="27.519529"
   cy="171.04004"
   r="0.83007997"
   id="circle138"
   style="fill:#e5e5e5" />
		<path
   d="m 27.51953,185.16016 c -0.45996,0 -0.83008,0.37012 -0.83008,0.83008 0,0.44922 0.37012,0.8291 0.83008,0.8291 0.4502,0 0.83008,-0.37988 0.83008,-0.8291 0,-0.45997 -0.37988,-0.83008 -0.83008,-0.83008 z"
   id="path140"
   inkscape:connector-curvature="0"
   style="fill:#e5e5e5" />
		<circle
   cx="27.519529"
   cy="178.50977"
   r="0.83007997"
   id="circle142"
   style="fill:#e5e5e5" />
		<path
   d="m 2.5498,22.59961 c -0.15039,0.16016 -0.24023,0.37012 -0.24023,0.58984 0,0.2207 0.08008,0.43066 0.24023,0.58008 0.16016,0.16016 0.36035,0.25 0.58984,0.25 0.21973,0 0.42969,-0.08984 0.58008,-0.25 0.16016,-0.14941 0.25,-0.35938 0.25,-0.58008 0,-0.21973 -0.08984,-0.42969 -0.25,-0.58984 -0.30956,-0.30957 -0.86034,-0.30957 -1.16992,0 z"
   id="path144"
   inkscape:connector-curvature="0"
   style="fill:#e5e5e5" />
		<path
   d="M 8.0498,22.59961 C 7.97949,22.51953 7.88964,22.45996 7.77929,22.41992 7.47949,22.2998 7.10937,22.37012 6.87988,22.59961 6.72949,22.75 6.63965,22.96973 6.63965,23.18945 c 0,0.2207 0.08984,0.43066 0.24023,0.58008 0.08008,0.08008 0.16992,0.14063 0.26953,0.18066 C 7.25,24 7.35938,24.01953 7.46973,24.01953 c 0.21973,0 0.42969,-0.08984 0.58008,-0.25 0.16016,-0.16016 0.25,-0.35938 0.25,-0.58008 0,-0.10938 -0.02051,-0.21973 -0.07031,-0.31934 -0.04005,-0.10058 -0.09962,-0.19042 -0.1797,-0.2705 z"
   id="path146"
   inkscape:connector-curvature="0"
   style="fill:#e5e5e5" />
		<path
   d="m 68.34961,23.76953 c 0.08008,-0.08008 0.14063,-0.16992 0.17969,-0.26953 0.05078,-0.10059 0.07031,-0.2002 0.07031,-0.31055 0,-0.21973 -0.08984,-0.43945 -0.25,-0.58984 -0.22949,-0.22949 -0.59961,-0.2998 -0.89941,-0.17969 -0.10059,0.04004 -0.19043,0.09961 -0.27051,0.17969 -0.15039,0.15039 -0.24023,0.37012 -0.24023,0.58984 0,0.11035 0.02051,0.20996 0.06055,0.31055 0.04004,0.09961 0.10938,0.18945 0.17969,0.26953 0.08008,0.08008 0.16992,0.14063 0.27051,0.18066 0.09961,0.04004 0.20996,0.05957 0.31934,0.05957 0.22068,10e-6 0.43065,-0.08007 0.58006,-0.24023 z"
   id="path148"
   inkscape:connector-curvature="0"
   style="fill:#e5e5e5" />
		<path
   d="m 72.87012,22.87012 c -0.05078,-0.10059 -0.11035,-0.19043 -0.18066,-0.27051 -0.08008,-0.08008 -0.16992,-0.12988 -0.26953,-0.17969 -0.2002,-0.08008 -0.42969,-0.08008 -0.64063,0 -0.09961,0.04004 -0.18945,0.11035 -0.26953,0.17969 -0.07031,0.08008 -0.12988,0.16992 -0.17969,0.27051 -0.04004,0.09961 -0.06055,0.20996 -0.06055,0.31934 0,0.11035 0.02051,0.20996 0.06055,0.31055 0.0498,0.09961 0.10938,0.18945 0.17969,0.26953 0.08008,0.08008 0.16992,0.14063 0.26953,0.18066 0.10059,0.04004 0.21094,0.05957 0.32031,0.05957 0.11035,0 0.21973,-0.01953 0.32031,-0.05957 0.09961,-0.04004 0.18945,-0.10059 0.26953,-0.18066 0.07031,-0.08008 0.12988,-0.16992 0.18066,-0.26953 0.04004,-0.10059 0.05957,-0.2002 0.05957,-0.31055 10e-6,-0.10938 -0.01952,-0.21973 -0.05956,-0.31934 z"
   id="path150"
   inkscape:connector-curvature="0"
   style="fill:#e5e5e5" />
		<path
   d="m 12.19434,25.42188 c 1.21973,0 1.85742,-0.6377 2.11133,-1.73633 h -0.5918 c -0.1875,0.73242 -0.65625,1.23926 -1.51953,1.23926 -1.13574,0 -1.58594,-1.04199 -1.5957,-1.90527 h 3.72559 c 0.04688,-1.36035 -0.57227,-2.72168 -2.12988,-2.72168 -1.53906,0 -2.18652,1.28613 -2.18652,2.5625 -2e-5,1.3789 0.64744,2.56152 2.18651,2.56152 z m 0,-4.62598 c 0.95703,0 1.51074,0.83496 1.53906,1.72656 h -3.13477 c 0.09375,-0.88183 0.62891,-1.72656 1.59571,-1.72656 z"
   id="path152"
   inkscape:connector-curvature="0"
   style="fill:#e5e5e5" />
		<polygon
   points="16.77637,24.69043 16.75781,24.69043 15.2373,20.43945 14.58008,20.43945 16.44727,25.28125 17.07617,25.28125 18.8877,20.43945 18.27734,20.43945 "
   id="polygon154"
   style="fill:#e5e5e5" />
		<path
   d="m 21.41406,25.42188 c 1.21973,0 1.85742,-0.6377 2.11133,-1.73633 h -0.5918 c -0.1875,0.73242 -0.65625,1.23926 -1.51953,1.23926 -1.13574,0 -1.58594,-1.04199 -1.5957,-1.90527 h 3.72559 c 0.04688,-1.36035 -0.57227,-2.72168 -2.12988,-2.72168 -1.53906,0 -2.18652,1.28613 -2.18652,2.5625 -10e-6,1.3789 0.64745,2.56152 2.18651,2.56152 z m 0,-4.62598 c 0.95703,0 1.51074,0.83496 1.53906,1.72656 h -3.13477 c 0.09376,-0.88183 0.62892,-1.72656 1.59571,-1.72656 z"
   id="path156"
   inkscape:connector-curvature="0"
   style="fill:#e5e5e5" />
		<path
   d="m 24.92578,22.45703 c 0.01953,-0.94824 0.58203,-1.66113 1.52051,-1.66113 0.95703,0 1.22949,0.62891 1.22949,1.46387 v 3.02148 h 0.59082 v -3.11523 c 0,-1.1543 -0.41309,-1.86816 -1.77344,-1.86816 -0.68457,0 -1.33203,0.39453 -1.54785,0.97656 h -0.01953 v -0.83496 h -0.59082 v 4.8418 h 0.59082 z"
   id="path158"
   inkscape:connector-curvature="0"
   style="fill:#e5e5e5" />
		<path
   d="m 29.7334,24.24902 c -0.0098,0.82617 0.2627,1.08887 1.05078,1.08887 0.17871,0 0.34766,-0.01953 0.52539,-0.01953 V 24.8125 c -0.16797,0.01855 -0.33691,0.02734 -0.50586,0.02734 -0.42285,-0.02734 -0.47852,-0.25293 -0.47852,-0.6377 v -3.26563 h 0.98438 V 20.43944 H 30.3252 v -1.45508 h -0.5918 v 1.45508 h -0.84473 v 0.49707 h 0.84473 z"
   id="path160"
   inkscape:connector-curvature="0"
   style="fill:#e5e5e5" />
		<path
   d="m 35.36719,22.5791 c 0.0098,-1.01367 0.42188,-1.7832 1.44531,-1.7832 0.75098,0 1.02246,0.54395 1.01367,1.20117 v 3.28418 h 0.59082 v -2.74023 c 0,-0.90039 0.29102,-1.74512 1.31348,-1.74512 0.84473,0 1.14551,0.43164 1.14551,1.22949 v 3.25586 h 0.59082 v -3.28418 c 0,-1.14551 -0.54395,-1.69922 -1.60449,-1.69922 -0.63867,0 -1.24805,0.31055 -1.53906,0.94824 -0.17871,-0.6377 -0.75098,-0.94824 -1.38867,-0.94824 -0.76953,0 -1.27637,0.37598 -1.58594,0.95801 h -0.02832 v -0.81641 h -0.54395 v 4.8418 h 0.59082 z"
   id="path162"
   inkscape:connector-curvature="0"
   style="fill:#e5e5e5" />
		<path
   d="m 44.6416,25.42188 c 1.4834,0 2.29004,-1.17285 2.29004,-2.56152 0,-1.38867 -0.80664,-2.5625 -2.29004,-2.5625 -1.48242,0 -2.28906,1.17383 -2.28906,2.5625 0,1.38867 0.80664,2.56152 2.28906,2.56152 z m 0,-4.62598 c 1.13574,0 1.69922,1.03223 1.69922,2.06445 0,1.03222 -0.56348,2.06445 -1.69922,2.06445 -1.13477,0 -1.69824,-1.03223 -1.69824,-2.06445 0,-1.03222 0.56348,-2.06445 1.69824,-2.06445 z"
   id="path164"
   inkscape:connector-curvature="0"
   style="fill:#e5e5e5" />
		<path
   d="m 49.78711,25.42188 c 0.70313,0 1.47266,-0.43164 1.72656,-1.06055 h 0.01855 v 0.91992 h 0.54395 v -6.7002 h -0.59082 v 2.77734 H 51.4668 c -0.25391,-0.69434 -0.95801,-1.06055 -1.67969,-1.06055 -1.47363,0 -2.17773,1.19238 -2.17773,2.5625 0,1.37012 0.7041,2.56154 2.17773,2.56154 z m 0,-4.62598 c 1.25684,0 1.69824,1.06055 1.69824,2.06445 0,1.0039 -0.44141,2.06445 -1.69824,2.06445 -1.12695,0 -1.58594,-1.06055 -1.58594,-2.06445 0,-1.0039 0.45899,-2.06445 1.58594,-2.06445 z"
   id="path166"
   inkscape:connector-curvature="0"
   style="fill:#e5e5e5" />
		<rect
   x="53.213871"
   y="20.439449"
   width="0.59179997"
   height="4.8418002"
   id="rect168"
   style="fill:#e5e5e5" />
		<rect
   x="53.213871"
   y="18.581051"
   width="0.59179997"
   height="0.94726998"
   id="rect170"
   style="fill:#e5e5e5" />
		<rect
   x="57.38184"
   y="18.581051"
   width="0.59082001"
   height="0.94726998"
   id="rect172"
   style="fill:#e5e5e5" />
		<rect
   x="57.38184"
   y="20.439449"
   width="0.59082001"
   height="4.8418002"
   id="rect174"
   style="fill:#e5e5e5" />
		<path
   d="m 55.26074,25.28125 h 0.5918 v -4.34473 h 0.95703 V 20.43945 H 55.85254 V 20.0166 c 0.0088,-0.52539 -0.0098,-0.93848 0.64746,-0.93848 0.14063,0 0.27148,0.01855 0.43164,0.04688 v -0.50684 c -0.1875,-0.02734 -0.3291,-0.03711 -0.49805,-0.03711 -0.94727,0 -1.18164,0.58203 -1.17285,1.41699 v 0.44141 h -0.8252 v 0.49707 h 0.8252 z"
   id="path176"
   inkscape:connector-curvature="0"
   style="fill:#e5e5e5" />
		<path
   d="m 61.05273,25.42188 c 1.21973,0 1.85742,-0.6377 2.11133,-1.73633 h -0.5918 c -0.1875,0.73242 -0.65625,1.23926 -1.51953,1.23926 -1.13574,0 -1.58594,-1.04199 -1.5957,-1.90527 h 3.72559 c 0.04688,-1.36035 -0.57227,-2.72168 -2.12988,-2.72168 -1.53906,0 -2.18652,1.28613 -2.18652,2.5625 -10e-6,1.3789 0.64745,2.56152 2.18651,2.56152 z m 0,-4.62598 c 0.95703,0 1.51074,0.83496 1.53906,1.72656 h -3.13477 c 0.09376,-0.88183 0.62892,-1.72656 1.59571,-1.72656 z"
   id="path178"
   inkscape:connector-curvature="0"
   style="fill:#e5e5e5" />
		<path
   d="M 64.5459,21.57422 H 64.52735 V 20.43945 H 63.9834 v 4.8418 h 0.59082 V 22.7002 c 0,-1.00391 0.73145,-1.79199 1.80176,-1.73535 v -0.5918 c -0.87305,-0.03711 -1.5293,0.42285 -1.83008,1.20117 z"
   id="path180"
   inkscape:connector-curvature="0"
   style="fill:#e5e5e5" />
		<path
   d="m 52.05054,62.16815 c -0.05493,0.01105 -0.10522,0.02753 -0.15503,0.04962 -0.04956,0.01648 -0.09912,0.04425 -0.14331,0.07172 -0.04419,0.0332 -0.08862,0.06635 -0.12744,0.10492 -0.1543,0.15479 -0.24292,0.37 -0.24292,0.58545 0,0.22083 0.08862,0.43091 0.24292,0.58545 0.03882,0.03857 0.08325,0.07739 0.12744,0.10486 0.04419,0.02783 0.09375,0.0553 0.14331,0.07739 0.0498,0.02216 0.1001,0.0332 0.15503,0.04425 0.05493,0.01105 0.10474,0.01648 0.16016,0.01648 0.2207,0 0.43115,-0.0885 0.58545,-0.24298 0.15503,-0.15454 0.24341,-0.36462 0.24341,-0.58545 0,-0.21545 -0.08838,-0.43066 -0.24341,-0.58545 -0.18775,-0.18768 -0.47486,-0.27612 -0.74561,-0.22626 z"
   id="path182"
   inkscape:connector-curvature="0"
   style="fill:#e5e5e5" />
		<path
   d="m 53.73193,59.85919 c 0.09375,0.0329 0.1875,0.04962 0.28149,0.04962 0.33716,0 0.65771,-0.20978 0.77905,-0.54688 h -0.0054 c 0.1604,-0.42523 -0.06079,-0.90552 -0.49194,-1.0603 -0.43066,-0.15454 -0.90601,0.06635 -1.06079,0.49701 -0.15429,0.43091 0.06641,0.90577 0.49756,1.06055 z"
   id="path184"
   inkscape:connector-curvature="0"
   style="fill:#e5e5e5" />
		<path
   d="m 55.72314,55.86365 c 0.05518,-0.45844 -0.27075,-0.86694 -0.72339,-0.92224 -0.45337,-0.06067 -0.86768,0.26508 -0.92334,0.71814 -0.05493,0.45813 0.27075,0.87231 0.71875,0.92761 0.03833,0 0.07178,0.0057 0.10474,0.0057 0.41431,-1e-5 0.76831,-0.30933 0.82324,-0.72919 z"
   id="path186"
   inkscape:connector-curvature="0"
   style="fill:#e5e5e5" />
		<path
   d="m 20.48462,51.78534 c -0.04956,0.453 0.27075,0.86719 0.729,0.92224 0.02808,0 0.06079,0.0057 0.09448,0.0057 0.41431,0 0.77295,-0.315 0.82275,-0.73462 0.05566,-0.45837 -0.27026,-0.86694 -0.729,-0.92224 -0.45312,-0.04987 -0.8623,0.27618 -0.91723,0.72894 z"
   id="path188"
   inkscape:connector-curvature="0"
   style="fill:#e5e5e5" />
		<path
   d="m 54.01196,49.27258 c 0.08838,0 0.177,-0.01105 0.26538,-0.04419 0.43652,-0.14917 0.66846,-0.61865 0.51904,-1.04926 -0.14893,-0.43097 -0.6189,-0.66827 -1.04932,-0.5191 -0.43115,0.14911 -0.6687,0.61829 -0.51978,1.04926 0.11598,0.34784 0.44191,0.56329 0.78468,0.56329 z"
   id="path190"
   inkscape:connector-curvature="0"
   style="fill:#e5e5e5" />
		<path
   d="m 51.96729,44.3186 c -0.38623,0.23761 -0.5083,0.75104 -0.27026,1.14337 0.1604,0.25403 0.43066,0.39209 0.70679,0.39209 0.14966,0 0.29858,-0.03882 0.43652,-0.12701 0.38696,-0.23755 0.5083,-0.75128 0.271,-1.1377 h -0.0054 C 52.86792,44.20264 52.35962,44.0813 51.96729,44.3186 Z"
   id="path192"
   inkscape:connector-curvature="0"
   style="fill:#e5e5e5" />
		<path
   d="m 26.79443,41.2868 c -0.32056,-0.32605 -0.84546,-0.33142 -1.17139,-0.0057 -0.32593,0.32037 -0.3313,0.84509 -0.0054,1.1709 0.16016,0.16016 0.37549,0.24292 0.58545,0.24292 0.20996,0 0.42578,-0.07739 0.58594,-0.23755 0.32593,-0.32006 0.32593,-0.84484 0.0054,-1.17059 z"
   id="path194"
   inkscape:connector-curvature="0"
   style="fill:#e5e5e5" />
		<path
   d="m 46.44214,39.21576 c -0.24829,0.38641 -0.13818,0.90015 0.24878,1.1488 0.13818,0.08813 0.29297,0.12701 0.44775,0.12701 0.27051,0 0.53589,-0.13269 0.69604,-0.38135 0.24878,-0.38104 0.13281,-0.89447 -0.24878,-1.14307 -0.38671,-0.24864 -0.90038,-0.13243 -1.14379,0.24861 z"
   id="path196"
   inkscape:connector-curvature="0"
   style="fill:#e5e5e5" />
		<path
   d="m 32.59058,38.73523 c 0.08789,0 0.18237,-0.01105 0.27026,-0.04425 0.43115,-0.14911 0.66309,-0.61859 0.51416,-1.04926 -0.14941,-0.43091 -0.61865,-0.66821 -1.0498,-0.5191 -0.43652,0.14917 -0.66309,0.61865 -0.51904,1.05469 0.11596,0.34247 0.44189,0.55792 0.78442,0.55792 z"
   id="path198"
   inkscape:connector-curvature="0"
   style="fill:#e5e5e5" />
		<path
   d="m 40.06592,37.95642 c 0.41431,0 0.77368,-0.30927 0.82349,-0.72888 0.05542,-0.45844 -0.271,-0.86694 -0.72363,-0.92224 -0.45874,-0.0553 -0.86768,0.27045 -0.92261,0.72351 -0.05566,0.45276 0.27026,0.86694 0.72339,0.92224 0.03295,0 0.0664,0.0054 0.09936,0.0054 z"
   id="path200"
   inkscape:connector-curvature="0"
   style="fill:#e5e5e5" />
		<path
   d="m 53.65308,64.71948 c 0.02148,0.04987 0.0437,0.09949 0.07715,0.14368 0.02759,0.04425 0.06104,0.0882 0.09937,0.12701 0.15479,0.15454 0.37012,0.24298 0.58594,0.24298 0.05493,0 0.11011,-0.0057 0.16553,-0.01642 0.0498,-0.01111 0.10474,-0.02777 0.15503,-0.04993 0.04956,-0.02209 0.09375,-0.04419 0.14331,-0.07739 0.04443,-0.02747 0.08862,-0.06067 0.12158,-0.09924 0.03882,-0.03882 0.07715,-0.08276 0.10522,-0.12701 0.02759,-0.04419 0.05493,-0.09381 0.07715,-0.14368 0.02222,-0.04962 0.03882,-0.09924 0.04419,-0.15454 0.01074,-0.0553 0.0166,-0.10492 0.0166,-0.16016 0,-0.22089 -0.08838,-0.43634 -0.24316,-0.58545 -0.03296,-0.03857 -0.07715,-0.07739 -0.12158,-0.10492 -0.04956,-0.03314 -0.09375,-0.0553 -0.14331,-0.07739 -0.05029,-0.02209 -0.10522,-0.03857 -0.15503,-0.04962 -0.27075,-0.04962 -0.55786,0.03857 -0.75146,0.23193 -0.15503,0.14911 -0.24292,0.36456 -0.24292,0.58545 0,0.05524 0.0054,0.10486 0.01636,0.16016 0.01121,0.0553 0.02781,0.10492 0.05003,0.15454 z"
   id="path202"
   inkscape:connector-curvature="0"
   style="fill:#e5e5e5" />
		<path
   d="m 55.84106,61.82001 c 0.10474,0.03888 0.20386,0.0553 0.30908,0.0553 0.32593,0 0.64111,-0.19336 0.76782,-0.5191 0.17163,-0.42523 -0.03809,-0.90576 -0.46387,-1.07703 -0.42529,-0.17096 -0.90601,0.03882 -1.07178,0.46411 -0.17137,0.42523 0.03297,0.90551 0.45875,1.07672 z"
   id="path204"
   inkscape:connector-curvature="0"
   style="fill:#e5e5e5" />
		<path
   d="m 57.19434,58.25238 c 0.39819,0 0.74609,-0.28149 0.81787,-0.67926 0.08252,-0.45276 -0.21509,-0.88373 -0.66309,-0.96649 -0.45313,-0.08276 -0.88379,0.21545 -0.9668,0.66284 -0.08325,0.45276 0.21533,0.88367 0.66309,0.96649 0.04956,0.01105 0.09912,0.01642 0.14893,0.01642 z"
   id="path206"
   inkscape:connector-curvature="0"
   style="fill:#e5e5e5" />
		<path
   d="m 56.69189,53.66864 c 0.0054,0.45276 0.37549,0.81738 0.82886,0.81738 0,0 0.0054,0 0.01074,0 0.45874,0 0.82349,-0.37567 0.81812,-0.83411 0,-0.45813 -0.37622,-0.82275 -0.83472,-0.81732 -0.45874,0.0057 -0.823,0.37562 -0.823,0.83405 z"
   id="path208"
   inkscape:connector-curvature="0"
   style="fill:#e5e5e5" />
		<path
   d="m 56.31055,50.07324 c 0.08301,0.39209 0.42505,0.66284 0.81201,0.66284 0.05566,0 0.1106,-0.0057 0.16553,-0.01648 0.45337,-0.09412 0.74097,-0.5304 0.64697,-0.97754 -0.09424,-0.44733 -0.53076,-0.73456 -0.97803,-0.64636 -0.44751,0.09412 -0.73511,0.53015 -0.64648,0.97754 z"
   id="path210"
   inkscape:connector-curvature="0"
   style="fill:#e5e5e5" />
		<path
   d="m 19.31885,46.52948 c 0.10522,0.04987 0.22119,0.07196 0.33179,0.07196 0.32056,0 0.62427,-0.18793 0.75708,-0.49725 0.18774,-0.41956 -0.0059,-0.90552 -0.42578,-1.09344 -0.41431,-0.18231 -0.90601,0.0056 -1.08838,0.42523 -0.18238,0.41985 0.0054,0.90582 0.42529,1.0935 z"
   id="path212"
   inkscape:connector-curvature="0"
   style="fill:#e5e5e5" />
		<path
   d="m 53.52026,43.44598 c 0.1604,0.23755 0.41992,0.36456 0.69067,0.36456 0.1543,0 0.32056,-0.04419 0.45874,-0.14343 0.38086,-0.25433 0.48071,-0.76776 0.22656,-1.1488 -0.25464,-0.38098 -0.76831,-0.4751 -1.14917,-0.22083 -0.38158,0.25403 -0.48095,0.76746 -0.2268,1.1485 z"
   id="path214"
   inkscape:connector-curvature="0"
   style="fill:#e5e5e5" />
		<path
   d="m 51.22168,39.48627 c -0.32593,0.32599 -0.32593,0.85046 0,1.17084 0.16016,0.16022 0.37012,0.24298 0.58545,0.24298 0.20996,0 0.42041,-0.08276 0.58594,-0.24298 0.32056,-0.32574 0.32056,-0.85052 0,-1.17084 -0.32569,-0.32581 -0.85083,-0.32581 -1.17139,0 z"
   id="path216"
   inkscape:connector-curvature="0"
   style="fill:#e5e5e5" />
		<path
   d="m 27.00977,36.81335 c -0.38696,0.24835 -0.4917,0.76202 -0.24292,1.14874 0.1543,0.24298 0.42529,0.37537 0.69604,0.37537 0.15479,0 0.30933,-0.04395 0.44727,-0.13239 0.38696,-0.25403 0.49756,-0.76208 0.24341,-1.14874 -0.24878,-0.38104 -0.76246,-0.49163 -1.1438,-0.24298 z"
   id="path218"
   inkscape:connector-curvature="0"
   style="fill:#e5e5e5" />
		<path
   d="m 45.88428,35.12335 c -0.42529,-0.17664 -0.90601,0.02209 -1.08838,0.44171 -0.177,0.41986 0.02734,0.90582 0.44727,1.08246 0.10522,0.04419 0.21582,0.06628 0.32056,0.06628 0.32593,0 0.63013,-0.1933 0.76245,-0.508 0.17699,-0.41961 -0.02222,-0.90581 -0.4419,-1.08245 z"
   id="path220"
   inkscape:connector-curvature="0"
   style="fill:#e5e5e5" />
		<path
   d="m 34.43604,35.54297 c 0.05493,0 0.10449,-0.0054 0.15479,-0.0108 0.45264,-0.08844 0.74561,-0.51935 0.6626,-0.96649 -0.08252,-0.453 -0.51904,-0.74561 -0.9668,-0.66284 -0.44751,0.08282 -0.74585,0.51373 -0.6626,0.96649 0.07714,0.39752 0.42504,0.67364 0.81201,0.67364 z"
   id="path222"
   inkscape:connector-curvature="0"
   style="fill:#e5e5e5" />
		<path
   d="m 39.02734,34.38879 c 0.0054,-0.45276 -0.36475,-0.82843 -0.82349,-0.8338 -0.45825,0 -0.82886,0.36432 -0.83423,0.82275 -0.0054,0.45843 0.36475,0.83405 0.82349,0.83405 0.0054,0 0.0054,0 0.01074,0 0.45338,0 0.81812,-0.36993 0.82349,-0.823 z"
   id="path224"
   inkscape:connector-curvature="0"
   style="fill:#e5e5e5" />
		<path
   d="m 30.81055,194.66602 v 9.85742 c 0,3.70898 3.01758,6.72656 6.72656,6.72656 3.70898,0 6.72656,-3.01758 6.72656,-6.72656 v -9.85645 c 0,-0.41406 -0.33594,-0.75 -0.75,-0.75 -0.41406,0 -0.75,0.33594 -0.75,0.75 v 9.85645 c 0,2.88184 -2.34473,5.22656 -5.22656,5.22656 -2.88183,0 -5.22656,-2.34473 -5.22656,-5.22656 v -9.85742 c 0,-0.41406 -0.33594,-0.75 -0.75,-0.75 -0.41406,0 -0.75,0.33593 -0.75,0.75 z"
   id="path226"
   inkscape:connector-curvature="0"
   style="fill:#e5e5e5" />
		<path
   d="m 47.2002,188.95996 c -0.10059,0.04 -0.19043,0.0996 -0.27051,0.17969 -0.07031,0.0801 -0.12988,0.16992 -0.17969,0.27051 -0.04004,0.0996 -0.06055,0.20996 -0.06055,0.31934 0,0.11035 0.02051,0.20996 0.06055,0.31055 0.04004,0.0996 0.09961,0.18945 0.17969,0.26953 0.16016,0.16016 0.37012,0.24023 0.58984,0.24023 0.2207,0 0.43066,-0.0801 0.58984,-0.24023 0.07031,-0.0801 0.13086,-0.16992 0.16992,-0.26953 0.05078,-0.10059 0.07031,-0.20996 0.07031,-0.31055 0,-0.21973 -0.08984,-0.42969 -0.24023,-0.58984 -0.23925,-0.2295 -0.5996,-0.30958 -0.90917,-0.1797 z"
   id="path228"
   inkscape:connector-curvature="0"
   style="fill:#e5e5e5" />
		<circle
   cx="47.519531"
   cy="185.75"
   r="0.83007997"
   id="circle230"
   style="fill:#e5e5e5" />
		<path
   d="m 48.2793,181.4502 c -0.03906,-0.10059 -0.09961,-0.19043 -0.16992,-0.26074 -0.30957,-0.30957 -0.86914,-0.30957 -1.17969,0 -0.15039,0.15039 -0.24023,0.36035 -0.24023,0.58008 0,0.11035 0.02051,0.2207 0.06055,0.32031 0.04004,0.0996 0.09961,0.19043 0.17969,0.26953 0.08008,0.0703 0.16992,0.13086 0.27051,0.18066 0.09961,0.04 0.20996,0.0596 0.31934,0.0596 0.2207,0 0.41992,-0.0898 0.58984,-0.24023 0.07031,-0.0791 0.13086,-0.16992 0.16992,-0.26953 0.05078,-0.0996 0.07031,-0.20996 0.07031,-0.32031 -1e-5,-0.10938 -0.01954,-0.20997 -0.07032,-0.31934 z"
   id="path232"
   inkscape:connector-curvature="0"
   style="fill:#e5e5e5" />
		<path
   d="m 39.5293,178.95996 c -0.45996,0 -0.8291,0.37012 -0.8291,0.83008 0,0.45996 0.36914,0.81934 0.8291,0.81934 0.46094,0 0.83008,-0.35938 0.83008,-0.81934 0,-0.45996 -0.36915,-0.83008 -0.83008,-0.83008 z"
   id="path234"
   inkscape:connector-curvature="0"
   style="fill:#e5e5e5" />
		<path
   d="m 39.5293,160.83008 c -0.45996,0 -0.8291,0.37012 -0.8291,0.83008 0,0.44922 0.36914,0.81934 0.8291,0.81934 0.46094,0 0.83008,-0.37012 0.83008,-0.81934 0,-0.45996 -0.36915,-0.83008 -0.83008,-0.83008 z"
   id="path236"
   inkscape:connector-curvature="0"
   style="fill:#e5e5e5" />
		<path
   d="m 39.5293,157.2002 c -0.45996,0 -0.8291,0.36914 -0.8291,0.83008 0,0.45996 0.36914,0.8291 0.8291,0.8291 0.46094,0 0.83008,-0.36914 0.83008,-0.8291 0,-0.46094 -0.36915,-0.83008 -0.83008,-0.83008 z"
   id="path238"
   inkscape:connector-curvature="0"
   style="fill:#e5e5e5" />
		<path
   d="m 39.5293,171.7002 c -0.45996,0 -0.8291,0.37988 -0.8291,0.83008 0,0.45996 0.36914,0.8291 0.8291,0.8291 0.46094,0 0.83008,-0.36914 0.83008,-0.8291 0,-0.4502 -0.36915,-0.83008 -0.83008,-0.83008 z"
   id="path240"
   inkscape:connector-curvature="0"
   style="fill:#e5e5e5" />
		<path
   d="m 39.5293,168.08008 c -0.45996,0 -0.8291,0.37012 -0.8291,0.83008 0,0.44922 0.36914,0.83008 0.8291,0.83008 0.46094,0 0.83008,-0.38086 0.83008,-0.83008 0,-0.45996 -0.36915,-0.83008 -0.83008,-0.83008 z"
   id="path242"
   inkscape:connector-curvature="0"
   style="fill:#e5e5e5" />
		<path
   d="m 39.5293,164.4502 c -0.45996,0 -0.8291,0.36914 -0.8291,0.83008 0,0.45996 0.36914,0.8291 0.8291,0.8291 0.46094,0 0.83008,-0.36914 0.83008,-0.8291 0,-0.46094 -0.36915,-0.83008 -0.83008,-0.83008 z"
   id="path244"
   inkscape:connector-curvature="0"
   style="fill:#e5e5e5" />
		<path
   d="m 39.5293,153.56934 c -0.45996,0 -0.8291,0.38086 -0.8291,0.83008 0,0.45996 0.36914,0.83008 0.8291,0.83008 0.46094,0 0.83008,-0.37012 0.83008,-0.83008 0,-0.44922 -0.36915,-0.83008 -0.83008,-0.83008 z"
   id="path246"
   inkscape:connector-curvature="0"
   style="fill:#e5e5e5" />
		<path
   d="m 39.5293,149.9502 c -0.45996,0 -0.8291,0.36914 -0.8291,0.81934 0,0.45996 0.36914,0.83008 0.8291,0.83008 0.46094,0 0.83008,-0.37012 0.83008,-0.83008 0,-0.4502 -0.36915,-0.81934 -0.83008,-0.81934 z"
   id="path248"
   inkscape:connector-curvature="0"
   style="fill:#e5e5e5" />
		<path
   d="m 41.00977,140.34961 c 0.2002,-0.41016 0.01953,-0.89941 -0.40039,-1.09961 -0.40918,-0.19043 -0.90918,-0.01 -1.09961,0.39941 -0.19043,0.41992 -0.0098,0.91016 0.40039,1.11035 0.11914,0.0498 0.22949,0.0703 0.34961,0.0703 0.30957,1e-5 0.61035,-0.16991 0.75,-0.48046 z"
   id="path250"
   inkscape:connector-curvature="0"
   style="fill:#e5e5e5" />
		<path
   d="m 39.5293,142.68945 c -0.45996,0 -0.8291,0.37988 -0.8291,0.83008 0,0.45996 0.36914,0.83008 0.8291,0.83008 0.46094,0 0.83008,-0.37012 0.83008,-0.83008 0,-0.45019 -0.36915,-0.83008 -0.83008,-0.83008 z"
   id="path252"
   inkscape:connector-curvature="0"
   style="fill:#e5e5e5" />
		<path
   d="m 39.5293,146.31934 c -0.45996,0 -0.8291,0.37012 -0.8291,0.83008 0,0.45996 0.36914,0.83008 0.8291,0.83008 0.46094,0 0.83008,-0.37012 0.83008,-0.83008 0,-0.45996 -0.36915,-0.83008 -0.83008,-0.83008 z"
   id="path254"
   inkscape:connector-curvature="0"
   style="fill:#e5e5e5" />
		<path
   d="m 39.5293,189.83984 c -0.45996,0 -0.8291,0.37012 -0.8291,0.83008 0,0.4502 0.36914,0.82031 0.8291,0.82031 0.46094,0 0.83008,-0.37012 0.83008,-0.82031 0,-0.45996 -0.36915,-0.83008 -0.83008,-0.83008 z"
   id="path256"
   inkscape:connector-curvature="0"
   style="fill:#e5e5e5" />
		<path
   d="m 39.5293,200.71973 c -0.45996,0 -0.8291,0.37012 -0.8291,0.82031 0,0.45996 0.36914,0.83008 0.8291,0.83008 0.46094,0 0.83008,-0.37012 0.83008,-0.83008 0,-0.4502 -0.36915,-0.82031 -0.83008,-0.82031 z"
   id="path258"
   inkscape:connector-curvature="0"
   style="fill:#e5e5e5" />
		<path
   d="m 39.5293,193.45996 c -0.45996,0 -0.8291,0.37012 -0.8291,0.83008 0,0.45996 0.36914,0.83008 0.8291,0.83008 0.46094,0 0.83008,-0.37012 0.83008,-0.83008 0,-0.45996 -0.36915,-0.83008 -0.83008,-0.83008 z"
   id="path260"
   inkscape:connector-curvature="0"
   style="fill:#e5e5e5" />
		<path
   d="m 42.47949,138.00977 c 0.19043,0 0.37012,-0.0596 0.52051,-0.17969 0.35938,-0.29004 0.41992,-0.81055 0.12988,-1.16992 -0.28027,-0.36035 -0.81055,-0.41016 -1.16016,-0.12988 -0.36035,0.28906 -0.41992,0.80957 -0.12988,1.16992 0.16016,0.19921 0.40039,0.30957 0.63965,0.30957 z"
   id="path262"
   inkscape:connector-curvature="0"
   style="fill:#e5e5e5" />
		<path
   d="m 39.5293,175.33008 c -0.45996,0 -0.8291,0.37012 -0.8291,0.83008 0,0.45996 0.36914,0.83008 0.8291,0.83008 0.46094,0 0.83008,-0.37012 0.83008,-0.83008 0,-0.45996 -0.36915,-0.83008 -0.83008,-0.83008 z"
   id="path264"
   inkscape:connector-curvature="0"
   style="fill:#e5e5e5" />
		<path
   d="m 39.5293,197.08984 c -0.45996,0 -0.8291,0.37012 -0.8291,0.83008 0,0.45996 0.36914,0.83008 0.8291,0.83008 0.46094,0 0.83008,-0.37012 0.83008,-0.83008 0,-0.45996 -0.36915,-0.83008 -0.83008,-0.83008 z"
   id="path266"
   inkscape:connector-curvature="0"
   style="fill:#e5e5e5" />
		<path
   d="m 39.5293,182.58008 c -0.45996,0 -0.8291,0.37012 -0.8291,0.83008 0,0.45996 0.36914,0.83008 0.8291,0.83008 0.46094,0 0.83008,-0.37012 0.83008,-0.83008 0,-0.45996 -0.36915,-0.83008 -0.83008,-0.83008 z"
   id="path268"
   inkscape:connector-curvature="0"
   style="fill:#e5e5e5" />
		<path
   d="m 39.5293,186.20996 c -0.45996,0 -0.8291,0.37012 -0.8291,0.83008 0,0.45996 0.36914,0.83008 0.8291,0.83008 0.46094,0 0.83008,-0.37012 0.83008,-0.83008 0,-0.45996 -0.36915,-0.83008 -0.83008,-0.83008 z"
   id="path270"
   inkscape:connector-curvature="0"
   style="fill:#e5e5e5" />
		<path
   d="m 38.93945,204.58984 c -0.14941,0.16016 -0.23926,0.37012 -0.23926,0.58984 0,0.21972 0.08984,0.42969 0.23926,0.58008 0.08008,0.0801 0.16992,0.13965 0.27051,0.17969 0.09961,0.0508 0.20996,0.0703 0.31934,0.0703 0.11035,0 0.2207,-0.0195 0.32031,-0.0703 0.10059,-0.04 0.19043,-0.0996 0.27051,-0.17969 0.06934,-0.0703 0.13965,-0.16016 0.17969,-0.26953 0.04004,-0.10059 0.05957,-0.2002 0.05957,-0.31055 0,-0.21973 -0.08984,-0.42969 -0.23926,-0.58984 -0.31055,-0.30957 -0.87012,-0.30957 -1.18067,0 z"
   id="path272"
   inkscape:connector-curvature="0"
   style="fill:#e5e5e5" />
		<path
   d="m 67.76465,119.31226 c -0.35791,0.28857 -0.42236,0.81439 -0.13965,1.16492 0.28857,0.35822 0.81494,0.42181 1.16479,0.13995 l 0.0083,-0.007 c 0.35059,-0.28241 0.40601,-0.80225 0.13232,-1.15875 -0.28856,-0.35823 -0.80883,-0.4142 -1.16576,-0.13935 z"
   id="path274"
   inkscape:connector-curvature="0"
   style="fill:#e5e5e5" />
		<path
   d="m 42.76367,228.33301 c 0,0.41406 0.33594,0.75 0.75,0.75 0.41406,0 0.75,-0.33594 0.75,-0.75 v -8.45654 c 2.46509,-2.00781 4.00488,-5.06769 4.00488,-8.37061 v -14.77441 c 0,-0.41406 -0.33594,-0.75 -0.75,-0.75 -0.41406,0 -0.75,0.33594 -0.75,0.75 v 14.77441 c 0,2.40973 -0.95508,4.6665 -2.53613,6.35205 -0.31372,-3.41974 -3.19507,-6.10791 -6.69531,-6.10791 -3.51489,0 -6.4043,2.71124 -6.69751,6.15149 -1.62476,-1.69147 -2.60815,-3.9668 -2.60815,-6.39563 v -14.77441 c 0,-0.41406 -0.33594,-0.75 -0.75,-0.75 -0.41406,0 -0.75,0.33594 -0.75,0.75 v 14.77441 c 0,3.31494 1.56982,6.38763 4.0791,8.39697 v 8.43018 c 0,0.41406 0.33594,0.75 0.75,0.75 0.41406,0 0.75,-0.33594 0.75,-0.75 v -7.42395 c 0.68506,0.38159 1.41406,0.69824 2.18652,0.9259 0.16797,0.0498 0.28613,0.2207 0.28613,0.41504 l 0.0127,52.875 c -4.70337,0.58936 -8.88501,2.65021 -12.10571,5.69489 l -1.4624,-1.47125 c 0.90063,-1.0896 1.44189,-2.48712 1.44189,-4.01117 0,-3.47937 -2.82056,-6.29999 -6.30005,-6.29999 -3.47925,0 -6.2998,2.82062 -6.2998,6.29999 0,3.47943 2.82056,6.30005 6.2998,6.30005 1.41455,0 2.71558,-0.47186 3.76709,-1.25891 l 1.50977,1.51874 c -3.53369,3.84369 -5.67285,8.96936 -5.67285,14.60266 0,1.60645 0.17676,3.20508 0.52637,4.75195 0.07813,0.34863 0.3877,0.58496 0.73047,0.58496 0.05469,0 0.11035,-0.006 0.16602,-0.0186 0.4043,-0.0908 0.6582,-0.49219 0.56641,-0.89648 -0.32422,-1.43945 -0.48926,-2.92676 -0.48926,-4.42188 0,-10.40332 7.7998,-18.98242 18.14258,-19.95605 0.38574,-0.0371 0.67969,-0.36035 0.67969,-0.74707 L 36.2832,222.25 c 0,-0.85449 -0.55957,-1.61719 -1.3623,-1.85449 -0.94678,-0.27911 -1.82251,-0.70551 -2.61035,-1.24402 v -0.67493 c 0,-2.88184 2.34473,-5.22656 5.22656,-5.22656 2.88183,0 5.22656,2.34473 5.22656,5.22656 v 0.65692 c -0.78906,0.54883 -1.6687,0.98096 -2.62012,1.26202 -0.80273,0.2373 -1.3623,1 -1.3623,1.85449 v 56.7002 c -0.42188,-0.0293 -0.86328,-0.041 -1.26563,-0.0439 -9.51465,0 -17.06055,7.13965 -17.56543,16.63379 -0.18262,3.42285 0.60938,6.75977 2.29395,9.69629 l -1.14795,0.82874 c -1.15454,-1.31195 -2.84155,-2.1441 -4.72656,-2.1441 -3.47925,0 -6.2998,2.82056 -6.2998,6.29999 0,3.47937 2.82056,6.29999 6.2998,6.29999 3.47949,0 6.30005,-2.82062 6.30005,-6.29999 0,-1.05487 -0.26245,-2.0473 -0.7207,-2.92084 l 1.73169,-1.25031 c 0.32031,-0.23145 0.40625,-0.67188 0.19629,-1.00684 -1.76758,-2.81543 -2.60742,-6.07422 -2.42871,-9.42285 0.46094,-8.68457 7.36328,-15.21387 16.06738,-15.21387 0.02051,0 0.04199,0 0.0625,0 0.62305,0.002 1.25098,0.04 1.86426,0.11328 0.22168,0.0225 0.42676,-0.041 0.58691,-0.18457 0.16016,-0.1416 0.25195,-0.3457 0.25195,-0.56055 V 222.25 c 0,-0.19434 0.11816,-0.36523 0.28711,-0.41504 0.77612,-0.22955 1.5083,-0.54993 2.19531,-0.93774 z M 12.87012,277.0752 c 0,0.27637 -0.22363,0.5 -0.5,0.5 -0.27637,0 -0.5,-0.22363 -0.5,-0.5 v -0.1875 c 0,-0.27637 0.22363,-0.5 0.5,-0.5 0.27637,0 0.5,0.22363 0.5,0.5 z m 2,0 c 0,0.27637 -0.22363,0.5 -0.5,0.5 -0.27637,0 -0.5,-0.22363 -0.5,-0.5 v -4.72559 c 0,-0.27637 0.22363,-0.5 0.5,-0.5 0.27637,0 0.5,0.22363 0.5,0.5 z m 2,0 c 0,0.27637 -0.22363,0.5 -0.5,0.5 -0.27637,0 -0.5,-0.22363 -0.5,-0.5 v -2.10059 c 0,-0.27637 0.22363,-0.5 0.5,-0.5 0.27637,0 0.5,0.22363 0.5,0.5 z m 2,0 c 0,0.27637 -0.22363,0.5 -0.5,0.5 -0.27637,0 -0.5,-0.22363 -0.5,-0.5 v -3.4502 c 0,-0.27637 0.22363,-0.5 0.5,-0.5 0.27637,0 0.5,0.22363 0.5,0.5 z m 2,0 c 0,0.27637 -0.22363,0.5 -0.5,0.5 -0.27637,0 -0.5,-0.22363 -0.5,-0.5 v -0.1875 c 0,-0.27637 0.22363,-0.5 0.5,-0.5 0.27637,0 0.5,0.22363 0.5,0.5 z m -8,31.5957 c 0,0.27637 -0.22363,0.5 -0.5,0.5 -0.27637,0 -0.5,-0.22363 -0.5,-0.5 v -0.1875 c 0,-0.27637 0.22363,-0.5 0.5,-0.5 0.27637,0 0.5,0.22363 0.5,0.5 z m 2,3.26269 c 0,0.27637 -0.22363,0.5 -0.5,0.5 -0.27637,0 -0.5,-0.22363 -0.5,-0.5 v -3.4502 c 0,-0.27637 0.22363,-0.5 0.5,-0.5 0.27637,0 0.5,0.22363 0.5,0.5 z m 2,-1.35058 c 0,0.27637 -0.22363,0.5 -0.5,0.5 -0.27637,0 -0.5,-0.22363 -0.5,-0.5 v -2.09961 c 0,-0.27637 0.22363,-0.5 0.5,-0.5 0.27637,0 0.5,0.22363 0.5,0.5 z m 2,2.625 c 0,0.27637 -0.22363,0.5 -0.5,0.5 -0.27637,0 -0.5,-0.22363 -0.5,-0.5 v -4.72461 c 0,-0.27637 0.22363,-0.5 0.5,-0.5 0.27637,0 0.5,0.22363 0.5,0.5 z m 2,-4.53711 c 0,0.27637 -0.22363,0.5 -0.5,0.5 -0.27637,0 -0.5,-0.22363 -0.5,-0.5 v -0.1875 c 0,-0.27637 0.22363,-0.5 0.5,-0.5 0.27637,0 0.5,0.22363 0.5,0.5 z"
   id="path276"
   inkscape:connector-curvature="0"
   style="fill:#e5e5e5" />
		<path
   d="m 59.25122,304.17358 c -1.96362,0 -3.71655,0.89886 -4.87207,2.30695 l -1.67896,-1.08307 c 1.58105,-2.69141 2.41309,-5.75195 2.41309,-8.89746 0,-7.4834 -4.83984,-14.2168 -11.86133,-16.63867 l 0.75195,-2.33398 c 8.02051,2.74414 13.56055,10.44141 13.56055,18.97266 0,1.49121 -0.16504,2.97852 -0.48926,4.42188 -0.09082,0.4043 0.16309,0.80566 0.56641,0.89648 0.40625,0.0918 0.80566,-0.16211 0.89648,-0.56641 0.34961,-1.55176 0.52637,-3.15039 0.52637,-4.75195 0,-9.43359 -6.30371,-17.91895 -15.3291,-20.63379 -0.38672,-0.12207 -0.80371,0.0996 -0.92969,0.48828 l -1.21191,3.7627 c -0.06152,0.19141 -0.04395,0.40137 0.05078,0.58008 0.09375,0.17773 0.25684,0.31152 0.4502,0.36816 6.78223,2.00781 11.51855,8.35449 11.51855,15.43457 0,3.1084 -0.8877,6.12402 -2.56641,8.72266 -0.1084,0.16699 -0.14551,0.37012 -0.10352,0.56543 0.04199,0.19434 0.15918,0.36426 0.32715,0.47168 l 2.30737,1.48828 c -0.39746,0.82574 -0.62671,1.74774 -0.62671,2.72552 0,3.47937 2.8208,6.29999 6.30005,6.29999 3.47949,0 6.30005,-2.82062 6.30005,-6.29999 1e-5,-3.47944 -2.82055,-6.3 -6.30004,-6.3 z m -3.50024,6.3938 c 0,0.27637 -0.22363,0.5 -0.5,0.5 -0.27637,0 -0.5,-0.22363 -0.5,-0.5 v -0.1875 c 0,-0.27637 0.22363,-0.5 0.5,-0.5 0.27637,0 0.5,0.22363 0.5,0.5 z m 2,2.26856 c 0,0.27637 -0.22363,0.5 -0.5,0.5 -0.27637,0 -0.5,-0.22363 -0.5,-0.5 v -4.72461 c 0,-0.27637 0.22363,-0.5 0.5,-0.5 0.27637,0 0.5,0.22363 0.5,0.5 z m 2,-1.3125 c 0,0.27637 -0.22363,0.5 -0.5,0.5 -0.27637,0 -0.5,-0.22363 -0.5,-0.5 v -2.09961 c 0,-0.27637 0.22363,-0.5 0.5,-0.5 0.27637,0 0.5,0.22363 0.5,0.5 z m 2,0.6748 c 0,0.27637 -0.22363,0.5 -0.5,0.5 -0.27637,0 -0.5,-0.22363 -0.5,-0.5 v -3.44922 c 0,-0.27637 0.22363,-0.5 0.5,-0.5 0.27637,0 0.5,0.22363 0.5,0.5 z m 2,-1.63086 c 0,0.27637 -0.22363,0.5 -0.5,0.5 -0.27637,0 -0.5,-0.22363 -0.5,-0.5 v -0.1875 c 0,-0.27637 0.22363,-0.5 0.5,-0.5 0.27637,0 0.5,0.22363 0.5,0.5 z"
   id="path278"
   inkscape:connector-curvature="0"
   style="fill:#e5e5e5" />
	</g>
</g>
<g
   id="JACKS"
   transform="matrix(1.2800162,0,0,1.2800162,-6.0555561e-4,-0.36841885)">
</g>
<g
   id="KNOBS"
   transform="matrix(1.2800162,0,0,1.2800162,-6.0555561e-4,-0.36841885)">
</g>
<g
   id="PUSH"
   transform="matrix(1.2800162,0,0,1.2800162,-6.0555561e-4,-0.36841885)">
</g>
<g
   id="LEDS"
   transform="matrix(1.2800162,0,0,1.2800162,-6.0555561e-4,-0.36841885)">
</g>
</svg>