<?xml version="1.0" encoding="UTF-8" standalone="no"?>
<!-- Generator: Adobe Illustrator 25.2.3, SVG Export Plug-In . SVG Version: 6.00 Build 0)  -->

<svg
   xmlns:dc="http://purl.org/dc/elements/1.1/"
   xmlns:cc="http://creativecommons.org/ns#"
   xmlns:rdf="http://www.w3.org/1999/02/22-rdf-syntax-ns#"
   xmlns:svg="http://www.w3.org/2000/svg"
   xmlns="http://www.w3.org/2000/svg"
   xmlns:sodipodi="http://sodipodi.sourceforge.net/DTD/sodipodi-0.dtd"
   xmlns:inkscape="http://www.inkscape.org/namespaces/inkscape"
   version="1.0"
   id="svg287"
   inkscape:version="0.92.3 (2405546, 2018-03-11)"
   sodipodi:docname="Fate-DM.svg"
   x="0px"
   y="0px"
   width="75.091064"
   height="380"
   viewBox="0 0 75.091064 380"
   enable-background="new 0 0 72 364.25195"
   xml:space="preserve"><metadata
   id="metadata216"><rdf:RDF><cc:Work
       rdf:about=""><dc:format>image/svg+xml</dc:format><dc:type
         rdf:resource="http://purl.org/dc/dcmitype/StillImage" /><dc:title></dc:title></cc:Work></rdf:RDF></metadata><defs
   id="defs214" />
<sodipodi:namedview
   bordercolor="#666666"
   borderopacity="1"
   fit-margin-bottom="0"
   fit-margin-left="0"
   fit-margin-right="0"
   fit-margin-top="0"
   gridtolerance="10"
   guidetolerance="10"
   id="namedview289"
   inkscape:current-layer="svg287"
   inkscape:cx="-67.259756"
   inkscape:cy="117.83067"
   inkscape:document-units="mm"
   inkscape:pageopacity="0"
   inkscape:pageshadow="2"
   inkscape:window-height="1017"
   inkscape:window-maximized="1"
   inkscape:window-width="1920"
   inkscape:window-x="-8"
   inkscape:window-y="-8"
   inkscape:zoom="1.2421053"
   objecttolerance="10"
   pagecolor="#ffffff"
   showgrid="false"
   units="mm">
	</sodipodi:namedview>
<g
   id="base"
   transform="translate(4.5195367e-4,121.30933)"
   display="none"
   style="display:none">
</g>
<g
   id="GUIDES"
   transform="translate(4.5195367e-4,121.30933)"
   display="none"
   style="display:none">
</g>
<g
   id="bg"
   transform="matrix(1.3349605,0,0,1.3349605,-1.6019526e-4,-0.38422833)">
	
		<linearGradient
   id="rect79_1_"
   gradientUnits="userSpaceOnUse"
   x1="-49.13245"
   y1="214.57114"
   x2="173.8606"
   y2="-8.4219303"
   gradientTransform="matrix(0.96001,0,0,-0.96001,-8.15403,265.79922)">
		<stop
   offset="0.38537"
   style="stop-color:#FFCC9E"
   id="stop5" />
		<stop
   offset="0.62112"
   style="stop-color:#F1AD8C"
   id="stop7" />
		<stop
   offset="0.85662"
   style="stop-color:#E6947E"
   id="stop9" />
		<stop
   offset="1"
   style="stop-color:#E28B79"
   id="stop11" />
	</linearGradient>
	<rect
   id="rect79"
   x="1.71266"
   y="2.7739401"
   width="53.175911"
   height="281.31363"
   style="fill:url(#rect79_1_)" />
	<g
   id="g97">
		<path
   id="path81"
   inkscape:connector-curvature="0"
   d="m 17.57385,248.4882 c 0.51562,0.16113 1.06494,-0.12598 1.22461,-0.63794 0.1604,-0.51123 -0.12744,-1.06055 -0.64234,-1.22168 -0.51929,-0.1626 -1.0686,0.12451 -1.22828,0.63647 -0.16038,0.51124 0.12746,1.06056 0.64601,1.22315 z"
   style="fill:#252626" />
		<path
   id="path83"
   inkscape:connector-curvature="0"
   d="M 7.92786,77.52483 C 7.87439,77.41863 7.74402,77.37835 7.64221,77.42962 l -0.4585,0.22925 0.19116,0.38159 0.45776,-0.22925 C 7.93591,77.75992 7.9806,77.63103 7.92786,77.52483 Z"
   style="fill:#252626" />
		<path
   id="path85"
   inkscape:connector-curvature="0"
   d="m 22.35144,80.33148 -0.33545,0.26221 0.31494,0.4043 c 0.06958,0.09082 0.20435,0.10986 0.2981,0.03735 0.09448,-0.07327 0.10766,-0.20874 0.03808,-0.30029 z"
   style="fill:#252626" />
		<path
   id="path87"
   inkscape:connector-curvature="0"
   d="m 34.04895,240.06682 -0.91333,1.59961 0.3772,0.21533 c 0.45484,0.26001 1.02979,0.11133 1.28173,-0.32886 0.25122,-0.44165 0.08789,-1.01074 -0.36767,-1.27075 z"
   style="fill:#252626" />
		<polygon
   id="polygon89"
   points="24.82849,9.95819 24.5553,9.09686 24.27332,9.95819 "
   style="fill:#252626" />
		<path
   id="path91"
   inkscape:connector-curvature="0"
   d="m 39.12391,245.33806 c 0.09888,-0.0571 0.13696,-0.18823 0.08203,-0.28418 l -0.24902,-0.43213 -0.36547,0.21021 0.24902,0.43213 c 0.05786,0.10034 0.18456,0.13113 0.28344,0.074 z"
   style="fill:#252626" />
		<path
   id="path93"
   inkscape:connector-curvature="0"
   d="m 1.2e-4,0.28782 v 284.5683 H 56.24977 V 0.28782 Z m 49.76422,87.4938 c 0.17322,0.21501 0.1875,0.52803 0.0141,0.75993 -0.20526,0.27534 -0.59362,0.33252 -0.86902,0.12735 -3.54235,-2.63607 -8.42083,-2.54012 -11.86451,0.23447 -4.1618,3.35313 -4.8197,9.46738 -1.46667,13.62914 3.35321,4.16171 9.46746,4.81961 13.62927,1.46649 3.33765,-2.68913 4.5174,-7.32678 2.86835,-11.27756 -0.1322,-0.31681 0.01795,-0.68042 0.33435,-0.81304 0.31677,-0.13206 0.68115,0.01545 0.81298,0.33435 1.85925,4.45785 0.52899,9.68977 -3.2364,12.7235 -4.69555,3.78328 -11.5924,3.04115 -15.37573,-1.6544 -3.78332,-4.6956 -3.0412,-11.59254 1.65436,-15.37578 3.88458,-3.12977 9.38965,-3.23859 13.38556,-0.26353 0.04361,0.0318 0.08077,0.06855 0.11337,0.1091 v -2e-5 z M 29.00916,235.65919 v 15.25406 c 0,0.31055 -0.25196,0.5625 -0.5625,0.5625 -0.31054,0 -0.5625,-0.25195 -0.5625,-0.5625 v -15.22408 c -3.44385,-0.065 -6.67438,-1.42662 -9.11719,-3.86943 -0.24243,-0.24243 -0.24243,-0.63647 0,-0.87891 0.24316,-0.2417 0.63574,-0.2417 0.87891,0 2.26831,2.26904 5.28516,3.51855 8.49317,3.51855 3.20801,0 6.22485,-1.24951 8.4939,-3.51855 0.24316,-0.2417 0.63575,-0.2417 0.87891,0 0.24243,0.24316 0.24243,0.63647 0,0.87891 -2.29726,2.29656 -5.29122,3.63209 -8.5027,3.83945 z m 6.25781,6.16398 c -0.3977,0.69653 -1.30517,0.93237 -2.02002,0.52441 l -0.84961,-0.4856 1.44507,-2.53125 0.84961,0.4856 c 0.71484,0.40796 0.97339,1.30957 0.57495,2.00684 z m -12.3186,-1.17334 1.06348,-0.54858 0.24976,0.48486 -1.06348,0.54858 0.3977,0.77197 1.18726,-0.6123 0.24829,0.47974 -1.67432,0.86572 -1.33887,-2.59351 1.708,-0.8811 0.24463,0.47314 -1.22021,0.62988 z m -4.89624,-63.96825 c 0.04541,0.0828 0.13403,0.17212 0.28271,0.29443 0.0205,0.0139 0.04614,0.0366 0.07105,0.0586 0.13916,0.1062 0.32227,0.25342 0.42188,0.40942 0.09082,0.12891 0.13989,0.26807 0.15235,0.40723 0.01246,0.13916 -0.01758,0.28052 -0.0835,0.41162 -0.0835,0.16479 -0.20141,0.28857 -0.35156,0.36841 -0.13037,0.0674 -0.28931,0.10254 -0.47608,0.0989 -0.16113,0.002 -0.3186,-0.041 -0.49804,-0.13184 -0.0835,-0.0418 -0.16626,-0.0967 -0.24829,-0.16187 -0.24316,-0.19116 -0.44018,-0.45483 -0.56909,-0.77197 l -0.03809,-0.0981 0.50684,-0.20288 0.03735,0.0974 c 0.09521,0.23071 0.23218,0.42334 0.39624,0.55225 l 0.0029,0.002 c 0.04981,0.0381 0.10108,0.0739 0.15673,0.10107 0.09082,0.0461 0.18384,0.0696 0.26954,0.0718 0.10693,0.009 0.24902,-0.0205 0.32519,-0.16992 0.03955,-0.0813 0.03149,-0.16406 -0.0271,-0.25635 -0.07105,-0.11426 -0.19263,-0.21753 -0.28271,-0.28564 -0.04028,-0.0286 -0.37426,-0.29443 -0.49804,-0.47534 -0.07837,-0.12744 -0.12158,-0.25928 -0.13257,-0.39258 -0.0088,-0.1377 0.02198,-0.26953 0.08642,-0.39697 0.06958,-0.13843 0.18311,-0.25562 0.33252,-0.34131 0.1333,-0.0659 0.28711,-0.0981 0.45044,-0.0937 0.1626,0.005 0.32593,0.0447 0.48266,0.12451 0.06298,0.0315 0.12524,0.0718 0.18676,0.11206 0.21899,0.16553 0.4021,0.39551 0.52148,0.67603 l 0.03955,0.093 -0.50024,0.21973 -0.04028,-0.0937 c -0.13989,-0.31274 -0.323,-0.45996 -0.45337,-0.52588 -0.08496,-0.0439 -0.17065,-0.0637 -0.25196,-0.0674 -0.12524,-0.004 -0.23584,0.0513 -0.27979,0.13843 -0.04101,0.0798 -0.03735,0.14575 0.0081,0.22852 z m -3.375,-1.50366 0.11206,-0.52954 1.94238,0.41309 -0.11353,0.52881 -0.70093,-0.14868 -0.49512,2.3269 -0.53687,-0.11426 0.49365,-2.32764 z m -2.73047,-16.48096 c 0,-7.11182 4.75488,-13.49854 11.56274,-15.53101 0.30175,-0.0901 0.61084,0.0813 0.70019,0.37793 0.08862,0.2981 -0.08057,0.61157 -0.37793,0.7002 -6.33545,1.89111 -10.76001,7.83472 -10.76001,14.45288 0,6.61816 4.42456,12.56177 10.76001,14.45288 0.29736,0.0886 0.46655,0.4021 0.37793,0.7002 -0.07324,0.2439 -0.29663,0.40137 -0.53906,0.40137 -0.05273,0 -0.10694,-0.008 -0.16113,-0.0234 -6.80786,-2.0325 -11.56274,-8.41922 -11.56274,-15.53104 z M 24.43518,95.3366 c -0.13549,0 -0.27026,-0.0447 -0.39038,-0.13477 -0.26221,-0.21753 -0.30762,-0.60718 -0.09009,-0.87744 0.2102,-0.26295 0.60058,-0.30762 0.87012,-0.09009 0.27026,0.21021 0.30762,0.60718 0.09741,0.87012 -0.12744,0.15747 -0.30761,0.23218 -0.48706,0.23218 z m 2.20459,56.51295 c -0.34497,0 -0.62256,-0.27759 -0.62256,-0.62256 0,-0.34497 0.27759,-0.62256 0.62256,-0.62256 0.34497,0 0.62256,0.27759 0.62256,0.62256 0,0.34497 -0.27759,0.62256 -0.62256,0.62256 z m 0.61523,2.10718 c 0,0.0828 -0.01538,0.16479 -0.04541,0.23291 -0.02929,0.082 -0.07471,0.14941 -0.13477,0.20215 -0.06006,0.0601 -0.12744,0.10474 -0.20215,0.13477 -0.07544,0.03 -0.15015,0.0527 -0.23291,0.0527 -0.08204,0 -0.1648,-0.0227 -0.23951,-0.0527 -0.07544,-0.03 -0.14282,-0.0747 -0.20288,-0.13477 -0.05273,-0.0527 -0.10474,-0.12012 -0.13477,-0.20215 -0.03003,-0.0681 -0.04541,-0.15015 -0.04541,-0.23291 0,-0.16479 0.06738,-0.32959 0.18017,-0.44238 0.06006,-0.0601 0.12744,-0.10474 0.20288,-0.13477 0.23218,-0.0974 0.50977,-0.0381 0.67456,0.13477 0.12015,0.11277 0.1802,0.27758 0.1802,0.44238 z m -0.61523,-4.82959 c -0.34497,0 -0.62256,-0.27759 -0.62256,-0.62256 0,-0.34497 0.27759,-0.62256 0.62256,-0.62256 0.34497,0 0.62256,0.27759 0.62256,0.62256 0,0.34497 -0.27759,0.62256 -0.62256,0.62256 z m 0,-2.72315 c -0.34497,0 -0.62256,-0.28491 -0.62256,-0.62183 0,-0.3457 0.27759,-0.62256 0.62256,-0.62256 0.34497,0 0.62256,0.27686 0.62256,0.62256 0,0.33692 -0.27759,0.62183 -0.62256,0.62183 z m 0,-2.72973 c -0.34497,0 -0.62256,-0.27759 -0.62256,-0.61523 0,-0.34497 0.27759,-0.62256 0.62256,-0.62256 0.34497,0 0.62256,0.27759 0.62256,0.62256 0,0.33764 -0.27759,0.61523 -0.62256,0.61523 z m 0,-2.72242 c -0.34497,0 -0.62256,-0.27759 -0.62256,-0.61523 0,-0.34497 0.27759,-0.62256 0.62256,-0.62256 0.34497,0 0.62256,0.27759 0.62256,0.62256 0,0.33765 -0.27759,0.61523 -0.62256,0.61523 z m 0,-2.72241 c -0.34497,0 -0.62256,-0.27759 -0.62256,-0.61523 0,-0.34497 0.27759,-0.62256 0.62256,-0.62256 0.34497,0 0.62256,0.27759 0.62256,0.62256 0,0.33764 -0.27759,0.61523 -0.62256,0.61523 z m 0,-2.72241 c -0.34497,0 -0.62256,-0.27759 -0.62256,-0.61523 0,-0.34497 0.27759,-0.62256 0.62256,-0.62256 0.34497,0 0.62256,0.27759 0.62256,0.62256 0,0.33764 -0.27759,0.61523 -0.62256,0.61523 z m 0,-2.72241 c -0.34497,0 -0.62256,-0.27759 -0.62256,-0.62256 0,-0.33765 0.27759,-0.61523 0.62256,-0.61523 0.34497,0 0.62256,0.27759 0.62256,0.61523 0,0.34497 -0.27759,0.62256 -0.62256,0.62256 z m 0,-2.72315 c -0.34497,0 -0.62256,-0.27686 -0.62256,-0.62183 0,-0.34497 0.27759,-0.62256 0.62256,-0.62256 0.34497,0 0.62256,0.27759 0.62256,0.62256 0,0.34497 -0.27759,0.62183 -0.62256,0.62183 z m 0,-2.7224 c -0.34497,0 -0.62256,-0.27759 -0.62256,-0.62256 0,-0.33691 0.27759,-0.62183 0.62256,-0.62183 0.34497,0 0.62256,0.28491 0.62256,0.62183 0,0.34498 -0.27759,0.62256 -0.62256,0.62256 z m 0,-2.72241 c -0.34497,0 -0.62256,-0.27759 -0.62256,-0.62256 0,-0.33691 0.27759,-0.62256 0.62256,-0.62256 0.34497,0 0.62256,0.28564 0.62256,0.62256 0,0.34497 -0.27759,0.62256 -0.62256,0.62256 z m 0,-2.72242 c -0.34497,0 -0.62256,-0.27759 -0.62256,-0.62256 0,-0.33765 0.27759,-0.62256 0.62256,-0.62256 0.34497,0 0.62256,0.28491 0.62256,0.62256 0,0.34498 -0.27759,0.62256 -0.62256,0.62256 z m 0,-2.72241 c -0.34497,0 -0.62256,-0.27759 -0.62256,-0.62256 0,-0.34497 0.27759,-0.62256 0.62256,-0.62256 0.34497,0 0.62256,0.27759 0.62256,0.62256 0,0.34497 -0.27759,0.62256 -0.62256,0.62256 z m 0,-2.72241 c -0.34497,0 -0.62256,-0.27759 -0.62256,-0.62256 0,-0.34497 0.27759,-0.62256 0.62256,-0.62256 0.34497,0 0.62256,0.27759 0.62256,0.62256 0,0.34497 -0.27759,0.62256 -0.62256,0.62256 z m 0,-2.72241 c -0.34497,0 -0.62256,-0.27759 -0.62256,-0.62256 0,-0.34497 0.27759,-0.62256 0.62256,-0.62256 0.34497,0 0.62256,0.27759 0.62256,0.62256 0,0.34497 -0.27759,0.62256 -0.62256,0.62256 z m 0,-2.72241 c -0.34497,0 -0.62256,-0.28491 -0.62256,-0.62256 0,-0.34497 0.27759,-0.62256 0.62256,-0.62256 0.34497,0 0.62256,0.27759 0.62256,0.62256 0,0.33764 -0.27759,0.62256 -0.62256,0.62256 z m 0,-2.73047 c -0.34497,0 -0.62256,-0.27759 -0.62256,-0.6145 0,-0.34497 0.27759,-0.62256 0.62256,-0.62256 0.34497,0 0.62256,0.27759 0.62256,0.62256 0,0.33691 -0.27759,0.6145 -0.62256,0.6145 z m 0,-2.72242 c -0.34497,0 -0.62256,-0.27759 -0.62256,-0.61523 0,-0.34497 0.27759,-0.62183 0.62256,-0.62183 0.34497,0 0.62256,0.27686 0.62256,0.62183 0,0.33765 -0.27759,0.61523 -0.62256,0.61523 z m 0,-2.71508 c -0.34497,0 -0.62256,-0.27759 -0.62256,-0.62256 0,-0.34497 0.27759,-0.62256 0.62256,-0.62256 0.34497,0 0.62256,0.27759 0.62256,0.62256 0,0.34497 -0.27759,0.62256 -0.62256,0.62256 z m 0,-2.72974 c -0.34497,0 -0.62256,-0.27759 -0.62256,-0.61523 0,-0.34497 0.27759,-0.62256 0.62256,-0.62256 0.34497,0 0.62256,0.27759 0.62256,0.62256 0,0.33764 -0.27759,0.61523 -0.62256,0.61523 z m -0.28491,-2.69971 c -0.08276,0.03735 -0.17212,0.05933 -0.25488,0.05933 -0.24023,0 -0.45776,-0.13477 -0.56983,-0.35962 -0.14282,-0.31494 -0.0081,-0.68262 0.30762,-0.82471 0.31494,-0.14282 0.68188,-0.008 0.82471,0.29956 0.14281,0.31495 0.0074,0.68262 -0.30762,0.82544 z m 4.31909,-28.56372 0.09009,-1.19385 0.54419,0.04174 -0.09083,1.19312 0.86572,0.06592 0.10254,-1.33228 0.53906,0.04174 -0.14428,1.87939 -2.90844,-0.22118 0.14576,-1.91748 0.53101,0.04102 -0.104,1.3689 z m 0.01611,1.84717 0.53687,-0.09961 0.21899,1.17773 0.854,-0.15967 -0.2439,-1.31396 0.53174,-0.09888 0.34497,1.85376 -2.86963,0.53393 -0.35156,-1.89038 0.52441,-0.09668 0.25049,1.34985 0.42334,-0.07837 z m 0.24463,4.21729 c -0.08276,-0.17797 -0.09082,-0.37793 -0.0227,-0.56909 0.06958,-0.19043 0.20215,-0.33911 0.38013,-0.42261 0.26367,-0.12452 0.57422,-0.08057 0.79321,0.09741 l 0.89062,-1.61865 0.27612,0.58594 -0.84961,1.54395 0.09961,0.21167 1.28906,-0.60718 0.22705,0.4812 -2.63819,1.24219 z m 1.53956,1.64795 0.89868,1.03564 0.32447,-0.28052 -0.49585,-0.57275 0.40869,-0.35376 0.49585,0.57202 1.06421,-0.92212 0.35669,0.41235 -2.20312,1.90796 -1.25464,-1.44873 z m 11.81908,-19.66114 0.53394,0.12158 -0.53027,2.31812 1.44873,0.33179 -0.12012,0.52148 -1.98266,-0.45337 z m -1.177,2.7671 -2.03467,0.07764 -0.11133,-2.9165 0.54859,-0.02051 0.09082,2.37964 1.48609,-0.0564 z m -1.2431,-25.6525 c 0.31494,-0.13248 0.67951,0.01657 0.81226,0.33147 0.13275,0.31472 -0.01667,0.67918 -0.33142,0.81184 -0.07891,0.03314 -0.16187,0.04976 -0.24042,0.04976 -0.24445,0 -0.4726,-0.14099 -0.57184,-0.37702 -0.13678,-0.31892 0.01227,-0.68339 0.33142,-0.81605 z m -0.44549,4.76894 c 0.03332,0.34383 -0.2157,0.64618 -0.55517,0.67918 -0.02106,0.0042 -0.04174,0.0042 -0.06226,0.0042 -0.31494,0 -0.5885,-0.23602 -0.61762,-0.5592 -0.03717,-0.33957 0.2157,-0.64618 0.55536,-0.67932 0.33984,-0.03722 0.64655,0.21134 0.67969,0.55513 z M 36.45862,6.80951 h 4.0188 v 1.40918 h -2.57739 v 0.50537 h 2.25439 v 1.43335 h -2.25439 v 1.12646 h 2.51953 v 1.42529 H 36.45863 V 6.80951 Z m 3.6958,53.1372 -0.53027,0.13843 -0.73682,-2.81836 0.53027,-0.13916 z m -3.51563,1.56958 -0.4292,0.26367 -2.21631,-2.05811 0.48779,-0.30029 1.59375,1.48609 -0.03955,-1.30884 0.42773,-0.26367 1.1455,0.63208 -0.59839,-2.09546 0.48486,-0.29736 0.82837,2.90919 -0.4292,0.26294 -1.30371,-0.71703 z m 1.05103,-29.80027 c -0.1203,0.12012 -0.27759,0.17816 -0.43506,0.17816 -0.1615,0 -0.32336,-0.06207 -0.44348,-0.1865 -0.24042,-0.2443 -0.24042,-0.63789 0.0084,-0.87794 0.24445,-0.24028 0.63812,-0.23621 0.87854,0.0083 0.24043,0.2443 0.23585,0.6377 -0.0084,0.87799 z M 35.84998,27.6486 c 0.19079,-0.28578 0.57605,-0.36447 0.86206,-0.16988 0.28564,0.19048 0.36016,0.57578 0.16955,0.86156 -0.12012,0.17816 -0.31494,0.27342 -0.51343,0.27342 -0.1203,0 -0.24042,-0.03314 -0.34863,-0.10355 -0.28564,-0.19473 -0.35998,-0.57984 -0.16955,-0.86155 z M 29.27649,6.80951 h 4.13452 V 8.2348 h -1.35059 v 4.47436 H 30.62707 V 8.2348 H 29.2765 Z m 3.81775,21.63432 c -0.09119,0.25259 -0.33142,0.41016 -0.58448,0.41016 -0.07031,0 -0.1408,-0.01254 -0.2113,-0.0374 -0.32318,-0.11591 -0.48871,-0.47204 -0.37298,-0.79527 0.11609,-0.32295 0.4726,-0.4888 0.7956,-0.37271 0.32335,0.11585 0.48925,0.47222 0.37316,0.79522 z m -1.31763,-2.50182 c -0.06244,0.29407 -0.31934,0.49713 -0.60956,0.49713 -0.0412,0 -0.08258,-0.0043 -0.12433,-0.01254 -0.33545,-0.07036 -0.55114,-0.39761 -0.48468,-0.73315 0.06628,-0.3355 0.39367,-0.55069 0.7337,-0.48459 0.33546,0.06638 0.55116,0.39766 0.48487,0.73315 z m 4.95301,23.9654 c 0.24316,-0.2417 0.63575,-0.24316 0.87891,0 0.24243,0.24243 0.24243,0.63574 0,0.87891 -2.39539,2.39621 -5.54992,3.74725 -8.9209,3.85986 v 4.42529 c 0,1.45826 0.79907,2.79272 2.08448,3.48266 l 12.90234,6.92065 c 0.27393,0.14722 0.37646,0.48779 0.22998,0.76173 -0.1018,0.18896 -0.2959,0.29663 -0.49658,0.29663 -0.08936,0 -0.18017,-0.02124 -0.26514,-0.06665 L 30.24036,63.54584 c -1.65162,-0.88623 -2.67774,-2.60083 -2.67774,-4.47437 v -4.43615 c -3.28638,-0.16411 -6.35578,-1.50577 -8.69897,-3.84901 -0.24243,-0.24243 -0.24243,-0.63647 0,-0.87891 0.24316,-0.2417 0.63574,-0.2417 0.87891,0 2.26831,2.26904 5.28516,3.51856 8.4939,3.51856 3.20874,0 6.22558,-1.24951 8.49316,-3.51855 z m -14.56861,31.62744 -0.51196,1.77686 -0.39844,-0.50977 0.48779,-1.69629 -0.14356,-0.18457 -1.125,0.87744 -0.32886,-0.41968 2.30347,-1.7959 0.64234,0.82545 c 0.12158,0.15527 0.17285,0.34863 0.14795,0.54932 -0.0249,0.20141 -0.12232,0.37646 -0.27686,0.49805 -0.23071,0.17871 -0.54272,0.20434 -0.79687,0.07909 z m 0.47388,12.10693 c -0.11279,0.20288 -0.32227,0.32227 -0.54712,0.32227 -0.09814,0 -0.20288,-0.02197 -0.29297,-0.0747 -0.29956,-0.15747 -0.41968,-0.53979 -0.25488,-0.84009 0.1648,-0.30029 0.5398,-0.41235 0.84009,-0.25488 0.30761,0.16479 0.41967,0.53979 0.25488,0.8474 z m -4.89258,-14.76782 -0.0271,0.01688 c -0.40649,0.28052 -0.91626,0.35449 -1.36963,0.19923 -0.79468,-0.26954 -1.22168,-1.13673 -0.95069,-1.93506 0.27026,-0.79541 1.13819,-1.22168 1.93213,-0.95215 0.19409,0.06667 0.37061,0.16992 0.51929,0.30249 0.15015,0.13257 0.2732,0.2915 0.35962,0.47168 l 0.04834,0.09888 -0.49878,0.20654 -0.04468,-0.08422 c -0.10913,-0.22704 -0.30688,-0.39404 -0.55957,-0.47974 -0.5105,-0.17359 -1.06714,0.10034 -1.24073,0.6123 -0.17505,0.51562 0.09668,1.07446 0.60864,1.24878 0.26001,0.08789 0.53247,0.06375 0.7771,-0.06075 l 0.19555,-0.57349 -0.75586,-0.25635 0.17505,-0.51562 1.26343,0.42921 z m 0.09229,12.1875 c -0.11206,0.21021 -0.32227,0.33032 -0.54712,0.33032 -0.09741,0 -0.19483,-0.02272 -0.29224,-0.0747 -0.30029,-0.15747 -0.41309,-0.54053 -0.25562,-0.84009 0.16552,-0.30029 0.54052,-0.42041 0.84009,-0.25488 0.30762,0.16479 0.42041,0.53979 0.25489,0.83935 z m 0.07177,-58.24361 c 0.28601,0.18219 0.37317,0.56749 0.19061,0.8573 -0.11975,0.18649 -0.32299,0.28578 -0.52606,0.28578 -0.11609,0 -0.232,-0.02893 -0.33545,-0.09526 -0.29022,-0.18626 -0.37317,-0.57156 -0.18658,-0.8573 0.18201,-0.29004 0.56781,-0.37701 0.85748,-0.19052 z m -0.2611,-3.63661 c 0.24902,-0.23625 0.6427,-0.22797 0.88275,0.01639 0.23639,0.24449 0.23218,0.63785 -0.01667,0.87813 -0.11975,0.11609 -0.27759,0.17395 -0.43066,0.17395 -0.16187,0 -0.32739,-0.06211 -0.44751,-0.18626 -0.24041,-0.24857 -0.23218,-0.64216 0.01209,-0.88221 z m -0.56324,17.21003 c 0.02875,-0.02893 0.06189,-0.05379 0.09503,-0.07869 0.03314,-0.02083 0.07049,-0.04143 0.10766,-0.05379 0.03772,-0.01657 0.07892,-0.02911 0.11627,-0.0374 0.20306,-0.04148 0.4184,0.02485 0.55957,0.16988 0.11572,0.11591 0.18219,0.2775 0.18219,0.43909 0,0.16562 -0.06647,0.32299 -0.18219,0.43909 -0.02509,0.02888 -0.05823,0.05379 -0.09155,0.07864 -0.03314,0.02065 -0.07031,0.04147 -0.10748,0.05804 -0.03717,0.01236 -0.07892,0.02468 -0.11627,0.03296 -0.0412,0.0083 -0.0824,0.01254 -0.12012,0.01254 -0.16552,0 -0.32299,-0.06633 -0.44312,-0.18219 -0.02509,-0.02916 -0.05383,-0.0623 -0.07489,-0.09525 -0.02472,-0.03319 -0.0412,-0.07059 -0.05786,-0.10781 -0.01666,-0.03721 -0.02911,-0.07442 -0.03716,-0.11589 -0.0086,-0.0374 -0.01264,-0.07864 -0.01264,-0.12012 10e-6,-0.1616 0.06647,-0.32319 0.18256,-0.4391 z M 16.91212,36.09425 c -0.09119,0.25666 -0.33142,0.41419 -0.5885,0.41419 -0.06629,0 -0.13678,-0.01254 -0.20728,-0.0374 -0.32318,-0.11183 -0.49328,-0.46801 -0.37702,-0.79097 0.11609,-0.32726 0.47223,-0.49292 0.79559,-0.37702 0.32337,0.11183 0.48889,0.46802 0.37721,0.7912 z m -0.03736,7.95259 c 0.1117,0.32318 -0.06226,0.67932 -0.38562,0.79115 -0.06592,0.02065 -0.13678,0.03319 -0.20269,0.03319 -0.2569,0 -0.50152,-0.16159 -0.5885,-0.41844 -0.11206,-0.32299 0.06207,-0.67914 0.38525,-0.79102 0.32336,-0.11183 0.6795,0.06212 0.79156,0.38512 z m -1.13947,3.21835 c 0.19867,-0.04147 0.41437,0.02486 0.55921,0.16988 0.02912,0.02893 0.05383,0.06212 0.07453,0.09526 0.02509,0.03319 0.04156,0.0704 0.05823,0.10762 0.01648,0.0374 0.02875,0.07462 0.03717,0.11609 0.0082,0.04143 0.01264,0.07864 0.01264,0.12012 0,0.16562 -0.06647,0.323 -0.18256,0.43909 -0.11609,0.11586 -0.27759,0.18224 -0.43909,0.18224 -0.04156,0 -0.08295,-0.0043 -0.12012,-0.01254 -0.04175,-0.0083 -0.08295,-0.01662 -0.1203,-0.03319 -0.03717,-0.01639 -0.07031,-0.03722 -0.10363,-0.05786 -0.03717,-0.02083 -0.07031,-0.04971 -0.0954,-0.07864 -0.11627,-0.11609 -0.18219,-0.27346 -0.18219,-0.43909 0,-0.04148 0.0041,-0.07869 0.01227,-0.12012 0.0044,-0.04147 0.01648,-0.07869 0.03314,-0.11609 0.01648,-0.03722 0.03717,-0.07443 0.05823,-0.10762 0.02069,-0.03314 0.04981,-0.06633 0.07856,-0.09526 0.02509,-0.02893 0.05823,-0.05379 0.0954,-0.07462 0.03332,-0.0249 0.06646,-0.0455 0.10363,-0.05786 0.03734,-0.01657 0.07853,-0.02912 0.12028,-0.03741 z m -0.30011,42.51379 c -0.11279,0.21021 -0.323,0.32299 -0.54785,0.32299 -0.09741,0 -0.19483,-0.02272 -0.29224,-0.07544 -0.30029,-0.15747 -0.41235,-0.53247 -0.25488,-0.84009 0.1648,-0.29956 0.5398,-0.41235 0.84741,-0.25488 0.29956,0.16553 0.41235,0.54053 0.24756,0.84742 z m 4.43848,-12.29589 1.5586,1.12939 -0.31274,0.4314 -1.11329,-0.8064 -0.25268,0.34937 0.97046,0.70239 -0.31933,0.44238 -0.97046,-0.70239 -0.5105,0.70386 1.08252,0.78516 -0.31787,0.43799 -1.52783,-1.1067 z m -0.73389,14.28369 c 0.16553,-0.30762 0.54053,-0.41968 0.84741,-0.25488 0.30029,0.15747 0.41308,0.53979 0.24756,0.84009 -0.11206,0.20947 -0.32227,0.32959 -0.54712,0.32959 -0.09741,0 -0.20288,-0.03 -0.29297,-0.0747 -0.29956,-0.1648 -0.41235,-0.5398 -0.25488,-0.8401 z m 3.09302,-64.97146 c -0.12818,-0.31897 0.02929,-0.68339 0.34406,-0.80782 0.32336,-0.12822 0.6839,0.0249 0.81207,0.34383 0.12433,0.31897 -0.02893,0.68339 -0.3479,0.80777 -0.07489,0.03319 -0.15344,0.04555 -0.22778,0.04555 -0.24903,0 -0.48084,-0.14909 -0.58045,-0.38933 z m 4.74499,1.37929 c 0,0 0,0 0.004,0.004 -0.02472,0 -0.04578,0.0043 -0.06628,0.0043 -0.31494,0 -0.58448,-0.24028 -0.61762,-0.55925 -0.03717,-0.33957 0.21167,-0.64618 0.55115,-0.68339 h 0.0046 c 0.33948,-0.03314 0.64215,0.21542 0.67932,0.55499 0.03334,0.33976 -0.21129,0.64618 -0.55516,0.67932 z M 23.95032,6.80951 h 1.20996 l 2.27783,5.89966 H 25.88904 L 25.38367,11.36664 H 23.7262 l -0.52148,1.34253 h -1.5249 z m -2.69568,22.04447 c 0.29022,-0.18242 0.67144,-0.09123 0.854,0.19881 0.18201,0.29407 0.09101,0.67511 -0.19922,0.85735 -0.10364,0.06207 -0.21533,0.09118 -0.32739,0.09118 -0.20709,0 -0.40979,-0.10355 -0.53009,-0.29425 -0.17853,-0.28981 -0.09136,-0.67085 0.2027,-0.85309 z M 16.04676,6.80951 h 4.0188 V 8.22675 H 17.4801 v 0.50537 h 1.42529 v 1.42529 H 17.4801 v 2.55175 h -1.43335 z m -0.31147,24.62073 c 0.19464,-0.28153 0.58429,-0.3479 0.8659,-0.15331 0.28162,0.19473 0.34808,0.58003 0.15344,0.86581 -0.12012,0.1697 -0.31531,0.26495 -0.50995,0.26495 -0.12415,0 -0.24848,-0.03722 -0.35614,-0.11188 -0.28197,-0.1988 -0.35247,-0.58387 -0.15325,-0.86557 z m -0.09887,9.50995 c 0.33985,-0.0374 0.64618,0.21117 0.6839,0.55073 0.03717,0.33975 -0.21167,0.64618 -0.55115,0.68358 -0.02527,0.004 -0.04578,0.004 -0.06646,0.004 -0.31476,0 -0.58429,-0.23603 -0.61762,-0.55495 -0.03718,-0.34382 0.2113,-0.65044 0.55132,-0.68339 v -2e-5 z m -0.47736,4.15044 c 0.12012,0.31892 -0.04138,0.67932 -0.36072,0.79948 -0.07434,0.02893 -0.14887,0.04143 -0.21936,0.04143 -0.25287,0 -0.48925,-0.15326 -0.58429,-0.40182 -0.1203,-0.31897 0.0412,-0.67937 0.36053,-0.79948 0.31897,-0.1242 0.67951,0.0374 0.80384,0.36039 z M 13.93683,43.1895 c -0.03314,0.0083 -0.07086,0.0083 -0.10363,0.0083 -0.29864,0 -0.55975,-0.21135 -0.61359,-0.51773 -0.05786,-0.3398 0.17414,-0.65854 0.50995,-0.71255 0.33966,-0.06207 0.65899,0.16992 0.71686,0.50542 0.05786,0.3396 -0.17011,0.65852 -0.50959,0.71657 z m -0.56781,-6.37867 c 0.07453,-0.33554 0.40594,-0.54689 0.74176,-0.47227 0.33563,0.07462 0.54675,0.4059 0.47223,0.73718 -0.06629,0.29004 -0.32336,0.48884 -0.60498,0.48884 -0.04578,0 -0.09101,-0.004 -0.13678,-0.01231 -0.33545,-0.07466 -0.54712,-0.40594 -0.47223,-0.74144 z m 0.27759,2.32361 c 0.34406,0.004 0.61304,0.29 0.60901,0.63364 -0.0081,0.33975 -0.28601,0.6047 -0.62146,0.6047 -0.004,0 -0.01264,0 -0.01667,0 -0.34406,-0.008 -0.61304,-0.29407 -0.60498,-0.63364 0.0081,-0.34382 0.29425,-0.61706 0.6341,-0.6047 z m -0.45337,36.35939 c 0.20508,0 0.40576,0.04103 0.5896,0.11792 0.18384,0.07764 0.3523,0.18823 0.49145,0.33105 l 0.07764,0.07764 -0.40429,0.3567 -0.06885,-0.06518 c -0.17725,-0.18017 -0.41894,-0.27392 -0.68408,-0.27392 -0.54052,0.0015 -0.97778,0.43945 -0.97705,0.97924 0.0014,0.5442 0.43872,0.98584 0.97925,0.98511 0.27392,0 0.52295,-0.1106 0.71631,-0.30835 l -0.0015,-0.60498 H 13.1141 l -7.4e-4,-0.54272 1.33448,-0.0022 0.0014,1.3418 -0.02124,0.0249 c -0.2937,0.39697 -0.7522,0.63135 -1.23047,0.63208 -0.83862,7.3e-4 -1.52344,-0.68188 -1.52417,-1.52417 -7.2e-4,-0.8401 0.68189,-1.52346 1.51979,-1.52492 z m -0.0835,12.70312 c 0,0.16479 -0.06006,0.32227 -0.17945,0.43506 -0.06006,0.06007 -0.12817,0.10474 -0.20288,0.14209 -0.07471,0.03 -0.15747,0.04538 -0.24023,0.04538 -0.08204,0 -0.15747,-0.01538 -0.23218,-0.04538 -0.07471,-0.03735 -0.14282,-0.08204 -0.20288,-0.14209 -0.05933,-0.05272 -0.10474,-0.12012 -0.13477,-0.19556 -0.03003,-0.0747 -0.05273,-0.15747 -0.05273,-0.23951 0,-0.16479 0.06812,-0.32299 0.1875,-0.44238 0.22558,-0.22559 0.64526,-0.22559 0.87817,0 0.05933,0.06008 0.10474,0.12744 0.13477,0.20215 0.03003,0.07544 0.04468,0.15747 0.04468,0.24024 z m -2.73193,-12.31421 0.69434,2.83228 -0.53247,0.13037 -0.69433,-2.83154 z m -2.97437,1.07081 c 0.17651,-0.08789 0.375,-0.10108 0.56836,-0.0366 0.19263,0.06375 0.34497,0.19336 0.43286,0.36987 0.13037,0.25928 0.09375,0.57203 -0.0791,0.79468 l 1.64136,0.85181 -0.57861,0.29004 -1.56665,-0.81152 -0.208,0.10548 0.63867,1.27441 -0.4768,0.23951 L 6.46889,77.4216 Z M 5.45227,78.13422 5.81042,78.53852 5.2743,79.0146 6.85047,80.79146 6.44104,81.1562 4.86413,79.37861 4.32727,79.85469 3.96765,79.44966 Z m -0.20544,31.42556 c 4.3559,-4.35594 11.41828,-4.35594 15.77435,0 3.5539,3.55403 4.20556,8.90872 1.96015,13.12614 0.77326,1.07698 1.22021,2.37877 1.22021,3.75591 v 14.8462 c 0,0.31055 -0.25196,0.5625 -0.5625,0.5625 -0.31055,0 -0.5625,-0.25195 -0.5625,-0.5625 v -14.8462 c 0,-0.97101 -0.26422,-1.90004 -0.73846,-2.7047 -0.38434,0.56117 -0.81848,1.09854 -1.31689,1.59695 -4.35608,4.356 -11.41846,4.356 -15.77435,0 -4.35609,-4.35594 -4.35609,-11.41836 -10e-6,-15.7743 z m -0.45373,72.55857 -2.34595,-1.74097 1.14624,-1.54614 0.4292,0.3186 -0.81958,1.10449 0.34643,0.25562 0.71411,-0.96167 0.43726,0.32593 -0.71338,0.96167 0.69873,0.51782 0.79688,-1.07373 0.43506,0.323 z m 2.2932,-2.52759 -2.6521,-1.6604 0.47241,-0.35376 1.84863,1.16235 -0.59107,-2.10352 0.46875,-0.35083 0.85108,3.00879 z m 1.73218,-1.13159 -1.05175,-2.72241 1.79297,-0.6936 0.19263,0.49731 -1.28174,0.49585 0.15527,0.40137 1.11694,-0.43213 0.19629,0.5083 -1.11621,0.43213 0.31348,0.81079 1.24585,-0.48193 0.19556,0.50464 z m 2.39795,-0.84302 -0.22193,-2.90479 0.53101,-0.0403 1.42969,1.80322 -0.14502,-1.90137 0.54639,-0.0418 0.22266,2.90479 -0.52735,0.0403 -1.43408,-1.80688 0.14502,1.90503 z m 1.52564,10.37329 c -0.20069,0 -0.39478,-0.10767 -0.49658,-0.29663 -0.14648,-0.27393 -0.04394,-0.6145 0.22998,-0.76172 l 7.79224,-4.1792 c 1.73291,-0.92871 2.80884,-2.72754 2.80884,-4.69409 v -1.96069 c 0,-0.31055 0.25196,-0.5625 0.5625,-0.5625 0.31054,0 0.5625,0.25195 0.5625,0.5625 v 1.96069 c 0,2.38184 -1.30371,4.56079 -3.4021,5.68579 l -7.79224,4.1792 c -0.08497,0.0454 -0.17579,0.0667 -0.26514,0.0667 z m 5.57885,58.1118 c 0.80127,0.25049 1.24585,1.10596 0.9939,1.91089 -0.25122,0.80054 -1.10376,1.24951 -1.90429,0.99902 -0.80493,-0.25195 -1.25318,-1.10815 -1.00196,-1.90869 0.25122,-0.80493 1.10816,-1.25244 1.91235,-1.00122 z m -2.38696,5.64112 0.96533,-0.022 -0.02563,-1.18286 -0.96533,0.0227 -0.01172,-0.54932 2.91284,-0.063 0.01172,0.54785 -1.41138,0.0308 0.02563,1.18213 1.41138,-0.0308 0.01172,0.54932 -2.91284,0.063 z m 3.36987,3.40136 c -0.08496,0.18091 -0.20361,0.33911 -0.35302,0.46875 -0.15235,0.13843 -0.32373,0.2417 -0.52148,0.30908 -0.79248,0.27394 -1.6626,-0.15308 -1.93652,-0.94629 -0.0769,-0.22485 -0.10034,-0.46729 -0.06738,-0.69873 0.02857,-0.23071 0.11719,-0.46143 0.25048,-0.65332 l 0.05567,-0.0894 0.44971,0.30908 -0.0586,0.0842 c -0.17579,0.25562 -0.21827,0.57349 -0.11426,0.87085 0.17505,0.5105 0.73315,0.78516 1.24365,0.60938 0.51416,-0.17725 0.78808,-0.73975 0.61231,-1.24951 -0.10108,-0.29443 -0.33032,-0.51855 -0.62696,-0.6145 l -0.09448,-0.0329 0.1604,-0.51343 0.09814,0.0344 c 0.22852,0.0725 0.43066,0.19409 0.60058,0.36035 0.16846,0.1626 0.2959,0.36548 0.3728,0.59033 0.06592,0.19336 0.09301,0.39551 0.08056,0.59912 -0.01391,0.19482 -0.06518,0.38599 -0.15161,0.5625 z m 0.86207,-9.15747 -2.47485,-1.54834 0.2915,-0.46582 2.47412,1.54907 z m 1.23412,-1.7915 c -0.18311,0.0703 -0.3772,0.10547 -0.57422,0.10327 -0.20069,0 -0.39404,-0.0403 -0.57422,-0.12085 -0.19043,-0.0784 -0.35742,-0.19116 -0.50244,-0.33984 -0.58667,-0.60132 -0.56983,-1.57178 0.03076,-2.15698 0.16992,-0.16626 0.38013,-0.29077 0.60352,-0.36035 0.22193,-0.0725 0.46801,-0.0894 0.69946,-0.052 l 0.104,0.0139 -0.08789,0.53687 -0.10108,-0.0154 c -0.30688,-0.0505 -0.61157,0.0469 -0.83789,0.2666 -0.38745,0.37793 -0.39917,0.99976 -0.02124,1.38721 0.38013,0.38965 1.00562,0.39844 1.39234,0.0212 0.22266,-0.2168 0.32886,-0.52002 0.28931,-0.83057 l -0.01025,-0.0981 0.53393,-0.074 0.01025,0.104 c 0.03149,0.23804 0.0081,0.47241 -0.07031,0.69727 -0.07471,0.22266 -0.20581,0.42261 -0.37573,0.58887 -0.14647,0.14282 -0.31932,0.25269 -0.50829,0.32886 v -6e-5 z m 13.51338,34.90507 c 0,1.32858 -1.07703,2.40561 -2.40546,2.40561 h -7.84973 c -1.32861,0 -2.40564,-1.07703 -2.40564,-2.40561 v -23.49857 c 0,-1.32857 1.07703,-2.40559 2.40564,-2.40559 h 7.84973 c 1.32843,0 2.40546,1.07703 2.40546,2.40559 z m 0.01519,-35.63603 2.07129,-2.04932 1.34985,1.36523 -0.37793,0.37354 -0.9646,-0.97485 -0.30542,0.30176 0.84009,0.84961 -0.38599,0.38306 -0.84082,-0.84961 -0.6167,0.61011 0.93823,0.94849 -0.38452,0.38013 z m 1.69409,1.87354 2.52686,-1.45605 0.52148,0.90527 c 0.09961,0.17432 0.12671,0.375 0.07471,0.57129 -0.05566,0.19263 -0.17432,0.35522 -0.34717,0.45557 -0.35889,0.20654 -0.81665,0.0776 -1.02246,-0.28052 l -0.24902,-0.43359 -1.23193,0.70972 z m 1.24512,2.58252 2.27783,-0.66357 -0.19922,-0.68848 0.51856,-0.15015 0.55371,1.90063 -0.51855,0.15088 -0.20068,-0.68701 -2.27929,0.66357 z m 0.47754,4.02246 -0.0074,-0.54858 1.41211,-0.019 -0.01538,-1.18286 -1.41284,0.019 -0.0074,-0.54932 2.91504,-0.0388 0.0073,0.54932 -0.9668,0.0125 0.01685,1.18359 0.96607,-0.0132 0.0074,0.54785 z m 5.27417,-56.22948 c -0.1018,0.18896 -0.2959,0.29663 -0.49658,0.29663 -0.08936,0 -0.18017,-0.0212 -0.26514,-0.0667 l -7.37915,-3.95728 c -2.09839,-1.12646 -3.4021,-3.30469 -3.4021,-5.68579 l 0.02783,-10.2041 c 7.4e-4,-0.31055 0.25268,-0.56104 0.5625,-0.56104 7.4e-4,0 7.4e-4,0 0.0014,0 0.31055,7.3e-4 0.56177,0.25342 0.56104,0.56396 l -0.02783,10.20264 c 0,1.96436 1.07666,3.76318 2.80884,4.69263 l 7.37915,3.95728 c 0.27393,0.14722 0.37646,0.48779 0.22998,0.76172 z m -7.18286,-9.87744 1.00048,-0.65991 0.29956,0.45703 -0.99976,0.65845 0.47828,0.72583 1.11767,-0.73608 0.2981,0.45337 -1.5769,1.03784 -1.60693,-2.4397 1.60693,-1.05835 0.2937,0.44458 -1.14917,0.75732 z m 1.72925,-2.12622 0.5647,-0.17065 1.3374,1.72412 0.16552,-2.17822 0.56177,-0.16846 -0.23291,3.11792 -0.47461,0.14355 z m 3.92432,2.00464 -0.05566,-2.9187 1.92334,-0.0366 0.0095,0.5332 -1.37256,0.0264 0.0074,0.43066 1.19751,-0.0234 0.01025,0.54565 -1.19678,0.0227 0.01685,0.86865 1.33521,-0.0249 0.01099,0.54053 z m -9.2937,-11.48584 c -0.0542,0.0161 -0.1084,0.0234 -0.16113,0.0234 -0.24243,0 -0.46582,-0.15747 -0.53906,-0.40137 -0.08862,-0.2981 0.08057,-0.61157 0.37793,-0.7002 6.33545,-1.89111 10.76001,-7.83398 10.76001,-14.45288 0,-6.6189 -4.42456,-12.56177 -10.76001,-14.45288 -0.29736,-0.0886 -0.46655,-0.4021 -0.37793,-0.7002 0.08936,-0.29736 0.39698,-0.46875 0.70019,-0.37793 6.80786,2.03247 11.56274,8.41919 11.56274,15.53101 0,7.11182 -4.75489,13.49854 -11.56274,15.53101 z m 14.11596,12.15673 -0.50757,-0.14282 -0.72876,-2.18921 -0.51709,1.83911 -0.52734,-0.14722 0.78662,-2.80518 0.51343,0.14429 0.72437,2.18335 0.51636,-1.83545 0.52735,0.14795 z m 1.62011,0.9419 -0.46655,-0.29077 1.26123,-2.01782 -0.60864,-0.38013 0.28711,-0.4585 1.68384,1.05249 -0.28784,0.45923 -0.60864,-0.38086 z m 3.68702,0.531 -0.0059,-0.10181 c -0.02417,-0.34204 -0.14502,-0.54346 -0.2461,-0.65039 -0.06445,-0.0688 -0.1377,-0.11792 -0.2124,-0.14941 -0.11719,-0.0469 -0.23951,-0.0329 -0.31055,0.0344 -0.06592,0.0615 -0.08569,0.12451 -0.07104,0.21826 0.01391,0.093 0.06665,0.20654 0.16479,0.3728 0.01465,0.0198 0.03003,0.0498 0.04688,0.0798 0.09375,0.14722 0.21533,0.3479 0.25562,0.52881 0.04174,0.15234 0.03955,0.30029 0.0037,0.43433 -0.03589,0.13623 -0.11279,0.25708 -0.22046,0.35815 -0.13403,0.12671 -0.28711,0.20288 -0.4563,0.22632 -0.14502,0.0183 -0.30688,-0.004 -0.48048,-0.0703 -0.15235,-0.0535 -0.28491,-0.14795 -0.42334,-0.29443 -0.06372,-0.0681 -0.12232,-0.14795 -0.17725,-0.2373 -0.1626,-0.26367 -0.25708,-0.57861 -0.26954,-0.92065 l -0.0022,-0.10474 0.54492,-0.0169 0.0022,0.10327 c 0.01025,0.24976 0.07251,0.47827 0.18311,0.65552 l 0.0022,0.003 c 0.03296,0.0527 0.06885,0.104 0.11133,0.14868 0.06958,0.074 0.14868,0.12891 0.22924,0.15967 0.09741,0.0447 0.24097,0.0667 0.36329,-0.049 0.06665,-0.0615 0.08642,-0.14209 0.06298,-0.24976 -0.02783,-0.1311 -0.10693,-0.26953 -0.16699,-0.36475 -0.02857,-0.0418 -0.25122,-0.4043 -0.30615,-0.61743 -0.03003,-0.14575 -0.0249,-0.28491 0.01099,-0.41455 0.03882,-0.1311 0.11206,-0.24536 0.2168,-0.34277 0.11353,-0.10693 0.26001,-0.17725 0.42847,-0.20728 0.14941,-0.0161 0.30396,0.007 0.4563,0.0667 0.15161,0.0601 0.29078,0.15381 0.41089,0.28271 0.04834,0.0513 0.09229,0.10986 0.13696,0.16846 0.14868,0.23145 0.24171,0.50977 0.25854,0.81445 l 0.0044,0.10107 z m -1.27698,-54.27351 c -4.35608,4.35599 -11.41846,4.35599 -15.77435,0 -0.46235,-0.4623 -0.86481,-0.96039 -1.22882,-1.47716 -0.47369,0.80415 -0.73792,1.73213 -0.73792,2.70209 v 6.479 c 0,0.31055 -0.25196,0.5625 -0.5625,0.5625 -0.31055,0 -0.5625,-0.25195 -0.5625,-0.5625 v -6.479 c 0,-1.37013 0.44329,-2.66583 1.20996,-3.7402 -2.3324,-4.23757 -1.71039,-9.66692 1.88177,-13.25904 4.3559,-4.35594 11.41827,-4.35594 15.77435,0 4.35591,4.35594 4.35591,11.41837 1e-5,15.77431 z"
   style="fill:#252626" />
		<path
   id="path95"
   inkscape:connector-curvature="0"
   d="m 31.51917,74.3974 c -0.10766,0.05054 -0.15088,0.17944 -0.10254,0.28345 l 0.21899,0.46289 0.38453,-0.18164 -0.21753,-0.46216 C 31.75428,74.39666 31.6261,74.34686 31.51917,74.3974 Z"
   style="fill:#252626" />
	</g>
	<g
   id="g129">
		<path
   id="path127"
   inkscape:connector-curvature="0"
   d="m 31.46774,272.58524 c -0.0857,0.1976 -0.19937,0.36075 -0.34102,0.4892 -0.14182,0.12845 -0.30301,0.22382 -0.48425,0.28665 -0.18142,0.0626 -0.37075,0.0937 -0.56836,0.0937 -0.33609,0 -0.59792,-0.0493 -0.78568,-0.14813 -0.18776,-0.0989 -0.33451,-0.21414 -0.43974,-0.34595 -0.11226,-0.14499 -0.183,-0.30637 -0.21256,-0.48425 -0.02974,-0.17789 -0.04452,-0.3558 -0.04452,-0.53369 0,-0.25058 0.0051,-0.4234 0.01478,-0.51892 0.01003,-0.0957 0.02129,-0.14993 0.03466,-0.16312 0.02622,-0.0199 0.13496,-0.0296 0.32606,-0.0296 h 2.31287 c 0.06581,0 0.12018,0.005 0.16312,0.0148 0.04259,0.01 0.07566,0.0361 0.09871,0.079 0.02305,0.0428 0.03783,0.10699 0.04452,0.19269 0.0065,0.0857 0.01003,0.20428 0.01003,0.3558 0,0.27679 -0.04311,0.51416 -0.12863,0.71176 m -3.9926,-9.61625 c 0.0088,-0.0621 0.03555,-0.11121 0.08024,-0.14694 0.04451,-0.0355 0.1156,-0.0579 0.21379,-0.0668 0.09801,-0.009 0.23614,-0.0133 0.41439,-0.0133 0.69506,0 1.22753,0.19373 1.59739,0.58139 0.36971,0.38763 0.55481,0.90692 0.55481,1.55743 0,0.0616 -0.01284,0.19446 -0.02094,0.28561 -0.0512,-7e-4 -0.10241,-0.002 -0.15361,-0.002 -0.14024,-0.003 -0.29263,-0.0107 -0.45715,-0.0229 -0.0366,0.0183 -0.05631,0.0533 -0.05947,0.10507 -0.003,0.0519 0.01056,0.0931 0.04136,0.1235 l 0.16435,0.0183 c 0.1098,0.0122 0.20113,0.032 0.27433,0.0593 0.07321,0.0275 0.1098,0.0565 0.1098,0.0869 0,0.0305 -0.0183,0.0869 -0.0549,0.16913 -0.0366,0.0823 -0.08534,0.1814 -0.14623,0.29703 -0.06107,0.11594 -0.1267,0.23947 -0.19655,0.37039 -0.07022,0.1311 -0.13585,0.25461 -0.19673,0.37021 -0.14024,0.26837 -0.2833,0.53177 -0.4297,0.7908 -0.14623,0.25919 -0.28946,0.51065 -0.42953,0.75433 -0.17702,-0.31689 -0.3507,-0.64911 -0.5212,-0.99646 -0.17068,-0.34753 -0.34137,-0.69171 -0.51205,-1.03326 -0.01231,-0.0243 -0.03343,-0.0698 -0.06388,-0.13708 -0.03062,-0.0669 -0.06264,-0.13849 -0.09608,-0.21484 -0.03361,-0.0762 -0.06264,-0.14761 -0.08692,-0.21484 -0.02446,-0.067 -0.03643,-0.11279 -0.03643,-0.13708 0,-0.0366 0.02411,-0.0655 0.07302,-0.0869 0.04874,-0.0213 0.15239,-0.0472 0.31094,-0.0776 l 0.11877,-0.0183 c 0.03044,-0.0304 0.04417,-0.0732 0.04118,-0.12811 -0.0032,-0.0548 -0.02605,-0.0883 -0.06845,-0.10046 -0.12986,0.0102 -0.28911,0.0176 -0.47791,0.022 v -1.93982 c 2e-5,-0.10699 0.0044,-0.19162 0.01339,-0.25409 m 0.75697,6.84375 c 0,0.24387 -0.0032,0.43887 -0.0092,0.58508 -0.0061,0.14621 -0.02744,0.26059 -0.06405,0.34277 -0.01302,0.0296 -0.02851,0.0556 -0.04628,0.0783 -3.5e-4,1.5e-4 -9e-4,5.2e-4 -0.0012,7e-4 -0.10646,-0.0204 -0.1962,-0.044 -0.2687,-0.0709 -0.12036,-0.0446 -0.20711,-0.12476 -0.2606,-0.24054 -0.05349,-0.11578 -0.08692,-0.27838 -0.1003,-0.48795 -0.01337,-0.20923 -0.02006,-0.48795 -0.02006,-0.8353 v -1.90338 l 0.47791,0.93118 c 0.06687,0.12808 0.12018,0.2363 0.15995,0.32465 0.03959,0.0885 0.06845,0.17068 0.08675,0.24689 0.01829,0.0763 0.03044,0.15695 0.03659,0.24228 0.006,0.0854 0.0092,0.19199 0.0092,0.31992 v 0.46631 z m 3.7732,1.13055 c 0.03959,-0.10977 0.079,-0.22696 0.11877,-0.35193 0.0396,-0.12491 0.07619,-0.24686 0.1098,-0.36581 0.03343,-0.11877 0.0593,-0.21783 0.07778,-0.29721 -0.01848,-0.0424 -0.0535,-0.0698 -0.10523,-0.0822 -0.05191,-0.0121 -0.0929,-0.006 -0.12352,0.0183 -0.12194,0.23755 -0.23914,0.43271 -0.35193,0.58508 -0.11279,0.15256 -0.21185,0.25302 -0.29702,0.30179 -0.04892,0.0244 -0.10523,0.0456 -0.16928,0.0638 -0.06388,0.0183 -0.14024,0.032 -0.22858,0.0412 -0.08833,0.009 -0.19497,0.0169 -0.3199,0.0229 -0.12494,0.006 -0.27591,0.009 -0.45258,0.009 -0.20113,0 -0.36724,-0.006 -0.49833,-0.0183 -0.13109,-0.0122 -0.23615,-0.0274 -0.31532,-0.0456 -0.07936,-0.0185 -0.14182,-0.0398 -0.1874,-0.064 -0.04575,-0.0243 -0.08095,-0.0518 -0.10523,-0.0824 -0.0732,-0.0792 -0.12036,-0.19653 -0.14165,-0.35193 -0.02147,-0.15555 -0.03203,-0.35507 -0.03203,-0.59897 v -0.60336 c 0.0014,-0.0836 0.0039,-0.1575 0.0074,-0.22086 0.006,-0.11261 0.0227,-0.21783 0.05015,-0.31534 0.02744,-0.0975 0.07003,-0.20129 0.1281,-0.31091 0.01373,-0.0263 0.02921,-0.0545 0.04558,-0.0843 0.022,-7e-4 0.04486,-7.6e-4 0.07039,-7.6e-4 h 0.53031 c 0.17666,0 0.32149,0.003 0.43427,0.009 0.11261,0.006 0.20254,0.0182 0.26975,0.0364 0.09133,0.0244 0.15679,0.0672 0.19655,0.12811 0.03959,0.0609 0.06845,0.13406 0.08693,0.21942 l 0.08217,0.35651 c 0.02428,0.0306 0.06546,0.0442 0.12335,0.0412 0.05788,-0.003 0.09608,-0.0197 0.11437,-0.0503 0,-0.10364 -0.0062,-0.23456 -0.0183,-0.3931 -0.01231,-0.15854 -0.0183,-0.32007 -0.0183,-0.48462 0,-0.17664 0.006,-0.34735 0.0183,-0.51187 0.01214,-0.1647 0.0183,-0.30179 0.0183,-0.41156 -0.0183,-0.0302 -0.05649,-0.0472 -0.11437,-0.0504 -0.05789,-0.003 -0.09908,0.0107 -0.12335,0.0412 l -0.07303,0.37497 c -0.02446,0.11578 -0.05349,0.19357 -0.08692,0.23315 -0.03362,0.0396 -0.07777,0.0685 -0.1325,0.0868 -0.0549,0.0183 -0.14956,0.032 -0.28348,0.0412 -0.13426,0.009 -0.29879,0.0137 -0.49376,0.0137 h -0.41317 c 0.0032,-0.005 0.006,-0.01 0.0092,-0.0152 l 0.57593,-0.99646 c 0.11561,-0.19513 0.22084,-0.37637 0.3155,-0.5441 0.09432,-0.16751 0.1874,-0.31549 0.27872,-0.44339 0.09151,-0.12793 0.18582,-0.2316 0.28348,-0.31076 0.02024,-0.0164 0.041,-0.0311 0.0623,-0.0451 0.06194,0.0246 0.11648,0.0536 0.16347,0.0876 0.07619,0.0548 0.13848,0.1188 0.1874,0.19199 0.04874,0.0731 0.08833,0.15536 0.11895,0.2467 0.03026,0.0915 0.06388,0.19217 0.10048,0.30176 0.02428,0.0306 0.06405,0.0428 0.11895,0.0366 0.05473,-0.006 0.09133,-0.0243 0.10962,-0.0549 -0.01232,-0.0975 -0.02287,-0.20868 -0.03185,-0.33362 -0.0093,-0.12494 -0.02006,-0.24689 -0.0322,-0.36566 -0.01214,-0.11893 -0.02815,-0.22504 -0.041,-0.32007 -0.03185,-0.23511 -0.02464,-0.43588 -0.02464,-0.43588 0,-0.46313 -0.13144,-0.86801 -0.33204,-1.20694 -0.20042,-0.33853 -0.4568,-0.6058 -0.76861,-0.80185 -0.31198,-0.19601 -0.67729,-0.33414 -1.09607,-0.4144 -0.41897,-0.0802 -0.90903,-0.12033 -1.47035,-0.12033 -0.5615,0 -1.05402,0.007 -1.47703,0.02 -0.42337,0.0133 -0.81331,0.0424 -1.1698,0.0869 -0.05332,0.0268 -0.08236,0.0781 -0.08675,0.15363 -0.0046,0.0758 0.01531,0.13602 0.06018,0.18054 l 0.48109,0.0535 c 0.1515,0.018 0.2694,0.0468 0.35439,0.0869 0.08447,0.04 0.14693,0.11349 0.18705,0.22049 0.04012,0.107 0.06458,0.24951 0.07355,0.42776 0.0088,0.17825 0.01337,0.41 0.01337,0.69507 v 4.93259 c 0,0.34735 -0.0046,0.6261 -0.01337,0.83533 -0.009,0.20956 -0.04012,0.37216 -0.09361,0.48795 -0.05349,0.11575 -0.13373,0.19601 -0.24054,0.24054 -0.10699,0.0447 -0.25867,0.0802 -0.45451,0.10696 l -0.28084,0.0401 c -0.04065,0.0406 -0.05878,0.0962 -0.0549,0.16629 -3.5e-4,0.14307 -0.002,0.18845 -0.005,0.34964 -0.0032,0.18457 -0.01162,0.39081 -0.02516,0.61905 0.01355,0.0336 0.05192,0.0537 0.11579,0.0605 0.0637,0.007 0.10909,-0.007 0.13602,-0.0403 l 0.03009,-0.21152 c 0.02024,-0.14761 0.04698,-0.26166 0.0806,-0.34207 0.03361,-0.0806 0.09396,-0.14096 0.18124,-0.18124 0.0871,-0.0403 0.20957,-0.064 0.36742,-0.0707 0.15767,-0.007 0.36741,-0.01 0.62924,-0.01 h 1.26835 c 0.05367,0 0.09572,0.003 0.12599,0.01 0.03009,0.007 0.05191,0.0254 0.06528,0.0556 0.01337,0.0301 0.02182,0.0771 0.02533,0.14075 0.0031,0.0639 0.005,0.15259 0.005,0.26678 0,0.20148 -0.02516,0.35245 -0.07549,0.45309 -0.05033,0.10064 -0.1325,0.18793 -0.24671,0.26184 -0.11419,0.0806 -0.24001,0.16434 -0.37744,0.25162 -0.13778,0.0871 -0.27538,0.17438 -0.41282,0.26166 -0.1376,0.0873 -0.27011,0.1712 -0.39767,0.25183 -0.12758,0.0804 -0.23825,0.1543 -0.33222,0.22134 -0.25515,0.18124 -0.4649,0.35068 -0.62925,0.50851 -0.16435,0.15768 -0.2935,0.31711 -0.38747,0.47809 -0.09414,0.16104 -0.15943,0.33047 -0.19637,0.50839 -0.03677,0.17789 -0.05525,0.37408 -0.05525,0.58896 0,0.19458 0.01672,0.34241 0.05015,0.44287 0.02024,0.0269 0.0454,0.0387 0.07566,0.0353 0.03009,-0.004 0.05191,-0.0187 0.06546,-0.0453 0.01319,-0.13428 0.04523,-0.26166 0.09555,-0.38239 0.05033,-0.12088 0.11227,-0.22504 0.18634,-0.31213 0.14095,-0.17456 0.3002,-0.33893 0.47809,-0.49344 0.17772,-0.1543 0.3741,-0.31195 0.58894,-0.47314 0.21468,-0.16101 0.45628,-0.32712 0.7248,-0.49814 0.26834,-0.1712 0.56378,-0.35757 0.88598,-0.55887 0.04029,-0.0269 0.082,-0.0488 0.12581,-0.0655 0.04346,-0.0169 0.08217,-0.0118 0.11578,0.0152 0.04681,0.12738 0.11737,0.2634 0.21133,0.40768 0.09396,0.14429 0.20975,0.28033 0.34735,0.4079 0.13761,0.12741 0.29861,0.23297 0.48319,0.31711 0.18459,0.0837 0.39768,0.12579 0.63928,0.12579 0.3558,0 0.64772,-0.079 0.87595,-0.23666 0.22805,-0.15765 0.40594,-0.35739 0.53352,-0.599 0.1274,-0.23489 0.20975,-0.49496 0.24671,-0.78003 0.03677,-0.2854 0.05666,-0.58578 0.05525,-0.90128 -0.0025,-0.58456 0.10275,-0.95654 0.10275,-0.95654"
   style="fill:#252626" />
	</g>
</g>
<g
   id="serigraphy"
   transform="matrix(1.3349605,0,0,1.3349605,-1.6019526e-4,-0.38422833)">
	<g
   id="g280">
		<path
   id="path132"
   inkscape:connector-curvature="0"
   d="m 20.87268,141.79193 c -0.22558,-0.0974 -0.49512,-0.0374 -0.67529,0.13477 -0.06006,0.0601 -0.10474,0.12744 -0.13477,0.20288 -0.03003,0.0747 -0.04541,0.15747 -0.04541,0.2395 0,0.0754 0.01538,0.15747 0.04541,0.23291 0.03003,0.0747 0.07471,0.14209 0.13477,0.20215 0.06006,0.0601 0.12744,0.10547 0.20288,0.1355 0.07471,0.03 0.15747,0.0447 0.2395,0.0447 0.08276,0 0.15747,-0.0146 0.23291,-0.0447 0.07471,-0.03 0.14209,-0.0754 0.20215,-0.1355 0.06006,-0.0601 0.10547,-0.12744 0.13477,-0.20215 0.03808,-0.0754 0.05273,-0.15747 0.05273,-0.23291 0,-0.082 -0.01465,-0.16479 -0.05273,-0.2395 -0.0293,-0.0754 -0.07471,-0.14282 -0.13477,-0.20288 -0.06005,-0.0601 -0.12012,-0.10474 -0.20215,-0.13477 z"
   style="fill:#e5e5e5" />
		<circle
   id="circle134"
   cx="20.639771"
   cy="136.75946"
   r="0.62256002"
   style="fill:#e5e5e5" />
		<path
   id="path136"
   inkscape:connector-curvature="0"
   d="m 20.63977,130.53461 c -0.34497,0 -0.62256,0.27686 -0.62256,0.62256 0,0.33691 0.27759,0.6145 0.62256,0.6145 0.33765,0 0.62256,-0.27759 0.62256,-0.6145 0,-0.34571 -0.28491,-0.62256 -0.62256,-0.62256 z"
   style="fill:#e5e5e5" />
		<circle
   id="circle138"
   cx="20.639771"
   cy="128.35199"
   r="0.62256002"
   style="fill:#e5e5e5" />
		<path
   id="path140"
   inkscape:connector-curvature="0"
   d="m 20.63977,138.94208 c -0.34497,0 -0.62256,0.27759 -0.62256,0.62256 0,0.33691 0.27759,0.62183 0.62256,0.62183 0.33765,0 0.62256,-0.28491 0.62256,-0.62183 0,-0.34499 -0.28491,-0.62256 -0.62256,-0.62256 z"
   style="fill:#e5e5e5" />
		<circle
   id="circle142"
   cx="20.639771"
   cy="133.95428"
   r="0.62256002"
   style="fill:#e5e5e5" />
		<path
   id="path144"
   inkscape:connector-curvature="0"
   d="m 1.91247,17.02166 c -0.11279,0.12012 -0.18017,0.27759 -0.18017,0.44238 0,0.16553 0.06006,0.323 0.18017,0.43506 0.12012,0.12012 0.27026,0.1875 0.44238,0.1875 0.1648,0 0.32227,-0.06738 0.43506,-0.1875 0.12012,-0.11206 0.1875,-0.26954 0.1875,-0.43506 0,-0.1648 -0.06738,-0.32227 -0.1875,-0.44238 -0.23217,-0.23217 -0.64525,-0.23217 -0.87744,0 z"
   style="fill:#e5e5e5" />
		<path
   id="path146"
   inkscape:connector-curvature="0"
   d="M 6.03747,17.02166 C 5.98474,16.9616 5.91735,16.91692 5.83459,16.88689 5.60974,16.7968 5.33215,16.84954 5.16003,17.02166 c -0.11279,0.11279 -0.18017,0.27759 -0.18017,0.44238 0,0.16553 0.06738,0.323 0.18017,0.43506 0.06006,0.06006 0.12744,0.10547 0.20215,0.13549 0.07544,0.03736 0.15748,0.05201 0.24024,0.05201 0.1648,0 0.32227,-0.06738 0.43506,-0.1875 0.12012,-0.12012 0.1875,-0.26954 0.1875,-0.43506 0,-0.08204 -0.01538,-0.1648 -0.05273,-0.2395 C 6.14221,17.1491 6.09753,17.08172 6.03747,17.02166 Z"
   style="fill:#e5e5e5" />
		<path
   id="path148"
   inkscape:connector-curvature="0"
   d="m 51.26233,17.8991 c 0.06006,-0.06006 0.10548,-0.12744 0.13477,-0.20215 0.03809,-0.07544 0.05273,-0.15015 0.05273,-0.23291 0,-0.1648 -0.06738,-0.32959 -0.1875,-0.44238 -0.17212,-0.17212 -0.44971,-0.22485 -0.67455,-0.13477 -0.07545,0.03003 -0.14282,0.07471 -0.20288,0.13477 -0.11279,0.11279 -0.18017,0.27759 -0.18017,0.44238 0,0.08276 0.01538,0.15747 0.04541,0.23291 0.03003,0.07471 0.08204,0.14209 0.13477,0.20215 0.06006,0.06006 0.12744,0.10547 0.20288,0.13549 0.07471,0.03003 0.15747,0.04468 0.23951,0.04468 0.1655,10e-6 0.32298,-0.06005 0.43503,-0.18017 z"
   style="fill:#e5e5e5" />
		<path
   id="path150"
   inkscape:connector-curvature="0"
   d="m 54.65271,17.22454 c -0.03809,-0.07544 -0.08276,-0.14282 -0.13549,-0.20288 -0.06006,-0.06006 -0.12744,-0.09741 -0.20215,-0.13477 -0.15015,-0.06006 -0.32227,-0.06006 -0.48048,0 -0.07471,0.03003 -0.14209,0.08276 -0.20215,0.13477 -0.05273,0.06006 -0.09741,0.12744 -0.13477,0.20288 -0.03003,0.07471 -0.04541,0.15747 -0.04541,0.23951 0,0.08276 0.01538,0.15747 0.04541,0.23291 0.03735,0.07471 0.08204,0.14209 0.13477,0.20215 0.06006,0.06006 0.12744,0.10547 0.20215,0.13549 0.07545,0.03003 0.1582,0.04468 0.24023,0.04468 0.08276,0 0.16479,-0.01465 0.24023,-0.04468 0.07471,-0.03003 0.14209,-0.07544 0.20215,-0.13549 0.05273,-0.06006 0.09741,-0.12744 0.13549,-0.20215 0.03003,-0.07544 0.04468,-0.15015 0.04468,-0.23291 2e-5,-0.08203 -0.01463,-0.1648 -0.04466,-0.23951 z"
   style="fill:#e5e5e5" />
		<path
   id="path152"
   inkscape:connector-curvature="0"
   d="m 9.14588,19.13837 c 0.9148,0 1.39307,-0.47828 1.5835,-1.30225 h -0.44385 c -0.14062,0.54931 -0.49219,0.92945 -1.13965,0.92945 -0.8518,0 -1.18945,-0.78149 -1.19677,-1.42895 h 2.79419 c 0.03516,-1.02026 -0.4292,-2.04126 -1.59741,-2.04126 -1.15429,0 -1.63989,0.9646 -1.63989,1.92187 -2e-5,1.03417 0.48558,1.92114 1.63988,1.92114 z m 0,-3.46949 c 0.71777,0 1.13306,0.62622 1.15429,1.29492 H 7.9491 c 0.07031,-0.66137 0.47168,-1.29492 1.19678,-1.29492 z"
   style="fill:#e5e5e5" />
		<polygon
   id="polygon154"
   points="14.1659,15.40154 13.70813,15.40154 12.5824,18.58978 12.56848,18.58978 11.4281,15.40154 10.93518,15.40154 12.33558,19.03289 12.80725,19.03289 "
   style="fill:#e5e5e5" />
		<path
   id="path156"
   inkscape:connector-curvature="0"
   d="m 16.06067,19.13837 c 0.9148,0 1.39307,-0.47828 1.5835,-1.30225 h -0.44385 c -0.14062,0.54931 -0.49219,0.92945 -1.13965,0.92945 -0.8518,0 -1.18945,-0.78149 -1.19677,-1.42895 h 2.79419 c 0.03516,-1.02026 -0.4292,-2.04126 -1.59741,-2.04126 -1.15429,0 -1.63989,0.9646 -1.63989,1.92187 -10e-6,1.03417 0.48558,1.92114 1.63988,1.92114 z m 0,-3.46949 c 0.71777,0 1.13306,0.62622 1.1543,1.29492 h -2.35108 c 0.07032,-0.66137 0.47169,-1.29492 1.19678,-1.29492 z"
   style="fill:#e5e5e5" />
		<path
   id="path158"
   inkscape:connector-curvature="0"
   d="m 18.69446,16.91473 c 0.01465,-0.71118 0.43652,-1.24585 1.14038,-1.24585 0.71777,0 0.92212,0.47168 0.92212,1.0979 v 2.26611 h 0.44312 v -2.33642 c 0,-0.86573 -0.30982,-1.40112 -1.33008,-1.40112 -0.51343,0 -0.99902,0.2959 -1.16089,0.73242 h -0.01465 v -0.62622 h -0.44312 v 3.63135 h 0.44312 z"
   style="fill:#e5e5e5" />
		<path
   id="path160"
   inkscape:connector-curvature="0"
   d="m 22.30017,18.25872 c -0.0074,0.61963 0.19702,0.81665 0.78808,0.81665 0.13403,0 0.26075,-0.01465 0.39404,-0.01465 v -0.37939 c -0.12598,0.01391 -0.25268,0.0205 -0.37939,0.0205 -0.31714,-0.0205 -0.35889,-0.1897 -0.35889,-0.47827 v -2.44922 h 0.73829 v -0.3728 h -0.73828 v -1.09131 h -0.44385 v 1.09131 h -0.63355 v 0.3728 h 0.63355 z"
   style="fill:#e5e5e5" />
		<path
   id="path162"
   inkscape:connector-curvature="0"
   d="m 26.52552,17.00628 c 0.0073,-0.76025 0.31641,-1.3374 1.08398,-1.3374 0.56324,0 0.76685,0.40796 0.76025,0.90088 v 2.46313 h 0.44312 v -2.05517 c 0,-0.67529 0.21827,-1.30884 0.98511,-1.30884 0.63355,0 0.85913,0.32373 0.85913,0.92212 v 2.44189 h 0.44312 v -2.46313 c 0,-0.85913 -0.40796,-1.27442 -1.20337,-1.27442 -0.479,0 -0.93604,0.23291 -1.15429,0.71118 -0.13403,-0.47827 -0.56323,-0.71118 -1.0415,-0.71118 -0.57715,0 -0.95728,0.28199 -1.18946,0.71851 h -0.02124 v -0.61231 h -0.40796 v 3.63135 h 0.44312 z"
   style="fill:#e5e5e5" />
		<path
   id="path164"
   inkscape:connector-curvature="0"
   d="m 33.48133,19.13837 c 1.11255,0 1.71753,-0.87964 1.71753,-1.92114 0,-1.0415 -0.60498,-1.92187 -1.71753,-1.92187 -1.11182,0 -1.71679,0.88037 -1.71679,1.92187 -10e-6,1.0415 0.60497,1.92114 1.71679,1.92114 z m 0,-3.46949 c 0.8518,0 1.27441,0.77417 1.27441,1.54834 0,0.77417 -0.42261,1.54834 -1.27441,1.54834 -0.85108,0 -1.27368,-0.77417 -1.27368,-1.54834 0,-0.77417 0.42261,-1.54834 1.27368,-1.54834 z"
   style="fill:#e5e5e5" />
		<path
   id="path166"
   inkscape:connector-curvature="0"
   d="m 37.34046,19.13837 c 0.52734,0 1.10449,-0.32373 1.29492,-0.79541 h 0.01391 v 0.68994 h 0.40796 v -5.02515 h -0.44312 v 2.08301 H 38.60022 C 38.40979,15.57 37.88171,15.29535 37.34045,15.29535 c -1.10522,0 -1.6333,0.89429 -1.6333,1.92188 1e-5,1.02757 0.52808,1.92114 1.63331,1.92114 z m 0,-3.46949 c 0.94263,0 1.27368,0.79541 1.27368,1.54834 0,0.75293 -0.33106,1.54834 -1.27368,1.54834 -0.84521,0 -1.18946,-0.79541 -1.18946,-1.54834 0,-0.75293 0.34424,-1.54834 1.18946,-1.54834 z"
   style="fill:#e5e5e5" />
		<rect
   id="rect168"
   x="39.91053"
   y="15.40154"
   width="0.44385001"
   height="3.63135"
   style="fill:#e5e5e5" />
		<rect
   id="rect170"
   x="39.91053"
   y="14.00774"
   width="0.44385001"
   height="0.71044999"
   style="fill:#e5e5e5" />
		<rect
   id="rect172"
   x="43.036499"
   y="14.00774"
   width="0.44312"
   height="0.71044999"
   style="fill:#e5e5e5" />
		<rect
   id="rect174"
   x="43.036499"
   y="15.40154"
   width="0.44312"
   height="3.63135"
   style="fill:#e5e5e5" />
		<path
   id="path176"
   inkscape:connector-curvature="0"
   d="m 41.44568,19.03289 h 0.44385 v -3.25855 h 0.71777 v -0.3728 H 41.88953 V 15.0844 c 0.0066,-0.39404 -0.0074,-0.70386 0.4856,-0.70386 0.10547,0 0.20361,0.01391 0.32373,0.03516 v -0.38013 c -0.14062,-0.0205 -0.24683,-0.02783 -0.37354,-0.02783 -0.71045,0 -0.88623,0.43652 -0.87964,1.06274 v 0.33106 h -0.6189 v 0.3728 h 0.6189 z"
   style="fill:#e5e5e5" />
		<path
   id="path178"
   inkscape:connector-curvature="0"
   d="m 45.78967,19.13837 c 0.91479,0 1.39306,-0.47828 1.5835,-1.30225 h -0.44385 c -0.14062,0.54931 -0.49219,0.92945 -1.13965,0.92945 -0.85181,0 -1.18946,-0.78149 -1.19678,-1.42895 h 2.79419 c 0.03516,-1.02026 -0.4292,-2.04126 -1.59741,-2.04126 -1.15429,0 -1.63989,0.9646 -1.63989,1.92187 0,1.03417 0.4856,1.92114 1.63989,1.92114 z m 0,-3.46949 c 0.71777,0 1.13305,0.62622 1.15429,1.29492 h -2.35108 c 0.07033,-0.66137 0.4717,-1.29492 1.19679,-1.29492 z"
   style="fill:#e5e5e5" />
		<path
   id="path180"
   inkscape:connector-curvature="0"
   d="m 48.40955,16.25262 h -0.01391 v -0.85108 h -0.40797 v 3.63135 h 0.44312 V 17.0971 c 0,-0.75293 0.54859,-1.34399 1.35132,-1.30151 v -0.44385 c -0.65479,-0.02783 -1.14698,0.31714 -1.37256,0.90088 z"
   style="fill:#e5e5e5" />
		<path
   id="path182"
   inkscape:connector-curvature="0"
   d="m 39.03803,46.69807 c -0.0412,0.0083 -0.07891,0.02065 -0.11627,0.03722 -0.03717,0.01236 -0.07434,0.03319 -0.10748,0.05379 -0.03314,0.0249 -0.06646,0.04976 -0.09558,0.07869 -0.11572,0.11609 -0.18219,0.2775 -0.18219,0.43909 0,0.16562 0.06647,0.32318 0.18219,0.43909 0.02911,0.02893 0.06244,0.05804 0.09558,0.07864 0.03314,0.02087 0.07031,0.04148 0.10748,0.05804 0.03735,0.01662 0.07508,0.0249 0.11627,0.03319 0.0412,0.0083 0.07856,0.01236 0.12012,0.01236 0.16552,0 0.32336,-0.06638 0.43909,-0.18224 0.11627,-0.11591 0.18256,-0.27347 0.18256,-0.43909 0,-0.16159 -0.06628,-0.323 -0.18256,-0.43909 -0.14082,-0.14076 -0.35615,-0.20709 -0.55921,-0.16969 z"
   style="fill:#e5e5e5" />
		<path
   id="path184"
   inkscape:connector-curvature="0"
   d="m 40.29907,44.96635 c 0.07031,0.02467 0.14062,0.03722 0.21112,0.03722 0.25287,0 0.49328,-0.15734 0.58429,-0.41016 h -0.004 c 0.1203,-0.31892 -0.04559,-0.67914 -0.36895,-0.79522 -0.32299,-0.11591 -0.67951,0.04976 -0.79559,0.37276 -0.11572,0.32318 0.04981,0.67933 0.37317,0.79541 h 1e-5 z"
   style="fill:#e5e5e5" />
		<path
   id="path186"
   inkscape:connector-curvature="0"
   d="m 41.79248,41.96969 c 0.04138,-0.34383 -0.20306,-0.6502 -0.54254,-0.69168 -0.34003,-0.0455 -0.65076,0.19881 -0.6925,0.5386 -0.0412,0.3436 0.20306,0.65424 0.53906,0.69571 0.02875,0 0.05383,0.0043 0.07855,0.0043 0.31073,-1e-5 0.57623,-0.232 0.61743,-0.54689 v -10e-6 z"
   style="fill:#e5e5e5" />
		<path
   id="path188"
   inkscape:connector-curvature="0"
   d="m 15.36359,38.91096 c -0.03717,0.33975 0.20306,0.65039 0.54675,0.69168 0.02106,0 0.04559,0.0043 0.07086,0.0043 0.31073,0 0.57971,-0.23625 0.61706,-0.55096 0.04175,-0.34378 -0.20269,-0.6502 -0.54675,-0.69168 -0.33984,-0.0374 -0.64673,0.20713 -0.68792,0.5467 z"
   style="fill:#e5e5e5" />
		<path
   id="path190"
   inkscape:connector-curvature="0"
   d="m 40.50909,37.02639 c 0.06628,0 0.13275,-0.0083 0.19904,-0.03314 0.32739,-0.11188 0.50134,-0.46399 0.38928,-0.78695 -0.1117,-0.32323 -0.46418,-0.5012 -0.78699,-0.38932 -0.32336,0.11183 -0.50153,0.46372 -0.38984,0.78695 0.08699,0.26087 0.33143,0.42246 0.58851,0.42246 z"
   style="fill:#e5e5e5" />
		<path
   id="path192"
   inkscape:connector-curvature="0"
   d="m 38.97559,33.31091 c -0.28967,0.17821 -0.38123,0.56328 -0.20269,0.85753 0.1203,0.19052 0.32299,0.29407 0.53009,0.29407 0.11224,0 0.22393,-0.02911 0.32739,-0.09526 0.29022,-0.17816 0.38123,-0.56346 0.20325,-0.85328 h -0.004 c -0.17852,-0.29004 -0.55974,-0.38104 -0.85399,-0.20306 z"
   style="fill:#e5e5e5" />
		<path
   id="path194"
   inkscape:connector-curvature="0"
   d="m 20.09595,31.03706 c -0.24042,-0.24454 -0.6341,-0.24857 -0.87854,-0.0043 -0.24445,0.24028 -0.24848,0.63382 -0.004,0.87817 0.12012,0.12012 0.28162,0.18219 0.43909,0.18219 0.15747,0 0.31933,-0.05804 0.43946,-0.17816 0.24445,-0.24005 0.24445,-0.63363 0.0041,-0.87794 z"
   style="fill:#e5e5e5" />
		<path
   id="path196"
   inkscape:connector-curvature="0"
   d="m 34.83173,29.48377 c -0.18622,0.28981 -0.10364,0.67511 0.18658,0.8616 0.10363,0.0661 0.21973,0.09526 0.33581,0.09526 0.20288,0 0.40192,-0.09952 0.52203,-0.28601 0.18658,-0.28578 0.09961,-0.67085 -0.18658,-0.8573 -0.29003,-0.18648 -0.67528,-0.09933 -0.85784,0.18645 z"
   style="fill:#e5e5e5" />
		<path
   id="path198"
   inkscape:connector-curvature="0"
   d="m 24.44306,29.12338 c 0.06592,0 0.13678,-0.0083 0.20269,-0.03319 0.32336,-0.11183 0.49732,-0.46394 0.38562,-0.78694 -0.11206,-0.32318 -0.46399,-0.50116 -0.78735,-0.38933 -0.32739,0.11188 -0.49732,0.46399 -0.38928,0.79102 0.08697,0.25685 0.33142,0.41844 0.58832,0.41844 z"
   style="fill:#e5e5e5" />
		<path
   id="path200"
   inkscape:connector-curvature="0"
   d="m 30.04957,28.53927 c 0.31073,0 0.58026,-0.23195 0.61762,-0.54666 0.04156,-0.34383 -0.20325,-0.6502 -0.54272,-0.69168 -0.34406,-0.04148 -0.65076,0.20284 -0.69196,0.54263 -0.04174,0.33957 0.2027,0.65021 0.54254,0.69168 0.02471,0 0.0498,0.004 0.07452,0.004 v -2e-5 z"
   style="fill:#e5e5e5" />
		<path
   id="path202"
   inkscape:connector-curvature="0"
   d="m 40.23993,48.61157 c 0.01611,0.0374 0.03278,0.07462 0.05786,0.10776 0.02069,0.03319 0.04578,0.06615 0.07453,0.09525 0.11609,0.11591 0.27759,0.18224 0.43946,0.18224 0.0412,0 0.08258,-0.0043 0.12415,-0.01231 0.03735,-0.0083 0.07856,-0.02083 0.11627,-0.03745 0.03717,-0.01656 0.07031,-0.03314 0.10748,-0.05804 0.03333,-0.0206 0.06647,-0.0455 0.09119,-0.07443 0.02911,-0.02911 0.05786,-0.06207 0.07891,-0.09525 0.02069,-0.03314 0.0412,-0.07036 0.05786,-0.10776 0.01667,-0.03722 0.02911,-0.07443 0.03314,-0.11591 0.008,-0.04147 0.01245,-0.07869 0.01245,-0.12012 0,-0.16566 -0.06628,-0.32726 -0.18237,-0.43909 -0.02472,-0.02893 -0.05786,-0.05804 -0.09119,-0.07869 -0.03717,-0.02486 -0.07031,-0.04148 -0.10748,-0.05804 -0.03772,-0.01657 -0.07891,-0.02893 -0.11627,-0.03722 -0.20306,-0.03722 -0.4184,0.02893 -0.56359,0.17395 -0.11627,0.11183 -0.18219,0.27342 -0.18219,0.43909 0,0.04143 0.004,0.07864 0.01227,0.12012 0.0084,0.04147 0.02086,0.07868 0.03752,0.1159 z"
   style="fill:#e5e5e5" />
		<path
   id="path204"
   inkscape:connector-curvature="0"
   d="m 41.88092,46.43696 c 0.07855,0.02916 0.15289,0.04148 0.23181,0.04148 0.24445,0 0.48083,-0.14502 0.57586,-0.38932 0.12872,-0.31892 -0.02857,-0.67932 -0.3479,-0.80777 -0.31897,-0.12822 -0.6795,0.02911 -0.80383,0.34808 -0.12853,0.31892 0.02472,0.67913 0.34406,0.80753 z"
   style="fill:#e5e5e5" />
		<path
   id="path206"
   inkscape:connector-curvature="0"
   d="m 42.89588,43.76124 c 0.29864,0 0.55957,-0.21112 0.6134,-0.50945 0.06189,-0.33957 -0.16132,-0.6628 -0.49732,-0.72487 -0.33984,-0.06207 -0.66284,0.16159 -0.7251,0.49713 -0.06244,0.33957 0.1615,0.66275 0.49731,0.72487 0.03718,0.0083 0.07435,0.01232 0.11171,0.01232 z"
   style="fill:#e5e5e5" />
		<path
   id="path208"
   inkscape:connector-curvature="0"
   d="m 42.51904,40.32344 c 0.0041,0.33957 0.28162,0.61303 0.62164,0.61303 0,0 0.004,0 0.0081,0 0.34406,0 0.61761,-0.28175 0.61359,-0.62558 0,-0.3436 -0.28217,-0.61706 -0.62604,-0.61299 -0.34405,0.0043 -0.61725,0.28171 -0.61725,0.62554 z"
   style="fill:#e5e5e5" />
		<path
   id="path210"
   inkscape:connector-curvature="0"
   d="m 42.23304,37.62688 c 0.06226,0.29407 0.31879,0.49713 0.60901,0.49713 0.04174,0 0.08295,-0.0043 0.12415,-0.01236 0.34003,-0.07059 0.55573,-0.3978 0.48523,-0.73315 -0.07068,-0.3355 -0.39807,-0.55092 -0.73352,-0.48477 -0.33565,0.07059 -0.55135,0.39762 -0.48487,0.73315 z"
   style="fill:#e5e5e5" />
		<path
   id="path212"
   inkscape:connector-curvature="0"
   d="m 14.48926,34.96907 c 0.07892,0.0374 0.16589,0.05397 0.24884,0.05397 0.24042,0 0.4682,-0.14095 0.56781,-0.37294 0.14081,-0.31467 -0.0044,-0.67914 -0.31933,-0.82008 -0.31073,-0.13673 -0.67951,0.0042 -0.81629,0.31892 -0.13678,0.31489 0.0041,0.67936 0.31897,0.82013 z"
   style="fill:#e5e5e5" />
		<path
   id="path214"
   inkscape:connector-curvature="0"
   d="m 40.14032,32.65644 c 0.1203,0.17816 0.31494,0.27342 0.518,0.27342 0.11573,0 0.24042,-0.03314 0.34406,-0.10757 0.28564,-0.19075 0.36053,-0.57582 0.16992,-0.8616 -0.19098,-0.28574 -0.57623,-0.35633 -0.86188,-0.16562 -0.28619,0.19052 -0.36071,0.57559 -0.1701,0.86137 z"
   style="fill:#e5e5e5" />
		<path
   id="path216"
   inkscape:connector-curvature="0"
   d="m 38.41639,29.68666 c -0.24445,0.24449 -0.24445,0.63784 0,0.87813 0.12012,0.12017 0.27759,0.18224 0.43909,0.18224 0.15747,0 0.31531,-0.06207 0.43945,-0.18224 0.24042,-0.2443 0.24042,-0.63789 0,-0.87813 -0.24427,-0.24436 -0.63813,-0.24436 -0.87854,0 z"
   style="fill:#e5e5e5" />
		<path
   id="path218"
   inkscape:connector-curvature="0"
   d="m 20.25745,27.68197 c -0.29022,0.18626 -0.36877,0.57151 -0.18219,0.86155 0.11572,0.18224 0.31897,0.28153 0.52203,0.28153 0.11609,0 0.232,-0.03296 0.33545,-0.09929 0.29022,-0.19052 0.37317,-0.57156 0.18256,-0.86155 -0.18658,-0.28579 -0.57184,-0.36873 -0.85785,-0.18224 z"
   style="fill:#e5e5e5" />
		<path
   id="path220"
   inkscape:connector-curvature="0"
   d="m 34.41333,26.41447 c -0.31897,-0.13248 -0.6795,0.01657 -0.81628,0.33128 -0.13275,0.3149 0.02051,0.67936 0.33545,0.81184 0.07891,0.03314 0.16187,0.04971 0.24042,0.04971 0.24445,0 0.4726,-0.14497 0.57184,-0.381 0.13275,-0.3147 -0.01666,-0.67935 -0.33143,-0.81183 z"
   style="fill:#e5e5e5" />
		<path
   id="path222"
   inkscape:connector-curvature="0"
   d="m 25.82715,26.72918 c 0.0412,0 0.07837,-0.004 0.11609,-0.0081 0.33948,-0.06633 0.55921,-0.38951 0.49695,-0.72487 -0.06189,-0.33975 -0.38928,-0.55921 -0.7251,-0.49713 -0.33563,0.06211 -0.55939,0.3853 -0.49695,0.72487 0.05786,0.29814 0.31879,0.50523 0.60901,0.50523 z"
   style="fill:#e5e5e5" />
		<path
   id="path224"
   inkscape:connector-curvature="0"
   d="m 29.27063,25.86355 c 0.004,-0.33957 -0.27356,-0.62132 -0.61762,-0.62535 -0.34369,0 -0.62164,0.27324 -0.62567,0.61706 -0.004,0.34382 0.27356,0.62554 0.61762,0.62554 0.004,0 0.004,0 0.008,0 0.34004,0 0.61359,-0.27745 0.61762,-0.61725 z"
   style="fill:#e5e5e5" />
		<path
   id="path226"
   inkscape:connector-curvature="0"
   d="m 23.10804,146.07147 v 7.39307 c 0,2.78174 2.26319,5.04492 5.04492,5.04492 2.78174,0 5.04492,-2.26318 5.04492,-5.04492 v -7.39233 c 0,-0.31055 -0.25196,-0.5625 -0.5625,-0.5625 -0.31054,0 -0.5625,0.25195 -0.5625,0.5625 v 7.39233 c 0,2.16138 -1.75855,3.91992 -3.91992,3.91992 -2.16137,0 -3.91992,-1.75854 -3.91992,-3.91992 v -7.39307 c 0,-0.31055 -0.25196,-0.5625 -0.5625,-0.5625 -0.31055,0 -0.5625,0.25196 -0.5625,0.5625 z"
   style="fill:#e5e5e5" />
		<path
   id="path228"
   inkscape:connector-curvature="0"
   d="m 35.40027,141.79193 c -0.07544,0.03 -0.14282,0.0747 -0.20288,0.13477 -0.05273,0.0601 -0.09741,0.12744 -0.13477,0.20288 -0.03003,0.0747 -0.04541,0.15747 -0.04541,0.2395 0,0.0828 0.01538,0.15747 0.04541,0.23291 0.03003,0.0747 0.07471,0.14209 0.13477,0.20215 0.12012,0.12012 0.27759,0.18018 0.44238,0.18018 0.16552,0 0.32299,-0.0601 0.44238,-0.18018 0.05273,-0.0601 0.09814,-0.12744 0.12744,-0.20215 0.03809,-0.0754 0.05273,-0.15747 0.05273,-0.23291 0,-0.16479 -0.06738,-0.32227 -0.18017,-0.44238 -0.17944,-0.17213 -0.4497,-0.23219 -0.68188,-0.13478 z"
   style="fill:#e5e5e5" />
		<circle
   id="circle230"
   cx="35.639771"
   cy="139.38446"
   r="0.62256002"
   style="fill:#e5e5e5" />
		<path
   id="path232"
   inkscape:connector-curvature="0"
   d="m 36.2096,136.15961 c -0.02929,-0.0754 -0.07471,-0.14282 -0.12744,-0.19556 -0.23218,-0.23218 -0.65186,-0.23218 -0.88477,0 -0.11279,0.11279 -0.18018,0.27026 -0.18018,0.43506 0,0.0828 0.01538,0.16553 0.04541,0.24023 0.03003,0.0747 0.07471,0.14282 0.13477,0.20215 0.06006,0.0527 0.12744,0.0981 0.20288,0.1355 0.07471,0.03 0.15747,0.0447 0.2395,0.0447 0.16553,0 0.31494,-0.0674 0.44238,-0.18018 0.05273,-0.0593 0.09814,-0.12744 0.12744,-0.20215 0.03809,-0.0747 0.05273,-0.15747 0.05273,-0.24023 -1e-5,-0.082 -0.01466,-0.15749 -0.05274,-0.2395 v -1e-5 z"
   style="fill:#e5e5e5" />
		<path
   id="path234"
   inkscape:connector-curvature="0"
   d="m 29.6471,134.29193 c -0.34497,0 -0.62183,0.27759 -0.62183,0.62256 0,0.34497 0.27686,0.6145 0.62183,0.6145 0.34571,0 0.62256,-0.26953 0.62256,-0.6145 0,-0.34497 -0.27686,-0.62256 -0.62256,-0.62256 z"
   style="fill:#e5e5e5" />
		<path
   id="path236"
   inkscape:connector-curvature="0"
   d="m 29.6471,120.69451 c -0.34497,0 -0.62183,0.27759 -0.62183,0.62256 0,0.33691 0.27686,0.6145 0.62183,0.6145 0.34571,0 0.62256,-0.27759 0.62256,-0.6145 0,-0.34497 -0.27686,-0.62256 -0.62256,-0.62256 z"
   style="fill:#e5e5e5" />
		<path
   id="path238"
   inkscape:connector-curvature="0"
   d="m 29.6471,117.9721 c -0.34497,0 -0.62183,0.27686 -0.62183,0.62256 0,0.34497 0.27686,0.62183 0.62183,0.62183 0.34571,0 0.62256,-0.27686 0.62256,-0.62183 0,-0.34571 -0.27686,-0.62256 -0.62256,-0.62256 z"
   style="fill:#e5e5e5" />
		<path
   id="path240"
   inkscape:connector-curvature="0"
   d="m 29.6471,128.84711 c -0.34497,0 -0.62183,0.28491 -0.62183,0.62256 0,0.34497 0.27686,0.62183 0.62183,0.62183 0.34571,0 0.62256,-0.27686 0.62256,-0.62183 0,-0.33765 -0.27686,-0.62256 -0.62256,-0.62256 z"
   style="fill:#e5e5e5" />
		<path
   id="path242"
   inkscape:connector-curvature="0"
   d="m 29.6471,126.13201 c -0.34497,0 -0.62183,0.27759 -0.62183,0.62256 0,0.33691 0.27686,0.62256 0.62183,0.62256 0.34571,0 0.62256,-0.28564 0.62256,-0.62256 0,-0.34497 -0.27686,-0.62256 -0.62256,-0.62256 z"
   style="fill:#e5e5e5" />
		<path
   id="path244"
   inkscape:connector-curvature="0"
   d="m 29.6471,123.4096 c -0.34497,0 -0.62183,0.27686 -0.62183,0.62256 0,0.34497 0.27686,0.62183 0.62183,0.62183 0.34571,0 0.62256,-0.27686 0.62256,-0.62183 0,-0.34571 -0.27686,-0.62256 -0.62256,-0.62256 z"
   style="fill:#e5e5e5" />
		<path
   id="path246"
   inkscape:connector-curvature="0"
   d="m 29.6471,115.24895 c -0.34497,0 -0.62183,0.28564 -0.62183,0.62256 0,0.34497 0.27686,0.62256 0.62183,0.62256 0.34571,0 0.62256,-0.27759 0.62256,-0.62256 0,-0.33691 -0.27686,-0.62256 -0.62256,-0.62256 z"
   style="fill:#e5e5e5" />
		<path
   id="path248"
   inkscape:connector-curvature="0"
   d="m 29.6471,112.5346 c -0.34497,0 -0.62183,0.27686 -0.62183,0.6145 0,0.34497 0.27686,0.62256 0.62183,0.62256 0.34571,0 0.62256,-0.27759 0.62256,-0.62256 0,-0.33765 -0.27686,-0.6145 -0.62256,-0.6145 z"
   style="fill:#e5e5e5" />
		<path
   id="path250"
   inkscape:connector-curvature="0"
   d="m 30.75745,105.33416 c 0.15015,-0.30762 0.01465,-0.67456 -0.30029,-0.82471 -0.30688,-0.14282 -0.68188,-0.007 -0.82471,0.29956 -0.14282,0.31494 -0.0073,0.68262 0.30029,0.83276 0.08936,0.0374 0.17212,0.0527 0.26221,0.0527 0.23218,1e-5 0.45777,-0.12743 0.5625,-0.36034 z"
   style="fill:#e5e5e5" />
		<path
   id="path252"
   inkscape:connector-curvature="0"
   d="m 29.6471,107.08904 c -0.34497,0 -0.62183,0.28491 -0.62183,0.62256 0,0.34497 0.27686,0.62256 0.62183,0.62256 0.34571,0 0.62256,-0.27759 0.62256,-0.62256 0,-0.33765 -0.27686,-0.62256 -0.62256,-0.62256 z"
   style="fill:#e5e5e5" />
		<path
   id="path254"
   inkscape:connector-curvature="0"
   d="m 29.6471,109.81145 c -0.34497,0 -0.62183,0.27759 -0.62183,0.62256 0,0.34497 0.27686,0.62256 0.62183,0.62256 0.34571,0 0.62256,-0.27759 0.62256,-0.62256 0,-0.34497 -0.27686,-0.62256 -0.62256,-0.62256 z"
   style="fill:#e5e5e5" />
		<path
   id="path256"
   inkscape:connector-curvature="0"
   d="m 29.6471,142.45184 c -0.34497,0 -0.62183,0.27759 -0.62183,0.62256 0,0.33765 0.27686,0.61523 0.62183,0.61523 0.34571,0 0.62256,-0.27759 0.62256,-0.61523 0,-0.34497 -0.27686,-0.62256 -0.62256,-0.62256 z"
   style="fill:#e5e5e5" />
		<path
   id="path258"
   inkscape:connector-curvature="0"
   d="m 29.6471,150.61176 c -0.34497,0 -0.62183,0.27759 -0.62183,0.61523 0,0.34497 0.27686,0.62256 0.62183,0.62256 0.34571,0 0.62256,-0.27759 0.62256,-0.62256 0,-0.33765 -0.27686,-0.61523 -0.62256,-0.61523 z"
   style="fill:#e5e5e5" />
		<path
   id="path260"
   inkscape:connector-curvature="0"
   d="m 29.6471,145.16693 c -0.34497,0 -0.62183,0.27759 -0.62183,0.62256 0,0.34497 0.27686,0.62256 0.62183,0.62256 0.34571,0 0.62256,-0.27759 0.62256,-0.62256 0,-0.34497 -0.27686,-0.62256 -0.62256,-0.62256 z"
   style="fill:#e5e5e5" />
		<path
   id="path262"
   inkscape:connector-curvature="0"
   d="m 31.85974,103.57928 c 0.14282,0 0.27759,-0.0447 0.39038,-0.13477 0.26953,-0.21753 0.31494,-0.60791 0.09741,-0.87744 -0.2102,-0.27026 -0.60791,-0.30762 -0.87012,-0.0974 -0.27026,0.2168 -0.31494,0.60718 -0.09741,0.87744 0.12012,0.14941 0.3003,0.23218 0.47974,0.23218 z"
   style="fill:#e5e5e5" />
		<path
   id="path264"
   inkscape:connector-curvature="0"
   d="m 29.6471,131.56952 c -0.34497,0 -0.62183,0.27759 -0.62183,0.62256 0,0.34497 0.27686,0.62256 0.62183,0.62256 0.34571,0 0.62256,-0.27759 0.62256,-0.62256 0,-0.34497 -0.27686,-0.62256 -0.62256,-0.62256 z"
   style="fill:#e5e5e5" />
		<path
   id="path266"
   inkscape:connector-curvature="0"
   d="m 29.6471,147.88934 c -0.34497,0 -0.62183,0.27759 -0.62183,0.62256 0,0.34497 0.27686,0.62256 0.62183,0.62256 0.34571,0 0.62256,-0.27759 0.62256,-0.62256 0,-0.34497 -0.27686,-0.62256 -0.62256,-0.62256 z"
   style="fill:#e5e5e5" />
		<path
   id="path268"
   inkscape:connector-curvature="0"
   d="m 29.6471,137.00702 c -0.34497,0 -0.62183,0.27759 -0.62183,0.62256 0,0.34497 0.27686,0.62256 0.62183,0.62256 0.34571,0 0.62256,-0.27759 0.62256,-0.62256 0,-0.34497 -0.27686,-0.62256 -0.62256,-0.62256 z"
   style="fill:#e5e5e5" />
		<path
   id="path270"
   inkscape:connector-curvature="0"
   d="m 29.6471,139.72943 c -0.34497,0 -0.62183,0.27759 -0.62183,0.62256 0,0.34497 0.27686,0.62256 0.62183,0.62256 0.34571,0 0.62256,-0.27759 0.62256,-0.62256 0,-0.34497 -0.27686,-0.62256 -0.62256,-0.62256 z"
   style="fill:#e5e5e5" />
		<path
   id="path272"
   inkscape:connector-curvature="0"
   d="m 29.20471,153.51434 c -0.11206,0.12012 -0.17945,0.27759 -0.17945,0.44238 0,0.16479 0.06738,0.32227 0.17945,0.43506 0.06006,0.0601 0.12744,0.10474 0.20288,0.13477 0.07471,0.0381 0.15747,0.0527 0.23951,0.0527 0.08276,0 0.16552,-0.0146 0.24023,-0.0527 0.07544,-0.03 0.14282,-0.0747 0.20288,-0.13477 0.052,-0.0527 0.10474,-0.12012 0.13477,-0.20215 0.03003,-0.0754 0.04468,-0.15015 0.04468,-0.23291 0,-0.16479 -0.06738,-0.32227 -0.17945,-0.44238 -0.23291,-0.23217 -0.65259,-0.23217 -0.8855,0 z"
   style="fill:#e5e5e5" />
		<path
   id="path274"
   inkscape:connector-curvature="0"
   d="m 50.82361,89.55615 c -0.26843,0.21642 -0.31677,0.61079 -0.10474,0.87369 0.21643,0.26867 0.61121,0.31635 0.87359,0.10497 l 0.0062,-0.0053 C 51.8616,90.3177 51.90317,89.92783 51.6979,89.66045 51.48148,89.39178 51.09128,89.3498 50.82358,89.55594 v 1.7e-4 z"
   style="fill:#e5e5e5" />
		<path
   id="path276"
   inkscape:connector-curvature="0"
   d="m 32.07288,171.32172 c 0,0.31055 0.25195,0.5625 0.5625,0.5625 0.31054,0 0.5625,-0.25195 0.5625,-0.5625 v -6.34241 c 1.84882,-1.50586 3.00366,-3.80077 3.00366,-6.27795 v -11.08081 c 0,-0.31055 -0.25196,-0.5625 -0.5625,-0.5625 -0.31054,0 -0.5625,0.25195 -0.5625,0.5625 v 11.08081 c 0,1.8073 -0.71631,3.49988 -1.9021,4.76404 -0.23529,-2.5648 -2.3963,-4.58093 -5.02148,-4.58093 -2.63617,0 -4.80323,2.03343 -5.02313,4.61362 -1.21857,-1.2686 -1.95611,-2.9751 -1.95611,-4.79672 v -11.08081 c 0,-0.31055 -0.25196,-0.5625 -0.5625,-0.5625 -0.31054,0 -0.5625,0.25195 -0.5625,0.5625 v 11.08081 c 0,2.48621 1.17737,4.79073 3.05932,6.29773 v 6.32263 c 0,0.31055 0.25196,0.5625 0.5625,0.5625 0.31055,0 0.5625,-0.25195 0.5625,-0.5625 v -5.56796 c 0.51379,0.28619 1.06054,0.52368 1.63989,0.69443 0.12598,0.0373 0.2146,0.16553 0.2146,0.31128 l 0.0095,39.65625 c -3.52753,0.44202 -6.66376,1.98766 -9.07928,4.27116 l -1.0968,-1.10344 c 0.67547,-0.8172 1.08142,-1.86534 1.08142,-3.00838 0,-2.60953 -2.11542,-4.72499 -4.72504,-4.72499 -2.60944,0 -4.72485,2.11546 -4.72485,4.72499 0,2.60957 2.11542,4.72504 4.72485,4.72504 1.06091,0 2.03668,-0.3539 2.82532,-0.94418 l 1.13233,1.13905 c -2.65027,2.88275 -4.25464,6.72701 -4.25464,10.95198 0,1.20483 0.13257,2.40381 0.39478,3.56396 0.0586,0.26147 0.29077,0.43872 0.54785,0.43872 0.04102,0 0.08276,-0.004 0.12451,-0.0139 0.30323,-0.0681 0.49365,-0.36914 0.42481,-0.67236 -0.24317,-1.07959 -0.36695,-2.19507 -0.36695,-3.31641 0,-7.80249 5.84985,-14.23682 13.60694,-14.96704 0.2893,-0.0278 0.50977,-0.27026 0.50977,-0.5603 l -0.0095,-40.16013 c 0,-0.64087 -0.41968,-1.21289 -1.02173,-1.39087 -0.71008,-0.20934 -1.36688,-0.52913 -1.95776,-0.93301 v -0.5062 c 0,-2.16138 1.75855,-3.91992 3.91992,-3.91992 2.16137,0 3.91992,1.75854 3.91992,3.91992 v 0.49269 c -0.59179,0.41162 -1.25153,0.73572 -1.96509,0.94652 -0.60205,0.17798 -1.02173,0.75 -1.02173,1.39087 v 42.52515 c -0.31641,-0.022 -0.64746,-0.0307 -0.94922,-0.0329 -7.13599,0 -12.79541,5.35474 -13.17407,12.47534 -0.13696,2.56714 0.45704,5.06982 1.72046,7.27222 l -0.86096,0.62155 c -0.8659,-0.98396 -2.13116,-1.60808 -3.54492,-1.60808 -2.60944,0 -4.72485,2.11542 -4.72485,4.72499 0,2.60953 2.11542,4.72499 4.72485,4.72499 2.60962,0 4.72504,-2.11546 4.72504,-4.72499 0,-0.79115 -0.19684,-1.53548 -0.54053,-2.19063 l 1.29877,-0.93773 c 0.24023,-0.17358 0.30469,-0.50391 0.14722,-0.75513 -1.32569,-2.11157 -1.95556,-4.55566 -1.82153,-7.06714 0.34571,-6.51343 5.52246,-11.4104 12.05054,-11.4104 0.01538,0 0.03149,0 0.04688,0 0.46729,0.002 0.93824,0.03 1.3982,0.085 0.16626,0.0169 0.32007,-0.0307 0.44018,-0.13843 0.12012,-0.1062 0.18896,-0.25928 0.18896,-0.42041 v -43.14333 c 0,-0.14575 0.08862,-0.27393 0.21533,-0.31128 0.58209,-0.17216 1.13123,-0.41245 1.64648,-0.70331 z M 9.65271,207.87836 c 0,0.20728 -0.16772,0.375 -0.375,0.375 -0.20728,0 -0.375,-0.16772 -0.375,-0.375 v -0.14062 c 0,-0.20728 0.16772,-0.375 0.375,-0.375 0.20728,0 0.375,0.16772 0.375,0.375 z m 1.5,0 c 0,0.20728 -0.16772,0.375 -0.375,0.375 -0.20728,0 -0.375,-0.16772 -0.375,-0.375 v -3.54419 c 0,-0.20728 0.16772,-0.375 0.375,-0.375 0.20728,0 0.375,0.16772 0.375,0.375 z m 1.5,0 c 0,0.20728 -0.16772,0.375 -0.375,0.375 -0.20728,0 -0.375,-0.16772 -0.375,-0.375 v -1.57544 c 0,-0.20728 0.16772,-0.375 0.375,-0.375 0.20728,0 0.375,0.16772 0.375,0.375 z m 1.5,0 c 0,0.20728 -0.16772,0.375 -0.375,0.375 -0.20728,0 -0.375,-0.16772 -0.375,-0.375 v -2.58765 c 0,-0.20728 0.16772,-0.375 0.375,-0.375 0.20728,0 0.375,0.16772 0.375,0.375 z m 1.5,0 c 0,0.20728 -0.16772,0.375 -0.375,0.375 -0.20728,0 -0.375,-0.16772 -0.375,-0.375 v -0.14062 c 0,-0.20728 0.16772,-0.375 0.375,-0.375 0.20728,0 0.375,0.16772 0.375,0.375 z m -6,23.69676 c 0,0.20728 -0.16772,0.375 -0.375,0.375 -0.20728,0 -0.375,-0.16772 -0.375,-0.375 v -0.14062 c 0,-0.20728 0.16772,-0.375 0.375,-0.375 0.20728,0 0.375,0.16772 0.375,0.375 z m 1.5,2.44702 c 0,0.20728 -0.16772,0.375 -0.375,0.375 -0.20728,0 -0.375,-0.16772 -0.375,-0.375 v -2.58765 c 0,-0.20728 0.16772,-0.375 0.375,-0.375 0.20728,0 0.375,0.16772 0.375,0.375 z m 1.5,-1.01294 c 0,0.20728 -0.16772,0.375 -0.375,0.375 -0.20728,0 -0.375,-0.16772 -0.375,-0.375 v -1.57471 c 0,-0.20728 0.16772,-0.375 0.375,-0.375 0.20728,0 0.375,0.16772 0.375,0.375 z m 1.5,1.96875 c 0,0.20728 -0.16772,0.375 -0.375,0.375 -0.20728,0 -0.375,-0.16772 -0.375,-0.375 v -3.54346 c 0,-0.20728 0.16772,-0.375 0.375,-0.375 0.20728,0 0.375,0.16772 0.375,0.375 z m 1.5,-3.40283 c 0,0.20728 -0.16772,0.375 -0.375,0.375 -0.20728,0 -0.375,-0.16772 -0.375,-0.375 v -0.14062 c 0,-0.20728 0.16772,-0.375 0.375,-0.375 0.20728,0 0.375,0.16772 0.375,0.375 z"
   style="fill:#e5e5e5" />
		<path
   id="path278"
   inkscape:connector-curvature="0"
   d="m 44.43854,228.20213 c -1.47271,0 -2.78741,0.67415 -3.65405,1.73021 l -1.25922,-0.8123 c 1.18579,-2.01855 1.80981,-4.31396 1.80981,-6.6731 0,-5.61255 -3.62988,-10.66258 -8.89599,-12.47899 l 0.56396,-1.75049 c 6.01538,2.05811 10.17041,7.83104 10.17041,14.22948 0,1.11841 -0.12378,2.23389 -0.36694,3.31641 -0.06812,0.30322 0.12231,0.60425 0.4248,0.67236 0.30469,0.0688 0.60425,-0.12158 0.67236,-0.4248 0.26221,-1.16382 0.39478,-2.36279 0.39478,-3.56396 0,-7.0752 -4.72778,-13.43919 -11.49682,-15.47533 -0.29004,-0.0916 -0.60278,0.0747 -0.69727,0.36621 l -0.90893,2.82202 c -0.04614,0.14355 -0.03296,0.30103 0.03809,0.43506 0.07031,0.1333 0.19263,0.23364 0.33765,0.27612 5.08667,1.50584 8.63891,6.26585 8.63891,11.57591 0,2.3313 -0.66577,4.59302 -1.9248,6.54199 -0.0813,0.12524 -0.10913,0.27759 -0.07764,0.42407 0.03149,0.14575 0.11938,0.27319 0.24536,0.35376 l 1.73053,1.11621 c -0.2981,0.61931 -0.47003,1.31081 -0.47003,2.04414 0,2.60953 2.1156,4.72499 4.72504,4.72499 2.60962,0 4.72504,-2.11546 4.72504,-4.72499 -2e-5,-2.60956 -2.11543,-4.72498 -4.72505,-4.72498 z m -2.62518,4.79535 c 0,0.20728 -0.16772,0.375 -0.375,0.375 -0.20728,0 -0.375,-0.16772 -0.375,-0.375 v -0.14062 c 0,-0.20728 0.16772,-0.375 0.375,-0.375 0.20728,0 0.375,0.16772 0.375,0.375 z m 1.5,1.70142 c 0,0.20728 -0.16772,0.375 -0.375,0.375 -0.20728,0 -0.375,-0.16772 -0.375,-0.375 v -3.54346 c 0,-0.20728 0.16772,-0.375 0.375,-0.375 0.20728,0 0.375,0.16772 0.375,0.375 z m 1.5,-0.98438 c 0,0.20728 -0.16772,0.375 -0.375,0.375 -0.20728,0 -0.375,-0.16772 -0.375,-0.375 v -1.57471 c 0,-0.20728 0.16772,-0.375 0.375,-0.375 0.20728,0 0.375,0.16772 0.375,0.375 z m 1.5,0.50611 c 0,0.20728 -0.16772,0.375 -0.375,0.375 -0.20728,0 -0.375,-0.16772 -0.375,-0.375 v -2.58691 c 0,-0.20728 0.16772,-0.375 0.375,-0.375 0.20728,0 0.375,0.16772 0.375,0.375 z m 1.5,-1.22315 c 0,0.20728 -0.16772,0.375 -0.375,0.375 -0.20728,0 -0.375,-0.16772 -0.375,-0.375 v -0.14062 c 0,-0.20728 0.16772,-0.375 0.375,-0.375 0.20728,0 0.375,0.16772 0.375,0.375 z"
   style="fill:#e5e5e5" />
	</g>
</g>
<g
   id="JACKS"
   transform="matrix(1.2800162,0,0,1.2800162,-1.5360194e-4,15.271625)">
</g>
<g
   id="KNOBS"
   transform="matrix(1.2800162,0,0,1.2800162,-1.5360194e-4,15.271625)">
</g>
<g
   id="PUSH"
   transform="matrix(1.2800162,0,0,1.2800162,-1.5360194e-4,15.271625)">
</g>
<g
   id="LEDS"
   transform="matrix(1.2800162,0,0,1.2800162,-1.5360194e-4,15.271625)">
</g>
<g
   id="g157"
   transform="matrix(1.0429247,0,0,1.0429247,4.7135364e-4,4.66889e-6)">
	<g
   id="g130">
		
			<linearGradient
   id="SVGID_1_"
   gradientUnits="userSpaceOnUse"
   x1="372.11017"
   y1="-5206.9775"
   x2="385.11017"
   y2="-5206.9775"
   gradientTransform="rotate(90,-2413.45,-2785.5602)">
			<stop
   offset="0.00559"
   style="stop-color:#303030"
   id="stop107" />
			<stop
   offset="1"
   style="stop-color:#222222"
   id="stop109" />
		</linearGradient>
		<circle
   cx="7.9674702"
   cy="6.5"
   r="6.5"
   id="circle112"
   style="fill:url(#SVGID_1_)" />
		
			<linearGradient
   id="SVGID_2_"
   gradientUnits="userSpaceOnUse"
   x1="372.7977"
   y1="-5206.9775"
   x2="384.42157"
   y2="-5206.9775"
   gradientTransform="rotate(90,-2413.45,-2785.5602)">
			<stop
   offset="0.01118"
   style="stop-color:#636363"
   id="stop114" />
			<stop
   offset="1"
   style="stop-color:#2B2B2B"
   id="stop116" />
		</linearGradient>
		<circle
   cx="7.9674702"
   cy="6.4994702"
   r="5.8119402"
   id="circle119"
   style="fill:url(#SVGID_2_)" />
		
			<linearGradient
   id="SVGID_3_"
   gradientUnits="userSpaceOnUse"
   x1="373.24478"
   y1="-5206.9775"
   x2="383.97452"
   y2="-5206.9775"
   gradientTransform="rotate(90,-2413.45,-2785.5602)">
			<stop
   offset="0.01118"
   style="stop-color:#4C4C4C"
   id="stop121" />
			<stop
   offset="1"
   style="stop-color:#3B3B3B"
   id="stop123" />
		</linearGradient>
		<circle
   cx="7.9674702"
   cy="6.4994702"
   r="5.3648701"
   id="circle126"
   style="fill:url(#SVGID_3_)" />
		<path
   d="M 11.43636,5.81053 9.47275,5.57527 C 9.17131,5.53916 8.93373,5.30147 8.89774,5.00002 L 8.66345,3.03775 C 8.65324,2.95222 8.5807,2.88782 8.49455,2.88782 H 7.44041 c -0.08613,0 -0.15867,0.06438 -0.16889,0.1499 L 7.03668,5.00112 C 7.00062,5.3026 6.76291,5.54026 6.46141,5.57625 L 4.49865,5.81059 C 4.41312,5.8208 4.34872,5.89334 4.34872,5.97948 v 1.0542 c 0,0.08613 0.06438,0.15866 0.1499,0.16889 l 1.96299,0.2348 c 0.30144,0.03606 0.53906,0.27368 0.57512,0.57512 l 0.23479,1.96293 c 0.01023,0.08552 0.08277,0.1499 0.16889,0.1499 h 1.0542 c 0.08612,0 0.15865,-0.06436 0.16889,-0.14986 L 8.89871,8.01228 C 8.93482,7.71089 9.17243,7.47333 9.47383,7.43729 l 1.96249,-0.2347 c 0.08552,-0.01023 0.1499,-0.08276 0.1499,-0.16889 V 5.97942 c 0,-0.08611 -0.06436,-0.15864 -0.14986,-0.16889 z"
   id="path128"
   inkscape:connector-curvature="0"
   style="fill:#171717" />
	</g>
	<g
   id="g155">
		
			<linearGradient
   id="SVGID_4_"
   gradientUnits="userSpaceOnUse"
   x1="723.47015"
   y1="-5206.9775"
   x2="736.47015"
   y2="-5206.9775"
   gradientTransform="rotate(90,-2413.45,-2785.5602)">
			<stop
   offset="0.00559"
   style="stop-color:#303030"
   id="stop132" />
			<stop
   offset="1"
   style="stop-color:#222222"
   id="stop134" />
		</linearGradient>
		<circle
   cx="7.9674702"
   cy="357.85995"
   r="6.5"
   id="circle137"
   style="fill:url(#SVGID_4_)" />
		
			<linearGradient
   id="SVGID_5_"
   gradientUnits="userSpaceOnUse"
   x1="724.15765"
   y1="-5206.9775"
   x2="735.78156"
   y2="-5206.9775"
   gradientTransform="rotate(90,-2413.45,-2785.5602)">
			<stop
   offset="0.01118"
   style="stop-color:#636363"
   id="stop139" />
			<stop
   offset="1"
   style="stop-color:#2B2B2B"
   id="stop141" />
		</linearGradient>
		<circle
   cx="7.9674702"
   cy="357.85944"
   r="5.8119402"
   id="circle144"
   style="fill:url(#SVGID_5_)" />
		
			<linearGradient
   id="SVGID_6_"
   gradientUnits="userSpaceOnUse"
   x1="724.60474"
   y1="-5206.9775"
   x2="735.33447"
   y2="-5206.9775"
   gradientTransform="rotate(90,-2413.45,-2785.5602)">
			<stop
   offset="0.01118"
   style="stop-color:#4C4C4C"
   id="stop146" />
			<stop
   offset="1"
   style="stop-color:#3B3B3B"
   id="stop148" />
		</linearGradient>
		<circle
   cx="7.9674702"
   cy="357.85944"
   r="5.3648701"
   id="circle151"
   style="fill:url(#SVGID_6_)" />
		<path
   d="m 11.43636,357.1705 -1.96361,-0.23526 c -0.30144,-0.0361 -0.53902,-0.2738 -0.57501,-0.57526 L 8.66346,354.3977 C 8.65325,354.3122 8.5807,354.24777 8.49456,354.24777 H 7.44041 c -0.08613,0 -0.15867,0.0644 -0.16889,0.1499 l -0.23484,1.96341 c -0.03606,0.30148 -0.27377,0.53915 -0.57526,0.57513 l -1.96276,0.23434 c -0.08554,0.0102 -0.14993,0.0827 -0.14993,0.16888 v 1.0542 c 0,0.0861 0.06438,0.15866 0.1499,0.16891 l 1.96299,0.23477 c 0.30144,0.0361 0.53906,0.27368 0.57512,0.57513 l 0.23479,1.96292 c 0.01023,0.0855 0.08277,0.1499 0.16889,0.1499 h 1.0542 c 0.08612,0 0.15865,-0.0644 0.16889,-0.14987 l 0.23521,-1.96317 c 0.03611,-0.30139 0.27372,-0.53897 0.57512,-0.57501 l 1.96249,-0.23471 c 0.08552,-0.0102 0.1499,-0.0828 0.1499,-0.16888 v -1.05426 c -10e-6,-0.0861 -0.06437,-0.1586 -0.14987,-0.16886 z"
   id="path153"
   inkscape:connector-curvature="0"
   style="fill:#171717" />
	</g>
</g>
<g
   id="g211"
   transform="matrix(1.0429247,0,0,1.0429247,4.7135364e-4,4.66889e-6)">
	<g
   id="g183">
		
			<linearGradient
   id="SVGID_7_"
   gradientUnits="userSpaceOnUse"
   x1="372.11017"
   y1="-5263.5083"
   x2="385.11017"
   y2="-5263.5083"
   gradientTransform="rotate(90,-2413.45,-2785.5602)">
			<stop
   offset="0.00559"
   style="stop-color:#303030"
   id="stop159" />
			<stop
   offset="1"
   style="stop-color:#222222"
   id="stop161" />
		</linearGradient>
		<circle
   cx="64.498062"
   cy="6.5"
   r="6.5"
   id="circle164"
   style="fill:url(#SVGID_7_)" />
		
			<linearGradient
   id="SVGID_8_"
   gradientUnits="userSpaceOnUse"
   x1="372.7977"
   y1="-5263.5083"
   x2="384.42157"
   y2="-5263.5083"
   gradientTransform="rotate(90,-2413.45,-2785.5602)">
			<stop
   offset="0.01118"
   style="stop-color:#636363"
   id="stop166" />
			<stop
   offset="1"
   style="stop-color:#2B2B2B"
   id="stop168" />
		</linearGradient>
		<circle
   cx="64.498062"
   cy="6.4994702"
   r="5.8119402"
   id="circle171"
   style="fill:url(#SVGID_8_)" />
		
			<linearGradient
   id="SVGID_9_"
   gradientUnits="userSpaceOnUse"
   x1="373.24478"
   y1="-5263.5083"
   x2="383.97452"
   y2="-5263.5083"
   gradientTransform="rotate(90,-2413.45,-2785.5602)">
			<stop
   offset="0.01118"
   style="stop-color:#4C4C4C"
   id="stop173" />
			<stop
   offset="1"
   style="stop-color:#3B3B3B"
   id="stop175" />
		</linearGradient>
		<circle
   cx="64.498062"
   cy="6.4994702"
   r="5.3648701"
   id="circle178"
   style="fill:url(#SVGID_9_)" />
		<path
   d="M 67.96695,5.81053 66.00333,5.57527 C 65.7019,5.53916 65.46431,5.30147 65.42833,5.00002 L 65.19405,3.03774 C 65.18383,2.9522 65.11129,2.88781 65.02515,2.88781 H 63.971 c -0.08613,0 -0.15866,0.06438 -0.1689,0.1499 l -0.23484,1.9634 C 63.53121,5.3026 63.2935,5.54026 62.992,5.57625 l -1.96276,0.23433 c -0.08553,0.01021 -0.14993,0.08276 -0.14993,0.1689 v 1.0542 c 0,0.08613 0.06438,0.15866 0.1499,0.16889 l 1.96299,0.2348 c 0.30144,0.03606 0.53906,0.27368 0.57512,0.57512 l 0.23479,1.96293 c 0.01023,0.08552 0.08277,0.1499 0.1689,0.1499 h 1.0542 c 0.08611,0 0.15865,-0.06436 0.16889,-0.14986 l 0.23521,-1.96318 c 0.03611,-0.30139 0.27373,-0.53895 0.57512,-0.57499 l 1.96249,-0.2347 c 0.08552,-0.01023 0.1499,-0.08276 0.1499,-0.16889 V 5.97942 c -1e-5,-0.08611 -0.06437,-0.15864 -0.14987,-0.16889 z"
   id="path181"
   inkscape:connector-curvature="0"
   style="fill:#171717" />
	</g>
	<g
   id="g209">
		
			<linearGradient
   id="SVGID_10_"
   gradientUnits="userSpaceOnUse"
   x1="723.47015"
   y1="-5263.5083"
   x2="736.47015"
   y2="-5263.5083"
   gradientTransform="rotate(90,-2413.45,-2785.5602)">
			<stop
   offset="0.00559"
   style="stop-color:#303030"
   id="stop185" />
			<stop
   offset="1"
   style="stop-color:#222222"
   id="stop187" />
		</linearGradient>
		<circle
   cx="64.498062"
   cy="357.85995"
   r="6.5"
   id="circle190"
   style="fill:url(#SVGID_10_)" />
		
			<linearGradient
   id="SVGID_11_"
   gradientUnits="userSpaceOnUse"
   x1="724.15765"
   y1="-5263.5083"
   x2="735.78156"
   y2="-5263.5083"
   gradientTransform="rotate(90,-2413.45,-2785.5602)">
			<stop
   offset="0.01118"
   style="stop-color:#636363"
   id="stop192" />
			<stop
   offset="1"
   style="stop-color:#2B2B2B"
   id="stop194" />
		</linearGradient>
		<circle
   cx="64.498062"
   cy="357.85944"
   r="5.8119402"
   id="circle197"
   style="fill:url(#SVGID_11_)" />
		
			<linearGradient
   id="SVGID_12_"
   gradientUnits="userSpaceOnUse"
   x1="724.60474"
   y1="-5263.5083"
   x2="735.33447"
   y2="-5263.5083"
   gradientTransform="rotate(90,-2413.45,-2785.5602)">
			<stop
   offset="0.01118"
   style="stop-color:#4C4C4C"
   id="stop199" />
			<stop
   offset="1"
   style="stop-color:#3B3B3B"
   id="stop201" />
		</linearGradient>
		<circle
   cx="64.498062"
   cy="357.85944"
   r="5.3648701"
   id="circle204"
   style="fill:url(#SVGID_12_)" />
		<path
   d="m 67.96695,357.1705 -1.96362,-0.23526 c -0.30143,-0.0361 -0.53902,-0.2738 -0.575,-0.57526 l -0.23428,-1.96228 c -0.01022,-0.0855 -0.08276,-0.14993 -0.1689,-0.14993 H 63.971 c -0.08613,0 -0.15866,0.0644 -0.1689,0.1499 l -0.23484,1.96341 c -0.03606,0.30148 -0.27377,0.53915 -0.57526,0.57513 l -1.96276,0.23434 c -0.08553,0.0102 -0.14993,0.0827 -0.14993,0.16888 v 1.0542 c 0,0.0861 0.06438,0.15866 0.1499,0.16891 l 1.96299,0.23477 c 0.30144,0.0361 0.53906,0.27368 0.57512,0.57513 l 0.23479,1.96292 c 0.01023,0.0855 0.08277,0.1499 0.1689,0.1499 h 1.0542 c 0.08611,0 0.15865,-0.0644 0.16889,-0.14987 l 0.23521,-1.96317 c 0.03611,-0.30139 0.27373,-0.53897 0.57512,-0.57501 l 1.96249,-0.23471 c 0.08552,-0.0102 0.1499,-0.0828 0.1499,-0.16888 v -1.05426 c -1e-5,-0.0861 -0.06437,-0.1586 -0.14987,-0.16886 z"
   id="path207"
   inkscape:connector-curvature="0"
   style="fill:#171717" />
	</g>
</g>
</svg>