<?xml version="1.0" encoding="utf-8"?>
<!-- Generator: Adobe Illustrator 24.0.0, SVG Export Plug-In . SVG Version: 6.00 Build 0)  -->
<svg version="1.0" xmlns="http://www.w3.org/2000/svg" xmlns:xlink="http://www.w3.org/1999/xlink" x="0px" y="0px" width="75px"
	 height="380px" viewBox="0 0 75 380" enable-background="new 0 0 75 380" xml:space="preserve">
<symbol  id="New_Symbol_1" viewBox="-13.97357 -13.97357 27.94715 27.94715">
	<g>
		<g>
			<circle fill="#383838" cx="-0.00007" cy="-0.00007" r="12.92234"/>
			<path fill="#595959" d="M0.18597,1.05501L2.288,12.97617c0.05171,0.29326,0.33814,0.49424,0.62912,0.43093
				c1.85517-0.40365,3.6086-1.1885,5.14775-2.30675s2.82742-2.54334,3.78459-4.18297
				c0.15013-0.25717,0.0475-0.59169-0.21543-0.73149L0.94589,0.5029C0.56149,0.29851,0.11038,0.62627,0.18597,1.05501z"/>
			<path fill="#595959" d="M1.06087,0.14903l11.99056,1.68516c0.29285,0.04116,0.57099-0.16778,0.60057-0.46203
				c0.04584-0.45586,0.06881-0.91385,0.06881-1.37224c0-3.37255-1.24344-6.62313-3.47967-9.13118
				C10.04268-9.35383,9.6922-9.35978,9.47769-9.15263L0.77061-0.7443C0.45744-0.44188,0.62975,0.08844,1.06087,0.14903z"/>
			<path fill="#595959" d="M0.46959-0.96301L5.7761-11.84296c0.13054-0.26765,0.01695-0.59861-0.25567-0.71842
				c-1.73813-0.76388-3.618-1.15957-5.52049-1.15957s-3.78237,0.39569-5.52049,1.15957
				c-0.27262,0.11981-0.38621,0.45077-0.25567,0.71842l5.30651,10.87995C-0.27887-0.57171,0.27874-0.57171,0.46959-0.96301z"/>
			<path fill="#595959" d="M-0.77074-0.7443l-8.70708-8.40833c-0.21451-0.20715-0.56499-0.20119-0.76345,0.02138
				c-2.23623,2.50805-3.47967,5.75863-3.47967,9.13118c0,0.45839,0.02297,0.91638,0.06881,1.37224
				c0.02958,0.29424,0.30772,0.50319,0.60057,0.46203L-1.061,0.14903C-0.62988,0.08844-0.45757-0.44188-0.77074-0.7443z"/>
			<path fill="#595959" d="M-0.94602,0.5029l-10.68813,5.68298c-0.26293,0.1398-0.36556,0.47432-0.21543,0.73149
				c0.95718,1.63964,2.24545,3.06472,3.78459,4.18297s3.29258,1.9031,5.14775,2.30675
				c0.29098,0.06331,0.57741-0.13767,0.62912-0.43093l2.10202-11.92115C-0.11051,0.62627-0.56163,0.29851-0.94602,0.5029z"/>
		</g>
		<path fill="#424242" d="M-0.00007-0.01736l1.98739,11.27106c1.71216-0.3019,3.33323-0.99,4.73977-2.01191
			s2.5619-2.351,3.37811-3.88607L-0.00007-0.01736z"/>
		<path fill="#424242" d="M-0.00007-0.01736l11.33355,1.59283c0.07416-0.5277,0.11138-1.05994,0.11138-1.59283
			c0-2.96519-1.15234-5.81734-3.21214-7.95032L-0.00007-0.01736z"/>
		<path fill="#424242" d="M-0.00007-0.01736L5.01706-10.304c-1.56262-0.76214-3.27855-1.15829-5.01713-1.15829
			s-3.45451,0.39615-5.01713,1.15829L-0.00007-0.01736z"/>
		<path fill="#424242" d="M-0.00007-0.01736l-8.23279-7.95032C-10.29265-5.8347-11.445-2.98255-11.445-0.01736
			c0,0.53289,0.03722,1.06512,0.11138,1.59283L-0.00007-0.01736z"/>
		<path fill="#424242" d="M-0.00007-0.01736l-10.10527,5.37307c0.81621,1.53507,1.97158,2.86417,3.37811,3.88607
			s3.02761,1.71001,4.73977,2.01191L-0.00007-0.01736z"/>
		<circle fill="#424242" cx="-0.00007" cy="-0.01736" r="10.34727"/>
		<g>
			<path fill="#FCFCFC" d="M-0.00025,2.79876c-0.04639,0-0.1984,0.01382-0.22998,0.19297L-2,13.02897
				c-0.01184,0.06514,0.00395,0.13276,0.04244,0.18606c0.03751,0.05083,0.09081,0.08291,0.15003,0.0913
				c0.59815,0.08094,1.20617,0.1219,1.80728,0.1219s1.20913-0.04096,1.80728-0.12239
				c0.05922-0.0079,0.11252-0.03998,0.15003-0.09081c0.03849-0.05379,0.05527-0.12141,0.04343-0.18655L0.23072,2.99222
				C0.19914,2.81258,0.04614,2.79876-0.00025,2.79876z"/>
			<path fill="#B2B2B2" d="M-0.00007,13.13559c0.56724,0,1.13962-0.03726,1.70239-0.11081l-1.70267-9.65593l-1.7166,9.65402
				C-1.14951,13.09768-0.57216,13.13559-0.00007,13.13559 M-0.00007,13.72081c-0.6179,0-1.23489-0.04174-1.84677-0.12488
				c-0.29416-0.03998-0.49323-0.32524-0.44167-0.6176l1.76975-10.03677c0.05116-0.29016,0.28493-0.43523,0.51869-0.43523
				S0.46746,2.6514,0.51862,2.94156l1.76975,10.03677c0.05156,0.29235-0.14751,0.57762-0.44167,0.6176
				C1.23483,13.67906,0.61784,13.72081-0.00007,13.72081L-0.00007,13.72081z"/>
		</g>
		<g>
			<path fill="#FCFCFC" d="M-1.58642,6.4069c-0.23097,0-0.41851,0.18704-0.41851,0.41752v6.18629
				c0,0.23047,0.18754,0.41752,0.41851,0.41752h3.17334c0.22998,0,0.41752-0.18704,0.41752-0.41752V6.82442
				c0-0.23047-0.18754-0.41752-0.41752-0.41752H-1.58642z"/>
			<path fill="#B2B2B2" d="M1.58645,13.13559c0.06884,0,0.12485-0.056,0.12485-0.12485V6.8243
				c0-0.06884-0.05601-0.12485-0.12485-0.12485h-3.17303c-0.06884,0-0.12485,0.05601-0.12485,0.12485v6.18645
				c0,0.06884,0.05601,0.12485,0.12485,0.12485H1.58645 M1.58645,13.72081h-3.17303c-0.39215,0-0.71006-0.31791-0.71006-0.71006
				V6.8243c0-0.39215,0.31791-0.71006,0.71006-0.71006h3.17303c0.39216,0,0.71006,0.3179,0.71006,0.71006v6.18645
				C2.29651,13.4029,1.97861,13.72081,1.58645,13.72081L1.58645,13.72081z"/>
		</g>
		<rect x="-2.29664" y="7.66824" opacity="0.36" fill="#969696" width="4.59315" height="4.15032"/>
		
			<circle fill="#F3F3F3" stroke="#B2B2B2" stroke-width="0.57857" stroke-miterlimit="10" cx="-0.00007" cy="-0.00966" r="8.92932"/>
		<g>
			<path fill="#141414" d="M0,13.72089c0.61789,0,1.23479-0.04183,1.84676-0.12486c0.29214-0.0397,0.49058-0.32148,0.44272-0.61168
				c-0.00052-0.00272-0.00103-0.00544-0.00151-0.00818l-0.0459-0.26107l0.04639,0.2633
				c0.00035,0.00198,0.00069,0.00398,0.00102,0.00595c0.04865,0.25244,0.27159,0.4345,0.51945,0.43447
				c0.03571,0,0.07199-0.00379,0.10828-0.01168c1.85515-0.4037,3.60839-1.18852,5.14768-2.30685
				c1.53929-1.11819,2.82738-2.54323,3.78457-4.18284c0.15028-0.25724,0.04763-0.59173-0.21542-0.73152L11.408,6.06563
				c0.69512-1.30487,1.16274-2.74571,1.37495-4.26908l0.26847,0.03763c0.02481,0.00349,0.04952,0.00519,0.07398,0.00519
				c0.26426,0,0.49953-0.1979,0.52664-0.46712C13.69794,0.91635,13.72089,0.45836,13.72089,0
				c0-3.3726-1.24343-6.62319-3.47983-9.13126c-0.10234-0.11482-0.24514-0.17199-0.38885-0.17199
				c-0.13487,0-0.27056,0.05035-0.37437,0.15064L9.28931-8.97049c-1.04108-1.07786-2.26896-1.96793-3.62984-2.63319l0.11671-0.23936
				c0.13054-0.26748,0.01703-0.59852-0.25589-0.71832C3.78235-13.32533,1.90252-13.72089,0-13.72089
				s-3.78235,0.39556-5.52053,1.15953c-0.27268,0.1198-0.38618,0.45084-0.25564,0.71832l0.11671,0.23936
				c-1.36112,0.66526-2.58876,1.55534-3.62984,2.63319L-9.47784-9.1526c-0.10383-0.10031-0.23954-0.15064-0.37449-0.15064
				c-0.14376,0-0.28665,0.05718-0.38899,0.17199C-12.47746-6.62319-13.72089-3.3726-13.72089,0
				c0,0.45836,0.02295,0.91635,0.06885,1.37224c0.02711,0.26923,0.26236,0.46715,0.52664,0.46712
				c0.02444,0,0.04918-0.0017,0.07398-0.00519l0.26823-0.03776c0.21246,1.52339,0.67983,2.96435,1.37519,4.26921l-0.22603,0.1203
				c-0.26304,0.13978-0.36569,0.47428-0.21567,0.73152c0.95744,1.63961,2.24552,3.06465,3.78482,4.18284
				c1.53905,1.11832,3.29253,1.90315,5.14768,2.30685c0.03633,0.0079,0.07259,0.01169,0.10832,0.01169
				c0.25044,0,0.47532-0.18587,0.52067-0.44241l-0.00024,0.00198c-0.05158,0.29228,0.14757,0.57766,0.4417,0.61764
				C-1.23503,13.67906-0.61789,13.72089,0,13.72089 M0,13.97357c-0.62632,0-1.2591-0.04278-1.88075-0.12716
				c-0.2041-0.02775-0.38464-0.13436-0.50964-0.30066c-0.12259,0.07961-0.26708,0.12574-0.41849,0.12574
				c-0.05428,0-0.10879-0.00587-0.16204-0.01747c-1.90327-0.41416-3.66709-1.20459-5.2425-2.34933
				c-1.57529-1.14435-2.87214-2.57757-3.85449-4.25984c-0.10598-0.18173-0.13218-0.39463-0.07386-0.59964
				c0.05871-0.20637,0.20056-0.38221,0.38916-0.48243l0.00493-0.00263c-0.61247-1.2065-1.03177-2.50902-1.24853-3.87859
				l-0.02,0.00281c-0.03662,0.00515-0.07314,0.00765-0.1092,0.00765c-0.39707,0.00003-0.73884-0.30503-0.77805-0.69448
				C-13.94998,0.93538-13.97357,0.46518-13.97357,0c0-3.43377,1.25849-6.73637,3.54366-9.29941
				c0.14529-0.16301,0.35583-0.25651,0.57759-0.25651c0.20679,0,0.40213,0.0787,0.55005,0.22159l0.00853,0.00824
				c0.96477-0.96105,2.07211-1.76417,3.29755-2.39164l-0.0071-0.01456c-0.09362-0.19184-0.10497-0.41746-0.0311-0.61894
				c0.07337-0.20013,0.21976-0.3569,0.41223-0.44146C-3.83941-13.57627-1.94783-13.97357,0-13.97357
				c1.94791,0,3.83942,0.39731,5.62198,1.1809c0.19247,0.08449,0.33897,0.24127,0.41239,0.44143
				c0.0739,0.20147,0.06257,0.4271-0.03111,0.61903l-0.00707,0.01449c1.22561,0.62765,2.33296,1.43076,3.29756,2.39163
				l0.00854-0.00825c0.1479-0.14289,0.3432-0.22158,0.54993-0.22158c0.22168,0,0.43217,0.0935,0.57748,0.25654
				c2.2853,2.5629,3.54388,5.8655,3.54388,9.29938c0,0.46518-0.02359,0.93538-0.07012,1.39755
				c-0.03921,0.38943-0.38098,0.69449-0.77805,0.69449c-0.03608,0-0.07253-0.0025-0.10914-0.00764l-0.02024-0.00284
				c-0.21647,1.36892-0.63567,2.67133-1.24837,3.87858l0.00511,0.00272c0.18853,0.10019,0.33038,0.27609,0.38903,0.48252
				c0.05825,0.20504,0.03192,0.41794-0.07415,0.59951c-0.982,1.68212-2.27877,3.11535-3.85425,4.25982
				c-1.57573,1.1448-3.33956,1.93523-5.24246,2.34932C2.91772,13.66561,2.86324,13.67148,2.809,13.6715
				c-0.15309,0.00001-0.29766-0.04516-0.4199-0.12402c-0.12498,0.16527-0.30514,0.27131-0.5083,0.29892
				C1.25885,13.93079,0.62608,13.97357,0,13.97357L0,13.97357z"/>
		</g>
	</g>
</symbol>
<symbol  id="New_Symbol_3" viewBox="-17.67266 -17.67271 35.34532 35.34532">
	<g>
		<g>
			<g>
				<polyline fill="none" stroke="#262626" stroke-width="1.65681" stroke-linejoin="round" stroke-miterlimit="10" points="
					-11.91069,-11.91073 0,-0.00005 11.91069,-11.91073 				"/>
				<circle fill="#E5E5E5" cx="0" cy="-0.00005" r="16.84425"/>
				
					<path fill="#E5E5E5" stroke="#262626" stroke-width="1.65681" stroke-linecap="round" stroke-linejoin="round" stroke-miterlimit="10" d="
					M14.15755-9.13026c1.69995,2.63056,2.68671,5.76515,2.68671,9.13022c0,9.30282-7.54143,16.84425-16.84425,16.84425
					S-16.84425,9.30278-16.84425-0.00005c0-3.28493,0.94032-6.35024,2.56648-8.94144"/>
				
					<path fill="#E5E5E5" stroke="#262626" stroke-width="1.65681" stroke-linecap="round" stroke-linejoin="round" stroke-miterlimit="10" d="
					M-11.9107-11.91072C-8.86249-14.95894-4.65142-16.8443,0-16.8443c4.65141,0,8.86247,1.88536,11.91068,4.93356"/>
			</g>
		</g>
	</g>
	
		<use xlink:href="#New_Symbol_1"  width="27.94715" height="27.94715" x="-13.97357" y="-13.97357" transform="matrix(1 0 0 1 8.872170e-06 -0.00002)" overflow="visible"/>
</symbol>
<g id="base" display="none">
</g>
<g id="GUIDES" display="none">
</g>
<g id="bg">
	<linearGradient id="SVGID_1_" gradientUnits="userSpaceOnUse" x1="-73.76253" y1="79.64854" x2="149.23051" y2="302.6416">
		<stop  offset="0.38537" style="stop-color:#FFCC9E"/>
		<stop  offset="0.62112" style="stop-color:#F1AD8C"/>
		<stop  offset="0.85662" style="stop-color:#E6947E"/>
		<stop  offset="1" style="stop-color:#E28B79"/>
	</linearGradient>
	<rect x="2.28338" y="3.60264" fill="url(#SVGID_1_)" width="70.90122" height="375.08487"/>
	<g>
		<path fill="#252626" d="M23.43164,331.22168c0.6875,0.21484,1.41992-0.16797,1.63281-0.85059
			c0.21387-0.68164-0.16992-1.41406-0.85645-1.62891c-0.69238-0.2168-1.4248,0.16602-1.6377,0.84863
			C22.35645,330.27246,22.74023,331.00488,23.43164,331.22168z"/>
		<path fill="#252626" d="M10.57031,103.27051c-0.07129-0.1416-0.24512-0.19531-0.38086-0.12695l-0.61133,0.30566l0.25488,0.50879
			l0.61035-0.30566C10.58105,103.58398,10.64063,103.41211,10.57031,103.27051z"/>
		<path fill="#252626" d="M29.80176,107.0127l-0.44727,0.34961l0.41992,0.53906c0.09277,0.12109,0.27246,0.14648,0.39746,0.0498
			c0.12598-0.09766,0.14355-0.27832,0.05078-0.40039L29.80176,107.0127z"/>
		<path fill="#252626" d="M45.39844,319.99316l-1.21777,2.13281l0.50293,0.28711c0.60645,0.34668,1.37305,0.14844,1.70898-0.43848
			c0.33496-0.58887,0.11719-1.34766-0.49023-1.69434L45.39844,319.99316z"/>
		<polygon fill="#252626" points="32.74023,12.0332 32.36426,13.18164 33.10449,13.18164 		"/>
		<path fill="#252626" d="M52.16504,327.02148c0.13184-0.07617,0.18262-0.25098,0.10938-0.37891l-0.33203-0.57617l-0.4873,0.28027
			l0.33203,0.57617C51.86426,327.05664,52.0332,327.09766,52.16504,327.02148z"/>
		<path fill="#252626" d="M0,0v380h75V0H0z M66.35229,116.94623c0.23096,0.28668,0.25,0.70404,0.0188,1.01324
			c-0.27368,0.36713-0.7915,0.44336-1.15869,0.1698c-4.72314-3.51477-11.22778-3.38684-15.81934,0.31262
			c-5.54907,4.47083-6.42627,12.62317-1.95557,18.17218c4.47095,5.54895,12.62329,6.42615,18.17236,1.95532
			c4.4502-3.58551,6.02319-9.76904,3.82446-15.03674c-0.17627-0.42242,0.02393-0.90723,0.4458-1.08405
			c0.42236-0.17609,0.9082,0.02063,1.08398,0.4458c2.479,5.94379,0.70532,12.91968-4.31519,16.96466
			c-6.26074,5.04437-15.45654,4.05487-20.50098-2.20587c-5.04443-6.2608-4.05493-15.45673,2.20581-20.50104
			c5.17944-4.17303,12.51953-4.31812,17.84741-0.35138C66.25928,116.84314,66.30884,116.89221,66.35229,116.94623z
			 M38.67871,314.11633v20.33875c0,0.41406-0.33594,0.75-0.75,0.75s-0.75-0.33594-0.75-0.75v-20.29877
			c-4.5918-0.08661-8.89917-1.90216-12.15625-5.15924c-0.32324-0.32324-0.32324-0.84863,0-1.17188
			c0.32422-0.32227,0.84766-0.32227,1.17188,0c3.02441,3.02539,7.04688,4.69141,11.32422,4.69141s8.2998-1.66602,11.3252-4.69141
			c0.32422-0.32227,0.84766-0.32227,1.17188,0c0.32324,0.32422,0.32324,0.84863,0,1.17188
			C46.95264,312.05914,42.96069,313.83984,38.67871,314.11633z M47.02246,322.33496
			c-0.53027,0.92871-1.74023,1.24316-2.69336,0.69922l-1.13281-0.64746l1.92676-3.375l1.13281,0.64746
			C47.20898,320.20313,47.55371,321.40527,47.02246,322.33496z M30.59766,320.77051l1.41797-0.73145l0.33301,0.64648
			l-1.41797,0.73145l0.53027,1.0293l1.58301-0.81641l0.33105,0.63965l-2.23242,1.1543l-1.78516-3.45801l2.27734-1.1748
			l0.32617,0.63086l-1.62695,0.83984L30.59766,320.77051z M24.06934,235.47949c0.06055,0.11035,0.17871,0.22949,0.37695,0.39258
			c0.02734,0.01855,0.06152,0.04883,0.09473,0.07813c0.18555,0.1416,0.42969,0.33789,0.5625,0.5459
			c0.12109,0.17188,0.18652,0.35742,0.20313,0.54297s-0.02344,0.37402-0.11133,0.54883
			c-0.11133,0.21973-0.26855,0.38477-0.46875,0.49121c-0.17383,0.08984-0.38574,0.13672-0.63477,0.13184
			c-0.21484,0.00293-0.4248-0.05469-0.66406-0.17578c-0.11133-0.05566-0.22168-0.12891-0.33105-0.21582
			c-0.32422-0.25488-0.58691-0.60645-0.75879-1.0293l-0.05078-0.13086l0.67578-0.27051l0.0498,0.12988
			c0.12695,0.30762,0.30957,0.56445,0.52832,0.73633l0.00391,0.00293c0.06641,0.05078,0.13477,0.09863,0.20898,0.13477
			c0.12109,0.06152,0.24512,0.09277,0.35938,0.0957c0.14258,0.01172,0.33203-0.02734,0.43359-0.22656
			c0.05273-0.1084,0.04199-0.21875-0.03613-0.3418c-0.09473-0.15234-0.25684-0.29004-0.37695-0.38086
			c-0.05371-0.03809-0.49902-0.39258-0.66406-0.63379c-0.10449-0.16992-0.16211-0.3457-0.17676-0.52344
			c-0.01172-0.18359,0.0293-0.35938,0.11523-0.5293c0.09277-0.18457,0.24414-0.34082,0.44336-0.45508
			c0.17773-0.08789,0.38281-0.13086,0.60059-0.125c0.2168,0.00586,0.43457,0.05957,0.64355,0.16602
			c0.08398,0.04199,0.16699,0.0957,0.24902,0.14941c0.29199,0.2207,0.53613,0.52734,0.69531,0.90137l0.05273,0.12402
			l-0.66699,0.29297l-0.05371-0.125c-0.18652-0.41699-0.43066-0.61328-0.60449-0.70117
			c-0.11328-0.05859-0.22754-0.08496-0.33594-0.08984c-0.16699-0.00586-0.31445,0.06836-0.37305,0.18457
			C24.00391,235.28125,24.00879,235.36914,24.06934,235.47949z M19.56934,233.47461l0.14941-0.70605l2.58984,0.55078
			l-0.15137,0.70508l-0.93457-0.19824l-0.66016,3.10254l-0.71582-0.15234l0.6582-3.10352L19.56934,233.47461z M15.92871,211.5
			c0-9.48242,6.33984-17.99805,15.41699-20.70801c0.40234-0.12012,0.81445,0.1084,0.93359,0.50391
			c0.11816,0.39746-0.10742,0.81543-0.50391,0.93359c-8.44727,2.52148-14.34668,10.44629-14.34668,19.27051
			s5.89941,16.74902,14.34668,19.27051c0.39648,0.11816,0.62207,0.53613,0.50391,0.93359
			c-0.09766,0.3252-0.39551,0.53516-0.71875,0.53516c-0.07031,0-0.14258-0.00977-0.21484-0.03125
			C22.26855,229.49805,15.92871,220.98242,15.92871,211.5z M32.58008,127.01953c-0.18066,0-0.36035-0.05957-0.52051-0.17969
			c-0.34961-0.29004-0.41016-0.80957-0.12012-1.16992c0.28027-0.35059,0.80078-0.41016,1.16016-0.12012
			c0.36035,0.28027,0.41016,0.80957,0.12988,1.16016C33.05957,126.91992,32.81934,127.01953,32.58008,127.01953z
			 M35.51953,202.37012c-0.45996,0-0.83008-0.37012-0.83008-0.83008s0.37012-0.83008,0.83008-0.83008
			s0.83008,0.37012,0.83008,0.83008S35.97949,202.37012,35.51953,202.37012z M36.33984,205.17969
			c0,0.11035-0.02051,0.21973-0.06055,0.31055c-0.03906,0.10938-0.09961,0.19922-0.17969,0.26953
			c-0.08008,0.08008-0.16992,0.13965-0.26953,0.17969c-0.10059,0.04004-0.2002,0.07031-0.31055,0.07031
			c-0.10938,0-0.21973-0.03027-0.31934-0.07031c-0.10059-0.04004-0.19043-0.09961-0.27051-0.17969
			c-0.07031-0.07031-0.13965-0.16016-0.17969-0.26953c-0.04004-0.09082-0.06055-0.2002-0.06055-0.31055
			c0-0.21973,0.08984-0.43945,0.24023-0.58984c0.08008-0.08008,0.16992-0.13965,0.27051-0.17969
			c0.30957-0.12988,0.67969-0.05078,0.89941,0.17969C36.25977,204.74023,36.33984,204.95996,36.33984,205.17969z
			 M35.51953,198.74023c-0.45996,0-0.83008-0.37012-0.83008-0.83008s0.37012-0.83008,0.83008-0.83008
			s0.83008,0.37012,0.83008,0.83008S35.97949,198.74023,35.51953,198.74023z M35.51953,195.10938
			c-0.45996,0-0.83008-0.37988-0.83008-0.8291c0-0.46094,0.37012-0.83008,0.83008-0.83008s0.83008,0.36914,0.83008,0.83008
			C36.34961,194.72949,35.97949,195.10938,35.51953,195.10938z M35.51953,191.46973c-0.45996,0-0.83008-0.37012-0.83008-0.82031
			c0-0.45996,0.37012-0.83008,0.83008-0.83008s0.83008,0.37012,0.83008,0.83008
			C36.34961,191.09961,35.97949,191.46973,35.51953,191.46973z M35.51953,187.83984c-0.45996,0-0.83008-0.37012-0.83008-0.82031
			c0-0.45996,0.37012-0.83008,0.83008-0.83008s0.83008,0.37012,0.83008,0.83008
			C36.34961,187.46973,35.97949,187.83984,35.51953,187.83984z M35.51953,184.20996c-0.45996,0-0.83008-0.37012-0.83008-0.82031
			c0-0.45996,0.37012-0.83008,0.83008-0.83008s0.83008,0.37012,0.83008,0.83008
			C36.34961,183.83984,35.97949,184.20996,35.51953,184.20996z M35.51953,180.58008c-0.45996,0-0.83008-0.37012-0.83008-0.82031
			c0-0.45996,0.37012-0.83008,0.83008-0.83008s0.83008,0.37012,0.83008,0.83008
			C36.34961,180.20996,35.97949,180.58008,35.51953,180.58008z M35.51953,176.9502c-0.45996,0-0.83008-0.37012-0.83008-0.83008
			c0-0.4502,0.37012-0.82031,0.83008-0.82031s0.83008,0.37012,0.83008,0.82031
			C36.34961,176.58008,35.97949,176.9502,35.51953,176.9502z M35.51953,173.31934c-0.45996,0-0.83008-0.36914-0.83008-0.8291
			s0.37012-0.83008,0.83008-0.83008s0.83008,0.37012,0.83008,0.83008S35.97949,173.31934,35.51953,173.31934z M35.51953,169.68945
			c-0.45996,0-0.83008-0.37012-0.83008-0.83008c0-0.44922,0.37012-0.8291,0.83008-0.8291s0.83008,0.37988,0.83008,0.8291
			C36.34961,169.31934,35.97949,169.68945,35.51953,169.68945z M35.51953,166.05957c-0.45996,0-0.83008-0.37012-0.83008-0.83008
			c0-0.44922,0.37012-0.83008,0.83008-0.83008s0.83008,0.38086,0.83008,0.83008
			C36.34961,165.68945,35.97949,166.05957,35.51953,166.05957z M35.51953,162.42969c-0.45996,0-0.83008-0.37012-0.83008-0.83008
			c0-0.4502,0.37012-0.83008,0.83008-0.83008s0.83008,0.37988,0.83008,0.83008
			C36.34961,162.05957,35.97949,162.42969,35.51953,162.42969z M35.51953,158.7998c-0.45996,0-0.83008-0.37012-0.83008-0.83008
			s0.37012-0.83008,0.83008-0.83008s0.83008,0.37012,0.83008,0.83008S35.97949,158.7998,35.51953,158.7998z M35.51953,155.16992
			c-0.45996,0-0.83008-0.37012-0.83008-0.83008s0.37012-0.83008,0.83008-0.83008s0.83008,0.37012,0.83008,0.83008
			S35.97949,155.16992,35.51953,155.16992z M35.51953,151.54004c-0.45996,0-0.83008-0.37012-0.83008-0.83008
			s0.37012-0.83008,0.83008-0.83008s0.83008,0.37012,0.83008,0.83008S35.97949,151.54004,35.51953,151.54004z M35.51953,147.91016
			c-0.45996,0-0.83008-0.37988-0.83008-0.83008c0-0.45996,0.37012-0.83008,0.83008-0.83008s0.83008,0.37012,0.83008,0.83008
			C36.34961,147.53027,35.97949,147.91016,35.51953,147.91016z M35.51953,144.26953c-0.45996,0-0.83008-0.37012-0.83008-0.81934
			c0-0.45996,0.37012-0.83008,0.83008-0.83008s0.83008,0.37012,0.83008,0.83008
			C36.34961,143.89941,35.97949,144.26953,35.51953,144.26953z M35.51953,140.63965c-0.45996,0-0.83008-0.37012-0.83008-0.82031
			c0-0.45996,0.37012-0.8291,0.83008-0.8291s0.83008,0.36914,0.83008,0.8291
			C36.34961,140.26953,35.97949,140.63965,35.51953,140.63965z M35.51953,137.01953c-0.45996,0-0.83008-0.37012-0.83008-0.83008
			s0.37012-0.83008,0.83008-0.83008s0.83008,0.37012,0.83008,0.83008S35.97949,137.01953,35.51953,137.01953z M35.51953,133.37988
			c-0.45996,0-0.83008-0.37012-0.83008-0.82031c0-0.45996,0.37012-0.83008,0.83008-0.83008s0.83008,0.37012,0.83008,0.83008
			C36.34961,133.00977,35.97949,133.37988,35.51953,133.37988z M35.13965,129.78027c-0.11035,0.0498-0.22949,0.0791-0.33984,0.0791
			c-0.32031,0-0.61035-0.17969-0.75977-0.47949c-0.19043-0.41992-0.01074-0.91016,0.41016-1.09961
			c0.41992-0.19043,0.90918-0.01074,1.09961,0.39941C35.74023,129.09961,35.55957,129.58984,35.13965,129.78027z M40.89844,91.69531
			l0.12012-1.5918l0.72559,0.05566L41.62305,91.75l1.1543,0.08789l0.13672-1.77637l0.71875,0.05566l-0.19238,2.50586
			l-3.87793-0.29492l0.19434-2.55664l0.70801,0.05469l-0.13867,1.8252L40.89844,91.69531z M40.91992,94.1582l0.71582-0.13281
			l0.29199,1.57031l1.13867-0.21289l-0.3252-1.75195l0.70898-0.13184l0.45996,2.47168l-3.82617,0.71191l-0.46875-2.52051
			l0.69922-0.12891l0.33398,1.7998l0.56445-0.10449L40.91992,94.1582z M41.24609,99.78125
			c-0.11035-0.2373-0.12109-0.50391-0.03027-0.75879c0.09277-0.25391,0.26953-0.45215,0.50684-0.56348
			c0.35156-0.16602,0.76563-0.10742,1.05762,0.12988l1.1875-2.1582l0.36816,0.78125l-1.13281,2.05859l0.13281,0.28223
			l1.71875-0.80957l0.30273,0.6416l-3.51758,1.65625L41.24609,99.78125z M43.29883,101.97852l1.19824,1.38086l0.43262-0.37402
			l-0.66113-0.76367l0.54492-0.47168l0.66113,0.7627l1.41895-1.22949l0.47559,0.5498l-2.9375,2.54395l-1.67285-1.93164
			L43.29883,101.97852z M59.05762,75.76367l0.71191,0.16211L59.0625,79.0166l1.93164,0.44238l-0.16016,0.69531l-2.64355-0.60449
			L59.05762,75.76367z M57.48828,79.45313l-2.71289,0.10352l-0.14844-3.88867l0.73145-0.02734l0.12109,3.17285l1.98145-0.0752
			L57.48828,79.45313z M55.83081,45.24982c0.41992-0.17664,0.90601,0.02209,1.08301,0.44196
			c0.177,0.41962-0.02222,0.90558-0.44189,1.08246c-0.10522,0.04419-0.21582,0.06635-0.32056,0.06635
			c-0.32593,0-0.63013-0.18799-0.76245-0.50269C55.20654,45.91266,55.40527,45.4267,55.83081,45.24982z M55.23682,51.6084
			c0.04443,0.45844-0.2876,0.86157-0.74023,0.90558c-0.02808,0.00562-0.05566,0.00562-0.08301,0.00562
			c-0.41992,0-0.78467-0.3147-0.82349-0.74561c-0.04956-0.45276,0.2876-0.86157,0.74048-0.90576
			C54.78369,50.8186,55.19263,51.15002,55.23682,51.6084z M48.61133,8.9834h5.3584v1.87891H50.5332v0.67383h3.00586v1.91113H50.5332
			v1.50195h3.35938v1.90039h-5.28125V8.9834z M53.53906,79.83301l-0.70703,0.18457l-0.98242-3.75781l0.70703-0.18555
			L53.53906,79.83301z M48.85156,81.92578l-0.57227,0.35156l-2.95508-2.74414l0.65039-0.40039l2.125,1.98145l-0.05273-1.74512
			l0.57031-0.35156l1.52734,0.84277l-0.79785-2.79395l0.64648-0.39648l1.10449,3.87891l-0.57227,0.35059l-1.73828-0.95605
			L48.85156,81.92578z M50.25293,42.19208c-0.1604,0.16016-0.37012,0.23755-0.58008,0.23755
			c-0.21533,0-0.43115-0.08276-0.59131-0.24866c-0.32056-0.32574-0.32056-0.85052,0.01123-1.17059
			c0.32593-0.32037,0.85083-0.31494,1.17139,0.01105C50.58472,41.34717,50.57861,41.8717,50.25293,42.19208z M47.7998,36.76886
			c0.25439-0.38104,0.76807-0.48596,1.14941-0.2265c0.38086,0.25397,0.48022,0.7677,0.22607,1.14874
			c-0.16016,0.23755-0.41992,0.36456-0.68457,0.36456c-0.1604,0-0.32056-0.04419-0.46484-0.13806
			C47.64502,37.65796,47.5459,37.14447,47.7998,36.76886z M39.03516,8.9834h5.5127v1.90039h-1.80078v5.96582h-1.91113v-5.96582
			h-1.80078V8.9834z M44.12549,37.82916c-0.12158,0.33679-0.44189,0.54688-0.7793,0.54688
			c-0.09375,0-0.18774-0.01672-0.28174-0.04987c-0.43091-0.15454-0.65161-0.62939-0.49731-1.06036
			c0.15479-0.4306,0.63013-0.65173,1.06079-0.49695C44.05908,36.92334,44.28027,37.3985,44.12549,37.82916z M42.36865,34.49341
			c-0.08325,0.39209-0.42578,0.66284-0.81274,0.66284c-0.05493,0-0.11011-0.00568-0.16577-0.01672
			c-0.44727-0.09381-0.73486-0.53015-0.64624-0.97754c0.08838-0.44733,0.5249-0.73425,0.97827-0.64612
			C42.16943,33.60437,42.45703,34.04608,42.36865,34.49341z M48.97266,66.44727c0.32422-0.32227,0.84766-0.32422,1.17188,0
			c0.32324,0.32324,0.32324,0.84766,0,1.17188c-3.19385,3.19495-7.3999,4.99634-11.89453,5.14648v5.90039
			c0,1.94434,1.06543,3.72363,2.7793,4.64355l17.20313,9.22754c0.36523,0.19629,0.50195,0.65039,0.30664,1.01563
			c-0.13574,0.25195-0.39453,0.39551-0.66211,0.39551c-0.11914,0-0.24023-0.02832-0.35352-0.08887l-17.20313-9.22754
			C38.11816,83.4502,36.75,81.16406,36.75,78.66602v-5.91486c-4.38184-0.21881-8.47437-2.00769-11.59863-5.13202
			c-0.32324-0.32324-0.32324-0.84863,0-1.17188c0.32422-0.32227,0.84766-0.32227,1.17188,0
			c3.02441,3.02539,7.04688,4.69141,11.3252,4.69141S45.94922,69.47266,48.97266,66.44727z M29.54785,108.61719l-0.68262,2.36914
			l-0.53125-0.67969l0.65039-2.26172l-0.19141-0.24609l-1.5,1.16992l-0.43848-0.55957l3.07129-2.39453l0.85645,1.10059
			c0.16211,0.20703,0.23047,0.46484,0.19727,0.73242c-0.0332,0.26855-0.16309,0.50195-0.36914,0.66406
			C30.30273,108.75,29.88672,108.78418,29.54785,108.61719z M30.17969,124.75977c-0.15039,0.27051-0.42969,0.42969-0.72949,0.42969
			c-0.13086,0-0.27051-0.0293-0.39063-0.09961c-0.39941-0.20996-0.55957-0.71973-0.33984-1.12012s0.71973-0.5498,1.12012-0.33984
			C30.25,123.84961,30.39941,124.34961,30.17969,124.75977z M23.65625,105.06934l-0.03613,0.02246
			c-0.54199,0.37402-1.22168,0.47266-1.82617,0.26563c-1.05957-0.35938-1.62891-1.51563-1.26758-2.58008
			c0.36035-1.06055,1.51758-1.62891,2.57617-1.26953c0.25879,0.08887,0.49414,0.22656,0.69238,0.40332
			c0.2002,0.17676,0.36426,0.38867,0.47949,0.62891l0.06445,0.13184l-0.66504,0.27539l-0.05957-0.1123
			c-0.14551-0.30273-0.40918-0.52539-0.74609-0.63965c-0.68066-0.23145-1.42285,0.13379-1.6543,0.81641
			c-0.2334,0.6875,0.12891,1.43262,0.81152,1.66504c0.34668,0.11719,0.70996,0.08496,1.03613-0.08105l0.26074-0.76465
			l-1.00781-0.3418l0.2334-0.6875l1.68457,0.57227L23.65625,105.06934z M23.7793,121.31934
			c-0.14941,0.28027-0.42969,0.44043-0.72949,0.44043c-0.12988,0-0.25977-0.03027-0.38965-0.09961
			c-0.40039-0.20996-0.55078-0.7207-0.34082-1.12012c0.2207-0.40039,0.7207-0.56055,1.12012-0.33984
			C23.84961,120.41992,24,120.91992,23.7793,121.31934z M23.875,43.66119c0.38135,0.24292,0.49756,0.75665,0.25415,1.14307
			c-0.15967,0.24866-0.43066,0.38104-0.70142,0.38104c-0.15479,0-0.30933-0.03857-0.44727-0.12701
			c-0.38696-0.24835-0.49756-0.76208-0.24878-1.14307C22.97437,43.5285,23.48877,43.41254,23.875,43.66119z M23.52686,38.81238
			c0.33203-0.315,0.85693-0.30396,1.177,0.02185c0.31519,0.32599,0.30957,0.85046-0.02222,1.17084
			c-0.15967,0.15479-0.37012,0.23193-0.57422,0.23193c-0.21582,0-0.43652-0.08282-0.59668-0.24835
			C23.19019,39.65723,23.20117,39.13245,23.52686,38.81238z M22.77588,61.75909c0.03833-0.03857,0.08252-0.07172,0.12671-0.10492
			c0.04419-0.02777,0.09399-0.05524,0.14355-0.07172c0.05029-0.02209,0.10522-0.03882,0.15503-0.04987
			c0.27075-0.0553,0.55786,0.03314,0.74609,0.2265c0.1543,0.15454,0.24292,0.37,0.24292,0.58545
			c0,0.22083-0.08862,0.43066-0.24292,0.58545c-0.03345,0.03851-0.07764,0.07172-0.12207,0.10486
			c-0.04419,0.02753-0.09375,0.0553-0.14331,0.07739c-0.04956,0.01648-0.10522,0.0329-0.15503,0.04395
			c-0.05493,0.01111-0.10986,0.01672-0.16016,0.01672c-0.2207,0-0.43066-0.08844-0.59082-0.24292
			c-0.03345-0.03888-0.07178-0.08307-0.09985-0.12701c-0.03296-0.04425-0.05493-0.09412-0.07715-0.14374
			S22.56006,62.56,22.54932,62.5047c-0.01147-0.04987-0.01685-0.10486-0.01685-0.16016
			C22.53247,62.12909,22.62109,61.91364,22.77588,61.75909z M22.54932,48.02972c-0.12158,0.34222-0.44189,0.55225-0.78467,0.55225
			c-0.08838,0-0.18237-0.01672-0.27637-0.04987c-0.43091-0.14911-0.65771-0.62402-0.50269-1.05463
			c0.15479-0.43634,0.62964-0.65723,1.06079-0.50269C22.47754,47.1239,22.69824,47.59882,22.54932,48.02972z M22.49951,58.63318
			c0.14893,0.43091-0.08301,0.90576-0.51416,1.05487c-0.08789,0.02753-0.18237,0.04425-0.27026,0.04425
			c-0.34253,0-0.6687-0.21545-0.78467-0.55792c-0.14941-0.43066,0.08276-0.90552,0.51367-1.05469
			C21.87524,57.97058,22.3501,58.20251,22.49951,58.63318z M20.98022,62.92432c0.26489-0.0553,0.55249,0.03314,0.74561,0.2265
			c0.03882,0.03857,0.07178,0.08282,0.09937,0.12701c0.03345,0.04425,0.05542,0.09387,0.07764,0.14349
			c0.02197,0.04987,0.03833,0.09949,0.04956,0.15479c0.01099,0.05524,0.01685,0.10486,0.01685,0.16016
			c0,0.22083-0.08862,0.43066-0.24341,0.58545c-0.15479,0.15448-0.37012,0.24298-0.58545,0.24298
			c-0.05542,0-0.1106-0.00568-0.16016-0.01672c-0.05566-0.01111-0.1106-0.02216-0.1604-0.04425
			c-0.04956-0.02185-0.09375-0.04962-0.13818-0.07715c-0.04956-0.02777-0.09375-0.06628-0.1272-0.10486
			c-0.15503-0.15479-0.24292-0.36462-0.24292-0.58545c0-0.0553,0.00537-0.10492,0.01636-0.16016
			c0.00586-0.0553,0.02197-0.10492,0.04419-0.15479c0.02197-0.04962,0.04956-0.09924,0.07764-0.14349
			c0.02759-0.04419,0.06641-0.08844,0.10474-0.12701c0.03345-0.03857,0.07764-0.07172,0.1272-0.09949
			c0.04443-0.0332,0.08862-0.06067,0.13818-0.07715C20.86963,62.95209,20.92456,62.93536,20.98022,62.92432z M20.58008,119.60938
			c-0.15039,0.28027-0.43066,0.43066-0.73047,0.43066c-0.12988,0-0.25977-0.03027-0.38965-0.10059
			c-0.40039-0.20996-0.5498-0.70996-0.33984-1.12012c0.21973-0.39941,0.71973-0.5498,1.12988-0.33984
			C20.64941,118.7002,20.7998,119.2002,20.58008,119.60938z M26.49805,103.21484l2.07813,1.50586l-0.41699,0.5752l-1.48438-1.0752
			l-0.33691,0.46582l1.29395,0.93652l-0.42578,0.58984l-1.29395-0.93652l-0.68066,0.93848l1.44336,1.04688l-0.42383,0.58398
			l-2.03711-1.47559L26.49805,103.21484z M25.51953,122.25977c0.2207-0.41016,0.7207-0.55957,1.12988-0.33984
			c0.40039,0.20996,0.55078,0.71973,0.33008,1.12012c-0.14941,0.2793-0.42969,0.43945-0.72949,0.43945
			c-0.12988,0-0.27051-0.04004-0.39063-0.09961C25.45996,123.16016,25.30957,122.66016,25.51953,122.25977z M29.64355,35.63116
			c-0.1709-0.42529,0.03906-0.91119,0.45874-1.07709c0.43115-0.17096,0.91187,0.0332,1.08276,0.45844
			c0.16577,0.42529-0.03857,0.91119-0.46387,1.07703c-0.09985,0.04425-0.20459,0.06073-0.30371,0.06073
			C30.08545,36.15027,29.77637,35.95148,29.64355,35.63116z M35.97021,37.47021c0,0,0,0,0.00537,0.00543
			c-0.03296,0-0.06104,0.00568-0.08838,0.00568c-0.41992,0-0.7793-0.32037-0.82349-0.74567
			c-0.04956-0.45276,0.28223-0.86157,0.73486-0.91119h0.0061c0.45264-0.04419,0.8562,0.28723,0.90576,0.73999
			C36.75488,37.01746,36.42871,37.42603,35.97021,37.47021z M31.93359,8.9834h1.61328l3.03711,7.86621h-2.06543l-0.67383-1.79004
			h-2.20996l-0.69531,1.79004h-2.0332L31.93359,8.9834z M28.33936,38.37604c0.38696-0.24323,0.89526-0.12164,1.13867,0.26508
			c0.24268,0.39209,0.12134,0.90015-0.26563,1.14313c-0.13818,0.08276-0.28711,0.12158-0.43652,0.12158
			c-0.27612,0-0.54639-0.13806-0.70679-0.39233C27.83105,39.12708,27.94727,38.61902,28.33936,38.37604z M21.39551,8.9834h5.3584
			v1.88965h-3.44727v0.67383h1.90039v1.90039h-1.90039v3.40234h-1.91113V8.9834z M20.98022,41.81104
			c0.25952-0.37537,0.77905-0.46387,1.15454-0.20441c0.37549,0.25964,0.46411,0.77338,0.20459,1.15442
			c-0.16016,0.22626-0.42041,0.35327-0.67993,0.35327c-0.16553,0-0.3313-0.04962-0.47485-0.14917
			C20.80859,42.70007,20.7146,42.18665,20.98022,41.81104z M20.84839,54.49097c0.45313-0.04987,0.86157,0.28156,0.91187,0.73431
			c0.04956,0.453-0.28223,0.86157-0.73486,0.91144c-0.03369,0.00537-0.06104,0.00537-0.08862,0.00537
			c-0.41968,0-0.77905-0.3147-0.82349-0.73993C20.06372,54.94373,20.39502,54.53491,20.84839,54.49097z M20.21191,60.0249
			c0.16016,0.42523-0.05518,0.90576-0.48096,1.06598c-0.09912,0.03857-0.19849,0.05524-0.29248,0.05524
			c-0.33716,0-0.65234-0.20435-0.77905-0.53577c-0.1604-0.42529,0.05493-0.90582,0.48071-1.06598
			C19.56543,59.37878,20.04614,59.59424,20.21191,60.0249z M18.58228,57.49005c-0.04419,0.01105-0.09448,0.01105-0.13818,0.01105
			c-0.39819,0-0.74634-0.2818-0.81812-0.69031c-0.07715-0.45306,0.23218-0.87805,0.67993-0.95007
			c0.45288-0.08276,0.87866,0.22656,0.95581,0.67389C19.33887,56.98743,19.03491,57.41266,18.58228,57.49005z M17.8252,48.98517
			c0.09937-0.44739,0.54126-0.72919,0.98901-0.6297c0.44751,0.09949,0.729,0.5412,0.62964,0.98291
			c-0.08838,0.38672-0.43115,0.65179-0.80664,0.65179c-0.06104,0-0.12134-0.00537-0.18237-0.01642
			C18.00757,49.87421,17.72534,49.4325,17.8252,48.98517z M18.19531,52.08331c0.45874,0.00537,0.81738,0.38666,0.81201,0.84485
			c-0.01074,0.453-0.38135,0.80627-0.82861,0.80627c-0.00537,0-0.01685,0-0.02222,0
			c-0.45874-0.01074-0.81738-0.39209-0.80664-0.84485C17.3606,52.43115,17.74219,52.06683,18.19531,52.08331z M17.59082,100.5625
			c0.27344,0,0.54102,0.05469,0.78613,0.15723c0.24512,0.10352,0.46973,0.25098,0.65527,0.44141l0.10352,0.10352l-0.53906,0.47559
			l-0.0918-0.08691c-0.23633-0.24023-0.55859-0.36523-0.91211-0.36523c-0.7207,0.00195-1.30371,0.58594-1.30273,1.30566
			c0.00195,0.72559,0.58496,1.31445,1.30566,1.31348c0.36523,0,0.69727-0.14746,0.95508-0.41113l-0.00195-0.80664h-1.06348
			l-0.00098-0.72363l1.7793-0.00293l0.00195,1.78906l-0.02832,0.0332c-0.3916,0.5293-1.00293,0.8418-1.64063,0.84277
			c-1.11816,0.00098-2.03125-0.90918-2.03223-2.03223C15.56348,101.47559,16.47363,100.56445,17.59082,100.5625z M17.47949,117.5
			c0,0.21973-0.08008,0.42969-0.23926,0.58008c-0.08008,0.08008-0.1709,0.13965-0.27051,0.18945
			c-0.09961,0.04004-0.20996,0.06055-0.32031,0.06055c-0.10938,0-0.20996-0.02051-0.30957-0.06055
			c-0.09961-0.0498-0.19043-0.10938-0.27051-0.18945c-0.0791-0.07031-0.13965-0.16016-0.17969-0.26074
			c-0.04004-0.09961-0.07031-0.20996-0.07031-0.31934c0-0.21973,0.09082-0.43066,0.25-0.58984
			c0.30078-0.30078,0.86035-0.30078,1.1709,0c0.0791,0.08008,0.13965,0.16992,0.17969,0.26953
			C17.45996,117.28027,17.47949,117.38965,17.47949,117.5z M13.83691,101.08105l0.92578,3.77637l-0.70996,0.17383l-0.92578-3.77539
			L13.83691,101.08105z M9.87109,102.50879c0.23535-0.11719,0.5-0.13477,0.75781-0.04883
			c0.25684,0.08496,0.45996,0.25781,0.57715,0.49316c0.17383,0.3457,0.125,0.7627-0.10547,1.05957l2.18848,1.13574l-0.77148,0.38672
			l-2.08887-1.08203l-0.27734,0.14063l0.85156,1.69922l-0.63574,0.31934L8.625,103.13281L9.87109,102.50879z M7.26953,104.08301
			l0.47754,0.53906l-0.71484,0.63477l2.10156,2.36914l-0.5459,0.48633l-2.10254-2.37012l-0.71582,0.63477l-0.47949-0.54004
			L7.26953,104.08301z M6.99561,145.98376c5.80786-5.80792,15.22437-5.80792,21.03247,0
			c4.73853,4.73871,5.60742,11.8783,2.61353,17.50153c1.03101,1.43597,1.62695,3.17169,1.62695,5.00787v19.79492
			c0,0.41406-0.33594,0.75-0.75,0.75s-0.75-0.33594-0.75-0.75v-19.79492c0-1.29468-0.35229-2.53339-0.98462-3.60626
			c-0.51245,0.74823-1.09131,1.46472-1.75586,2.12927c-5.80811,5.80798-15.22461,5.80798-21.03247,0
			C1.1875,161.20825,1.1875,151.79169,6.99561,145.98376z M6.39063,242.72852l-3.12793-2.32129l1.52832-2.06152l0.57227,0.4248
			l-1.09277,1.47266l0.46191,0.34082l0.95215-1.28223l0.58301,0.43457l-0.95117,1.28223l0.93164,0.69043l1.0625-1.43164
			l0.58008,0.43066L6.39063,242.72852z M9.44824,239.3584l-3.53613-2.21387l0.62988-0.47168l2.46484,1.5498l-0.78809-2.80469
			l0.625-0.46777l1.13477,4.01172L9.44824,239.3584z M11.75781,237.84961l-1.40234-3.62988l2.39063-0.9248l0.25684,0.66309
			l-1.70898,0.66113l0.20703,0.53516l1.48926-0.57617l0.26172,0.67773l-1.48828,0.57617l0.41797,1.08105l1.66113-0.64258
			l0.26074,0.67285L11.75781,237.84961z M14.95508,236.72559l-0.2959-3.87305l0.70801-0.05371l1.90625,2.4043l-0.19336-2.53516
			l0.72852-0.05566l0.29688,3.87305l-0.70313,0.05371l-1.91211-2.40918l0.19336,2.54004L14.95508,236.72559z M16.98926,250.55664
			c-0.26758,0-0.52637-0.14355-0.66211-0.39551c-0.19531-0.36523-0.05859-0.81934,0.30664-1.01563l10.38965-5.57227
			c2.31055-1.23828,3.74512-3.63672,3.74512-6.25879v-2.61426c0-0.41406,0.33594-0.75,0.75-0.75s0.75,0.33594,0.75,0.75v2.61426
			c0,3.17578-1.73828,6.08105-4.53613,7.58105l-10.38965,5.57227C17.22949,250.52832,17.1084,250.55664,16.98926,250.55664z
			 M24.42773,328.03906c1.06836,0.33398,1.66113,1.47461,1.3252,2.54785c-0.33496,1.06738-1.47168,1.66602-2.53906,1.33203
			c-1.07324-0.33594-1.6709-1.47754-1.33594-2.54492C22.21289,328.30078,23.35547,327.7041,24.42773,328.03906z M21.24512,335.56055
			l1.28711-0.0293l-0.03418-1.57715l-1.28711,0.03027l-0.01563-0.73242l3.88379-0.08398l0.01563,0.73047l-1.88184,0.04102
			l0.03418,1.57617l1.88184-0.04102l0.01563,0.73242l-3.88379,0.08398L21.24512,335.56055z M25.73828,340.0957
			c-0.11328,0.24121-0.27148,0.45215-0.4707,0.625c-0.20313,0.18457-0.43164,0.32227-0.69531,0.41211
			c-1.05664,0.36523-2.2168-0.2041-2.58203-1.26172c-0.10254-0.2998-0.13379-0.62305-0.08984-0.93164
			c0.03809-0.30762,0.15625-0.61523,0.33398-0.87109l0.07422-0.11914l0.59961,0.41211l-0.07813,0.1123
			c-0.23438,0.34082-0.29102,0.76465-0.15234,1.16113c0.2334,0.68066,0.97754,1.04688,1.6582,0.8125
			c0.68555-0.23633,1.05078-0.98633,0.81641-1.66602c-0.13477-0.39258-0.44043-0.69141-0.83594-0.81934l-0.12598-0.04395
			l0.21387-0.68457l0.13086,0.0459c0.30469,0.09668,0.57422,0.25879,0.80078,0.48047c0.22461,0.2168,0.39453,0.4873,0.49707,0.78711
			c0.08789,0.25781,0.12402,0.52734,0.10742,0.79883C25.92188,339.60547,25.85352,339.86035,25.73828,340.0957z M26.8877,327.88574
			l-3.2998-2.06445l0.38867-0.62109l3.29883,2.06543L26.8877,327.88574z M28.5332,325.49707
			c-0.24414,0.09375-0.50293,0.14063-0.76563,0.1377c-0.26758,0-0.52539-0.05371-0.76563-0.16113
			c-0.25391-0.10449-0.47656-0.25488-0.66992-0.45313c-0.78223-0.80176-0.75977-2.0957,0.04102-2.87598
			c0.22656-0.22168,0.50684-0.3877,0.80469-0.48047c0.2959-0.09668,0.62402-0.11914,0.93262-0.06934l0.13867,0.01855
			l-0.11719,0.71582l-0.13477-0.02051c-0.40918-0.06738-0.81543,0.0625-1.11719,0.35547
			c-0.5166,0.50391-0.53223,1.33301-0.02832,1.84961c0.50684,0.51953,1.34082,0.53125,1.85645,0.02832
			c0.29688-0.28906,0.43848-0.69336,0.38574-1.10742l-0.01367-0.13086l0.71191-0.09863l0.01367,0.13867
			c0.04199,0.31738,0.01074,0.62988-0.09375,0.92969c-0.09961,0.29688-0.27441,0.56348-0.50098,0.78516
			C29.01563,325.24902,28.78516,325.39551,28.5332,325.49707z M46.55103,372.03717c0,1.77142-1.43604,3.20746-3.20728,3.20746
			H32.87744c-1.77148,0-3.20752-1.43604-3.20752-3.20746v-31.33142c0-1.77142,1.43604-3.20746,3.20752-3.20746h10.46631
			c1.77124,0,3.20728,1.43604,3.20728,3.20746V372.03717z M46.57129,324.52246l2.76172-2.73242l1.7998,1.82031l-0.50391,0.49805
			l-1.28613-1.2998l-0.40723,0.40234l1.12012,1.13281l-0.51465,0.51074l-1.12109-1.13281l-0.82227,0.81348l1.25098,1.26465
			l-0.5127,0.50684L46.57129,324.52246z M48.83008,327.02051l3.36914-1.94141l0.69531,1.20703
			c0.13281,0.23242,0.16895,0.5,0.09961,0.76172c-0.07422,0.25684-0.23242,0.47363-0.46289,0.60742
			c-0.47852,0.27539-1.08887,0.10352-1.36328-0.37402l-0.33203-0.57813l-1.64258,0.94629L48.83008,327.02051z M50.49023,330.46387
			l3.03711-0.88477l-0.26563-0.91797l0.69141-0.2002l0.73828,2.53418L54,331.19629l-0.26758-0.91602l-3.03906,0.88477
			L50.49023,330.46387z M51.12695,335.82715l-0.00977-0.73145L53,335.07031l-0.02051-1.57715l-1.88379,0.02539l-0.00977-0.73242
			l3.88672-0.05176l0.00977,0.73242l-1.28906,0.0166l0.02246,1.57813l1.28809-0.01758l0.00977,0.73047L51.12695,335.82715z
			 M58.15918,260.85449c-0.13574,0.25195-0.39453,0.39551-0.66211,0.39551c-0.11914,0-0.24023-0.02832-0.35352-0.08887
			l-9.83887-5.27637c-2.79785-1.50195-4.53613-4.40625-4.53613-7.58105l0.03711-13.60547
			c0.00098-0.41406,0.33691-0.74805,0.75-0.74805c0.00098,0,0.00098,0,0.00195,0c0.41406,0.00098,0.74902,0.33789,0.74805,0.75195
			l-0.03711,13.60352c0,2.61914,1.43555,5.01758,3.74512,6.25684l9.83887,5.27637
			C58.21777,260.03516,58.35449,260.48926,58.15918,260.85449z M48.58203,247.68457l1.33398-0.87988l0.39941,0.60938
			l-1.33301,0.87793l0.6377,0.96777l1.49023-0.98145l0.39746,0.60449l-2.10254,1.38379l-2.14258-3.25293l2.14258-1.41113
			l0.3916,0.59277l-1.53223,1.00977L48.58203,247.68457z M50.8877,244.84961l0.75293-0.22754l1.7832,2.29883l0.2207-2.9043
			l0.74902-0.22461l-0.31055,4.15723l-0.63281,0.19141L50.8877,244.84961z M56.12012,247.52246l-0.07422-3.8916l2.56445-0.04883
			l0.0127,0.71094l-1.83008,0.03516l0.00977,0.57422l1.59668-0.03125l0.01367,0.72754l-1.5957,0.03027l0.02246,1.1582
			l1.78027-0.0332l0.01465,0.7207L56.12012,247.52246z M43.72852,232.20801c-0.07227,0.02148-0.14453,0.03125-0.21484,0.03125
			c-0.32324,0-0.62109-0.20996-0.71875-0.53516c-0.11816-0.39746,0.10742-0.81543,0.50391-0.93359
			c8.44727-2.52148,14.34668-10.44531,14.34668-19.27051s-5.89941-16.74902-14.34668-19.27051
			c-0.39648-0.11816-0.62207-0.53613-0.50391-0.93359c0.11914-0.39648,0.5293-0.625,0.93359-0.50391
			c9.07715,2.70996,15.41699,11.22559,15.41699,20.70801S52.80566,229.49805,43.72852,232.20801z M62.5498,248.41699
			l-0.67676-0.19043l-0.97168-2.91895l-0.68945,2.45215l-0.70313-0.19629l1.04883-3.74023l0.68457,0.19238l0.96582,2.91113
			l0.68848-2.44727l0.70313,0.19727L62.5498,248.41699z M64.70996,249.67285l-0.62207-0.3877l1.68164-2.69043l-0.81152-0.50684
			l0.38281-0.61133l2.24512,1.40332l-0.38379,0.6123l-0.81152-0.50781L64.70996,249.67285z M69.62598,250.38086l-0.00781-0.13574
			c-0.03223-0.45605-0.19336-0.72461-0.32813-0.86719c-0.08594-0.0918-0.18359-0.15723-0.2832-0.19922
			c-0.15625-0.0625-0.31934-0.04395-0.41406,0.0459c-0.08789,0.08203-0.11426,0.16602-0.09473,0.29102
			c0.01855,0.12402,0.08887,0.27539,0.21973,0.49707c0.01953,0.02637,0.04004,0.06641,0.0625,0.10645
			c0.125,0.19629,0.28711,0.46387,0.34082,0.70508c0.05566,0.20313,0.05273,0.40039,0.00488,0.5791
			c-0.04785,0.18164-0.15039,0.34277-0.29395,0.47754c-0.17871,0.16895-0.38281,0.27051-0.6084,0.30176
			c-0.19336,0.02441-0.40918-0.00488-0.64063-0.09375c-0.20313-0.07129-0.37988-0.19727-0.56445-0.39258
			c-0.08496-0.09082-0.16309-0.19727-0.23633-0.31641c-0.2168-0.35156-0.34277-0.77148-0.35938-1.22754l-0.00293-0.13965
			l0.72656-0.02246l0.00293,0.1377c0.01367,0.33301,0.09668,0.6377,0.24414,0.87402l0.00293,0.00391
			c0.04395,0.07031,0.0918,0.13867,0.14844,0.19824c0.09277,0.09863,0.19824,0.17188,0.30566,0.21289
			c0.12988,0.05957,0.32129,0.08887,0.48438-0.06543c0.08887-0.08203,0.11523-0.18945,0.08398-0.33301
			c-0.03711-0.1748-0.14258-0.35938-0.22266-0.48633c-0.03809-0.05566-0.33496-0.53906-0.4082-0.82324
			c-0.04004-0.19434-0.0332-0.37988,0.01465-0.55273c0.05176-0.1748,0.14941-0.32715,0.28906-0.45703
			c0.15137-0.14258,0.34668-0.23633,0.57129-0.27637c0.19922-0.02148,0.40527,0.00879,0.6084,0.08887
			c0.20215,0.08008,0.3877,0.20508,0.54785,0.37695c0.06445,0.06836,0.12305,0.14648,0.18262,0.22461
			c0.19824,0.30859,0.32227,0.67969,0.34473,1.08594l0.00586,0.13477L69.62598,250.38086z M67.92334,178.01617
			c-5.80811,5.80798-15.22461,5.80798-21.03247,0c-0.61646-0.61639-1.15308-1.28052-1.63843-1.96954
			c-0.63159,1.0722-0.98389,2.30951-0.98389,3.60278v8.63867c0,0.41406-0.33594,0.75-0.75,0.75s-0.75-0.33594-0.75-0.75v-8.63867
			c0-1.82684,0.59106-3.55444,1.61328-4.98694c-3.10986-5.65009-2.28052-12.88922,2.50903-17.67871
			c5.80786-5.80792,15.22437-5.80792,21.03247,0C73.7312,162.79169,73.7312,172.20825,67.92334,178.01617z"/>
		<path fill="#252626" d="M42.02539,99.10059c-0.14355,0.06738-0.20117,0.23926-0.13672,0.37793l0.29199,0.61719l0.5127-0.24219
			l-0.29004-0.61621C42.33887,99.09961,42.16797,99.0332,42.02539,99.10059z"/>
	</g>
	<g>
		<g>
			<g>
				<g>
					<circle fill="#BCBCBC" cx="8.17472" cy="6.39054" r="5.73626"/>
					<path fill="#808080" d="M8.17476,11.8632c3.02102-0.00348,5.46916-2.45164,5.47262-5.47267c0,0,0-0.00001,0-0.00003
						c-0.00002-3.02247-2.45023-5.47264-5.4727-5.47262s-5.47264,2.45023-5.47262,5.4727S5.15229,11.86322,8.17476,11.8632
						 M2.17476,6.39054c0-3.31371,2.68629-6,6-6s6,2.68629,6,6s-2.68629,6-6,6C4.86111,12.39038,2.17492,9.70418,2.17476,6.39054z"
						/>
				</g>
				<polygon fill="#6E6E6E" points="4.67976,7.04954 7.51576,7.04954 7.51576,9.88554 8.83376,9.88554 8.83376,7.04954 
					11.66876,7.04954 11.66876,5.73154 8.83376,5.73154 8.83376,2.89554 7.51576,2.89554 7.51576,5.73154 4.67976,5.73154 				"/>
			</g>
		</g>
	</g>
	<g>
		<g>
			<g>
				<g>
					<circle fill="#BCBCBC" cx="67.18465" cy="373.60947" r="5.73626"/>
					<path fill="#808080" d="M67.1846,379.08212c-3.02102-0.00348-5.46916-2.45166-5.47262-5.47269c0,0,0,0,0-0.00003
						c0.00002-3.02246,2.45023-5.47263,5.4727-5.4726c3.02247,0,5.47264,2.45023,5.47262,5.47269
						S70.20707,379.08215,67.1846,379.08212 M73.1846,373.60947c0-3.31372-2.68629-6-6-6c-3.31371,0-6,2.68628-6,6
						c0,3.31369,2.68629,6,6,6C70.49825,379.60928,73.18444,376.9231,73.1846,373.60947z"/>
				</g>
				<polygon fill="#6E6E6E" points="70.6796,374.26846 67.84361,374.26846 67.84361,377.10446 66.5256,377.10446 66.5256,374.26846 
					63.69061,374.26846 63.69061,372.95047 66.5256,372.95047 66.5256,370.11447 67.84361,370.11447 67.84361,372.95047 
					70.6796,372.95047 				"/>
			</g>
		</g>
	</g>
	<g>
		<path fill="#252626" d="M41.95682,363.35104c-0.11426,0.26349-0.26582,0.48099-0.45469,0.65225
			c-0.1891,0.17126-0.40401,0.29843-0.64567,0.3822c-0.24189,0.08353-0.49434,0.12503-0.75781,0.12503
			c-0.44812,0-0.79723-0.06567-1.04757-0.19754c-0.25034-0.13184-0.44601-0.28552-0.58632-0.46124
			c-0.14968-0.19333-0.244-0.40848-0.28341-0.64569c-0.03965-0.23718-0.05936-0.4744-0.05936-0.71158
			c0-0.33411,0.00681-0.56451,0.01971-0.69189c0.01337-0.12762,0.02839-0.19989,0.04622-0.2175
			c0.03496-0.02652,0.17995-0.0394,0.43475-0.0394h3.08382c0.08775,0,0.16024,0.00656,0.21749,0.01968
			c0.05678,0.01315,0.10088,0.0481,0.13162,0.10535c0.03073,0.05701,0.05044,0.14267,0.05936,0.25693
			c0.00868,0.11426,0.01337,0.27237,0.01337,0.4744C42.12833,362.77109,42.07085,363.08759,41.95682,363.35104 M36.63334,350.52942
			c0.01174-0.08282,0.0474-0.14828,0.10699-0.19592c0.05935-0.04736,0.15414-0.07718,0.28506-0.08914
			c0.13068-0.01172,0.31485-0.01782,0.55252-0.01782c0.92675,0,1.6367,0.2583,2.12986,0.77518
			c0.49294,0.51685,0.73975,1.20923,0.73975,2.0766c0,0.08212-0.01712,0.25925-0.02792,0.3808
			c-0.06827-0.00095-0.13655-0.00189-0.20482-0.0033c-0.18699-0.004-0.39017-0.01431-0.60954-0.03052
			c-0.0488,0.02441-0.07508,0.07111-0.0793,0.14008c-0.00399,0.06921,0.01408,0.12411,0.05514,0.1647l0.21913,0.02441
			c0.1464,0.01617,0.26817,0.04269,0.36577,0.07907c0.09761,0.03659,0.1464,0.07529,0.1464,0.11588s-0.0244,0.11591-0.0732,0.22549
			c-0.0488,0.1098-0.11379,0.24188-0.19497,0.39603c-0.08142,0.1546-0.16893,0.31931-0.26207,0.49387
			c-0.09362,0.1748-0.18113,0.33948-0.26231,0.49362c-0.18699,0.35782-0.37773,0.70901-0.57293,1.05438
			c-0.19497,0.34561-0.38595,0.68088-0.5727,1.0058c-0.23603-0.42255-0.4676-0.86548-0.69494-1.32861
			c-0.22758-0.46338-0.45516-0.9223-0.68274-1.37769c-0.01642-0.03238-0.04458-0.09314-0.08517-0.18277
			c-0.04082-0.08917-0.08352-0.18466-0.1281-0.28647c-0.04482-0.10159-0.08352-0.19684-0.1159-0.28647
			c-0.03262-0.08939-0.04857-0.15039-0.04857-0.18277c0-0.0488,0.03214-0.08728,0.09736-0.11591
			c0.06499-0.02838,0.20319-0.06287,0.41458-0.10345l0.15836-0.02441c0.04059-0.04059,0.05889-0.0976,0.0549-0.17081
			c-0.00422-0.07297-0.03473-0.11777-0.09127-0.13397c-0.17315,0.01361-0.38548,0.02347-0.63722,0.02933v-2.58643
			C36.61551,350.72556,36.62137,350.6127,36.63334,350.52942 M37.64266,359.65442c0,0.32516-0.00422,0.58514-0.0122,0.78009
			c-0.00821,0.19498-0.03659,0.34747-0.0854,0.45706c-0.01736,0.0394-0.03801,0.07413-0.06171,0.1044
			c-0.00047,0.00021-0.00117,0.0007-0.00164,0.00092c-0.14194-0.02719-0.2616-0.05865-0.35826-0.09454
			c-0.16048-0.05936-0.27615-0.16635-0.34747-0.32071c-0.07132-0.15439-0.1159-0.37119-0.13373-0.6506
			c-0.01783-0.27896-0.02675-0.6506-0.02675-1.11374v-2.53784l0.63722,1.24158c0.08916,0.17081,0.16024,0.31509,0.21327,0.43289
			c0.05279,0.11801,0.09127,0.22757,0.11567,0.32916c0.02439,0.10181,0.04058,0.20926,0.04879,0.32306
			c0.00798,0.1138,0.0122,0.25598,0.0122,0.42654V359.65442z M42.67358,361.16183c0.05278-0.14639,0.10534-0.30264,0.15836-0.46924
			c0.05279-0.16656,0.10159-0.32916,0.1464-0.48776c0.04458-0.15836,0.07907-0.29047,0.10371-0.39627
			c-0.02464-0.05655-0.07133-0.09314-0.14031-0.10956c-0.06921-0.0162-0.12387-0.00821-0.1647,0.02438
			c-0.16259,0.31674-0.31885,0.57693-0.46924,0.78012c-0.15039,0.2034-0.28247,0.33737-0.39603,0.40237
			c-0.06523,0.03259-0.1403,0.06076-0.2257,0.08514c-0.08517,0.02441-0.18699,0.04269-0.30477,0.0549
			c-0.11777,0.01221-0.25996,0.02252-0.42653,0.03052c-0.16658,0.00821-0.36788,0.01218-0.60344,0.01218
			c-0.26817,0-0.48965-0.00797-0.66444-0.02438c-0.17479-0.0162-0.31486-0.03659-0.42043-0.06076
			c-0.10582-0.02466-0.1891-0.05304-0.24987-0.08542c-0.061-0.03238-0.10793-0.06897-0.1403-0.1098
			c-0.0976-0.10556-0.16048-0.26205-0.18887-0.46924c-0.02862-0.2074-0.0427-0.47345-0.0427-0.79861v-0.8045
			c0.00188-0.11145,0.00516-0.20999,0.00986-0.29446c0.00798-0.15015,0.03027-0.29047,0.06687-0.42044
			c0.03659-0.12997,0.09337-0.2684,0.1708-0.41455c0.0183-0.03497,0.03894-0.07275,0.06077-0.1124
			c0.02933-0.00095,0.05982-0.0014,0.09385-0.0014H39.754c0.23555,0,0.42865,0.004,0.57903,0.01221
			c0.15015,0.00797,0.27005,0.02417,0.35967,0.04855c0.12177,0.03262,0.20905,0.08963,0.26207,0.17081
			c0.05279,0.08118,0.09127,0.17877,0.11591,0.29257l0.10956,0.47534c0.03238,0.0408,0.08728,0.05887,0.16447,0.0549
			c0.07718-0.004,0.1281-0.02628,0.1525-0.06711c0-0.13818-0.00821-0.31274-0.0244-0.52414
			c-0.01642-0.2114-0.0244-0.42676-0.0244-0.64615c0-0.23553,0.00798-0.46313,0.0244-0.6825
			c0.01619-0.2196,0.0244-0.40237,0.0244-0.54877c-0.0244-0.04034-0.07532-0.06287-0.1525-0.06711
			c-0.07719-0.00375-0.1321,0.01431-0.16447,0.0549l-0.09737,0.49997c-0.03261,0.15439-0.07132,0.25809-0.1159,0.31088
			c-0.04482,0.0528-0.1037,0.09125-0.17667,0.11566c-0.0732,0.02441-0.19942,0.04269-0.37797,0.0549
			c-0.17901,0.01221-0.39839,0.01831-0.65834,0.01831h-0.55089c0.00422-0.00681,0.00798-0.01315,0.0122-0.0202l0.76791-1.32861
			c0.15414-0.26019,0.29445-0.50186,0.42067-0.72546c0.12576-0.22336,0.24987-0.42065,0.37163-0.59122
			c0.12201-0.17056,0.24776-0.30878,0.37798-0.41434c0.02698-0.02182,0.05467-0.04153,0.08306-0.06006
			c0.08258,0.03284,0.15531,0.07153,0.21796,0.11682c0.10159,0.07297,0.18464,0.15839,0.24987,0.25598
			c0.06499,0.09735,0.11777,0.20715,0.1586,0.32892c0.04035,0.12201,0.08517,0.25623,0.13397,0.40237
			c0.03238,0.04083,0.0854,0.05701,0.1586,0.0488c0.07297-0.00797,0.12177-0.03238,0.14616-0.07318
			c-0.01643-0.13-0.0305-0.27826-0.04247-0.44485c-0.01243-0.16656-0.02674-0.32916-0.04293-0.48752
			c-0.01619-0.1586-0.03754-0.30008-0.05467-0.42679c-0.04247-0.31345-0.03285-0.58115-0.03285-0.58115
			c0-0.61752-0.17525-1.15738-0.44272-1.60925c-0.26723-0.45139-0.60907-0.80777-1.02481-1.06915
			c-0.41597-0.26135-0.90305-0.44553-1.46143-0.55252c-0.55863-0.10699-1.21204-0.16046-1.96047-0.16046
			c-0.74867,0-1.40536,0.00891-1.96938,0.02673c-0.56449,0.01782-1.08441,0.05655-1.55974,0.11591
			c-0.07109,0.03568-0.10981,0.10416-0.11567,0.2048c-0.0061,0.10114,0.02041,0.18137,0.08024,0.24072l0.64145,0.07132
			c0.202,0.02396,0.3592,0.06241,0.47252,0.11591c0.11262,0.05328,0.19591,0.15134,0.2494,0.29398
			c0.05349,0.14267,0.08611,0.3327,0.09807,0.57037c0.01173,0.23767,0.01783,0.54666,0.01783,0.92673v6.57681
			c0,0.46313-0.0061,0.83478-0.01783,1.11374c-0.01196,0.27942-0.05349,0.49622-0.12482,0.6506
			c-0.07132,0.15436-0.17831,0.26135-0.32072,0.32071c-0.14265,0.0596-0.34489,0.10699-0.60601,0.14264l-0.37445,0.0535
			c-0.0542,0.0542-0.07837,0.12836-0.0732,0.22171c-0.00047,0.19077-0.00258,0.25128-0.00657,0.46619
			c-0.00423,0.24612-0.01549,0.52109-0.03355,0.82541c0.01807,0.0448,0.06922,0.07156,0.15438,0.08069
			c0.08493,0.0087,0.14546-0.00912,0.18136-0.05371l0.04012-0.28201c0.02699-0.19684,0.06264-0.34888,0.10746-0.45612
			c0.04481-0.10745,0.12528-0.18793,0.24165-0.24164c0.11613-0.05374,0.27943-0.08542,0.48989-0.09433
			c0.21022-0.00867,0.48988-0.01312,0.83899-0.01312h1.69113c0.07156,0,0.12763,0.00446,0.16799,0.01312
			c0.04012,0.00891,0.06921,0.03378,0.08704,0.07416c0.01783,0.0401,0.02909,0.10275,0.03378,0.18768
			c0.00422,0.08517,0.00657,0.20343,0.00657,0.35568c0,0.26865-0.03355,0.46994-0.10065,0.60416
			c-0.0671,0.13419-0.17667,0.25055-0.32894,0.34909c-0.15226,0.10745-0.32001,0.21915-0.50325,0.33551
			c-0.1837,0.11615-0.36718,0.23251-0.55042,0.34888c-0.18347,0.11636-0.36014,0.22827-0.53023,0.33575
			c-0.1701,0.10721-0.31767,0.20575-0.44296,0.29514c-0.3402,0.24167-0.61986,0.46759-0.839,0.67804
			c-0.21913,0.21024-0.39134,0.42279-0.51663,0.63745c-0.12552,0.21469-0.21257,0.44061-0.26183,0.67783
			c-0.04903,0.23718-0.07367,0.49878-0.07367,0.78528c0,0.25946,0.02229,0.45654,0.06687,0.59052
			c0.02698,0.03589,0.06053,0.05161,0.10088,0.04715c0.04012-0.00467,0.06921-0.02487,0.08728-0.06052
			c0.01759-0.17902,0.0603-0.34888,0.1274-0.50983c0.0671-0.16119,0.14969-0.30008,0.24846-0.4162
			c0.18793-0.23276,0.40026-0.4519,0.63746-0.6579c0.23696-0.20575,0.4988-0.41595,0.78526-0.63086
			c0.28624-0.21469,0.60837-0.43616,0.9664-0.66422c0.35779-0.22827,0.75171-0.47675,1.1813-0.74515
			c0.05372-0.03589,0.10933-0.065,0.16775-0.08728c0.05795-0.02252,0.10956-0.01572,0.15437,0.02017
			c0.06241,0.16986,0.15649,0.35123,0.28178,0.54361c0.12528,0.19238,0.27967,0.37375,0.46313,0.54385
			c0.18348,0.16986,0.39815,0.31064,0.64426,0.42279c0.24612,0.11166,0.53024,0.16772,0.85237,0.16772
			c0.4744,0,0.86363-0.10532,1.16793-0.31555c0.30406-0.21021,0.54126-0.4765,0.71136-0.79865
			c0.16986-0.3132,0.27967-0.65997,0.32894-1.04004c0.04903-0.38055,0.07555-0.78107,0.07367-1.20172
			C42.53328,361.65781,42.67358,361.16183,42.67358,361.16183"/>
	</g>
</g>
<g id="serigraphy">
	<g>
		<path fill="#E5E5E5" d="M27.83008,188.95996c-0.30078-0.12988-0.66016-0.0498-0.90039,0.17969
			c-0.08008,0.08008-0.13965,0.16992-0.17969,0.27051c-0.04004,0.09961-0.06055,0.20996-0.06055,0.31934
			c0,0.10059,0.02051,0.20996,0.06055,0.31055c0.04004,0.09961,0.09961,0.18945,0.17969,0.26953s0.16992,0.14063,0.27051,0.18066
			c0.09961,0.04004,0.20996,0.05957,0.31934,0.05957c0.11035,0,0.20996-0.01953,0.31055-0.05957
			c0.09961-0.04004,0.18945-0.10059,0.26953-0.18066s0.14063-0.16992,0.17969-0.26953
			c0.05078-0.10059,0.07031-0.20996,0.07031-0.31055c0-0.10938-0.01953-0.21973-0.07031-0.31934
			c-0.03906-0.10059-0.09961-0.19043-0.17969-0.27051S27.93945,189,27.83008,188.95996z"/>
		<circle fill="#E5E5E5" cx="27.51953" cy="182.25" r="0.83008"/>
		<path fill="#E5E5E5" d="M27.51953,173.9502c-0.45996,0-0.83008,0.36914-0.83008,0.83008
			c0,0.44922,0.37012,0.81934,0.83008,0.81934c0.4502,0,0.83008-0.37012,0.83008-0.81934
			C28.34961,174.31934,27.96973,173.9502,27.51953,173.9502z"/>
		<circle fill="#E5E5E5" cx="27.51953" cy="171.04004" r="0.83008"/>
		<path fill="#E5E5E5" d="M27.51953,185.16016c-0.45996,0-0.83008,0.37012-0.83008,0.83008c0,0.44922,0.37012,0.8291,0.83008,0.8291
			c0.4502,0,0.83008-0.37988,0.83008-0.8291C28.34961,185.53027,27.96973,185.16016,27.51953,185.16016z"/>
		<circle fill="#E5E5E5" cx="27.51953" cy="178.50977" r="0.83008"/>
		<path fill="#E5E5E5" d="M2.5498,22.59961c-0.15039,0.16016-0.24023,0.37012-0.24023,0.58984
			c0,0.2207,0.08008,0.43066,0.24023,0.58008c0.16016,0.16016,0.36035,0.25,0.58984,0.25c0.21973,0,0.42969-0.08984,0.58008-0.25
			c0.16016-0.14941,0.25-0.35938,0.25-0.58008c0-0.21973-0.08984-0.42969-0.25-0.58984
			C3.41016,22.29004,2.85938,22.29004,2.5498,22.59961z"/>
		<path fill="#E5E5E5" d="M8.0498,22.59961c-0.07031-0.08008-0.16016-0.13965-0.27051-0.17969
			c-0.2998-0.12012-0.66992-0.0498-0.89941,0.17969C6.72949,22.75,6.63965,22.96973,6.63965,23.18945
			c0,0.2207,0.08984,0.43066,0.24023,0.58008c0.08008,0.08008,0.16992,0.14063,0.26953,0.18066
			C7.25,24,7.35938,24.01953,7.46973,24.01953c0.21973,0,0.42969-0.08984,0.58008-0.25c0.16016-0.16016,0.25-0.35938,0.25-0.58008
			c0-0.10938-0.02051-0.21973-0.07031-0.31934C8.18945,22.76953,8.12988,22.67969,8.0498,22.59961z"/>
		<path fill="#E5E5E5" d="M68.34961,23.76953c0.08008-0.08008,0.14063-0.16992,0.17969-0.26953
			c0.05078-0.10059,0.07031-0.2002,0.07031-0.31055c0-0.21973-0.08984-0.43945-0.25-0.58984
			c-0.22949-0.22949-0.59961-0.2998-0.89941-0.17969c-0.10059,0.04004-0.19043,0.09961-0.27051,0.17969
			c-0.15039,0.15039-0.24023,0.37012-0.24023,0.58984c0,0.11035,0.02051,0.20996,0.06055,0.31055
			c0.04004,0.09961,0.10938,0.18945,0.17969,0.26953c0.08008,0.08008,0.16992,0.14063,0.27051,0.18066
			c0.09961,0.04004,0.20996,0.05957,0.31934,0.05957C67.99023,24.00977,68.2002,23.92969,68.34961,23.76953z"/>
		<path fill="#E5E5E5" d="M72.87012,22.87012c-0.05078-0.10059-0.11035-0.19043-0.18066-0.27051
			c-0.08008-0.08008-0.16992-0.12988-0.26953-0.17969c-0.2002-0.08008-0.42969-0.08008-0.64063,0
			c-0.09961,0.04004-0.18945,0.11035-0.26953,0.17969c-0.07031,0.08008-0.12988,0.16992-0.17969,0.27051
			c-0.04004,0.09961-0.06055,0.20996-0.06055,0.31934c0,0.11035,0.02051,0.20996,0.06055,0.31055
			c0.0498,0.09961,0.10938,0.18945,0.17969,0.26953c0.08008,0.08008,0.16992,0.14063,0.26953,0.18066
			c0.10059,0.04004,0.21094,0.05957,0.32031,0.05957c0.11035,0,0.21973-0.01953,0.32031-0.05957
			c0.09961-0.04004,0.18945-0.10059,0.26953-0.18066c0.07031-0.08008,0.12988-0.16992,0.18066-0.26953
			c0.04004-0.10059,0.05957-0.2002,0.05957-0.31055C72.92969,23.08008,72.91016,22.96973,72.87012,22.87012z"/>
		<path fill="#E5E5E5" d="M12.19434,25.42188c1.21973,0,1.85742-0.6377,2.11133-1.73633h-0.5918
			c-0.1875,0.73242-0.65625,1.23926-1.51953,1.23926c-1.13574,0-1.58594-1.04199-1.5957-1.90527h3.72559
			c0.04688-1.36035-0.57227-2.72168-2.12988-2.72168c-1.53906,0-2.18652,1.28613-2.18652,2.5625
			C10.00781,24.23926,10.65527,25.42188,12.19434,25.42188z M12.19434,20.7959c0.95703,0,1.51074,0.83496,1.53906,1.72656h-3.13477
			C10.69238,21.64063,11.22754,20.7959,12.19434,20.7959z"/>
		<polygon fill="#E5E5E5" points="17.07617,25.28125 18.8877,20.43945 18.27734,20.43945 16.77637,24.69043 16.75781,24.69043 
			15.2373,20.43945 14.58008,20.43945 16.44727,25.28125 		"/>
		<path fill="#E5E5E5" d="M21.41406,25.42188c1.21973,0,1.85742-0.6377,2.11133-1.73633h-0.5918
			c-0.1875,0.73242-0.65625,1.23926-1.51953,1.23926c-1.13574,0-1.58594-1.04199-1.5957-1.90527h3.72559
			c0.04688-1.36035-0.57227-2.72168-2.12988-2.72168c-1.53906,0-2.18652,1.28613-2.18652,2.5625
			C19.22754,24.23926,19.875,25.42188,21.41406,25.42188z M21.41406,20.7959c0.95703,0,1.51074,0.83496,1.53906,1.72656h-3.13477
			C19.91211,21.64063,20.44727,20.7959,21.41406,20.7959z"/>
		<path fill="#E5E5E5" d="M24.92578,22.45703c0.01953-0.94824,0.58203-1.66113,1.52051-1.66113
			c0.95703,0,1.22949,0.62891,1.22949,1.46387v3.02148h0.59082v-3.11523c0-1.1543-0.41309-1.86816-1.77344-1.86816
			c-0.68457,0-1.33203,0.39453-1.54785,0.97656h-0.01953v-0.83496h-0.59082v4.8418h0.59082V22.45703z"/>
		<path fill="#E5E5E5" d="M29.7334,24.24902c-0.00977,0.82617,0.2627,1.08887,1.05078,1.08887
			c0.17871,0,0.34766-0.01953,0.52539-0.01953V24.8125c-0.16797,0.01855-0.33691,0.02734-0.50586,0.02734
			c-0.42285-0.02734-0.47852-0.25293-0.47852-0.6377v-3.26563h0.98438v-0.49707H30.3252v-1.45508h-0.5918v1.45508h-0.84473v0.49707
			h0.84473V24.24902z"/>
		<path fill="#E5E5E5" d="M35.36719,22.5791c0.00977-1.01367,0.42188-1.7832,1.44531-1.7832
			c0.75098,0,1.02246,0.54395,1.01367,1.20117v3.28418h0.59082v-2.74023c0-0.90039,0.29102-1.74512,1.31348-1.74512
			c0.84473,0,1.14551,0.43164,1.14551,1.22949v3.25586h0.59082v-3.28418c0-1.14551-0.54395-1.69922-1.60449-1.69922
			c-0.63867,0-1.24805,0.31055-1.53906,0.94824c-0.17871-0.6377-0.75098-0.94824-1.38867-0.94824
			c-0.76953,0-1.27637,0.37598-1.58594,0.95801h-0.02832v-0.81641h-0.54395v4.8418h0.59082V22.5791z"/>
		<path fill="#E5E5E5" d="M44.6416,25.42188c1.4834,0,2.29004-1.17285,2.29004-2.56152s-0.80664-2.5625-2.29004-2.5625
			c-1.48242,0-2.28906,1.17383-2.28906,2.5625S43.15918,25.42188,44.6416,25.42188z M44.6416,20.7959
			c1.13574,0,1.69922,1.03223,1.69922,2.06445s-0.56348,2.06445-1.69922,2.06445c-1.13477,0-1.69824-1.03223-1.69824-2.06445
			S43.50684,20.7959,44.6416,20.7959z"/>
		<path fill="#E5E5E5" d="M49.78711,25.42188c0.70313,0,1.47266-0.43164,1.72656-1.06055h0.01855v0.91992h0.54395v-6.7002h-0.59082
			v2.77734H51.4668c-0.25391-0.69434-0.95801-1.06055-1.67969-1.06055c-1.47363,0-2.17773,1.19238-2.17773,2.5625
			S48.31348,25.42188,49.78711,25.42188z M49.78711,20.7959c1.25684,0,1.69824,1.06055,1.69824,2.06445
			s-0.44141,2.06445-1.69824,2.06445c-1.12695,0-1.58594-1.06055-1.58594-2.06445S48.66016,20.7959,49.78711,20.7959z"/>
		<rect x="53.21387" y="20.43945" fill="#E5E5E5" width="0.5918" height="4.8418"/>
		<rect x="53.21387" y="18.58105" fill="#E5E5E5" width="0.5918" height="0.94727"/>
		<rect x="57.38184" y="18.58105" fill="#E5E5E5" width="0.59082" height="0.94727"/>
		<rect x="57.38184" y="20.43945" fill="#E5E5E5" width="0.59082" height="4.8418"/>
		<path fill="#E5E5E5" d="M55.26074,25.28125h0.5918v-4.34473h0.95703v-0.49707h-0.95703V20.0166
			c0.00879-0.52539-0.00977-0.93848,0.64746-0.93848c0.14063,0,0.27148,0.01855,0.43164,0.04688v-0.50684
			c-0.1875-0.02734-0.3291-0.03711-0.49805-0.03711c-0.94727,0-1.18164,0.58203-1.17285,1.41699v0.44141h-0.8252v0.49707h0.8252
			V25.28125z"/>
		<path fill="#E5E5E5" d="M61.05273,25.42188c1.21973,0,1.85742-0.6377,2.11133-1.73633h-0.5918
			c-0.1875,0.73242-0.65625,1.23926-1.51953,1.23926c-1.13574,0-1.58594-1.04199-1.5957-1.90527h3.72559
			c0.04688-1.36035-0.57227-2.72168-2.12988-2.72168c-1.53906,0-2.18652,1.28613-2.18652,2.5625
			C58.86621,24.23926,59.51367,25.42188,61.05273,25.42188z M61.05273,20.7959c0.95703,0,1.51074,0.83496,1.53906,1.72656h-3.13477
			C59.55078,21.64063,60.08594,20.7959,61.05273,20.7959z"/>
		<path fill="#E5E5E5" d="M64.5459,21.57422h-0.01855v-1.13477H63.9834v4.8418h0.59082V22.7002
			c0-1.00391,0.73145-1.79199,1.80176-1.73535v-0.5918C65.50293,20.33594,64.84668,20.7959,64.5459,21.57422z"/>
		<path fill="#E5E5E5" d="M52.05054,62.16815c-0.05493,0.01105-0.10522,0.02753-0.15503,0.04962
			c-0.04956,0.01648-0.09912,0.04425-0.14331,0.07172c-0.04419,0.0332-0.08862,0.06635-0.12744,0.10492
			c-0.1543,0.15479-0.24292,0.37-0.24292,0.58545c0,0.22083,0.08862,0.43091,0.24292,0.58545
			c0.03882,0.03857,0.08325,0.07739,0.12744,0.10486c0.04419,0.02783,0.09375,0.0553,0.14331,0.07739
			c0.0498,0.02216,0.1001,0.0332,0.15503,0.04425s0.10474,0.01648,0.16016,0.01648c0.2207,0,0.43115-0.0885,0.58545-0.24298
			c0.15503-0.15454,0.24341-0.36462,0.24341-0.58545c0-0.21545-0.08838-0.43066-0.24341-0.58545
			C52.6084,62.20673,52.32129,62.11829,52.05054,62.16815z"/>
		<path fill="#E5E5E5" d="M53.73193,59.85919c0.09375,0.0329,0.1875,0.04962,0.28149,0.04962
			c0.33716,0,0.65771-0.20978,0.77905-0.54688h-0.00537c0.1604-0.42523-0.06079-0.90552-0.49194-1.0603
			c-0.43066-0.15454-0.90601,0.06635-1.06079,0.49701C53.08008,59.22955,53.30078,59.70441,53.73193,59.85919z"/>
		<path fill="#E5E5E5" d="M55.72314,55.86365c0.05518-0.45844-0.27075-0.86694-0.72339-0.92224
			c-0.45337-0.06067-0.86768,0.26508-0.92334,0.71814c-0.05493,0.45813,0.27075,0.87231,0.71875,0.92761
			c0.03833,0,0.07178,0.00568,0.10474,0.00568C55.31421,56.59283,55.66821,56.28351,55.72314,55.86365z"/>
		<path fill="#E5E5E5" d="M20.48462,51.78534c-0.04956,0.453,0.27075,0.86719,0.729,0.92224
			c0.02808,0,0.06079,0.00568,0.09448,0.00568c0.41431,0,0.77295-0.315,0.82275-0.73462
			c0.05566-0.45837-0.27026-0.86694-0.729-0.92224C20.94873,51.00653,20.53955,51.33258,20.48462,51.78534z"/>
		<path fill="#E5E5E5" d="M54.01196,49.27258c0.08838,0,0.177-0.01105,0.26538-0.04419
			c0.43652-0.14917,0.66846-0.61865,0.51904-1.04926c-0.14893-0.43097-0.6189-0.66827-1.04932-0.5191
			c-0.43115,0.14911-0.6687,0.61829-0.51978,1.04926C53.34326,49.05713,53.66919,49.27258,54.01196,49.27258z"/>
		<path fill="#E5E5E5" d="M51.96729,44.3186c-0.38623,0.23761-0.5083,0.75104-0.27026,1.14337
			c0.1604,0.25403,0.43066,0.39209,0.70679,0.39209c0.14966,0,0.29858-0.03882,0.43652-0.12701
			c0.38696-0.23755,0.5083-0.75128,0.271-1.1377h-0.00537C52.86792,44.20264,52.35962,44.0813,51.96729,44.3186z"/>
		<path fill="#E5E5E5" d="M26.79443,41.2868c-0.32056-0.32605-0.84546-0.33142-1.17139-0.00568
			c-0.32593,0.32037-0.3313,0.84509-0.00537,1.1709c0.16016,0.16016,0.37549,0.24292,0.58545,0.24292
			s0.42578-0.07739,0.58594-0.23755C27.11499,42.13733,27.11499,41.61255,26.79443,41.2868z"/>
		<path fill="#E5E5E5" d="M46.44214,39.21576c-0.24829,0.38641-0.13818,0.90015,0.24878,1.1488
			c0.13818,0.08813,0.29297,0.12701,0.44775,0.12701c0.27051,0,0.53589-0.13269,0.69604-0.38135
			c0.24878-0.38104,0.13281-0.89447-0.24878-1.14307C47.19922,38.71851,46.68555,38.83472,46.44214,39.21576z"/>
		<path fill="#E5E5E5" d="M32.59058,38.73523c0.08789,0,0.18237-0.01105,0.27026-0.04425
			c0.43115-0.14911,0.66309-0.61859,0.51416-1.04926c-0.14941-0.43091-0.61865-0.66821-1.0498-0.5191
			c-0.43652,0.14917-0.66309,0.61865-0.51904,1.05469C31.92212,38.51978,32.24805,38.73523,32.59058,38.73523z"/>
		<path fill="#E5E5E5" d="M40.06592,37.95642c0.41431,0,0.77368-0.30927,0.82349-0.72888
			c0.05542-0.45844-0.271-0.86694-0.72363-0.92224c-0.45874-0.0553-0.86768,0.27045-0.92261,0.72351
			c-0.05566,0.45276,0.27026,0.86694,0.72339,0.92224C39.99951,37.95105,40.03296,37.95642,40.06592,37.95642z"/>
		<path fill="#E5E5E5" d="M53.65308,64.71948c0.02148,0.04987,0.0437,0.09949,0.07715,0.14368
			c0.02759,0.04425,0.06104,0.0882,0.09937,0.12701c0.15479,0.15454,0.37012,0.24298,0.58594,0.24298
			c0.05493,0,0.11011-0.00568,0.16553-0.01642c0.0498-0.01111,0.10474-0.02777,0.15503-0.04993
			c0.04956-0.02209,0.09375-0.04419,0.14331-0.07739c0.04443-0.02747,0.08862-0.06067,0.12158-0.09924
			c0.03882-0.03882,0.07715-0.08276,0.10522-0.12701c0.02759-0.04419,0.05493-0.09381,0.07715-0.14368
			c0.02222-0.04962,0.03882-0.09924,0.04419-0.15454c0.01074-0.0553,0.0166-0.10492,0.0166-0.16016
			c0-0.22089-0.08838-0.43634-0.24316-0.58545c-0.03296-0.03857-0.07715-0.07739-0.12158-0.10492
			c-0.04956-0.03314-0.09375-0.0553-0.14331-0.07739c-0.05029-0.02209-0.10522-0.03857-0.15503-0.04962
			c-0.27075-0.04962-0.55786,0.03857-0.75146,0.23193c-0.15503,0.14911-0.24292,0.36456-0.24292,0.58545
			c0,0.05524,0.00537,0.10486,0.01636,0.16016C53.61426,64.62024,53.63086,64.66986,53.65308,64.71948z"/>
		<path fill="#E5E5E5" d="M55.84106,61.82001c0.10474,0.03888,0.20386,0.0553,0.30908,0.0553
			c0.32593,0,0.64111-0.19336,0.76782-0.5191c0.17163-0.42523-0.03809-0.90576-0.46387-1.07703
			c-0.42529-0.17096-0.90601,0.03882-1.07178,0.46411C55.21094,61.16852,55.41528,61.6488,55.84106,61.82001z"/>
		<path fill="#E5E5E5" d="M57.19434,58.25238c0.39819,0,0.74609-0.28149,0.81787-0.67926
			c0.08252-0.45276-0.21509-0.88373-0.66309-0.96649c-0.45313-0.08276-0.88379,0.21545-0.9668,0.66284
			c-0.08325,0.45276,0.21533,0.88367,0.66309,0.96649C57.09497,58.24701,57.14453,58.25238,57.19434,58.25238z"/>
		<path fill="#E5E5E5" d="M56.69189,53.66864c0.00537,0.45276,0.37549,0.81738,0.82886,0.81738c0,0,0.00537,0,0.01074,0
			c0.45874,0,0.82349-0.37567,0.81812-0.83411c0-0.45813-0.37622-0.82275-0.83472-0.81732
			C57.05615,52.84027,56.69189,53.21021,56.69189,53.66864z"/>
		<path fill="#E5E5E5" d="M56.31055,50.07324c0.08301,0.39209,0.42505,0.66284,0.81201,0.66284
			c0.05566,0,0.1106-0.00568,0.16553-0.01648c0.45337-0.09412,0.74097-0.5304,0.64697-0.97754
			c-0.09424-0.44733-0.53076-0.73456-0.97803-0.64636C56.50952,49.18982,56.22192,49.62585,56.31055,50.07324z"/>
		<path fill="#E5E5E5" d="M19.31885,46.52948c0.10522,0.04987,0.22119,0.07196,0.33179,0.07196
			c0.32056,0,0.62427-0.18793,0.75708-0.49725c0.18774-0.41956-0.00586-0.90552-0.42578-1.09344
			c-0.41431-0.18231-0.90601,0.00562-1.08838,0.42523C18.71118,45.85583,18.89893,46.3418,19.31885,46.52948z"/>
		<path fill="#E5E5E5" d="M53.52026,43.44598c0.1604,0.23755,0.41992,0.36456,0.69067,0.36456
			c0.1543,0,0.32056-0.04419,0.45874-0.14343c0.38086-0.25433,0.48071-0.76776,0.22656-1.1488
			c-0.25464-0.38098-0.76831-0.4751-1.14917-0.22083C53.36548,42.55151,53.26611,43.06494,53.52026,43.44598z"/>
		<path fill="#E5E5E5" d="M51.22168,39.48627c-0.32593,0.32599-0.32593,0.85046,0,1.17084
			c0.16016,0.16022,0.37012,0.24298,0.58545,0.24298c0.20996,0,0.42041-0.08276,0.58594-0.24298
			c0.32056-0.32574,0.32056-0.85052,0-1.17084C52.06738,39.16046,51.54224,39.16046,51.22168,39.48627z"/>
		<path fill="#E5E5E5" d="M27.00977,36.81335c-0.38696,0.24835-0.4917,0.76202-0.24292,1.14874
			c0.1543,0.24298,0.42529,0.37537,0.69604,0.37537c0.15479,0,0.30933-0.04395,0.44727-0.13239
			c0.38696-0.25403,0.49756-0.76208,0.24341-1.14874C27.90479,36.67529,27.39111,36.5647,27.00977,36.81335z"/>
		<path fill="#E5E5E5" d="M45.88428,35.12335c-0.42529-0.17664-0.90601,0.02209-1.08838,0.44171
			c-0.177,0.41986,0.02734,0.90582,0.44727,1.08246c0.10522,0.04419,0.21582,0.06628,0.32056,0.06628
			c0.32593,0,0.63013-0.1933,0.76245-0.508C46.50317,35.78619,46.30396,35.29999,45.88428,35.12335z"/>
		<path fill="#E5E5E5" d="M34.43604,35.54297c0.05493,0,0.10449-0.00543,0.15479-0.0108
			c0.45264-0.08844,0.74561-0.51935,0.6626-0.96649c-0.08252-0.453-0.51904-0.74561-0.9668-0.66284
			c-0.44751,0.08282-0.74585,0.51373-0.6626,0.96649C33.70117,35.26685,34.04907,35.54297,34.43604,35.54297z"/>
		<path fill="#E5E5E5" d="M39.02734,34.38879c0.00537-0.45276-0.36475-0.82843-0.82349-0.8338
			c-0.45825,0-0.82886,0.36432-0.83423,0.82275s0.36475,0.83405,0.82349,0.83405c0.00537,0,0.00537,0,0.01074,0
			C38.65723,35.21179,39.02197,34.84186,39.02734,34.38879z"/>
		<path fill="#E5E5E5" d="M30.81055,194.66602v9.85742c0,3.70898,3.01758,6.72656,6.72656,6.72656s6.72656-3.01758,6.72656-6.72656
			v-9.85645c0-0.41406-0.33594-0.75-0.75-0.75s-0.75,0.33594-0.75,0.75v9.85645c0,2.88184-2.34473,5.22656-5.22656,5.22656
			s-5.22656-2.34473-5.22656-5.22656v-9.85742c0-0.41406-0.33594-0.75-0.75-0.75S30.81055,194.25195,30.81055,194.66602z"/>
		<path fill="#E5E5E5" d="M47.2002,188.95996c-0.10059,0.04004-0.19043,0.09961-0.27051,0.17969
			c-0.07031,0.08008-0.12988,0.16992-0.17969,0.27051c-0.04004,0.09961-0.06055,0.20996-0.06055,0.31934
			c0,0.11035,0.02051,0.20996,0.06055,0.31055c0.04004,0.09961,0.09961,0.18945,0.17969,0.26953
			c0.16016,0.16016,0.37012,0.24023,0.58984,0.24023c0.2207,0,0.43066-0.08008,0.58984-0.24023
			c0.07031-0.08008,0.13086-0.16992,0.16992-0.26953c0.05078-0.10059,0.07031-0.20996,0.07031-0.31055
			c0-0.21973-0.08984-0.42969-0.24023-0.58984C47.87012,188.91016,47.50977,188.83008,47.2002,188.95996z"/>
		<circle fill="#E5E5E5" cx="47.51953" cy="185.75" r="0.83008"/>
		<path fill="#E5E5E5" d="M48.2793,181.4502c-0.03906-0.10059-0.09961-0.19043-0.16992-0.26074
			c-0.30957-0.30957-0.86914-0.30957-1.17969,0c-0.15039,0.15039-0.24023,0.36035-0.24023,0.58008
			c0,0.11035,0.02051,0.2207,0.06055,0.32031s0.09961,0.19043,0.17969,0.26953c0.08008,0.07031,0.16992,0.13086,0.27051,0.18066
			c0.09961,0.04004,0.20996,0.05957,0.31934,0.05957c0.2207,0,0.41992-0.08984,0.58984-0.24023
			c0.07031-0.0791,0.13086-0.16992,0.16992-0.26953c0.05078-0.09961,0.07031-0.20996,0.07031-0.32031
			C48.34961,181.66016,48.33008,181.55957,48.2793,181.4502z"/>
		<path fill="#E5E5E5" d="M39.5293,178.95996c-0.45996,0-0.8291,0.37012-0.8291,0.83008s0.36914,0.81934,0.8291,0.81934
			c0.46094,0,0.83008-0.35938,0.83008-0.81934S39.99023,178.95996,39.5293,178.95996z"/>
		<path fill="#E5E5E5" d="M39.5293,160.83008c-0.45996,0-0.8291,0.37012-0.8291,0.83008c0,0.44922,0.36914,0.81934,0.8291,0.81934
			c0.46094,0,0.83008-0.37012,0.83008-0.81934C40.35938,161.2002,39.99023,160.83008,39.5293,160.83008z"/>
		<path fill="#E5E5E5" d="M39.5293,157.2002c-0.45996,0-0.8291,0.36914-0.8291,0.83008c0,0.45996,0.36914,0.8291,0.8291,0.8291
			c0.46094,0,0.83008-0.36914,0.83008-0.8291C40.35938,157.56934,39.99023,157.2002,39.5293,157.2002z"/>
		<path fill="#E5E5E5" d="M39.5293,171.7002c-0.45996,0-0.8291,0.37988-0.8291,0.83008c0,0.45996,0.36914,0.8291,0.8291,0.8291
			c0.46094,0,0.83008-0.36914,0.83008-0.8291C40.35938,172.08008,39.99023,171.7002,39.5293,171.7002z"/>
		<path fill="#E5E5E5" d="M39.5293,168.08008c-0.45996,0-0.8291,0.37012-0.8291,0.83008c0,0.44922,0.36914,0.83008,0.8291,0.83008
			c0.46094,0,0.83008-0.38086,0.83008-0.83008C40.35938,168.4502,39.99023,168.08008,39.5293,168.08008z"/>
		<path fill="#E5E5E5" d="M39.5293,164.4502c-0.45996,0-0.8291,0.36914-0.8291,0.83008c0,0.45996,0.36914,0.8291,0.8291,0.8291
			c0.46094,0,0.83008-0.36914,0.83008-0.8291C40.35938,164.81934,39.99023,164.4502,39.5293,164.4502z"/>
		<path fill="#E5E5E5" d="M39.5293,153.56934c-0.45996,0-0.8291,0.38086-0.8291,0.83008c0,0.45996,0.36914,0.83008,0.8291,0.83008
			c0.46094,0,0.83008-0.37012,0.83008-0.83008C40.35938,153.9502,39.99023,153.56934,39.5293,153.56934z"/>
		<path fill="#E5E5E5" d="M39.5293,149.9502c-0.45996,0-0.8291,0.36914-0.8291,0.81934c0,0.45996,0.36914,0.83008,0.8291,0.83008
			c0.46094,0,0.83008-0.37012,0.83008-0.83008C40.35938,150.31934,39.99023,149.9502,39.5293,149.9502z"/>
		<path fill="#E5E5E5" d="M41.00977,140.34961c0.2002-0.41016,0.01953-0.89941-0.40039-1.09961
			c-0.40918-0.19043-0.90918-0.00977-1.09961,0.39941c-0.19043,0.41992-0.00977,0.91016,0.40039,1.11035
			c0.11914,0.0498,0.22949,0.07031,0.34961,0.07031C40.56934,140.83008,40.87012,140.66016,41.00977,140.34961z"/>
		<path fill="#E5E5E5" d="M39.5293,142.68945c-0.45996,0-0.8291,0.37988-0.8291,0.83008c0,0.45996,0.36914,0.83008,0.8291,0.83008
			c0.46094,0,0.83008-0.37012,0.83008-0.83008C40.35938,143.06934,39.99023,142.68945,39.5293,142.68945z"/>
		<path fill="#E5E5E5" d="M39.5293,146.31934c-0.45996,0-0.8291,0.37012-0.8291,0.83008s0.36914,0.83008,0.8291,0.83008
			c0.46094,0,0.83008-0.37012,0.83008-0.83008S39.99023,146.31934,39.5293,146.31934z"/>
		<path fill="#E5E5E5" d="M39.5293,189.83984c-0.45996,0-0.8291,0.37012-0.8291,0.83008c0,0.4502,0.36914,0.82031,0.8291,0.82031
			c0.46094,0,0.83008-0.37012,0.83008-0.82031C40.35938,190.20996,39.99023,189.83984,39.5293,189.83984z"/>
		<path fill="#E5E5E5" d="M39.5293,200.71973c-0.45996,0-0.8291,0.37012-0.8291,0.82031c0,0.45996,0.36914,0.83008,0.8291,0.83008
			c0.46094,0,0.83008-0.37012,0.83008-0.83008C40.35938,201.08984,39.99023,200.71973,39.5293,200.71973z"/>
		<path fill="#E5E5E5" d="M39.5293,193.45996c-0.45996,0-0.8291,0.37012-0.8291,0.83008s0.36914,0.83008,0.8291,0.83008
			c0.46094,0,0.83008-0.37012,0.83008-0.83008S39.99023,193.45996,39.5293,193.45996z"/>
		<path fill="#E5E5E5" d="M42.47949,138.00977c0.19043,0,0.37012-0.05957,0.52051-0.17969
			c0.35938-0.29004,0.41992-0.81055,0.12988-1.16992c-0.28027-0.36035-0.81055-0.41016-1.16016-0.12988
			c-0.36035,0.28906-0.41992,0.80957-0.12988,1.16992C42,137.89941,42.24023,138.00977,42.47949,138.00977z"/>
		<path fill="#E5E5E5" d="M39.5293,175.33008c-0.45996,0-0.8291,0.37012-0.8291,0.83008s0.36914,0.83008,0.8291,0.83008
			c0.46094,0,0.83008-0.37012,0.83008-0.83008S39.99023,175.33008,39.5293,175.33008z"/>
		<path fill="#E5E5E5" d="M39.5293,197.08984c-0.45996,0-0.8291,0.37012-0.8291,0.83008s0.36914,0.83008,0.8291,0.83008
			c0.46094,0,0.83008-0.37012,0.83008-0.83008S39.99023,197.08984,39.5293,197.08984z"/>
		<path fill="#E5E5E5" d="M39.5293,182.58008c-0.45996,0-0.8291,0.37012-0.8291,0.83008s0.36914,0.83008,0.8291,0.83008
			c0.46094,0,0.83008-0.37012,0.83008-0.83008S39.99023,182.58008,39.5293,182.58008z"/>
		<path fill="#E5E5E5" d="M39.5293,186.20996c-0.45996,0-0.8291,0.37012-0.8291,0.83008s0.36914,0.83008,0.8291,0.83008
			c0.46094,0,0.83008-0.37012,0.83008-0.83008S39.99023,186.20996,39.5293,186.20996z"/>
		<path fill="#E5E5E5" d="M38.93945,204.58984c-0.14941,0.16016-0.23926,0.37012-0.23926,0.58984s0.08984,0.42969,0.23926,0.58008
			c0.08008,0.08008,0.16992,0.13965,0.27051,0.17969c0.09961,0.05078,0.20996,0.07031,0.31934,0.07031
			c0.11035,0,0.2207-0.01953,0.32031-0.07031c0.10059-0.04004,0.19043-0.09961,0.27051-0.17969
			c0.06934-0.07031,0.13965-0.16016,0.17969-0.26953c0.04004-0.10059,0.05957-0.2002,0.05957-0.31055
			c0-0.21973-0.08984-0.42969-0.23926-0.58984C39.80957,204.28027,39.25,204.28027,38.93945,204.58984z"/>
		<path fill="#E5E5E5" d="M67.76465,119.31226c-0.35791,0.28857-0.42236,0.81439-0.13965,1.16492
			c0.28857,0.35822,0.81494,0.42181,1.16479,0.13995l0.0083-0.00677c0.35059-0.28241,0.40601-0.80225,0.13232-1.15875
			C68.64185,119.09338,68.12158,119.03741,67.76465,119.31226z"/>
		<path fill="#E5E5E5" d="M42.76367,228.33301c0,0.41406,0.33594,0.75,0.75,0.75s0.75-0.33594,0.75-0.75v-8.45654
			c2.46509-2.00781,4.00488-5.06769,4.00488-8.37061v-14.77441c0-0.41406-0.33594-0.75-0.75-0.75s-0.75,0.33594-0.75,0.75v14.77441
			c0,2.40973-0.95508,4.6665-2.53613,6.35205c-0.31372-3.41974-3.19507-6.10791-6.69531-6.10791
			c-3.51489,0-6.4043,2.71124-6.69751,6.15149c-1.62476-1.69147-2.60815-3.9668-2.60815-6.39563v-14.77441
			c0-0.41406-0.33594-0.75-0.75-0.75s-0.75,0.33594-0.75,0.75v14.77441c0,3.31494,1.56982,6.38763,4.0791,8.39697v8.43018
			c0,0.41406,0.33594,0.75,0.75,0.75s0.75-0.33594,0.75-0.75v-7.42395c0.68506,0.38159,1.41406,0.69824,2.18652,0.9259
			c0.16797,0.0498,0.28613,0.2207,0.28613,0.41504l0.0127,52.875c-4.70337,0.58936-8.88501,2.65021-12.10571,5.69489
			l-1.4624-1.47125c0.90063-1.0896,1.44189-2.48712,1.44189-4.01117c0-3.47937-2.82056-6.29999-6.30005-6.29999
			c-3.47925,0-6.2998,2.82062-6.2998,6.29999c0,3.47943,2.82056,6.30005,6.2998,6.30005c1.41455,0,2.71558-0.47186,3.76709-1.25891
			l1.50977,1.51874c-3.53369,3.84369-5.67285,8.96936-5.67285,14.60266c0,1.60645,0.17676,3.20508,0.52637,4.75195
			c0.07813,0.34863,0.3877,0.58496,0.73047,0.58496c0.05469,0,0.11035-0.00586,0.16602-0.01855
			c0.4043-0.09082,0.6582-0.49219,0.56641-0.89648c-0.32422-1.43945-0.48926-2.92676-0.48926-4.42188
			c0-10.40332,7.7998-18.98242,18.14258-19.95605c0.38574-0.03711,0.67969-0.36035,0.67969-0.74707L36.2832,222.25
			c0-0.85449-0.55957-1.61719-1.3623-1.85449c-0.94678-0.27911-1.82251-0.70551-2.61035-1.24402v-0.67493
			c0-2.88184,2.34473-5.22656,5.22656-5.22656s5.22656,2.34473,5.22656,5.22656v0.65692
			c-0.78906,0.54883-1.6687,0.98096-2.62012,1.26202c-0.80273,0.2373-1.3623,1-1.3623,1.85449v56.7002
			c-0.42188-0.0293-0.86328-0.04102-1.26563-0.04395c-9.51465,0-17.06055,7.13965-17.56543,16.63379
			c-0.18262,3.42285,0.60938,6.75977,2.29395,9.69629l-1.14795,0.82874c-1.15454-1.31195-2.84155-2.1441-4.72656-2.1441
			c-3.47925,0-6.2998,2.82056-6.2998,6.29999c0,3.47937,2.82056,6.29999,6.2998,6.29999c3.47949,0,6.30005-2.82062,6.30005-6.29999
			c0-1.05487-0.26245-2.0473-0.7207-2.92084l1.73169-1.25031c0.32031-0.23145,0.40625-0.67188,0.19629-1.00684
			c-1.76758-2.81543-2.60742-6.07422-2.42871-9.42285c0.46094-8.68457,7.36328-15.21387,16.06738-15.21387
			c0.02051,0,0.04199,0,0.0625,0c0.62305,0.00195,1.25098,0.04004,1.86426,0.11328c0.22168,0.02246,0.42676-0.04102,0.58691-0.18457
			c0.16016-0.1416,0.25195-0.3457,0.25195-0.56055V222.25c0-0.19434,0.11816-0.36523,0.28711-0.41504
			c0.77612-0.22955,1.5083-0.54993,2.19531-0.93774V228.33301z M12.87012,277.0752c0,0.27637-0.22363,0.5-0.5,0.5
			s-0.5-0.22363-0.5-0.5v-0.1875c0-0.27637,0.22363-0.5,0.5-0.5s0.5,0.22363,0.5,0.5V277.0752z M14.87012,277.0752
			c0,0.27637-0.22363,0.5-0.5,0.5s-0.5-0.22363-0.5-0.5v-4.72559c0-0.27637,0.22363-0.5,0.5-0.5s0.5,0.22363,0.5,0.5V277.0752z
			 M16.87012,277.0752c0,0.27637-0.22363,0.5-0.5,0.5s-0.5-0.22363-0.5-0.5v-2.10059c0-0.27637,0.22363-0.5,0.5-0.5
			s0.5,0.22363,0.5,0.5V277.0752z M18.87012,277.0752c0,0.27637-0.22363,0.5-0.5,0.5s-0.5-0.22363-0.5-0.5v-3.4502
			c0-0.27637,0.22363-0.5,0.5-0.5s0.5,0.22363,0.5,0.5V277.0752z M20.87012,277.0752c0,0.27637-0.22363,0.5-0.5,0.5
			s-0.5-0.22363-0.5-0.5v-0.1875c0-0.27637,0.22363-0.5,0.5-0.5s0.5,0.22363,0.5,0.5V277.0752z M12.87012,308.6709
			c0,0.27637-0.22363,0.5-0.5,0.5s-0.5-0.22363-0.5-0.5v-0.1875c0-0.27637,0.22363-0.5,0.5-0.5s0.5,0.22363,0.5,0.5V308.6709z
			 M14.87012,311.93359c0,0.27637-0.22363,0.5-0.5,0.5s-0.5-0.22363-0.5-0.5v-3.4502c0-0.27637,0.22363-0.5,0.5-0.5
			s0.5,0.22363,0.5,0.5V311.93359z M16.87012,310.58301c0,0.27637-0.22363,0.5-0.5,0.5s-0.5-0.22363-0.5-0.5v-2.09961
			c0-0.27637,0.22363-0.5,0.5-0.5s0.5,0.22363,0.5,0.5V310.58301z M18.87012,313.20801c0,0.27637-0.22363,0.5-0.5,0.5
			s-0.5-0.22363-0.5-0.5v-4.72461c0-0.27637,0.22363-0.5,0.5-0.5s0.5,0.22363,0.5,0.5V313.20801z M20.87012,308.6709
			c0,0.27637-0.22363,0.5-0.5,0.5s-0.5-0.22363-0.5-0.5v-0.1875c0-0.27637,0.22363-0.5,0.5-0.5s0.5,0.22363,0.5,0.5V308.6709z"/>
		<path fill="#E5E5E5" d="M59.25122,304.17358c-1.96362,0-3.71655,0.89886-4.87207,2.30695l-1.67896-1.08307
			c1.58105-2.69141,2.41309-5.75195,2.41309-8.89746c0-7.4834-4.83984-14.2168-11.86133-16.63867l0.75195-2.33398
			c8.02051,2.74414,13.56055,10.44141,13.56055,18.97266c0,1.49121-0.16504,2.97852-0.48926,4.42188
			c-0.09082,0.4043,0.16309,0.80566,0.56641,0.89648c0.40625,0.0918,0.80566-0.16211,0.89648-0.56641
			c0.34961-1.55176,0.52637-3.15039,0.52637-4.75195c0-9.43359-6.30371-17.91895-15.3291-20.63379
			c-0.38672-0.12207-0.80371,0.09961-0.92969,0.48828l-1.21191,3.7627c-0.06152,0.19141-0.04395,0.40137,0.05078,0.58008
			c0.09375,0.17773,0.25684,0.31152,0.4502,0.36816c6.78223,2.00781,11.51855,8.35449,11.51855,15.43457
			c0,3.1084-0.8877,6.12402-2.56641,8.72266c-0.1084,0.16699-0.14551,0.37012-0.10352,0.56543
			c0.04199,0.19434,0.15918,0.36426,0.32715,0.47168l2.30737,1.48828c-0.39746,0.82574-0.62671,1.74774-0.62671,2.72552
			c0,3.47937,2.8208,6.29999,6.30005,6.29999c3.47949,0,6.30005-2.82062,6.30005-6.29999
			C65.55127,306.99414,62.73071,304.17358,59.25122,304.17358z M55.75098,310.56738c0,0.27637-0.22363,0.5-0.5,0.5
			s-0.5-0.22363-0.5-0.5v-0.1875c0-0.27637,0.22363-0.5,0.5-0.5s0.5,0.22363,0.5,0.5V310.56738z M57.75098,312.83594
			c0,0.27637-0.22363,0.5-0.5,0.5s-0.5-0.22363-0.5-0.5v-4.72461c0-0.27637,0.22363-0.5,0.5-0.5s0.5,0.22363,0.5,0.5V312.83594z
			 M59.75098,311.52344c0,0.27637-0.22363,0.5-0.5,0.5s-0.5-0.22363-0.5-0.5v-2.09961c0-0.27637,0.22363-0.5,0.5-0.5
			s0.5,0.22363,0.5,0.5V311.52344z M61.75098,312.19824c0,0.27637-0.22363,0.5-0.5,0.5s-0.5-0.22363-0.5-0.5v-3.44922
			c0-0.27637,0.22363-0.5,0.5-0.5s0.5,0.22363,0.5,0.5V312.19824z M63.75098,310.56738c0,0.27637-0.22363,0.5-0.5,0.5
			s-0.5-0.22363-0.5-0.5v-0.1875c0-0.27637,0.22363-0.5,0.5-0.5s0.5,0.22363,0.5,0.5V310.56738z"/>
	</g>
</g>
<g id="JACKS">
</g>
<g id="KNOBS">
</g>
<g id="PUSH">
</g>
<g id="LEDS">
</g>
</svg>
