<?xml version="1.0" encoding="UTF-8" standalone="no"?>
<!-- Generator: Adobe Illustrator 23.0.3, SVG Export Plug-In . SVG Version: 6.00 Build 0)  -->

<svg
   xmlns:dc="http://purl.org/dc/elements/1.1/"
   xmlns:cc="http://creativecommons.org/ns#"
   xmlns:rdf="http://www.w3.org/1999/02/22-rdf-syntax-ns#"
   xmlns:svg="http://www.w3.org/2000/svg"
   xmlns="http://www.w3.org/2000/svg"
   xmlns:sodipodi="http://sodipodi.sourceforge.net/DTD/sodipodi-0.dtd"
   xmlns:inkscape="http://www.inkscape.org/namespaces/inkscape"
   version="1.0"
   id="Layer_1"
   x="0px"
   y="0px"
   viewBox="0 0 35.838387 35.838425"
   enable-background="new 0 0 28 27.99994"
   xml:space="preserve"
   sodipodi:docname="Knob-DM.svg"
   width="9.4822397mm"
   height="9.4822502mm"
   inkscape:version="0.92.3 (2405546, 2018-03-11)"><metadata
   id="metadata59"><rdf:RDF><cc:Work
       rdf:about=""><dc:format>image/svg+xml</dc:format><dc:type
         rdf:resource="http://purl.org/dc/dcmitype/StillImage" /><dc:title>Knob</dc:title></cc:Work></rdf:RDF></metadata><defs
   id="defs57" /><sodipodi:namedview
   pagecolor="#ffffff"
   bordercolor="#666666"
   borderopacity="1"
   objecttolerance="10"
   gridtolerance="10"
   guidetolerance="10"
   inkscape:pageopacity="0"
   inkscape:pageshadow="2"
   inkscape:window-width="1920"
   inkscape:window-height="1017"
   id="namedview55"
   showgrid="false"
   inkscape:document-units="mm"
   units="mm"
   fit-margin-top="0"
   fit-margin-left="0"
   fit-margin-right="0"
   fit-margin-bottom="0"
   inkscape:zoom="8.4285892"
   inkscape:cx="14"
   inkscape:cy="13.999929"
   inkscape:window-x="-8"
   inkscape:window-y="-8"
   inkscape:window-maximized="1"
   inkscape:current-layer="Layer_1" />
<title
   id="title2">Knob</title>
<g
   id="g52"
   transform="scale(1.2799483)">
	<g
   id="g16">
		<circle
   cx="13.9999"
   cy="14.00004"
   r="12.94675"
   id="circle4"
   style="fill:#383838" />
		<path
   d="M 14.1863,12.94296 16.29229,0.99929 c 0.05181,-0.29382 0.33878,-0.49518 0.63031,-0.43175 1.85868,0.40442 3.61542,1.19074 5.15747,2.31111 1.54205,1.12037 2.83276,2.54814 3.79174,4.19088 0.15041,0.25766 0.04759,0.59281 -0.21584,0.73287 l -10.70832,5.69371 c -0.38513,0.20478 -0.8371,-0.12359 -0.76135,-0.55315 z"
   id="path6"
   inkscape:connector-curvature="0"
   style="fill:#595959" />
		<path
   d="m 15.06285,13.85066 12.01321,-1.68835 c 0.2934,-0.04123 0.57207,0.1681 0.60171,0.4629 0.04592,0.45673 0.06894,0.91558 0.06894,1.37483 0,3.37892 -1.24579,6.63564 -3.48624,9.14843 -0.19883,0.223 -0.54997,0.22896 -0.76489,0.02142 l -8.72353,-8.42421 c -0.31378,-0.30299 -0.14114,-0.83432 0.2908,-0.89502 z"
   id="path8"
   inkscape:connector-curvature="0"
   style="fill:#595959" />
		<path
   d="m 14.47045,14.9648 5.31653,10.90051 c 0.13079,0.26815 0.01698,0.59974 -0.25616,0.71977 -1.74141,0.76532 -3.62484,1.16176 -5.53092,1.16176 -1.90608,0 -3.78951,-0.39644 -5.53092,-1.16176 C 8.19585,26.46504 8.08204,26.13346 8.21283,25.86531 L 13.52936,14.9648 c 0.19121,-0.39204 0.74988,-0.39204 0.94109,0 z"
   id="path10"
   inkscape:connector-curvature="0"
   style="fill:#595959" />
		<path
   d="M 13.22777,14.74568 4.50424,23.16989 C 4.28933,23.37743 3.93818,23.37146 3.73935,23.14847 1.4989,20.63568 0.25311,17.37896 0.25311,14.00004 c 0,-0.45925 0.02301,-0.91811 0.06894,-1.37483 0.02964,-0.2948 0.30831,-0.50414 0.60171,-0.4629 l 12.01321,1.68835 c 0.43193,0.0607 0.60457,0.59203 0.2908,0.89502 z"
   id="path12"
   inkscape:connector-curvature="0"
   style="fill:#595959" />
		<path
   d="M 13.05216,13.49612 2.34384,7.8024 C 2.08041,7.66234 1.97759,7.32719 2.128,7.06953 3.08698,5.4268 4.37769,3.99902 5.91974,2.87866 7.46179,1.7583 9.21854,0.97197 11.07721,0.56755 c 0.29153,-0.06343 0.5785,0.13793 0.63031,0.43175 l 2.10599,11.94367 c 0.07574,0.42955 -0.37623,0.75792 -0.76135,0.55315 z"
   id="path14"
   inkscape:connector-curvature="0"
   style="fill:#595959" />
	</g>
	<path
   d="M 13.9999,14.01736 15.99105,2.72501 c 1.7154,0.30247 3.33953,0.99187 4.74872,2.01571 1.40919,1.02384 2.56674,2.35544 3.38449,3.89341 z"
   id="path18"
   inkscape:connector-curvature="0"
   style="fill:#424242" />
	<path
   d="m 13.9999,14.01736 11.35496,-1.59583 c 0.0743,0.5287 0.11159,1.06194 0.11159,1.59583 0,2.97079 -1.15452,5.82833 -3.2182,7.96533 z"
   id="path20"
   inkscape:connector-curvature="0"
   style="fill:#424242" />
	<path
   d="m 13.9999,14.01736 5.0266,10.30607 c -1.56557,0.76358 -3.28475,1.16048 -5.0266,1.16048 -1.74185,0 -3.46103,-0.3969 -5.0266,-1.16048 z"
   id="path22"
   inkscape:connector-curvature="0"
   style="fill:#424242" />
	<path
   d="M 13.9999,14.01736 5.75156,21.9827 c -2.06368,-2.137 -3.2182,-4.99454 -3.2182,-7.96533 0,-0.53389 0.03729,-1.06714 0.11159,-1.59583 z"
   id="path24"
   inkscape:connector-curvature="0"
   style="fill:#424242" />
	<path
   d="M 13.9999,14.01736 3.87554,8.63415 C 4.69329,7.09618 5.85084,5.76457 7.26003,4.74074 8.66922,3.71691 10.29336,3.0275 12.00875,2.72503 Z"
   id="path26"
   inkscape:connector-curvature="0"
   style="fill:#424242" />
	<circle
   cx="13.9999"
   cy="14.01736"
   r="10.36682"
   id="circle28"
   style="fill:#424242" />
	<g
   id="g34">
		<path
   d="m 13.99972,11.19592 c -0.04648,0 -0.19877,-0.01384 -0.23042,-0.19333 L 11.9962,0.94639 c -0.01187,-0.06527 0.004,-0.13301 0.04252,-0.18641 0.03758,-0.05093 0.09098,-0.08307 0.15031,-0.09147 0.59928,-0.08109 1.20845,-0.12213 1.81069,-0.12213 0.60225,0 1.21141,0.04104 1.81069,0.12262 0.05933,0.00791 0.11274,0.04005 0.15031,0.09098 0.03857,0.0539 0.05538,0.12164 0.04351,0.1869 l -1.7731,10.05522 c -0.03165,0.17998 -0.18493,0.19382 -0.23141,0.19382 z"
   id="path30"
   inkscape:connector-curvature="0"
   style="fill:#fcfcfc" />
		<path
   d="m 13.99991,0.83957 c 0.56831,0 1.14177,0.03734 1.70561,0.11102 L 13.99964,10.62476 12.2798,0.9525 c 0.56849,-0.07495 1.14693,-0.11293 1.72011,-0.11293 m 0,-0.58632 c -0.61907,0 -1.23723,0.04182 -1.85026,0.12511 -0.29472,0.04005 -0.49416,0.32586 -0.4425,0.61876 l 1.77309,10.05573 c 0.05126,0.2907 0.28546,0.43606 0.51967,0.43606 0.2342,0 0.46841,-0.14535 0.51967,-0.43606 L 16.29268,0.99712 C 16.34433,0.70421 16.14489,0.41841 15.85018,0.37836 15.23713,0.29507 14.61897,0.25325 13.99991,0.25325 Z"
   id="path32"
   inkscape:connector-curvature="0"
   style="fill:#b2b2b2" />
	</g>
	<g
   id="g40">
		<path
   d="m 12.22021,7.60131 c -0.10861,0 -0.19715,-0.08855 -0.19715,-0.19715 V 0.72311 c 0,-0.1086 0.08855,-0.19715 0.19715,-0.19715 h 3.54428 c 0.10959,0 0.19861,0.08855 0.19861,0.19715 v 6.68106 c 0,0.1086 -0.08904,0.19715 -0.19861,0.19715 h -3.54428 z"
   id="path36"
   inkscape:connector-curvature="0"
   style="fill:#7a7a7a" />
		<path
   d="M 15.67222,0.816 V 7.31144 H 12.31307 V 0.816 h 3.35915 m 0.09274,-0.5801 h -3.54462 c -0.26916,0 -0.48736,0.21819 -0.48736,0.48736 v 6.6809 c 0,0.26917 0.2182,0.48737 0.48736,0.48737 h 3.54462 c 0.26916,0 0.48736,-0.2182 0.48736,-0.48737 v -6.6809 c 0,-0.26917 -0.2182,-0.48736 -0.48736,-0.48736 z"
   id="path38"
   inkscape:connector-curvature="0"
   style="fill:#898989" />
	</g>
	<g
   id="g44"
   style="opacity:0.36000001">
		<rect
   x="12.32786"
   y="2.2558999"
   width="3.3295901"
   height="5.6356201"
   id="rect42"
   style="fill:#4f4f4f" />
	</g>
	<circle
   stroke-miterlimit="10"
   cx="13.9999"
   cy="14.00965"
   r="8.9461803"
   id="circle46"
   style="fill:#707070;stroke:#898989;stroke-width:0.57857001;stroke-miterlimit:10" />
	<g
   id="g50">
		<path
   d="m 13.99997,0.25316 c 0.61906,0 1.23712,0.04191 1.85025,0.1251 0.29269,0.03978 0.4915,0.32209 0.44355,0.61284 -5.3e-4,0.00273 -10e-4,0.00545 -0.0015,0.00819 l -0.04598,0.26157 0.04648,-0.26379 c 3.5e-4,-0.00198 6.9e-4,-0.00398 10e-4,-0.00597 0.04874,-0.25292 0.27211,-0.43532 0.52043,-0.43529 0.03578,0 0.07212,0.00379 0.10849,0.0117 1.85865,0.40446 3.6152,1.19077 5.1574,2.3112 1.5422,1.12031 2.83272,2.54804 3.79172,4.19075 0.15056,0.25773 0.04772,0.59285 -0.21582,0.7329 l -0.22646,0.12052 c 0.69643,1.30733 1.16493,2.75089 1.37755,4.27715 l 0.26898,-0.0377 c 0.02486,-0.0035 0.04961,-0.0052 0.07412,-0.0052 0.26476,0 0.50048,0.19828 0.52764,0.468 0.04598,0.45675 0.06898,0.91561 0.06898,1.37483 0,3.37897 -1.24578,6.6357 -3.4864,9.14851 -0.10254,0.11504 -0.2456,0.17231 -0.38959,0.17231 -0.13513,0 -0.27107,-0.05045 -0.37508,-0.15093 l -0.18889,-0.18246 c -1.04305,1.07989 -2.27325,1.97164 -3.6367,2.63816 l 0.11693,0.23981 c 0.13078,0.26799 0.01706,0.59965 -0.25637,0.71968 -1.74122,0.76542 -3.6246,1.16172 -5.53071,1.16172 -1.90611,0 -3.7895,-0.39631 -5.53096,-1.16172 C 8.19585,26.46501 8.08213,26.13335 8.21291,25.86536 L 8.32984,25.62555 C 6.96615,24.95903 5.73619,24.06728 4.69314,22.98739 l -0.18889,0.18246 c -0.10402,0.10049 -0.23999,0.15093 -0.3752,0.15093 -0.14403,0 -0.28719,-0.05729 -0.38972,-0.17231 -2.24037,-2.51281 -3.48615,-5.76954 -3.48615,-9.14851 0,-0.45922 0.023,-0.91808 0.06898,-1.37483 0.02716,-0.26974 0.26285,-0.46803 0.52764,-0.468 0.02449,0 0.04927,0.0017 0.07412,0.0052 l 0.26873,0.03783 C 1.40551,10.6739 1.87376,9.23021 2.57044,7.92288 L 2.34396,7.80236 C 2.08042,7.66231 1.97758,7.32719 2.12788,7.06946 3.08712,5.42675 4.37764,3.99902 5.91985,2.87871 7.46181,1.75827 9.2186,0.97197 11.07725,0.56751 11.11365,0.55959 11.14997,0.5558 11.18578,0.5558 c 0.25091,0 0.47621,0.18622 0.52165,0.44325 L 11.70719,0.99706 C 11.65552,0.70422 11.85504,0.41831 12.14972,0.37825 12.7626,0.29507 13.38091,0.25316 13.99997,0.25316 m 0,-0.25316 c -0.62751,0 -1.26148,0.04286 -1.8843,0.1274 -0.20449,0.0278 -0.38536,0.13462 -0.5106,0.30123 -0.12282,-0.07976 -0.26758,-0.12598 -0.41928,-0.12598 -0.05438,0 -0.109,0.00589 -0.16235,0.0175 C 9.11657,0.73509 7.34943,1.52702 5.77104,2.67391 4.19277,3.82042 2.89347,5.25635 1.90926,6.9418 1.80308,7.12387 1.77683,7.33718 1.83526,7.54257 1.89409,7.74933 2.0362,7.9255 2.22516,8.02591 L 2.2301,8.02854 C 1.61647,9.23732 1.19638,10.54229 0.97922,11.91446 l -0.02003,-0.0028 c -0.03669,-0.0052 -0.07327,-0.0077 -0.10941,-0.0077 -0.39782,-3e-5 -0.74023,0.3056 -0.77952,0.6958 C 0.02364,13.06282 0,13.53391 0,13.99997 c 0,3.44026 1.26087,6.74909 3.55035,9.31698 0.14557,0.16332 0.3565,0.257 0.57868,0.257 0.20718,0 0.40289,-0.07884 0.55109,-0.22201 l 0.00854,-0.0083 c 0.9666,0.96287 2.07603,1.7675 3.30378,2.39616 l -0.00711,0.01459 c -0.0938,0.1922 -0.10517,0.41825 -0.03116,0.62011 0.07351,0.2005 0.22018,0.35757 0.41301,0.44229 1.78613,0.78505 3.68128,1.18311 5.63279,1.18311 1.95159,0 3.84667,-0.39806 5.6326,-1.18313 0.19284,-0.08465 0.33961,-0.24173 0.41317,-0.44226 0.07403,-0.20185 0.06268,-0.4279 -0.03117,-0.6202 l -0.0071,-0.01452 c 1.22792,-0.62883 2.33737,-1.43346 3.30379,-2.39614 l 0.0085,0.0083 c 0.14818,0.14316 0.34385,0.222 0.55097,0.222 0.2221,0 0.43299,-0.09368 0.57857,-0.25703 2.28961,-2.56774 3.55057,-5.87658 3.55057,-9.31695 0,-0.46606 -0.02363,-0.93715 -0.07026,-1.40019 -0.03928,-0.39017 -0.3817,-0.69581 -0.77952,-0.69581 -0.03615,0 -0.07267,0.0025 -0.10934,0.0077 l -0.02028,0.0028 C 26.80366,10.54297 26.38366,9.2381 25.76981,8.02857 l 0.0051,-0.00272 C 25.96382,7.92547 26.10593,7.74924 26.16469,7.54241 26.22305,7.33699 26.19667,7.12368 26.0904,6.94177 25.10655,5.25647 23.80733,3.82054 22.22887,2.6739 20.65016,1.52693 18.883,0.73502 16.97651,0.32015 16.92319,0.30856 16.86861,0.30267 16.81426,0.30265 16.66088,0.30264 16.51604,0.3479 16.39357,0.4269 16.26836,0.26131 16.08786,0.15508 15.88431,0.12741 15.2612,0.04286 14.62723,0 13.99997,0 Z"
   id="path48"
   inkscape:connector-curvature="0"
   style="fill:#141414" />
	</g>
</g>
</svg>