<svg version="1.0" xmlns="http://www.w3.org/2000/svg" width="26.879" height="26.879" xml:space="preserve"><g opacity=".32"><path d="M23.142 8.877c.034.072.056.15.088.223.106.241.201.488.29.738a10.582 10.582 0 0 1 .389 1.38c.013.065.036.125.048.19.057.302.35.5.655.457l.335-.047v.005l.86-.12A12.41 12.41 0 0 0 24.48 7.57l-.785.417.005.008-.361.192a.558.558 0 0 0-.197.689zM2.27 11.865a.581.581 0 0 0 .656-.458c.012-.064.034-.124.048-.188A10.811 10.811 0 0 1 3.653 9.1c.032-.073.054-.151.088-.223a.558.558 0 0 0-.197-.689l-.361-.192.005-.008-.786-.417a12.41 12.41 0 0 0-1.327 4.131l.86.121v-.005l.335.047zM8.5 23.567a.573.573 0 0 0-.214-.743 10.718 10.718 0 0 1-2.176-1.58.562.562 0 0 0-.726-.013l-.3.29-.006-.005-.615.594a12.518 12.518 0 0 0 3.51 2.542l.377-.774h-.002l.152-.311zM20.773 21.245a10.718 10.718 0 0 1-2.176 1.579.574.574 0 0 0-.214.743l.151.31-.002.002.378.773a12.518 12.518 0 0 0 3.51-2.542l-.616-.594-.005.006-.301-.29a.562.562 0 0 0-.725.013zM12.112 2.793c.079-.01.16-.007.24-.015.262-.027.526-.04.79-.048a10.573 10.573 0 0 1 1.434.057c.065.007.13.004.194.012a.581.581 0 0 0 .638-.482l.059-.332h.005l.15-.854a12.41 12.41 0 0 0-4.339-.015l.155.876.009-.002.07.402c.082.256.323.434.595.4z"/></g><g opacity=".4"><path opacity=".4" d="M1.935 11.823a11.622 11.622 0 0 0 3.148 9.683l-.745.71a.572.572 0 0 1-.822-.025A13.248 13.248 0 0 1 .258 12.163c.03-.32.33-.545.649-.5l1.028.16zM18.534 23.878a11.62 11.62 0 0 1-10.184 0l-.456.92a.572.572 0 0 0 .277.775 13.244 13.244 0 0 0 10.54 0 .572.572 0 0 0 .278-.775l-.455-.92h-.002M21.799 21.506a11.622 11.622 0 0 0 3.148-9.688l1.029-.155a.569.569 0 0 1 .648.5 13.238 13.238 0 0 1-3.257 10.028.57.57 0 0 1-.822.025l-.746-.71zM23.7 7.98a11.622 11.622 0 0 0-8.241-5.987l.17-1.027a.569.569 0 0 1 .676-.462 13.24 13.24 0 0 1 8.531 6.197.57.57 0 0 1-.23.789l-.906.49zM3.187 7.98a11.622 11.622 0 0 1 8.241-5.987l-.17-1.027a.569.569 0 0 0-.676-.462A13.24 13.24 0 0 0 2.05 6.701a.57.57 0 0 0 .23.789l.906.49z"/></g><g fill="#333"><path d="M10.896.545a.32.32 0 0 1 .217-.32C4.81 1.327.015 6.814.015 13.434c0 7.415 6.011 13.426 13.426 13.426s13.426-6.011 13.426-13.426c0-6.62-4.795-12.107-11.098-13.21a.32.32 0 0 1 .219.303.503.503 0 0 1 .328-.03 13.242 13.242 0 0 1 8.531 6.197.57.57 0 0 1-.23.788l-.137.088c.67 1.259 1.12 2.648 1.324 4.118l.172-.026a.569.569 0 0 1 .648.5 13.235 13.235 0 0 1-3.257 10.028.57.57 0 0 1-.822.025l-.126-.106a12.52 12.52 0 0 1-3.504 2.539l.074.149a.572.572 0 0 1-.277.775 13.245 13.245 0 0 1-10.541 0 .572.572 0 0 1-.277-.775l.074-.149a12.517 12.517 0 0 1-3.505-2.539l-.125.105a.572.572 0 0 1-.822-.024A13.248 13.248 0 0 1 .258 12.163c.031-.32.33-.545.649-.5l.17.026c.206-1.47.656-2.859 1.325-4.118l-.136-.089a.57.57 0 0 1-.23-.787 13.245 13.245 0 0 1 8.53-6.198.508.508 0 0 1 .33.048z"/><path d="M.389 11.887a.32.32 0 0 1-.238-.306c-.898 6.336 2.84 12.592 9.135 14.637 7.052 2.291 14.626-1.568 16.917-8.62S24.635 2.972 17.583.681C11.288-1.365 4.588 1.499 1.59 7.153a.32.32 0 0 1 .356-.114.503.503 0 0 1 .072-.322A13.242 13.242 0 0 1 10.55.519a.57.57 0 0 1 .678.463l.041.157a12.409 12.409 0 0 1 4.326.012l.028-.17a.569.569 0 0 1 .676-.462 13.236 13.236 0 0 1 8.531 6.196.57.57 0 0 1-.23.79l-.14.087a12.52 12.52 0 0 1 1.332 4.117l.165-.024a.572.572 0 0 1 .651.503 13.244 13.244 0 0 1-3.257 10.025.572.572 0 0 1-.823.024l-.119-.117a12.517 12.517 0 0 1-3.497 2.548l.06.152a.572.572 0 0 1-.276.775 13.248 13.248 0 0 1-10.544-.001.569.569 0 0 1-.276-.772l.079-.154a12.408 12.408 0 0 1-3.508-2.532l-.126.102a.57.57 0 0 1-.82-.024A13.245 13.245 0 0 1 .24 12.186a.508.508 0 0 1 .148-.299z"/></g><path fill="#424242" d="M22.89 20.174c.135-.191.27-.382.394-.58.09-.146.174-.294.258-.444a11.606 11.606 0 0 0 .543-1.084c.112-.258.213-.52.306-.786.028-.081.067-.158.093-.24.012-.036.018-.074.03-.11.115-.367.214-.74.293-1.118l.014-.057c.155-.759.239-1.535.239-2.32 0-.065-.013-.13-.014-.195-.005-.27-.033-.539-.056-.808-.018-.205-.015-.41-.043-.614l-.335.047a.581.581 0 0 1-.655-.458 10.64 10.64 0 0 0-.815-2.53.556.556 0 0 1 .244-.72l.307-.162-.005-.008.012-.007a11.602 11.602 0 0 0-1.21-1.806c-.016-.02-.03-.04-.046-.058-.213-.263-.44-.513-.675-.756l-.099-.102c-.238-.239-.484-.467-.742-.685l-.073-.06c-.194-.161-.38-.33-.585-.478a11.611 11.611 0 0 0-4.609-1.994v.018c-.07-.013-.138-.04-.209-.052l-.059.333a.581.581 0 0 1-.638.482 10.639 10.639 0 0 0-2.658-.007.567.567 0 0 1-.62-.47l-.06-.338c-.066.012-.13.034-.196.046v-.012c-.28.054-.555.133-.83.208-.098.027-.198.045-.295.074a11.534 11.534 0 0 0-3.484 1.712 11.618 11.618 0 0 0-3.43 3.945l.303.161c.264.14.383.464.256.736a10.643 10.643 0 0 0-.815 2.53.581.581 0 0 1-.656.458l-.334-.047c-.01.074-.007.15-.016.224l-.008-.003c-.054.441-.08.883-.084 1.325 0 .024-.005.047-.005.07 0 .28.02.556.04.832.053.793.191 1.577.408 2.345.015.052.026.106.042.158.027.09.043.182.072.27.065.2.152.39.227.586.033.084.064.168.098.251.115.28.242.553.379.822a11.588 11.588 0 0 0 .59 1.034c.017.027.037.054.055.08.397.606.837 1.184 1.343 1.708l.246-.238a.567.567 0 0 1 .778-.016c.641.6 1.364 1.123 2.155 1.558.27.148.368.487.233.764l-.141.29-.007.014c.367.179.75.319 1.133.458.035.012.068.029.103.041.09.032.176.078.267.108 2.863.93 5.978.713 8.684-.607l-.005-.01.011-.004-.151-.311a.588.588 0 0 1-.036-.422.548.548 0 0 1 .255-.314c.777-.43 1.5-.955 2.152-1.567a.575.575 0 0 1 .79.016l.248.24c.119-.123.22-.259.333-.386.152-.172.308-.342.45-.522.11-.142.21-.291.314-.438z"/></svg>