<?xml version="1.0" encoding="utf-8"?>
<!-- Generator: Adobe Illustrator 23.0.3, SVG Export Plug-In . SVG Version: 6.00 Build 0)  -->
<svg version="1.0" id="Layer_1" xmlns="http://www.w3.org/2000/svg" xmlns:xlink="http://www.w3.org/1999/xlink" x="0px" y="0px"
	 viewBox="0 0 28 27.99994" enable-background="new 0 0 28 27.99994" xml:space="preserve">
<title>Knob</title>
<g>
	<g>
		<circle fill="#383838" cx="13.9999" cy="14.00004" r="12.94675"/>
		<path fill="#595959" d="M14.1863,12.94296l2.10599-11.94367c0.05181-0.29382,0.33878-0.49518,0.63031-0.43175
			c1.85868,0.40442,3.61542,1.19074,5.15747,2.31111c1.54205,1.12037,2.83276,2.54814,3.79174,4.19088
			c0.15041,0.25766,0.04759,0.59281-0.21584,0.73287l-10.70832,5.69371C14.56252,13.70089,14.11055,13.37252,14.1863,12.94296z"/>
		<path fill="#595959" d="M15.06285,13.85066l12.01321-1.68835c0.2934-0.04123,0.57207,0.1681,0.60171,0.4629
			c0.04592,0.45673,0.06894,0.91558,0.06894,1.37483c0,3.37892-1.24579,6.63564-3.48624,9.14843
			c-0.19883,0.223-0.54997,0.22896-0.76489,0.02142l-8.72353-8.42421C14.45827,14.44269,14.63091,13.91136,15.06285,13.85066z"/>
		<path fill="#595959" d="M14.47045,14.9648l5.31653,10.90051c0.13079,0.26815,0.01698,0.59974-0.25616,0.71977
			c-1.74141,0.76532-3.62484,1.16176-5.53092,1.16176s-3.78951-0.39644-5.53092-1.16176
			c-0.27313-0.12004-0.38694-0.45162-0.25615-0.71977l5.31653-10.90051C13.72057,14.57276,14.27924,14.57276,14.47045,14.9648z"/>
		<path fill="#595959" d="M13.22777,14.74568l-8.72353,8.42421c-0.21491,0.20754-0.56606,0.20157-0.76489-0.02142
			c-2.24045-2.51279-3.48624-5.76951-3.48624-9.14843c0-0.45925,0.02301-0.91811,0.06894-1.37483
			c0.02964-0.2948,0.30831-0.50414,0.60171-0.4629l12.01321,1.68835C13.3689,13.91136,13.54154,14.44269,13.22777,14.74568z"/>
		<path fill="#595959" d="M13.05216,13.49612L2.34384,7.8024C2.08041,7.66234,1.97759,7.32719,2.128,7.06953
			C3.08698,5.4268,4.37769,3.99902,5.91974,2.87866s3.2988-1.90669,5.15747-2.31111c0.29153-0.06343,0.5785,0.13793,0.63031,0.43175
			l2.10599,11.94367C13.88925,13.37252,13.43728,13.70089,13.05216,13.49612z"/>
	</g>
	<path fill="#424242" d="M13.9999,14.01736l1.99115-11.29235c1.7154,0.30247,3.33953,0.99187,4.74872,2.01571
		s2.56674,2.35544,3.38449,3.89341L13.9999,14.01736z"/>
	<path fill="#424242" d="M13.9999,14.01736l11.35496-1.59583c0.0743,0.5287,0.11159,1.06194,0.11159,1.59583
		c0,2.97079-1.15452,5.82833-3.2182,7.96533L13.9999,14.01736z"/>
	<path fill="#424242" d="M13.9999,14.01736l5.0266,10.30607c-1.56557,0.76358-3.28475,1.16048-5.0266,1.16048
		s-3.46103-0.3969-5.0266-1.16048L13.9999,14.01736z"/>
	<path fill="#424242" d="M13.9999,14.01736L5.75156,21.9827c-2.06368-2.137-3.2182-4.99454-3.2182-7.96533
		c0-0.53389,0.03729-1.06714,0.11159-1.59583L13.9999,14.01736z"/>
	<path fill="#424242" d="M13.9999,14.01736L3.87554,8.63415c0.81775-1.53797,1.9753-2.86958,3.38449-3.89341
		s3.03333-1.71324,4.74872-2.01571L13.9999,14.01736z"/>
	<circle fill="#424242" cx="13.9999" cy="14.01736" r="10.36682"/>
	<g>
		<path fill="#FCFCFC" d="M13.99972,11.19592c-0.04648,0-0.19877-0.01384-0.23042-0.19333L11.9962,0.94639
			c-0.01187-0.06527,0.00396-0.13301,0.04252-0.18641c0.03758-0.05093,0.09098-0.08307,0.15031-0.09147
			c0.59928-0.08109,1.20845-0.12213,1.81069-0.12213c0.60225,0,1.21141,0.04104,1.81069,0.12262
			c0.05933,0.00791,0.11274,0.04005,0.15031,0.09098c0.03857,0.0539,0.05538,0.12164,0.04351,0.1869L14.23113,11.0021
			C14.19948,11.18208,14.0462,11.19592,13.99972,11.19592z"/>
		<path fill="#B2B2B2" d="M13.99991,0.83957c0.56831,0,1.14177,0.03734,1.70561,0.11102l-1.70588,9.67417l-1.71984-9.67226
			C12.84829,0.87755,13.42673,0.83957,13.99991,0.83957 M13.99991,0.25325c-0.61907,0-1.23723,0.04182-1.85026,0.12511
			c-0.29472,0.04005-0.49416,0.32586-0.4425,0.61876l1.77309,10.05573c0.05126,0.2907,0.28546,0.43606,0.51967,0.43606
			c0.2342,0,0.46841-0.14535,0.51967-0.43606l1.7731-10.05573c0.05165-0.29291-0.14779-0.57871-0.4425-0.61876
			C15.23713,0.29507,14.61897,0.25325,13.99991,0.25325L13.99991,0.25325z"/>
	</g>
	<g>
		<path fill="#7A7A7A" d="M12.22021,7.60131c-0.10861,0-0.19715-0.08855-0.19715-0.19715V0.72311
			c0-0.1086,0.08855-0.19715,0.19715-0.19715h3.54428c0.10959,0,0.19861,0.08855,0.19861,0.19715v6.68106
			c0,0.1086-0.08904,0.19715-0.19861,0.19715h-3.54428V7.60131z"/>
		<path fill="#898989" d="M15.67222,0.816v6.49544h-3.35915V0.816H15.67222 M15.76496,0.2359h-3.54462
			c-0.26916,0-0.48736,0.21819-0.48736,0.48736v6.6809c0,0.26917,0.2182,0.48737,0.48736,0.48737h3.54462
			c0.26916,0,0.48736-0.2182,0.48736-0.48737v-6.6809C16.25232,0.45409,16.03412,0.2359,15.76496,0.2359L15.76496,0.2359z"/>
	</g>
	<g opacity="0.36">
		<rect x="12.32786" y="2.2559" fill="#4F4F4F" width="3.32959" height="5.63562"/>
	</g>
	<circle fill="#707070" stroke="#898989" stroke-width="0.57857" stroke-miterlimit="10" cx="13.9999" cy="14.00965" r="8.94618"/>
	<g>
		<path fill="#141414" d="M13.99997,0.25316c0.61906,0,1.23712,0.04191,1.85025,0.1251
			c0.29269,0.03978,0.4915,0.32209,0.44355,0.61284c-0.00053,0.00273-0.00103,0.00545-0.00151,0.00819l-0.04598,0.26157
			l0.04648-0.26379c0.00035-0.00198,0.00069-0.00398,0.00102-0.00597c0.04874-0.25292,0.27211-0.43532,0.52043-0.43529
			c0.03578,0,0.07212,0.00379,0.10849,0.0117c1.85865,0.40446,3.6152,1.19077,5.1574,2.3112
			c1.5422,1.12031,2.83272,2.54804,3.79172,4.19075c0.15056,0.25773,0.04772,0.59285-0.21582,0.7329l-0.22646,0.12052
			c0.69643,1.30733,1.16493,2.75089,1.37755,4.27715l0.26898-0.0377c0.02486-0.0035,0.04961-0.0052,0.07412-0.0052
			c0.26476,0,0.50048,0.19828,0.52764,0.468c0.04598,0.45675,0.06898,0.91561,0.06898,1.37483
			c0,3.37897-1.24578,6.6357-3.4864,9.14851c-0.10254,0.11504-0.2456,0.17231-0.38959,0.17231
			c-0.13513,0-0.27107-0.05045-0.37508-0.15093l-0.18889-0.18246c-1.04305,1.07989-2.27325,1.97164-3.6367,2.63816l0.11693,0.23981
			c0.13078,0.26799,0.01706,0.59965-0.25637,0.71968c-1.74122,0.76542-3.6246,1.16172-5.53071,1.16172
			s-3.7895-0.39631-5.53096-1.16172c-0.27319-0.12003-0.38691-0.45169-0.25613-0.71968l0.11693-0.23981
			c-1.36369-0.66652-2.59365-1.55827-3.6367-2.63816l-0.18889,0.18246c-0.10402,0.10049-0.23999,0.15093-0.3752,0.15093
			c-0.14403,0-0.28719-0.05729-0.38972-0.17231c-2.24037-2.51281-3.48615-5.76954-3.48615-9.14851
			c0-0.45922,0.023-0.91808,0.06898-1.37483c0.02716-0.26974,0.26285-0.46803,0.52764-0.468
			c0.02449,0,0.04927,0.0017,0.07412,0.0052l0.26873,0.03783c0.21286-1.52626,0.68111-2.96995,1.37779-4.27728L2.34396,7.80236
			c-0.26354-0.14005-0.36638-0.47517-0.21608-0.7329c0.95924-1.64271,2.24976-3.07044,3.79197-4.19075
			c1.54196-1.12044,3.29875-1.90674,5.1574-2.3112c0.0364-0.00792,0.07272-0.01171,0.10853-0.01171
			c0.25091,0,0.47621,0.18622,0.52165,0.44325l-0.00024-0.00199c-0.05167-0.29284,0.14785-0.57875,0.44253-0.61881
			C12.7626,0.29507,13.38091,0.25316,13.99997,0.25316 M13.99997,0c-0.62751,0-1.26148,0.04286-1.8843,0.1274
			c-0.20449,0.0278-0.38536,0.13462-0.5106,0.30123c-0.12282-0.07976-0.26758-0.12598-0.41928-0.12598
			c-0.05438,0-0.109,0.00589-0.16235,0.0175c-1.90687,0.41494-3.67401,1.20687-5.2524,2.35376
			C4.19277,3.82042,2.89347,5.25635,1.90926,6.9418c-0.10618,0.18207-0.13243,0.39538-0.074,0.60077
			C1.89409,7.74933,2.0362,7.9255,2.22516,8.02591L2.2301,8.02854c-0.61363,1.20878-1.03372,2.51375-1.25088,3.88592
			l-0.02003-0.00282c-0.03669-0.00515-0.07327-0.00767-0.10941-0.00767c-0.39782-0.00003-0.74023,0.3056-0.77952,0.6958
			C0.02364,13.06282,0,13.53391,0,13.99997c0,3.44026,1.26087,6.74909,3.55035,9.31698c0.14557,0.16332,0.3565,0.257,0.57868,0.257
			c0.20718,0,0.40289-0.07884,0.55109-0.22201l0.00854-0.00825c0.9666,0.96287,2.07603,1.7675,3.30378,2.39616l-0.00711,0.01459
			c-0.0938,0.1922-0.10517,0.41825-0.03116,0.62011c0.07351,0.2005,0.22018,0.35757,0.41301,0.44229
			c1.78613,0.78505,3.68128,1.18311,5.63279,1.18311c1.95159,0,3.84667-0.39806,5.6326-1.18313
			c0.19284-0.08465,0.33961-0.24173,0.41317-0.44226c0.07403-0.20185,0.06268-0.4279-0.03117-0.6202l-0.00708-0.01452
			c1.22792-0.62883,2.33737-1.43346,3.30379-2.39614l0.00855,0.00826c0.14818,0.14316,0.34385,0.222,0.55097,0.222
			c0.2221,0,0.43299-0.09368,0.57857-0.25703c2.28961-2.56774,3.55057-5.87658,3.55057-9.31695
			c0-0.46606-0.02363-0.93715-0.07026-1.40019c-0.03928-0.39017-0.3817-0.69581-0.77952-0.69581
			c-0.03615,0-0.07267,0.0025-0.10934,0.00766l-0.02028,0.00284c-0.21688-1.37151-0.63688-2.67638-1.25073-3.88591l0.00512-0.00272
			c0.18889-0.10038,0.331-0.27661,0.38976-0.48344c0.05836-0.20542,0.03198-0.41873-0.07429-0.60064
			c-0.98385-1.6853-2.28307-3.12123-3.86153-4.26787c-1.57871-1.14697-3.34587-1.93888-5.25236-2.35375
			c-0.05332-0.01159-0.1079-0.01748-0.16225-0.0175c-0.15338-0.00001-0.29822,0.04525-0.42069,0.12425
			c-0.12521-0.16559-0.30571-0.27182-0.50926-0.29949C15.2612,0.04286,14.62723,0,13.99997,0L13.99997,0z"/>
	</g>
</g>
</svg>
