<?xml version="1.0" encoding="UTF-8" standalone="no"?>
<!-- Generator: Adobe Illustrator 25.2.3, SVG Export Plug-In . SVG Version: 6.00 Build 0)  -->

<svg
   xmlns:dc="http://purl.org/dc/elements/1.1/"
   xmlns:cc="http://creativecommons.org/ns#"
   xmlns:rdf="http://www.w3.org/1999/02/22-rdf-syntax-ns#"
   xmlns:svg="http://www.w3.org/2000/svg"
   xmlns="http://www.w3.org/2000/svg"
   xmlns:sodipodi="http://sodipodi.sourceforge.net/DTD/sodipodi-0.dtd"
   xmlns:inkscape="http://www.inkscape.org/namespaces/inkscape"
   version="1.0"
   id="Layer_1"
   inkscape:version="0.92.3 (2405546, 2018-03-11)"
   sodipodi:docname="Pulsars-DM.svg"
   x="0px"
   y="0px"
   width="164.99998"
   height="380"
   viewBox="0 0 164.99999 380"
   enable-background="new 0 0 158.40001 364.25195"
   xml:space="preserve"><metadata
   id="metadata207"><rdf:RDF><cc:Work
       rdf:about=""><dc:format>image/svg+xml</dc:format><dc:type
         rdf:resource="http://purl.org/dc/dcmitype/StillImage" /><dc:title></dc:title></cc:Work></rdf:RDF></metadata><defs
   id="defs205" />
<sodipodi:namedview
   bordercolor="#666666"
   borderopacity="1"
   fit-margin-bottom="0"
   fit-margin-left="0"
   fit-margin-right="0"
   fit-margin-top="0"
   gridtolerance="10"
   guidetolerance="10"
   id="namedview232"
   inkscape:current-layer="Layer_1"
   inkscape:cx="-300.72081"
   inkscape:cy="190.27291"
   inkscape:document-units="mm"
   inkscape:pageopacity="0"
   inkscape:pageshadow="2"
   inkscape:window-height="1017"
   inkscape:window-maximized="1"
   inkscape:window-width="1920"
   inkscape:window-x="-8"
   inkscape:window-y="-8"
   inkscape:zoom="0.62105263"
   objecttolerance="10"
   pagecolor="#ffffff"
   showgrid="false"
   units="mm">
	</sodipodi:namedview>
<g
   id="bg"
   transform="matrix(1.3333338,0,0,1.3333338,1.4666672e-4,-0.09476003)">
	
		<linearGradient
   id="rect11_1_"
   gradientUnits="userSpaceOnUse"
   x1="-34.380749"
   y1="412.22626"
   x2="233.33578"
   y2="679.94275"
   gradientTransform="matrix(0.95999,0,0,0.95999,-6.81314,-354.17163)">
		<stop
   offset="0.38537"
   style="stop-color:#FFCC9E"
   id="stop3" />
		<stop
   offset="0.62112"
   style="stop-color:#F1AD8C"
   id="stop5" />
		<stop
   offset="0.85662"
   style="stop-color:#E6947E"
   id="stop7" />
		<stop
   offset="1"
   style="stop-color:#E28B79"
   id="stop9" />
	</linearGradient>
	<rect
   id="rect11"
   x="0.27283001"
   y="1.47198"
   width="120.60472"
   height="280.96991"
   style="fill:url(#rect11_1_)" />
	<g
   id="g97">
		<path
   id="path13"
   inkscape:connector-curvature="0"
   d="m 38.62194,7.1675 c 0,-0.10766 -0.07471,-0.25708 -0.17359,-0.25708 h -0.74634 v 0.52222 h 0.74634 c 0.09889,0 0.17359,-0.15747 0.17359,-0.26514 z"
   style="fill:#252626" />
		<polygon
   id="polygon15"
   points="80.28868,264.02118 79.71666,264.64227 80.27623,264.86493 "
   style="fill:#252626" />
		<polygon
   id="polygon17"
   points="22.45374,166.56296 23.01771,166.77536 23.01405,165.93088 "
   style="fill:#252626" />
		<path
   id="path19"
   inkscape:connector-curvature="0"
   d="m 36.79236,28.24734 c 0.5896,-0.09741 0.9917,-0.65699 0.89428,-1.25098 -0.09814,-0.59839 -0.65918,-1.00048 -1.24878,-0.90381 -0.58887,0.09668 -0.99096,0.65698 -0.89209,1.25537 0.09669,0.59473 0.65699,0.9961 1.24659,0.89942 z"
   style="fill:#252626" />
		<path
   id="path21"
   inkscape:connector-curvature="0"
   d="m 78.04088,262.39374 -0.45045,-0.32446 -0.27466,0.38013 0.44971,0.3252 c 0.104,0.0739 0.2461,0.0476 0.32079,-0.0556 0.07471,-0.10254 0.05423,-0.25269 -0.04537,-0.3252 z"
   style="fill:#252626" />
		<polygon
   id="polygon23"
   points="69.12438,8.64187 69.67955,8.64187 69.40636,7.78055 "
   style="fill:#252626" />
		<path
   id="path25"
   inkscape:connector-curvature="0"
   d="m 82.85435,240.2746 c 0.0198,0.12964 0.14429,0.21753 0.27026,0.19775 l 0.5625,-0.0872 -0.07253,-0.46875 -0.5625,0.0879 c -0.12598,0.019 -0.21826,0.13916 -0.19775,0.27026 h 2e-5 z"
   style="fill:#252626" />
		<polygon
   id="polygon27"
   points="80.8922,27.85769 81.46202,27.66799 80.92809,27.01613 "
   style="fill:#252626" />
		<path
   id="path29"
   inkscape:connector-curvature="0"
   d="m 77.77208,7.1675 c 0,-0.11645 -0.08276,-0.26514 -0.19849,-0.26514 h -0.76245 v 0.53027 h 0.76245 c 0.11573,1e-5 0.19849,-0.1494 0.19849,-0.26513 z"
   style="fill:#252626" />
		<path
   id="path31"
   inkscape:connector-curvature="0"
   d="m 38.83216,264.40057 c -0.59692,0.0212 -1.06787,0.52661 -1.0459,1.13306 0.02124,0.60132 0.52661,1.07227 1.12426,1.05029 0.59692,-0.0205 1.06714,-0.52661 1.0459,-1.12793 -0.02198,-0.60644 -0.52734,-1.07666 -1.12426,-1.05542 z"
   style="fill:#252626" />
		<path
   id="path33"
   inkscape:connector-curvature="0"
   d="m 8.35097,169.16306 -0.38452,0.41968 0.34936,0.32007 0.38379,-0.41968 c 0.08569,-0.0945 0.08276,-0.24536 -0.01538,-0.33472 -0.09667,-0.0886 -0.24756,-0.0798 -0.33325,0.0146 z"
   style="fill:#252626" />
		<path
   id="path35"
   inkscape:connector-curvature="0"
   d="m 50.86364,248.18402 c 0.55225,-0.2395 0.80566,-0.88184 0.56836,-1.42896 -0.2373,-0.54785 -0.87964,-0.802 -1.43115,-0.5625 -0.55591,0.24097 -0.80933,0.88257 -0.57275,1.43042 0.23803,0.54786 0.8789,0.80128 1.43554,0.56104 z"
   style="fill:#252626" />
		<path
   id="path37"
   inkscape:connector-curvature="0"
   d="m 15.58509,164.89963 c -0.58374,0.12305 -0.96094,0.7002 -0.83642,1.29346 0.12378,0.58813 0.70093,0.96533 1.28467,0.84229 0.58447,-0.12158 0.96094,-0.69946 0.83789,-1.2876 -0.12452,-0.59254 -0.7024,-0.96972 -1.28614,-0.84815 z"
   style="fill:#252626" />
		<path
   id="path39"
   inkscape:connector-curvature="0"
   d="m 83.17296,52.80616 0.56396,0.0835 0.06885,-0.46875 -0.5625,-0.08276 c -0.12672,-0.01904 -0.24976,0.06812 -0.26954,0.19922 -0.01905,0.1311 0.07395,0.25048 0.19923,0.26879 z"
   style="fill:#252626" />
		<path
   id="path41"
   inkscape:connector-curvature="0"
   d="m 5.47987,175.09714 c -0.12524,-0.0256 -0.25268,0.0557 -0.27759,0.17578 l -0.1106,0.54492 0.4607,0.0937 0.11059,-0.54492 c 0.02491,-0.12525 -0.05786,-0.24463 -0.1831,-0.26953 z"
   style="fill:#252626" />
		<path
   id="path43"
   inkscape:connector-curvature="0"
   d="m 73.21348,248.56415 c 0.12524,0.0425 0.25928,-0.0271 0.30103,-0.14722 l 0.1853,-0.53833 -0.44751,-0.15308 -0.18604,0.53687 c -0.04101,0.12085 0.02271,0.25855 0.14722,0.30176 z"
   style="fill:#252626" />
		<path
   id="path45"
   inkscape:connector-curvature="0"
   d="m 47.13708,48.66578 c 0.41089,0.38818 1.07079,0.35962 1.47217,-0.06445 l 0.33179,-0.35156 -1.49121,-1.40918 -0.33178,0.35083 c -0.40138,0.4248 -0.39259,1.08618 0.01903,1.47436 z"
   style="fill:#252626" />
		<polygon
   id="polygon47"
   points="102.70298,125.97069 102.11411,125.84471 102.24302,126.67967 "
   style="fill:#252626" />
		<path
   id="path49"
   inkscape:connector-curvature="0"
   d="m 116.26596,121.30883 0.31714,-0.47241 -0.39331,-0.2644 -0.31714,0.47241 c -0.071,0.10547 -0.0447,0.25415 0.0644,0.32812 0.10913,0.0739 0.25708,0.0418 0.32886,-0.0638 z"
   style="fill:#252626" />
		<path
   id="path51"
   inkscape:connector-curvature="0"
   d="m 109.74228,126.59691 c 0.55957,-0.20728 0.84668,-0.83423 0.63574,-1.40186 -0.20947,-0.56396 -0.83569,-0.85107 -1.39526,-0.64307 -0.55957,0.20728 -0.84668,0.83423 -0.63721,1.39746 0.21167,0.56837 0.83716,0.85474 1.39673,0.64747 z"
   style="fill:#252626" />
		<path
   id="path53"
   inkscape:connector-curvature="0"
   d="m 118.00546,114.79321 c -0.007,0.12744 0.093,0.23291 0.22119,0.23877 0.12671,0.007 0.2417,-0.0923 0.24829,-0.21533 l 0.0278,-0.55444 -0.46875,-0.0249 z"
   style="fill:#252626" />
		<path
   id="path55"
   inkscape:connector-curvature="0"
   d="m 72.41075,43.36012 c -0.12598,0.04102 -0.19263,0.17797 -0.15308,0.29956 l 0.17432,0.54272 0.45117,-0.14575 -0.17359,-0.54272 c -0.03954,-0.12158 -0.17284,-0.19336 -0.29882,-0.15381 z"
   style="fill:#252626" />
		<path
   id="path57"
   inkscape:connector-curvature="0"
   d="m 77.9735,27.97194 -0.46655,0.30323 0.25562,0.39404 0.46582,-0.30323 c 0.10766,-0.06885 0.13477,-0.21167 0.06517,-0.3186 -0.06961,-0.10767 -0.21679,-0.14209 -0.32006,-0.07544 z"
   style="fill:#252626" />
		<path
   id="path59"
   inkscape:connector-curvature="0"
   d="m 46.0238,241.68158 c -0.35596,0.43945 -0.27686,1.09644 0.17725,1.46338 l 0.37574,0.30396 1.29052,-1.59521 -0.37573,-0.30469 c -0.45338,-0.36622 -1.11256,-0.30689 -1.46778,0.13256 z"
   style="fill:#252626" />
		<path
   id="path61"
   inkscape:connector-curvature="0"
   d="m 50.41687,43.81569 c 0.58521,0.15747 1.1836,-0.18604 1.33887,-0.76319 0.15601,-0.57641 -0.1875,-1.17553 -0.77344,-1.333 -0.58081,-0.15673 -1.17921,0.1875 -1.33447,0.76319 -0.15601,0.57714 0.18749,1.17552 0.76904,1.333 z"
   style="fill:#252626" />
		<path
   id="path63"
   inkscape:connector-curvature="0"
   d="m 85.24036,196.23967 c 0,-5.32703 3.73708,-9.7747 8.73074,-10.88235 -0.49924,-1.46819 -1.09456,-2.89142 -1.78207,-4.26192 -1.64218,0.95155 -3.54364,1.50508 -5.57817,1.50508 -6.16026,0 -11.15414,-4.99388 -11.15414,-11.1541 0,-2.0256 0.54831,-3.91951 1.49208,-5.55679 -1.36538,-0.68097 -2.78316,-1.26979 -4.24493,-1.76408 -1.11049,4.98981 -5.55615,8.72319 -10.88044,8.72319 -5.31276,0 -9.74968,-3.71759 -10.87225,-8.6911 -1.44067,0.49196 -2.83809,1.07616 -4.1846,1.74962 0.93732,1.63316 1.48118,3.52075 1.48118,5.5388 0,6.16026 -4.99388,11.15414 -11.15414,11.15414 -2.02002,0 -3.90926,-0.54501 -5.54352,-1.48402 -0.68312,1.36409 -1.27474,2.78041 -1.77145,4.24113 4.99365,1.1076 8.73074,5.55537 8.73074,10.8824 0,5.32709 -3.73718,9.77486 -8.73088,10.88246 0.49027,1.44177 1.07236,2.84056 1.7443,4.18831 1.64763,-0.96025 3.55751,-1.51959 5.60206,-1.51959 6.16026,0 11.15414,4.99384 11.15414,11.1541 0,2.05138 -0.56332,3.96707 -1.52953,5.61841 1.36468,0.68349 2.78164,1.27542 4.24306,1.77228 1.10774,-4.99347 5.55538,-8.73047 10.88232,-8.73047 5.32694,0 9.77463,3.737 10.88237,8.73047 1.45619,-0.49512 2.8683,-1.0844 4.22845,-1.76482 -0.96895,-1.65303 -1.53406,-3.57138 -1.53406,-5.62587 0,-6.16026 4.99388,-11.1541 11.15414,-11.1541 2.05064,0 3.96565,0.56287 5.61662,1.52843 0.67383,-1.35045 1.25752,-2.75217 1.74884,-4.19714 -4.99368,-1.10761 -8.73086,-5.55538 -8.73086,-10.88247 z"
   style="fill:#252626" />
		<path
   id="path65"
   inkscape:connector-curvature="0"
   d="m 5.51682,113.89086 c -0.11865,-0.03 -0.24097,0.041 -0.28125,0.16187 l -0.14942,0.57202 0.44531,0.11646 0.14795,-0.57202 c 0.03223,-0.12379 -0.04394,-0.2461 -0.16259,-0.27833 z"
   style="fill:#252626" />
		<path
   id="path67"
   inkscape:connector-curvature="0"
   d="m 11.09933,146.55467 c 0.12744,-0.0359 0.19922,-0.16919 0.16406,-0.29224 l -0.15527,-0.54932 -0.4563,0.12891 0.15454,0.54858 c 0.03516,0.12231 0.16553,0.19995 0.29297,0.16405 z"
   style="fill:#252626" />
		<path
   id="path69"
   inkscape:connector-curvature="0"
   d="m 112.16985,140.51439 c -0.33691,-0.49292 -1.0144,-0.62109 -1.51538,-0.27832 -0.49658,0.33984 -0.62402,1.0166 -0.28711,1.51025 0.33691,0.49292 1.01514,0.62109 1.51172,0.28125 0.50096,-0.34204 0.6284,-1.01953 0.29077,-1.51318 z"
   style="fill:#252626" />
		<polygon
   id="polygon71"
   points="103.76678,136.18724 104.34978,136.33958 104.2575,135.50023 "
   style="fill:#252626" />
		<path
   id="path73"
   inkscape:connector-curvature="0"
   d="m 93.63738,137.13573 c -0.07327,-0.10913 -0.22266,-0.13403 -0.32812,-0.063 l -0.47021,0.31934 0.26367,0.39185 0.47168,-0.31934 c 0.10546,-0.071 0.1377,-0.21973 0.063,-0.32886 z"
   style="fill:#252626" />
		<path
   id="path75"
   inkscape:connector-curvature="0"
   d="m 26.16964,156.86349 c 0.58154,-0.1377 0.94409,-0.72363 0.80566,-1.30957 -0.13916,-0.59033 -0.72583,-0.95215 -1.30664,-0.81445 -0.58154,0.13623 -0.94483,0.72363 -0.80493,1.31396 0.13769,0.58521 0.72583,0.94776 1.30591,0.81006 z"
   style="fill:#252626" />
		<polygon
   id="polygon77"
   points="104.4472,184.77316 105.00018,185.00754 105.0302,184.16525 "
   style="fill:#252626" />
		<path
   id="path79"
   inkscape:connector-curvature="0"
   d="m 6.90988,113.75976 c -0.25562,-0.0667 -0.52661,0.0886 -0.59766,0.34351 l -0.20435,0.78735 0.9602,0.24976 0.20361,-0.78369 c 0.0586,-0.26222 -0.10253,-0.52955 -0.3618,-0.59693 z"
   style="fill:#252626" />
		<path
   id="path81"
   inkscape:connector-curvature="0"
   d="m 118.26286,179.43381 c -0.23877,-0.11206 -0.53394,-0.008 -0.64966,0.22925 l -0.34497,0.73901 0.90088,0.42041 0.34204,-0.73535 c 0.10547,-0.24683 -0.005,-0.5398 -0.24829,-0.65332 z"
   style="fill:#252626" />
		<polygon
   id="polygon83"
   points="16.64523,154.7446 17.17843,155.02072 17.27365,154.18356 "
   style="fill:#252626" />
		<path
   id="path85"
   inkscape:connector-curvature="0"
   d="M -1.1e-4,0.07107 V 285.07098 H 123.74984 V 0.07108 Z m 117.52877,117.39181 -0.39917,1.26855 -0.57788,-0.18164 0.39917,-1.26929 -0.92139,-0.29004 -0.44604,1.4165 -0.57349,-0.17944 0.62842,-1.99951 3.09521,0.97266 -0.6416,2.03906 -0.5647,-0.17725 0.4585,-1.45605 z m 0.6665,-1.82007 c -0.45996,-0.0241 -0.80933,-0.42041 -0.78589,-0.88037 l 0.0286,-0.55518 -1.57983,-0.0813 0.0315,-0.60498 3.24097,0.16626 -0.0593,1.16016 c -0.0117,0.22339 -0.1084,0.42847 -0.27612,0.58008 -0.16699,0.14648 -0.3772,0.2263 -0.59985,0.21532 z m 0.41602,-5.52978 -1.979,0.44531 c -0.35522,0.0806 -0.58374,0.43579 -0.50464,0.78735 0.0806,0.35522 0.43799,0.57422 0.79321,0.49365 l 1.979,-0.44531 0.13403,0.59473 -1.979,0.44604 c -0.32886,0.0747 -0.6687,0.0154 -0.95288,-0.16333 -0.28418,-0.18384 -0.4834,-0.46582 -0.55737,-0.79468 -0.15308,-0.68042 0.27393,-1.35645 0.95508,-1.50952 l 1.97827,-0.44604 z m -4.29126,-2.83667 0.0249,-0.11353 0.59399,0.12671 -0.0249,0.11353 c -0.0564,0.27246 -0.0505,0.5354 0.0212,0.75586 l 0.002,0.005 c 0.0212,0.0659 0.0469,0.13037 0.0806,0.1897 0.0557,0.0996 0.12671,0.18018 0.20581,0.23584 0.093,0.0725 0.24316,0.13477 0.40576,0.0439 0.0872,-0.049 0.13037,-0.1311 0.1355,-0.25342 0.004,-0.14868 -0.0447,-0.3208 -0.085,-0.43872 -0.0191,-0.0527 -0.16187,-0.50537 -0.16406,-0.75 0.007,-0.16626 0.0483,-0.31494 0.12231,-0.44531 0.0769,-0.13184 0.18677,-0.23438 0.32593,-0.31348 0.15088,-0.0842 0.32886,-0.12085 0.51855,-0.1084 0.16479,0.0234 0.32739,0.0894 0.47534,0.19482 0.14795,0.10546 0.27246,0.2439 0.36914,0.41528 0.0374,0.0673 0.0703,0.14355 0.10181,0.21973 0.10034,0.28857 0.12524,0.61377 0.0615,0.94849 l -0.0212,0.1106 -0.59912,-0.1084 0.0212,-0.1106 c 0.0659,-0.3772 -0.0117,-0.62695 -0.0915,-0.77051 -0.0513,-0.0908 -0.11865,-0.16333 -0.1897,-0.21753 -0.11499,-0.082 -0.24976,-0.0996 -0.3457,-0.0461 -0.0879,0.0483 -0.12451,0.11279 -0.13477,0.2168 -0.01,0.104 0.0154,0.2417 0.0784,0.44678 0.01,0.0264 0.0191,0.0622 0.0293,0.0989 0.0622,0.18457 0.13916,0.43433 0.13477,0.64087 0.004,0.17578 -0.0373,0.33472 -0.11279,0.47095 -0.0747,0.13623 -0.1897,0.24829 -0.33325,0.32812 -0.17944,0.10034 -0.36475,0.14136 -0.55298,0.12231 -0.16333,-0.0183 -0.33179,-0.0864 -0.50244,-0.20435 -0.14941,-0.0996 -0.2688,-0.2373 -0.37793,-0.4314 -0.0513,-0.0915 -0.0923,-0.19409 -0.12891,-0.30396 -0.10545,-0.32887 -0.1223,-0.69508 -0.044,-1.06789 z m -5.54664,16.71166 c 0.87524,-0.3252 1.85229,0.11938 2.17749,0.9939 0.32593,0.87964 -0.12231,1.85815 -0.99756,2.18335 -0.87964,0.32593 -1.85742,-0.12158 -2.18408,-1.00195 -0.32519,-0.87526 0.12452,-1.84937 1.00415,-2.1753 z m 1.09603,18.09815 c -0.52661,-0.77124 -0.33105,-1.82739 0.43945,-2.35547 0.77637,-0.52881 1.83545,-0.33032 2.36279,0.44238 0.52954,0.7749 0.33105,1.83252 -0.44531,2.36279 -0.77124,0.52734 -1.82666,0.3252 -2.35693,-0.44969 z m 1.41943,19.25242 c 0.12744,0.31567 -0.022,0.67529 -0.33765,0.81006 -0.0747,0.03 -0.15747,0.0455 -0.2395,0.0455 -0.24023,0 -0.47241,-0.14282 -0.57788,-0.38232 -0.12744,-0.31567 0.0227,-0.67529 0.33765,-0.81006 0.31496,-0.1355 0.68263,0.0146 0.81738,0.33691 z m -7.29345,23.896 -0.65039,0.67383 -0.59985,-0.25342 2.4104,-2.49976 0.50757,0.2146 -0.10913,3.47241 -0.60352,-0.25488 0.0337,-0.93457 z m -2.22542,-57.65404 -0.54565,-3.43872 0.64233,0.1377 0.14209,0.92651 1.05249,0.22559 0.51343,-0.78516 0.63794,0.13696 -1.90356,2.91284 z m 2.46712,6.90015 0.5332,0.14062 0.39404,3.4585 -0.63574,-0.16699 -0.10107,-0.93091 -1.0415,-0.27246 -0.54785,0.76245 -0.63135,-0.16479 z m -2.25,-0.38819 0.003,0.60205 -0.79688,0.005 0.0169,2.64185 -0.61157,0.004 -0.0161,-2.64185 -0.79688,0.006 -0.0045,-0.60205 z m -1.94165,34.10961 1.45679,1.40991 c 0.26221,0.25342 0.68481,0.25049 0.93457,-0.009 0.25342,-0.26221 0.2395,-0.68042 -0.022,-0.93457 l -1.45679,-1.40918 0.42554,-0.43945 1.45605,1.41064 c 0.24243,0.23438 0.38013,0.55078 0.38452,0.88623 0.002,0.33838 -0.12378,0.65918 -0.35889,0.90161 -0.48486,0.50098 -1.2832,0.51343 -1.78418,0.0286 l -1.45752,-1.40918 z m 3.74487,-1.60472 0.88257,1.93652 -0.55518,0.25269 -1.34546,-2.95166 0.53833,-0.24536 2.18701,1.33667 -0.88037,-1.9314 0.55518,-0.25342 1.34545,2.95166 -0.5354,0.24316 z m 2.66894,-27.75806 -0.53687,-0.29443 1.27515,-2.31665 -0.69946,-0.38452 0.29077,-0.52661 1.93213,1.06348 -0.28931,0.52661 -0.69946,-0.38452 z m 0.39697,16.28978 c 0.27759,-0.21021 0.66064,-0.15747 0.87817,0.11206 0.20947,0.27026 0.15747,0.65991 -0.11279,0.87012 -0.11279,0.0901 -0.24756,0.13477 -0.38232,0.13477 -0.1875,0 -0.36768,-0.082 -0.48779,-0.24683 -0.21021,-0.27027 -0.1648,-0.66065 0.10473,-0.87012 z m 0.62623,9.19775 0.4292,3.21533 -0.60498,0.0806 -0.42993,-3.21533 z m 0.36328,-24.52366 2.12549,-2.45435 0.46216,0.3999 -2.12549,2.45361 z m -1.32601,-11.90918 -0.97045,-2.2229 -0.77271,2.30127 -0.65039,0.0293 1.10156,-3.29664 0.55077,-0.0249 1.39673,3.18457 z M 105.6854,53.14601 c -0.12158,0.12085 -0.28052,0.18164 -0.43945,0.18164 -0.15893,0 -0.31787,-0.06079 -0.43945,-0.18164 -3.02124,-3.02271 -6.37134,-5.73047 -9.95728,-8.05005 -0.28784,-0.18604 -0.37061,-0.57056 -0.18384,-0.85913 0.18677,-0.28857 0.57056,-0.36914 0.85913,-0.18384 3.65845,2.36645 7.07739,5.12988 10.16089,8.21411 0.24244,0.24318 0.24244,0.63648 0,0.87891 z m -11.35953,86.4404 -0.49072,0.33325 -1.81934,-2.68506 0.96094,-0.65186 c 0.18017,-0.12305 0.39844,-0.16699 0.61963,-0.12378 0.22266,0.0425 0.40869,0.16333 0.53173,0.34424 0.18164,0.26733 0.1875,0.61597 0.03075,0.88843 l 1.93211,0.69727 -0.59619,0.40503 -1.84423,-0.66577 -0.2146,0.14575 z m -32.06058,-8.7594 v -1.24219 c 18.51141,-0.21098 33.50824,-15.3283 33.50824,-33.88879 0,-18.6914 -15.20727,-33.89867 -33.89867,-33.89867 -18.6914,0 -33.89866,15.20727 -33.89866,33.89867 0,18.56048 14.99679,33.67781 33.50829,33.88879 v 1.24219 c -19.197,-0.21103 -34.75047,-15.88494 -34.75047,-35.13097 0,-19.37695 15.7639,-35.14085 35.14085,-35.14085 19.37695,0 35.14085,15.7639 35.14085,35.14085 0,19.24603 -15.55346,34.9199 -34.75043,35.13097 z m 28.03152,14.91174 c -0.03809,0.31494 -0.30762,0.54785 -0.61523,0.54785 -0.03,0 -0.05272,0 -0.07544,0 -0.34497,-0.0455 -0.58447,-0.35303 -0.54712,-0.68994 0.0447,-0.34497 0.35229,-0.58521 0.68994,-0.54785 0.34497,0.0454 0.5852,0.3523 0.54785,0.68994 z m -3.44312,-0.2622 c 0,0.34497 -0.27759,0.62256 -0.61451,0.62988 h -0.008 c -0.33691,0 -0.61451,-0.27026 -0.62183,-0.61523 -0.008,-0.34497 0.26953,-0.62256 0.6145,-0.62256 v -0.008 c 0.34497,2e-5 0.62256,0.27028 0.62988,0.61523 z m -10.44726,2.72973 c -0.08276,0.03 -0.16479,0.0527 -0.24756,0.0527 -0.24023,0 -0.47241,-0.14282 -0.56983,-0.375 -0.13477,-0.31494 0.0075,-0.68262 0.32227,-0.81738 0.31494,-0.14282 0.68262,0.007 0.81738,0.32227 0.13551,0.31494 -0.0075,0.67529 -0.32226,0.81738 v 10e-6 z m -3,1.53736 c -0.09741,0.0601 -0.21021,0.0901 -0.31494,0.0901 -0.21021,0 -0.41968,-0.10474 -0.53247,-0.29956 -0.18017,-0.29297 -0.08276,-0.67529 0.21021,-0.85547 0.29224,-0.17212 0.67455,-0.0747 0.85474,0.21753 0.17284,0.29296 0.0747,0.67527 -0.21754,0.84741 z m -2.76782,1.92773 c -0.11205,0.0901 -0.24683,0.13477 -0.38232,0.13477 -0.1875,0 -0.36768,-0.0747 -0.48706,-0.23218 -0.21753,-0.27026 -0.17285,-0.65991 0.09741,-0.87012 0.26954,-0.21753 0.65991,-0.17212 0.87744,0.0974 0.21021,0.26294 0.16479,0.65992 -0.10547,0.87012 z m -8.76374,-44.82119 c -6.16026,0 -11.15409,-4.99387 -11.15409,-11.1541 0,-6.16026 4.99383,-11.15414 11.15409,-11.15414 6.16026,0 11.15414,4.99387 11.15414,11.15414 0,6.16023 -4.99388,11.1541 -11.15414,11.1541 z m -5.46867,32.04116 c -0.23291,0.24756 -0.62988,0.25488 -0.87744,0.0146 -0.24756,-0.2395 -0.25488,-0.62988 -0.01538,-0.87744 0.12012,-0.12744 0.28491,-0.1875 0.45044,-0.1875 0.14941,0 0.30688,0.0527 0.42701,0.17285 0.24755,0.2395 0.25487,0.62988 0.01537,0.87744 z m -2.61035,2.37744 c -0.26954,0.21753 -0.65991,0.17212 -0.87744,-0.0974 -0.21021,-0.26294 -0.16479,-0.65991 0.10547,-0.87012 0.11206,-0.0901 0.24683,-0.13477 0.38233,-0.13477 0.1875,0 0.36767,0.0747 0.48705,0.23218 0.21753,0.27029 0.17286,0.65992 -0.09741,0.87012 z m -2.90259,2.02515 c -0.29224,0.17212 -0.67455,0.0747 -0.85474,-0.21753 -0.17285,-0.29297 -0.07471,-0.67529 0.21753,-0.84741 0.09741,-0.0601 0.21021,-0.0901 0.31494,-0.0901 0.21021,0 0.41968,0.10474 0.53247,0.29956 0.18019,0.29297 0.08277,0.67529 -0.2102,0.85547 z m -3.14208,1.61206 c -0.31494,0.14282 -0.68262,-0.008 -0.81738,-0.32227 -0.13549,-0.31494 0.0074,-0.67529 0.32227,-0.81738 0.08276,-0.03 0.1648,-0.0527 0.24756,-0.0527 0.24023,0 0.47241,0.14282 0.56982,0.375 0.13476,0.31494 -0.0074,0.68261 -0.32227,0.81738 z m -9.698,1.57544 c 0.0081,0.34497 -0.26953,0.62256 -0.6145,0.62256 v 0.007 c -0.34497,0 -0.62256,-0.27026 -0.62988,-0.61523 0,-0.34497 0.27759,-0.62256 0.6145,-0.62988 h 0.0081 c 0.33691,-2e-5 0.6145,0.27025 0.62182,0.61522 z m -3.4497,-0.10547 c -0.04468,0.34497 -0.3523,0.58521 -0.68994,0.54785 -0.34497,-0.0455 -0.5852,-0.35229 -0.54785,-0.68994 0.03809,-0.31494 0.30762,-0.54785 0.61523,-0.54785 0.03003,0 0.05273,0 0.07544,0 0.34497,0.0454 0.58447,0.35303 0.54712,0.68994 z m -4.49414,9.57054 -0.51856,0.32153 -1.71167,-2.75684 0.50391,-0.31274 2.33936,1.04736 -1.12061,-1.80467 0.51856,-0.32227 1.7124,2.75682 -0.50024,0.31055 -2.34521,-1.04883 z m -9.29443,-32.8154 0.50537,-0.33984 1.80835,2.68798 -0.48706,0.32812 -2.37891,-0.96094 1.18652,1.76294 -0.5061,0.34058 -1.80835,-2.68799 0.49072,-0.33105 2.37232,0.96021 z m 2.20605,31.42746 -0.05127,3.24316 -0.61084,-0.01 0.05127,-3.24316 z m -1.58496,-0.0461 -0.13403,0.58594 -0.7771,-0.17725 -0.5896,2.57812 -0.59473,-0.13696 0.58887,-2.57666 -0.77857,-0.17798 0.13477,-0.58594 z m -1.84236,11.92383 1.10522,-2.16064 0.64819,0.0667 -1.57764,3.09741 -0.54785,-0.0571 -0.9104,-3.35669 0.65186,0.0681 z m 3.50537,-1.52124 0.51636,0.19409 0.02929,3.4812 -0.6145,-0.23145 -0.0029,-0.93677 -1.00781,-0.37939 -0.62402,0.7002 -0.61084,-0.22998 z m -1.30925,-42.76537 0.38305,-0.47461 2.52246,2.04052 -0.38453,0.47461 z m 3.73901,31.9995 c 0.91406,-0.2168 1.82959,0.34863 2.04492,1.2627 0.21607,0.90967 -0.35156,1.82153 -1.26489,2.0376 -0.90967,0.2146 -1.82519,-0.34717 -2.0398,-1.2561 -0.21605,-0.91334 0.35011,-1.82887 1.25977,-2.0442 z M 52.75476,39.7017 l 0.03003,0.64966 -3.29516,-1.09277 -0.02637,-0.54932 3.17871,-1.40332 0.03003,0.65479 -2.21777,0.97485 z m -1.61279,1.42749 c 0.90673,0.24536 1.44287,1.1792 1.19971,2.08154 -0.24463,0.90673 -1.17847,1.4436 -2.08521,1.19897 -0.90235,-0.24316 -1.43482,-1.177 -1.19018,-2.083 0.24389,-0.90234 1.17334,-1.43994 2.07568,-1.19751 z m -0.10181,5.07422 -0.30103,0.53101 -2.82129,-1.6018 0.30176,-0.53101 z m -1.24805,2.01636 -0.74854,0.79248 c -0.62988,0.66578 -1.67358,0.70826 -2.32324,0.09448 -0.64966,-0.61377 -0.6665,-1.65893 -0.03662,-2.32471 l 0.74854,-0.79174 z m 21.85106,-7.91235 c 0.06372,0.12452 0.17651,0.20215 0.28638,0.19775 0.09961,-0.0044 0.1626,-0.04321 0.21753,-0.13184 0.0564,-0.08862 0.09668,-0.22266 0.13329,-0.43433 0.0037,-0.0271 0.01099,-0.06445 0.01904,-0.10107 0.02857,-0.19263 0.07324,-0.44971 0.17065,-0.63208 0.07545,-0.1582 0.1853,-0.28125 0.31422,-0.36841 0.12817,-0.08716 0.28198,-0.13403 0.44531,-0.14136 0.20508,-0.0081 0.39038,0.03955 0.54932,0.14209 0.13549,0.09009 0.25488,0.22778 0.35376,0.41089 0.08862,0.15527 0.13184,0.33252 0.14136,0.55517 0.0037,0.10547 -0.0051,0.2146 -0.02417,0.32959 -0.05421,0.33985 -0.20508,0.67383 -0.44458,0.97119 l -0.07397,0.08936 -0.47095,-0.38159 0.07397,-0.09009 c 0.17359,-0.21753 0.28784,-0.4541 0.32373,-0.68408 v -0.0044 c 0.01025,-0.06885 0.01685,-0.1377 0.01391,-0.20581 -0.0037,-0.11353 -0.03149,-0.21753 -0.07545,-0.30249 -0.0498,-0.10693 -0.15601,-0.23144 -0.34203,-0.22412 -0.10108,0.0044 -0.17651,0.05786 -0.23584,0.1648 -0.07178,0.13037 -0.1062,0.30542 -0.12378,0.42993 -0.0074,0.05493 -0.08422,0.52295 -0.19409,0.74195 -0.0813,0.14428 -0.18604,0.25781 -0.31055,0.34058 -0.12891,0.0835 -0.27246,0.12524 -0.43213,0.13184 -0.17358,0.0066 -0.34863,-0.04102 -0.5127,-0.13916 -0.13623,-0.09521 -0.25122,-0.22778 -0.33472,-0.38745 -0.0835,-0.16113 -0.13184,-0.34204 -0.14062,-0.5376 -0.0022,-0.07837 0.0029,-0.1604 0.0095,-0.24243 0.04174,-0.30322 0.16699,-0.60424 0.37573,-0.87304 l 0.06885,-0.08936 0.48413,0.36767 -0.06885,0.09082 c -0.22998,0.30469 -0.27319,0.5625 -0.26734,0.72656 0.0044,0.10475 0.03075,0.19924 0.07104,0.28054 z m 1.80469,3.56762 1.51173,-0.48486 0.18164,0.56396 -3.09229,0.9939 -0.35522,-1.10669 c -0.06738,-0.20874 -0.04761,-0.4314 0.05493,-0.63208 0.104,-0.19995 0.27246,-0.34497 0.48048,-0.41235 0.30835,-0.09961 0.64526,-0.0066 0.86205,0.22046 l 1.21509,-1.65967 0.21973,0.68554 -1.15723,1.58496 z m 5.49976,-13.37768 -0.50829,0.32959 -1.7666,-2.72314 0.97559,-0.63281 c 0.1875,-0.12158 0.41089,-0.1626 0.63135,-0.11573 0.2168,0.04981 0.40503,0.17212 0.52661,0.35962 0.25048,0.38599 0.13403,0.90235 -0.25269,1.15283 l -0.46655,0.30249 z m 0.08789,20.52612 0.2373,-0.55811 1.22534,0.52295 0.37939,-0.88916 -1.36743,-0.58374 0.23584,-0.55444 1.92993,0.82397 -1.27441,2.98681 -1.96729,-0.83936 0.23218,-0.54565 1.40479,0.59985 0.18896,-0.44018 z m -0.71046,-3.09376 -1.13159,3.28418 -0.50024,-0.42188 0.79321,-2.28954 -2.12695,1.16602 -0.49731,-0.41968 3.04174,-1.67358 z m -4.34692,0.22998 -1.2063,-1.76074 0.48779,-0.33472 0.86205,1.2583 0.39331,-0.27026 -0.75073,-1.09643 0.49951,-0.34204 0.75146,1.09643 0.79614,-0.54419 -0.83789,-1.22461 0.49512,-0.33911 1.18286,1.72632 z m 11.042,-20.11084 c 0.3457,-0.0051 0.66284,-0.17065 0.86719,-0.4519 l 0.06734,-0.08862 0.48926,0.3479 -0.07178,0.09229 c -0.15601,0.21679 -0.35376,0.38891 -0.58887,0.51196 -0.22998,0.12304 -0.48926,0.18677 -0.75366,0.19043 -0.22778,0.0044 -0.45264,-0.03735 -0.66358,-0.12012 -0.20215,-0.08422 -0.38672,-0.20361 -0.54492,-0.35596 -0.16187,-0.15235 -0.28711,-0.33252 -0.3728,-0.53687 -0.09521,-0.208 -0.14429,-0.42627 -0.14868,-0.65845 -0.01537,-0.9353 0.73682,-1.70947 1.67212,-1.72632 0.26514,-0.0044 0.53027,0.05493 0.76538,0.16992 0.23438,0.1106 0.44678,0.28418 0.60498,0.49145 l 0.07545,0.09082 -0.48266,0.36841 -0.0696,-0.09009 c -0.21021,-0.27539 -0.53174,-0.4292 -0.8833,-0.42334 -0.60204,0.01025 -1.08618,0.5061 -1.07593,1.10889 0.01028,0.60571 0.51123,1.09058 1.11401,1.07959 h 5e-5 z m -1.38428,23.74876 0.25635,0.03809 0.23145,-1.56811 0.58594,0.08642 -0.47314,3.20728 -1.1499,-0.1692 c -0.21607,-0.03223 -0.40649,-0.14722 -0.54053,-0.32886 -0.13403,-0.18091 -0.1897,-0.39624 -0.1582,-0.6123 0.04762,-0.32007 0.27979,-0.58008 0.57861,-0.67455 l -0.95068,-1.82007 0.71118,0.10474 z m 12.01423,84.96312 c -0.27686,-0.89722 0.22559,-1.8479 1.11768,-2.12476 0.89648,-0.27686 1.84863,0.22559 2.12549,1.1228 0.27539,0.89282 -0.22778,1.84058 -1.125,2.11743 -0.89356,0.2754 -1.84277,-0.22265 -2.11817,-1.11547 z m 3.3322,-99.90745 -0.57129,0.15673 -0.4043,-1.47143 -0.46143,0.12598 0.35303,1.28321 -0.58447,0.1604 -0.35229,-1.28247 -0.93164,0.25635 0.39404,1.43262 -0.58008,0.15893 -0.55591,-2.02148 3.12744,-0.85986 z m -2.45069,-5.6726 -0.55297,1.38867 1.4912,0.09961 0.30615,0.4856 -2.74512,1.73072 -0.32299,-0.5127 1.83472,-1.15649 -1.43114,-0.10034 0.53027,-1.33008 -1.83618,1.15576 -0.323,-0.51196 2.74512,-1.73144 z m -1.59961,-1.80835 -2.21777,2.36425 -0.44458,-0.41821 2.21777,-2.36279 z m -3.86865,-2.06909 0.30908,-0.51636 1.89185,1.13233 -0.30835,0.51636 -0.68408,-0.40942 -1.35645,2.26831 -0.52515,-0.31348 1.35717,-2.26831 z m -0.97558,-1.08398 -0.16113,0.56909 -1.46851,-0.41455 -0.12891,0.4607 1.27881,0.36109 -0.16406,0.58228 -1.27954,-0.36035 -0.26221,0.92871 1.42896,0.40357 -0.16333,0.57788 -2.01562,-0.56836 0.88037,-3.12012 z M 85.51817,9.10623 C 85.35264,9.07254 84.54113,8.89895 84.20933,8.69974 83.6461,8.36868 83.35605,7.86332 83.35605,7.23343 c 0,-0.3479 0.11572,-0.67895 0.30615,-0.96094 0.19116,-0.26514 0.4563,-0.47241 0.76245,-0.61303 l -0.008,0.00805 c 0.31494,-0.14942 0.6709,-0.22339 1.01074,-0.22339 0.14062,0 0.27319,0.00806 0.43945,0.03296 0.53027,0.09082 1.01879,0.30615 1.69848,0.87012 L 86.65343,7.44071 C 86.0404,6.93534 85.72546,6.86063 85.41052,6.86063 c -0.15747,0 -0.28125,0.03296 -0.38086,0.08276 -0.15747,0.06665 -0.24023,0.18237 -0.24023,0.29004 0,0.22412 0.2981,0.33179 0.77856,0.43067 0.0498,0.01684 0.10767,0.01684 0.16626,0.03369 0.323,0.07397 0.80347,0.17359 1.11841,0.35596 h -0.0088 c 0.59692,0.33178 0.91187,0.85327 0.91187,1.5 0,0.38086 -0.09961,0.73681 -0.31494,1.03565 -0.19043,0.27319 -0.47241,0.47241 -0.78735,0.62915 -0.33105,0.17431 -0.67089,0.22412 -1.04369,0.22412 -0.19923,0 -0.41455,-0.0249 -0.59692,-0.06665 -0.59619,-0.12378 -1.14331,-0.3977 -1.84717,-1.00196 l 0.94409,-1.08545 c 0.52222,0.45556 0.8291,0.62915 1.19312,0.6958 0.10766,0.0249 0.21533,0.04102 0.31494,0.04102 0.16553,0 0.31494,-0.03296 0.43066,-0.09082 0.09961,-0.04981 0.27392,-0.15747 0.27392,-0.38086 0,-0.23219 -0.4314,-0.37282 -0.80421,-0.44752 z m -2.42944,19.57469 -0.6211,0.20728 -0.5918,-0.7251 -1.01954,0.33911 -0.0432,0.93604 -0.61816,0.20508 0.16113,-3.46801 0.52296,-0.17432 z M 75.41075,5.49393 h 2.16284 c 0.43066,0 0.83642,0.17359 1.13525,0.47168 0.2981,0.30688 0.47168,0.7705 0.47168,1.2019 0,0.56324 -0.27319,1.10962 -0.71191,1.3916 l 2.146,2.83374 H 78.89928 L 76.94371,8.8411 h -0.13257 v 2.55175 h -1.40039 z m -1.08252,24.96239 c 0.05347,-0.17359 0.14576,-0.33618 0.27759,-0.4812 0.05201,-0.05713 0.11353,-0.11206 0.17579,-0.16626 0.24316,-0.1853 0.54346,-0.31274 0.88037,-0.35742 l 0.11133,-0.01538 0.08789,0.60278 -0.11279,0.01538 c -0.37793,0.0564 -0.59033,0.20801 -0.70166,0.32959 -0.06958,0.07764 -0.11719,0.16333 -0.14576,0.24902 -0.04174,0.1333 -0.01611,0.26807 0.06518,0.34204 0.07324,0.06738 0.14502,0.08276 0.24756,0.05933 0.10181,-0.02417 0.22485,-0.09082 0.39917,-0.21533 0.02197,-0.01758 0.05347,-0.03882 0.08496,-0.05933 0.15527,-0.11719 0.36841,-0.2688 0.5647,-0.33032 0.16553,-0.0586 0.32886,-0.07031 0.48193,-0.04174 0.15235,0.02857 0.29516,0.10254 0.41674,0.21313 0.15161,0.13769 0.24976,0.30029 0.29004,0.48633 0.03442,0.15967 0.02273,0.34058 -0.03517,0.54052 -0.04688,0.17285 -0.13916,0.32886 -0.29004,0.49438 -0.07103,0.0769 -0.15381,0.14868 -0.24756,0.21753 -0.27759,0.20361 -0.62036,0.33545 -0.99828,0.37939 l -0.11572,0.01172 -0.06734,-0.60278 0.11572,-0.01245 c 0.27612,-0.03149 0.52368,-0.12085 0.71045,-0.25928 l 0.003,-0.0029 c 0.05566,-0.04102 0.10913,-0.08642 0.15527,-0.13696 0.0769,-0.0835 0.13037,-0.17651 0.1582,-0.26807 0.03952,-0.11133 0.0513,-0.27392 -0.08642,-0.39917 -0.0747,-0.06812 -0.16553,-0.08276 -0.28345,-0.04834 -0.14282,0.04248 -0.29004,0.14282 -0.38965,0.21827 -0.0432,0.03516 -0.42627,0.31421 -0.65918,0.39184 -0.15893,0.04614 -0.31348,0.0542 -0.45922,0.02563 -0.15015,-0.03149 -0.28271,-0.10327 -0.40063,-0.2102 -0.12817,-0.11645 -0.21973,-0.27392 -0.2666,-0.4585 -0.03078,-0.16334 -0.01906,-0.33765 0.03368,-0.51124 z m -1.69555,5.0581 0.5896,0.13697 -0.30029,1.29492 0.94043,0.21899 0.33546,-1.44727 0.58594,0.13623 -0.47314,2.04052 -3.15893,-0.73169 0.4812,-2.08081 0.57715,0.13403 -0.34424,1.48535 0.46655,0.10913 z M 68.80138,5.49393 h 1.20923 l 2.27856,5.89892 H 70.7401 l -0.50537,-1.34253 h -1.65747 l -0.52148,1.34253 h -1.52489 z m -7.23266,3.6123 C 61.40319,9.07254 60.59168,8.89895 60.25988,8.69974 59.69665,8.36868 59.4066,7.86332 59.4066,7.23343 c 0,-0.3479 0.11572,-0.67895 0.30615,-0.96094 0.19116,-0.26514 0.4563,-0.47241 0.76245,-0.61303 l -0.0081,0.00805 c 0.31494,-0.14942 0.6709,-0.22339 1.01074,-0.22339 0.14062,0 0.27319,0.00805 0.43945,0.03296 0.53027,0.09082 1.0188,0.30615 1.69848,0.87012 L 62.70394,7.44071 C 62.09091,6.93534 61.77597,6.86063 61.46102,6.86063 c -0.15747,0 -0.28125,0.03296 -0.38086,0.08276 -0.15747,0.06665 -0.24023,0.18237 -0.24023,0.29004 0,0.22412 0.2981,0.33178 0.77857,0.43066 0.0498,0.01685 0.10766,0.01685 0.16626,0.03369 0.32299,0.07397 0.80347,0.17359 1.11841,0.35596 h -0.0088 c 0.59692,0.33178 0.91187,0.85327 0.91187,1.5 0,0.38086 -0.09961,0.73681 -0.31494,1.03564 -0.19043,0.2732 -0.47241,0.47241 -0.78735,0.62915 -0.33105,0.17432 -0.67089,0.22412 -1.0437,0.22412 -0.19923,0 -0.41455,-0.0249 -0.59692,-0.06665 -0.59619,-0.12378 -1.14331,-0.3977 -1.84717,-1.00196 l 0.94409,-1.08545 c 0.52222,0.45557 0.8291,0.62915 1.19312,0.6958 0.10766,0.0249 0.21533,0.04102 0.31494,0.04102 0.16553,0 0.31494,-0.03296 0.43066,-0.09082 0.09961,-0.04981 0.27392,-0.15747 0.27392,-0.38086 1e-5,-0.23218 -0.43065,-0.3728 -0.80418,-0.4475 z M 51.9425,5.49393 h 1.43335 v 4.48242 h 2.80079 v 1.4165 h -4.23413 c 1e-5,0 1e-5,-5.89893 -10e-6,-5.89892 z m -1.54907,26.05443 c 0.14941,0.21753 0.24683,0.47095 0.28125,0.73022 0.03735,0.25562 0.01025,0.52954 -0.07471,0.77563 l -0.03369,0.11206 -0.57349,-0.19775 0.03662,-0.10766 c 0.11279,-0.32666 0.06372,-0.67969 -0.13549,-0.96899 -0.34131,-0.49585 -1.02246,-0.62548 -1.51758,-0.28418 -0.49952,0.34351 -0.62622,1.02905 -0.28491,1.52417 0.19629,0.28491 0.50903,0.4585 0.8562,0.47314 l 0.10986,0.0066 -0.01904,0.60059 -0.11572,-0.0095 c -0.26661,-0.0088 -0.52002,-0.07837 -0.75146,-0.20655 -0.22924,-0.12452 -0.42627,-0.30542 -0.57568,-0.52295 -0.12891,-0.1875 -0.21826,-0.39771 -0.26587,-0.61963 -0.04248,-0.2146 -0.04468,-0.43433 -0.0044,-0.64966 0.03735,-0.21899 0.11792,-0.42334 0.24023,-0.60791 0.12085,-0.19409 0.27539,-0.35522 0.46729,-0.48706 0.76977,-0.52954 1.83032,-0.33032 2.3606,0.43946 z m -4.35571,0.01245 -0.45776,-0.40429 2.146,-2.43164 0.45776,0.40429 z M 43.49255,5.49393 h 1.42529 v 3.62842 c 0,0.51416 0.41382,0.92797 0.91113,0.92797 0.50537,0 0.91113,-0.41382 0.91113,-0.92797 V 5.49393 h 1.43335 v 3.62842 c 0,1.29272 -1.05175,2.34521 -2.34449,2.34521 -1.28393,0 -2.33642,-1.05249 -2.33642,-2.34521 V 5.49393 Z m 0.08569,20.72533 0.5105,0.25268 0.25342,1.47363 1.32568,-0.69287 0.51416,0.25342 -1.43921,2.91211 -0.54419,-0.26954 0.96313,-1.94531 -1.27368,0.66211 -0.24316,-1.41211 -0.9624,1.94531 -0.54419,-0.2688 z m -2.87695,-0.6958 c 0.0769,0.01099 0.15673,0.03149 0.23657,0.05347 0.29004,0.09814 0.5625,0.27759 0.78662,0.53173 l 0.07544,0.0857 -0.45264,0.40722 -0.07471,-0.08496 c -0.25781,-0.28271 -0.50244,-0.37427 -0.66431,-0.39844 -0.104,-0.01538 -0.20215,-0.008 -0.28857,0.01685 -0.13477,0.03955 -0.23218,0.13549 -0.24829,0.2439 -0.01538,0.09888 0.01099,0.16772 0.08862,0.23877 0.07617,0.07105 0.20068,0.13623 0.40137,0.2124 0.02637,0.0088 0.06152,0.0227 0.09595,0.03735 0.18457,0.06446 0.42847,0.15601 0.58887,0.28638 0.14136,0.104 0.2417,0.23438 0.30323,0.37793 0.06152,0.14209 0.0791,0.30103 0.05493,0.46362 -0.03003,0.20361 -0.11133,0.37574 -0.24243,0.51269 -0.11425,0.11645 -0.271,0.208 -0.46949,0.27172 -0.16919,0.05713 -0.35083,0.06665 -0.57203,0.03442 -0.10327,-0.01538 -0.20947,-0.04541 -0.31933,-0.08496 -0.32373,-0.11792 -0.62402,-0.32812 -0.87158,-0.6189 l -0.07397,-0.08936 0.46436,-0.39185 0.07471,0.08936 c 0.18018,0.21167 0.39185,0.36767 0.61084,0.44677 h 0.0044 c 0.06592,0.02417 0.13184,0.04248 0.19995,0.05347 0.11279,0.01685 0.21973,0.0095 0.31128,-0.01831 0.11572,-0.02857 0.25635,-0.10913 0.28418,-0.29443 0.01465,-0.09961 -0.02417,-0.18311 -0.11792,-0.26147 -0.11499,-0.09595 -0.28052,-0.1626 -0.39844,-0.20288 -0.05273,-0.01685 -0.49878,-0.18017 -0.6936,-0.32959 -0.12671,-0.1062 -0.21899,-0.23071 -0.27686,-0.36841 -0.05713,-0.14209 -0.07178,-0.2915 -0.04834,-0.44971 0.02637,-0.17212 0.10547,-0.33545 0.23291,-0.47754 0.11865,-0.11573 0.27026,-0.20435 0.44385,-0.25635 0.1743,-0.05199 0.36034,-0.06664 0.55443,-0.03662 z M 36.26868,5.49393 h 2.17969 c 0.43066,0 0.83642,0.17359 1.14331,0.47168 0.2981,0.30688 0.47241,0.7705 0.47241,1.2019 0,0.89428 -0.73755,1.68164 -1.61572,1.68164 h -0.74634 v 2.5437 H 36.26869 V 5.49393 Z m 0.07105,19.99949 c 0.92725,-0.15235 1.80175,0.47534 1.9541,1.40332 0.15161,0.92139 -0.4768,1.79224 -1.40332,1.94531 -0.92285,0.15015 -1.79663,-0.47241 -1.94825,-1.39526 -0.15234,-0.92651 0.47534,-1.80102 1.39747,-1.95337 z m -4.40772,1.50953 c 0.23144,-0.12744 0.49365,-0.19849 0.75366,-0.20728 0.25855,-0.01172 0.52735,0.04394 0.76391,0.15308 l 0.10766,0.04468 -0.25415,0.54932 -0.104,-0.04761 c -0.31274,-0.14428 -0.66943,-0.1311 -0.97559,0.03809 -0.52735,0.2893 -0.72363,0.95288 -0.43433,1.47949 0.2915,0.53027 0.95948,0.7251 1.48535,0.43506 0.30395,-0.16552 0.5061,-0.45922 0.55591,-0.80273 l 0.01831,-0.10986 0.59399,0.07984 -0.0205,0.11426 c -0.03662,0.26514 -0.1311,0.5083 -0.28125,0.72656 -0.14648,0.21533 -0.34571,0.39258 -0.57715,0.51929 -0.19922,0.10913 -0.41674,0.17651 -0.6416,0.20141 -0.21753,0.02051 -0.43579,7.4e-4 -0.646,-0.06006 -0.2146,-0.05933 -0.40942,-0.15967 -0.58008,-0.29956 -0.18091,-0.13989 -0.32593,-0.30982 -0.43799,-0.51343 -0.44823,-0.8174 -0.14427,-1.85158 0.67385,-2.30055 z M 18.46278,52.49488 c 3.11279,-3.11205 6.5625,-5.89526 10.25463,-8.27343 0.28858,-0.18677 0.6731,-0.10254 0.8584,0.18604 0.18604,0.28784 0.10254,0.67236 -0.18604,0.8584 -3.61743,2.33056 -6.99829,5.0581 -10.04809,8.10791 -0.12158,0.12085 -0.28051,0.18164 -0.43945,0.18164 -0.15894,0 -0.31787,-0.06078 -0.43946,-0.18164 -0.24242,-0.24317 -0.24242,-0.63648 10e-6,-0.87892 z m 1.09822,53.39647 0.55445,0.25342 -1.0979,2.40234 1.50146,0.68628 -0.24756,0.54126 -2.05517,-0.93896 z m -1.01441,20.66161 -0.44824,-1.97607 0.59546,-0.1355 0.44825,1.97681 c 0.07471,0.32812 0.01538,0.6687 -0.1626,0.95142 -0.18311,0.28418 -0.46509,0.48413 -0.79394,0.55884 -0.67895,0.15381 -1.35571,-0.27246 -1.50879,-0.95215 l -0.44825,-1.97607 0.59107,-0.1333 0.44751,1.97607 c 0.08056,0.35522 0.43579,0.58301 0.78662,0.50317 0.35595,-0.0806 0.57347,-0.43799 0.49291,-0.79322 z m -2.38843,28.61644 -0.70166,0.62183 -0.57861,-0.29883 2.6001,-2.3064 0.48926,0.25269 -0.37866,3.45703 -0.583,-0.30249 0.10694,-0.92944 z m -1.45019,-3.21458 -0.59912,-0.52441 0.39624,-0.4541 1.65893,1.45312 -0.39624,0.45262 -0.59912,-0.52513 -1.7417,1.98705 -0.45923,-0.40137 z M 14.18136,132.9514 c 0.09741,-0.0601 0.20215,-0.0828 0.30688,-0.0828 0.21753,0 0.42041,0.11279 0.54052,0.30762 0.17212,0.29224 0.07471,0.67529 -0.22558,0.84741 -0.29224,0.17285 -0.67456,0.0747 -0.84741,-0.22485 -0.17211,-0.29298 -0.0747,-0.67532 0.22559,-0.84742 z m 1.85962,2.90991 c 0.11279,-0.0901 0.24756,-0.13477 0.38233,-0.13477 0.1875,0 0.36767,0.082 0.48779,0.24683 0.2102,0.27026 0.1648,0.66064 -0.10474,0.87012 -0.27759,0.21021 -0.66064,0.15747 -0.87818,-0.11206 -0.20946,-0.27026 -0.15747,-0.65991 0.1128,-0.87012 z m 0.0095,-30.62768 0.60644,0.071 -0.30908,2.62866 1.64282,0.19263 -0.07031,0.59253 -2.24854,-0.26367 z m -3.12744,0.38965 0.53687,-0.12378 1.94897,2.87842 -0.63867,0.14795 -0.52075,-0.77783 -1.04736,0.2417 -0.13183,0.92798 -0.63427,0.14648 z m -0.21167,24.20068 c 0.07471,-0.03 0.15747,-0.0454 0.2395,-0.0454 0.24023,0 0.47241,0.14282 0.57788,0.38232 0.12744,0.31567 -0.0227,0.67529 -0.33765,0.81006 -0.31494,0.1355 -0.68262,-0.0146 -0.81738,-0.33691 -0.12745,-0.31567 0.02197,-0.67529 0.33764,-0.81006 v -3e-5 z m 0.5647,19.31543 c 0.49878,0.79468 0.25927,1.84277 -0.5354,2.34302 -0.79028,0.49731 -1.83472,0.25562 -2.33422,-0.53979 -0.49732,-0.79028 -0.26147,-1.83691 0.52881,-2.3335 0.79539,-0.49952 1.84422,-0.26001 2.34081,0.53027 z m -1.44214,-3.03809 c 0.05932,0.21094 0.03149,0.43213 -0.07837,0.62915 -0.11133,0.19702 -0.28491,0.33618 -0.49512,0.39551 -0.31201,0.0872 -0.64453,-0.0183 -0.85327,-0.25269 l -1.27515,1.61426 -0.19483,-0.69287 1.21435,-1.54175 -0.07031,-0.24976 -1.52783,0.43066 -0.1604,-0.57129 3.12524,-0.88037 z m -5.88721,-35.25805 2.8147,1.6106 -0.30322,0.52954 -2.8147,-1.60986 z m -1.28686,3.05567 c 0.0542,-0.21167 0.19629,-0.39478 0.38379,-0.50171 0.18457,-0.11206 0.41455,-0.14648 0.62548,-0.0908 0.12744,0.0323 0.23877,0.0945 0.33178,0.16992 0.06958,-0.071 0.14722,-0.13477 0.23511,-0.18311 0.25048,-0.15088 0.54346,-0.19263 0.82617,-0.11938 0.28125,0.0733 0.51709,0.25195 0.6665,0.50684 0.07178,0.12231 0.12158,0.25781 0.14136,0.39917 0.02417,0.14282 0.01465,0.28638 -0.0205,0.42261 l -0.35669,1.37329 -3.13549,-0.81445 z m 3.02824,62.44553 -0.12085,0.59399 -3.18091,-0.64453 0.23071,-1.13965 c 0.04468,-0.21899 0.17065,-0.40723 0.35962,-0.53101 0.18677,-0.12085 0.40576,-0.16992 0.62476,-0.12524 0.45117,0.0916 0.73828,0.53613 0.646,0.9873 l -0.1106,0.54492 z m -3.31713,3.54346 2.02295,-0.14722 c 0.36328,-0.0264 0.6416,-0.34424 0.61597,-0.70312 -0.0271,-0.36401 -0.34863,-0.63281 -0.71118,-0.60571 l -2.02368,0.14722 -0.04394,-0.60864 2.02295,-0.14795 c 0.33618,-0.0256 0.66431,0.0835 0.91772,0.30249 0.25415,0.22412 0.40943,0.5332 0.4336,0.86938 0.05053,0.6958 -0.47168,1.30005 -1.16748,1.35059 l -2.02295,0.14795 z m 3.82323,3.44238 -0.04175,0.1084 -0.56836,-0.21313 0.04175,-0.10913 c 0.09595,-0.26074 0.12891,-0.52148 0.09082,-0.75073 l -7.4e-4,-0.004 c -0.01172,-0.0688 -0.02783,-0.13623 -0.052,-0.20068 -0.04028,-0.1062 -0.09888,-0.19629 -0.16846,-0.26367 -0.08056,-0.085 -0.22046,-0.16919 -0.39478,-0.10327 -0.09375,0.0358 -0.14868,0.10986 -0.17139,0.23071 -0.02783,0.14648 -0.0044,0.323 0.01758,0.44604 0.01172,0.0549 0.08642,0.52368 0.052,0.76685 -0.03149,0.1626 -0.09449,0.30396 -0.18604,0.42114 -0.09668,0.11938 -0.22046,0.20508 -0.36914,0.26147 -0.1626,0.0615 -0.34351,0.0718 -0.52954,0.0308 -0.15967,-0.0469 -0.31054,-0.13623 -0.44165,-0.26221 -0.13037,-0.12598 -0.23364,-0.28198 -0.30323,-0.46582 -0.0271,-0.0718 -0.04761,-0.15161 -0.06885,-0.23145 -0.05493,-0.30176 -0.03149,-0.62769 0.08056,-0.94775 l 0.03735,-0.10693 0.57715,0.19556 -0.03808,0.10693 c -0.12085,0.36328 -0.0813,0.62183 -0.0227,0.7749 0.03662,0.0981 0.09229,0.18018 0.15527,0.2439 0.10034,0.0981 0.23218,0.1355 0.33472,0.0974 0.09301,-0.0359 0.13989,-0.093 0.1648,-0.19482 0.02491,-0.10182 0.0205,-0.2417 -0.01099,-0.4541 -0.00586,-0.0271 -0.00953,-0.0644 -0.01465,-0.10181 -0.03296,-0.19189 -0.07325,-0.45044 -0.03808,-0.65405 0.02197,-0.17358 0.08642,-0.32446 0.18091,-0.44824 0.09449,-0.12378 0.22558,-0.2168 0.37866,-0.27612 0.1919,-0.0718 0.38233,-0.085 0.56616,-0.0381 0.15673,0.0425 0.31348,0.13477 0.46509,0.27686 0.13403,0.12012 0.23072,0.27319 0.30982,0.48267 0.03735,0.0974 0.06372,0.20435 0.08204,0.31934 0.05641,0.34059 0.01906,0.70534 -0.11425,1.06276 z m 0.01685,-9.03442 -2.92236,-1.41577 0.93237,-1.92554 0.53393,0.25854 -0.66577,1.37476 0.42993,0.20874 0.58154,-1.19824 0.54565,0.2644 -0.5808,1.19897 0.87012,0.42114 0.64819,-1.3374 0.54199,0.26221 z m 2.66308,-3.96607 -1.94677,-0.21899 -0.17505,0.19116 1.16894,1.0686 -0.39917,0.43726 -2.39136,-2.18701 0.78296,-0.8562 c 0.14722,-0.16187 0.3501,-0.25415 0.57422,-0.2644 0.22558,-0.0103 0.43506,0.0637 0.59619,0.21167 0.23877,0.21753 0.32446,0.55591 0.23511,0.8562 l 2.03906,0.23071 z m 2.62061,-1.85009 -2.32251,-1.09644 1.08398,1.83032 -0.52442,0.31055 -1.65381,-2.78979 0.50977,-0.30176 2.31665,1.09497 -1.08252,-1.82593 0.52515,-0.31201 1.65235,2.78979 z m 0.65698,-2.16138 c -0.19263,-0.91846 0.39478,-1.8186 1.30884,-2.01123 0.91919,-0.19263 1.81933,0.39624 2.01197,1.3147 0.19189,0.91333 -0.3977,1.80981 -1.31616,2.00244 -0.91334,0.19189 -1.81349,-0.39185 -2.00465,-1.30591 z m 15.33032,81.64816 c -0.11865,0.18384 -0.3186,0.28345 -0.52222,0.28345 -0.11573,0 -0.23218,-0.0322 -0.33691,-0.0996 -3.65771,-2.36572 -7.07593,-5.12988 -10.16088,-8.21411 -0.24243,-0.24243 -0.24243,-0.63647 0,-0.87891 0.24316,-0.2417 0.63574,-0.2417 0.87891,0 3.0227,3.02271 6.3728,5.7312 9.95727,8.05005 0.28784,0.18604 0.3706,0.57056 0.18383,0.85913 z m 4.91748,18.0542 c 0.33106,0.10181 0.68335,0.0424 0.96533,-0.1626 l 0.09082,-0.0623 0.35815,0.4812 -0.09595,0.0659 c -0.21606,0.1582 -0.45703,0.26074 -0.71851,0.30542 -0.25708,0.0454 -0.52368,0.0257 -0.77563,-0.052 -0.21899,-0.0667 -0.41894,-0.17505 -0.59399,-0.32007 -0.167,-0.14136 -0.30542,-0.31201 -0.40796,-0.5061 -0.10766,-0.19482 -0.17212,-0.40503 -0.19043,-0.62549 -0.02563,-0.22778 -0.0051,-0.45044 0.06298,-0.67236 0.2732,-0.89429 1.229,-1.39819 2.12256,-1.125 0.25269,0.0769 0.48779,0.21533 0.67456,0.39697 0.1897,0.17725 0.33838,0.40869 0.42554,0.65479 l 0.04248,0.1084 -0.57129,0.20215 -0.03882,-0.10767 c -0.11499,-0.32593 -0.37354,-0.57202 -0.70972,-0.67456 -0.57568,-0.17651 -1.19018,0.14648 -1.36597,0.72217 -0.17723,0.58005 0.15017,1.19528 0.72585,1.37109 v -3e-5 z m 4.53222,1.16528 c -0.93457,0.0329 -1.72339,-0.69653 -1.75635,-1.63037 -0.03369,-0.9397 0.7002,-1.72852 1.63549,-1.76147 0.93896,-0.0337 1.72705,0.7002 1.76075,1.63989 0.0337,0.93457 -0.70093,1.71826 -1.63989,1.75195 z m 5.23242,-1.62963 c -0.04688,0.15601 -0.14282,0.31055 -0.28858,0.4585 -0.12232,0.1311 -0.27832,0.22412 -0.48925,0.2981 -0.09814,0.0352 -0.20581,0.0586 -0.32153,0.0747 -0.34058,0.0476 -0.70459,0.001 -1.05835,-0.13916 l -0.10767,-0.0447 0.22705,-0.5625 0.10766,0.0439 c 0.25781,0.10181 0.51782,0.14136 0.7478,0.1084 l 0.0044,-0.002 c 0.06885,-0.01 0.13623,-0.0234 0.20141,-0.0461 0.10693,-0.0381 0.19775,-0.0945 0.2666,-0.16187 0.08789,-0.0791 0.17432,-0.21606 0.11279,-0.39258 -0.03296,-0.0945 -0.1062,-0.15088 -0.22632,-0.17651 -0.14575,-0.0307 -0.32299,-0.0117 -0.44604,0.008 -0.05493,0.01 -0.52515,0.0732 -0.76685,0.033 -0.16187,-0.0352 -0.30175,-0.10181 -0.41674,-0.19629 -0.11719,-0.0996 -0.19995,-0.22412 -0.25269,-0.375 -0.05713,-0.16333 -0.06372,-0.34497 -0.01831,-0.53027 0.05127,-0.1582 0.14428,-0.30615 0.27246,-0.43359 0.12891,-0.12817 0.28784,-0.22705 0.47241,-0.29224 0.07325,-0.0257 0.15308,-0.0447 0.23438,-0.063 0.30176,-0.0484 0.62622,-0.0183 0.94409,0.10254 l 0.1062,0.0403 -0.20948,0.57129 -0.1062,-0.0403 c -0.35962,-0.12964 -0.6189,-0.0967 -0.77343,-0.0424 -0.09888,0.0352 -0.18164,0.0886 -0.24683,0.15088 -0.10034,0.0974 -0.14209,0.22778 -0.10547,0.33105 0.03296,0.0945 0.08862,0.14282 0.19043,0.16992 0.10181,0.0271 0.2417,0.0264 0.4541,-7.3e-4 0.0271,-0.005 0.06518,-0.008 0.10254,-0.0117 0.19189,-0.0293 0.45117,-0.0623 0.65332,-0.0227 0.17358,0.0264 0.32299,0.0945 0.44385,0.19189 0.12232,0.0974 0.2124,0.22998 0.2666,0.38452 0.06739,0.19336 0.0769,0.38306 0.02563,0.56616 z m 3.72364,-1.82007 -1.29639,-1.73804 0.01245,1.43408 -1.36816,-0.42407 1.29712,1.7395 -0.4856,0.36255 -1.93945,-2.60156 0.4563,-0.33984 1.42749,0.44238 -0.01758,-1.49414 0.4607,-0.34277 1.93945,2.6001 z m -0.18678,-18.1333 -0.37354,-0.48193 2.56202,-1.9856 0.37354,0.48267 z m 4.28394,0.91259 c 0.37134,0.85767 -0.02124,1.85669 -0.87891,2.22876 -0.86133,0.37354 -1.86255,-0.0227 -2.23389,-0.88037 -0.37354,-0.86133 0.02197,-1.86255 0.88403,-2.23608 0.85767,-0.37134 1.85449,0.0257 2.22877,0.88769 z m -5.31226,-2.2207 -0.84741,-0.68555 c -0.71265,-0.57715 -0.83496,-1.61426 -0.2732,-2.30859 0.56177,-0.6958 1.60254,-0.79248 2.31518,-0.21606 l 0.84741,0.68628 z m 3.06738,17.55762 -2.53711,-2.02222 0.38086,-0.47754 2.53711,2.02222 z m 2.13135,-3.2937 c -0.09595,0.20654 -0.23218,0.38892 -0.39917,0.54199 -0.16333,0.14502 -0.35229,0.25781 -0.55811,0.33179 -0.20801,0.0791 -0.42554,0.11279 -0.64526,0.0996 -0.22852,-0.007 -0.44531,-0.0579 -0.65625,-0.15601 -0.84448,-0.39624 -1.2085,-1.41138 -0.81226,-2.25659 0.11133,-0.2395 0.28125,-0.45117 0.48706,-0.61157 0.20215,-0.16187 0.45117,-0.27612 0.70679,-0.32739 l 0.11353,-0.0271 0.11938,0.59399 -0.11206,0.0227 c -0.33838,0.0681 -0.61743,0.28931 -0.76611,0.60645 -0.25488,0.54419 -0.02271,1.19604 0.52148,1.45093 0.54785,0.25708 1.2019,0.0212 1.45679,-0.52368 0.14722,-0.31348 0.13843,-0.66943 -0.02417,-0.97705 l -0.0498,-0.0981 0.52588,-0.28638 0.05273,0.10474 c 0.12524,0.23511 0.19336,0.48779 0.19995,0.7522 0.0088,0.26074 -0.0476,0.52075 -0.16039,0.75952 z m -1.85669,-5.86084 -0.07104,-0.65259 2.15918,-1.10742 -2.34521,-0.62769 -0.06958,-0.64746 3.35815,0.89429 0.05933,0.54785 z m 18.39239,26.96743 c 0,1.32858 -1.07703,2.40561 -2.40559,2.40561 h -7.84972 c -1.32857,0 -2.40555,-1.07703 -2.40555,-2.40561 V 259.9168 c 0,-1.32855 1.07698,-2.40558 2.40555,-2.40558 h 7.84973 c 1.32856,0 2.40559,1.07703 2.40559,2.40558 v 19.74857 z m 1.76459,-28.11367 c 0.0074,-0.10474 0.02856,-0.21313 0.05859,-0.3252 0.09155,-0.33179 0.27686,-0.64819 0.54639,-0.91772 l 0.0835,-0.0813 0.42773,0.43066 -0.0835,0.0813 c -0.19629,0.19702 -0.33472,0.42114 -0.39551,0.64526 v 0.004 c -0.0183,0.0674 -0.03223,0.13477 -0.03662,0.20361 -0.0073,0.11353 0.0081,0.21899 0.04321,0.30762 0.03735,0.11279 0.12964,0.24756 0.31567,0.26001 0.09961,0.007 0.18091,-0.0388 0.25195,-0.13916 0.08569,-0.12158 0.1377,-0.29224 0.1692,-0.41235 0.01245,-0.0549 0.13989,-0.51196 0.27246,-0.71777 0.09595,-0.13477 0.2124,-0.23584 0.34497,-0.30542 0.13696,-0.0681 0.28491,-0.0945 0.44385,-0.0842 0.17285,0.0117 0.34131,0.0776 0.49438,0.19409 0.12451,0.10767 0.22485,0.25195 0.29077,0.42114 0.06592,0.16919 0.09521,0.35303 0.08204,0.54858 -0.0058,0.0769 -0.02051,0.15894 -0.03516,0.2395 -0.07471,0.29663 -0.23071,0.58301 -0.46655,0.82764 l -0.07837,0.082 -0.44238,-0.41895 0.0791,-0.0806 c 0.26074,-0.27979 0.33179,-0.53174 0.34277,-0.69434 0.0074,-0.10547 -0.0088,-0.20142 -0.03954,-0.28564 -0.05127,-0.13184 -0.15453,-0.22119 -0.26367,-0.22852 -0.09961,-0.007 -0.16553,0.0249 -0.23071,0.1084 -0.06518,0.082 -0.11938,0.21094 -0.17871,0.41675 -0.0066,0.0271 -0.0183,0.0637 -0.03003,0.0981 -0.04834,0.18896 -0.12085,0.44019 -0.2373,0.61011 -0.09229,0.14868 -0.21387,0.25928 -0.35156,0.33252 -0.13696,0.0733 -0.29443,0.10327 -0.4585,0.0923 -0.20435,-0.0139 -0.38232,-0.0806 -0.52953,-0.19995 -0.12524,-0.10474 -0.22924,-0.25342 -0.30835,-0.44604 -0.07034,-0.16481 -0.09525,-0.34425 -0.0806,-0.56691 v -8e-5 z m 1.02172,-4.53443 0.19263,-0.5603 3.06591,1.05469 -0.37793,1.0979 c -0.07104,0.20654 -0.21973,0.37207 -0.42188,0.47095 -0.20215,0.0989 -0.4248,0.11426 -0.63135,0.0432 -0.30542,-0.10474 -0.51855,-0.38013 -0.55664,-0.69214 l -1.96435,0.6006 0.23438,-0.67969 1.87354,-0.57495 0.0835,-0.24536 z m 5.69311,-2.86084 -0.50024,0.41602 -1.11401,-3.29224 0.4248,-0.35156 3.03662,1.69263 -0.50537,0.41968 -2.11523,-1.18506 z m -0.85546,0.91846 -1.22241,1.75269 -0.48633,-0.33911 0.87378,-1.25171 -0.39185,-0.27319 -0.76173,1.09058 -0.49732,-0.34717 0.76173,-1.09058 -0.79248,-0.55298 -0.84961,1.21802 -0.49365,-0.34351 1.19971,-1.71899 z m -3.24391,10.7937 -0.59399,0.11865 -0.26147,-1.30518 -0.94703,0.1897 0.29078,1.45679 -0.5896,0.11792 -0.41162,-2.05518 3.18311,-0.63721 0.41895,2.09692 -0.58154,0.11572 -0.29883,-1.49707 -0.47021,0.093 z m 2.57301,5.91211 c -0.04905,0.14722 -0.14282,0.27759 -0.26954,0.38232 -0.15747,0.13037 -0.33252,0.20435 -0.52148,0.21826 -0.1626,0.011 -0.33985,-0.0257 -0.52953,-0.11133 -0.16479,-0.0703 -0.30542,-0.18384 -0.44824,-0.35669 -0.06665,-0.0806 -0.12524,-0.17285 -0.18091,-0.27466 -0.16187,-0.30322 -0.24463,-0.66064 -0.23438,-1.0415 l 0.0051,-0.11572 0.60571,0.019 -0.0044,0.11499 c -0.0066,0.27759 0.04614,0.53467 0.15601,0.73901 l 0.0037,0.005 c 0.03223,0.0608 0.06885,0.12012 0.11279,0.17139 0.07251,0.0886 0.15673,0.15454 0.24316,0.19482 0.10474,0.0556 0.26367,0.0894 0.40723,-0.0286 0.07764,-0.0645 0.10474,-0.15234 0.08789,-0.27319 -0.02197,-0.14868 -0.10108,-0.30762 -0.16187,-0.41675 -0.02783,-0.0483 -0.24976,-0.46655 -0.29517,-0.70752 -0.02344,-0.16406 -0.0088,-0.31714 0.04028,-0.45776 0.05273,-0.14429 0.14136,-0.26514 0.2644,-0.36694 0.1333,-0.10986 0.30103,-0.17871 0.49146,-0.19922 0.16553,-0.008 0.33618,0.0286 0.50098,0.1062 0.16333,0.0762 0.31128,0.19043 0.43652,0.34204 0.04905,0.0593 0.09448,0.12817 0.13916,0.19775 0.14941,0.26587 0.23291,0.58154 0.22998,0.92065 l -7.3e-4,0.11279 -0.60791,7.3e-4 7.3e-4,-0.11353 c -0.003,-0.38159 -0.12305,-0.61304 -0.22704,-0.73901 -0.06734,-0.0806 -0.14576,-0.13989 -0.22632,-0.18018 -0.12672,-0.0601 -0.26295,-0.0535 -0.34717,0.0161 -0.07764,0.063 -0.10328,0.13257 -0.09375,0.23657 0.0095,0.10474 0.0586,0.23438 0.15673,0.42554 0.01388,0.0242 0.03001,0.0579 0.04613,0.0916 0.09448,0.17139 0.2146,0.4021 0.24683,0.60571 0.03585,0.17212 0.0234,0.33545 -0.0264,0.48267 z m 1.60692,1.15283 -0.92431,1.28101 -0.49072,-0.35449 1.8955,-2.62866 0.94189,0.67969 c 0.18018,0.13037 0.30029,0.32227 0.33546,0.54492 0.03293,0.21973 -0.0132,0.43945 -0.14355,0.62036 -0.2688,0.3728 -0.79102,0.45044 -1.16454,0.18091 z m 3.90088,3.75806 -0.60938,-0.24243 0.01463,-0.93677 -0.99976,-0.39844 -0.63794,0.68774 -0.60498,-0.24097 2.36279,-2.55396 0.5127,0.20508 z m -1.61279,-24.33765 -0.23511,-0.54346 1.40112,-0.60645 -0.19043,-0.43945 -1.22095,0.52954 -0.24097,-0.55664 1.22095,-0.52808 -0.38306,-0.88696 -1.36377,0.59033 -0.23877,-0.55225 1.92334,-0.83276 1.28906,2.97729 z m 4.02611,-4.58935 0.58521,-0.0901 0.49658,3.20508 -1.14771,0.17798 c -0.2168,0.0337 -0.43213,-0.0212 -0.6145,-0.15454 -0.18164,-0.13257 -0.29883,-0.32153 -0.33179,-0.5376 -0.04905,-0.32007 0.09448,-0.63721 0.35303,-0.81519 l -1.44653,-1.45898 0.71045,-0.10986 1.38135,1.39014 0.25708,-0.0395 z m 0.58155,28.82373 c 0.34497,0.0286 0.67603,-0.10327 0.90747,-0.36255 l 0.07545,-0.0813 0.45117,0.39404 -0.07984,0.085 c -0.17725,0.20068 -0.39038,0.35156 -0.63647,0.44971 -0.24097,0.0989 -0.50464,0.13623 -0.7683,0.11426 -0.22704,-0.0198 -0.44531,-0.0835 -0.64672,-0.18677 -0.19263,-0.10327 -0.36475,-0.24097 -0.50537,-0.40796 -0.14648,-0.16846 -0.25342,-0.35962 -0.3186,-0.57129 -0.07328,-0.21606 -0.09961,-0.43726 -0.08057,-0.66943 0.07764,-0.93018 0.90381,-1.62378 1.83472,-1.54614 0.26294,0.0212 0.52075,0.10767 0.74267,0.24463 0.22192,0.13257 0.41602,0.32739 0.55297,0.54932 l 0.06518,0.0974 -0.51636,0.31714 -0.06008,-0.0967 c -0.18164,-0.2937 -0.4856,-0.479 -0.83496,-0.5083 -0.59985,-0.0506 -1.13086,0.39404 -1.18066,0.99316 -0.0498,0.60425 0.39845,1.13525 0.9983,1.18579 v 0 z m 3.12525,0.47827 -0.65479,-3.18091 2.09547,-0.4314 0.11938,0.58081 -1.49634,0.30762 0.09668,0.46948 1.30371,-0.26953 0.12231,0.59473 -1.30371,0.2688 0.19483,0.94702 1.45605,-0.29956 0.12158,0.5896 z m 4.20483,-1.28467 -1.17847,-2.36646 -0.71338,0.35449 -0.26807,-0.53833 1.97461,-0.98291 0.26807,0.53906 -0.71411,0.35449 1.17847,2.36719 z m 2.59497,-1.56152 -2.00244,-2.55029 0.47974,-0.3772 2.00172,2.54956 z m 3.34276,-3.47974 -1.72266,-1.31616 0.40503,1.37549 -1.43042,-0.0315 1.72266,1.3147 -0.36694,0.48193 -2.57739,-1.96802 0.3457,-0.4519 1.49194,0.0329 -0.42554,-1.43115 0.34863,-0.45557 2.57666,1.96729 z m 1.20923,-2.12402 -3.03003,-1.16528 0.76685,-1.99512 0.55298,0.21313 -0.54785,1.42456 0.44751,0.17212 0.47681,-1.24292 0.56689,0.21753 -0.47754,1.24365 0.90161,0.34644 0.5332,-1.38794 0.56177,0.21606 z m 6.73022,-19.0232 c -3.11133,3.11133 -6.56104,5.89526 -10.25391,8.27344 -0.104,0.0674 -0.22046,0.0989 -0.33545,0.0989 -0.20435,0 -0.4043,-0.10034 -0.52296,-0.28491 -0.18604,-0.28784 -0.10254,-0.67236 0.18604,-0.8584 3.61816,-2.33057 6.99828,-5.05884 10.04736,-8.10791 0.24316,-0.2417 0.63574,-0.2417 0.87891,0 0.24244,0.24243 0.24244,0.63647 1e-5,0.87891 v 0 z m -8.67567,-32.19963 c -0.39959,0 -0.79359,-0.023 -1.18226,-0.064 -0.53889,1.61554 -1.19101,3.17862 -1.94893,4.68089 2.72452,2.03371 4.49656,5.27289 4.49656,8.93422 0,6.16026 -4.99388,11.15414 -11.1541,11.15414 -3.65739,0 -6.89355,-1.76825 -8.92766,-4.48782 -1.51212,0.76483 -3.08602,1.42264 -4.71313,1.96536 0.04102,0.38882 0.06404,0.78296 0.06404,1.18268 0,6.16022 -4.99388,11.1541 -11.15414,11.1541 -6.16026,0 -11.15409,-4.99388 -11.15409,-11.1541 0,-0.39972 0.02303,-0.79385 0.06404,-1.18268 -1.63211,-0.54437 -3.21057,-1.20456 -4.72696,-1.97241 -2.03379,2.72356 -5.27243,4.49487 -8.93298,4.49487 -6.16026,0 -11.15409,-4.99388 -11.15409,-11.15414 0,-3.66751 1.77796,-6.91159 4.51034,-8.94456 -0.75568,-1.49907 -1.40597,-3.05872 -1.94362,-4.6705 -0.38869,0.0409 -0.78268,0.064 -1.18222,0.064 -6.16026,0 -11.15414,-4.99388 -11.15414,-11.15414 0,-6.16025 4.99388,-11.15408 11.15414,-11.15408 0.39959,0 0.79358,0.023 1.18226,0.064 0.54328,-1.62872 1.20186,-3.20407 1.9677,-4.71758 -2.76397,-2.03014 -4.56574,-5.29367 -4.56574,-8.98598 0,-6.16026 4.99388,-11.1541 11.15409,-11.1541 3.69434,0 6.95947,1.80373 8.98933,4.57022 1.49464,-0.75531 3.04957,-1.40579 4.65656,-1.94426 -0.0439,-0.40215 -0.07022,-0.80946 -0.07022,-1.22333 0,-6.16026 4.99388,-11.15414 11.15414,-11.15414 6.16026,0 11.15409,4.99388 11.15409,11.15414 0,0.40228 -0.02367,0.79884 -0.06519,1.19014 1.63005,0.5408 3.20686,1.1971 4.72192,1.96074 2.03082,-2.75679 5.28992,-4.55319 8.97661,-4.55319 6.16026,0 11.15408,4.99388 11.15408,11.15414 0,3.67757 -1.78765,6.92952 -4.53291,8.9614 0.77106,1.52097 1.43394,3.10437 1.98015,4.74179 0.38873,-0.0409 0.78273,-0.064 1.18232,-0.064 6.16022,0 11.15409,4.99384 11.15409,11.15408 0,6.16026 -4.99387,11.15414 -11.15411,11.15414 z m 12.74166,-20.17949 -2.25952,-0.14429 0.20728,-3.23804 0.60864,0.0388 -0.16846,2.64258 1.65088,0.10547 z m 0.0381,-28.11035 c -0.21753,0 -0.42041,-0.11279 -0.54053,-0.30762 -0.17212,-0.29224 -0.0747,-0.67529 0.22559,-0.84741 0.29224,-0.17285 0.67456,-0.0747 0.84741,0.22485 0.17212,0.29297 0.0747,0.67529 -0.22559,0.84741 -0.0974,0.0601 -0.20215,0.0828 -0.30688,0.0828 v -1e-5 z m 1.25464,27.95362 -0.79907,-3.13989 0.59106,-0.15088 0.65186,2.56274 1.60181,-0.40796 0.14648,0.57788 z m 1.3418,-40.44213 -0.15381,-0.56689 1.67432,-1.94824 -2.05225,0.55957 -0.15968,-0.58887 3.12891,-0.85254 0.15454,0.57129 -1.67065,1.94238 2.04785,-0.55737 0.16113,0.58813 z m 2.68767,-22.27441 -2.45361,-0.73975 1.34106,1.64575 -0.47314,0.38525 -2.04785,-2.51366 0.45557,-0.37061 2.45801,0.73901 -1.34253,-1.64867 0.47314,-0.38599 2.04785,2.5144 z m 0.78955,-3.28857 -2.05151,0.0733 0.40063,-0.59619 1.95702,-0.0725 0.14502,-0.2146 -1.31469,-0.88403 0.33032,-0.49146 2.68945,1.80835 -0.64746,0.96313 c -0.12231,0.18164 -0.30835,0.30322 -0.52881,0.34644 -0.22119,0.0432 -0.43945,10e-4 -0.62109,-0.12158 -0.26806,-0.17944 -0.40282,-0.50098 -0.35888,-0.81079 v -2e-5 z m 3.80597,59.28367 -0.60059,1.28687 -2.93994,-1.36963 0.5083,-1.09058 c 0.0923,-0.19849 0.26587,-0.35376 0.46948,-0.42407 0.20215,-0.0769 0.43433,-0.0696 0.63208,0.0234 0.12012,0.0549 0.21826,0.13623 0.2959,0.22778 0.082,-0.0572 0.17065,-0.1062 0.26514,-0.1377 0.27466,-0.10327 0.57056,-0.0901 0.83496,0.0322 0.26367,0.12378 0.46289,0.34277 0.56543,0.62036 0.0483,0.1333 0.0725,0.27539 0.0659,0.41748 -0.002,0.14574 -0.0366,0.2849 -0.0967,0.4138 z m 0.76905,-2.35986 -3.18896,-0.57715 0.1084,-0.59912 3.18896,0.57568 z"
   style="fill:#252626" />
		<polygon
   id="polygon87"
   points="13.29806,107.35033 13.884,107.21557 13.41378,106.51537 "
   style="fill:#252626" />
		<path
   id="path89"
   inkscape:connector-curvature="0"
   d="m 98.30584,135.94041 c -0.18018,-0.57861 -0.78955,-0.90088 -1.35938,-0.72437 -0.57129,0.17578 -0.89355,0.78516 -0.71338,1.36523 0.17725,0.57422 0.78662,0.89648 1.35791,0.71997 0.56983,-0.17577 0.89208,-0.78587 0.71485,-1.36083 z"
   style="fill:#252626" />
		<path
   id="path91"
   inkscape:connector-curvature="0"
   d="m 116.56071,179.41989 -0.25049,0.53613 0.41748,0.19482 0.25049,-0.53687 c 0.0535,-0.11572 0.002,-0.25122 -0.1106,-0.30322 -0.11132,-0.0513 -0.24462,-0.004 -0.30688,0.10914 z"
   style="fill:#252626" />
		<path
   id="path93"
   inkscape:connector-curvature="0"
   d="m 10.91476,150.62328 c 0.31787,0.50537 0.99023,0.65771 1.49926,0.33838 0.51343,-0.32227 0.6665,-0.99463 0.34863,-1.5 -0.31787,-0.50464 -0.9895,-0.65845 -1.5022,-0.33545 -0.50975,0.31933 -0.66209,0.99169 -0.34569,1.49707 z"
   style="fill:#252626" />
		<path
   id="path95"
   inkscape:connector-curvature="0"
   d="m 65.57662,270.43005 c -0.12195,0.23752 -0.23914,0.43268 -0.35193,0.58505 -0.11279,0.15259 -0.21185,0.25305 -0.297,0.30182 -0.04893,0.0244 -0.10524,0.0455 -0.16928,0.0638 -0.06391,0.0183 -0.14026,0.032 -0.22861,0.0412 -0.0883,0.009 -0.19496,0.0169 -0.31989,0.0229 -0.12492,0.006 -0.27589,0.009 -0.45259,0.009 -0.2011,0 -0.36721,-0.006 -0.49832,-0.0183 -0.1311,-0.0121 -0.23616,-0.0274 -0.31531,-0.0455 -0.07937,-0.0185 -0.14186,-0.0398 -0.18741,-0.064 -0.04578,-0.0243 -0.08093,-0.0518 -0.10524,-0.0824 -0.0732,-0.0792 -0.12035,-0.19656 -0.14163,-0.35193 -0.02147,-0.15558 -0.03204,-0.35513 -0.03204,-0.59897 v -0.60339 c 0.0014,-0.0836 0.0039,-0.1575 0.0074,-0.22086 0.0059,-0.11261 0.02266,-0.2178 0.05013,-0.31531 0.02747,-0.0975 0.07004,-0.20129 0.12813,-0.31091 0.01369,-0.0263 0.02921,-0.0546 0.04555,-0.0843 0.02202,-7e-4 0.04485,-7.6e-4 0.0704,-7.6e-4 h 0.53036 c 0.17664,0 0.32144,0.003 0.43423,0.009 0.11266,0.006 0.20256,0.0182 0.26976,0.0365 0.09133,0.0244 0.15679,0.0672 0.19656,0.12808 0.0396,0.0609 0.06844,0.13412 0.08694,0.21945 l 0.08217,0.35651 c 0.02426,0.0306 0.06546,0.0442 0.12337,0.0412 0.05786,-0.003 0.09604,-0.0197 0.11436,-0.0503 0,-0.10364 -0.0062,-0.23456 -0.01831,-0.39313 -0.01231,-0.15854 -0.01826,-0.32007 -0.01826,-0.48459 0,-0.17667 0.0059,-0.34735 0.01826,-0.51187 0.01218,-0.1647 0.01831,-0.30176 0.01831,-0.41159 -0.01831,-0.0302 -0.05649,-0.0471 -0.11436,-0.0503 -0.05791,-0.003 -0.09911,0.0107 -0.12337,0.0412 l -0.07301,0.375 c -0.02444,0.11578 -0.05351,0.19354 -0.08694,0.23315 -0.0336,0.0396 -0.07777,0.0685 -0.13252,0.0867 -0.05489,0.0183 -0.14955,0.032 -0.28345,0.0412 -0.13427,0.009 -0.29878,0.0137 -0.49375,0.0137 h -0.41318 c 0.0031,-0.005 0.0059,-0.01 0.0092,-0.0151 l 0.57591,-0.99649 c 0.11559,-0.19516 0.22083,-0.37637 0.31548,-0.54407 0.09435,-0.16754 0.18741,-0.31552 0.27874,-0.44342 0.09151,-0.12796 0.18581,-0.2316 0.28349,-0.31079 0.02023,-0.0163 0.04102,-0.0311 0.0623,-0.045 0.06194,0.0246 0.11646,0.0537 0.16347,0.0876 0.07617,0.0548 0.13847,0.11877 0.18741,0.19199 0.04871,0.0731 0.0883,0.1554 0.11893,0.24673 0.03025,0.0915 0.06385,0.19211 0.10048,0.30176 0.02426,0.0306 0.06404,0.0428 0.11893,0.0366 0.05475,-0.006 0.09132,-0.0243 0.10963,-0.0549 -0.01231,-0.0975 -0.02284,-0.20871 -0.03186,-0.33362 -0.0093,-0.12494 -0.02005,-0.24689 -0.03218,-0.36566 -0.01213,-0.11893 -0.02815,-0.22504 -0.04102,-0.32007 -0.03181,-0.23511 -0.02463,-0.43588 -0.02463,-0.43588 0,-0.46313 -0.13142,-0.86801 -0.33202,-1.20691 -0.20045,-0.33856 -0.4568,-0.60583 -0.76863,-0.80185 -0.31196,-0.19608 -0.67727,-0.33417 -1.09607,-0.41443 -0.41899,-0.0802 -0.90903,-0.12033 -1.47034,-0.12033 -0.56154,0 -1.05405,0.007 -1.47707,0.02 -0.42334,0.0133 -0.81331,0.0424 -1.16977,0.0869 -0.05333,0.0267 -0.0824,0.0782 -0.08679,0.15363 -0.0046,0.0758 0.01534,0.13602 0.0602,0.18054 l 0.48111,0.0535 c 0.15148,0.0179 0.26939,0.0468 0.35435,0.0869 0.08446,0.04 0.14694,0.11346 0.18704,0.22049 0.04015,0.10699 0.06459,0.24948 0.07356,0.42773 0.0088,0.17825 0.01337,0.41003 0.01337,0.69507 v 4.93259 c 0,0.34741 -0.0046,0.6261 -0.01337,0.83533 -0.009,0.20956 -0.0401,0.37216 -0.09361,0.48795 -0.05347,0.11581 -0.13371,0.19601 -0.24055,0.24054 -0.10698,0.0447 -0.25864,0.0803 -0.45447,0.10699 l -0.28084,0.0401 c -0.0407,0.0406 -0.05878,0.0962 -0.05493,0.16626 -3.2e-4,0.14307 -0.002,0.18848 -0.0049,0.34964 -0.0032,0.18457 -0.01163,0.39084 -0.02518,0.61905 0.01355,0.0336 0.05191,0.0537 0.11577,0.0606 0.06372,0.007 0.10909,-0.007 0.13605,-0.0403 l 0.03008,-0.21149 c 0.02023,-0.14764 0.04697,-0.26166 0.08057,-0.3421 0.03365,-0.0806 0.09399,-0.14093 0.18127,-0.18121 0.08711,-0.0403 0.20956,-0.0641 0.3674,-0.0707 0.15766,-0.007 0.3674,-0.01 0.62924,-0.01 h 1.26837 c 0.05365,0 0.09571,0.003 0.12598,0.01 0.03008,0.007 0.05191,0.0253 0.06528,0.0556 0.01337,0.0301 0.02184,0.0771 0.02531,0.14078 0.0032,0.0639 0.005,0.15256 0.005,0.26678 0,0.20145 -0.02518,0.35242 -0.07549,0.45309 -0.05031,0.10065 -0.13252,0.18796 -0.24669,0.26184 -0.11421,0.0806 -0.24001,0.16434 -0.37748,0.25162 -0.13774,0.0871 -0.27534,0.17438 -0.41282,0.26166 -0.1376,0.0872 -0.27008,0.1712 -0.39766,0.25183 -0.12757,0.0804 -0.23827,0.1543 -0.3322,0.22131 -0.25516,0.18127 -0.4649,0.35071 -0.62929,0.50854 -0.16434,0.15768 -0.29347,0.31708 -0.38745,0.47812 -0.09416,0.16101 -0.15944,0.33047 -0.19638,0.50836 -0.03676,0.17789 -0.05525,0.37408 -0.05525,0.58896 0,0.19458 0.01671,0.34241 0.05017,0.44287 0.02023,0.0269 0.04537,0.0387 0.07567,0.0354 0.03008,-0.004 0.0519,-0.0187 0.06546,-0.0453 0.01318,-0.13428 0.04518,-0.26166 0.09554,-0.38239 0.05031,-0.12088 0.11224,-0.22507 0.18635,-0.31213 0.14095,-0.17459 0.30016,-0.33893 0.47809,-0.49344 0.1777,-0.1543 0.37408,-0.31195 0.58896,-0.47314 0.21464,-0.16104 0.45625,-0.32712 0.72478,-0.49817 0.26834,-0.1712 0.56378,-0.35757 0.88595,-0.55884 0.04033,-0.0269 0.08204,-0.0488 0.12584,-0.0655 0.04344,-0.0169 0.08217,-0.0118 0.11577,0.0151 0.04683,0.12741 0.11737,0.26346 0.21135,0.40775 0.09393,0.14429 0.20975,0.28027 0.34734,0.40787 0.1376,0.12738 0.2986,0.233 0.48318,0.31708 0.18461,0.0838 0.39771,0.12585 0.63927,0.12585 0.35582,0 0.64774,-0.079 0.87598,-0.23672 0.22806,-0.15765 0.40594,-0.35736 0.53352,-0.59894 0.1274,-0.23492 0.20975,-0.49503 0.24669,-0.78006 0.03676,-0.28543 0.05667,-0.58575 0.05525,-0.90131 -0.0025,-0.5845 0.10277,-0.95654 0.10277,-0.95654 0.0396,-0.10977 0.07901,-0.22696 0.11879,-0.35193 0.0396,-0.12491 0.07617,-0.24686 0.10977,-0.36578 0.03346,-0.1188 0.05933,-0.21786 0.07777,-0.29724 -0.01845,-0.0424 -0.05347,-0.0698 -0.10519,-0.0822 -0.05189,-0.0122 -0.0929,-0.006 -0.12353,0.0183 z m -3.8508,-0.0517 c 0,0.2439 -0.0031,0.43884 -0.0091,0.58505 -0.0062,0.14621 -0.02747,0.26062 -0.06409,0.34277 -0.01299,0.0296 -0.02847,0.0557 -0.04628,0.0783 -3.2e-4,1.8e-4 -9e-4,4.9e-4 -0.0012,6.7e-4 -0.10643,-0.0204 -0.1962,-0.044 -0.26867,-0.0709 -0.12039,-0.0446 -0.20713,-0.12476 -0.2606,-0.24057 -0.05351,-0.11575 -0.08694,-0.27835 -0.1003,-0.48792 -0.01337,-0.20926 -0.02005,-0.48795 -0.02005,-0.83533 v -1.90338 l 0.47791,0.93121 c 0.06688,0.12808 0.12016,0.2363 0.15994,0.32465 0.0396,0.0885 0.06844,0.17065 0.08675,0.24689 0.0183,0.0763 0.03044,0.15695 0.03662,0.24228 0.0059,0.0853 0.0091,0.19199 0.0091,0.31989 0,0 0,0.46634 0,0.46634 z m 0.02747,-2.52332 c -0.1707,-0.34753 -0.34135,-0.69174 -0.51205,-1.03326 -0.01231,-0.0243 -0.03342,-0.0699 -0.06385,-0.13705 -0.03062,-0.0669 -0.06267,-0.13849 -0.09608,-0.21487 -0.0336,-0.0762 -0.06263,-0.14764 -0.08693,-0.21484 -0.02444,-0.067 -0.03643,-0.11279 -0.03643,-0.13708 0,-0.0366 0.02413,-0.0655 0.07306,-0.0869 0.04871,-0.0213 0.1524,-0.0472 0.31091,-0.0776 l 0.11879,-0.0183 c 0.03044,-0.0305 0.04413,-0.0732 0.04115,-0.12808 -0.0031,-0.0547 -0.02605,-0.0883 -0.06844,-0.10049 -0.12987,0.0102 -0.28912,0.0176 -0.47791,0.022 v -1.93982 c 0,-0.10703 0.0044,-0.19165 0.01337,-0.25409 0.0088,-0.0621 0.03552,-0.11124 0.08024,-0.14694 0.0445,-0.0356 0.11559,-0.0579 0.21377,-0.0669 0.09801,-0.009 0.23616,-0.0134 0.41441,-0.0134 0.69502,0 1.22749,0.19379 1.59737,0.58142 0.36969,0.38763 0.55481,0.90692 0.55481,1.55743 0,0.0616 -0.01282,0.19443 -0.02092,0.28561 -0.05122,-7.3e-4 -0.10241,-0.002 -0.15362,-0.002 -0.14026,-0.003 -0.2926,-0.0107 -0.45717,-0.0229 -0.03658,0.0183 -0.0563,0.0533 -0.05946,0.10507 -0.003,0.0519 0.01057,0.0931 0.04139,0.1235 l 0.16434,0.0183 c 0.10977,0.0122 0.2011,0.032 0.27429,0.0593 0.07324,0.0274 0.10982,0.0565 0.10982,0.0869 0,0.0305 -0.01831,0.0869 -0.05489,0.1691 -0.03662,0.0824 -0.08537,0.18143 -0.14621,0.297 -0.06107,0.11597 -0.12672,0.2395 -0.19656,0.37042 -0.07022,0.1311 -0.13586,0.25461 -0.19675,0.37024 -0.14021,0.26834 -0.28331,0.53174 -0.4297,0.79074 -0.14621,0.25925 -0.28945,0.51068 -0.42952,0.75439 -0.17702,-0.31689 -0.35069,-0.64914 -0.52121,-0.99649 z m 3.20819,5.29581 c -0.08569,0.19757 -0.1994,0.36072 -0.34103,0.48917 -0.14182,0.12845 -0.30299,0.22379 -0.48427,0.28665 -0.18142,0.0626 -0.37075,0.0938 -0.56836,0.0938 -0.33609,0 -0.59793,-0.0493 -0.78566,-0.14816 -0.18777,-0.0989 -0.33448,-0.21414 -0.43973,-0.34595 -0.11229,-0.14502 -0.18301,-0.30637 -0.21259,-0.48425 -0.02971,-0.17789 -0.0445,-0.35583 -0.0445,-0.53372 0,-0.25058 0.0051,-0.42334 0.01478,-0.51892 0.01003,-0.0957 0.02129,-0.1499 0.03465,-0.16309 0.02623,-0.0199 0.13495,-0.0295 0.32607,-0.0295 h 2.31285 c 0.06583,0 0.12016,0.005 0.1631,0.0148 0.04262,0.01 0.07567,0.0361 0.09874,0.079 0.02303,0.0428 0.03782,0.10699 0.0445,0.19269 0.0065,0.0857 0.01007,0.20428 0.01007,0.3558 10e-6,0.27676 -0.04311,0.51416 -0.12862,0.71179 v -3e-5 z"
   style="fill:#252626" />
	</g>
	<g
   id="g106">
		<g
   id="g79">
			
				<linearGradient
   id="SVGID_1_"
   gradientUnits="userSpaceOnUse"
   x1="324.17041"
   y1="-4045.1702"
   x2="337.17041"
   y2="-4045.1702"
   gradientTransform="rotate(90,-1851.9247,-2175.9464)">
				<stop
   offset="0.00559"
   style="stop-color:#303030"
   id="stop56" />
				<stop
   offset="1"
   style="stop-color:#222222"
   id="stop58" />
			</linearGradient>
			<circle
   cx="17.299129"
   cy="5.22679"
   r="5.0781498"
   id="circle61"
   style="fill:url(#SVGID_1_)" />
			
				<linearGradient
   id="SVGID_2_"
   gradientUnits="userSpaceOnUse"
   x1="324.70755"
   y1="-4045.1702"
   x2="336.33145"
   y2="-4045.1702"
   gradientTransform="rotate(90,-1851.9247,-2175.9464)">
				<stop
   offset="0.01118"
   style="stop-color:#636363"
   id="stop63" />
				<stop
   offset="1"
   style="stop-color:#2B2B2B"
   id="stop65" />
			</linearGradient>
			<circle
   cx="17.299129"
   cy="5.2263699"
   r="4.5405998"
   id="circle68"
   style="fill:url(#SVGID_2_)" />
			
				<linearGradient
   id="SVGID_3_"
   gradientUnits="userSpaceOnUse"
   x1="325.05682"
   y1="-4045.1702"
   x2="335.78656"
   y2="-4045.1702"
   gradientTransform="rotate(90,-1851.9247,-2175.9464)">
				<stop
   offset="0.01118"
   style="stop-color:#4C4C4C"
   id="stop70" />
				<stop
   offset="1"
   style="stop-color:#3B3B3B"
   id="stop72" />
			</linearGradient>
			<circle
   cx="17.299129"
   cy="5.2263699"
   r="4.19133"
   id="circle75"
   style="fill:url(#SVGID_3_)" />
			<path
   d="M 20.00922,4.68814 18.47514,4.50434 C 18.23964,4.47613 18.05403,4.29044 18.02591,4.05493 L 17.84288,2.52189 C 17.8349,2.45507 17.77823,2.40475 17.71093,2.40475 h -0.82355 c -0.06729,0 -0.12396,0.0503 -0.13195,0.11711 L 16.57196,4.05577 C 16.54379,4.29131 16.35808,4.47698 16.12253,4.5051 L 14.58912,4.68817 C 14.5223,4.69615 14.47198,4.75282 14.47198,4.82012 v 0.8236 c 0,0.06729 0.05029,0.12396 0.11711,0.13195 l 1.53359,0.18343 c 0.2355,0.02817 0.42115,0.21382 0.44932,0.44931 l 0.18343,1.53355 c 0.008,0.06681 0.06466,0.11711 0.13195,0.11711 h 0.8236 c 0.06728,0 0.12394,-0.05028 0.13195,-0.11708 L 18.02669,6.40824 C 18.0549,6.17278 18.24054,5.98718 18.476,5.95902 L 20.0092,5.77566 C 20.076,5.76769 20.1263,5.71102 20.1263,5.64373 V 4.82009 c 0,-0.06728 -0.05028,-0.12395 -0.11708,-0.13195 z"
   id="path77"
   inkscape:connector-curvature="0"
   style="fill:#171717" />
		</g>
		<g
   id="g104">
			
				<linearGradient
   id="SVGID_4_"
   gradientUnits="userSpaceOnUse"
   x1="598.67188"
   y1="-4045.1702"
   x2="611.67188"
   y2="-4045.1702"
   gradientTransform="rotate(90,-1851.9247,-2175.9464)">
				<stop
   offset="0.00559"
   style="stop-color:#303030"
   id="stop81" />
				<stop
   offset="1"
   style="stop-color:#222222"
   id="stop83" />
			</linearGradient>
			<circle
   cx="17.299129"
   cy="279.72827"
   r="5.0781498"
   id="circle86"
   style="fill:url(#SVGID_4_)" />
			
				<linearGradient
   id="SVGID_5_"
   gradientUnits="userSpaceOnUse"
   x1="599.20905"
   y1="-4045.1702"
   x2="610.83289"
   y2="-4045.1702"
   gradientTransform="rotate(90,-1851.9247,-2175.9464)">
				<stop
   offset="0.01118"
   style="stop-color:#636363"
   id="stop88" />
				<stop
   offset="1"
   style="stop-color:#2B2B2B"
   id="stop90" />
			</linearGradient>
			<circle
   cx="17.299129"
   cy="279.72784"
   r="4.5405998"
   id="circle93"
   style="fill:url(#SVGID_5_)" />
			
				<linearGradient
   id="SVGID_6_"
   gradientUnits="userSpaceOnUse"
   x1="599.55829"
   y1="-4045.1702"
   x2="610.28802"
   y2="-4045.1702"
   gradientTransform="rotate(90,-1851.9247,-2175.9464)">
				<stop
   offset="0.01118"
   style="stop-color:#4C4C4C"
   id="stop95" />
				<stop
   offset="1"
   style="stop-color:#3B3B3B"
   id="stop97" />
			</linearGradient>
			<circle
   cx="17.299129"
   cy="279.72784"
   r="4.19133"
   id="circle100"
   style="fill:url(#SVGID_6_)" />
			<path
   d="m 20.00922,279.18961 -1.53408,-0.18378 c -0.2355,-0.0282 -0.42111,-0.21393 -0.44923,-0.44943 l -0.18303,-1.53302 c -0.008,-0.0668 -0.06465,-0.11716 -0.13195,-0.11716 h -0.82355 c -0.06729,0 -0.12396,0.0503 -0.13195,0.11713 l -0.18347,1.53391 c -0.02817,0.23553 -0.21388,0.4212 -0.44943,0.44934 l -1.53341,0.18307 c -0.06682,0.008 -0.11714,0.0646 -0.11714,0.13196 v 0.82358 c 0,0.0673 0.05029,0.12396 0.11711,0.13196 l 1.53359,0.18344 c 0.2355,0.0282 0.42115,0.21381 0.44932,0.44931 l 0.18343,1.53354 c 0.008,0.0668 0.06466,0.1171 0.13195,0.1171 h 0.8236 c 0.06728,0 0.12394,-0.0503 0.13195,-0.11707 l 0.18376,-1.53375 c 0.02821,-0.23544 0.21385,-0.42105 0.44931,-0.44922 l 1.5332,-0.18335 c 0.06681,-0.008 0.11711,-0.0647 0.11711,-0.13196 v -0.82364 c -10e-6,-0.0673 -0.05029,-0.12394 -0.11709,-0.13196 z"
   id="path102"
   inkscape:connector-curvature="0"
   style="fill:#171717" />
		</g>
	</g>
	<g
   id="g158">
		<g
   id="g131">
			
				<linearGradient
   id="SVGID_7_"
   gradientUnits="userSpaceOnUse"
   x1="324.17041"
   y1="-4133.6885"
   x2="337.17041"
   y2="-4133.6885"
   gradientTransform="rotate(90,-1851.9247,-2175.9464)">
				<stop
   offset="0.00559"
   style="stop-color:#303030"
   id="stop108" />
				<stop
   offset="1"
   style="stop-color:#222222"
   id="stop110" />
			</linearGradient>
			<circle
   cx="105.81754"
   cy="5.22679"
   r="5.0781498"
   id="circle113"
   style="fill:url(#SVGID_7_)" />
			
				<linearGradient
   id="SVGID_8_"
   gradientUnits="userSpaceOnUse"
   x1="324.70755"
   y1="-4133.6885"
   x2="336.33145"
   y2="-4133.6885"
   gradientTransform="rotate(90,-1851.9247,-2175.9464)">
				<stop
   offset="0.01118"
   style="stop-color:#636363"
   id="stop115" />
				<stop
   offset="1"
   style="stop-color:#2B2B2B"
   id="stop117" />
			</linearGradient>
			<circle
   cx="105.81754"
   cy="5.2263699"
   r="4.5405998"
   id="circle120"
   style="fill:url(#SVGID_8_)" />
			
				<linearGradient
   id="SVGID_9_"
   gradientUnits="userSpaceOnUse"
   x1="325.05682"
   y1="-4133.6885"
   x2="335.78656"
   y2="-4133.6885"
   gradientTransform="rotate(90,-1851.9247,-2175.9464)">
				<stop
   offset="0.01118"
   style="stop-color:#4C4C4C"
   id="stop122" />
				<stop
   offset="1"
   style="stop-color:#3B3B3B"
   id="stop124" />
			</linearGradient>
			<circle
   cx="105.81754"
   cy="5.2263699"
   r="4.19133"
   id="circle127"
   style="fill:url(#SVGID_9_)" />
			<path
   d="m 108.52763,4.68814 -1.53408,-0.1838 c -0.2355,-0.02821 -0.42111,-0.2139 -0.44923,-0.44941 l -0.18304,-1.53304 c -0.008,-0.06682 -0.0647,-0.11714 -0.13195,-0.11714 h -0.82355 c -0.0673,0 -0.12395,0.0503 -0.13195,0.11711 l -0.18347,1.53391 c -0.0282,0.23554 -0.21387,0.42121 -0.44942,0.44933 l -1.53342,0.18307 c -0.0668,0.00798 -0.11713,0.06465 -0.11713,0.13195 v 0.8236 c 0,0.06729 0.0503,0.12396 0.1171,0.13195 l 1.53359,0.18343 c 0.2355,0.02817 0.42115,0.21382 0.44932,0.44931 l 0.18343,1.53355 c 0.008,0.06681 0.0647,0.11711 0.13195,0.11711 h 0.8236 c 0.0673,0 0.12394,-0.05028 0.13194,-0.11708 l 0.18376,-1.53375 c 0.0282,-0.23546 0.21384,-0.42106 0.44931,-0.44922 l 1.5332,-0.18336 C 108.5944,5.76767 108.6447,5.711 108.6447,5.64371 V 4.82009 c 1e-5,-0.06728 -0.0503,-0.12395 -0.11707,-0.13195 z"
   id="path129"
   inkscape:connector-curvature="0"
   style="fill:#171717" />
		</g>
		<g
   id="g156">
			
				<linearGradient
   id="SVGID_10_"
   gradientUnits="userSpaceOnUse"
   x1="598.67188"
   y1="-4133.6885"
   x2="611.67188"
   y2="-4133.6885"
   gradientTransform="rotate(90,-1851.9247,-2175.9464)">
				<stop
   offset="0.00559"
   style="stop-color:#303030"
   id="stop133" />
				<stop
   offset="1"
   style="stop-color:#222222"
   id="stop135" />
			</linearGradient>
			<circle
   cx="105.81754"
   cy="279.72827"
   r="5.0781498"
   id="circle138"
   style="fill:url(#SVGID_10_)" />
			
				<linearGradient
   id="SVGID_11_"
   gradientUnits="userSpaceOnUse"
   x1="599.20905"
   y1="-4133.6885"
   x2="610.83289"
   y2="-4133.6885"
   gradientTransform="rotate(90,-1851.9247,-2175.9464)">
				<stop
   offset="0.01118"
   style="stop-color:#636363"
   id="stop140" />
				<stop
   offset="1"
   style="stop-color:#2B2B2B"
   id="stop142" />
			</linearGradient>
			<circle
   cx="105.81754"
   cy="279.72784"
   r="4.5405998"
   id="circle145"
   style="fill:url(#SVGID_11_)" />
			
				<linearGradient
   id="SVGID_12_"
   gradientUnits="userSpaceOnUse"
   x1="599.55829"
   y1="-4133.6885"
   x2="610.28802"
   y2="-4133.6885"
   gradientTransform="rotate(90,-1851.9247,-2175.9464)">
				<stop
   offset="0.01118"
   style="stop-color:#4C4C4C"
   id="stop147" />
				<stop
   offset="1"
   style="stop-color:#3B3B3B"
   id="stop149" />
			</linearGradient>
			<circle
   cx="105.81754"
   cy="279.72784"
   r="4.19133"
   id="circle152"
   style="fill:url(#SVGID_12_)" />
			<path
   d="m 108.52763,279.18961 -1.53408,-0.18378 c -0.2355,-0.0282 -0.42111,-0.21393 -0.44923,-0.44943 l -0.18304,-1.53302 c -0.008,-0.0668 -0.0647,-0.11716 -0.13195,-0.11716 h -0.82355 c -0.0673,0 -0.12395,0.0503 -0.13195,0.11713 l -0.18347,1.53391 c -0.0282,0.23553 -0.21387,0.4212 -0.44942,0.44934 l -1.53342,0.18307 c -0.0668,0.008 -0.11713,0.0646 -0.11713,0.13196 v 0.82358 c 0,0.0673 0.0503,0.12396 0.1171,0.13196 l 1.53359,0.18344 c 0.2355,0.0282 0.42115,0.21381 0.44932,0.44931 l 0.18343,1.53354 c 0.008,0.0668 0.0647,0.1171 0.13195,0.1171 h 0.8236 c 0.0673,0 0.12394,-0.0503 0.13194,-0.11707 l 0.18376,-1.53375 c 0.0282,-0.23544 0.21384,-0.42105 0.44931,-0.44922 l 1.5332,-0.18335 c 0.0668,-0.008 0.11711,-0.0647 0.11711,-0.13196 v -0.82364 c 1e-5,-0.0673 -0.0503,-0.12394 -0.11707,-0.13196 z"
   id="path154"
   inkscape:connector-curvature="0"
   style="fill:#171717" />
		</g>
	</g>
</g>
<g
   id="serigraphy"
   transform="matrix(1.3333338,0,0,1.3333338,1.4666672e-4,-0.09476003)">
	<g
   id="g228">
		<g
   id="g160">
			<g
   id="g150">
				<path
   id="path148"
   inkscape:connector-curvature="0"
   d="m 1.8749,17.94365 c -0.08276,0 -0.16552,-0.01538 -0.24023,-0.04541 C 1.55996,17.86821 1.49258,17.82353 1.43252,17.76347 1.37979,17.70341 1.33437,17.63603 1.29703,17.56059 1.267,17.48588 1.25235,17.41118 1.25235,17.32841 c 0,-0.08277 0.01465,-0.1648 0.05273,-0.24023 0.02929,-0.07471 0.07471,-0.14209 0.12744,-0.20215 0.06006,-0.06006 0.12744,-0.10474 0.20215,-0.13477 0.15747,-0.06006 0.32227,-0.06006 0.47974,0 0.07544,0.03003 0.14282,0.07471 0.19555,0.13477 0.06006,0.06006 0.10474,0.12744 0.14209,0.20215 0.03003,0.07544 0.04541,0.15747 0.04541,0.24023 0,0.08276 -0.01538,0.15747 -0.04541,0.23218 C 2.4147,17.63603 2.37001,17.70341 2.30996,17.76347 2.25723,17.82353 2.18984,17.86821 2.11441,17.89824 2.0397,17.92827 1.95693,17.94365 1.8749,17.94365 Z"
   style="fill:#e5e5e5" />
			</g>
			<g
   id="g154">
				<path
   id="path152"
   inkscape:connector-curvature="0"
   d="m 9.90737,17.32842 c 0,-0.34497 0.27759,-0.62256 0.62256,-0.62256 v 0 c 0.34497,0 0.62256,0.27759 0.62256,0.62256 v 0 c 0,0.33765 -0.27759,0.61523 -0.62256,0.61523 v 0 c -0.34497,0 -0.62256,-0.27759 -0.62256,-0.61523 z m -4.32788,0 c 0,-0.34497 0.27759,-0.62256 0.62256,-0.62256 v 0 c 0.34497,0 0.62256,0.27759 0.62256,0.62256 v 0 c 0,0.33765 -0.27759,0.61523 -0.62256,0.61523 v 0 c -0.34497,0 -0.62256,-0.27759 -0.62256,-0.61523 z"
   style="fill:#e5e5e5" />
			</g>
			<g
   id="g166">
				<path
   id="path156"
   inkscape:connector-curvature="0"
   d="m 14.85707,17.94365 c -0.08204,0 -0.15747,-0.01538 -0.2395,-0.04541 -0.06812,-0.03003 -0.14282,-0.07471 -0.19555,-0.13477 -0.06006,-0.06006 -0.10474,-0.12744 -0.13477,-0.20288 -0.03003,-0.07471 -0.05273,-0.14942 -0.05273,-0.23218 0,-0.08276 0.0227,-0.1648 0.05273,-0.24023 0.03003,-0.07471 0.07471,-0.14209 0.13477,-0.20215 0.05273,-0.06006 0.12012,-0.10474 0.20288,-0.13477 0.22485,-0.09814 0.50244,-0.03808 0.67456,0.13477 0.06006,0.06006 0.10547,0.12744 0.1355,0.20215 0.03003,0.07544 0.04468,0.15747 0.04468,0.24023 0,0.08276 -0.01465,0.15747 -0.04468,0.23218 -0.03003,0.07544 -0.07544,0.14282 -0.1355,0.20288 -0.11939,0.12012 -0.27759,0.18018 -0.44239,0.18018 z"
   style="fill:#e5e5e5" />
			</g>
		</g>
		<g
   id="g174">
			<g
   id="g164">
				<path
   id="path162"
   inkscape:connector-curvature="0"
   d="m 109.29698,17.94365 c -0.0901,0 -0.16479,-0.01538 -0.2395,-0.04541 -0.0754,-0.03003 -0.14282,-0.07471 -0.20288,-0.13477 -0.0601,-0.06006 -0.10474,-0.12744 -0.13477,-0.20288 -0.03,-0.07471 -0.0455,-0.15747 -0.0455,-0.23218 0,-0.08276 0.0154,-0.1648 0.0455,-0.24023 0.03,-0.07471 0.0747,-0.14209 0.13477,-0.20215 0.0527,-0.06006 0.12744,-0.10474 0.20288,-0.13477 0.14941,-0.06006 0.32227,-0.06006 0.47241,0 0.0747,0.03003 0.15015,0.07471 0.20215,0.13477 0.0601,0.06006 0.10547,0.12744 0.1355,0.20215 0.0293,0.07544 0.052,0.15747 0.052,0.24023 0,0.07471 -0.0227,0.15747 -0.052,0.23218 -0.03,0.07544 -0.0754,0.14282 -0.1355,0.20288 -0.0601,0.06006 -0.12744,0.10474 -0.20215,0.13477 -0.0754,0.03003 -0.15014,0.04541 -0.23291,0.04541 z"
   style="fill:#e5e5e5" />
			</g>
			<g
   id="g168">
				<path
   id="path166"
   inkscape:connector-curvature="0"
   d="m 117.05991,17.32842 c 0,-0.34497 0.27759,-0.62256 0.62256,-0.62256 v 0 c 0.33691,0 0.62256,0.27759 0.62256,0.62256 v 0 c 0,0.33765 -0.28564,0.61523 -0.62256,0.61523 v 0 c -0.34497,0 -0.62256,-0.27759 -0.62256,-0.61523 z m -4.19237,0 c 0,-0.34497 0.27686,-0.62256 0.62183,-0.62256 v 0 c 0.33765,0 0.62256,0.27759 0.62256,0.62256 v 0 c 0,0.33765 -0.28491,0.61523 -0.62256,0.61523 v 0 c -0.34498,0 -0.62183,-0.27759 -0.62183,-0.61523 z"
   style="fill:#e5e5e5" />
			</g>
			<g
   id="g172">
				<path
   id="path170"
   inkscape:connector-curvature="0"
   d="m 121.87486,17.94365 c -0.16553,0 -0.323,-0.06006 -0.44238,-0.18017 -0.11279,-0.12012 -0.18018,-0.27026 -0.18018,-0.43506 0,-0.1648 0.0673,-0.32227 0.18018,-0.44238 0.0601,-0.06006 0.12744,-0.10474 0.20215,-0.13477 0.15747,-0.06006 0.32227,-0.06006 0.47974,0 0.0754,0.03003 0.14282,0.07471 0.20288,0.13477 0.0527,0.06006 0.0974,0.12744 0.12744,0.20215 0.0374,0.07544 0.0527,0.15747 0.0527,0.24023 0,0.1648 -0.0674,0.31494 -0.18018,0.43506 -0.12014,0.12011 -0.27761,0.18017 -0.44238,0.18017 z"
   style="fill:#e5e5e5" />
			</g>
		</g>
		<g
   id="g180">
			<g
   id="g178">
				<path
   id="path176"
   inkscape:connector-curvature="0"
   d="m 49.1322,148.87061 c -0.03003,-0.33691 0.23218,-0.63721 0.56983,-0.65991 v 0 0 0 c 0.34497,-0.03 0.64526,0.23291 0.66797,0.57056 v 0 c 0.02197,0.34497 -0.23291,0.64453 -0.57788,0.66724 v 0 c -0.01465,0 -0.03003,0 -0.04468,0 v 0 c -0.32299,-1e-5 -0.59252,-0.24757 -0.61524,-0.57789 z m -3.2102,0.1128 v 0 c -0.31494,-0.12744 -0.47241,-0.48779 -0.35229,-0.81006 v 0 c 0.12744,-0.31494 0.48779,-0.47974 0.81006,-0.35229 v 0 c 0.32227,0.12744 0.47241,0.48706 0.35229,0.81006 v 0 c -0.09741,0.2395 -0.32959,0.38965 -0.57715,0.38965 v 0 c -0.07544,0 -0.15747,-0.0146 -0.23291,-0.0374 z m 6.81738,-0.6372 c -0.08204,-0.33765 0.12012,-0.66797 0.45044,-0.75806 v 0 0 0 c 0.32959,-0.082 0.66724,0.11279 0.75733,0.44312 v 0 c 0.08276,0.33691 -0.11279,0.67456 -0.44238,0.75732 h -0.0074 c -0.05273,0.0146 -0.10547,0.022 -0.15015,0.022 v 0 c -0.27759,-2e-5 -0.53247,-0.18752 -0.60791,-0.46437 z m 3.5105,-1.02759 c -0.10547,-0.323 0.06738,-0.67529 0.38965,-0.78735 v 0 c 0.32299,-0.11279 0.67529,0.0593 0.78735,0.38232 v 0 c 0.11279,0.32959 -0.05933,0.68262 -0.38233,0.79468 v 0 c -0.06738,0.0227 -0.13477,0.03 -0.20215,0.03 v 0 c -0.26293,-2e-5 -0.50244,-0.16481 -0.59252,-0.41969 z m 3.44238,-1.23047 c -0.12012,-0.32227 0.04468,-0.68188 0.36767,-0.802 v 0 c 0.31494,-0.12012 0.67456,0.0374 0.80201,0.35962 v 0 c 0.12012,0.323 -0.04468,0.68262 -0.36694,0.80273 v 0 c -0.06812,0.03 -0.14282,0.0374 -0.21753,0.0374 v 0 c -0.25562,2e-5 -0.48779,-0.15013 -0.58521,-0.39769 v -1e-5 z m 3.41968,-1.29712 c -0.11205,-0.32227 0.04541,-0.68262 0.36767,-0.80273 v 0 c 0.32227,-0.12012 0.68261,0.0454 0.80273,0.36768 v 0 c 0.12012,0.32227 -0.04541,0.67529 -0.36767,0.79468 v 0 c -0.06738,0.03 -0.14282,0.0454 -0.21753,0.0454 v 0 c -0.24755,0 -0.48779,-0.15747 -0.58521,-0.40503 v -4e-5 z m 3.44311,-1.24512 c -0.10548,-0.33032 0.06738,-0.68262 0.39697,-0.78735 v 0 c 0.32299,-0.10547 0.67529,0.0674 0.78003,0.39771 v 0 c 0.11279,0.32227 -0.06738,0.67456 -0.38965,0.78735 v 0 c -0.06738,0.0146 -0.13549,0.03 -0.19556,0.03 v 0 c -0.26221,0 -0.50245,-0.16553 -0.5918,-0.42773 z m 10.97241,-0.3977 c -0.30029,-0.15747 -0.41309,-0.53979 -0.25562,-0.84009 v 0 c 0.1582,-0.29956 0.5332,-0.41968 0.84009,-0.25488 v 0 c 0.30029,0.15747 0.42041,0.53247 0.25562,0.83276 v 0 c -0.10547,0.21753 -0.32299,0.33765 -0.54785,0.33765 v 0 c -0.09742,0 -0.19482,-0.03 -0.29224,-0.0754 z M 70.0575,142.4883 c -0.07545,-0.33765 0.13477,-0.66724 0.46436,-0.74268 v 0 c 0.33765,-0.0747 0.66798,0.12744 0.74267,0.46509 v 0 c 0.08276,0.33765 -0.12744,0.66797 -0.46509,0.74268 v 0 c -0.04468,0.0154 -0.09009,0.0154 -0.13477,0.0154 v 0 c -0.2849,-2e-5 -0.5471,-0.19556 -0.60717,-0.48047 z m 3.59985,-0.61524 c -0.0073,-0.34497 0.26954,-0.62183 0.61451,-0.62988 v 0 c 0.33765,0 0.62256,0.27026 0.63062,0.61523 v 0 c 0,0.34497 -0.27026,0.62256 -0.61523,0.62988 v 0 h -0.0074 v 0 c -0.33765,0 -0.61523,-0.26953 -0.62256,-0.61523 z"
   style="fill:#e5e5e5" />
			</g>
		</g>
		<g
   id="g226">
			<path
   id="path182"
   inkscape:connector-curvature="0"
   d="m 20.59962,15.41277 h 0.44312 v 0.62622 h 0.01465 c 0.16187,-0.43652 0.64746,-0.73242 1.16089,-0.73242 1.02026,0 1.33008,0.5354 1.33008,1.40112 v 2.33642 H 23.10525 V 16.778 c 0,-0.62622 -0.20435,-1.0979 -0.92212,-1.0979 -0.70386,0 -1.12573,0.53467 -1.14038,1.24585 v 2.11816 h -0.44312 v -3.63134 z"
   style="fill:#e5e5e5" />
			<path
   id="path184"
   inkscape:connector-curvature="0"
   d="m 24.64845,17.34783 c 0.0073,0.64746 0.34497,1.42895 1.19677,1.42895 0.64746,0 0.99902,-0.38013 1.13965,-0.92945 h 0.44385 c -0.19043,0.82397 -0.6687,1.30225 -1.5835,1.30225 -1.15429,0 -1.63989,-0.88696 -1.63989,-1.92114 0,-0.95728 0.4856,-1.92188 1.63989,-1.92188 1.16822,0 1.63257,1.021 1.59741,2.04126 h -2.79418 z m 2.35107,-0.37281 C 26.97828,16.30632 26.563,15.6801 25.84523,15.6801 c -0.7251,0 -1.12646,0.63355 -1.19677,1.29492 z"
   style="fill:#e5e5e5" />
			<path
   id="path186"
   inkscape:connector-curvature="0"
   d="m 30.98463,19.04411 h -0.40796 v -0.65479 h -0.01391 c -0.23218,0.48559 -0.71118,0.76025 -1.25317,0.76025 -0.9148,0 -1.27368,-0.53467 -1.27368,-1.37915 v -2.35765 h 0.44312 v 2.36425 c 0.02124,0.65479 0.26807,0.99976 0.97119,0.99976 0.76025,0 1.09131,-0.71777 1.09131,-1.45679 v -1.90723 h 0.44311 v 3.63135 z"
   style="fill:#e5e5e5" />
			<path
   id="path188"
   inkscape:connector-curvature="0"
   d="m 32.52784,15.41277 h 0.73901 v 0.3728 h -0.73901 v 2.44922 c 0,0.28858 0.04248,0.45776 0.35962,0.47827 0.12671,0 0.25341,-0.0066 0.37939,-0.0205 v 0.37939 c -0.1333,0 -0.26001,0.01465 -0.39404,0.01465 -0.59107,0 -0.79468,-0.19702 -0.78809,-0.81665 v -2.48438 h -0.63355 v -0.37281 h 0.63355 v -1.09131 h 0.44312 c 0,10e-6 0,1.09132 0,1.09132 z"
   style="fill:#e5e5e5" />
			<path
   id="path190"
   inkscape:connector-curvature="0"
   d="m 33.90919,15.41277 h 0.40796 v 0.85108 h 0.01391 c 0.22559,-0.58374 0.71777,-0.92871 1.37256,-0.90088 v 0.44385 c -0.80273,-0.04248 -1.35132,0.54859 -1.35132,1.30151 v 1.93579 h -0.44312 c 0,0 0,-3.63135 1e-5,-3.63135 z"
   style="fill:#e5e5e5" />
			<path
   id="path192"
   inkscape:connector-curvature="0"
   d="m 39.25147,17.22844 c 0,1.0415 -0.60498,1.92114 -1.71753,1.92114 -1.11181,0 -1.71679,-0.87964 -1.71679,-1.92114 0,-1.0415 0.60498,-1.92188 1.71679,-1.92188 1.11255,1e-5 1.71753,0.88037 1.71753,1.92188 z m -2.99121,0 c 0,0.77417 0.42261,1.54834 1.27368,1.54834 0.8518,0 1.27441,-0.77417 1.27441,-1.54834 0,-0.77417 -0.42261,-1.54834 -1.27441,-1.54834 -0.85107,0 -1.27368,0.77417 -1.27368,1.54834 z"
   style="fill:#e5e5e5" />
			<path
   id="path194"
   inkscape:connector-curvature="0"
   d="m 39.90772,15.41277 h 0.44312 v 0.62622 h 0.01465 c 0.16187,-0.43652 0.64746,-0.73242 1.16089,-0.73242 1.02026,0 1.33008,0.5354 1.33008,1.40112 v 2.33642 H 42.41334 V 16.778 c 0,-0.62622 -0.20435,-1.0979 -0.92212,-1.0979 -0.70386,0 -1.12574,0.53467 -1.14038,1.24585 v 2.11816 h -0.44312 z"
   style="fill:#e5e5e5" />
			<path
   id="path196"
   inkscape:connector-curvature="0"
   d="m 45.6543,15.41277 h 0.40796 v 0.68921 h 0.01391 c 0.20435,-0.49219 0.71118,-0.79541 1.29492,-0.79541 1.10522,0 1.63329,0.89428 1.63329,1.92187 0,1.02759 -0.52808,1.92114 -1.6333,1.92114 -0.542,0 -1.06934,-0.27466 -1.25977,-0.79541 H 46.0974 v 2.03393 h -0.4431 c -10e-6,0 -10e-6,-4.97533 0,-4.97533 z m 1.7168,0.26733 c -0.97778,0 -1.27368,0.72437 -1.27368,1.54834 0,0.75293 0.33106,1.54834 1.27368,1.54834 0.84448,0 1.18945,-0.79541 1.18945,-1.54834 0,-0.75293 -0.34497,-1.54834 -1.18945,-1.54834 z"
   style="fill:#e5e5e5" />
			<path
   id="path198"
   inkscape:connector-curvature="0"
   d="m 52.94702,17.22844 c 0,1.0415 -0.60498,1.92114 -1.71753,1.92114 -1.11182,0 -1.7168,-0.87964 -1.7168,-1.92114 0,-1.0415 0.60498,-1.92188 1.7168,-1.92188 1.11255,1e-5 1.71753,0.88037 1.71753,1.92188 z m -2.99121,0 c 0,0.77417 0.42261,1.54834 1.27368,1.54834 0.85181,0 1.27441,-0.77417 1.27441,-1.54834 0,-0.77417 -0.42261,-1.54834 -1.27441,-1.54834 -0.85108,0 -1.27368,0.77417 -1.27368,1.54834 z"
   style="fill:#e5e5e5" />
			<path
   id="path200"
   inkscape:connector-curvature="0"
   d="m 53.24438,15.41277 h 0.47168 l 0.92871,3.11059 h 0.01391 l 0.88696,-3.11059 h 0.49952 l 0.88696,3.11059 h 0.01391 l 0.92944,-3.11059 h 0.47168 l -1.16821,3.63135 h -0.48633 l -0.89355,-3.0542 h -0.01391 l -0.88696,3.0542 h -0.4856 z"
   style="fill:#e5e5e5" />
			<path
   id="path202"
   inkscape:connector-curvature="0"
   d="m 59.08838,17.34783 c 0.0074,0.64746 0.34497,1.42895 1.19678,1.42895 0.64746,0 0.99902,-0.38013 1.13965,-0.92945 h 0.44385 c -0.19043,0.82397 -0.6687,1.30225 -1.5835,1.30225 -1.1543,0 -1.63989,-0.88696 -1.63989,-1.92114 0,-0.95728 0.4856,-1.92188 1.63989,-1.92188 1.16821,0 1.63257,1.021 1.59741,2.04126 h -2.79419 z m 2.35107,-0.37281 c -0.02124,-0.6687 -0.43652,-1.29492 -1.1543,-1.29492 -0.7251,0 -1.12646,0.63355 -1.19678,1.29492 z"
   style="fill:#e5e5e5" />
			<path
   id="path204"
   inkscape:connector-curvature="0"
   d="m 62.48315,15.41277 h 0.40797 v 0.85108 h 0.01391 c 0.22559,-0.58374 0.71777,-0.92871 1.37256,-0.90088 v 0.44385 c -0.80273,-0.04248 -1.35132,0.54859 -1.35132,1.30151 v 1.93579 h -0.44312 c 0,0 0,-3.63135 0,-3.63135 z"
   style="fill:#e5e5e5" />
			<path
   id="path206"
   inkscape:connector-curvature="0"
   d="m 64.83422,17.34783 c 0.0074,0.64746 0.34497,1.42895 1.19678,1.42895 0.64746,0 0.99902,-0.38013 1.13965,-0.92945 h 0.44385 c -0.19043,0.82397 -0.6687,1.30225 -1.5835,1.30225 -1.1543,0 -1.63989,-0.88696 -1.63989,-1.92114 0,-0.95728 0.4856,-1.92188 1.63989,-1.92188 1.16821,0 1.63257,1.021 1.59741,2.04126 h -2.79419 z m 2.35107,-0.37281 C 67.16405,16.30632 66.74877,15.6801 66.031,15.6801 c -0.7251,0 -1.12646,0.63355 -1.19678,1.29492 z"
   style="fill:#e5e5e5" />
			<path
   id="path208"
   inkscape:connector-curvature="0"
   d="m 71.42382,19.04411 h -0.40795 v -0.68994 h -0.01391 c -0.19043,0.47168 -0.76758,0.79541 -1.29492,0.79541 -1.10522,0 -1.6333,-0.89356 -1.6333,-1.92114 0,-1.02758 0.52808,-1.92187 1.6333,-1.92187 0.54126,0 1.06934,0.27466 1.25977,0.79541 h 0.01391 v -2.08301 h 0.44312 c -1e-5,0 -1e-5,5.02514 -2e-5,5.02514 z m -1.7168,-0.26733 c 0.94263,0 1.27368,-0.79541 1.27368,-1.54834 0,-0.75293 -0.33105,-1.54834 -1.27368,-1.54834 -0.84521,0 -1.18945,0.79541 -1.18945,1.54834 0,0.75293 0.34425,1.54834 1.18945,1.54834 z"
   style="fill:#e5e5e5" />
			<path
   id="path210"
   inkscape:connector-curvature="0"
   d="M 76.18603,15.41277 H 76.594 v 0.6123 h 0.02122 c 0.23218,-0.43652 0.6123,-0.71851 1.18945,-0.71851 0.47828,0 0.90747,0.23291 1.0415,0.71118 0.21827,-0.47827 0.67529,-0.71118 1.1543,-0.71118 0.79541,0 1.20337,0.41528 1.20337,1.27442 v 2.46313 h -0.44312 v -2.44189 c 0,-0.59839 -0.22559,-0.92212 -0.85913,-0.92212 -0.76685,0 -0.98511,0.63355 -0.98511,1.30884 v 2.05517 h -0.44312 v -2.46313 c 0.0067,-0.49292 -0.19703,-0.90088 -0.76025,-0.90088 -0.76758,0 -1.07666,0.57715 -1.08398,1.33667 v 2.02735 h -0.44312 c 1e-5,0 1e-5,-3.63135 0,-3.63135 z"
   style="fill:#e5e5e5" />
			<path
   id="path212"
   inkscape:connector-curvature="0"
   d="m 85.30247,17.22844 c 0,1.0415 -0.60498,1.92114 -1.71753,1.92114 -1.11182,0 -1.7168,-0.87964 -1.7168,-1.92114 0,-1.0415 0.60498,-1.92188 1.7168,-1.92188 1.11255,1e-5 1.71753,0.88037 1.71753,1.92188 z m -2.99121,0 c 0,0.77417 0.42261,1.54834 1.27368,1.54834 0.85181,0 1.27441,-0.77417 1.27441,-1.54834 0,-0.77417 -0.42261,-1.54834 -1.27441,-1.54834 -0.85107,0 -1.27368,0.77417 -1.27368,1.54834 z"
   style="fill:#e5e5e5" />
			<path
   id="path214"
   inkscape:connector-curvature="0"
   d="m 85.96605,15.41277 h 0.40797 v 0.85108 h 0.01395 c 0.22559,-0.58374 0.71777,-0.92871 1.37256,-0.90088 v 0.44385 c -0.80273,-0.04248 -1.35132,0.54859 -1.35132,1.30151 v 1.93579 H 85.9661 Z"
   style="fill:#e5e5e5" />
			<path
   id="path216"
   inkscape:connector-curvature="0"
   d="m 88.18382,15.41277 h 0.40797 v 0.68921 h 0.01395 c 0.20435,-0.49219 0.71118,-0.79541 1.29492,-0.79541 1.10522,0 1.63329,0.89428 1.63329,1.92187 0,1.02759 -0.52807,1.92114 -1.63329,1.92114 -0.54199,0 -1.06934,-0.27466 -1.25977,-0.79541 h -0.01395 v 2.03393 h -0.44312 c 2e-5,0 2e-5,-4.97533 0,-4.97533 z m 1.7168,0.26733 c -0.97778,0 -1.27368,0.72437 -1.27368,1.54834 0,0.75293 0.33105,1.54834 1.27368,1.54834 0.84448,0 1.18945,-0.79541 1.18945,-1.54834 0,-0.75293 -0.34497,-1.54834 -1.18945,-1.54834 z"
   style="fill:#e5e5e5" />
			<path
   id="path218"
   inkscape:connector-curvature="0"
   d="m 92.218,14.01897 h 0.44312 v 2.02002 h 0.01463 c 0.16187,-0.43652 0.64746,-0.73242 1.16089,-0.73242 1.02026,0 1.33008,0.5354 1.33008,1.40112 v 2.33642 H 94.7236 V 16.778 c 0,-0.62622 -0.20435,-1.0979 -0.92212,-1.0979 -0.70386,0 -1.12573,0.53467 -1.14038,1.24585 v 2.11816 h -0.44312 z"
   style="fill:#e5e5e5" />
			<path
   id="path220"
   inkscape:connector-curvature="0"
   d="m 96.01342,14.01897 h 0.44384 v 0.71045 h -0.44384 z m 0,1.3938 h 0.44384 v 3.63135 h -0.44384 z"
   style="fill:#e5e5e5" />
			<path
   id="path222"
   inkscape:connector-curvature="0"
   d="m 97.30247,15.41277 h 0.44312 v 0.62622 h 0.01463 c 0.16187,-0.43652 0.64746,-0.73242 1.16089,-0.73242 1.02026,0 1.33008,0.5354 1.33008,1.40112 v 2.33642 H 99.80807 V 16.778 c 0,-0.62622 -0.20435,-1.0979 -0.92212,-1.0979 -0.70386,0 -1.12573,0.53467 -1.14038,1.24585 v 2.11816 h -0.44312 z"
   style="fill:#e5e5e5" />
			<path
   id="path224"
   inkscape:connector-curvature="0"
   d="m 104.15941,18.74821 c -0.007,1.08398 -0.42188,1.7461 -1.61133,1.7461 -0.7251,0 -1.44287,-0.32373 -1.50659,-1.09863 h 0.44385 c 0.0981,0.5354 0.56982,0.7251 1.06274,0.7251 0.81592,0 1.16821,-0.4856 1.16821,-1.37256 v -0.49219 h -0.0139 c -0.20435,0.44312 -0.63354,0.74561 -1.1543,0.74561 -1.16162,0 -1.63989,-0.83056 -1.63989,-1.86475 0,-0.99976 0.59106,-1.83032 1.63989,-1.83032 0.52734,0 0.97778,0.33106 1.1543,0.73242 h 0.0139 v -0.62622 h 0.44312 z m -0.44312,-1.56225 c 0,-0.71045 -0.33105,-1.50586 -1.16821,-1.50586 -0.84448,0 -1.19678,0.75293 -1.19678,1.50586 0,0.73169 0.38013,1.44287 1.19678,1.44287 0.76685,0 1.16821,-0.70386 1.16821,-1.44287 z"
   style="fill:#e5e5e5" />
		</g>
	</g>
</g>
</svg>