<?xml version="1.0" encoding="UTF-8" standalone="no"?>
<!-- Generator: Adobe Illustrator 23.0.3, SVG Export Plug-In . SVG Version: 6.00 Build 0)  -->

<svg
   xmlns:dc="http://purl.org/dc/elements/1.1/"
   xmlns:cc="http://creativecommons.org/ns#"
   xmlns:rdf="http://www.w3.org/1999/02/22-rdf-syntax-ns#"
   xmlns:svg="http://www.w3.org/2000/svg"
   xmlns="http://www.w3.org/2000/svg"
   xmlns:sodipodi="http://sodipodi.sourceforge.net/DTD/sodipodi-0.dtd"
   xmlns:inkscape="http://www.inkscape.org/namespaces/inkscape"
   version="1.0"
   id="Layer_1"
   x="0px"
   y="0px"
   viewBox="0 0 211.2 485.66934"
   enable-background="new 0 0 165 380"
   xml:space="preserve"
   sodipodi:docname="Pulsars-DM.svg"
   width="55.880001mm"
   height="128.5mm"
   inkscape:version="0.92.3 (2405546, 2018-03-11)"><metadata
   id="metadata236"><rdf:RDF><cc:Work
       rdf:about=""><dc:format>image/svg+xml</dc:format><dc:type
         rdf:resource="http://purl.org/dc/dcmitype/StillImage" /><dc:title></dc:title></cc:Work></rdf:RDF></metadata><defs
   id="defs234" /><sodipodi:namedview
   pagecolor="#ffffff"
   bordercolor="#666666"
   borderopacity="1"
   objecttolerance="10"
   gridtolerance="10"
   guidetolerance="10"
   inkscape:pageopacity="0"
   inkscape:pageshadow="2"
   inkscape:window-width="1920"
   inkscape:window-height="1017"
   id="namedview232"
   showgrid="false"
   inkscape:document-units="mm"
   units="mm"
   fit-margin-top="0"
   fit-margin-left="0"
   fit-margin-right="0"
   fit-margin-bottom="0"
   inkscape:zoom="0.62105263"
   inkscape:cx="82.5"
   inkscape:cy="190.00001"
   inkscape:window-x="-8"
   inkscape:window-y="-8"
   inkscape:window-maximized="1"
   inkscape:current-layer="Layer_1" />
<g
   id="bg"
   transform="matrix(1.2799927,0,0,1.2799927,6.1144503e-4,-0.36393803)">
	
		<linearGradient
   id="SVGID_1_"
   gradientUnits="userSpaceOnUse"
   x1="-53.091171"
   y1="324.5668"
   x2="214.62535"
   y2="56.8503"
   gradientTransform="matrix(1,0,0,-1,0,379.88977)">
		<stop
   offset="0.38537"
   style="stop-color:#FFCC9E"
   id="stop2" />
		<stop
   offset="0.62112"
   style="stop-color:#F1AD8C"
   id="stop4" />
		<stop
   offset="0.85662"
   style="stop-color:#E6947E"
   id="stop6" />
		<stop
   offset="1"
   style="stop-color:#E28B79"
   id="stop8" />
	</linearGradient>
	<rect
   x="0.36390999"
   y="1.86786"
   width="160.80637"
   height="374.62668"
   id="rect11"
   style="fill:url(#SVGID_1_)" />
	<g
   id="g97">
		<path
   d="m 51.49609,9.4619 c 0,-0.14355 -0.09961,-0.34277 -0.23145,-0.34277 h -0.99512 v 0.69629 h 0.99512 c 0.13184,0 0.23145,-0.20996 0.23145,-0.35352 z"
   id="path13"
   inkscape:connector-curvature="0"
   style="fill:#252626" />
		<polygon
   points="107.05176,351.93359 106.28906,352.76172 107.03516,353.05859 "
   id="polygon15"
   style="fill:#252626" />
		<polygon
   points="29.93848,221.98926 30.69043,222.27246 30.68555,221.14648 "
   id="polygon17"
   style="fill:#252626" />
		<path
   d="m 49.05664,37.56835 c 0.78613,-0.12988 1.32227,-0.87598 1.19238,-1.66797 -0.13086,-0.79785 -0.87891,-1.33398 -1.66504,-1.20508 -0.78516,0.12891 -1.32129,0.87598 -1.18945,1.67383 0.12891,0.79297 0.87598,1.32813 1.66211,1.19922 z"
   id="path19"
   inkscape:connector-curvature="0"
   style="fill:#252626" />
		<path
   d="m 104.05469,349.76367 -0.60059,-0.43262 -0.36621,0.50684 0.59961,0.43359 c 0.13867,0.0986 0.32813,0.0635 0.42773,-0.0742 0.0996,-0.13671 0.0723,-0.33691 -0.0605,-0.43359 z"
   id="path21"
   inkscape:connector-curvature="0"
   style="fill:#252626" />
		<polygon
   points="92.16602,11.42772 92.90625,11.42772 92.54199,10.27929 "
   id="polygon23"
   style="fill:#252626" />
		<path
   d="m 110.47266,320.27148 c 0.0264,0.17285 0.19238,0.29004 0.36035,0.26367 l 0.75,-0.11621 -0.0967,-0.625 -0.75,0.11719 c -0.16797,0.0254 -0.29102,0.18555 -0.26367,0.36035 z"
   id="path25"
   inkscape:connector-curvature="0"
   style="fill:#252626" />
		<polygon
   points="107.85645,37.04882 108.61621,36.79589 107.9043,35.92675 "
   id="polygon27"
   style="fill:#252626" />
		<path
   d="m 103.69629,9.4619 c 0,-0.15527 -0.11035,-0.35352 -0.26465,-0.35352 h -1.0166 v 0.70703 h 1.0166 c 0.1543,10e-6 0.26465,-0.19921 0.26465,-0.35351 z"
   id="path29"
   inkscape:connector-curvature="0"
   style="fill:#252626" />
		<path
   d="m 51.77637,352.43945 c -0.7959,0.0283 -1.42383,0.70215 -1.39453,1.51074 0.02832,0.80176 0.70215,1.42969 1.49902,1.40039 0.7959,-0.0273 1.42285,-0.70215 1.39453,-1.50391 -0.0293,-0.80858 -0.70312,-1.43554 -1.49902,-1.40722 z"
   id="path31"
   inkscape:connector-curvature="0"
   style="fill:#252626" />
		<path
   d="m 11.13477,225.45605 -0.5127,0.55957 0.46582,0.42676 0.51172,-0.55957 c 0.11426,-0.12598 0.11035,-0.32715 -0.02051,-0.44629 -0.1289,-0.11816 -0.33008,-0.10644 -0.44433,0.0195 z"
   id="path33"
   inkscape:connector-curvature="0"
   style="fill:#252626" />
		<path
   d="m 67.81836,330.81738 c 0.73633,-0.31934 1.07422,-1.17578 0.75781,-1.90527 -0.31641,-0.73047 -1.17285,-1.06934 -1.9082,-0.75 -0.74121,0.32129 -1.0791,1.17676 -0.76367,1.90723 0.31738,0.73046 1.17187,1.06836 1.91406,0.74804 z"
   id="path35"
   inkscape:connector-curvature="0"
   style="fill:#252626" />
		<path
   d="m 20.78027,219.77148 c -0.77832,0.16406 -1.28125,0.93359 -1.11523,1.72461 0.16504,0.78418 0.93457,1.28711 1.71289,1.12305 0.7793,-0.16211 1.28125,-0.93262 1.11719,-1.7168 -0.16602,-0.79004 -0.93653,-1.29296 -1.71485,-1.13086 z"
   id="path37"
   inkscape:connector-curvature="0"
   style="fill:#252626" />
		<path
   d="m 110.89746,70.31347 0.75195,0.11133 0.0918,-0.625 -0.75,-0.11035 c -0.16895,-0.02539 -0.33301,0.09082 -0.35938,0.26563 -0.0254,0.1748 0.0986,0.33397 0.26563,0.35839 z"
   id="path39"
   inkscape:connector-curvature="0"
   style="fill:#252626" />
		<path
   d="m 7.30664,233.36816 c -0.16699,-0.0342 -0.33691,0.0742 -0.37012,0.23438 l -0.14746,0.72656 0.61426,0.125 0.14746,-0.72656 c 0.0332,-0.16699 -0.07715,-0.32617 -0.24414,-0.35938 z"
   id="path41"
   inkscape:connector-curvature="0"
   style="fill:#252626" />
		<path
   d="m 97.61816,331.32422 c 0.16699,0.0566 0.3457,-0.0361 0.40137,-0.19629 l 0.24707,-0.71777 -0.59668,-0.2041 -0.24805,0.71582 c -0.05468,0.16113 0.03028,0.34472 0.19629,0.40234 z"
   id="path43"
   inkscape:connector-curvature="0"
   style="fill:#252626" />
		<path
   d="m 62.84961,64.79296 c 0.54785,0.51758 1.42773,0.47949 1.96289,-0.08594 l 0.44238,-0.46875 -1.98828,-1.87891 -0.44238,0.46777 c -0.53516,0.56641 -0.52344,1.44825 0.02539,1.96583 z"
   id="path45"
   inkscape:connector-curvature="0"
   style="fill:#252626" />
		<polygon
   points="136.9375,167.86621 136.15234,167.69824 136.32422,168.81152 "
   id="polygon47"
   style="fill:#252626" />
		<path
   d="m 155.02148,161.65039 0.42285,-0.62988 -0.52441,-0.35254 -0.42285,0.62988 c -0.0947,0.14063 -0.0596,0.33887 0.0859,0.4375 0.14551,0.0986 0.34277,0.0557 0.43847,-0.085 z"
   id="path49"
   inkscape:connector-curvature="0"
   style="fill:#252626" />
		<path
   d="m 146.32324,168.70117 c 0.74609,-0.27637 1.12891,-1.1123 0.84766,-1.86914 -0.2793,-0.75195 -1.11426,-1.13477 -1.86035,-0.85742 -0.74609,0.27637 -1.12891,1.1123 -0.84961,1.86328 0.28222,0.75781 1.11621,1.13965 1.8623,0.86328 z"
   id="path51"
   inkscape:connector-curvature="0"
   style="fill:#252626" />
		<path
   d="m 157.34082,152.96289 c -0.009,0.16992 0.12402,0.31055 0.29492,0.31836 0.16895,0.009 0.32227,-0.12305 0.33105,-0.28711 l 0.0371,-0.73926 -0.625,-0.0332 z"
   id="path53"
   inkscape:connector-curvature="0"
   style="fill:#252626" />
		<path
   d="m 96.54785,57.71874 c -0.16797,0.05469 -0.25684,0.2373 -0.2041,0.39941 l 0.23242,0.72363 0.60156,-0.19434 -0.23145,-0.72363 c -0.05273,-0.1621 -0.23046,-0.2578 -0.39843,-0.20507 z"
   id="path55"
   inkscape:connector-curvature="0"
   style="fill:#252626" />
		<path
   d="m 103.96484,37.20116 -0.62207,0.4043 0.34082,0.52539 0.62109,-0.4043 c 0.14355,-0.0918 0.17969,-0.28223 0.0869,-0.4248 -0.0928,-0.14356 -0.28905,-0.18946 -0.42675,-0.10059 z"
   id="path57"
   inkscape:connector-curvature="0"
   style="fill:#252626" />
		<path
   d="m 61.36523,322.14746 c -0.47461,0.58594 -0.36914,1.46191 0.23633,1.95117 l 0.50098,0.40527 1.7207,-2.12695 -0.50098,-0.40625 c -0.60449,-0.48828 -1.48339,-0.40918 -1.95703,0.17676 z"
   id="path59"
   inkscape:connector-curvature="0"
   style="fill:#252626" />
		<path
   d="m 67.22266,58.32616 c 0.78027,0.20996 1.57813,-0.24805 1.78516,-1.01758 0.20801,-0.76855 -0.25,-1.56738 -1.03125,-1.77734 -0.77441,-0.20898 -1.57227,0.25 -1.7793,1.01758 -0.20801,0.76953 0.25,1.56738 1.02539,1.77734 z"
   id="path61"
   inkscape:connector-curvature="0"
   style="fill:#252626" />
		<path
   d="m 113.65399,261.55823 c 0,-7.10272 4.98279,-13.03296 11.64099,-14.50983 -0.66565,-1.95758 -1.45941,-3.85522 -2.3761,-5.68256 -2.18958,1.26874 -4.72485,2.00677 -7.43756,2.00677 -8.21368,0 -14.87219,-6.65851 -14.87219,-14.87213 0,-2.70081 0.73108,-5.22601 1.98944,-7.40906 -1.8205,-0.90796 -3.71088,-1.69305 -5.65991,-2.35211 -1.48065,6.65308 -7.4082,11.63092 -14.50726,11.63092 -7.08368,0 -12.99957,-4.95679 -14.49634,-11.58813 -1.9209,0.65594 -3.78412,1.43488 -5.57947,2.33282 1.24976,2.17755 1.97491,4.69434 1.97491,7.38507 0,8.21368 -6.65851,14.87219 -14.87219,14.87219 -2.69336,0 -5.21234,-0.72668 -7.39136,-1.9787 -0.91083,1.81879 -1.69965,3.70721 -2.36194,5.65485 6.6582,1.47681 11.64099,7.40717 11.64099,14.50989 0,7.10278 -4.98291,13.03314 -11.64117,14.50995 0.65369,1.92236 1.42981,3.78741 2.32574,5.58441 2.19684,-1.28033 4.74335,-2.02612 7.46942,-2.02612 8.21368,0 14.87219,6.65845 14.87219,14.87213 0,2.73517 -0.7511,5.28943 -2.03937,7.49121 1.81958,0.91132 3.70886,1.70056 5.65741,2.36304 1.47699,-6.65796 7.40717,-11.64063 14.50977,-11.64063 7.1026,0 13.03284,4.98267 14.50983,11.64063 1.94159,-0.66016 3.8244,-1.44586 5.63794,-2.35309 -1.29193,-2.20404 -2.04541,-4.76184 -2.04541,-7.50116 0,-8.21368 6.65851,-14.87213 14.87219,-14.87213 2.73419,0 5.28754,0.75049 7.48883,2.0379 0.89844,-1.8006 1.6767,-3.66956 2.33179,-5.59619 -6.65826,-1.4768 -11.64117,-7.40716 -11.64117,-14.50994 z"
   id="path63"
   inkscape:connector-curvature="0"
   style="fill:#252626" />
		<path
   d="m 7.3559,151.75977 c -0.1582,-0.04 -0.32129,0.0547 -0.375,0.21582 l -0.19922,0.7627 0.59375,0.15527 0.19727,-0.7627 c 0.04296,-0.16504 -0.0586,-0.32813 -0.2168,-0.37109 z"
   id="path65"
   inkscape:connector-curvature="0"
   style="fill:#252626" />
		<path
   d="m 14.79926,195.31152 c 0.16992,-0.0479 0.26563,-0.22559 0.21875,-0.38965 l -0.20703,-0.73242 -0.6084,0.17188 0.20605,0.73145 c 0.04688,0.16308 0.2207,0.2666 0.39063,0.21874 z"
   id="path67"
   inkscape:connector-curvature="0"
   style="fill:#252626" />
		<path
   d="m 149.56,187.25781 c -0.44922,-0.65723 -1.35254,-0.82813 -2.02051,-0.37109 -0.66211,0.45313 -0.83203,1.35547 -0.38281,2.01367 0.44922,0.65723 1.35352,0.82813 2.01563,0.375 0.66796,-0.45605 0.83788,-1.35937 0.38769,-2.01758 z"
   id="path69"
   inkscape:connector-curvature="0"
   style="fill:#252626" />
		<polygon
   points="138.3559,181.48828 139.13324,181.69141 139.01019,180.57227 "
   id="polygon71"
   style="fill:#252626" />
		<path
   d="m 124.85004,182.75293 c -0.0977,-0.14551 -0.29688,-0.17871 -0.4375,-0.084 l -0.62695,0.42578 0.35156,0.52246 0.62891,-0.42578 c 0.14062,-0.0947 0.18359,-0.29297 0.084,-0.43848 z"
   id="path73"
   inkscape:connector-curvature="0"
   style="fill:#252626" />
		<path
   d="m 34.89301,209.05664 c 0.77539,-0.18359 1.25879,-0.96484 1.07422,-1.74609 -0.18555,-0.78711 -0.96777,-1.26953 -1.74219,-1.08594 -0.77539,0.18164 -1.25977,0.96484 -1.07324,1.75195 0.18359,0.78028 0.96777,1.26367 1.74121,1.08008 z"
   id="path75"
   inkscape:connector-curvature="0"
   style="fill:#252626" />
		<polygon
   points="139.26312,246.26953 140.00043,246.58203 140.04047,245.45898 "
   id="polygon77"
   style="fill:#252626" />
		<path
   d="m 9.21332,151.58496 c -0.34082,-0.0889 -0.70215,0.11816 -0.79688,0.45801 l -0.27246,1.0498 1.28027,0.33301 0.27148,-1.04492 c 0.07813,-0.34961 -0.13671,-0.70606 -0.48241,-0.7959 z"
   id="path79"
   inkscape:connector-curvature="0"
   style="fill:#252626" />
		<path
   d="m 157.68402,239.15039 c -0.31836,-0.14941 -0.71191,-0.0107 -0.86621,0.30566 l -0.45996,0.98535 1.20117,0.56055 0.45605,-0.98047 c 0.14063,-0.3291 -0.006,-0.71972 -0.33105,-0.87109 z"
   id="path81"
   inkscape:connector-curvature="0"
   style="fill:#252626" />
		<polygon
   points="22.19379,206.23145 22.90472,206.59961 23.03168,205.4834 "
   id="polygon83"
   style="fill:#252626" />
		<path
   d="m 0,-1e-5 v 380 h 165 v -380 z m 156.70508,156.52247 -0.53223,1.69141 -0.77051,-0.24219 0.53223,-1.69238 -1.22852,-0.38672 -0.59473,1.88867 -0.76465,-0.23926 0.83789,-2.66602 4.12695,1.29688 -0.85547,2.71875 -0.75293,-0.23633 0.61133,-1.94141 z m 0.88867,-2.42676 c -0.61328,-0.0322 -1.0791,-0.56055 -1.04785,-1.17383 l 0.0381,-0.74023 -2.10645,-0.1084 0.042,-0.80664 4.32129,0.22168 -0.0791,1.54688 c -0.0156,0.29785 -0.14453,0.57129 -0.36816,0.77344 -0.22266,0.19531 -0.50293,0.30175 -0.79981,0.2871 z m 0.55469,-7.37304 -2.63867,0.59375 c -0.47363,0.10742 -0.77832,0.58105 -0.67285,1.0498 0.10742,0.47363 0.58398,0.76563 1.05762,0.6582 l 2.63867,-0.59375 0.17871,0.79297 -2.63867,0.59473 c -0.43848,0.0996 -0.8916,0.0205 -1.27051,-0.21777 -0.37891,-0.24512 -0.64453,-0.62109 -0.74316,-1.05957 -0.2041,-0.90723 0.36523,-1.80859 1.27344,-2.0127 l 2.6377,-0.59473 z m -5.72168,-3.78223 0.0332,-0.15137 0.79199,0.16895 -0.0332,0.15137 c -0.0752,0.36328 -0.0674,0.71387 0.0283,1.00781 l 0.003,0.006 c 0.0283,0.0879 0.0625,0.17383 0.10742,0.25293 0.0742,0.13281 0.16895,0.24023 0.27441,0.31445 0.12402,0.0967 0.32422,0.17969 0.54102,0.0586 0.11621,-0.0654 0.17383,-0.1748 0.18066,-0.33789 0.006,-0.19824 -0.0596,-0.42773 -0.11328,-0.58496 -0.0254,-0.0703 -0.21582,-0.67383 -0.21875,-1 0.009,-0.22168 0.0644,-0.41992 0.16309,-0.59375 0.10254,-0.17578 0.24902,-0.3125 0.43457,-0.41797 0.20117,-0.1123 0.43848,-0.16113 0.69141,-0.14453 0.21973,0.0312 0.43652,0.11914 0.63379,0.25977 0.19727,0.14063 0.36328,0.3252 0.49219,0.55371 0.0498,0.0898 0.0937,0.19141 0.13574,0.29297 0.13379,0.38477 0.16699,0.81836 0.082,1.26465 l -0.0283,0.14746 -0.79883,-0.14453 0.0283,-0.14746 c 0.0879,-0.50293 -0.0156,-0.83594 -0.12207,-1.02734 -0.0684,-0.12109 -0.1582,-0.21777 -0.25293,-0.29004 -0.15332,-0.10938 -0.33301,-0.13281 -0.46094,-0.0615 -0.11719,0.0644 -0.16602,0.15039 -0.17969,0.28906 -0.0127,0.13867 0.0205,0.32227 0.10449,0.5957 0.0127,0.0352 0.0254,0.083 0.0391,0.13184 0.083,0.24609 0.18555,0.5791 0.17969,0.85449 0.005,0.23438 -0.0498,0.44629 -0.15039,0.62793 -0.0996,0.18164 -0.25293,0.33105 -0.44434,0.4375 -0.23926,0.13379 -0.48633,0.18848 -0.7373,0.16309 -0.21777,-0.0244 -0.44238,-0.11523 -0.66992,-0.27246 -0.19922,-0.13281 -0.3584,-0.31641 -0.50391,-0.5752 -0.0684,-0.12207 -0.12305,-0.25879 -0.17188,-0.40527 -0.14061,-0.43849 -0.16307,-0.92677 -0.0586,-1.42384 z m -7.39551,22.28223 c 1.16699,-0.43359 2.46973,0.15918 2.90332,1.3252 0.43457,1.17285 -0.16309,2.47754 -1.33008,2.91113 -1.17285,0.43457 -2.47656,-0.16211 -2.91211,-1.33594 -0.43359,-1.167 0.16602,-2.46582 1.33887,-2.90039 z m 1.46136,24.13086 c -0.70215,-1.02832 -0.44141,-2.43652 0.58594,-3.14063 1.03516,-0.70508 2.44727,-0.44043 3.15039,0.58984 0.70605,1.0332 0.44141,2.44336 -0.59375,3.15039 -1.02832,0.70313 -2.43554,0.4336 -3.14258,-0.5996 z m 1.89258,25.66992 c 0.16992,0.4209 -0.0293,0.90039 -0.4502,1.08008 -0.0996,0.04 -0.20996,0.0606 -0.31934,0.0606 -0.32031,0 -0.62988,-0.19043 -0.77051,-0.50977 -0.16992,-0.4209 0.0303,-0.90039 0.4502,-1.08008 0.41993,-0.18067 0.91017,0.0195 1.08985,0.44922 z m -9.72461,31.86133 -0.86719,0.89844 -0.7998,-0.33789 3.21387,-3.33301 0.67676,0.28613 -0.14551,4.62988 -0.80469,-0.33984 0.0449,-1.24609 z m -2.96722,-76.87207 -0.72754,-4.58496 0.85645,0.18359 0.18945,1.23535 1.40332,0.30078 0.68457,-1.04688 0.85059,0.18262 -2.53809,3.88379 z m 3.28949,9.20019 0.71094,0.1875 0.52539,4.61133 -0.84766,-0.22266 -0.13477,-1.24121 -1.38867,-0.36328 -0.73047,1.0166 -0.8418,-0.21973 z m -3,-0.51758 0.004,0.80273 -1.0625,0.007 0.0225,3.52246 -0.81543,0.005 -0.0215,-3.52246 -1.0625,0.008 -0.006,-0.80273 z m -2.58887,45.47949 1.94238,1.87988 c 0.34961,0.33789 0.91309,0.33398 1.24609,-0.0117 0.33789,-0.34961 0.31934,-0.90723 -0.0293,-1.24609 l -1.94238,-1.87891 0.56738,-0.58594 1.94141,1.88086 c 0.32324,0.3125 0.50684,0.73438 0.5127,1.18164 0.003,0.45117 -0.16504,0.87891 -0.47852,1.20215 -0.64648,0.66797 -1.71094,0.68457 -2.37891,0.0381 l -1.94336,-1.87891 z m 4.99317,-2.13964 1.17676,2.58203 -0.74023,0.33691 -1.79395,-3.93555 0.71777,-0.32715 2.91602,1.78223 -1.17383,-2.5752 0.74023,-0.33789 1.79395,3.93555 -0.71387,0.32422 z m 3.55859,-37.01075 -0.71582,-0.39258 1.7002,-3.08887 -0.93262,-0.5127 0.3877,-0.70215 2.57617,1.41797 -0.38574,0.70215 -0.93262,-0.5127 z m 0.5293,21.71973 c 0.37012,-0.28027 0.88086,-0.20996 1.1709,0.14941 0.2793,0.36035 0.20996,0.87988 -0.15039,1.16016 -0.15039,0.12012 -0.33008,0.17969 -0.50977,0.17969 -0.25,0 -0.49023,-0.10938 -0.65039,-0.3291 -0.28028,-0.36035 -0.21973,-0.88086 0.13965,-1.16016 z m 0.83496,12.26367 0.57227,4.28711 -0.80664,0.10742 -0.57324,-4.28711 z m 0.48437,-32.69824 2.83398,-3.27246 0.61621,0.5332 -2.83398,3.27148 z m -1.768,-15.87891 -1.29395,-2.96387 -1.03027,3.06836 -0.86719,0.0391 1.46875,-4.39551 0.73438,-0.0332 1.8623,4.24609 z m -1.11231,-99.66407 c -0.16211,0.16113 -0.37402,0.24219 -0.58594,0.24219 -0.21192,0 -0.42383,-0.08105 -0.58594,-0.24219 -4.02832,-4.03027 -8.49512,-7.64063 -13.27637,-10.7334 -0.38379,-0.24805 -0.49414,-0.76074 -0.24512,-1.14551 0.24902,-0.38477 0.76074,-0.49219 1.14551,-0.24512 4.87793,3.15527 9.43652,6.83984 13.54785,10.95215 0.32325,0.32424 0.32325,0.84864 1e-5,1.17188 z m -15.14605,115.25392 -0.6543,0.44434 -2.42578,-3.58008 1.28125,-0.86914 c 0.24023,-0.16406 0.53125,-0.22266 0.82617,-0.16504 0.29688,0.0566 0.54492,0.21777 0.70898,0.45898 0.24219,0.35645 0.25,0.82129 0.041,1.18457 l 2.57616,0.92969 -0.79492,0.54004 -2.45898,-0.8877 -0.28613,0.19434 z m -42.74744,-11.6792 v -1.65625 c 24.68188,-0.28131 44.67767,-20.43774 44.67767,-45.18507 0,-24.92188 -20.27637,-45.19824 -45.19824,-45.19824 -24.92187,0 -45.19824,20.27637 -45.19824,45.19824 0,24.74732 19.99573,44.90376 44.67773,45.18507 v 1.65625 C 56.38348,174.05994 35.64551,153.16138 35.64551,127.49999 35.64551,101.66405 56.66406,80.6455 82.5,80.6455 c 25.83594,0 46.85449,21.01855 46.85449,46.85449 0,25.66139 -20.73797,46.55989 -46.33392,46.84132 z m 37.37537,19.88232 c -0.0508,0.41992 -0.41016,0.73047 -0.82031,0.73047 -0.04,0 -0.0703,0 -0.10059,0 -0.45996,-0.0606 -0.7793,-0.4707 -0.72949,-0.91992 0.0596,-0.45996 0.46973,-0.78027 0.91992,-0.73047 0.45996,0.0606 0.78027,0.46973 0.73047,0.91992 z m -4.59083,-0.34961 c 0,0.45996 -0.37012,0.83008 -0.81934,0.83984 h -0.0107 c -0.44922,0 -0.81934,-0.36035 -0.8291,-0.82031 -0.0107,-0.45996 0.35938,-0.83008 0.81934,-0.83008 v -0.01 c 0.45996,1e-5 0.83008,0.36036 0.83984,0.82032 z m -13.92968,3.63965 c -0.11035,0.04 -0.21973,0.0703 -0.33008,0.0703 -0.32031,0 -0.62988,-0.19043 -0.75977,-0.5 -0.17969,-0.41992 0.01,-0.91016 0.42969,-1.08984 0.41992,-0.19043 0.91016,0.01 1.08984,0.42969 0.18067,0.41992 -0.01,0.90039 -0.42968,1.08984 z m -4,2.04981 c -0.12988,0.0801 -0.28027,0.12012 -0.41992,0.12012 -0.28027,0 -0.55957,-0.13965 -0.70996,-0.39941 -0.24023,-0.39063 -0.11035,-0.90039 0.28027,-1.14063 0.38965,-0.22949 0.89941,-0.0996 1.13965,0.29004 0.23047,0.39062 0.09961,0.90038 -0.29004,1.12988 z m -3.69043,2.57031 c -0.14941,0.12012 -0.3291,0.17969 -0.50977,0.17969 -0.25,0 -0.49023,-0.0996 -0.64941,-0.30957 -0.29004,-0.36035 -0.23047,-0.87988 0.12988,-1.16016 0.35938,-0.29004 0.87988,-0.22949 1.16992,0.12988 0.28028,0.35059 0.21973,0.87989 -0.14062,1.16016 z M 82.5,142.37219 c -8.21368,0 -14.87213,-6.65851 -14.87213,-14.87214 0,-8.21368 6.65845,-14.87219 14.87213,-14.87219 8.21368,0 14.87219,6.65851 14.87219,14.87219 0,8.21363 -6.65851,14.87214 -14.87219,14.87214 z m -7.29156,42.72156 c -0.31055,0.33008 -0.83984,0.33984 -1.16992,0.0195 -0.33008,-0.31934 -0.33984,-0.83984 -0.02051,-1.16992 0.16016,-0.16992 0.37988,-0.25 0.60059,-0.25 0.19922,0 0.40918,0.0703 0.56934,0.23047 0.33007,0.31933 0.33983,0.83984 0.0205,1.16992 z m -3.48047,3.16992 c -0.35938,0.29004 -0.87988,0.22949 -1.16992,-0.12988 -0.28027,-0.35059 -0.21973,-0.87988 0.14063,-1.16016 0.14941,-0.12012 0.3291,-0.17969 0.50977,-0.17969 0.25,0 0.49023,0.0996 0.64941,0.30957 0.29003,0.36036 0.23046,0.87989 -0.12989,1.16016 z m -3.87012,2.7002 c -0.38965,0.22949 -0.89941,0.0996 -1.13965,-0.29004 -0.23047,-0.39063 -0.09961,-0.90039 0.29004,-1.12988 0.12988,-0.0801 0.28027,-0.12012 0.41992,-0.12012 0.28027,0 0.55957,0.13965 0.70996,0.39941 0.24024,0.39063 0.11035,0.90039 -0.28027,1.14063 z m -4.18945,2.14941 c -0.41992,0.19043 -0.91016,-0.01 -1.08984,-0.42969 -0.18066,-0.41992 0.0098,-0.90039 0.42969,-1.08984 0.11035,-0.04 0.21973,-0.0703 0.33008,-0.0703 0.32031,0 0.62988,0.19043 0.75977,0.5 0.17967,0.41992 -0.0098,0.91015 -0.4297,1.08984 z m -12.93067,2.10059 c 0.01074,0.45996 -0.35938,0.83008 -0.81934,0.83008 v 0.01 c -0.45996,0 -0.83008,-0.36035 -0.83984,-0.82031 0,-0.45996 0.37012,-0.83008 0.81934,-0.83984 h 0.01074 c 0.44922,-2e-5 0.81934,0.36034 0.8291,0.8203 z m -4.59961,-0.14063 c -0.05957,0.45996 -0.46973,0.78027 -0.91992,0.73047 -0.45996,-0.0606 -0.78027,-0.46973 -0.73047,-0.91992 0.05078,-0.41992 0.41016,-0.73047 0.82031,-0.73047 0.04004,0 0.07031,0 0.10059,0 0.45996,0.0605 0.7793,0.4707 0.72949,0.91992 z m -5.99218,12.76074 -0.69141,0.42871 -2.28223,-3.67578 0.67188,-0.41699 3.11914,1.39648 -1.49414,-2.40625 0.69141,-0.42969 2.2832,3.67578 -0.66699,0.41406 -3.12695,-1.39844 z m -12.39258,-43.7539 0.67383,-0.45313 2.41113,3.58398 -0.64941,0.4375 -3.17188,-1.28125 1.58203,2.35059 -0.6748,0.4541 -2.41113,-3.58398 0.6543,-0.44141 3.16309,1.28027 z m 2.9414,41.90332 -0.06836,4.32422 -0.81445,-0.0127 0.06836,-4.32422 z m -2.11328,-0.0615 -0.17871,0.78125 -1.03613,-0.23633 -0.78613,3.4375 -0.79297,-0.18262 0.78516,-3.43555 -1.03809,-0.2373 0.17969,-0.78125 z m -2.45648,15.89843 1.47363,-2.88086 0.86426,0.0889 -2.10352,4.12988 -0.73047,-0.0762 -1.21387,-4.47559 0.86914,0.0908 z m 4.67383,-2.02832 0.68848,0.25879 0.03906,4.6416 -0.81934,-0.30859 -0.0039,-1.24902 -1.34375,-0.50586 -0.83203,0.93359 -0.81445,-0.30664 z m -1.74567,-57.02051 0.51074,-0.63281 3.36328,2.7207 -0.5127,0.63281 z m 4.98535,42.66602 c 1.21875,-0.28906 2.43945,0.46484 2.72656,1.68359 0.28809,1.21289 -0.46875,2.42871 -1.68652,2.7168 -1.21289,0.28613 -2.43359,-0.46289 -2.71973,-1.6748 -0.28808,-1.21778 0.4668,-2.43848 1.67969,-2.72559 z m 36.30133,-152.59669 0.04004,0.86621 -4.39355,-1.45703 -0.03516,-0.73242 4.23828,-1.87109 0.04004,0.87305 -2.95703,1.2998 z m -2.15039,1.90332 c 1.20898,0.32715 1.92383,1.57227 1.59961,2.77539 -0.32617,1.20898 -1.57129,1.9248 -2.78027,1.59863 -1.20313,-0.32422 -1.91309,-1.56934 -1.58691,-2.77734 0.32519,-1.20312 1.56445,-1.91992 2.76757,-1.59668 z m -0.13574,6.76563 -0.40137,0.70801 -3.76172,-2.13574 0.40234,-0.70801 z m -1.66406,2.68847 -0.99805,1.05664 c -0.83984,0.8877 -2.23145,0.94434 -3.09766,0.12598 -0.86621,-0.81836 -0.88867,-2.21191 -0.04883,-3.09961 l 0.99805,-1.05566 z m 29.13476,-10.5498 c 0.08496,0.16602 0.23535,0.26953 0.38184,0.26367 0.13281,-0.0059 0.2168,-0.05762 0.29004,-0.17578 0.0752,-0.11816 0.12891,-0.29688 0.17773,-0.5791 0.0049,-0.03613 0.01465,-0.08594 0.02539,-0.13477 0.03809,-0.25684 0.09766,-0.59961 0.22754,-0.84277 0.10059,-0.21094 0.24707,-0.375 0.41895,-0.49121 0.1709,-0.11621 0.37598,-0.17871 0.59375,-0.18848 0.27344,-0.01074 0.52051,0.05273 0.73242,0.18945 0.18066,0.12012 0.33984,0.30371 0.47168,0.54785 0.11816,0.20703 0.17578,0.44336 0.18848,0.74023 0.0049,0.14063 -0.0068,0.28613 -0.03223,0.43945 -0.07227,0.45313 -0.27344,0.89844 -0.59277,1.29492 l -0.09863,0.11914 -0.62793,-0.50879 0.09863,-0.12012 c 0.23145,-0.29004 0.38379,-0.60547 0.43164,-0.91211 v -0.0059 c 0.01367,-0.0918 0.02246,-0.18359 0.01855,-0.27441 -0.0049,-0.15137 -0.04199,-0.29004 -0.10059,-0.40332 -0.06641,-0.14258 -0.20801,-0.30859 -0.45605,-0.29883 -0.13477,0.0059 -0.23535,0.07715 -0.31445,0.21973 -0.0957,0.17383 -0.1416,0.40723 -0.16504,0.57324 -0.0098,0.07324 -0.1123,0.69727 -0.25879,0.98926 -0.1084,0.19238 -0.24805,0.34375 -0.41406,0.4541 -0.17188,0.11133 -0.36328,0.16699 -0.57617,0.17578 -0.23145,0.0088 -0.46484,-0.05469 -0.68359,-0.18555 -0.18164,-0.12695 -0.33496,-0.30371 -0.44629,-0.5166 -0.11133,-0.21484 -0.17578,-0.45605 -0.1875,-0.7168 -0.0029,-0.10449 0.0039,-0.21387 0.0127,-0.32324 0.05566,-0.4043 0.22266,-0.80566 0.50098,-1.16406 l 0.0918,-0.11914 0.64551,0.49023 -0.0918,0.12109 c -0.30664,0.40625 -0.36426,0.75 -0.35645,0.96875 0.0059,0.13967 0.041,0.26565 0.09471,0.37405 z m 2.40625,4.75683 2.01563,-0.64648 0.24219,0.75195 -4.12305,1.3252 -0.47363,-1.47559 c -0.08984,-0.27832 -0.06348,-0.5752 0.07324,-0.84277 0.13867,-0.2666 0.36328,-0.45996 0.64063,-0.5498 0.41113,-0.13281 0.86035,-0.0088 1.14941,0.29395 l 1.62012,-2.21289 0.29297,0.91406 -1.54297,2.11328 z m 7.33301,-17.83691 -0.67773,0.43945 -2.35547,-3.63086 1.30078,-0.84375 c 0.25,-0.16211 0.54785,-0.2168 0.8418,-0.1543 0.28906,0.06641 0.54004,0.22949 0.70215,0.47949 0.33398,0.51465 0.17871,1.20313 -0.33691,1.53711 l -0.62207,0.40332 z m 0.11719,27.36817 0.31641,-0.74414 1.63379,0.69727 0.50586,-1.18555 -1.82324,-0.77832 0.31445,-0.73926 2.57324,1.09863 -1.69922,3.98242 -2.62305,-1.11914 0.30957,-0.72754 1.87305,0.7998 0.25195,-0.58691 z m -0.94727,-4.12501 -1.50879,4.37891 -0.66699,-0.5625 1.05762,-3.05273 -2.83594,1.55469 -0.66309,-0.55957 4.05566,-2.23145 z m -5.79589,0.30664 -1.6084,-2.34766 0.65039,-0.44629 1.14941,1.67773 0.52441,-0.36035 -1.00098,-1.46191 0.66602,-0.45605 1.00195,1.46191 1.06152,-0.72559 -1.11719,-1.63281 0.66016,-0.45214 1.57715,2.30176 z M 113.36035,37.3037 c 0.46094,-0.0068 0.88379,-0.22754 1.15625,-0.60254 l 0.0898,-0.11816 0.65234,0.46387 -0.0957,0.12305 c -0.20801,0.28906 -0.47168,0.51855 -0.78516,0.68262 -0.30664,0.16406 -0.65234,0.24902 -1.00488,0.25391 -0.30371,0.0059 -0.60352,-0.0498 -0.88477,-0.16016 -0.26953,-0.1123 -0.51563,-0.27148 -0.72656,-0.47461 -0.21582,-0.20313 -0.38281,-0.44336 -0.49707,-0.71582 -0.12695,-0.27734 -0.19238,-0.56836 -0.19824,-0.87793 -0.0205,-1.24707 0.98242,-2.2793 2.22949,-2.30176 0.35352,-0.0059 0.70703,0.07324 1.02051,0.22656 0.3125,0.14746 0.5957,0.37891 0.80664,0.65527 l 0.10059,0.12109 -0.64355,0.49121 -0.0928,-0.12012 c -0.28027,-0.36719 -0.70898,-0.57227 -1.17773,-0.56445 -0.80273,0.01367 -1.44824,0.6748 -1.43457,1.47852 0.0137,0.80762 0.68163,1.4541 1.48534,1.43945 z m -1.8457,31.66504 0.3418,0.05078 0.30859,-2.09082 0.78125,0.11523 -0.63086,4.27637 -1.5332,-0.22559 c -0.28809,-0.04297 -0.54199,-0.19629 -0.7207,-0.43848 -0.17871,-0.24121 -0.25293,-0.52832 -0.21094,-0.81641 0.0635,-0.42676 0.37305,-0.77344 0.77148,-0.89941 l -1.26758,-2.42676 0.94824,0.13965 z m 16.01898,113.28419 c -0.36914,-1.19629 0.30078,-2.46387 1.49023,-2.83301 1.19531,-0.36914 2.46484,0.30078 2.83398,1.49707 0.36719,1.19043 -0.30371,2.4541 -1.5,2.82324 -1.1914,0.36719 -2.45702,-0.29687 -2.82421,-1.4873 z m 4.44293,-133.20997 -0.76172,0.20898 -0.53906,-1.96191 -0.61523,0.16797 0.4707,1.71094 -0.7793,0.21387 -0.46973,-1.70996 -1.24219,0.3418 0.52539,1.91016 -0.77344,0.21191 -0.74121,-2.69531 4.16992,-1.14648 z m -3.26758,-7.56348 -0.7373,1.85156 1.98827,0.13281 0.4082,0.64746 -3.66016,2.30762 -0.43066,-0.68359 2.4463,-1.54199 -1.9082,-0.13379 0.70703,-1.77344 -2.44824,1.54102 -0.43066,-0.68262 3.66016,-2.30859 z m -2.13281,-2.41113 -2.95703,3.15234 -0.59277,-0.55762 2.95703,-3.15039 z m -5.1582,-2.75879 0.41211,-0.68848 2.52246,1.50977 -0.41113,0.68848 -0.91211,-0.5459 -1.80859,3.02441 -0.7002,-0.41797 1.80957,-3.02441 z m -1.30078,-1.44531 -0.21484,0.75879 -1.95801,-0.55273 -0.17188,0.61426 1.70508,0.48145 -0.21875,0.77637 -1.70605,-0.48047 -0.34961,1.23828 1.90527,0.53809 -0.21777,0.77051 -2.6875,-0.75781 1.17383,-4.16016 z m -6.09278,-22.81738 c -0.2207,-0.04492 -1.30273,-0.27637 -1.74512,-0.54199 -0.75098,-0.44141 -1.1377,-1.11523 -1.1377,-1.95508 0,-0.46387 0.1543,-0.90527 0.4082,-1.28125 0.25488,-0.35352 0.6084,-0.62988 1.0166,-0.81738 l -0.0107,0.01074 c 0.41992,-0.19922 0.89453,-0.29785 1.34766,-0.29785 0.1875,0 0.36426,0.01074 0.58594,0.04395 0.70703,0.12109 1.3584,0.4082 2.26465,1.16016 l -1.21582,1.45801 c -0.81738,-0.67383 -1.2373,-0.77344 -1.65723,-0.77344 -0.20996,0 -0.375,0.04395 -0.50781,0.11035 -0.20996,0.08887 -0.32031,0.24316 -0.32031,0.38672 0,0.29883 0.39746,0.44238 1.03809,0.57422 0.0664,0.02246 0.14355,0.02246 0.22168,0.04492 0.43066,0.09863 1.07129,0.23145 1.49121,0.47461 h -0.0117 c 0.7959,0.44238 1.21582,1.1377 1.21582,2 0,0.50781 -0.13281,0.98242 -0.41992,1.38086 -0.25391,0.36426 -0.62988,0.62988 -1.0498,0.83887 -0.44141,0.23242 -0.89453,0.29883 -1.3916,0.29883 -0.26563,0 -0.55273,-0.0332 -0.7959,-0.08887 -0.79492,-0.16504 -1.52441,-0.53027 -2.46289,-1.33594 l 1.25879,-1.44727 c 0.69629,0.60742 1.10547,0.83887 1.59082,0.92773 0.14355,0.0332 0.28711,0.05469 0.41992,0.05469 0.2207,0 0.41992,-0.04395 0.57422,-0.12109 0.13281,-0.06641 0.36523,-0.20996 0.36523,-0.50781 0,-0.30959 -0.5752,-0.49709 -1.07227,-0.59669 z m -3.23925,26.0996 -0.82813,0.27637 -0.78906,-0.9668 -1.35938,0.45215 -0.0576,1.24805 -0.82422,0.27344 0.21484,-4.62402 0.69727,-0.23242 z M 100.54785,7.23046 h 2.88379 c 0.57422,0 1.11523,0.23145 1.51367,0.62891 0.39746,0.40918 0.62891,1.02734 0.62891,1.60254 0,0.75098 -0.36426,1.47949 -0.94922,1.85547 l 2.86133,3.77832 h -2.28711 l -2.60742,-3.40234 h -0.17676 v 3.40234 h -1.86719 V 7.23046 Z m -1.44336,33.2832 c 0.07129,-0.23145 0.19434,-0.44824 0.37012,-0.6416 0.06934,-0.07617 0.15137,-0.14941 0.23438,-0.22168 0.32422,-0.24707 0.72461,-0.41699 1.17383,-0.47656 l 0.14844,-0.02051 0.11719,0.80371 -0.15039,0.02051 c -0.50391,0.0752 -0.78711,0.27734 -0.93555,0.43945 -0.09277,0.10352 -0.15625,0.21777 -0.19434,0.33203 -0.05566,0.17773 -0.02148,0.35742 0.08691,0.45605 0.09766,0.08984 0.19336,0.11035 0.33008,0.0791 0.13574,-0.03223 0.2998,-0.12109 0.53223,-0.28711 0.0293,-0.02344 0.0713,-0.05176 0.11328,-0.0791 0.20703,-0.15625 0.49121,-0.3584 0.75293,-0.44043 0.2207,-0.07813 0.43848,-0.09375 0.64258,-0.05566 0.20313,0.03809 0.39355,0.13672 0.55566,0.28418 0.20215,0.18359 0.33301,0.40039 0.38672,0.64844 0.0459,0.21289 0.0303,0.4541 -0.0469,0.7207 -0.0625,0.23047 -0.18555,0.43848 -0.38672,0.65918 -0.0947,0.10254 -0.20508,0.19824 -0.33008,0.29004 -0.37012,0.27148 -0.82715,0.44727 -1.33105,0.50586 l -0.1543,0.01563 -0.0898,-0.80371 0.1543,-0.0166 c 0.36816,-0.04199 0.69824,-0.16113 0.94727,-0.3457 l 0.004,-0.0039 c 0.0742,-0.05469 0.14551,-0.11523 0.20703,-0.18262 0.10254,-0.11133 0.17383,-0.23535 0.21094,-0.35742 0.0527,-0.14844 0.0684,-0.36523 -0.11523,-0.53223 -0.0996,-0.09082 -0.2207,-0.11035 -0.37793,-0.06445 -0.19043,0.05664 -0.38672,0.19043 -0.51953,0.29102 -0.0576,0.04688 -0.56836,0.41895 -0.87891,0.52246 -0.21191,0.06152 -0.41797,0.07227 -0.6123,0.03418 -0.2002,-0.04199 -0.37695,-0.1377 -0.53418,-0.28027 -0.1709,-0.15527 -0.29297,-0.36523 -0.35547,-0.61133 -0.04104,-0.21778 -0.02541,-0.4502 0.0449,-0.68165 z m -2.26074,6.74414 0.78613,0.18262 -0.40039,1.72656 1.25391,0.29199 0.44727,-1.92969 0.78125,0.18164 -0.63086,2.7207 -4.21191,-0.97559 0.6416,-2.77441 0.76953,0.17871 -0.45898,1.98047 0.62207,0.14551 z M 91.73535,7.23046 h 1.6123 l 3.03809,7.86523 h -2.06543 l -0.67383,-1.79004 h -2.20996 l -0.69531,1.79004 h -2.0332 z m -9.64355,4.81641 c -0.2207,-0.04492 -1.30273,-0.27637 -1.74512,-0.54199 -0.75098,-0.44141 -1.1377,-1.11523 -1.1377,-1.95508 0,-0.46387 0.1543,-0.90527 0.4082,-1.28125 0.25488,-0.35352 0.6084,-0.62988 1.0166,-0.81738 l -0.01074,0.01074 c 0.41992,-0.19922 0.89453,-0.29785 1.34766,-0.29785 0.1875,0 0.36426,0.01074 0.58594,0.04395 0.70703,0.12109 1.3584,0.4082 2.26465,1.16016 l -1.21582,1.45801 c -0.81738,-0.67383 -1.2373,-0.77344 -1.65723,-0.77344 -0.20996,0 -0.375,0.04395 -0.50781,0.11035 -0.20996,0.08887 -0.32031,0.24316 -0.32031,0.38672 0,0.29883 0.39746,0.44238 1.03809,0.57422 0.06641,0.02246 0.14355,0.02246 0.22168,0.04492 0.43066,0.09863 1.07129,0.23145 1.49121,0.47461 h -0.01172 c 0.7959,0.44238 1.21582,1.1377 1.21582,2 0,0.50781 -0.13281,0.98242 -0.41992,1.38086 -0.25391,0.36426 -0.62988,0.62988 -1.0498,0.83887 -0.44141,0.23242 -0.89453,0.29883 -1.3916,0.29883 -0.26563,0 -0.55273,-0.0332 -0.7959,-0.08887 -0.79492,-0.16504 -1.52441,-0.53027 -2.46289,-1.33594 l 1.25879,-1.44727 c 0.69629,0.60742 1.10547,0.83887 1.59082,0.92773 0.14355,0.0332 0.28711,0.05469 0.41992,0.05469 0.2207,0 0.41992,-0.04395 0.57422,-0.12109 0.13281,-0.06641 0.36523,-0.20996 0.36523,-0.50781 -10e-6,-0.30959 -0.57423,-0.49709 -1.07227,-0.59669 z M 69.25684,7.23046 h 1.91113 v 5.97656 h 3.73438 v 1.88867 h -5.64551 c 1e-5,0 1e-5,-7.86523 0,-7.86523 z m -2.06543,34.73926 c 0.19922,0.29004 0.3291,0.62793 0.375,0.97363 0.0498,0.34082 0.01367,0.70605 -0.09961,1.03418 l -0.04492,0.14941 -0.76465,-0.26367 0.04883,-0.14355 c 0.15039,-0.43555 0.08496,-0.90625 -0.18066,-1.29199 -0.45508,-0.66113 -1.36328,-0.83398 -2.02344,-0.37891 -0.66602,0.45801 -0.83496,1.37207 -0.37988,2.03223 0.26172,0.37988 0.67871,0.61133 1.1416,0.63086 l 0.14648,0.0088 -0.02539,0.80078 -0.1543,-0.0127 C 64.875,45.49707 64.53711,45.4043 64.22852,45.2334 c -0.30566,-0.16602 -0.56836,-0.40723 -0.76758,-0.69727 -0.17188,-0.25 -0.29102,-0.53027 -0.35449,-0.82617 -0.05664,-0.28613 -0.05957,-0.5791 -0.0059,-0.86621 0.0498,-0.29199 0.15723,-0.56445 0.32031,-0.81055 0.16113,-0.25879 0.36719,-0.47363 0.62305,-0.64941 1.02636,-0.70606 2.44043,-0.44043 3.14746,0.58594 z m -5.80762,0.0166 -0.61035,-0.53906 2.86133,-3.24219 0.61035,0.53906 z M 57.99023,7.23046 h 1.90039 v 4.83789 c 0,0.68555 0.55176,1.2373 1.21484,1.2373 0.67383,0 1.21484,-0.55176 1.21484,-1.2373 V 7.23046 h 1.91113 v 4.83789 c 0,1.72363 -1.40234,3.12695 -3.12598,3.12695 -1.71191,0 -3.11523,-1.40332 -3.11523,-3.12695 V 7.23046 Z m 0.11426,27.63379 0.68066,0.33691 0.33789,1.96484 1.76758,-0.92383 0.68555,0.33789 -1.91895,3.88281 -0.72559,-0.35938 1.28418,-2.59375 -1.69824,0.88281 -0.32422,-1.88281 -1.2832,2.59375 -0.72559,-0.3584 z m -3.83594,-0.92774 c 0.10254,0.01465 0.20898,0.04199 0.31543,0.07129 0.38672,0.13086 0.75,0.37012 1.04883,0.70898 l 0.10059,0.11426 -0.60352,0.54297 -0.09961,-0.11328 c -0.34375,-0.37695 -0.66992,-0.49902 -0.88574,-0.53125 -0.13867,-0.02051 -0.26953,-0.01074 -0.38477,0.02246 -0.17969,0.05273 -0.30957,0.18066 -0.33105,0.3252 -0.02051,0.13184 0.01465,0.22363 0.11816,0.31836 0.10156,0.09473 0.26758,0.18164 0.53516,0.2832 0.03516,0.01172 0.08203,0.03027 0.12793,0.0498 0.24609,0.08594 0.57129,0.20801 0.78516,0.38184 0.18848,0.13867 0.32227,0.3125 0.4043,0.50391 0.08203,0.18945 0.10547,0.40137 0.07324,0.61816 -0.04004,0.27148 -0.14844,0.50098 -0.32324,0.68359 -0.15234,0.15527 -0.36133,0.27734 -0.62598,0.3623 -0.22559,0.07617 -0.46777,0.08887 -0.7627,0.0459 -0.1377,-0.02051 -0.2793,-0.06055 -0.42578,-0.11328 -0.43164,-0.15723 -0.83203,-0.4375 -1.16211,-0.8252 l -0.09863,-0.11914 0.61914,-0.52246 0.09961,0.11914 c 0.24023,0.28223 0.52246,0.49023 0.81445,0.5957 h 0.0059 c 0.08789,0.03223 0.17578,0.05664 0.2666,0.07129 0.15039,0.02246 0.29297,0.0127 0.41504,-0.02441 0.1543,-0.03809 0.3418,-0.14551 0.37891,-0.39258 0.01953,-0.13281 -0.03223,-0.24414 -0.15723,-0.34863 -0.15332,-0.12793 -0.37402,-0.2168 -0.53125,-0.27051 -0.07031,-0.02246 -0.66504,-0.24023 -0.9248,-0.43945 -0.16895,-0.1416 -0.29199,-0.30762 -0.36914,-0.49121 -0.07617,-0.18945 -0.0957,-0.38867 -0.06445,-0.59961 0.03516,-0.22949 0.14063,-0.44727 0.31055,-0.63672 0.1582,-0.1543 0.36035,-0.27246 0.5918,-0.3418 0.23241,-0.06932 0.48046,-0.08886 0.73924,-0.04882 z M 48.3584,7.23046 h 2.90625 c 0.57422,0 1.11523,0.23145 1.52441,0.62891 0.39746,0.40918 0.62988,1.02734 0.62988,1.60254 0,1.19238 -0.9834,2.24219 -2.1543,2.24219 h -0.99512 v 3.3916 H 48.3584 Z m 0.09473,26.66601 c 1.23633,-0.20313 2.40234,0.63379 2.60547,1.87109 0.20215,1.22852 -0.63574,2.38965 -1.87109,2.59375 -1.23047,0.2002 -2.39551,-0.62988 -2.59766,-1.86035 -0.20313,-1.23534 0.63378,-2.40136 1.86328,-2.60449 z m -5.87696,2.0127 c 0.30859,-0.16992 0.6582,-0.26465 1.00488,-0.27637 0.34473,-0.01563 0.70313,0.05859 1.01855,0.2041 l 0.14355,0.05957 -0.33887,0.73242 -0.13867,-0.06348 c -0.41699,-0.19238 -0.89258,-0.1748 -1.30078,0.05078 -0.70313,0.38574 -0.96484,1.27051 -0.5791,1.97266 0.38867,0.70703 1.2793,0.9668 1.98047,0.58008 0.40527,-0.2207 0.6748,-0.6123 0.74121,-1.07031 l 0.02441,-0.14648 0.79199,0.10645 -0.02734,0.15234 c -0.04883,0.35352 -0.1748,0.67773 -0.375,0.96875 -0.19531,0.28711 -0.46094,0.52344 -0.76953,0.69238 -0.26563,0.14551 -0.55566,0.23535 -0.85547,0.26855 -0.29004,0.02734 -0.58105,9.8e-4 -0.86133,-0.08008 -0.28613,-0.0791 -0.5459,-0.21289 -0.77344,-0.39941 -0.24121,-0.18652 -0.43457,-0.41309 -0.58398,-0.68457 -0.59764,-1.08984 -0.19237,-2.46875 0.89845,-3.06738 z M 24.61719,69.89843 c 4.15039,-4.14941 8.75,-7.86035 13.67285,-11.03125 0.38477,-0.24902 0.89746,-0.13672 1.14453,0.24805 0.24805,0.38379 0.13672,0.89648 -0.24805,1.14453 -4.82324,3.10742 -9.33105,6.74414 -13.39746,10.81055 -0.16211,0.16113 -0.37402,0.24219 -0.58594,0.24219 -0.21192,0 -0.42383,-0.08105 -0.58594,-0.24219 -0.32323,-0.32422 -0.32323,-0.84864 10e-6,-1.17188 z m 1.46429,71.19532 0.73926,0.33789 -1.46387,3.20313 2.00195,0.91504 -0.33008,0.72168 -2.74023,-1.25195 z m -1.35254,27.54883 -0.59766,-2.63477 0.79395,-0.18066 0.59766,2.63574 c 0.09961,0.4375 0.02051,0.8916 -0.2168,1.26855 -0.24414,0.37891 -0.62012,0.64551 -1.05859,0.74512 -0.90527,0.20508 -1.80762,-0.36328 -2.01172,-1.26953 l -0.59766,-2.63477 0.78809,-0.17773 0.59668,2.63477 c 0.10742,0.47363 0.58105,0.77734 1.04883,0.6709 0.47461,-0.10743 0.76464,-0.58399 0.65722,-1.05762 z m -3.18457,38.15527 -0.93555,0.8291 -0.77148,-0.39844 3.4668,-3.0752 0.65234,0.33691 -0.50488,4.60938 -0.77734,-0.40332 0.14258,-1.23926 z m -1.93359,-4.28613 -0.79883,-0.69922 0.52832,-0.60547 2.21191,1.9375 -0.52832,0.60352 -0.79883,-0.7002 -2.32227,2.64941 -0.6123,-0.53516 z m -0.70215,-25.33789 c 0.12988,-0.0801 0.26953,-0.11035 0.40918,-0.11035 0.29004,0 0.56055,0.15039 0.7207,0.41016 0.22949,0.38965 0.09961,0.90039 -0.30078,1.12988 -0.38965,0.23047 -0.89941,0.0996 -1.12988,-0.2998 -0.22949,-0.39063 -0.09961,-0.9004 0.30078,-1.12989 z m 2.47949,3.87988 c 0.15039,-0.12012 0.33008,-0.17969 0.50977,-0.17969 0.25,0 0.49023,0.10938 0.65039,0.3291 0.28027,0.36035 0.21973,0.88086 -0.13965,1.16016 -0.37012,0.28027 -0.88086,0.20996 -1.1709,-0.14941 -0.27929,-0.36035 -0.20996,-0.87989 0.15039,-1.16016 z m 0.0127,-40.83691 0.80859,0.0947 -0.41211,3.50488 2.19043,0.25684 -0.09375,0.79004 -2.99805,-0.35156 z m -4.16992,0.51953 0.71582,-0.16504 2.59863,3.83789 -0.85156,0.19727 -0.69434,-1.03711 -1.39648,0.32227 -0.17578,1.2373 -0.8457,0.19531 z m -0.28223,32.26758 c 0.09961,-0.04 0.20996,-0.0605 0.31934,-0.0605 0.32031,0 0.62988,0.19043 0.77051,0.50977 0.16992,0.4209 -0.03027,0.90039 -0.4502,1.08008 -0.41992,0.18066 -0.91016,-0.0195 -1.08984,-0.44922 -0.16993,-0.4209 0.02929,-0.9004 0.45019,-1.08008 z m 0.75293,25.7539 c 0.66504,1.05957 0.3457,2.45703 -0.71387,3.12402 -1.05371,0.66309 -2.44629,0.34082 -3.1123,-0.71973 -0.66309,-1.05371 -0.34863,-2.44922 0.70508,-3.11133 1.06054,-0.666 2.45898,-0.34667 3.12109,0.70704 z m -1.92285,-4.05078 c 0.0791,0.28125 0.04199,0.57617 -0.10449,0.83887 -0.14844,0.2627 -0.37988,0.44824 -0.66016,0.52734 -0.41602,0.11621 -0.85938,-0.0244 -1.1377,-0.33691 l -1.7002,2.15234 -0.25977,-0.92383 1.61914,-2.05566 -0.09375,-0.33301 -2.03711,0.57422 -0.21387,-0.76172 4.16699,-1.17383 z m -7.84961,-47.01074 3.75293,2.14746 -0.4043,0.70605 -3.75293,-2.14648 z m -1.71582,4.07422 c 0.07227,-0.28223 0.26172,-0.52637 0.51172,-0.66895 0.24609,-0.14941 0.55273,-0.19531 0.83398,-0.12109 0.16992,0.043 0.31836,0.12598 0.44238,0.22656 0.09277,-0.0947 0.19629,-0.17969 0.31348,-0.24414 0.33398,-0.20117 0.72461,-0.25684 1.10156,-0.15918 0.375,0.0977 0.68945,0.33594 0.88867,0.67578 0.0957,0.16309 0.16211,0.34375 0.18848,0.53223 0.03223,0.19043 0.01953,0.38184 -0.02734,0.56348 L 9.99066,154.40625 5.81,153.32031 Z m 4.03766,83.26074 -0.16113,0.79199 -4.24121,-0.85938 0.30762,-1.51953 c 0.05957,-0.29199 0.22754,-0.54297 0.47949,-0.70801 0.24902,-0.16113 0.54102,-0.22656 0.83301,-0.16699 0.60156,0.12207 0.98438,0.71484 0.86133,1.31641 l -0.14746,0.72656 z m -4.42285,4.72461 2.69727,-0.19629 c 0.48438,-0.0352 0.85547,-0.45898 0.82129,-0.9375 -0.03613,-0.48535 -0.46484,-0.84375 -0.94824,-0.80762 l -2.69824,0.19629 -0.05859,-0.81152 2.69727,-0.19727 c 0.44824,-0.0342 0.88574,0.11133 1.22363,0.40332 0.33887,0.29883 0.5459,0.71094 0.57813,1.15918 0.06738,0.92773 -0.62891,1.7334 -1.55664,1.80078 l -2.69727,0.19727 z m 5.09765,4.58984 -0.05566,0.14453 -0.75781,-0.28418 0.05566,-0.14551 c 0.12793,-0.34766 0.17188,-0.69531 0.12109,-1.00098 l -9.8e-4,-0.005 c -0.01563,-0.0918 -0.03711,-0.18164 -0.06934,-0.26758 -0.05371,-0.1416 -0.13184,-0.26172 -0.22461,-0.35156 -0.10742,-0.11328 -0.29395,-0.22559 -0.52637,-0.1377 -0.125,0.0478 -0.19824,0.14648 -0.22852,0.30762 -0.03711,0.19531 -0.00586,0.43066 0.02344,0.59473 0.01563,0.0732 0.11523,0.69824 0.06934,1.02246 -0.04199,0.2168 -0.12598,0.40527 -0.24805,0.56152 -0.12891,0.15918 -0.29395,0.27344 -0.49219,0.34863 -0.2168,0.082 -0.45801,0.0957 -0.70605,0.041 -0.21289,-0.0625 -0.41406,-0.18164 -0.58887,-0.34961 -0.17383,-0.16797 -0.31152,-0.37598 -0.4043,-0.62109 -0.03613,-0.0957 -0.06348,-0.20215 -0.0918,-0.30859 -0.07324,-0.40234 -0.04199,-0.83691 0.10742,-1.26367 l 0.0498,-0.14258 0.76953,0.26074 -0.05078,0.14258 c -0.16113,0.48438 -0.1084,0.8291 -0.03027,1.0332 0.04883,0.13086 0.12305,0.24023 0.20703,0.3252 0.13379,0.13086 0.30957,0.18066 0.44629,0.12988 0.12402,-0.0479 0.18652,-0.12402 0.21973,-0.25977 0.03321,-0.13575 0.02734,-0.32227 -0.01465,-0.60547 -0.00781,-0.0361 -0.0127,-0.0859 -0.01953,-0.13574 -0.04395,-0.25586 -0.09766,-0.60059 -0.05078,-0.87207 0.0293,-0.23145 0.11523,-0.43262 0.24121,-0.59766 0.12598,-0.16504 0.30078,-0.28906 0.50488,-0.36816 0.25586,-0.0957 0.50977,-0.11328 0.75488,-0.0508 0.20898,0.0566 0.41797,0.17969 0.62012,0.36914 0.17871,0.16016 0.30762,0.36426 0.41309,0.64355 0.0498,0.12988 0.08496,0.27246 0.10938,0.42578 0.07521,0.45411 0.02541,0.94044 -0.15233,1.417 z m 0.02246,-12.0459 -3.89648,-1.8877 1.24316,-2.56738 0.71191,0.34473 -0.8877,1.83301 0.57324,0.27832 0.77539,-1.59766 0.72754,0.35254 -0.7744,1.59863 1.16016,0.56152 0.86426,-1.7832 0.72266,0.34961 z m 3.55078,-5.28808 -2.5957,-0.29199 -0.2334,0.25488 1.55859,1.4248 -0.53223,0.58301 -3.18848,-2.91602 1.04395,-1.1416 c 0.19629,-0.21582 0.4668,-0.33887 0.76563,-0.35254 0.30078,-0.0137 0.58008,0.085 0.79492,0.28223 0.31836,0.29004 0.43262,0.74121 0.31348,1.1416 l 2.71875,0.30762 z m 3.49414,-2.4668 -3.09668,-1.46191 1.44531,2.44043 -0.69922,0.41406 -2.20508,-3.71973 0.67969,-0.40234 3.08887,1.45996 -1.44336,-2.43457 0.7002,-0.41602 2.20313,3.71973 z m 0.87598,-2.88183 c -0.25684,-1.22461 0.52637,-2.4248 1.74512,-2.68164 1.22559,-0.25684 2.42578,0.52832 2.68262,1.75293 0.25586,1.21777 -0.53027,2.41309 -1.75488,2.66992 -1.21778,0.25586 -2.41798,-0.52246 -2.67286,-1.74121 z m 20.44043,108.86425 c -0.1582,0.24512 -0.4248,0.37793 -0.69629,0.37793 -0.1543,0 -0.30957,-0.043 -0.44922,-0.13281 -4.87695,-3.1543 -9.43457,-6.83984 -13.54785,-10.95215 -0.32324,-0.32324 -0.32324,-0.84863 0,-1.17188 0.32422,-0.32227 0.84766,-0.32227 1.17188,0 4.03027,4.03027 8.49707,7.6416 13.27637,10.7334 0.38378,0.24805 0.49413,0.76075 0.24511,1.14551 z m 6.55664,24.07227 c 0.44141,0.13574 0.91113,0.0566 1.28711,-0.2168 l 0.12109,-0.083 0.47754,0.6416 -0.12793,0.0879 c -0.28809,0.21094 -0.60938,0.34766 -0.95801,0.40723 -0.34277,0.0606 -0.69824,0.0342 -1.03418,-0.0693 -0.29199,-0.0889 -0.55859,-0.2334 -0.79199,-0.42676 -0.22266,-0.18848 -0.40723,-0.41602 -0.54395,-0.6748 -0.14355,-0.25977 -0.22949,-0.54004 -0.25391,-0.83398 -0.03418,-0.30371 -0.0068,-0.60059 0.08398,-0.89648 0.36426,-1.19238 1.63867,-1.86426 2.83008,-1.5 0.33691,0.10254 0.65039,0.28711 0.89941,0.5293 0.25293,0.23633 0.45117,0.54492 0.56738,0.87305 l 0.05664,0.14453 -0.76172,0.26953 -0.05176,-0.14355 c -0.15332,-0.43457 -0.49805,-0.7627 -0.94629,-0.89941 -0.76758,-0.23535 -1.58691,0.19531 -1.82129,0.96289 -0.2363,0.77342 0.20022,1.59373 0.9678,1.82811 z m 6.04297,1.55371 c -1.24609,0.0439 -2.29785,-0.92871 -2.3418,-2.17383 -0.04492,-1.25293 0.93359,-2.30469 2.18066,-2.34863 1.25195,-0.0449 2.30273,0.93359 2.34766,2.18652 0.04493,1.2461 -0.93457,2.29102 -2.18652,2.33594 z m 6.97656,-2.17285 c -0.0625,0.20801 -0.19043,0.41406 -0.38477,0.61133 -0.16309,0.1748 -0.37109,0.29883 -0.65234,0.39746 -0.13086,0.0469 -0.27441,0.0781 -0.42871,0.0996 -0.4541,0.0635 -0.93945,0.002 -1.41113,-0.18555 l -0.14355,-0.0596 0.30273,-0.75 0.14355,0.0586 c 0.34375,0.13574 0.69043,0.18848 0.99707,0.14453 l 0.0059,-0.002 c 0.0918,-0.0127 0.18164,-0.0312 0.26855,-0.0615 0.14258,-0.0508 0.26367,-0.12598 0.35547,-0.21582 0.11719,-0.10547 0.23242,-0.28809 0.15039,-0.52344 -0.04395,-0.12598 -0.1416,-0.20117 -0.30176,-0.23535 -0.19434,-0.041 -0.43066,-0.0156 -0.59473,0.0107 -0.07324,0.0127 -0.7002,0.0977 -1.02246,0.044 -0.21582,-0.0469 -0.40234,-0.13574 -0.55566,-0.26172 -0.15625,-0.13281 -0.2666,-0.29883 -0.33691,-0.5 -0.07617,-0.21777 -0.08496,-0.45996 -0.02441,-0.70703 0.06836,-0.21094 0.19238,-0.4082 0.36328,-0.57813 0.17188,-0.1709 0.38379,-0.30273 0.62988,-0.38965 0.09766,-0.0342 0.2041,-0.0596 0.3125,-0.084 0.40234,-0.0645 0.83496,-0.0244 1.25879,0.13672 l 0.1416,0.0537 -0.2793,0.76172 -0.1416,-0.0537 c -0.47949,-0.17285 -0.8252,-0.12891 -1.03125,-0.0566 -0.13184,0.0469 -0.24219,0.11816 -0.3291,0.20117 -0.13379,0.12988 -0.18945,0.30371 -0.14063,0.44141 0.04395,0.12598 0.11816,0.19043 0.25391,0.22656 0.13575,0.0361 0.32227,0.0352 0.60547,-9.8e-4 0.03613,-0.006 0.08691,-0.0107 0.13672,-0.0156 0.25586,-0.0391 0.60156,-0.083 0.87109,-0.0303 0.23145,0.0352 0.43066,0.12598 0.5918,0.25586 0.16309,0.12988 0.2832,0.30664 0.35547,0.5127 0.08985,0.25781 0.10254,0.51074 0.03418,0.75488 z m 4.96485,-2.42676 -1.72852,-2.31738 0.0166,1.91211 -1.82422,-0.56543 1.72949,2.31934 -0.64746,0.4834 -2.58594,-3.46875 0.6084,-0.45313 1.90332,0.58984 -0.02344,-1.99219 0.61426,-0.45703 2.58594,3.4668 z m -0.24903,-24.17773 -0.49805,-0.64258 3.41602,-2.64746 0.49805,0.64355 z m 5.71192,1.21679 c 0.49512,1.14355 -0.02832,2.47559 -1.17188,2.97168 -1.14844,0.49805 -2.4834,-0.0303 -2.97852,-1.17383 -0.49805,-1.14844 0.0293,-2.4834 1.17871,-2.98145 1.14356,-0.49511 2.47266,0.0342 2.97169,1.1836 z m -7.08301,-2.96093 -1.12988,-0.91406 c -0.9502,-0.76953 -1.11328,-2.15234 -0.36426,-3.07813 0.74902,-0.92773 2.13672,-1.05664 3.08691,-0.28809 l 1.12988,0.91504 z m 4.08984,23.41015 -3.38281,-2.69629 0.50781,-0.63672 3.38281,2.69629 z m 2.8418,-4.3916 c -0.12793,0.27539 -0.30957,0.51855 -0.53223,0.72266 -0.21777,0.19336 -0.46973,0.34375 -0.74414,0.44238 -0.27734,0.10547 -0.56738,0.15039 -0.86035,0.13281 -0.30469,-0.009 -0.59375,-0.0772 -0.875,-0.20801 -1.12598,-0.52832 -1.61133,-1.88184 -1.08301,-3.00879 0.14844,-0.31934 0.375,-0.60156 0.64941,-0.81543 0.26953,-0.21582 0.60156,-0.36816 0.94238,-0.43652 l 0.15137,-0.0361 0.15918,0.79199 -0.14941,0.0303 c -0.45117,0.0908 -0.82324,0.38574 -1.02148,0.80859 -0.33984,0.72559 -0.03027,1.59473 0.69531,1.93457 0.73047,0.34277 1.60254,0.0283 1.94238,-0.69824 0.19629,-0.41797 0.18457,-0.89258 -0.03223,-1.30273 l -0.06641,-0.13086 0.70117,-0.38184 0.07031,0.13965 c 0.16699,0.31348 0.25781,0.65039 0.2666,1.00293 0.01174,0.34766 -0.06346,0.69434 -0.21385,1.0127 z m -2.47559,-7.81445 -0.09473,-0.87012 2.87891,-1.47656 -3.12695,-0.83691 -0.09277,-0.86328 4.47754,1.19238 0.0791,0.73047 z m 24.5232,35.9566 c 0,1.77142 -1.43604,3.20746 -3.20746,3.20746 H 77.53595 c -1.77142,0 -3.2074,-1.43604 -3.2074,-3.20746 v -26.33142 c 0,-1.77142 1.43597,-3.20746 3.2074,-3.20746 h 10.46631 c 1.77142,0 3.20746,1.43604 3.20746,3.20746 z m 2.35278,-37.48492 c 0.0098,-0.13965 0.03809,-0.28418 0.07813,-0.43359 0.12207,-0.44238 0.36914,-0.86426 0.72852,-1.22363 l 0.11133,-0.1084 0.57031,0.57422 -0.11133,0.1084 c -0.26172,0.2627 -0.44629,0.56152 -0.52734,0.86035 v 0.006 c -0.02441,0.0898 -0.04297,0.17969 -0.04883,0.27148 -0.0098,0.15137 0.01074,0.29199 0.05762,0.41016 0.0498,0.15039 0.17285,0.33008 0.4209,0.34668 0.13281,0.009 0.24121,-0.0518 0.33594,-0.18555 0.11426,-0.16211 0.18359,-0.38965 0.22559,-0.5498 0.0166,-0.0732 0.18652,-0.68262 0.36328,-0.95703 0.12793,-0.17969 0.2832,-0.31445 0.45996,-0.40723 0.18262,-0.0908 0.37988,-0.12598 0.5918,-0.1123 0.23047,0.0156 0.45508,0.10352 0.65918,0.25879 0.16602,0.14355 0.2998,0.33594 0.3877,0.56152 0.0879,0.22558 0.12695,0.4707 0.10938,0.73145 -0.0078,0.10254 -0.02734,0.21191 -0.04688,0.31934 -0.09961,0.39551 -0.30762,0.77734 -0.62207,1.10352 l -0.10449,0.10938 -0.58984,-0.55859 0.10547,-0.10742 c 0.34766,-0.37305 0.44238,-0.70898 0.45703,-0.92578 0.0098,-0.14063 -0.01172,-0.26855 -0.05273,-0.38086 -0.06836,-0.17578 -0.20605,-0.29492 -0.35156,-0.30469 -0.13281,-0.009 -0.2207,0.0332 -0.30762,0.14453 -0.08691,0.10938 -0.15918,0.28125 -0.23828,0.55566 -0.0088,0.0361 -0.02441,0.085 -0.04004,0.13086 -0.06445,0.25195 -0.16113,0.58691 -0.31641,0.81348 -0.12305,0.19824 -0.28516,0.3457 -0.46875,0.44336 -0.18262,0.0977 -0.39258,0.1377 -0.61133,0.12305 -0.27246,-0.0186 -0.50977,-0.10742 -0.70605,-0.2666 -0.16699,-0.13965 -0.30566,-0.33789 -0.41113,-0.59473 -0.09379,-0.21976 -0.12699,-0.45902 -0.10746,-0.75589 z m 1.3623,-6.0459 0.25684,-0.74707 4.08789,1.40625 -0.50391,1.46387 c -0.09473,0.27539 -0.29297,0.49609 -0.5625,0.62793 -0.26953,0.13184 -0.56641,0.15234 -0.8418,0.0576 -0.40723,-0.13965 -0.69141,-0.50684 -0.74219,-0.92285 L 94,331.94824 l 0.3125,-0.90625 2.49805,-0.7666 0.11133,-0.32715 z m 7.59083,-3.81445 -0.66699,0.55469 -1.48535,-4.38965 0.56641,-0.46875 4.04883,2.25684 -0.67383,0.55957 -2.82031,-1.58008 z m -1.14063,1.22461 -1.62988,2.33691 -0.64844,-0.45215 1.16504,-1.66895 -0.52246,-0.36426 -1.01563,1.4541 -0.66309,-0.46289 1.01563,-1.4541 -1.05664,-0.7373 -1.13281,1.62402 -0.6582,-0.45801 1.59961,-2.29199 z m -4.3252,14.3916 -0.79199,0.1582 -0.34863,-1.74023 -1.2627,0.25293 0.3877,1.94238 -0.78613,0.15723 -0.54883,-2.74023 4.24414,-0.84961 0.55859,2.7959 -0.77539,0.1543 -0.39844,-1.99609 -0.62695,0.12402 z m 3.43067,7.88281 c -0.0654,0.19629 -0.19043,0.37012 -0.35938,0.50977 -0.20996,0.17383 -0.44336,0.27246 -0.69531,0.29102 -0.2168,0.0147 -0.45313,-0.0342 -0.70605,-0.14844 -0.21973,-0.0937 -0.40723,-0.24512 -0.59766,-0.47559 -0.08887,-0.10742 -0.16699,-0.23047 -0.24121,-0.36621 -0.21582,-0.4043 -0.32617,-0.88086 -0.3125,-1.38867 l 0.0068,-0.1543 0.80762,0.0254 -0.0059,0.15332 c -0.0088,0.37012 0.06152,0.71289 0.20801,0.98535 l 0.0049,0.006 c 0.04297,0.0811 0.0918,0.16016 0.15039,0.22852 0.09668,0.11816 0.20898,0.20605 0.32422,0.25977 0.13965,0.0742 0.35156,0.11914 0.54297,-0.0381 0.10352,-0.0859 0.13965,-0.20313 0.11719,-0.36426 -0.0293,-0.19824 -0.13477,-0.41016 -0.21582,-0.55566 -0.03711,-0.0644 -0.33301,-0.62207 -0.39355,-0.94336 -0.03125,-0.21875 -0.01172,-0.42285 0.05371,-0.61035 0.07031,-0.19238 0.18848,-0.35352 0.35254,-0.48926 0.17773,-0.14648 0.40137,-0.23828 0.65527,-0.26563 0.2207,-0.01 0.44824,0.0381 0.66797,0.1416 0.21777,0.10156 0.41504,0.25391 0.58203,0.45605 0.0654,0.0791 0.12598,0.1709 0.18555,0.26367 0.19922,0.35449 0.31055,0.77539 0.30664,1.22754 l -9.8e-4,0.15039 -0.81055,9.8e-4 9.8e-4,-0.15137 c -0.004,-0.50879 -0.16406,-0.81738 -0.30273,-0.98535 -0.0898,-0.10742 -0.19434,-0.18652 -0.30176,-0.24023 -0.16895,-0.0801 -0.35059,-0.0713 -0.46289,0.0215 -0.10352,0.084 -0.1377,0.17676 -0.125,0.31543 0.0127,0.13965 0.07813,0.3125 0.20898,0.56738 0.0185,0.0322 0.04,0.0772 0.0615,0.12207 0.12598,0.22852 0.28613,0.53613 0.3291,0.80762 0.0478,0.2295 0.0312,0.44727 -0.0352,0.64356 z m 2.14258,1.53711 -1.23242,1.70801 -0.6543,-0.47266 2.52734,-3.50488 1.25586,0.90625 c 0.24023,0.17383 0.40039,0.42969 0.44727,0.72656 0.0439,0.29297 -0.0176,0.58594 -0.19141,0.82715 -0.3584,0.49707 -1.05469,0.60059 -1.55273,0.24121 z m 5.20117,5.01074 -0.8125,-0.32324 0.0195,-1.24902 -1.33301,-0.53125 -0.85059,0.91699 -0.80664,-0.32129 3.15039,-3.40527 0.68359,0.27344 z m -2.15039,-32.45019 -0.31348,-0.72461 1.86816,-0.80859 -0.25391,-0.58594 -1.62793,0.70605 -0.32129,-0.74219 1.62793,-0.7041 -0.51074,-1.18262 -1.81836,0.78711 -0.31836,-0.73633 2.56445,-1.11035 1.71875,3.96973 z m 5.36816,-6.11915 0.78027,-0.12012 0.66211,4.27344 -1.53027,0.2373 c -0.28906,0.0449 -0.57617,-0.0283 -0.81934,-0.20605 -0.24219,-0.17676 -0.39844,-0.42871 -0.44238,-0.7168 -0.0654,-0.42676 0.12598,-0.84961 0.4707,-1.08691 l -1.92871,-1.94531 0.94727,-0.14648 1.8418,1.85352 0.34277,-0.0527 z m 0.77539,38.43165 c 0.45996,0.0381 0.90137,-0.1377 1.20996,-0.4834 l 0.10059,-0.1084 0.60156,0.52539 -0.10645,0.11328 c -0.23633,0.26758 -0.52051,0.46875 -0.84863,0.59961 -0.32129,0.13184 -0.67285,0.18164 -1.02441,0.15234 -0.30273,-0.0264 -0.59375,-0.11133 -0.8623,-0.24902 -0.25684,-0.1377 -0.48633,-0.32129 -0.67383,-0.54395 -0.19531,-0.22461 -0.33789,-0.47949 -0.4248,-0.76172 -0.0977,-0.28809 -0.13281,-0.58301 -0.10742,-0.89258 0.10352,-1.24023 1.20508,-2.16504 2.44629,-2.06152 0.35059,0.0283 0.69434,0.14355 0.99023,0.32617 0.2959,0.17676 0.55469,0.43652 0.7373,0.73242 l 0.0869,0.12988 -0.68848,0.42285 -0.0801,-0.12891 c -0.24219,-0.3916 -0.64746,-0.63867 -1.11328,-0.67773 -0.7998,-0.0674 -1.50781,0.52539 -1.57422,1.32422 -0.0664,0.80567 0.53126,1.51368 1.33106,1.58107 z m 4.167,0.63769 -0.87305,-4.24121 2.79395,-0.5752 0.15918,0.77441 -1.99512,0.41016 0.12891,0.62598 1.73828,-0.35938 0.16309,0.79297 -1.73828,0.3584 0.25977,1.2627 1.94141,-0.39941 0.16211,0.78613 z m 5.60644,-1.71289 -1.57129,-3.15527 -0.95117,0.47266 -0.35742,-0.71777 2.63281,-1.31055 0.35742,0.71875 -0.95215,0.47266 1.57129,3.15625 z m 3.45996,-2.08203 -2.66992,-3.40039 0.63965,-0.50293 2.66895,3.39941 z m 4.45703,-4.63965 -2.29688,-1.75488 0.54004,1.83398 -1.90723,-0.042 2.29688,1.75293 -0.48926,0.64258 -3.43652,-2.62402 0.46094,-0.60254 1.98926,0.0439 -0.56738,-1.9082 0.46484,-0.60742 3.43555,2.62305 z m 1.61231,-2.83203 -4.04004,-1.55371 1.02246,-2.66016 0.7373,0.28418 -0.73047,1.89941 0.59668,0.22949 0.63574,-1.65723 0.75586,0.29004 -0.63672,1.6582 1.20215,0.46191 0.71094,-1.85059 0.74902,0.28809 z m 8.97363,-25.36426 c -4.14844,4.14844 -8.74805,7.86035 -13.67188,11.03125 -0.13867,0.0898 -0.29395,0.13184 -0.44727,0.13184 -0.27246,0 -0.53906,-0.13379 -0.69727,-0.37988 -0.24805,-0.38379 -0.13672,-0.89648 0.24805,-1.14453 4.82423,-3.10742 9.33105,-6.74512 13.39648,-10.81055 0.32422,-0.32227 0.84766,-0.32227 1.17188,0 0.32325,0.32324 0.32325,0.84863 1e-5,1.17187 z m -11.56757,-42.93286 c -0.53278,0 -1.05811,-0.0307 -1.57635,-0.0853 -0.71851,2.15405 -1.58801,4.23816 -2.59857,6.24121 3.63269,2.71161 5.99541,7.03052 5.99541,11.91229 0,8.21368 -6.65851,14.87219 -14.87213,14.87219 -4.87653,0 -9.19141,-2.35767 -11.90356,-5.98376 -2.01617,1.01978 -4.11469,1.89685 -6.28418,2.62048 0.05469,0.51843 0.08539,1.04395 0.08539,1.5769 0,8.21362 -6.65851,14.87213 -14.87219,14.87213 -8.21368,0 -14.87213,-6.65851 -14.87213,-14.87213 0,-0.53296 0.0307,-1.05847 0.08539,-1.5769 -2.17615,-0.72583 -4.28076,-1.60608 -6.30261,-2.62988 -2.71173,3.63141 -7.02991,5.99316 -11.91064,5.99316 -8.21368,0 -14.87213,-6.65851 -14.87213,-14.87219 0,-4.89001 2.37061,-9.21545 6.01379,-11.92609 -1.00757,-1.99878 -1.87463,-4.07831 -2.59149,-6.22736 -0.51825,0.0546 -1.04358,0.0853 -1.57629,0.0853 -8.21368,0 -14.87219,-6.65851 -14.87219,-14.87219 0,-8.21368 6.65851,-14.87213 14.87219,-14.87213 0.53278,0 1.05811,0.0307 1.57635,0.0853 0.72437,-2.17163 1.60248,-4.27209 2.6236,-6.2901 -3.6853,-2.70685 -6.08765,-7.05823 -6.08765,-11.98132 0,-8.21368 6.65851,-14.87213 14.87213,-14.87213 4.92578,0 9.2793,2.40497 11.98578,6.09363 1.99286,-1.00708 4.0661,-1.87439 6.20874,-2.59235 -0.05853,-0.53619 -0.09363,-1.07928 -0.09363,-1.6311 0,-8.21368 6.65851,-14.87219 14.87219,-14.87219 8.21368,0 14.87213,6.65851 14.87213,14.87219 0,0.53638 -0.03156,1.06512 -0.08691,1.58685 2.1734,0.72107 4.27582,1.59613 6.2959,2.61432 2.70776,-3.67572 7.05322,-6.07092 11.96881,-6.07092 8.21368,0 14.87212,6.65851 14.87212,14.87219 0,4.90344 -2.38354,9.23938 -6.04388,11.94855 1.02808,2.02795 1.91193,4.13916 2.6402,6.32239 0.51831,-0.0546 1.04364,-0.0853 1.57642,-0.0853 8.21362,0 14.87213,6.65845 14.87213,14.87213 0,8.21368 -6.65851,14.87219 -14.87214,14.87219 z m 16.9889,-26.90601 -3.0127,-0.19238 0.27637,-4.31738 0.81152,0.0518 -0.22461,3.52344 2.20117,0.14063 z m 0.0508,-37.48046 c -0.29004,0 -0.56055,-0.15039 -0.7207,-0.41016 -0.22949,-0.38965 -0.0996,-0.90039 0.30078,-1.12988 0.38965,-0.23047 0.89941,-0.0996 1.12988,0.2998 0.22949,0.39063 0.0996,0.90039 -0.30078,1.12988 -0.12989,0.0801 -0.26953,0.11036 -0.40918,0.11036 z m 1.67285,37.27148 -1.06543,-4.18652 0.78809,-0.20117 0.86914,3.41699 2.13574,-0.54395 0.19531,0.77051 z m 1.78906,-53.92285 -0.20508,-0.75586 2.23242,-2.59766 -2.73633,0.74609 -0.2129,-0.78515 4.17188,-1.13672 0.20605,0.76172 -2.22754,2.58984 2.73047,-0.74316 0.21484,0.78418 z m 3.58356,-29.69922 -3.27148,-0.98633 1.78809,2.19434 -0.63086,0.51367 -2.73047,-3.35156 0.60742,-0.49414 3.27734,0.98535 -1.79004,-2.19824 0.63086,-0.51465 2.73047,3.35254 z m 1.05273,-4.38477 -2.73535,0.0977 0.53418,-0.79492 2.60938,-0.0967 0.19336,-0.28613 -1.75293,-1.17871 0.44043,-0.65527 3.58594,2.41113 -0.86328,1.28418 c -0.16309,0.24219 -0.41113,0.4043 -0.70508,0.46191 -0.29492,0.0576 -0.58594,0.002 -0.82813,-0.16211 -0.35742,-0.23926 -0.53711,-0.66797 -0.47852,-1.08106 z m 5.07465,79.04493 -0.80078,1.71582 -3.91992,-1.82617 0.67773,-1.4541 c 0.12305,-0.26465 0.35449,-0.47168 0.62598,-0.56543 0.26953,-0.10254 0.5791,-0.0928 0.84277,0.0312 0.16016,0.0732 0.29102,0.18164 0.39453,0.30371 0.10938,-0.0762 0.22754,-0.1416 0.35352,-0.18359 0.36621,-0.1377 0.76074,-0.12012 1.11328,0.043 0.35156,0.16504 0.61719,0.45703 0.75391,0.82715 0.0644,0.17773 0.0967,0.36719 0.0879,0.55664 -0.003,0.19432 -0.0488,0.37987 -0.12891,0.55175 z m 1.02539,-3.14649 -4.25195,-0.76953 0.14453,-0.79883 4.25195,0.76758 z"
   id="path85"
   inkscape:connector-curvature="0"
   style="fill:#252626" />
		<polygon
   points="17.7309,143.03906 18.51215,142.85938 17.88519,141.92578 "
   id="polygon87"
   style="fill:#252626" />
		<path
   d="m 131.07465,181.15918 c -0.24023,-0.77148 -1.05273,-1.20117 -1.8125,-0.96582 -0.76172,0.23438 -1.19141,1.04688 -0.95117,1.82031 0.23633,0.76563 1.04883,1.19531 1.81055,0.95996 0.75976,-0.23437 1.18944,-1.04785 0.95312,-1.81445 z"
   id="path89"
   inkscape:connector-curvature="0"
   style="fill:#252626" />
		<path
   d="m 155.41449,239.13184 -0.33398,0.71484 0.55664,0.25977 0.33398,-0.71582 c 0.0713,-0.1543 0.002,-0.33496 -0.14746,-0.4043 -0.14844,-0.0684 -0.32617,-0.005 -0.40918,0.14551 z"
   id="path91"
   inkscape:connector-curvature="0"
   style="fill:#252626" />
		<path
   d="m 14.55316,200.73633 c 0.42383,0.67383 1.32031,0.87695 1.99902,0.45117 0.68457,-0.42969 0.88867,-1.32617 0.46484,-2 -0.42383,-0.67285 -1.31934,-0.87793 -2.00293,-0.44727 -0.67968,0.42579 -0.8828,1.32227 -0.46093,1.9961 z"
   id="path93"
   inkscape:connector-curvature="0"
   style="fill:#252626" />
		<path
   d="m 87.43567,360.47876 c -0.1626,0.31671 -0.31885,0.5769 -0.46924,0.78009 -0.15039,0.20343 -0.28247,0.3374 -0.396,0.4024 -0.06525,0.0326 -0.14032,0.0607 -0.22571,0.0851 -0.08521,0.0244 -0.18701,0.0427 -0.30481,0.0549 -0.11774,0.0122 -0.25995,0.0226 -0.42651,0.0305 -0.16656,0.008 -0.36786,0.0122 -0.60345,0.0122 -0.26813,0 -0.48962,-0.008 -0.66443,-0.0244 -0.1748,-0.0162 -0.31488,-0.0366 -0.42041,-0.0607 -0.10583,-0.0247 -0.18915,-0.053 -0.24988,-0.0854 -0.06104,-0.0324 -0.10791,-0.069 -0.14032,-0.1098 -0.0976,-0.10559 -0.16046,-0.26208 -0.18884,-0.46924 -0.02863,-0.20746 -0.04272,-0.47351 -0.04272,-0.79865 v -0.8045 c 0.0019,-0.11145 0.0052,-0.21002 0.0099,-0.29449 0.0079,-0.15015 0.03021,-0.29041 0.06683,-0.42041 0.03662,-0.13 0.09338,-0.26837 0.17084,-0.41455 0.01825,-0.035 0.03894,-0.0728 0.06073,-0.11243 0.02936,-9.2e-4 0.05981,-10e-4 0.09387,-10e-4 h 0.70715 c 0.23553,0 0.42859,0.004 0.57898,0.0122 0.15021,0.008 0.27008,0.0242 0.35968,0.0486 0.12177,0.0326 0.20905,0.0896 0.26208,0.17078 0.0528,0.0812 0.09125,0.17883 0.11591,0.2926 l 0.10956,0.47534 c 0.03235,0.0408 0.08728,0.0589 0.16449,0.0549 0.07715,-0.004 0.12805,-0.0263 0.15247,-0.0671 0,-0.13818 -0.0082,-0.31274 -0.02441,-0.52417 -0.01642,-0.21136 -0.02435,-0.42676 -0.02435,-0.64612 0,-0.23553 0.0079,-0.46313 0.02435,-0.6825 0.01624,-0.2196 0.02441,-0.40234 0.02441,-0.54877 -0.02441,-0.0403 -0.07532,-0.0629 -0.15247,-0.0671 -0.07721,-0.004 -0.13214,0.0143 -0.16449,0.0549 l -0.09735,0.5 c -0.03259,0.15436 -0.07135,0.25806 -0.11591,0.31085 -0.0448,0.0528 -0.1037,0.0913 -0.1767,0.11566 -0.07318,0.0244 -0.1994,0.0427 -0.37793,0.0549 -0.17902,0.0122 -0.39838,0.0183 -0.65833,0.0183 h -0.5509 c 0.0042,-0.007 0.0079,-0.0131 0.01221,-0.0201 l 0.76788,-1.32867 c 0.15411,-0.26019 0.29443,-0.50183 0.42065,-0.7254 0.12579,-0.22339 0.24988,-0.42072 0.37164,-0.59125 0.12201,-0.17059 0.24774,-0.30878 0.37799,-0.41437 0.02698,-0.0218 0.05469,-0.0415 0.08307,-0.0601 0.08258,0.0328 0.15527,0.0716 0.21796,0.11682 0.10156,0.073 0.18463,0.15839 0.24988,0.25598 0.06494,0.0974 0.11774,0.20721 0.15857,0.32898 0.04034,0.12195 0.08514,0.25616 0.13397,0.40234 0.03235,0.0408 0.08539,0.057 0.15857,0.0488 0.073,-0.008 0.12177,-0.0324 0.14618,-0.0732 -0.01642,-0.12994 -0.03046,-0.27826 -0.04248,-0.44482 -0.01239,-0.16656 -0.02673,-0.32916 -0.04291,-0.48755 -0.01617,-0.15857 -0.03754,-0.30005 -0.05469,-0.42676 -0.04242,-0.31348 -0.03284,-0.58118 -0.03284,-0.58118 0,-0.61749 -0.17523,-1.15735 -0.44269,-1.60919 -0.26727,-0.45142 -0.60907,-0.8078 -1.02484,-1.06915 -0.41595,-0.26141 -0.90302,-0.44556 -1.46143,-0.55255 -0.55865,-0.10699 -1.21204,-0.16046 -1.96045,-0.16046 -0.74872,0 -1.4054,0.009 -1.96942,0.0267 -0.56445,0.0178 -1.08441,0.0565 -1.55969,0.11591 -0.07111,0.0356 -0.10986,0.10419 -0.11572,0.20483 -0.0061,0.10107 0.02045,0.18134 0.08026,0.24072 l 0.64148,0.0713 c 0.20197,0.0239 0.35919,0.0624 0.47247,0.11591 0.11261,0.0533 0.19592,0.15131 0.24939,0.29401 0.05353,0.14264 0.08612,0.33264 0.09808,0.57031 0.01172,0.23767 0.01782,0.54669 0.01782,0.92676 v 6.57678 c 0,0.4632 -0.0061,0.83478 -0.01782,1.11377 -0.01196,0.27942 -0.05347,0.49622 -0.12482,0.65057 -0.07129,0.15442 -0.17828,0.26135 -0.32074,0.32074 -0.14264,0.0596 -0.34485,0.10699 -0.60596,0.14264 l -0.37445,0.0535 c -0.05426,0.0542 -0.07837,0.1283 -0.07324,0.22168 -4.3e-4,0.19073 -0.0026,0.25128 -0.0065,0.46619 -0.0043,0.24609 -0.0155,0.52112 -0.03357,0.82538 0.01807,0.0448 0.06921,0.0716 0.15436,0.0808 0.08496,0.009 0.14545,-0.009 0.1814,-0.0538 l 0.0401,-0.28198 c 0.02698,-0.19684 0.06262,-0.34888 0.10742,-0.45612 0.04486,-0.10742 0.12531,-0.18793 0.2417,-0.24164 0.11615,-0.0537 0.27942,-0.0854 0.48987,-0.0943 0.21021,-0.009 0.48987,-0.0132 0.83899,-0.0132 h 1.69116 c 0.07153,0 0.12762,0.004 0.16797,0.0132 0.0401,0.009 0.06921,0.0337 0.08704,0.0741 0.01782,0.0402 0.02911,0.10278 0.03375,0.18768 0.0043,0.0852 0.0066,0.20343 0.0066,0.35571 0,0.26862 -0.03357,0.46991 -0.10065,0.60413 -0.06708,0.13422 -0.1767,0.25061 -0.32892,0.34912 -0.15228,0.10748 -0.32001,0.21912 -0.5033,0.33551 -0.18365,0.11615 -0.36713,0.23248 -0.55042,0.34888 -0.18347,0.11633 -0.36011,0.22827 -0.53021,0.33575 -0.1701,0.10718 -0.31769,0.20575 -0.44293,0.2951 -0.34021,0.2417 -0.61987,0.46759 -0.83905,0.67804 -0.21912,0.21027 -0.3913,0.42279 -0.5166,0.63751 -0.12555,0.21466 -0.21259,0.44061 -0.26184,0.6778 -0.04901,0.23718 -0.07367,0.49878 -0.07367,0.78528 0,0.25946 0.02228,0.45654 0.06689,0.59052 0.02698,0.0359 0.06049,0.0516 0.10089,0.0472 0.0401,-0.005 0.06921,-0.0249 0.08728,-0.0605 0.01758,-0.17902 0.06024,-0.34888 0.12738,-0.50983 0.06708,-0.16119 0.14966,-0.30011 0.24847,-0.4162 0.18793,-0.23279 0.40021,-0.4519 0.63745,-0.6579 0.23694,-0.20575 0.49878,-0.41595 0.78528,-0.63086 0.28619,-0.21472 0.60834,-0.43616 0.96637,-0.66425 0.35779,-0.22827 0.75171,-0.47675 1.18127,-0.74512 0.05377,-0.0359 0.10938,-0.065 0.16779,-0.0873 0.05792,-0.0225 0.10956,-0.0157 0.15436,0.0201 0.06244,0.16986 0.15649,0.35126 0.2818,0.54364 0.12524,0.19238 0.27966,0.37372 0.46313,0.54382 0.18347,0.16986 0.39813,0.31067 0.64423,0.42279 0.24615,0.11169 0.53027,0.16779 0.85236,0.16779 0.47443,0 0.86365,-0.10535 1.16797,-0.31561 0.30408,-0.21021 0.54126,-0.4765 0.71136,-0.79858 0.16986,-0.31323 0.27966,-0.66003 0.32892,-1.0401 0.04901,-0.38055 0.07556,-0.78101 0.07367,-1.20172 -0.0033,-0.77936 0.13702,-1.27539 0.13702,-1.27539 0.0528,-0.14636 0.10535,-0.30261 0.15839,-0.46924 0.0528,-0.16656 0.10156,-0.32916 0.14636,-0.48773 0.04462,-0.15839 0.0791,-0.29047 0.1037,-0.3963 -0.0246,-0.0565 -0.07129,-0.0931 -0.14026,-0.10956 -0.06918,-0.0162 -0.12387,-0.008 -0.1647,0.0244 z m -5.1344,-0.069 c 0,0.3252 -0.0042,0.58514 -0.01215,0.78009 -0.0082,0.19495 -0.03662,0.34747 -0.08545,0.45703 -0.01733,0.0394 -0.03796,0.0742 -0.06171,0.10443 -4.3e-4,2.4e-4 -0.0012,6.7e-4 -0.0016,9.2e-4 -0.14191,-0.0272 -0.2616,-0.0587 -0.35822,-0.0945 -0.16052,-0.0594 -0.27618,-0.16632 -0.34747,-0.32074 -0.07135,-0.15436 -0.11591,-0.37115 -0.13373,-0.65057 -0.01782,-0.27899 -0.02673,-0.65057 -0.02673,-1.11377 v -2.53784 l 0.63721,1.24164 c 0.08917,0.17078 0.16022,0.31506 0.21326,0.43286 0.0528,0.11798 0.09125,0.22754 0.11566,0.32916 0.02441,0.10181 0.04059,0.20929 0.04883,0.32306 0.0079,0.11377 0.01215,0.25598 0.01215,0.42651 -1e-5,-1e-5 -1e-5,0.62176 0,0.62176 z m 0.03662,-3.36444 c -0.2276,-0.46338 -0.45514,-0.9223 -0.68274,-1.37769 -0.01642,-0.0324 -0.04456,-0.0931 -0.08514,-0.18274 -0.04083,-0.0892 -0.08356,-0.18463 -0.12811,-0.2865 -0.0448,-0.10156 -0.0835,-0.19684 -0.11591,-0.28644 -0.03259,-0.0894 -0.04858,-0.15039 -0.04858,-0.1828 0,-0.0488 0.03217,-0.0873 0.09741,-0.11591 0.06494,-0.0284 0.20319,-0.0629 0.41455,-0.10345 l 0.15839,-0.0244 c 0.04059,-0.0406 0.05884,-0.0976 0.05487,-0.17078 -0.0042,-0.0729 -0.03473,-0.1178 -0.09125,-0.13397 -0.17316,0.0136 -0.3855,0.0235 -0.63721,0.0294 v -2.58643 c 0,-0.1427 0.0059,-0.25555 0.01782,-0.33881 0.01172,-0.0828 0.04736,-0.14832 0.10699,-0.19592 0.05933,-0.0474 0.15411,-0.0772 0.28503,-0.0892 0.13068,-0.0117 0.31488,-0.0178 0.55255,-0.0178 0.9267,0 1.63666,0.25836 2.12982,0.77521 0.49292,0.51685 0.73975,1.20923 0.73975,2.0766 0,0.0821 -0.01709,0.25922 -0.02789,0.3808 -0.0683,-9.8e-4 -0.13654,-0.002 -0.20483,-0.003 -0.18701,-0.004 -0.39014,-0.0143 -0.60956,-0.0305 -0.04877,0.0244 -0.07507,0.0711 -0.07928,0.14008 -0.004,0.0692 0.0141,0.12408 0.05518,0.16467 l 0.21912,0.0244 c 0.14636,0.0162 0.26813,0.0427 0.36572,0.0791 0.09766,0.0366 0.14642,0.0753 0.14642,0.11591 0,0.0406 -0.02441,0.11591 -0.07318,0.22546 -0.04883,0.1098 -0.11383,0.24188 -0.19495,0.396 -0.08142,0.1546 -0.16895,0.31934 -0.26208,0.4939 -0.09363,0.1748 -0.18115,0.33948 -0.26233,0.49365 -0.18695,0.35779 -0.37775,0.70898 -0.57294,1.05432 -0.19495,0.34564 -0.38593,0.68091 -0.57269,1.00586 -0.23603,-0.42254 -0.46759,-0.86554 -0.69495,-1.32867 z m 4.27759,7.0611 c -0.11426,0.26343 -0.26587,0.48096 -0.45471,0.65222 -0.18909,0.17126 -0.40399,0.2984 -0.64569,0.3822 -0.24188,0.0835 -0.49432,0.12506 -0.75781,0.12506 -0.44812,0 -0.79724,-0.0657 -1.04755,-0.19757 -0.25037,-0.13184 -0.44598,-0.28552 -0.5863,-0.46124 -0.14972,-0.19336 -0.24402,-0.40851 -0.28345,-0.64569 -0.03961,-0.23718 -0.05933,-0.47443 -0.05933,-0.71161 0,-0.33411 0.0068,-0.56445 0.01971,-0.69189 0.01337,-0.12762 0.02838,-0.19989 0.0462,-0.21747 0.03497,-0.0265 0.17993,-0.0394 0.43475,-0.0394 h 3.0838 c 0.08777,0 0.16022,0.007 0.21747,0.0197 0.05682,0.0131 0.10089,0.0481 0.13165,0.10535 0.0307,0.057 0.05042,0.14264 0.05933,0.2569 0.0087,0.11426 0.01343,0.2724 0.01343,0.47443 1e-5,0.36901 -0.05749,0.68554 -0.1715,0.94903 z"
   id="path95"
   inkscape:connector-curvature="0"
   style="fill:#252626" />
	</g>
	<g
   id="g109">
		<g
   id="g107">
			<g
   id="g103">
				<circle
   cx="23.00013"
   cy="7.00002"
   r="5.73633"
   id="circle99"
   style="fill:#bcbcbc" />
				<path
   d="m 23.00001,1.52749 c 3.01758,0 5.47253,2.45496 5.47253,5.47253 0,3.01757 -2.45496,5.47253 -5.47253,5.47253 -3.01757,0 -5.47253,-2.45496 -5.47253,-5.47253 0,-3.01757 2.45495,-5.47253 5.47253,-5.47253 m 0,-0.52747 c -3.31372,0 -6,2.68628 -6,6 0,3.31372 2.68628,6 6,6 3.31372,0 6,-2.68628 6,-6 0,-3.31372 -2.68628,-6 -6,-6 z"
   id="path101"
   inkscape:connector-curvature="0"
   style="fill:#808080" />
			</g>
			<polygon
   points="23.65939,7.65936 26.49456,7.65936 26.49456,6.34068 23.65939,6.34068 23.65939,3.50551 22.34071,3.50551 22.34071,6.34068 19.50554,6.34068 19.50554,7.65936 22.34071,7.65936 22.34071,10.49453 23.65939,10.49453 "
   id="polygon105"
   style="fill:#6e6e6e" />
		</g>
	</g>
	<g
   id="g121">
		<g
   id="g119">
			<g
   id="g115">
				<circle
   cx="142.00014"
   cy="7.00002"
   r="5.73633"
   id="circle111"
   style="fill:#bcbcbc" />
				<path
   d="m 142.00002,1.52749 c 3.01758,0 5.47253,2.45496 5.47253,5.47253 0,3.01757 -2.45496,5.47253 -5.47253,5.47253 -3.01757,0 -5.47253,-2.45496 -5.47253,-5.47253 0,-3.01757 2.45495,-5.47253 5.47253,-5.47253 m 0,-0.52747 c -3.31372,0 -6,2.68628 -6,6 0,3.31372 2.68628,6 6,6 3.31372,0 6,-2.68628 6,-6 0,-3.31372 -2.68628,-6 -6,-6 z"
   id="path113"
   inkscape:connector-curvature="0"
   style="fill:#808080" />
			</g>
			<polygon
   points="142.65939,7.65936 145.49455,7.65936 145.49455,6.34068 142.65939,6.34068 142.65939,3.50551 141.34071,3.50551 141.34071,6.34068 138.50554,6.34068 138.50554,7.65936 141.34071,7.65936 141.34071,10.49453 142.65939,10.49453 "
   id="polygon117"
   style="fill:#6e6e6e" />
		</g>
	</g>
	<g
   id="g133">
		<g
   id="g131">
			<g
   id="g127">
				<circle
   cx="23.00013"
   cy="373.00003"
   r="5.73633"
   id="circle123"
   style="fill:#bcbcbc" />
				<path
   d="m 23.00001,367.5275 c 3.01758,0 5.47253,2.45496 5.47253,5.47253 0,3.01757 -2.45496,5.47253 -5.47253,5.47253 -3.01757,0 -5.47253,-2.45496 -5.47253,-5.47253 0,-3.01757 2.45495,-5.47253 5.47253,-5.47253 m 0,-0.52747 c -3.31372,0 -6,2.68628 -6,6 0,3.31372 2.68628,6 6,6 3.31372,0 6,-2.68628 6,-6 0,-3.31372 -2.68628,-6 -6,-6 z"
   id="path125"
   inkscape:connector-curvature="0"
   style="fill:#808080" />
			</g>
			<polygon
   points="23.65939,373.65936 26.49456,373.65936 26.49456,372.3407 23.65939,372.3407 23.65939,369.50552 22.34071,369.50552 22.34071,372.3407 19.50554,372.3407 19.50554,373.65936 22.34071,373.65936 22.34071,376.49454 23.65939,376.49454 "
   id="polygon129"
   style="fill:#6e6e6e" />
		</g>
	</g>
	<g
   id="g145">
		<g
   id="g143">
			<g
   id="g139">
				<circle
   cx="142.00014"
   cy="373.00003"
   r="5.73633"
   id="circle135"
   style="fill:#bcbcbc" />
				<path
   d="m 142.00002,367.5275 c 3.01758,0 5.47253,2.45496 5.47253,5.47253 0,3.01757 -2.45496,5.47253 -5.47253,5.47253 -3.01757,0 -5.47253,-2.45496 -5.47253,-5.47253 0,-3.01757 2.45495,-5.47253 5.47253,-5.47253 m 0,-0.52747 c -3.31372,0 -6,2.68628 -6,6 0,3.31372 2.68628,6 6,6 3.31372,0 6,-2.68628 6,-6 0,-3.31372 -2.68628,-6 -6,-6 z"
   id="path137"
   inkscape:connector-curvature="0"
   style="fill:#808080" />
			</g>
			<polygon
   points="142.65939,373.65936 145.49455,373.65936 145.49455,372.3407 142.65939,372.3407 142.65939,369.50552 141.34071,369.50552 141.34071,372.3407 138.50554,372.3407 138.50554,373.65936 141.34071,373.65936 141.34071,376.49454 142.65939,376.49454 "
   id="polygon141"
   style="fill:#6e6e6e" />
		</g>
	</g>
</g>
<g
   id="serigraphy"
   transform="matrix(1.2799927,0,0,1.2799927,6.1144503e-4,-0.36393803)">
	<g
   id="g228">
		<g
   id="g160">
			<g
   id="g150">
				<path
   d="m 2.50001,23.8301 c -0.11035,0 -0.2207,-0.02051 -0.32031,-0.06055 C 2.08009,23.72951 1.99025,23.66994 1.91017,23.58986 1.83986,23.50978 1.77931,23.41994 1.72951,23.31935 1.68947,23.21974 1.66994,23.12013 1.66994,23.00978 c 0,-0.11035 0.01953,-0.21973 0.07031,-0.32031 0.03906,-0.09961 0.09961,-0.18945 0.16992,-0.26953 0.08008,-0.08008 0.16992,-0.13965 0.26953,-0.17969 0.20996,-0.08008 0.42969,-0.08008 0.63965,0 0.10059,0.04004 0.19043,0.09961 0.26074,0.17969 0.08008,0.08008 0.13965,0.16992 0.18945,0.26953 0.04004,0.10059 0.06055,0.20996 0.06055,0.32031 0,0.11035 -0.02051,0.20996 -0.06055,0.30957 -0.0498,0.10059 -0.10938,0.19043 -0.18945,0.27051 -0.07031,0.08008 -0.16016,0.13965 -0.26074,0.17969 -0.09961,0.04004 -0.20997,0.06055 -0.31934,0.06055 z"
   id="path148"
   inkscape:connector-curvature="0"
   style="fill:#e5e5e5" />
			</g>
			<g
   id="g154">
				<path
   d="m 13.20997,23.00979 c 0,-0.45996 0.37012,-0.83008 0.83008,-0.83008 v 0 c 0.45996,0 0.83008,0.37012 0.83008,0.83008 v 0 c 0,0.4502 -0.37012,0.82031 -0.83008,0.82031 v 0 c -0.45996,0 -0.83008,-0.37012 -0.83008,-0.82031 z m -5.77051,0 c 0,-0.45996 0.37012,-0.83008 0.83008,-0.83008 v 0 c 0.45996,0 0.83008,0.37012 0.83008,0.83008 v 0 c 0,0.4502 -0.37012,0.82031 -0.83008,0.82031 v 0 c -0.45996,0 -0.83008,-0.37012 -0.83008,-0.82031 z"
   id="path152"
   inkscape:connector-curvature="0"
   style="fill:#e5e5e5" />
			</g>
			<g
   id="g158">
				<path
   d="m 19.80958,23.8301 c -0.10938,0 -0.20996,-0.02051 -0.31934,-0.06055 -0.09082,-0.04004 -0.19043,-0.09961 -0.26074,-0.17969 -0.08008,-0.08008 -0.13965,-0.16992 -0.17969,-0.27051 -0.04004,-0.09961 -0.07031,-0.19922 -0.07031,-0.30957 0,-0.11035 0.03027,-0.21973 0.07031,-0.32031 0.04004,-0.09961 0.09961,-0.18945 0.17969,-0.26953 0.07031,-0.08008 0.16016,-0.13965 0.27051,-0.17969 0.2998,-0.13086 0.66992,-0.05078 0.89941,0.17969 0.08008,0.08008 0.14063,0.16992 0.18066,0.26953 0.04004,0.10059 0.05957,0.20996 0.05957,0.32031 0,0.11035 -0.01953,0.20996 -0.05957,0.30957 -0.04004,0.10059 -0.10059,0.19043 -0.18066,0.27051 -0.15918,0.16016 -0.37011,0.24024 -0.58984,0.24024 z"
   id="path156"
   inkscape:connector-curvature="0"
   style="fill:#e5e5e5" />
			</g>
		</g>
		<g
   id="g174">
			<g
   id="g164">
				<path
   d="m 145.72951,23.8301 c -0.12012,0 -0.21973,-0.02051 -0.31934,-0.06055 -0.10059,-0.04004 -0.19043,-0.09961 -0.27051,-0.17969 -0.0801,-0.08008 -0.13965,-0.16992 -0.17969,-0.27051 -0.04,-0.09961 -0.0606,-0.20996 -0.0606,-0.30957 0,-0.11035 0.0205,-0.21973 0.0606,-0.32031 0.04,-0.09961 0.0996,-0.18945 0.17969,-0.26953 0.0703,-0.08008 0.16992,-0.13965 0.27051,-0.17969 0.19922,-0.08008 0.42969,-0.08008 0.62988,0 0.0996,0.04004 0.2002,0.09961 0.26953,0.17969 0.0801,0.08008 0.14063,0.16992 0.18066,0.26953 0.0391,0.10059 0.0693,0.20996 0.0693,0.32031 0,0.09961 -0.0303,0.20996 -0.0693,0.30957 -0.04,0.10059 -0.10059,0.19043 -0.18066,0.27051 -0.0801,0.08008 -0.16992,0.13965 -0.26953,0.17969 -0.10058,0.04004 -0.20019,0.06055 -0.31054,0.06055 z"
   id="path162"
   inkscape:connector-curvature="0"
   style="fill:#e5e5e5" />
			</g>
			<g
   id="g168">
				<path
   d="m 156.08009,23.00979 c 0,-0.45996 0.37012,-0.83008 0.83008,-0.83008 v 0 c 0.44922,0 0.83008,0.37012 0.83008,0.83008 v 0 c 0,0.4502 -0.38086,0.82031 -0.83008,0.82031 v 0 c -0.45996,0 -0.83008,-0.37012 -0.83008,-0.82031 z m -5.58984,0 c 0,-0.45996 0.36914,-0.83008 0.8291,-0.83008 v 0 c 0.4502,0 0.83008,0.37012 0.83008,0.83008 v 0 c 0,0.4502 -0.37988,0.82031 -0.83008,0.82031 v 0 c -0.45996,0 -0.8291,-0.37012 -0.8291,-0.82031 z"
   id="path166"
   inkscape:connector-curvature="0"
   style="fill:#e5e5e5" />
			</g>
			<g
   id="g172">
				<path
   d="m 162.50002,23.8301 c -0.2207,0 -0.43066,-0.08008 -0.58984,-0.24023 -0.15039,-0.16016 -0.24023,-0.36035 -0.24023,-0.58008 0,-0.21973 0.0898,-0.42969 0.24023,-0.58984 0.0801,-0.08008 0.16992,-0.13965 0.26953,-0.17969 0.20996,-0.08008 0.42969,-0.08008 0.63965,0 0.10059,0.04004 0.19043,0.09961 0.27051,0.17969 0.0703,0.08008 0.12988,0.16992 0.16992,0.26953 0.0498,0.10059 0.0703,0.20996 0.0703,0.32031 0,0.21973 -0.0898,0.41992 -0.24023,0.58008 -0.16017,0.16015 -0.37013,0.24023 -0.58985,0.24023 z"
   id="path170"
   inkscape:connector-curvature="0"
   style="fill:#e5e5e5" />
			</g>
		</g>
		<g
   id="g180">
			<g
   id="g178">
				<path
   d="m 65.50977,198.39944 c -0.04004,-0.44922 0.30957,-0.84961 0.75977,-0.87988 v 0 0 0 c 0.45996,-0.04 0.86035,0.31055 0.89063,0.76074 v 0 c 0.0293,0.45996 -0.31055,0.85938 -0.77051,0.88965 v 0 c -0.01953,0 -0.04004,0 -0.05957,0 v 0 c -0.43067,0 -0.79004,-0.33008 -0.82032,-0.77051 z m -4.28027,0.1504 v 0 c -0.41992,-0.16992 -0.62988,-0.65039 -0.46973,-1.08008 v 0 c 0.16992,-0.41992 0.65039,-0.63965 1.08008,-0.46973 v 0 c 0.42969,0.16992 0.62988,0.64941 0.46973,1.08008 v 0 c -0.12988,0.31934 -0.43945,0.51953 -0.76953,0.51953 v 0 c -0.10059,0 -0.20996,-0.0195 -0.31055,-0.0498 z m 9.08984,-0.84961 c -0.10938,-0.4502 0.16016,-0.89063 0.60059,-1.01074 v 0 0 0 c 0.43945,-0.10938 0.88965,0.15039 1.00977,0.59082 v 0 c 0.11035,0.44922 -0.15039,0.89941 -0.58984,1.00977 h -0.0098 c -0.07031,0.0195 -0.14063,0.0293 -0.2002,0.0293 v 0 c -0.37012,-1e-5 -0.70996,-0.25001 -0.81055,-0.61915 z m 4.68067,-1.37012 c -0.14063,-0.43066 0.08984,-0.90039 0.51953,-1.0498 v 0 c 0.43066,-0.15039 0.90039,0.0791 1.0498,0.50977 v 0 c 0.15039,0.43945 -0.0791,0.91016 -0.50977,1.05957 v 0 c -0.08984,0.0303 -0.17969,0.04 -0.26953,0.04 v 0 c -0.35058,-10e-6 -0.66992,-0.21974 -0.79003,-0.55958 z m 4.58984,-1.64063 c -0.16016,-0.42969 0.05957,-0.90918 0.49023,-1.06934 v 0 c 0.41992,-0.16016 0.89941,0.0498 1.06934,0.47949 v 0 c 0.16016,0.43066 -0.05957,0.91016 -0.48926,1.07031 v 0 c -0.09082,0.04 -0.19043,0.0498 -0.29004,0.0498 v 0 c -0.34082,2e-5 -0.65039,-0.20018 -0.78027,-0.53026 z m 4.55957,-1.72949 c -0.14941,-0.42969 0.06055,-0.91016 0.49023,-1.07031 v 0 c 0.42969,-0.16016 0.91016,0.0606 1.07031,0.49023 v 0 c 0.16016,0.42969 -0.06055,0.90039 -0.49023,1.05957 v 0 c -0.08984,0.04 -0.19043,0.0606 -0.29004,0.0606 v 0 c -0.33007,0 -0.65039,-0.20996 -0.78027,-0.54004 z m 4.59082,-1.66015 c -0.14063,-0.44043 0.08984,-0.91016 0.5293,-1.0498 v 0 c 0.43066,-0.14063 0.90039,0.0898 1.04004,0.53027 v 0 c 0.15039,0.42969 -0.08984,0.89941 -0.51953,1.0498 v 0 c -0.08984,0.0195 -0.18066,0.04 -0.26074,0.04 v 0 c -0.34961,0 -0.66993,-0.22071 -0.78907,-0.57031 z m 14.62988,-0.53028 c -0.40039,-0.20996 -0.55078,-0.71973 -0.34082,-1.12012 v 0 c 0.21094,-0.39941 0.71094,-0.55957 1.12012,-0.33984 v 0 c 0.40039,0.20996 0.56055,0.70996 0.34082,1.11035 v 0 c -0.14063,0.29004 -0.43066,0.4502 -0.73047,0.4502 v 0 c -0.12988,0 -0.25976,-0.04 -0.38965,-0.10059 z m -9.95996,-0.87988 c -0.10059,-0.4502 0.17969,-0.88965 0.61914,-0.99023 v 0 c 0.4502,-0.0996 0.89063,0.16992 0.99023,0.62012 v 0 c 0.11035,0.4502 -0.16992,0.89063 -0.62012,0.99023 v 0 c -0.05957,0.0205 -0.12012,0.0205 -0.17969,0.0205 v 0 c -0.37987,-1e-5 -0.72948,-0.26075 -0.80956,-0.64063 z m 4.79981,-0.82031 c -0.0098,-0.45996 0.35938,-0.8291 0.81934,-0.83984 v 0 c 0.4502,0 0.83008,0.36035 0.84082,0.82031 v 0 c 0,0.45996 -0.36035,0.83008 -0.82031,0.83984 v 0 h -0.0098 v 0 c -0.4502,0 -0.82032,-0.35938 -0.83008,-0.82031 z"
   id="path176"
   inkscape:connector-curvature="0"
   style="fill:#e5e5e5" />
			</g>
		</g>
		<g
   id="g226">
			<path
   d="m 27.46632,20.45559 h 0.59082 v 0.83496 h 0.01953 c 0.21582,-0.58203 0.86328,-0.97656 1.54785,-0.97656 1.36035,0 1.77344,0.71387 1.77344,1.86816 v 3.11523 H 30.80714 V 22.2759 c 0,-0.83496 -0.27246,-1.46387 -1.22949,-1.46387 -0.93848,0 -1.50098,0.71289 -1.52051,1.66113 v 2.82422 h -0.59082 c 0,0 0,-4.84179 0,-4.84179 z"
   id="path182"
   inkscape:connector-curvature="0"
   style="fill:#e5e5e5" />
			<path
   d="m 32.86475,23.03567 c 0.0098,0.86328 0.45996,1.90527 1.5957,1.90527 0.86328,0 1.33203,-0.50684 1.51953,-1.23926 h 0.5918 c -0.25391,1.09863 -0.8916,1.73633 -2.11133,1.73633 -1.53906,0 -2.18652,-1.18262 -2.18652,-2.56152 0,-1.27637 0.64746,-2.5625 2.18652,-2.5625 1.55762,0 2.17676,1.36133 2.12988,2.72168 z m 3.13477,-0.49708 c -0.02832,-0.8916 -0.58203,-1.72656 -1.53906,-1.72656 -0.9668,0 -1.50195,0.84473 -1.5957,1.72656 z"
   id="path184"
   inkscape:connector-curvature="0"
   style="fill:#e5e5e5" />
			<path
   d="M 41.313,25.29738 H 40.76905 V 24.42433 H 40.7505 c -0.30957,0.64746 -0.94824,1.01367 -1.6709,1.01367 -1.21973,0 -1.69824,-0.71289 -1.69824,-1.83887 v -3.14354 h 0.59082 v 3.15234 c 0.02832,0.87305 0.35742,1.33301 1.29492,1.33301 1.01367,0 1.45508,-0.95703 1.45508,-1.94238 V 20.45559 H 41.313 Z"
   id="path186"
   inkscape:connector-curvature="0"
   style="fill:#e5e5e5" />
			<path
   d="m 43.37061,20.45559 h 0.98535 v 0.49707 h -0.98535 v 3.26563 c 0,0.38477 0.05664,0.61035 0.47949,0.6377 0.16895,0 0.33789,-0.0088 0.50586,-0.02734 v 0.50586 c -0.17773,0 -0.34668,0.01953 -0.52539,0.01953 -0.78809,0 -1.05957,-0.2627 -1.05078,-1.08887 v -3.3125 h -0.84473 v -0.49708 h 0.84473 v -1.45508 h 0.59082 c 0,0 0,1.45508 0,1.45508 z"
   id="path188"
   inkscape:connector-curvature="0"
   style="fill:#e5e5e5" />
			<path
   d="m 45.21241,20.45559 h 0.54395 v 1.13477 h 0.01855 c 0.30078,-0.77832 0.95703,-1.23828 1.83008,-1.20117 v 0.5918 c -1.07031,-0.05664 -1.80176,0.73145 -1.80176,1.73535 v 2.58105 h -0.59082 c 0,0 0,-4.8418 0,-4.8418 z"
   id="path190"
   inkscape:connector-curvature="0"
   style="fill:#e5e5e5" />
			<path
   d="m 52.33546,22.87649 c 0,1.38867 -0.80664,2.56152 -2.29004,2.56152 -1.48242,0 -2.28906,-1.17285 -2.28906,-2.56152 0,-1.38867 0.80664,-2.5625 2.28906,-2.5625 1.4834,0 2.29004,1.17382 2.29004,2.5625 z m -3.98828,0 c 0,1.03223 0.56348,2.06445 1.69824,2.06445 1.13574,0 1.69922,-1.03223 1.69922,-2.06445 0,-1.03222 -0.56348,-2.06445 -1.69922,-2.06445 -1.13477,-10e-6 -1.69824,1.03222 -1.69824,2.06445 z"
   id="path192"
   inkscape:connector-curvature="0"
   style="fill:#e5e5e5" />
			<path
   d="m 53.21046,20.45559 h 0.59082 v 0.83496 h 0.01953 c 0.21582,-0.58203 0.86328,-0.97656 1.54785,-0.97656 1.36035,0 1.77344,0.71387 1.77344,1.86816 v 3.11523 H 56.55128 V 22.2759 c 0,-0.83496 -0.27246,-1.46387 -1.22949,-1.46387 -0.93848,0 -1.50098,0.71289 -1.52051,1.66113 v 2.82422 h -0.59082 c 0,0 0,-4.84179 0,-4.84179 z"
   id="path194"
   inkscape:connector-curvature="0"
   style="fill:#e5e5e5" />
			<path
   d="m 60.87257,20.45559 h 0.54395 v 0.91895 h 0.01855 c 0.27246,-0.65625 0.94824,-1.06055 1.72656,-1.06055 1.47363,0 2.17773,1.19238 2.17773,2.5625 0,1.37012 -0.7041,2.56152 -2.17773,2.56152 -0.72266,0 -1.42578,-0.36621 -1.67969,-1.06055 h -0.01855 v 2.71191 h -0.59082 c -1e-5,0 -1e-5,-6.63378 0,-6.63378 z m 2.28906,0.35644 c -1.30371,0 -1.69824,0.96582 -1.69824,2.06445 0,1.00391 0.44141,2.06445 1.69824,2.06445 1.12598,0 1.58594,-1.06055 1.58594,-2.06445 0,-1.0039 -0.45996,-2.06445 -1.58594,-2.06445 z"
   id="path196"
   inkscape:connector-curvature="0"
   style="fill:#e5e5e5" />
			<path
   d="m 70.5962,22.87649 c 0,1.38867 -0.80664,2.56152 -2.29004,2.56152 -1.48242,0 -2.28906,-1.17285 -2.28906,-2.56152 0,-1.38867 0.80664,-2.5625 2.28906,-2.5625 1.4834,0 2.29004,1.17382 2.29004,2.5625 z m -3.98828,0 c 0,1.03223 0.56348,2.06445 1.69824,2.06445 1.13574,0 1.69922,-1.03223 1.69922,-2.06445 0,-1.03222 -0.56348,-2.06445 -1.69922,-2.06445 -1.13477,-10e-6 -1.69824,1.03222 -1.69824,2.06445 z"
   id="path198"
   inkscape:connector-curvature="0"
   style="fill:#e5e5e5" />
			<path
   d="m 70.99268,20.45559 h 0.62891 l 1.23828,4.14746 h 0.01855 l 1.18262,-4.14746 h 0.66602 l 1.18262,4.14746 h 0.01855 l 1.23926,-4.14746 h 0.62891 l -1.55762,4.8418 h -0.64844 l -1.19141,-4.07227 h -0.01855 l -1.18262,4.07227 H 72.5503 Z"
   id="path200"
   inkscape:connector-curvature="0"
   style="fill:#e5e5e5" />
			<path
   d="m 78.78468,23.03567 c 0.0098,0.86328 0.45996,1.90527 1.5957,1.90527 0.86328,0 1.33203,-0.50684 1.51953,-1.23926 h 0.5918 c -0.25391,1.09863 -0.8916,1.73633 -2.11133,1.73633 -1.53906,0 -2.18652,-1.18262 -2.18652,-2.56152 0,-1.27637 0.64746,-2.5625 2.18652,-2.5625 1.55762,0 2.17676,1.36133 2.12988,2.72168 z m 3.13476,-0.49708 c -0.02832,-0.8916 -0.58203,-1.72656 -1.53906,-1.72656 -0.9668,0 -1.50195,0.84473 -1.5957,1.72656 z"
   id="path202"
   inkscape:connector-curvature="0"
   style="fill:#e5e5e5" />
			<path
   d="M 83.31104,20.45559 H 83.855 v 1.13477 h 0.01855 c 0.30078,-0.77832 0.95703,-1.23828 1.83008,-1.20117 v 0.5918 c -1.07031,-0.05664 -1.80176,0.73145 -1.80176,1.73535 v 2.58105 h -0.59082 v -4.8418 z"
   id="path204"
   inkscape:connector-curvature="0"
   style="fill:#e5e5e5" />
			<path
   d="m 86.44581,23.03567 c 0.0098,0.86328 0.45996,1.90527 1.5957,1.90527 0.86328,0 1.33203,-0.50684 1.51953,-1.23926 h 0.5918 c -0.25391,1.09863 -0.8916,1.73633 -2.11133,1.73633 -1.53906,0 -2.18652,-1.18262 -2.18652,-2.56152 0,-1.27637 0.64746,-2.5625 2.18652,-2.5625 1.55762,0 2.17676,1.36133 2.12988,2.72168 z m 3.13476,-0.49708 c -0.02832,-0.8916 -0.58203,-1.72656 -1.53906,-1.72656 -0.9668,0 -1.50195,0.84473 -1.5957,1.72656 z"
   id="path206"
   inkscape:connector-curvature="0"
   style="fill:#e5e5e5" />
			<path
   d="M 95.23194,25.29738 H 94.688 v -0.91992 h -0.01855 c -0.25391,0.62891 -1.02344,1.06055 -1.72656,1.06055 -1.47363,0 -2.17773,-1.19141 -2.17773,-2.56152 0,-1.37011 0.7041,-2.5625 2.17773,-2.5625 0.72168,0 1.42578,0.36621 1.67969,1.06055 h 0.01855 v -2.77735 h 0.59082 c 0,0 0,6.70019 -1e-5,6.70019 z m -2.28906,-0.35644 c 1.25684,0 1.69824,-1.06055 1.69824,-2.06445 0,-1.0039 -0.44141,-2.06445 -1.69824,-2.06445 -1.12695,0 -1.58594,1.06055 -1.58594,2.06445 0,1.0039 0.45899,2.06445 1.58594,2.06445 z"
   id="path208"
   inkscape:connector-curvature="0"
   style="fill:#e5e5e5" />
			<path
   d="m 101.58155,20.45559 h 0.54395 v 0.8164 h 0.0283 c 0.30957,-0.58203 0.81641,-0.95801 1.58594,-0.95801 0.6377,0 1.20996,0.31055 1.38867,0.94824 0.29102,-0.6377 0.90039,-0.94824 1.53906,-0.94824 1.06055,0 1.60449,0.55371 1.60449,1.69922 v 3.28418 h -0.59082 v -3.25586 c 0,-0.79785 -0.30078,-1.22949 -1.14551,-1.22949 -1.02246,0 -1.31348,0.84473 -1.31348,1.74512 v 2.74023 h -0.59082 V 22.0132 c 0.009,-0.65723 -0.2627,-1.20117 -1.01367,-1.20117 -1.02344,0 -1.43555,0.76953 -1.44531,1.78223 v 2.70313 h -0.59082 c 1e-5,0 1e-5,-4.8418 0,-4.8418 z"
   id="path210"
   inkscape:connector-curvature="0"
   style="fill:#e5e5e5" />
			<path
   d="m 113.73682,22.87649 c 0,1.38867 -0.80664,2.56152 -2.29004,2.56152 -1.48242,0 -2.28906,-1.17285 -2.28906,-2.56152 0,-1.38867 0.80664,-2.5625 2.28906,-2.5625 1.4834,0 2.29004,1.17382 2.29004,2.5625 z m -3.98828,0 c 0,1.03223 0.56348,2.06445 1.69824,2.06445 1.13574,0 1.69922,-1.03223 1.69922,-2.06445 0,-1.03222 -0.56348,-2.06445 -1.69922,-2.06445 -1.13476,-10e-6 -1.69824,1.03222 -1.69824,2.06445 z"
   id="path212"
   inkscape:connector-curvature="0"
   style="fill:#e5e5e5" />
			<path
   d="m 114.62159,20.45559 h 0.54395 v 1.13477 h 0.0186 c 0.30078,-0.77832 0.95703,-1.23828 1.83008,-1.20117 v 0.5918 c -1.07031,-0.05664 -1.80176,0.73145 -1.80176,1.73535 v 2.58105 h -0.59082 z"
   id="path214"
   inkscape:connector-curvature="0"
   style="fill:#e5e5e5" />
			<path
   d="m 117.57862,20.45559 h 0.54395 v 0.91895 h 0.0186 c 0.27246,-0.65625 0.94824,-1.06055 1.72656,-1.06055 1.47363,0 2.17773,1.19238 2.17773,2.5625 0,1.37012 -0.7041,2.56152 -2.17773,2.56152 -0.72266,0 -1.42578,-0.36621 -1.67969,-1.06055 h -0.0186 v 2.71191 h -0.59082 c 1e-5,0 1e-5,-6.63378 0,-6.63378 z m 2.28906,0.35644 c -1.30371,0 -1.69824,0.96582 -1.69824,2.06445 0,1.00391 0.44141,2.06445 1.69824,2.06445 1.12598,0 1.58594,-1.06055 1.58594,-2.06445 0,-1.0039 -0.45996,-2.06445 -1.58594,-2.06445 z"
   id="path216"
   inkscape:connector-curvature="0"
   style="fill:#e5e5e5" />
			<path
   d="m 122.95753,18.59719 h 0.59082 v 2.69336 h 0.0195 c 0.21582,-0.58203 0.86328,-0.97656 1.54785,-0.97656 1.36035,0 1.77344,0.71387 1.77344,1.86816 v 3.11523 h -0.59082 V 22.2759 c 0,-0.83496 -0.27246,-1.46387 -1.22949,-1.46387 -0.93848,0 -1.50098,0.71289 -1.52051,1.66113 v 2.82422 h -0.59082 z"
   id="path218"
   inkscape:connector-curvature="0"
   style="fill:#e5e5e5" />
			<path
   d="m 128.01808,18.59719 h 0.5918 v 0.94727 h -0.5918 z m 0,1.8584 h 0.5918 v 4.8418 h -0.5918 z"
   id="path220"
   inkscape:connector-curvature="0"
   style="fill:#e5e5e5" />
			<path
   d="m 129.73683,20.45559 h 0.59082 v 0.83496 h 0.0195 c 0.21582,-0.58203 0.86328,-0.97656 1.54785,-0.97656 1.36035,0 1.77344,0.71387 1.77344,1.86816 v 3.11523 h -0.59082 V 22.2759 c 0,-0.83496 -0.27246,-1.46387 -1.22949,-1.46387 -0.93848,0 -1.50098,0.71289 -1.52051,1.66113 v 2.82422 h -0.59082 z"
   id="path222"
   inkscape:connector-curvature="0"
   style="fill:#e5e5e5" />
			<path
   d="m 138.87941,24.90285 c -0.009,1.44531 -0.5625,2.32813 -2.14844,2.32813 -0.9668,0 -1.92383,-0.43164 -2.00879,-1.46484 h 0.5918 c 0.13086,0.71387 0.75977,0.9668 1.41699,0.9668 1.08789,0 1.55762,-0.64746 1.55762,-1.83008 v -0.65625 h -0.0186 c -0.27246,0.59082 -0.84473,0.99414 -1.53906,0.99414 -1.54883,0 -2.18652,-1.10742 -2.18652,-2.48633 0,-1.33301 0.78809,-2.44043 2.18652,-2.44043 0.70313,0 1.30371,0.44141 1.53906,0.97656 h 0.0186 v -0.83496 h 0.59082 z m -0.59082,-2.08301 c 0,-0.94727 -0.44141,-2.00781 -1.55762,-2.00781 -1.12598,0 -1.5957,1.00391 -1.5957,2.00781 0,0.97559 0.50684,1.92383 1.5957,1.92383 1.02246,0 1.55762,-0.93847 1.55762,-1.92383 z"
   id="path224"
   inkscape:connector-curvature="0"
   style="fill:#e5e5e5" />
		</g>
	</g>
</g>
</svg>