<?xml version="1.0" encoding="utf-8"?>
<!-- Generator: Adobe Illustrator 23.0.3, SVG Export Plug-In . SVG Version: 6.00 Build 0)  -->
<svg version="1.0" id="Layer_1" xmlns="http://www.w3.org/2000/svg" xmlns:xlink="http://www.w3.org/1999/xlink" x="0px" y="0px"
	 viewBox="0 0 165 380" enable-background="new 0 0 165 380" xml:space="preserve">
<g id="bg">
	
		<linearGradient id="SVGID_1_" gradientUnits="userSpaceOnUse" x1="-53.09117" y1="324.5668" x2="214.62535" y2="56.8503" gradientTransform="matrix(1 0 0 -1 0 379.88977)">
		<stop  offset="0.38537" style="stop-color:#FFCC9E"/>
		<stop  offset="0.62112" style="stop-color:#F1AD8C"/>
		<stop  offset="0.85662" style="stop-color:#E6947E"/>
		<stop  offset="1" style="stop-color:#E28B79"/>
	</linearGradient>
	<rect x="0.36391" y="1.86786" fill="url(#SVGID_1_)" width="160.80637" height="374.62668"/>
	<g>
		<path fill="#252626" d="M51.49609,9.4619c0-0.14355-0.09961-0.34277-0.23145-0.34277h-0.99512v0.69629h0.99512
			C51.39648,9.81542,51.49609,9.60546,51.49609,9.4619z"/>
		<polygon fill="#252626" points="107.03516,353.05859 107.05176,351.93359 106.28906,352.76172 		"/>
		<polygon fill="#252626" points="30.68555,221.14648 29.93848,221.98926 30.69043,222.27246 		"/>
		<path fill="#252626" d="M49.05664,37.56835c0.78613-0.12988,1.32227-0.87598,1.19238-1.66797
			c-0.13086-0.79785-0.87891-1.33398-1.66504-1.20508c-0.78516,0.12891-1.32129,0.87598-1.18945,1.67383
			C47.52344,37.1621,48.27051,37.69726,49.05664,37.56835z"/>
		<path fill="#252626" d="M104.05469,349.76367l-0.60059-0.43262l-0.36621,0.50684l0.59961,0.43359
			c0.13867,0.09863,0.32813,0.06348,0.42773-0.07422C104.21484,350.06055,104.1875,349.86035,104.05469,349.76367z"/>
		<polygon fill="#252626" points="92.54199,10.27929 92.16602,11.42772 92.90625,11.42772 		"/>
		<path fill="#252626" d="M110.47266,320.27148c0.02637,0.17285,0.19238,0.29004,0.36035,0.26367l0.75-0.11621l-0.09668-0.625
			l-0.75,0.11719C110.56836,319.93652,110.44531,320.09668,110.47266,320.27148z"/>
		<polygon fill="#252626" points="107.9043,35.92675 107.85645,37.04882 108.61621,36.79589 		"/>
		<path fill="#252626" d="M103.69629,9.4619c0-0.15527-0.11035-0.35352-0.26465-0.35352h-1.0166v0.70703h1.0166
			C103.58594,9.81542,103.69629,9.6162,103.69629,9.4619z"/>
		<path fill="#252626" d="M51.77637,352.43945c-0.7959,0.02832-1.42383,0.70215-1.39453,1.51074
			c0.02832,0.80176,0.70215,1.42969,1.49902,1.40039c0.7959-0.02734,1.42285-0.70215,1.39453-1.50391
			C53.24609,353.03809,52.57227,352.41113,51.77637,352.43945z"/>
		<path fill="#252626" d="M11.13477,225.45605l-0.5127,0.55957l0.46582,0.42676l0.51172-0.55957
			c0.11426-0.12598,0.11035-0.32715-0.02051-0.44629C11.4502,225.31836,11.24902,225.33008,11.13477,225.45605z"/>
		<path fill="#252626" d="M67.81836,330.81738c0.73633-0.31934,1.07422-1.17578,0.75781-1.90527
			c-0.31641-0.73047-1.17285-1.06934-1.9082-0.75c-0.74121,0.32129-1.0791,1.17676-0.76367,1.90723
			C66.22168,330.7998,67.07617,331.1377,67.81836,330.81738z"/>
		<path fill="#252626" d="M20.78027,219.77148c-0.77832,0.16406-1.28125,0.93359-1.11523,1.72461
			c0.16504,0.78418,0.93457,1.28711,1.71289,1.12305c0.7793-0.16211,1.28125-0.93262,1.11719-1.7168
			C22.3291,220.1123,21.55859,219.60938,20.78027,219.77148z"/>
		<path fill="#252626" d="M110.89746,70.31347l0.75195,0.11133l0.0918-0.625l-0.75-0.11035
			c-0.16895-0.02539-0.33301,0.09082-0.35938,0.26563C110.60645,70.12988,110.73047,70.28905,110.89746,70.31347z"/>
		<path fill="#252626" d="M7.30664,233.36816c-0.16699-0.03418-0.33691,0.07422-0.37012,0.23438l-0.14746,0.72656l0.61426,0.125
			l0.14746-0.72656C7.58398,233.56055,7.47363,233.40137,7.30664,233.36816z"/>
		<path fill="#252626" d="M97.61816,331.32422c0.16699,0.05664,0.3457-0.03613,0.40137-0.19629l0.24707-0.71777l-0.59668-0.2041
			l-0.24805,0.71582C97.36719,331.08301,97.45215,331.2666,97.61816,331.32422z"/>
		<path fill="#252626" d="M62.84961,64.79296c0.54785,0.51758,1.42773,0.47949,1.96289-0.08594l0.44238-0.46875l-1.98828-1.87891
			l-0.44238,0.46777C62.28906,63.39354,62.30078,64.27538,62.84961,64.79296z"/>
		<polygon fill="#252626" points="136.32422,168.81152 136.9375,167.86621 136.15234,167.69824 		"/>
		<path fill="#252626" d="M155.02148,161.65039l0.42285-0.62988l-0.52441-0.35254l-0.42285,0.62988
			c-0.09473,0.14063-0.05957,0.33887,0.08594,0.4375S154.92578,161.79102,155.02148,161.65039z"/>
		<path fill="#252626" d="M146.32324,168.70117c0.74609-0.27637,1.12891-1.1123,0.84766-1.86914
			c-0.2793-0.75195-1.11426-1.13477-1.86035-0.85742c-0.74609,0.27637-1.12891,1.1123-0.84961,1.86328
			C144.74316,168.5957,145.57715,168.97754,146.32324,168.70117z"/>
		<path fill="#252626" d="M157.34082,152.96289c-0.00879,0.16992,0.12402,0.31055,0.29492,0.31836
			c0.16895,0.00879,0.32227-0.12305,0.33105-0.28711l0.03711-0.73926l-0.625-0.0332L157.34082,152.96289z"/>
		<path fill="#252626" d="M96.54785,57.71874c-0.16797,0.05469-0.25684,0.2373-0.2041,0.39941l0.23242,0.72363l0.60156-0.19434
			l-0.23145-0.72363C96.89355,57.76171,96.71582,57.66601,96.54785,57.71874z"/>
		<path fill="#252626" d="M103.96484,37.20116l-0.62207,0.4043l0.34082,0.52539l0.62109-0.4043
			c0.14355-0.0918,0.17969-0.28223,0.08691-0.4248C104.29883,37.15819,104.10254,37.11229,103.96484,37.20116z"/>
		<path fill="#252626" d="M61.36523,322.14746c-0.47461,0.58594-0.36914,1.46191,0.23633,1.95117l0.50098,0.40527l1.7207-2.12695
			l-0.50098-0.40625C62.71777,321.48242,61.83887,321.56152,61.36523,322.14746z"/>
		<path fill="#252626" d="M67.22266,58.32616c0.78027,0.20996,1.57813-0.24805,1.78516-1.01758
			c0.20801-0.76855-0.25-1.56738-1.03125-1.77734c-0.77441-0.20898-1.57227,0.25-1.7793,1.01758
			C65.98926,57.31835,66.44727,58.1162,67.22266,58.32616z"/>
		<path fill="#252626" d="M113.65399,261.55823c0-7.10272,4.98279-13.03296,11.64099-14.50983
			c-0.66565-1.95758-1.45941-3.85522-2.3761-5.68256c-2.18958,1.26874-4.72485,2.00677-7.43756,2.00677
			c-8.21368,0-14.87219-6.65851-14.87219-14.87213c0-2.70081,0.73108-5.22601,1.98944-7.40906
			c-1.8205-0.90796-3.71088-1.69305-5.65991-2.35211c-1.48065,6.65308-7.4082,11.63092-14.50726,11.63092
			c-7.08368,0-12.99957-4.95679-14.49634-11.58813c-1.9209,0.65594-3.78412,1.43488-5.57947,2.33282
			c1.24976,2.17755,1.97491,4.69434,1.97491,7.38507c0,8.21368-6.65851,14.87219-14.87219,14.87219
			c-2.69336,0-5.21234-0.72668-7.39136-1.9787c-0.91083,1.81879-1.69965,3.70721-2.36194,5.65485
			c6.6582,1.47681,11.64099,7.40717,11.64099,14.50989c0,7.10278-4.98291,13.03314-11.64117,14.50995
			c0.65369,1.92236,1.42981,3.78741,2.32574,5.58441c2.19684-1.28033,4.74335-2.02612,7.46942-2.02612
			c8.21368,0,14.87219,6.65845,14.87219,14.87213c0,2.73517-0.7511,5.28943-2.03937,7.49121
			c1.81958,0.91132,3.70886,1.70056,5.65741,2.36304c1.47699-6.65796,7.40717-11.64063,14.50977-11.64063
			s13.03284,4.98267,14.50983,11.64063c1.94159-0.66016,3.8244-1.44586,5.63794-2.35309
			c-1.29193-2.20404-2.04541-4.76184-2.04541-7.50116c0-8.21368,6.65851-14.87213,14.87219-14.87213
			c2.73419,0,5.28754,0.75049,7.48883,2.0379c0.89844-1.8006,1.6767-3.66956,2.33179-5.59619
			C118.6369,274.59137,113.65399,268.66101,113.65399,261.55823z"/>
		<path fill="#252626" d="M7.3559,151.75977c-0.1582-0.04004-0.32129,0.05469-0.375,0.21582l-0.19922,0.7627l0.59375,0.15527
			l0.19727-0.7627C7.61566,151.96582,7.5141,151.80273,7.3559,151.75977z"/>
		<path fill="#252626" d="M14.79926,195.31152c0.16992-0.04785,0.26563-0.22559,0.21875-0.38965l-0.20703-0.73242l-0.6084,0.17188
			l0.20605,0.73145C14.45551,195.25586,14.62933,195.35938,14.79926,195.31152z"/>
		<path fill="#252626" d="M149.56,187.25781c-0.44922-0.65723-1.35254-0.82813-2.02051-0.37109
			c-0.66211,0.45313-0.83203,1.35547-0.38281,2.01367c0.44922,0.65723,1.35352,0.82813,2.01563,0.375
			C149.84027,188.81934,150.01019,187.91602,149.56,187.25781z"/>
		<polygon fill="#252626" points="139.01019,180.57227 138.3559,181.48828 139.13324,181.69141 		"/>
		<path fill="#252626" d="M124.85004,182.75293c-0.09766-0.14551-0.29688-0.17871-0.4375-0.08398l-0.62695,0.42578l0.35156,0.52246
			l0.62891-0.42578C124.90668,183.09668,124.94965,182.89844,124.85004,182.75293z"/>
		<path fill="#252626" d="M34.89301,209.05664c0.77539-0.18359,1.25879-0.96484,1.07422-1.74609
			c-0.18555-0.78711-0.96777-1.26953-1.74219-1.08594c-0.77539,0.18164-1.25977,0.96484-1.07324,1.75195
			C33.33539,208.75684,34.11957,209.24023,34.89301,209.05664z"/>
		<polygon fill="#252626" points="140.04047,245.45898 139.26312,246.26953 140.00043,246.58203 		"/>
		<path fill="#252626" d="M9.21332,151.58496c-0.34082-0.08887-0.70215,0.11816-0.79688,0.45801l-0.27246,1.0498l1.28027,0.33301
			l0.27148-1.04492C9.77386,152.03125,9.55902,151.6748,9.21332,151.58496z"/>
		<path fill="#252626" d="M157.68402,239.15039c-0.31836-0.14941-0.71191-0.01074-0.86621,0.30566l-0.45996,0.98535l1.20117,0.56055
			l0.45605-0.98047C158.1557,239.69238,158.00922,239.30176,157.68402,239.15039z"/>
		<polygon fill="#252626" points="23.03168,205.4834 22.19379,206.23145 22.90472,206.59961 		"/>
		<path fill="#252626" d="M0-0.00001v380h165v-380H0z M156.70508,156.52246l-0.53223,1.69141l-0.77051-0.24219l0.53223-1.69238
			l-1.22852-0.38672l-0.59473,1.88867l-0.76465-0.23926l0.83789-2.66602l4.12695,1.29688l-0.85547,2.71875l-0.75293-0.23633
			l0.61133-1.94141L156.70508,156.52246z M157.59375,154.0957c-0.61328-0.03223-1.0791-0.56055-1.04785-1.17383l0.03809-0.74023
			l-2.10645-0.1084l0.04199-0.80664l4.32129,0.22168l-0.0791,1.54688c-0.01563,0.29785-0.14453,0.57129-0.36816,0.77344
			C158.1709,154.00391,157.89063,154.11035,157.59375,154.0957z M158.14844,146.72266l-2.63867,0.59375
			c-0.47363,0.10742-0.77832,0.58105-0.67285,1.0498c0.10742,0.47363,0.58398,0.76563,1.05762,0.6582l2.63867-0.59375
			l0.17871,0.79297l-2.63867,0.59473c-0.43848,0.09961-0.8916,0.02051-1.27051-0.21777
			c-0.37891-0.24512-0.64453-0.62109-0.74316-1.05957c-0.2041-0.90723,0.36523-1.80859,1.27344-2.0127l2.6377-0.59473
			L158.14844,146.72266z M152.42676,142.94043l0.0332-0.15137l0.79199,0.16895l-0.0332,0.15137
			c-0.0752,0.36328-0.06738,0.71387,0.02832,1.00781l0.00293,0.00586c0.02832,0.08789,0.0625,0.17383,0.10742,0.25293
			c0.07422,0.13281,0.16895,0.24023,0.27441,0.31445c0.12402,0.09668,0.32422,0.17969,0.54102,0.05859
			c0.11621-0.06543,0.17383-0.1748,0.18066-0.33789c0.00586-0.19824-0.05957-0.42773-0.11328-0.58496
			c-0.02539-0.07031-0.21582-0.67383-0.21875-1c0.00879-0.22168,0.06445-0.41992,0.16309-0.59375
			c0.10254-0.17578,0.24902-0.3125,0.43457-0.41797c0.20117-0.1123,0.43848-0.16113,0.69141-0.14453
			c0.21973,0.03125,0.43652,0.11914,0.63379,0.25977s0.36328,0.3252,0.49219,0.55371
			c0.0498,0.08984,0.09375,0.19141,0.13574,0.29297c0.13379,0.38477,0.16699,0.81836,0.08203,1.26465l-0.02832,0.14746
			l-0.79883-0.14453l0.02832-0.14746c0.08789-0.50293-0.01563-0.83594-0.12207-1.02734
			c-0.06836-0.12109-0.1582-0.21777-0.25293-0.29004c-0.15332-0.10938-0.33301-0.13281-0.46094-0.06152
			c-0.11719,0.06445-0.16602,0.15039-0.17969,0.28906c-0.0127,0.13867,0.02051,0.32227,0.10449,0.5957
			c0.0127,0.03516,0.02539,0.08301,0.03906,0.13184c0.08301,0.24609,0.18555,0.5791,0.17969,0.85449
			c0.00488,0.23438-0.0498,0.44629-0.15039,0.62793c-0.09961,0.18164-0.25293,0.33105-0.44434,0.4375
			c-0.23926,0.13379-0.48633,0.18848-0.7373,0.16309c-0.21777-0.02441-0.44238-0.11523-0.66992-0.27246
			c-0.19922-0.13281-0.3584-0.31641-0.50391-0.5752c-0.06836-0.12207-0.12305-0.25879-0.17188-0.40527
			C152.34473,143.92578,152.32227,143.4375,152.42676,142.94043z M145.03125,165.22266
			c1.16699-0.43359,2.46973,0.15918,2.90332,1.3252c0.43457,1.17285-0.16309,2.47754-1.33008,2.91113
			c-1.17285,0.43457-2.47656-0.16211-2.91211-1.33594C143.25879,166.95605,143.8584,165.65723,145.03125,165.22266z
			 M146.49261,189.35352c-0.70215-1.02832-0.44141-2.43652,0.58594-3.14063c1.03516-0.70508,2.44727-0.44043,3.15039,0.58984
			c0.70605,1.0332,0.44141,2.44336-0.59375,3.15039C148.60687,190.65625,147.19965,190.38672,146.49261,189.35352z
			 M148.38519,215.02344c0.16992,0.4209-0.0293,0.90039-0.4502,1.08008c-0.09961,0.04004-0.20996,0.06055-0.31934,0.06055
			c-0.32031,0-0.62988-0.19043-0.77051-0.50977c-0.16992-0.4209,0.03027-0.90039,0.4502-1.08008
			C147.71527,214.39355,148.20551,214.59375,148.38519,215.02344z M138.66058,246.88477l-0.86719,0.89844l-0.7998-0.33789
			l3.21387-3.33301l0.67676,0.28613l-0.14551,4.62988l-0.80469-0.33984l0.04492-1.24609L138.66058,246.88477z M135.69336,170.0127
			l-0.72754-4.58496l0.85645,0.18359l0.18945,1.23535l1.40332,0.30078l0.68457-1.04688l0.85059,0.18262l-2.53809,3.88379
			L135.69336,170.0127z M138.98285,179.21289l0.71094,0.1875l0.52539,4.61133l-0.84766-0.22266l-0.13477-1.24121l-1.38867-0.36328
			l-0.73047,1.0166l-0.8418-0.21973L138.98285,179.21289z M135.98285,178.69531l0.00391,0.80273l-1.0625,0.00684l0.02246,3.52246
			l-0.81543,0.00488l-0.02148-3.52246l-1.0625,0.00781l-0.00586-0.80273L135.98285,178.69531z M133.39398,224.1748l1.94238,1.87988
			c0.34961,0.33789,0.91309,0.33398,1.24609-0.01172c0.33789-0.34961,0.31934-0.90723-0.0293-1.24609l-1.94238-1.87891
			l0.56738-0.58594l1.94141,1.88086c0.32324,0.3125,0.50684,0.73438,0.5127,1.18164
			c0.00293,0.45117-0.16504,0.87891-0.47852,1.20215c-0.64648,0.66797-1.71094,0.68457-2.37891,0.03809l-1.94336-1.87891
			L133.39398,224.1748z M138.38715,222.03516l1.17676,2.58203l-0.74023,0.33691l-1.79395-3.93555l0.71777-0.32715l2.91602,1.78223
			l-1.17383-2.5752l0.74023-0.33789l1.79395,3.93555l-0.71387,0.32422L138.38715,222.03516z M141.94574,185.02441l-0.71582-0.39258
			l1.7002-3.08887l-0.93262-0.5127l0.3877-0.70215l2.57617,1.41797l-0.38574,0.70215l-0.93262-0.5127L141.94574,185.02441z
			 M142.47504,206.74414c0.37012-0.28027,0.88086-0.20996,1.1709,0.14941c0.2793,0.36035,0.20996,0.87988-0.15039,1.16016
			c-0.15039,0.12012-0.33008,0.17969-0.50977,0.17969c-0.25,0-0.49023-0.10938-0.65039-0.3291
			C142.05511,207.54395,142.11566,207.02344,142.47504,206.74414z M143.31,219.00781l0.57227,4.28711l-0.80664,0.10742
			l-0.57324-4.28711L143.31,219.00781z M143.79437,186.30957l2.83398-3.27246l0.61621,0.5332l-2.83398,3.27148L143.79437,186.30957z
			 M142.02637,170.43066l-1.29395-2.96387l-1.03027,3.06836l-0.86719,0.03906l1.46875-4.39551l0.73438-0.0332l1.8623,4.24609
			L142.02637,170.43066z M140.91406,70.76659c-0.16211,0.16113-0.37402,0.24219-0.58594,0.24219s-0.42383-0.08105-0.58594-0.24219
			c-4.02832-4.03027-8.49512-7.64063-13.27637-10.7334c-0.38379-0.24805-0.49414-0.76074-0.24512-1.14551
			s0.76074-0.49219,1.14551-0.24512c4.87793,3.15527,9.43652,6.83984,13.54785,10.95215
			C141.2373,69.91895,141.2373,70.44335,140.91406,70.76659z M125.76801,186.02051l-0.6543,0.44434l-2.42578-3.58008
			l1.28125-0.86914c0.24023-0.16406,0.53125-0.22266,0.82617-0.16504c0.29688,0.05664,0.54492,0.21777,0.70898,0.45898
			c0.24219,0.35645,0.25,0.82129,0.04102,1.18457l2.57616,0.92969l-0.79492,0.54004l-2.45898-0.8877l-0.28613,0.19434
			L125.76801,186.02051z M83.02057,174.34131v-1.65625c24.68188-0.28131,44.67767-20.43774,44.67767-45.18507
			c0-24.92188-20.27637-45.19824-45.19824-45.19824s-45.19824,20.27637-45.19824,45.19824
			c0,24.74732,19.99573,44.90376,44.67773,45.18507v1.65625c-25.59601-0.28137-46.33398-21.17993-46.33398-46.84132
			c0-25.83594,21.01855-46.85449,46.85449-46.85449s46.85449,21.01855,46.85449,46.85449
			C129.35449,153.16138,108.61652,174.05988,83.02057,174.34131z M120.39594,194.22363
			c-0.05078,0.41992-0.41016,0.73047-0.82031,0.73047c-0.04004,0-0.07031,0-0.10059,0
			c-0.45996-0.06055-0.7793-0.4707-0.72949-0.91992c0.05957-0.45996,0.46973-0.78027,0.91992-0.73047
			C120.12543,193.36426,120.44574,193.77344,120.39594,194.22363z M115.80511,193.87402c0,0.45996-0.37012,0.83008-0.81934,0.83984
			h-0.01074c-0.44922,0-0.81934-0.36035-0.8291-0.82031c-0.01074-0.45996,0.35938-0.83008,0.81934-0.83008v-0.00977
			C115.42523,193.05371,115.79535,193.41406,115.80511,193.87402z M101.87543,197.51367
			c-0.11035,0.04004-0.21973,0.07031-0.33008,0.07031c-0.32031,0-0.62988-0.19043-0.75977-0.5
			c-0.17969-0.41992,0.00977-0.91016,0.42969-1.08984c0.41992-0.19043,0.91016,0.00977,1.08984,0.42969
			C102.48578,196.84375,102.29535,197.32422,101.87543,197.51367z M97.87543,199.56348
			c-0.12988,0.08008-0.28027,0.12012-0.41992,0.12012c-0.28027,0-0.55957-0.13965-0.70996-0.39941
			c-0.24023-0.39063-0.11035-0.90039,0.28027-1.14063c0.38965-0.22949,0.89941-0.09961,1.13965,0.29004
			C98.39594,198.82422,98.26508,199.33398,97.87543,199.56348z M94.185,202.13379c-0.14941,0.12012-0.3291,0.17969-0.50977,0.17969
			c-0.25,0-0.49023-0.09961-0.64941-0.30957c-0.29004-0.36035-0.23047-0.87988,0.12988-1.16016
			c0.35938-0.29004,0.87988-0.22949,1.16992,0.12988C94.6059,201.32422,94.54535,201.85352,94.185,202.13379z M82.5,142.37219
			c-8.21368,0-14.87213-6.65851-14.87213-14.87214c0-8.21368,6.65845-14.87219,14.87213-14.87219
			s14.87219,6.65851,14.87219,14.87219C97.37219,135.71368,90.71368,142.37219,82.5,142.37219z M75.20844,185.09375
			c-0.31055,0.33008-0.83984,0.33984-1.16992,0.01953c-0.33008-0.31934-0.33984-0.83984-0.02051-1.16992
			c0.16016-0.16992,0.37988-0.25,0.60059-0.25c0.19922,0,0.40918,0.07031,0.56934,0.23047
			C75.51801,184.24316,75.52777,184.76367,75.20844,185.09375z M71.72797,188.26367
			c-0.35938,0.29004-0.87988,0.22949-1.16992-0.12988c-0.28027-0.35059-0.21973-0.87988,0.14063-1.16016
			c0.14941-0.12012,0.3291-0.17969,0.50977-0.17969c0.25,0,0.49023,0.09961,0.64941,0.30957
			C72.14789,187.46387,72.08832,187.9834,71.72797,188.26367z M67.85785,190.96387
			c-0.38965,0.22949-0.89941,0.09961-1.13965-0.29004c-0.23047-0.39063-0.09961-0.90039,0.29004-1.12988
			c0.12988-0.08008,0.28027-0.12012,0.41992-0.12012c0.28027,0,0.55957,0.13965,0.70996,0.39941
			C68.37836,190.21387,68.24847,190.72363,67.85785,190.96387z M63.6684,193.11328
			c-0.41992,0.19043-0.91016-0.00977-1.08984-0.42969c-0.18066-0.41992,0.00977-0.90039,0.42969-1.08984
			c0.11035-0.04004,0.21973-0.07031,0.33008-0.07031c0.32031,0,0.62988,0.19043,0.75977,0.5
			C64.27777,192.44336,64.08832,192.93359,63.6684,193.11328z M50.73773,195.21387c0.01074,0.45996-0.35938,0.83008-0.81934,0.83008
			v0.00977c-0.45996,0-0.83008-0.36035-0.83984-0.82031c0-0.45996,0.37012-0.83008,0.81934-0.83984h0.01074
			C50.35785,194.39355,50.72797,194.75391,50.73773,195.21387z M46.13812,195.07324
			c-0.05957,0.45996-0.46973,0.78027-0.91992,0.73047c-0.45996-0.06055-0.78027-0.46973-0.73047-0.91992
			c0.05078-0.41992,0.41016-0.73047,0.82031-0.73047c0.04004,0,0.07031,0,0.10059,0
			C45.86859,194.21387,46.18793,194.62402,46.13812,195.07324z M40.14594,207.83398l-0.69141,0.42871l-2.28223-3.67578
			l0.67188-0.41699l3.11914,1.39648l-1.49414-2.40625l0.69141-0.42969l2.2832,3.67578l-0.66699,0.41406l-3.12695-1.39844
			L40.14594,207.83398z M27.75336,164.08008l0.67383-0.45313l2.41113,3.58398l-0.64941,0.4375l-3.17188-1.28125l1.58203,2.35059
			l-0.6748,0.4541l-2.41113-3.58398l0.6543-0.44141l3.16309,1.28027L27.75336,164.08008z M30.69476,205.9834l-0.06836,4.32422
			l-0.81445-0.0127l0.06836-4.32422L30.69476,205.9834z M28.58148,205.92188l-0.17871,0.78125l-1.03613-0.23633l-0.78613,3.4375
			l-0.79297-0.18262l0.78516-3.43555l-1.03809-0.2373l0.17969-0.78125L28.58148,205.92188z M26.125,221.82031l1.47363-2.88086
			l0.86426,0.08887l-2.10352,4.12988l-0.73047-0.07617l-1.21387-4.47559l0.86914,0.09082L26.125,221.82031z M30.79883,219.79199
			l0.68848,0.25879l0.03906,4.6416l-0.81934-0.30859l-0.00391-1.24902l-1.34375-0.50586l-0.83203,0.93359l-0.81445-0.30664
			L30.79883,219.79199z M29.05316,162.77148l0.51074-0.63281l3.36328,2.7207l-0.5127,0.63281L29.05316,162.77148z
			 M34.03851,205.4375c1.21875-0.28906,2.43945,0.46484,2.72656,1.68359c0.28809,1.21289-0.46875,2.42871-1.68652,2.7168
			c-1.21289,0.28613-2.43359-0.46289-2.71973-1.6748C32.07074,206.94531,32.82562,205.72461,34.03851,205.4375z M70.33984,52.84081
			l0.04004,0.86621l-4.39355-1.45703l-0.03516-0.73242l4.23828-1.87109l0.04004,0.87305l-2.95703,1.2998L70.33984,52.84081z
			 M68.18945,54.74413c1.20898,0.32715,1.92383,1.57227,1.59961,2.77539c-0.32617,1.20898-1.57129,1.9248-2.78027,1.59863
			c-1.20313-0.32422-1.91309-1.56934-1.58691-2.77734C65.74707,55.13769,66.98633,54.42089,68.18945,54.74413z M68.05371,61.50976
			l-0.40137,0.70801l-3.76172-2.13574l0.40234-0.70801L68.05371,61.50976z M66.38965,64.19823l-0.99805,1.05664
			c-0.83984,0.8877-2.23145,0.94434-3.09766,0.12598s-0.88867-2.21191-0.04883-3.09961l0.99805-1.05566L66.38965,64.19823z
			 M95.52441,53.64843c0.08496,0.16602,0.23535,0.26953,0.38184,0.26367c0.13281-0.00586,0.2168-0.05762,0.29004-0.17578
			c0.0752-0.11816,0.12891-0.29688,0.17773-0.5791c0.00488-0.03613,0.01465-0.08594,0.02539-0.13477
			c0.03809-0.25684,0.09766-0.59961,0.22754-0.84277c0.10059-0.21094,0.24707-0.375,0.41895-0.49121
			c0.1709-0.11621,0.37598-0.17871,0.59375-0.18848c0.27344-0.01074,0.52051,0.05273,0.73242,0.18945
			c0.18066,0.12012,0.33984,0.30371,0.47168,0.54785c0.11816,0.20703,0.17578,0.44336,0.18848,0.74023
			c0.00488,0.14063-0.00684,0.28613-0.03223,0.43945c-0.07227,0.45313-0.27344,0.89844-0.59277,1.29492l-0.09863,0.11914
			l-0.62793-0.50879l0.09863-0.12012c0.23145-0.29004,0.38379-0.60547,0.43164-0.91211v-0.00586
			c0.01367-0.0918,0.02246-0.18359,0.01855-0.27441c-0.00488-0.15137-0.04199-0.29004-0.10059-0.40332
			c-0.06641-0.14258-0.20801-0.30859-0.45605-0.29883c-0.13477,0.00586-0.23535,0.07715-0.31445,0.21973
			c-0.0957,0.17383-0.1416,0.40723-0.16504,0.57324c-0.00977,0.07324-0.1123,0.69727-0.25879,0.98926
			c-0.1084,0.19238-0.24805,0.34375-0.41406,0.4541c-0.17188,0.11133-0.36328,0.16699-0.57617,0.17578
			c-0.23145,0.00879-0.46484-0.05469-0.68359-0.18555c-0.18164-0.12695-0.33496-0.30371-0.44629-0.5166
			c-0.11133-0.21484-0.17578-0.45605-0.1875-0.7168c-0.00293-0.10449,0.00391-0.21387,0.0127-0.32324
			c0.05566-0.4043,0.22266-0.80566,0.50098-1.16406l0.0918-0.11914l0.64551,0.49023l-0.0918,0.12109
			c-0.30664,0.40625-0.36426,0.75-0.35645,0.96875C95.43555,53.41405,95.4707,53.54003,95.52441,53.64843z M97.93066,58.40526
			l2.01563-0.64648l0.24219,0.75195l-4.12305,1.3252l-0.47363-1.47559c-0.08984-0.27832-0.06348-0.5752,0.07324-0.84277
			c0.13867-0.2666,0.36328-0.45996,0.64063-0.5498c0.41113-0.13281,0.86035-0.00879,1.14941,0.29395l1.62012-2.21289
			l0.29297,0.91406l-1.54297,2.11328L97.93066,58.40526z M105.26367,40.56835l-0.67773,0.43945l-2.35547-3.63086l1.30078-0.84375
			c0.25-0.16211,0.54785-0.2168,0.8418-0.1543c0.28906,0.06641,0.54004,0.22949,0.70215,0.47949
			c0.33398,0.51465,0.17871,1.20313-0.33691,1.53711l-0.62207,0.40332L105.26367,40.56835z M105.38086,67.93652l0.31641-0.74414
			l1.63379,0.69727l0.50586-1.18555l-1.82324-0.77832l0.31445-0.73926l2.57324,1.09863l-1.69922,3.98242l-2.62305-1.11914
			l0.30957-0.72754l1.87305,0.7998l0.25195-0.58691L105.38086,67.93652z M104.43359,63.81151l-1.50879,4.37891l-0.66699-0.5625
			l1.05762-3.05273l-2.83594,1.55469l-0.66309-0.55957l4.05566-2.23145L104.43359,63.81151z M98.6377,64.11815l-1.6084-2.34766
			l0.65039-0.44629l1.14941,1.67773l0.52441-0.36035l-1.00098-1.46191l0.66602-0.45605l1.00195,1.46191l1.06152-0.72559
			l-1.11719-1.63281l0.66016-0.45214l1.57715,2.30176L98.6377,64.11815z M113.36035,37.3037
			c0.46094-0.00684,0.88379-0.22754,1.15625-0.60254l0.08984-0.11816l0.65234,0.46387l-0.0957,0.12305
			c-0.20801,0.28906-0.47168,0.51855-0.78516,0.68262c-0.30664,0.16406-0.65234,0.24902-1.00488,0.25391
			c-0.30371,0.00586-0.60352-0.0498-0.88477-0.16016c-0.26953-0.1123-0.51563-0.27148-0.72656-0.47461
			c-0.21582-0.20313-0.38281-0.44336-0.49707-0.71582c-0.12695-0.27734-0.19238-0.56836-0.19824-0.87793
			c-0.02051-1.24707,0.98242-2.2793,2.22949-2.30176c0.35352-0.00586,0.70703,0.07324,1.02051,0.22656
			c0.3125,0.14746,0.5957,0.37891,0.80664,0.65527l0.10059,0.12109l-0.64355,0.49121l-0.09277-0.12012
			c-0.28027-0.36719-0.70898-0.57227-1.17773-0.56445c-0.80273,0.01367-1.44824,0.6748-1.43457,1.47852
			C111.88867,36.67187,112.55664,37.31835,113.36035,37.3037z M111.51465,68.96874l0.3418,0.05078l0.30859-2.09082l0.78125,0.11523
			l-0.63086,4.27637l-1.5332-0.22559c-0.28809-0.04297-0.54199-0.19629-0.7207-0.43848
			c-0.17871-0.24121-0.25293-0.52832-0.21094-0.81641c0.06348-0.42676,0.37305-0.77344,0.77148-0.89941l-1.26758-2.42676
			l0.94824,0.13965L111.51465,68.96874z M127.53363,182.25293c-0.36914-1.19629,0.30078-2.46387,1.49023-2.83301
			c1.19531-0.36914,2.46484,0.30078,2.83398,1.49707c0.36719,1.19043-0.30371,2.4541-1.5,2.82324
			C129.16644,184.10742,127.90082,183.44336,127.53363,182.25293z M131.97656,49.04296l-0.76172,0.20898l-0.53906-1.96191
			l-0.61523,0.16797l0.4707,1.71094l-0.7793,0.21387l-0.46973-1.70996l-1.24219,0.3418l0.52539,1.91016l-0.77344,0.21191
			l-0.74121-2.69531l4.16992-1.14648L131.97656,49.04296z M128.70898,41.47948l-0.7373,1.85156l1.98827,0.13281l0.4082,0.64746
			l-3.66016,2.30762l-0.43066-0.68359l2.4463-1.54199l-1.9082-0.13379l0.70703-1.77344l-2.44824,1.54102l-0.43066-0.68262
			l3.66016-2.30859L128.70898,41.47948z M126.57617,39.06835l-2.95703,3.15234l-0.59277-0.55762l2.95703-3.15039L126.57617,39.06835
			z M121.41797,36.30956l0.41211-0.68848l2.52246,1.50977l-0.41113,0.68848l-0.91211-0.5459l-1.80859,3.02441l-0.7002-0.41797
			l1.80957-3.02441L121.41797,36.30956z M120.11719,34.86425l-0.21484,0.75879l-1.95801-0.55273l-0.17188,0.61426l1.70508,0.48145
			l-0.21875,0.77637l-1.70605-0.48047l-0.34961,1.23828l1.90527,0.53809l-0.21777,0.77051l-2.6875-0.75781l1.17383-4.16016
			L120.11719,34.86425z M114.02441,12.04687c-0.2207-0.04492-1.30273-0.27637-1.74512-0.54199
			c-0.75098-0.44141-1.1377-1.11523-1.1377-1.95508c0-0.46387,0.1543-0.90527,0.4082-1.28125
			c0.25488-0.35352,0.6084-0.62988,1.0166-0.81738l-0.01074,0.01074c0.41992-0.19922,0.89453-0.29785,1.34766-0.29785
			c0.1875,0,0.36426,0.01074,0.58594,0.04395c0.70703,0.12109,1.3584,0.4082,2.26465,1.16016l-1.21582,1.45801
			c-0.81738-0.67383-1.2373-0.77344-1.65723-0.77344c-0.20996,0-0.375,0.04395-0.50781,0.11035
			c-0.20996,0.08887-0.32031,0.24316-0.32031,0.38672c0,0.29883,0.39746,0.44238,1.03809,0.57422
			c0.06641,0.02246,0.14355,0.02246,0.22168,0.04492c0.43066,0.09863,1.07129,0.23145,1.49121,0.47461h-0.01172
			c0.7959,0.44238,1.21582,1.1377,1.21582,2c0,0.50781-0.13281,0.98242-0.41992,1.38086
			c-0.25391,0.36426-0.62988,0.62988-1.0498,0.83887c-0.44141,0.23242-0.89453,0.29883-1.3916,0.29883
			c-0.26563,0-0.55273-0.0332-0.7959-0.08887c-0.79492-0.16504-1.52441-0.53027-2.46289-1.33594l1.25879-1.44727
			c0.69629,0.60742,1.10547,0.83887,1.59082,0.92773c0.14355,0.0332,0.28711,0.05469,0.41992,0.05469
			c0.2207,0,0.41992-0.04395,0.57422-0.12109c0.13281-0.06641,0.36523-0.20996,0.36523-0.50781
			C115.09668,12.33397,114.52148,12.14647,114.02441,12.04687z M110.78516,38.14647l-0.82813,0.27637l-0.78906-0.9668
			l-1.35938,0.45215l-0.05762,1.24805l-0.82422,0.27344l0.21484-4.62402l0.69727-0.23242L110.78516,38.14647z M100.54785,7.23046
			h2.88379c0.57422,0,1.11523,0.23145,1.51367,0.62891c0.39746,0.40918,0.62891,1.02734,0.62891,1.60254
			c0,0.75098-0.36426,1.47949-0.94922,1.85547l2.86133,3.77832h-2.28711l-2.60742-3.40234h-0.17676v3.40234h-1.86719V7.23046z
			 M99.10449,40.51366c0.07129-0.23145,0.19434-0.44824,0.37012-0.6416c0.06934-0.07617,0.15137-0.14941,0.23438-0.22168
			c0.32422-0.24707,0.72461-0.41699,1.17383-0.47656l0.14844-0.02051l0.11719,0.80371l-0.15039,0.02051
			c-0.50391,0.0752-0.78711,0.27734-0.93555,0.43945c-0.09277,0.10352-0.15625,0.21777-0.19434,0.33203
			c-0.05566,0.17773-0.02148,0.35742,0.08691,0.45605c0.09766,0.08984,0.19336,0.11035,0.33008,0.0791
			c0.13574-0.03223,0.2998-0.12109,0.53223-0.28711c0.0293-0.02344,0.07129-0.05176,0.11328-0.0791
			c0.20703-0.15625,0.49121-0.3584,0.75293-0.44043c0.2207-0.07813,0.43848-0.09375,0.64258-0.05566
			c0.20313,0.03809,0.39355,0.13672,0.55566,0.28418c0.20215,0.18359,0.33301,0.40039,0.38672,0.64844
			c0.0459,0.21289,0.03027,0.4541-0.04688,0.7207c-0.0625,0.23047-0.18555,0.43848-0.38672,0.65918
			c-0.09473,0.10254-0.20508,0.19824-0.33008,0.29004c-0.37012,0.27148-0.82715,0.44727-1.33105,0.50586l-0.1543,0.01563
			l-0.08984-0.80371l0.1543-0.0166c0.36816-0.04199,0.69824-0.16113,0.94727-0.3457l0.00391-0.00391
			c0.07422-0.05469,0.14551-0.11523,0.20703-0.18262c0.10254-0.11133,0.17383-0.23535,0.21094-0.35742
			c0.05273-0.14844,0.06836-0.36523-0.11523-0.53223c-0.09961-0.09082-0.2207-0.11035-0.37793-0.06445
			c-0.19043,0.05664-0.38672,0.19043-0.51953,0.29102c-0.05762,0.04688-0.56836,0.41895-0.87891,0.52246
			c-0.21191,0.06152-0.41797,0.07227-0.6123,0.03418c-0.2002-0.04199-0.37695-0.1377-0.53418-0.28027
			c-0.1709-0.15527-0.29297-0.36523-0.35547-0.61133C99.01855,40.97753,99.03418,40.74511,99.10449,40.51366z M96.84375,47.2578
			l0.78613,0.18262l-0.40039,1.72656l1.25391,0.29199l0.44727-1.92969l0.78125,0.18164l-0.63086,2.7207l-4.21191-0.97559
			l0.6416-2.77441l0.76953,0.17871l-0.45898,1.98047l0.62207,0.14551L96.84375,47.2578z M91.73535,7.23046h1.6123l3.03809,7.86523
			h-2.06543l-0.67383-1.79004h-2.20996l-0.69531,1.79004h-2.0332L91.73535,7.23046z M82.0918,12.04687
			c-0.2207-0.04492-1.30273-0.27637-1.74512-0.54199c-0.75098-0.44141-1.1377-1.11523-1.1377-1.95508
			c0-0.46387,0.1543-0.90527,0.4082-1.28125c0.25488-0.35352,0.6084-0.62988,1.0166-0.81738l-0.01074,0.01074
			c0.41992-0.19922,0.89453-0.29785,1.34766-0.29785c0.1875,0,0.36426,0.01074,0.58594,0.04395
			c0.70703,0.12109,1.3584,0.4082,2.26465,1.16016l-1.21582,1.45801c-0.81738-0.67383-1.2373-0.77344-1.65723-0.77344
			c-0.20996,0-0.375,0.04395-0.50781,0.11035c-0.20996,0.08887-0.32031,0.24316-0.32031,0.38672
			c0,0.29883,0.39746,0.44238,1.03809,0.57422c0.06641,0.02246,0.14355,0.02246,0.22168,0.04492
			c0.43066,0.09863,1.07129,0.23145,1.49121,0.47461h-0.01172c0.7959,0.44238,1.21582,1.1377,1.21582,2
			c0,0.50781-0.13281,0.98242-0.41992,1.38086c-0.25391,0.36426-0.62988,0.62988-1.0498,0.83887
			c-0.44141,0.23242-0.89453,0.29883-1.3916,0.29883c-0.26563,0-0.55273-0.0332-0.7959-0.08887
			c-0.79492-0.16504-1.52441-0.53027-2.46289-1.33594l1.25879-1.44727c0.69629,0.60742,1.10547,0.83887,1.59082,0.92773
			c0.14355,0.0332,0.28711,0.05469,0.41992,0.05469c0.2207,0,0.41992-0.04395,0.57422-0.12109
			c0.13281-0.06641,0.36523-0.20996,0.36523-0.50781C83.16406,12.33397,82.58984,12.14647,82.0918,12.04687z M69.25684,7.23046
			h1.91113v5.97656h3.73438v1.88867h-5.64551C69.25685,15.09569,69.25685,7.23046,69.25684,7.23046z M67.19141,41.96972
			c0.19922,0.29004,0.3291,0.62793,0.375,0.97363c0.0498,0.34082,0.01367,0.70605-0.09961,1.03418l-0.04492,0.14941
			l-0.76465-0.26367l0.04883-0.14355c0.15039-0.43555,0.08496-0.90625-0.18066-1.29199
			c-0.45508-0.66113-1.36328-0.83398-2.02344-0.37891c-0.66602,0.45801-0.83496,1.37207-0.37988,2.03223
			c0.26172,0.37988,0.67871,0.61133,1.1416,0.63086l0.14648,0.00879l-0.02539,0.80078l-0.1543-0.0127
			c-0.35547-0.01172-0.69336-0.10449-1.00195-0.27539c-0.30566-0.16602-0.56836-0.40723-0.76758-0.69727
			c-0.17188-0.25-0.29102-0.53027-0.35449-0.82617c-0.05664-0.28613-0.05957-0.5791-0.00586-0.86621
			c0.0498-0.29199,0.15723-0.56445,0.32031-0.81055c0.16113-0.25879,0.36719-0.47363,0.62305-0.64941
			C65.07031,40.67772,66.48438,40.94335,67.19141,41.96972z M61.38379,41.98632l-0.61035-0.53906l2.86133-3.24219l0.61035,0.53906
			L61.38379,41.98632z M57.99023,7.23046h1.90039v4.83789c0,0.68555,0.55176,1.2373,1.21484,1.2373
			c0.67383,0,1.21484-0.55176,1.21484-1.2373V7.23046h1.91113v4.83789c0,1.72363-1.40234,3.12695-3.12598,3.12695
			c-1.71191,0-3.11523-1.40332-3.11523-3.12695V7.23046H57.99023z M58.10449,34.86425l0.68066,0.33691l0.33789,1.96484
			l1.76758-0.92383l0.68555,0.33789l-1.91895,3.88281l-0.72559-0.35938l1.28418-2.59375l-1.69824,0.88281l-0.32422-1.88281
			l-1.2832,2.59375l-0.72559-0.3584L58.10449,34.86425z M54.26855,33.93651c0.10254,0.01465,0.20898,0.04199,0.31543,0.07129
			c0.38672,0.13086,0.75,0.37012,1.04883,0.70898l0.10059,0.11426l-0.60352,0.54297l-0.09961-0.11328
			c-0.34375-0.37695-0.66992-0.49902-0.88574-0.53125c-0.13867-0.02051-0.26953-0.01074-0.38477,0.02246
			c-0.17969,0.05273-0.30957,0.18066-0.33105,0.3252c-0.02051,0.13184,0.01465,0.22363,0.11816,0.31836
			c0.10156,0.09473,0.26758,0.18164,0.53516,0.2832c0.03516,0.01172,0.08203,0.03027,0.12793,0.0498
			c0.24609,0.08594,0.57129,0.20801,0.78516,0.38184c0.18848,0.13867,0.32227,0.3125,0.4043,0.50391
			c0.08203,0.18945,0.10547,0.40137,0.07324,0.61816c-0.04004,0.27148-0.14844,0.50098-0.32324,0.68359
			c-0.15234,0.15527-0.36133,0.27734-0.62598,0.3623c-0.22559,0.07617-0.46777,0.08887-0.7627,0.0459
			c-0.1377-0.02051-0.2793-0.06055-0.42578-0.11328c-0.43164-0.15723-0.83203-0.4375-1.16211-0.8252l-0.09863-0.11914
			l0.61914-0.52246l0.09961,0.11914c0.24023,0.28223,0.52246,0.49023,0.81445,0.5957h0.00586
			c0.08789,0.03223,0.17578,0.05664,0.2666,0.07129c0.15039,0.02246,0.29297,0.0127,0.41504-0.02441
			c0.1543-0.03809,0.3418-0.14551,0.37891-0.39258c0.01953-0.13281-0.03223-0.24414-0.15723-0.34863
			c-0.15332-0.12793-0.37402-0.2168-0.53125-0.27051c-0.07031-0.02246-0.66504-0.24023-0.9248-0.43945
			c-0.16895-0.1416-0.29199-0.30762-0.36914-0.49121c-0.07617-0.18945-0.0957-0.38867-0.06445-0.59961
			c0.03516-0.22949,0.14063-0.44727,0.31055-0.63672c0.1582-0.1543,0.36035-0.27246,0.5918-0.3418
			C53.76172,33.91601,54.00977,33.89647,54.26855,33.93651z M48.3584,7.23046h2.90625c0.57422,0,1.11523,0.23145,1.52441,0.62891
			c0.39746,0.40918,0.62988,1.02734,0.62988,1.60254c0,1.19238-0.9834,2.24219-2.1543,2.24219h-0.99512v3.3916H48.3584V7.23046z
			 M48.45313,33.89647c1.23633-0.20313,2.40234,0.63379,2.60547,1.87109c0.20215,1.22852-0.63574,2.38965-1.87109,2.59375
			c-1.23047,0.2002-2.39551-0.62988-2.59766-1.86035C46.38672,35.26562,47.22363,34.0996,48.45313,33.89647z M42.57617,35.90917
			c0.30859-0.16992,0.6582-0.26465,1.00488-0.27637c0.34473-0.01563,0.70313,0.05859,1.01855,0.2041l0.14355,0.05957
			l-0.33887,0.73242l-0.13867-0.06348c-0.41699-0.19238-0.89258-0.1748-1.30078,0.05078
			c-0.70313,0.38574-0.96484,1.27051-0.5791,1.97266c0.38867,0.70703,1.2793,0.9668,1.98047,0.58008
			c0.40527-0.2207,0.6748-0.6123,0.74121-1.07031l0.02441-0.14648l0.79199,0.10645l-0.02734,0.15234
			c-0.04883,0.35352-0.1748,0.67773-0.375,0.96875c-0.19531,0.28711-0.46094,0.52344-0.76953,0.69238
			c-0.26563,0.14551-0.55566,0.23535-0.85547,0.26855c-0.29004,0.02734-0.58105,0.00098-0.86133-0.08008
			c-0.28613-0.0791-0.5459-0.21289-0.77344-0.39941c-0.24121-0.18652-0.43457-0.41309-0.58398-0.68457
			C41.08008,37.88671,41.48535,36.5078,42.57617,35.90917z M24.61719,69.89843c4.15039-4.14941,8.75-7.86035,13.67285-11.03125
			c0.38477-0.24902,0.89746-0.13672,1.14453,0.24805c0.24805,0.38379,0.13672,0.89648-0.24805,1.14453
			c-4.82324,3.10742-9.33105,6.74414-13.39746,10.81055c-0.16211,0.16113-0.37402,0.24219-0.58594,0.24219
			s-0.42383-0.08105-0.58594-0.24219C24.29395,70.74609,24.29395,70.22167,24.61719,69.89843z M26.08148,141.09375l0.73926,0.33789
			l-1.46387,3.20313l2.00195,0.91504l-0.33008,0.72168l-2.74023-1.25195L26.08148,141.09375z M24.72894,168.64258l-0.59766-2.63477
			l0.79395-0.18066l0.59766,2.63574c0.09961,0.4375,0.02051,0.8916-0.2168,1.26855
			c-0.24414,0.37891-0.62012,0.64551-1.05859,0.74512c-0.90527,0.20508-1.80762-0.36328-2.01172-1.26953l-0.59766-2.63477
			l0.78809-0.17773l0.59668,2.63477c0.10742,0.47363,0.58105,0.77734,1.04883,0.6709
			C24.54633,169.59277,24.83636,169.11621,24.72894,168.64258z M21.54437,206.79785l-0.93555,0.8291l-0.77148-0.39844l3.4668-3.0752
			l0.65234,0.33691l-0.50488,4.60938l-0.77734-0.40332l0.14258-1.23926L21.54437,206.79785z M19.61078,202.51172l-0.79883-0.69922
			l0.52832-0.60547l2.21191,1.9375l-0.52832,0.60352l-0.79883-0.7002l-2.32227,2.64941l-0.6123-0.53516L19.61078,202.51172z
			 M18.90863,177.17383c0.12988-0.08008,0.26953-0.11035,0.40918-0.11035c0.29004,0,0.56055,0.15039,0.7207,0.41016
			c0.22949,0.38965,0.09961,0.90039-0.30078,1.12988c-0.38965,0.23047-0.89941,0.09961-1.12988-0.2998
			C18.37836,177.91309,18.50824,177.40332,18.90863,177.17383z M21.38812,181.05371
			c0.15039-0.12012,0.33008-0.17969,0.50977-0.17969c0.25,0,0.49023,0.10938,0.65039,0.3291
			c0.28027,0.36035,0.21973,0.88086-0.13965,1.16016c-0.37012,0.28027-0.88086,0.20996-1.1709-0.14941
			C20.95844,181.85352,21.02777,181.33398,21.38812,181.05371z M21.40082,140.2168l0.80859,0.09473l-0.41211,3.50488
			l2.19043,0.25684l-0.09375,0.79004l-2.99805-0.35156L21.40082,140.2168z M17.2309,140.73633l0.71582-0.16504l2.59863,3.83789
			l-0.85156,0.19727l-0.69434-1.03711l-1.39648,0.32227l-0.17578,1.2373l-0.8457,0.19531L17.2309,140.73633z M16.94867,173.00391
			c0.09961-0.04004,0.20996-0.06055,0.31934-0.06055c0.32031,0,0.62988,0.19043,0.77051,0.50977
			c0.16992,0.4209-0.03027,0.90039-0.4502,1.08008c-0.41992,0.18066-0.91016-0.01953-1.08984-0.44922
			C16.32855,173.66309,16.52777,173.18359,16.94867,173.00391z M17.7016,198.75781c0.66504,1.05957,0.3457,2.45703-0.71387,3.12402
			c-1.05371,0.66309-2.44629,0.34082-3.1123-0.71973c-0.66309-1.05371-0.34863-2.44922,0.70508-3.11133
			C15.64105,197.38477,17.03949,197.7041,17.7016,198.75781z M15.77875,194.70703c0.0791,0.28125,0.04199,0.57617-0.10449,0.83887
			c-0.14844,0.2627-0.37988,0.44824-0.66016,0.52734c-0.41602,0.11621-0.85938-0.02441-1.1377-0.33691l-1.7002,2.15234
			l-0.25977-0.92383l1.61914-2.05566l-0.09375-0.33301l-2.03711,0.57422l-0.21387-0.76172l4.16699-1.17383L15.77875,194.70703z
			 M7.92914,147.69629l3.75293,2.14746l-0.4043,0.70605l-3.75293-2.14648L7.92914,147.69629z M6.21332,151.77051
			c0.07227-0.28223,0.26172-0.52637,0.51172-0.66895c0.24609-0.14941,0.55273-0.19531,0.83398-0.12109
			c0.16992,0.04297,0.31836,0.12598,0.44238,0.22656c0.09277-0.09473,0.19629-0.17969,0.31348-0.24414
			c0.33398-0.20117,0.72461-0.25684,1.10156-0.15918c0.375,0.09766,0.68945,0.33594,0.88867,0.67578
			c0.0957,0.16309,0.16211,0.34375,0.18848,0.53223c0.03223,0.19043,0.01953,0.38184-0.02734,0.56348l-0.47559,1.83105
			L5.81,153.32031L6.21332,151.77051z M10.25098,235.03125l-0.16113,0.79199l-4.24121-0.85938l0.30762-1.51953
			c0.05957-0.29199,0.22754-0.54297,0.47949-0.70801c0.24902-0.16113,0.54102-0.22656,0.83301-0.16699
			c0.60156,0.12207,0.98438,0.71484,0.86133,1.31641l-0.14746,0.72656L10.25098,235.03125z M5.82813,239.75586l2.69727-0.19629
			c0.48438-0.03516,0.85547-0.45898,0.82129-0.9375c-0.03613-0.48535-0.46484-0.84375-0.94824-0.80762l-2.69824,0.19629
			l-0.05859-0.81152l2.69727-0.19727c0.44824-0.03418,0.88574,0.11133,1.22363,0.40332
			c0.33887,0.29883,0.5459,0.71094,0.57813,1.15918c0.06738,0.92773-0.62891,1.7334-1.55664,1.80078l-2.69727,0.19727
			L5.82813,239.75586z M10.92578,244.3457l-0.05566,0.14453l-0.75781-0.28418l0.05566-0.14551
			c0.12793-0.34766,0.17188-0.69531,0.12109-1.00098l-0.00098-0.00488c-0.01563-0.0918-0.03711-0.18164-0.06934-0.26758
			c-0.05371-0.1416-0.13184-0.26172-0.22461-0.35156c-0.10742-0.11328-0.29395-0.22559-0.52637-0.1377
			c-0.125,0.04785-0.19824,0.14648-0.22852,0.30762c-0.03711,0.19531-0.00586,0.43066,0.02344,0.59473
			c0.01563,0.07324,0.11523,0.69824,0.06934,1.02246c-0.04199,0.2168-0.12598,0.40527-0.24805,0.56152
			c-0.12891,0.15918-0.29395,0.27344-0.49219,0.34863c-0.2168,0.08203-0.45801,0.0957-0.70605,0.04102
			c-0.21289-0.0625-0.41406-0.18164-0.58887-0.34961c-0.17383-0.16797-0.31152-0.37598-0.4043-0.62109
			c-0.03613-0.0957-0.06348-0.20215-0.0918-0.30859c-0.07324-0.40234-0.04199-0.83691,0.10742-1.26367l0.0498-0.14258
			l0.76953,0.26074l-0.05078,0.14258c-0.16113,0.48438-0.1084,0.8291-0.03027,1.0332
			c0.04883,0.13086,0.12305,0.24023,0.20703,0.3252c0.13379,0.13086,0.30957,0.18066,0.44629,0.12988
			c0.12402-0.04785,0.18652-0.12402,0.21973-0.25977s0.02734-0.32227-0.01465-0.60547
			c-0.00781-0.03613-0.0127-0.08594-0.01953-0.13574c-0.04395-0.25586-0.09766-0.60059-0.05078-0.87207
			c0.0293-0.23145,0.11523-0.43262,0.24121-0.59766s0.30078-0.28906,0.50488-0.36816
			c0.25586-0.0957,0.50977-0.11328,0.75488-0.05078c0.20898,0.05664,0.41797,0.17969,0.62012,0.36914
			c0.17871,0.16016,0.30762,0.36426,0.41309,0.64355c0.0498,0.12988,0.08496,0.27246,0.10938,0.42578
			C11.15332,243.38281,11.10352,243.86914,10.92578,244.3457z M10.94824,232.2998l-3.89648-1.8877l1.24316-2.56738l0.71191,0.34473
			l-0.8877,1.83301l0.57324,0.27832l0.77539-1.59766l0.72754,0.35254l-0.7744,1.59863l1.16016,0.56152l0.86426-1.7832
			l0.72266,0.34961L10.94824,232.2998z M14.49902,227.01172l-2.5957-0.29199l-0.2334,0.25488l1.55859,1.4248l-0.53223,0.58301
			l-3.18848-2.91602l1.04395-1.1416c0.19629-0.21582,0.4668-0.33887,0.76563-0.35254
			c0.30078-0.01367,0.58008,0.08496,0.79492,0.28223c0.31836,0.29004,0.43262,0.74121,0.31348,1.1416l2.71875,0.30762
			L14.49902,227.01172z M17.99316,224.54492l-3.09668-1.46191l1.44531,2.44043l-0.69922,0.41406l-2.20508-3.71973l0.67969-0.40234
			l3.08887,1.45996l-1.44336-2.43457l0.7002-0.41602l2.20313,3.71973L17.99316,224.54492z M18.86914,221.66309
			c-0.25684-1.22461,0.52637-2.4248,1.74512-2.68164c1.22559-0.25684,2.42578,0.52832,2.68262,1.75293
			c0.25586,1.21777-0.53027,2.41309-1.75488,2.66992C20.32422,223.66016,19.12402,222.88184,18.86914,221.66309z
			 M39.30957,330.52734c-0.1582,0.24512-0.4248,0.37793-0.69629,0.37793c-0.1543,0-0.30957-0.04297-0.44922-0.13281
			c-4.87695-3.1543-9.43457-6.83984-13.54785-10.95215c-0.32324-0.32324-0.32324-0.84863,0-1.17188
			c0.32422-0.32227,0.84766-0.32227,1.17188,0c4.03027,4.03027,8.49707,7.6416,13.27637,10.7334
			C39.44824,329.62988,39.55859,330.14258,39.30957,330.52734z M45.86621,354.59961c0.44141,0.13574,0.91113,0.05664,1.28711-0.2168
			l0.12109-0.08301l0.47754,0.6416l-0.12793,0.08789c-0.28809,0.21094-0.60938,0.34766-0.95801,0.40723
			c-0.34277,0.06055-0.69824,0.03418-1.03418-0.06934c-0.29199-0.08887-0.55859-0.2334-0.79199-0.42676
			c-0.22266-0.18848-0.40723-0.41602-0.54395-0.6748c-0.14355-0.25977-0.22949-0.54004-0.25391-0.83398
			c-0.03418-0.30371-0.00684-0.60059,0.08398-0.89648c0.36426-1.19238,1.63867-1.86426,2.83008-1.5
			c0.33691,0.10254,0.65039,0.28711,0.89941,0.5293c0.25293,0.23633,0.45117,0.54492,0.56738,0.87305l0.05664,0.14453
			l-0.76172,0.26953l-0.05176-0.14355c-0.15332-0.43457-0.49805-0.7627-0.94629-0.89941
			c-0.76758-0.23535-1.58691,0.19531-1.82129,0.96289C44.66211,353.54492,45.09863,354.36523,45.86621,354.59961z
			 M51.90918,356.15332c-1.24609,0.04395-2.29785-0.92871-2.3418-2.17383c-0.04492-1.25293,0.93359-2.30469,2.18066-2.34863
			c1.25195-0.04492,2.30273,0.93359,2.34766,2.18652C54.14063,355.06348,53.16113,356.1084,51.90918,356.15332z M58.88574,353.98047
			c-0.0625,0.20801-0.19043,0.41406-0.38477,0.61133c-0.16309,0.1748-0.37109,0.29883-0.65234,0.39746
			c-0.13086,0.04688-0.27441,0.07813-0.42871,0.09961c-0.4541,0.06348-0.93945,0.00195-1.41113-0.18555l-0.14355-0.05957
			l0.30273-0.75l0.14355,0.05859c0.34375,0.13574,0.69043,0.18848,0.99707,0.14453l0.00586-0.00195
			c0.0918-0.0127,0.18164-0.03125,0.26855-0.06152c0.14258-0.05078,0.26367-0.12598,0.35547-0.21582
			c0.11719-0.10547,0.23242-0.28809,0.15039-0.52344c-0.04395-0.12598-0.1416-0.20117-0.30176-0.23535
			c-0.19434-0.04102-0.43066-0.01563-0.59473,0.01074c-0.07324,0.0127-0.7002,0.09766-1.02246,0.04395
			c-0.21582-0.04688-0.40234-0.13574-0.55566-0.26172c-0.15625-0.13281-0.2666-0.29883-0.33691-0.5
			c-0.07617-0.21777-0.08496-0.45996-0.02441-0.70703c0.06836-0.21094,0.19238-0.4082,0.36328-0.57813
			c0.17188-0.1709,0.38379-0.30273,0.62988-0.38965c0.09766-0.03418,0.2041-0.05957,0.3125-0.08398
			c0.40234-0.06445,0.83496-0.02441,1.25879,0.13672l0.1416,0.05371l-0.2793,0.76172l-0.1416-0.05371
			c-0.47949-0.17285-0.8252-0.12891-1.03125-0.05664c-0.13184,0.04688-0.24219,0.11816-0.3291,0.20117
			c-0.13379,0.12988-0.18945,0.30371-0.14063,0.44141c0.04395,0.12598,0.11816,0.19043,0.25391,0.22656
			s0.32227,0.03516,0.60547-0.00098c0.03613-0.00586,0.08691-0.01074,0.13672-0.01563
			c0.25586-0.03906,0.60156-0.08301,0.87109-0.03027c0.23145,0.03516,0.43066,0.12598,0.5918,0.25586
			c0.16309,0.12988,0.2832,0.30664,0.35547,0.5127C58.94141,353.4834,58.9541,353.73633,58.88574,353.98047z M63.85059,351.55371
			l-1.72852-2.31738l0.0166,1.91211l-1.82422-0.56543l1.72949,2.31934l-0.64746,0.4834l-2.58594-3.46875l0.6084-0.45313
			l1.90332,0.58984l-0.02344-1.99219l0.61426-0.45703l2.58594,3.4668L63.85059,351.55371z M63.60156,327.37598l-0.49805-0.64258
			l3.41602-2.64746l0.49805,0.64355L63.60156,327.37598z M69.31348,328.59277c0.49512,1.14355-0.02832,2.47559-1.17188,2.97168
			c-1.14844,0.49805-2.4834-0.03027-2.97852-1.17383c-0.49805-1.14844,0.0293-2.4834,1.17871-2.98145
			C67.48535,326.91406,68.81445,327.44336,69.31348,328.59277z M62.23047,325.63184l-1.12988-0.91406
			c-0.9502-0.76953-1.11328-2.15234-0.36426-3.07813c0.74902-0.92773,2.13672-1.05664,3.08691-0.28809l1.12988,0.91504
			L62.23047,325.63184z M66.32031,349.04199l-3.38281-2.69629l0.50781-0.63672l3.38281,2.69629L66.32031,349.04199z
			 M69.16211,344.65039c-0.12793,0.27539-0.30957,0.51855-0.53223,0.72266c-0.21777,0.19336-0.46973,0.34375-0.74414,0.44238
			c-0.27734,0.10547-0.56738,0.15039-0.86035,0.13281c-0.30469-0.00879-0.59375-0.07715-0.875-0.20801
			c-1.12598-0.52832-1.61133-1.88184-1.08301-3.00879c0.14844-0.31934,0.375-0.60156,0.64941-0.81543
			c0.26953-0.21582,0.60156-0.36816,0.94238-0.43652l0.15137-0.03613l0.15918,0.79199l-0.14941,0.03027
			c-0.45117,0.09082-0.82324,0.38574-1.02148,0.80859c-0.33984,0.72559-0.03027,1.59473,0.69531,1.93457
			c0.73047,0.34277,1.60254,0.02832,1.94238-0.69824c0.19629-0.41797,0.18457-0.89258-0.03223-1.30273l-0.06641-0.13086
			l0.70117-0.38184l0.07031,0.13965c0.16699,0.31348,0.25781,0.65039,0.2666,1.00293
			C69.3877,343.98535,69.3125,344.33203,69.16211,344.65039z M66.68652,336.83594l-0.09473-0.87012l2.87891-1.47656
			l-3.12695-0.83691l-0.09277-0.86328l4.47754,1.19238l0.0791,0.73047L66.68652,336.83594z M91.20972,372.79254
			c0,1.77142-1.43604,3.20746-3.20746,3.20746H77.53595c-1.77142,0-3.2074-1.43604-3.2074-3.20746v-26.33142
			c0-1.77142,1.43597-3.20746,3.2074-3.20746h10.46631c1.77142,0,3.20746,1.43604,3.20746,3.20746V372.79254z M93.5625,335.30762
			c0.00977-0.13965,0.03809-0.28418,0.07813-0.43359c0.12207-0.44238,0.36914-0.86426,0.72852-1.22363l0.11133-0.1084
			l0.57031,0.57422l-0.11133,0.1084c-0.26172,0.2627-0.44629,0.56152-0.52734,0.86035v0.00586
			c-0.02441,0.08984-0.04297,0.17969-0.04883,0.27148c-0.00977,0.15137,0.01074,0.29199,0.05762,0.41016
			c0.0498,0.15039,0.17285,0.33008,0.4209,0.34668c0.13281,0.00879,0.24121-0.05176,0.33594-0.18555
			c0.11426-0.16211,0.18359-0.38965,0.22559-0.5498c0.0166-0.07324,0.18652-0.68262,0.36328-0.95703
			c0.12793-0.17969,0.2832-0.31445,0.45996-0.40723c0.18262-0.09082,0.37988-0.12598,0.5918-0.1123
			c0.23047,0.01563,0.45508,0.10352,0.65918,0.25879c0.16602,0.14355,0.2998,0.33594,0.3877,0.56152s0.12695,0.4707,0.10938,0.73145
			c-0.00781,0.10254-0.02734,0.21191-0.04688,0.31934c-0.09961,0.39551-0.30762,0.77734-0.62207,1.10352l-0.10449,0.10938
			l-0.58984-0.55859l0.10547-0.10742c0.34766-0.37305,0.44238-0.70898,0.45703-0.92578
			c0.00977-0.14063-0.01172-0.26855-0.05273-0.38086c-0.06836-0.17578-0.20605-0.29492-0.35156-0.30469
			c-0.13281-0.00879-0.2207,0.0332-0.30762,0.14453c-0.08691,0.10938-0.15918,0.28125-0.23828,0.55566
			c-0.00879,0.03613-0.02441,0.08496-0.04004,0.13086c-0.06445,0.25195-0.16113,0.58691-0.31641,0.81348
			c-0.12305,0.19824-0.28516,0.3457-0.46875,0.44336c-0.18262,0.09766-0.39258,0.1377-0.61133,0.12305
			c-0.27246-0.01855-0.50977-0.10742-0.70605-0.2666c-0.16699-0.13965-0.30566-0.33789-0.41113-0.59473
			C93.57617,335.84375,93.54297,335.60449,93.5625,335.30762z M94.9248,329.26172l0.25684-0.74707l4.08789,1.40625l-0.50391,1.46387
			c-0.09473,0.27539-0.29297,0.49609-0.5625,0.62793s-0.56641,0.15234-0.8418,0.05762
			c-0.40723-0.13965-0.69141-0.50684-0.74219-0.92285L94,331.94824l0.3125-0.90625l2.49805-0.7666l0.11133-0.32715
			L94.9248,329.26172z M102.51563,325.44727l-0.66699,0.55469l-1.48535-4.38965l0.56641-0.46875l4.04883,2.25684l-0.67383,0.55957
			l-2.82031-1.58008L102.51563,325.44727z M101.375,326.67188l-1.62988,2.33691l-0.64844-0.45215l1.16504-1.66895l-0.52246-0.36426
			l-1.01563,1.4541l-0.66309-0.46289l1.01563-1.4541l-1.05664-0.7373l-1.13281,1.62402l-0.6582-0.45801l1.59961-2.29199
			L101.375,326.67188z M97.0498,341.06348l-0.79199,0.1582l-0.34863-1.74023l-1.2627,0.25293l0.3877,1.94238l-0.78613,0.15723
			l-0.54883-2.74023l4.24414-0.84961l0.55859,2.7959l-0.77539,0.1543l-0.39844-1.99609l-0.62695,0.12402L97.0498,341.06348z
			 M100.48047,348.94629c-0.06543,0.19629-0.19043,0.37012-0.35938,0.50977c-0.20996,0.17383-0.44336,0.27246-0.69531,0.29102
			c-0.2168,0.01465-0.45313-0.03418-0.70605-0.14844c-0.21973-0.09375-0.40723-0.24512-0.59766-0.47559
			c-0.08887-0.10742-0.16699-0.23047-0.24121-0.36621c-0.21582-0.4043-0.32617-0.88086-0.3125-1.38867l0.00684-0.1543
			l0.80762,0.02539l-0.00586,0.15332c-0.00879,0.37012,0.06152,0.71289,0.20801,0.98535l0.00488,0.00586
			c0.04297,0.08105,0.0918,0.16016,0.15039,0.22852c0.09668,0.11816,0.20898,0.20605,0.32422,0.25977
			c0.13965,0.07422,0.35156,0.11914,0.54297-0.03809c0.10352-0.08594,0.13965-0.20313,0.11719-0.36426
			c-0.0293-0.19824-0.13477-0.41016-0.21582-0.55566c-0.03711-0.06445-0.33301-0.62207-0.39355-0.94336
			c-0.03125-0.21875-0.01172-0.42285,0.05371-0.61035c0.07031-0.19238,0.18848-0.35352,0.35254-0.48926
			c0.17773-0.14648,0.40137-0.23828,0.65527-0.26563c0.2207-0.00977,0.44824,0.03809,0.66797,0.1416
			c0.21777,0.10156,0.41504,0.25391,0.58203,0.45605c0.06543,0.0791,0.12598,0.1709,0.18555,0.26367
			c0.19922,0.35449,0.31055,0.77539,0.30664,1.22754l-0.00098,0.15039l-0.81055,0.00098l0.00098-0.15137
			c-0.00391-0.50879-0.16406-0.81738-0.30273-0.98535c-0.08984-0.10742-0.19434-0.18652-0.30176-0.24023
			c-0.16895-0.08008-0.35059-0.07129-0.46289,0.02148c-0.10352,0.08398-0.1377,0.17676-0.125,0.31543
			c0.0127,0.13965,0.07813,0.3125,0.20898,0.56738c0.01855,0.03223,0.04004,0.07715,0.06152,0.12207
			c0.12598,0.22852,0.28613,0.53613,0.3291,0.80762C100.56348,348.53223,100.54688,348.75,100.48047,348.94629z M102.62305,350.4834
			l-1.23242,1.70801l-0.6543-0.47266l2.52734-3.50488l1.25586,0.90625c0.24023,0.17383,0.40039,0.42969,0.44727,0.72656
			c0.04395,0.29297-0.01758,0.58594-0.19141,0.82715c-0.3584,0.49707-1.05469,0.60059-1.55273,0.24121L102.62305,350.4834z
			 M107.82422,355.49414l-0.8125-0.32324l0.01953-1.24902l-1.33301-0.53125l-0.85059,0.91699l-0.80664-0.32129l3.15039-3.40527
			l0.68359,0.27344L107.82422,355.49414z M105.67383,323.04395l-0.31348-0.72461l1.86816-0.80859l-0.25391-0.58594l-1.62793,0.70605
			l-0.32129-0.74219l1.62793-0.7041l-0.51074-1.18262l-1.81836,0.78711l-0.31836-0.73633l2.56445-1.11035l1.71875,3.96973
			L105.67383,323.04395z M111.04199,316.9248l0.78027-0.12012l0.66211,4.27344l-1.53027,0.2373
			c-0.28906,0.04492-0.57617-0.02832-0.81934-0.20605c-0.24219-0.17676-0.39844-0.42871-0.44238-0.7168
			c-0.06543-0.42676,0.12598-0.84961,0.4707-1.08691l-1.92871-1.94531l0.94727-0.14648l1.8418,1.85352l0.34277-0.05273
			L111.04199,316.9248z M111.81738,355.35645c0.45996,0.03809,0.90137-0.1377,1.20996-0.4834l0.10059-0.1084l0.60156,0.52539
			l-0.10645,0.11328c-0.23633,0.26758-0.52051,0.46875-0.84863,0.59961c-0.32129,0.13184-0.67285,0.18164-1.02441,0.15234
			c-0.30273-0.02637-0.59375-0.11133-0.8623-0.24902c-0.25684-0.1377-0.48633-0.32129-0.67383-0.54395
			c-0.19531-0.22461-0.33789-0.47949-0.4248-0.76172c-0.09766-0.28809-0.13281-0.58301-0.10742-0.89258
			c0.10352-1.24023,1.20508-2.16504,2.44629-2.06152c0.35059,0.02832,0.69434,0.14355,0.99023,0.32617
			c0.2959,0.17676,0.55469,0.43652,0.7373,0.73242l0.08691,0.12988l-0.68848,0.42285l-0.08008-0.12891
			c-0.24219-0.3916-0.64746-0.63867-1.11328-0.67773c-0.7998-0.06738-1.50781,0.52539-1.57422,1.32422
			C110.41992,354.58105,111.01758,355.28906,111.81738,355.35645z M115.98438,355.99414l-0.87305-4.24121l2.79395-0.5752
			l0.15918,0.77441l-1.99512,0.41016l0.12891,0.62598l1.73828-0.35938l0.16309,0.79297l-1.73828,0.3584l0.25977,1.2627
			l1.94141-0.39941l0.16211,0.78613L115.98438,355.99414z M121.59082,354.28125l-1.57129-3.15527l-0.95117,0.47266l-0.35742-0.71777
			l2.63281-1.31055l0.35742,0.71875l-0.95215,0.47266l1.57129,3.15625L121.59082,354.28125z M125.05078,352.19922l-2.66992-3.40039
			l0.63965-0.50293l2.66895,3.39941L125.05078,352.19922z M129.50781,347.55957l-2.29688-1.75488l0.54004,1.83398l-1.90723-0.04199
			l2.29688,1.75293l-0.48926,0.64258l-3.43652-2.62402l0.46094-0.60254l1.98926,0.04395l-0.56738-1.9082l0.46484-0.60742
			l3.43555,2.62305L129.50781,347.55957z M131.12012,344.72754l-4.04004-1.55371l1.02246-2.66016l0.7373,0.28418l-0.73047,1.89941
			l0.59668,0.22949l0.63574-1.65723l0.75586,0.29004l-0.63672,1.6582l1.20215,0.46191l0.71094-1.85059l0.74902,0.28809
			L131.12012,344.72754z M140.09375,319.36328c-4.14844,4.14844-8.74805,7.86035-13.67188,11.03125
			c-0.13867,0.08984-0.29395,0.13184-0.44727,0.13184c-0.27246,0-0.53906-0.13379-0.69727-0.37988
			c-0.24805-0.38379-0.13672-0.89648,0.24805-1.14453c4.82423-3.10742,9.33105-6.74512,13.39648-10.81055
			c0.32422-0.32227,0.84766-0.32227,1.17188,0C140.41699,318.51465,140.41699,319.04004,140.09375,319.36328z M128.52618,276.43042
			c-0.53278,0-1.05811-0.0307-1.57635-0.08533c-0.71851,2.15405-1.58801,4.23816-2.59857,6.24121
			c3.63269,2.71161,5.99541,7.03052,5.99541,11.91229c0,8.21368-6.65851,14.87219-14.87213,14.87219
			c-4.87653,0-9.19141-2.35767-11.90356-5.98376c-2.01617,1.01978-4.11469,1.89685-6.28418,2.62048
			c0.05469,0.51843,0.08539,1.04395,0.08539,1.5769c0,8.21362-6.65851,14.87213-14.87219,14.87213
			s-14.87213-6.65851-14.87213-14.87213c0-0.53296,0.0307-1.05847,0.08539-1.5769c-2.17615-0.72583-4.28076-1.60608-6.30261-2.62988
			c-2.71173,3.63141-7.02991,5.99316-11.91064,5.99316c-8.21368,0-14.87213-6.65851-14.87213-14.87219
			c0-4.89001,2.37061-9.21545,6.01379-11.92609c-1.00757-1.99878-1.87463-4.07831-2.59149-6.22736
			c-0.51825,0.05463-1.04358,0.08527-1.57629,0.08527c-8.21368,0-14.87219-6.65851-14.87219-14.87219
			s6.65851-14.87213,14.87219-14.87213c0.53278,0,1.05811,0.0307,1.57635,0.08533c0.72437-2.17163,1.60248-4.27209,2.6236-6.2901
			c-3.6853-2.70685-6.08765-7.05823-6.08765-11.98132c0-8.21368,6.65851-14.87213,14.87213-14.87213
			c4.92578,0,9.2793,2.40497,11.98578,6.09363c1.99286-1.00708,4.0661-1.87439,6.20874-2.59235
			c-0.05853-0.53619-0.09363-1.07928-0.09363-1.6311c0-8.21368,6.65851-14.87219,14.87219-14.87219
			s14.87213,6.65851,14.87213,14.87219c0,0.53638-0.03156,1.06512-0.08691,1.58685c2.1734,0.72107,4.27582,1.59613,6.2959,2.61432
			c2.70776-3.67572,7.05322-6.07092,11.96881-6.07092c8.21368,0,14.87212,6.65851,14.87212,14.87219
			c0,4.90344-2.38354,9.23938-6.04388,11.94855c1.02808,2.02795,1.91193,4.13916,2.6402,6.32239
			c0.51831-0.05463,1.04364-0.08533,1.57642-0.08533c8.21362,0,14.87213,6.65845,14.87213,14.87213
			S136.73981,276.43042,128.52618,276.43042z M145.51508,249.52441l-3.0127-0.19238l0.27637-4.31738l0.81152,0.05176
			l-0.22461,3.52344l2.20117,0.14063L145.51508,249.52441z M145.56586,212.04395c-0.29004,0-0.56055-0.15039-0.7207-0.41016
			c-0.22949-0.38965-0.09961-0.90039,0.30078-1.12988c0.38965-0.23047,0.89941-0.09961,1.12988,0.2998
			c0.22949,0.39063,0.09961,0.90039-0.30078,1.12988C145.84515,212.01367,145.70551,212.04395,145.56586,212.04395z
			 M147.23871,249.31543l-1.06543-4.18652l0.78809-0.20117l0.86914,3.41699l2.13574-0.54395l0.19531,0.77051L147.23871,249.31543z
			 M149.02777,195.39258l-0.20508-0.75586l2.23242-2.59766l-2.73633,0.74609L148.1059,192l4.17188-1.13672l0.20605,0.76172
			l-2.22754,2.58984l2.73047-0.74316l0.21484,0.78418L149.02777,195.39258z M152.61133,165.69336l-3.27148-0.98633l1.78809,2.19434
			l-0.63086,0.51367l-2.73047-3.35156l0.60742-0.49414l3.27734,0.98535l-1.79004-2.19824l0.63086-0.51465l2.73047,3.35254
			L152.61133,165.69336z M153.66406,161.30859l-2.73535,0.09766l0.53418-0.79492l2.60938-0.09668l0.19336-0.28613l-1.75293-1.17871
			l0.44043-0.65527l3.58594,2.41113l-0.86328,1.28418c-0.16309,0.24219-0.41113,0.4043-0.70508,0.46191
			c-0.29492,0.05762-0.58594,0.00195-0.82813-0.16211C153.78516,162.15039,153.60547,161.72168,153.66406,161.30859z
			 M158.73871,240.35352l-0.80078,1.71582l-3.91992-1.82617l0.67773-1.4541c0.12305-0.26465,0.35449-0.47168,0.62598-0.56543
			c0.26953-0.10254,0.5791-0.09277,0.84277,0.03125c0.16016,0.07324,0.29102,0.18164,0.39453,0.30371
			c0.10938-0.07617,0.22754-0.1416,0.35352-0.18359c0.36621-0.1377,0.76074-0.12012,1.11328,0.04297
			c0.35156,0.16504,0.61719,0.45703,0.75391,0.82715c0.06445,0.17773,0.09668,0.36719,0.08789,0.55664
			C158.86469,239.99609,158.81879,240.18164,158.73871,240.35352z M159.7641,237.20703l-4.25195-0.76953l0.14453-0.79883
			l4.25195,0.76758L159.7641,237.20703z"/>
		<polygon fill="#252626" points="17.88519,141.92578 17.7309,143.03906 18.51215,142.85938 		"/>
		<path fill="#252626" d="M131.07465,181.15918c-0.24023-0.77148-1.05273-1.20117-1.8125-0.96582
			c-0.76172,0.23438-1.19141,1.04688-0.95117,1.82031c0.23633,0.76563,1.04883,1.19531,1.81055,0.95996
			C130.88129,182.73926,131.31097,181.92578,131.07465,181.15918z"/>
		<path fill="#252626" d="M155.41449,239.13184l-0.33398,0.71484l0.55664,0.25977l0.33398-0.71582
			c0.07129-0.1543,0.00195-0.33496-0.14746-0.4043C155.67523,238.91797,155.4975,238.98145,155.41449,239.13184z"/>
		<path fill="#252626" d="M14.55316,200.73633c0.42383,0.67383,1.32031,0.87695,1.99902,0.45117
			c0.68457-0.42969,0.88867-1.32617,0.46484-2c-0.42383-0.67285-1.31934-0.87793-2.00293-0.44727
			C14.33441,199.16602,14.13129,200.0625,14.55316,200.73633z"/>
		<path fill="#252626" d="M87.43567,360.47876c-0.1626,0.31671-0.31885,0.5769-0.46924,0.78009
			c-0.15039,0.20343-0.28247,0.3374-0.396,0.4024c-0.06525,0.03259-0.14032,0.06073-0.22571,0.08514
			c-0.08521,0.02441-0.18701,0.04272-0.30481,0.05487c-0.11774,0.01221-0.25995,0.02258-0.42651,0.03052
			c-0.16656,0.00824-0.36786,0.01221-0.60345,0.01221c-0.26813,0-0.48962-0.008-0.66443-0.02441
			c-0.1748-0.01617-0.31488-0.03656-0.42041-0.06073c-0.10583-0.02466-0.18915-0.05304-0.24988-0.08539
			c-0.06104-0.03241-0.10791-0.06903-0.14032-0.1098c-0.0976-0.10559-0.16046-0.26208-0.18884-0.46924
			c-0.02863-0.20746-0.04272-0.47351-0.04272-0.79865v-0.8045c0.00189-0.11145,0.00519-0.21002,0.00989-0.29449
			c0.00793-0.15015,0.03021-0.29041,0.06683-0.42041s0.09338-0.26837,0.17084-0.41455
			c0.01825-0.03497,0.03894-0.07275,0.06073-0.11243c0.02936-0.00092,0.05981-0.0014,0.09387-0.0014h0.70715
			c0.23553,0,0.42859,0.00403,0.57898,0.01221c0.15021,0.008,0.27008,0.02417,0.35968,0.04858
			c0.12177,0.03259,0.20905,0.0896,0.26208,0.17078c0.0528,0.08118,0.09125,0.17883,0.11591,0.2926l0.10956,0.47534
			c0.03235,0.04083,0.08728,0.0589,0.16449,0.05487c0.07715-0.00397,0.12805-0.02625,0.15247-0.06708
			c0-0.13818-0.00818-0.31274-0.02441-0.52417c-0.01642-0.21136-0.02435-0.42676-0.02435-0.64612
			c0-0.23553,0.00793-0.46313,0.02435-0.6825c0.01624-0.2196,0.02441-0.40234,0.02441-0.54877
			c-0.02441-0.04034-0.07532-0.06287-0.15247-0.06714c-0.07721-0.00372-0.13214,0.01434-0.16449,0.05493l-0.09735,0.5
			c-0.03259,0.15436-0.07135,0.25806-0.11591,0.31085c-0.0448,0.0528-0.1037,0.09125-0.1767,0.11566
			c-0.07318,0.02441-0.1994,0.04266-0.37793,0.05487c-0.17902,0.01221-0.39838,0.01831-0.65833,0.01831h-0.5509
			c0.00421-0.00677,0.00793-0.01312,0.01221-0.02014l0.76788-1.32867c0.15411-0.26019,0.29443-0.50183,0.42065-0.7254
			c0.12579-0.22339,0.24988-0.42072,0.37164-0.59125c0.12201-0.17059,0.24774-0.30878,0.37799-0.41437
			c0.02698-0.02179,0.05469-0.0415,0.08307-0.06006c0.08258,0.03284,0.15527,0.07159,0.21796,0.11682
			c0.10156,0.073,0.18463,0.15839,0.24988,0.25598c0.06494,0.09741,0.11774,0.20721,0.15857,0.32898
			c0.04034,0.12195,0.08514,0.25616,0.13397,0.40234c0.03235,0.04083,0.08539,0.05701,0.15857,0.04883
			c0.073-0.008,0.12177-0.03241,0.14618-0.07324c-0.01642-0.12994-0.03046-0.27826-0.04248-0.44482
			c-0.01239-0.16656-0.02673-0.32916-0.04291-0.48755c-0.01617-0.15857-0.03754-0.30005-0.05469-0.42676
			c-0.04242-0.31348-0.03284-0.58118-0.03284-0.58118c0-0.61749-0.17523-1.15735-0.44269-1.60919
			c-0.26727-0.45142-0.60907-0.8078-1.02484-1.06915c-0.41595-0.26141-0.90302-0.44556-1.46143-0.55255
			c-0.55865-0.10699-1.21204-0.16046-1.96045-0.16046c-0.74872,0-1.4054,0.00891-1.96942,0.02673
			c-0.56445,0.01782-1.08441,0.05652-1.55969,0.11591c-0.07111,0.03564-0.10986,0.10419-0.11572,0.20483
			c-0.0061,0.10107,0.02045,0.18134,0.08026,0.24072l0.64148,0.07129c0.20197,0.02393,0.35919,0.06244,0.47247,0.11591
			c0.11261,0.05328,0.19592,0.15131,0.24939,0.29401c0.05353,0.14264,0.08612,0.33264,0.09808,0.57031
			c0.01172,0.23767,0.01782,0.54669,0.01782,0.92676v6.57678c0,0.4632-0.0061,0.83478-0.01782,1.11377
			c-0.01196,0.27942-0.05347,0.49622-0.12482,0.65057c-0.07129,0.15442-0.17828,0.26135-0.32074,0.32074
			c-0.14264,0.05957-0.34485,0.10699-0.60596,0.14264l-0.37445,0.05353c-0.05426,0.0542-0.07837,0.1283-0.07324,0.22168
			c-0.00043,0.19073-0.00256,0.25128-0.00653,0.46619c-0.00427,0.24609-0.0155,0.52112-0.03357,0.82538
			c0.01807,0.0448,0.06921,0.07159,0.15436,0.08075c0.08496,0.00867,0.14545-0.00916,0.1814-0.05377l0.0401-0.28198
			c0.02698-0.19684,0.06262-0.34888,0.10742-0.45612c0.04486-0.10742,0.12531-0.18793,0.2417-0.24164
			c0.11615-0.05371,0.27942-0.08539,0.48987-0.0943c0.21021-0.00873,0.48987-0.01318,0.83899-0.01318h1.69116
			c0.07153,0,0.12762,0.00446,0.16797,0.01318c0.0401,0.00891,0.06921,0.03375,0.08704,0.0741
			c0.01782,0.04016,0.02911,0.10278,0.03375,0.18768c0.00427,0.08521,0.00659,0.20343,0.00659,0.35571
			c0,0.26862-0.03357,0.46991-0.10065,0.60413s-0.1767,0.25061-0.32892,0.34912c-0.15228,0.10748-0.32001,0.21912-0.5033,0.33551
			c-0.18365,0.11615-0.36713,0.23248-0.55042,0.34888c-0.18347,0.11633-0.36011,0.22827-0.53021,0.33575
			c-0.1701,0.10718-0.31769,0.20575-0.44293,0.2951c-0.34021,0.2417-0.61987,0.46759-0.83905,0.67804
			c-0.21912,0.21027-0.3913,0.42279-0.5166,0.63751c-0.12555,0.21466-0.21259,0.44061-0.26184,0.6778
			c-0.04901,0.23718-0.07367,0.49878-0.07367,0.78528c0,0.25946,0.02228,0.45654,0.06689,0.59052
			c0.02698,0.03589,0.06049,0.05164,0.10089,0.04718c0.0401-0.0047,0.06921-0.0249,0.08728-0.06055
			c0.01758-0.17902,0.06024-0.34888,0.12738-0.50983c0.06708-0.16119,0.14966-0.30011,0.24847-0.4162
			c0.18793-0.23279,0.40021-0.4519,0.63745-0.6579c0.23694-0.20575,0.49878-0.41595,0.78528-0.63086
			c0.28619-0.21472,0.60834-0.43616,0.96637-0.66425c0.35779-0.22827,0.75171-0.47675,1.18127-0.74512
			c0.05377-0.03589,0.10938-0.065,0.16779-0.08728c0.05792-0.02252,0.10956-0.01575,0.15436,0.02014
			c0.06244,0.16986,0.15649,0.35126,0.2818,0.54364c0.12524,0.19238,0.27966,0.37372,0.46313,0.54382
			c0.18347,0.16986,0.39813,0.31067,0.64423,0.42279c0.24615,0.11169,0.53027,0.16779,0.85236,0.16779
			c0.47443,0,0.86365-0.10535,1.16797-0.31561c0.30408-0.21021,0.54126-0.4765,0.71136-0.79858
			c0.16986-0.31323,0.27966-0.66003,0.32892-1.0401c0.04901-0.38055,0.07556-0.78101,0.07367-1.20172
			c-0.0033-0.77936,0.13702-1.27539,0.13702-1.27539c0.0528-0.14636,0.10535-0.30261,0.15839-0.46924
			c0.0528-0.16656,0.10156-0.32916,0.14636-0.48773c0.04462-0.15839,0.0791-0.29047,0.1037-0.3963
			c-0.0246-0.05652-0.07129-0.09314-0.14026-0.10956C87.53119,360.43817,87.4765,360.44617,87.43567,360.47876z M82.30127,360.40979
			c0,0.3252-0.00421,0.58514-0.01215,0.78009c-0.00824,0.19495-0.03662,0.34747-0.08545,0.45703
			c-0.01733,0.03943-0.03796,0.07416-0.06171,0.10443c-0.00043,0.00024-0.00116,0.00067-0.00165,0.00092
			c-0.14191-0.02722-0.2616-0.05865-0.35822-0.09454c-0.16052-0.05939-0.27618-0.16632-0.34747-0.32074
			c-0.07135-0.15436-0.11591-0.37115-0.13373-0.65057c-0.01782-0.27899-0.02673-0.65057-0.02673-1.11377v-2.53784l0.63721,1.24164
			c0.08917,0.17078,0.16022,0.31506,0.21326,0.43286c0.0528,0.11798,0.09125,0.22754,0.11566,0.32916
			c0.02441,0.10181,0.04059,0.20929,0.04883,0.32306c0.00793,0.11377,0.01215,0.25598,0.01215,0.42651
			C82.30126,359.78802,82.30126,360.40979,82.30127,360.40979z M82.33789,357.04535c-0.2276-0.46338-0.45514-0.9223-0.68274-1.37769
			c-0.01642-0.03235-0.04456-0.09314-0.08514-0.18274c-0.04083-0.08917-0.08356-0.18463-0.12811-0.2865
			c-0.0448-0.10156-0.0835-0.19684-0.11591-0.28644c-0.03259-0.08942-0.04858-0.15039-0.04858-0.1828
			c0-0.04877,0.03217-0.08728,0.09741-0.11591c0.06494-0.02838,0.20319-0.06287,0.41455-0.10345l0.15839-0.02441
			c0.04059-0.04059,0.05884-0.0976,0.05487-0.17078c-0.00421-0.07294-0.03473-0.1178-0.09125-0.13397
			c-0.17316,0.01361-0.3855,0.0235-0.63721,0.02936v-2.58643c0-0.1427,0.00586-0.25555,0.01782-0.33881
			c0.01172-0.08282,0.04736-0.14832,0.10699-0.19592c0.05933-0.04736,0.15411-0.07721,0.28503-0.08917
			c0.13068-0.01172,0.31488-0.01782,0.55255-0.01782c0.9267,0,1.63666,0.25836,2.12982,0.77521
			c0.49292,0.51685,0.73975,1.20923,0.73975,2.0766c0,0.08209-0.01709,0.25922-0.02789,0.3808
			c-0.0683-0.00098-0.13654-0.00189-0.20483-0.0033c-0.18701-0.00403-0.39014-0.01434-0.60956-0.03052
			c-0.04877,0.02441-0.07507,0.07111-0.07928,0.14008c-0.00397,0.06921,0.0141,0.12408,0.05518,0.16467l0.21912,0.02441
			c0.14636,0.01617,0.26813,0.04272,0.36572,0.0791c0.09766,0.03656,0.14642,0.07532,0.14642,0.11591
			s-0.02441,0.11591-0.07318,0.22546c-0.04883,0.1098-0.11383,0.24188-0.19495,0.396
			c-0.08142,0.1546-0.16895,0.31934-0.26208,0.4939c-0.09363,0.1748-0.18115,0.33948-0.26233,0.49365
			c-0.18695,0.35779-0.37775,0.70898-0.57294,1.05432c-0.19495,0.34564-0.38593,0.68091-0.57269,1.00586
			C82.79681,357.95148,82.56525,357.50848,82.33789,357.04535z M86.61548,364.10645
			c-0.11426,0.26343-0.26587,0.48096-0.45471,0.65222c-0.18909,0.17126-0.40399,0.2984-0.64569,0.3822
			c-0.24188,0.0835-0.49432,0.12506-0.75781,0.12506c-0.44812,0-0.79724-0.06573-1.04755-0.19757
			c-0.25037-0.13184-0.44598-0.28552-0.5863-0.46124c-0.14972-0.19336-0.24402-0.40851-0.28345-0.64569
			c-0.03961-0.23718-0.05933-0.47443-0.05933-0.71161c0-0.33411,0.00677-0.56445,0.01971-0.69189
			c0.01337-0.12762,0.02838-0.19989,0.0462-0.21747c0.03497-0.02649,0.17993-0.03943,0.43475-0.03943h3.0838
			c0.08777,0,0.16022,0.00659,0.21747,0.01971c0.05682,0.01312,0.10089,0.0481,0.13165,0.10535
			c0.0307,0.05701,0.05042,0.14264,0.05933,0.2569c0.00873,0.11426,0.01343,0.2724,0.01343,0.47443
			C86.78699,363.52643,86.72949,363.84296,86.61548,364.10645z"/>
	</g>
	<g>
		<g>
			<g>
				<circle fill="#BCBCBC" cx="23.00013" cy="7.00002" r="5.73633"/>
				<path fill="#808080" d="M23.00001,1.52749c3.01758,0,5.47253,2.45496,5.47253,5.47253s-2.45496,5.47253-5.47253,5.47253
					s-5.47253-2.45496-5.47253-5.47253S19.98243,1.52749,23.00001,1.52749 M23.00001,1.00002c-3.31372,0-6,2.68628-6,6
					s2.68628,6,6,6s6-2.68628,6-6S26.31373,1.00002,23.00001,1.00002L23.00001,1.00002z"/>
			</g>
			<polygon fill="#6E6E6E" points="26.49456,6.34068 23.65939,6.34068 23.65939,3.50551 22.34071,3.50551 22.34071,6.34068 
				19.50554,6.34068 19.50554,7.65936 22.34071,7.65936 22.34071,10.49453 23.65939,10.49453 23.65939,7.65936 26.49456,7.65936 			
				"/>
		</g>
	</g>
	<g>
		<g>
			<g>
				<circle fill="#BCBCBC" cx="142.00014" cy="7.00002" r="5.73633"/>
				<path fill="#808080" d="M142.00002,1.52749c3.01758,0,5.47253,2.45496,5.47253,5.47253s-2.45496,5.47253-5.47253,5.47253
					s-5.47253-2.45496-5.47253-5.47253S138.98244,1.52749,142.00002,1.52749 M142.00002,1.00002c-3.31372,0-6,2.68628-6,6
					s2.68628,6,6,6s6-2.68628,6-6S145.31374,1.00002,142.00002,1.00002L142.00002,1.00002z"/>
			</g>
			<polygon fill="#6E6E6E" points="145.49455,6.34068 142.65939,6.34068 142.65939,3.50551 141.34071,3.50551 141.34071,6.34068 
				138.50554,6.34068 138.50554,7.65936 141.34071,7.65936 141.34071,10.49453 142.65939,10.49453 142.65939,7.65936 
				145.49455,7.65936 			"/>
		</g>
	</g>
	<g>
		<g>
			<g>
				<circle fill="#BCBCBC" cx="23.00013" cy="373.00003" r="5.73633"/>
				<path fill="#808080" d="M23.00001,367.5275c3.01758,0,5.47253,2.45496,5.47253,5.47253s-2.45496,5.47253-5.47253,5.47253
					s-5.47253-2.45496-5.47253-5.47253S19.98243,367.5275,23.00001,367.5275 M23.00001,367.00003c-3.31372,0-6,2.68628-6,6
					s2.68628,6,6,6s6-2.68628,6-6S26.31373,367.00003,23.00001,367.00003L23.00001,367.00003z"/>
			</g>
			<polygon fill="#6E6E6E" points="26.49456,372.3407 23.65939,372.3407 23.65939,369.50552 22.34071,369.50552 22.34071,372.3407 
				19.50554,372.3407 19.50554,373.65936 22.34071,373.65936 22.34071,376.49454 23.65939,376.49454 23.65939,373.65936 
				26.49456,373.65936 			"/>
		</g>
	</g>
	<g>
		<g>
			<g>
				<circle fill="#BCBCBC" cx="142.00014" cy="373.00003" r="5.73633"/>
				<path fill="#808080" d="M142.00002,367.5275c3.01758,0,5.47253,2.45496,5.47253,5.47253s-2.45496,5.47253-5.47253,5.47253
					s-5.47253-2.45496-5.47253-5.47253S138.98244,367.5275,142.00002,367.5275 M142.00002,367.00003c-3.31372,0-6,2.68628-6,6
					s2.68628,6,6,6s6-2.68628,6-6S145.31374,367.00003,142.00002,367.00003L142.00002,367.00003z"/>
			</g>
			<polygon fill="#6E6E6E" points="145.49455,372.3407 142.65939,372.3407 142.65939,369.50552 141.34071,369.50552 
				141.34071,372.3407 138.50554,372.3407 138.50554,373.65936 141.34071,373.65936 141.34071,376.49454 142.65939,376.49454 
				142.65939,373.65936 145.49455,373.65936 			"/>
		</g>
	</g>
</g>
<g id="serigraphy">
	<g>
		<g>
			<g>
				<path fill="#E5E5E5" d="M2.50001,23.8301c-0.11035,0-0.2207-0.02051-0.32031-0.06055s-0.18945-0.09961-0.26953-0.17969
					c-0.07031-0.08008-0.13086-0.16992-0.18066-0.27051c-0.04004-0.09961-0.05957-0.19922-0.05957-0.30957
					s0.01953-0.21973,0.07031-0.32031c0.03906-0.09961,0.09961-0.18945,0.16992-0.26953
					c0.08008-0.08008,0.16992-0.13965,0.26953-0.17969c0.20996-0.08008,0.42969-0.08008,0.63965,0
					c0.10059,0.04004,0.19043,0.09961,0.26074,0.17969c0.08008,0.08008,0.13965,0.16992,0.18945,0.26953
					c0.04004,0.10059,0.06055,0.20996,0.06055,0.32031s-0.02051,0.20996-0.06055,0.30957
					c-0.0498,0.10059-0.10938,0.19043-0.18945,0.27051c-0.07031,0.08008-0.16016,0.13965-0.26074,0.17969
					C2.71974,23.80959,2.60938,23.8301,2.50001,23.8301z"/>
			</g>
			<g>
				<path fill="#E5E5E5" d="M13.20997,23.00979c0-0.45996,0.37012-0.83008,0.83008-0.83008l0,0
					c0.45996,0,0.83008,0.37012,0.83008,0.83008l0,0c0,0.4502-0.37012,0.82031-0.83008,0.82031l0,0
					C13.58009,23.8301,13.20997,23.45998,13.20997,23.00979z M7.43946,23.00979c0-0.45996,0.37012-0.83008,0.83008-0.83008l0,0
					c0.45996,0,0.83008,0.37012,0.83008,0.83008l0,0c0,0.4502-0.37012,0.82031-0.83008,0.82031l0,0
					C7.80958,23.8301,7.43946,23.45998,7.43946,23.00979z"/>
			</g>
			<g>
				<path fill="#E5E5E5" d="M19.80958,23.8301c-0.10938,0-0.20996-0.02051-0.31934-0.06055
					c-0.09082-0.04004-0.19043-0.09961-0.26074-0.17969c-0.08008-0.08008-0.13965-0.16992-0.17969-0.27051
					c-0.04004-0.09961-0.07031-0.19922-0.07031-0.30957s0.03027-0.21973,0.07031-0.32031
					c0.04004-0.09961,0.09961-0.18945,0.17969-0.26953c0.07031-0.08008,0.16016-0.13965,0.27051-0.17969
					c0.2998-0.13086,0.66992-0.05078,0.89941,0.17969c0.08008,0.08008,0.14063,0.16992,0.18066,0.26953
					c0.04004,0.10059,0.05957,0.20996,0.05957,0.32031s-0.01953,0.20996-0.05957,0.30957
					c-0.04004,0.10059-0.10059,0.19043-0.18066,0.27051C20.24024,23.75002,20.02931,23.8301,19.80958,23.8301z"/>
			</g>
		</g>
		<g>
			<g>
				<path fill="#E5E5E5" d="M145.72951,23.8301c-0.12012,0-0.21973-0.02051-0.31934-0.06055
					c-0.10059-0.04004-0.19043-0.09961-0.27051-0.17969s-0.13965-0.16992-0.17969-0.27051
					c-0.04004-0.09961-0.06055-0.20996-0.06055-0.30957c0-0.11035,0.02051-0.21973,0.06055-0.32031
					c0.04004-0.09961,0.09961-0.18945,0.17969-0.26953c0.07031-0.08008,0.16992-0.13965,0.27051-0.17969
					c0.19922-0.08008,0.42969-0.08008,0.62988,0c0.09961,0.04004,0.2002,0.09961,0.26953,0.17969
					c0.08008,0.08008,0.14063,0.16992,0.18066,0.26953c0.03906,0.10059,0.06934,0.20996,0.06934,0.32031
					c0,0.09961-0.03027,0.20996-0.06934,0.30957c-0.04004,0.10059-0.10059,0.19043-0.18066,0.27051
					s-0.16992,0.13965-0.26953,0.17969C145.93947,23.80959,145.83986,23.8301,145.72951,23.8301z"/>
			</g>
			<g>
				<path fill="#E5E5E5" d="M156.08009,23.00979c0-0.45996,0.37012-0.83008,0.83008-0.83008l0,0
					c0.44922,0,0.83008,0.37012,0.83008,0.83008l0,0c0,0.4502-0.38086,0.82031-0.83008,0.82031l0,0
					C156.45021,23.8301,156.08009,23.45998,156.08009,23.00979z M150.49025,23.00979c0-0.45996,0.36914-0.83008,0.8291-0.83008l0,0
					c0.4502,0,0.83008,0.37012,0.83008,0.83008l0,0c0,0.4502-0.37988,0.82031-0.83008,0.82031l0,0
					C150.85939,23.8301,150.49025,23.45998,150.49025,23.00979z"/>
			</g>
			<g>
				<path fill="#E5E5E5" d="M162.50002,23.8301c-0.2207,0-0.43066-0.08008-0.58984-0.24023
					c-0.15039-0.16016-0.24023-0.36035-0.24023-0.58008s0.08984-0.42969,0.24023-0.58984
					c0.08008-0.08008,0.16992-0.13965,0.26953-0.17969c0.20996-0.08008,0.42969-0.08008,0.63965,0
					c0.10059,0.04004,0.19043,0.09961,0.27051,0.17969c0.07031,0.08008,0.12988,0.16992,0.16992,0.26953
					c0.0498,0.10059,0.07031,0.20996,0.07031,0.32031c0,0.21973-0.08984,0.41992-0.24023,0.58008
					C162.9297,23.75002,162.71974,23.8301,162.50002,23.8301z"/>
			</g>
		</g>
		<g>
			<g>
				<path fill="#E5E5E5" d="M65.50977,198.39944c-0.04004-0.44922,0.30957-0.84961,0.75977-0.87988l0,0l0,0l0,0
					c0.45996-0.04004,0.86035,0.31055,0.89063,0.76074l0,0c0.0293,0.45996-0.31055,0.85938-0.77051,0.88965l0,0
					c-0.01953,0-0.04004,0-0.05957,0l0,0C65.89942,199.16995,65.54005,198.83987,65.50977,198.39944z M61.2295,198.54984
					L61.2295,198.54984c-0.41992-0.16992-0.62988-0.65039-0.46973-1.08008l0,0c0.16992-0.41992,0.65039-0.63965,1.08008-0.46973l0,0
					c0.42969,0.16992,0.62988,0.64941,0.46973,1.08008l0,0c-0.12988,0.31934-0.43945,0.51953-0.76953,0.51953l0,0
					C61.43946,198.59964,61.33009,198.58011,61.2295,198.54984z M70.31934,197.70023
					c-0.10938-0.4502,0.16016-0.89063,0.60059-1.01074l0,0l0,0l0,0c0.43945-0.10938,0.88965,0.15039,1.00977,0.59082l0,0
					c0.11035,0.44922-0.15039,0.89941-0.58984,1.00977h-0.00977c-0.07031,0.01953-0.14063,0.0293-0.2002,0.0293l0,0
					C70.75977,198.31937,70.41993,198.06937,70.31934,197.70023z M75.00001,196.33011
					c-0.14063-0.43066,0.08984-0.90039,0.51953-1.0498l0,0c0.43066-0.15039,0.90039,0.0791,1.0498,0.50977l0,0
					c0.15039,0.43945-0.0791,0.91016-0.50977,1.05957l0,0c-0.08984,0.03027-0.17969,0.04004-0.26953,0.04004l0,0
					C75.43946,196.88968,75.12012,196.66995,75.00001,196.33011z M79.58985,194.68948
					c-0.16016-0.42969,0.05957-0.90918,0.49023-1.06934l0,0c0.41992-0.16016,0.89941,0.0498,1.06934,0.47949l0,0
					c0.16016,0.43066-0.05957,0.91016-0.48926,1.07031l0,0c-0.09082,0.04004-0.19043,0.0498-0.29004,0.0498l0,0
					C80.0293,195.21976,79.71973,195.01956,79.58985,194.68948z M84.14942,192.95999
					c-0.14941-0.42969,0.06055-0.91016,0.49023-1.07031l0,0c0.42969-0.16016,0.91016,0.06055,1.07031,0.49023l0,0
					c0.16016,0.42969-0.06055,0.90039-0.49023,1.05957l0,0c-0.08984,0.04004-0.19043,0.06055-0.29004,0.06055l0,0
					C84.59962,193.50003,84.2793,193.29007,84.14942,192.95999z M88.74024,191.29984
					c-0.14063-0.44043,0.08984-0.91016,0.5293-1.0498l0,0c0.43066-0.14063,0.90039,0.08984,1.04004,0.53027l0,0
					c0.15039,0.42969-0.08984,0.89941-0.51953,1.0498l0,0c-0.08984,0.01953-0.18066,0.04004-0.26074,0.04004l0,0
					C89.1797,191.87015,88.85938,191.64944,88.74024,191.29984z M103.37012,190.76956
					c-0.40039-0.20996-0.55078-0.71973-0.34082-1.12012l0,0c0.21094-0.39941,0.71094-0.55957,1.12012-0.33984l0,0
					c0.40039,0.20996,0.56055,0.70996,0.34082,1.11035l0,0c-0.14063,0.29004-0.43066,0.4502-0.73047,0.4502l0,0
					C103.62989,190.87015,103.50001,190.83011,103.37012,190.76956z M93.41016,189.88968
					c-0.10059-0.4502,0.17969-0.88965,0.61914-0.99023l0,0c0.4502-0.09961,0.89063,0.16992,0.99023,0.62012l0,0
					c0.11035,0.4502-0.16992,0.89063-0.62012,0.99023l0,0c-0.05957,0.02051-0.12012,0.02051-0.17969,0.02051l0,0
					C93.83985,190.5303,93.49024,190.26956,93.41016,189.88968z M98.20997,189.06937
					c-0.00977-0.45996,0.35938-0.8291,0.81934-0.83984l0,0c0.4502,0,0.83008,0.36035,0.84082,0.82031l0,0
					c0,0.45996-0.36035,0.83008-0.82031,0.83984l0,0h-0.00977l0,0C98.58985,189.88968,98.21973,189.5303,98.20997,189.06937z"/>
			</g>
		</g>
		<g>
			<path fill="#E5E5E5" d="M27.46632,20.45559h0.59082v0.83496h0.01953c0.21582-0.58203,0.86328-0.97656,1.54785-0.97656
				c1.36035,0,1.77344,0.71387,1.77344,1.86816v3.11523h-0.59082V22.2759c0-0.83496-0.27246-1.46387-1.22949-1.46387
				c-0.93848,0-1.50098,0.71289-1.52051,1.66113v2.82422h-0.59082C27.46632,25.29738,27.46632,20.45559,27.46632,20.45559z"/>
			<path fill="#E5E5E5" d="M32.86475,23.03567c0.00977,0.86328,0.45996,1.90527,1.5957,1.90527
				c0.86328,0,1.33203-0.50684,1.51953-1.23926h0.5918c-0.25391,1.09863-0.8916,1.73633-2.11133,1.73633
				c-1.53906,0-2.18652-1.18262-2.18652-2.56152c0-1.27637,0.64746-2.5625,2.18652-2.5625
				c1.55762,0,2.17676,1.36133,2.12988,2.72168H32.86475z M35.99952,22.53859c-0.02832-0.8916-0.58203-1.72656-1.53906-1.72656
				c-0.9668,0-1.50195,0.84473-1.5957,1.72656H35.99952z"/>
			<path fill="#E5E5E5" d="M41.313,25.29738h-0.54395v-0.87305H40.7505c-0.30957,0.64746-0.94824,1.01367-1.6709,1.01367
				c-1.21973,0-1.69824-0.71289-1.69824-1.83887v-3.14354h0.59082v3.15234c0.02832,0.87305,0.35742,1.33301,1.29492,1.33301
				c1.01367,0,1.45508-0.95703,1.45508-1.94238v-2.54297H41.313V25.29738z"/>
			<path fill="#E5E5E5" d="M43.37061,20.45559h0.98535v0.49707h-0.98535v3.26563c0,0.38477,0.05664,0.61035,0.47949,0.6377
				c0.16895,0,0.33789-0.00879,0.50586-0.02734v0.50586c-0.17773,0-0.34668,0.01953-0.52539,0.01953
				c-0.78809,0-1.05957-0.2627-1.05078-1.08887v-3.3125h-0.84473v-0.49708h0.84473v-1.45508h0.59082
				C43.37061,19.00051,43.37061,20.45559,43.37061,20.45559z"/>
			<path fill="#E5E5E5" d="M45.21241,20.45559h0.54395v1.13477h0.01855c0.30078-0.77832,0.95703-1.23828,1.83008-1.20117v0.5918
				c-1.07031-0.05664-1.80176,0.73145-1.80176,1.73535v2.58105h-0.59082C45.21241,25.29739,45.21241,20.45559,45.21241,20.45559z"/>
			<path fill="#E5E5E5" d="M52.33546,22.87649c0,1.38867-0.80664,2.56152-2.29004,2.56152
				c-1.48242,0-2.28906-1.17285-2.28906-2.56152s0.80664-2.5625,2.28906-2.5625
				C51.52882,20.31399,52.33546,21.48781,52.33546,22.87649z M48.34718,22.87649c0,1.03223,0.56348,2.06445,1.69824,2.06445
				c1.13574,0,1.69922-1.03223,1.69922-2.06445s-0.56348-2.06445-1.69922-2.06445
				C48.91065,20.81203,48.34718,21.84426,48.34718,22.87649z"/>
			<path fill="#E5E5E5" d="M53.21046,20.45559h0.59082v0.83496h0.01953c0.21582-0.58203,0.86328-0.97656,1.54785-0.97656
				c1.36035,0,1.77344,0.71387,1.77344,1.86816v3.11523h-0.59082V22.2759c0-0.83496-0.27246-1.46387-1.22949-1.46387
				c-0.93848,0-1.50098,0.71289-1.52051,1.66113v2.82422h-0.59082C53.21046,25.29738,53.21046,20.45559,53.21046,20.45559z"/>
			<path fill="#E5E5E5" d="M60.87257,20.45559h0.54395v0.91895h0.01855c0.27246-0.65625,0.94824-1.06055,1.72656-1.06055
				c1.47363,0,2.17773,1.19238,2.17773,2.5625s-0.7041,2.56152-2.17773,2.56152c-0.72266,0-1.42578-0.36621-1.67969-1.06055
				h-0.01855v2.71191h-0.59082C60.87256,27.08937,60.87256,20.45559,60.87257,20.45559z M63.16163,20.81203
				c-1.30371,0-1.69824,0.96582-1.69824,2.06445c0,1.00391,0.44141,2.06445,1.69824,2.06445
				c1.12598,0,1.58594-1.06055,1.58594-2.06445S64.28761,20.81203,63.16163,20.81203z"/>
			<path fill="#E5E5E5" d="M70.5962,22.87649c0,1.38867-0.80664,2.56152-2.29004,2.56152
				c-1.48242,0-2.28906-1.17285-2.28906-2.56152s0.80664-2.5625,2.28906-2.5625
				C69.78956,20.31399,70.5962,21.48781,70.5962,22.87649z M66.60792,22.87649c0,1.03223,0.56348,2.06445,1.69824,2.06445
				c1.13574,0,1.69922-1.03223,1.69922-2.06445s-0.56348-2.06445-1.69922-2.06445
				C67.17139,20.81203,66.60792,21.84426,66.60792,22.87649z"/>
			<path fill="#E5E5E5" d="M70.99268,20.45559h0.62891l1.23828,4.14746h0.01855l1.18262-4.14746h0.66602l1.18262,4.14746h0.01855
				l1.23926-4.14746h0.62891l-1.55762,4.8418h-0.64844l-1.19141-4.07227h-0.01855l-1.18262,4.07227H72.5503L70.99268,20.45559z"/>
			<path fill="#E5E5E5" d="M78.78468,23.03567c0.00977,0.86328,0.45996,1.90527,1.5957,1.90527
				c0.86328,0,1.33203-0.50684,1.51953-1.23926h0.5918c-0.25391,1.09863-0.8916,1.73633-2.11133,1.73633
				c-1.53906,0-2.18652-1.18262-2.18652-2.56152c0-1.27637,0.64746-2.5625,2.18652-2.5625
				c1.55762,0,2.17676,1.36133,2.12988,2.72168H78.78468z M81.91944,22.53859c-0.02832-0.8916-0.58203-1.72656-1.53906-1.72656
				c-0.9668,0-1.50195,0.84473-1.5957,1.72656H81.91944z"/>
			<path fill="#E5E5E5" d="M83.31104,20.45559H83.855v1.13477h0.01855c0.30078-0.77832,0.95703-1.23828,1.83008-1.20117v0.5918
				c-1.07031-0.05664-1.80176,0.73145-1.80176,1.73535v2.58105h-0.59082V20.45559z"/>
			<path fill="#E5E5E5" d="M86.44581,23.03567c0.00977,0.86328,0.45996,1.90527,1.5957,1.90527
				c0.86328,0,1.33203-0.50684,1.51953-1.23926h0.5918c-0.25391,1.09863-0.8916,1.73633-2.11133,1.73633
				c-1.53906,0-2.18652-1.18262-2.18652-2.56152c0-1.27637,0.64746-2.5625,2.18652-2.5625
				c1.55762,0,2.17676,1.36133,2.12988,2.72168H86.44581z M89.58057,22.53859c-0.02832-0.8916-0.58203-1.72656-1.53906-1.72656
				c-0.9668,0-1.50195,0.84473-1.5957,1.72656H89.58057z"/>
			<path fill="#E5E5E5" d="M95.23194,25.29738H94.688v-0.91992h-0.01855c-0.25391,0.62891-1.02344,1.06055-1.72656,1.06055
				c-1.47363,0-2.17773-1.19141-2.17773-2.56152s0.7041-2.5625,2.17773-2.5625c0.72168,0,1.42578,0.36621,1.67969,1.06055h0.01855
				v-2.77735h0.59082C95.23195,18.59719,95.23195,25.29738,95.23194,25.29738z M92.94288,24.94094
				c1.25684,0,1.69824-1.06055,1.69824-2.06445s-0.44141-2.06445-1.69824-2.06445c-1.12695,0-1.58594,1.06055-1.58594,2.06445
				S91.81593,24.94094,92.94288,24.94094z"/>
			<path fill="#E5E5E5" d="M101.58155,20.45559h0.54395v0.8164h0.02832c0.30957-0.58203,0.81641-0.95801,1.58594-0.95801
				c0.6377,0,1.20996,0.31055,1.38867,0.94824c0.29102-0.6377,0.90039-0.94824,1.53906-0.94824
				c1.06055,0,1.60449,0.55371,1.60449,1.69922v3.28418h-0.59082v-3.25586c0-0.79785-0.30078-1.22949-1.14551-1.22949
				c-1.02246,0-1.31348,0.84473-1.31348,1.74512v2.74023h-0.59082V22.0132c0.00879-0.65723-0.2627-1.20117-1.01367-1.20117
				c-1.02344,0-1.43555,0.76953-1.44531,1.78223v2.70313h-0.59082C101.58156,25.29739,101.58156,20.45559,101.58155,20.45559z"/>
			<path fill="#E5E5E5" d="M113.73682,22.87649c0,1.38867-0.80664,2.56152-2.29004,2.56152
				c-1.48242,0-2.28906-1.17285-2.28906-2.56152s0.80664-2.5625,2.28906-2.5625
				C112.93018,20.31399,113.73682,21.48781,113.73682,22.87649z M109.74854,22.87649c0,1.03223,0.56348,2.06445,1.69824,2.06445
				c1.13574,0,1.69922-1.03223,1.69922-2.06445s-0.56348-2.06445-1.69922-2.06445
				C110.31202,20.81203,109.74854,21.84426,109.74854,22.87649z"/>
			<path fill="#E5E5E5" d="M114.62159,20.45559h0.54395v1.13477h0.01855c0.30078-0.77832,0.95703-1.23828,1.83008-1.20117v0.5918
				c-1.07031-0.05664-1.80176,0.73145-1.80176,1.73535v2.58105h-0.59082V20.45559z"/>
			<path fill="#E5E5E5" d="M117.57862,20.45559h0.54395v0.91895h0.01855c0.27246-0.65625,0.94824-1.06055,1.72656-1.06055
				c1.47363,0,2.17773,1.19238,2.17773,2.5625s-0.7041,2.56152-2.17773,2.56152c-0.72266,0-1.42578-0.36621-1.67969-1.06055
				h-0.01855v2.71191h-0.59082C117.57863,27.08937,117.57863,20.45559,117.57862,20.45559z M119.86768,20.81203
				c-1.30371,0-1.69824,0.96582-1.69824,2.06445c0,1.00391,0.44141,2.06445,1.69824,2.06445
				c1.12598,0,1.58594-1.06055,1.58594-2.06445S120.99366,20.81203,119.86768,20.81203z"/>
			<path fill="#E5E5E5" d="M122.95753,18.59719h0.59082v2.69336h0.01953c0.21582-0.58203,0.86328-0.97656,1.54785-0.97656
				c1.36035,0,1.77344,0.71387,1.77344,1.86816v3.11523h-0.59082V22.2759c0-0.83496-0.27246-1.46387-1.22949-1.46387
				c-0.93848,0-1.50098,0.71289-1.52051,1.66113v2.82422h-0.59082V18.59719z"/>
			<path fill="#E5E5E5" d="M128.01808,18.59719h0.5918v0.94727h-0.5918V18.59719z M128.01808,20.45559h0.5918v4.8418h-0.5918
				V20.45559z"/>
			<path fill="#E5E5E5" d="M129.73683,20.45559h0.59082v0.83496h0.01953c0.21582-0.58203,0.86328-0.97656,1.54785-0.97656
				c1.36035,0,1.77344,0.71387,1.77344,1.86816v3.11523h-0.59082V22.2759c0-0.83496-0.27246-1.46387-1.22949-1.46387
				c-0.93848,0-1.50098,0.71289-1.52051,1.66113v2.82422h-0.59082V20.45559z"/>
			<path fill="#E5E5E5" d="M138.87941,24.90285c-0.00879,1.44531-0.5625,2.32813-2.14844,2.32813
				c-0.9668,0-1.92383-0.43164-2.00879-1.46484h0.5918c0.13086,0.71387,0.75977,0.9668,1.41699,0.9668
				c1.08789,0,1.55762-0.64746,1.55762-1.83008v-0.65625h-0.01855c-0.27246,0.59082-0.84473,0.99414-1.53906,0.99414
				c-1.54883,0-2.18652-1.10742-2.18652-2.48633c0-1.33301,0.78809-2.44043,2.18652-2.44043
				c0.70313,0,1.30371,0.44141,1.53906,0.97656h0.01855v-0.83496h0.59082V24.90285z M138.28859,22.81984
				c0-0.94727-0.44141-2.00781-1.55762-2.00781c-1.12598,0-1.5957,1.00391-1.5957,2.00781c0,0.97559,0.50684,1.92383,1.5957,1.92383
				C137.75343,24.74367,138.28859,23.8052,138.28859,22.81984z"/>
		</g>
	</g>
</g>
</svg>
