<?xml version="1.0" encoding="utf-8"?>
<!-- Generator: Adobe Illustrator 25.2.3, SVG Export Plug-In . SVG Version: 6.00 Build 0)  -->
<svg version="1.0"
	 id="Layer_1" xmlns:cc="http://creativecommons.org/ns#" xmlns:dc="http://purl.org/dc/elements/1.1/" xmlns:inkscape="http://www.inkscape.org/namespaces/inkscape" xmlns:rdf="http://www.w3.org/1999/02/22-rdf-syntax-ns#" xmlns:sodipodi="http://sodipodi.sourceforge.net/DTD/sodipodi-0.dtd" xmlns:svg="http://www.w3.org/2000/svg"
	 xmlns="http://www.w3.org/2000/svg" xmlns:xlink="http://www.w3.org/1999/xlink" x="0px" y="0px" width="14.40091px"
	 height="14.40091px" viewBox="0 0 14.40091 14.40091" enable-background="new 0 0 14.40091 14.40091" xml:space="preserve">
<sodipodi:namedview  bordercolor="#666666" borderopacity="1" fit-margin-bottom="0" fit-margin-left="0" fit-margin-right="0" fit-margin-top="0" gridtolerance="10" guidetolerance="10" id="namedview11" inkscape:current-layer="Layer_1" inkscape:cx="7.5" inkscape:cy="7.5000005" inkscape:document-units="mm" inkscape:pageopacity="0" inkscape:pageshadow="2" inkscape:window-height="1017" inkscape:window-maximized="1" inkscape:window-width="1920" inkscape:window-x="-8" inkscape:window-y="-8" inkscape:zoom="15.733333" objecttolerance="10" pagecolor="#ffffff" showgrid="false" units="mm">
	</sodipodi:namedview>
<g id="g5959-5_63_" transform="translate(301.93513,1189.951)">
	<path id="path5961-3_63_" inkscape:connector-curvature="0" d="M-287.53467-1182.75012c0,3.9762-3.22443,7.19958-7.20053,7.19958
		c-3.97556,0-7.19946-3.22339-7.19946-7.19958c0-3.97766,3.22391-7.20044,7.19946-7.20044
		C-290.75909-1189.95056-287.53467-1186.72778-287.53467-1182.75012"/>
</g>
<g id="g5959-5_62_" transform="translate(301.93513,1189.951)">
	
		<linearGradient id="path5961-3_1_" gradientUnits="userSpaceOnUse" x1="-590.54266" y1="-2203.69604" x2="-577.56696" y2="-2203.69604" gradientTransform="matrix(-3.267949e-07 1 -1 -3.267949e-07 -2498.43066 -598.69647)">
		<stop  offset="0" style="stop-color:#2B2B2B"/>
		<stop  offset="1" style="stop-color:#0D0C0C"/>
	</linearGradient>
	<path id="path5961-3_62_" inkscape:connector-curvature="0" fill="url(#path5961-3_1_)" d="M-301.2225-1182.7511
		c0-3.58289,2.90552-6.4873,6.48831-6.4873c3.58234,0,6.4874,2.90442,6.48737,6.4873c0,3.58435-2.90503,6.4884-6.48737,6.4884
		C-298.31699-1176.2627-301.2225-1179.16675-301.2225-1182.7511"/>
</g>
<g id="g5959-5_61_" transform="translate(301.93513,1189.951)">
	<path id="path5961-3_61_" inkscape:connector-curvature="0" fill="#262626" d="M-300.40363-1182.75098
		c0-3.13074,2.53879-5.66858,5.66937-5.66858c3.13019,0,5.66855,2.53784,5.66855,5.66858c0,3.13184-2.53836,5.66931-5.66855,5.66931
		C-297.86484-1177.08167-300.40363-1179.61914-300.40363-1182.75098"/>
</g>
<g id="g5959-5_60_" transform="translate(301.93513,1189.951)" opacity="0.29">
	
		<linearGradient id="path5961-3_2_" gradientUnits="userSpaceOnUse" x1="-437.80966" y1="-1973.2749" x2="-426.47171" y2="-1973.2749" gradientTransform="matrix(6.535898e-07 1 -1 6.535898e-07 -2268.00928 -750.60864)">
		<stop  offset="0" style="stop-color:#666565"/>
		<stop  offset="1" style="stop-color:#0D0C0C"/>
	</linearGradient>
	<path id="path5961-3_60_" inkscape:connector-curvature="0" fill="url(#path5961-3_2_)" d="M-294.73425-1188.41956
		c3.13065,0,5.66855,2.53882,5.66855,5.66943c0,3.13013-2.5379,5.66846-5.66855,5.66846c-3.1319,0-5.66937-2.53833-5.66937-5.66846
		C-300.40363-1185.88074-297.86615-1188.41956-294.73425-1188.41956"/>
</g>
</svg>
