<?xml version="1.0" encoding="UTF-8" standalone="no"?>
<!-- Generator: Adobe Illustrator 25.2.3, SVG Export Plug-In . SVG Version: 6.00 Build 0)  -->

<svg
   xmlns:dc="http://purl.org/dc/elements/1.1/"
   xmlns:cc="http://creativecommons.org/ns#"
   xmlns:rdf="http://www.w3.org/1999/02/22-rdf-syntax-ns#"
   xmlns:svg="http://www.w3.org/2000/svg"
   xmlns="http://www.w3.org/2000/svg"
   xmlns:sodipodi="http://sodipodi.sourceforge.net/DTD/sodipodi-0.dtd"
   xmlns:inkscape="http://www.inkscape.org/namespaces/inkscape"
   version="1.0"
   id="Layer_1"
   inkscape:version="0.92.3 (2405546, 2018-03-11)"
   x="0px"
   y="0px"
   width="75"
   height="380"
   viewBox="0 0 75 380"
   enable-background="new 0 0 72 364.25195"
   xml:space="preserve"
   sodipodi:docname="Torus-DM.svg"><metadata
   id="metadata212"><rdf:RDF><cc:Work
       rdf:about=""><dc:format>image/svg+xml</dc:format><dc:type
         rdf:resource="http://purl.org/dc/dcmitype/StillImage" /><dc:title></dc:title></cc:Work></rdf:RDF></metadata><defs
   id="defs210" />
<sodipodi:namedview
   bordercolor="#666666"
   borderopacity="1"
   fit-margin-bottom="0"
   fit-margin-left="0"
   fit-margin-right="0"
   fit-margin-top="0"
   gridtolerance="10"
   guidetolerance="10"
   id="namedview219"
   inkscape:current-layer="Layer_1"
   inkscape:cx="-345.71989"
   inkscape:cy="190.27638"
   inkscape:document-units="mm"
   inkscape:pageopacity="0"
   inkscape:pageshadow="2"
   inkscape:window-height="1017"
   inkscape:window-maximized="1"
   inkscape:window-width="1920"
   inkscape:window-x="-8"
   inkscape:window-y="-8"
   inkscape:zoom="0.62105263"
   objecttolerance="10"
   pagecolor="#ffffff"
   showgrid="false"
   units="mm">
	</sodipodi:namedview>
<g
   id="bg"
   transform="matrix(1.3333333,0,0,1.3333333,-1.6e-4,-0.09594666)">
	
		<linearGradient
   id="rect11_1_"
   gradientUnits="userSpaceOnUse"
   x1="-49.340149"
   y1="429.97256"
   x2="172.63339"
   y2="651.94611"
   gradientTransform="matrix(0.96001,0,0,0.96001,-8.15403,-352.58813)">
		<stop
   offset="0.38537"
   style="stop-color:#FFCC9E"
   id="stop3" />
		<stop
   offset="0.62112"
   style="stop-color:#F1AD8C"
   id="stop5" />
		<stop
   offset="0.85662"
   style="stop-color:#E6947E"
   id="stop7" />
		<stop
   offset="1"
   style="stop-color:#E28B79"
   id="stop9" />
	</linearGradient>
	<rect
   id="rect11"
   x="1.89557"
   y="2.7739401"
   width="51.646671"
   height="281.31363"
   style="fill:url(#rect11_1_)" />
	<g
   id="g65">
		<path
   id="path13"
   inkscape:connector-curvature="0"
   d="m 22.02167,181.1499 c -2.08447,0.77921 -3.9798,1.94893 -5.5946,3.42206 1.61279,1.47121 3.50537,2.63965 5.58673,3.41885 1.61737,-1.05725 3.49493,-1.67303 5.43768,-1.79228 l 0.0015,-3.25186 c -1.21673,-0.0734 -2.44135,-0.33682 -3.6297,-0.8335 -0.6416,-0.26825 -1.23925,-0.59624 -1.80157,-0.96327 z"
   style="fill:#252626" />
		<path
   id="path15"
   inkscape:connector-curvature="0"
   d="m 22.02167,206.6499 c -2.08447,0.77921 -3.9798,1.94893 -5.5946,3.42206 1.61279,1.47121 3.50537,2.63963 5.58673,3.41884 1.61426,-1.05528 3.48779,-1.67073 5.4267,-1.79172 l 0.0013,-3.25291 c -1.21289,-0.0744 -2.43384,-0.33783 -3.61853,-0.83299 -0.64162,-0.26826 -1.23927,-0.59624 -1.80158,-0.96328 z"
   style="fill:#252626" />
		<path
   id="path17"
   inkscape:connector-curvature="0"
   d="m 22.0603,232.17346 c -2.09088,0.77582 -3.99243,1.94449 -5.61292,3.41789 1.6084,1.46233 3.49402,2.62358 5.56641,3.39944 1.61133,-1.05327 3.48065,-1.6685 5.41552,-1.79114 l 0.0015,-3.25397 c -1.20941,-0.0754 -2.42651,-0.33888 -3.60755,-0.83253 -0.62731,-0.26225 -1.21141,-0.58287 -1.76293,-0.9397 h -3e-5 z"
   style="fill:#252626" />
		<path
   id="path19"
   inkscape:connector-curvature="0"
   d="m 22.02167,155.6499 c -2.08447,0.77921 -3.9798,1.94893 -5.5946,3.42206 1.61279,1.47121 3.50537,2.63965 5.58673,3.41885 1.62048,-1.05927 3.50207,-1.67528 5.44886,-1.79288 l 0.0015,-3.25076 c -1.2204,-0.0724 -2.44904,-0.33582 -3.64087,-0.834 -0.6416,-0.26825 -1.23925,-0.59624 -1.80157,-0.96327 z"
   style="fill:#252626" />
		<path
   id="path21"
   inkscape:connector-curvature="0"
   d="m 20.86024,239.87035 c -1.96124,-0.82993 -3.74963,-1.98967 -5.29779,-3.40787 -2.95459,3.09883 -4.77448,7.2887 -4.77448,11.89828 0,4.29419 1.58789,8.41042 4.47071,11.59059 0.09449,0.104 0.13641,0.23227 0.14813,0.36218 1.59577,-1.49414 3.43909,-2.69144 5.44647,-3.53775 -3.56452,-3.06532 -4.93067,-8.18344 -3.01941,-12.75568 0.6936,-1.65924 1.74865,-3.05336 3.02637,-4.14975 z"
   style="fill:#252626" />
		<path
   id="path23"
   inkscape:connector-curvature="0"
   d="m 22.02167,130.1499 c -2.08447,0.77921 -3.9798,1.94893 -5.5946,3.42206 1.61279,1.47121 3.50537,2.63965 5.58673,3.41885 1.62359,-1.06128 3.50922,-1.67766 5.45984,-1.79347 l 0.0015,-3.24966 c -1.22406,-0.0714 -2.45636,-0.33481 -3.65186,-0.8345 -0.6416,-0.26825 -1.23926,-0.59624 -1.80157,-0.96327 h -4e-5 z"
   style="fill:#252626" />
		<path
   id="path25"
   inkscape:connector-curvature="0"
   d="m 20.85364,180.27612 c -3.5647,-3.06523 -4.93103,-8.18358 -3.01978,-12.756 0.6936,-1.65926 1.74866,-3.05338 3.02637,-4.14977 -1.96967,-0.83345 -3.76465,-1.99988 -5.3172,-3.42632 -2.94305,3.09686 -4.75507,7.2784 -4.75507,11.87791 0,4.59951 1.81201,8.78105 4.75507,11.87791 1.55091,-1.42486 3.34369,-2.59046 5.31061,-3.42373 z"
   style="fill:#252626" />
		<path
   id="path27"
   inkscape:connector-curvature="0"
   d="m 19.94983,11.35858 c 0.90381,0 1.62452,-0.73755 1.62452,-1.63257 0,-0.90307 -0.72071,-1.65674 -1.62452,-1.65674 -0.90235,0 -1.63183,0.75366 -1.63183,1.65674 0,0.89502 0.72949,1.63257 1.63183,1.63257 z"
   style="fill:#252626" />
		<path
   id="path29"
   inkscape:connector-curvature="0"
   d="m 20.88294,231.3033 c -3.5874,-3.06216 -4.96582,-8.19772 -3.04907,-12.78319 0.6936,-1.65926 1.74866,-3.05338 3.02637,-4.14977 -1.96967,-0.83345 -3.76465,-1.99988 -5.3172,-3.4263 -2.94305,3.09685 -4.75507,7.27838 -4.75507,11.8779 0,4.60959 1.81988,8.79945 4.77448,11.89828 1.55401,-1.42363 3.35064,-2.58635 5.32049,-3.41692 z"
   style="fill:#252626" />
		<path
   id="path31"
   inkscape:connector-curvature="0"
   d="m 20.85364,154.77612 c -3.5647,-3.06523 -4.93103,-8.18358 -3.01978,-12.756 0.6936,-1.65926 1.74866,-3.05338 3.02637,-4.14977 -1.96967,-0.83345 -3.76465,-1.99988 -5.3172,-3.42632 -2.94305,3.09686 -4.75507,7.2784 -4.75507,11.87791 0,4.59951 1.81201,8.78105 4.75507,11.87791 1.55091,-1.42486 3.34369,-2.59046 5.31061,-3.42373 z"
   style="fill:#252626" />
		<path
   id="path33"
   inkscape:connector-curvature="0"
   d="m 28.27454,8.48382 c 0,-0.11645 -0.08203,-0.26514 -0.19775,-0.26514 H 27.3136 v 0.53027 h 0.76318 c 0.11572,10e-6 0.19776,-0.1494 0.19776,-0.26513 z"
   style="fill:#252626" />
		<path
   id="path35"
   inkscape:connector-curvature="0"
   d="m 22.02167,104.64989 c -2.08905,0.7809 -3.98786,1.95428 -5.60504,3.43195 1.61005,1.47107 3.49933,2.64006 5.57739,3.42096 1.6311,-1.07098 3.52844,-1.69148 5.49078,-1.80606 l 0.0013,-3.24857 c -1.22754,-0.0703 -2.46387,-0.3338 -3.66284,-0.83501 -0.64161,-0.26825 -1.23926,-0.59623 -1.80157,-0.96327 z"
   style="fill:#252626" />
		<path
   id="path37"
   inkscape:connector-curvature="0"
   d="m 20.85364,205.77612 c -3.5647,-3.06523 -4.93103,-8.18358 -3.01978,-12.756 0.6936,-1.65926 1.74866,-3.05338 3.02637,-4.14977 -1.96967,-0.83345 -3.76465,-1.99988 -5.3172,-3.42632 -2.94305,3.09686 -4.75507,7.2784 -4.75507,11.87791 0,4.59951 1.81201,8.78105 4.75507,11.87791 1.55091,-1.42486 3.34369,-2.59046 5.31061,-3.42373 z"
   style="fill:#252626" />
		<path
   id="path39"
   inkscape:connector-curvature="0"
   d="m 20.85364,129.27612 c -3.5647,-3.06524 -4.93103,-8.18359 -3.01978,-12.756 0.69086,-1.65262 1.74042,-3.04189 3.01117,-4.13635 -1.96783,-0.83478 -3.76099,-2.0024 -5.31189,-3.42938 -2.93719,3.09581 -4.74518,7.27322 -4.74518,11.86757 0,4.59952 1.81201,8.78106 4.75507,11.87792 1.55091,-1.42489 3.34369,-2.59049 5.31061,-3.42376 z"
   style="fill:#252626" />
		<path
   id="path41"
   inkscape:connector-curvature="0"
   d="m 35.34571,137.82065 c 3.60424,3.05988 4.99145,8.20811 3.07068,12.8031 -0.70312,1.68214 -1.77668,3.09311 -3.07837,4.19604 1.92865,0.8302 3.68866,1.97882 5.21392,3.38008 2.94305,-3.09686 4.75507,-7.2784 4.75507,-11.87791 0,-4.59951 -1.81201,-8.78105 -4.75507,-11.87791 -1.52325,1.39938 -3.2807,2.54667 -5.20623,3.3766 z"
   style="fill:#252626" />
		<path
   id="path43"
   inkscape:connector-curvature="0"
   d="m 35.34571,163.32065 c 3.60424,3.05988 4.99145,8.20811 3.07068,12.8031 -0.70312,1.68214 -1.77668,3.09311 -3.07837,4.19604 1.92865,0.8302 3.68866,1.97882 5.21392,3.38008 2.94305,-3.09686 4.75507,-7.2784 4.75507,-11.87791 0,-4.59951 -1.81201,-8.78105 -4.75507,-11.87791 -1.52325,1.39938 -3.2807,2.54667 -5.20623,3.3766 z"
   style="fill:#252626" />
		<path
   id="path45"
   inkscape:connector-curvature="0"
   d="m 35.34571,188.82065 c 3.60424,3.05988 4.99145,8.20811 3.07068,12.8031 -0.70312,1.68214 -1.77668,3.09311 -3.07837,4.19604 1.92865,0.8302 3.68866,1.97882 5.21392,3.38008 2.94305,-3.09686 4.75507,-7.2784 4.75507,-11.87791 0,-4.59951 -1.81201,-8.78105 -4.75507,-11.87791 -1.52325,1.39938 -3.2807,2.54667 -5.20623,3.3766 z"
   style="fill:#252626" />
		<path
   id="path47"
   inkscape:connector-curvature="0"
   d="m 35.35999,112.33392 c 3.59308,3.06143 4.97443,8.2012 3.0564,12.78983 -0.70312,1.68214 -1.77668,3.09312 -3.07837,4.19605 1.92865,0.8302 3.68866,1.97882 5.21392,3.38008 2.94305,-3.09686 4.75507,-7.2784 4.75507,-11.87792 0,-4.59435 -1.80798,-8.77176 -4.74517,-11.86757 -1.5218,1.40002 -3.2776,2.54823 -5.20185,3.37953 z"
   style="fill:#252626" />
		<path
   id="path49"
   inkscape:connector-curvature="0"
   d="m 1.2e-4,0.07196 v 285 h 56.25 v -285 z m 43.36084,10.35058 c -0.16553,-0.03296 -0.97705,-0.20728 -1.30957,-0.40649 -0.5625,-0.33106 -0.85254,-0.83642 -0.85254,-1.46631 0,-0.3479 0.11573,-0.67969 0.30615,-0.96094 0.19043,-0.26514 0.45557,-0.47241 0.76172,-0.61303 l -0.0074,0.00806 c 0.31494,-0.14942 0.6709,-0.22339 1.01074,-0.22339 0.14062,0 0.27246,0.00806 0.43946,0.03296 0.53027,0.09082 1.01806,0.30615 1.69775,0.87012 L 44.4962,8.75702 C 43.88243,8.25165 43.56749,8.17694 43.25255,8.17694 c -0.15673,0 -0.28125,0.03296 -0.38086,0.08276 -0.15674,0.06665 -0.24023,0.18237 -0.24023,0.29004 0,0.22412 0.29883,0.33179 0.7793,0.43067 0.0498,0.01684 0.10693,0.01684 0.16552,0.03369 0.32373,0.07397 0.8042,0.17359 1.11914,0.35596 h -0.0088 c 0.59619,0.33179 0.91113,0.85328 0.91113,1.5 0,0.38086 -0.09961,0.73681 -0.31494,1.03565 -0.19043,0.27319 -0.47168,0.47168 -0.78662,0.62915 -0.33106,0.17432 -0.6709,0.22412 -1.04443,0.22412 -0.19922,0 -0.41455,-0.0249 -0.59619,-0.06665 -0.59619,-0.12378 -1.14404,-0.3977 -1.84717,-1.00196 l 0.94336,-1.08545 c 0.52295,0.45557 0.8291,0.62915 1.19385,0.6958 0.10693,0.0249 0.21533,0.04102 0.31494,0.04102 0.16552,0 0.31494,-0.03296 0.43066,-0.09082 0.09961,-0.04981 0.27392,-0.15747 0.27392,-0.38086 0,-0.23219 -0.43213,-0.37281 -0.8042,-0.44752 h 2e-5 z M 31.06726,52.9389 c -0.33325,-0.08422 -0.53467,-0.42188 -0.45117,-0.75439 0.08496,-0.33326 0.427,-0.53173 0.75439,-0.45117 5.89306,1.48682 10.00855,6.76611 10.00855,12.83862 0,2.56055 -0.73096,5.04492 -2.11451,7.18506 -0.11865,0.18384 -0.3186,0.28345 -0.52222,0.28345 -0.11572,0 -0.23218,-0.03223 -0.33691,-0.09961 -0.28784,-0.18604 -0.37061,-0.57056 -0.18384,-0.85913 1.25245,-1.93799 1.91529,-4.18872 1.91529,-6.50977 1e-5,-5.50269 -3.72949,-10.28614 -9.06958,-11.63306 z M 33.41907,6.80951 h 1.42529 v 3.62915 c 0,0.51416 0.41455,0.92797 0.91113,0.92797 0.50537,0 0.91113,-0.41382 0.91113,-0.92797 V 6.80951 h 1.43408 v 3.62915 c 0,1.29272 -1.05175,2.34521 -2.34521,2.34521 -1.28321,0 -2.33642,-1.05249 -2.33642,-2.34521 z m -7.50586,0 h 2.16358 c 0.43066,0 0.83642,0.17431 1.13525,0.47241 0.29736,0.30688 0.47168,0.77051 0.47168,1.2019 0,0.56324 -0.27392,1.11035 -0.71191,1.3916 l 2.146,2.83374 h -1.71533 l -1.95557,-2.55175 h -0.1333 v 2.55175 h -1.40039 c 0,0 0,-5.89965 -10e-6,-5.89965 z M 19.94983,6.65276 c 1.68311,0 3.07471,1.37476 3.07471,3.07324 0,1.68237 -1.3916,3.05786 -3.07471,3.05786 -1.69043,0 -3.06446,-1.37549 -3.06446,-3.05786 10e-6,-1.69848 1.37403,-3.07324 3.06446,-3.07324 z m 4.94825,45.07618 c 0.32886,-0.07984 0.67016,0.11865 0.75366,0.4519 0.0835,0.33252 -0.11865,0.67016 -0.4519,0.75366 -5.34961,1.34106 -9.08642,6.12671 -9.08642,11.63745 0,2.26465 0.63281,4.46924 1.82959,6.37573 0.18311,0.29078 0.09521,0.67383 -0.19555,0.8562 -0.10254,0.06445 -0.2168,0.09521 -0.32959,0.09521 -0.20654,0 -0.40869,-0.10254 -0.52661,-0.29077 -1.32202,-2.10425 -2.02002,-4.53735 -2.02002,-7.03638 -2e-5,-6.08201 4.12278,-11.36278 10.02684,-12.843 z M 10.4386,6.80951 h 4.13525 V 8.2348 h -1.35058 v 4.47436 H 11.78919 V 8.2348 H 10.4386 c 0,0 0,-1.42529 0,-1.42529 z m 36.11059,114.01244 c 0,4.939 -1.94916,9.42857 -5.11377,12.75001 3.16461,3.32144 5.11377,7.811 5.11377,12.75 0,4.939 -1.94916,9.42856 -5.11377,12.75 3.16461,3.32144 5.11377,7.811 5.11377,12.75 0,4.939 -1.94916,9.42856 -5.11377,12.75 3.16461,3.32144 5.11377,7.811 5.11377,12.75 0,4.939 -1.94916,9.42856 -5.11377,12.75 3.16461,3.32143 5.11377,7.81099 5.11377,12.74998 0,4.94865 -1.95667,9.44604 -5.13226,12.76941 3.1756,3.32336 5.13226,7.82076 5.13226,12.76941 0,3.89502 -1.19604,7.62085 -3.45922,10.77541 -0.19922,0.27759 -0.58667,0.34351 -0.86719,0.14209 -0.27832,-0.19995 -0.34204,-0.58813 -0.14209,-0.86719 2.11084,-2.94142 3.22632,-6.41676 3.22632,-10.05031 0,-4.60959 -1.81989,-8.79945 -4.77448,-11.89828 -1.51849,1.39114 -3.26954,2.5318 -5.18683,3.35815 3.60424,3.05988 4.99145,8.20811 3.07068,12.8031 -0.70367,1.68338 -1.77832,3.09531 -3.0813,4.19862 3.21881,1.3797 6.03112,3.65964 8.05444,6.65488 0.19189,0.28418 0.11719,0.6709 -0.167,0.86279 -0.28638,0.19263 -0.6709,0.11719 -0.86279,-0.16699 -1.98194,-2.93405 -4.77374,-5.13666 -7.966,-6.39899 V 278.674 c 0,1.32858 -1.07703,2.40561 -2.40546,2.40561 h -7.84973 c -1.32861,0 -2.40564,-1.07703 -2.40564,-2.40561 v -20.90863 c -3.75769,1.47626 -6.94703,4.24429 -8.9198,7.93768 -0.11133,0.20947 -0.32666,0.32812 -0.54859,0.32812 -0.09888,0 -0.19849,-0.0234 -0.29224,-0.0733 -0.30249,-0.16113 -0.41675,-0.5376 -0.25488,-0.84082 0.82105,-1.53735 1.84021,-2.92447 3.01318,-4.14136 -0.14502,-0.0163 -0.28638,-0.0732 -0.39185,-0.18945 -3.09082,-3.40942 -4.79297,-7.82227 -4.79297,-12.42554 0,-4.94865 1.95667,-9.44604 5.13227,-12.76941 -3.1756,-3.32336 -5.13227,-7.82076 -5.13227,-12.76941 0,-4.939 1.94916,-9.42856 5.11377,-12.75 -3.16461,-3.32144 -5.11377,-7.811 -5.11377,-12.75 0,-4.939 1.94916,-9.42856 5.11377,-12.75 -3.16461,-3.32144 -5.11377,-7.811 -5.11377,-12.75 0,-4.939 1.94916,-9.42856 5.11377,-12.75 -3.16461,-3.32144 -5.11377,-7.811 -5.11377,-12.75 0,-4.939 1.94916,-9.42856 5.11377,-12.75 -3.16461,-3.32144 -5.11377,-7.811 -5.11377,-12.75 0,-4.9341 1.94531,-9.41963 5.10425,-12.74011 -3.15893,-3.32048 -5.10425,-7.80602 -5.10425,-12.74011 0,-3.52881 0.99683,-6.96021 2.88355,-9.92432 0.18457,-0.28931 0.56763,-0.3728 0.8584,-0.19043 0.2893,0.18457 0.37426,0.56836 0.19043,0.8584 -1.76001,2.76343 -2.69018,5.96485 -2.69018,9.25635 0,4.59435 1.80798,8.77176 4.74518,11.86757 1.55328,-1.42909 3.34918,-2.59813 5.32049,-3.43318 -3.5647,-3.06523 -4.93103,-8.18358 -3.01978,-12.756 0.64435,-1.54124 1.60162,-2.85237 2.75738,-3.91113 -3.245,-1.30664 -6.10803,-3.51622 -8.18829,-6.43913 -0.19922,-0.27979 -0.13403,-0.66797 0.14575,-0.86646 0.27905,-0.19922 0.66797,-0.13329 0.86645,0.14576 2.08008,2.92323 4.99878,5.08383 8.29706,6.25864 1.69703,-1.19151 3.70056,-1.89212 5.78357,-2.01164 l 0.0028,-6.40009 c -3.30359,-0.15344 -6.39111,-1.49684 -8.74622,-3.8513 -0.24243,-0.24243 -0.24243,-0.63574 0,-0.87891 0.24316,-0.2417 0.63574,-0.24316 0.87891,0 2.12017,2.12023 4.89606,3.33582 7.86786,3.48807 l 0.01188,-27.57474 c -3.82177,-0.20293 -7.33777,-2.32951 -9.27868,-5.65842 -0.17285,-0.2959 -0.07251,-0.67675 0.22412,-0.84961 0.2959,-0.17212 0.67675,-0.07251 0.84961,0.22412 1.82007,3.12232 5.1936,5.06176 8.80445,5.06176 3.58667,0 6.94922,-1.92041 8.77662,-5.01269 0.17432,-0.29516 0.55371,-0.39331 0.85107,-0.21827 0.29517,0.17432 0.39331,0.55518 0.21827,0.85108 -1.93982,3.28253 -5.42395,5.38481 -9.20325,5.60065 l -0.0119,27.5766 c 2.97565,-0.15001 5.75519,-1.36597 7.87774,-3.48853 0.24316,-0.24171 0.63574,-0.24171 0.87891,0 0.24243,0.24316 0.24243,0.63647 0,0.87891 -2.35766,2.35707 -5.44958,3.70097 -8.7572,3.85185 l -0.0028,6.39793 c 1.23614,0.06795 2.48144,0.33141 3.68903,0.8362 0.58594,0.245 1.13159,0.54396 1.65161,0.87186 3.14576,-1.29877 5.88464,-3.51508 7.8241,-6.45369 0.18896,-0.28564 0.57349,-0.36548 0.8606,-0.17651 0.28638,0.18896 0.36547,0.57422 0.17651,0.8606 -1.9325,2.92795 -4.60291,5.19264 -7.67797,6.61542 3.66724,3.05077 5.09033,8.24445 3.15454,12.87534 -0.70312,1.68214 -1.77668,3.09311 -3.07837,4.19604 1.93286,0.83203 3.69616,1.98409 5.22381,3.38951 2.93719,-3.09581 4.74518,-7.27322 4.74518,-11.86758 0,-3.29224 -0.93018,-6.49365 -2.69019,-9.25634 -0.18384,-0.29004 -0.09888,-0.67383 0.19043,-0.8584 0.2915,-0.18237 0.67456,-0.09888 0.8584,0.19043 1.88672,2.96337 2.88355,6.39477 2.88355,9.92431 0,4.9341 -1.94531,9.41964 -5.10424,12.74012 3.15891,3.32047 5.10422,7.80601 5.10422,12.7401 z"
   style="fill:#252626" />
		<path
   id="path51"
   inkscape:connector-curvature="0"
   d="m 34.18719,111.46879 c 2.04383,-0.78072 3.90362,-1.93639 5.49115,-3.38695 -1.59101,-1.45363 -3.4552,-2.61131 -5.50415,-3.39207 -1.62323,1.04608 -3.50226,1.65239 -5.44592,1.75932 l -0.0013,3.24495 c 1.23981,0.0669 2.48877,0.33041 3.70001,0.8367 0.62623,0.26185 1.20942,0.58192 1.76019,0.93805 z"
   style="fill:#252626" />
		<path
   id="path53"
   inkscape:connector-curvature="0"
   d="m 34.16742,136.9568 c 2.04712,-0.77907 3.91022,-1.93414 5.50048,-3.38484 -1.58862,-1.44914 -3.44934,-2.60316 -5.49371,-3.38219 -1.62635,1.04805 -3.5094,1.65472 -5.45691,1.75992 l -0.0015,3.24385 c 1.24347,0.0658 2.49646,0.32945 3.71118,0.8372 0.61908,0.25877 1.19531,0.57509 1.74042,0.92606 z"
   style="fill:#252626" />
		<path
   id="path55"
   inkscape:connector-curvature="0"
   d="m 35.34571,214.32063 c 3.60424,3.05988 4.99145,8.20811 3.07068,12.8031 -0.70862,1.69487 -1.79224,3.11531 -3.1073,4.22177 1.93176,0.82759 3.69507,1.97461 5.22345,3.37473 2.95459,-3.09883 4.77448,-7.2887 4.77448,-11.89828 0,-4.59952 -1.81201,-8.78105 -4.75507,-11.8779 -1.52326,1.39936 -3.28071,2.54666 -5.20624,3.37658 z"
   style="fill:#252626" />
		<path
   id="path57"
   inkscape:connector-curvature="0"
   d="m 34.16742,187.9568 c 2.04712,-0.77907 3.91022,-1.93414 5.50048,-3.38484 -1.58862,-1.44914 -3.44934,-2.60316 -5.49371,-3.38219 -1.63257,1.05203 -3.52368,1.65939 -5.47907,1.76111 l -0.0015,3.2417 c 1.25079,0.0637 2.51129,0.32739 3.73334,0.83817 0.61908,0.25877 1.19531,0.57509 1.74042,0.92606 h 4e-5 z"
   style="fill:#252626" />
		<path
   id="path59"
   inkscape:connector-curvature="0"
   d="m 34.16742,162.4568 c 2.04712,-0.77907 3.91022,-1.93414 5.50048,-3.38484 -1.58862,-1.44914 -3.44934,-2.60316 -5.49371,-3.38219 -1.62946,1.05006 -3.51654,1.65701 -5.4679,1.76051 l -0.0015,3.24275 c 1.24713,0.0648 2.50378,0.32845 3.72217,0.83771 0.61908,0.25877 1.19531,0.57509 1.74042,0.92606 z"
   style="fill:#252626" />
		<path
   id="path61"
   inkscape:connector-curvature="0"
   d="m 34.16742,213.45679 c 2.04712,-0.77907 3.91022,-1.93413 5.50048,-3.38483 -1.58862,-1.44914 -3.44934,-2.60316 -5.49371,-3.38219 -1.6355,1.054 -3.53082,1.66173 -5.49023,1.7617 l -0.0013,3.2406 c 1.25446,0.0626 2.51861,0.32637 3.74432,0.83865 0.61908,0.25877 1.19531,0.57509 1.74042,0.92606 v 0 z"
   style="fill:#252626" />
		<path
   id="path63"
   inkscape:connector-curvature="0"
   d="m 28.67298,233.95206 -0.0014,3.2395 c 1.25812,0.0615 2.52631,0.32538 3.75549,0.83917 0.61908,0.25877 1.19531,0.57509 1.74042,0.92606 2.03815,-0.77568 3.89428,-1.92357 5.48016,-3.36543 -1.5943,-1.44965 -3.46179,-2.60252 -5.51275,-3.37834 -1.62983,1.04091 -3.51397,1.64163 -5.46185,1.73904 h -5e-5 z"
   style="fill:#252626" />
	</g>
	<g
   id="g69">
		<path
   id="path67"
   inkscape:connector-curvature="0"
   d="m 30.94809,272.15942 c -0.0857,0.1976 -0.19937,0.36075 -0.34102,0.4892 -0.14182,0.12845 -0.30301,0.22382 -0.48425,0.28665 -0.18142,0.0626 -0.37075,0.0937 -0.56836,0.0937 -0.33609,0 -0.59792,-0.0493 -0.78568,-0.14813 -0.18776,-0.0989 -0.33451,-0.21414 -0.43974,-0.34598 -0.11226,-0.14496 -0.183,-0.30634 -0.21256,-0.48422 -0.02974,-0.17789 -0.04452,-0.3558 -0.04452,-0.53369 0,-0.25058 0.0051,-0.4234 0.01478,-0.51892 0.01003,-0.0957 0.02129,-0.14993 0.03466,-0.16312 0.02622,-0.0199 0.13496,-0.0296 0.32606,-0.0296 h 2.31287 c 0.06581,0 0.12018,0.005 0.16312,0.0148 0.04259,0.01 0.07566,0.0361 0.09871,0.079 0.02305,0.0428 0.03783,0.10696 0.04452,0.19266 0.0065,0.0857 0.01003,0.20432 0.01003,0.3558 0,0.27682 -0.04311,0.51419 -0.12863,0.71179 m -3.99261,-9.61624 c 0.0088,-0.0621 0.03555,-0.11121 0.08024,-0.14694 0.04452,-0.0355 0.11561,-0.0579 0.2138,-0.0668 0.09801,-0.009 0.23614,-0.0133 0.41439,-0.0133 0.69506,0 1.22752,0.19373 1.59739,0.58139 0.3697,0.38763 0.55481,0.90689 0.55481,1.55743 0,0.0616 -0.01285,0.19446 -0.02094,0.28558 -0.0512,-6.7e-4 -0.10241,-0.002 -0.15361,-0.002 -0.14024,-0.003 -0.29263,-0.0107 -0.45716,-0.0229 -0.0366,0.0183 -0.05631,0.0533 -0.05947,0.10507 -0.003,0.0519 0.01056,0.0931 0.04136,0.12354 l 0.16435,0.0183 c 0.1098,0.0121 0.20113,0.032 0.27433,0.0593 0.0732,0.0274 0.1098,0.0565 0.1098,0.0869 0,0.0304 -0.0183,0.0869 -0.0549,0.1691 -0.0366,0.0824 -0.08535,0.18143 -0.14623,0.29706 -0.06107,0.11594 -0.1267,0.23947 -0.19655,0.37039 -0.07022,0.13107 -0.13585,0.25461 -0.19673,0.37021 -0.14024,0.26834 -0.2833,0.53177 -0.4297,0.7908 -0.14623,0.25919 -0.28946,0.51062 -0.42953,0.75433 -0.17702,-0.31689 -0.35069,-0.64914 -0.5212,-0.99649 -0.17069,-0.3475 -0.34137,-0.69168 -0.51205,-1.03323 -0.01232,-0.0243 -0.03343,-0.0699 -0.06388,-0.13708 -0.03061,-0.0669 -0.06264,-0.13849 -0.09608,-0.21484 -0.03361,-0.0762 -0.06264,-0.14764 -0.08692,-0.21484 -0.02446,-0.067 -0.03642,-0.11279 -0.03642,-0.13708 0,-0.0366 0.0241,-0.0655 0.07302,-0.0869 0.04874,-0.0213 0.15239,-0.0472 0.31094,-0.0776 l 0.11877,-0.0183 c 0.03044,-0.0304 0.04417,-0.0732 0.04118,-0.12808 -0.0031,-0.0547 -0.02605,-0.0883 -0.06845,-0.10049 -0.12986,0.0102 -0.28911,0.0176 -0.47791,0.022 v -1.93982 c 2e-5,-0.10696 0.0044,-0.19162 0.01339,-0.25409 m 0.75697,6.84374 c 0,0.2439 -0.0031,0.43884 -0.0091,0.58508 -0.0062,0.14624 -0.02744,0.26059 -0.06405,0.34277 -0.01302,0.0295 -0.02851,0.0556 -0.04628,0.0783 -3.5e-4,1.8e-4 -9e-4,5.5e-4 -0.0013,7e-4 -0.10645,-0.0204 -0.1962,-0.044 -0.26869,-0.0709 -0.12036,-0.0445 -0.20711,-0.12476 -0.26061,-0.24054 -0.05349,-0.11578 -0.08692,-0.27838 -0.10029,-0.48795 -0.01338,-0.20923 -0.02006,-0.48795 -0.02006,-0.8353 v -1.90341 l 0.47791,0.93121 c 0.06687,0.12811 0.12018,0.23633 0.15995,0.32465 0.03959,0.0885 0.06845,0.17068 0.08675,0.24689 0.01829,0.0763 0.03044,0.15695 0.03659,0.24231 0.006,0.0853 0.0092,0.19196 0.0092,0.31989 v 0.46631 h 1e-5 z m 3.77319,1.13058 c 0.03959,-0.1098 0.079,-0.22702 0.11877,-0.35193 0.03959,-0.12497 0.07619,-0.24689 0.1098,-0.36584 0.03343,-0.11877 0.0593,-0.21783 0.07777,-0.29718 -0.01848,-0.0424 -0.0535,-0.0698 -0.10523,-0.0822 -0.05191,-0.0122 -0.0929,-0.006 -0.12352,0.0183 -0.12194,0.23758 -0.23914,0.43271 -0.35193,0.58508 -0.11279,0.15256 -0.21185,0.25305 -0.29702,0.30179 -0.04892,0.0244 -0.10522,0.0456 -0.16928,0.0639 -0.06388,0.0183 -0.14024,0.032 -0.22858,0.0412 -0.08833,0.009 -0.19497,0.0169 -0.3199,0.0229 -0.12494,0.006 -0.27591,0.009 -0.45258,0.009 -0.20113,0 -0.36724,-0.006 -0.49833,-0.0183 -0.13109,-0.0121 -0.23615,-0.0274 -0.31532,-0.0456 -0.07936,-0.0185 -0.14182,-0.0398 -0.1874,-0.064 -0.04575,-0.0243 -0.08095,-0.0518 -0.10523,-0.0824 -0.0732,-0.0792 -0.12036,-0.19653 -0.14165,-0.35193 -0.02147,-0.15555 -0.03203,-0.35507 -0.03203,-0.59897 v -0.60339 c 0.0014,-0.0836 0.0039,-0.15747 0.0074,-0.22083 0.006,-0.11261 0.0227,-0.21783 0.05015,-0.31534 0.02744,-0.0975 0.07003,-0.20129 0.1281,-0.31091 0.01373,-0.0262 0.02921,-0.0545 0.04558,-0.0843 0.022,-7e-4 0.04486,-7.6e-4 0.07039,-7.6e-4 h 0.53036 c 0.17666,0 0.32149,0.003 0.43427,0.009 0.11261,0.006 0.20254,0.0181 0.26975,0.0364 0.09133,0.0244 0.15679,0.0672 0.19655,0.12811 0.03959,0.0609 0.06845,0.13406 0.08693,0.21942 l 0.08217,0.35651 c 0.02428,0.0306 0.06546,0.0442 0.12335,0.0412 0.05788,-0.003 0.09608,-0.0197 0.11437,-0.0503 0,-0.10364 -0.0062,-0.23456 -0.0183,-0.3931 -0.01232,-0.15854 -0.0183,-0.3201 -0.0183,-0.48462 0,-0.17664 0.006,-0.34735 0.0183,-0.51187 0.01214,-0.1647 0.0183,-0.30179 0.0183,-0.41156 -0.0183,-0.0303 -0.05649,-0.0472 -0.11437,-0.0503 -0.05789,-0.003 -0.09908,0.0107 -0.12335,0.0412 l -0.07305,0.37442 c -0.02446,0.11578 -0.05349,0.19357 -0.08692,0.23315 -0.03361,0.0396 -0.07777,0.0685 -0.1325,0.0868 -0.0549,0.0183 -0.14957,0.032 -0.28348,0.0412 -0.13426,0.009 -0.29879,0.0137 -0.49376,0.0137 H 28.8828 c 0.0032,-0.005 0.006,-0.01 0.0092,-0.0152 l 0.57593,-0.99646 c 0.11561,-0.19516 0.22084,-0.37637 0.3155,-0.5441 0.09432,-0.16751 0.1874,-0.31549 0.27872,-0.44342 0.09151,-0.12793 0.18582,-0.23157 0.28348,-0.31073 0.02024,-0.0164 0.041,-0.0311 0.06229,-0.0451 0.06194,0.0247 0.11649,0.0537 0.16347,0.0876 0.07619,0.0548 0.13848,0.11877 0.1874,0.19199 0.04874,0.0731 0.08833,0.15536 0.11895,0.24667 0.03027,0.0915 0.06388,0.19217 0.10048,0.30179 0.02428,0.0306 0.06405,0.0428 0.11895,0.0366 0.05473,-0.006 0.09132,-0.0243 0.10962,-0.0549 -0.01232,-0.0975 -0.02287,-0.20868 -0.03185,-0.33362 -0.0093,-0.12491 -0.02006,-0.24686 -0.0322,-0.36566 -0.01214,-0.11896 -0.02816,-0.22504 -0.041,-0.32007 -0.03185,-0.23508 -0.02464,-0.43585 -0.02464,-0.43585 0,-0.46313 -0.13144,-0.86804 -0.33204,-1.20694 -0.20042,-0.33853 -0.4568,-0.60583 -0.76861,-0.80188 -0.31198,-0.19601 -0.67729,-0.33414 -1.09607,-0.41437 -0.41897,-0.0803 -0.90903,-0.12039 -1.47035,-0.12039 -0.5615,0 -1.05402,0.007 -1.47704,0.0201 -0.42337,0.0133 -0.81331,0.0424 -1.16981,0.0869 -0.05332,0.0267 -0.08235,0.0781 -0.08675,0.15363 -0.0046,0.0758 0.01531,0.13602 0.06018,0.18054 l 0.48109,0.0535 c 0.1515,0.0179 0.2694,0.0468 0.35439,0.0869 0.08447,0.04 0.14693,0.11349 0.18705,0.22049 0.04012,0.10696 0.06458,0.24951 0.07355,0.42776 0.0088,0.17825 0.01337,0.41 0.01337,0.69507 v 4.93259 c 0,0.34735 -0.0046,0.6261 -0.01337,0.83533 -0.009,0.20956 -0.04012,0.37216 -0.09361,0.48795 -0.05349,0.11575 -0.13372,0.19601 -0.24054,0.24054 -0.10699,0.0447 -0.25867,0.0802 -0.45451,0.10696 l -0.28084,0.0401 c -0.04065,0.0406 -0.05878,0.0962 -0.0549,0.16629 -3.5e-4,0.14307 -0.002,0.18845 -0.005,0.34964 -0.0031,0.18457 -0.01161,0.39081 -0.02516,0.61902 0.01355,0.0336 0.05191,0.0537 0.11579,0.0605 0.0637,0.007 0.10909,-0.007 0.13602,-0.0403 l 0.03009,-0.21152 c 0.02024,-0.14764 0.04698,-0.26166 0.0806,-0.34207 0.03361,-0.0806 0.09397,-0.14096 0.18125,-0.18124 0.0871,-0.0403 0.20957,-0.064 0.36742,-0.0707 0.15767,-0.007 0.36741,-0.01 0.62924,-0.01 h 1.26835 c 0.05367,0 0.09572,0.003 0.12598,0.01 0.03009,0.007 0.05191,0.0254 0.06528,0.0556 0.01337,0.0301 0.02182,0.0771 0.02533,0.14078 0.0032,0.0639 0.005,0.15253 0.005,0.26675 0,0.20148 -0.02516,0.35245 -0.07549,0.45309 -0.05033,0.10064 -0.1325,0.18793 -0.24671,0.26184 -0.11419,0.0806 -0.24001,0.16437 -0.37744,0.25162 -0.13778,0.0871 -0.27538,0.17441 -0.41282,0.26166 -0.1376,0.0873 -0.27011,0.1712 -0.39767,0.2518 -0.12758,0.0804 -0.23825,0.15433 -0.33222,0.22137 -0.25515,0.18124 -0.4649,0.35071 -0.62925,0.50854 -0.16435,0.15765 -0.2935,0.31708 -0.38747,0.47809 -0.09414,0.16101 -0.15943,0.33044 -0.19637,0.50836 -0.03677,0.17789 -0.05525,0.37408 -0.05525,0.58893 0,0.19461 0.01672,0.34244 0.05015,0.4429 0.02024,0.0269 0.0454,0.0387 0.07566,0.0353 0.03009,-0.004 0.05191,-0.0187 0.06546,-0.0454 0.01319,-0.13425 0.04522,-0.26166 0.09555,-0.38235 0.05033,-0.12091 0.11226,-0.22507 0.18634,-0.31219 0.14095,-0.17453 0.3002,-0.3389 0.47809,-0.49338 0.17772,-0.15433 0.3741,-0.31201 0.58894,-0.47318 0.21468,-0.16101 0.45628,-0.32712 0.7248,-0.49814 0.26834,-0.17123 0.56378,-0.35757 0.88598,-0.55887 0.04029,-0.0269 0.082,-0.0487 0.12581,-0.0655 0.04346,-0.0169 0.08217,-0.0118 0.11579,0.0152 0.04681,0.12738 0.11737,0.26343 0.21133,0.40771 0.09397,0.14429 0.20975,0.2803 0.34735,0.40787 0.1376,0.12741 0.29861,0.233 0.48319,0.31708 0.18459,0.0838 0.39768,0.12582 0.63928,0.12582 0.3558,0 0.64772,-0.079 0.87595,-0.23666 0.22805,-0.15765 0.40594,-0.35739 0.53352,-0.599 0.1274,-0.23489 0.20975,-0.49496 0.24671,-0.78003 0.03677,-0.2854 0.05665,-0.58578 0.05525,-0.90128 -0.0025,-0.58456 0.10275,-0.95654 0.10275,-0.95654"
   style="fill:#252626" />
	</g>
</g>
<g
   id="serigraphy"
   transform="matrix(1.3333333,0,0,1.3333333,-1.6e-4,-0.09594666)">
	<g
   id="g170">
		<g
   id="g112">
			<g
   id="g102">
				<path
   id="path100"
   inkscape:connector-curvature="0"
   d="m 3.75012,18.24407 c -0.08276,0 -0.16552,-0.02198 -0.24023,-0.05201 C 3.43518,18.16203 3.3678,18.11662 3.30774,18.05657 3.19495,17.94451 3.12757,17.78703 3.12757,17.62151 c 0,-0.08204 0.01465,-0.1648 0.04468,-0.2395 0.03735,-0.07544 0.08276,-0.14282 0.13549,-0.20288 0.06006,-0.06006 0.12744,-0.10474 0.20215,-0.13477 0.23291,-0.09741 0.50244,-0.03735 0.68262,0.13477 0.11279,0.12012 0.18017,0.27759 0.18017,0.44238 0,0.16553 -0.06738,0.323 -0.18017,0.43506 -0.12012,0.12012 -0.27759,0.1875 -0.44239,0.1875 z"
   style="fill:#e5e5e5" />
			</g>
			<g
   id="g106">
				<path
   id="path104"
   inkscape:connector-curvature="0"
   d="m 6.08216,17.62151 c 0,-0.34497 0.28565,-0.62256 0.62256,-0.62256 v 0 c 0.34497,0 0.62256,0.27759 0.62256,0.62256 v 0 c 0,0.33765 -0.27759,0.62256 -0.62256,0.62256 v 0 c -0.33692,0 -0.62256,-0.28491 -0.62256,-0.62256 z"
   style="fill:#e5e5e5" />
			</g>
			<g
   id="g110">
				<path
   id="path108"
   inkscape:connector-curvature="0"
   d="m 9.66736,18.23675 c -0.08276,0 -0.1648,-0.01465 -0.24023,-0.04468 C 9.35242,18.16204 9.28504,18.11663 9.22498,18.05658 9.11219,17.94452 9.04481,17.78704 9.04481,17.62152 c 0,-0.1648 0.06738,-0.32227 0.18017,-0.44238 0.06006,-0.06006 0.12744,-0.10474 0.20215,-0.13477 0.15015,-0.06006 0.323,-0.06006 0.47315,0 0.08204,0.03003 0.14942,0.07471 0.20215,0.13477 0.06006,0.06006 0.10474,0.12744 0.13477,0.20288 0.03809,0.07471 0.05273,0.15747 0.05273,0.23951 0,0.08276 -0.01465,0.15747 -0.05273,0.23291 -0.03003,0.07471 -0.07471,0.14209 -0.13477,0.20215 -0.1128,0.1201 -0.27027,0.18016 -0.43507,0.18016 z"
   style="fill:#e5e5e5" />
			</g>
		</g>
		<g
   id="g126">
			<g
   id="g116">
				<path
   id="path114"
   inkscape:connector-curvature="0"
   d="m 46.58216,18.24407 c -0.08204,0 -0.15747,-0.02198 -0.23218,-0.05201 -0.07471,-0.03003 -0.14282,-0.07544 -0.20288,-0.13549 -0.05933,-0.06006 -0.10474,-0.12744 -0.13477,-0.20215 -0.03003,-0.07544 -0.05273,-0.15015 -0.05273,-0.23291 0,-0.08204 0.02271,-0.1648 0.05273,-0.2395 0.03003,-0.07544 0.07544,-0.14282 0.13477,-0.20288 0.05273,-0.06006 0.12012,-0.10474 0.19556,-0.13477 0.15747,-0.06006 0.32959,-0.06006 0.47974,0 0.07471,0.03003 0.14282,0.07471 0.20288,0.13477 0.05201,0.06006 0.09741,0.12744 0.13477,0.20288 0.03003,0.07471 0.04468,0.15747 0.04468,0.2395 0,0.08276 -0.01465,0.15747 -0.04468,0.23291 -0.03003,0.07471 -0.08276,0.14209 -0.13477,0.20215 -0.06006,0.06006 -0.12817,0.10547 -0.20288,0.13549 -0.07472,0.03003 -0.15748,0.05201 -0.24024,0.05201 z"
   style="fill:#e5e5e5" />
			</g>
			<g
   id="g120">
				<path
   id="path118"
   inkscape:connector-curvature="0"
   d="m 48.92224,17.62151 c 0,-0.34497 0.27759,-0.62256 0.62256,-0.62256 v 0 c 0.33765,0 0.61523,0.27759 0.61523,0.62256 v 0 c 0,0.33765 -0.27759,0.61523 -0.61523,0.61523 v 0 c -0.34497,10e-6 -0.62256,-0.27758 -0.62256,-0.61523 z"
   style="fill:#e5e5e5" />
			</g>
			<g
   id="g124">
				<path
   id="path122"
   inkscape:connector-curvature="0"
   d="m 52.50012,18.24407 c -0.16553,0 -0.32299,-0.06738 -0.44238,-0.1875 -0.11279,-0.11206 -0.18017,-0.26954 -0.18017,-0.43506 0,-0.17212 0.06738,-0.32959 0.18017,-0.44238 0.06006,-0.06006 0.12744,-0.10474 0.20215,-0.13477 0.15747,-0.06006 0.32227,-0.06006 0.47974,0 0.07545,0.03003 0.14282,0.07471 0.19556,0.13477 0.12012,0.11279 0.1875,0.27759 0.1875,0.44238 0,0.08276 -0.01538,0.15747 -0.04541,0.23291 -0.03735,0.07471 -0.08204,0.14209 -0.14209,0.20215 -0.05273,0.06006 -0.12012,0.10547 -0.19556,0.13549 -0.07471,0.03005 -0.15747,0.05201 -0.23951,0.05201 z"
   style="fill:#e5e5e5" />
			</g>
		</g>
		<g
   id="g168">
			<g
   id="g130">
				<path
   id="path128"
   inkscape:connector-curvature="0"
   d="m 13.43421,16.19915 h 0.40869 v 0.61231 h 0.0205 c 0.23291,-0.43652 0.61231,-0.71851 1.18945,-0.71851 0.479,0 0.90821,0.23291 1.0415,0.71118 0.21826,-0.47828 0.67529,-0.71118 1.15429,-0.71118 0.79541,0 1.2041,0.41528 1.2041,1.27442 v 2.46313 h -0.44385 v -2.44189 c 0,-0.59839 -0.22558,-0.92212 -0.8584,-0.92212 -0.76758,0 -0.98584,0.63355 -0.98584,1.30884 v 2.05517 h -0.44238 v -2.46313 c 0.0059,-0.49292 -0.19775,-0.90088 -0.76025,-0.90088 -0.76758,0 -1.07666,0.57715 -1.08398,1.33667 v 2.02735 h -0.44385 v -3.63136 z"
   style="fill:#e5e5e5" />
			</g>
			<g
   id="g134">
				<path
   id="path132"
   inkscape:connector-curvature="0"
   d="m 22.24085,19.8305 h -0.40723 v -0.65479 h -0.01465 c -0.23144,0.4856 -0.71045,0.76025 -1.25244,0.76025 -0.91552,0 -1.27441,-0.53467 -1.27441,-1.37915 v -2.35766 h 0.44385 v 2.36425 c 0.02051,0.65479 0.2666,0.99976 0.97119,0.99976 0.76025,0 1.09131,-0.71777 1.09131,-1.45679 v -1.90723 h 0.44238 z"
   style="fill:#e5e5e5" />
			</g>
			<g
   id="g138">
				<path
   id="path136"
   inkscape:connector-curvature="0"
   d="m 23.08752,14.80535 h 0.44385 v 5.02515 h -0.44385 z"
   style="fill:#e5e5e5" />
			</g>
			<g
   id="g142">
				<path
   id="path140"
   inkscape:connector-curvature="0"
   d="m 25.08704,16.19915 h 0.73975 v 0.3728 h -0.73975 v 2.44922 c 0,0.28858 0.04248,0.45776 0.36035,0.47827 0.12598,0 0.25342,-0.0066 0.37939,-0.0205 v 0.37939 c -0.1333,0 -0.26074,0.01465 -0.39404,0.01465 -0.59179,0 -0.79541,-0.19702 -0.78809,-0.81665 v -2.48438 h -0.63427 v -0.3728 h 0.63427 v -1.09131 h 0.44238 c 0,0 0,1.09131 10e-6,1.09131 z"
   style="fill:#e5e5e5" />
			</g>
			<g
   id="g146">
				<path
   id="path144"
   inkscape:connector-curvature="0"
   d="m 26.47571,14.80535 h 0.44385 v 0.71045 h -0.44385 z m 0,1.3938 h 0.44385 v 3.63135 h -0.44385 z"
   style="fill:#e5e5e5" />
			</g>
			<g
   id="g150">
				<path
   id="path148"
   inkscape:connector-curvature="0"
   d="m 27.7721,16.19915 h 0.40723 v 0.61231 h 0.02197 c 0.23144,-0.43652 0.61231,-0.71851 1.18946,-0.71851 0.47754,0 0.90673,0.23291 1.0415,0.71118 0.21827,-0.47828 0.67529,-0.71118 1.15429,-0.71118 0.79541,0 1.20264,0.41528 1.20264,1.27442 v 2.46313 h -0.44238 v -2.44189 c 0,-0.59839 -0.22559,-0.92212 -0.85986,-0.92212 -0.76611,0 -0.98438,0.63355 -0.98438,1.30884 v 2.05517 h -0.44385 v -2.46313 c 0.0073,-0.49292 -0.19629,-0.90088 -0.76025,-0.90088 -0.76758,0 -1.07666,0.57715 -1.08398,1.33667 v 2.02735 H 27.7721 Z"
   style="fill:#e5e5e5" />
			</g>
			<g
   id="g154">
				<path
   id="path152"
   inkscape:connector-curvature="0"
   d="m 33.64319,14.80535 h 0.44385 v 0.71045 h -0.44385 z m 0,1.3938 h 0.44385 v 3.63135 h -0.44385 z"
   style="fill:#e5e5e5" />
			</g>
			<g
   id="g158">
				<path
   id="path156"
   inkscape:connector-curvature="0"
   d="m 35.93127,17.94452 -1.30079,-1.74536 h 0.55517 l 1.03418,1.37915 1.01367,-1.37915 h 0.55664 l -1.30957,1.73803 1.41504,1.89331 h -0.5625 L 36.192,18.3034 35.07286,19.8305 h -0.54785 z"
   style="fill:#e5e5e5" />
			</g>
			<g
   id="g162">
				<path
   id="path160"
   inkscape:connector-curvature="0"
   d="m 38.58704,18.13421 c 0.0073,0.64746 0.34423,1.42895 1.19677,1.42895 0.64746,0 0.99902,-0.38013 1.13965,-0.92945 h 0.44385 c -0.19043,0.82397 -0.66943,1.30225 -1.5835,1.30225 -1.15429,0 -1.64062,-0.88696 -1.64062,-1.92114 0,-0.95728 0.48633,-1.92188 1.64062,-1.92188 1.16748,0 1.63184,1.021 1.59668,2.04126 h -2.79345 z m 2.35107,-0.3728 c -0.02198,-0.6687 -0.43652,-1.29492 -1.15429,-1.29492 -0.7251,0 -1.12646,0.63355 -1.19677,1.29492 z"
   style="fill:#e5e5e5" />
			</g>
			<g
   id="g166">
				<path
   id="path164"
   inkscape:connector-curvature="0"
   d="m 41.98108,16.19915 h 0.40869 v 0.85108 h 0.01318 c 0.22559,-0.58374 0.71777,-0.92871 1.37256,-0.90088 v 0.44385 c -0.80273,-0.04248 -1.35059,0.54859 -1.35059,1.30151 v 1.93579 h -0.44385 c 10e-6,0 10e-6,-3.63135 10e-6,-3.63135 z"
   style="fill:#e5e5e5" />
			</g>
		</g>
	</g>
	<g
   id="g188">
		<g
   id="g174">
			<path
   id="path172"
   inkscape:connector-curvature="0"
   d="m 36.98816,33.13861 c -0.20948,0 -0.41382,-0.10547 -0.53101,-0.29736 -0.17871,-0.29297 -0.08642,-0.67529 0.20654,-0.854 l 0.64014,-0.39111 c 0.2937,-0.17725 0.67529,-0.08642 0.854,0.20654 0.17871,0.29296 0.08642,0.67529 -0.20654,0.854 l -0.64014,0.39111 c -0.10107,0.06151 -0.2124,0.09082 -0.32299,0.09082 z"
   style="fill:#00bc8b" />
		</g>
		<g
   id="g178">
			<path
   id="path176"
   inkscape:connector-curvature="0"
   d="m 38.00623,35.21868 c -0.26075,0 -0.50317,-0.16552 -0.5896,-0.42627 -0.1084,-0.32593 0.06885,-0.67749 0.39404,-0.78516 l 0.71191,-0.23584 c 0.32886,-0.10986 0.67749,0.06885 0.78516,0.39404 0.1084,0.32593 -0.06885,0.67749 -0.39404,0.78516 l -0.71191,0.23584 c -0.06519,0.02198 -0.13111,0.03223 -0.19556,0.03223 z"
   style="fill:#00bc8b" />
		</g>
		<g
   id="g182">
			<path
   id="path180"
   inkscape:connector-curvature="0"
   d="m 38.52698,37.52948 c -0.32007,0 -0.5918,-0.2461 -0.6189,-0.57056 -0.0271,-0.34204 0.22705,-0.64233 0.56909,-0.67016 l 0.7478,-0.06006 c 0.35522,-0.03369 0.64233,0.22705 0.66943,0.56836 0.02783,0.34204 -0.22632,0.64234 -0.56836,0.66943 l -0.7478,0.06152 c -0.01758,7.3e-4 -0.03442,0.0015 -0.05127,0.0015 v -3e-5 z"
   style="fill:#00bc8b" />
		</g>
		<g
   id="g186">
			<path
   id="path184"
   inkscape:connector-curvature="0"
   d="m 39.23084,40.04095 c -0.03223,0 -0.06518,-0.0022 -0.09814,-0.0074 l -0.74047,-0.11719 c -0.33838,-0.05347 -0.56983,-0.37207 -0.51636,-0.71118 0.0542,-0.33765 0.375,-0.56836 0.71118,-0.51636 l 0.74047,0.11719 c 0.33838,0.05347 0.56982,0.37207 0.51636,0.71118 -0.04834,0.30543 -0.31274,0.52369 -0.61303,0.52369 v 2e-5 z"
   style="fill:#00bc8b" />
		</g>
	</g>
	<g
   id="g206">
		<g
   id="g192">
			<path
   id="path190"
   inkscape:connector-curvature="0"
   d="m 18.87756,32.94452 c -0.08276,0 -0.1648,-0.01538 -0.24023,-0.04541 -0.07471,-0.03735 -0.14209,-0.08204 -0.20215,-0.13477 -0.11279,-0.12011 -0.18018,-0.27758 -0.18018,-0.44238 0,-0.1648 0.06738,-0.323 0.18017,-0.44238 0.17212,-0.17285 0.44971,-0.22559 0.68262,-0.1355 0.07471,0.03809 0.14209,0.08276 0.19483,0.1355 0.12012,0.11938 0.1875,0.27758 0.1875,0.44238 0,0.08203 -0.01538,0.16479 -0.04541,0.2395 -0.03735,0.07544 -0.08204,0.14282 -0.14209,0.20288 -0.05273,0.05273 -0.12012,0.09741 -0.19483,0.13477 -0.07543,0.03002 -0.15819,0.04541 -0.24023,0.04541 z"
   style="fill:#ff4257" />
		</g>
		<g
   id="g196">
			<path
   id="path194"
   inkscape:connector-curvature="0"
   d="m 18.1781,35.21868 c -0.06446,0 -0.13037,-0.01025 -0.19556,-0.03223 l -0.71191,-0.23584 c -0.32519,-0.10767 -0.50244,-0.45923 -0.39404,-0.78516 0.10766,-0.32519 0.4563,-0.50464 0.78516,-0.39404 l 0.71192,0.23584 c 0.32519,0.10766 0.50244,0.45922 0.39404,0.78516 -0.08644,0.26075 -0.32887,0.42627 -0.58961,0.42627 z"
   style="fill:#ff4257" />
		</g>
		<g
   id="g200">
			<path
   id="path198"
   inkscape:connector-curvature="0"
   d="m 18.03089,37.56024 c -0.01685,0 -0.03369,-7.3e-4 -0.05127,-0.0022 l -1.49487,-0.1216 c -0.34204,-0.0271 -0.59619,-0.32739 -0.56836,-0.66943 0.02783,-0.34131 0.31201,-0.60352 0.66944,-0.56836 l 1.49487,0.12158 c 0.34204,0.0271 0.59619,0.32739 0.56836,0.66943 -0.02638,0.32445 -0.29811,0.57055 -0.61817,0.57055 z"
   style="fill:#ff4257" />
		</g>
		<g
   id="g204">
			<path
   id="path202"
   inkscape:connector-curvature="0"
   d="m 16.21228,40.15813 c -0.30029,0 -0.5647,-0.21827 -0.61304,-0.52368 -0.05347,-0.33911 0.17798,-0.65771 0.51636,-0.71118 l 2.22217,-0.35156 c 0.33985,-0.05127 0.65771,0.17871 0.71118,0.51636 0.05347,0.33911 -0.17798,0.65771 -0.51636,0.71118 l -2.22217,0.35156 c -0.03296,0.0051 -0.06592,0.0074 -0.09814,0.0074 z"
   style="fill:#ff4257" />
		</g>
	</g>
</g>
<g
   id="LEDS"
   transform="matrix(1.3333333,0,0,1.3333333,-1.6e-4,-0.09594666)">
	<g
   id="g211">
		<path
   id="path209"
   inkscape:connector-curvature="0"
   d="m 24.93323,30.6242 c -0.21313,0 -0.42114,-0.10913 -0.53687,-0.30688 L 23.60315,28.966 C 23.27869,28.41229 22.67736,28.06805 22.03577,28.06805 H 18.6703 c -0.34277,0 -0.6211,-0.27832 -0.6211,-0.6211 0,-0.34278 0.27832,-0.6211 0.6211,-0.6211 h 3.36547 c 1.08106,0 2.09179,0.57935 2.63965,1.51172 l 0.79322,1.35132 c 0.17359,0.2959 0.07397,0.67603 -0.22192,0.85034 -0.09815,0.05788 -0.20655,0.08497 -0.31349,0.08497 z"
   style="fill:#1f86cc" />
	</g>
	<g
   id="g215">
		<path
   id="path213"
   inkscape:connector-curvature="0"
   d="m 31.41956,30.6242 c -0.10693,0 -0.21533,-0.0271 -0.31348,-0.08496 -0.2959,-0.17432 -0.3955,-0.55445 -0.22192,-0.85034 l 0.79322,-1.35132 c 0.54712,-0.93237 1.55932,-1.51172 2.64038,-1.51172 h 3.38891 c 0.34277,0 0.6211,0.27832 0.6211,0.6211 0,0.34278 -0.27832,0.6211 -0.6211,0.6211 h -3.38891 c -0.64234,0 -1.24365,0.34424 -1.56812,0.89795 l -0.79321,1.35132 C 31.8407,30.51507 31.6327,30.6242 31.41956,30.6242 Z"
   style="fill:#1f86cc" />
	</g>
</g>
<g
   id="g155"
   transform="matrix(1.0416535,0,0,1.0416535,4.7077912e-4,0.28781834)">
	<g
   id="g127">
		
			<linearGradient
   id="SVGID_1_"
   gradientUnits="userSpaceOnUse"
   x1="372.20877"
   y1="-5206.689"
   x2="385.20877"
   y2="-5206.689"
   gradientTransform="rotate(90,-2413.45,-2785.5602)">
			<stop
   offset="0.00559"
   style="stop-color:#303030"
   id="stop103" />
			<stop
   offset="1"
   style="stop-color:#222222"
   id="stop105" />
		</linearGradient>
		<circle
   cx="7.6791301"
   cy="6.5986099"
   r="6.5"
   id="circle108"
   style="fill:url(#SVGID_1_)" />
		
			<linearGradient
   id="SVGID_2_"
   gradientUnits="userSpaceOnUse"
   x1="372.8963"
   y1="-5206.689"
   x2="384.52017"
   y2="-5206.689"
   gradientTransform="rotate(90,-2413.45,-2785.5602)">
			<stop
   offset="0.01118"
   style="stop-color:#636363"
   id="stop110" />
			<stop
   offset="1"
   style="stop-color:#2B2B2B"
   id="stop112" />
		</linearGradient>
		<circle
   cx="7.6791301"
   cy="6.5980802"
   r="5.8119402"
   id="circle115"
   style="fill:url(#SVGID_2_)" />
		
			<linearGradient
   id="SVGID_3_"
   gradientUnits="userSpaceOnUse"
   x1="373.34338"
   y1="-5206.689"
   x2="384.07312"
   y2="-5206.689"
   gradientTransform="rotate(90,-2413.45,-2785.5602)">
			<stop
   offset="0.01118"
   style="stop-color:#4C4C4C"
   id="stop117" />
			<stop
   offset="1"
   style="stop-color:#3B3B3B"
   id="stop119" />
		</linearGradient>
		<circle
   cx="7.6791301"
   cy="6.5980802"
   r="5.3648701"
   id="circle122"
   style="fill:url(#SVGID_3_)" />
		<path
   d="M 11.14802,5.90914 9.18441,5.67388 C 8.88297,5.63777 8.64539,5.40009 8.6094,5.09864 L 8.37511,3.13636 C 8.3649,3.05082 8.29236,2.98643 8.20621,2.98643 H 7.15207 c -0.08613,0 -0.15867,0.06438 -0.16889,0.1499 L 6.74834,5.09973 C 6.71228,5.40121 6.47457,5.63887 6.17307,5.67486 L 4.21031,5.90919 C 4.12477,5.9194 4.06038,5.99195 4.06038,6.07809 v 1.0542 c 0,0.08613 0.06438,0.15867 0.1499,0.16889 l 1.96299,0.2348 C 6.4747,7.57204 6.71233,7.80966 6.74839,8.1111 l 0.23479,1.96293 c 0.01023,0.08552 0.08277,0.1499 0.16889,0.1499 h 1.0542 c 0.08612,0 0.15865,-0.06436 0.16889,-0.14986 L 8.61037,8.11089 C 8.64649,7.80949 8.8841,7.57193 9.1855,7.53588 l 1.96249,-0.2347 c 0.08552,-0.01023 0.1499,-0.08276 0.1499,-0.16889 V 6.07803 c -1e-5,-0.08612 -0.06437,-0.15865 -0.14987,-0.16889 z"
   id="path124"
   inkscape:connector-curvature="0"
   style="fill:#171717" />
	</g>
	<g
   id="g152">
		
			<linearGradient
   id="SVGID_4_"
   gradientUnits="userSpaceOnUse"
   x1="723.53601"
   y1="-5206.689"
   x2="736.53601"
   y2="-5206.689"
   gradientTransform="rotate(90,-2413.45,-2785.5602)">
			<stop
   offset="0.00559"
   style="stop-color:#303030"
   id="stop129" />
			<stop
   offset="1"
   style="stop-color:#222222"
   id="stop131" />
		</linearGradient>
		<circle
   cx="7.6791301"
   cy="357.92584"
   r="6.5"
   id="circle134"
   style="fill:url(#SVGID_4_)" />
		
			<linearGradient
   id="SVGID_5_"
   gradientUnits="userSpaceOnUse"
   x1="724.22351"
   y1="-5206.689"
   x2="735.84741"
   y2="-5206.689"
   gradientTransform="rotate(90,-2413.45,-2785.5602)">
			<stop
   offset="0.01118"
   style="stop-color:#636363"
   id="stop136" />
			<stop
   offset="1"
   style="stop-color:#2B2B2B"
   id="stop138" />
		</linearGradient>
		<circle
   cx="7.6791301"
   cy="357.92529"
   r="5.8119402"
   id="circle141"
   style="fill:url(#SVGID_5_)" />
		
			<linearGradient
   id="SVGID_6_"
   gradientUnits="userSpaceOnUse"
   x1="724.67059"
   y1="-5206.689"
   x2="735.40033"
   y2="-5206.689"
   gradientTransform="rotate(90,-2413.45,-2785.5602)">
			<stop
   offset="0.01118"
   style="stop-color:#4C4C4C"
   id="stop143" />
			<stop
   offset="1"
   style="stop-color:#3B3B3B"
   id="stop145" />
		</linearGradient>
		<circle
   cx="7.6791301"
   cy="357.92529"
   r="5.3648701"
   id="circle148"
   style="fill:url(#SVGID_6_)" />
		<path
   d="M 11.14802,357.23636 9.18441,357.0011 C 8.88297,356.965 8.64539,356.7273 8.6094,356.42587 l -0.23428,-1.96228 c -0.01021,-0.0855 -0.08276,-0.14993 -0.1689,-0.14993 H 7.15207 c -0.08613,0 -0.15867,0.0644 -0.16889,0.14987 l -0.23484,1.96341 c -0.03606,0.30148 -0.27377,0.53915 -0.57526,0.57513 l -1.96276,0.23434 c -0.08554,0.0102 -0.14993,0.0828 -0.14993,0.16888 v 1.0542 c 0,0.0861 0.06438,0.15869 0.1499,0.16891 l 1.96299,0.2348 c 0.30144,0.036 0.53906,0.27368 0.57512,0.5751 l 0.23479,1.96292 c 0.01023,0.0855 0.08277,0.1499 0.16889,0.1499 h 1.0542 c 0.08612,0 0.15865,-0.0644 0.16889,-0.14987 l 0.23521,-1.96317 c 0.03611,-0.30139 0.27372,-0.53897 0.57512,-0.57501 l 1.96249,-0.23468 c 0.08552,-0.0102 0.1499,-0.0828 0.1499,-0.16891 v -1.05426 c -1e-5,-0.0861 -0.06437,-0.15861 -0.14987,-0.16886 z"
   id="path150"
   inkscape:connector-curvature="0"
   style="fill:#171717" />
	</g>
</g>
<g
   id="g207"
   transform="matrix(1.0416535,0,0,1.0416535,4.7077912e-4,0.28781834)">
	<g
   id="g180">
		
			<linearGradient
   id="SVGID_7_"
   gradientUnits="userSpaceOnUse"
   x1="372.20877"
   y1="-5263.0508"
   x2="385.20877"
   y2="-5263.0508"
   gradientTransform="rotate(90,-2413.45,-2785.5602)">
			<stop
   offset="0.00559"
   style="stop-color:#303030"
   id="stop157" />
			<stop
   offset="1"
   style="stop-color:#222222"
   id="stop159" />
		</linearGradient>
		<circle
   cx="64.040939"
   cy="6.5986099"
   r="6.5"
   id="circle162"
   style="fill:url(#SVGID_7_)" />
		
			<linearGradient
   id="SVGID_8_"
   gradientUnits="userSpaceOnUse"
   x1="372.8963"
   y1="-5263.0508"
   x2="384.52017"
   y2="-5263.0508"
   gradientTransform="rotate(90,-2413.45,-2785.5602)">
			<stop
   offset="0.01118"
   style="stop-color:#636363"
   id="stop164" />
			<stop
   offset="1"
   style="stop-color:#2B2B2B"
   id="stop166" />
		</linearGradient>
		<circle
   cx="64.040939"
   cy="6.5980802"
   r="5.8119402"
   id="circle169"
   style="fill:url(#SVGID_8_)" />
		
			<linearGradient
   id="SVGID_9_"
   gradientUnits="userSpaceOnUse"
   x1="373.34338"
   y1="-5263.0508"
   x2="384.07312"
   y2="-5263.0508"
   gradientTransform="rotate(90,-2413.45,-2785.5602)">
			<stop
   offset="0.01118"
   style="stop-color:#4C4C4C"
   id="stop171" />
			<stop
   offset="1"
   style="stop-color:#3B3B3B"
   id="stop173" />
		</linearGradient>
		<circle
   cx="64.040939"
   cy="6.5980802"
   r="5.3648701"
   id="circle176"
   style="fill:url(#SVGID_9_)" />
		<path
   d="M 67.50982,5.90914 65.54621,5.67388 C 65.24477,5.63777 65.00719,5.40008 64.9712,5.09863 L 64.73692,3.13635 C 64.72671,3.05081 64.65416,2.98642 64.56802,2.98642 h -1.05414 c -0.08613,0 -0.15866,0.06438 -0.16889,0.1499 l -0.23484,1.9634 C 63.07409,5.40121 62.83639,5.63886 62.53489,5.67486 L 60.57213,5.90919 C 60.48659,5.9194 60.4222,5.99195 60.4222,6.07809 v 1.0542 c 0,0.08613 0.06438,0.15867 0.14989,0.16889 l 1.96299,0.2348 c 0.30144,0.03606 0.53907,0.27368 0.57512,0.57512 l 0.23479,1.96293 c 0.01023,0.08552 0.08276,0.1499 0.16889,0.1499 h 1.05421 c 0.08611,0 0.15865,-0.06436 0.16888,-0.14986 L 64.97218,8.11089 C 65.00829,7.8095 65.2459,7.57194 65.5473,7.5359 L 67.50979,7.3012 C 67.59531,7.29097 67.65968,7.21844 67.65968,7.13231 V 6.07803 c 0,-0.08612 -0.06435,-0.15865 -0.14986,-0.16889 z"
   id="path178"
   inkscape:connector-curvature="0"
   style="fill:#171717" />
	</g>
	<g
   id="g205">
		
			<linearGradient
   id="SVGID_10_"
   gradientUnits="userSpaceOnUse"
   x1="723.53601"
   y1="-5263.0508"
   x2="736.53601"
   y2="-5263.0508"
   gradientTransform="rotate(90,-2413.45,-2785.5602)">
			<stop
   offset="0.00559"
   style="stop-color:#303030"
   id="stop182" />
			<stop
   offset="1"
   style="stop-color:#222222"
   id="stop184" />
		</linearGradient>
		<circle
   cx="64.040939"
   cy="357.92584"
   r="6.5"
   id="circle187"
   style="fill:url(#SVGID_10_)" />
		
			<linearGradient
   id="SVGID_11_"
   gradientUnits="userSpaceOnUse"
   x1="724.22351"
   y1="-5263.0508"
   x2="735.84741"
   y2="-5263.0508"
   gradientTransform="rotate(90,-2413.45,-2785.5602)">
			<stop
   offset="0.01118"
   style="stop-color:#636363"
   id="stop189" />
			<stop
   offset="1"
   style="stop-color:#2B2B2B"
   id="stop191" />
		</linearGradient>
		<circle
   cx="64.040939"
   cy="357.92529"
   r="5.8119402"
   id="circle194"
   style="fill:url(#SVGID_11_)" />
		
			<linearGradient
   id="SVGID_12_"
   gradientUnits="userSpaceOnUse"
   x1="724.67059"
   y1="-5263.0508"
   x2="735.40033"
   y2="-5263.0508"
   gradientTransform="rotate(90,-2413.45,-2785.5602)">
			<stop
   offset="0.01118"
   style="stop-color:#4C4C4C"
   id="stop196" />
			<stop
   offset="1"
   style="stop-color:#3B3B3B"
   id="stop198" />
		</linearGradient>
		<circle
   cx="64.040939"
   cy="357.92529"
   r="5.3648701"
   id="circle201"
   style="fill:url(#SVGID_12_)" />
		<path
   d="m 67.50982,357.23636 -1.96361,-0.23526 c -0.30144,-0.0361 -0.53902,-0.2738 -0.57501,-0.57523 l -0.23428,-1.96228 c -0.01021,-0.0855 -0.08276,-0.14993 -0.1689,-0.14993 h -1.05414 c -0.08613,0 -0.15866,0.0644 -0.16889,0.14987 l -0.23484,1.96341 c -0.03606,0.30148 -0.27376,0.53915 -0.57526,0.57513 l -1.96276,0.23434 c -0.08554,0.0102 -0.14993,0.0828 -0.14993,0.16888 v 1.0542 c 0,0.0861 0.06438,0.15869 0.14989,0.16891 l 1.96299,0.2348 c 0.30144,0.036 0.53907,0.27368 0.57512,0.5751 l 0.23479,1.96292 c 0.01023,0.0855 0.08276,0.1499 0.16889,0.1499 h 1.05421 c 0.08611,0 0.15865,-0.0644 0.16888,-0.14987 l 0.23521,-1.96317 c 0.03611,-0.30139 0.27372,-0.53897 0.57512,-0.57501 l 1.96249,-0.23468 c 0.08552,-0.0102 0.14989,-0.0828 0.14989,-0.16891 v -1.05426 c 0,-0.0861 -0.06435,-0.15861 -0.14986,-0.16886 z"
   id="path203"
   inkscape:connector-curvature="0"
   style="fill:#171717" />
	</g>
</g>
</svg>