<?xml version="1.0" encoding="utf-8"?>
<!-- Generator: Adobe Illustrator 23.0.3, SVG Export Plug-In . SVG Version: 6.00 Build 0)  -->
<svg version="1.0" id="Layer_1" xmlns="http://www.w3.org/2000/svg" xmlns:xlink="http://www.w3.org/1999/xlink" x="0px" y="0px"
	 viewBox="0 0 75 380" enable-background="new 0 0 75 380" xml:space="preserve">
<g id="bg">
	
		<linearGradient id="SVGID_1_" gradientUnits="userSpaceOnUse" x1="-74.0284" y1="301.84171" x2="147.94514" y2="79.86816" gradientTransform="matrix(1 0 0 -1 0 382)">
		<stop  offset="0.38537" style="stop-color:#FFCC9E"/>
		<stop  offset="0.62112" style="stop-color:#F1AD8C"/>
		<stop  offset="0.85662" style="stop-color:#E6947E"/>
		<stop  offset="1" style="stop-color:#E28B79"/>
	</linearGradient>
	<rect x="2.52726" y="3.60264" fill="url(#SVGID_1_)" width="68.86223" height="375.08487"/>
	<g>
		<path fill="#252626" d="M29.36206,241.43726c-2.7793,1.03894-5.3064,2.59857-7.45947,4.56274
			c2.15039,1.96161,4.67383,3.51953,7.44897,4.55847c2.15649-1.40967,4.65991-2.23071,7.25024-2.38971l0.00195-4.33582
			c-1.62231-0.09784-3.25513-0.4491-4.8396-1.11133C30.90869,242.36395,30.11182,241.92664,29.36206,241.43726z"/>
		<path fill="#252626" d="M29.36206,275.43726c-2.7793,1.03894-5.3064,2.59857-7.45947,4.56274
			c2.15039,1.96161,4.67383,3.51953,7.44897,4.55847c2.15234-1.40704,4.65039-2.22766,7.2356-2.38898l0.00171-4.33722
			c-1.61719-0.09918-3.24512-0.45044-4.82471-1.11066C30.90869,276.36395,30.11182,275.92664,29.36206,275.43726z"/>
		<path fill="#252626" d="M29.41357,309.46869c-2.78784,1.03442-5.32324,2.59265-7.48389,4.55719
			c2.14453,1.94977,4.65869,3.49811,7.42188,4.53259c2.14844-1.40436,4.64087-2.22467,7.2207-2.38818l0.00195-4.33862
			c-1.61255-0.10052-3.23535-0.45184-4.81006-1.11005C30.92773,310.37195,30.14893,309.94446,29.41357,309.46869z"/>
		<path fill="#252626" d="M29.36206,207.43726c-2.7793,1.03894-5.3064,2.59857-7.45947,4.56274
			c2.15039,1.96161,4.67383,3.51953,7.44897,4.55847c2.16064-1.41235,4.66943-2.2337,7.26514-2.3905l0.00195-4.33435
			c-1.6272-0.0965-3.26538-0.44775-4.85449-1.112C30.90869,208.36395,30.11182,207.92664,29.36206,207.43726z"/>
		<path fill="#252626" d="M27.81348,319.7312c-2.61499-1.10657-4.99951-2.65289-7.06372-4.54382
			c-3.93945,4.13177-6.36597,9.71826-6.36597,15.86438c0,5.72559,2.11719,11.21387,5.96094,15.4541
			c0.12598,0.13867,0.18188,0.30969,0.19751,0.48291c2.12769-1.99219,4.58545-3.58856,7.26196-4.71698
			c-4.75269-4.0871-6.57422-10.91125-4.02588-17.00757C24.70313,323.05188,26.10986,321.19305,27.81348,319.7312z"/>
		<path fill="#252626" d="M29.36206,173.43726c-2.7793,1.03894-5.3064,2.59857-7.45947,4.56274
			c2.15039,1.96161,4.67383,3.51953,7.44897,4.55847c2.16479-1.41504,4.67896-2.23688,7.27979-2.3913l0.00195-4.33289
			c-1.63208-0.09515-3.27515-0.44641-4.86914-1.11267C30.90869,174.36395,30.11182,173.92664,29.36206,173.43726z"/>
		<path fill="#252626" d="M27.80469,240.27222c-4.75293-4.08698-6.57471-10.91144-4.02637-17.008
			c0.9248-2.21234,2.33154-4.07117,4.03516-5.53302c-2.62622-1.11127-5.01953-2.6665-7.0896-4.56842
			c-3.92407,4.12915-6.34009,9.70453-6.34009,15.83722s2.41602,11.70807,6.34009,15.83722
			C22.79175,242.93738,25.18213,241.38324,27.80469,240.27222z"/>
		<path fill="#252626" d="M26.59961,15.04883c1.20508,0,2.16602-0.9834,2.16602-2.17676c0-1.2041-0.96094-2.20898-2.16602-2.20898
			c-1.20313,0-2.17578,1.00488-2.17578,2.20898C24.42383,14.06543,25.39648,15.04883,26.59961,15.04883z"/>
		<path fill="#252626" d="M27.84375,308.30847c-4.7832-4.08289-6.62109-10.9303-4.06543-17.04425
			c0.9248-2.21234,2.33154-4.07117,4.03516-5.53302c-2.62622-1.11127-5.01953-2.6665-7.0896-4.56842
			c-3.92407,4.12915-6.34009,9.70453-6.34009,15.83722c0,6.14612,2.42651,11.7326,6.36597,15.86438
			C22.82178,310.96619,25.21729,309.41589,27.84375,308.30847z"/>
		<path fill="#252626" d="M27.80469,206.27222c-4.75293-4.08698-6.57471-10.91144-4.02637-17.008
			c0.9248-2.21234,2.33154-4.07117,4.03516-5.53302c-2.62622-1.11127-5.01953-2.6665-7.0896-4.56842
			c-3.92407,4.12915-6.34009,9.70453-6.34009,15.83722s2.41602,11.70807,6.34009,15.83722
			C22.79175,208.93738,25.18213,207.38324,27.80469,206.27222z"/>
		<path fill="#252626" d="M37.69922,11.21582c0-0.15527-0.10938-0.35352-0.26367-0.35352h-1.01758v0.70703h1.01758
			C37.58984,11.56934,37.69922,11.37012,37.69922,11.21582z"/>
		<path fill="#252626" d="M29.36206,139.43726c-2.7854,1.0412-5.31714,2.60571-7.47339,4.57593
			c2.14673,1.96143,4.66577,3.52008,7.43652,4.56128c2.1748-1.42798,4.70459-2.25531,7.32104-2.40808l0.00171-4.33142
			c-1.63672-0.09381-3.28516-0.44507-4.88379-1.11334C30.90869,140.36395,30.11182,139.92664,29.36206,139.43726z"/>
		<path fill="#252626" d="M27.80469,274.27222c-4.75293-4.08698-6.57471-10.91144-4.02637-17.008
			c0.9248-2.21234,2.33154-4.07117,4.03516-5.53302c-2.62622-1.11127-5.01953-2.6665-7.0896-4.56842
			c-3.92407,4.12915-6.34009,9.70453-6.34009,15.83722s2.41602,11.70807,6.34009,15.83722
			C22.79175,276.93738,25.18213,275.38324,27.80469,274.27222z"/>
		<path fill="#252626" d="M27.80469,172.27222c-4.75293-4.08698-6.57471-10.91144-4.02637-17.008
			c0.92114-2.20349,2.32056-4.05585,4.01489-5.51514c-2.62378-1.11304-5.01465-2.66986-7.08252-4.57251
			c-3.91626,4.12775-6.3269,9.69763-6.3269,15.82343c0,6.13269,2.41602,11.70807,6.34009,15.83722
			C22.79175,174.93738,25.18213,173.38324,27.80469,172.27222z"/>
		<path fill="#252626" d="M47.12744,183.66492c4.80566,4.07983,6.65527,10.94415,4.09424,17.0708
			c-0.9375,2.24286-2.3689,4.12415-4.10449,5.59473c2.57153,1.10693,4.91821,2.63843,6.9519,4.50677
			c3.92407-4.12915,6.34009-9.70453,6.34009-15.83722s-2.41602-11.70807-6.34009-15.83722
			C52.03809,181.02863,49.69482,182.55835,47.12744,183.66492z"/>
		<path fill="#252626" d="M47.12744,217.66492c4.80566,4.07983,6.65527,10.94415,4.09424,17.0708
			c-0.9375,2.24286-2.3689,4.12415-4.10449,5.59473c2.57153,1.10693,4.91821,2.63843,6.9519,4.50677
			c3.92407-4.12915,6.34009-9.70453,6.34009-15.83722s-2.41602-11.70807-6.34009-15.83722
			C52.03809,215.02863,49.69482,216.55835,47.12744,217.66492z"/>
		<path fill="#252626" d="M47.12744,251.66492c4.80566,4.07983,6.65527,10.94415,4.09424,17.0708
			c-0.9375,2.24286-2.3689,4.12415-4.10449,5.59473c2.57153,1.10693,4.91821,2.63843,6.9519,4.50677
			c3.92407-4.12915,6.34009-9.70453,6.34009-15.83722s-2.41602-11.70807-6.34009-15.83722
			C52.03809,249.02863,49.69482,250.55835,47.12744,251.66492z"/>
		<path fill="#252626" d="M47.14648,149.68262c4.79077,4.08191,6.63257,10.93494,4.0752,17.0531
			c-0.9375,2.24286-2.3689,4.12415-4.10449,5.59473c2.57153,1.10693,4.91821,2.63843,6.9519,4.50677
			c3.92407-4.12915,6.34009-9.70453,6.34009-15.83722c0-6.12579-2.41064-11.69568-6.3269-15.82343
			C52.05322,147.04327,49.71216,148.57422,47.14648,149.68262z"/>
		<path fill="#252626" d="M0,0v380h75V0H0z M57.81445,13.80078c-0.2207-0.04395-1.30273-0.27637-1.74609-0.54199
			c-0.75-0.44141-1.13672-1.11523-1.13672-1.95508c0-0.46387,0.1543-0.90625,0.4082-1.28125
			c0.25391-0.35352,0.60742-0.62988,1.01563-0.81738L56.3457,9.21582c0.41992-0.19922,0.89453-0.29785,1.34766-0.29785
			c0.1875,0,0.36328,0.01074,0.58594,0.04395c0.70703,0.12109,1.35742,0.4082,2.26367,1.16016l-1.21484,1.45801
			c-0.81836-0.67383-1.23828-0.77344-1.6582-0.77344c-0.20898,0-0.375,0.04395-0.50781,0.11035
			c-0.20898,0.08887-0.32031,0.24316-0.32031,0.38672c0,0.29883,0.39844,0.44238,1.03906,0.57422
			c0.06641,0.02246,0.14258,0.02246,0.2207,0.04492c0.43164,0.09863,1.07227,0.23145,1.49219,0.47461h-0.01172
			c0.79492,0.44238,1.21484,1.1377,1.21484,2c0,0.50781-0.13281,0.98242-0.41992,1.38086
			c-0.25391,0.36426-0.62891,0.62891-1.04883,0.83887c-0.44141,0.23242-0.89453,0.29883-1.39258,0.29883
			c-0.26563,0-0.55273-0.0332-0.79492-0.08887c-0.79492-0.16504-1.52539-0.53027-2.46289-1.33594l1.25781-1.44727
			c0.69727,0.60742,1.10547,0.83887,1.5918,0.92773c0.14258,0.0332,0.28711,0.05469,0.41992,0.05469
			c0.2207,0,0.41992-0.04395,0.57422-0.12109c0.13281-0.06641,0.36523-0.20996,0.36523-0.50781
			C58.88672,14.08789,58.31055,13.90039,57.81445,13.80078z M41.42285,70.48926c-0.44434-0.1123-0.71289-0.5625-0.60156-1.00586
			c0.11328-0.44434,0.56934-0.70898,1.00586-0.60156C49.68457,70.86426,55.17188,77.90332,55.17188,86
			c0,3.41406-0.97461,6.72656-2.81934,9.58008c-0.1582,0.24512-0.4248,0.37793-0.69629,0.37793
			c-0.1543,0-0.30957-0.04297-0.44922-0.13281c-0.38379-0.24805-0.49414-0.76074-0.24512-1.14551
			C52.63184,92.0957,53.51563,89.09473,53.51563,86C53.51563,78.66309,48.54297,72.28516,41.42285,70.48926z M44.55859,8.9834
			h1.90039v4.83887c0,0.68555,0.55273,1.2373,1.21484,1.2373c0.67383,0,1.21484-0.55176,1.21484-1.2373V8.9834h1.91211v4.83887
			c0,1.72363-1.40234,3.12695-3.12695,3.12695c-1.71094,0-3.11523-1.40332-3.11523-3.12695V8.9834z M34.55078,8.9834h2.88477
			c0.57422,0,1.11523,0.23242,1.51367,0.62988c0.39648,0.40918,0.62891,1.02734,0.62891,1.60254
			c0,0.75098-0.36523,1.48047-0.94922,1.85547l2.86133,3.77832h-2.28711l-2.60742-3.40234h-0.17773v3.40234h-1.86719
			C34.55079,16.84961,34.55079,8.9834,34.55078,8.9834z M26.59961,8.77441c2.24414,0,4.09961,1.83301,4.09961,4.09766
			c0,2.24316-1.85547,4.07715-4.09961,4.07715c-2.25391,0-4.08594-1.83398-4.08594-4.07715
			C22.51367,10.60742,24.3457,8.77441,26.59961,8.77441z M33.19727,68.87598c0.43848-0.10645,0.89355,0.1582,1.00488,0.60254
			c0.11133,0.44336-0.1582,0.89355-0.60254,1.00488C26.4668,72.27148,21.48438,78.65234,21.48438,86
			c0,3.01953,0.84375,5.95898,2.43945,8.50098c0.24414,0.3877,0.12695,0.89844-0.26074,1.1416
			c-0.13672,0.08594-0.28906,0.12695-0.43945,0.12695c-0.27539,0-0.54492-0.13672-0.70215-0.3877
			c-1.7627-2.80566-2.69336-6.0498-2.69336-9.38184C19.82813,77.89063,25.3252,70.84961,33.19727,68.87598z M13.91797,8.9834
			h5.51367v1.90039h-1.80078v5.96582h-1.91211v-5.96582h-1.80078C13.91797,10.88379,13.91797,8.9834,13.91797,8.9834z M62.06543,161
			c0,6.58533-2.59888,12.57141-6.81836,17c4.21948,4.42859,6.81836,10.41467,6.81836,17s-2.59888,12.57141-6.81836,17
			c4.21948,4.42859,6.81836,10.41467,6.81836,17s-2.59888,12.57141-6.81836,17c4.21948,4.42859,6.81836,10.41467,6.81836,17
			s-2.59888,12.57141-6.81836,17c4.21948,4.42859,6.81836,10.41467,6.81836,17c0,6.59821-2.60889,12.59473-6.84302,17.02588
			c4.23413,4.43115,6.84302,10.42767,6.84302,17.02588c0,5.19336-1.59473,10.16113-4.6123,14.36719
			c-0.26563,0.37012-0.78223,0.45801-1.15625,0.18945c-0.37109-0.2666-0.45605-0.78418-0.18945-1.15625
			c2.81445-3.92188,4.30176-8.55566,4.30176-13.40039c0-6.14612-2.42651-11.7326-6.36597-15.86438
			c-2.02466,1.85486-4.35938,3.37573-6.91577,4.47754c4.80566,4.07983,6.65527,10.94415,4.09424,17.0708
			c-0.93823,2.24451-2.37109,4.12708-4.1084,5.59814c4.29175,1.8396,8.0415,4.87952,10.73926,8.87317
			c0.25586,0.37891,0.15625,0.89453-0.22266,1.15039c-0.38184,0.25684-0.89453,0.15625-1.15039-0.22266
			c-2.64258-3.91205-6.36499-6.84888-10.62134-8.53198v27.86664c0,1.77142-1.43604,3.20746-3.20728,3.20746h-10.4663
			c-1.77148,0-3.20752-1.43604-3.20752-3.20746v-27.87817c-5.01025,1.96832-9.2627,5.65906-11.89307,10.58356
			c-0.14844,0.2793-0.43555,0.4375-0.73145,0.4375c-0.13184,0-0.26465-0.03125-0.38965-0.09766
			c-0.40332-0.21484-0.55566-0.7168-0.33984-1.12109c1.09473-2.0498,2.45361-3.89929,4.01758-5.52179
			c-0.19336-0.02173-0.38184-0.09772-0.52246-0.25262c-4.12109-4.5459-6.39063-10.42969-6.39063-16.56738
			c0-6.59821,2.60889-12.59473,6.84302-17.02588c-4.23413-4.43115-6.84302-10.42767-6.84302-17.02588
			c0-6.58533,2.59888-12.57141,6.81836-17c-4.21948-4.42859-6.81836-10.41467-6.81836-17s2.59888-12.57141,6.81836-17
			c-4.21948-4.42859-6.81836-10.41467-6.81836-17s2.59888-12.57141,6.81836-17c-4.21948-4.42859-6.81836-10.41467-6.81836-17
			s2.59888-12.57141,6.81836-17c-4.21948-4.42859-6.81836-10.41467-6.81836-17c0-6.5788,2.59375-12.55951,6.80566-16.98682
			c-4.21191-4.42731-6.80566-10.40802-6.80566-16.98682c0-4.70508,1.3291-9.28027,3.84473-13.23242
			c0.24609-0.38574,0.75684-0.49707,1.14453-0.25391c0.38574,0.24609,0.49902,0.75781,0.25391,1.14453
			c-2.34668,3.68457-3.58691,7.95313-3.58691,12.3418c0,6.12579,2.41064,11.69568,6.3269,15.82343
			c2.07104-1.90546,4.46558-3.46417,7.09399-4.57758c-4.75293-4.08698-6.57471-10.91144-4.02637-17.008
			c0.85913-2.05499,2.1355-3.80316,3.67651-5.21484c-4.32666-1.74219-8.14404-4.68829-10.91772-8.58551
			c-0.26563-0.37305-0.17871-0.89063,0.19434-1.15527c0.37207-0.26563,0.89063-0.17773,1.15527,0.19434
			c2.77344,3.89764,6.66504,6.77844,11.06274,8.34485c2.2627-1.58868,4.93408-2.52283,7.71143-2.68219l0.00366-8.53345
			c-4.40479-0.20459-8.52148-1.99579-11.66162-5.13507c-0.32324-0.32324-0.32324-0.84766,0-1.17188
			c0.32422-0.32227,0.84766-0.32422,1.17188,0c2.8269,2.82697,6.52808,4.44775,10.49048,4.65076l0.01587-36.76636
			c-5.0957-0.27057-9.78369-3.10602-12.37158-7.54456c-0.23047-0.39453-0.09668-0.90234,0.29883-1.13281
			c0.39453-0.22949,0.90234-0.09668,1.13281,0.29883c2.42676,4.16309,6.9248,6.74902,11.73926,6.74902
			c4.78223,0,9.26563-2.56055,11.70215-6.68359c0.23242-0.39355,0.73828-0.52441,1.13477-0.29102
			c0.39355,0.23242,0.52441,0.74023,0.29102,1.13477c-2.58643,4.37671-7.23193,7.17975-12.271,7.46753l-0.01587,36.7688
			c3.96753-0.20001,7.67358-1.82129,10.50366-4.65137c0.32422-0.32227,0.84766-0.32227,1.17188,0
			c0.32324,0.32422,0.32324,0.84863,0,1.17188c-3.14355,3.14276-7.26611,4.93463-11.67627,5.1358l-0.00366,8.53058
			c1.64819,0.09058,3.30859,0.44189,4.9187,1.11493c0.78125,0.32666,1.50879,0.72528,2.20215,1.16248
			c4.19434-1.73169,7.84619-4.68677,10.43213-8.60492c0.25195-0.38086,0.76465-0.4873,1.14746-0.23535
			c0.38184,0.25195,0.4873,0.76563,0.23535,1.14746c-2.57666,3.90393-6.13721,6.92352-10.2373,8.82056
			c4.88965,4.06769,6.78711,10.99261,4.20605,17.16711c-0.9375,2.24286-2.3689,4.12415-4.10449,5.59473
			c2.57715,1.10938,4.92822,2.64545,6.96509,4.51935c3.91626-4.12775,6.3269-9.69763,6.3269-15.82343
			c0-4.38965-1.24023-8.6582-3.58691-12.3418c-0.24512-0.38672-0.13184-0.89844,0.25391-1.14453
			c0.38867-0.24316,0.89941-0.13184,1.14453,0.25391c2.51563,3.95117,3.84473,8.52637,3.84473,13.23242
			c0,6.5788-2.59375,12.55952-6.80566,16.98682C59.47168,148.44049,62.06543,154.4212,62.06543,161z"/>
		<path fill="#252626" d="M45.58276,148.52911c2.7251-1.04095,5.20483-2.58185,7.32153-4.51593
			c-2.12134-1.93817-4.60693-3.48175-7.33887-4.52277c-2.16431,1.39478-4.66968,2.20319-7.26123,2.34576l-0.00171,4.3266
			c1.65308,0.08917,3.31836,0.44055,4.93335,1.1156C44.0708,147.6275,44.84839,148.05426,45.58276,148.52911z"/>
		<path fill="#252626" d="M45.5564,182.51312c2.72949-1.03876,5.21362-2.57886,7.33398-4.51312
			c-2.11816-1.93219-4.59912-3.47089-7.32495-4.50958c-2.16846,1.3974-4.6792,2.2063-7.27588,2.34656l-0.00195,4.32513
			c1.65796,0.08777,3.32861,0.43927,4.94824,1.11627C44.06128,181.62341,44.82959,182.04517,45.5564,182.51312z"/>
		<path fill="#252626" d="M47.12744,285.66492c4.80566,4.07983,6.65527,10.94415,4.09424,17.0708
			c-0.94482,2.25983-2.38965,4.15375-4.14307,5.62903c2.57568,1.10345,4.92676,2.63281,6.9646,4.49963
			c3.93945-4.13177,6.36597-9.71826,6.36597-15.86438c0-6.13269-2.41602-11.70807-6.34009-15.83722
			C52.03809,283.02863,49.69482,284.55835,47.12744,285.66492z"/>
		<path fill="#252626" d="M45.5564,250.51312c2.72949-1.03876,5.21362-2.57886,7.33398-4.51312
			c-2.11816-1.93219-4.59912-3.47089-7.32495-4.50958c-2.17676,1.40271-4.69824,2.21252-7.30542,2.34814l-0.00195,4.32227
			c1.66772,0.0849,3.34839,0.43652,4.97778,1.11755C44.06128,249.62341,44.82959,250.04517,45.5564,250.51312z"/>
		<path fill="#252626" d="M45.5564,216.51312c2.72949-1.03876,5.21362-2.57886,7.33398-4.51312
			c-2.11816-1.93219-4.59912-3.47089-7.32495-4.50958c-2.17261,1.40009-4.68872,2.20935-7.29053,2.34735l-0.00195,4.32367
			c1.66284,0.08636,3.33838,0.43793,4.96289,1.11694C44.06128,215.62341,44.82959,216.04517,45.5564,216.51312z"/>
		<path fill="#252626" d="M45.5564,284.51312c2.72949-1.03876,5.21362-2.57886,7.33398-4.51312
			c-2.11816-1.93219-4.59912-3.47089-7.32495-4.50958c-2.18066,1.40533-4.70776,2.21564-7.32031,2.34894l-0.00171,4.3208
			c1.67261,0.0835,3.35815,0.43518,4.99243,1.11823C44.06128,283.62341,44.82959,284.04517,45.5564,284.51312z"/>
		<path fill="#252626" d="M38.23047,311.84015l-0.00195,4.31934c1.67749,0.08203,3.36841,0.43384,5.00732,1.1189
			c0.82544,0.34503,1.59375,0.76678,2.32056,1.23474c2.71753-1.03424,5.19238-2.56476,7.30688-4.48724
			c-2.12573-1.93286-4.61572-3.47003-7.35034-4.50446C43.33984,310.9093,40.82764,311.71027,38.23047,311.84015z"/>
	</g>
	<g>
		<path fill="#252626" d="M41.26395,362.78329c-0.11426,0.26349-0.26582,0.48099-0.45469,0.65225
			c-0.1891,0.17126-0.40401,0.29843-0.64567,0.3822c-0.24189,0.0835-0.49434,0.12503-0.75781,0.12503
			c-0.44812,0-0.79723-0.06567-1.04757-0.19754s-0.44601-0.28552-0.58632-0.46127c-0.14968-0.1933-0.244-0.40845-0.28341-0.64566
			c-0.03965-0.23718-0.05936-0.4744-0.05936-0.71158c0-0.33411,0.00681-0.56451,0.01971-0.69189
			c0.01338-0.12766,0.02839-0.19989,0.04622-0.2175c0.03496-0.02652,0.17995-0.03943,0.43475-0.03943h3.08382
			c0.08775,0,0.16024,0.00659,0.21749,0.01971c0.05678,0.01315,0.10088,0.0481,0.13162,0.10535
			c0.03073,0.05701,0.05044,0.14264,0.05936,0.2569c0.00867,0.11426,0.01337,0.2724,0.01337,0.4744
			C41.43546,362.20334,41.37798,362.51984,41.26395,362.78329 M35.94046,349.96167c0.01173-0.08282,0.0474-0.14828,0.10699-0.19592
			c0.05936-0.04739,0.15414-0.07718,0.28506-0.08914c0.13068-0.01175,0.31485-0.01782,0.55252-0.01782
			c0.92675,0,1.6367,0.2583,2.12986,0.77518c0.49294,0.51685,0.73975,1.2092,0.73975,2.0766
			c0,0.08212-0.01713,0.25925-0.02792,0.38077c-0.06827-0.00092-0.13655-0.00186-0.20482-0.00327
			c-0.18699-0.004-0.39017-0.01431-0.60954-0.03052c-0.0488,0.02441-0.07508,0.07111-0.0793,0.14008
			c-0.00399,0.06921,0.01408,0.12411,0.05514,0.1647l0.21913,0.02438c0.1464,0.0162,0.26817,0.04272,0.36577,0.07907
			c0.0976,0.03662,0.1464,0.07532,0.1464,0.11591s-0.0244,0.11591-0.0732,0.22546c-0.0488,0.1098-0.1138,0.24191-0.19497,0.39606
			c-0.08142,0.1546-0.16893,0.31931-0.26207,0.49387c-0.09362,0.17477-0.18113,0.33948-0.26231,0.49362
			c-0.18699,0.35779-0.37773,0.70901-0.57293,1.05438c-0.19497,0.34558-0.38595,0.68085-0.57271,1.0058
			c-0.23603-0.42255-0.46759-0.86551-0.69494-1.32864c-0.22758-0.46335-0.45516-0.92227-0.68274-1.37766
			c-0.01643-0.03238-0.04458-0.09317-0.08517-0.18277c-0.04082-0.08917-0.08352-0.18466-0.1281-0.28647
			c-0.04481-0.10159-0.08352-0.19687-0.1159-0.28647c-0.03261-0.08939-0.04856-0.15039-0.04856-0.18277
			c0-0.0488,0.03214-0.08728,0.09736-0.11591c0.06499-0.02838,0.20319-0.06287,0.41458-0.10349l0.15836-0.02438
			c0.04059-0.04059,0.05889-0.0976,0.0549-0.17081c-0.00422-0.07297-0.03473-0.11777-0.09127-0.13397
			c-0.17315,0.01361-0.38548,0.02347-0.63722,0.02933v-2.58643C35.92264,350.15781,35.9285,350.04495,35.94046,349.96167
			 M36.94979,359.08667c0,0.32516-0.00422,0.58511-0.0122,0.78009c-0.00821,0.19498-0.03659,0.34747-0.0854,0.45703
			c-0.01736,0.03943-0.03801,0.07416-0.06171,0.10443c-0.00047,0.00021-0.00117,0.0007-0.00165,0.00092
			c-0.14194-0.02722-0.2616-0.05865-0.35825-0.09454c-0.16048-0.05936-0.27615-0.16635-0.34748-0.32071
			c-0.07132-0.15439-0.1159-0.37119-0.13372-0.6506c-0.01784-0.27896-0.02675-0.6506-0.02675-1.11374v-2.53787l0.63722,1.24161
			c0.08916,0.17081,0.16024,0.31509,0.21326,0.43286c0.05279,0.11801,0.09127,0.2276,0.11567,0.32919
			c0.02439,0.10181,0.04058,0.20926,0.04879,0.32306c0.00798,0.1138,0.0122,0.25595,0.0122,0.42654v0.62173H36.94979z
			 M41.98071,360.59409c0.05278-0.14639,0.10534-0.30267,0.15836-0.46924c0.05279-0.1666,0.10159-0.32916,0.1464-0.48776
			c0.04458-0.15839,0.07907-0.29047,0.1037-0.39627c-0.02464-0.05655-0.07133-0.09314-0.1403-0.10959
			c-0.06921-0.01617-0.12387-0.00821-0.1647,0.02441c-0.16259,0.31674-0.31885,0.57693-0.46924,0.78009
			c-0.15039,0.20343-0.28247,0.3374-0.39603,0.40237c-0.06523,0.03262-0.1403,0.06079-0.2257,0.08517
			c-0.08517,0.02441-0.18699,0.04269-0.30477,0.0549c-0.11777,0.01221-0.25996,0.02252-0.42654,0.03049
			c-0.16658,0.00824-0.36788,0.01221-0.60344,0.01221c-0.26817,0-0.48965-0.00797-0.66444-0.02438
			c-0.17479-0.0162-0.31486-0.03662-0.42043-0.06076c-0.10582-0.02466-0.1891-0.05304-0.24987-0.08542
			c-0.061-0.03238-0.10793-0.06897-0.14031-0.1098c-0.0976-0.10556-0.16048-0.26205-0.18887-0.46924
			c-0.02862-0.2074-0.0427-0.47345-0.0427-0.79865v-0.8045c0.00188-0.11142,0.00517-0.20996,0.00986-0.29443
			c0.00798-0.15015,0.03027-0.29047,0.06687-0.42044c0.03659-0.12997,0.09337-0.2684,0.1708-0.41458
			c0.0183-0.03494,0.03894-0.07272,0.06077-0.11237c0.02933-0.00095,0.05982-0.0014,0.09385-0.0014h0.70714
			c0.23555,0,0.42865,0.004,0.57903,0.01221c0.15015,0.00797,0.27005,0.02414,0.35966,0.04855
			c0.12177,0.03262,0.20905,0.08963,0.26207,0.17081c0.05279,0.08118,0.09127,0.17877,0.11591,0.29257l0.10956,0.47534
			c0.03238,0.0408,0.08728,0.05887,0.16447,0.0549c0.07718-0.004,0.1281-0.02631,0.1525-0.06711
			c0-0.13818-0.00821-0.31274-0.0244-0.52414c-0.01643-0.2114-0.0244-0.42679-0.0244-0.64615
			c0-0.23553,0.00798-0.46313,0.0244-0.6825c0.01619-0.2196,0.0244-0.40237,0.0244-0.54877
			c-0.0244-0.04037-0.07532-0.0629-0.1525-0.06711c-0.07719-0.00375-0.1321,0.01431-0.16447,0.0549L40.39,355.99838
			c-0.03261,0.15439-0.07132,0.25809-0.1159,0.31088c-0.04482,0.05276-0.1037,0.09125-0.17667,0.11566
			c-0.0732,0.02438-0.19943,0.04269-0.37797,0.0549c-0.17901,0.01221-0.39839,0.01828-0.65834,0.01828h-0.55089
			c0.00423-0.00681,0.00798-0.01312,0.0122-0.02017l0.76791-1.32864c0.15414-0.26019,0.29445-0.50183,0.42067-0.72543
			c0.12576-0.22336,0.24987-0.42065,0.37163-0.59125c0.12201-0.17056,0.24776-0.30875,0.37798-0.41431
			c0.02698-0.02182,0.05466-0.04153,0.08305-0.06009c0.08258,0.03287,0.15532,0.07156,0.21796,0.11685
			c0.10159,0.07297,0.18464,0.15836,0.24987,0.25598c0.06499,0.09735,0.11777,0.20715,0.1586,0.32892
			c0.04036,0.12201,0.08517,0.2562,0.13397,0.40237c0.03238,0.04083,0.0854,0.05701,0.1586,0.0488
			c0.07297-0.00797,0.12176-0.03238,0.14616-0.07321c-0.01643-0.12997-0.0305-0.27823-0.04247-0.44482
			c-0.01243-0.16656-0.02674-0.32916-0.04293-0.48755c-0.01619-0.1586-0.03754-0.30005-0.05467-0.42676
			c-0.04247-0.31345-0.03285-0.58115-0.03285-0.58115c0-0.61752-0.17525-1.15738-0.44272-1.60925
			c-0.26723-0.45139-0.60907-0.80777-1.02481-1.06915c-0.41597-0.26135-0.90305-0.44553-1.46143-0.55252
			c-0.55863-0.10699-1.21204-0.16049-1.96047-0.16049c-0.74867,0-1.40536,0.00894-1.96938,0.02676
			c-0.5645,0.01782-1.08441,0.05655-1.55975,0.11591c-0.07109,0.03564-0.1098,0.10416-0.11567,0.2048
			c-0.0061,0.10114,0.02042,0.18137,0.08024,0.24072l0.64145,0.07132c0.202,0.02393,0.3592,0.06241,0.47252,0.11591
			c0.11262,0.05325,0.19591,0.15134,0.2494,0.29398s0.08611,0.3327,0.09807,0.57037
			c0.01173,0.23767,0.01783,0.54666,0.01783,0.92673v6.57681c0,0.46313-0.0061,0.83478-0.01783,1.11374
			c-0.01196,0.27942-0.05349,0.49622-0.12482,0.6506c-0.07132,0.15436-0.1783,0.26135-0.32072,0.32071
			c-0.14265,0.0596-0.34489,0.10699-0.60601,0.14264l-0.37445,0.0535c-0.0542,0.0542-0.07837,0.12833-0.0732,0.22171
			c-0.00047,0.19077-0.00257,0.25128-0.00657,0.46619c-0.00422,0.24612-0.01548,0.52109-0.03355,0.82538
			c0.01807,0.04483,0.06921,0.07156,0.15438,0.08072c0.08493,0.0087,0.14546-0.00916,0.18136-0.05371l0.04012-0.28201
			c0.02699-0.19687,0.06264-0.34888,0.10746-0.45612c0.04482-0.10745,0.12529-0.18793,0.24166-0.24164
			c0.11613-0.05374,0.27943-0.08542,0.48989-0.09433c0.21022-0.00867,0.48988-0.01312,0.83899-0.01312h1.69113
			c0.07156,0,0.12763,0.00446,0.16798,0.01312c0.04012,0.00891,0.06921,0.03378,0.08704,0.07416
			c0.01783,0.0401,0.02909,0.10275,0.03378,0.18768c0.00422,0.08517,0.00657,0.2034,0.00657,0.35568
			c0,0.26865-0.03355,0.46994-0.10065,0.60413c-0.0671,0.13422-0.17667,0.25058-0.32894,0.34912
			c-0.15226,0.10745-0.32001,0.21915-0.50325,0.33551c-0.1837,0.11612-0.36718,0.23251-0.55042,0.34888
			c-0.18347,0.11636-0.36014,0.22827-0.53023,0.33572c-0.1701,0.10724-0.31767,0.20578-0.44296,0.29517
			c-0.3402,0.24164-0.61986,0.46759-0.839,0.67804c-0.21913,0.21021-0.39134,0.42279-0.51662,0.63745
			c-0.12552,0.21469-0.21257,0.44061-0.26183,0.67783c-0.04903,0.23718-0.07367,0.49878-0.07367,0.78525
			c0,0.25949,0.02229,0.45657,0.06687,0.59055c0.02698,0.03589,0.06053,0.05161,0.10088,0.04715
			c0.04012-0.0047,0.06921-0.02487,0.08728-0.06052c0.01759-0.17902,0.06029-0.34888,0.1274-0.50983
			c0.0671-0.16119,0.14968-0.30008,0.24846-0.41623c0.18793-0.23273,0.40026-0.45187,0.63746-0.65787
			c0.23696-0.20575,0.4988-0.41599,0.78526-0.63089c0.28624-0.21466,0.60837-0.43616,0.9664-0.66418
			c0.35779-0.2283,0.75171-0.47675,1.1813-0.74515c0.05372-0.03592,0.10933-0.065,0.16775-0.08728
			c0.05795-0.02252,0.10956-0.01572,0.15438,0.02017c0.06241,0.16986,0.15649,0.35123,0.28177,0.54361
			c0.12529,0.19238,0.27967,0.37375,0.46314,0.54385c0.18347,0.16986,0.39815,0.31064,0.64426,0.42276
			c0.24612,0.11169,0.53024,0.16776,0.85237,0.16776c0.4744,0,0.86363-0.10535,1.16793-0.31555
			c0.30406-0.21021,0.54126-0.4765,0.71136-0.79865c0.16986-0.3132,0.27967-0.65997,0.32894-1.04007
			c0.04903-0.38052,0.07554-0.78104,0.07367-1.20169C41.8404,361.09006,41.98071,360.59409,41.98071,360.59409"/>
	</g>
	<g>
		<g>
			<g>
				<g>
					<circle fill="#BCBCBC" cx="7.99992" cy="6.39054" r="5.73626"/>
					<path fill="#808080" d="M7.99996,11.8632c3.02102-0.00348,5.46916-2.45164,5.47262-5.47267c0,0,0-0.00001,0-0.00003
						c-0.00002-3.02247-2.45023-5.47264-5.4727-5.47262s-5.47264,2.45023-5.47262,5.4727S4.97749,11.86322,7.99996,11.8632
						 M1.99996,6.39054c0-3.31371,2.68629-6,6-6s6,2.68629,6,6s-2.68629,6-6,6C4.68632,12.39038,2.00012,9.70418,1.99996,6.39054z"
						/>
				</g>
				<polygon fill="#6E6E6E" points="4.50496,7.04954 7.34096,7.04954 7.34096,9.88554 8.65896,9.88554 8.65896,7.04954 
					11.49396,7.04954 11.49396,5.73154 8.65896,5.73154 8.65896,2.89554 7.34096,2.89554 7.34096,5.73154 4.50496,5.73154 				"/>
			</g>
		</g>
	</g>
	<g>
		<g>
			<g>
				<g>
					<circle fill="#BCBCBC" cx="67.00985" cy="373.60947" r="5.73626"/>
					<path fill="#808080" d="M67.0098,379.08212c-3.02102-0.00348-5.46916-2.45166-5.47262-5.47269c0,0,0,0,0-0.00003
						c0.00002-3.02246,2.45023-5.47263,5.4727-5.4726c3.02247,0,5.47264,2.45023,5.47262,5.47269
						S70.03227,379.08215,67.0098,379.08212 M73.0098,373.60947c0-3.31372-2.68629-6-6-6c-3.31371,0-6,2.68628-6,6
						c0,3.31369,2.68629,6,6,6C70.32345,379.60928,73.00964,376.9231,73.0098,373.60947z"/>
				</g>
				<polygon fill="#6E6E6E" points="70.50481,374.26846 67.66881,374.26846 67.66881,377.10446 66.35081,377.10446 
					66.35081,374.26846 63.51581,374.26846 63.51581,372.95047 66.35081,372.95047 66.35081,370.11447 67.66881,370.11447 
					67.66881,372.95047 70.50481,372.95047 				"/>
			</g>
		</g>
	</g>
</g>
<g id="serigraphy">
	<g>
		<g>
			<g>
				<path fill="#E5E5E5" d="M5,24.22949c-0.11035,0-0.2207-0.0293-0.32031-0.06934s-0.18945-0.10059-0.26953-0.18066
					c-0.15039-0.14941-0.24023-0.35938-0.24023-0.58008c0-0.10938,0.01953-0.21973,0.05957-0.31934
					c0.0498-0.10059,0.11035-0.19043,0.18066-0.27051c0.08008-0.08008,0.16992-0.13965,0.26953-0.17969
					c0.31055-0.12988,0.66992-0.0498,0.91016,0.17969c0.15039,0.16016,0.24023,0.37012,0.24023,0.58984
					c0,0.2207-0.08984,0.43066-0.24023,0.58008C5.42969,24.13965,5.21973,24.22949,5,24.22949z"/>
			</g>
			<g>
				<path fill="#E5E5E5" d="M8.10938,23.39941c0-0.45996,0.38086-0.83008,0.83008-0.83008l0,0
					c0.45996,0,0.83008,0.37012,0.83008,0.83008l0,0c0,0.4502-0.37012,0.83008-0.83008,0.83008l0,0
					C8.49023,24.22949,8.10938,23.84961,8.10938,23.39941z"/>
			</g>
			<g>
				<path fill="#E5E5E5" d="M12.88965,24.21973c-0.11035,0-0.21973-0.01953-0.32031-0.05957
					c-0.09961-0.04004-0.18945-0.10059-0.26953-0.18066c-0.15039-0.14941-0.24023-0.35938-0.24023-0.58008
					c0-0.21973,0.08984-0.42969,0.24023-0.58984c0.08008-0.08008,0.16992-0.13965,0.26953-0.17969
					c0.2002-0.08008,0.43066-0.08008,0.63086,0c0.10938,0.04004,0.19922,0.09961,0.26953,0.17969
					c0.08008,0.08008,0.13965,0.16992,0.17969,0.27051c0.05078,0.09961,0.07031,0.20996,0.07031,0.31934
					c0,0.11035-0.01953,0.20996-0.07031,0.31055c-0.04004,0.09961-0.09961,0.18945-0.17969,0.26953
					C13.31934,24.13965,13.10938,24.21973,12.88965,24.21973z"/>
			</g>
		</g>
		<g>
			<g>
				<path fill="#E5E5E5" d="M62.10938,24.22949c-0.10938,0-0.20996-0.0293-0.30957-0.06934s-0.19043-0.10059-0.27051-0.18066
					c-0.0791-0.08008-0.13965-0.16992-0.17969-0.26953c-0.04004-0.10059-0.07031-0.2002-0.07031-0.31055
					c0-0.10938,0.03027-0.21973,0.07031-0.31934c0.04004-0.10059,0.10059-0.19043,0.17969-0.27051
					c0.07031-0.08008,0.16016-0.13965,0.26074-0.17969c0.20996-0.08008,0.43945-0.08008,0.63965,0
					c0.09961,0.04004,0.19043,0.09961,0.27051,0.17969c0.06934,0.08008,0.12988,0.16992,0.17969,0.27051
					c0.04004,0.09961,0.05957,0.20996,0.05957,0.31934c0,0.11035-0.01953,0.20996-0.05957,0.31055
					c-0.04004,0.09961-0.11035,0.18945-0.17969,0.26953c-0.08008,0.08008-0.1709,0.14063-0.27051,0.18066
					S62.21973,24.22949,62.10938,24.22949z"/>
			</g>
			<g>
				<path fill="#E5E5E5" d="M65.22949,23.39941c0-0.45996,0.37012-0.83008,0.83008-0.83008l0,0
					c0.4502,0,0.82031,0.37012,0.82031,0.83008l0,0c0,0.4502-0.37012,0.82031-0.82031,0.82031l0,0
					C65.59961,24.21973,65.22949,23.84961,65.22949,23.39941z"/>
			</g>
			<g>
				<path fill="#E5E5E5" d="M70,24.22949c-0.2207,0-0.43066-0.08984-0.58984-0.25c-0.15039-0.14941-0.24023-0.35938-0.24023-0.58008
					c0-0.22949,0.08984-0.43945,0.24023-0.58984c0.08008-0.08008,0.16992-0.13965,0.26953-0.17969
					c0.20996-0.08008,0.42969-0.08008,0.63965,0c0.10059,0.04004,0.19043,0.09961,0.26074,0.17969
					c0.16016,0.15039,0.25,0.37012,0.25,0.58984c0,0.11035-0.02051,0.20996-0.06055,0.31055
					c-0.0498,0.09961-0.10938,0.18945-0.18945,0.26953c-0.07031,0.08008-0.16016,0.14063-0.26074,0.18066
					C70.21973,24.2002,70.10938,24.22949,70,24.22949z"/>
			</g>
		</g>
		<g>
			<g>
				<path fill="#E5E5E5" d="M17.91211,21.50293h0.54492v0.81641h0.02734c0.31055-0.58203,0.81641-0.95801,1.58594-0.95801
					c0.63867,0,1.21094,0.31055,1.38867,0.94824c0.29102-0.6377,0.90039-0.94824,1.53906-0.94824
					c1.06055,0,1.60547,0.55371,1.60547,1.69922v3.28418h-0.5918v-3.25586c0-0.79785-0.30078-1.22949-1.14453-1.22949
					c-1.02344,0-1.31445,0.84473-1.31445,1.74512v2.74023h-0.58984v-3.28418c0.00781-0.65723-0.26367-1.20117-1.01367-1.20117
					c-1.02344,0-1.43555,0.76953-1.44531,1.78223v2.70313h-0.5918V21.50293z"/>
			</g>
			<g>
				<path fill="#E5E5E5" d="M29.6543,26.34473h-0.54297v-0.87305H29.0918c-0.30859,0.64746-0.94727,1.01367-1.66992,1.01367
					c-1.2207,0-1.69922-0.71289-1.69922-1.83887v-3.14355h0.5918v3.15234c0.02734,0.87305,0.35547,1.33301,1.29492,1.33301
					c1.01367,0,1.45508-0.95703,1.45508-1.94238v-2.54297h0.58984V26.34473z"/>
			</g>
			<g>
				<path fill="#E5E5E5" d="M30.7832,19.64453h0.5918v6.7002h-0.5918V19.64453z"/>
			</g>
			<g>
				<path fill="#E5E5E5" d="M33.44922,21.50293h0.98633V22h-0.98633v3.26563c0,0.38477,0.05664,0.61035,0.48047,0.6377
					c0.16797,0,0.33789-0.00879,0.50586-0.02734v0.50586c-0.17773,0-0.34766,0.01953-0.52539,0.01953
					c-0.78906,0-1.06055-0.2627-1.05078-1.08887V22h-0.8457v-0.49707h0.8457v-1.45508h0.58984
					C33.44921,20.04785,33.44921,21.50293,33.44922,21.50293z"/>
			</g>
			<g>
				<path fill="#E5E5E5" d="M35.30078,19.64453h0.5918v0.94727h-0.5918V19.64453z M35.30078,21.50293h0.5918v4.8418h-0.5918
					V21.50293z"/>
			</g>
			<g>
				<path fill="#E5E5E5" d="M37.0293,21.50293h0.54297v0.81641h0.0293c0.30859-0.58203,0.81641-0.95801,1.58594-0.95801
					c0.63672,0,1.20898,0.31055,1.38867,0.94824c0.29102-0.6377,0.90039-0.94824,1.53906-0.94824
					c1.06055,0,1.60352,0.55371,1.60352,1.69922v3.28418h-0.58984v-3.25586c0-0.79785-0.30078-1.22949-1.14648-1.22949
					c-1.02148,0-1.3125,0.84473-1.3125,1.74512v2.74023h-0.5918v-3.28418c0.00977-0.65723-0.26172-1.20117-1.01367-1.20117
					c-1.02344,0-1.43555,0.76953-1.44531,1.78223v2.70313H37.0293V21.50293z"/>
			</g>
			<g>
				<path fill="#E5E5E5" d="M44.85742,19.64453h0.5918v0.94727h-0.5918V19.64453z M44.85742,21.50293h0.5918v4.8418h-0.5918
					V21.50293z"/>
			</g>
			<g>
				<path fill="#E5E5E5" d="M47.9082,23.83008l-1.73438-2.32715h0.74023l1.37891,1.83887l1.35156-1.83887h0.74219l-1.74609,2.31738
					l1.88672,2.52441h-0.75l-1.52148-2.03613l-1.49219,2.03613H46.0332L47.9082,23.83008z"/>
			</g>
			<g>
				<path fill="#E5E5E5" d="M51.44922,24.08301c0.00977,0.86328,0.45898,1.90527,1.5957,1.90527
					c0.86328,0,1.33203-0.50684,1.51953-1.23926h0.5918c-0.25391,1.09863-0.89258,1.73633-2.11133,1.73633
					c-1.53906,0-2.1875-1.18262-2.1875-2.56152c0-1.27637,0.64844-2.5625,2.1875-2.5625c1.55664,0,2.17578,1.36133,2.12891,2.72168
					H51.44922z M54.58398,23.58594c-0.0293-0.8916-0.58203-1.72656-1.53906-1.72656c-0.9668,0-1.50195,0.84473-1.5957,1.72656
					H54.58398z"/>
			</g>
			<g>
				<path fill="#E5E5E5" d="M55.97461,21.50293h0.54492v1.13477h0.01758c0.30078-0.77832,0.95703-1.23828,1.83008-1.20117v0.5918
					c-1.07031-0.05664-1.80078,0.73145-1.80078,1.73535v2.58105h-0.5918C55.97461,26.34473,55.97461,21.50293,55.97461,21.50293z"/>
			</g>
		</g>
	</g>
	<g>
		<g>
			<path fill="#00BC8B" d="M49.31738,44.08887c-0.2793,0-0.55176-0.14063-0.70801-0.39648
				c-0.23828-0.39063-0.11523-0.90039,0.27539-1.13867l0.85352-0.52148c0.3916-0.23633,0.90039-0.11523,1.13867,0.27539
				s0.11523,0.90039-0.27539,1.13867l-0.85352,0.52148C49.61328,44.0498,49.46484,44.08887,49.31738,44.08887z"/>
		</g>
		<g>
			<path fill="#00BC8B" d="M50.6748,46.8623c-0.34766,0-0.6709-0.2207-0.78613-0.56836
				c-0.14453-0.43457,0.0918-0.90332,0.52539-1.04688l0.94922-0.31445c0.43848-0.14648,0.90332,0.0918,1.04688,0.52539
				c0.14453,0.43457-0.0918,0.90332-0.52539,1.04688l-0.94922,0.31445C50.84863,46.84863,50.76074,46.8623,50.6748,46.8623z"/>
		</g>
		<g>
			<path fill="#00BC8B" d="M51.36914,49.94336c-0.42676,0-0.78906-0.32813-0.8252-0.76074
				c-0.03613-0.45605,0.30273-0.85645,0.75879-0.89355l0.99707-0.08008c0.47363-0.04492,0.85645,0.30273,0.89258,0.75781
				c0.03711,0.45605-0.30176,0.85645-0.75781,0.89258l-0.99707,0.08203C51.41406,49.94238,51.3916,49.94336,51.36914,49.94336z"/>
		</g>
		<g>
			<path fill="#00BC8B" d="M52.30762,53.29199c-0.04297,0-0.08691-0.00293-0.13086-0.00977l-0.9873-0.15625
				c-0.45117-0.07129-0.75977-0.49609-0.68848-0.94824c0.07227-0.4502,0.5-0.75781,0.94824-0.68848l0.9873,0.15625
				c0.45117,0.07129,0.75977,0.49609,0.68848,0.94824C53.06055,53.00098,52.70801,53.29199,52.30762,53.29199z"/>
		</g>
	</g>
	<g>
		<g>
			<path fill="#FF4257" d="M25.16992,43.83008c-0.11035,0-0.21973-0.02051-0.32031-0.06055
				c-0.09961-0.0498-0.18945-0.10938-0.26953-0.17969C24.42969,43.42969,24.33984,43.21973,24.33984,43
				s0.08984-0.43066,0.24023-0.58984c0.22949-0.23047,0.59961-0.30078,0.91016-0.18066
				c0.09961,0.05078,0.18945,0.11035,0.25977,0.18066C25.91016,42.56934,26,42.78027,26,43
				c0,0.10938-0.02051,0.21973-0.06055,0.31934c-0.0498,0.10059-0.10938,0.19043-0.18945,0.27051
				c-0.07031,0.07031-0.16016,0.12988-0.25977,0.17969C25.38965,43.80957,25.2793,43.83008,25.16992,43.83008z"/>
		</g>
		<g>
			<path fill="#FF4257" d="M24.2373,46.8623c-0.08594,0-0.17383-0.01367-0.26074-0.04297l-0.94922-0.31445
				c-0.43359-0.14355-0.66992-0.6123-0.52539-1.04688c0.14355-0.43359,0.6084-0.67285,1.04688-0.52539l0.94922,0.31445
				c0.43359,0.14355,0.66992,0.6123,0.52539,1.04688C24.9082,46.6416,24.58496,46.8623,24.2373,46.8623z"/>
		</g>
		<g>
			<path fill="#FF4257" d="M24.04102,49.98438c-0.02246,0-0.04492-0.00098-0.06836-0.00293l-1.99316-0.16211
				c-0.45605-0.03613-0.79492-0.43652-0.75781-0.89258c0.03711-0.45508,0.41602-0.80469,0.89258-0.75781l1.99316,0.16211
				c0.45605,0.03613,0.79492,0.43652,0.75781,0.89258C24.83008,49.65625,24.46777,49.98438,24.04102,49.98438z"/>
		</g>
		<g>
			<path fill="#FF4257" d="M21.61621,53.44824c-0.40039,0-0.75293-0.29102-0.81738-0.69824
				c-0.07129-0.45215,0.2373-0.87695,0.68848-0.94824l2.96289-0.46875c0.45313-0.06836,0.87695,0.23828,0.94824,0.68848
				c0.07129,0.45215-0.2373,0.87695-0.68848,0.94824l-2.96289,0.46875C21.70313,53.44531,21.65918,53.44824,21.61621,53.44824z"/>
		</g>
	</g>
</g>
<g id="LEDS">
	<g>
		<path fill="#1F86CC" d="M33.24414,40.73633c-0.28418,0-0.56152-0.14551-0.71582-0.40918l-1.05762-1.80176
			c-0.43262-0.73828-1.23438-1.19727-2.08984-1.19727h-4.4873c-0.45703,0-0.82813-0.37109-0.82813-0.82813
			s0.37109-0.82813,0.82813-0.82813h4.4873c1.44141,0,2.78906,0.77246,3.51953,2.01563l1.05762,1.80176
			c0.23145,0.39453,0.09863,0.90137-0.2959,1.13379C33.53125,40.7002,33.38672,40.73633,33.24414,40.73633z"/>
	</g>
	<g>
		<path fill="#1F86CC" d="M41.89258,40.73633c-0.14258,0-0.28711-0.03613-0.41797-0.11328
			c-0.39453-0.23242-0.52734-0.73926-0.2959-1.13379l1.05762-1.80176c0.72949-1.24316,2.0791-2.01563,3.52051-2.01563h4.51855
			c0.45703,0,0.82813,0.37109,0.82813,0.82813s-0.37109,0.82813-0.82813,0.82813h-4.51855
			c-0.85645,0-1.6582,0.45898-2.09082,1.19727l-1.05762,1.80176C42.4541,40.59082,42.17676,40.73633,41.89258,40.73633z"/>
	</g>
</g>
</svg>
