<?xml version="1.0" encoding="UTF-8" standalone="no"?>
<!-- Generator: Adobe Illustrator 23.0.3, SVG Export Plug-In . SVG Version: 6.00 Build 0)  -->

<svg
   xmlns:dc="http://purl.org/dc/elements/1.1/"
   xmlns:cc="http://creativecommons.org/ns#"
   xmlns:rdf="http://www.w3.org/1999/02/22-rdf-syntax-ns#"
   xmlns:svg="http://www.w3.org/2000/svg"
   xmlns="http://www.w3.org/2000/svg"
   xmlns:sodipodi="http://sodipodi.sourceforge.net/DTD/sodipodi-0.dtd"
   xmlns:inkscape="http://www.inkscape.org/namespaces/inkscape"
   version="1.0"
   id="Layer_1"
   x="0px"
   y="0px"
   viewBox="0 0 95.999999 485.66934"
   enable-background="new 0 0 75 380"
   xml:space="preserve"
   sodipodi:docname="Torus-DM.svg"
   width="25.4mm"
   height="128.5mm"
   inkscape:version="0.92.3 (2405546, 2018-03-11)"><metadata
   id="metadata223"><rdf:RDF><cc:Work
       rdf:about=""><dc:format>image/svg+xml</dc:format><dc:type
         rdf:resource="http://purl.org/dc/dcmitype/StillImage" /><dc:title></dc:title></cc:Work></rdf:RDF></metadata><defs
   id="defs221" /><sodipodi:namedview
   pagecolor="#ffffff"
   bordercolor="#666666"
   borderopacity="1"
   objecttolerance="10"
   gridtolerance="10"
   guidetolerance="10"
   inkscape:pageopacity="0"
   inkscape:pageshadow="2"
   inkscape:window-width="1920"
   inkscape:window-height="1017"
   id="namedview219"
   showgrid="false"
   inkscape:document-units="mm"
   units="mm"
   fit-margin-top="0"
   fit-margin-left="0"
   fit-margin-right="0"
   fit-margin-bottom="0"
   inkscape:zoom="0.62105263"
   inkscape:cx="37.5"
   inkscape:cy="190.00003"
   inkscape:window-x="-8"
   inkscape:window-y="-8"
   inkscape:window-maximized="1"
   inkscape:current-layer="Layer_1" />
<g
   id="bg"
   transform="matrix(1.2800162,0,0,1.2800162,-6.0555561e-4,-0.36841885)">
	
		<linearGradient
   id="SVGID_1_"
   gradientUnits="userSpaceOnUse"
   x1="-74.028397"
   y1="301.84171"
   x2="147.94514"
   y2="79.868156"
   gradientTransform="matrix(1,0,0,-1,0,382)">
		<stop
   offset="0.38537"
   style="stop-color:#FFCC9E"
   id="stop2" />
		<stop
   offset="0.62112"
   style="stop-color:#F1AD8C"
   id="stop4" />
		<stop
   offset="0.85662"
   style="stop-color:#E6947E"
   id="stop6" />
		<stop
   offset="1"
   style="stop-color:#E28B79"
   id="stop8" />
	</linearGradient>
	<rect
   x="2.5272601"
   y="3.6026399"
   width="68.862228"
   height="375.08487"
   id="rect11"
   style="fill:url(#SVGID_1_)" />
	<g
   id="g65">
		<path
   d="m 29.36206,241.43726 c -2.7793,1.03894 -5.3064,2.59857 -7.45947,4.56274 2.15039,1.96161 4.67383,3.51953 7.44897,4.55847 2.15649,-1.40967 4.65991,-2.23071 7.25024,-2.38971 l 0.002,-4.33582 c -1.62231,-0.0978 -3.25513,-0.4491 -4.8396,-1.11133 -0.85546,-0.35766 -1.65233,-0.79497 -2.40209,-1.28435 z"
   id="path13"
   inkscape:connector-curvature="0"
   style="fill:#252626" />
		<path
   d="m 29.36206,275.43726 c -2.7793,1.03894 -5.3064,2.59857 -7.45947,4.56274 2.15039,1.96161 4.67383,3.51953 7.44897,4.55847 2.15234,-1.40704 4.65039,-2.22766 7.2356,-2.38898 l 0.0017,-4.33722 c -1.61719,-0.0992 -3.24512,-0.45044 -4.82471,-1.11066 -0.85547,-0.35766 -1.65234,-0.79497 -2.4021,-1.28435 z"
   id="path15"
   inkscape:connector-curvature="0"
   style="fill:#252626" />
		<path
   d="m 29.41357,309.46869 c -2.78784,1.03442 -5.32324,2.59265 -7.48389,4.55719 2.14453,1.94977 4.65869,3.49811 7.42188,4.53259 2.14844,-1.40436 4.64087,-2.22467 7.2207,-2.38818 l 0.002,-4.33862 c -1.61255,-0.10052 -3.23535,-0.45184 -4.81006,-1.11005 -0.83642,-0.34967 -1.61522,-0.77716 -2.35058,-1.25293 z"
   id="path17"
   inkscape:connector-curvature="0"
   style="fill:#252626" />
		<path
   d="m 29.36206,207.43726 c -2.7793,1.03894 -5.3064,2.59857 -7.45947,4.56274 2.15039,1.96161 4.67383,3.51953 7.44897,4.55847 2.16064,-1.41235 4.66943,-2.2337 7.26514,-2.3905 l 0.002,-4.33435 c -1.6272,-0.0965 -3.26538,-0.44775 -4.85449,-1.112 -0.85547,-0.35767 -1.65234,-0.79498 -2.4021,-1.28436 z"
   id="path19"
   inkscape:connector-curvature="0"
   style="fill:#252626" />
		<path
   d="m 27.81348,319.7312 c -2.61499,-1.10657 -4.99951,-2.65289 -7.06372,-4.54382 -3.93945,4.13177 -6.36597,9.71826 -6.36597,15.86438 0,5.72559 2.11719,11.21387 5.96094,15.4541 0.12598,0.13867 0.18188,0.30969 0.19751,0.48291 2.12769,-1.99219 4.58545,-3.58856 7.26196,-4.71698 -4.75269,-4.0871 -6.57422,-10.91125 -4.02588,-17.00757 0.92481,-2.21234 2.33154,-4.07117 4.03516,-5.53302 z"
   id="path21"
   inkscape:connector-curvature="0"
   style="fill:#252626" />
		<path
   d="m 29.36206,173.43726 c -2.7793,1.03894 -5.3064,2.59857 -7.45947,4.56274 2.15039,1.96161 4.67383,3.51953 7.44897,4.55847 2.16479,-1.41504 4.67896,-2.23688 7.27979,-2.3913 l 0.002,-4.33289 c -1.63208,-0.0952 -3.27515,-0.44641 -4.86914,-1.11267 -0.85547,-0.35766 -1.65234,-0.79497 -2.4021,-1.28435 z"
   id="path23"
   inkscape:connector-curvature="0"
   style="fill:#252626" />
		<path
   d="m 27.80469,240.27222 c -4.75293,-4.08698 -6.57471,-10.91144 -4.02637,-17.008 0.9248,-2.21234 2.33154,-4.07117 4.03516,-5.53302 -2.62622,-1.11127 -5.01953,-2.6665 -7.0896,-4.56842 -3.92407,4.12915 -6.34009,9.70453 -6.34009,15.83722 0,6.13269 2.41602,11.70807 6.34009,15.83722 2.06787,-1.89984 4.45825,-3.45398 7.08081,-4.565 z"
   id="path25"
   inkscape:connector-curvature="0"
   style="fill:#252626" />
		<path
   d="m 26.59961,15.04883 c 1.20508,0 2.16602,-0.9834 2.16602,-2.17676 0,-1.2041 -0.96094,-2.20898 -2.16602,-2.20898 -1.20313,0 -2.17578,1.00488 -2.17578,2.20898 0,1.19336 0.97265,2.17676 2.17578,2.17676 z"
   id="path27"
   inkscape:connector-curvature="0"
   style="fill:#252626" />
		<path
   d="m 27.84375,308.30847 c -4.7832,-4.08289 -6.62109,-10.9303 -4.06543,-17.04425 0.9248,-2.21234 2.33154,-4.07117 4.03516,-5.53302 -2.62622,-1.11127 -5.01953,-2.6665 -7.0896,-4.56842 -3.92407,4.12915 -6.34009,9.70453 -6.34009,15.83722 0,6.14612 2.42651,11.7326 6.36597,15.86438 2.07202,-1.89819 4.46753,-3.44849 7.09399,-4.55591 z"
   id="path29"
   inkscape:connector-curvature="0"
   style="fill:#252626" />
		<path
   d="m 27.80469,206.27222 c -4.75293,-4.08698 -6.57471,-10.91144 -4.02637,-17.008 0.9248,-2.21234 2.33154,-4.07117 4.03516,-5.53302 -2.62622,-1.11127 -5.01953,-2.6665 -7.0896,-4.56842 -3.92407,4.12915 -6.34009,9.70453 -6.34009,15.83722 0,6.13269 2.41602,11.70807 6.34009,15.83722 2.06787,-1.89984 4.45825,-3.45398 7.08081,-4.565 z"
   id="path31"
   inkscape:connector-curvature="0"
   style="fill:#252626" />
		<path
   d="m 37.69922,11.21582 c 0,-0.15527 -0.10938,-0.35352 -0.26367,-0.35352 h -1.01758 v 0.70703 h 1.01758 c 0.15429,10e-6 0.26367,-0.19921 0.26367,-0.35351 z"
   id="path33"
   inkscape:connector-curvature="0"
   style="fill:#252626" />
		<path
   d="m 29.36206,139.43726 c -2.7854,1.0412 -5.31714,2.60571 -7.47339,4.57593 2.14673,1.96143 4.66577,3.52008 7.43652,4.56128 2.1748,-1.42798 4.70459,-2.25531 7.32104,-2.40808 l 0.0017,-4.33142 c -1.63672,-0.0938 -3.28516,-0.44507 -4.88379,-1.11334 -0.85546,-0.35768 -1.65233,-0.79499 -2.40209,-1.28437 z"
   id="path35"
   inkscape:connector-curvature="0"
   style="fill:#252626" />
		<path
   d="m 27.80469,274.27222 c -4.75293,-4.08698 -6.57471,-10.91144 -4.02637,-17.008 0.9248,-2.21234 2.33154,-4.07117 4.03516,-5.53302 -2.62622,-1.11127 -5.01953,-2.6665 -7.0896,-4.56842 -3.92407,4.12915 -6.34009,9.70453 -6.34009,15.83722 0,6.13269 2.41602,11.70807 6.34009,15.83722 2.06787,-1.89984 4.45825,-3.45398 7.08081,-4.565 z"
   id="path37"
   inkscape:connector-curvature="0"
   style="fill:#252626" />
		<path
   d="m 27.80469,172.27222 c -4.75293,-4.08698 -6.57471,-10.91144 -4.02637,-17.008 0.92114,-2.20349 2.32056,-4.05585 4.01489,-5.51514 -2.62378,-1.11304 -5.01465,-2.66986 -7.08252,-4.57251 -3.91626,4.12775 -6.3269,9.69763 -6.3269,15.82343 0,6.13269 2.41602,11.70807 6.34009,15.83722 2.06787,-1.89984 4.45825,-3.45398 7.08081,-4.565 z"
   id="path39"
   inkscape:connector-curvature="0"
   style="fill:#252626" />
		<path
   d="m 47.12744,183.66492 c 4.80566,4.07983 6.65527,10.94415 4.09424,17.0708 -0.9375,2.24286 -2.3689,4.12415 -4.10449,5.59473 2.57153,1.10693 4.91821,2.63843 6.9519,4.50677 3.92407,-4.12915 6.34009,-9.70453 6.34009,-15.83722 0,-6.13269 -2.41602,-11.70807 -6.34009,-15.83722 -2.031,1.86585 -4.37427,3.39557 -6.94165,4.50214 z"
   id="path41"
   inkscape:connector-curvature="0"
   style="fill:#252626" />
		<path
   d="m 47.12744,217.66492 c 4.80566,4.07983 6.65527,10.94415 4.09424,17.0708 -0.9375,2.24286 -2.3689,4.12415 -4.10449,5.59473 2.57153,1.10693 4.91821,2.63843 6.9519,4.50677 3.92407,-4.12915 6.34009,-9.70453 6.34009,-15.83722 0,-6.13269 -2.41602,-11.70807 -6.34009,-15.83722 -2.031,1.86585 -4.37427,3.39557 -6.94165,4.50214 z"
   id="path43"
   inkscape:connector-curvature="0"
   style="fill:#252626" />
		<path
   d="m 47.12744,251.66492 c 4.80566,4.07983 6.65527,10.94415 4.09424,17.0708 -0.9375,2.24286 -2.3689,4.12415 -4.10449,5.59473 2.57153,1.10693 4.91821,2.63843 6.9519,4.50677 3.92407,-4.12915 6.34009,-9.70453 6.34009,-15.83722 0,-6.13269 -2.41602,-11.70807 -6.34009,-15.83722 -2.031,1.86585 -4.37427,3.39557 -6.94165,4.50214 z"
   id="path45"
   inkscape:connector-curvature="0"
   style="fill:#252626" />
		<path
   d="m 47.14648,149.68262 c 4.79077,4.08191 6.63257,10.93494 4.0752,17.0531 -0.9375,2.24286 -2.3689,4.12415 -4.10449,5.59473 2.57153,1.10693 4.91821,2.63843 6.9519,4.50677 3.92407,-4.12915 6.34009,-9.70453 6.34009,-15.83722 0,-6.12579 -2.41064,-11.69568 -6.3269,-15.82343 -2.02906,1.8667 -4.37012,3.39765 -6.9358,4.50605 z"
   id="path47"
   inkscape:connector-curvature="0"
   style="fill:#252626" />
		<path
   d="M 0,0 V 380 H 75 V 0 Z m 57.81445,13.80078 c -0.2207,-0.04395 -1.30273,-0.27637 -1.74609,-0.54199 -0.75,-0.44141 -1.13672,-1.11523 -1.13672,-1.95508 0,-0.46387 0.1543,-0.90625 0.4082,-1.28125 0.25391,-0.35352 0.60742,-0.62988 1.01563,-0.81738 l -0.0098,0.01074 c 0.41992,-0.19922 0.89453,-0.29785 1.34766,-0.29785 0.1875,0 0.36328,0.01074 0.58594,0.04395 0.70703,0.12109 1.35742,0.4082 2.26367,1.16016 l -1.21484,1.45801 c -0.81836,-0.67383 -1.23828,-0.77344 -1.6582,-0.77344 -0.20898,0 -0.375,0.04395 -0.50781,0.11035 -0.20898,0.08887 -0.32031,0.24316 -0.32031,0.38672 0,0.29883 0.39844,0.44238 1.03906,0.57422 0.06641,0.02246 0.14258,0.02246 0.2207,0.04492 0.43164,0.09863 1.07227,0.23145 1.49219,0.47461 h -0.01172 c 0.79492,0.44238 1.21484,1.1377 1.21484,2 0,0.50781 -0.13281,0.98242 -0.41992,1.38086 -0.25391,0.36426 -0.62891,0.62891 -1.04883,0.83887 -0.44141,0.23242 -0.89453,0.29883 -1.39258,0.29883 -0.26563,0 -0.55273,-0.0332 -0.79492,-0.08887 -0.79492,-0.16504 -1.52539,-0.53027 -2.46289,-1.33594 l 1.25781,-1.44727 c 0.69727,0.60742 1.10547,0.83887 1.5918,0.92773 0.14258,0.0332 0.28711,0.05469 0.41992,0.05469 0.2207,0 0.41992,-0.04395 0.57422,-0.12109 0.13281,-0.06641 0.36523,-0.20996 0.36523,-0.50781 0,-0.30958 -0.57617,-0.49708 -1.07227,-0.59669 z m -16.3916,56.68848 c -0.44434,-0.1123 -0.71289,-0.5625 -0.60156,-1.00586 0.11328,-0.44434 0.56934,-0.70898 1.00586,-0.60156 7.85742,1.98242 13.34473,9.02148 13.34473,17.11816 0,3.41406 -0.97461,6.72656 -2.81934,9.58008 -0.1582,0.24512 -0.4248,0.37793 -0.69629,0.37793 -0.1543,0 -0.30957,-0.04297 -0.44922,-0.13281 -0.38379,-0.24805 -0.49414,-0.76074 -0.24512,-1.14551 1.66993,-2.58399 2.55372,-5.58496 2.55372,-8.67969 0,-7.33691 -4.97266,-13.71484 -12.09278,-15.51074 z M 44.55859,8.9834 h 1.90039 v 4.83887 c 0,0.68555 0.55273,1.2373 1.21484,1.2373 0.67383,0 1.21484,-0.55176 1.21484,-1.2373 V 8.9834 h 1.91211 v 4.83887 c 0,1.72363 -1.40234,3.12695 -3.12695,3.12695 -1.71094,0 -3.11523,-1.40332 -3.11523,-3.12695 V 8.9834 Z m -10.00781,0 h 2.88477 c 0.57422,0 1.11523,0.23242 1.51367,0.62988 0.39648,0.40918 0.62891,1.02734 0.62891,1.60254 0,0.75098 -0.36523,1.48047 -0.94922,1.85547 l 2.86133,3.77832 h -2.28711 l -2.60742,-3.40234 h -0.17773 v 3.40234 h -1.86719 c 0,0 0,-7.86621 -10e-6,-7.86621 z M 26.59961,8.77441 c 2.24414,0 4.09961,1.83301 4.09961,4.09766 0,2.24316 -1.85547,4.07715 -4.09961,4.07715 -2.25391,0 -4.08594,-1.83398 -4.08594,-4.07715 0,-2.26465 1.83203,-4.09766 4.08594,-4.09766 z m 6.59766,60.10157 c 0.43848,-0.10645 0.89355,0.1582 1.00488,0.60254 0.11133,0.44336 -0.1582,0.89355 -0.60254,1.00488 C 26.4668,72.27148 21.48438,78.65234 21.48438,86 c 0,3.01953 0.84375,5.95898 2.43945,8.50098 0.24414,0.3877 0.12695,0.89844 -0.26074,1.1416 -0.13672,0.08594 -0.28906,0.12695 -0.43945,0.12695 -0.27539,0 -0.54492,-0.13672 -0.70215,-0.3877 -1.7627,-2.80566 -2.69336,-6.0498 -2.69336,-9.38184 0,-8.10936 5.49707,-15.15038 13.36914,-17.12401 z M 13.91797,8.9834 h 5.51367 v 1.90039 h -1.80078 v 5.96582 h -1.91211 v -5.96582 h -1.80078 c 0,0 0,-1.90039 0,-1.90039 z M 62.06543,161 c 0,6.58533 -2.59888,12.57141 -6.81836,17 4.21948,4.42859 6.81836,10.41467 6.81836,17 0,6.58533 -2.59888,12.57141 -6.81836,17 4.21948,4.42859 6.81836,10.41467 6.81836,17 0,6.58533 -2.59888,12.57141 -6.81836,17 4.21948,4.42859 6.81836,10.41467 6.81836,17 0,6.58533 -2.59888,12.57141 -6.81836,17 4.21948,4.42859 6.81836,10.41467 6.81836,17 0,6.59821 -2.60889,12.59473 -6.84302,17.02588 4.23413,4.43115 6.84302,10.42767 6.84302,17.02588 0,5.19336 -1.59473,10.16113 -4.6123,14.36719 -0.26563,0.37012 -0.78223,0.45801 -1.15625,0.18945 -0.37109,-0.2666 -0.45605,-0.78418 -0.18945,-1.15625 2.81445,-3.92188 4.30176,-8.55566 4.30176,-13.40039 0,-6.14612 -2.42651,-11.7326 -6.36597,-15.86438 -2.02466,1.85486 -4.35938,3.37573 -6.91577,4.47754 4.80566,4.07983 6.65527,10.94415 4.09424,17.0708 -0.93823,2.24451 -2.37109,4.12708 -4.1084,5.59814 4.29175,1.8396 8.0415,4.87952 10.73926,8.87317 0.25586,0.37891 0.15625,0.89453 -0.22266,1.15039 -0.38184,0.25684 -0.89453,0.15625 -1.15039,-0.22266 -2.64258,-3.91205 -6.36499,-6.84888 -10.62134,-8.53198 v 27.86664 c 0,1.77142 -1.43604,3.20746 -3.20728,3.20746 h -10.4663 c -1.77148,0 -3.20752,-1.43604 -3.20752,-3.20746 v -27.87817 c -5.01025,1.96832 -9.2627,5.65906 -11.89307,10.58356 -0.14844,0.2793 -0.43555,0.4375 -0.73145,0.4375 -0.13184,0 -0.26465,-0.0312 -0.38965,-0.0977 -0.40332,-0.21484 -0.55566,-0.7168 -0.33984,-1.12109 1.09473,-2.0498 2.45361,-3.89929 4.01758,-5.52179 -0.19336,-0.0217 -0.38184,-0.0977 -0.52246,-0.25262 -4.12109,-4.5459 -6.39063,-10.42969 -6.39063,-16.56738 0,-6.59821 2.60889,-12.59473 6.84302,-17.02588 -4.23413,-4.43115 -6.84302,-10.42767 -6.84302,-17.02588 0,-6.58533 2.59888,-12.57141 6.81836,-17 -4.21948,-4.42859 -6.81836,-10.41467 -6.81836,-17 0,-6.58533 2.59888,-12.57141 6.81836,-17 -4.21948,-4.42859 -6.81836,-10.41467 -6.81836,-17 0,-6.58533 2.59888,-12.57141 6.81836,-17 -4.21948,-4.42859 -6.81836,-10.41467 -6.81836,-17 0,-6.58533 2.59888,-12.57141 6.81836,-17 -4.21948,-4.42859 -6.81836,-10.41467 -6.81836,-17 0,-6.5788 2.59375,-12.55951 6.80566,-16.98682 -4.21191,-4.42731 -6.80566,-10.40802 -6.80566,-16.98682 0,-4.70508 1.3291,-9.28027 3.84473,-13.23242 0.24609,-0.38574 0.75684,-0.49707 1.14453,-0.25391 0.38574,0.24609 0.49902,0.75781 0.25391,1.14453 -2.34668,3.68457 -3.58691,7.95313 -3.58691,12.3418 0,6.12579 2.41064,11.69568 6.3269,15.82343 2.07104,-1.90546 4.46558,-3.46417 7.09399,-4.57758 -4.75293,-4.08698 -6.57471,-10.91144 -4.02637,-17.008 0.85913,-2.05499 2.1355,-3.80316 3.67651,-5.21484 -4.32666,-1.74219 -8.14404,-4.68829 -10.91772,-8.58551 -0.26563,-0.37305 -0.17871,-0.89063 0.19434,-1.15527 0.37207,-0.26563 0.89063,-0.17773 1.15527,0.19434 2.77344,3.89764 6.66504,6.77844 11.06274,8.34485 2.2627,-1.58868 4.93408,-2.52283 7.71143,-2.68219 l 0.0037,-8.53345 c -4.40479,-0.20459 -8.52148,-1.99579 -11.66162,-5.13507 -0.32324,-0.32324 -0.32324,-0.84766 0,-1.17188 0.32422,-0.32227 0.84766,-0.32422 1.17188,0 2.8269,2.82697 6.52808,4.44775 10.49048,4.65076 L 36.68116,65.2096 c -5.0957,-0.27057 -9.78369,-3.10602 -12.37158,-7.54456 -0.23047,-0.39453 -0.09668,-0.90234 0.29883,-1.13281 0.39453,-0.22949 0.90234,-0.09668 1.13281,0.29883 2.42676,4.16309 6.9248,6.74902 11.73926,6.74902 4.78223,0 9.26563,-2.56055 11.70215,-6.68359 0.23242,-0.39355 0.73828,-0.52441 1.13477,-0.29102 0.39355,0.23242 0.52441,0.74023 0.29102,1.13477 -2.58643,4.37671 -7.23193,7.17975 -12.271,7.46753 l -0.01587,36.7688 c 3.96753,-0.20001 7.67358,-1.82129 10.50366,-4.65137 0.32422,-0.32227 0.84766,-0.32227 1.17188,0 0.32324,0.32422 0.32324,0.84863 0,1.17188 -3.14355,3.14276 -7.26611,4.93463 -11.67627,5.1358 l -0.0037,8.53058 c 1.64819,0.0906 3.30859,0.44189 4.9187,1.11493 0.78125,0.32666 1.50879,0.72528 2.20215,1.16248 4.19434,-1.73169 7.84619,-4.68677 10.43213,-8.60492 0.25195,-0.38086 0.76465,-0.4873 1.14746,-0.23535 0.38184,0.25195 0.4873,0.76563 0.23535,1.14746 -2.57666,3.90393 -6.13721,6.92352 -10.2373,8.82056 4.88965,4.06769 6.78711,10.99261 4.20605,17.16711 -0.9375,2.24286 -2.3689,4.12415 -4.10449,5.59473 2.57715,1.10938 4.92822,2.64545 6.96509,4.51935 3.91626,-4.12775 6.3269,-9.69763 6.3269,-15.82343 0,-4.38965 -1.24023,-8.6582 -3.58691,-12.3418 -0.24512,-0.38672 -0.13184,-0.89844 0.25391,-1.14453 0.38867,-0.24316 0.89941,-0.13184 1.14453,0.25391 2.51563,3.95117 3.84473,8.52637 3.84473,13.23242 0,6.5788 -2.59375,12.55952 -6.80566,16.98682 4.21188,4.42729 6.80563,10.408 6.80563,16.9868 z"
   id="path49"
   inkscape:connector-curvature="0"
   style="fill:#252626" />
		<path
   d="m 45.58276,148.52911 c 2.7251,-1.04095 5.20483,-2.58185 7.32153,-4.51593 -2.12134,-1.93817 -4.60693,-3.48175 -7.33887,-4.52277 -2.16431,1.39478 -4.66968,2.20319 -7.26123,2.34576 l -0.0017,4.3266 c 1.65308,0.0892 3.31836,0.44055 4.93335,1.1156 0.83497,0.34913 1.61256,0.77589 2.34693,1.25074 z"
   id="path51"
   inkscape:connector-curvature="0"
   style="fill:#252626" />
		<path
   d="m 45.5564,182.51312 c 2.72949,-1.03876 5.21362,-2.57886 7.33398,-4.51312 -2.11816,-1.93219 -4.59912,-3.47089 -7.32495,-4.50958 -2.16846,1.3974 -4.6792,2.2063 -7.27588,2.34656 l -0.002,4.32513 c 1.65796,0.0878 3.32861,0.43927 4.94824,1.11627 0.82544,0.34503 1.59375,0.76679 2.32056,1.23474 z"
   id="path53"
   inkscape:connector-curvature="0"
   style="fill:#252626" />
		<path
   d="m 47.12744,285.66492 c 4.80566,4.07983 6.65527,10.94415 4.09424,17.0708 -0.94482,2.25983 -2.38965,4.15375 -4.14307,5.62903 2.57568,1.10345 4.92676,2.63281 6.9646,4.49963 3.93945,-4.13177 6.36597,-9.71826 6.36597,-15.86438 0,-6.13269 -2.41602,-11.70807 -6.34009,-15.83722 -2.031,1.86585 -4.37427,3.39557 -6.94165,4.50214 z"
   id="path55"
   inkscape:connector-curvature="0"
   style="fill:#252626" />
		<path
   d="m 45.5564,250.51312 c 2.72949,-1.03876 5.21362,-2.57886 7.33398,-4.51312 -2.11816,-1.93219 -4.59912,-3.47089 -7.32495,-4.50958 -2.17676,1.40271 -4.69824,2.21252 -7.30542,2.34814 l -0.002,4.32227 c 1.66772,0.0849 3.34839,0.43652 4.97778,1.11755 0.82544,0.34503 1.59375,0.76679 2.32056,1.23474 z"
   id="path57"
   inkscape:connector-curvature="0"
   style="fill:#252626" />
		<path
   d="m 45.5564,216.51312 c 2.72949,-1.03876 5.21362,-2.57886 7.33398,-4.51312 -2.11816,-1.93219 -4.59912,-3.47089 -7.32495,-4.50958 -2.17261,1.40009 -4.68872,2.20935 -7.29053,2.34735 l -0.002,4.32367 c 1.66284,0.0864 3.33838,0.43793 4.96289,1.11694 0.82544,0.34503 1.59375,0.76679 2.32056,1.23474 z"
   id="path59"
   inkscape:connector-curvature="0"
   style="fill:#252626" />
		<path
   d="m 45.5564,284.51312 c 2.72949,-1.03876 5.21362,-2.57886 7.33398,-4.51312 -2.11816,-1.93219 -4.59912,-3.47089 -7.32495,-4.50958 -2.18066,1.40533 -4.70776,2.21564 -7.32031,2.34894 l -0.0017,4.3208 c 1.67261,0.0835 3.35815,0.43518 4.99243,1.11823 0.82544,0.34502 1.59375,0.76678 2.32056,1.23473 z"
   id="path61"
   inkscape:connector-curvature="0"
   style="fill:#252626" />
		<path
   d="m 38.23047,311.84015 -0.0019,4.31934 c 1.67749,0.082 3.36841,0.43384 5.00732,1.1189 0.82544,0.34503 1.59375,0.76678 2.32056,1.23474 2.71753,-1.03424 5.19238,-2.56476 7.30688,-4.48724 -2.12573,-1.93286 -4.61572,-3.47003 -7.35034,-4.50446 -2.1731,1.38787 -4.6853,2.18884 -7.28247,2.31872 z"
   id="path63"
   inkscape:connector-curvature="0"
   style="fill:#252626" />
	</g>
	<g
   id="g69">
		<path
   d="m 41.26395,362.78329 c -0.11426,0.26349 -0.26582,0.48099 -0.45469,0.65225 -0.1891,0.17126 -0.40401,0.29843 -0.64567,0.3822 -0.24189,0.0835 -0.49434,0.12503 -0.75781,0.12503 -0.44812,0 -0.79723,-0.0657 -1.04757,-0.19754 -0.25034,-0.13187 -0.44601,-0.28552 -0.58632,-0.46127 -0.14968,-0.1933 -0.244,-0.40845 -0.28341,-0.64566 -0.03965,-0.23718 -0.05936,-0.4744 -0.05936,-0.71158 0,-0.33411 0.0068,-0.56451 0.01971,-0.69189 0.01338,-0.12766 0.02839,-0.19989 0.04622,-0.2175 0.03496,-0.0265 0.17995,-0.0394 0.43475,-0.0394 h 3.08382 c 0.08775,0 0.16024,0.007 0.21749,0.0197 0.05678,0.0131 0.10088,0.0481 0.13162,0.10535 0.03073,0.057 0.05044,0.14264 0.05936,0.2569 0.0087,0.11426 0.01337,0.2724 0.01337,0.4744 0,0.36908 -0.05748,0.68558 -0.17151,0.94903 m -5.32349,-12.82162 c 0.01173,-0.0828 0.0474,-0.14828 0.10699,-0.19592 0.05936,-0.0474 0.15414,-0.0772 0.28506,-0.0891 0.13068,-0.0118 0.31485,-0.0178 0.55252,-0.0178 0.92675,0 1.6367,0.2583 2.12986,0.77518 0.49294,0.51685 0.73975,1.2092 0.73975,2.0766 0,0.0821 -0.01713,0.25925 -0.02792,0.38077 -0.06827,-9.2e-4 -0.13655,-0.002 -0.20482,-0.003 -0.18699,-0.004 -0.39017,-0.0143 -0.60954,-0.0305 -0.0488,0.0244 -0.07508,0.0711 -0.0793,0.14008 -0.004,0.0692 0.01408,0.12411 0.05514,0.1647 l 0.21913,0.0244 c 0.1464,0.0162 0.26817,0.0427 0.36577,0.0791 0.0976,0.0366 0.1464,0.0753 0.1464,0.11591 0,0.0406 -0.0244,0.11591 -0.0732,0.22546 -0.0488,0.1098 -0.1138,0.24191 -0.19497,0.39606 -0.08142,0.1546 -0.16893,0.31931 -0.26207,0.49387 -0.09362,0.17477 -0.18113,0.33948 -0.26231,0.49362 -0.18699,0.35779 -0.37773,0.70901 -0.57293,1.05438 -0.19497,0.34558 -0.38595,0.68085 -0.57271,1.0058 -0.23603,-0.42255 -0.46759,-0.86551 -0.69494,-1.32864 -0.22758,-0.46335 -0.45516,-0.92227 -0.68274,-1.37766 -0.01643,-0.0324 -0.04458,-0.0932 -0.08517,-0.18277 -0.04082,-0.0892 -0.08352,-0.18466 -0.1281,-0.28647 -0.04481,-0.10159 -0.08352,-0.19687 -0.1159,-0.28647 -0.03261,-0.0894 -0.04856,-0.15039 -0.04856,-0.18277 0,-0.0488 0.03214,-0.0873 0.09736,-0.11591 0.06499,-0.0284 0.20319,-0.0629 0.41458,-0.10349 l 0.15836,-0.0244 c 0.04059,-0.0406 0.05889,-0.0976 0.0549,-0.17081 -0.0042,-0.073 -0.03473,-0.11777 -0.09127,-0.13397 -0.17315,0.0136 -0.38548,0.0235 -0.63722,0.0293 v -2.58643 c 3e-5,-0.14263 0.0059,-0.25549 0.01785,-0.33877 m 1.00933,9.125 c 0,0.32516 -0.0042,0.58511 -0.0122,0.78009 -0.0082,0.19498 -0.03659,0.34747 -0.0854,0.45703 -0.01736,0.0394 -0.03801,0.0742 -0.06171,0.10443 -4.7e-4,2.1e-4 -0.0012,7e-4 -0.0017,9.2e-4 -0.14194,-0.0272 -0.2616,-0.0587 -0.35825,-0.0945 -0.16048,-0.0594 -0.27615,-0.16635 -0.34748,-0.32071 -0.07132,-0.15439 -0.1159,-0.37119 -0.13372,-0.6506 -0.01784,-0.27896 -0.02675,-0.6506 -0.02675,-1.11374 v -2.53787 l 0.63722,1.24161 c 0.08916,0.17081 0.16024,0.31509 0.21326,0.43286 0.05279,0.11801 0.09127,0.2276 0.11567,0.32919 0.02439,0.10181 0.04058,0.20926 0.04879,0.32306 0.008,0.1138 0.0122,0.25595 0.0122,0.42654 v 0.62173 h 2e-5 z m 5.03092,1.50742 c 0.05278,-0.14639 0.10534,-0.30267 0.15836,-0.46924 0.05279,-0.1666 0.10159,-0.32916 0.1464,-0.48776 0.04458,-0.15839 0.07907,-0.29047 0.1037,-0.39627 -0.02464,-0.0565 -0.07133,-0.0931 -0.1403,-0.10959 -0.06921,-0.0162 -0.12387,-0.008 -0.1647,0.0244 -0.16259,0.31674 -0.31885,0.57693 -0.46924,0.78009 -0.15039,0.20343 -0.28247,0.3374 -0.39603,0.40237 -0.06523,0.0326 -0.1403,0.0608 -0.2257,0.0852 -0.08517,0.0244 -0.18699,0.0427 -0.30477,0.0549 -0.11777,0.0122 -0.25996,0.0225 -0.42654,0.0305 -0.16658,0.008 -0.36788,0.0122 -0.60344,0.0122 -0.26817,0 -0.48965,-0.008 -0.66444,-0.0244 -0.17479,-0.0162 -0.31486,-0.0366 -0.42043,-0.0608 -0.10582,-0.0247 -0.1891,-0.053 -0.24987,-0.0854 -0.061,-0.0324 -0.10793,-0.069 -0.14031,-0.1098 -0.0976,-0.10556 -0.16048,-0.26205 -0.18887,-0.46924 -0.02862,-0.2074 -0.0427,-0.47345 -0.0427,-0.79865 v -0.8045 c 0.0019,-0.11142 0.0052,-0.20996 0.0099,-0.29443 0.008,-0.15015 0.03027,-0.29047 0.06687,-0.42044 0.03659,-0.12997 0.09337,-0.2684 0.1708,-0.41458 0.0183,-0.0349 0.03894,-0.0727 0.06077,-0.11237 0.02933,-9.5e-4 0.05982,-10e-4 0.09385,-10e-4 h 0.70714 c 0.23555,0 0.42865,0.004 0.57903,0.0122 0.15015,0.008 0.27005,0.0241 0.35966,0.0485 0.12177,0.0326 0.20905,0.0896 0.26207,0.17081 0.05279,0.0812 0.09127,0.17877 0.11591,0.29257 l 0.10956,0.47534 c 0.03238,0.0408 0.08728,0.0589 0.16447,0.0549 0.07718,-0.004 0.1281,-0.0263 0.1525,-0.0671 0,-0.13818 -0.0082,-0.31274 -0.0244,-0.52414 -0.01643,-0.2114 -0.0244,-0.42679 -0.0244,-0.64615 0,-0.23553 0.008,-0.46313 0.0244,-0.6825 0.01619,-0.2196 0.0244,-0.40237 0.0244,-0.54877 -0.0244,-0.0404 -0.07532,-0.0629 -0.1525,-0.0671 -0.07719,-0.004 -0.1321,0.0143 -0.16447,0.0549 L 40.39,355.99838 c -0.03261,0.15439 -0.07132,0.25809 -0.1159,0.31088 -0.04482,0.0528 -0.1037,0.0913 -0.17667,0.11566 -0.0732,0.0244 -0.19943,0.0427 -0.37797,0.0549 -0.17901,0.0122 -0.39839,0.0183 -0.65834,0.0183 h -0.55089 c 0.0042,-0.007 0.008,-0.0131 0.0122,-0.0202 l 0.76791,-1.32864 c 0.15414,-0.26019 0.29445,-0.50183 0.42067,-0.72543 0.12576,-0.22336 0.24987,-0.42065 0.37163,-0.59125 0.12201,-0.17056 0.24776,-0.30875 0.37798,-0.41431 0.02698,-0.0218 0.05466,-0.0415 0.08305,-0.0601 0.08258,0.0329 0.15532,0.0716 0.21796,0.11685 0.10159,0.073 0.18464,0.15836 0.24987,0.25598 0.06499,0.0974 0.11777,0.20715 0.1586,0.32892 0.04036,0.12201 0.08517,0.2562 0.13397,0.40237 0.03238,0.0408 0.0854,0.057 0.1586,0.0488 0.07297,-0.008 0.12176,-0.0324 0.14616,-0.0732 -0.01643,-0.12997 -0.0305,-0.27823 -0.04247,-0.44482 -0.01243,-0.16656 -0.02674,-0.32916 -0.04293,-0.48755 -0.01619,-0.1586 -0.03754,-0.30005 -0.05467,-0.42676 -0.04247,-0.31345 -0.03285,-0.58115 -0.03285,-0.58115 0,-0.61752 -0.17525,-1.15738 -0.44272,-1.60925 -0.26723,-0.45139 -0.60907,-0.80777 -1.02481,-1.06915 -0.41597,-0.26135 -0.90305,-0.44553 -1.46143,-0.55252 -0.55863,-0.10699 -1.21204,-0.16049 -1.96047,-0.16049 -0.74867,0 -1.40536,0.009 -1.96938,0.0268 -0.5645,0.0178 -1.08441,0.0566 -1.55975,0.11591 -0.07109,0.0356 -0.1098,0.10416 -0.11567,0.2048 -0.0061,0.10114 0.02042,0.18137 0.08024,0.24072 l 0.64145,0.0713 c 0.202,0.0239 0.3592,0.0624 0.47252,0.11591 0.11262,0.0533 0.19591,0.15134 0.2494,0.29398 0.05349,0.14264 0.08611,0.3327 0.09807,0.57037 0.01173,0.23767 0.01783,0.54666 0.01783,0.92673 v 6.57681 c 0,0.46313 -0.0061,0.83478 -0.01783,1.11374 -0.01196,0.27942 -0.05349,0.49622 -0.12482,0.6506 -0.07132,0.15436 -0.1783,0.26135 -0.32072,0.32071 -0.14265,0.0596 -0.34489,0.10699 -0.60601,0.14264 l -0.37445,0.0535 c -0.0542,0.0542 -0.07837,0.12833 -0.0732,0.22171 -4.7e-4,0.19077 -0.0026,0.25128 -0.0066,0.46619 -0.0042,0.24612 -0.01548,0.52109 -0.03355,0.82538 0.01807,0.0448 0.06921,0.0716 0.15438,0.0807 0.08493,0.009 0.14546,-0.009 0.18136,-0.0537 l 0.04012,-0.28201 c 0.02699,-0.19687 0.06264,-0.34888 0.10746,-0.45612 0.04482,-0.10745 0.12529,-0.18793 0.24166,-0.24164 0.11613,-0.0537 0.27943,-0.0854 0.48989,-0.0943 0.21022,-0.009 0.48988,-0.0131 0.83899,-0.0131 H 36.649 c 0.07156,0 0.12763,0.004 0.16798,0.0131 0.04012,0.009 0.06921,0.0338 0.08704,0.0742 0.01783,0.0401 0.02909,0.10275 0.03378,0.18768 0.0042,0.0852 0.0066,0.2034 0.0066,0.35568 0,0.26865 -0.03355,0.46994 -0.10065,0.60413 -0.0671,0.13422 -0.17667,0.25058 -0.32894,0.34912 -0.15226,0.10745 -0.32001,0.21915 -0.50325,0.33551 -0.1837,0.11612 -0.36718,0.23251 -0.55042,0.34888 -0.18347,0.11636 -0.36014,0.22827 -0.53023,0.33572 -0.1701,0.10724 -0.31767,0.20578 -0.44296,0.29517 -0.3402,0.24164 -0.61986,0.46759 -0.839,0.67804 -0.21913,0.21021 -0.39134,0.42279 -0.51662,0.63745 -0.12552,0.21469 -0.21257,0.44061 -0.26183,0.67783 -0.04903,0.23718 -0.07367,0.49878 -0.07367,0.78525 0,0.25949 0.02229,0.45657 0.06687,0.59055 0.02698,0.0359 0.06053,0.0516 0.10088,0.0471 0.04012,-0.005 0.06921,-0.0249 0.08728,-0.0605 0.01759,-0.17902 0.06029,-0.34888 0.1274,-0.50983 0.0671,-0.16119 0.14968,-0.30008 0.24846,-0.41623 0.18793,-0.23273 0.40026,-0.45187 0.63746,-0.65787 0.23696,-0.20575 0.4988,-0.41599 0.78526,-0.63089 0.28624,-0.21466 0.60837,-0.43616 0.9664,-0.66418 0.35779,-0.2283 0.75171,-0.47675 1.1813,-0.74515 0.05372,-0.0359 0.10933,-0.065 0.16775,-0.0873 0.05795,-0.0225 0.10956,-0.0157 0.15438,0.0202 0.06241,0.16986 0.15649,0.35123 0.28177,0.54361 0.12529,0.19238 0.27967,0.37375 0.46314,0.54385 0.18347,0.16986 0.39815,0.31064 0.64426,0.42276 0.24612,0.11169 0.53024,0.16776 0.85237,0.16776 0.4744,0 0.86363,-0.10535 1.16793,-0.31555 0.30406,-0.21021 0.54126,-0.4765 0.71136,-0.79865 0.16986,-0.3132 0.27967,-0.65997 0.32894,-1.04007 0.04903,-0.38052 0.07554,-0.78104 0.07367,-1.20169 -0.0033,-0.77942 0.137,-1.27539 0.137,-1.27539"
   id="path67"
   inkscape:connector-curvature="0"
   style="fill:#252626" />
	</g>
	<g
   id="g83">
		<g
   id="g81">
			<g
   id="g79">
				<g
   id="g75">
					<circle
   cx="7.9999199"
   cy="6.3905401"
   r="5.7362599"
   id="circle71"
   style="fill:#bcbcbc" />
					<path
   d="m 7.99996,11.8632 c 3.02102,-0.0035 5.46916,-2.45164 5.47262,-5.47267 0,0 0,-10e-6 0,-3e-5 -2e-5,-3.02247 -2.45023,-5.47264 -5.4727,-5.47262 -3.02247,2e-5 -5.47264,2.45023 -5.47262,5.4727 2e-5,3.02247 2.45023,5.47264 5.4727,5.47262 m -6,-5.47266 c 0,-3.31371 2.68629,-6 6,-6 3.31371,0 6,2.68629 6,6 0,3.31371 -2.68629,6 -6,6 -3.31364,-1.6e-4 -5.99984,-2.68636 -6,-6 z"
   id="path73"
   inkscape:connector-curvature="0"
   style="fill:#808080" />
				</g>
				<polygon
   points="7.34096,5.73154 4.50496,5.73154 4.50496,7.04954 7.34096,7.04954 7.34096,9.88554 8.65896,9.88554 8.65896,7.04954 11.49396,7.04954 11.49396,5.73154 8.65896,5.73154 8.65896,2.89554 7.34096,2.89554 "
   id="polygon77"
   style="fill:#6e6e6e" />
			</g>
		</g>
	</g>
	<g
   id="g97">
		<g
   id="g95">
			<g
   id="g93">
				<g
   id="g89">
					<circle
   cx="67.00985"
   cy="373.60947"
   r="5.7362599"
   id="circle85"
   style="fill:#bcbcbc" />
					<path
   d="m 67.0098,379.08212 c -3.02102,-0.003 -5.46916,-2.45166 -5.47262,-5.47269 0,0 0,0 0,-3e-5 2e-5,-3.02246 2.45023,-5.47263 5.4727,-5.4726 3.02247,0 5.47264,2.45023 5.47262,5.47269 -2e-5,3.02246 -2.45023,5.47266 -5.4727,5.47263 m 6,-5.47265 c 0,-3.31372 -2.68629,-6 -6,-6 -3.31371,0 -6,2.68628 -6,6 0,3.31369 2.68629,6 6,6 3.31365,-1.9e-4 5.99984,-2.68637 6,-6 z"
   id="path87"
   inkscape:connector-curvature="0"
   style="fill:#808080" />
				</g>
				<polygon
   points="67.66881,372.95047 70.50481,372.95047 70.50481,374.26846 67.66881,374.26846 67.66881,377.10446 66.35081,377.10446 66.35081,374.26846 63.51581,374.26846 63.51581,372.95047 66.35081,372.95047 66.35081,370.11447 67.66881,370.11447 "
   id="polygon91"
   style="fill:#6e6e6e" />
			</g>
		</g>
	</g>
</g>
<g
   id="serigraphy"
   transform="matrix(1.2800162,0,0,1.2800162,-6.0555561e-4,-0.36841885)">
	<g
   id="g170">
		<g
   id="g112">
			<g
   id="g102">
				<path
   d="m 5,24.22949 c -0.11035,0 -0.2207,-0.0293 -0.32031,-0.06934 C 4.58008,24.12011 4.49024,24.05956 4.41016,23.97949 4.25977,23.83008 4.16993,23.62011 4.16993,23.39941 c 0,-0.10938 0.01953,-0.21973 0.05957,-0.31934 0.0498,-0.10059 0.11035,-0.19043 0.18066,-0.27051 0.08008,-0.08008 0.16992,-0.13965 0.26953,-0.17969 0.31055,-0.12988 0.66992,-0.0498 0.91016,0.17969 0.15039,0.16016 0.24023,0.37012 0.24023,0.58984 0,0.2207 -0.08984,0.43066 -0.24023,0.58008 C 5.42969,24.13965 5.21973,24.22949 5,24.22949 Z"
   id="path100"
   inkscape:connector-curvature="0"
   style="fill:#e5e5e5" />
			</g>
			<g
   id="g106">
				<path
   d="m 8.10938,23.39941 c 0,-0.45996 0.38086,-0.83008 0.83008,-0.83008 v 0 c 0.45996,0 0.83008,0.37012 0.83008,0.83008 v 0 c 0,0.4502 -0.37012,0.83008 -0.83008,0.83008 v 0 c -0.44923,0 -0.83008,-0.37988 -0.83008,-0.83008 z"
   id="path104"
   inkscape:connector-curvature="0"
   style="fill:#e5e5e5" />
			</g>
			<g
   id="g110">
				<path
   d="m 12.88965,24.21973 c -0.11035,0 -0.21973,-0.01953 -0.32031,-0.05957 -0.09961,-0.04004 -0.18945,-0.10059 -0.26953,-0.18066 -0.15039,-0.14941 -0.24023,-0.35938 -0.24023,-0.58008 0,-0.21973 0.08984,-0.42969 0.24023,-0.58984 0.08008,-0.08008 0.16992,-0.13965 0.26953,-0.17969 0.2002,-0.08008 0.43066,-0.08008 0.63086,0 0.10938,0.04004 0.19922,0.09961 0.26953,0.17969 0.08008,0.08008 0.13965,0.16992 0.17969,0.27051 0.05078,0.09961 0.07031,0.20996 0.07031,0.31934 0,0.11035 -0.01953,0.20996 -0.07031,0.31055 -0.04004,0.09961 -0.09961,0.18945 -0.17969,0.26953 -0.15039,0.16014 -0.36035,0.24022 -0.58008,0.24022 z"
   id="path108"
   inkscape:connector-curvature="0"
   style="fill:#e5e5e5" />
			</g>
		</g>
		<g
   id="g126">
			<g
   id="g116">
				<path
   d="m 62.10938,24.22949 c -0.10938,0 -0.20996,-0.0293 -0.30957,-0.06934 -0.09961,-0.04004 -0.19043,-0.10059 -0.27051,-0.18066 -0.0791,-0.08008 -0.13965,-0.16992 -0.17969,-0.26953 -0.04004,-0.10059 -0.07031,-0.2002 -0.07031,-0.31055 0,-0.10938 0.03027,-0.21973 0.07031,-0.31934 0.04004,-0.10059 0.10059,-0.19043 0.17969,-0.27051 0.07031,-0.08008 0.16016,-0.13965 0.26074,-0.17969 0.20996,-0.08008 0.43945,-0.08008 0.63965,0 0.09961,0.04004 0.19043,0.09961 0.27051,0.17969 0.06934,0.08008 0.12988,0.16992 0.17969,0.27051 0.04004,0.09961 0.05957,0.20996 0.05957,0.31934 0,0.11035 -0.01953,0.20996 -0.05957,0.31055 -0.04004,0.09961 -0.11035,0.18945 -0.17969,0.26953 -0.08008,0.08008 -0.1709,0.14063 -0.27051,0.18066 -0.09961,0.04003 -0.20996,0.06934 -0.32031,0.06934 z"
   id="path114"
   inkscape:connector-curvature="0"
   style="fill:#e5e5e5" />
			</g>
			<g
   id="g120">
				<path
   d="m 65.22949,23.39941 c 0,-0.45996 0.37012,-0.83008 0.83008,-0.83008 v 0 c 0.4502,0 0.82031,0.37012 0.82031,0.83008 v 0 c 0,0.4502 -0.37012,0.82031 -0.82031,0.82031 v 0 c -0.45996,10e-6 -0.83008,-0.37011 -0.83008,-0.82031 z"
   id="path118"
   inkscape:connector-curvature="0"
   style="fill:#e5e5e5" />
			</g>
			<g
   id="g124">
				<path
   d="m 70,24.22949 c -0.2207,0 -0.43066,-0.08984 -0.58984,-0.25 -0.15039,-0.14941 -0.24023,-0.35938 -0.24023,-0.58008 0,-0.22949 0.08984,-0.43945 0.24023,-0.58984 0.08008,-0.08008 0.16992,-0.13965 0.26953,-0.17969 0.20996,-0.08008 0.42969,-0.08008 0.63965,0 0.10059,0.04004 0.19043,0.09961 0.26074,0.17969 0.16016,0.15039 0.25,0.37012 0.25,0.58984 0,0.11035 -0.02051,0.20996 -0.06055,0.31055 -0.0498,0.09961 -0.10938,0.18945 -0.18945,0.26953 -0.07031,0.08008 -0.16016,0.14063 -0.26074,0.18066 C 70.21973,24.2002 70.10938,24.22949 70,24.22949 Z"
   id="path122"
   inkscape:connector-curvature="0"
   style="fill:#e5e5e5" />
			</g>
		</g>
		<g
   id="g168">
			<g
   id="g130">
				<path
   d="m 17.91211,21.50293 h 0.54492 v 0.81641 h 0.02734 c 0.31055,-0.58203 0.81641,-0.95801 1.58594,-0.95801 0.63867,0 1.21094,0.31055 1.38867,0.94824 0.29102,-0.6377 0.90039,-0.94824 1.53906,-0.94824 1.06055,0 1.60547,0.55371 1.60547,1.69922 v 3.28418 h -0.5918 v -3.25586 c 0,-0.79785 -0.30078,-1.22949 -1.14453,-1.22949 -1.02344,0 -1.31445,0.84473 -1.31445,1.74512 v 2.74023 h -0.58984 v -3.28418 c 0.0078,-0.65723 -0.26367,-1.20117 -1.01367,-1.20117 -1.02344,0 -1.43555,0.76953 -1.44531,1.78223 v 2.70313 h -0.5918 z"
   id="path128"
   inkscape:connector-curvature="0"
   style="fill:#e5e5e5" />
			</g>
			<g
   id="g134">
				<path
   d="M 29.6543,26.34473 H 29.11133 V 25.47168 H 29.0918 c -0.30859,0.64746 -0.94727,1.01367 -1.66992,1.01367 -1.2207,0 -1.69922,-0.71289 -1.69922,-1.83887 v -3.14355 h 0.5918 v 3.15234 c 0.02734,0.87305 0.35547,1.33301 1.29492,1.33301 1.01367,0 1.45508,-0.95703 1.45508,-1.94238 v -2.54297 h 0.58984 z"
   id="path132"
   inkscape:connector-curvature="0"
   style="fill:#e5e5e5" />
			</g>
			<g
   id="g138">
				<path
   d="m 30.7832,19.64453 h 0.5918 v 6.7002 h -0.5918 z"
   id="path136"
   inkscape:connector-curvature="0"
   style="fill:#e5e5e5" />
			</g>
			<g
   id="g142">
				<path
   d="m 33.44922,21.50293 h 0.98633 V 22 h -0.98633 v 3.26563 c 0,0.38477 0.05664,0.61035 0.48047,0.6377 0.16797,0 0.33789,-0.0088 0.50586,-0.02734 v 0.50586 c -0.17773,0 -0.34766,0.01953 -0.52539,0.01953 -0.78906,0 -1.06055,-0.2627 -1.05078,-1.08887 V 22 h -0.8457 v -0.49707 h 0.8457 v -1.45508 h 0.58984 c -10e-6,0 -10e-6,1.45508 0,1.45508 z"
   id="path140"
   inkscape:connector-curvature="0"
   style="fill:#e5e5e5" />
			</g>
			<g
   id="g146">
				<path
   d="m 35.30078,19.64453 h 0.5918 v 0.94727 h -0.5918 z m 0,1.8584 h 0.5918 v 4.8418 h -0.5918 z"
   id="path144"
   inkscape:connector-curvature="0"
   style="fill:#e5e5e5" />
			</g>
			<g
   id="g150">
				<path
   d="m 37.0293,21.50293 h 0.54297 v 0.81641 h 0.0293 c 0.30859,-0.58203 0.81641,-0.95801 1.58594,-0.95801 0.63672,0 1.20898,0.31055 1.38867,0.94824 0.29102,-0.6377 0.90039,-0.94824 1.53906,-0.94824 1.06055,0 1.60352,0.55371 1.60352,1.69922 v 3.28418 h -0.58984 v -3.25586 c 0,-0.79785 -0.30078,-1.22949 -1.14648,-1.22949 -1.02148,0 -1.3125,0.84473 -1.3125,1.74512 v 2.74023 h -0.5918 v -3.28418 c 0.0098,-0.65723 -0.26172,-1.20117 -1.01367,-1.20117 -1.02344,0 -1.43555,0.76953 -1.44531,1.78223 v 2.70313 H 37.0293 Z"
   id="path148"
   inkscape:connector-curvature="0"
   style="fill:#e5e5e5" />
			</g>
			<g
   id="g154">
				<path
   d="m 44.85742,19.64453 h 0.5918 v 0.94727 h -0.5918 z m 0,1.8584 h 0.5918 v 4.8418 h -0.5918 z"
   id="path152"
   inkscape:connector-curvature="0"
   style="fill:#e5e5e5" />
			</g>
			<g
   id="g158">
				<path
   d="m 47.9082,23.83008 -1.73438,-2.32715 h 0.74023 l 1.37891,1.83887 1.35156,-1.83887 h 0.74219 l -1.74609,2.31738 1.88672,2.52441 h -0.75 l -1.52148,-2.03613 -1.49219,2.03613 H 46.0332 Z"
   id="path156"
   inkscape:connector-curvature="0"
   style="fill:#e5e5e5" />
			</g>
			<g
   id="g162">
				<path
   d="m 51.44922,24.08301 c 0.0098,0.86328 0.45898,1.90527 1.5957,1.90527 0.86328,0 1.33203,-0.50684 1.51953,-1.23926 h 0.5918 c -0.25391,1.09863 -0.89258,1.73633 -2.11133,1.73633 -1.53906,0 -2.1875,-1.18262 -2.1875,-2.56152 0,-1.27637 0.64844,-2.5625 2.1875,-2.5625 1.55664,0 2.17578,1.36133 2.12891,2.72168 z m 3.13476,-0.49707 c -0.0293,-0.8916 -0.58203,-1.72656 -1.53906,-1.72656 -0.9668,0 -1.50195,0.84473 -1.5957,1.72656 z"
   id="path160"
   inkscape:connector-curvature="0"
   style="fill:#e5e5e5" />
			</g>
			<g
   id="g166">
				<path
   d="m 55.97461,21.50293 h 0.54492 v 1.13477 h 0.01758 c 0.30078,-0.77832 0.95703,-1.23828 1.83008,-1.20117 v 0.5918 c -1.07031,-0.05664 -1.80078,0.73145 -1.80078,1.73535 v 2.58105 h -0.5918 c 0,0 0,-4.8418 0,-4.8418 z"
   id="path164"
   inkscape:connector-curvature="0"
   style="fill:#e5e5e5" />
			</g>
		</g>
	</g>
	<g
   id="g188">
		<g
   id="g174">
			<path
   d="m 49.31738,44.08887 c -0.2793,0 -0.55176,-0.14063 -0.70801,-0.39648 -0.23828,-0.39063 -0.11523,-0.90039 0.27539,-1.13867 l 0.85352,-0.52148 c 0.3916,-0.23633 0.90039,-0.11523 1.13867,0.27539 0.23828,0.39062 0.11523,0.90039 -0.27539,1.13867 l -0.85352,0.52148 c -0.13476,0.08202 -0.2832,0.12109 -0.43066,0.12109 z"
   id="path172"
   inkscape:connector-curvature="0"
   style="fill:#00bc8b" />
		</g>
		<g
   id="g178">
			<path
   d="m 50.6748,46.8623 c -0.34766,0 -0.6709,-0.2207 -0.78613,-0.56836 -0.14453,-0.43457 0.0918,-0.90332 0.52539,-1.04688 l 0.94922,-0.31445 c 0.43848,-0.14648 0.90332,0.0918 1.04688,0.52539 0.14453,0.43457 -0.0918,0.90332 -0.52539,1.04688 l -0.94922,0.31445 c -0.08692,0.0293 -0.17481,0.04297 -0.26075,0.04297 z"
   id="path176"
   inkscape:connector-curvature="0"
   style="fill:#00bc8b" />
		</g>
		<g
   id="g182">
			<path
   d="m 51.36914,49.94336 c -0.42676,0 -0.78906,-0.32813 -0.8252,-0.76074 -0.03613,-0.45605 0.30273,-0.85645 0.75879,-0.89355 l 0.99707,-0.08008 c 0.47363,-0.04492 0.85645,0.30273 0.89258,0.75781 0.03711,0.45605 -0.30176,0.85645 -0.75781,0.89258 l -0.99707,0.08203 c -0.02344,9.7e-4 -0.0459,0.002 -0.06836,0.002 z"
   id="path180"
   inkscape:connector-curvature="0"
   style="fill:#00bc8b" />
		</g>
		<g
   id="g186">
			<path
   d="m 52.30762,53.29199 c -0.04297,0 -0.08691,-0.0029 -0.13086,-0.0098 l -0.9873,-0.15625 c -0.45117,-0.07129 -0.75977,-0.49609 -0.68848,-0.94824 0.07227,-0.4502 0.5,-0.75781 0.94824,-0.68848 l 0.9873,0.15625 c 0.45117,0.07129 0.75977,0.49609 0.68848,0.94824 -0.06445,0.40724 -0.41699,0.69825 -0.81738,0.69825 z"
   id="path184"
   inkscape:connector-curvature="0"
   style="fill:#00bc8b" />
		</g>
	</g>
	<g
   id="g206">
		<g
   id="g192">
			<path
   d="m 25.16992,43.83008 c -0.11035,0 -0.21973,-0.02051 -0.32031,-0.06055 C 24.75,43.71973 24.66016,43.66015 24.58008,43.58984 24.42969,43.42969 24.33984,43.21973 24.33984,43 c 0,-0.21973 0.08984,-0.43066 0.24023,-0.58984 0.22949,-0.23047 0.59961,-0.30078 0.91016,-0.18066 0.09961,0.05078 0.18945,0.11035 0.25977,0.18066 C 25.91016,42.56934 26,42.78027 26,43 c 0,0.10938 -0.02051,0.21973 -0.06055,0.31934 -0.0498,0.10059 -0.10938,0.19043 -0.18945,0.27051 -0.07031,0.07031 -0.16016,0.12988 -0.25977,0.17969 -0.10058,0.04003 -0.21093,0.06054 -0.32031,0.06054 z"
   id="path190"
   inkscape:connector-curvature="0"
   style="fill:#ff4257" />
		</g>
		<g
   id="g196">
			<path
   d="m 24.2373,46.8623 c -0.08594,0 -0.17383,-0.01367 -0.26074,-0.04297 l -0.94922,-0.31445 c -0.43359,-0.14355 -0.66992,-0.6123 -0.52539,-1.04688 0.14355,-0.43359 0.6084,-0.67285 1.04688,-0.52539 l 0.94922,0.31445 c 0.43359,0.14355 0.66992,0.6123 0.52539,1.04688 -0.11524,0.34766 -0.43848,0.56836 -0.78614,0.56836 z"
   id="path194"
   inkscape:connector-curvature="0"
   style="fill:#ff4257" />
		</g>
		<g
   id="g200">
			<path
   d="m 24.04102,49.98438 c -0.02246,0 -0.04492,-9.8e-4 -0.06836,-0.0029 L 21.9795,49.81934 c -0.45605,-0.03613 -0.79492,-0.43652 -0.75781,-0.89258 0.03711,-0.45508 0.41602,-0.80469 0.89258,-0.75781 l 1.99316,0.16211 c 0.45605,0.03613 0.79492,0.43652 0.75781,0.89258 -0.03516,0.43261 -0.39747,0.76074 -0.82422,0.76074 z"
   id="path198"
   inkscape:connector-curvature="0"
   style="fill:#ff4257" />
		</g>
		<g
   id="g204">
			<path
   d="m 21.61621,53.44824 c -0.40039,0 -0.75293,-0.29102 -0.81738,-0.69824 -0.07129,-0.45215 0.2373,-0.87695 0.68848,-0.94824 l 2.96289,-0.46875 c 0.45313,-0.06836 0.87695,0.23828 0.94824,0.68848 0.07129,0.45215 -0.2373,0.87695 -0.68848,0.94824 l -2.96289,0.46875 c -0.04394,0.0068 -0.08789,0.0098 -0.13086,0.0098 z"
   id="path202"
   inkscape:connector-curvature="0"
   style="fill:#ff4257" />
		</g>
	</g>
</g>
<g
   id="LEDS"
   transform="matrix(1.2800162,0,0,1.2800162,-6.0555561e-4,-0.36841885)">
	<g
   id="g211">
		<path
   d="m 33.24414,40.73633 c -0.28418,0 -0.56152,-0.14551 -0.71582,-0.40918 L 31.4707,38.52539 c -0.43262,-0.73828 -1.23438,-1.19727 -2.08984,-1.19727 h -4.4873 c -0.45703,0 -0.82813,-0.37109 -0.82813,-0.82813 0,-0.45704 0.37109,-0.82813 0.82813,-0.82813 h 4.4873 c 1.44141,0 2.78906,0.77246 3.51953,2.01563 l 1.05762,1.80176 c 0.23145,0.39453 0.09863,0.90137 -0.2959,1.13379 -0.13086,0.07716 -0.27539,0.11329 -0.41797,0.11329 z"
   id="path209"
   inkscape:connector-curvature="0"
   style="fill:#1f86cc" />
	</g>
	<g
   id="g215">
		<path
   d="m 41.89258,40.73633 c -0.14258,0 -0.28711,-0.03613 -0.41797,-0.11328 -0.39453,-0.23242 -0.52734,-0.73926 -0.2959,-1.13379 l 1.05762,-1.80176 c 0.72949,-1.24316 2.0791,-2.01563 3.52051,-2.01563 h 4.51855 c 0.45703,0 0.82813,0.37109 0.82813,0.82813 0,0.45704 -0.37109,0.82813 -0.82813,0.82813 h -4.51855 c -0.85645,0 -1.6582,0.45898 -2.09082,1.19727 l -1.05762,1.80176 c -0.1543,0.26366 -0.43164,0.40917 -0.71582,0.40917 z"
   id="path213"
   inkscape:connector-curvature="0"
   style="fill:#1f86cc" />
	</g>
</g>
</svg>