<?xml version="1.0" encoding="UTF-8" standalone="no"?>
<!-- Generator: Adobe Illustrator 24.0.2, SVG Export Plug-In . SVG Version: 6.00 Build 0)  -->

<svg
   xmlns:dc="http://purl.org/dc/elements/1.1/"
   xmlns:cc="http://creativecommons.org/ns#"
   xmlns:rdf="http://www.w3.org/1999/02/22-rdf-syntax-ns#"
   xmlns:svg="http://www.w3.org/2000/svg"
   xmlns="http://www.w3.org/2000/svg"
   xmlns:sodipodi="http://sodipodi.sourceforge.net/DTD/sodipodi-0.dtd"
   xmlns:inkscape="http://www.inkscape.org/namespaces/inkscape"
   version="1.0"
   id="Layer_1"
   x="0px"
   y="0px"
   width="55.880001mm"
   height="128.5mm"
   viewBox="0 0 211.2 485.6693"
   xml:space="preserve"
   sodipodi:docname="BlankInfo-WL.svg"
   inkscape:version="0.92.3 (2405546, 2018-03-11)"><metadata
   id="metadata187"><rdf:RDF><cc:Work
       rdf:about=""><dc:format>image/svg+xml</dc:format><dc:type
         rdf:resource="http://purl.org/dc/dcmitype/StillImage" /><dc:title></dc:title></cc:Work></rdf:RDF></metadata><defs
   id="defs185" />
<sodipodi:namedview
   bordercolor="#666666"
   borderopacity="1"
   fit-margin-bottom="0"
   fit-margin-left="0"
   fit-margin-right="0"
   fit-margin-top="0"
   gridtolerance="10"
   guidetolerance="10"
   id="namedview337"
   inkscape:current-layer="Layer_1"
   inkscape:cx="-151.78013"
   inkscape:cy="254.6797"
   inkscape:document-units="mm"
   inkscape:pageopacity="0"
   inkscape:pageshadow="2"
   inkscape:window-height="1017"
   inkscape:window-maximized="1"
   inkscape:window-width="1920"
   inkscape:window-x="-8"
   inkscape:window-y="-8"
   inkscape:zoom="0.62105263"
   objecttolerance="10"
   pagecolor="#ffffff"
   showgrid="false"
   units="mm">
	</sodipodi:namedview>
<g
   id="bg"
   transform="matrix(1.7066674,0,0,1.7066674,1.9277774e-4,-0.48666706)">
	<g
   id="g4">
		<rect
   id="rect2"
   x="-0.00011"
   y="0.071070001"
   style="fill:#e5e5e5"
   width="123.74995"
   height="284.99991" />
	</g>
	<g
   id="g16">
		<g
   id="g14">
			<g
   id="g10">
				<circle
   id="circle6"
   style="fill:#bcbcbc"
   cx="17.249941"
   cy="5.3210702"
   r="4.3021898" />
				<path
   id="path8"
   inkscape:connector-curvature="0"
   style="fill:#808080"
   d="m 17.24992,1.21657 c 2.26685,-2e-5 4.10451,1.83761 4.10452,4.10446 10e-6,2.26685 -1.83761,4.10451 -4.10446,4.10452 -2.26685,2e-5 -4.10451,-1.83761 -4.10452,-4.10446 0,-10e-6 0,-2e-5 0,-2e-5 0.0026,-2.26577 1.83869,-4.10189 4.10446,-4.1045 m 0,-0.3955 c -2.48528,0 -4.5,2.01472 -4.5,4.5 0,2.48528 2.01472,4.5 4.5,4.5 2.48528,0 4.5,-2.01472 4.5,-4.5 -1.3e-4,-2.48523 -2.01477,-4.49988 -4.5,-4.5 z" />
			</g>
			<polygon
   id="polygon12"
   style="fill:#6e6e6e"
   points="19.87116,5.81532 19.87116,4.82682 17.74417,4.82682 17.74417,2.69982 16.75566,2.69982 16.75566,4.82682 14.62942,4.82682 14.62942,5.81532 16.75566,5.81532 16.75566,7.94232 17.74417,7.94232 17.74417,5.81532 " />
		</g>
	</g>
	<g
   id="g30">
		<g
   id="g28">
			<g
   id="g26">
				<g
   id="g22">
					<circle
   id="circle18"
   style="fill:#bcbcbc"
   cx="106.49991"
   cy="5.3210702"
   r="4.3021998" />
					<path
   id="path20"
   inkscape:connector-curvature="0"
   style="fill:#808080"
   d="m 106.49989,1.21657 c 2.26685,-2e-5 4.1045,1.83761 4.10452,4.10446 2e-5,2.26685 -1.83762,4.10451 -4.10447,4.10452 -2.26685,2e-5 -4.1045,-1.83761 -4.10452,-4.10446 0,-10e-6 0,-2e-5 0,-3e-5 0.002,-2.26576 1.8387,-4.10188 4.10447,-4.10449 m 0,-0.3955 c -2.48529,0 -4.5,2.01472 -4.5,4.5 0,2.48528 2.01471,4.5 4.5,4.5 2.48528,0 4.5,-2.01472 4.5,-4.5 -1.3e-4,-2.48523 -2.01477,-4.49988 -4.5,-4.5 z" />
				</g>
				<polygon
   id="polygon24"
   style="fill:#6e6e6e"
   points="109.12113,5.81532 109.12113,4.82682 106.99413,4.82682 106.99413,2.69982 106.00562,2.69982 106.00562,4.82682 103.87938,4.82682 103.87938,5.81532 106.00562,5.81532 106.00562,7.94232 106.99413,7.94232 106.99413,5.81532 " />
			</g>
		</g>
	</g>
	<g
   id="g44">
		<g
   id="g42">
			<g
   id="g40">
				<g
   id="g36">
					<circle
   id="circle32"
   style="fill:#bcbcbc"
   cx="17.249941"
   cy="279.82095"
   r="4.3021998" />
					<path
   id="path34"
   inkscape:connector-curvature="0"
   style="fill:#808080"
   d="m 17.24992,275.71646 c 2.26685,0 4.10451,1.83762 4.10452,4.10449 10e-6,2.26685 -1.83761,4.10449 -4.10446,4.10449 -2.26685,3e-5 -4.10451,-1.83759 -4.10452,-4.10446 v -3e-5 c 0.0026,-2.26574 1.83869,-4.10186 4.10446,-4.10449 m 0,-0.39551 c -2.48528,0 -4.5,2.01471 -4.5,4.5 0,2.48529 2.01472,4.5 4.5,4.5 2.48528,0 4.5,-2.01471 4.5,-4.5 -1.3e-4,-2.4852 -2.01477,-4.49987 -4.5,-4.5 z" />
				</g>
				<polygon
   id="polygon38"
   style="fill:#6e6e6e"
   points="19.87116,280.31522 19.87116,279.32672 17.74417,279.32672 17.74417,277.19971 16.75566,277.19971 16.75566,279.32672 14.62942,279.32672 14.62942,280.31522 16.75566,280.31522 16.75566,282.4422 17.74417,282.4422 17.74417,280.31522 " />
			</g>
		</g>
	</g>
	<g
   id="g58">
		<g
   id="g56">
			<g
   id="g54">
				<g
   id="g50">
					<circle
   id="circle46"
   style="fill:#bcbcbc"
   cx="106.49991"
   cy="279.82095"
   r="4.3021998" />
					<path
   id="path48"
   inkscape:connector-curvature="0"
   style="fill:#808080"
   d="m 106.49989,275.71646 c 2.26685,0 4.1045,1.83762 4.10452,4.10449 2e-5,2.26685 -1.83762,4.10449 -4.10447,4.10449 -2.26685,3e-5 -4.1045,-1.83759 -4.10452,-4.10446 v -3e-5 c 0.002,-2.26574 1.8387,-4.10186 4.10447,-4.10449 m 0,-0.39551 c -2.48529,0 -4.5,2.01471 -4.5,4.5 0,2.48529 2.01471,4.5 4.5,4.5 2.48528,0 4.5,-2.01471 4.5,-4.5 -1.3e-4,-2.4852 -2.01477,-4.49987 -4.5,-4.5 z" />
				</g>
				<polygon
   id="polygon52"
   style="fill:#6e6e6e"
   points="109.12113,280.31522 109.12113,279.32672 106.99413,279.32672 106.99413,277.19971 106.00562,277.19971 106.00562,279.32672 103.87938,279.32672 103.87938,280.31522 106.00562,280.31522 106.00562,282.4422 106.99413,282.4422 106.99413,280.31522 " />
			</g>
		</g>
	</g>
</g>
<g
   id="serigraphy"
   transform="matrix(1.7066674,0,0,1.7066674,1.9277774e-4,-0.48666706)">
	<g
   id="g71">
		<g
   id="g63">
			<path
   id="path61"
   inkscape:connector-curvature="0"
   style="fill:#252626"
   d="M 74.66151,116.39026 H 52.59726 c -3.70995,0 -6.71746,-3.00751 -6.71746,-6.71745 V 45.84483 c 0,-3.70994 3.00751,-6.71745 6.71746,-6.71745 h 22.06425 c 3.70995,0 6.71745,3.0075 6.71745,6.71745 v 63.82797 c 0,3.70995 -3.00749,6.71746 -6.71745,6.71746 z" />
		</g>
		<g
   id="g69">
			<g
   id="g67">
				<path
   id="path65"
   inkscape:connector-curvature="0"
   style="fill:#e6e5e5"
   d="m 72.16371,91.12325 c -0.23859,0.55019 -0.55508,1.00434 -0.94947,1.36199 -0.39487,0.35764 -0.84366,0.62318 -1.34828,0.79809 -0.5051,0.17441 -1.03226,0.26113 -1.58245,0.26113 -0.93576,0 -1.66477,-0.13718 -2.18752,-0.41252 -0.52275,-0.27534 -0.93134,-0.59624 -1.22433,-0.9632 -0.31257,-0.4037 -0.50951,-0.85297 -0.59181,-1.34827 -0.0828,-0.49532 -0.12396,-0.99064 -0.12396,-1.48595 0,-0.69765 0.01421,-1.17877 0.04115,-1.44479 0.02793,-0.26653 0.05929,-0.41742 0.09651,-0.45416 0.07301,-0.05535 0.37577,-0.08231 0.90783,-0.08231 h 6.43959 c 0.18324,0 0.33462,0.01373 0.45417,0.04118 0.11856,0.02744 0.21066,0.10043 0.27484,0.21997 0.06418,0.11905 0.10534,0.29787 0.12395,0.53646 0.01812,0.23859 0.02793,0.56881 0.02793,0.99063 0,0.77066 -0.12004,1.43157 -0.35815,1.98175 M 61.04729,64.3493 c 0.0245,-0.17294 0.09898,-0.30963 0.22342,-0.40909 0.12394,-0.09896 0.32187,-0.16119 0.59526,-0.18617 0.27288,-0.0245 0.65747,-0.03723 1.15377,-0.03723 1.93522,0 3.41773,0.53942 4.44755,1.61872 1.02934,1.07931 1.54475,2.52509 1.54475,4.33633 0,0.17147 -0.03576,0.54137 -0.0583,0.79515 -0.14257,-0.002 -0.28514,-0.0039 -0.4277,-0.0068 -0.39047,-0.0083 -0.81474,-0.02989 -1.27282,-0.0637 -0.10191,0.05096 -0.15679,0.14845 -0.1656,0.29249 -0.0083,0.14452 0.0294,0.25916 0.11514,0.34393 l 0.4576,0.05095 c 0.30572,0.0338 0.55999,0.08916 0.76379,0.1651 0.20382,0.07644 0.30572,0.15726 0.30572,0.24203 0,0.08475 -0.05095,0.24203 -0.15285,0.47083 -0.10191,0.22928 -0.23763,0.5051 -0.40713,0.827 -0.17001,0.32286 -0.35275,0.66679 -0.54725,1.03129 -0.19549,0.365 -0.37823,0.70892 -0.54774,1.03081 -0.39046,0.74715 -0.78877,1.48056 -1.19638,2.20172 -0.40714,0.72166 -0.80594,1.42177 -1.19592,2.10032 -0.49287,-0.88236 -0.97643,-1.80733 -1.45116,-2.77445 -0.47523,-0.96761 -0.95046,-1.9259 -1.42569,-2.87685 -0.0343,-0.0676 -0.09308,-0.1945 -0.17785,-0.38165 -0.08524,-0.18617 -0.1744,-0.38557 -0.26749,-0.5982 -0.09358,-0.21214 -0.1744,-0.41105 -0.24202,-0.5982 -0.0681,-0.18667 -0.10142,-0.31405 -0.10142,-0.38165 0,-0.10191 0.06712,-0.18225 0.20331,-0.24203 0.13571,-0.05928 0.42429,-0.13129 0.86571,-0.21606 l 0.3307,-0.05095 c 0.08475,-0.08475 0.12298,-0.2038 0.11465,-0.35667 -0.0088,-0.15237 -0.07252,-0.24594 -0.19059,-0.27975 -0.36156,0.02841 -0.80495,0.04899 -1.33064,0.06124 v -5.40097 c -10e-6,-0.29789 0.01224,-0.53355 0.03722,-0.70747 m 2.10763,19.05467 c 0,0.67903 -0.0088,1.22188 -0.02548,1.629 -0.01715,0.40713 -0.07641,0.72558 -0.17832,0.95437 -0.03626,0.08231 -0.07937,0.15482 -0.12885,0.21803 -9.7e-4,4.8e-4 -0.0025,0.0015 -0.0035,0.0022 -0.29639,-0.05685 -0.54626,-0.12247 -0.7481,-0.19743 -0.33512,-0.12395 -0.57664,-0.34736 -0.72559,-0.66972 -0.14893,-0.32236 -0.24202,-0.77506 -0.27924,-1.35857 -0.03725,-0.58253 -0.05586,-1.35856 -0.05586,-2.32568 v -5.29954 l 1.33064,2.59269 c 0.18617,0.35667 0.33461,0.65797 0.44534,0.90392 0.11023,0.24644 0.19058,0.47523 0.24154,0.68737 0.05094,0.21262 0.08474,0.43701 0.10189,0.67463 0.01666,0.23762 0.02548,0.53451 0.02548,0.89069 0,0 0,1.2983 -1e-5,1.2983 z m 10.5055,3.14776 c 0.11021,-0.30572 0.21996,-0.632 0.3307,-0.97985 0.11024,-0.34785 0.21213,-0.68736 0.30572,-1.01855 0.09308,-0.3307 0.1651,-0.60653 0.21655,-0.82748 -0.05145,-0.11807 -0.14895,-0.1945 -0.29298,-0.2288 -0.14452,-0.03382 -0.25867,-0.01717 -0.34392,0.05093 -0.33952,0.6614 -0.66582,1.20473 -0.97986,1.629 -0.31403,0.42477 -0.58986,0.70451 -0.82699,0.84023 -0.13621,0.0681 -0.29298,0.12689 -0.47131,0.17785 -0.17785,0.05093 -0.39047,0.08916 -0.63642,0.11463 -0.24593,0.0255 -0.54284,0.04703 -0.89068,0.06367 -0.34785,0.01718 -0.7682,0.0255 -1.26008,0.0255 -0.55999,0 -1.02248,-0.01665 -1.38747,-0.05093 -0.365,-0.03382 -0.65749,-0.07643 -0.87794,-0.12689 -0.22096,-0.05145 -0.39487,-0.11072 -0.52176,-0.17833 -0.1274,-0.06758 -0.22538,-0.14404 -0.29299,-0.22929 -0.2038,-0.22046 -0.33511,-0.54724 -0.39439,-0.97985 -0.05975,-0.4331 -0.08916,-0.98867 -0.08916,-1.66771 V 81.4859 c 0.0039,-0.23271 0.01078,-0.43848 0.02058,-0.61485 0.01665,-0.31355 0.0632,-0.60653 0.13963,-0.87794 0.07642,-0.27142 0.19498,-0.56048 0.35667,-0.8657 0.03822,-0.07298 0.08132,-0.15188 0.12689,-0.23467 0.06124,-0.0023 0.12492,-0.003 0.19597,-0.003 h 1.47664 c 0.49189,0 0.8951,0.0083 1.20913,0.0255 0.31355,0.01665 0.5639,0.05048 0.75105,0.10142 0.25428,0.0681 0.43653,0.18716 0.54725,0.35667 0.11024,0.16952 0.19058,0.37331 0.24203,0.61094 l 0.22879,0.99259 c 0.06761,0.08525 0.18225,0.12297 0.34344,0.11464 0.16118,-0.0083 0.2675,-0.0549 0.31845,-0.14012 0,-0.28857 -0.01715,-0.65308 -0.05095,-1.09449 -0.0343,-0.44142 -0.05096,-0.89117 -0.05096,-1.34926 0,-0.49189 0.01665,-0.96711 0.05096,-1.42519 0.0338,-0.45856 0.05095,-0.84023 0.05095,-1.14594 -0.05095,-0.08427 -0.15726,-0.13129 -0.31845,-0.14012 -0.16119,-0.0079 -0.27583,0.02993 -0.34344,0.11464 l -0.20332,1.04402 c -0.06808,0.32236 -0.14893,0.53893 -0.24202,0.64915 -0.09358,0.11024 -0.21655,0.19058 -0.36891,0.24154 -0.15286,0.05093 -0.41644,0.08916 -0.78927,0.11463 -0.37381,0.0255 -0.83191,0.03825 -1.37473,0.03825 H 66.4135 c 0.0088,-0.01418 0.01665,-0.02745 0.02548,-0.04215 l 1.60354,-2.77445 c 0.32187,-0.54332 0.61486,-1.04795 0.87843,-1.51485 0.26261,-0.46641 0.52177,-0.87843 0.77604,-1.23462 0.25477,-0.35617 0.51736,-0.64474 0.78928,-0.8652 0.05634,-0.04556 0.11416,-0.08672 0.17344,-0.12542 0.17244,0.06859 0.32432,0.14943 0.45513,0.24398 0.21215,0.15237 0.38556,0.3307 0.52177,0.53451 0.13571,0.20332 0.24593,0.43261 0.33118,0.68688 0.08427,0.25476 0.17785,0.535 0.27976,0.84023 0.06761,0.08524 0.17832,0.11904 0.33118,0.1019 0.15237,-0.01665 0.25426,-0.06761 0.30522,-0.15285 -0.0343,-0.27142 -0.0637,-0.58105 -0.08868,-0.9289 -0.02596,-0.34784 -0.05585,-0.68736 -0.08965,-1.01807 -0.0338,-0.33119 -0.07839,-0.62662 -0.11415,-0.89117 -0.08868,-0.65454 -0.0686,-1.21354 -0.0686,-1.21354 0,-1.28948 -0.36596,-2.41681 -0.92448,-3.3604 -0.55805,-0.9426 -1.27188,-1.6868 -2.14002,-2.23257 -0.86863,-0.54578 -1.88573,-0.93037 -3.05174,-1.15378 -1.16652,-0.2234 -2.53096,-0.33511 -4.09382,-0.33511 -1.56336,0 -2.93465,0.01862 -4.11244,0.05585 -1.17877,0.03723 -2.26444,0.11806 -3.25703,0.24203 -0.14845,0.07447 -0.2293,0.21752 -0.24154,0.4277 -0.01274,0.21116 0.04263,0.37871 0.16756,0.50266 l 1.33946,0.14894 c 0.42183,0.04998 0.75006,0.13032 0.9867,0.24202 0.23517,0.11121 0.4091,0.316 0.5208,0.61388 0.11171,0.29787 0.17981,0.69471 0.20479,1.19101 0.02449,0.49629 0.03723,1.14153 0.03723,1.9352 v 13.73361 c 0,0.96712 -0.01274,1.74316 -0.03723,2.32568 -0.02498,0.5835 -0.1117,1.03619 -0.26065,1.35856 -0.14893,0.32237 -0.37233,0.54578 -0.66972,0.66972 -0.29788,0.12444 -0.7202,0.2234 -1.26546,0.29787 l -0.78193,0.11171 c -0.11318,0.11316 -0.16364,0.26799 -0.15286,0.46298 -9.7e-4,0.3983 -0.0054,0.5247 -0.01371,0.97348 -0.0088,0.51393 -0.03234,1.08813 -0.07006,1.72356 0.03772,0.09358 0.14454,0.14942 0.32236,0.16854 0.17735,0.01815 0.30375,-0.01913 0.37872,-0.1122 l 0.08376,-0.58889 c 0.05635,-0.41106 0.13082,-0.72852 0.22439,-0.95242 0.09358,-0.22438 0.26162,-0.39243 0.50462,-0.50462 0.24251,-0.1122 0.58352,-0.17834 1.02298,-0.19695 0.43897,-0.01815 1.02296,-0.02745 1.75197,-0.02745 h 3.53139 c 0.14942,0 0.26653,0.0093 0.35079,0.02745 0.08377,0.0186 0.14453,0.07057 0.18177,0.15482 0.03723,0.08378 0.06075,0.21458 0.07053,0.39194 0.0088,0.17785 0.01373,0.42477 0.01373,0.74273 0,0.56097 -0.07006,0.98132 -0.21019,1.26157 -0.14011,0.28024 -0.3689,0.52323 -0.68688,0.72901 -0.31795,0.22439 -0.66825,0.4576 -1.05088,0.7006 -0.38361,0.24251 -0.76674,0.4855 -1.14937,0.72852 -0.38311,0.243 -0.75204,0.4767 -1.10723,0.70108 -0.35519,0.2239 -0.66336,0.42966 -0.92498,0.61633 -0.7104,0.50462 -1.29439,0.97643 -1.75199,1.41589 -0.45759,0.43897 -0.81719,0.88284 -1.07882,1.33112 -0.26212,0.44829 -0.44388,0.92008 -0.54676,1.41541 -0.10239,0.49531 -0.15383,1.04158 -0.15383,1.63978 0,0.54185 0.04654,0.95339 0.13963,1.23314 0.05633,0.075 0.1264,0.10778 0.21066,0.0985 0.08377,-0.01 0.14454,-0.0519 0.18225,-0.1264 0.03674,-0.37382 0.12591,-0.72852 0.26604,-1.06461 0.14011,-0.33658 0.31257,-0.62662 0.51883,-0.86913 0.39242,-0.48601 0.83581,-0.9436 1.33113,-1.37375 0.49482,-0.42966 1.04159,-0.86864 1.63978,-1.31742 0.59771,-0.44828 1.27038,-0.91077 2.01801,-1.38698 0.74714,-0.4767 1.56971,-0.99553 2.46678,-1.55601 0.11217,-0.07492 0.22829,-0.1357 0.35029,-0.18224 0.121,-0.04703 0.22879,-0.03285 0.32236,0.04214 0.13031,0.35472 0.32678,0.73343 0.58839,1.13516 0.26163,0.40174 0.58401,0.78046 0.96712,1.13565 0.38313,0.35471 0.83141,0.64866 1.34534,0.88284 0.51394,0.23321 1.10724,0.3503 1.7799,0.3503 0.99063,0 1.80342,-0.21999 2.43887,-0.65896 0.63493,-0.43897 1.13026,-0.99504 1.48544,-1.66771 0.35471,-0.65405 0.58401,-1.37816 0.68688,-2.17184 0.10239,-0.79465 0.15775,-1.63096 0.15384,-2.5094 -0.0069,-1.62752 0.2861,-2.66323 0.2861,-2.66323" />
			</g>
		</g>
	</g>
	<g
   id="g85">
		<g
   id="g75">
			<path
   id="path73"
   inkscape:connector-curvature="0"
   style="fill:#252626"
   d="m 3.75236,17.94872 c -0.16516,0 -0.32263,-0.06738 -0.44275,-0.1875 C 3.24992,17.70922 3.20487,17.63378 3.17484,17.56639 3.14481,17.48435 3.1298,17.40892 3.1298,17.32688 c 0,-0.08276 0.01501,-0.16552 0.04504,-0.24023 0.03003,-0.07544 0.07507,-0.14282 0.13477,-0.20288 0.23254,-0.23218 0.64526,-0.23218 0.87781,0 0.05969,0.06006 0.10474,0.12744 0.13477,0.20288 0.03003,0.07471 0.04504,0.15747 0.04504,0.24023 0,0.08204 -0.01502,0.15747 -0.04504,0.23951 -0.03003,0.06738 -0.07508,0.14282 -0.13477,0.19483 -0.06006,0.06006 -0.12781,0.10547 -0.20251,0.1355 -0.07508,0.03002 -0.15016,0.05199 -0.23255,0.052 z" />
		</g>
		<g
   id="g79">
			<path
   id="path77"
   inkscape:connector-curvature="0"
   style="fill:#252626"
   d="m 117.5648,17.32689 c 0,-0.34571 0.27759,-0.62256 0.61487,-0.62256 v 0 c 0.34497,0 0.62256,0.27686 0.62256,0.62256 v 0 c 0,0.34497 -0.27759,0.62182 -0.62256,0.62182 v 0 c -0.33728,0 -0.61487,-0.27685 -0.61487,-0.62182 z m -3.69763,0 c 0,-0.34571 0.27759,-0.62256 0.62256,-0.62256 v 0 c 0.34497,0 0.62256,0.27686 0.62256,0.62256 v 0 c 0,0.34497 -0.27759,0.62182 -0.62256,0.62182 v 0 c -0.34497,0 -0.62256,-0.27685 -0.62256,-0.62182 z m -3.68993,0 c 0,-0.34571 0.27759,-0.62256 0.62256,-0.62256 v 0 c 0.34497,0 0.62256,0.27686 0.62256,0.62256 v 0 c 0,0.34497 -0.27759,0.62182 -0.62256,0.62182 v 0 c -0.34497,0 -0.62256,-0.27685 -0.62256,-0.62182 z m -3.68994,0 c 0,-0.34571 0.27759,-0.62256 0.62256,-0.62256 v 0 c 0.34497,0 0.62256,0.27686 0.62256,0.62256 v 0 c 0,0.34497 -0.27759,0.62182 -0.62256,0.62182 v 0 c -0.34498,0 -0.62256,-0.27685 -0.62256,-0.62182 z m -3.68994,0 c 0,-0.34571 0.27722,-0.62256 0.62256,-0.62256 v 0 c 0.33728,0 0.62219,0.27686 0.62219,0.62256 v 0 c 0,0.34497 -0.28491,0.62182 -0.62219,0.62182 v 0 c -0.34534,0 -0.62256,-0.27685 -0.62256,-0.62182 z m -3.68995,0 c 0,-0.34571 0.27722,-0.62256 0.62219,-0.62256 v 0 c 0.33765,0 0.61523,0.27686 0.61523,0.62256 v 0 c 0,0.34497 -0.27759,0.62182 -0.61523,0.62182 v 0 c -0.34496,0 -0.62219,-0.27685 -0.62219,-0.62182 z m -3.69762,0 c 0,-0.34571 0.28491,-0.62256 0.62255,-0.62256 v 0 c 0.34497,0 0.62256,0.27686 0.62256,0.62256 v 0 c 0,0.34497 -0.27759,0.62182 -0.62256,0.62182 v 0 c -0.33764,0 -0.62255,-0.27685 -0.62255,-0.62182 z m -3.68994,0 c 0,-0.34571 0.27722,-0.62256 0.62256,-0.62256 v 0 c 0.34497,0 0.62219,0.27686 0.62219,0.62256 v 0 c 0,0.34497 -0.27722,0.62182 -0.62219,0.62182 v 0 c -0.34534,0 -0.62256,-0.27685 -0.62256,-0.62182 z m -3.68994,0 c 0,-0.34571 0.27722,-0.62256 0.62219,-0.62256 v 0 c 0.34496,0 0.62255,0.27686 0.62255,0.62256 v 0 c 0,0.34497 -0.27759,0.62182 -0.62255,0.62182 v 0 c -0.34497,0 -0.62219,-0.27685 -0.62219,-0.62182 z m -3.6903,0 c 0,-0.34571 0.27759,-0.62256 0.62256,-0.62256 v 0 c 0.33765,0 0.61523,0.27686 0.61523,0.62256 v 0 c 0,0.34497 -0.27759,0.62182 -0.61523,0.62182 v 0 c -0.34498,0 -0.62256,-0.27685 -0.62256,-0.62182 z m -3.68995,0 c 0,-0.34571 0.27759,-0.62256 0.62256,-0.62256 v 0 c 0.33765,0 0.61486,0.27686 0.61486,0.62256 v 0 c 0,0.34497 -0.27722,0.62182 -0.61486,0.62182 v 0 c -0.34497,0 -0.62256,-0.27685 -0.62256,-0.62182 z m -3.68994,0 c 0,-0.34571 0.27759,-0.62256 0.61487,-0.62256 v 0 c 0.34534,0 0.62256,0.27686 0.62256,0.62256 v 0 c 0,0.34497 -0.27722,0.62182 -0.62256,0.62182 v 0 c -0.33729,0 -0.61487,-0.27685 -0.61487,-0.62182 z m -3.69763,0 c 0,-0.34571 0.27759,-0.62256 0.62256,-0.62256 v 0 c 0.34497,0 0.62256,0.27686 0.62256,0.62256 v 0 c 0,0.34497 -0.27759,0.62182 -0.62256,0.62182 v 0 c -0.34497,0 -0.62256,-0.27685 -0.62256,-0.62182 z m -3.68994,0 c 0,-0.34571 0.27759,-0.62256 0.62256,-0.62256 v 0 c 0.34497,0 0.62256,0.27686 0.62256,0.62256 v 0 c 0,0.34497 -0.27759,0.62182 -0.62256,0.62182 v 0 c -0.34497,0 -0.62256,-0.27685 -0.62256,-0.62182 z m -3.68994,0 c 0,-0.34571 0.27759,-0.62256 0.62256,-0.62256 v 0 c 0.34497,0 0.62256,0.27686 0.62256,0.62256 v 0 c 0,0.34497 -0.27759,0.62182 -0.62256,0.62182 v 0 c -0.34497,0 -0.62256,-0.27685 -0.62256,-0.62182 z m -3.68994,0 c 0,-0.34571 0.27759,-0.62256 0.62256,-0.62256 v 0 c 0.33728,0 0.61486,0.27686 0.61486,0.62256 v 0 c 0,0.34497 -0.27759,0.62182 -0.61486,0.62182 v 0 c -0.34497,0 -0.62256,-0.27685 -0.62256,-0.62182 z m -3.68994,0 c 0,-0.34571 0.27759,-0.62256 0.61486,-0.62256 v 0 c 0.34497,0 0.62256,0.27686 0.62256,0.62256 v 0 c 0,0.34497 -0.27759,0.62182 -0.62256,0.62182 v 0 c -0.33727,0 -0.61486,-0.27685 -0.61486,-0.62182 z m -3.69763,0 c 0,-0.34571 0.27758,-0.62256 0.62255,-0.62256 v 0 c 0.34497,0 0.62256,0.27686 0.62256,0.62256 v 0 c 0,0.34497 -0.27759,0.62182 -0.62256,0.62182 v 0 c -0.34497,0 -0.62255,-0.27685 -0.62255,-0.62182 z m -3.68995,0 c 0,-0.34571 0.27759,-0.62256 0.62256,-0.62256 v 0 c 0.34497,0 0.62256,0.27686 0.62256,0.62256 v 0 c 0,0.34497 -0.27759,0.62182 -0.62256,0.62182 v 0 c -0.34497,0 -0.62256,-0.27685 -0.62256,-0.62182 z m -3.68994,0 c 0,-0.34571 0.27759,-0.62256 0.62256,-0.62256 v 0 c 0.34497,0 0.62256,0.27686 0.62256,0.62256 v 0 c 0,0.34497 -0.27759,0.62182 -0.62256,0.62182 v 0 c -0.34497,0 -0.62256,-0.27685 -0.62256,-0.62182 z m -3.68994,0 c 0,-0.34571 0.27722,-0.62256 0.62256,-0.62256 v 0 c 0.33728,0 0.62219,0.27686 0.62219,0.62256 v 0 c 0,0.34497 -0.28491,0.62182 -0.62219,0.62182 v 0 c -0.34533,0 -0.62256,-0.27685 -0.62256,-0.62182 z m -3.68994,0 c 0,-0.34571 0.27722,-0.62256 0.62219,-0.62256 v 0 c 0.33765,0 0.61523,0.27686 0.61523,0.62256 v 0 c 0,0.34497 -0.27759,0.62182 -0.61523,0.62182 v 0 c -0.34497,0 -0.62219,-0.27685 -0.62219,-0.62182 z m -3.69763,0 c 0,-0.34571 0.28491,-0.62256 0.62256,-0.62256 v 0 c 0.34497,0 0.62256,0.27686 0.62256,0.62256 v 0 c 0,0.34497 -0.27759,0.62182 -0.62256,0.62182 v 0 c -0.33765,0 -0.62256,-0.27685 -0.62256,-0.62182 z m -3.68994,0 c 0,-0.34571 0.27722,-0.62256 0.62256,-0.62256 v 0 c 0.34497,0 0.62219,0.27686 0.62219,0.62256 v 0 c 0,0.34497 -0.27722,0.62182 -0.62219,0.62182 v 0 c -0.34533,0 -0.62256,-0.27685 -0.62256,-0.62182 z m -3.68994,0 c 0,-0.34571 0.27722,-0.62256 0.62219,-0.62256 v 0 c 0.34497,0 0.62256,0.27686 0.62256,0.62256 v 0 c 0,0.34497 -0.27759,0.62182 -0.62256,0.62182 v 0 c -0.34497,0 -0.62219,-0.27685 -0.62219,-0.62182 z m -3.6903,0 c 0,-0.34571 0.27759,-0.62256 0.62256,-0.62256 v 0 c 0.34497,0 0.61523,0.27686 0.61523,0.62256 v 0 c 0,0.34497 -0.27026,0.62182 -0.61523,0.62182 v 0 c -0.34498,0 -0.62256,-0.27685 -0.62256,-0.62182 z m -3.68995,0 c 0,-0.34571 0.27759,-0.62256 0.62256,-0.62256 v 0 c 0.33765,0 0.61486,0.27686 0.61486,0.62256 v 0 c 0,0.34497 -0.27722,0.62182 -0.61486,0.62182 v 0 c -0.34497,0 -0.62256,-0.27685 -0.62256,-0.62182 z m -3.68994,0 c 0,-0.34571 0.27759,-0.62256 0.61487,-0.62256 v 0 c 0.34534,0 0.62256,0.27686 0.62256,0.62256 v 0 c 0,0.34497 -0.27722,0.62182 -0.62256,0.62182 v 0 c -0.33728,0 -0.61487,-0.27685 -0.61487,-0.62182 z m -3.69763,0 c 0,-0.34571 0.27759,-0.62256 0.62256,-0.62256 v 0 c 0.34497,0 0.62256,0.27686 0.62256,0.62256 v 0 c 0,0.34497 -0.27759,0.62182 -0.62256,0.62182 v 0 c -0.34497,0 -0.62256,-0.27685 -0.62256,-0.62182 z m -3.68994,0 c 0,-0.34571 0.27759,-0.62256 0.62256,-0.62256 v 0 c 0.34497,0 0.62256,0.27686 0.62256,0.62256 v 0 c 0,0.34497 -0.27759,0.62182 -0.62256,0.62182 v 0 c -0.34497,0 -0.62256,-0.27685 -0.62256,-0.62182 z m -3.68994,0 c 0,-0.34571 0.27759,-0.62256 0.62256,-0.62256 v 0 c 0.34497,0 0.62256,0.27686 0.62256,0.62256 v 0 c 0,0.34497 -0.27759,0.62182 -0.62256,0.62182 v 0 c -0.34497,0 -0.62256,-0.27685 -0.62256,-0.62182 z" />
		</g>
		<g
   id="g83">
			<path
   id="path81"
   inkscape:connector-curvature="0"
   style="fill:#252626"
   d="m 121.8773,17.94872 c -0.0824,0 -0.16516,-0.02198 -0.24023,-0.05201 -0.0747,-0.03003 -0.14246,-0.07544 -0.20251,-0.13549 -0.0597,-0.052 -0.10474,-0.12744 -0.13477,-0.19483 -0.03,-0.08204 -0.0451,-0.15747 -0.0451,-0.23951 0,-0.08276 0.015,-0.16552 0.0451,-0.24023 0.03,-0.07544 0.0751,-0.14282 0.13477,-0.20288 0.23254,-0.23218 0.65259,-0.23218 0.87781,0 0.0597,0.06006 0.10474,0.12744 0.13477,0.20288 0.03,0.07471 0.0451,0.15747 0.0451,0.24023 0,0.08204 -0.015,0.15747 -0.0451,0.23951 -0.03,0.06738 -0.0751,0.14282 -0.13477,0.19483 -0.1128,0.12011 -0.27027,0.1875 -0.43507,0.1875 z" />
		</g>
	</g>
	<g
   id="g123">
		<g
   id="g89">
			<path
   id="path87"
   inkscape:connector-curvature="0"
   style="fill:#252626"
   d="m 6.62871,142.56458 c 0,-2.68118 2.18392,-4.86511 4.86511,-4.86511 1.30765,0 2.53697,0.50995 3.45251,1.43857 l 0.43159,0.44469 -1.62163,1.41238 -0.37922,-0.36613 c -0.51014,-0.49706 -1.17716,-0.77155 -1.88325,-0.77155 -1.49093,0 -2.70715,1.21623 -2.70715,2.70715 0,1.50381 1.21622,2.72025 2.70715,2.72025 0.71918,0 1.37311,-0.2747 1.88325,-0.77174 v -1.15077 H 10.9706 v -2.15794 h 4.56422 v 4.08046 l -0.10452,0.15689 c -0.94173,1.25549 -2.41957,2.00087 -3.93647,2.00087 -2.68119,-2e-5 -4.86512,-2.18396 -4.86512,-4.87802 z" />
		</g>
		<g
   id="g93">
			<path
   id="path91"
   inkscape:connector-curvature="0"
   style="fill:#252626"
   d="m 21.54921,137.98706 h 6.34295 v 2.2234 h -4.06738 v 0.79773 h 3.55745 v 2.26247 h -3.55745 v 1.77873 h 3.97596 v 2.24939 h -6.25152 c -10e-6,0 -10e-6,-9.31172 -10e-6,-9.31172 z" />
		</g>
		<g
   id="g97">
			<path
   id="path95"
   inkscape:connector-curvature="0"
   style="fill:#252626"
   d="m 42.48621,142.59056 c 0,2.65498 -2.19723,4.82584 -4.85202,4.82584 -2.66788,0 -4.83892,-2.17085 -4.83892,-4.82584 0,-2.68098 2.17105,-4.85182 4.83892,-4.85182 2.65479,0 4.85202,2.17084 4.85202,4.85182 z m -2.28886,0 c 0,-1.42548 -1.13768,-2.61552 -2.56316,-2.61552 -1.42547,0 -2.57645,1.19005 -2.57645,2.61552 0,1.41258 1.15098,2.57645 2.57645,2.57645 1.42548,0 2.56316,-1.16387 2.56316,-2.57645 z" />
		</g>
		<g
   id="g101">
			<path
   id="path99"
   inkscape:connector-curvature="0"
   style="fill:#252626"
   d="m 47.83358,137.98706 h 3.23038 c 2.6286,0 4.76038,2.09248 4.76038,4.65585 0,2.56335 -2.13177,4.65587 -4.76038,4.65587 h -3.23038 z m 5.74138,4.65585 c 0,-1.32074 -1.1248,-2.41936 -2.511,-2.41936 h -0.98101 v 4.83893 h 0.98101 c 1.3862,0 2.511,-1.09861 2.511,-2.41957 z" />
		</g>
		<g
   id="g105">
			<path
   id="path103"
   inkscape:connector-curvature="0"
   style="fill:#252626"
   d="m 61.26336,137.98706 h 6.34295 v 2.2234 h -4.06717 v 0.79773 h 3.55703 v 2.26247 h -3.55703 v 1.77873 h 3.97554 v 2.24939 h -6.25131 c -1e-5,0 -1e-5,-9.31172 -1e-5,-9.31172 z" />
		</g>
		<g
   id="g109">
			<path
   id="path107"
   inkscape:connector-curvature="0"
   style="fill:#252626"
   d="m 75.79196,147.2726 c -0.94152,-0.19617 -1.8047,-0.62776 -2.9164,-1.58237 l 1.49093,-1.71327 c 0.82391,0.71918 1.30787,0.99388 1.88324,1.09862 0.16998,0.0391 0.33996,0.0653 0.49705,0.0653 0.2614,0 0.49684,-0.0521 0.6799,-0.1438 0.1571,-0.0786 0.43159,-0.24852 0.43159,-0.60156 0,-0.36613 -0.68011,-0.58849 -1.26859,-0.7063 -0.2614,-0.0521 -1.54308,-0.32686 -2.06631,-0.64084 -0.88935,-0.52303 -1.34692,-1.32076 -1.34692,-2.31483 0,-0.54921 0.18307,-1.07245 0.48374,-1.51691 0.3009,-0.4185 0.71939,-0.74557 1.20335,-0.96791 l -0.0131,0.0131 c 0.49684,-0.23543 1.05934,-0.35304 1.59546,-0.35304 0.22234,0 0.43158,0.0131 0.69321,0.0523 0.837,0.14378 1.60854,0.48373 2.68097,1.37309 l -1.43857,1.72636 c -0.96791,-0.79773 -1.46475,-0.91554 -1.96179,-0.91554 -0.24852,0 -0.44468,0.0523 -0.60157,0.13091 -0.24852,0.10452 -0.37922,0.2876 -0.37922,0.45757 0,0.35326 0.47086,0.52322 1.22931,0.68011 0.07855,0.0262 0.16998,0.0262 0.26162,0.0523 0.50993,0.1176 1.26859,0.2747 1.76543,0.56229 h -0.01313 c 0.94173,0.52322 1.43856,1.34714 1.43856,2.3672 0,0.60156 -0.15688,1.16386 -0.49684,1.63474 -0.30088,0.43158 -0.74556,0.74535 -1.24241,0.99387 -0.52322,0.27472 -1.05933,0.35326 -1.64781,0.35326 -0.31396,2e-5 -0.65391,-0.0392 -0.9417,-0.10471 z" />
		</g>
		<g
   id="g113">
			<path
   id="path111"
   inkscape:connector-curvature="0"
   style="fill:#252626"
   d="m 85.88683,137.98706 h 2.27578 v 9.31172 h -2.27578 z" />
		</g>
		<g
   id="g117">
			<path
   id="path115"
   inkscape:connector-curvature="0"
   style="fill:#252626"
   d="m 101.09598,143.87224 1.7916,1.32095 c -1.16386,1.55638 -2.53718,2.2363 -4.05408,2.2363 -2.6681,0 -4.85202,-2.18394 -4.85202,-4.85182 0,-2.66809 2.18392,-4.83893 4.85202,-4.83893 1.54308,0 2.94258,0.71919 4.10645,2.27557 l -1.81779,1.33383 c -0.73248,-0.98079 -1.47784,-1.37311 -2.28866,-1.37311 -1.45166,0 -2.60264,1.16386 -2.60264,2.60263 0,1.45166 1.15098,2.60243 2.60264,2.60243 0.8108,2e-5 1.52998,-0.33995 2.26246,-1.30786 h 2e-5 z" />
		</g>
		<g
   id="g121">
			<path
   id="path119"
   inkscape:connector-curvature="0"
   style="fill:#252626"
   d="m 110.58907,147.2726 c -0.94152,-0.19617 -1.8047,-0.62776 -2.9164,-1.58237 l 1.49093,-1.71327 c 0.82391,0.71918 1.30786,0.99388 1.88325,1.09862 0.16998,0.0391 0.33996,0.0653 0.49706,0.0653 0.26141,0 0.49683,-0.0521 0.6799,-0.1438 0.1571,-0.0786 0.43159,-0.24852 0.43159,-0.60156 0,-0.36613 -0.68012,-0.58849 -1.26859,-0.7063 -0.26141,-0.0521 -1.54308,-0.32686 -2.06632,-0.64084 -0.88937,-0.52303 -1.34692,-1.32076 -1.34692,-2.31483 0,-0.54921 0.18307,-1.07245 0.48374,-1.51691 0.30089,-0.4185 0.71939,-0.74557 1.20335,-0.96791 l -0.0131,0.0131 c 0.49683,-0.23543 1.05934,-0.35304 1.59545,-0.35304 0.22234,0 0.43159,0.0131 0.69321,0.0523 0.837,0.14378 1.60854,0.48373 2.68097,1.37309 l -1.43857,1.72636 c -0.9679,-0.79773 -1.46474,-0.91554 -1.96179,-0.91554 -0.24852,0 -0.44468,0.0523 -0.60157,0.13091 -0.24852,0.10452 -0.37922,0.2876 -0.37922,0.45757 0,0.35326 0.47086,0.52322 1.22931,0.68011 0.0786,0.0262 0.16998,0.0262 0.26163,0.0523 0.50993,0.1176 1.26859,0.2747 1.76542,0.56229 h -0.0131 c 0.94173,0.52322 1.43857,1.34714 1.43857,2.3672 0,0.60156 -0.15688,1.16386 -0.49684,1.63474 -0.30089,0.43158 -0.74557,0.74535 -1.24241,0.99387 -0.52322,0.27472 -1.05933,0.35326 -1.6478,0.35326 -0.31397,2e-5 -0.65393,-0.0392 -0.94173,-0.10471 z" />
		</g>
	</g>
	<g
   id="g209">
		<g
   id="g127">
			<path
   id="path125"
   inkscape:connector-curvature="0"
   style="fill:#252626"
   d="m 40.19363,217.07658 c -0.09229,1.66187 -0.85694,2.58984 -2.16211,2.58984 -1.48829,0 -2.32471,-1.1521 -2.32471,-3.76245 0,-2.61035 0.83642,-3.76245 2.32471,-3.76245 1.47876,0 2.09033,1.05029 2.09033,2.24341 h -0.65259 c 0,-0.9895 -0.49952,-1.69263 -1.43774,-1.69263 -1.04004,0 -1.67212,0.8562 -1.67212,3.21167 0,2.35547 0.63208,3.21167 1.67212,3.21167 0.91772,0 1.43774,-0.78516 1.50952,-2.03906 z" />
		</g>
		<g
   id="g131">
			<path
   id="path129"
   inkscape:connector-curvature="0"
   style="fill:#252626"
   d="m 42.66262,214.007 c 1.19312,0 1.86621,0.94849 1.86621,2.82495 0,1.88599 -0.6731,2.83447 -1.86621,2.83447 -1.19311,0 -1.86547,-0.94849 -1.86547,-2.83447 -2e-5,-1.87646 0.67236,-2.82495 1.86547,-2.82495 z m 0,5.14966 c 0.68335,0 1.21362,-0.5918 1.21362,-2.32471 0,-1.72339 -0.53027,-2.31445 -1.21362,-2.31445 -0.68262,0 -1.21289,0.59106 -1.21289,2.31445 0,1.73292 0.53027,2.32471 1.21289,2.32471 z" />
		</g>
		<g
   id="g135">
			<path
   id="path133"
   inkscape:connector-curvature="0"
   style="fill:#252626"
   d="m 48.28322,218.6469 h -0.02051 c -0.16333,0.62183 -0.68335,1.01953 -1.32568,1.01953 -1.19312,0 -1.73364,-0.95874 -1.73364,-2.83447 0,-1.86621 0.54052,-2.82495 1.73364,-2.82495 0.6731,0 1.13159,0.36768 1.26416,0.93823 h 0.02051 v -2.6814 h 0.61157 v 7.28027 h -0.55005 z m -1.24438,0.50976 c 0.62183,0 1.18286,-0.31641 1.18286,-2.32471 0,-1.99878 -0.56104,-2.31445 -1.18286,-2.31445 -0.61157,0 -1.18286,0.31567 -1.18286,2.31445 0,2.00831 0.57129,2.32471 1.18286,2.32471 z" />
		</g>
		<g
   id="g139">
			<path
   id="path137"
   inkscape:connector-curvature="0"
   style="fill:#252626"
   d="m 53.29152,217.74968 c -0.09155,1.1521 -0.72437,1.91675 -1.7439,1.91675 -1.14185,0 -1.81494,-0.79541 -1.81494,-2.83447 0,-1.87646 0.6731,-2.82495 1.86621,-2.82495 1.20337,0 1.7439,0.82617 1.7439,2.63086 v 0.22485 h -2.95752 v 0.25488 c 0,1.56006 0.55079,2.03906 1.1521,2.03906 0.64234,0 1.04004,-0.45923 1.14258,-1.40698 z m -0.60132,-1.39746 c -0.02051,-1.34546 -0.39771,-1.83472 -1.15283,-1.83472 -0.75439,0 -1.13159,0.48926 -1.1521,1.83472 z" />
		</g>
		<g
   id="g143">
			<path
   id="path141"
   inkscape:connector-curvature="0"
   style="fill:#252626"
   d="m 60.36012,218.65715 c -0.40797,0.61157 -1.04004,1.00928 -1.93726,1.00928 -1.25464,0 -2.03979,-0.8562 -2.03979,-1.927 0,-0.76465 0.38745,-1.3667 1.05029,-1.87646 l 0.60205,-0.4585 c -0.52002,-0.68335 -0.83642,-1.22388 -0.83642,-1.79517 0,-0.87671 0.68335,-1.34546 1.48901,-1.34546 0.84595,0 1.39672,0.54053 1.39672,1.34546 0,0.5918 -0.24463,1.14258 -1.28466,1.87646 l 1.57031,2.20239 c 0.18311,-0.44824 0.25488,-0.92798 0.26514,-1.37622 h 0.61157 c 0,0.63208 -0.18384,1.30518 -0.50977,1.88599 l 0.95874,1.34619 h -0.6936 z m -2.01928,-2.84473 c -1.02979,0.71338 -1.30517,1.28467 -1.30517,1.85522 0,0.86719 0.6731,1.448 1.47876,1.448 0.59107,0 1.24365,-0.35669 1.52929,-0.91772 z m 0.15307,-0.74487 c 0.80566,-0.61157 0.97924,-1.08032 0.97924,-1.47803 0,-0.46948 -0.35742,-0.81592 -0.82617,-0.81592 -0.479,0 -0.83642,0.34644 -0.83642,0.81592 0,0.38745 0.27539,0.92798 0.68335,1.47803 z" />
		</g>
		<g
   id="g147">
			<path
   id="path145"
   inkscape:connector-curvature="0"
   style="fill:#252626"
   d="m 64.67628,214.12932 h 0.6123 v 0.84668 h 0.02051 c 0.23438,-0.60132 0.73389,-0.96899 1.36597,-0.96899 0.07178,0 0.14282,0.0103 0.2146,0.0307 v 0.61157 c -0.10254,-0.0198 -0.20435,-0.03 -0.2959,-0.03 -0.6731,0 -1.30518,0.48926 -1.30518,1.53955 v 3.38525 h -0.6123 c 10e-6,-1e-5 10e-6,-5.4148 0,-5.4148 z" />
		</g>
		<g
   id="g151">
			<path
   id="path149"
   inkscape:connector-curvature="0"
   style="fill:#252626"
   d="m 70.84693,217.74968 c -0.09155,1.1521 -0.72437,1.91675 -1.7439,1.91675 -1.14185,0 -1.81494,-0.79541 -1.81494,-2.83447 0,-1.87646 0.6731,-2.82495 1.86621,-2.82495 1.20337,0 1.7439,0.82617 1.7439,2.63086 v 0.22485 h -2.95751 v 0.25488 c 0,1.56006 0.55078,2.03906 1.1521,2.03906 0.64233,0 1.04003,-0.45923 1.14257,-1.40698 z m -0.60132,-1.39746 c -0.02051,-1.34546 -0.39771,-1.83472 -1.15282,-1.83472 -0.75439,0 -1.13159,0.48926 -1.1521,1.83472 z" />
		</g>
		<g
   id="g155">
			<path
   id="path153"
   inkscape:connector-curvature="0"
   style="fill:#252626"
   d="m 71.89869,212.26384 h 0.61157 v 7.28027 h -0.61157 z" />
		</g>
		<g
   id="g159">
			<path
   id="path157"
   inkscape:connector-curvature="0"
   style="fill:#252626"
   d="m 77.06886,217.74968 c -0.09155,1.1521 -0.72437,1.91675 -1.7439,1.91675 -1.14184,0 -1.81493,-0.79541 -1.81493,-2.83447 0,-1.87646 0.6731,-2.82495 1.8662,-2.82495 1.20337,0 1.7439,0.82617 1.7439,2.63086 v 0.22485 h -2.95752 v 0.25488 c 0,1.56006 0.55079,2.03906 1.1521,2.03906 0.64234,0 1.04004,-0.45923 1.14258,-1.40698 z m -0.60132,-1.39746 c -0.02047,-1.34546 -0.39771,-1.83472 -1.15283,-1.83472 -0.75439,0 -1.13159,0.48926 -1.1521,1.83472 z" />
		</g>
		<g
   id="g163">
			<path
   id="path161"
   inkscape:connector-curvature="0"
   style="fill:#252626"
   d="m 77.96754,215.74065 c 0,-1.11108 0.53027,-1.73364 1.67285,-1.73364 1.12134,0 1.5293,0.58154 1.5293,1.43774 v 3.20215 c 0,0.30615 0.10181,0.44824 0.31567,0.44824 h 0.17359 v 0.44897 c -0.11206,0.041 -0.20361,0.0615 -0.28564,0.0615 -0.479,0 -0.78516,-0.11279 -0.78516,-0.6731 v -0.18384 h -0.02048 c -0.24463,0.71411 -0.79541,0.91772 -1.39672,0.91772 -0.94849,0 -1.37622,-0.59106 -1.37622,-1.5293 0,-0.71411 0.32593,-1.28467 1.09058,-1.49927 l 1.1521,-0.32591 c 0.42847,-0.12231 0.52002,-0.22485 0.52002,-0.85693 0,-0.69287 -0.38745,-0.9375 -0.9375,-0.9375 -0.72437,0 -1.04004,0.43799 -1.04004,1.22314 z m 2.58985,0.74414 h -0.0198 c -0.0615,0.18384 -0.40797,0.2959 -0.65259,0.35742 l -0.50977,0.13257 c -0.6123,0.1626 -0.92797,0.479 -0.92797,1.12134 0,0.63208 0.32593,1.06055 0.85619,1.06055 0.74414,0 1.25391,-0.56104 1.25391,-1.5293 v -1.14258 z" />
		</g>
		<g
   id="g167">
			<path
   id="path165"
   inkscape:connector-curvature="0"
   style="fill:#252626"
   d="m 83.28199,216.85246 c -0.76465,-0.2959 -1.04004,-0.74487 -1.04004,-1.2854 0,-1.11108 0.6936,-1.56006 1.61133,-1.56006 1.01953,0 1.48828,0.52002 1.48828,1.50952 v 0.15308 h -0.61157 v -0.15308 c 0,-0.70386 -0.32666,-0.99902 -0.88696,-0.99902 -0.71411,0 -0.98951,0.3772 -0.98951,0.91699 0,0.37793 0.12232,0.6731 0.73462,0.9082 l 0.88696,0.33618 c 0.73389,0.27539 1.00928,0.78516 1.00928,1.37622 0,0.92798 -0.53027,1.61133 -1.67212,1.61133 -1.11182,0 -1.66187,-0.4585 -1.66187,-1.68237 v -0.17358 h 0.61157 v 0.14282 c 0,0.79541 0.34643,1.20337 1.04004,1.20337 0.65259,0 1.07079,-0.36694 1.07079,-0.96899 0,-0.479 -0.19409,-0.78516 -0.73462,-0.99902 z" />
		</g>
		<g
   id="g171">
			<path
   id="path169"
   inkscape:connector-curvature="0"
   style="fill:#252626"
   d="m 89.72803,217.74968 c -0.09155,1.1521 -0.72437,1.91675 -1.7439,1.91675 -1.14185,0 -1.81494,-0.79541 -1.81494,-2.83447 0,-1.87646 0.6731,-2.82495 1.86621,-2.82495 1.20336,0 1.7439,0.82617 1.7439,2.63086 v 0.22485 h -2.95752 v 0.25488 c 0,1.56006 0.55079,2.03906 1.1521,2.03906 0.64234,0 1.04004,-0.45923 1.14258,-1.40698 z m -0.60131,-1.39746 c -0.02047,-1.34546 -0.39771,-1.83472 -1.15283,-1.83472 -0.75439,0 -1.13159,0.48926 -1.1521,1.83472 z" />
		</g>
		<g
   id="g175">
			<path
   id="path173"
   inkscape:connector-curvature="0"
   style="fill:#252626"
   d="m 42.40335,224.50481 h 1.81494 l 1.2854,5.39355 h 0.01978 l 1.26489,-5.39355 h 1.77392 v 7.28027 h -1.10083 v -6.05713 h -0.0205 l -1.46851,6.05713 h -0.97852 l -1.46851,-6.05713 h -0.0205 v 6.05713 h -1.10156 c -1e-5,0 -1e-5,-7.28027 0,-7.28027 z" />
		</g>
		<g
   id="g179">
			<path
   id="path177"
   inkscape:connector-curvature="0"
   style="fill:#252626"
   d="m 53.29592,230.64323 c 0,0.20361 0.12232,0.38745 0.28564,0.38745 0.07178,0 0.14282,-0.0103 0.18384,-0.0307 v 0.71411 c -0.13257,0.0608 -0.32666,0.13257 -0.54053,0.13257 -0.48926,0 -0.89722,-0.19409 -0.92797,-0.72437 h -0.02051 c -0.2959,0.54053 -0.72363,0.80566 -1.36597,0.80566 -0.87744,0 -1.42749,-0.48926 -1.42749,-1.53955 0,-1.22388 0.53027,-1.47876 1.27441,-1.72339 l 0.8562,-0.23438 c 0.39771,-0.11206 0.64234,-0.22485 0.64234,-0.70386 0,-0.49951 -0.17285,-0.81592 -0.75439,-0.81592 -0.73389,0 -0.83569,0.52002 -0.83569,1.05029 h -1.04078 c 0,-1.16235 0.47973,-1.80469 1.92773,-1.80469 0.96827,0 1.74316,0.3772 1.74316,1.34619 0,0 0,3.14063 0,3.14063 v 1e-5 z m -1.04004,-1.75415 c -0.28491,0.22412 -0.89722,0.35669 -1.22314,0.50977 -0.31641,0.15308 -0.44897,0.47974 -0.44897,0.88696 0,0.45923 0.22412,0.82617 0.68335,0.82617 0.66284,0 0.98877,-0.49951 0.98877,-1.30518 v -0.91772 z" />
		</g>
		<g
   id="g183">
			<path
   id="path181"
   inkscape:connector-curvature="0"
   style="fill:#252626"
   d="m 54.42019,226.29924 h 1.10156 v 0.8562 h 0.01978 c 0.24463,-0.61157 0.65259,-0.99902 1.27515,-0.99902 0.12232,0 0.19336,0.0205 0.26514,0.041 v 1.12134 c -0.08204,-0.0205 -0.27539,-0.0608 -0.45922,-0.0608 -0.49952,0 -1.10083,0.22412 -1.10083,1.24365 v 3.28345 H 54.4202 v -5.48584 h -2e-5 v 2e-5 z" />
		</g>
		<g
   id="g187">
			<path
   id="path185"
   inkscape:connector-curvature="0"
   style="fill:#252626"
   d="m 61.15114,229.7863 c -0.07178,1.31543 -0.52002,2.1416 -1.87646,2.1416 -1.59081,0 -2.03906,-1.18286 -2.03906,-2.88574 0,-1.70288 0.44824,-2.88574 2.03906,-2.88574 1.64136,-0.0205 1.88672,1.28467 1.88672,1.96802 h -1.10156 c 0,-0.50977 -0.14282,-1.17261 -0.78516,-1.1521 -0.79541,0 -0.93823,0.8562 -0.93823,2.06982 0,1.21362 0.14282,2.06982 0.93823,2.06982 0.61157,0.0103 0.83642,-0.49951 0.83642,-1.32568 z" />
		</g>
		<g
   id="g191">
			<path
   id="path189"
   inkscape:connector-curvature="0"
   style="fill:#252626"
   d="m 64.49757,224.50481 h 2.35547 c 1.08105,0 1.95776,0.479 1.95776,1.76367 0,0.88696 -0.34643,1.42749 -1.07007,1.65234 v 0.0198 c 0.79468,0.14282 1.30518,0.62256 1.30518,1.85596 0,1.21362 -0.87744,1.98853 -2.24341,1.98853 h -2.30493 z m 2.08008,3.06884 c 0.70386,0 1.07079,-0.46875 1.07079,-1.1521 0,-0.86646 -0.52002,-1.04004 -1.17261,-1.04004 h -0.81592 v 2.19214 z m 0.2351,3.33472 c 0.69287,0 1.07007,-0.44897 1.07007,-1.28467 0,-0.78516 -0.46875,-1.23413 -1.14185,-1.23413 h -1.08105 v 2.5188 z" />
		</g>
		<g
   id="g195">
			<path
   id="path193"
   inkscape:connector-curvature="0"
   style="fill:#252626"
   d="m 71.7295,226.15642 c 1.60108,0 2.04932,1.18286 2.04932,2.88574 0,1.70288 -0.52002,2.88574 -2.04932,2.88574 -1.51904,0 -2.03906,-1.18286 -2.03906,-2.88574 0,-1.70288 0.44824,-2.88574 2.03906,-2.88574 z m 0,4.95556 c 0.80566,0 0.94849,-0.6731 0.94849,-2.06982 0,-1.21362 -0.14282,-2.06982 -0.94849,-2.06982 -0.79541,0 -0.93823,0.8562 -0.93823,2.06982 0,1.39673 0.14282,2.06982 0.93823,2.06982 z" />
		</g>
		<g
   id="g199">
			<path
   id="path197"
   inkscape:connector-curvature="0"
   style="fill:#252626"
   d="m 77.43067,231.14275 h -0.03 c -0.27539,0.48926 -0.79541,0.78516 -1.40771,0.78516 -0.81518,0 -1.36597,-0.3772 -1.36597,-1.79443 v -3.83423 h 1.10083 v 3.93604 c 0,0.61157 0.27539,0.81592 0.74487,0.81592 0.46875,0 0.89722,-0.30615 0.89722,-0.91772 v -3.83423 h 1.10083 v 5.48584 H 77.4307 c 0,0 0,-0.64233 1e-5,-0.64233 h -4e-5 z" />
		</g>
		<g
   id="g203">
			<path
   id="path201"
   inkscape:connector-curvature="0"
   style="fill:#252626"
   d="m 79.58472,224.50481 h 1.10083 v 7.28027 h -1.10083 z" />
		</g>
		<g
   id="g207">
			<path
   id="path205"
   inkscape:connector-curvature="0"
   style="fill:#252626"
   d="m 82.74659,229.18498 v 0.31641 c 0,0.73389 0.09155,1.67212 0.91772,1.67212 0.78516,0 0.87671,-0.89722 0.87671,-1.22388 h 1.04004 c 0,1.21362 -0.73389,1.97827 -1.927,1.97827 -0.89722,0 -2.00903,-0.26514 -2.00903,-2.80444 0,-1.43774 0.30615,-2.96704 2.02953,-2.96704 1.5293,0 1.93726,0.91772 1.93726,2.44702 v 0.58154 c 0,0 -2.86524,0 -2.86523,0 z m 1.76367,-0.75439 v -0.2959 c 0,-0.6936 -0.22412,-1.22388 -0.84595,-1.22388 -0.70386,0 -0.91772,0.6936 -0.91772,1.40771 v 0.11206 h 1.76367 z m -0.70312,-4.31323 h 1.22314 l -1.08105,1.46851 h -0.75439 z" />
		</g>
	</g>
	<g
   id="g307">
		<g
   id="g213">
			<path
   id="path211"
   inkscape:connector-curvature="0"
   style="fill:#252626"
   d="m 40.76015,248.53116 c -0.09229,1.66187 -0.85693,2.58984 -2.16211,2.58984 -1.48829,0 -2.32471,-1.1521 -2.32471,-3.76245 0,-2.61035 0.83642,-3.76245 2.32471,-3.76245 1.47876,0 2.09033,1.05029 2.09033,2.24341 h -0.65259 c 0,-0.9895 -0.49952,-1.69263 -1.43774,-1.69263 -1.04004,0 -1.67212,0.8562 -1.67212,3.21167 0,2.35547 0.63208,3.21167 1.67212,3.21167 0.91772,0 1.43774,-0.78516 1.50953,-2.03906 z" />
		</g>
		<g
   id="g217">
			<path
   id="path215"
   inkscape:connector-curvature="0"
   style="fill:#252626"
   d="m 43.22915,245.46158 c 1.19312,0 1.86621,0.94849 1.86621,2.82495 0,1.88599 -0.6731,2.83447 -1.86621,2.83447 -1.19238,0 -1.86547,-0.94849 -1.86547,-2.83447 -1e-5,-1.87647 0.67309,-2.82495 1.86547,-2.82495 z m 0,5.14966 c 0.68335,0 1.21362,-0.5918 1.21362,-2.32471 0,-1.72339 -0.53027,-2.31445 -1.21362,-2.31445 -0.68262,0 -1.21289,0.59106 -1.21289,2.31445 -1e-5,1.73291 0.53027,2.32471 1.21289,2.32471 z" />
		</g>
		<g
   id="g221">
			<path
   id="path219"
   inkscape:connector-curvature="0"
   style="fill:#252626"
   d="m 45.99404,245.58389 h 0.55078 v 0.75513 h 0.02051 c 0.30615,-0.60205 0.83642,-0.87744 1.38647,-0.87744 0.82617,0 1.38721,0.42847 1.38721,1.448 v 4.08911 h -0.61157 v -3.91553 c 0,-0.74414 -0.30615,-1.11108 -0.92798,-1.11108 -0.71411,0 -1.19311,0.55005 -1.19311,1.38647 v 3.64014 h -0.61231 c -10e-6,0 -10e-6,-5.4148 0,-5.4148 z" />
		</g>
		<g
   id="g225">
			<path
   id="path223"
   inkscape:connector-curvature="0"
   style="fill:#252626"
   d="m 53.77675,249.20425 c -0.09229,1.1521 -0.72437,1.91675 -1.72339,1.91675 -1.14258,0 -1.81494,-0.79541 -1.81494,-2.83447 0,-1.87646 0.67236,-2.82495 1.86547,-2.82495 1.02026,0 1.61133,0.62256 1.67285,1.73364 h -0.6123 c -0.07104,-0.84595 -0.40797,-1.22314 -1.06055,-1.22314 -0.66284,0 -1.21289,0.40723 -1.21289,2.32471 0,2.03906 0.5808,2.31445 1.1521,2.31445 0.62183,0 1.01954,-0.45923 1.12134,-1.40698 1e-5,-1e-5 0.6123,-1e-5 0.61231,-1e-5 z" />
		</g>
		<g
   id="g229">
			<path
   id="path227"
   inkscape:connector-curvature="0"
   style="fill:#252626"
   d="m 58.00941,249.20425 c -0.09155,1.1521 -0.72437,1.91675 -1.7439,1.91675 -1.14185,0 -1.81494,-0.79541 -1.81494,-2.83447 0,-1.87646 0.6731,-2.82495 1.86621,-2.82495 1.20337,0 1.7439,0.82617 1.7439,2.63086 v 0.22485 h -2.95752 v 0.25488 c 0,1.56006 0.55079,2.03906 1.1521,2.03906 0.64234,0 1.04004,-0.45923 1.14258,-1.40698 z m -0.60131,-1.39746 c -0.02051,-1.34546 -0.39771,-1.83472 -1.15283,-1.83472 -0.75439,0 -1.13159,0.48926 -1.1521,1.83472 z" />
		</g>
		<g
   id="g233">
			<path
   id="path231"
   inkscape:connector-curvature="0"
   style="fill:#252626"
   d="m 58.95937,245.58389 h 0.55079 v 0.77563 h 0.02051 c 0.19336,-0.50024 0.64234,-0.89795 1.3352,-0.89795 1.20337,0 1.72339,0.95874 1.72339,2.83521 0,1.86548 -0.54053,2.82422 -1.73364,2.82422 -0.67236,0 -1.13159,-0.36694 -1.26416,-0.93823 h -0.02051 v 2.61035 h -0.61157 c -1e-5,0 -1e-5,-7.20923 -1e-5,-7.20923 z m 1.81494,0.38819 c -0.34643,0 -0.65259,0.18311 -0.8562,0.479 -0.26514,0.3772 -0.34716,0.90747 -0.34716,1.8457 0,1.99805 0.56103,2.31445 1.18286,2.31445 0.61157,0 1.18286,-0.31641 1.18286,-2.31445 -10e-6,-1.96801 -0.5713,-2.3247 -1.16236,-2.3247 z" />
		</g>
		<g
   id="g237">
			<path
   id="path235"
   inkscape:connector-curvature="0"
   style="fill:#252626"
   d="m 63.77431,246.09439 h -0.74487 v -0.5105 h 0.74487 v -1.49854 h 0.61158 v 1.49854 h 0.95873 v 0.5105 h -0.95873 v 3.88477 c 0,0.42847 0.18384,0.57056 0.58154,0.57056 0.12232,0 0.24463,-0.0198 0.3772,-0.0608 v 0.50977 c -0.07178,0.041 -0.22485,0.0615 -0.42847,0.0615 -0.82616,0 -1.14184,-0.22485 -1.14184,-0.94849 v -4.01733 4e-5 z" />
		</g>
		<g
   id="g241">
			<path
   id="path239"
   inkscape:connector-curvature="0"
   style="fill:#252626"
   d="m 72.06605,250.11172 c -0.40796,0.61157 -1.04004,1.00928 -1.93726,1.00928 -1.25463,0 -2.03979,-0.8562 -2.03979,-1.927 0,-0.76465 0.38745,-1.3667 1.05029,-1.87646 l 0.60204,-0.4585 c -0.52002,-0.68335 -0.83642,-1.22388 -0.83642,-1.79517 0,-0.87671 0.68334,-1.34546 1.48901,-1.34546 0.84595,0 1.39673,0.54053 1.39673,1.34546 0,0.5918 -0.24463,1.14258 -1.28467,1.87646 l 1.57031,2.20239 c 0.18311,-0.44824 0.25488,-0.92798 0.26514,-1.37622 H 72.953 c 0,0.63208 -0.18384,1.30518 -0.50977,1.88599 l 0.95874,1.34619 h -0.6936 z M 70.04676,247.267 c -1.02978,0.71338 -1.30517,1.28467 -1.30517,1.85522 0,0.86719 0.6731,1.448 1.47876,1.448 0.59107,0 1.24365,-0.35669 1.5293,-0.91772 z m 0.15308,-0.74487 c 0.80566,-0.61157 0.97925,-1.08032 0.97925,-1.47803 0,-0.46948 -0.35742,-0.81592 -0.82617,-0.81592 -0.479,0 -0.83643,0.34644 -0.83643,0.81592 0,0.38745 0.27539,0.92798 0.68335,1.47803 z" />
		</g>
		<g
   id="g245">
			<path
   id="path243"
   inkscape:connector-curvature="0"
   style="fill:#252626"
   d="m 78.42127,247.83755 v -0.55078 h 2.33496 v 3.71191 h -0.50977 v -1.20337 h -0.02048 c -0.22412,0.80566 -0.87671,1.32568 -1.60107,1.32568 -1.48829,0 -2.32471,-1.1521 -2.32471,-3.76245 0,-2.61035 0.83642,-3.76245 2.32471,-3.76245 1.38721,0 2.00903,0.90747 2.09033,2.16138 h -0.65259 c 0,-0.87671 -0.479,-1.6106 -1.43774,-1.6106 -1.04004,0 -1.67212,0.8562 -1.67212,3.21167 0,2.35547 0.63208,3.21167 1.67212,3.21167 0.97924,0 1.51978,-0.87671 1.51978,-2.57959 v -0.15308 h -1.72339 -3e-5 z" />
		</g>
		<g
   id="g249">
			<path
   id="path247"
   inkscape:connector-curvature="0"
   style="fill:#252626"
   d="m 81.73695,243.71841 h 0.65259 v 5.23096 c 0,1.09058 0.46948,1.62085 1.42749,1.62085 0.95874,0 1.42822,-0.53027 1.42822,-1.62085 v -5.23096 h 0.65259 v 5.24121 c 0,1.5293 -0.74487,2.16138 -2.0808,2.16138 -1.33521,0 -2.08008,-0.63208 -2.08008,-2.16138 -1e-5,1e-5 -1e-5,-5.24121 -1e-5,-5.24121 z" />
		</g>
		<g
   id="g253">
			<path
   id="path251"
   inkscape:connector-curvature="0"
   style="fill:#252626"
   d="m 86.98035,243.71841 h 0.65259 v 7.28027 h -0.65259 z" />
		</g>
		<g
   id="g257">
			<path
   id="path255"
   inkscape:connector-curvature="0"
   style="fill:#252626"
   d="m 37.29361,255.95938 h 2.30493 c 1.39672,0 2.0083,0.87671 2.0083,2.12109 0,1.30518 -0.76465,2.15112 -2.13062,2.15112 h -1.02026 v 3.00806 H 37.2936 c 0,0 0,-7.28027 1e-5,-7.28027 z m 1.16235,3.39551 h 0.82617 c 0.62183,0 1.16235,-0.33691 1.16235,-1.25464 0,-0.78516 -0.31567,-1.26416 -1.24365,-1.26416 h -0.74487 z" />
		</g>
		<g
   id="g261">
			<path
   id="path259"
   inkscape:connector-curvature="0"
   style="fill:#252626"
   d="m 42.37441,255.87735 h 1.10083 v 1.10156 h -1.10083 z m 0,1.87646 h 1.10083 v 5.48584 h -1.10083 z" />
		</g>
		<g
   id="g265">
			<path
   id="path263"
   inkscape:connector-curvature="0"
   style="fill:#252626"
   d="m 45.53555,260.63956 v 0.31641 c 0,0.73389 0.09155,1.67212 0.91772,1.67212 0.78516,0 0.87671,-0.89722 0.87671,-1.22388 h 1.04004 c 0,1.21362 -0.73389,1.97827 -1.92701,1.97827 -0.89722,0 -2.00903,-0.26514 -2.00903,-2.80444 0,-1.43774 0.30615,-2.96704 2.02954,-2.96704 1.52929,0 1.93726,0.91772 1.93726,2.44702 v 0.58154 z m 1.76366,-0.7544 v -0.2959 c 0,-0.6936 -0.22412,-1.22388 -0.84595,-1.22388 -0.70386,0 -0.91772,0.6936 -0.91772,1.40771 v 0.11206 h 1.76367 z" />
		</g>
		<g
   id="g269">
			<path
   id="path267"
   inkscape:connector-curvature="0"
   style="fill:#252626"
   d="m 49.31044,257.75381 h 1.10083 v 0.8562 h 0.02051 c 0.24463,-0.61157 0.65259,-0.99902 1.27515,-0.99902 0.12232,0 0.19336,0.0205 0.26514,0.041 v 1.12134 c -0.08204,-0.0205 -0.27539,-0.0608 -0.45922,-0.0608 -0.49952,0 -1.10156,0.22412 -1.10156,1.24365 v 3.28345 h -1.10083 v -5.48584 h -10e-6 z" />
		</g>
		<g
   id="g273">
			<path
   id="path271"
   inkscape:connector-curvature="0"
   style="fill:#252626"
   d="m 52.52358,257.75381 h 1.10156 v 0.8562 h 0.01978 c 0.24463,-0.61157 0.65259,-0.99902 1.27515,-0.99902 0.12232,0 0.19336,0.0205 0.26514,0.041 v 1.12134 c -0.08204,-0.0205 -0.27539,-0.0608 -0.45922,-0.0608 -0.49952,0 -1.10083,0.22412 -1.10083,1.24365 v 3.28345 H 52.5236 v -5.48584 h -2e-5 z" />
		</g>
		<g
   id="g277">
			<path
   id="path275"
   inkscape:connector-curvature="0"
   style="fill:#252626"
   d="m 56.6852,260.63956 v 0.31641 c 0,0.73389 0.09155,1.67212 0.91772,1.67212 0.78516,0 0.87672,-0.89722 0.87672,-1.22388 h 1.04004 c 0,1.21362 -0.73389,1.97827 -1.92701,1.97827 -0.89722,0 -2.00903,-0.26514 -2.00903,-2.80444 0,-1.43774 0.30615,-2.96704 2.02954,-2.96704 1.5293,0 1.93726,0.91772 1.93726,2.44702 v 0.58154 c -1e-5,0 -2.86525,0 -2.86524,0 z m 1.76367,-0.7544 v -0.2959 c 0,-0.6936 -0.22412,-1.22388 -0.84595,-1.22388 -0.70386,0 -0.91772,0.6936 -0.91772,1.40771 v 0.11206 h 1.76367 z" />
		</g>
		<g
   id="g281">
			<path
   id="path279"
   inkscape:connector-curvature="0"
   style="fill:#252626"
   d="m 67.45546,260.6293 v 0.15308 c 0,1.31543 -0.53027,2.6001 -2.24341,2.6001 -1.83546,0 -2.40601,-1.18286 -2.40601,-3.78296 0,-2.6001 0.57056,-3.78296 2.41626,-3.78296 2.06982,0 2.19214,1.5293 2.19214,2.28369 v 0.13257 h -1.16235 v -0.12231 c 0,-0.6731 -0.20361,-1.448 -1.04004,-1.41724 -0.85619,0 -1.24365,0.53027 -1.24365,2.87549 0,2.34522 0.38745,2.93701 1.24365,2.93701 0.96899,0 1.08105,-1.08105 1.08105,-1.75415 v -0.12231 h 1.16236 z" />
		</g>
		<g
   id="g285">
			<path
   id="path283"
   inkscape:connector-curvature="0"
   style="fill:#252626"
   d="m 70.02699,257.61099 c 1.60108,0 2.04932,1.18286 2.04932,2.88574 0,1.70288 -0.52002,2.88574 -2.04932,2.88574 -1.51904,0 -2.03905,-1.18286 -2.03905,-2.88574 0,-1.70288 0.44823,-2.88574 2.03905,-2.88574 z m 0,4.95557 c 0.80566,0 0.94849,-0.6731 0.94849,-2.06982 0,-1.21362 -0.14282,-2.06982 -0.94849,-2.06982 -0.7954,0 -0.93822,0.8562 -0.93822,2.06982 -1e-5,1.39672 0.14281,2.06982 0.93822,2.06982 z" />
		</g>
		<g
   id="g289">
			<path
   id="path287"
   inkscape:connector-curvature="0"
   style="fill:#252626"
   d="m 72.97572,255.95938 h 1.10083 v 7.28027 h -1.10083 z" />
		</g>
		<g
   id="g293">
			<path
   id="path291"
   inkscape:connector-curvature="0"
   style="fill:#252626"
   d="m 75.24036,255.95938 h 1.10083 v 7.28027 h -1.10083 z" />
		</g>
		<g
   id="g297">
			<path
   id="path295"
   inkscape:connector-curvature="0"
   style="fill:#252626"
   d="m 81.05286,262.09781 c 0,0.20361 0.12232,0.38745 0.28564,0.38745 0.07178,0 0.14282,-0.0103 0.18384,-0.0307 v 0.71411 c -0.13257,0.0608 -0.32666,0.13257 -0.54053,0.13257 -0.48926,0 -0.89722,-0.19409 -0.92797,-0.72437 h -0.02048 c -0.2959,0.54053 -0.72363,0.80566 -1.36597,0.80566 -0.87744,0 -1.42749,-0.48926 -1.42749,-1.53955 0,-1.22388 0.53027,-1.47876 1.27441,-1.72339 l 0.8562,-0.23438 c 0.39771,-0.11206 0.64234,-0.22485 0.64234,-0.70386 0,-0.49951 -0.17285,-0.81592 -0.75439,-0.81592 -0.73389,0 -0.83569,0.52002 -0.83569,1.05029 H 77.382 c 0,-1.16235 0.47974,-1.80469 1.92773,-1.80469 0.96827,0 1.74316,0.3772 1.74316,1.34619 0,0 0,3.14063 -1e-5,3.14063 z m -1.04003,-1.75415 c -0.28491,0.22412 -0.89722,0.35669 -1.22314,0.50977 -0.31641,0.15308 -0.44897,0.47974 -0.44897,0.88696 0,0.45923 0.22412,0.82617 0.68335,0.82617 0.66284,0 0.98877,-0.49951 0.98877,-1.30518 v -0.91772 z" />
		</g>
		<g
   id="g301">
			<path
   id="path299"
   inkscape:connector-curvature="0"
   style="fill:#252626"
   d="m 82.1764,257.75381 h 1.10156 v 0.8562 h 0.0198 c 0.24463,-0.61157 0.65259,-0.99902 1.27515,-0.99902 0.12232,0 0.19336,0.0205 0.26514,0.041 v 1.12134 c -0.08204,-0.0205 -0.27539,-0.0608 -0.45922,-0.0608 -0.49952,0 -1.10083,0.22412 -1.10083,1.24365 v 3.28345 h -1.10156 v -5.48584 h -2e-5 z" />
		</g>
		<g
   id="g305">
			<path
   id="path303"
   inkscape:connector-curvature="0"
   style="fill:#252626"
   d="m 88.19324,262.56656 h -0.0198 c -0.14282,0.35669 -0.41821,0.81592 -1.20337,0.81592 -1.28467,0 -1.79443,-1.0708 -1.79443,-2.95679 0,-2.4375 0.8562,-2.8147 1.69263,-2.8147 0.59107,0 1.04004,0.2959 1.24365,0.78516 h 0.02048 v -2.43677 h 1.10083 v 7.28027 h -1.04004 c 2e-5,0 2e-5,-0.6731 1e-5,-0.6731 h 4e-5 z m -0.99902,-4.07886 c -0.63208,0 -0.8562,0.50977 -0.8562,1.98853 0,1.24438 0.1626,2.02954 0.92797,2.02954 0.75439,0 0.92725,-0.7749 0.92725,-1.94751 0,-1.31543 -0.15235,-2.07056 -0.99902,-2.07056 z" />
		</g>
	</g>
</g>
<g
   id="g182"
   transform="matrix(1.3333414,0,0,1.3333414,-6.2393296e-4,-0.00141706)">
	<path
   style="fill:#252626"
   d="m 48.43604,209.24133 h 1.51172 l 1.22559,5.52539 h 0.02539 l 1.10742,-5.52539 h 1.49902 l -1.85059,7.01074 h -1.6416 z"
   id="path158"
   inkscape:connector-curvature="0" />
	<path
   style="fill:#252626"
   d="m 55.78369,212.92883 v 0.4043 c 0,0.93848 0.11719,2.13672 1.17285,2.13672 1.00293,0 1.12012,-1.14648 1.12012,-1.56348 h 1.3291 c 0,1.55078 -0.9375,2.52832 -2.46289,2.52832 -1.14648,0 -2.56641,-0.33887 -2.56641,-3.58398 0,-1.83691 0.39063,-3.79199 2.59277,-3.79199 1.95508,0 2.47559,1.17285 2.47559,3.12793 v 0.74219 h -3.66113 z m 2.25391,-0.96386 v -0.37793 c 0,-0.88574 -0.28613,-1.56348 -1.08105,-1.56348 -0.89941,0 -1.17285,0.88574 -1.17285,1.79785 v 0.14355 h 2.2539 z"
   id="path160"
   inkscape:connector-curvature="0" />
	<path
   style="fill:#252626"
   d="m 60.60205,209.24133 h 1.40723 v 1.09473 h 0.02637 c 0.3125,-0.78223 0.83398,-1.27734 1.62891,-1.27734 0.15625,0 0.24707,0.0264 0.33887,0.0527 v 1.43262 c -0.10449,-0.0254 -0.35254,-0.0781 -0.58691,-0.0781 -0.63867,0 -1.40723,0.28711 -1.40723,1.58984 v 4.19629 h -1.40723 v -7.01074 z"
   id="path162"
   inkscape:connector-curvature="0" />
	<path
   style="fill:#252626"
   d="m 67.729,211.28723 v -0.18262 c 0,-0.56055 -0.19629,-1.08105 -0.92578,-1.08105 -0.56055,0 -1.00293,0.26074 -1.00293,0.91211 0,0.54688 0.24707,0.76855 0.99023,1.0293 l 0.89941,0.3125 c 1.04199,0.35156 1.52441,0.91211 1.52441,2.01953 0,1.49902 -1.09473,2.1377 -2.51563,2.1377 -1.77148,0 -2.30566,-0.82129 -2.30566,-2.17676 v -0.25977 h 1.25098 v 0.2207 c 0,0.80859 0.28613,1.25098 1.09375,1.25098 0.76953,0 1.14746,-0.39063 1.14746,-1.0293 0,-0.52148 -0.27344,-0.85938 -0.76953,-1.0293 l -1.14648,-0.4043 c -1.05566,-0.36426 -1.49805,-0.89844 -1.49805,-2.01953 0,-1.31641 0.95117,-1.92871 2.39746,-1.92871 1.78516,0 2.18945,1.04297 2.18945,1.91602 v 0.3125 z"
   id="path164"
   inkscape:connector-curvature="0" />
	<path
   style="fill:#252626"
   d="m 70.31982,206.84387 h 1.40723 v 1.40723 h -1.40723 z m 0,2.39746 h 1.40723 v 7.01074 h -1.40723 z"
   id="path166"
   inkscape:connector-curvature="0" />
	<path
   style="fill:#252626"
   d="m 75.47705,209.05872 c 2.0459,0 2.62012,1.51172 2.62012,3.68848 0,2.17578 -0.66504,3.6875 -2.62012,3.6875 -1.94141,0 -2.60547,-1.51172 -2.60547,-3.6875 0,-2.17677 0.57324,-3.68848 2.60547,-3.68848 z m 0,6.333 c 1.03027,0 1.21191,-0.85938 1.21191,-2.64453 0,-1.55078 -0.18164,-2.64551 -1.21191,-2.64551 -1.01563,0 -1.19824,1.09473 -1.19824,2.64551 0,1.78516 0.18262,2.64453 1.19824,2.64453 z"
   id="path168"
   inkscape:connector-curvature="0" />
	<path
   style="fill:#252626"
   d="m 79.17627,209.24133 h 1.32959 v 0.82129 h 0.03906 c 0.35156,-0.62598 1.0166,-1.00391 1.79785,-1.00391 1.06934,0 1.74609,0.48242 1.74609,1.90234 v 5.29102 h -1.40723 v -4.80859 c 0,-0.91211 -0.27344,-1.26367 -0.97656,-1.26367 -0.57422,0 -1.12109,0.45605 -1.12109,1.36816 v 4.7041 h -1.40771 z"
   id="path170"
   inkscape:connector-curvature="0" />
	<path
   style="fill:#252626"
   d="m 90.58691,216.25208 v -6.69824 h -1.91504 v -0.96387 h 0.14258 c 0.88672,0 1.91602,-0.20898 2.17676,-1.38184 v -0.18164 h 1.08105 v 9.22559 z"
   id="path172"
   inkscape:connector-curvature="0" />
	<path
   style="fill:#252626"
   d="m 94.96289,214.53235 h 1.48535 v 1.71973 h -1.48535 z"
   id="path174"
   inkscape:connector-curvature="0" />
	<path
   style="fill:#252626"
   d="m 103.09277,216.25208 h -5.39551 c 0,-4.01367 3.87012,-3.92188 3.87012,-6.78906 0,-0.75586 -0.3252,-1.39453 -1.14648,-1.39453 -1.10742,0 -1.29004,0.99023 -1.29004,1.92871 h -1.40723 c 0,-1.83691 0.75586,-2.9707 2.72363,-2.9707 1.88965,0 2.60645,1.12012 2.60645,2.46289 0,3.06152 -2.99707,3.25781 -3.70117,5.51172 h 3.74023 z"
   id="path176"
   inkscape:connector-curvature="0" />
	<path
   style="fill:#252626"
   d="m 104.34082,214.53235 h 1.48535 v 1.71973 h -1.48535 z"
   id="path178"
   inkscape:connector-curvature="0" />
	<path
   style="fill:#252626"
   d="m 109.77344,207.02649 c 1.77148,0 2.76172,1.12012 2.76172,4.7041 0,3.58301 -0.99023,4.7041 -2.76172,4.7041 -1.77246,0 -2.7627,-1.12109 -2.7627,-4.7041 0,-3.58398 0.99024,-4.7041 2.7627,-4.7041 z m 0,8.36523 c 1.01563,0 1.27637,-0.97656 1.27637,-3.66113 0,-2.68457 -0.26074,-3.66211 -1.27637,-3.66211 -1.0166,0 -1.27734,0.97754 -1.27734,3.66211 0,2.68457 0.26074,3.66113 1.27734,3.66113 z"
   id="path180"
   inkscape:connector-curvature="0" />
</g>
</svg>