<?xml version="1.0" encoding="UTF-8"?>
<svg id="uuid-7e8b40ad-f597-49b7-bccc-8e1bdc4578ea" xmlns="http://www.w3.org/2000/svg" width="55.88mm" height="128.49999mm" version="1.1" xmlns:inkscape="http://www.inkscape.org/namespaces/inkscape" xmlns:sodipodi="http://sodipodi.sourceforge.net/DTD/sodipodi-0.dtd" xmlns:svg="http://www.w3.org/2000/svg" xmlns:xlink="http://www.w3.org/1999/xlink" viewBox="0 0 158.40001 364.25195">
  <!-- Generator: Adobe Illustrator 29.6.1, SVG Export Plug-In . SVG Version: 2.1.1 Build 9)  -->
  <defs>
    <linearGradient id="linear-gradient" x1="-137.54768" y1="262.24279" x2="-137.54768" y2="627.04278" gradientTransform="translate(313.94762 -446.88784) scale(1.70666)" gradientUnits="userSpaceOnUse">
      <stop offset="0" stop-color="#ebebeb"/>
      <stop offset="1" stop-color="#e1e1e1"/>
    </linearGradient>
    <linearGradient id="linear-gradient1" x1="81.46562" y1="-3289.80525" x2="94.46562" y2="-3289.80525" gradientTransform="translate(-5592.51078 -138.35125) rotate(90) scale(1.7041)" gradientUnits="userSpaceOnUse">
      <stop offset="0" stop-color="#aba9a9"/>
      <stop offset="1" stop-color="#8f8f8f"/>
    </linearGradient>
    <linearGradient id="linear-gradient2" x1="81.86846" y1="-3289.80525" x2="93.49233" y2="-3289.80525" gradientTransform="translate(-5592.51078 -138.35125) rotate(90) scale(1.7041)" gradientUnits="userSpaceOnUse">
      <stop offset=".00559" stop-color="#f5f5f5"/>
      <stop offset="1" stop-color="#c2c2c2"/>
    </linearGradient>
    <linearGradient id="linear-gradient3" x1="82.13041" y1="-3289.80525" x2="92.86015" y2="-3289.80525" gradientTransform="translate(-5592.51078 -138.35125) rotate(90) scale(1.7041)" gradientUnits="userSpaceOnUse">
      <stop offset=".00559" stop-color="#ebebeb"/>
      <stop offset="1" stop-color="#ccc"/>
    </linearGradient>
    <linearGradient id="linear-gradient4" x1="287.02845" y1="-3289.80525" x2="300.02845" y2="-3289.80525" gradientTransform="translate(-5592.51078 -138.35125) rotate(90) scale(1.7041)" gradientUnits="userSpaceOnUse">
      <stop offset="0" stop-color="#aba9a9"/>
      <stop offset="1" stop-color="#8f8f8f"/>
    </linearGradient>
    <linearGradient id="linear-gradient5" x1="287.4313" y1="-3289.80525" x2="299.0552" y2="-3289.80525" gradientTransform="translate(-5592.51078 -138.35125) rotate(90) scale(1.7041)" gradientUnits="userSpaceOnUse">
      <stop offset=".00559" stop-color="#f5f5f5"/>
      <stop offset="1" stop-color="#c2c2c2"/>
    </linearGradient>
    <linearGradient id="linear-gradient6" x1="287.69326" y1="-3289.80525" x2="298.42299" y2="-3289.80525" gradientTransform="translate(-5592.51078 -138.35125) rotate(90) scale(1.7041)" gradientUnits="userSpaceOnUse">
      <stop offset=".00559" stop-color="#ebebeb"/>
      <stop offset="1" stop-color="#ccc"/>
    </linearGradient>
    <linearGradient id="linear-gradient7" x1="81.46562" y1="-3357.20035" x2="94.46562" y2="-3357.20035" gradientTransform="translate(-5592.51078 -138.35125) rotate(90) scale(1.7041)" gradientUnits="userSpaceOnUse">
      <stop offset="0" stop-color="#aba9a9"/>
      <stop offset="1" stop-color="#8f8f8f"/>
    </linearGradient>
    <linearGradient id="linear-gradient8" x1="81.86846" y1="-3357.20035" x2="93.49233" y2="-3357.20035" gradientTransform="translate(-5592.51078 -138.35125) rotate(90) scale(1.7041)" gradientUnits="userSpaceOnUse">
      <stop offset=".00559" stop-color="#f5f5f5"/>
      <stop offset="1" stop-color="#c2c2c2"/>
    </linearGradient>
    <linearGradient id="linear-gradient9" x1="82.13041" y1="-3357.20035" x2="92.86015" y2="-3357.20035" gradientTransform="translate(-5592.51078 -138.35125) rotate(90) scale(1.7041)" gradientUnits="userSpaceOnUse">
      <stop offset=".00559" stop-color="#ebebeb"/>
      <stop offset="1" stop-color="#ccc"/>
    </linearGradient>
    <linearGradient id="linear-gradient10" x1="287.02843" y1="-3357.20035" x2="300.02843" y2="-3357.20035" gradientTransform="translate(-5592.51078 -138.35125) rotate(90) scale(1.7041)" gradientUnits="userSpaceOnUse">
      <stop offset="0" stop-color="#aba9a9"/>
      <stop offset="1" stop-color="#8f8f8f"/>
    </linearGradient>
    <linearGradient id="linear-gradient11" x1="287.4313" y1="-3357.20035" x2="299.0552" y2="-3357.20035" gradientTransform="translate(-5592.51078 -138.35125) rotate(90) scale(1.7041)" gradientUnits="userSpaceOnUse">
      <stop offset=".00559" stop-color="#f5f5f5"/>
      <stop offset="1" stop-color="#c2c2c2"/>
    </linearGradient>
    <linearGradient id="linear-gradient12" x1="287.69326" y1="-3357.20035" x2="298.42299" y2="-3357.20035" gradientTransform="translate(-5592.51078 -138.35125) rotate(90) scale(1.7041)" gradientUnits="userSpaceOnUse">
      <stop offset=".00559" stop-color="#ebebeb"/>
      <stop offset="1" stop-color="#ccc"/>
    </linearGradient>
  </defs>
  <sodipodi:namedview id="namedview240" bordercolor="#000000" borderopacity="0.25" inkscape:current-layer="uuid-df855dfe-b794-410c-8e86-5f00c3f12b23" inkscape:cx="130.7186" inkscape:cy="290.08341" inkscape:deskcolor="#d1d1d1" inkscape:document-units="mm" inkscape:pagecheckerboard="0" inkscape:pageopacity="0.0" inkscape:showpageshadow="2" inkscape:window-height="1009" inkscape:window-maximized="1" inkscape:window-width="1920" inkscape:window-x="-8" inkscape:window-y="-8" inkscape:zoom="18.501575" pagecolor="#ffffff" showgrid="false"/>
  <g id="uuid-62f2739a-12b5-46ad-bfb6-25619756f6d5">
    <g id="uuid-66bf36fe-2bf9-497a-abba-aed85b0c95c7">
      <rect id="uuid-49f88654-6072-44f1-8bf6-508a481e53b1" x="0" y="0" width="158.4" height="364.25198" fill="url(#linear-gradient)"/>
    </g>
    <g id="uuid-5f27818a-5df1-4046-874d-d09577b7744f">
      <g id="uuid-406b2e00-2004-4d96-8386-d8816db3a18b">
        <ellipse id="uuid-1947d7c2-5411-4054-9828-edc380f94f80" cx="22.08004" cy="6.9645" rx="6.49999" ry="6.49023" fill="url(#linear-gradient1)"/>
        <ellipse id="uuid-ba6516f9-f829-40c9-b77f-d647510d9c41" cx="22.08004" cy="6.96397" rx="5.81193" ry="5.8032" fill="url(#linear-gradient2)"/>
        <ellipse id="uuid-eae61430-6016-404d-998e-1c6c5bc0e616" cx="22.08004" cy="6.96397" rx="5.36487" ry="5.35681" fill="url(#linear-gradient3)"/>
        <g id="uuid-3fecdcb3-0dba-41af-95a5-16080c32e162">
          <path id="uuid-7746b240-c432-4d6c-bc2d-91b4ccf7d43a" d="M25.54894,6.27606l-1.96361-.23491c-.30144-.03604-.53902-.27337-.57501-.57437l-.23429-1.95933c-.01021-.08541-.08276-.14971-.16889-.14971h-1.05414c-.08613,0-.15867.06428-.16889.14967l-.23484,1.96046c-.03606.30103-.27376.53833-.57527.57429l-1.96275.23398c-.08554.01019-.14993.08263-.14993.16864v1.05262c0,.086.06437.15843.14989.16864l1.96299.23446c.30143.036.53906.27327.57511.57425l.23479,1.95998c.01024.08539.08278.14967.16889.14967h1.05421c.08611,0,.15865-.06427.16889-.14964l.23521-1.96023c.03612-.30092.27372-.53814.57511-.57413l1.96248-.23435c.08552-.0102.1499-.08263.1499-.16864v-1.05269c0-.08598-.06436-.15839-.14986-.16864Z" fill="#8c8c8c"/>
        </g>
      </g>
      <g id="uuid-c307207a-b916-4ad5-b011-fcf2a3c81dc6">
        <ellipse id="uuid-2ff86d12-f42c-4446-ba50-74481fae4914" cx="22.08004" cy="357.26405" rx="6.49999" ry="6.49022" fill="url(#linear-gradient4)"/>
        <ellipse id="uuid-610f2374-573e-4d83-8fb2-f7a1091266d0" cx="22.08004" cy="357.26352" rx="5.81193" ry="5.8032" fill="url(#linear-gradient5)"/>
        <ellipse id="uuid-56726f81-e59c-434d-96ec-28ffce03f8ee" cx="22.08004" cy="357.26352" rx="5.36487" ry="5.3568" fill="url(#linear-gradient6)"/>
        <g id="uuid-102c613a-82ae-4df7-8d1f-16c4d5229057">
          <path id="uuid-eeeb8f35-37a2-42f4-9651-cf4fd148a11d" d="M25.54894,356.57559l-1.96361-.23489c-.30143-.03611-.53902-.27337-.57501-.57437l-.23429-1.95932c-.01024-.08537-.08276-.14981-.16889-.14981h-1.05414c-.08613,0-.15867.06429-.16889.14961l-.23484,1.96046c-.03606.30103-.27376.53832-.57527.57425l-1.96275.23396c-.08554.01026-.14993.08268-.14993.1687v1.05261c0,.08605.06437.15847.14989.1687l1.96299.23443c.30143.03593.53906.27325.57511.57425l.23479,1.95996c.01024.08537.08278.14961.16889.14961h1.05421c.08611,0,.15865-.06429.16889-.14961l.23521-1.96023c.03612-.30091.27372-.53815.57511-.57414l1.96248-.23434c.08552-.01026.14989-.08268.14989-.1687v-1.05267c0-.08605-.06436-.15847-.14986-.1687v.00023Z" fill="#8c8c8c"/>
        </g>
      </g>
    </g>
    <g id="uuid-b124e4e2-f234-4591-ae38-e501d9b40f61">
      <g id="uuid-d013e1d0-8cc0-4c3a-b288-9e19e882071f">
        <ellipse id="uuid-16697988-fa33-43f4-a002-257c6d3257a8" cx="137.1008" cy="6.9645" rx="6.49999" ry="6.49023" fill="url(#linear-gradient7)"/>
        <ellipse id="uuid-557cc9d3-9590-45ce-9caa-9b4b4d4838e6" cx="137.1008" cy="6.96397" rx="5.81195" ry="5.80321" fill="url(#linear-gradient8)"/>
        <ellipse id="uuid-33bb9555-9e2c-44aa-bd0e-e25f8a038017" cx="137.1008" cy="6.96397" rx="5.36488" ry="5.35681" fill="url(#linear-gradient9)"/>
        <g id="uuid-fd59f54f-4b17-478c-9062-c43e2e27a70f">
          <path id="uuid-5ecce54e-360d-44d6-897c-6873d761f053" d="M140.56969,6.27606l-1.9636-.23491c-.30144-.03606-.53901-.27339-.57501-.57438l-.23428-1.95933c-.01018-.08541-.08281-.14971-.1689-.14971h-1.05413c-.08616,0-.15868.06428-.1689.14967l-.23482,1.96046c-.03607.30103-.27377.53833-.57526.57429l-1.96274.23398c-.08559.01019-.14995.08263-.14995.16864v1.05264c0,.086.06438.15843.14989.16864l1.96297.23446c.30144.036.53906.27327.57513.57425l.23479,1.95998c.01026.08539.08281.14967.1689.14967h1.05421c.08607,0,.15865-.06427.16888-.14964l.2352-1.96023c.03607-.30092.27374-.53814.57512-.57413l1.96247-.23435c.08549-.0102.14992-.08263.14992-.16864v-1.05269c0-.08598-.06438-.15839-.14985-.16864h-.00004Z" fill="#8c8c8c"/>
        </g>
      </g>
      <g id="uuid-3ea7d7e9-5914-48ca-b6f9-ef357155bfd0">
        <ellipse id="uuid-7be3c0f6-04a4-4ddd-a7eb-275f889293bd" cx="137.1008" cy="357.26405" rx="6.5" ry="6.49025" fill="url(#linear-gradient10)"/>
        <ellipse id="uuid-08cd825d-a02a-4d6e-bc0b-d5c304802a13" cx="137.1008" cy="357.26352" rx="5.81193" ry="5.8032" fill="url(#linear-gradient11)"/>
        <ellipse id="uuid-7128eccb-60e8-4711-a8f7-c34a2fed7619" cx="137.1008" cy="357.26352" rx="5.36488" ry="5.3568" fill="url(#linear-gradient12)"/>
        <g id="uuid-0c2b4c80-c10b-4d60-831e-7c5f8fc035d1">
          <path id="uuid-deb1e4ba-6674-4ab6-9c21-6de1e3125b1e" d="M140.56969,356.57559l-1.9636-.23489c-.30144-.03611-.53901-.27337-.57501-.57437l-.2343-1.95932c-.01026-.08537-.08281-.14981-.1689-.14981h-1.05413c-.08616,0-.15868.06429-.1689.14961l-.23485,1.96046c-.03607.30103-.27377.53832-.57526.57425l-1.96274.23396c-.08549.01026-.14994.08268-.14994.1687v1.05261c0,.08605.06438.15847.14989.1687l1.96297.23443c.30144.03593.53906.27325.57513.57425l.23479,1.95996c.01026.08537.08281.14961.1689.14961h1.05421c.08607,0,.15865-.06429.16888-.14961l.2352-1.96023c.03607-.30091.27374-.53815.57512-.57414l1.96247-.23434c.08549-.01026.14991-.08268.14991-.1687v-1.05267c0-.08605-.06438-.15847-.14985-.1687v.00023Z" fill="#8c8c8c"/>
        </g>
      </g>
    </g>
  </g>
  <g id="uuid-c6e31d4c-2bd2-4c07-b44f-d1a42af6feee">
    <g id="uuid-65ddbd4e-9079-4a1f-a986-97b759e0aca7">
      <g id="uuid-b71c26c2-b9cb-459d-a763-af942cf87a98">
        <path id="uuid-08338a38-d66f-4a8e-9c0f-4e7cb83d8e3c" d="M95.56691,148.66494h-28.24225c-4.74874,0-8.59836-3.84382-8.59836-8.58544V58.50243c0-4.7416,3.84961-8.58542,8.59836-8.58542h28.24225c4.74875,0,8.59834,3.84381,8.59834,8.58542v81.57707c.00002,4.74162-3.84958,8.58544-8.59834,8.58544Z" fill="#252626"/>
      </g>
      <g id="uuid-683f097f-d522-4e88-a027-7d934720281e">
        <g id="uuid-63cdddb0-a6d3-45d5-b15d-c0d31f1d1d64">
          <path id="uuid-4ce92381-1248-4063-8ac3-96cb7f68523a" d="M92.36972,116.37175c-.30539.70318-.71051,1.28363-1.21531,1.74073-.50543.45708-1.07987.79646-1.72581,1.02-.64652.22292-1.32128.33374-2.02555.33374-1.19777,0-2.13091-.17532-2.80003-.52722-.66911-.35189-1.19212-.76202-1.56715-1.23104-.40008-.51596-.65217-1.09014-.75752-1.72319-.10598-.63306-.15867-1.26611-.15867-1.89916,0-.89165.01819-1.50656.05267-1.84657.03575-.34068.0759-.53348.12352-.58046.09345-.0708.48098-.1052,1.16201-.1052h8.24267c.23455,0,.42831.01754.58134.0526.15175.03506.26965.12838.3518.28114.08214.15216.13485.38069.15865.68565.0232.30493.03575.72699.03575,1.26611.00002.985-.15363,1.82969-.45841,2.53286M78.14069,82.15254c.03137-.22104.12668-.39572.28597-.52285.15863-.12647.41199-.20603.76195-.23794.34928-.03132.84156-.04758,1.47683-.04758,2.47709,0,4.3747.68941,5.69287,2.06885,1.31757,1.37943,1.97728,3.22727,1.97728,5.54217,0,.21914-.04577.6919-.07462,1.01626-.1825-.00259-.36498-.00498-.54745-.00872-.4998-.01057-1.04287-.03821-1.62921-.0814-.13046.06513-.20071.18973-.21196.37382-.01059.18472.03763.33123.14739.43957l.58573.06512c.39132.0432.71678.11396.97765.21102.26088.0977.39132.20098.39132.30933,0,.10832-.06522.30933-.19565.60175-.13046.29304-.30416.64555-.52111,1.05697-.21761.41264-.45152.85221-.70048,1.31805-.25022.4665-.48413.90605-.7011,1.31746-.49978.95491-1.00963,1.89227-1.53138,2.81397-.52115.92233-1.03159,1.81714-1.53078,2.68437-.63087-1.12773-1.24983-2.30991-1.85748-3.54597-.60831-1.23669-1.21658-2.46146-1.82489-3.67684-.04391-.0864-.11914-.2486-.22765-.48778-.1091-.23794-.22323-.49278-.34239-.76455-.11978-.27114-.22323-.52536-.30978-.76455-.08716-.23858-.12982-.40136-.12982-.48778,0-.13026.08591-.23293.26023-.30933.1737-.07576.54309-.16779,1.1081-.27613l.42329-.06512c.10848-.10832.15742-.26048.14675-.45585-.01127-.19474-.09282-.31434-.24395-.35754-.4628.03631-1.03033.06261-1.70322.07826v-6.90282c-.00002-.38073.01571-.68191.04763-.90421M80.83853,106.50591c0,.86784-.01127,1.56165-.03261,2.08199-.02195.52034-.09779.92734-.22824,1.21974-.04641.1052-.10159.19788-.16494.27867-.00124.00061-.00326.00192-.00441.00287-.37938-.07262-.69922-.15653-.95758-.25234-.42895-.1584-.7381-.44394-.92875-.85596-.19062-.412-.30978-.99059-.35743-1.73635-.04768-.74453-.07151-1.73635-.07151-2.9724v-6.77323l1.70322,3.31366c.2383.45585.42831.84092.57003,1.15528.14109.31497.24393.60738.30916.87851.06522.27176.10848.55854.13043.86223.02131.3037.03261.68314.03261,1.13837,0,0,0,1.65932-.00002,1.65932l.00009-.00023-.00004-.00013ZM94.28556,110.52899c.14106-.39072.28156-.80774.42331-1.25232.1411-.44456.27153-.8785.39132-1.30178.11914-.42267.21134-.77519.27718-1.05759-.06586-.1509-.19065-.2486-.37501-.29243-.18499-.04321-.33109-.02194-.44022.06505-.43458.84532-.85224,1.53975-1.25421,2.08199-.40197.54288-.75502.90043-1.05855,1.07389-.17434.08708-.37501.16218-.60329.22731-.22764.06505-.4998.11393-.81461.14649-.31479.03257-.69483.06007-1.14007.08134-.44523.02194-.98329.03257-1.6129.03257-.71678,0-1.30878-.02127-1.77596-.06505-.46724-.04321-.84162-.09768-1.12378-.16218-.28283-.06573-.50543-.1415-.66786-.22791-.16307-.08642-.28847-.18408-.37502-.29305-.26087-.28176-.42895-.69942-.50482-1.25233-.07649-.55355-.11412-1.26359-.11412-2.13146v-2.14715c.00499-.29742.01383-.56042.02634-.78584.02131-.40074.0809-.77519.17873-1.12208.09783-.34691.24957-.71634.45653-1.10642.04894-.09331.10409-.19411.16242-.29994.07838-.00287.1599-.00383.25085-.00383h1.8901c.62962,0,1.14573.01054,1.54769.03257.40134.02127.72178.06448.96135.12962.32548.08699.55876.23921.70047.45585.1411.21666.24395.47711.30979.78082l.29284,1.26861c.08655.10896.23329.15717.4396.14652.2063-.01054.3424-.07023.40761-.17909,0-.36882-.02195-.83469-.06522-1.39885-.04391-.56418-.06522-1.13898-.06522-1.72445,0-.62867.02131-1.23604.06522-1.8215.04326-.58608.06522-1.07389.06522-1.46461-.06522-.1077-.20128-.16779-.40761-.17909-.20632-.01006-.35305.03823-.4396.14652l-.26025,1.33435c-.08714.412-.19063.68881-.30978.82966-.11979.14089-.27718.24358-.47219.3087-.19567.06515-.53304.11396-1.01026.14652-.47848.03257-1.06484.04886-1.75967.04886h-1.47249c.01127-.01811.02131-.03506.03261-.05384l2.05254-3.54597c.41199-.6944.78702-1.33936,1.12439-1.9361.33615-.59609.66784-1.1227.99334-1.57793.3261-.45522.66222-.82402,1.01028-1.1058.07213-.05823.14613-.11084.222-.1603.22072.08766.41512.19098.58257.31184.27155.19472.49352.42267.66784.68314.1737.25986.31479.55291.42389.87788.10786.3256.22765.68377.35809,1.07387.08655.10894.22824.15214.42389.13023.19501-.02128.32544-.08642.39069-.19536-.04391-.34691-.08155-.74262-.11351-1.1872-.03323-.44456-.07149-.8785-.11475-1.30117-.04326-.42329-.10035-.80086-.1461-1.13899-.11351-.83656-.0878-1.55098-.0878-1.55098,0-1.64805-.46844-3.08888-1.18334-4.29486-.71431-1.20472-1.62801-2.15586-2.73922-2.8534-1.11185-.69756-2.41374-1.18909-3.90624-1.47461-1.49315-.28552-3.23963-.4283-5.2401-.4283-2.0011,0-3.75636.02381-5.26392.07138-1.50882.04758-2.89848.15089-4.16901.30933-.19001.09518-.2935.278-.30916.54662-.01639.26988.05457.48402.21448.64244l1.7145.19037c.53994.06388.96008.16656,1.26296.30933.30102.14214.52363.40386.66662.78459.14298.38069.23017.88788.26213,1.52221.03135.6343.04765,1.45897.04765,2.47334v17.55263c0,1.23606-.01639,2.2279-.04765,2.9724-.03197.74577-.14297,1.32435-.33363,1.73634-.19063.41202-.47659.69754-.85724.85596-.3813.15904-.92185.28551-1.61978.38069l-1.00087.14279c-.14486.14463-.20946.3425-.19565.59172-.00124.50905-.00682.67059-.01755,1.24419-.01127.65682-.04138,1.39071-.08967,2.20283.04829.11961.185.19098.41262.21541.227.02319.3888-.02443.48475-.14338l.10721-.75265c.07213-.52537.16746-.9311.28721-1.21727.11978-.28678.33488-.50156.64591-.64495.31041-.14338.74691-.22792,1.3094-.25172.56189-.02319,1.30939-.03506,2.24252-.03506h4.52017c.19127,0,.34117.01197.449.03506.10724.02376.185.09015.23267.19788.04765.10706.07776.27423.09028.50093.01127.22729.01758.54288.01758.94925,0,.71696-.08967,1.25421-.26903,1.61237-.17934.35817-.47218.66875-.87921.93173-.40697.28678-.85536.58485-1.34512.89543-.49102.30994-.98142.6205-1.4712.9311-.49038.31058-.96261.60927-1.41725.89604-.45465.28617-.8491.54914-1.18399.78772-.90931.64495-1.65682,1.24797-2.24254,1.80962-.58572.56105-1.04599,1.12834-1.3809,1.70127-.33551.57295-.56816,1.17595-.69985,1.80901-.13106.63305-.1969,1.33121-.1969,2.09579,0,.6925.05957,1.21852.17873,1.57603.07211.09587.16179.13775.26964.12591.10724-.01275.18502-.0663.23329-.16155.04703-.47775.16117-.9311.34054-1.36067.17934-.43017.40009-.80087.6641-1.11082.50231-.62115,1.06985-1.206,1.70385-1.75575.63338-.54914,1.33324-1.11016,2.09892-1.68377.76507-.57292,1.62609-1.16402,2.58306-1.77266.95633-.60927,2.00922-1.27237,3.15749-1.9887.14358-.09571.29221-.17343.44837-.23292.15488-.06007.29284-.04196.41262.05384.16679.45335.41829.93738.75313,1.45083.33488.51346.74753.99749,1.23792,1.45145.49041.45335,1.06421.82905,1.72203,1.12834.65783.29805,1.41727.44773,2.27827.44773,1.268,0,2.30838-.28117,3.12176-.84219.81271-.56105,1.44672-1.27173,1.90136-2.13146.45405-.83593.74754-1.7614.87921-2.77579.13106-1.01563.20192-2.08449.19692-3.20721-.00883-2.08008.36622-3.40381.36622-3.40381" fill="#e6e5e5"/>
        </g>
      </g>
    </g>
    <g id="uuid-0d885e28-e52a-4805-b29d-30ac943c943e">
      <g id="uuid-82217691-4ca1-4f97-b28d-3061e0d9cd11">
        <path id="uuid-7831353b-686d-4d51-b342-0952f1103296" d="M4.80316,22.84902c-.21141,0-.41297-.08613-.56672-.23963-.0764-.06646-.13408-.16288-.17251-.24901-.03844-.10485-.05766-.20126-.05766-.30611,0-.10577.01922-.21155.05766-.30703.03844-.09642.09608-.18255.17251-.2593.29764-.29676.82592-.29676,1.1236,0,.0764.07675.13408.16288.17251.2593.03844.09548.05766.20126.05766.30703,0,.10485-.01922.20126-.05766.30611-.03844.08613-.0961.18253-.17251.24901-.07688.07677-.1636.1348-.25921.17319-.09612.03836-.19223.06642-.29767.06644Z" fill="#252626"/>
      </g>
      <g id="uuid-a395019e-0a56-4746-881e-34f2cef0fc88">
        <path id="uuid-cfa9acaf-6c4d-4560-8114-f366a5a31f94" d="M150.48314,22.05428c0-.44184.35532-.79568.78704-.79568h0c.44156,0,.79688.35384.79688.79568h0c0,.44091-.35532.79472-.79688.79472h0c-.43171,0-.78704-.35382-.78704-.79472ZM145.75018,22.05428c0-.44184.35532-.79568.79688-.79568h0c.44156,0,.79688.35384.79688.79568h0c0,.44091-.35532.79472-.79688.79472h0c-.44156,0-.79688-.35382-.79688-.79472ZM141.02707,22.05428c0-.44184.35532-.79568.79688-.79568h0c.44156,0,.79688.35384.79688.79568h0c0,.44091-.35532.79472-.79688.79472h0c-.44156,0-.79688-.35382-.79688-.79472ZM136.30392,22.05428c0-.44184.35532-.79568.79688-.79568h0c.44156,0,.79688.35384.79688.79568h0c0,.44091-.35532.79472-.79688.79472h0c-.44156,0-.79688-.35382-.79688-.79472ZM131.58081,22.05428c0-.44184.35485-.79568.79688-.79568h0c.43171,0,.7964.35384.7964.79568h0c0,.44091-.36467.79472-.7964.79472h0c-.44205,0-.79688-.35382-.79688-.79472ZM126.85765,22.05428c0-.44184.35485-.79568.7964-.79568h0c.43218,0,.78748.35384.78748.79568h0c0,.44091-.35532.79472-.78748.79472h0c-.44154,0-.7964-.35382-.7964-.79472ZM122.12471,22.05428c0-.44184.36468-.79568.79688-.79568h0c.44156,0,.79688.35384.79688.79568h0c0,.44091-.35532.79472-.79688.79472h0c-.4322,0-.79688-.35382-.79688-.79472ZM117.40156,22.05428c0-.44184.35484-.79568.79688-.79568h0c.44156,0,.79639.35384.79639.79568h0c0,.44091-.35484.79472-.79639.79472h0c-.44203,0-.79688-.35382-.79688-.79472ZM112.67845,22.05428c0-.44184.35484-.79568.79639-.79568h0c.44155,0,.79686.35384.79686.79568h0c0,.44091-.35531.79472-.79686.79472h0c-.44156,0-.79639-.35382-.79639-.79472ZM107.95486,22.05428c0-.44184.35531-.79568.79688-.79568h0c.43219,0,.78749.35384.78749.79568h0c0,.44091-.35531.79472-.78749.79472h0c-.44157,0-.79688-.35382-.79688-.79472ZM103.23172,22.05428c0-.44184.35531-.79568.79688-.79568h0c.43219,0,.78703.35384.78703.79568h0c0,.44091-.35485.79472-.78703.79472h0c-.44157,0-.79688-.35382-.79688-.79472ZM98.50858,22.05428c0-.44184.35531-.79568.78703-.79568h0c.44202,0,.79688.35384.79688.79568h0c0,.44091-.35485.79472-.79688.79472h0c-.43172,0-.78703-.35382-.78703-.79472ZM93.77562,22.05428c0-.44184.35531-.79568.79688-.79568h0c.44157,0,.79688.35384.79688.79568h0c0,.44091-.35531.79472-.79688.79472h0c-.44157,0-.79688-.35382-.79688-.79472ZM89.05248,22.05428c0-.44184.35531-.79568.79688-.79568h0c.44157,0,.79688.35384.79688.79568h0c0,.44091-.35531.79472-.79688.79472h0c-.44157,0-.79688-.35382-.79688-.79472ZM84.32937,22.05428c0-.44184.35531-.79568.79688-.79568h0c.44157,0,.79688.35384.79688.79568h0c0,.44091-.35531.79472-.79688.79472h0c-.44157,0-.79688-.35382-.79688-.79472ZM79.60623,22.05428c0-.44184.35531-.79568.79688-.79568h0c.43172,0,.78703.35384.78703.79568h0c0,.44091-.35531.79472-.78703.79472h0c-.44157,0-.79688-.35382-.79688-.79472ZM74.88309,22.05428c0-.44184.35531-.79568.78703-.79568h0c.44157,0,.79688.35384.79688.79568h0c0,.44091-.35531.79472-.79688.79472h0c-.4317,0-.78703-.35382-.78703-.79472ZM70.15013,22.05428c0-.44184.35531-.79568.79688-.79568h0c.44157,0,.79688.35384.79688.79568h0c0,.44091-.35531.79472-.79688.79472h0c-.44158,0-.79688-.35382-.79688-.79472ZM65.42699,22.05428c0-.44184.35531-.79568.79688-.79568h0c.44157,0,.79688.35384.79688.79568h0c0,.44091-.35531.79472-.79688.79472h0c-.44157,0-.79688-.35382-.79688-.79472ZM60.70386,22.05428c0-.44184.35531-.79568.79688-.79568h0c.44157,0,.79688.35384.79688.79568h0c0,.44091-.35531.79472-.79688.79472h0c-.44157,0-.79688-.35382-.79688-.79472ZM55.98073,22.05428c0-.44184.35485-.79568.79688-.79568h0c.43171,0,.7964.35384.7964.79568h0c0,.44091-.36469.79472-.7964.79472h0c-.44202,0-.79688-.35382-.79688-.79472ZM51.25759,22.05428c0-.44184.35485-.79568.7964-.79568h0c.43219,0,.78748.35384.78748.79568h0c0,.44091-.35531.79472-.78748.79472h0c-.44155,0-.7964-.35382-.7964-.79472ZM46.52464,22.05428c0-.44184.36469-.79568.79688-.79568h0c.44157,0,.79688.35384.79688.79568h0c0,.44091-.35531.79472-.79688.79472h0c-.43219,0-.79688-.35382-.79688-.79472ZM41.8015,22.05428c0-.44184.35485-.79568.79688-.79568h0c.44157,0,.7964.35384.7964.79568h0c0,.44091-.35485.79472-.7964.79472h0c-.44201,0-.79688-.35382-.79688-.79472ZM37.07839,22.05428c0-.44184.35485-.79568.7964-.79568h0c.44157,0,.79688.35384.79688.79568h0c0,.44091-.35531.79472-.79688.79472h0c-.44157,0-.7964-.35382-.7964-.79472ZM32.35479,22.05428c0-.44184.35531-.79568.79688-.79568h0c.44157,0,.78748.35384.78748.79568h0c0,.44091-.34593.79472-.78748.79472h0c-.44157,0-.79688-.35382-.79688-.79472ZM27.63166,22.05428c0-.44184.35531-.79568.79688-.79568h0c.43219,0,.78703.35384.78703.79568h0c0,.44091-.35483.79472-.78703.79472h0c-.44157,0-.79688-.35382-.79688-.79472ZM22.90852,22.05428c0-.44184.35531-.79568.78703-.79568h0c.44205,0,.79688.35384.79688.79568h0c0,.44091-.35485.79472-.79688.79472h0c-.43171,0-.78703-.35382-.78703-.79472ZM18.17557,22.05428c0-.44184.35531-.79568.79688-.79568h0c.44157,0,.79688.35384.79688.79568h0c0,.44091-.35531.79472-.79688.79472h0c-.44155,0-.79688-.35382-.79688-.79472ZM13.45245,22.05428c0-.44184.35531-.79568.79688-.79568h0c.44157,0,.79688.35384.79688.79568h0c0,.44091-.35531.79472-.79688.79472h0c-.44157,0-.79688-.35382-.79688-.79472ZM8.72932,22.05428c0-.44184.35531-.79568.79688-.79568h0c.44157,0,.79688.35384.79688.79568h0c0,.44091-.35531.79472-.79688.79472h0c-.44157,0-.79688-.35382-.79688-.79472Z" fill="#252626"/>
      </g>
      <g id="uuid-7e95e91b-010b-4842-b2a5-1b3e9b290d9b">
        <path id="uuid-88226da7-f116-45f0-849c-ef9da8377eb2" d="M156.00315,22.84902c-.10547,0-.21141-.0281-.30748-.06648-.09556-.03838-.18235-.09642-.25921-.17317-.07647-.06646-.13407-.16288-.17251-.24901-.03837-.10485-.05776-.20126-.05776-.30611,0-.10577.01919-.21155.05776-.30703.03837-.09642.09613-.18253.17251-.2593.29765-.29674.83531-.29674,1.1236,0,.07638.07677.13407.16288.17248.2593.03837.09548.05776.20126.05776.30703,0,.10485-.01919.20126-.05776.30611-.03837.08613-.09613.18255-.17248.24901-.1444.15352-.34596.23965-.5569.23965Z" fill="#252626"/>
      </g>
    </g>
    <g id="uuid-5110a3b7-9fc2-4e75-a3b2-01ff060286fc">
      <g id="uuid-35901cf4-5e7c-4b53-a8b2-e68be376ed1e">
        <path id="uuid-b7194e89-a704-4590-ae07-2b288c0be86b" d="M8.48489,182.11774c0-3.42676,2.79542-6.21798,6.22733-6.21798,1.67379,0,3.24733.65175,4.41921,1.83861l.55243.56835-2.07568,1.80514-.48539-.46795c-.65298-.63527-1.50676-.98609-2.41057-.98609-1.9084,0-3.46515,1.55444-3.46515,3.45993,0,1.92198,1.55675,3.47667,3.46515,3.47667.92054,0,1.75758-.35107,2.41057-.98633v-1.47079h-3.08028v-2.758h5.84221v5.21513l-.13378.20053c-1.20542,1.60461-3.09706,2.55727-5.03867,2.55727-3.43194-.00007-6.22737-2.79132-6.22737-6.23451h-.00001Z" fill="#252626"/>
      </g>
      <g id="uuid-1e78c87d-f9c3-498c-8ca0-10f8d2ceb33b">
        <path id="uuid-9c8eb968-2f59-4ce6-82ad-a199e3f1683c" d="M27.58314,176.26733h8.11897v2.84169h-5.20626v1.01955h4.55354v2.89162h-4.55354v2.27336h5.08923v2.87489h-8.00193s-.00002-11.90112,0-11.90112Z" fill="#252626"/>
      </g>
      <g id="uuid-bc807c46-2f75-417e-9c9c-a41b6cf38c8b">
        <path id="uuid-2e06621d-c5ce-4625-93ad-147471e49f7e" d="M54.3825,182.15096c0,3.39326-2.81245,6.16779-6.21059,6.16779-3.41489,0-6.19382-2.77452-6.19382-6.16779,0-3.4265,2.77895-6.20101,6.19382-6.20101,3.39815,0,6.21059,2.77449,6.21059,6.20101ZM51.45277,182.15096c0-1.82187-1.45624-3.34285-3.28085-3.34285s-3.29786,1.52098-3.29786,3.34285c0,1.80538,1.47325,3.29289,3.29786,3.29289s3.28085-1.48752,3.28085-3.29289Z" fill="#252626"/>
      </g>
      <g id="uuid-1e04a208-39e4-44ca-a7e4-7a999565f424">
        <path id="uuid-5e086381-f9b3-4810-ad14-0a2f34a1fce0" d="M61.22715,176.26733h4.13489c3.36462,0,6.09329,2.67435,6.09329,5.95054s-2.72867,5.95057-6.09329,5.95057h-4.13489v-11.90112ZM68.57612,182.21787c0-1.688-1.43974-3.09211-3.21408-3.09211h-1.2557v6.18453h1.2557c1.77432-.00001,3.21408-1.40416,3.21408-3.09242Z" fill="#252626"/>
      </g>
      <g id="uuid-aa16e3cd-84ab-4557-9bc5-5843b0a8fe59">
        <path id="uuid-26e65bc5-03a2-4956-94d9-4b70cb02af82" d="M78.41728,176.26733h8.11897v2.84169h-5.20597v1.01955h4.553v2.89162h-4.553v2.27336h5.0887v2.87489h-8.00167l-.00002-11.90112Z" fill="#252626"/>
      </g>
      <g id="uuid-06266dd7-ff47-45ce-907b-18d08f5e46e0">
        <path id="uuid-9dca7769-453a-4caf-b774-4200cb87abdc" d="M97.01389,188.13496c-1.20514-.25073-2.31002-.80235-3.73299-2.0224l1.90839-2.1897c1.05462.91917,1.67407,1.27025,2.41055,1.40413.21758.04991.43515.08355.63621.08355.33458,0,.63596-.06659.87028-.18379.20108-.10037.55243-.31764.55243-.76884,0-.46795-.87053-.75213-1.62381-.90269-.33458-.06659-1.97514-.41776-2.64487-.81904-1.13838-.66847-1.72406-1.68804-1.72406-2.95854,0-.70193.23432-1.37067.61919-1.93872.38516-.53487.92081-.95289,1.54029-1.23705l-.01673.01706c.63596-.30088,1.35597-.45121,2.04218-.45121.28461,0,.55242.01706.88731.06678,1.07136.18374,2.05894.61826,3.43164,1.75492l-1.84138,2.20644c-1.23892-1.01955-1.87487-1.17014-2.51108-1.17014-.3181,0-.5692.06678-.77001.16734-.3181.1336-.48539.36757-.48539.58479,0,.45151.60271.66872,1.57351.86924.10054.03343.21758.03343.33486.06678.65271.15031,1.62381.3511,2.25975.71864h-.01689c1.20542.66872,1.84136,1.72175,1.84136,3.02548,0,.76884-.2008,1.4875-.63596,2.08931-.38512.55158-.95431.95262-1.59028,1.27024-.66972.35111-1.35595.45149-2.1092.45149-.40187.00004-.837-.05011-1.20539-.13378l.00009-.00026h0Z" fill="#252626"/>
      </g>
      <g id="uuid-76de548c-36e9-4df0-ae44-0d5011510f7f">
        <path id="uuid-a12f7088-fed6-42c5-8669-e22b988f5346" d="M109.93534,176.26733h2.913v11.90112h-2.913v-11.90112Z" fill="#252626"/>
      </g>
      <g id="uuid-c72ebbe3-91e5-4dc2-9bd8-91580699fd88">
        <path id="uuid-c72d7d4f-a94e-45f0-959d-0de9152bcf30" d="M129.40306,183.78905l2.29324,1.68829c-1.48974,1.98917-3.24761,2.85817-5.18922,2.85817-3.41519,0-6.2106-2.79126-6.2106-6.20101,0-3.41003,2.79543-6.18453,6.2106-6.18453,1.97514,0,3.7665.91918,5.25627,2.90837l-2.32678,1.70472c-.93758-1.25351-1.89164-1.75494-2.92948-1.75494-1.85814,0-3.33138,1.48752-3.33138,3.32636,0,1.85535,1.47327,3.32611,3.33138,3.32611,1.03781.00001,1.95837-.43448,2.89597-1.67154h0Z" fill="#252626"/>
      </g>
      <g id="uuid-3aacca8f-319b-43fb-b054-ac2f4dce2dbc">
        <path id="uuid-6748cf7c-a318-4ac3-a5a1-02055e1cb05e" d="M141.55422,188.13496c-1.20515-.25073-2.31003-.80235-3.73299-2.0224l1.90838-2.1897c1.05462.91917,1.67408,1.27025,2.41055,1.40413.21758.04991.43514.08355.63626.08355.3346,0,.63593-.06659.87029-.18379.20109-.10037.55244-.31764.55244-.76884,0-.46795-.87055-.75213-1.6238-.90269-.3346-.06659-1.97514-.41776-2.64489-.81904-1.13842-.66847-1.72406-1.68804-1.72406-2.95854,0-.70193.23432-1.37067.61919-1.93872.38514-.53487.92081-.95289,1.54029-1.23705l-.01669.01706c.63595-.30088,1.35597-.45121,2.04218-.45121.2846,0,.55244.01706.88732.06678,1.07135.18374,2.05894.61826,3.43164,1.75492l-1.84138,2.20644c-1.23891-1.01955-1.87485-1.17014-2.51109-1.17014-.31811,0-.56919.06678-.77.16734-.31811.1336-.48541.36757-.48541.58479,0,.45151.6027.66872,1.57351.86924.10058.03343.21758.03343.33488.06678.65271.15031,1.6238.3511,2.25975.71864h-.01669c1.2054.66872,1.84138,1.72175,1.84138,3.02548,0,.76884-.2008,1.4875-.63595,2.08931-.38512.55158-.95433.95262-1.59028,1.27024-.66973.35111-1.35595.45149-2.10919.45149-.40189.00004-.83704-.05011-1.20542-.13378l-.00013-.00026h-.00007Z" fill="#252626"/>
      </g>
    </g>
    <g id="uuid-6be3f606-73e4-4354-a04b-f50697afc15a">
      <g id="uuid-4ed3d799-0abb-4c44-8394-dd7c4eff2b01">
        <path id="uuid-0bb4600b-7617-4b64-b38a-ffe803b5d26d" d="M51.44801,277.34987c-.11813,2.12399-1.09689,3.31-2.7675,3.31-1.90502,0-2.97562-1.47246-2.97562-4.80869s1.0706-4.80869,2.97562-4.80869c1.89282,0,2.67563,1.34235,2.67563,2.86726h-.83532c0-1.26467-.63939-2.16331-1.84031-2.16331-1.33125,0-2.14032,1.0943-2.14032,4.10477s.80907,4.10477,2.14032,4.10477c1.17468,0,1.84031-1.00349,1.93219-2.60608h.83532v-.00003Z" fill="#252626"/>
      </g>
      <g id="uuid-1fe5f03a-c39d-4d21-8045-5095602bc20e">
        <path id="uuid-2f8a092e-9cca-45e4-b6c6-ca95adf415df" d="M54.60832,273.42669c1.52719,0,2.38875,1.21224,2.38875,3.61051,0,2.41043-.86158,3.62267-2.38875,3.62267s-2.3878-1.21224-2.3878-3.62267c-.00003-2.39826.86062-3.61051,2.3878-3.61051ZM54.60832,280.00837c.87469,0,1.55343-.75637,1.55343-2.97114,0-2.20263-.67875-2.95804-1.55342-2.95804-.87376,0-1.5525.75544-1.5525,2.95804,0,2.21483.67876,2.97114,1.5525,2.97114h-.00001Z" fill="#252626"/>
      </g>
      <g id="uuid-28c66a8f-eef2-4600-9bf1-0070787d355b">
        <path id="uuid-0444c686-ce7a-4b59-934a-219cd621ed57" d="M61.80268,279.35684h-.02625c-.20906.79473-.87469,1.30303-1.69687,1.30303-1.52719,0-2.21906-1.22534-2.21906-3.62267,0-2.38516.69187-3.61051,2.21906-3.61051.86158,0,1.44844.4699,1.61812,1.19915h.02625v-3.42704h.78281v9.30474h-.70407v-1.14669ZM60.20987,280.00837c.79594,0,1.51407-.40438,1.51407-2.97114,0-2.5546-.71814-2.95804-1.51408-2.95804-.78281,0-1.51408.40345-1.51408,2.95804.00002,2.56679.73126,2.97114,1.51408,2.97114Z" fill="#252626"/>
      </g>
      <g id="uuid-dd555651-482f-46ae-83c1-afa9ffc16851">
        <path id="uuid-e0ab22c6-c1a8-4496-8e8f-0c442f7fe7bb" d="M68.21333,278.21015c-.11718,1.47246-.9272,2.44975-2.2322,2.44975-1.46157,0-2.32313-1.01659-2.32313-3.62267,0-2.39826.86158-3.61051,2.38875-3.61051,1.54031,0,2.2322,1.05591,2.2322,3.36246v.28738h-3.78563v.32576c0,1.99388.70501,2.60608,1.47467,2.60608.82219,0,1.33125-.58694,1.46249-1.79822h.78283v-.00003ZM67.44365,276.42409c-.02625-1.7196-.50906-2.3449-1.47562-2.3449-.96561,0-1.44844.6253-1.47467,2.3449h2.95031-.00001Z" fill="#252626"/>
      </g>
      <g id="uuid-b16d6bfd-647b-4c0f-ac86-ef87e5f33977">
        <path id="uuid-27cd58cb-7f33-4223-82ad-9f77a1b37837" d="M77.26114,279.36994c-.52221.78163-1.33125,1.28993-2.4797,1.28993-1.60593,0-2.61092-1.0943-2.61092-2.46285,0-.97729.49593-1.74673,1.34438-2.39826l.77063-.58601c-.66562-.87338-1.07061-1.56421-1.07061-2.29435,0-1.1205.87469-1.7196,1.90594-1.7196,1.08281,0,1.7878.69082,1.7878,1.7196,0,.75637-.31312,1.4603-1.64437,2.39826l2.01,2.81484c.23438-.57288.32625-1.18602.33939-1.75893h.78281c0,.80786-.23531,1.66812-.65249,2.41043l1.22719,1.72054h-.8878l-.82221-1.1336h-.00004ZM74.67646,275.73417c-1.31813.91174-1.67062,1.64189-1.67062,2.37113,0,1.10833.86158,1.85064,1.89281,1.85064.75656,0,1.59188-.45587,1.9575-1.17292l-2.17968-3.04885ZM74.87239,274.78217c1.03123-.78163,1.25343-1.38074,1.25343-1.88903,0-.60004-.45751-1.04281-1.0575-1.04281-.61312,0-1.07063.44277-1.07063,1.04281.00002.4952.35251,1.18602.8747,1.88903Z" fill="#252626"/>
      </g>
      <g id="uuid-14e6d92b-5d14-4354-96f1-c944a87ee787">
        <path id="uuid-f9ead47b-a031-49d8-95fe-e82bda8f84a2" d="M82.78581,273.58303h.78373v1.08211h.02625c.30002-.76854.93939-1.23844,1.74844-1.23844.09187,0,.18282.0136.27468.03918v.78163c-.13124-.0252-.26156-.03833-.37874-.03833-.86158,0-1.67063.6253-1.67063,1.96765v4.32662h-.78373s.00002-6.92054,0-6.92054v.00012Z" fill="#252626"/>
      </g>
      <g id="uuid-cf06102c-a526-4f0c-8c54-a60d64e47d28">
        <path id="uuid-4b85b7b8-0f04-46ed-ade2-162f21df61eb" d="M90.68425,278.21015c-.11718,1.47246-.9272,2.44975-2.23218,2.44975-1.46158,0-2.32313-1.01659-2.32313-3.62267,0-2.39826.86158-3.61051,2.38875-3.61051,1.54031,0,2.23218,1.05591,2.23218,3.36246v.28738h-3.78562v.32576c0,1.99388.70501,2.60608,1.47467,2.60608.82219,0,1.33125-.58694,1.46249-1.79822h.78283v-.00003ZM89.91457,276.42409c-.02625-1.7196-.50908-2.3449-1.4756-2.3449-.96561,0-1.44844.6253-1.47467,2.3449h2.95028-.00001Z" fill="#252626"/>
      </g>
      <g id="uuid-0d971d13-1782-491c-918e-7af277afc101">
        <path id="uuid-dfabd794-7c44-4fb2-a64b-c205de240a24" d="M92.03051,271.1988h.78281v9.30474h-.78281v-9.30474Z" fill="#252626"/>
      </g>
      <g id="uuid-e082d9f3-1072-4088-bc54-2335769d82ef">
        <path id="uuid-eb189e88-e296-47cd-adf3-fb4f11285dba" d="M98.64833,278.21015c-.11718,1.47246-.9272,2.44975-2.23218,2.44975-1.46156,0-2.3231-1.01659-2.3231-3.62267,0-2.39826.86158-3.61051,2.38874-3.61051,1.54031,0,2.23218,1.05591,2.23218,3.36246v.28738h-3.78563v.32576c0,1.99388.70501,2.60608,1.47467,2.60608.82219,0,1.33125-.58694,1.46249-1.79822h.78281l.00002-.00003ZM97.87864,276.42409c-.02619-1.7196-.50906-2.3449-1.47562-2.3449-.96561,0-1.44844.6253-1.47467,2.3449h2.95031-.00001Z" fill="#252626"/>
      </g>
      <g id="uuid-fd1e9dae-2ee2-47a1-8348-2cff1e404601">
        <path id="uuid-85f8e00b-17d8-4aa1-80c4-9eb8e3a465ec" d="M99.79862,275.64243c0-1.42006.67876-2.21573,2.14125-2.21573,1.43531,0,1.9575.74325,1.9575,1.83755v4.0926c0,.39129.13031.57288.40405.57288h.22219v.57381c-.14344.05251-.26063.07856-.36562.07856-.61312,0-1.00501-.14417-1.00501-.86025v-.23495h-.02619c-.31312.91268-1.01813,1.17292-1.7878,1.17292-1.21406,0-1.76157-.75544-1.76157-1.95455,0-.91268.4172-1.64189,1.39595-1.9162l1.47467-.41658c.54843-.15627.66562-.28738.66562-1.09524,0-.88554-.49593-1.19821-1.19999-1.19821-.9272,0-1.33125.55978-1.33125,1.56327l-.78379.00009v.00003ZM103.11364,276.59349h-.02533c-.07868.23495-.52218.37819-.83532.45681l-.65252.16937c-.78373.20782-1.18781.6122-1.18781,1.43316,0,.80786.4172,1.35545,1.09593,1.35545.95251,0,1.60501-.71705,1.60501-1.95455v-1.4603h.00003s0,.00006,0,.00006Z" fill="#252626"/>
      </g>
      <g id="uuid-5c321e32-c991-4002-a114-cdfda505e907">
        <path id="uuid-28c916b7-6a0d-408b-aeb1-7c039463491e" d="M106.60112,277.06343c-.97876-.37819-1.33125-.952-1.33125-1.64285,0-1.42006.8878-1.99388,2.06251-1.99388,1.305,0,1.90499.66463,1.90499,1.92929v.19566h-.78281v-.19566c0-.89958-.41813-1.27683-1.1353-1.27683-.91405,0-1.26657.4821-1.26657,1.17198,0,.48303.15657.86025.94031,1.16076l1.1353.42967c.93939.35196,1.29188,1.00349,1.29188,1.75893,0,1.18602-.67876,2.0594-2.14031,2.0594-1.42312,0-2.12721-.58601-2.12721-2.15021v-.22185h.78281v.18253c0,1.01659.44342,1.53801,1.33125,1.53801.83532,0,1.37063-.469,1.37063-1.23844,0-.6122-.24844-1.00349-.94031-1.27683l-1.09592-.42967Z" fill="#252626"/>
      </g>
      <g id="uuid-9ca7b2af-10f6-4b14-9ae5-3de09c1d8911">
        <path id="uuid-09a7a3b8-aba3-48b8-8b23-c236c4d572e5" d="M114.85206,278.21015c-.11718,1.47246-.9272,2.44975-2.23219,2.44975-1.46158,0-2.32314-1.01659-2.32314-3.62267,0-2.39826.86158-3.61051,2.38875-3.61051,1.5403,0,2.23219,1.05591,2.23219,3.36246v.28738h-3.78563v.32576c0,1.99388.70502,2.60608,1.47467,2.60608.8222,0,1.33125-.58694,1.4625-1.79822l.78285-.00003ZM114.08238,276.42409c-.02619-1.7196-.50908-2.3449-1.47561-2.3449-.96564,0-1.44842.6253-1.47467,2.3449h2.95028Z" fill="#252626"/>
      </g>
      <g id="uuid-d3e091d4-f1a6-4f8c-9979-7ef90985cbce">
        <path id="uuid-5fbdc7f7-0e84-4fad-92cf-f2b92ac95e33" d="M54.27646,286.84371h2.32312l1.64531,6.89338h.02532l1.61906-6.89338h2.27061v9.30474h-1.40906v-7.74147h-.02625l-1.87969,7.74147h-1.25251l-1.87969-7.74147h-.02623v7.74147h-1.41002s-.00002-9.30474,0-9.30474h.00002Z" fill="#252626"/>
      </g>
      <g id="uuid-ac6772b5-ea9d-4ad7-b816-fa007d590601">
        <path id="uuid-04d50227-c12f-4d7e-9518-795e43f846d1" d="M68.21896,294.68909c0,.26024.15657.4952.36562.4952.09189,0,.18282-.0136.23531-.03918v.91268c-.16969.07768-.41813.16937-.69188.16937-.62624,0-1.14843-.24808-1.18781-.9258h-.02624c-.37874.69082-.92624,1.02969-1.74844,1.02969-1.12313,0-1.82719-.6253-1.82719-1.96765,0-1.56421.67876-1.88997,1.63125-2.20263l1.09593-.29954c.50906-.14315.82219-.28738.82219-.89958,0-.63843-.22125-1.04281-.96561-1.04281-.93939,0-1.06968.66463-1.06968,1.34235h-1.33221c0-1.48559.61405-2.30654,2.46751-2.30654,1.23938,0,2.23125.4821,2.23125,1.72054v4.01398l.00003-.00012v.00006ZM66.88771,292.44716c-.36469.28644-1.14845.45587-1.56561.65153-.405.19566-.57469.61314-.57469,1.1336,0,.58694.28688,1.05591.87469,1.05591.84843,0,1.26563-.63843,1.26563-1.66812,0,0,0-1.17292,0-1.17292h-.00001Z" fill="#252626"/>
      </g>
      <g id="uuid-889265cc-7a34-4638-b69c-6a90401d8ef9">
        <path id="uuid-ca5122ec-dd86-4f5b-9133-0bbcdc7afbda" d="M69.65801,289.13713h1.41v1.0943h.02532c.31312-.78163.83532-1.27683,1.63219-1.27683.15657,0,.2475.02626.33939.05251v1.43316c-.10502-.02626-.35249-.07768-.58782-.07768-.63939,0-1.40905.28644-1.40905,1.5895v4.19648h-1.41002v-7.01132h-.00002v-.00012Z" fill="#252626"/>
      </g>
      <g id="uuid-34ec375f-eba9-4e1e-933c-070490b951be">
        <path id="uuid-a30a800e-d6f3-4c6e-bd37-af4e7d5308ac" d="M78.27362,293.59386c-.09189,1.68121-.66562,2.73712-2.40186,2.73712-2.03624,0-2.61001-1.51178-2.61001-3.68819s.57375-3.68819,2.61001-3.68819c2.10095-.02626,2.415,1.64189,2.415,2.51527h-1.41c0-.65153-.1828-1.49868-1.00501-1.47246-1.01813,0-1.20094,1.0943-1.20094,2.64541s.18282,2.64541,1.20094,2.64541c.78281.0136,1.07061-.63843,1.07061-1.69434h1.33126v-.00003Z" fill="#252626"/>
      </g>
      <g id="uuid-4060ab8d-f82f-49a1-bbb1-102b7d887de2">
        <path id="uuid-bdd1689b-92f6-481e-af4c-7e3bb525dc70" d="M82.55707,286.84371h3.015c1.38373,0,2.50593.6122,2.50593,2.25412,0,1.1336-.44342,1.82445-1.36969,2.11182v.02538c1.01719.18253,1.67063.79567,1.67063,2.37207,0,1.55111-1.12313,2.5415-2.87157,2.5415h-2.95031v-9.30489ZM85.21955,290.76592c.90092,0,1.37061-.59911,1.37061-1.47246,0-1.1074-.66562-1.32925-1.50095-1.32925h-1.04437v2.80171h1.17471ZM85.52049,295.02795c.88687,0,1.36969-.57381,1.36969-1.64189,0-1.00349-.59999-1.5773-1.46158-1.5773h-1.38375v3.21922h1.47564v-.00003Z" fill="#252626"/>
      </g>
      <g id="uuid-d17946b0-a938-49d1-b80a-02241c65a5ed">
        <path id="uuid-a14028c8-12c5-43d6-994e-8af46683b97d" d="M91.81394,288.9546c2.04939,0,2.62314,1.51178,2.62314,3.68819s-.66562,3.68819-2.62314,3.68819c-1.94437,0-2.61001-1.51178-2.61001-3.68819s.57375-3.68819,2.61001-3.68819ZM91.81394,295.2882c1.03123,0,1.21406-.86025,1.21406-2.64541,0-1.55111-.18282-2.64541-1.21406-2.64541-1.01813,0-1.20094,1.0943-1.20094,2.64541-.00002,1.78512.1828,2.64541,1.20094,2.64541Z" fill="#252626"/>
      </g>
      <g id="uuid-90916c8c-e75d-4a09-a084-408d5d7e60d6">
        <path id="uuid-88cba6d7-586f-4170-8085-ba1c7b52aae4" d="M99.11143,295.32752h-.03838c-.35249.6253-1.01813,1.00349-1.80186,1.00349-1.04342,0-1.74844-.4821-1.74844-2.29342v-4.90044h1.40905v5.03057c0,.78163.35249,1.04281.95343,1.04281.59999,0,1.14843-.39129,1.14843-1.17292v-4.90044h1.40908v7.01132h-1.33127v-.82096h-.00002v-.00003Z" fill="#252626"/>
      </g>
      <g id="uuid-9fa492c5-5ad9-48a5-8bf7-7862422bc85b">
        <path id="uuid-7715ac9b-4a26-4d88-a07b-8ab296e3cf91" d="M101.86863,286.84371h1.40905v9.30474h-1.40905v-9.30474Z" fill="#252626"/>
      </g>
      <g id="uuid-3dec2674-b47c-47c0-b05c-195a001959bc">
        <path id="uuid-db33a45d-bbe6-408c-b8a8-130ee5e63d0a" d="M105.91581,292.82532v.40438c0,.93797.11718,2.13711,1.17468,2.13711,1.00501,0,1.12219-1.14672,1.12219-1.56421h1.33126c0,1.55111-.93939,2.52837-2.46656,2.52837-1.14843,0-2.57155-.33886-2.57155-3.58431,0-1.83755.39187-3.7921,2.5978-3.7921,1.9575,0,2.4797,1.17292,2.4797,3.12747v.74325s-3.66753,0-3.66752,0v.00003ZM108.17332,291.86116v-.37819c0-.88648-.28688-1.56421-1.08281-1.56421-.90092,0-1.17468.88648-1.17468,1.79916v.14332l2.25749-.00003v-.00006ZM107.27332,286.34852h1.56561l-1.38373,1.87687h-.96561l.78373-1.87687Z" fill="#252626"/>
      </g>
    </g>
    <g id="uuid-4a649f10-bbc8-4ef6-8717-c7395b36bbd9">
      <g id="uuid-eedb038e-af10-42ed-aa21-b52f11bd361a">
        <path id="uuid-95490a6d-d2fc-4155-ab82-6cf8e405ea9a" d="M52.17316,317.55125c-.11813,2.12399-1.09688,3.31-2.7675,3.31-1.90502,0-2.97562-1.47246-2.97562-4.80869s1.0706-4.80869,2.97562-4.80869c1.89282,0,2.67563,1.34235,2.67563,2.86726h-.83531c0-1.26467-.63939-2.16331-1.84031-2.16331-1.33125,0-2.14032,1.0943-2.14032,4.10477s.80907,4.10477,2.14032,4.10477c1.17468,0,1.84031-1.00349,1.9322-2.60608h.8353v-.00003Z" fill="#252626"/>
      </g>
      <g id="uuid-a1df4e75-51a0-4d8a-9dc9-2144a6cd73b1">
        <path id="uuid-8fa82dc4-d92a-4df8-8c3f-a96ed7eaebd1" d="M55.33348,313.62811c1.52719,0,2.38875,1.21224,2.38875,3.61051,0,2.41043-.86158,3.62267-2.38875,3.62267-1.52626,0-2.3878-1.21224-2.3878-3.62267-.00002-2.39823.86154-3.61051,2.3878-3.61051ZM55.33348,320.20978c.87469,0,1.55342-.75637,1.55342-2.97114,0-2.20263-.67875-2.95804-1.55342-2.95804-.87376,0-1.5525.75544-1.5525,2.95804-.00002,2.2148.67874,2.97114,1.5525,2.97114Z" fill="#252626"/>
      </g>
      <g id="uuid-1f5c1aa8-56d9-47c5-87ad-c94484a5eed5">
        <path id="uuid-10703c14-5294-4f60-8a34-6a1800be8231" d="M58.87255,313.78444h.70501v.96513h.02625c.39187-.76947,1.07061-1.12143,1.77467-1.12143,1.0575,0,1.77564.54762,1.77564,1.85064v5.2262h-.78281v-5.00435c0-.95107-.39187-1.42006-1.18782-1.42006-.91405,0-1.52717.70302-1.52717,1.77203v4.65238h-.78376s-.00002-6.92054,0-6.92054Z" fill="#252626"/>
      </g>
      <g id="uuid-88591232-098f-4433-a589-cd3eac2b2647">
        <path id="uuid-783d56e1-47b6-461f-b1ef-eba2b804cdae" d="M68.83441,318.41153c-.11814,1.47246-.9272,2.44975-2.20593,2.44975-1.46249,0-2.32313-1.01659-2.32313-3.62267,0-2.39826.86062-3.61051,2.3878-3.61051,1.30592,0,2.06251.79567,2.14125,2.21573h-.78373c-.09093-1.08117-.52221-1.56327-1.3575-1.56327-.84843,0-1.55251.52046-1.55251,2.97114,0,2.60608.74343,2.95804,1.47467,2.95804.79594,0,1.30502-.58694,1.43533-1.79822.00002-.00003.78373-.00003.78376-.00003,0,0,0,.00003,0,.00003Z" fill="#252626"/>
      </g>
      <g id="uuid-4e83935d-e689-4296-8a5e-68d16c0079ab">
        <path id="uuid-2d18871d-f327-44ec-bfdf-aad93485fb08" d="M74.25222,318.41153c-.11718,1.47246-.9272,2.44975-2.2322,2.44975-1.46158,0-2.32313-1.01659-2.32313-3.62267,0-2.39826.86158-3.61051,2.38875-3.61051,1.54031,0,2.2322,1.05591,2.2322,3.36246v.28738h-3.78563v.32576c0,1.99388.70501,2.60608,1.47467,2.60608.8222,0,1.33125-.58694,1.46251-1.79822h.78281l.00002-.00003ZM73.48254,316.62547c-.02625-1.7196-.50906-2.3449-1.47562-2.3449-.96561,0-1.44844.6253-1.47467,2.3449h2.95031-.00001Z" fill="#252626"/>
      </g>
      <g id="uuid-a2fd7b3c-aefc-49ea-b83e-33b5b48d3f3b">
        <path id="uuid-975f8134-e44b-4add-b1fd-cb21455c815e" d="M75.46817,313.78444h.70501v.99133h.02625c.2475-.63934.82219-1.14766,1.70905-1.14766,1.54031,0,2.20593,1.22534,2.20593,3.62361,0,2.38423-.69188,3.60957-2.21906,3.60957-.86062,0-1.44844-.469-1.61812-1.19915h-.02624v3.33623h-.78281v-9.21396.00003ZM77.79128,314.28054c-.44344,0-.83532.23402-1.09593.6122-.33939.4821-.44436,1.15982-.44436,2.35894,0,2.55366.71811,2.95804,1.51407,2.95804.78281,0,1.51407-.40438,1.51407-2.95804-.00003-2.51527-.73127-2.97114-1.48785-2.97114Z" fill="#252626"/>
      </g>
      <g id="uuid-02c749af-f6c9-40bd-949b-45cc505d084a">
        <path id="uuid-71b004d3-70ba-401b-a5d6-513c9cab9f45" d="M81.63129,314.43687h-.95343v-.65246h.95343v-1.91526h.78283v1.91526h1.22719v.65246h-1.22719v4.96502c0,.54762.23531.72921.74439.72921.15657,0,.31312-.02538.48281-.07768v.65153c-.09187.05231-.28781.07856-.54843.07856-1.05749,0-1.46156-.28738-1.46156-1.21224v-5.13439h-.00004Z" fill="#252626"/>
      </g>
      <g id="uuid-361a8fa7-8253-4d07-ab16-02b277e0a0d8">
        <path id="uuid-66af737a-7dd4-4c33-8a45-7fbad5484723" d="M92.24473,319.57135c-.52218.78163-1.33125,1.28993-2.4797,1.28993-1.60593,0-2.61092-1.0943-2.61092-2.46285,0-.97729.49593-1.74673,1.34438-2.39826l.77061-.58601c-.66562-.87338-1.07061-1.56421-1.07061-2.29435,0-1.1205.87467-1.7196,1.90594-1.7196,1.08281,0,1.78782.69082,1.78782,1.7196,0,.75637-.31312,1.4603-1.64437,2.39826l2.01,2.81484c.23438-.57288.32625-1.18602.33936-1.75893h.7828c0,.80786-.23531,1.66812-.65252,2.41043l1.22719,1.72054h-.8878s-.82217-1.1336-.82218-1.1336ZM89.66003,315.93556c-1.31813.91174-1.67062,1.64189-1.67062,2.37113,0,1.10833.86158,1.85064,1.89281,1.85064.75658,0,1.59188-.45587,1.9575-1.17292l-2.17968-3.04885ZM89.85598,314.98356c1.03123-.78163,1.25344-1.38074,1.25344-1.88903,0-.60004-.45751-1.04281-1.0575-1.04281-.61312,0-1.07063.44277-1.07063,1.04281,0,.4952.35249,1.18602.87468,1.88903Z" fill="#252626"/>
      </g>
      <g id="uuid-c5599455-9b53-403f-b8eb-1916893f182f">
        <path id="uuid-689227f8-7d2b-4ce3-b7f9-9c9192798ef9" d="M100.3794,316.66477v-.70395h2.98875v4.7441h-.65252v-1.53798h-.02619c-.28688,1.02969-1.12219,1.69434-2.04937,1.69434-1.90501,0-2.97563-1.47246-2.97563-4.80869s1.07061-4.80869,2.97563-4.80869c1.77564,0,2.57155,1.15982,2.67563,2.76242h-.83532c0-1.1205-.61312-2.05846-1.8403-2.05846-1.33125,0-2.14031,1.0943-2.14031,4.10477s.80907,4.10477,2.14031,4.10477c1.25343,0,1.94533-1.1205,1.94533-3.29691v-.19566l-2.20601-.00006Z" fill="#252626"/>
      </g>
      <g id="uuid-5a8f3454-642f-4743-a0fa-5c709df2c8ef">
        <path id="uuid-b08032c5-d788-485f-b812-c6f2c00b4bbd" d="M104.62349,311.40021h.83532v6.68556c0,1.39384.60094,2.07156,1.82719,2.07156,1.22719,0,1.82814-.67772,1.82814-2.07156v-6.68556h.83532v6.69869c0,1.95455-.95343,2.76242-2.66343,2.76242-1.70907,0-2.66251-.80786-2.66251-2.76242-.00002,0-.00002-6.69869-.00004-6.69869Z" fill="#252626"/>
      </g>
      <g id="uuid-b412160f-b49b-485a-8894-e5c0fb842c87">
        <path id="uuid-823c45f7-6ac7-47fe-9b68-66af0d49e524" d="M111.33504,311.40021h.83532v9.30474h-.83532v-9.30474Z" fill="#252626"/>
      </g>
      <g id="uuid-da17d549-fdb5-44ea-b898-f1dd1499faba">
        <path id="uuid-8082ade2-5dad-482e-ad83-4ce8bc87d63e" d="M47.73597,327.0451h2.95031c1.7878,0,2.57063,1.1205,2.57063,2.71093,0,1.66812-.97875,2.74929-2.7272,2.74929h-1.30594v3.84452h-1.48782s0-9.30474.00002-9.30474ZM49.22379,331.38482h1.05751c.79594,0,1.4878-.43061,1.4878-1.60353,0-1.00349-.40405-1.61569-1.59188-1.61569h-.95343v3.21922Z" fill="#252626"/>
      </g>
      <g id="uuid-d683a343-489c-4eaa-8f9b-9df16c63b0b6">
        <path id="uuid-244267d0-f947-4f40-bcb8-225357f7fab3" d="M54.2394,326.94025h1.40906v1.40787h-1.40906v-1.40787ZM54.2394,329.33851h1.40906v7.01132h-1.40906v-7.01132Z" fill="#252626"/>
      </g>
      <g id="uuid-f1061607-7845-49ea-949c-e6efdd4c596b">
        <path id="uuid-995758f2-927f-4299-adbb-f62fd6968850" d="M58.28567,333.02673v.40438c0,.93797.11718,2.13711,1.17468,2.13711,1.00501,0,1.12219-1.14672,1.12219-1.56421h1.33125c0,1.55111-.93938,2.52837-2.46658,2.52837-1.14843,0-2.57155-.33886-2.57155-3.58431,0-1.83755.39187-3.7921,2.59782-3.7921,1.95749,0,2.4797,1.17292,2.4797,3.12747v.74325h-3.66751v.00003ZM60.54315,332.06257v-.37819c0-.88648-.28688-1.56421-1.08281-1.56421-.90095,0-1.17468.88648-1.17468,1.79916v.14315h2.25749v.00009Z" fill="#252626"/>
      </g>
      <g id="uuid-7e574515-d6b7-4ed0-9d65-e2d1a46a501e">
        <path id="uuid-8597f788-b653-4716-9dcb-644ea7e48248" d="M63.11754,329.33854h1.40905v1.0943h.02625c.31312-.78163.83532-1.27683,1.63219-1.27683.15657,0,.2475.02626.33939.05231v1.43316c-.10502-.02626-.35249-.07768-.58782-.07768-.63939,0-1.41.28644-1.41,1.5895v4.19648h-1.40905v-7.01132h-.00002v.00009Z" fill="#252626"/>
      </g>
      <g id="uuid-4bdd8a4b-a537-4554-9a58-6b38a44d3772">
        <path id="uuid-cd8354de-c51b-4c58-bfec-0a5e36c294e2" d="M67.23034,329.33854h1.41v1.0943h.02531c.31312-.78163.83532-1.27683,1.63219-1.27683.15657,0,.2475.02626.33939.05231v1.43316c-.10502-.02626-.35249-.07768-.58782-.07768-.63939,0-1.40905.28644-1.40905,1.5895v4.19648h-1.40998v-7.01132h-.00003v.00012-.00003Z" fill="#252626"/>
      </g>
      <g id="uuid-8b6c00d0-6e80-4f03-97dd-bbe6f1e07419">
        <path id="uuid-57bec585-e64b-4e5e-96c4-3b881ddf5f6b" d="M72.55723,333.02673v.40438c0,.93797.11718,2.13711,1.17468,2.13711,1.00501,0,1.1222-1.14672,1.1222-1.56421h1.33125c0,1.55111-.93939,2.52837-2.46658,2.52837-1.14845,0-2.57155-.33886-2.57155-3.58431,0-1.83755.39187-3.7921,2.59782-3.7921,1.95752,0,2.4797,1.17292,2.4797,3.12747v.74325s-3.66753,0-3.66752,0v.00003ZM74.81472,332.06257v-.37819c0-.88648-.28688-1.56421-1.08281-1.56421-.90095,0-1.17468.88648-1.17468,1.79916v.14315h2.25749v.00009Z" fill="#252626"/>
      </g>
      <g id="uuid-4b67d496-8fca-4a10-a11e-129bfb0dcb0d">
        <path id="uuid-ad6e957b-b70b-4147-a795-463ac4d649cc" d="M86.34316,333.01364v.19566c0,1.68121-.67876,3.32313-2.87157,3.32313-2.34938,0-3.07969-1.51178-3.07969-4.83491s.73032-4.83491,3.09282-4.83491c2.64936,0,2.80593,1.95455,2.80593,2.91872v.16937h-1.48782v-.15627c0-.86025-.26063-1.85064-1.33125-1.81132-1.09592,0-1.59188.67772-1.59188,3.67509s.49593,3.75374,1.59188,3.75374c1.24031,0,1.38375-1.38168,1.38375-2.24193v-.15627h1.48784v-.00009Z" fill="#252626"/>
      </g>
      <g id="uuid-2e5b2ed8-98f6-4b83-a0e3-271790184ee9">
        <path id="uuid-63d7088d-31a9-45a8-9c0a-0d95a0fa571d" d="M89.63472,329.15598c2.04939,0,2.62314,1.51178,2.62314,3.68819s-.66562,3.68819-2.62314,3.68819c-1.94437,0-2.60999-1.51178-2.60999-3.68819s.57375-3.68819,2.60999-3.68819ZM89.63472,335.48958c1.03123,0,1.21406-.86025,1.21406-2.64541,0-1.55111-.18282-2.64541-1.21406-2.64541-1.01811,0-1.20091,1.0943-1.20091,2.64541,0,1.78512.1828,2.64541,1.20091,2.64541Z" fill="#252626"/>
      </g>
      <g id="uuid-a8aa0957-c2b5-4e65-bc8a-2eb324c9c8ab">
        <path id="uuid-9d836c52-d36a-4935-9715-521259f780fa" d="M93.4091,327.0451h1.40905v9.30474h-1.40905v-9.30474Z" fill="#252626"/>
      </g>
      <g id="uuid-c8ad5080-bc4d-4844-82dd-dbd7684031f9">
        <path id="uuid-c33812fb-ffca-425a-9cfd-91adeb52bcdd" d="M96.30784,327.0451h1.40905v9.30474h-1.40905v-9.30474Z" fill="#252626"/>
      </g>
      <g id="uuid-47f5d6d1-9908-4bb4-a003-3d57b9ba287d">
        <path id="uuid-8bb7bf4b-6c8b-4ff2-a7cb-32c92c212d22" d="M103.74783,334.89048c0,.26024.15657.4952.36562.4952.09183,0,.18282-.0136.23531-.03918v.91268c-.16969.07768-.41813.16937-.69188.16937-.62624,0-1.14843-.24808-1.18781-.9258h-.02619c-.37874.69082-.92624,1.02969-1.74844,1.02969-1.12313,0-1.82719-.6253-1.82719-1.96765,0-1.56421.67876-1.88997,1.63125-2.20263l1.09593-.29954c.50908-.14332.8222-.28738.8222-.89958,0-.63843-.22125-1.04281-.96561-1.04281-.93939,0-1.06968.66463-1.06968,1.34235h-1.33218c0-1.48559.61405-2.30654,2.46751-2.30654,1.23938,0,2.23125.4821,2.23125,1.72054,0,0,0,4.01395-.00002,4.01395l-.00003-.00009-.00002.00006ZM102.41659,332.64855c-.36469.28644-1.14843.45587-1.56561.65153-.40499.19566-.57469.61314-.57469,1.1336,0,.58694.28688,1.05591.87469,1.05591.84843,0,1.26563-.63843,1.26563-1.66812v-1.17292h-.00002Z" fill="#252626"/>
      </g>
      <g id="uuid-88948619-3a2e-4aca-9d24-7c1a990f69b3">
        <path id="uuid-cfd3e346-4a6a-4797-8b4e-675e68d81951" d="M105.18598,329.33854h1.41v1.0943h.02533c.31312-.78163.83532-1.27683,1.63219-1.27683.15657,0,.2475.02626.33936.05231v1.43316c-.10502-.02626-.35249-.07768-.58782-.07768-.63939,0-1.40905.28644-1.40905,1.5895v4.19648h-1.41v-7.01132h-.00002v.00009Z" fill="#252626"/>
      </g>
      <g id="uuid-12e2a9fb-859f-404f-ba6f-78bce6793d94">
        <path id="uuid-2004109b-cd04-45de-b888-69ebe797df2f" d="M112.88754,335.48958h-.02533c-.18281.45587-.53531,1.04281-1.54031,1.04281-1.64437,0-2.29687-1.36858-2.29687-3.779,0-3.11531,1.09593-3.59741,2.16656-3.59741.75656,0,1.33125.37819,1.59188,1.00349h.02619v-3.11438h1.40907v9.30474h-1.33125s.00004-.86025,0-.86025c0-.00003.00007-.00003.00009-.00003v.00003h-.00001ZM111.60877,330.27648c-.80907,0-1.09593.65153-1.09593,2.5415,0,1.59043.20813,2.59392,1.1878,2.59392.96561,0,1.18689-.99039,1.18689-2.48907,0-1.68121-.19503-2.64634-1.27875-2.64634Z" fill="#252626"/>
      </g>
    </g>
  </g>
  <g>
    <path d="M48.43555,209.19354h1.51172l1.22559,5.52539h.02539l1.10742-5.52539h1.49902l-1.85059,7.01074h-1.6416l-1.87695-7.01074Z" fill="#252626"/>
    <path d="M55.7832,212.88104v.4043c0,.93848.11719,2.13672,1.17285,2.13672,1.00293,0,1.12012-1.14648,1.12012-1.56348h1.3291c0,1.55078-.9375,2.52832-2.46289,2.52832-1.14648,0-2.56641-.33887-2.56641-3.58398,0-1.83691.39062-3.79199,2.59277-3.79199,1.95508,0,2.47559,1.17285,2.47559,3.12793v.74219h-3.66113ZM58.03711,211.91718v-.37793c0-.88574-.28613-1.56348-1.08105-1.56348-.89941,0-1.17285.88574-1.17285,1.79785v.14355h2.25391Z" fill="#252626"/>
    <path d="M60.60156,209.19354h1.40723v1.09473h.02637c.3125-.78223.83398-1.27734,1.62891-1.27734.15625,0,.24707.02637.33887.05273v1.43262c-.10449-.02539-.35254-.07812-.58691-.07812-.63867,0-1.40723.28711-1.40723,1.58984v4.19629h-1.40723v-7.01074Z" fill="#252626"/>
    <path d="M67.72852,211.23944v-.18262c0-.56055-.19629-1.08105-.92578-1.08105-.56055,0-1.00293.26074-1.00293.91211,0,.54688.24707.76855.99023,1.0293l.89941.3125c1.04199.35156,1.52441.91211,1.52441,2.01953,0,1.49902-1.09473,2.1377-2.51562,2.1377-1.77148,0-2.30566-.82129-2.30566-2.17676v-.25977h1.25098v.2207c0,.80859.28613,1.25098,1.09375,1.25098.76953,0,1.14746-.39062,1.14746-1.0293,0-.52148-.27344-.85938-.76953-1.0293l-1.14648-.4043c-1.05566-.36426-1.49805-.89844-1.49805-2.01953,0-1.31641.95117-1.92871,2.39746-1.92871,1.78516,0,2.18945,1.04297,2.18945,1.91602v.3125h-1.3291Z" fill="#252626"/>
    <path d="M70.31934,206.79608h1.40723v1.40723h-1.40723v-1.40723ZM70.31934,209.19354h1.40723v7.01074h-1.40723v-7.01074Z" fill="#252626"/>
    <path d="M75.47656,209.01093c2.0459,0,2.62012,1.51172,2.62012,3.68848,0,2.17578-.66504,3.6875-2.62012,3.6875-1.94141,0-2.60547-1.51172-2.60547-3.6875,0-2.17676.57324-3.68848,2.60547-3.68848ZM75.47656,215.34393c1.03027,0,1.21191-.85938,1.21191-2.64453,0-1.55078-.18164-2.64551-1.21191-2.64551-1.01562,0-1.19824,1.09473-1.19824,2.64551,0,1.78516.18262,2.64453,1.19824,2.64453Z" fill="#252626"/>
    <path d="M79.17578,209.19354h1.3291v.82129h.03906c.35156-.62598,1.0166-1.00391,1.79785-1.00391,1.06934,0,1.74609.48242,1.74609,1.90234v5.29102h-1.40723v-4.80859c0-.91211-.27344-1.26367-.97656-1.26367-.57422,0-1.12109.45605-1.12109,1.36816v4.7041h-1.40723v-7.01074Z" fill="#252626"/>
    <path d="M93.71387,216.20428h-5.39551c0-4.01367,3.87012-3.92188,3.87012-6.78906,0-.75586-.3252-1.39453-1.14648-1.39453-1.10742,0-1.29004.99023-1.29004,1.92871h-1.40723c0-1.83691.75586-2.9707,2.72363-2.9707,1.88965,0,2.60645,1.12012,2.60645,2.46289,0,3.06152-2.99707,3.25781-3.70117,5.51172h3.74023v1.25098Z" fill="#252626"/>
    <path d="M94.96191,214.48456h1.48535v1.71973h-1.48535v-1.71973Z" fill="#252626"/>
    <path d="M97.54004,212.85565l3.19238-5.87695h1.51172v5.96777h1.00391v1.18555h-1.00391v2.07227h-1.40723v-2.07227h-3.29688v-1.27637ZM100.83691,209.14178h-.02539l-2.07227,3.80469h2.09766v-3.80469Z" fill="#252626"/>
  </g>
</svg>