<?xml version="1.0" encoding="UTF-8" standalone="no"?>
<svg
   id="uuid-7e8b40ad-f597-49b7-bccc-8e1bdc4578ea"
   data-name="Layer 1"
   width="55.880001mm"
   height="128.5mm"
   viewBox="0 0 158.40001 364.25198"
   version="1.1"
   sodipodi:docname="WL3.svg"
   inkscape:version="1.2.1 (9c6d41e410, 2022-07-14)"
   xmlns:inkscape="http://www.inkscape.org/namespaces/inkscape"
   xmlns:sodipodi="http://sodipodi.sourceforge.net/DTD/sodipodi-0.dtd"
   xmlns="http://www.w3.org/2000/svg"
   xmlns:svg="http://www.w3.org/2000/svg">
  <sodipodi:namedview
     id="namedview240"
     pagecolor="#ffffff"
     bordercolor="#000000"
     borderopacity="0.25"
     inkscape:showpageshadow="2"
     inkscape:pageopacity="0.0"
     inkscape:pagecheckerboard="0"
     inkscape:deskcolor="#d1d1d1"
     inkscape:document-units="mm"
     showgrid="false"
     inkscape:zoom="18.501575"
     inkscape:cx="130.7186"
     inkscape:cy="290.08341"
     inkscape:window-width="1920"
     inkscape:window-height="1009"
     inkscape:window-x="-8"
     inkscape:window-y="-8"
     inkscape:window-maximized="1"
     inkscape:current-layer="uuid-df855dfe-b794-410c-8e86-5f00c3f12b23" />
  <defs
     id="defs67">
    <linearGradient
       id="uuid-b54ad839-c9ad-4d1f-a7b1-7bcbe446880f"
       x1="-47.282188"
       y1="480.89609"
       x2="-47.282188"
       y2="116.09609"
       gradientTransform="matrix(1.77871,0,0,-1.77871,166.64488,855.37643)"
       gradientUnits="userSpaceOnUse">
      <stop
         offset="0"
         stop-color="#ebebeb"
         id="stop2" />
      <stop
         offset="1"
         stop-color="#e1e1e1"
         id="stop4" />
    </linearGradient>
    <linearGradient
       id="uuid-5d4c6f29-f654-4b92-8dbc-ec5f750a4597"
       x1="159.21529"
       y1="3764.9529"
       x2="172.21529"
       y2="3764.9529"
       gradientTransform="matrix(0,1.77871,1.77871,0,-6673.7607,-282.70334)"
       gradientUnits="userSpaceOnUse">
      <stop
         offset="0"
         stop-color="#aba9a9"
         id="stop7" />
      <stop
         offset="1"
         stop-color="#8f8f8f"
         id="stop9" />
    </linearGradient>
    <linearGradient
       id="uuid-97ce868c-32e0-44fe-a617-0c3204c1fda2"
       x1="159.61813"
       y1="3764.9529"
       x2="171.242"
       y2="3764.9529"
       gradientTransform="matrix(0,1.77871,1.77871,0,-6673.7607,-282.70334)"
       gradientUnits="userSpaceOnUse">
      <stop
         offset=".00559"
         stop-color="#f5f5f5"
         id="stop12" />
      <stop
         offset="1"
         stop-color="#c2c2c2"
         id="stop14" />
    </linearGradient>
    <linearGradient
       id="uuid-8733d778-6d2c-40a1-bfda-4bae7b15c4e8"
       x1="159.88008"
       y1="3764.9529"
       x2="170.60982"
       y2="3764.9529"
       gradientTransform="matrix(0,1.77871,1.77871,0,-6673.7607,-282.70334)"
       gradientUnits="userSpaceOnUse">
      <stop
         offset=".00559"
         stop-color="#ebebeb"
         id="stop17" />
      <stop
         offset="1"
         stop-color="#ccc"
         id="stop19" />
    </linearGradient>
    <linearGradient
       id="uuid-991db703-4754-416a-bc08-bbc4ce0cb3bc"
       x1="364.77768"
       y1="3764.9529"
       x2="377.77768"
       y2="3764.9529"
       gradientTransform="matrix(0,1.77871,1.77871,0,-6673.7607,-282.70334)"
       gradientUnits="userSpaceOnUse">
      <stop
         offset="0"
         stop-color="#aba9a9"
         id="stop22" />
      <stop
         offset="1"
         stop-color="#8f8f8f"
         id="stop24" />
    </linearGradient>
    <linearGradient
       id="uuid-f38a5f36-86ff-452b-8d10-43a0b53ebaaf"
       x1="365.18054"
       y1="3764.9529"
       x2="376.80444"
       y2="3764.9529"
       gradientTransform="matrix(0,1.77871,1.77871,0,-6673.7607,-282.70334)"
       gradientUnits="userSpaceOnUse">
      <stop
         offset=".00559"
         stop-color="#f5f5f5"
         id="stop27" />
      <stop
         offset="1"
         stop-color="#c2c2c2"
         id="stop29" />
    </linearGradient>
    <linearGradient
       id="uuid-576bd707-f2a5-4d89-9fa7-071e8e8b6849"
       x1="365.4425"
       y1="3764.9529"
       x2="376.17224"
       y2="3764.9529"
       gradientTransform="matrix(0,1.77871,1.77871,0,-6673.7607,-282.70334)"
       gradientUnits="userSpaceOnUse">
      <stop
         offset=".00559"
         stop-color="#ebebeb"
         id="stop32" />
      <stop
         offset="1"
         stop-color="#ccc"
         id="stop34" />
    </linearGradient>
    <linearGradient
       id="uuid-4cd3a3e0-439e-4567-950f-047e6d88354b"
       x1="159.21529"
       y1="3832.3479"
       x2="172.21529"
       y2="3832.3479"
       gradientTransform="matrix(0,1.77871,1.77871,0,-6673.7607,-282.70334)"
       gradientUnits="userSpaceOnUse">
      <stop
         offset="0"
         stop-color="#aba9a9"
         id="stop37" />
      <stop
         offset="1"
         stop-color="#8f8f8f"
         id="stop39" />
    </linearGradient>
    <linearGradient
       id="uuid-6445f5e7-7fb4-46c2-85fe-0e492652a0dc"
       x1="159.61813"
       y1="3832.3479"
       x2="171.242"
       y2="3832.3479"
       gradientTransform="matrix(0,1.77871,1.77871,0,-6673.7607,-282.70334)"
       gradientUnits="userSpaceOnUse">
      <stop
         offset=".00559"
         stop-color="#f5f5f5"
         id="stop42" />
      <stop
         offset="1"
         stop-color="#c2c2c2"
         id="stop44" />
    </linearGradient>
    <linearGradient
       id="uuid-22b26930-f8fe-4d14-89cf-0ce10c67d2fe"
       x1="159.88008"
       y1="3832.3479"
       x2="170.60982"
       y2="3832.3479"
       gradientTransform="matrix(0,1.77871,1.77871,0,-6673.7607,-282.70334)"
       gradientUnits="userSpaceOnUse">
      <stop
         offset=".00559"
         stop-color="#ebebeb"
         id="stop47" />
      <stop
         offset="1"
         stop-color="#ccc"
         id="stop49" />
    </linearGradient>
    <linearGradient
       id="uuid-872c23b1-250b-42fd-85f5-0b39ce997792"
       x1="364.77768"
       y1="3832.3479"
       x2="377.77768"
       y2="3832.3479"
       gradientTransform="matrix(0,1.77871,1.77871,0,-6673.7607,-282.70334)"
       gradientUnits="userSpaceOnUse">
      <stop
         offset="0"
         stop-color="#aba9a9"
         id="stop52" />
      <stop
         offset="1"
         stop-color="#8f8f8f"
         id="stop54" />
    </linearGradient>
    <linearGradient
       id="uuid-0af2b3b2-7485-44c8-8b31-54d8f23ffad2"
       x1="365.18054"
       y1="3832.3479"
       x2="376.80444"
       y2="3832.3479"
       gradientTransform="matrix(0,1.77871,1.77871,0,-6673.7607,-282.70334)"
       gradientUnits="userSpaceOnUse">
      <stop
         offset=".00559"
         stop-color="#f5f5f5"
         id="stop57" />
      <stop
         offset="1"
         stop-color="#c2c2c2"
         id="stop59" />
    </linearGradient>
    <linearGradient
       id="uuid-b28df7fb-c5d2-4d39-bb9f-c3bb2fb67abb"
       x1="365.4425"
       y1="3832.3479"
       x2="376.17224"
       y2="3832.3479"
       gradientTransform="matrix(0,1.77871,1.77871,0,-6673.7607,-282.70334)"
       gradientUnits="userSpaceOnUse">
      <stop
         offset=".00559"
         stop-color="#ebebeb"
         id="stop62" />
      <stop
         offset="1"
         stop-color="#ccc"
         id="stop64" />
    </linearGradient>
  </defs>
  <g
     id="uuid-62f2739a-12b5-46ad-bfb6-25619756f6d5"
     data-name="bg"
     transform="scale(0.95949515,0.95805365)">
    <g
       id="uuid-66bf36fe-2bf9-497a-abba-aed85b0c95c7"
       data-name="g4">
      <rect
         id="uuid-49f88654-6072-44f1-8bf6-508a481e53b1"
         data-name="rect2"
         x="0"
         y="0"
         width="165.08682"
         height="380.19998"
         fill="url(#uuid-b54ad839-c9ad-4d1f-a7b1-7bcbe446880f)"
         style="fill:url(#uuid-b54ad839-c9ad-4d1f-a7b1-7bcbe446880f)" />
    </g>
    <g
       id="uuid-5f27818a-5df1-4046-874d-d09577b7744f"
       data-name="g64">
      <g
         id="uuid-406b2e00-2004-4d96-8386-d8816db3a18b"
         data-name="g35">
        <circle
           id="uuid-1947d7c2-5411-4054-9828-edc380f94f80"
           data-name="circle15"
           cx="23.01214"
           cy="7.2694302"
           r="6.7743902"
           fill="url(#uuid-5d4c6f29-f654-4b92-8dbc-ec5f750a4597)"
           style="fill:url(#uuid-5d4c6f29-f654-4b92-8dbc-ec5f750a4597)" />
        <circle
           id="uuid-ba6516f9-f829-40c9-b77f-d647510d9c41"
           data-name="circle22"
           cx="23.01214"
           cy="7.2688699"
           r="6.0572801"
           fill="url(#uuid-97ce868c-32e0-44fe-a617-0c3204c1fda2)"
           style="fill:url(#uuid-97ce868c-32e0-44fe-a617-0c3204c1fda2)" />
        <circle
           id="uuid-eae61430-6016-404d-998e-1c6c5bc0e616"
           data-name="circle29"
           cx="23.01214"
           cy="7.2688699"
           r="5.5913501"
           fill="url(#uuid-8733d778-6d2c-40a1-bfda-4bae7b15c4e8)"
           style="fill:url(#uuid-8733d778-6d2c-40a1-bfda-4bae7b15c4e8)" />
        <g
           id="uuid-3fecdcb3-0dba-41af-95a5-16080c32e162"
           data-name="g33">
          <path
             id="uuid-7746b240-c432-4d6c-bc2d-91b4ccf7d43a"
             data-name="path31"
             d="m 26.62747,6.55084 -2.0465,-0.2452 C 24.26681,6.26802 24.0192,6.0203 23.98169,5.70612 L 23.73751,3.66101 C 23.72687,3.57186 23.65126,3.50475 23.56149,3.50475 h -1.09864 c -0.08977,0 -0.16537,0.06709 -0.17602,0.15622 l -0.24475,2.04629 c -0.03758,0.31421 -0.28532,0.5619 -0.59955,0.59943 l -2.04561,0.24422 c -0.08915,0.01064 -0.15626,0.08625 -0.15626,0.17602 v 1.09871 c 0,0.08977 0.06709,0.16537 0.15622,0.17602 l 2.04586,0.24472 c 0.31416,0.03758 0.56182,0.28523 0.59939,0.59939 l 0.2447,2.04579 c 0.01067,0.08913 0.08627,0.15622 0.17602,0.15622 h 1.09871 c 0.08975,0 0.16535,-0.06708 0.17602,-0.15619 l 0.24514,-2.04605 c 0.03764,-0.3141 0.28527,-0.5617 0.59939,-0.59927 L 26.62743,8.00166 C 26.71656,7.99101 26.78366,7.91541 26.78366,7.82564 V 6.72686 c 0,-0.08974 -0.06708,-0.16533 -0.15619,-0.17602 z"
             fill="#8c8c8c" />
        </g>
      </g>
      <g
         id="uuid-c307207a-b916-4ad5-b011-fcf2a3c81dc6"
         data-name="g62">
        <circle
           id="uuid-2ff86d12-f42c-4446-ba50-74481fae4914"
           data-name="circle42"
           cx="23.01214"
           cy="372.9061"
           r="6.7743902"
           fill="url(#uuid-991db703-4754-416a-bc08-bbc4ce0cb3bc)"
           style="fill:url(#uuid-991db703-4754-416a-bc08-bbc4ce0cb3bc)" />
        <circle
           id="uuid-610f2374-573e-4d83-8fb2-f7a1091266d0"
           data-name="circle49"
           cx="23.01214"
           cy="372.90555"
           r="6.0572801"
           fill="url(#uuid-f38a5f36-86ff-452b-8d10-43a0b53ebaaf)"
           style="fill:url(#uuid-f38a5f36-86ff-452b-8d10-43a0b53ebaaf)" />
        <circle
           id="uuid-56726f81-e59c-434d-96ec-28ffce03f8ee"
           data-name="circle56"
           cx="23.01214"
           cy="372.90555"
           r="5.5913501"
           fill="url(#uuid-576bd707-f2a5-4d89-9fa7-071e8e8b6849)"
           style="fill:url(#uuid-576bd707-f2a5-4d89-9fa7-071e8e8b6849)" />
        <g
           id="uuid-102c613a-82ae-4df7-8d1f-16c4d5229057"
           data-name="g60">
          <path
             id="uuid-eeeb8f35-37a2-42f4-9651-cf4fd148a11d"
             data-name="path58"
             d="m 26.62747,372.18751 -2.0465,-0.24519 c -0.31416,-0.0377 -0.56177,-0.28533 -0.59928,-0.59952 l -0.24418,-2.0451 c -0.01067,-0.0891 -0.08625,-0.15636 -0.17602,-0.15636 h -1.09864 c -0.08977,0 -0.16537,0.0671 -0.17602,0.15617 l -0.24475,2.0463 c -0.03758,0.31421 -0.28532,0.5619 -0.59955,0.59941 l -2.04561,0.24421 c -0.08915,0.0107 -0.15626,0.0863 -0.15626,0.17609 v 1.0987 c 0,0.0898 0.06709,0.16542 0.15622,0.17609 l 2.04586,0.2447 c 0.31416,0.0375 0.56182,0.28522 0.59939,0.59941 l 0.2447,2.04578 c 0.01067,0.0891 0.08627,0.15617 0.17602,0.15617 h 1.09871 c 0.08975,0 0.16535,-0.0671 0.17602,-0.15617 l 0.24514,-2.04605 c 0.03764,-0.3141 0.28527,-0.56171 0.59939,-0.59927 l 2.04532,-0.24459 c 0.08913,-0.0107 0.15622,-0.0863 0.15622,-0.17609 v -1.09875 c 0,-0.0898 -0.06708,-0.16542 -0.15619,-0.17609 v 1.6e-4 z"
             fill="#8c8c8c" />
        </g>
      </g>
    </g>
    <g
       id="uuid-b124e4e2-f234-4591-ae38-e501d9b40f61"
       data-name="g120">
      <g
         id="uuid-d013e1d0-8cc0-4c3a-b288-9e19e882071f"
         data-name="g91">
        <circle
           id="uuid-16697988-fa33-43f4-a002-257c6d3257a8"
           data-name="circle71"
           cx="142.88847"
           cy="7.2694302"
           r="6.7743902"
           fill="url(#uuid-4cd3a3e0-439e-4567-950f-047e6d88354b)"
           style="fill:url(#uuid-4cd3a3e0-439e-4567-950f-047e6d88354b)" />
        <circle
           id="uuid-557cc9d3-9590-45ce-9caa-9b4b4d4838e6"
           data-name="circle78"
           cx="142.88847"
           cy="7.2688699"
           r="6.0572901"
           fill="url(#uuid-6445f5e7-7fb4-46c2-85fe-0e492652a0dc)"
           style="fill:url(#uuid-6445f5e7-7fb4-46c2-85fe-0e492652a0dc)" />
        <circle
           id="uuid-33bb9555-9e2c-44aa-bd0e-e25f8a038017"
           data-name="circle85"
           cx="142.88847"
           cy="7.2688699"
           r="5.5913501"
           fill="url(#uuid-22b26930-f8fe-4d14-89cf-0ce10c67d2fe)"
           style="fill:url(#uuid-22b26930-f8fe-4d14-89cf-0ce10c67d2fe)" />
        <g
           id="uuid-fd59f54f-4b17-478c-9062-c43e2e27a70f"
           data-name="g89">
          <path
             id="uuid-5ecce54e-360d-44d6-897c-6873d761f053"
             data-name="path87"
             d="m 146.5038,6.55084 -2.0465,-0.2452 C 144.14314,6.268 143.89554,6.02028 143.85801,5.70611 L 143.61384,3.661 c -0.0106,-0.08915 -0.0863,-0.15626 -0.17602,-0.15626 h -1.09864 c -0.0898,0 -0.16537,0.06709 -0.17602,0.15622 l -0.24474,2.04629 c -0.0376,0.31421 -0.28532,0.5619 -0.59955,0.59943 l -2.0456,0.24422 c -0.0892,0.01064 -0.15628,0.08625 -0.15628,0.17602 v 1.09873 c 0,0.08977 0.0671,0.16537 0.15622,0.17602 l 2.04584,0.24472 c 0.31417,0.03758 0.56182,0.28523 0.59941,0.59939 l 0.2447,2.04579 c 0.0107,0.08913 0.0863,0.15622 0.17602,0.15622 h 1.09871 c 0.0897,0 0.16534,-0.06708 0.17601,-0.15619 l 0.24514,-2.04605 c 0.0376,-0.3141 0.28529,-0.5617 0.5994,-0.59927 l 2.04532,-0.24461 c 0.0891,-0.01065 0.15625,-0.08625 0.15625,-0.17602 V 6.72687 c 0,-0.08974 -0.0671,-0.16533 -0.15618,-0.17602 h -1e-5 z"
             fill="#8c8c8c" />
        </g>
      </g>
      <g
         id="uuid-3ea7d7e9-5914-48ca-b6f9-ef357155bfd0"
         data-name="g118">
        <circle
           id="uuid-7be3c0f6-04a4-4ddd-a7eb-275f889293bd"
           data-name="circle98"
           cx="142.88847"
           cy="372.9061"
           r="6.7744002"
           fill="url(#uuid-872c23b1-250b-42fd-85f5-0b39ce997792)"
           style="fill:url(#uuid-872c23b1-250b-42fd-85f5-0b39ce997792)" />
        <circle
           id="uuid-08cd825d-a02a-4d6e-bc0b-d5c304802a13"
           data-name="circle105"
           cx="142.88847"
           cy="372.90555"
           r="6.0572801"
           fill="url(#uuid-0af2b3b2-7485-44c8-8b31-54d8f23ffad2)"
           style="fill:url(#uuid-0af2b3b2-7485-44c8-8b31-54d8f23ffad2)" />
        <circle
           id="uuid-7128eccb-60e8-4711-a8f7-c34a2fed7619"
           data-name="circle112"
           cx="142.88847"
           cy="372.90555"
           r="5.5913501"
           fill="url(#uuid-b28df7fb-c5d2-4d39-bb9f-c3bb2fb67abb)"
           style="fill:url(#uuid-b28df7fb-c5d2-4d39-bb9f-c3bb2fb67abb)" />
        <g
           id="uuid-0c2b4c80-c10b-4d60-831e-7c5f8fc035d1"
           data-name="g116">
          <path
             id="uuid-deb1e4ba-6674-4ab6-9c21-6de1e3125b1e"
             data-name="path114"
             d="m 146.5038,372.18751 -2.0465,-0.24519 c -0.31416,-0.0377 -0.56176,-0.28533 -0.59929,-0.59952 l -0.24419,-2.0451 c -0.0107,-0.0891 -0.0863,-0.15636 -0.17602,-0.15636 h -1.09864 c -0.0898,0 -0.16537,0.0671 -0.17602,0.15617 l -0.24476,2.0463 c -0.0376,0.31421 -0.28532,0.5619 -0.59955,0.59941 l -2.0456,0.24421 c -0.0891,0.0107 -0.15626,0.0863 -0.15626,0.17609 v 1.0987 c 0,0.0898 0.0671,0.16542 0.15622,0.17609 l 2.04584,0.2447 c 0.31417,0.0375 0.56182,0.28522 0.59941,0.59941 l 0.2447,2.04578 c 0.0107,0.0891 0.0863,0.15617 0.17602,0.15617 h 1.09871 c 0.0897,0 0.16534,-0.0671 0.17601,-0.15617 l 0.24514,-2.04605 c 0.0376,-0.3141 0.28529,-0.56171 0.5994,-0.59927 l 2.04532,-0.24459 c 0.0891,-0.0107 0.15624,-0.0863 0.15624,-0.17609 v -1.09875 c 0,-0.0898 -0.0671,-0.16542 -0.15618,-0.17609 v 1.6e-4 z"
             fill="#8c8c8c" />
        </g>
      </g>
    </g>
  </g>
  <g
     id="uuid-c6e31d4c-2bd2-4c07-b44f-d1a42af6feee"
     data-name="serigraphy"
     transform="scale(0.95949515,0.95805365)">
    <g
       id="uuid-65ddbd4e-9079-4a1f-a986-97b759e0aca7"
       data-name="g71">
      <g
         id="uuid-b71c26c2-b9cb-459d-a763-af942cf87a98"
         data-name="g63">
        <path
           id="uuid-08338a38-d66f-4a8e-9c0f-4e7cb83d8e3c"
           data-name="path61"
           d="M 99.60124,155.17392 H 70.16675 c -4.9492,0 -8.96134,-4.01212 -8.96134,-8.96133 V 61.06383 c 0,-4.9492 4.01212,-8.96132 8.96134,-8.96132 h 29.43449 c 4.94922,0 8.96132,4.0121 8.96132,8.96132 v 85.14875 c 2e-5,4.94922 -4.01209,8.96134 -8.96131,8.96134 z"
           fill="#252626" />
      </g>
      <g
         id="uuid-683f097f-d522-4e88-a027-7d934720281e"
         data-name="g69">
        <g
           id="uuid-63cdddb0-a6d3-45d5-b15d-c0d31f1d1d64"
           data-name="g67">
          <path
             id="uuid-4ce92381-1248-4063-8ac3-96cb7f68523a"
             data-name="path65"
             d="m 96.26908,121.46684 c -0.31828,0.73397 -0.7405,1.33983 -1.26662,1.81694 -0.52677,0.4771 -1.12546,0.83133 -1.79866,1.06466 -0.67381,0.23268 -1.37706,0.34835 -2.11105,0.34835 -1.24834,0 -2.22087,-0.183 -2.91823,-0.55031 -0.69736,-0.3673 -1.24245,-0.79538 -1.63331,-1.28494 -0.41697,-0.53855 -0.6797,-1.13787 -0.7895,-1.79864 -0.11046,-0.66078 -0.16537,-1.32155 -0.16537,-1.98231 0,-0.93069 0.01896,-1.57252 0.05489,-1.92742 0.03726,-0.35559 0.0791,-0.55684 0.12874,-0.60587 0.0974,-0.0739 0.50129,-0.10981 1.21107,-0.10981 h 8.59063 c 0.24445,0 0.44639,0.0183 0.60588,0.0549 0.15816,0.0366 0.28104,0.134 0.36665,0.29345 0.08561,0.15882 0.14054,0.39736 0.16535,0.71567 0.02418,0.31828 0.03726,0.75882 0.03726,1.32154 2e-5,1.02812 -0.16012,1.9098 -0.47776,2.64375 M 81.43938,85.74942 c 0.03269,-0.23072 0.13203,-0.41305 0.29804,-0.54574 0.16533,-0.13201 0.42938,-0.21505 0.79411,-0.24836 0.36403,-0.03269 0.87708,-0.04966 1.53917,-0.04966 2.58166,0 4.55938,0.7196 5.9332,2.15943 1.37319,1.43983 2.06075,3.36857 2.06075,5.78482 0,0.22874 -0.04771,0.7222 -0.07777,1.06075 -0.1902,-0.0027 -0.38039,-0.0052 -0.57056,-0.0091 -0.5209,-0.01103 -1.0869,-0.03988 -1.69798,-0.08497 -0.13596,0.06798 -0.20918,0.19804 -0.22091,0.39018 -0.01103,0.1928 0.03922,0.34573 0.15361,0.45882 l 0.61046,0.06797 c 0.40784,0.04509 0.74704,0.11895 1.01892,0.22026 0.27189,0.10198 0.40784,0.20978 0.40784,0.32287 0,0.11306 -0.06797,0.32287 -0.20391,0.6281 -0.13596,0.30587 -0.317,0.67381 -0.54311,1.10325 -0.2268,0.43071 -0.47058,0.88952 -0.73005,1.37576 -0.26078,0.48692 -0.50457,0.94572 -0.7307,1.37514 -0.52088,0.99672 -1.05225,1.97512 -1.59602,2.93717 -0.54315,0.96271 -1.07514,1.8967 -1.5954,2.8019 -0.6575,-1.1771 -1.30259,-2.41104 -1.9359,-3.70122 -0.63399,-1.29083 -1.26794,-2.56923 -1.90193,-3.83782 -0.04577,-0.09018 -0.12417,-0.25948 -0.23726,-0.50914 -0.11371,-0.24836 -0.23265,-0.51435 -0.35684,-0.79802 -0.12483,-0.28301 -0.23265,-0.54836 -0.32286,-0.79802 -0.09084,-0.24902 -0.1353,-0.41894 -0.1353,-0.50914 0,-0.13596 0.08954,-0.24313 0.27122,-0.32287 0.18104,-0.07908 0.56602,-0.17513 1.15488,-0.28822 l 0.44116,-0.06797 c 0.11306,-0.11306 0.16407,-0.27188 0.15295,-0.47581 -0.01174,-0.20327 -0.09674,-0.3281 -0.25425,-0.37319 -0.48234,0.0379 -1.07383,0.06535 -1.77512,0.08169 v -7.20505 c -2e-5,-0.3974 0.01637,-0.71177 0.04964,-0.9438 m 2.81165,25.41961 c 0,0.90584 -0.01174,1.63003 -0.03399,2.17314 -0.02287,0.54312 -0.10192,0.96794 -0.23788,1.27314 -0.04837,0.10981 -0.10588,0.20654 -0.1719,0.29087 -0.0013,6.4e-4 -0.0034,0.002 -0.0046,0.003 -0.39539,-0.0758 -0.72874,-0.16338 -0.998,-0.26339 -0.44706,-0.16534 -0.76926,-0.46338 -0.96796,-0.89343 -0.19867,-0.43004 -0.32286,-1.03396 -0.37252,-1.81237 -0.0497,-0.77712 -0.07453,-1.81237 -0.07453,-3.10254 v -7.06978 l 1.77512,3.45874 c 0.24836,0.47581 0.44639,0.87774 0.59409,1.20586 0.14704,0.32876 0.25423,0.63397 0.32221,0.91698 0.06797,0.28365 0.11306,0.58299 0.13593,0.89998 0.02221,0.317 0.03399,0.71305 0.03399,1.18821 0,0 0,1.73197 -2e-5,1.73197 l 9e-5,-2.4e-4 z m 14.0147,4.19922 c 0.14701,-0.40783 0.29344,-0.84311 0.44118,-1.30715 0.14706,-0.46403 0.28299,-0.91696 0.40784,-1.35877 0.12417,-0.44118 0.22026,-0.80913 0.28888,-1.10389 -0.06864,-0.15751 -0.1987,-0.25948 -0.39084,-0.30523 -0.1928,-0.0451 -0.34507,-0.0229 -0.4588,0.0679 -0.45293,0.88233 -0.88822,1.60716 -1.30716,2.17314 -0.41894,0.56665 -0.78689,0.93985 -1.10323,1.1209 -0.1817,0.0909 -0.39084,0.16928 -0.62876,0.23727 -0.23725,0.0679 -0.5209,0.11892 -0.849,0.15291 -0.32808,0.034 -0.72417,0.0627 -1.1882,0.0849 -0.46403,0.0229 -1.0248,0.034 -1.68099,0.034 -0.74704,0 -1.36403,-0.0222 -1.85093,-0.0679 -0.48696,-0.0451 -0.87715,-0.10196 -1.17122,-0.16928 -0.29477,-0.0686 -0.52677,-0.1477 -0.69605,-0.23789 -0.16995,-0.0902 -0.30065,-0.19214 -0.39085,-0.30588 -0.27188,-0.2941 -0.44706,-0.73004 -0.52613,-1.30716 -0.07972,-0.57778 -0.11894,-1.31892 -0.11894,-2.22478 v -2.24116 c 0.0052,-0.31044 0.01441,-0.58495 0.02745,-0.82024 0.02221,-0.41828 0.08431,-0.80913 0.18627,-1.1712 0.10196,-0.3621 0.2601,-0.7477 0.47581,-1.15486 0.051,-0.0974 0.10848,-0.20261 0.16928,-0.31307 0.08169,-0.003 0.16665,-0.004 0.26144,-0.004 h 1.96989 c 0.6562,0 1.1941,0.011 1.61302,0.034 0.41828,0.0222 0.75225,0.0673 1.00193,0.13529 0.33922,0.0908 0.58235,0.24968 0.73004,0.47581 0.14706,0.22615 0.25425,0.498 0.32287,0.815 l 0.30521,1.32416 c 0.0902,0.11373 0.24313,0.16405 0.45816,0.15293 0.21501,-0.011 0.35686,-0.0733 0.42482,-0.18693 0,-0.38497 -0.02287,-0.87123 -0.06797,-1.46009 -0.04577,-0.58888 -0.06798,-1.18884 -0.06798,-1.79995 0,-0.6562 0.02221,-1.29015 0.06798,-1.90125 0.04509,-0.61174 0.06797,-1.12091 0.06797,-1.52873 -0.06797,-0.11241 -0.20978,-0.17513 -0.42482,-0.18693 -0.21503,-0.0105 -0.36796,0.0399 -0.45816,0.15293 l -0.27123,1.39277 c -0.09082,0.43004 -0.19868,0.71896 -0.32286,0.86598 -0.12485,0.14706 -0.28888,0.25425 -0.49213,0.32221 -0.20393,0.068 -0.55554,0.11895 -1.05291,0.15293 -0.49868,0.034 -1.10979,0.051 -1.83395,0.051 h -1.53465 c 0.01174,-0.0189 0.02221,-0.0366 0.03399,-0.0562 l 2.13919,-3.70122 c 0.42938,-0.72481 0.82024,-1.398 1.17185,-2.02087 0.35034,-0.62219 0.69604,-1.17185 1.03527,-1.64702 0.33987,-0.47515 0.69018,-0.8601 1.05293,-1.15421 0.07517,-0.06078 0.1523,-0.11569 0.23138,-0.16732 0.23004,0.0915 0.43265,0.19934 0.60716,0.32549 0.28301,0.20325 0.51435,0.44118 0.69604,0.71305 0.18104,0.27123 0.32808,0.57712 0.44179,0.91632 0.11241,0.33986 0.23726,0.71371 0.37321,1.12089 0.0902,0.11371 0.23788,0.1588 0.44179,0.13593 0.20325,-0.02221 0.33918,-0.0902 0.40718,-0.20391 -0.04577,-0.3621 -0.08499,-0.77513 -0.1183,-1.23918 -0.03463,-0.46403 -0.07451,-0.91696 -0.1196,-1.35814 -0.04509,-0.44182 -0.10459,-0.83592 -0.15227,-1.18886 -0.1183,-0.87319 -0.09151,-1.61889 -0.09151,-1.61889 0,-1.72021 -0.48821,-3.22412 -1.23329,-4.4829 -0.74446,-1.25746 -1.69673,-2.25025 -2.85485,-2.97833 -1.15878,-0.7281 -2.51563,-1.24115 -4.07114,-1.53917 -1.55618,-0.29802 -3.37639,-0.44705 -5.46131,-0.44705 -2.08558,0 -3.91493,0.02485 -5.48614,0.07451 -1.57252,0.04966 -3.02084,0.15749 -4.34501,0.32287 -0.19804,0.09934 -0.30589,0.29018 -0.32221,0.57056 -0.01708,0.2817 0.05687,0.50521 0.22353,0.67057 l 1.78688,0.1987 c 0.56273,0.06667 1.00061,0.17385 1.31628,0.32287 0.31373,0.14836 0.54574,0.42155 0.69476,0.81894 0.14902,0.39736 0.23988,0.92676 0.27319,1.58886 0.03268,0.66207 0.04966,1.52285 0.04966,2.58163 V 108.837 c 0,1.29018 -0.01708,2.32544 -0.04966,3.10254 -0.03332,0.77842 -0.149,1.38233 -0.34772,1.81236 -0.19868,0.43006 -0.49671,0.72808 -0.89343,0.89344 -0.39739,0.16601 -0.96077,0.29801 -1.68816,0.39736 l -1.04312,0.14904 c -0.15098,0.15096 -0.2183,0.3575 -0.20391,0.61763 -0.0013,0.53134 -0.0071,0.69995 -0.01829,1.29866 -0.01174,0.68558 -0.04313,1.4516 -0.09345,2.29928 0.05032,0.12485 0.19281,0.19934 0.43004,0.22484 0.23659,0.0242 0.40521,-0.0255 0.50522,-0.14966 l 0.11174,-0.78561 c 0.07517,-0.54837 0.17453,-0.97187 0.29934,-1.27057 0.12483,-0.29934 0.34902,-0.52352 0.67317,-0.67319 0.32351,-0.14966 0.77844,-0.2379 1.36468,-0.26274 0.58561,-0.0242 1.36466,-0.0366 2.33719,-0.0366 h 4.71099 c 0.19934,0 0.35557,0.0125 0.46796,0.0366 0.11176,0.0248 0.19281,0.0941 0.24249,0.20654 0.04966,0.11175 0.08104,0.28624 0.09409,0.52286 0.01174,0.23724 0.01832,0.56665 0.01832,0.99081 0,0.74835 -0.09345,1.30912 -0.28039,1.68296 -0.18691,0.37385 -0.49211,0.69803 -0.91632,0.97253 -0.42415,0.29934 -0.89147,0.61046 -1.40191,0.93463 -0.51175,0.32351 -1.02285,0.64767 -1.5333,0.97187 -0.51108,0.32417 -1.00325,0.63594 -1.47708,0.93527 -0.47385,0.2987 -0.88495,0.57318 -1.23397,0.82221 -0.9477,0.67319 -1.72676,1.30261 -2.33721,1.88885 -0.61044,0.58561 -1.09015,1.17774 -1.43919,1.77576 -0.34968,0.59804 -0.59215,1.22743 -0.72939,1.88821 -0.13659,0.66076 -0.20521,1.3895 -0.20521,2.18754 0,0.72283 0.06208,1.27186 0.18627,1.64504 0.07515,0.10006 0.16862,0.14378 0.28102,0.13142 0.11176,-0.0133 0.19283,-0.0692 0.24313,-0.16863 0.04902,-0.49868 0.16798,-0.97187 0.35491,-1.42024 0.18691,-0.44901 0.41698,-0.83593 0.69213,-1.15945 0.52351,-0.64834 1.11501,-1.2588 1.77578,-1.83263 0.66012,-0.57318 1.38953,-1.15877 2.18753,-1.75749 0.79736,-0.598 1.69473,-1.21498 2.6921,-1.85027 0.9967,-0.63594 2.09404,-1.32808 3.29078,-2.07577 0.14964,-0.0999 0.30455,-0.18102 0.46729,-0.24312 0.16142,-0.0627 0.30521,-0.0438 0.43004,0.0562 0.17383,0.4732 0.43595,0.97842 0.78493,1.51435 0.34902,0.53594 0.77908,1.04116 1.29018,1.515 0.51111,0.4732 1.10914,0.86535 1.79472,1.17774 0.6856,0.31109 1.4771,0.46733 2.37444,0.46733 1.32153,0 2.40583,-0.29348 3.25354,-0.87907 0.84702,-0.58561 1.5078,-1.32741 1.98163,-2.22478 0.47321,-0.87253 0.7791,-1.83852 0.91632,-2.89732 0.13659,-1.0601 0.21044,-2.17576 0.20523,-3.34763 -0.0092,-2.17115 0.38168,-3.55284 0.38168,-3.55284"
             fill="#e6e5e5" />
        </g>
      </g>
    </g>
    <g
       id="uuid-0d885e28-e52a-4805-b29d-30ac943c943e"
       data-name="g85">
      <g
         id="uuid-82217691-4ca1-4f97-b28d-3061e0d9cd11"
         data-name="g75">
        <path
           id="uuid-7831353b-686d-4d51-b342-0952f1103296"
           data-name="path73"
           d="m 5.00592,23.84942 c -0.22033,0 -0.4304,-0.0899 -0.59064,-0.25012 C 4.33565,23.52993 4.27554,23.42929 4.23549,23.33939 4.19543,23.22995 4.1754,23.12932 4.1754,23.01988 c 0,-0.1104 0.02003,-0.22081 0.06009,-0.32047 0.04006,-0.10064 0.10014,-0.19054 0.17979,-0.27065 0.31021,-0.30975 0.86079,-0.30975 1.17103,0 0.07963,0.08011 0.13974,0.17001 0.17979,0.27065 0.04006,0.09966 0.06009,0.21007 0.06009,0.32047 0,0.10944 -0.02003,0.21007 -0.06009,0.31951 C 5.72604,23.42929 5.66594,23.52991 5.58631,23.5993 5.50618,23.67943 5.4158,23.74 5.31616,23.78007 5.21598,23.82011 5.11582,23.8494 5.00592,23.84942 Z"
           fill="#252626" />
      </g>
      <g
         id="uuid-a395019e-0a56-4746-881e-34f2cef0fc88"
         data-name="g79">
        <path
           id="uuid-cfa9acaf-6c4d-4560-8114-f366a5a31f94"
           data-name="path77"
           d="m 156.83574,23.01988 c 0,-0.46119 0.37031,-0.83052 0.82026,-0.83052 v 0 c 0.4602,0 0.83052,0.36933 0.83052,0.83052 v 0 c 0,0.46021 -0.37031,0.82952 -0.83052,0.82952 v 0 c -0.44994,0 -0.82026,-0.36931 -0.82026,-0.82952 z m -4.93276,0 c 0,-0.46119 0.37031,-0.83052 0.83052,-0.83052 v 0 c 0.4602,0 0.83052,0.36933 0.83052,0.83052 v 0 c 0,0.46021 -0.37031,0.82952 -0.83052,0.82952 v 0 c -0.4602,0 -0.83052,-0.36931 -0.83052,-0.82952 z m -4.9225,0 c 0,-0.46119 0.37031,-0.83052 0.83052,-0.83052 v 0 c 0.4602,0 0.83052,0.36933 0.83052,0.83052 v 0 c 0,0.46021 -0.37031,0.82952 -0.83052,0.82952 v 0 c -0.4602,0 -0.83052,-0.36931 -0.83052,-0.82952 z m -4.92253,0 c 0,-0.46119 0.37031,-0.83052 0.83052,-0.83052 v 0 c 0.4602,0 0.83052,0.36933 0.83052,0.83052 v 0 c 0,0.46021 -0.37031,0.82952 -0.83052,0.82952 v 0 c -0.4602,0 -0.83052,-0.36931 -0.83052,-0.82952 z m -4.9225,0 c 0,-0.46119 0.36982,-0.83052 0.83052,-0.83052 v 0 c 0.44994,0 0.83001,0.36933 0.83001,0.83052 v 0 c 0,0.46021 -0.38007,0.82952 -0.83001,0.82952 v 0 c -0.46071,0 -0.83052,-0.36931 -0.83052,-0.82952 z m -4.92254,0 c 0,-0.46119 0.36982,-0.83052 0.83001,-0.83052 v 0 c 0.45042,0 0.82073,0.36933 0.82073,0.83052 v 0 c 0,0.46021 -0.37031,0.82952 -0.82073,0.82952 v 0 c -0.46018,0 -0.83001,-0.36931 -0.83001,-0.82952 z m -4.93274,0 c 0,-0.46119 0.38007,-0.83052 0.83052,-0.83052 v 0 c 0.4602,0 0.83052,0.36933 0.83052,0.83052 v 0 c 0,0.46021 -0.37031,0.82952 -0.83052,0.82952 v 0 c -0.45045,0 -0.83052,-0.36931 -0.83052,-0.82952 z m -4.92253,0 c 0,-0.46119 0.36982,-0.83052 0.83052,-0.83052 v 0 c 0.4602,0 0.83001,0.36933 0.83001,0.83052 v 0 c 0,0.46021 -0.36982,0.82952 -0.83001,0.82952 v 0 c -0.46069,0 -0.83052,-0.36931 -0.83052,-0.82952 z m -4.9225,0 c 0,-0.46119 0.36982,-0.83052 0.83001,-0.83052 v 0 c 0.46019,0 0.8305,0.36933 0.8305,0.83052 v 0 c 0,0.46021 -0.37031,0.82952 -0.8305,0.82952 v 0 c -0.4602,0 -0.83001,-0.36931 -0.83001,-0.82952 z m -4.923,0 c 0,-0.46119 0.37031,-0.83052 0.83052,-0.83052 v 0 c 0.45043,0 0.82073,0.36933 0.82073,0.83052 v 0 c 0,0.46021 -0.37031,0.82952 -0.82073,0.82952 v 0 c -0.46021,0 -0.83052,-0.36931 -0.83052,-0.82952 z m -4.92252,0 c 0,-0.46119 0.37031,-0.83052 0.83052,-0.83052 v 0 c 0.45043,0 0.82026,0.36933 0.82026,0.83052 v 0 c 0,0.46021 -0.36983,0.82952 -0.82026,0.82952 v 0 c -0.46021,0 -0.83052,-0.36931 -0.83052,-0.82952 z m -4.92252,0 c 0,-0.46119 0.37031,-0.83052 0.82026,-0.83052 v 0 c 0.46068,0 0.83052,0.36933 0.83052,0.83052 v 0 c 0,0.46021 -0.36983,0.82952 -0.83052,0.82952 v 0 c -0.44994,0 -0.82026,-0.36931 -0.82026,-0.82952 z m -4.93276,0 c 0,-0.46119 0.37031,-0.83052 0.83052,-0.83052 v 0 c 0.46021,0 0.83052,0.36933 0.83052,0.83052 v 0 c 0,0.46021 -0.37031,0.82952 -0.83052,0.82952 v 0 c -0.46021,0 -0.83052,-0.36931 -0.83052,-0.82952 z m -4.92252,0 c 0,-0.46119 0.37031,-0.83052 0.83052,-0.83052 v 0 c 0.46021,0 0.83052,0.36933 0.83052,0.83052 v 0 c 0,0.46021 -0.37031,0.82952 -0.83052,0.82952 v 0 c -0.46021,0 -0.83052,-0.36931 -0.83052,-0.82952 z m -4.9225,0 c 0,-0.46119 0.37031,-0.83052 0.83052,-0.83052 v 0 c 0.46021,0 0.83052,0.36933 0.83052,0.83052 v 0 c 0,0.46021 -0.37031,0.82952 -0.83052,0.82952 v 0 c -0.46021,0 -0.83052,-0.36931 -0.83052,-0.82952 z m -4.92252,0 c 0,-0.46119 0.37031,-0.83052 0.83052,-0.83052 v 0 c 0.44994,0 0.82026,0.36933 0.82026,0.83052 v 0 c 0,0.46021 -0.37031,0.82952 -0.82026,0.82952 v 0 c -0.46021,0 -0.83052,-0.36931 -0.83052,-0.82952 z m -4.92252,0 c 0,-0.46119 0.37031,-0.83052 0.82026,-0.83052 v 0 c 0.46021,0 0.83052,0.36933 0.83052,0.83052 v 0 c 0,0.46021 -0.37031,0.82952 -0.83052,0.82952 v 0 c -0.44992,0 -0.82026,-0.36931 -0.82026,-0.82952 z m -4.93276,0 c 0,-0.46119 0.37031,-0.83052 0.83052,-0.83052 v 0 c 0.46021,0 0.83052,0.36933 0.83052,0.83052 v 0 c 0,0.46021 -0.37031,0.82952 -0.83052,0.82952 v 0 c -0.46022,0 -0.83052,-0.36931 -0.83052,-0.82952 z m -4.92252,0 c 0,-0.46119 0.37031,-0.83052 0.83052,-0.83052 v 0 c 0.46021,0 0.83052,0.36933 0.83052,0.83052 v 0 c 0,0.46021 -0.37031,0.82952 -0.83052,0.82952 v 0 c -0.46021,0 -0.83052,-0.36931 -0.83052,-0.82952 z m -4.92252,0 c 0,-0.46119 0.37031,-0.83052 0.83052,-0.83052 v 0 c 0.46021,0 0.83052,0.36933 0.83052,0.83052 v 0 c 0,0.46021 -0.37031,0.82952 -0.83052,0.82952 v 0 c -0.46021,0 -0.83052,-0.36931 -0.83052,-0.82952 z m -4.92252,0 c 0,-0.46119 0.36983,-0.83052 0.83052,-0.83052 v 0 c 0.44994,0 0.83002,0.36933 0.83002,0.83052 v 0 c 0,0.46021 -0.38008,0.82952 -0.83002,0.82952 v 0 c -0.46068,0 -0.83052,-0.36931 -0.83052,-0.82952 z m -4.92252,0 c 0,-0.46119 0.36983,-0.83052 0.83002,-0.83052 v 0 c 0.45044,0 0.82073,0.36933 0.82073,0.83052 v 0 c 0,0.46021 -0.37031,0.82952 -0.82073,0.82952 v 0 c -0.46019,0 -0.83002,-0.36931 -0.83002,-0.82952 z m -4.93276,0 c 0,-0.46119 0.38008,-0.83052 0.83052,-0.83052 v 0 c 0.46021,0 0.83052,0.36933 0.83052,0.83052 v 0 c 0,0.46021 -0.37031,0.82952 -0.83052,0.82952 v 0 c -0.45044,0 -0.83052,-0.36931 -0.83052,-0.82952 z m -4.92252,0 c 0,-0.46119 0.36983,-0.83052 0.83052,-0.83052 v 0 c 0.46021,0 0.83002,0.36933 0.83002,0.83052 v 0 c 0,0.46021 -0.36983,0.82952 -0.83002,0.82952 v 0 c -0.46067,0 -0.83052,-0.36931 -0.83052,-0.82952 z m -4.9225,0 c 0,-0.46119 0.36983,-0.83052 0.83002,-0.83052 v 0 c 0.46021,0 0.83052,0.36933 0.83052,0.83052 v 0 c 0,0.46021 -0.37031,0.82952 -0.83052,0.82952 v 0 c -0.46021,0 -0.83002,-0.36931 -0.83002,-0.82952 z m -4.923,0 c 0,-0.46119 0.37031,-0.83052 0.83052,-0.83052 v 0 c 0.46021,0 0.82073,0.36933 0.82073,0.83052 v 0 c 0,0.46021 -0.36054,0.82952 -0.82073,0.82952 v 0 c -0.46021,0 -0.83052,-0.36931 -0.83052,-0.82952 z m -4.92252,0 c 0,-0.46119 0.37031,-0.83052 0.83052,-0.83052 v 0 c 0.45044,0 0.82025,0.36933 0.82025,0.83052 v 0 c 0,0.46021 -0.36981,0.82952 -0.82025,0.82952 v 0 c -0.46021,0 -0.83052,-0.36931 -0.83052,-0.82952 z m -4.92252,0 c 0,-0.46119 0.37031,-0.83052 0.82025,-0.83052 v 0 c 0.46071,0 0.83052,0.36933 0.83052,0.83052 v 0 c 0,0.46021 -0.36983,0.82952 -0.83052,0.82952 v 0 c -0.44993,0 -0.82025,-0.36931 -0.82025,-0.82952 z m -4.93276,0 c 0,-0.46119 0.37031,-0.83052 0.83052,-0.83052 v 0 c 0.46021,0 0.83052,0.36933 0.83052,0.83052 v 0 c 0,0.46021 -0.37031,0.82952 -0.83052,0.82952 v 0 c -0.46019,0 -0.83052,-0.36931 -0.83052,-0.82952 z m -4.9225,0 c 0,-0.46119 0.37031,-0.83052 0.83052,-0.83052 v 0 c 0.46021,0 0.83052,0.36933 0.83052,0.83052 v 0 c 0,0.46021 -0.37031,0.82952 -0.83052,0.82952 v 0 c -0.46021,0 -0.83052,-0.36931 -0.83052,-0.82952 z m -4.92252,0 c 0,-0.46119 0.37031,-0.83052 0.83052,-0.83052 v 0 c 0.46021,0 0.83052,0.36933 0.83052,0.83052 v 0 c 0,0.46021 -0.37031,0.82952 -0.83052,0.82952 v 0 c -0.46021,0 -0.83052,-0.36931 -0.83052,-0.82952 z"
           fill="#252626" />
      </g>
      <g
         id="uuid-7e95e91b-010b-4842-b2a5-1b3e9b290d9b"
         data-name="g83">
        <path
           id="uuid-88226da7-f116-45f0-849c-ef9da8377eb2"
           data-name="path81"
           d="m 162.58877,23.84942 c -0.10992,0 -0.22033,-0.02933 -0.32047,-0.06939 -0.0996,-0.04006 -0.19005,-0.10064 -0.27015,-0.18075 -0.0797,-0.06937 -0.13972,-0.17001 -0.1798,-0.25991 -0.04,-0.10944 -0.0602,-0.21007 -0.0602,-0.31951 0,-0.1104 0.02,-0.22081 0.0602,-0.32047 0.04,-0.10064 0.10019,-0.19052 0.1798,-0.27065 0.31021,-0.30973 0.87058,-0.30973 1.17104,0 0.0796,0.08013 0.13972,0.17001 0.17977,0.27065 0.04,0.09966 0.0602,0.21007 0.0602,0.32047 0,0.10944 -0.02,0.21007 -0.0602,0.31951 -0.04,0.0899 -0.10019,0.19054 -0.17977,0.25991 -0.1505,0.16024 -0.36057,0.25014 -0.58041,0.25014 z"
           fill="#252626" />
      </g>
    </g>
    <g
       id="uuid-5110a3b7-9fc2-4e75-a3b2-01ff060286fc"
       data-name="g123">
      <g
         id="uuid-35901cf4-5e7c-4b53-a8b2-e68be376ed1e"
         data-name="g138">
        <path
           id="uuid-b7194e89-a704-4590-ae07-2b288c0be86b"
           data-name="path136"
           d="m 8.84307,190.09139 c 0,-3.57679 2.91343,-6.49022 6.49022,-6.49022 1.74445,0 3.38441,0.68029 4.60577,1.91911 l 0.57575,0.59323 -2.16331,1.88417 -0.50588,-0.48843 c -0.68055,-0.66308 -1.57037,-1.02927 -2.51233,-1.02927 -1.98896,0 -3.61143,1.6225 -3.61143,3.61142 0,2.00614 1.62247,3.62889 3.61143,3.62889 0.9594,0 1.83177,-0.36644 2.51233,-1.02951 v -1.53518 h -3.21031 v -2.87875 h 6.08884 v 5.44347 l -0.13943,0.2093 c -1.25631,1.67487 -3.2278,2.66924 -5.25138,2.66924 -3.57682,-7e-5 -6.49026,-2.91353 -6.49026,-6.50748 z"
           fill="#252626" />
      </g>
      <g
         id="uuid-1e78c87d-f9c3-498c-8ca0-10f8d2ceb33b"
         data-name="g93">
        <path
           id="uuid-9c8eb968-2f59-4ce6-82ad-a199e3f1683c"
           data-name="path91"
           d="m 28.74755,183.98481 h 8.46171 v 2.96611 h -5.42604 v 1.0642 h 4.74577 v 3.01822 h -4.74577 v 2.3729 h 5.30407 v 3.00076 h -8.33973 c 0,0 -2e-5,-12.42218 -2e-5,-12.42218 z"
           fill="#252626" />
      </g>
      <g
         id="uuid-bc807c46-2f75-417e-9c9c-a41b6cf38c8b"
         data-name="g97">
        <path
           id="uuid-2e06621d-c5ce-4625-93ad-147471e49f7e"
           data-name="path95"
           d="m 56.67824,190.12605 c 0,3.54183 -2.93118,6.43784 -6.47277,6.43784 -3.55905,0 -6.45529,-2.896 -6.45529,-6.43784 0,-3.57653 2.89626,-6.47251 6.45529,-6.47251 3.5416,0 6.47277,2.89597 6.47277,6.47251 z m -3.05341,0 c 0,-1.90164 -1.51771,-3.48921 -3.41935,-3.48921 -1.90164,0 -3.43708,1.58757 -3.43708,3.48921 0,1.88443 1.53544,3.43706 3.43708,3.43706 1.90164,0 3.41935,-1.55264 3.41935,-3.43706 z"
           fill="#252626" />
      </g>
      <g
         id="uuid-1e04a208-39e4-44ca-a7e4-7a999565f424"
         data-name="g101">
        <path
           id="uuid-5e086381-f9b3-4810-ad14-0a2f34a1fce0"
           data-name="path99"
           d="m 63.81183,183.98481 h 4.30945 c 3.50665,0 6.35052,2.79145 6.35052,6.21107 0,3.41962 -2.84386,6.21111 -6.35052,6.21111 h -4.30945 z m 7.65921,6.21107 c 0,-1.7619 -1.50052,-3.22749 -3.34976,-3.22749 h -1.30871 v 6.4553 h 1.30871 c 1.84922,-1e-5 3.34976,-1.46563 3.34977,-3.22781 z"
           fill="#252626" />
      </g>
      <g
         id="uuid-aa16e3cd-84ab-4557-9bc5-5843b0a8fe59"
         data-name="g105">
        <path
           id="uuid-26e65bc5-03a2-4956-94d9-4b70cb02af82"
           data-name="path103"
           d="m 81.72764,183.98481 h 8.46171 v 2.96611 H 84.7636 v 1.0642 h 4.7452 v 3.01822 h -4.7452 v 2.3729 h 5.30352 v 3.00076 h -8.33946 c 0,0 -2e-5,-12.42218 -2e-5,-12.42218 z"
           fill="#252626" />
      </g>
      <g
         id="uuid-06266dd7-ff47-45ce-907b-18d08f5e46e0"
         data-name="g109">
        <path
           id="uuid-9dca7769-453a-4caf-b774-4200cb87abdc"
           data-name="path107"
           d="m 101.1093,196.37206 c -1.25602,-0.26171 -2.40754,-0.83748 -3.89058,-2.11095 l 1.98895,-2.28557 c 1.09914,0.95941 1.74474,1.32587 2.51231,1.4656 0.22677,0.0521 0.45352,0.0872 0.66307,0.0872 0.34871,0 0.6628,-0.0695 0.90702,-0.19183 0.20957,-0.10476 0.57575,-0.33154 0.57575,-0.80251 0,-0.48843 -0.90728,-0.78507 -1.69236,-0.94221 -0.34871,-0.0695 -2.05852,-0.43605 -2.75652,-0.8549 -1.18644,-0.69774 -1.79684,-1.76194 -1.79684,-3.08808 0,-0.73266 0.24421,-1.43068 0.64533,-2.02361 0.40142,-0.55829 0.95969,-0.99462 1.60531,-1.29122 l -0.01743,0.0178 c 0.6628,-0.31406 1.41321,-0.47096 2.12839,-0.47096 0.29662,0 0.57574,0.0178 0.92477,0.0697 1.11659,0.19179 2.14586,0.64532 3.57651,1.83176 l -1.91911,2.30304 c -1.29122,-1.0642 -1.95402,-1.22137 -2.61709,-1.22137 -0.33153,0 -0.59322,0.0697 -0.80252,0.17467 -0.33153,0.13945 -0.50588,0.38367 -0.50588,0.6104 0,0.47128 0.62815,0.698 1.63994,0.90731 0.10478,0.0349 0.22677,0.0349 0.349,0.0697 0.68027,0.15689 1.69236,0.36647 2.35514,0.7501 h -0.0176 c 1.2563,0.698 1.91909,1.79713 1.91909,3.15795 0,0.80251 -0.20928,1.55262 -0.6628,2.18079 -0.40138,0.57573 -0.9946,0.99432 -1.65742,1.32585 -0.69799,0.36649 -1.41319,0.47125 -2.19824,0.47125 -0.41883,4e-5 -0.87233,-0.0523 -1.25627,-0.13963 l 9e-5,-2.8e-4 z"
           fill="#252626" />
      </g>
      <g
         id="uuid-76de548c-36e9-4df0-ae44-0d5011510f7f"
         data-name="g113">
        <path
           id="uuid-a12f7088-fed6-42c5-8669-e22b988f5346"
           data-name="path111"
           d="m 114.57623,183.98481 h 3.03597 v 12.42218 h -3.03597 z"
           fill="#252626" />
      </g>
      <g
         id="uuid-c72ebbe3-91e5-4dc2-9bd8-91580699fd88"
         data-name="g117">
        <path
           id="uuid-c72d7d4f-a94e-45f0-959d-0de9152bcf30"
           data-name="path115"
           d="m 134.86577,191.83586 2.39005,1.76221 c -1.55262,2.07626 -3.3847,2.9833 -5.40828,2.9833 -3.55935,0 -6.47278,-2.91347 -6.47278,-6.47251 0,-3.55933 2.91343,-6.4553 6.47278,-6.4553 2.05852,0 3.9255,0.95943 5.47816,3.0357 l -2.425,1.77936 c -0.97716,-1.3084 -1.9715,-1.83177 -3.05315,-1.83177 -1.93658,0 -3.47201,1.55264 -3.47201,3.472 0,1.93658 1.53546,3.47174 3.47201,3.47174 1.08162,1e-5 2.04105,-0.4535 3.01822,-1.74472 v 0 z"
           fill="#252626" />
      </g>
      <g
         id="uuid-3aacca8f-319b-43fb-b054-ac2f4dce2dbc"
         data-name="g121">
        <path
           id="uuid-6748cf7c-a318-4ac3-a5a1-02055e1cb05e"
           data-name="path119"
           d="m 147.52989,196.37206 c -1.25603,-0.26171 -2.40754,-0.83748 -3.89058,-2.11095 l 1.98893,-2.28557 c 1.09914,0.95941 1.74475,1.32587 2.51232,1.4656 0.22676,0.0521 0.45351,0.0872 0.66311,0.0872 0.34873,0 0.66278,-0.0695 0.90703,-0.19183 0.20958,-0.10476 0.57576,-0.33154 0.57576,-0.80251 0,-0.48843 -0.90731,-0.78507 -1.69235,-0.94221 -0.34873,-0.0695 -2.05852,-0.43605 -2.75655,-0.8549 -1.18647,-0.69774 -1.79684,-1.76194 -1.79684,-3.08808 0,-0.73266 0.24421,-1.43068 0.64533,-2.02361 0.4014,-0.55829 0.95969,-0.99462 1.60531,-1.29122 l -0.0174,0.0178 c 0.6628,-0.31406 1.41321,-0.47096 2.12838,-0.47096 0.29662,0 0.57576,0.0178 0.92478,0.0697 1.11658,0.19179 2.14586,0.64532 3.57651,1.83176 l -1.91911,2.30304 c -1.29121,-1.0642 -1.954,-1.22137 -2.61709,-1.22137 -0.33154,0 -0.59321,0.0697 -0.80251,0.17467 -0.33154,0.13945 -0.50591,0.38367 -0.50591,0.6104 0,0.47128 0.62815,0.698 1.63994,0.90731 0.10483,0.0349 0.22676,0.0349 0.34902,0.0697 0.68026,0.15689 1.69235,0.36647 2.35515,0.7501 h -0.0174 c 1.25629,0.698 1.91911,1.79713 1.91911,3.15795 0,0.80251 -0.20928,1.55262 -0.6628,2.18079 -0.40139,0.57573 -0.99461,0.99432 -1.65741,1.32585 -0.698,0.36649 -1.41319,0.47125 -2.19822,0.47125 -0.41885,4e-5 -0.87237,-0.0523 -1.2563,-0.13963 l -1.4e-4,-2.8e-4 z"
           fill="#252626" />
      </g>
    </g>
    <g
       id="uuid-6be3f606-73e4-4354-a04b-f50697afc15a"
       data-name="g209">
      <g
         id="uuid-4ed3d799-0abb-4c44-8394-dd7c4eff2b01"
         data-name="g127">
        <path
           id="uuid-0bb4600b-7617-4b64-b38a-ffe803b5d26d"
           data-name="path125"
           d="m 53.61987,289.49304 c -0.12312,2.21699 -1.1432,3.45494 -2.88433,3.45494 -1.98544,0 -3.10124,-1.53694 -3.10124,-5.01924 0,-3.4823 1.1158,-5.01924 3.10124,-5.01924 1.97272,0 2.78858,1.40113 2.78858,2.99279 h -0.87058 c 0,-1.32003 -0.66638,-2.25802 -1.918,-2.25802 -1.38745,0 -2.23067,1.1422 -2.23067,4.28448 0,3.14228 0.84322,4.28448 2.23067,4.28448 1.22427,0 1.918,-1.04743 2.01375,-2.72018 h 0.87058 z"
           fill="#252626" />
      </g>
      <g
         id="uuid-1fe5f03a-c39d-4d21-8045-5095602bc20e"
         data-name="g131">
        <path
           id="uuid-2f8a092e-9cca-45e4-b6c6-ca95adf415df"
           data-name="path129"
           d="m 56.91359,285.39811 c 1.59166,0 2.48959,1.26531 2.48959,3.76858 0,2.51597 -0.89795,3.78129 -2.48959,3.78129 -1.59164,0 -2.4886,-1.26531 -2.4886,-3.78129 -3e-5,-2.50327 0.89695,-3.76858 2.4886,-3.76858 z m 0,6.86983 c 0.91161,0 1.61901,-0.78948 1.61901,-3.10124 0,-2.29906 -0.7074,-3.08756 -1.619,-3.08756 -0.91065,0 -1.61804,0.7885 -1.61804,3.08756 0,2.31179 0.70741,3.10124 1.61804,3.10124 z"
           fill="#252626" />
      </g>
      <g
         id="uuid-28c66a8f-eef2-4600-9bf1-0070787d355b"
         data-name="g135">
        <path
           id="uuid-0444c686-ce7a-4b59-934a-219cd621ed57"
           data-name="path133"
           d="M 64.41166,291.58789 H 64.3843 c -0.21789,0.82954 -0.91161,1.36009 -1.7685,1.36009 -1.59166,0 -2.31274,-1.27899 -2.31274,-3.78129 0,-2.48959 0.72108,-3.76858 2.31274,-3.76858 0.89795,0 1.50958,0.49049 1.68643,1.25164 h 0.02736 v -3.57708 h 0.81586 v 9.71214 h -0.73379 z m -1.66005,0.68005 c 0.82954,0 1.57799,-0.4221 1.57799,-3.10124 0,-2.66644 -0.74845,-3.08756 -1.57799,-3.08756 -0.81586,0 -1.57799,0.42112 -1.57799,3.08756 2e-5,2.67917 0.76213,3.10124 1.57799,3.10124 z"
           fill="#252626" />
      </g>
      <g
         id="uuid-dd555651-482f-46ae-83c1-afa9ffc16851"
         data-name="g139">
        <path
           id="uuid-e0ab22c6-c1a8-4496-8e8f-0c442f7fe7bb"
           data-name="path137"
           d="m 71.09293,290.39098 c -0.12213,1.53694 -0.96634,2.55701 -2.32643,2.55701 -1.52327,0 -2.4212,-1.06111 -2.4212,-3.78129 0,-2.50327 0.89795,-3.76858 2.48959,-3.76858 1.60534,0 2.32643,1.10214 2.32643,3.50966 v 0.29996 h -3.94544 v 0.34002 c 0,2.08117 0.73477,2.72018 1.53693,2.72018 0.8569,0 1.38745,-0.61263 1.52423,-1.87696 h 0.81588 z m -0.80218,-1.86426 c -0.02736,-1.79489 -0.53055,-2.44758 -1.53791,-2.44758 -1.00638,0 -1.50958,0.65269 -1.53693,2.44758 h 3.07485 z"
           fill="#252626" />
      </g>
      <g
         id="uuid-b16d6bfd-647b-4c0f-ac86-ef87e5f33977"
         data-name="g143">
        <path
           id="uuid-27cd58cb-7f33-4223-82ad-9f77a1b37837"
           data-name="path141"
           d="m 80.52269,291.60157 c -0.54425,0.81586 -1.38745,1.34641 -2.58438,1.34641 -1.67373,0 -2.72114,-1.1422 -2.72114,-2.57069 0,-1.02007 0.51687,-1.82322 1.40113,-2.50327 l 0.80316,-0.61165 c -0.69372,-0.91161 -1.11581,-1.63269 -1.11581,-2.39481 0,-1.16956 0.91161,-1.79489 1.9864,-1.79489 1.12852,0 1.86327,0.72108 1.86327,1.79489 0,0.78948 -0.32634,1.52424 -1.71379,2.50327 l 2.09485,2.93807 c 0.24427,-0.59797 0.34002,-1.23796 0.35372,-1.83593 h 0.81586 c 0,0.84322 -0.24525,1.74115 -0.68004,2.51597 l 1.279,1.79587 h -0.92528 l -0.85692,-1.18324 z M 77.8289,287.8066 c -1.37377,0.95167 -1.74115,1.71379 -1.74115,2.47493 0,1.15686 0.89795,1.93168 1.97272,1.93168 0.7885,0 1.65908,-0.47584 2.04013,-1.22428 l -2.2717,-3.18234 z m 0.2042,-0.99369 c 1.07477,-0.81586 1.30634,-1.44119 1.30634,-1.97174 0,-0.62631 -0.47682,-1.08846 -1.10214,-1.08846 -0.639,0 -1.11582,0.46216 -1.11582,1.08846 2e-5,0.51687 0.36739,1.23796 0.91163,1.97174 z"
           fill="#252626" />
      </g>
      <g
         id="uuid-14e6d92b-5d14-4354-96f1-c944a87ee787"
         data-name="g147">
        <path
           id="uuid-f9ead47b-a031-49d8-95fe-e82bda8f84a2"
           data-name="path145"
           d="m 86.28059,285.56129 h 0.81682 v 1.1295 h 0.02736 c 0.31268,-0.80218 0.97904,-1.29267 1.82225,-1.29267 0.09575,0 0.19054,0.0142 0.28628,0.0409 v 0.81586 c -0.13678,-0.0263 -0.2726,-0.04 -0.39473,-0.04 -0.89795,0 -1.74116,0.65269 -1.74116,2.05381 v 4.51605 h -0.81682 c 0,0 2e-5,-7.22353 0,-7.22353 z"
           fill="#252626" />
      </g>
      <g
         id="uuid-cf06102c-a526-4f0c-8c54-a60d64e47d28"
         data-name="g151">
        <path
           id="uuid-4b85b7b8-0f04-46ed-ade2-162f21df61eb"
           data-name="path149"
           d="m 94.51246,290.39098 c -0.12213,1.53694 -0.96634,2.55701 -2.32641,2.55701 -1.52328,0 -2.4212,-1.06111 -2.4212,-3.78129 0,-2.50327 0.89795,-3.76858 2.48959,-3.76858 1.60534,0 2.32641,1.10214 2.32641,3.50966 v 0.29996 h -3.94543 v 0.34002 c 0,2.08117 0.73477,2.72018 1.53693,2.72018 0.8569,0 1.38745,-0.61263 1.52423,-1.87696 h 0.81587 z m -0.80218,-1.86426 c -0.02736,-1.79489 -0.53057,-2.44758 -1.53789,-2.44758 -1.00638,0 -1.50958,0.65269 -1.53693,2.44758 h 3.07483 z"
           fill="#252626" />
      </g>
      <g
         id="uuid-0d971d13-1782-491c-918e-7af277afc101"
         data-name="g155">
        <path
           id="uuid-dfabd794-7c44-4fb2-a64b-c205de240a24"
           data-name="path153"
           d="m 95.91555,283.07267 h 0.81586 v 9.71214 h -0.81586 z"
           fill="#252626" />
      </g>
      <g
         id="uuid-e082d9f3-1072-4088-bc54-2335769d82ef"
         data-name="g159">
        <path
           id="uuid-eb189e88-e296-47cd-adf3-fb4f11285dba"
           data-name="path157"
           d="m 102.81274,290.39098 c -0.12213,1.53694 -0.96634,2.55701 -2.32641,2.55701 -1.52326,0 -2.42117,-1.06111 -2.42117,-3.78129 0,-2.50327 0.89795,-3.76858 2.48958,-3.76858 1.60534,0 2.32641,1.10214 2.32641,3.50966 v 0.29996 h -3.94544 v 0.34002 c 0,2.08117 0.73477,2.72018 1.53693,2.72018 0.8569,0 1.38745,-0.61263 1.52423,-1.87696 h 0.81586 z m -0.80218,-1.86426 c -0.0273,-1.79489 -0.53055,-2.44758 -1.53791,-2.44758 -1.00638,0 -1.50958,0.65269 -1.53693,2.44758 h 3.07485 z"
           fill="#252626" />
      </g>
      <g
         id="uuid-fd1e9dae-2ee2-47a1-8348-2cff1e404601"
         data-name="g163">
        <path
           id="uuid-85f8e00b-17d8-4aa1-80c4-9eb8e3a465ec"
           data-name="path161"
           d="m 104.01159,287.71085 c 0,-1.48223 0.70741,-2.31274 2.23164,-2.31274 1.4959,0 2.04013,0.7758 2.04013,1.918 v 4.27178 c 0,0.40842 0.13581,0.59797 0.42111,0.59797 h 0.23157 v 0.59895 c -0.1495,0.0548 -0.27163,0.082 -0.38105,0.082 -0.639,0 -1.04743,-0.15047 -1.04743,-0.89793 v -0.24525 h -0.0273 c -0.32634,0.95265 -1.06111,1.22428 -1.86327,1.22428 -1.26531,0 -1.83593,-0.7885 -1.83593,-2.04014 0,-0.95265 0.43481,-1.71379 1.45488,-2.00008 l 1.53693,-0.4348 c 0.57159,-0.16312 0.69372,-0.29996 0.69372,-1.14318 0,-0.92431 -0.51687,-1.25066 -1.25065,-1.25066 -0.96634,0 -1.38745,0.58429 -1.38745,1.63172 l -0.81688,8e-5 z m 3.45496,0.99271 h -0.0264 c -0.082,0.24525 -0.54423,0.39474 -0.87058,0.47681 l -0.68006,0.1768 c -0.81682,0.21691 -1.23795,0.63901 -1.23795,1.4959 0,0.84322 0.43481,1.41481 1.1422,1.41481 0.99272,0 1.67276,-0.74844 1.67276,-2.04014 v -1.52424 h 3e-5 v 5e-5 z"
           fill="#252626" />
      </g>
      <g
         id="uuid-5c321e32-c991-4002-a114-cdfda505e907"
         data-name="g167">
        <path
           id="uuid-28c916b7-6a0d-408b-aeb1-7c039463491e"
           data-name="path165"
           d="m 111.10126,289.19406 c -1.02007,-0.39474 -1.38745,-0.99369 -1.38745,-1.71477 0,-1.48223 0.92528,-2.08117 2.14958,-2.08117 1.36009,0 1.98541,0.69372 1.98541,2.01375 v 0.20421 h -0.81586 v -0.20421 c 0,-0.93897 -0.43578,-1.33273 -1.18323,-1.33273 -0.95264,0 -1.32004,0.50319 -1.32004,1.2233 0,0.50417 0.16318,0.89793 0.98,1.21157 l 1.18323,0.44848 c 0.97904,0.36738 1.34641,1.04743 1.34641,1.83593 0,1.23796 -0.70741,2.14957 -2.23067,2.14957 -1.4832,0 -2.21701,-0.61165 -2.21701,-2.24434 v -0.23157 h 0.81586 v 0.19053 c 0,1.06111 0.46214,1.60534 1.38745,1.60534 0.87058,0 1.42849,-0.48952 1.42849,-1.29267 0,-0.63901 -0.25893,-1.04743 -0.98,-1.33273 l -1.14218,-0.44848 z"
           fill="#252626" />
      </g>
      <g
         id="uuid-9ca7b2af-10f6-4b14-9ae5-3de09c1d8911"
         data-name="g171">
        <path
           id="uuid-09a7a3b8-aba3-48b8-8b23-c236c4d572e5"
           data-name="path169"
           d="m 119.70051,290.39098 c -0.12212,1.53694 -0.96634,2.55701 -2.32642,2.55701 -1.52328,0 -2.42121,-1.06111 -2.42121,-3.78129 0,-2.50327 0.89795,-3.76858 2.48959,-3.76858 1.60532,0 2.32642,1.10214 2.32642,3.50966 v 0.29996 h -3.94544 v 0.34002 c 0,2.08117 0.73478,2.72018 1.53693,2.72018 0.85691,0 1.38745,-0.61263 1.52424,-1.87696 z m -0.80217,-1.86426 c -0.0273,-1.79489 -0.53057,-2.44758 -1.5379,-2.44758 -1.0064,0 -1.50957,0.65269 -1.53693,2.44758 z"
           fill="#252626" />
      </g>
      <g
         id="uuid-d3e091d4-f1a6-4f8c-9979-7ef90985cbce"
         data-name="g175">
        <path
           id="uuid-5fbdc7f7-0e84-4fad-92cf-f2b92ac95e33"
           data-name="path173"
           d="m 56.56772,299.40255 h 2.42119 l 1.71477,7.19519 h 0.02639 l 1.68741,-7.19519 h 2.36647 v 9.71214 h -1.46854 v -8.08042 h -0.02736 l -1.95904,8.08042 h -1.30538 l -1.95904,-8.08042 h -0.02734 v 8.08042 h -1.46954 c 0,0 -2e-5,-9.71214 0,-9.71214 z"
           fill="#252626" />
      </g>
      <g
         id="uuid-ac6772b5-ea9d-4ad7-b816-fa007d590601"
         data-name="g179">
        <path
           id="uuid-04d50227-c12f-4d7e-9518-795e43f846d1"
           data-name="path177"
           d="m 71.0988,307.59143 c 0,0.27163 0.16318,0.51687 0.38105,0.51687 0.09577,0 0.19054,-0.0142 0.24525,-0.0409 v 0.95265 c -0.17686,0.0811 -0.43578,0.1768 -0.72109,0.1768 -0.65268,0 -1.19691,-0.25893 -1.23795,-0.96633 H 69.7387 c -0.39473,0.72108 -0.96534,1.07478 -1.82225,1.07478 -1.17054,0 -1.90433,-0.65269 -1.90433,-2.05381 0,-1.63269 0.70741,-1.97272 1.70011,-2.29906 l 1.1422,-0.31266 c 0.53055,-0.14941 0.8569,-0.29996 0.8569,-0.93897 0,-0.66637 -0.23059,-1.08846 -1.00638,-1.08846 -0.97904,0 -1.11484,0.69372 -1.11484,1.40113 h -1.38845 c 0,-1.55062 0.63998,-2.40752 2.57167,-2.40752 1.2917,0 2.32544,0.50319 2.32544,1.79587 v 4.18973 l 3e-5,-1.1e-4 z m -1.38745,-2.3401 c -0.38008,0.29899 -1.19693,0.47584 -1.6317,0.68005 -0.4221,0.20421 -0.59895,0.63999 -0.59895,1.18324 0,0.61263 0.29899,1.10214 0.91161,1.10214 0.88425,0 1.31906,-0.66637 1.31906,-1.74115 0,0 0,-1.22428 -1e-5,-1.22428 z"
           fill="#252626" />
      </g>
      <g
         id="uuid-889265cc-7a34-4638-b69c-6a90401d8ef9"
         data-name="g183">
        <path
           id="uuid-ca5122ec-dd86-4f5b-9133-0bbcdc7afbda"
           data-name="path181"
           d="m 72.5986,301.79639 h 1.46952 v 1.1422 h 0.02639 c 0.32634,-0.81586 0.87058,-1.33273 1.70109,-1.33273 0.16318,0 0.25795,0.0274 0.35372,0.0548 v 1.4959 c -0.10945,-0.0274 -0.36737,-0.0811 -0.61263,-0.0811 -0.66638,0 -1.46854,0.29899 -1.46854,1.65908 v 4.38023 h -1.46954 v -7.3183 h -2e-5 v -8e-5 z"
           fill="#252626" />
      </g>
      <g
         id="uuid-34ec375f-eba9-4e1e-933c-070490b951be"
         data-name="g187">
        <path
           id="uuid-a30a800e-d6f3-4c6e-bd37-af4e7d5308ac"
           data-name="path185"
           d="m 81.57792,306.44825 c -0.09577,1.75483 -0.69372,2.85697 -2.50326,2.85697 -2.1222,0 -2.72019,-1.57798 -2.72019,-3.84968 0,-2.2717 0.59797,-3.84968 2.72019,-3.84968 2.18964,-0.0274 2.51695,1.71379 2.51695,2.6254 h -1.46952 c 0,-0.68005 -0.19052,-1.5643 -1.04743,-1.53694 -1.06111,0 -1.25163,1.1422 -1.25163,2.76122 0,1.61902 0.19054,2.76122 1.25163,2.76122 0.81586,0.0142 1.11581,-0.66637 1.11581,-1.76851 h 1.38746 z"
           fill="#252626" />
      </g>
      <g
         id="uuid-4060ab8d-f82f-49a1-bbb1-102b7d887de2"
         data-name="g191">
        <path
           id="uuid-bdd1689b-92f6-481e-af4c-7e3bb525dc70"
           data-name="path189"
           d="m 86.04219,299.40255 h 3.14228 c 1.44214,0 2.61172,0.63901 2.61172,2.3528 0,1.18324 -0.46214,1.90432 -1.42751,2.20428 v 0.0265 c 1.06013,0.19053 1.74116,0.83052 1.74116,2.47591 0,1.61902 -1.17054,2.65276 -2.99279,2.65276 h -3.07486 z m 2.77488,4.09392 c 0.93896,0 1.42847,-0.62533 1.42847,-1.53694 0,-1.15588 -0.69372,-1.38745 -1.56431,-1.38745 h -1.08846 v 2.92439 z m 0.31364,4.44863 c 0.92431,0 1.42751,-0.59895 1.42751,-1.71379 0,-1.04743 -0.62532,-1.64637 -1.52328,-1.64637 h -1.44216 v 3.36017 h 1.53793 z"
           fill="#252626" />
      </g>
      <g
         id="uuid-d17946b0-a938-49d1-b80a-02241c65a5ed"
         data-name="g195">
        <path
           id="uuid-a14028c8-12c5-43d6-994e-8af46683b97d"
           data-name="path193"
           d="m 95.68984,301.60586 c 2.1359,0 2.73387,1.57798 2.73387,3.84968 0,2.2717 -0.69372,3.84968 -2.73387,3.84968 -2.02645,0 -2.72019,-1.57798 -2.72019,-3.84968 0,-2.2717 0.59797,-3.84968 2.72019,-3.84968 z m 0,6.6109 c 1.07477,0 1.26531,-0.89793 1.26531,-2.76122 0,-1.61902 -0.19054,-2.76122 -1.26531,-2.76122 -1.06111,0 -1.25163,1.1422 -1.25163,2.76122 -2e-5,1.86328 0.19052,2.76122 1.25163,2.76122 z"
           fill="#252626" />
      </g>
      <g
         id="uuid-90916c8c-e75d-4a09-a084-408d5d7e60d6"
         data-name="g199">
        <path
           id="uuid-88cba6d7-586f-4170-8085-ba1c7b52aae4"
           data-name="path197"
           d="m 103.29539,308.2578 h -0.04 c -0.36737,0.65269 -1.06111,1.04743 -1.87793,1.04743 -1.08747,0 -1.82225,-0.50319 -1.82225,-2.39384 v -5.115 h 1.46854 v 5.25081 c 0,0.81586 0.36737,1.08846 0.99368,1.08846 0.62532,0 1.19691,-0.40842 1.19691,-1.22428 v -5.115 h 1.46856 v 7.3183 h -1.38747 v -0.8569 h -2e-5 z"
           fill="#252626" />
      </g>
      <g
         id="uuid-9fa492c5-5ad9-48a5-8bf7-7862422bc85b"
         data-name="g203">
        <path
           id="uuid-7715ac9b-4a26-4d88-a07b-8ab296e3cf91"
           data-name="path201"
           d="m 106.16898,299.40255 h 1.46854 v 9.71214 h -1.46854 z"
           fill="#252626" />
      </g>
      <g
         id="uuid-3dec2674-b47c-47c0-b05c-195a001959bc"
         data-name="g207">
        <path
           id="uuid-db33a45d-bbe6-408c-b8a8-130ee5e63d0a"
           data-name="path205"
           d="m 110.38702,305.64607 v 0.4221 c 0,0.97903 0.12213,2.23067 1.22427,2.23067 1.04743,0 1.16956,-1.19692 1.16956,-1.63269 h 1.38746 c 0,1.61902 -0.97904,2.63908 -2.57069,2.63908 -1.19691,0 -2.68011,-0.3537 -2.68011,-3.74123 0,-1.918 0.40841,-3.95814 2.70747,-3.95814 2.04013,0 2.58438,1.22428 2.58438,3.26441 v 0.7758 c 0,0 -3.82235,0 -3.82234,0 z m 2.35281,-1.00639 v -0.39474 c 0,-0.92529 -0.29899,-1.63269 -1.12852,-1.63269 -0.93896,0 -1.22427,0.92529 -1.22427,1.87794 v 0.1496 c 0,0 2.35279,-3e-5 2.35279,-3e-5 z m -0.93799,-5.754 h 1.6317 l -1.44214,1.95904 h -1.00638 z"
           fill="#252626" />
      </g>
    </g>
    <g
       id="uuid-4a649f10-bbc8-4ef6-8717-c7395b36bbd9"
       data-name="g307">
      <g
         id="uuid-eedb038e-af10-42ed-aa21-b52f11bd361a"
         data-name="g213">
        <path
           id="uuid-95490a6d-d2fc-4155-ab82-6cf8e405ea9a"
           data-name="path211"
           d="m 54.37563,331.45457 c -0.12312,2.21699 -1.14318,3.45494 -2.88433,3.45494 -1.98544,0 -3.10124,-1.53694 -3.10124,-5.01924 0,-3.4823 1.1158,-5.01924 3.10124,-5.01924 1.97272,0 2.78858,1.40113 2.78858,2.99279 H 53.4093 c 0,-1.32003 -0.66638,-2.25802 -1.918,-2.25802 -1.38745,0 -2.23067,1.1422 -2.23067,4.28448 0,3.14228 0.84322,4.28448 2.23067,4.28448 1.22427,0 1.918,-1.04743 2.01377,-2.72018 h 0.87056 z"
           fill="#252626" />
      </g>
      <g
         id="uuid-a1df4e75-51a0-4d8a-9dc9-2144a6cd73b1"
         data-name="g217">
        <path
           id="uuid-8fa82dc4-d92a-4df8-8c3f-a96ed7eaebd1"
           data-name="path215"
           d="m 57.66936,327.35964 c 1.59166,0 2.48959,1.26531 2.48959,3.76858 0,2.51597 -0.89795,3.78129 -2.48959,3.78129 -1.59069,0 -2.4886,-1.26531 -2.4886,-3.78129 -2e-5,-2.50324 0.89791,-3.76858 2.4886,-3.76858 z m 0,6.86983 c 0.91161,0 1.619,-0.78948 1.619,-3.10124 0,-2.29906 -0.7074,-3.08756 -1.619,-3.08756 -0.91065,0 -1.61804,0.7885 -1.61804,3.08756 -2e-5,2.31176 0.70739,3.10124 1.61804,3.10124 z"
           fill="#252626" />
      </g>
      <g
         id="uuid-1f5c1aa8-56d9-47c5-87ad-c94484a5eed5"
         data-name="g221">
        <path
           id="uuid-10703c14-5294-4f60-8a34-6a1800be8231"
           data-name="path219"
           d="m 61.35783,327.52282 h 0.73477 v 1.00737 h 0.02736 c 0.40841,-0.80316 1.11581,-1.17054 1.84959,-1.17054 1.10214,0 1.85059,0.57159 1.85059,1.93168 v 5.45502 h -0.81586 v -5.22345 c 0,-0.99271 -0.40841,-1.48223 -1.23797,-1.48223 -0.95264,0 -1.59164,0.73378 -1.59164,1.84961 v 4.85607 h -0.81684 c 0,0 -2e-5,-7.22353 0,-7.22353 z"
           fill="#252626" />
      </g>
      <g
         id="uuid-88591232-098f-4433-a589-cd3eac2b2647"
         data-name="g225">
        <path
           id="uuid-783d56e1-47b6-461f-b1ef-eba2b804cdae"
           data-name="path223"
           d="m 71.74023,332.3525 c -0.12313,1.53694 -0.96634,2.55701 -2.29906,2.55701 -1.52423,0 -2.4212,-1.06111 -2.4212,-3.78129 0,-2.50327 0.89695,-3.76858 2.4886,-3.76858 1.36105,0 2.14958,0.83052 2.23164,2.31274 h -0.81682 c -0.09477,-1.12852 -0.54425,-1.63172 -1.41481,-1.63172 -0.88425,0 -1.61805,0.54325 -1.61805,3.10124 0,2.72018 0.77481,3.08756 1.53693,3.08756 0.82954,0 1.36011,-0.61263 1.49592,-1.87696 2e-5,-3e-5 0.81682,-3e-5 0.81684,-3e-5 v 3e-5 z"
           fill="#252626" />
      </g>
      <g
         id="uuid-4e83935d-e689-4296-8a5e-68d16c0079ab"
         data-name="g229">
        <path
           id="uuid-2d18871d-f327-44ec-bfdf-aad93485fb08"
           data-name="path227"
           d="m 77.38676,332.3525 c -0.12213,1.53694 -0.96634,2.55701 -2.32643,2.55701 -1.52328,0 -2.4212,-1.06111 -2.4212,-3.78129 0,-2.50327 0.89795,-3.76858 2.48959,-3.76858 1.60534,0 2.32643,1.10214 2.32643,3.50966 v 0.29996 h -3.94544 v 0.34002 c 0,2.08117 0.73477,2.72018 1.53693,2.72018 0.85691,0 1.38745,-0.61263 1.52425,-1.87696 h 0.81586 z m -0.80218,-1.86426 c -0.02736,-1.79489 -0.53055,-2.44758 -1.53791,-2.44758 -1.00638,0 -1.50958,0.65269 -1.53693,2.44758 h 3.07485 z"
           fill="#252626" />
      </g>
      <g
         id="uuid-a2fd7b3c-aefc-49ea-b83e-33b5b48d3f3b"
         data-name="g233">
        <path
           id="uuid-975f8134-e44b-4add-b1fd-cb21455c815e"
           data-name="path231"
           d="m 78.65404,327.52282 h 0.73477 v 1.03472 h 0.02736 c 0.25795,-0.66734 0.8569,-1.1979 1.7812,-1.1979 1.60534,0 2.29906,1.27899 2.29906,3.78226 0,2.48861 -0.72109,3.76761 -2.31274,3.76761 -0.89695,0 -1.50958,-0.48952 -1.68643,-1.25164 H 79.4699 v 3.4823 h -0.81586 v -9.61736 z m 2.42118,0.51782 c -0.46216,0 -0.87058,0.24427 -1.1422,0.63901 -0.35372,0.50319 -0.46312,1.2106 -0.46312,2.46223 0,2.66546 0.74843,3.08756 1.57799,3.08756 0.81586,0 1.57799,-0.4221 1.57799,-3.08756 -3e-5,-2.6254 -0.76214,-3.10124 -1.55065,-3.10124 z"
           fill="#252626" />
      </g>
      <g
         id="uuid-02c749af-f6c9-40bd-949b-45cc505d084a"
         data-name="g237">
        <path
           id="uuid-71b004d3-70ba-401b-a5d6-513c9cab9f45"
           data-name="path235"
           d="m 85.07733,328.20384 h -0.99368 v -0.68102 h 0.99368 v -1.9991 h 0.81588 v 1.9991 h 1.27899 v 0.68102 h -1.27899 v 5.18241 c 0,0.57159 0.24525,0.76114 0.77581,0.76114 0.16318,0 0.32634,-0.0265 0.5032,-0.0811 v 0.68005 c -0.09575,0.0546 -0.29996,0.082 -0.57159,0.082 -1.10213,0 -1.52326,-0.29996 -1.52326,-1.26531 v -5.35918 z"
           fill="#252626" />
      </g>
      <g
         id="uuid-361a8fa7-8253-4d07-ab16-02b277e0a0d8"
         data-name="g241">
        <path
           id="uuid-66af737a-7dd4-4c33-8a45-7fbad5484723"
           data-name="path239"
           d="m 96.13881,333.5631 c -0.54423,0.81586 -1.38745,1.34641 -2.58438,1.34641 -1.67372,0 -2.72114,-1.1422 -2.72114,-2.57069 0,-1.02007 0.51687,-1.82322 1.40113,-2.50327 l 0.80314,-0.61165 c -0.69372,-0.91161 -1.11581,-1.63269 -1.11581,-2.39481 0,-1.16956 0.91159,-1.79489 1.9864,-1.79489 1.12852,0 1.86329,0.72108 1.86329,1.79489 0,0.78948 -0.32634,1.52424 -1.71379,2.50327 l 2.09485,2.93807 c 0.24427,-0.59797 0.34002,-1.23796 0.35369,-1.83593 h 0.81585 c 0,0.84322 -0.24525,1.74115 -0.68006,2.51597 l 1.279,1.79587 H 96.9957 L 96.13882,333.5631 Z M 93.445,329.76813 c -1.37377,0.95167 -1.74115,1.71379 -1.74115,2.47493 0,1.15686 0.89795,1.93168 1.97272,1.93168 0.78852,0 1.65908,-0.47584 2.04013,-1.22428 l -2.2717,-3.18234 z m 0.20422,-0.99369 c 1.07477,-0.81586 1.30636,-1.44119 1.30636,-1.97174 0,-0.62631 -0.47682,-1.08846 -1.10214,-1.08846 -0.639,0 -1.11582,0.46216 -1.11582,1.08846 0,0.51687 0.36737,1.23796 0.91161,1.97174 z"
           fill="#252626" />
      </g>
      <g
         id="uuid-c5599455-9b53-403f-b8eb-1916893f182f"
         data-name="g245">
        <path
           id="uuid-689227f8-7d2b-4ce3-b7f9-9c9192798ef9"
           data-name="path243"
           d="m 104.61689,330.52928 v -0.73476 h 3.11492 v 4.95182 h -0.68006 V 333.141 h -0.0273 c -0.29899,1.07478 -1.16956,1.76851 -2.13588,1.76851 -1.98543,0 -3.10124,-1.53694 -3.10124,-5.01924 0,-3.4823 1.11581,-5.01924 3.10124,-5.01924 1.85059,0 2.68011,1.2106 2.78858,2.88335 h -0.87058 c 0,-1.16956 -0.639,-2.14859 -1.91799,-2.14859 -1.38745,0 -2.23067,1.1422 -2.23067,4.28448 0,3.14228 0.84322,4.28448 2.23067,4.28448 1.30634,0 2.02745,-1.16956 2.02745,-3.44126 v -0.20421 z"
           fill="#252626" />
      </g>
      <g
         id="uuid-5a8f3454-642f-4743-a0fa-5c709df2c8ef"
         data-name="g249">
        <path
           id="uuid-b08032c5-d788-485f-b812-c6f2c00b4bbd"
           data-name="path247"
           d="m 109.04014,325.0342 h 0.87058 v 6.97828 c 0,1.45487 0.62631,2.16227 1.90433,2.16227 1.279,0 1.90531,-0.7074 1.90531,-2.16227 v -6.97828 h 0.87058 v 6.99196 c 0,2.04014 -0.99368,2.88335 -2.77586,2.88335 -1.78122,0 -2.7749,-0.84322 -2.7749,-2.88335 -2e-5,0 -2e-5,-6.99196 -3e-5,-6.99196 z"
           fill="#252626" />
      </g>
      <g
         id="uuid-b412160f-b49b-485a-8894-e5c0fb842c87"
         data-name="g253">
        <path
           id="uuid-823c45f7-6ac7-47fe-9b68-66af0d49e524"
           data-name="path251"
           d="m 116.03501,325.0342 h 0.87058 v 9.71214 h -0.87058 z"
           fill="#252626" />
      </g>
      <g
         id="uuid-da17d549-fdb5-44ea-b898-f1dd1499faba"
         data-name="g257">
        <path
           id="uuid-8082ade2-5dad-482e-ad83-4ce8bc87d63e"
           data-name="path255"
           d="m 49.75113,341.36408 h 3.07486 c 1.86327,0 2.67915,1.16956 2.67915,2.82961 0,1.74115 -1.02007,2.86967 -2.84233,2.86967 h -1.36107 v 4.01285 h -1.55063 c 0,0 0,-9.71214 2e-5,-9.71214 z m 1.55063,4.52973 h 1.10215 c 0.82954,0 1.55061,-0.44946 1.55061,-1.67373 0,-1.04743 -0.42111,-1.68643 -1.65908,-1.68643 h -0.99368 v 3.36017 z"
           fill="#252626" />
      </g>
      <g
         id="uuid-d683a343-489c-4eaa-8f9b-9df16c63b0b6"
         data-name="g261">
        <path
           id="uuid-244267d0-f947-4f40-bcb8-225357f7fab3"
           data-name="path259"
           d="m 56.5291,341.25465 h 1.46854 v 1.46952 H 56.5291 Z m 0,2.50327 h 1.46854 v 7.3183 H 56.5291 Z"
           fill="#252626" />
      </g>
      <g
         id="uuid-f1061607-7845-49ea-949c-e6efdd4c596b"
         data-name="g265">
        <path
           id="uuid-995758f2-927f-4299-adbb-f62fd6968850"
           data-name="path263"
           d="m 60.74618,347.6076 v 0.4221 c 0,0.97903 0.12213,2.23067 1.22427,2.23067 1.04743,0 1.16956,-1.19692 1.16956,-1.63269 h 1.38745 c 0,1.61902 -0.97904,2.63908 -2.5707,2.63908 -1.19691,0 -2.68011,-0.3537 -2.68011,-3.74123 0,-1.918 0.40841,-3.95814 2.70749,-3.95814 2.04013,0 2.58438,1.22428 2.58438,3.26441 v 0.7758 h -3.82233 z m 2.35277,-1.00639 v -0.39474 c 0,-0.92529 -0.29899,-1.63269 -1.12852,-1.63269 -0.93898,0 -1.22427,0.92529 -1.22427,1.87794 v 0.14941 h 2.35279 z"
           fill="#252626" />
      </g>
      <g
         id="uuid-7e574515-d6b7-4ed0-9d65-e2d1a46a501e"
         data-name="g269">
        <path
           id="uuid-8597f788-b653-4716-9dcb-644ea7e48248"
           data-name="path267"
           d="m 65.78202,343.75792 h 1.46854 v 1.1422 h 0.02736 c 0.32634,-0.81586 0.87058,-1.33273 1.70109,-1.33273 0.16318,0 0.25795,0.0274 0.35372,0.0546 v 1.4959 c -0.10945,-0.0274 -0.36737,-0.0811 -0.61263,-0.0811 -0.66638,0 -1.46952,0.29899 -1.46952,1.65908 v 4.38023 h -1.46854 v -7.3183 h -2e-5 z"
           fill="#252626" />
      </g>
      <g
         id="uuid-4bdd8a4b-a537-4554-9a58-6b38a44d3772"
         data-name="g273">
        <path
           id="uuid-cd8354de-c51b-4c58-bfec-0a5e36c294e2"
           data-name="path271"
           d="m 70.06845,343.75792 h 1.46952 v 1.1422 h 0.02638 c 0.32634,-0.81586 0.87058,-1.33273 1.70109,-1.33273 0.16318,0 0.25795,0.0274 0.35372,0.0546 v 1.4959 c -0.10945,-0.0274 -0.36737,-0.0811 -0.61263,-0.0811 -0.66638,0 -1.46854,0.29899 -1.46854,1.65908 v 4.38023 h -1.4695 v -7.3183 h -3e-5 v 1.1e-4 z"
           fill="#252626" />
      </g>
      <g
         id="uuid-8b6c00d0-6e80-4f03-97dd-bbe6f1e07419"
         data-name="g277">
        <path
           id="uuid-57bec585-e64b-4e5e-96c4-3b881ddf5f6b"
           data-name="path275"
           d="m 75.62021,347.6076 v 0.4221 c 0,0.97903 0.12213,2.23067 1.22427,2.23067 1.04743,0 1.16957,-1.19692 1.16957,-1.63269 h 1.38745 c 0,1.61902 -0.97904,2.63908 -2.5707,2.63908 -1.19693,0 -2.68011,-0.3537 -2.68011,-3.74123 0,-1.918 0.40841,-3.95814 2.70749,-3.95814 2.04015,0 2.58438,1.22428 2.58438,3.26441 v 0.7758 c 0,0 -3.82236,0 -3.82234,0 z m 2.35279,-1.00639 v -0.39474 c 0,-0.92529 -0.29899,-1.63269 -1.12852,-1.63269 -0.93898,0 -1.22427,0.92529 -1.22427,1.87794 v 0.14941 H 77.973 Z"
           fill="#252626" />
      </g>
      <g
         id="uuid-4b67d496-8fca-4a10-a11e-129bfb0dcb0d"
         data-name="g281">
        <path
           id="uuid-ad6e957b-b70b-4147-a795-463ac4d649cc"
           data-name="path279"
           d="m 89.98811,347.59392 v 0.20421 c 0,1.75483 -0.70741,3.46862 -2.99279,3.46862 -2.44856,0 -3.2097,-1.57798 -3.2097,-5.0466 0,-3.46862 0.76115,-5.0466 3.22338,-5.0466 2.7612,0 2.92438,2.04014 2.92438,3.04652 v 0.1768 h -1.55063 v -0.16312 c 0,-0.89793 -0.27163,-1.93168 -1.38745,-1.89064 -1.14218,0 -1.65908,0.7074 -1.65908,3.836 0,3.1286 0.51686,3.91808 1.65908,3.91808 1.29267,0 1.44216,-1.44216 1.44216,-2.3401 v -0.16312 h 1.55065 z"
           fill="#252626" />
      </g>
      <g
         id="uuid-2e5b2ed8-98f6-4b83-a0e3-271790184ee9"
         data-name="g285">
        <path
           id="uuid-63d7088d-31a9-45a8-9c0a-0d95a0fa571d"
           data-name="path283"
           d="m 93.41862,343.56739 c 2.1359,0 2.73387,1.57798 2.73387,3.84968 0,2.2717 -0.69372,3.84968 -2.73387,3.84968 -2.02645,0 -2.72017,-1.57798 -2.72017,-3.84968 0,-2.2717 0.59797,-3.84968 2.72017,-3.84968 z m 0,6.6109 c 1.07477,0 1.26531,-0.89793 1.26531,-2.76122 0,-1.61902 -0.19054,-2.76122 -1.26531,-2.76122 -1.06109,0 -1.25161,1.1422 -1.25161,2.76122 0,1.86328 0.19052,2.76122 1.25161,2.76122 z"
           fill="#252626" />
      </g>
      <g
         id="uuid-a8aa0957-c2b5-4e65-bc8a-2eb324c9c8ab"
         data-name="g289">
        <path
           id="uuid-9d836c52-d36a-4935-9715-521259f780fa"
           data-name="path287"
           d="m 97.35234,341.36408 h 1.46854 v 9.71214 h -1.46854 z"
           fill="#252626" />
      </g>
      <g
         id="uuid-c8ad5080-bc4d-4844-82dd-dbd7684031f9"
         data-name="g293">
        <path
           id="uuid-c33812fb-ffca-425a-9cfd-91adeb52bcdd"
           data-name="path291"
           d="m 100.37345,341.36408 h 1.46854 v 9.71214 h -1.46854 z"
           fill="#252626" />
      </g>
      <g
         id="uuid-47f5d6d1-9908-4bb4-a003-3d57b9ba287d"
         data-name="g297">
        <path
           id="uuid-8bb7bf4b-6c8b-4ff2-a7cb-32c92c212d22"
           data-name="path295"
           d="m 108.12752,349.55296 c 0,0.27163 0.16318,0.51687 0.38105,0.51687 0.0957,0 0.19054,-0.0142 0.24525,-0.0409 v 0.95265 c -0.17686,0.0811 -0.43578,0.1768 -0.72109,0.1768 -0.65268,0 -1.19691,-0.25893 -1.23795,-0.96633 h -0.0273 c -0.39473,0.72108 -0.96534,1.07478 -1.82225,1.07478 -1.17054,0 -1.90433,-0.65269 -1.90433,-2.05381 0,-1.63269 0.70741,-1.97272 1.70011,-2.29906 l 1.1422,-0.31266 c 0.53057,-0.1496 0.85691,-0.29996 0.85691,-0.93897 0,-0.66637 -0.23059,-1.08846 -1.00638,-1.08846 -0.97904,0 -1.11484,0.69372 -1.11484,1.40113 h -1.38841 c 0,-1.55062 0.63998,-2.40752 2.57167,-2.40752 1.2917,0 2.32544,0.50319 2.32544,1.79587 0,0 0,4.1897 -2e-5,4.1897 l -3e-5,-8e-5 z m -1.38744,-2.3401 c -0.38008,0.29899 -1.19691,0.47584 -1.6317,0.68005 -0.42209,0.20421 -0.59895,0.63999 -0.59895,1.18324 0,0.61263 0.29899,1.10214 0.91161,1.10214 0.88425,0 1.31906,-0.66637 1.31906,-1.74115 v -1.22428 h -1e-5 z"
           fill="#252626" />
      </g>
      <g
         id="uuid-88948619-3a2e-4aca-9d24-7c1a990f69b3"
         data-name="g301">
        <path
           id="uuid-cfd3e346-4a6a-4797-8b4e-675e68d81951"
           data-name="path299"
           d="m 109.62637,343.75792 h 1.46952 v 1.1422 h 0.0264 c 0.32634,-0.81586 0.87058,-1.33273 1.70109,-1.33273 0.16318,0 0.25795,0.0274 0.35369,0.0546 v 1.4959 c -0.10945,-0.0274 -0.36737,-0.0811 -0.61263,-0.0811 -0.66638,0 -1.46854,0.29899 -1.46854,1.65908 v 4.38023 h -1.46952 v -7.3183 h -2e-5 z"
           fill="#252626" />
      </g>
      <g
         id="uuid-12e2a9fb-859f-404f-ba6f-78bce6793d94"
         data-name="g305">
        <path
           id="uuid-2004109b-cd04-45de-b888-69ebe797df2f"
           data-name="path303"
           d="m 117.65305,350.17829 h -0.0264 c -0.19053,0.47584 -0.55791,1.08846 -1.60534,1.08846 -1.71379,0 -2.39384,-1.42849 -2.39384,-3.94446 0,-3.25171 1.1422,-3.75491 2.25802,-3.75491 0.7885,0 1.38745,0.39474 1.65908,1.04743 h 0.0273 v -3.25073 h 1.46855 v 9.71214 h -1.38745 c 0,0 4e-5,-0.89793 0,-0.89793 1e-5,-3e-5 7e-5,-3e-5 9e-5,-3e-5 v 3e-5 z m -1.33275,-5.44134 c -0.84322,0 -1.1422,0.68005 -1.1422,2.65276 0,1.66005 0.21691,2.70748 1.23794,2.70748 1.00638,0 1.23699,-1.03375 1.23699,-2.59805 0,-1.75483 -0.20326,-2.7622 -1.33273,-2.7622 z"
           fill="#252626" />
      </g>
    </g>
  </g>
  <g
     id="uuid-df855dfe-b794-410c-8e86-5f00c3f12b23"
     data-name="g182"
     transform="scale(0.95949515,0.95805365)">
    <path
       id="uuid-3746c23b-b474-4a20-86cf-23be207f7b33"
       data-name="path158"
       d="m 50.48056,218.36023 h 1.57554 l 1.27733,5.75868 h 0.02646 l 1.15418,-5.75868 h 1.5623 l -1.92872,7.30674 h -1.71091 l -1.95619,-7.30674 z"
       fill="#252626" />
    <path
       id="uuid-ff16652f-d23e-46ba-af7c-0fe0ebed783b"
       data-name="path160"
       d="m 58.13845,222.20342 v 0.42137 c 0,0.9781 0.12214,2.22693 1.22237,2.22693 1.04528,0 1.16741,-1.19489 1.16741,-1.62949 h 1.38522 c 0,1.61626 -0.97708,2.63507 -2.56688,2.63507 -1.19488,0 -2.67477,-0.35317 -2.67477,-3.7353 0,-1.91447 0.40712,-3.95209 2.70224,-3.95209 2.03762,0 2.58011,1.22237 2.58011,3.25999 v 0.77352 h -3.81571 z m 2.34907,-1.00456 v -0.39389 c 0,-0.92314 -0.29821,-1.62949 -1.1267,-1.62949 -0.93739,0 -1.22237,0.92314 -1.22237,1.87376 v 0.14962 z"
       fill="#252626" />
    <path
       id="uuid-70c91206-ab91-4b67-adb4-8c01a16d5eee"
       data-name="path162"
       d="m 63.16025,218.36023 h 1.46664 v 1.14095 h 0.02749 c 0.3257,-0.81525 0.86919,-1.33127 1.69768,-1.33127 0.16285,0 0.2575,0.0275 0.35317,0.0549 v 1.4931 c -0.1089,-0.0265 -0.36742,-0.0814 -0.61169,-0.0814 -0.66563,0 -1.46664,0.29923 -1.46664,1.65697 v 4.37346 h -1.46664 l -2e-5,-7.30674 v 6e-5 z"
       fill="#252626" />
    <path
       id="uuid-7b49671f-2dab-4c8f-8066-2637997dbea8"
       data-name="path164"
       d="m 70.5881,220.49251 v -0.19033 c 0,-0.58421 -0.20458,-1.1267 -0.96487,-1.1267 -0.58421,0 -1.04528,0.27175 -1.04528,0.95062 0,0.56996 0.2575,0.801 1.03203,1.07275 l 0.93739,0.32569 c 1.08598,0.36641 1.58876,0.95062 1.58876,2.1048 0,1.56231 -1.14094,2.22795 -2.62184,2.22795 -1.84627,0 -2.403,-0.85596 -2.403,-2.26866 v -0.27073 h 1.30379 v 0.23002 c 0,0.84273 0.29821,1.30379 1.13992,1.30379 0.80202,0 1.19591,-0.40712 1.19591,-1.07275 0,-0.5435 -0.28498,-0.89566 -0.80202,-1.07275 l -1.19488,-0.42137 c -1.10022,-0.37964 -1.5613,-0.93637 -1.5613,-2.1048 0,-1.37199 0.99133,-2.01014 2.49869,-2.01014 1.86053,0 2.28189,1.087 2.28189,1.99691 v 0.32569 c 0,0 -1.3852,0 -1.38519,0 z"
       fill="#252626" />
    <path
       id="uuid-a1c5c32b-6c82-40ac-a0f0-502ba9dfb610"
       data-name="path166"
       d="m 73.28831,215.86154 h 1.46664 v 1.46664 h -1.46664 z m 0,2.49868 h 1.46664 v 7.30674 h -1.46664 z"
       fill="#252626" />
    <path
       id="uuid-bab2dd9c-aa7f-451a-9d37-dfaf702688de"
       data-name="path168"
       d="m 78.66329,218.1699 c 2.13227,0 2.73075,1.57554 2.73075,3.84421 0,2.26764 -0.69312,3.84319 -2.73075,3.84319 -2.02338,0 -2.71548,-1.57554 -2.71548,-3.84319 0,-2.26866 0.59746,-3.84421 2.71548,-3.84421 z m 0,6.60039 c 1.07378,0 1.26308,-0.89566 1.26308,-2.75619 0,-1.61626 -0.18931,-2.7572 -1.26308,-2.7572 -1.05852,0 -1.24884,1.14095 -1.24884,2.7572 0,1.86053 0.19034,2.75619 1.24884,2.75619 z"
       fill="#252626" />
    <path
       id="uuid-fb5cd4aa-b386-490b-adb8-ac0191c25b28"
       data-name="path170"
       d="m 82.51868,218.36023 h 1.38572 v 0.85596 h 0.04072 c 0.36641,-0.65241 1.05952,-1.04629 1.87376,-1.04629 1.11449,0 1.81982,0.50279 1.81982,1.98266 v 5.51441 h -1.46664 v -5.01162 c 0,-0.95062 -0.28498,-1.31703 -1.01779,-1.31703 -0.59846,0 -1.16843,0.47531 -1.16843,1.42593 v 4.90271 H 82.5187 v -7.30674 z"
       fill="#252626" />
    <path
       id="uuid-ab07ab7d-821d-4819-b630-b45fa349270a"
       data-name="path174"
       d="m 98.97184,223.87464 h 1.54806 v 1.79234 h -1.54806 z"
       fill="#252626" />
    <path
       id="uuid-ac3efb64-cdde-4fe5-b0b0-69469416ee98"
       data-name="path176"
       d="m 97.21873,225.66697 h -5.62331 c 0,-4.18313 4.03352,-4.08746 4.03352,-7.0757 0,-0.78777 -0.33893,-1.45341 -1.19489,-1.45341 -1.15418,0 -1.34451,1.03204 -1.34451,2.01014 h -1.46663 c 0,-1.91447 0.78776,-3.09613 2.83862,-3.09613 1.96943,0 2.7165,1.16741 2.7165,2.56688 0,3.19078 -3.12361,3.39536 -3.85744,5.74443 h 3.89814 z"
       fill="#252626" />
  </g>
  <path
     d="m 99.447364,213.49363 c 0,0.77936 0.25206,1.64666 1.220916,1.64666 0.89391,0 1.24715,-0.71667 1.24715,-1.59614 0,-1.09465 -0.36543,-1.65975 -1.44861,-1.65975 h -0.553775 v -1.00576 h 0.516295 c 0.95669,0 1.28464,-0.65399 1.28464,-1.52129 0,-0.64089 -0.29047,-1.28271 -1.03258,-1.28271 -0.881729,0 -1.133779,0.7541 -1.133779,1.55871 h -1.359594 c 0,-1.65882 0.868602,-2.56448 2.568333,-2.56448 1.07006,0 2.39218,0.49025 2.39218,2.27538 0,0.91782 -0.54066,1.81038 -1.42237,1.94885 v 0.0384 c 0.9192,0.0748 1.62383,0.81678 1.62383,2.06113 0,1.76079 -0.8808,2.75346 -2.7192,2.75346 -1.611648,0 -2.543031,-0.79151 -2.543031,-2.65242 z"
     fill="#252626"
     id="path235"
     style="stroke-width:0.958775" />
</svg>
