<?xml version="1.0" encoding="UTF-8" standalone="no"?>
<!-- Generator: Adobe Illustrator 24.0.0, SVG Export Plug-In . SVG Version: 6.00 Build 0)  -->

<svg
   xmlns:dc="http://purl.org/dc/elements/1.1/"
   xmlns:cc="http://creativecommons.org/ns#"
   xmlns:rdf="http://www.w3.org/1999/02/22-rdf-syntax-ns#"
   xmlns:svg="http://www.w3.org/2000/svg"
   xmlns="http://www.w3.org/2000/svg"
   xmlns:sodipodi="http://sodipodi.sourceforge.net/DTD/sodipodi-0.dtd"
   xmlns:inkscape="http://www.inkscape.org/namespaces/inkscape"
   version="1.0"
   id="Layer_1"
   x="0px"
   y="0px"
   width="55.880001mm"
   height="128.5mm"
   viewBox="0 0 211.2 485.66935"
   enable-background="new 0 0 165 380"
   xml:space="preserve"
   sodipodi:docname="BlankInfo-WL.svg"
   inkscape:version="0.92.3 (2405546, 2018-03-11)"><metadata
   id="metadata341"><rdf:RDF><cc:Work
       rdf:about=""><dc:format>image/svg+xml</dc:format><dc:type
         rdf:resource="http://purl.org/dc/dcmitype/StillImage" /><dc:title></dc:title></cc:Work></rdf:RDF></metadata><defs
   id="defs339" /><sodipodi:namedview
   pagecolor="#ffffff"
   bordercolor="#666666"
   borderopacity="1"
   objecttolerance="10"
   gridtolerance="10"
   guidetolerance="10"
   inkscape:pageopacity="0"
   inkscape:pageshadow="2"
   inkscape:window-width="1920"
   inkscape:window-height="1017"
   id="namedview337"
   showgrid="false"
   inkscape:document-units="mm"
   units="mm"
   fit-margin-top="0"
   fit-margin-left="0"
   fit-margin-right="0"
   fit-margin-bottom="0"
   inkscape:zoom="0.62105263"
   inkscape:cx="82.5"
   inkscape:cy="190.00001"
   inkscape:window-x="-8"
   inkscape:window-y="-8"
   inkscape:window-maximized="1"
   inkscape:current-layer="Layer_1" />
<g
   id="bg"
   transform="matrix(1.2799927,0,0,1.2799927,6.1253219e-4,-0.36393553)">
	<g
   id="g4">
		<rect
   y="-9.9999997e-006"
   width="165"
   height="380"
   id="rect2"
   x="0"
   style="fill:#e5e5e5" />
	</g>
	<g
   id="g16">
		<g
   id="g14">
			<g
   id="g10">
				<circle
   cx="23.00008"
   cy="6.99999"
   r="5.7362599"
   id="circle6"
   style="fill:#bcbcbc" />
				<path
   d="m 23.00004,1.52733 c 3.02247,-2e-5 5.47268,2.45015 5.4727,5.47262 2e-5,3.02247 -2.45015,5.47268 -5.47262,5.4727 -3.02247,2e-5 -5.47268,-2.45015 -5.4727,-5.47262 0,-10e-6 0,-3e-5 0,-3e-5 0.0035,-3.02103 2.4516,-5.46919 5.47262,-5.47267 m 0,-0.52734 c -3.31371,0 -6,2.68629 -6,6 0,3.31371 2.68629,6 6,6 3.31371,0 6,-2.68629 6,-6 -1.6e-4,-3.31364 -2.68636,-5.99984 -6,-6 z"
   id="path8"
   inkscape:connector-curvature="0"
   style="fill:#808080" />
			</g>
			<polygon
   points="23.65904,6.34099 23.65904,3.50499 22.34104,3.50499 22.34104,6.34099 19.50604,6.34099 19.50604,7.65899 22.34104,7.65899 22.34104,10.49499 23.65904,10.49499 23.65904,7.65899 26.49504,7.65899 26.49504,6.34099 "
   id="polygon12"
   style="fill:#6e6e6e" />
		</g>
	</g>
	<g
   id="g30">
		<g
   id="g28">
			<g
   id="g26">
				<g
   id="g22">
					<circle
   cx="142.00008"
   cy="6.99999"
   r="5.7362599"
   id="circle18"
   style="fill:#bcbcbc" />
					<path
   d="m 142.00005,1.52733 c 3.02246,-2e-5 5.47267,2.45015 5.4727,5.47262 2e-5,3.02247 -2.45016,5.47268 -5.47263,5.4727 -3.02247,2e-5 -5.47267,-2.45015 -5.4727,-5.47262 0,-10e-6 0,-3e-5 0,-4e-5 0.003,-3.02102 2.4516,-5.46918 5.47263,-5.47266 m 0,-0.52734 c -3.31372,0 -6,2.68629 -6,6 0,3.31371 2.68628,6 6,6 3.31371,0 6,-2.68629 6,-6 -1.7e-4,-3.31364 -2.68636,-5.99984 -6,-6 z"
   id="path20"
   inkscape:connector-curvature="0"
   style="fill:#808080" />
				</g>
				<polygon
   points="142.65904,6.34099 142.65904,3.50499 141.34103,3.50499 141.34103,6.34099 138.50604,6.34099 138.50604,7.65899 141.34103,7.65899 141.34103,10.49499 142.65904,10.49499 142.65904,7.65899 145.49504,7.65899 145.49504,6.34099 "
   id="polygon24"
   style="fill:#6e6e6e" />
			</g>
		</g>
	</g>
	<g
   id="g44">
		<g
   id="g42">
			<g
   id="g40">
				<g
   id="g36">
					<circle
   cx="23.00008"
   cy="373"
   r="5.7362599"
   id="circle32"
   style="fill:#bcbcbc" />
					<path
   d="m 23.00004,367.52734 c 3.02247,-3e-5 5.47268,2.45013 5.4727,5.47263 2e-5,3.02246 -2.45015,5.47266 -5.47262,5.47269 -3.02247,3e-5 -5.47268,-2.45013 -5.4727,-5.47263 V 373 c 0.0035,-3.02103 2.4516,-5.46918 5.47262,-5.47266 m 0,-0.52734 c -3.31371,0 -6,2.68628 -6,6 0,3.31372 2.68629,6 6,6 3.31371,0 6,-2.68628 6,-6 -1.6e-4,-3.31363 -2.68636,-5.99985 -6,-6 z"
   id="path34"
   inkscape:connector-curvature="0"
   style="fill:#808080" />
				</g>
				<polygon
   points="23.65904,372.341 23.65904,369.505 22.34104,369.505 22.34104,372.341 19.50604,372.341 19.50604,373.659 22.34104,373.659 22.34104,376.495 23.65904,376.495 23.65904,373.659 26.49504,373.659 26.49504,372.341 "
   id="polygon38"
   style="fill:#6e6e6e" />
			</g>
		</g>
	</g>
	<g
   id="g58">
		<g
   id="g56">
			<g
   id="g54">
				<g
   id="g50">
					<circle
   cx="142.00008"
   cy="373"
   r="5.73627"
   id="circle46"
   style="fill:#bcbcbc" />
					<path
   d="m 142.00005,367.52734 c 3.02246,-3e-5 5.47267,2.45013 5.4727,5.47263 2e-5,3.02246 -2.45016,5.47266 -5.47263,5.47269 -3.02247,3e-5 -5.47267,-2.45013 -5.4727,-5.47263 V 373 c 0.003,-3.02103 2.4516,-5.46918 5.47263,-5.47266 m 0,-0.52734 c -3.31372,0 -6,2.68628 -6,6 0,3.31372 2.68628,6 6,6 3.31371,0 6,-2.68628 6,-6 -1.7e-4,-3.31363 -2.68636,-5.99985 -6,-6 z"
   id="path48"
   inkscape:connector-curvature="0"
   style="fill:#808080" />
				</g>
				<polygon
   points="142.65904,372.341 142.65904,369.505 141.34103,369.505 141.34103,372.341 138.50604,372.341 138.50604,373.659 141.34103,373.659 141.34103,376.495 142.65904,376.495 142.65904,373.659 145.49504,373.659 145.49504,372.341 "
   id="polygon52"
   style="fill:#6e6e6e" />
			</g>
		</g>
	</g>
</g>
<g
   id="serigraphy"
   transform="matrix(1.2799927,0,0,1.2799927,6.1253219e-4,-0.36393553)">
	<g
   id="g71">
		<g
   id="g63">
			<path
   d="M 99.54887,155.0923 H 70.12985 c -4.9466,0 -8.95661,-4.01001 -8.95661,-8.9566 v -85.104 c 0,-4.94659 4.01001,-8.9566 8.95661,-8.9566 h 29.41901 c 4.9466,0 8.9566,4.01001 8.9566,8.9566 v 85.104 c 1e-5,4.94659 -4.00999,8.9566 -8.95659,8.9566 z"
   id="path61"
   inkscape:connector-curvature="0"
   style="fill:#252626" />
		</g>
		<g
   id="g69">
			<g
   id="g67">
				<path
   d="m 96.21846,121.40294 c -0.31812,0.73358 -0.74011,1.33913 -1.26596,1.81599 -0.5265,0.47686 -1.12488,0.83092 -1.79771,1.06412 -0.67347,0.23255 -1.37636,0.34818 -2.10993,0.34818 -1.24768,0 -2.2197,-0.18291 -2.91669,-0.55003 -0.69701,-0.36711 -1.2418,-0.79498 -1.63245,-1.28426 -0.41676,-0.53826 -0.67935,-1.13728 -0.78909,-1.7977 -0.1104,-0.66042 -0.16528,-1.32085 -0.16528,-1.98126 0,-0.93021 0.01896,-1.57169 0.05488,-1.92639 0.03724,-0.35536 0.07905,-0.55656 0.12868,-0.60555 0.09734,-0.0738 0.50103,-0.10974 1.21044,-0.10974 h 8.58613 c 0.24431,0 0.44615,0.0183 0.60555,0.0549 0.15808,0.0366 0.28088,0.13392 0.36646,0.2933 0.08556,0.15874 0.14045,0.39716 0.16527,0.71529 0.02416,0.31812 0.03724,0.75841 0.03724,1.32084 -1e-5,1.02755 -0.16005,1.90876 -0.47754,2.64234 M 81.39656,85.70432 c 0.03267,-0.23059 0.13197,-0.41284 0.29789,-0.54545 0.16526,-0.13195 0.42916,-0.21491 0.79368,-0.24823 0.36384,-0.03266 0.87663,-0.04964 1.53835,-0.04964 2.58029,0 4.55698,0.71922 5.93007,2.15829 1.37246,1.43908 2.05966,3.36678 2.05966,5.78178 0,0.22863 -0.04768,0.72182 -0.07774,1.0602 -0.19009,-0.0026 -0.38019,-0.0052 -0.57027,-0.0091 -0.52063,-0.01111 -1.08633,-0.03985 -1.6971,-0.08492 -0.13588,0.06794 -0.20905,0.19793 -0.2208,0.38998 -0.01111,0.1927 0.03919,0.34556 0.15352,0.45857 l 0.61012,0.06793 c 0.40762,0.04507 0.74665,0.11889 1.01839,0.22014 0.27176,0.10191 0.40762,0.20969 0.40762,0.3227 0,0.11301 -0.06794,0.3227 -0.2038,0.62776 -0.13588,0.30571 -0.31683,0.67348 -0.54284,1.10266 -0.22668,0.43048 -0.47033,0.88905 -0.72967,1.37505 -0.26065,0.48666 -0.5043,0.94523 -0.73032,1.37441 -0.52062,0.99619 -1.0517,1.97408 -1.59518,2.93563 -0.54285,0.96222 -1.07458,1.89569 -1.59456,2.80042 -0.65716,-1.17648 -1.3019,-2.40978 -1.93488,-3.69927 -0.63364,-1.29014 -1.26728,-2.56786 -1.90092,-3.83579 -0.04573,-0.09014 -0.12411,-0.25933 -0.23713,-0.50887 -0.11365,-0.24823 -0.23254,-0.51409 -0.35666,-0.79759 -0.12477,-0.28286 -0.23254,-0.54807 -0.32269,-0.7976 -0.0908,-0.24889 -0.13522,-0.41873 -0.13522,-0.50887 0,-0.13587 0.08949,-0.243 0.27108,-0.3227 0.18095,-0.07904 0.56572,-0.17506 1.15428,-0.28808 l 0.44093,-0.06793 c 0.11301,-0.11301 0.16397,-0.27174 0.15286,-0.47556 -0.01176,-0.20316 -0.09669,-0.32793 -0.25411,-0.373 -0.48209,0.03789 -1.07327,0.06532 -1.77419,0.08166 v -7.2013 c -1e-5,-0.39718 0.01632,-0.71139 0.04963,-0.94328 m 2.81022,25.40626 c 0,0.90538 -0.01176,1.62917 -0.03397,2.172 -0.02287,0.54284 -0.10188,0.96744 -0.23776,1.2725 -0.04835,0.10975 -0.10583,0.20642 -0.17181,0.2907 -0.0013,6.5e-4 -0.0033,0.002 -0.0046,0.003 -0.39519,-0.0758 -0.72835,-0.16331 -0.99747,-0.26325 -0.44682,-0.16527 -0.76885,-0.46314 -0.96745,-0.89297 -0.19857,-0.42982 -0.32269,-1.03342 -0.37232,-1.81142 -0.04966,-0.7767 -0.07448,-1.81142 -0.07448,-3.10091 v -7.06605 l 1.77419,3.45692 c 0.24823,0.47556 0.44615,0.87729 0.59379,1.20522 0.14698,0.32858 0.25411,0.63364 0.32205,0.91649 0.06792,0.2835 0.11299,0.58269 0.13586,0.89951 0.02221,0.31682 0.03397,0.71268 0.03397,1.18758 0,0 0,1.73107 -10e-6,1.73107 z m 14.00733,4.19703 c 0.14696,-0.40762 0.29328,-0.84267 0.44093,-1.30647 0.14698,-0.4638 0.28284,-0.91649 0.40762,-1.35808 0.12411,-0.44093 0.22014,-0.8087 0.28873,-1.10331 -0.0686,-0.15743 -0.19859,-0.25934 -0.39065,-0.30506 -0.19269,-0.0451 -0.34489,-0.0229 -0.45856,0.0679 -0.45269,0.88187 -0.88776,1.60631 -1.30647,2.172 -0.41872,0.56636 -0.78648,0.93935 -1.10265,1.1203 -0.18161,0.0908 -0.39063,0.16919 -0.62841,0.23713 -0.23713,0.0679 -0.52063,0.11889 -0.84856,0.15285 -0.32791,0.034 -0.72379,0.0627 -1.18758,0.0849 -0.46379,0.0229 -1.02427,0.034 -1.68011,0.034 -0.74665,0 -1.3633,-0.0222 -1.84996,-0.0679 -0.48666,-0.0451 -0.87665,-0.10191 -1.17059,-0.16919 -0.29462,-0.0686 -0.5265,-0.14763 -0.69569,-0.23778 -0.16985,-0.0901 -0.30051,-0.19205 -0.39065,-0.30571 -0.27174,-0.29395 -0.44681,-0.72966 -0.52586,-1.30647 -0.07967,-0.57746 -0.11889,-1.31822 -0.11889,-2.22361 v -2.23994 c 0.0052,-0.31029 0.01437,-0.58464 0.02745,-0.81981 0.02221,-0.41807 0.08427,-0.80871 0.18617,-1.17059 0.10189,-0.36189 0.25997,-0.74731 0.47556,-1.15427 0.05095,-0.0973 0.10843,-0.20251 0.16919,-0.3129 0.08165,-0.003 0.16656,-0.004 0.26129,-0.004 h 1.96885 c 0.65585,0 1.19346,0.0111 1.61217,0.034 0.41806,0.0222 0.75188,0.0673 1.0014,0.13522 0.33904,0.0908 0.58205,0.24954 0.72967,0.47556 0.14698,0.22602 0.25411,0.49776 0.32271,0.81458 l 0.30505,1.32346 c 0.09014,0.11366 0.243,0.16396 0.45792,0.15285 0.2149,-0.0111 0.35667,-0.0732 0.4246,-0.18682 0,-0.38476 -0.02287,-0.87077 -0.06793,-1.45933 -0.04574,-0.58856 -0.06794,-1.18823 -0.06794,-1.79901 0,-0.65585 0.0222,-1.28948 0.06794,-1.90025 0.04507,-0.61143 0.06793,-1.1203 0.06793,-1.52792 -0.06793,-0.11235 -0.20969,-0.17506 -0.4246,-0.18682 -0.21492,-0.0105 -0.36778,0.0399 -0.45792,0.15285 l -0.2711,1.39204 c -0.09078,0.42982 -0.19857,0.71856 -0.32269,0.86553 -0.12478,0.14699 -0.28873,0.25411 -0.49188,0.32205 -0.20382,0.0679 -0.55525,0.11889 -1.05236,0.15285 -0.49841,0.034 -1.10921,0.051 -1.83298,0.051 h -1.53381 c 0.01176,-0.0189 0.02221,-0.0366 0.03397,-0.0562 l 2.13805,-3.69927 c 0.42916,-0.72443 0.81982,-1.39727 1.17125,-2.0198 0.35014,-0.62188 0.69569,-1.17125 1.03471,-1.64616 0.3397,-0.4749 0.68982,-0.85965 1.05238,-1.15361 0.07512,-0.06075 0.15221,-0.11562 0.23125,-0.16723 0.22993,0.09145 0.43243,0.19924 0.60685,0.32531 0.28286,0.20316 0.51408,0.44093 0.69569,0.71268 0.18095,0.2711 0.32791,0.57681 0.44158,0.91584 0.11236,0.33968 0.23713,0.71333 0.37301,1.1203 0.09015,0.11366 0.23777,0.15873 0.44158,0.13587 0.20316,-0.02221 0.33902,-0.09015 0.40696,-0.20381 -0.04573,-0.36189 -0.08492,-0.77473 -0.11823,-1.23853 -0.03461,-0.46379 -0.07446,-0.91649 -0.11954,-1.35742 -0.04507,-0.44159 -0.10452,-0.83549 -0.1522,-1.18823 -0.11824,-0.87273 -0.09147,-1.61806 -0.09147,-1.61806 0,-1.71931 -0.48795,-3.22241 -1.23264,-4.48054 C 94.72061,87.02775 93.76884,86.03549 92.61131,85.30779 91.45314,84.58008 90.097,84.0673 88.54233,83.76942 86.98697,83.47154 85.16771,83.3226 83.08389,83.3226 c -2.08448,0 -3.91287,0.02483 -5.48325,0.07447 -1.57169,0.04964 -3.01926,0.15742 -4.34271,0.3227 -0.19793,0.09929 -0.30573,0.29003 -0.32205,0.57027 -0.01698,0.28155 0.05684,0.50495 0.22342,0.67022 l 1.78595,0.19859 c 0.56243,0.06664 1.00008,0.17376 1.3156,0.3227 0.31356,0.14828 0.54546,0.42133 0.6944,0.8185 0.14894,0.39717 0.23974,0.92628 0.27305,1.58801 0.03265,0.66173 0.04964,1.52203 0.04964,2.58028 v 18.31149 c 0,1.28948 -0.01698,2.32421 -0.04964,3.10091 -0.03331,0.778 -0.14893,1.38159 -0.34753,1.81142 -0.19858,0.42983 -0.49644,0.72771 -0.89297,0.89297 -0.39717,0.16592 -0.96026,0.29787 -1.68729,0.39716 l -1.04257,0.14894 c -0.15091,0.15089 -0.21819,0.35732 -0.20381,0.61731 -0.0013,0.53107 -0.0072,0.69961 -0.01828,1.29797 -0.01176,0.68524 -0.04312,1.45084 -0.09342,2.29808 0.0503,0.12477 0.19272,0.19923 0.42982,0.22472 0.23647,0.0242 0.40501,-0.0255 0.50496,-0.1496 l 0.11169,-0.78519 c 0.07513,-0.54807 0.17442,-0.97136 0.29919,-1.26989 0.12477,-0.29918 0.34882,-0.52324 0.67283,-0.67283 0.32335,-0.14959 0.77802,-0.23778 1.36397,-0.2626 0.5853,-0.0242 1.36395,-0.0366 2.33596,-0.0366 h 4.70852 c 0.19923,0 0.35537,0.0124 0.46772,0.0366 0.11169,0.0248 0.1927,0.0941 0.24236,0.20642 0.04964,0.11171 0.08099,0.28612 0.09405,0.52259 0.01176,0.23713 0.0183,0.56635 0.0183,0.9903 0,0.74796 -0.09341,1.30843 -0.28025,1.68208 -0.18681,0.37365 -0.49187,0.69765 -0.91584,0.97202 -0.42393,0.29918 -0.891,0.61012 -1.40118,0.93413 -0.51148,0.32335 -1.02232,0.64735 -1.53249,0.97136 -0.51082,0.324 -1.00272,0.6356 -1.4763,0.93478 -0.47359,0.29853 -0.88448,0.57288 -1.23331,0.82177 -0.9472,0.67283 -1.72585,1.3019 -2.33598,1.88785 -0.61012,0.5853 -1.08959,1.17713 -1.43842,1.77483 -0.34949,0.59772 -0.59184,1.22678 -0.72901,1.88721 -0.13651,0.66042 -0.20511,1.38878 -0.20511,2.18637 0,0.72247 0.06206,1.27119 0.18617,1.6442 0.07511,0.1 0.16853,0.14371 0.28088,0.1313 0.1117,-0.0131 0.19272,-0.0692 0.24301,-0.16853 0.04898,-0.49843 0.16788,-0.97136 0.35471,-1.41948 0.18681,-0.44878 0.41676,-0.83549 0.69177,-1.15884 0.52323,-0.64801 1.11441,-1.25813 1.77484,-1.83167 0.65976,-0.57289 1.38879,-1.15819 2.18637,-1.75656 0.79694,-0.59771 1.69385,-1.21436 2.69069,-1.84931 0.99618,-0.6356 2.09295,-1.32737 3.28904,-2.07467 0.14957,-0.0999 0.30439,-0.18095 0.46706,-0.243 0.16134,-0.0627 0.30505,-0.0438 0.42982,0.0562 0.17375,0.47295 0.4357,0.9779 0.78452,1.51355 0.34883,0.53565 0.77867,1.0406 1.28949,1.5142 0.51083,0.47294 1.10855,0.86488 1.79379,1.17712 0.68525,0.31094 1.47632,0.46707 2.3732,0.46707 1.32084,0 2.40456,-0.29332 3.25182,-0.87862 0.84658,-0.5853 1.507,-1.32672 1.98059,-2.22361 0.47295,-0.87207 0.77867,-1.83755 0.91584,-2.89579 0.13652,-1.05955 0.21034,-2.17462 0.20512,-3.34587 -0.0092,-2.17003 0.38147,-3.55097 0.38147,-3.55097"
   id="path65"
   inkscape:connector-curvature="0"
   style="fill:#e6e5e5" />
			</g>
		</g>
	</g>
	<g
   id="g85">
		<g
   id="g75">
			<path
   d="m 5.00329,23.83686 c -0.22021,0 -0.43018,-0.08984 -0.59033,-0.25 C 4.33337,23.51752 4.27331,23.41694 4.23327,23.32709 4.19323,23.21771 4.17321,23.11713 4.17321,23.00775 c 0,-0.11035 0.02002,-0.2207 0.06006,-0.32031 0.04004,-0.10059 0.1001,-0.19043 0.17969,-0.27051 0.31006,-0.30957 0.86035,-0.30957 1.17041,0 0.07959,0.08008 0.13965,0.16992 0.17969,0.27051 0.04004,0.09961 0.06006,0.20996 0.06006,0.32031 0,0.10938 -0.02002,0.20996 -0.06006,0.31934 -0.04004,0.08984 -0.1001,0.19043 -0.17969,0.25977 -0.08008,0.08008 -0.17041,0.14063 -0.27002,0.18066 -0.1001,0.04004 -0.2002,0.06934 -0.31006,0.06934 z"
   id="path73"
   inkscape:connector-curvature="0"
   style="fill:#252626" />
		</g>
		<g
   id="g79">
			<path
   d="m 156.75328,23.00776 c 0,-0.46094 0.37012,-0.83008 0.81982,-0.83008 v 0 c 0.45996,0 0.83008,0.36914 0.83008,0.83008 v 0 c 0,0.45996 -0.37012,0.8291 -0.83008,0.8291 v 0 c -0.4497,0 -0.81982,-0.36914 -0.81982,-0.8291 z m -4.93018,0 c 0,-0.46094 0.37012,-0.83008 0.83008,-0.83008 v 0 c 0.45996,0 0.83008,0.36914 0.83008,0.83008 v 0 c 0,0.45996 -0.37012,0.8291 -0.83008,0.8291 v 0 c -0.45996,0 -0.83008,-0.36914 -0.83008,-0.8291 z m -4.91992,0 c 0,-0.46094 0.37012,-0.83008 0.83008,-0.83008 v 0 c 0.45996,0 0.83008,0.36914 0.83008,0.83008 v 0 c 0,0.45996 -0.37012,0.8291 -0.83008,0.8291 v 0 c -0.45996,0 -0.83008,-0.36914 -0.83008,-0.8291 z m -4.91992,0 c 0,-0.46094 0.37012,-0.83008 0.83008,-0.83008 v 0 c 0.45996,0 0.83008,0.36914 0.83008,0.83008 v 0 c 0,0.45996 -0.37012,0.8291 -0.83008,0.8291 v 0 c -0.45996,0 -0.83008,-0.36914 -0.83008,-0.8291 z m -4.91992,0 c 0,-0.46094 0.36963,-0.83008 0.83008,-0.83008 v 0 c 0.44971,0 0.82959,0.36914 0.82959,0.83008 v 0 c 0,0.45996 -0.37988,0.8291 -0.82959,0.8291 v 0 c -0.46045,0 -0.83008,-0.36914 -0.83008,-0.8291 z m -4.91992,0 c 0,-0.46094 0.36963,-0.83008 0.82959,-0.83008 v 0 c 0.4502,0 0.82031,0.36914 0.82031,0.83008 v 0 c 0,0.45996 -0.37012,0.8291 -0.82031,0.8291 v 0 c -0.45996,0 -0.82959,-0.36914 -0.82959,-0.8291 z m -4.93017,0 c 0,-0.46094 0.37988,-0.83008 0.83007,-0.83008 v 0 c 0.45996,0 0.83008,0.36914 0.83008,0.83008 v 0 c 0,0.45996 -0.37012,0.8291 -0.83008,0.8291 v 0 c -0.45019,0 -0.83007,-0.36914 -0.83007,-0.8291 z m -4.91992,0 c 0,-0.46094 0.36963,-0.83008 0.83008,-0.83008 v 0 c 0.45996,0 0.82959,0.36914 0.82959,0.83008 v 0 c 0,0.45996 -0.36963,0.8291 -0.82959,0.8291 v 0 c -0.46045,0 -0.83008,-0.36914 -0.83008,-0.8291 z m -4.91992,0 c 0,-0.46094 0.36963,-0.83008 0.82959,-0.83008 v 0 c 0.45996,0 0.83008,0.36914 0.83008,0.83008 v 0 c 0,0.45996 -0.37012,0.8291 -0.83008,0.8291 v 0 c -0.45997,0 -0.82959,-0.36914 -0.82959,-0.8291 z m -4.92041,0 c 0,-0.46094 0.37012,-0.83008 0.83008,-0.83008 v 0 c 0.4502,0 0.82031,0.36914 0.82031,0.83008 v 0 c 0,0.45996 -0.37012,0.8291 -0.82031,0.8291 v 0 c -0.45997,0 -0.83008,-0.36914 -0.83008,-0.8291 z m -4.91993,0 c 0,-0.46094 0.37012,-0.83008 0.83008,-0.83008 v 0 c 0.4502,0 0.81982,0.36914 0.81982,0.83008 v 0 c 0,0.45996 -0.36963,0.8291 -0.81982,0.8291 v 0 c -0.45996,0 -0.83008,-0.36914 -0.83008,-0.8291 z m -4.91992,0 c 0,-0.46094 0.37012,-0.83008 0.81982,-0.83008 v 0 c 0.46045,0 0.83008,0.36914 0.83008,0.83008 v 0 c 0,0.45996 -0.36963,0.8291 -0.83008,0.8291 v 0 c -0.4497,0 -0.81982,-0.36914 -0.81982,-0.8291 z m -4.93017,0 c 0,-0.46094 0.37012,-0.83008 0.83008,-0.83008 v 0 c 0.45996,0 0.83008,0.36914 0.83008,0.83008 v 0 c 0,0.45996 -0.37012,0.8291 -0.83008,0.8291 v 0 c -0.45997,0 -0.83008,-0.36914 -0.83008,-0.8291 z m -4.91993,0 c 0,-0.46094 0.37012,-0.83008 0.83008,-0.83008 v 0 c 0.45996,0 0.83008,0.36914 0.83008,0.83008 v 0 c 0,0.45996 -0.37012,0.8291 -0.83008,0.8291 v 0 c -0.45996,0 -0.83008,-0.36914 -0.83008,-0.8291 z m -4.91992,0 c 0,-0.46094 0.37012,-0.83008 0.83008,-0.83008 v 0 c 0.45996,0 0.83008,0.36914 0.83008,0.83008 v 0 c 0,0.45996 -0.37012,0.8291 -0.83008,0.8291 v 0 c -0.45996,0 -0.83008,-0.36914 -0.83008,-0.8291 z m -4.91992,0 c 0,-0.46094 0.37012,-0.83008 0.83008,-0.83008 v 0 c 0.44971,0 0.81982,0.36914 0.81982,0.83008 v 0 c 0,0.45996 -0.37012,0.8291 -0.81982,0.8291 v 0 c -0.45996,0 -0.83008,-0.36914 -0.83008,-0.8291 z m -4.91992,0 c 0,-0.46094 0.37012,-0.83008 0.81982,-0.83008 v 0 c 0.45996,0 0.83008,0.36914 0.83008,0.83008 v 0 c 0,0.45996 -0.37012,0.8291 -0.83008,0.8291 v 0 c -0.4497,0 -0.81982,-0.36914 -0.81982,-0.8291 z m -4.93018,0 c 0,-0.46094 0.37012,-0.83008 0.83008,-0.83008 v 0 c 0.45996,0 0.83008,0.36914 0.83008,0.83008 v 0 c 0,0.45996 -0.37012,0.8291 -0.83008,0.8291 v 0 c -0.45996,0 -0.83008,-0.36914 -0.83008,-0.8291 z m -4.91992,0 c 0,-0.46094 0.37012,-0.83008 0.83008,-0.83008 v 0 c 0.45996,0 0.83008,0.36914 0.83008,0.83008 v 0 c 0,0.45996 -0.37012,0.8291 -0.83008,0.8291 v 0 c -0.45996,0 -0.83008,-0.36914 -0.83008,-0.8291 z m -4.91992,0 c 0,-0.46094 0.37012,-0.83008 0.83008,-0.83008 v 0 c 0.45996,0 0.83008,0.36914 0.83008,0.83008 v 0 c 0,0.45996 -0.37012,0.8291 -0.83008,0.8291 v 0 c -0.45996,0 -0.83008,-0.36914 -0.83008,-0.8291 z m -4.91992,0 c 0,-0.46094 0.36963,-0.83008 0.83008,-0.83008 v 0 c 0.44971,0 0.82959,0.36914 0.82959,0.83008 v 0 c 0,0.45996 -0.37988,0.8291 -0.82959,0.8291 v 0 c -0.46045,0 -0.83008,-0.36914 -0.83008,-0.8291 z m -4.91993,0 c 0,-0.46094 0.36963,-0.83008 0.82959,-0.83008 v 0 c 0.4502,0 0.82031,0.36914 0.82031,0.83008 v 0 c 0,0.45996 -0.37012,0.8291 -0.82031,0.8291 v 0 c -0.45996,0 -0.82959,-0.36914 -0.82959,-0.8291 z m -4.93017,0 c 0,-0.46094 0.37988,-0.83008 0.83008,-0.83008 v 0 c 0.45996,0 0.83008,0.36914 0.83008,0.83008 v 0 c 0,0.45996 -0.37012,0.8291 -0.83008,0.8291 v 0 c -0.4502,0 -0.83008,-0.36914 -0.83008,-0.8291 z m -4.91992,0 c 0,-0.46094 0.36963,-0.83008 0.83008,-0.83008 v 0 c 0.45996,0 0.82959,0.36914 0.82959,0.83008 v 0 c 0,0.45996 -0.36963,0.8291 -0.82959,0.8291 v 0 c -0.46045,0 -0.83008,-0.36914 -0.83008,-0.8291 z m -4.91992,0 c 0,-0.46094 0.36963,-0.83008 0.82959,-0.83008 v 0 c 0.45996,0 0.83008,0.36914 0.83008,0.83008 v 0 c 0,0.45996 -0.37012,0.8291 -0.83008,0.8291 v 0 c -0.45997,0 -0.82959,-0.36914 -0.82959,-0.8291 z m -4.92041,0 c 0,-0.46094 0.37012,-0.83008 0.83008,-0.83008 v 0 c 0.45996,0 0.82031,0.36914 0.82031,0.83008 v 0 c 0,0.45996 -0.36035,0.8291 -0.82031,0.8291 v 0 c -0.45997,0 -0.83008,-0.36914 -0.83008,-0.8291 z m -4.91993,0 c 0,-0.46094 0.37012,-0.83008 0.83008,-0.83008 v 0 c 0.4502,0 0.81982,0.36914 0.81982,0.83008 v 0 c 0,0.45996 -0.36963,0.8291 -0.81982,0.8291 v 0 c -0.45996,0 -0.83008,-0.36914 -0.83008,-0.8291 z m -4.91992,0 c 0,-0.46094 0.37012,-0.83008 0.81982,-0.83008 v 0 c 0.46045,0 0.83008,0.36914 0.83008,0.83008 v 0 c 0,0.45996 -0.36963,0.8291 -0.83008,0.8291 v 0 c -0.4497,0 -0.81982,-0.36914 -0.81982,-0.8291 z m -4.93018,0 c 0,-0.46094 0.37012,-0.83008 0.83008,-0.83008 v 0 c 0.45996,0 0.83008,0.36914 0.83008,0.83008 v 0 c 0,0.45996 -0.37012,0.8291 -0.83008,0.8291 v 0 c -0.45996,0 -0.83008,-0.36914 -0.83008,-0.8291 z m -4.91992,0 c 0,-0.46094 0.37012,-0.83008 0.83008,-0.83008 v 0 c 0.45996,0 0.83008,0.36914 0.83008,0.83008 v 0 c 0,0.45996 -0.37012,0.8291 -0.83008,0.8291 v 0 c -0.45996,0 -0.83008,-0.36914 -0.83008,-0.8291 z m -4.91992,0 c 0,-0.46094 0.37012,-0.83008 0.83008,-0.83008 v 0 c 0.45996,0 0.83008,0.36914 0.83008,0.83008 v 0 c 0,0.45996 -0.37012,0.8291 -0.83008,0.8291 v 0 c -0.45996,0 -0.83008,-0.36914 -0.83008,-0.8291 z"
   id="path77"
   inkscape:connector-curvature="0"
   style="fill:#252626" />
		</g>
		<g
   id="g83">
			<path
   d="m 162.50328,23.83686 c -0.10986,0 -0.22021,-0.0293 -0.32031,-0.06934 -0.0996,-0.04004 -0.18994,-0.10059 -0.27002,-0.18066 -0.0796,-0.06934 -0.13965,-0.16992 -0.17969,-0.25977 -0.04,-0.10938 -0.0601,-0.20996 -0.0601,-0.31934 0,-0.11035 0.02,-0.2207 0.0601,-0.32031 0.04,-0.10059 0.1001,-0.19043 0.17969,-0.27051 0.31006,-0.30957 0.87012,-0.30957 1.17041,0 0.0796,0.08008 0.13965,0.16992 0.17969,0.27051 0.04,0.09961 0.0601,0.20996 0.0601,0.32031 0,0.10938 -0.02,0.20996 -0.0601,0.31934 -0.04,0.08984 -0.1001,0.19043 -0.17969,0.25977 -0.15039,0.16015 -0.36035,0.25 -0.58008,0.25 z"
   id="path81"
   inkscape:connector-curvature="0"
   style="fill:#252626" />
		</g>
	</g>
	<g
   id="g123">
		<g
   id="g89">
			<path
   d="m 8.83843,189.99141 c 0,-3.57491 2.9119,-6.48682 6.48681,-6.48682 1.74354,0 3.38263,0.67992 4.60335,1.91809 l 0.57545,0.59291 -2.16218,1.88318 -0.50563,-0.48817 c -0.68019,-0.66273 -1.56955,-1.02873 -2.511,-1.02873 -1.98791,0 -3.60954,1.62164 -3.60954,3.60954 0,2.00508 1.62163,3.627 3.60954,3.627 0.9589,0 1.83081,-0.36627 2.511,-1.02901 v -1.53435 H 14.6276 v -2.87727 h 6.08563 v 5.44063 l -0.13936,0.20918 c -1.25564,1.674 -3.22609,2.66782 -5.24863,2.66782 -3.57491,0 -6.48681,-2.91191 -6.48681,-6.504 z"
   id="path87"
   inkscape:connector-curvature="0"
   style="fill:#252626" />
		</g>
		<g
   id="g93">
			<path
   d="m 28.73243,183.88805 h 8.45727 v 2.96455 h -5.42318 v 1.06363 h 4.74327 v 3.01663 h -4.74327 v 2.37164 h 5.30128 v 2.99918 h -8.33536 c 0,0 0,-12.41563 -10e-6,-12.41563 z"
   id="path91"
   inkscape:connector-curvature="0"
   style="fill:#252626" />
		</g>
		<g
   id="g97">
			<path
   d="m 56.64845,190.02605 c 0,3.53999 -2.92964,6.43445 -6.46936,6.43445 -3.55717,0 -6.4519,-2.89445 -6.4519,-6.43445 0,-3.57463 2.89473,-6.46909 6.4519,-6.46909 3.53972,0 6.46936,2.89446 6.46936,6.46909 z m -3.05182,0 c 0,-1.90063 -1.5169,-3.48737 -3.41754,-3.48737 -1.90063,0 -3.43527,1.58673 -3.43527,3.48737 0,1.88345 1.53464,3.43527 3.43527,3.43527 1.90063,0 3.41754,-1.55182 3.41754,-3.43527 z"
   id="path95"
   inkscape:connector-curvature="0"
   style="fill:#252626" />
		</g>
		<g
   id="g101">
			<path
   d="m 63.77828,183.88805 h 4.30718 c 3.50481,0 6.34718,2.78999 6.34718,6.20781 0,3.41782 -2.84236,6.20782 -6.34718,6.20782 h -4.30718 z m 7.65518,6.20781 c 0,-1.76099 -1.49973,-3.2258 -3.348,-3.2258 h -1.30801 v 6.4519 h 1.30801 c 1.84827,0 3.348,-1.46483 3.348,-3.2261 z"
   id="path99"
   inkscape:connector-curvature="0"
   style="fill:#252626" />
		</g>
		<g
   id="g105">
			<path
   d="m 81.68466,183.88805 h 8.45726 v 2.96455 h -5.4229 v 1.06363 h 4.74271 v 3.01663 h -4.74271 v 2.37164 h 5.30071 v 2.99918 h -8.33508 c 0,0 0,-12.41563 10e-6,-12.41563 z"
   id="path103"
   inkscape:connector-curvature="0"
   style="fill:#252626" />
		</g>
		<g
   id="g109">
			<path
   d="m 101.05614,196.26877 c -1.25536,-0.26155 -2.40627,-0.83701 -3.88854,-2.10982 l 1.98791,-2.28436 c 1.09854,0.95891 1.74382,1.32518 2.51099,1.46483 0.22664,0.0521 0.45327,0.087 0.66273,0.087 0.34853,0 0.66245,-0.0695 0.90653,-0.19173 0.20947,-0.10474 0.57545,-0.33136 0.57545,-0.80209 0,-0.48817 -0.90681,-0.78464 -1.69145,-0.94173 -0.34853,-0.0695 -2.05745,-0.43581 -2.75509,-0.85445 -1.18581,-0.69737 -1.7959,-1.761 -1.7959,-3.08646 0,-0.73227 0.24409,-1.42992 0.64499,-2.02254 0.40119,-0.558 0.95919,-0.99409 1.60446,-1.29056 l -0.01746,0.0175 c 0.66245,-0.3139 1.41245,-0.47072 2.12727,-0.47072 0.29646,0 0.57545,0.0175 0.92428,0.0698 1.116,0.19173 2.14472,0.64499 3.57463,1.83081 l -1.91809,2.30182 c -1.29055,-1.06364 -1.953,-1.22073 -2.61572,-1.22073 -0.33137,0 -0.59291,0.0698 -0.80209,0.17455 -0.33136,0.13936 -0.50563,0.38345 -0.50563,0.61009 0,0.47101 0.62782,0.69763 1.63908,0.90681 0.10474,0.0349 0.22664,0.0349 0.34882,0.0698 0.6799,0.15681 1.69145,0.36627 2.3539,0.74973 h -0.0175 c 1.25564,0.69763 1.91808,1.79617 1.91808,3.15627 0,0.80209 -0.20918,1.55182 -0.66245,2.17964 -0.40118,0.57545 -0.99409,0.9938 -1.65655,1.32516 -0.69764,0.36629 -1.41245,0.47101 -2.19708,0.47101 -0.41861,1e-5 -0.87188,-0.0523 -1.25561,-0.13962 z"
   id="path107"
   inkscape:connector-curvature="0"
   style="fill:#252626" />
		</g>
		<g
   id="g113">
			<path
   d="m 114.51597,183.88805 h 3.03437 v 12.41563 h -3.03437 z"
   id="path111"
   inkscape:connector-curvature="0"
   style="fill:#252626" />
		</g>
		<g
   id="g117">
			<path
   d="m 134.79483,191.73495 2.38881,1.76128 c -1.55182,2.07518 -3.3829,2.98172 -5.40544,2.98172 -3.55746,0 -6.46936,-2.91191 -6.46936,-6.46909 0,-3.55745 2.9119,-6.4519 6.46936,-6.4519 2.05745,0 3.92345,0.95891 5.47527,3.03409 l -2.42372,1.77844 c -0.97664,-1.30771 -1.97046,-1.83081 -3.05154,-1.83081 -1.93555,0 -3.47018,1.55182 -3.47018,3.47018 0,1.93555 1.53464,3.46991 3.47018,3.46991 1.08107,1e-5 2.03998,-0.45327 3.01662,-1.74382 z"
   id="path115"
   inkscape:connector-curvature="0"
   style="fill:#252626" />
		</g>
		<g
   id="g121">
			<path
   d="m 147.45229,196.26877 c -1.25536,-0.26155 -2.40627,-0.83701 -3.88853,-2.10982 l 1.9879,-2.28436 c 1.09856,0.95891 1.74382,1.32518 2.511,1.46483 0.22664,0.0521 0.45328,0.087 0.66273,0.087 0.34854,0 0.66245,-0.0695 0.90654,-0.19173 0.20946,-0.10474 0.57545,-0.33136 0.57545,-0.80209 0,-0.48817 -0.90683,-0.78464 -1.69145,-0.94173 -0.34854,-0.0695 -2.05745,-0.43581 -2.7551,-0.85445 -1.18582,-0.69737 -1.7959,-1.761 -1.7959,-3.08646 0,-0.73227 0.24409,-1.42992 0.64499,-2.02254 0.40118,-0.558 0.95918,-0.99409 1.60446,-1.29056 l -0.0175,0.0175 c 0.66245,-0.3139 1.41246,-0.47072 2.12727,-0.47072 0.29645,0 0.57545,0.0175 0.92427,0.0698 1.116,0.19173 2.14473,0.64499 3.57463,1.83081 l -1.91809,2.30182 c -1.29054,-1.06364 -1.95299,-1.22073 -2.61572,-1.22073 -0.33136,0 -0.59291,0.0698 -0.80209,0.17455 -0.33136,0.13936 -0.50563,0.38345 -0.50563,0.61009 0,0.47101 0.62782,0.69763 1.63908,0.90681 0.10474,0.0349 0.22664,0.0349 0.34883,0.0698 0.6799,0.15681 1.69145,0.36627 2.3539,0.74973 h -0.0175 c 1.25563,0.69763 1.91809,1.79617 1.91809,3.15627 0,0.80209 -0.20918,1.55182 -0.66246,2.17964 -0.40118,0.57545 -0.99409,0.9938 -1.65654,1.32516 -0.69763,0.36629 -1.41245,0.47101 -2.19708,0.47101 -0.41863,1e-5 -0.87191,-0.0523 -1.25563,-0.13962 z"
   id="path119"
   inkscape:connector-curvature="0"
   style="fill:#252626" />
		</g>
	</g>
	<g
   id="g209">
		<g
   id="g127">
			<path
   d="m 53.59167,289.34079 c -0.12305,2.21582 -1.14258,3.45313 -2.88281,3.45313 -1.98438,0 -3.09961,-1.53613 -3.09961,-5.0166 0,-3.48047 1.11523,-5.0166 3.09961,-5.0166 1.97168,0 2.78711,1.40039 2.78711,2.99121 h -0.87012 c 0,-1.31934 -0.66602,-2.25684 -1.91699,-2.25684 -1.38672,0 -2.22949,1.1416 -2.22949,4.28223 0,3.14063 0.84277,4.28223 2.22949,4.28223 1.22363,0 1.91699,-1.04688 2.0127,-2.71875 h 0.87011 z"
   id="path125"
   inkscape:connector-curvature="0"
   style="fill:#252626" />
		</g>
		<g
   id="g131">
			<path
   d="m 56.88366,285.24802 c 1.59082,0 2.48828,1.26465 2.48828,3.7666 0,2.51465 -0.89746,3.7793 -2.48828,3.7793 -1.59082,0 -2.4873,-1.26465 -2.4873,-3.7793 -1e-5,-2.50196 0.89648,-3.7666 2.4873,-3.7666 z m 0,6.86621 c 0.91113,0 1.61816,-0.78906 1.61816,-3.09961 0,-2.29785 -0.70703,-3.08594 -1.61816,-3.08594 -0.91016,0 -1.61719,0.78809 -1.61719,3.08594 0,2.31054 0.70703,3.09961 1.61719,3.09961 z"
   id="path129"
   inkscape:connector-curvature="0"
   style="fill:#252626" />
		</g>
		<g
   id="g135">
			<path
   d="m 64.3778,291.43454 h -0.02734 c -0.21777,0.8291 -0.91113,1.35938 -1.76758,1.35938 -1.59082,0 -2.31152,-1.27832 -2.31152,-3.7793 0,-2.48828 0.7207,-3.7666 2.31152,-3.7666 0.89746,0 1.50879,0.49023 1.68555,1.25098 h 0.02734 v -3.5752 h 0.81543 v 9.70703 h -0.7334 z m -1.65918,0.67969 c 0.8291,0 1.57715,-0.42188 1.57715,-3.09961 0,-2.66504 -0.74805,-3.08594 -1.57715,-3.08594 -0.81543,0 -1.57715,0.4209 -1.57715,3.08594 0,2.67773 0.76172,3.09961 1.57715,3.09961 z"
   id="path133"
   inkscape:connector-curvature="0"
   style="fill:#252626" />
		</g>
		<g
   id="g139">
			<path
   d="m 71.05553,290.23825 c -0.12207,1.53613 -0.96582,2.55566 -2.3252,2.55566 -1.52246,0 -2.41992,-1.06055 -2.41992,-3.7793 0,-2.50195 0.89746,-3.7666 2.48828,-3.7666 1.60449,0 2.3252,1.10156 2.3252,3.50781 v 0.2998 h -3.94336 v 0.33984 c 0,2.08008 0.73438,2.71875 1.53613,2.71875 0.85645,0 1.38672,-0.6123 1.52344,-1.87598 h 0.81543 z m -0.80175,-1.86328 c -0.02734,-1.79395 -0.53027,-2.44629 -1.53711,-2.44629 -1.00586,0 -1.50879,0.65234 -1.53613,2.44629 z"
   id="path137"
   inkscape:connector-curvature="0"
   style="fill:#252626" />
		</g>
		<g
   id="g143">
			<path
   d="m 80.48034,291.44821 c -0.54395,0.81543 -1.38672,1.3457 -2.58301,1.3457 -1.67285,0 -2.71973,-1.1416 -2.71973,-2.56934 0,-1.01953 0.5166,-1.82227 1.40039,-2.50195 l 0.80273,-0.61133 c -0.69336,-0.91113 -1.11523,-1.63184 -1.11523,-2.39355 0,-1.16895 0.91113,-1.79395 1.98535,-1.79395 1.12793,0 1.8623,0.7207 1.8623,1.79395 0,0.78906 -0.32617,1.52344 -1.71289,2.50195 l 2.09375,2.93652 c 0.24414,-0.59766 0.33984,-1.2373 0.35352,-1.83496 h 0.81543 c 0,0.84277 -0.24512,1.74023 -0.67969,2.51465 l 1.27832,1.79492 h -0.9248 z m -2.69238,-3.79297 c -1.37305,0.95117 -1.74023,1.71289 -1.74023,2.47363 0,1.15625 0.89746,1.93066 1.97168,1.93066 0.78809,0 1.6582,-0.47559 2.03906,-1.22363 z m 0.2041,-0.99316 c 1.07422,-0.81543 1.30566,-1.44043 1.30566,-1.9707 0,-0.62598 -0.47656,-1.08789 -1.10156,-1.08789 -0.63867,0 -1.11523,0.46191 -1.11523,1.08789 -10e-6,0.5166 0.36718,1.2373 0.91113,1.9707 z"
   id="path141"
   inkscape:connector-curvature="0"
   style="fill:#252626" />
		</g>
		<g
   id="g147">
			<path
   d="m 86.23522,285.4111 h 0.81641 v 1.12891 h 0.02734 c 0.3125,-0.80176 0.97852,-1.29199 1.82129,-1.29199 0.0957,0 0.19043,0.0137 0.28613,0.041 v 0.81543 c -0.13672,-0.0264 -0.27246,-0.04 -0.39453,-0.04 -0.89746,0 -1.74023,0.65234 -1.74023,2.05273 v 4.51367 h -0.81641 c 1e-5,0 1e-5,-7.21973 0,-7.21973 z"
   id="path145"
   inkscape:connector-curvature="0"
   style="fill:#252626" />
		</g>
		<g
   id="g151">
			<path
   d="m 94.46276,290.23825 c -0.12207,1.53613 -0.96582,2.55566 -2.3252,2.55566 -1.52246,0 -2.41992,-1.06055 -2.41992,-3.7793 0,-2.50195 0.89746,-3.7666 2.48828,-3.7666 1.60449,0 2.3252,1.10156 2.3252,3.50781 v 0.2998 h -3.94336 v 0.33984 c 0,2.08008 0.73438,2.71875 1.53613,2.71875 0.85645,0 1.38672,-0.6123 1.52344,-1.87598 h 0.81543 z M 93.661,288.37497 c -0.02734,-1.79395 -0.53027,-2.44629 -1.53711,-2.44629 -1.00586,0 -1.50879,0.65234 -1.53613,2.44629 z"
   id="path149"
   inkscape:connector-curvature="0"
   style="fill:#252626" />
		</g>
		<g
   id="g155">
			<path
   d="m 95.8651,282.9238 h 0.81543 v 9.70703 H 95.8651 Z"
   id="path153"
   inkscape:connector-curvature="0"
   style="fill:#252626" />
		</g>
		<g
   id="g159">
			<path
   d="m 102.75866,290.23825 c -0.12207,1.53613 -0.96582,2.55566 -2.3252,2.55566 -1.52246,0 -2.41992,-1.06055 -2.41992,-3.7793 0,-2.50195 0.89746,-3.7666 2.48828,-3.7666 1.60449,0 2.3252,1.10156 2.3252,3.50781 v 0.2998 h -3.94336 v 0.33984 c 0,2.08008 0.73438,2.71875 1.53613,2.71875 0.85645,0 1.38672,-0.6123 1.52344,-1.87598 h 0.81543 z m -0.80176,-1.86328 c -0.0273,-1.79395 -0.53027,-2.44629 -1.53711,-2.44629 -1.00586,0 -1.50879,0.65234 -1.53613,2.44629 z"
   id="path157"
   inkscape:connector-curvature="0"
   style="fill:#252626" />
		</g>
		<g
   id="g163">
			<path
   d="m 103.9569,287.55954 c 0,-1.48145 0.70703,-2.31152 2.23047,-2.31152 1.49512,0 2.03906,0.77539 2.03906,1.91699 v 4.26953 c 0,0.4082 0.13574,0.59766 0.4209,0.59766 h 0.23145 v 0.59863 c -0.14941,0.0547 -0.27148,0.082 -0.38086,0.082 -0.63867,0 -1.04688,-0.15039 -1.04688,-0.89746 v -0.24512 h -0.0273 c -0.32617,0.95215 -1.06055,1.22363 -1.8623,1.22363 -1.26465,0 -1.83496,-0.78809 -1.83496,-2.03906 0,-0.95215 0.43457,-1.71289 1.4541,-1.99902 l 1.53613,-0.43457 c 0.57129,-0.16309 0.69336,-0.2998 0.69336,-1.14258 0,-0.92383 -0.5166,-1.25 -1.25,-1.25 -0.96582,0 -1.38672,0.58398 -1.38672,1.63086 z m 3.45313,0.99219 h -0.0264 c -0.082,0.24512 -0.54395,0.39453 -0.87012,0.47656 l -0.67969,0.17676 c -0.81641,0.2168 -1.2373,0.63867 -1.2373,1.49512 0,0.84277 0.43457,1.41406 1.1416,1.41406 0.99219,0 1.67188,-0.74805 1.67188,-2.03906 v -1.52344 z"
   id="path161"
   inkscape:connector-curvature="0"
   style="fill:#252626" />
		</g>
		<g
   id="g167">
			<path
   d="m 111.04284,289.04196 c -1.01953,-0.39453 -1.38672,-0.99316 -1.38672,-1.71387 0,-1.48145 0.9248,-2.08008 2.14844,-2.08008 1.35938,0 1.98438,0.69336 1.98438,2.0127 v 0.2041 h -0.81543 v -0.2041 c 0,-0.93848 -0.43555,-1.33203 -1.18262,-1.33203 -0.95215,0 -1.31934,0.50293 -1.31934,1.22266 0,0.50391 0.16309,0.89746 0.97949,1.21094 l 1.18262,0.44824 c 0.97852,0.36719 1.3457,1.04688 1.3457,1.83496 0,1.2373 -0.70703,2.14844 -2.22949,2.14844 -1.48242,0 -2.21582,-0.61133 -2.21582,-2.24316 v -0.23145 h 0.81543 v 0.19043 c 0,1.06055 0.46191,1.60449 1.38672,1.60449 0.87012,0 1.42773,-0.48926 1.42773,-1.29199 0,-0.63867 -0.25879,-1.04688 -0.97949,-1.33203 z"
   id="path165"
   inkscape:connector-curvature="0"
   style="fill:#252626" />
		</g>
		<g
   id="g171">
			<path
   d="m 119.63757,290.23825 c -0.12207,1.53613 -0.96582,2.55566 -2.3252,2.55566 -1.52246,0 -2.41992,-1.06055 -2.41992,-3.7793 0,-2.50195 0.89746,-3.7666 2.48828,-3.7666 1.60449,0 2.3252,1.10156 2.3252,3.50781 v 0.2998 h -3.94336 v 0.33984 c 0,2.08008 0.73438,2.71875 1.53613,2.71875 0.85645,0 1.38672,-0.6123 1.52344,-1.87598 h 0.81543 z m -0.80176,-1.86328 c -0.0273,-1.79395 -0.53027,-2.44629 -1.53711,-2.44629 -1.00586,0 -1.50879,0.65234 -1.53613,2.44629 z"
   id="path169"
   inkscape:connector-curvature="0"
   style="fill:#252626" />
		</g>
		<g
   id="g175">
			<path
   d="m 56.53796,299.24509 h 2.41992 l 1.71387,7.19141 h 0.02637 l 1.68652,-7.19141 h 2.36523 v 9.70703 H 63.2821 v -8.07617 h -0.02734 l -1.95801,8.07617 h -1.30469 l -1.95801,-8.07617 h -0.02734 v 8.07617 h -1.46875 c 0,0 0,-9.70703 0,-9.70703 z"
   id="path173"
   inkscape:connector-curvature="0"
   style="fill:#252626" />
		</g>
		<g
   id="g179">
			<path
   d="m 71.06139,307.42966 c 0,0.27148 0.16309,0.5166 0.38086,0.5166 0.0957,0 0.19043,-0.0137 0.24512,-0.041 v 0.95215 c -0.17676,0.0811 -0.43555,0.17676 -0.7207,0.17676 -0.65234,0 -1.19629,-0.25879 -1.2373,-0.96582 h -0.02734 c -0.39453,0.7207 -0.96484,1.07422 -1.82129,1.07422 -1.16992,0 -1.90332,-0.65234 -1.90332,-2.05273 0,-1.63184 0.70703,-1.97168 1.69922,-2.29785 l 1.1416,-0.3125 c 0.53027,-0.14941 0.85645,-0.2998 0.85645,-0.93848 0,-0.66602 -0.23047,-1.08789 -1.00586,-1.08789 -0.97852,0 -1.11426,0.69336 -1.11426,1.40039 h -1.3877 c 0,-1.5498 0.63965,-2.40625 2.57031,-2.40625 1.29102,0 2.32422,0.50293 2.32422,1.79492 0,0 0,4.1875 -1e-5,4.1875 z m -1.38672,-2.33887 c -0.37988,0.29883 -1.19629,0.47559 -1.63086,0.67969 -0.42188,0.2041 -0.59863,0.63965 -0.59863,1.18262 0,0.6123 0.29883,1.10156 0.91113,1.10156 0.88379,0 1.31836,-0.66602 1.31836,-1.74023 z"
   id="path177"
   inkscape:connector-curvature="0"
   style="fill:#252626" />
		</g>
		<g
   id="g183">
			<path
   d="m 72.56042,301.63766 h 1.46875 v 1.1416 h 0.02637 c 0.32617,-0.81543 0.87012,-1.33203 1.7002,-1.33203 0.16309,0 0.25781,0.0273 0.35352,0.0547 v 1.49512 c -0.10938,-0.0273 -0.36719,-0.0811 -0.6123,-0.0811 -0.66602,0 -1.46777,0.29883 -1.46777,1.6582 v 4.37793 h -1.46875 v -7.31445 h -2e-5 z"
   id="path181"
   inkscape:connector-curvature="0"
   style="fill:#252626" />
		</g>
		<g
   id="g187">
			<path
   d="m 81.53503,306.28708 c -0.0957,1.75391 -0.69336,2.85547 -2.50195,2.85547 -2.12109,0 -2.71875,-1.57715 -2.71875,-3.84766 0,-2.27051 0.59766,-3.84766 2.71875,-3.84766 2.18848,-0.0273 2.51563,1.71289 2.51563,2.62402 h -1.46875 c 0,-0.67969 -0.19043,-1.56348 -1.04688,-1.53613 -1.06055,0 -1.25098,1.1416 -1.25098,2.75977 0,1.61817 0.19043,2.75977 1.25098,2.75977 0.81543,0.0137 1.11523,-0.66602 1.11523,-1.76758 z"
   id="path185"
   inkscape:connector-curvature="0"
   style="fill:#252626" />
		</g>
		<g
   id="g191">
			<path
   d="m 85.99694,299.24509 h 3.14063 c 1.44141,0 2.61035,0.63867 2.61035,2.35156 0,1.18262 -0.46191,1.90332 -1.42676,2.20313 v 0.0264 c 1.05957,0.19043 1.74023,0.83008 1.74023,2.47461 0,1.61816 -1.16992,2.65137 -2.99121,2.65137 h -3.07324 z m 2.77344,4.09179 c 0.93848,0 1.42773,-0.625 1.42773,-1.53613 0,-1.15527 -0.69336,-1.38672 -1.56348,-1.38672 h -1.08789 v 2.92285 z m 0.31347,4.44629 c 0.92383,0 1.42676,-0.59863 1.42676,-1.71289 0,-1.04688 -0.625,-1.64551 -1.52246,-1.64551 h -1.44141 v 3.3584 z"
   id="path189"
   inkscape:connector-curvature="0"
   style="fill:#252626" />
		</g>
		<g
   id="g195">
			<path
   d="m 95.63952,301.44724 c 2.13477,0 2.73242,1.57715 2.73242,3.84766 0,2.27051 -0.69336,3.84766 -2.73242,3.84766 -2.02539,0 -2.71875,-1.57715 -2.71875,-3.84766 0,-2.27051 0.59765,-3.84766 2.71875,-3.84766 z m 0,6.60742 c 1.07422,0 1.26465,-0.89746 1.26465,-2.75977 0,-1.61816 -0.19043,-2.75977 -1.26465,-2.75977 -1.06055,0 -1.25098,1.1416 -1.25098,2.75977 0,1.86231 0.19043,2.75977 1.25098,2.75977 z"
   id="path193"
   inkscape:connector-curvature="0"
   style="fill:#252626" />
		</g>
		<g
   id="g199">
			<path
   d="m 103.24108,308.09567 h -0.04 c -0.36719,0.65234 -1.06055,1.04688 -1.87695,1.04688 -1.08691,0 -1.82129,-0.50293 -1.82129,-2.39258 v -5.1123 h 1.46777 v 5.24805 c 0,0.81543 0.36719,1.08789 0.99316,1.08789 0.625,0 1.19629,-0.4082 1.19629,-1.22363 v -5.1123 h 1.46777 v 7.31445 h -1.38672 c 0,-1e-5 0,-0.85646 10e-6,-0.85646 z"
   id="path197"
   inkscape:connector-curvature="0"
   style="fill:#252626" />
		</g>
		<g
   id="g203">
			<path
   d="m 106.11315,299.24509 h 1.46777 v 9.70703 h -1.46777 z"
   id="path201"
   inkscape:connector-curvature="0"
   style="fill:#252626" />
		</g>
		<g
   id="g207">
			<path
   d="m 110.32897,305.48532 v 0.42188 c 0,0.97852 0.12207,2.22949 1.22363,2.22949 1.04688,0 1.16895,-1.19629 1.16895,-1.63184 h 1.38672 c 0,1.61816 -0.97852,2.6377 -2.56934,2.6377 -1.19629,0 -2.67871,-0.35352 -2.67871,-3.73926 0,-1.91699 0.4082,-3.95605 2.70605,-3.95605 2.03906,0 2.58301,1.22363 2.58301,3.2627 v 0.77539 h -3.82031 z m 2.35156,-1.00586 v -0.39453 c 0,-0.9248 -0.29883,-1.63184 -1.12793,-1.63184 -0.93848,0 -1.22363,0.9248 -1.22363,1.87695 v 0.14941 h 2.35156 z m -0.9375,-5.75097 h 1.63086 l -1.44141,1.95801 h -1.00586 z"
   id="path205"
   inkscape:connector-curvature="0"
   style="fill:#252626" />
		</g>
	</g>
	<g
   id="g307">
		<g
   id="g213">
			<path
   d="m 54.34704,331.28024 c -0.12305,2.21582 -1.14258,3.45313 -2.88281,3.45313 -1.98438,0 -3.09961,-1.53613 -3.09961,-5.0166 0,-3.48047 1.11523,-5.0166 3.09961,-5.0166 1.97168,0 2.78711,1.40039 2.78711,2.99121 h -0.87012 c 0,-1.31934 -0.66602,-2.25684 -1.91699,-2.25684 -1.38672,0 -2.22949,1.1416 -2.22949,4.28223 0,3.14063 0.84277,4.28223 2.22949,4.28223 1.22363,0 1.91699,-1.04688 2.0127,-2.71875 h 0.87011 z"
   id="path211"
   inkscape:connector-curvature="0"
   style="fill:#252626" />
		</g>
		<g
   id="g217">
			<path
   d="m 57.63903,327.18747 c 1.59082,0 2.48828,1.26465 2.48828,3.7666 0,2.51465 -0.89746,3.7793 -2.48828,3.7793 -1.58984,0 -2.4873,-1.26465 -2.4873,-3.7793 0,-2.50195 0.89746,-3.7666 2.4873,-3.7666 z m 0,6.86621 c 0.91113,0 1.61816,-0.78906 1.61816,-3.09961 0,-2.29785 -0.70703,-3.08594 -1.61816,-3.08594 -0.91016,0 -1.61719,0.78809 -1.61719,3.08594 0,2.31055 0.70703,3.09961 1.61719,3.09961 z"
   id="path215"
   inkscape:connector-curvature="0"
   style="fill:#252626" />
		</g>
		<g
   id="g221">
			<path
   d="m 61.32555,327.35056 h 0.73438 v 1.00684 h 0.02734 c 0.4082,-0.80273 1.11523,-1.16992 1.84863,-1.16992 1.10156,0 1.84961,0.57129 1.84961,1.93066 v 5.45215 h -0.81543 v -5.2207 c 0,-0.99219 -0.4082,-1.48145 -1.2373,-1.48145 -0.95215,0 -1.59082,0.7334 -1.59082,1.84863 v 4.85352 h -0.81641 c 0,-10e-6 0,-7.21973 0,-7.21973 z"
   id="path219"
   inkscape:connector-curvature="0"
   style="fill:#252626" />
		</g>
		<g
   id="g225">
			<path
   d="m 71.70251,332.1777 c -0.12305,1.53613 -0.96582,2.55566 -2.29785,2.55566 -1.52344,0 -2.41992,-1.06055 -2.41992,-3.7793 0,-2.50195 0.89648,-3.7666 2.4873,-3.7666 1.36035,0 2.14844,0.83008 2.23047,2.31152 h -0.8164 c -0.09473,-1.12793 -0.54395,-1.63086 -1.41406,-1.63086 -0.88379,0 -1.61719,0.54297 -1.61719,3.09961 0,2.71875 0.77441,3.08594 1.53613,3.08594 0.8291,0 1.35938,-0.6123 1.49512,-1.87598 h 0.8164 z"
   id="path223"
   inkscape:connector-curvature="0"
   style="fill:#252626" />
		</g>
		<g
   id="g229">
			<path
   d="m 77.34606,332.1777 c -0.12207,1.53613 -0.96582,2.55566 -2.3252,2.55566 -1.52246,0 -2.41992,-1.06055 -2.41992,-3.7793 0,-2.50195 0.89746,-3.7666 2.48828,-3.7666 1.60449,0 2.3252,1.10156 2.3252,3.50781 v 0.2998 h -3.94336 v 0.33984 c 0,2.08008 0.73438,2.71875 1.53613,2.71875 0.85645,0 1.38672,-0.6123 1.52344,-1.87598 h 0.81543 z m -0.80176,-1.86328 c -0.02734,-1.79395 -0.53027,-2.44629 -1.53711,-2.44629 -1.00586,0 -1.50879,0.65234 -1.53613,2.44629 z"
   id="path227"
   inkscape:connector-curvature="0"
   style="fill:#252626" />
		</g>
		<g
   id="g233">
			<path
   d="m 78.61266,327.35056 h 0.73438 v 1.03418 h 0.02734 c 0.25781,-0.66699 0.85645,-1.19727 1.78027,-1.19727 1.60449,0 2.29785,1.27832 2.29785,3.78027 0,2.4873 -0.7207,3.76563 -2.31152,3.76563 -0.89648,0 -1.50879,-0.48926 -1.68555,-1.25098 H 79.4281 v 3.48047 h -0.81543 c 0,0 0,-9.6123 -10e-6,-9.6123 z m 2.41993,0.51757 c -0.46191,0 -0.87012,0.24414 -1.1416,0.63867 -0.35352,0.50293 -0.46289,1.20996 -0.46289,2.46094 0,2.66406 0.74805,3.08594 1.57715,3.08594 0.81543,0 1.57715,-0.42188 1.57715,-3.08594 -1e-5,-2.62402 -0.76173,-3.09961 -1.54981,-3.09961 z"
   id="path231"
   inkscape:connector-curvature="0"
   style="fill:#252626" />
		</g>
		<g
   id="g237">
			<path
   d="m 85.03259,328.03122 h -0.99316 v -0.68066 h 0.99316 v -1.99805 h 0.81543 v 1.99805 h 1.27832 v 0.68066 h -1.27832 v 5.17969 c 0,0.57129 0.24512,0.76074 0.77539,0.76074 0.16309,0 0.32617,-0.0264 0.50293,-0.0811 v 0.67969 c -0.0957,0.0547 -0.2998,0.082 -0.57129,0.082 -1.10156,0 -1.52246,-0.2998 -1.52246,-1.26465 v -5.35645 z"
   id="path235"
   inkscape:connector-curvature="0"
   style="fill:#252626" />
		</g>
		<g
   id="g241">
			<path
   d="m 96.08825,333.38766 c -0.54395,0.81543 -1.38672,1.3457 -2.58301,1.3457 -1.67285,0 -2.71973,-1.1416 -2.71973,-2.56934 0,-1.01953 0.5166,-1.82227 1.40039,-2.50195 l 0.80273,-0.61133 c -0.69336,-0.91113 -1.11523,-1.63184 -1.11523,-2.39355 0,-1.16895 0.91113,-1.79395 1.98535,-1.79395 1.12793,0 1.8623,0.7207 1.8623,1.79395 0,0.78906 -0.32617,1.52344 -1.71289,2.50195 l 2.09375,2.93652 c 0.24414,-0.59766 0.33984,-1.2373 0.35352,-1.83496 h 0.81543 c 0,0.84277 -0.24512,1.74023 -0.67969,2.51465 l 1.27832,1.79492 h -0.9248 z m -2.69238,-3.79296 c -1.37305,0.95117 -1.74023,1.71289 -1.74023,2.47363 0,1.15625 0.89746,1.93066 1.97168,1.93066 0.78809,0 1.6582,-0.47559 2.03906,-1.22363 z m 0.2041,-0.99317 c 1.07422,-0.81543 1.30566,-1.44043 1.30566,-1.9707 0,-0.62598 -0.47656,-1.08789 -1.10156,-1.08789 -0.63867,0 -1.11523,0.46191 -1.11523,1.08789 0,0.5166 0.36718,1.2373 0.91113,1.9707 z"
   id="path239"
   inkscape:connector-curvature="0"
   style="fill:#252626" />
		</g>
		<g
   id="g245">
			<path
   d="m 104.56188,330.35544 v -0.73438 h 3.11328 v 4.94922 h -0.67969 v -1.60449 h -0.0273 c -0.29883,1.07422 -1.16895,1.76758 -2.13477,1.76758 -1.98438,0 -3.09961,-1.53613 -3.09961,-5.0166 0,-3.48047 1.11523,-5.0166 3.09961,-5.0166 1.84961,0 2.67871,1.20996 2.78711,2.88184 h -0.87012 c 0,-1.16895 -0.63867,-2.14746 -1.91699,-2.14746 -1.38672,0 -2.22949,1.1416 -2.22949,4.28223 0,3.14063 0.84277,4.28223 2.22949,4.28223 1.30566,0 2.02637,-1.16895 2.02637,-3.43945 v -0.2041 h -2.29785 z"
   id="path243"
   inkscape:connector-curvature="0"
   style="fill:#252626" />
		</g>
		<g
   id="g249">
			<path
   d="m 108.98278,324.86325 h 0.87012 v 6.97461 c 0,1.4541 0.62598,2.16113 1.90332,2.16113 1.27832,0 1.9043,-0.70703 1.9043,-2.16113 v -6.97461 h 0.87012 v 6.98828 c 0,2.03906 -0.99316,2.88184 -2.77441,2.88184 -1.78027,0 -2.77344,-0.84277 -2.77344,-2.88184 0,0 0,-6.98828 -10e-6,-6.98828 z"
   id="path247"
   inkscape:connector-curvature="0"
   style="fill:#252626" />
		</g>
		<g
   id="g253">
			<path
   d="m 115.97399,324.86325 h 0.87012 v 9.70703 h -0.87012 z"
   id="path251"
   inkscape:connector-curvature="0"
   style="fill:#252626" />
		</g>
		<g
   id="g257">
			<path
   d="m 49.72497,341.18454 h 3.07324 c 1.8623,0 2.67773,1.16895 2.67773,2.82813 0,1.74023 -1.01953,2.86816 -2.84082,2.86816 h -1.36035 v 4.01074 h -1.5498 c 0,0 0,-9.70703 0,-9.70703 z m 1.5498,4.52734 h 1.10156 c 0.8291,0 1.5498,-0.44922 1.5498,-1.67285 0,-1.04688 -0.4209,-1.68555 -1.6582,-1.68555 h -0.99316 z"
   id="path255"
   inkscape:connector-curvature="0"
   style="fill:#252626" />
		</g>
		<g
   id="g261">
			<path
   d="m 56.49938,341.07516 h 1.46777 v 1.46875 h -1.46777 z m 0,2.50196 h 1.46777 v 7.31445 h -1.46777 z"
   id="path259"
   inkscape:connector-curvature="0"
   style="fill:#252626" />
		</g>
		<g
   id="g265">
			<path
   d="m 60.71423,347.42477 v 0.42188 c 0,0.97852 0.12207,2.22949 1.22363,2.22949 1.04688,0 1.16895,-1.19629 1.16895,-1.63184 h 1.38672 c 0,1.61816 -0.97852,2.6377 -2.56934,2.6377 -1.19629,0 -2.67871,-0.35352 -2.67871,-3.73926 0,-1.91699 0.4082,-3.95605 2.70605,-3.95605 2.03906,0 2.58301,1.22363 2.58301,3.2627 v 0.77539 h -3.82031 z m 2.35156,-1.00586 v -0.39453 c 0,-0.9248 -0.29883,-1.63184 -1.12793,-1.63184 -0.93848,0 -1.22363,0.9248 -1.22363,1.87695 v 0.14941 h 2.35156 z"
   id="path263"
   inkscape:connector-curvature="0"
   style="fill:#252626" />
		</g>
		<g
   id="g269">
			<path
   d="m 65.74743,343.57712 h 1.46777 v 1.1416 h 0.02734 c 0.32617,-0.81543 0.87012,-1.33203 1.7002,-1.33203 0.16309,0 0.25781,0.0273 0.35352,0.0547 v 1.49512 c -0.10938,-0.0273 -0.36719,-0.0811 -0.6123,-0.0811 -0.66602,0 -1.46875,0.29883 -1.46875,1.6582 v 4.37793 h -1.46777 v -7.31445 h -1e-5 z"
   id="path267"
   inkscape:connector-curvature="0"
   style="fill:#252626" />
		</g>
		<g
   id="g273">
			<path
   d="m 70.03161,343.57712 h 1.46875 v 1.1416 h 0.02637 c 0.32617,-0.81543 0.87012,-1.33203 1.7002,-1.33203 0.16309,0 0.25781,0.0273 0.35352,0.0547 v 1.49512 c -0.10938,-0.0273 -0.36719,-0.0811 -0.6123,-0.0811 -0.66602,0 -1.46777,0.29883 -1.46777,1.6582 v 4.37793 h -1.46875 v -7.31445 h -2e-5 z"
   id="path271"
   inkscape:connector-curvature="0"
   style="fill:#252626" />
		</g>
		<g
   id="g277">
			<path
   d="m 75.58044,347.42477 v 0.42188 c 0,0.97852 0.12207,2.22949 1.22363,2.22949 1.04688,0 1.16895,-1.19629 1.16895,-1.63184 h 1.38672 c 0,1.61816 -0.97852,2.6377 -2.56934,2.6377 -1.19629,0 -2.67871,-0.35352 -2.67871,-3.73926 0,-1.91699 0.4082,-3.95605 2.70605,-3.95605 2.03906,0 2.58301,1.22363 2.58301,3.2627 v 0.77539 h -3.82031 z m 2.35156,-1.00586 v -0.39453 c 0,-0.9248 -0.29883,-1.63184 -1.12793,-1.63184 -0.93848,0 -1.22363,0.9248 -1.22363,1.87695 v 0.14941 H 77.932 Z"
   id="path275"
   inkscape:connector-curvature="0"
   style="fill:#252626" />
		</g>
		<g
   id="g281">
			<path
   d="m 89.94079,347.4111 v 0.2041 c 0,1.75391 -0.70703,3.4668 -2.99121,3.4668 -2.44727,0 -3.20801,-1.57715 -3.20801,-5.04395 0,-3.4668 0.76074,-5.04395 3.22168,-5.04395 2.75977,0 2.92285,2.03906 2.92285,3.04492 v 0.17676 h -1.5498 v -0.16309 c 0,-0.89746 -0.27148,-1.93066 -1.38672,-1.88965 -1.1416,0 -1.6582,0.70703 -1.6582,3.83398 0,3.12695 0.5166,3.91602 1.6582,3.91602 1.29199,0 1.44141,-1.44141 1.44141,-2.33887 v -0.16309 h 1.5498 z"
   id="path279"
   inkscape:connector-curvature="0"
   style="fill:#252626" />
		</g>
		<g
   id="g285">
			<path
   d="m 93.3695,343.38669 c 2.13477,0 2.73242,1.57715 2.73242,3.84766 0,2.27051 -0.69336,3.84766 -2.73242,3.84766 -2.02539,0 -2.71875,-1.57715 -2.71875,-3.84766 0,-2.27051 0.59766,-3.84766 2.71875,-3.84766 z m 0,6.60742 c 1.07422,0 1.26465,-0.89746 1.26465,-2.75977 0,-1.61816 -0.19043,-2.75977 -1.26465,-2.75977 -1.06055,0 -1.25098,1.1416 -1.25098,2.75977 0,1.86231 0.19043,2.75977 1.25098,2.75977 z"
   id="path283"
   inkscape:connector-curvature="0"
   style="fill:#252626" />
		</g>
		<g
   id="g289">
			<path
   d="m 97.30114,341.18454 h 1.46777 v 9.70703 h -1.46777 z"
   id="path287"
   inkscape:connector-curvature="0"
   style="fill:#252626" />
		</g>
		<g
   id="g293">
			<path
   d="m 100.32067,341.18454 h 1.46777 v 9.70703 h -1.46777 z"
   id="path291"
   inkscape:connector-curvature="0"
   style="fill:#252626" />
		</g>
		<g
   id="g297">
			<path
   d="m 108.07067,349.36911 c 0,0.27148 0.16309,0.5166 0.38086,0.5166 0.0957,0 0.19043,-0.0137 0.24512,-0.041 v 0.95215 c -0.17676,0.0811 -0.43555,0.17676 -0.7207,0.17676 -0.65234,0 -1.19629,-0.25879 -1.2373,-0.96582 h -0.0273 c -0.39453,0.7207 -0.96484,1.07422 -1.82129,1.07422 -1.16992,0 -1.90332,-0.65234 -1.90332,-2.05273 0,-1.63184 0.70703,-1.97168 1.69922,-2.29785 l 1.1416,-0.3125 c 0.53027,-0.14941 0.85645,-0.2998 0.85645,-0.93848 0,-0.66602 -0.23047,-1.08789 -1.00586,-1.08789 -0.97852,0 -1.11426,0.69336 -1.11426,1.40039 h -1.3877 c 0,-1.5498 0.63965,-2.40625 2.57031,-2.40625 1.29102,0 2.32422,0.50293 2.32422,1.79492 0,0 0,4.1875 -10e-6,4.1875 z m -1.38672,-2.33887 c -0.37988,0.29883 -1.19629,0.47559 -1.63086,0.67969 -0.42188,0.2041 -0.59863,0.63965 -0.59863,1.18262 0,0.6123 0.29883,1.10156 0.91113,1.10156 0.88379,0 1.31836,-0.66602 1.31836,-1.74023 z"
   id="path295"
   inkscape:connector-curvature="0"
   style="fill:#252626" />
		</g>
		<g
   id="g301">
			<path
   d="m 109.56872,343.57712 h 1.46875 v 1.1416 h 0.0264 c 0.32617,-0.81543 0.87012,-1.33203 1.7002,-1.33203 0.16309,0 0.25781,0.0273 0.35352,0.0547 v 1.49512 c -0.10938,-0.0273 -0.36719,-0.0811 -0.6123,-0.0811 -0.66602,0 -1.46777,0.29883 -1.46777,1.6582 v 4.37793 h -1.46875 v -7.31445 h -2e-5 z"
   id="path299"
   inkscape:connector-curvature="0"
   style="fill:#252626" />
		</g>
		<g
   id="g305">
			<path
   d="m 117.59118,349.99411 h -0.0264 c -0.19043,0.47559 -0.55762,1.08789 -1.60449,1.08789 -1.71289,0 -2.39258,-1.42773 -2.39258,-3.94238 0,-3.25 1.1416,-3.75293 2.25684,-3.75293 0.78809,0 1.38672,0.39453 1.6582,1.04688 h 0.0273 v -3.24902 h 1.46777 v 9.70703 h -1.38672 c 2e-5,-10e-6 2e-5,-0.89747 1e-5,-0.89747 z m -1.33203,-5.43848 c -0.84277,0 -1.1416,0.67969 -1.1416,2.65137 0,1.65918 0.2168,2.70605 1.2373,2.70605 1.00586,0 1.23633,-1.0332 1.23633,-2.59668 0,-1.7539 -0.20313,-2.76074 -1.33203,-2.76074 z"
   id="path303"
   inkscape:connector-curvature="0"
   style="fill:#252626" />
		</g>
	</g>
</g>
<g
   id="g334"
   transform="matrix(1.2799927,0,0,1.2799927,6.1253219e-4,-0.36393553)">
	<path
   d="m 52.1195,218.35498 h 1.51172 l 1.22559,5.52539 h 0.02539 l 1.10742,-5.52539 h 1.49902 l -1.85059,7.01074 h -1.6416 z"
   id="path310"
   inkscape:connector-curvature="0"
   style="fill:#252626" />
	<path
   d="m 59.46716,222.04248 v 0.4043 c 0,0.93848 0.11719,2.13672 1.17285,2.13672 1.00293,0 1.12012,-1.14648 1.12012,-1.56348 h 1.3291 c 0,1.55078 -0.9375,2.52832 -2.46289,2.52832 -1.14648,0 -2.56641,-0.33887 -2.56641,-3.58398 0,-1.83691 0.39063,-3.79199 2.59277,-3.79199 1.95508,0 2.47559,1.17285 2.47559,3.12793 v 0.74219 h -3.66113 z m 2.2539,-0.96387 v -0.37793 c 0,-0.88574 -0.28613,-1.56348 -1.08105,-1.56348 -0.89941,0 -1.17285,0.88574 -1.17285,1.79785 v 0.14355 h 2.2539 z"
   id="path312"
   inkscape:connector-curvature="0"
   style="fill:#252626" />
	<path
   d="m 64.28551,218.35498 h 1.40723 v 1.09473 h 0.02637 c 0.3125,-0.78223 0.83398,-1.27734 1.62891,-1.27734 0.15625,0 0.24707,0.0264 0.33887,0.0527 v 1.43262 c -0.10449,-0.0254 -0.35254,-0.0781 -0.58691,-0.0781 -0.63867,0 -1.40723,0.28711 -1.40723,1.58984 v 4.19629 h -1.40723 c -1e-5,0 -1e-5,-7.01074 -1e-5,-7.01074 z"
   id="path314"
   inkscape:connector-curvature="0"
   style="fill:#252626" />
	<path
   d="m 71.41247,220.40088 v -0.18262 c 0,-0.56055 -0.19629,-1.08105 -0.92578,-1.08105 -0.56055,0 -1.00293,0.26074 -1.00293,0.91211 0,0.54688 0.24707,0.76855 0.99023,1.0293 l 0.89941,0.3125 c 1.04199,0.35156 1.52441,0.91211 1.52441,2.01953 0,1.49902 -1.09473,2.1377 -2.51563,2.1377 -1.77148,0 -2.30566,-0.82129 -2.30566,-2.17676 v -0.25977 h 1.25098 v 0.2207 c 0,0.80859 0.28613,1.25098 1.09375,1.25098 0.76953,0 1.14746,-0.39063 1.14746,-1.0293 0,-0.52148 -0.27344,-0.85938 -0.76953,-1.0293 l -1.14648,-0.4043 c -1.05566,-0.36426 -1.49805,-0.89844 -1.49805,-2.01953 0,-1.31641 0.95117,-1.92871 2.39746,-1.92871 1.78516,0 2.18945,1.04297 2.18945,1.91602 v 0.3125 z"
   id="path316"
   inkscape:connector-curvature="0"
   style="fill:#252626" />
	<path
   d="m 74.00329,215.95752 h 1.40723 v 1.40723 h -1.40723 z m 0,2.39746 h 1.40723 v 7.01074 h -1.40723 z"
   id="path318"
   inkscape:connector-curvature="0"
   style="fill:#252626" />
	<path
   d="m 79.16051,218.17236 c 2.0459,0 2.62012,1.51172 2.62012,3.68848 0,2.17578 -0.66504,3.6875 -2.62012,3.6875 -1.94141,0 -2.60547,-1.51172 -2.60547,-3.6875 10e-6,-2.17676 0.57325,-3.68848 2.60547,-3.68848 z m 0,6.33301 c 1.03027,0 1.21191,-0.85938 1.21191,-2.64453 0,-1.55078 -0.18164,-2.64551 -1.21191,-2.64551 -1.01563,0 -1.19824,1.09473 -1.19824,2.64551 0,1.78516 0.18262,2.64453 1.19824,2.64453 z"
   id="path320"
   inkscape:connector-curvature="0"
   style="fill:#252626" />
	<path
   d="m 82.85973,218.35498 h 1.3291 v 0.82129 h 0.03906 c 0.35156,-0.62598 1.01611,-1.00391 1.79736,-1.00391 1.06934,0 1.74609,0.48242 1.74609,1.90234 v 5.29102 h -1.40723 v -4.80859 c 0,-0.91211 -0.27344,-1.26367 -0.97656,-1.26367 -0.57373,0 -1.12061,0.45605 -1.12061,1.36816 v 4.7041 h -1.40723 c 2e-5,0 2e-5,-7.01074 2e-5,-7.01074 z"
   id="path322"
   inkscape:connector-curvature="0"
   style="fill:#252626" />
	<path
   d="m 94.2694,225.36572 v -6.69824 h -1.91504 v -0.96387 h 0.14258 c 0.88672,0 1.91602,-0.20898 2.17676,-1.38184 v -0.18164 h 1.08105 v 9.22559 z"
   id="path324"
   inkscape:connector-curvature="0"
   style="fill:#252626" />
	<path
   d="m 104.2694,225.36572 v -6.69824 h -1.91504 v -0.96387 h 0.14258 c 0.88672,0 1.91602,-0.20898 2.17676,-1.38184 v -0.18164 h 1.08105 v 9.22559 z"
   id="path326"
   inkscape:connector-curvature="0"
   style="fill:#252626" />
	<path
   d="m 98.64538,223.646 h 1.48535 v 1.71973 h -1.48535 z"
   id="path328"
   inkscape:connector-curvature="0"
   style="fill:#252626" />
	<path
   d="m 108.02331,223.646 h 1.48535 v 1.71973 h -1.48535 z"
   id="path330"
   inkscape:connector-curvature="0"
   style="fill:#252626" />
	<path
   d="m 113.45592,216.14014 c 1.77148,0 2.76172,1.12012 2.76172,4.7041 0,3.58301 -0.99023,4.7041 -2.76172,4.7041 -1.77246,0 -2.7627,-1.12109 -2.7627,-4.7041 1e-5,-3.58399 0.99024,-4.7041 2.7627,-4.7041 z m 0,8.36523 c 1.01563,0 1.27637,-0.97656 1.27637,-3.66113 0,-2.68457 -0.26074,-3.66211 -1.27637,-3.66211 -1.0166,0 -1.27734,0.97754 -1.27734,3.66211 0,2.68457 0.26074,3.66113 1.27734,3.66113 z"
   id="path332"
   inkscape:connector-curvature="0"
   style="fill:#252626" />
</g>
</svg>