<?xml version="1.0" encoding="UTF-8" standalone="no"?>
<!-- Generator: Adobe Illustrator 25.2.3, SVG Export Plug-In . SVG Version: 6.00 Build 0)  -->

<svg
   xmlns:dc="http://purl.org/dc/elements/1.1/"
   xmlns:cc="http://creativecommons.org/ns#"
   xmlns:rdf="http://www.w3.org/1999/02/22-rdf-syntax-ns#"
   xmlns:svg="http://www.w3.org/2000/svg"
   xmlns="http://www.w3.org/2000/svg"
   xmlns:sodipodi="http://sodipodi.sourceforge.net/DTD/sodipodi-0.dtd"
   xmlns:inkscape="http://www.inkscape.org/namespaces/inkscape"
   version="1.0"
   id="Layer_1"
   inkscape:version="0.92.3 (2405546, 2018-03-11)"
   sodipodi:docname="BlankInfo-WL.svg"
   x="0px"
   y="0px"
   width="165.08682"
   height="380.19998"
   viewBox="0 0 165.08682 380.19998"
   enable-background="new 0 0 158.40001 364.25195"
   xml:space="preserve"><metadata
   id="metadata266"><rdf:RDF><cc:Work
       rdf:about=""><dc:format>image/svg+xml</dc:format><dc:type
         rdf:resource="http://purl.org/dc/dcmitype/StillImage" /><dc:title></dc:title></cc:Work></rdf:RDF></metadata><defs
   id="defs264" />
<sodipodi:namedview
   bordercolor="#666666"
   borderopacity="1"
   fit-margin-bottom="0"
   fit-margin-left="0"
   fit-margin-right="0"
   fit-margin-top="0"
   gridtolerance="10"
   guidetolerance="10"
   id="namedview337"
   inkscape:current-layer="Layer_1"
   inkscape:cx="-535.00049"
   inkscape:cy="190.54702"
   inkscape:document-units="mm"
   inkscape:pageopacity="0"
   inkscape:pageshadow="2"
   inkscape:window-height="1017"
   inkscape:window-maximized="1"
   inkscape:window-width="1920"
   inkscape:window-x="-8"
   inkscape:window-y="-8"
   inkscape:zoom="0.62105263"
   objecttolerance="10"
   pagecolor="#ffffff"
   showgrid="false"
   units="mm">
	</sodipodi:namedview>
<g
   id="bg"
   transform="matrix(1.7787136,0,0,1.7787136,1.7787136e-4,-0.22160993)">
	<g
   id="g4">
		<linearGradient
   id="rect2_1_"
   gradientUnits="userSpaceOnUse"
   x1="46.406139"
   y1="0.12459"
   x2="46.406139"
   y2="364.92462">
			<stop
   offset="0"
   style="stop-color:#EBEBEB"
   id="stop3" />
			<stop
   offset="1"
   style="stop-color:#E1E1E1"
   id="stop5" />
		</linearGradient>
		<rect
   id="rect2"
   x="-9.9999997e-005"
   y="0.12459"
   width="92.812477"
   height="213.74997"
   style="fill:url(#rect2_1_)" />
	</g>
	<g
   id="g64">
		<g
   id="g35">
			
				<linearGradient
   id="SVGID_1_"
   gradientUnits="userSpaceOnUse"
   x1="243.34619"
   y1="-3033.7515"
   x2="256.34619"
   y2="-3033.7515"
   gradientTransform="rotate(90,-1388.9353,-1631.8786)">
				<stop
   offset="0"
   style="stop-color:#ABA9A9"
   id="stop10" />
				<stop
   offset="1"
   style="stop-color:#8F8F8F"
   id="stop12" />
			</linearGradient>
			<circle
   cx="12.93742"
   cy="4.2114902"
   r="3.8085899"
   id="circle15"
   style="fill:url(#SVGID_1_)" />
			
				<linearGradient
   id="SVGID_2_"
   gradientUnits="userSpaceOnUse"
   x1="243.74904"
   y1="-3033.7515"
   x2="255.37292"
   y2="-3033.7515"
   gradientTransform="rotate(90,-1388.9353,-1631.8786)">
				<stop
   offset="0.00559"
   style="stop-color:#F5F5F5"
   id="stop17" />
				<stop
   offset="1"
   style="stop-color:#C2C2C2"
   id="stop19" />
			</linearGradient>
			<circle
   cx="12.93742"
   cy="4.2111802"
   r="3.4054301"
   id="circle22"
   style="fill:url(#SVGID_2_)" />
			
				<linearGradient
   id="SVGID_3_"
   gradientUnits="userSpaceOnUse"
   x1="244.011"
   y1="-3033.7515"
   x2="254.74074"
   y2="-3033.7515"
   gradientTransform="rotate(90,-1388.9353,-1631.8786)">
				<stop
   offset="0.00559"
   style="stop-color:#EBEBEB"
   id="stop24" />
				<stop
   offset="1"
   style="stop-color:#CCCCCC"
   id="stop26" />
			</linearGradient>
			<circle
   cx="12.93742"
   cy="4.2111802"
   r="3.1434801"
   id="circle29"
   style="fill:url(#SVGID_3_)" />
			<g
   id="g33">
				<path
   d="M 14.96997,3.8075 13.81942,3.66965 C 13.6428,3.6485 13.50359,3.50923 13.4825,3.3326 L 13.34522,2.18283 C 13.33924,2.13271 13.29673,2.09498 13.24626,2.09498 H 12.6286 c -0.05047,0 -0.09297,0.03772 -0.09896,0.08783 l -0.1376,1.15043 c -0.02113,0.17665 -0.16041,0.3159 -0.33707,0.337 l -1.15005,0.1373 C 10.8548,3.81352 10.81707,3.85603 10.81707,3.9065 v 0.6177 c 0,0.05047 0.03772,0.09297 0.08783,0.09896 l 1.15019,0.13758 c 0.17662,0.02113 0.31586,0.16036 0.33698,0.33698 l 0.13757,1.15015 c 0.006,0.05011 0.0485,0.08783 0.09896,0.08783 h 0.6177 c 0.05046,0 0.09296,-0.03771 0.09896,-0.08781 l 0.13782,-1.1503 C 13.50424,4.921 13.64346,4.7818 13.82006,4.76068 L 14.96995,4.62316 C 15.02006,4.61717 15.05778,4.57467 15.05778,4.5242 V 3.90646 c 0,-0.05045 -0.03771,-0.09295 -0.08781,-0.09896 z"
   id="path31"
   inkscape:connector-curvature="0"
   style="fill:#8c8c8c" />
			</g>
		</g>
		<g
   id="g62">
			
				<linearGradient
   id="SVGID_4_"
   gradientUnits="userSpaceOnUse"
   x1="448.9086"
   y1="-3033.7515"
   x2="461.9086"
   y2="-3033.7515"
   gradientTransform="rotate(90,-1388.9353,-1631.8786)">
				<stop
   offset="0"
   style="stop-color:#ABA9A9"
   id="stop37" />
				<stop
   offset="1"
   style="stop-color:#8F8F8F"
   id="stop39" />
			</linearGradient>
			<circle
   cx="12.93742"
   cy="209.77391"
   r="3.8085899"
   id="circle42"
   style="fill:url(#SVGID_4_)" />
			
				<linearGradient
   id="SVGID_5_"
   gradientUnits="userSpaceOnUse"
   x1="449.31146"
   y1="-3033.7515"
   x2="460.93533"
   y2="-3033.7515"
   gradientTransform="rotate(90,-1388.9353,-1631.8786)">
				<stop
   offset="0.00559"
   style="stop-color:#F5F5F5"
   id="stop44" />
				<stop
   offset="1"
   style="stop-color:#C2C2C2"
   id="stop46" />
			</linearGradient>
			<circle
   cx="12.93742"
   cy="209.77361"
   r="3.4054301"
   id="circle49"
   style="fill:url(#SVGID_5_)" />
			
				<linearGradient
   id="SVGID_6_"
   gradientUnits="userSpaceOnUse"
   x1="449.57343"
   y1="-3033.7515"
   x2="460.30316"
   y2="-3033.7515"
   gradientTransform="rotate(90,-1388.9353,-1631.8786)">
				<stop
   offset="0.00559"
   style="stop-color:#EBEBEB"
   id="stop51" />
				<stop
   offset="1"
   style="stop-color:#CCCCCC"
   id="stop53" />
			</linearGradient>
			<circle
   cx="12.93742"
   cy="209.77361"
   r="3.1434801"
   id="circle56"
   style="fill:url(#SVGID_6_)" />
			<g
   id="g60">
				<path
   d="m 14.96997,209.36992 -1.15055,-0.13785 c -0.17662,-0.0212 -0.31583,-0.16042 -0.33692,-0.33705 l -0.13728,-1.14977 c -0.006,-0.0501 -0.04849,-0.0879 -0.09896,-0.0879 H 12.6286 c -0.05047,0 -0.09297,0.0377 -0.09896,0.0878 l -0.1376,1.15044 c -0.02113,0.17665 -0.16041,0.3159 -0.33707,0.33699 l -1.15005,0.1373 c -0.05012,0.006 -0.08785,0.0485 -0.08785,0.099 v 0.61769 c 0,0.0505 0.03772,0.093 0.08783,0.099 l 1.15019,0.13757 c 0.17662,0.0211 0.31586,0.16035 0.33698,0.33699 l 0.13757,1.15015 c 0.006,0.0501 0.0485,0.0878 0.09896,0.0878 h 0.6177 c 0.05046,0 0.09296,-0.0377 0.09896,-0.0878 l 0.13782,-1.1503 c 0.02116,-0.17659 0.16038,-0.3158 0.33698,-0.33691 l 1.14989,-0.13751 c 0.05011,-0.006 0.08783,-0.0485 0.08783,-0.099 v -0.61772 c 0,-0.0505 -0.03771,-0.093 -0.08781,-0.099 z"
   id="path58"
   inkscape:connector-curvature="0"
   style="fill:#8c8c8c" />
			</g>
		</g>
	</g>
	<g
   id="g120">
		<g
   id="g91">
			
				<linearGradient
   id="SVGID_7_"
   gradientUnits="userSpaceOnUse"
   x1="243.34619"
   y1="-3101.1465"
   x2="256.34619"
   y2="-3101.1465"
   gradientTransform="rotate(90,-1388.9353,-1631.8786)">
				<stop
   offset="0"
   style="stop-color:#ABA9A9"
   id="stop66" />
				<stop
   offset="1"
   style="stop-color:#8F8F8F"
   id="stop68" />
			</linearGradient>
			<circle
   cx="80.332382"
   cy="4.2114902"
   r="3.8085899"
   id="circle71"
   style="fill:url(#SVGID_7_)" />
			
				<linearGradient
   id="SVGID_8_"
   gradientUnits="userSpaceOnUse"
   x1="243.74904"
   y1="-3101.1465"
   x2="255.37292"
   y2="-3101.1465"
   gradientTransform="rotate(90,-1388.9353,-1631.8786)">
				<stop
   offset="0.00559"
   style="stop-color:#F5F5F5"
   id="stop73" />
				<stop
   offset="1"
   style="stop-color:#C2C2C2"
   id="stop75" />
			</linearGradient>
			<circle
   cx="80.332382"
   cy="4.2111802"
   r="3.4054301"
   id="circle78"
   style="fill:url(#SVGID_8_)" />
			
				<linearGradient
   id="SVGID_9_"
   gradientUnits="userSpaceOnUse"
   x1="244.011"
   y1="-3101.1465"
   x2="254.74074"
   y2="-3101.1465"
   gradientTransform="rotate(90,-1388.9353,-1631.8786)">
				<stop
   offset="0.00559"
   style="stop-color:#EBEBEB"
   id="stop80" />
				<stop
   offset="1"
   style="stop-color:#CCCCCC"
   id="stop82" />
			</linearGradient>
			<circle
   cx="80.332382"
   cy="4.2111802"
   r="3.1434801"
   id="circle85"
   style="fill:url(#SVGID_9_)" />
			<g
   id="g89">
				<path
   d="M 82.36493,3.8075 81.21438,3.66965 C 81.03776,3.64849 80.89855,3.50922 80.87746,3.33259 L 80.74018,2.18282 C 80.7342,2.1327 80.69169,2.09497 80.64122,2.09497 h -0.61766 c -0.05047,0 -0.09297,0.03772 -0.09896,0.08783 L 79.787,3.33323 c -0.02113,0.17665 -0.16041,0.3159 -0.33707,0.337 l -1.15005,0.1373 C 78.24976,3.81351 78.21203,3.85602 78.21203,3.90649 V 4.5242 c 0,0.05047 0.03772,0.09297 0.08783,0.09896 l 1.15018,0.13758 c 0.17663,0.02113 0.31586,0.16036 0.33699,0.33698 l 0.13757,1.15015 c 0.006,0.05011 0.04849,0.08783 0.09896,0.08783 h 0.6177 c 0.05045,0 0.09296,-0.03771 0.09895,-0.08781 l 0.13782,-1.1503 C 80.89919,4.921 81.03842,4.7818 81.21501,4.76068 L 82.3649,4.62316 C 82.41501,4.61717 82.45274,4.57467 82.45274,4.5242 V 3.90646 c 0,-0.05045 -0.03771,-0.09295 -0.08781,-0.09896 z"
   id="path87"
   inkscape:connector-curvature="0"
   style="fill:#8c8c8c" />
			</g>
		</g>
		<g
   id="g118">
			
				<linearGradient
   id="SVGID_10_"
   gradientUnits="userSpaceOnUse"
   x1="448.9086"
   y1="-3101.1465"
   x2="461.9086"
   y2="-3101.1465"
   gradientTransform="rotate(90,-1388.9353,-1631.8786)">
				<stop
   offset="0"
   style="stop-color:#ABA9A9"
   id="stop93" />
				<stop
   offset="1"
   style="stop-color:#8F8F8F"
   id="stop95" />
			</linearGradient>
			<circle
   cx="80.332382"
   cy="209.77391"
   r="3.8085899"
   id="circle98"
   style="fill:url(#SVGID_10_)" />
			
				<linearGradient
   id="SVGID_11_"
   gradientUnits="userSpaceOnUse"
   x1="449.31146"
   y1="-3101.1465"
   x2="460.93533"
   y2="-3101.1465"
   gradientTransform="rotate(90,-1388.9353,-1631.8786)">
				<stop
   offset="0.00559"
   style="stop-color:#F5F5F5"
   id="stop100" />
				<stop
   offset="1"
   style="stop-color:#C2C2C2"
   id="stop102" />
			</linearGradient>
			<circle
   cx="80.332382"
   cy="209.77361"
   r="3.4054301"
   id="circle105"
   style="fill:url(#SVGID_11_)" />
			
				<linearGradient
   id="SVGID_12_"
   gradientUnits="userSpaceOnUse"
   x1="449.57343"
   y1="-3101.1465"
   x2="460.30316"
   y2="-3101.1465"
   gradientTransform="rotate(90,-1388.9353,-1631.8786)">
				<stop
   offset="0.00559"
   style="stop-color:#EBEBEB"
   id="stop107" />
				<stop
   offset="1"
   style="stop-color:#CCCCCC"
   id="stop109" />
			</linearGradient>
			<circle
   cx="80.332382"
   cy="209.77361"
   r="3.1434801"
   id="circle112"
   style="fill:url(#SVGID_12_)" />
			<g
   id="g116">
				<path
   d="m 82.36493,209.36992 -1.15055,-0.13785 c -0.17662,-0.0212 -0.31583,-0.16042 -0.33692,-0.33705 l -0.13728,-1.14977 c -0.006,-0.0501 -0.04849,-0.0879 -0.09896,-0.0879 h -0.61766 c -0.05047,0 -0.09297,0.0377 -0.09896,0.0878 l -0.1376,1.15044 c -0.02113,0.17665 -0.16041,0.3159 -0.33707,0.33699 l -1.15005,0.1373 c -0.05012,0.006 -0.08785,0.0485 -0.08785,0.099 v 0.61769 c 0,0.0505 0.03772,0.093 0.08783,0.099 l 1.15018,0.13757 c 0.17663,0.0211 0.31586,0.16035 0.33699,0.33699 l 0.13757,1.15015 c 0.006,0.0501 0.04849,0.0878 0.09896,0.0878 h 0.6177 c 0.05045,0 0.09296,-0.0377 0.09895,-0.0878 l 0.13782,-1.1503 c 0.02116,-0.17659 0.16039,-0.3158 0.33698,-0.33691 l 1.14989,-0.13751 c 0.05011,-0.006 0.08784,-0.0485 0.08784,-0.099 v -0.61772 c 0,-0.0505 -0.03771,-0.093 -0.08781,-0.099 z"
   id="path114"
   inkscape:connector-curvature="0"
   style="fill:#8c8c8c" />
			</g>
		</g>
	</g>
</g>
<g
   id="serigraphy"
   transform="matrix(1.7787136,0,0,1.7787136,1.7787136e-4,-0.22160993)">
	<g
   id="g71">
		<g
   id="g63">
			<path
   id="path61"
   inkscape:connector-curvature="0"
   d="M 55.99612,87.364 H 39.44793 c -2.78246,0 -5.0381,-2.25563 -5.0381,-5.03809 V 34.45492 c 0,-2.78246 2.25563,-5.03809 5.0381,-5.03809 h 16.54819 c 2.78247,0 5.03809,2.25562 5.03809,5.03809 V 82.3259 c 10e-6,2.78247 -2.25561,5.0381 -5.03809,5.0381 z"
   style="fill:#252626" />
		</g>
		<g
   id="g69">
			<g
   id="g67">
				<path
   id="path65"
   inkscape:connector-curvature="0"
   d="m 54.12277,68.41374 c -0.17894,0.41264 -0.41631,0.75326 -0.7121,1.02149 -0.29615,0.26823 -0.63274,0.46738 -1.01121,0.59856 -0.37882,0.13081 -0.77419,0.19585 -1.18684,0.19585 -0.70182,0 -1.24858,-0.10288 -1.64064,-0.30939 -0.39206,-0.2065 -0.69851,-0.44717 -0.91825,-0.7224 -0.23442,-0.30277 -0.38213,-0.63972 -0.44386,-1.0112 -0.0621,-0.37149 -0.09297,-0.74298 -0.09297,-1.11446 0,-0.52324 0.01066,-0.88408 0.03086,-1.0836 0.02095,-0.19991 0.04447,-0.31306 0.07238,-0.34062 0.05476,-0.04152 0.28183,-0.06174 0.68087,-0.06174 h 4.82969 c 0.13743,0 0.25096,0.0103 0.34063,0.03088 0.08892,0.02058 0.158,0.07533 0.20613,0.16498 0.04813,0.08929 0.07901,0.2234 0.09296,0.40235 0.01359,0.17894 0.02095,0.42661 0.02095,0.74297 10e-6,0.57801 -0.09002,1.0737 -0.2686,1.48633 M 45.78546,48.33327 c 0.01838,-0.12971 0.07423,-0.23222 0.16756,-0.30682 0.09295,-0.07422 0.2414,-0.1209 0.44645,-0.13963 0.20466,-0.01838 0.4931,-0.02792 0.86533,-0.02792 1.45142,0 2.5633,0.40456 3.33567,1.21404 0.77201,0.80948 1.15856,1.89382 1.15856,3.25225 0,0.1286 -0.02682,0.40602 -0.04372,0.59636 -0.10693,-0.0015 -0.21386,-0.0029 -0.32077,-0.0051 -0.29285,-0.0062 -0.61106,-0.02242 -0.95461,-0.04777 -0.07644,0.03822 -0.1176,0.11134 -0.1242,0.21936 -0.0062,0.10839 0.02205,0.19437 0.08636,0.25795 l 0.3432,0.03821 c 0.22929,0.02535 0.41999,0.06687 0.57284,0.12383 0.15286,0.05733 0.22929,0.11794 0.22929,0.18152 0,0.06356 -0.03821,0.18152 -0.11464,0.35312 -0.07644,0.17196 -0.17822,0.37882 -0.30534,0.62025 -0.12751,0.24215 -0.26456,0.50009 -0.41044,0.77346 -0.14661,0.27375 -0.28367,0.53169 -0.4108,0.77311 -0.29284,0.56036 -0.59158,1.11042 -0.89729,1.65129 -0.30536,0.54124 -0.60445,1.06633 -0.89694,1.57524 -0.36965,-0.66177 -0.73232,-1.3555 -1.08837,-2.08084 -0.35643,-0.72571 -0.71284,-1.44443 -1.06927,-2.15764 -0.02573,-0.0507 -0.06981,-0.14588 -0.13339,-0.28624 -0.06393,-0.13963 -0.1308,-0.28917 -0.20062,-0.44865 -0.07018,-0.15911 -0.1308,-0.30829 -0.18151,-0.44865 -0.05107,-0.14 -0.07607,-0.23553 -0.07607,-0.28624 0,-0.07644 0.05034,-0.13669 0.15248,-0.18152 0.10178,-0.04446 0.31822,-0.09846 0.64928,-0.16204 l 0.24802,-0.03821 c 0.06356,-0.06356 0.09224,-0.15285 0.08599,-0.2675 -0.0066,-0.11428 -0.05439,-0.18446 -0.14294,-0.20981 -0.27117,0.02131 -0.60371,0.03674 -0.99798,0.04593 V 48.8639 c -1e-5,-0.22342 0.0092,-0.40016 0.02791,-0.53061 m 1.58072,14.29101 c 0,0.50927 -0.0066,0.91641 -0.01911,1.22175 -0.01286,0.30534 -0.0573,0.54418 -0.13374,0.71577 -0.02719,0.06174 -0.05953,0.11612 -0.09664,0.16353 -7.2e-4,3.6e-4 -0.0019,0.0011 -0.0026,0.0016 -0.22229,-0.04263 -0.4097,-0.09185 -0.56108,-0.14808 -0.25134,-0.09296 -0.43248,-0.26051 -0.54419,-0.50229 -0.11169,-0.24177 -0.18151,-0.5813 -0.20943,-1.01892 -0.02794,-0.4369 -0.0419,-1.01892 -0.0419,-1.74426 v -3.97466 l 0.99798,1.94452 c 0.13963,0.2675 0.25096,0.49347 0.334,0.67794 0.08267,0.18483 0.14293,0.35642 0.18115,0.51553 0.03821,0.15947 0.06356,0.32776 0.07642,0.50597 0.01249,0.17822 0.01911,0.40088 0.01911,0.66802 0,0 0,0.97372 -1e-5,0.97372 z m 7.87912,2.36082 c 0.08265,-0.22929 0.16497,-0.474 0.24803,-0.73489 0.08268,-0.26088 0.1591,-0.51552 0.22929,-0.76391 0.06981,-0.24803 0.12383,-0.4549 0.16241,-0.62061 -0.03859,-0.08855 -0.11171,-0.14588 -0.21973,-0.1716 -0.10839,-0.02537 -0.194,-0.01288 -0.25794,0.03819 -0.25464,0.49605 -0.49936,0.90355 -0.73489,1.22175 -0.23553,0.31857 -0.44239,0.52839 -0.62024,0.63017 -0.10215,0.05108 -0.21973,0.09517 -0.35349,0.13339 -0.13338,0.03819 -0.29285,0.06686 -0.47731,0.08597 -0.18445,0.01913 -0.40713,0.03527 -0.66801,0.04775 -0.26088,0.01289 -0.57615,0.01913 -0.94506,0.01913 -0.41999,0 -0.76686,-0.01249 -1.0406,-0.0382 C 50.29405,64.8069 50.07468,64.77494 49.90935,64.73709 49.74363,64.6985 49.6132,64.65405 49.51803,64.60335 49.42248,64.55266 49.349,64.49532 49.29829,64.43138 49.14544,64.26604 49.04695,64.02095 49.0025,63.69649 48.95768,63.37166 48.93563,62.95499 48.93563,62.44571 v -1.25999 c 0.0029,-0.17453 0.0081,-0.32886 0.01543,-0.46114 0.01249,-0.23516 0.0474,-0.4549 0.10472,-0.65845 0.05732,-0.20357 0.14623,-0.42036 0.2675,-0.64927 0.02867,-0.05474 0.06099,-0.11391 0.09517,-0.17601 0.04593,-0.0017 0.09369,-0.0023 0.14698,-0.0023 h 1.10748 c 0.36892,0 0.67133,0.0062 0.90685,0.01912 0.23516,0.01249 0.42292,0.03786 0.56329,0.07606 0.19071,0.05107 0.3274,0.14037 0.41043,0.2675 0.08268,0.12714 0.14294,0.27998 0.18152,0.4582 l 0.17159,0.74445 c 0.05071,0.06394 0.13669,0.09223 0.25758,0.08598 0.12088,-0.0062 0.20063,-0.04118 0.23884,-0.10509 0,-0.21643 -0.01286,-0.48981 -0.03821,-0.82087 -0.02573,-0.33107 -0.03822,-0.66837 -0.03822,-1.01194 0,-0.36892 0.01249,-0.72533 0.03822,-1.06889 0.02535,-0.34392 0.03821,-0.63018 0.03821,-0.85946 -0.03821,-0.0632 -0.11794,-0.09846 -0.23884,-0.10509 -0.12089,-0.0059 -0.20687,0.02245 -0.25758,0.08598 l -0.15249,0.78302 c -0.05106,0.24177 -0.1117,0.4042 -0.18151,0.48686 -0.07019,0.08268 -0.16241,0.14294 -0.27668,0.18115 -0.11465,0.0382 -0.31233,0.06687 -0.59195,0.08598 -0.28036,0.01912 -0.62393,0.02869 -1.03105,0.02869 h -0.86279 c 0.0066,-0.01064 0.01249,-0.02059 0.01911,-0.03162 l 1.20266,-2.08084 c 0.2414,-0.40749 0.46114,-0.78596 0.65882,-1.13614 0.19696,-0.3498 0.39132,-0.65882 0.58203,-0.92596 0.19108,-0.26713 0.38802,-0.48355 0.59196,-0.6489 0.04226,-0.03417 0.08562,-0.06504 0.13008,-0.09407 0.12933,0.05144 0.24324,0.11207 0.34135,0.18299 0.15911,0.11427 0.28917,0.24803 0.39132,0.40088 0.10178,0.15249 0.18445,0.32446 0.24838,0.51516 0.0632,0.19107 0.13339,0.40125 0.20982,0.63017 0.05071,0.06393 0.13374,0.08928 0.24838,0.07642 0.11427,-0.01249 0.19069,-0.05071 0.22892,-0.11464 -0.02573,-0.20357 -0.04778,-0.43578 -0.06651,-0.69667 -0.01947,-0.26088 -0.04189,-0.51552 -0.06724,-0.76355 -0.02535,-0.24839 -0.0588,-0.46996 -0.08561,-0.66838 -0.06651,-0.49091 -0.05145,-0.91015 -0.05145,-0.91015 0,-0.96711 -0.27447,-1.81261 -0.69336,-2.5203 -0.41854,-0.70695 -0.95391,-1.2651 -1.60501,-1.67443 -0.65147,-0.40934 -1.4143,-0.69778 -2.28881,-0.86533 -0.87489,-0.16755 -1.89822,-0.25133 -3.07037,-0.25133 -1.17252,0 -2.20099,0.01397 -3.08433,0.04189 -0.88408,0.02792 -1.69833,0.08854 -2.44278,0.18152 -0.11134,0.05585 -0.17197,0.16314 -0.18115,0.32077 -0.0096,0.15837 0.03197,0.28403 0.12567,0.377 l 1.00459,0.11171 c 0.31637,0.03748 0.56255,0.09774 0.74002,0.18152 0.17638,0.08341 0.30682,0.237 0.3906,0.46041 0.08378,0.2234 0.13486,0.52103 0.15359,0.89326 0.01837,0.37222 0.02792,0.85615 0.02792,1.4514 V 61.3132 c 0,0.72534 -0.0096,1.30737 -0.02792,1.74426 -0.01873,0.43763 -0.08377,0.77715 -0.19549,1.01892 -0.1117,0.24178 -0.27925,0.40933 -0.50229,0.5023 -0.22341,0.09333 -0.54015,0.16754 -0.94909,0.2234 l -0.58645,0.08379 c -0.08488,0.08487 -0.12273,0.20099 -0.11464,0.34724 -7.3e-4,0.29872 -0.004,0.39352 -0.01028,0.73011 -0.0066,0.38544 -0.02425,0.81609 -0.05254,1.29266 0.02829,0.07019 0.1084,0.11207 0.24177,0.1264 0.13301,0.01362 0.22781,-0.01434 0.28404,-0.08414 l 0.06282,-0.44167 c 0.04226,-0.3083 0.09812,-0.54639 0.16829,-0.71432 0.07018,-0.16829 0.19622,-0.29433 0.37846,-0.37847 0.18188,-0.08414 0.43764,-0.13375 0.76723,-0.14771 0.32923,-0.01361 0.76722,-0.02059 1.31398,-0.02059 h 2.64854 c 0.11207,0 0.1999,0.007 0.26309,0.02059 0.06283,0.01395 0.1084,0.05293 0.13633,0.11612 0.02792,0.06283 0.04556,0.16093 0.0529,0.29395 0.0066,0.13338 0.0103,0.31857 0.0103,0.55704 0,0.42072 -0.05254,0.73599 -0.15764,0.94617 -0.10508,0.21018 -0.27667,0.39243 -0.51516,0.54676 -0.23846,0.16829 -0.50119,0.3432 -0.78816,0.52545 -0.28771,0.18188 -0.57505,0.36412 -0.86203,0.54639 -0.28733,0.18225 -0.56403,0.35753 -0.83042,0.52581 -0.2664,0.16793 -0.49752,0.32224 -0.69374,0.46225 -0.5328,0.37847 -0.97079,0.73233 -1.31399,1.06192 -0.34319,0.32923 -0.61289,0.66213 -0.80912,0.99834 -0.19659,0.33622 -0.33291,0.69006 -0.41007,1.06156 -0.07679,0.37148 -0.11537,0.78118 -0.11537,1.22984 0,0.40638 0.0349,0.71504 0.10472,0.92485 0.04225,0.05625 0.0948,0.08083 0.15799,0.07388 0.06283,-0.0075 0.10841,-0.03893 0.13669,-0.0948 0.02756,-0.28036 0.09444,-0.54639 0.19953,-0.79846 0.10508,-0.25243 0.23443,-0.46996 0.38912,-0.65185 0.29432,-0.3645 0.62686,-0.7077 0.99835,-1.03031 0.37112,-0.32224 0.7812,-0.65147 1.22984,-0.98807 0.44828,-0.3362 0.95278,-0.68307 1.51351,-1.04023 0.56035,-0.35753 1.17728,-0.74665 1.85009,-1.16701 0.08413,-0.05619 0.17122,-0.10177 0.26271,-0.13668 0.09075,-0.03527 0.17159,-0.02464 0.24177,0.0316 0.09773,0.26604 0.24509,0.55007 0.44129,0.85137 0.19622,0.30131 0.438,0.58534 0.72534,0.85174 0.28735,0.26604 0.62356,0.4865 1.009,0.66213 0.38545,0.1749 0.83043,0.26273 1.33492,0.26273 0.74297,0 1.35257,-0.16499 1.82915,-0.49422 0.4762,-0.32923 0.84769,-0.74628 1.11408,-1.25078 0.26604,-0.49054 0.43801,-1.03362 0.51516,-1.62888 0.07679,-0.59599 0.11831,-1.22322 0.11538,-1.88205 -0.0052,-1.22063 0.21458,-1.99742 0.21458,-1.99742"
   style="fill:#e6e5e5" />
			</g>
		</g>
	</g>
	<g
   id="g85">
		<g
   id="g75">
			<path
   id="path73"
   inkscape:connector-curvature="0"
   d="m 2.81425,13.53283 c -0.12387,0 -0.24197,-0.05054 -0.33206,-0.14062 -0.04477,-0.039 -0.07856,-0.09558 -0.10108,-0.14612 -0.02252,-0.06153 -0.03378,-0.1181 -0.03378,-0.17963 0,-0.06207 0.01126,-0.12414 0.03378,-0.18017 0.02252,-0.05658 0.0563,-0.10712 0.10108,-0.15216 0.1744,-0.17414 0.48394,-0.17414 0.65836,0 0.04477,0.04504 0.07856,0.09558 0.10108,0.15216 0.02252,0.05603 0.03378,0.1181 0.03378,0.18017 0,0.06153 -0.01126,0.1181 -0.03378,0.17963 -0.02252,0.05054 -0.05631,0.10711 -0.10108,0.14612 -0.04505,0.04505 -0.09586,0.0791 -0.15188,0.10163 -0.05632,0.02251 -0.11263,0.03898 -0.17442,0.03899 z"
   style="fill:#252626" />
		</g>
		<g
   id="g79">
			<path
   id="path77"
   inkscape:connector-curvature="0"
   d="m 88.17359,13.06646 c 0,-0.25928 0.20819,-0.46692 0.46115,-0.46692 v 0 c 0.25873,0 0.46692,0.20764 0.46692,0.46692 v 0 c 0,0.25873 -0.20819,0.46636 -0.46692,0.46636 v 0 c -0.25296,0 -0.46115,-0.20763 -0.46115,-0.46636 z m -2.77322,0 c 0,-0.25928 0.20819,-0.46692 0.46692,-0.46692 v 0 c 0.25873,0 0.46692,0.20764 0.46692,0.46692 v 0 c 0,0.25873 -0.20819,0.46636 -0.46692,0.46636 v 0 c -0.25873,0 -0.46692,-0.20763 -0.46692,-0.46636 z m -2.76745,0 c 0,-0.25928 0.20819,-0.46692 0.46692,-0.46692 v 0 c 0.25873,0 0.46692,0.20764 0.46692,0.46692 v 0 c 0,0.25873 -0.20819,0.46636 -0.46692,0.46636 v 0 c -0.25873,0 -0.46692,-0.20763 -0.46692,-0.46636 z m -2.76746,0 c 0,-0.25928 0.20819,-0.46692 0.46692,-0.46692 v 0 c 0.25873,0 0.46692,0.20764 0.46692,0.46692 v 0 c 0,0.25873 -0.20819,0.46636 -0.46692,0.46636 v 0 c -0.25873,0 -0.46692,-0.20763 -0.46692,-0.46636 z m -2.76745,0 c 0,-0.25928 0.20792,-0.46692 0.46692,-0.46692 v 0 c 0.25296,0 0.46664,0.20764 0.46664,0.46692 v 0 c 0,0.25873 -0.21368,0.46636 -0.46664,0.46636 v 0 c -0.25901,0 -0.46692,-0.20763 -0.46692,-0.46636 z m -2.76747,0 c 0,-0.25928 0.20792,-0.46692 0.46664,-0.46692 v 0 c 0.25323,0 0.46142,0.20764 0.46142,0.46692 v 0 c 0,0.25873 -0.20819,0.46636 -0.46142,0.46636 v 0 c -0.25871,0 -0.46664,-0.20763 -0.46664,-0.46636 z m -2.77321,0 c 0,-0.25928 0.21368,-0.46692 0.46692,-0.46692 v 0 c 0.25873,0 0.46692,0.20764 0.46692,0.46692 v 0 c 0,0.25873 -0.20819,0.46636 -0.46692,0.46636 v 0 c -0.25324,0 -0.46692,-0.20763 -0.46692,-0.46636 z m -2.76746,0 c 0,-0.25928 0.20792,-0.46692 0.46692,-0.46692 v 0 c 0.25873,0 0.46664,0.20764 0.46664,0.46692 v 0 c 0,0.25873 -0.20792,0.46636 -0.46664,0.46636 v 0 c -0.259,0 -0.46692,-0.20763 -0.46692,-0.46636 z m -2.76745,0 c 0,-0.25928 0.20792,-0.46692 0.46664,-0.46692 v 0 c 0.25872,0 0.46691,0.20764 0.46691,0.46692 v 0 c 0,0.25873 -0.20819,0.46636 -0.46691,0.46636 v 0 c -0.25873,0 -0.46664,-0.20763 -0.46664,-0.46636 z m -2.76773,0 c 0,-0.25928 0.20819,-0.46692 0.46692,-0.46692 v 0 c 0.25323,0 0.46142,0.20764 0.46142,0.46692 v 0 c 0,0.25873 -0.20819,0.46636 -0.46142,0.46636 v 0 c -0.25873,0 -0.46692,-0.20763 -0.46692,-0.46636 z m -2.76746,0 c 0,-0.25928 0.20819,-0.46692 0.46692,-0.46692 v 0 c 0.25323,0 0.46115,0.20764 0.46115,0.46692 v 0 c 0,0.25873 -0.20792,0.46636 -0.46115,0.46636 v 0 c -0.25873,0 -0.46692,-0.20763 -0.46692,-0.46636 z m -2.76746,0 c 0,-0.25928 0.20819,-0.46692 0.46115,-0.46692 v 0 c 0.259,0 0.46692,0.20764 0.46692,0.46692 v 0 c 0,0.25873 -0.20792,0.46636 -0.46692,0.46636 v 0 c -0.25296,0 -0.46115,-0.20763 -0.46115,-0.46636 z m -2.77322,0 c 0,-0.25928 0.20819,-0.46692 0.46692,-0.46692 v 0 c 0.25873,0 0.46692,0.20764 0.46692,0.46692 v 0 c 0,0.25873 -0.20819,0.46636 -0.46692,0.46636 v 0 c -0.25873,0 -0.46692,-0.20763 -0.46692,-0.46636 z m -2.76746,0 c 0,-0.25928 0.20819,-0.46692 0.46692,-0.46692 v 0 c 0.25873,0 0.46692,0.20764 0.46692,0.46692 v 0 c 0,0.25873 -0.20819,0.46636 -0.46692,0.46636 v 0 c -0.25873,0 -0.46692,-0.20763 -0.46692,-0.46636 z m -2.76745,0 c 0,-0.25928 0.20819,-0.46692 0.46692,-0.46692 v 0 c 0.25873,0 0.46692,0.20764 0.46692,0.46692 v 0 c 0,0.25873 -0.20819,0.46636 -0.46692,0.46636 v 0 c -0.25873,0 -0.46692,-0.20763 -0.46692,-0.46636 z m -2.76746,0 c 0,-0.25928 0.20819,-0.46692 0.46692,-0.46692 v 0 c 0.25296,0 0.46115,0.20764 0.46115,0.46692 v 0 c 0,0.25873 -0.20819,0.46636 -0.46115,0.46636 v 0 c -0.25873,0 -0.46692,-0.20763 -0.46692,-0.46636 z m -2.76746,0 c 0,-0.25928 0.20819,-0.46692 0.46115,-0.46692 v 0 c 0.25873,0 0.46692,0.20764 0.46692,0.46692 v 0 c 0,0.25873 -0.20819,0.46636 -0.46692,0.46636 v 0 c -0.25295,0 -0.46115,-0.20763 -0.46115,-0.46636 z m -2.77322,0 c 0,-0.25928 0.20819,-0.46692 0.46692,-0.46692 v 0 c 0.25873,0 0.46692,0.20764 0.46692,0.46692 v 0 c 0,0.25873 -0.20819,0.46636 -0.46692,0.46636 v 0 c -0.25874,0 -0.46692,-0.20763 -0.46692,-0.46636 z m -2.76746,0 c 0,-0.25928 0.20819,-0.46692 0.46692,-0.46692 v 0 c 0.25873,0 0.46692,0.20764 0.46692,0.46692 v 0 c 0,0.25873 -0.20819,0.46636 -0.46692,0.46636 v 0 c -0.25873,0 -0.46692,-0.20763 -0.46692,-0.46636 z m -2.76746,0 c 0,-0.25928 0.20819,-0.46692 0.46692,-0.46692 v 0 c 0.25873,0 0.46692,0.20764 0.46692,0.46692 v 0 c 0,0.25873 -0.20819,0.46636 -0.46692,0.46636 v 0 c -0.25873,0 -0.46692,-0.20763 -0.46692,-0.46636 z m -2.76746,0 c 0,-0.25928 0.20792,-0.46692 0.46692,-0.46692 v 0 c 0.25296,0 0.46664,0.20764 0.46664,0.46692 v 0 c 0,0.25873 -0.21368,0.46636 -0.46664,0.46636 v 0 c -0.259,0 -0.46692,-0.20763 -0.46692,-0.46636 z m -2.76746,0 c 0,-0.25928 0.20792,-0.46692 0.46664,-0.46692 v 0 c 0.25324,0 0.46142,0.20764 0.46142,0.46692 v 0 c 0,0.25873 -0.20819,0.46636 -0.46142,0.46636 v 0 c -0.25872,0 -0.46664,-0.20763 -0.46664,-0.46636 z m -2.77322,0 c 0,-0.25928 0.21368,-0.46692 0.46692,-0.46692 v 0 c 0.25873,0 0.46692,0.20764 0.46692,0.46692 v 0 c 0,0.25873 -0.20819,0.46636 -0.46692,0.46636 v 0 c -0.25324,0 -0.46692,-0.20763 -0.46692,-0.46636 z m -2.76746,0 c 0,-0.25928 0.20792,-0.46692 0.46692,-0.46692 v 0 c 0.25873,0 0.46664,0.20764 0.46664,0.46692 v 0 c 0,0.25873 -0.20792,0.46636 -0.46664,0.46636 v 0 c -0.25899,0 -0.46692,-0.20763 -0.46692,-0.46636 z m -2.76745,0 c 0,-0.25928 0.20792,-0.46692 0.46664,-0.46692 v 0 c 0.25873,0 0.46692,0.20764 0.46692,0.46692 v 0 c 0,0.25873 -0.20819,0.46636 -0.46692,0.46636 v 0 c -0.25873,0 -0.46664,-0.20763 -0.46664,-0.46636 z m -2.76773,0 c 0,-0.25928 0.20819,-0.46692 0.46692,-0.46692 v 0 c 0.25873,0 0.46142,0.20764 0.46142,0.46692 v 0 c 0,0.25873 -0.2027,0.46636 -0.46142,0.46636 v 0 c -0.25873,0 -0.46692,-0.20763 -0.46692,-0.46636 z m -2.76746,0 c 0,-0.25928 0.20819,-0.46692 0.46692,-0.46692 v 0 c 0.25324,0 0.46115,0.20764 0.46115,0.46692 v 0 c 0,0.25873 -0.20791,0.46636 -0.46115,0.46636 v 0 c -0.25873,0 -0.46692,-0.20763 -0.46692,-0.46636 z m -2.76746,0 c 0,-0.25928 0.20819,-0.46692 0.46115,-0.46692 v 0 c 0.25901,0 0.46692,0.20764 0.46692,0.46692 v 0 c 0,0.25873 -0.20792,0.46636 -0.46692,0.46636 v 0 c -0.25295,0 -0.46115,-0.20763 -0.46115,-0.46636 z m -2.77322,0 c 0,-0.25928 0.20819,-0.46692 0.46692,-0.46692 v 0 c 0.25873,0 0.46692,0.20764 0.46692,0.46692 v 0 c 0,0.25873 -0.20819,0.46636 -0.46692,0.46636 v 0 c -0.25872,0 -0.46692,-0.20763 -0.46692,-0.46636 z m -2.76745,0 c 0,-0.25928 0.20819,-0.46692 0.46692,-0.46692 v 0 c 0.25873,0 0.46692,0.20764 0.46692,0.46692 v 0 c 0,0.25873 -0.20819,0.46636 -0.46692,0.46636 v 0 c -0.25873,0 -0.46692,-0.20763 -0.46692,-0.46636 z m -2.76746,0 c 0,-0.25928 0.20819,-0.46692 0.46692,-0.46692 v 0 c 0.25873,0 0.46692,0.20764 0.46692,0.46692 v 0 c 0,0.25873 -0.20819,0.46636 -0.46692,0.46636 v 0 c -0.25873,0 -0.46692,-0.20763 -0.46692,-0.46636 z"
   style="fill:#252626" />
		</g>
		<g
   id="g83">
			<path
   id="path81"
   inkscape:connector-curvature="0"
   d="m 91.40797,13.53283 c -0.0618,0 -0.12387,-0.01649 -0.18017,-0.03901 -0.05602,-0.02252 -0.10685,-0.05658 -0.15188,-0.10162 -0.04478,-0.039 -0.07855,-0.09558 -0.10108,-0.14612 -0.0225,-0.06153 -0.03382,-0.1181 -0.03382,-0.17963 0,-0.06207 0.01125,-0.12414 0.03382,-0.18017 0.0225,-0.05658 0.05633,-0.10711 0.10108,-0.15216 0.1744,-0.17413 0.48944,-0.17413 0.65836,0 0.04477,0.04505 0.07855,0.09558 0.10107,0.15216 0.0225,0.05603 0.03383,0.1181 0.03383,0.18017 0,0.06153 -0.01125,0.1181 -0.03383,0.17963 -0.0225,0.05054 -0.05633,0.10712 -0.10107,0.14612 -0.08461,0.09009 -0.20271,0.14063 -0.32631,0.14063 z"
   style="fill:#252626" />
		</g>
	</g>
	<g
   id="g123">
		<g
   id="g138">
			<path
   id="path136"
   inkscape:connector-curvature="0"
   d="m 4.97151,106.99474 c 0,-2.01089 1.63794,-3.64883 3.64883,-3.64883 0.98074,0 1.90273,0.38246 2.58938,1.07893 l 0.32369,0.33352 -1.21622,1.05929 -0.28441,-0.2746 c -0.38261,-0.37279 -0.88287,-0.57866 -1.41244,-0.57866 -1.1182,0 -2.03036,0.91218 -2.03036,2.03036 0,1.12786 0.91216,2.04018 2.03036,2.04018 0.53938,0 1.02983,-0.20602 1.41244,-0.5788 v -0.86308 H 8.22793 v -1.61845 h 3.42317 v 3.06034 l -0.07839,0.11767 c -0.7063,0.94162 -1.81468,1.50066 -2.95235,1.50066 -2.0109,-4e-5 -3.64885,-1.638 -3.64885,-3.65853 z"
   style="fill:#252626" />
		</g>
		<g
   id="g93">
			<path
   id="path91"
   inkscape:connector-curvature="0"
   d="m 16.16189,103.5616 h 4.75721 v 1.66756 h -3.05054 v 0.5983 h 2.66809 v 1.69685 h -2.66809 v 1.33405 h 2.98197 v 1.68704 H 16.1619 c -10e-6,-1e-5 -10e-6,-6.9838 -10e-6,-6.9838 z"
   style="fill:#252626" />
		</g>
		<g
   id="g97">
			<path
   id="path95"
   inkscape:connector-curvature="0"
   d="m 31.86464,107.01423 c 0,1.99123 -1.64792,3.61938 -3.63902,3.61938 -2.00091,0 -3.62919,-1.62814 -3.62919,-3.61938 0,-2.01074 1.62829,-3.63887 3.62919,-3.63887 1.9911,0 3.63902,1.62813 3.63902,3.63887 z m -1.71664,0 c 0,-1.06911 -0.85326,-1.96165 -1.92237,-1.96165 -1.0691,0 -1.93234,0.89254 -1.93234,1.96165 0,1.05943 0.86323,1.93233 1.93234,1.93233 1.06911,0 1.92237,-0.8729 1.92237,-1.93233 z"
   style="fill:#252626" />
		</g>
		<g
   id="g101">
			<path
   id="path99"
   inkscape:connector-curvature="0"
   d="m 35.87517,103.5616 h 2.42279 c 1.97145,0 3.57029,1.56937 3.57029,3.49189 0,1.92252 -1.59883,3.49191 -3.57029,3.49191 h -2.42279 z m 4.30604,3.49189 c 0,-0.99055 -0.8436,-1.81451 -1.88325,-1.81451 H 37.5622 v 3.6292 h 0.73576 c 1.03964,-10e-6 1.88325,-0.82398 1.88325,-1.81469 z"
   style="fill:#252626" />
		</g>
		<g
   id="g105">
			<path
   id="path103"
   inkscape:connector-curvature="0"
   d="m 45.94751,103.5616 h 4.75721 v 1.66756 h -3.05038 v 0.5983 h 2.66777 v 1.69685 h -2.66777 v 1.33405 H 50.636 v 1.68704 h -4.68848 c -10e-6,-1e-5 -10e-6,-6.9838 -10e-6,-6.9838 z"
   style="fill:#252626" />
		</g>
		<g
   id="g109">
			<path
   id="path107"
   inkscape:connector-curvature="0"
   d="m 56.84396,110.52576 c -0.70614,-0.14713 -1.35353,-0.47083 -2.1873,-1.18678 l 1.1182,-1.28496 c 0.61794,0.53938 0.9809,0.74541 1.41243,0.82397 0.12749,0.0293 0.25497,0.049 0.37278,0.049 0.19605,0 0.37263,-0.0391 0.50993,-0.10785 0.11782,-0.0589 0.32369,-0.18639 0.32369,-0.45117 0,-0.2746 -0.51008,-0.44137 -0.95145,-0.52972 -0.19605,-0.0391 -1.15731,-0.24515 -1.54973,-0.48063 -0.66702,-0.39227 -1.01019,-0.99057 -1.01019,-1.73613 0,-0.4119 0.1373,-0.80434 0.36281,-1.13768 0.22568,-0.31387 0.53954,-0.55918 0.90251,-0.72593 l -0.0098,0.01 c 0.37263,-0.17657 0.79451,-0.26478 1.19659,-0.26478 0.16676,0 0.32368,0.01 0.51991,0.0392 0.62775,0.10783 1.20641,0.3628 2.01073,1.02982 l -1.07893,1.29478 c -0.72593,-0.5983 -1.09856,-0.68666 -1.47134,-0.68666 -0.18639,0 -0.33351,0.0392 -0.45118,0.0982 -0.18639,0.0784 -0.28441,0.2157 -0.28441,0.34317 0,0.26495 0.35315,0.39242 0.92198,0.51009 0.05891,0.0196 0.12749,0.0196 0.19621,0.0392 0.38245,0.0882 0.95145,0.20603 1.32407,0.42171 h -0.0099 c 0.7063,0.39242 1.07892,1.01035 1.07892,1.77541 0,0.45117 -0.11766,0.87289 -0.37263,1.22605 -0.22566,0.32368 -0.55917,0.55901 -0.93181,0.7454 -0.39241,0.20604 -0.7945,0.26494 -1.23586,0.26494 -0.23547,2e-5 -0.49043,-0.0294 -0.70628,-0.0785 z"
   style="fill:#252626" />
		</g>
		<g
   id="g113">
			<path
   id="path111"
   inkscape:connector-curvature="0"
   d="m 64.41512,103.5616 h 1.70683 v 6.9838 h -1.70683 z"
   style="fill:#252626" />
		</g>
		<g
   id="g117">
			<path
   id="path115"
   inkscape:connector-curvature="0"
   d="m 75.82198,107.97549 1.3437,0.99072 c -0.87289,1.16728 -1.90289,1.67722 -3.04056,1.67722 -2.00108,0 -3.63902,-1.63796 -3.63902,-3.63887 0,-2.00107 1.63794,-3.6292 3.63902,-3.6292 1.15731,0 2.20693,0.5394 3.07984,1.70668 l -1.36334,1.00037 c -0.54936,-0.73559 -1.10838,-1.02983 -1.71649,-1.02983 -1.08875,0 -1.95198,0.8729 -1.95198,1.95197 0,1.08875 0.86324,1.95183 1.95198,1.95183 0.60809,1e-5 1.14748,-0.25496 1.69685,-0.98089 h 2e-5 z"
   style="fill:#252626" />
		</g>
		<g
   id="g121">
			<path
   id="path119"
   inkscape:connector-curvature="0"
   d="m 82.9418,110.52576 c -0.70615,-0.14713 -1.35353,-0.47083 -2.1873,-1.18678 l 1.11819,-1.28496 c 0.61794,0.53938 0.9809,0.74541 1.41244,0.82397 0.12749,0.0293 0.25497,0.049 0.3728,0.049 0.19606,0 0.37262,-0.0391 0.50993,-0.10785 0.11783,-0.0589 0.32369,-0.18639 0.32369,-0.45117 0,-0.2746 -0.51009,-0.44137 -0.95145,-0.52972 -0.19606,-0.0391 -1.15731,-0.24515 -1.54974,-0.48063 -0.66704,-0.39227 -1.01019,-0.99057 -1.01019,-1.73613 0,-0.4119 0.1373,-0.80434 0.36281,-1.13768 0.22567,-0.31387 0.53954,-0.55918 0.90251,-0.72593 l -0.0098,0.01 c 0.37263,-0.17657 0.79451,-0.26478 1.19659,-0.26478 0.16676,0 0.32369,0.01 0.51991,0.0392 0.62775,0.10783 1.20641,0.3628 2.01073,1.02982 l -1.07893,1.29478 c -0.72592,-0.5983 -1.09855,-0.68666 -1.47134,-0.68666 -0.18639,0 -0.3335,0.0392 -0.45117,0.0982 -0.18639,0.0784 -0.28442,0.2157 -0.28442,0.34317 0,0.26495 0.35315,0.39242 0.92198,0.51009 0.05894,0.0196 0.12749,0.0196 0.19622,0.0392 0.38245,0.0882 0.95145,0.20603 1.32407,0.42171 h -0.0098 c 0.70629,0.39242 1.07893,1.01035 1.07893,1.77541 0,0.45117 -0.11766,0.87289 -0.37263,1.22605 -0.22566,0.32368 -0.55917,0.55901 -0.9318,0.7454 -0.39242,0.20604 -0.7945,0.26494 -1.23585,0.26494 -0.23548,2e-5 -0.49045,-0.0294 -0.7063,-0.0785 z"
   style="fill:#252626" />
		</g>
	</g>
	<g
   id="g209">
		<g
   id="g127">
			<path
   id="path125"
   inkscape:connector-curvature="0"
   d="m 30.14521,162.87875 c -0.06922,1.2464 -0.64271,1.94238 -1.62158,1.94238 -1.11622,0 -1.74353,-0.86407 -1.74353,-2.82184 0,-1.95777 0.62731,-2.82184 1.74353,-2.82184 1.10907,0 1.56775,0.78772 1.56775,1.68256 h -0.48944 c 0,-0.74213 -0.37464,-1.26947 -1.07831,-1.26947 -0.78003,0 -1.25409,0.64215 -1.25409,2.40875 0,1.7666 0.47406,2.40875 1.25409,2.40875 0.68829,0 1.07831,-0.58887 1.13214,-1.5293 h 0.48944 z"
   style="fill:#252626" />
		</g>
		<g
   id="g131">
			<path
   id="path129"
   inkscape:connector-curvature="0"
   d="m 31.99695,160.57657 c 0.89484,0 1.39966,0.71136 1.39966,2.11871 0,1.41449 -0.50483,2.12585 -1.39966,2.12585 -0.89483,0 -1.3991,-0.71136 -1.3991,-2.12585 -2e-5,-1.40735 0.50427,-2.11871 1.3991,-2.11871 z m 0,3.86224 c 0.51251,0 0.91021,-0.44385 0.91021,-1.74353 0,-1.29254 -0.3977,-1.73584 -0.91021,-1.73584 -0.51197,0 -0.90967,0.4433 -0.90967,1.73584 0,1.2997 0.39771,1.74353 0.90967,1.74353 z"
   style="fill:#252626" />
		</g>
		<g
   id="g135">
			<path
   id="path133"
   inkscape:connector-curvature="0"
   d="m 36.2124,164.05649 h -0.01538 c -0.1225,0.46637 -0.51251,0.76465 -0.99426,0.76465 -0.89484,0 -1.30023,-0.71906 -1.30023,-2.12585 0,-1.39966 0.40539,-2.11871 1.30023,-2.11871 0.50483,0 0.84869,0.27576 0.94812,0.70367 h 0.01538 v -2.01105 h 0.45868 v 5.46021 H 36.2124 Z m -0.93329,0.38232 c 0.46637,0 0.88715,-0.2373 0.88715,-1.74353 0,-1.49908 -0.42078,-1.73584 -0.88715,-1.73584 -0.45868,0 -0.88715,0.23676 -0.88715,1.73584 1e-5,1.50624 0.42847,1.74353 0.88715,1.74353 z"
   style="fill:#252626" />
		</g>
		<g
   id="g139">
			<path
   id="path137"
   inkscape:connector-curvature="0"
   d="m 39.96863,163.38358 c -0.06866,0.86407 -0.54328,1.43756 -1.30793,1.43756 -0.85639,0 -1.36121,-0.59656 -1.36121,-2.12585 0,-1.40735 0.50483,-2.11871 1.39966,-2.11871 0.90253,0 1.30793,0.61963 1.30793,1.97314 v 0.16864 h -2.21814 v 0.19116 c 0,1.17004 0.41309,1.5293 0.86407,1.5293 0.48175,0 0.78003,-0.34442 0.85693,-1.05524 z m -0.45099,-1.0481 c -0.01538,-1.00909 -0.29828,-1.37604 -0.86462,-1.37604 -0.56579,0 -0.84869,0.36694 -0.86407,1.37604 z"
   style="fill:#252626" />
		</g>
		<g
   id="g143">
			<path
   id="path141"
   inkscape:connector-curvature="0"
   d="m 45.27008,164.06418 c -0.30598,0.45868 -0.78003,0.75696 -1.45295,0.75696 -0.94098,0 -1.52984,-0.64215 -1.52984,-1.44525 0,-0.57349 0.29059,-1.02502 0.78772,-1.40735 l 0.45154,-0.34387 c -0.39001,-0.51251 -0.62731,-0.91791 -0.62731,-1.34637 0,-0.65753 0.51251,-1.00909 1.11676,-1.00909 0.63446,0 1.04754,0.4054 1.04754,1.00909 0,0.44385 -0.18347,0.85693 -0.9635,1.40735 l 1.17773,1.65179 c 0.13733,-0.33618 0.19116,-0.69598 0.19886,-1.03217 h 0.45868 c 0,0.47406 -0.13788,0.97888 -0.38232,1.41449 l 0.71906,1.00964 h -0.5202 z m -1.51446,-2.13355 c -0.77234,0.53503 -0.97888,0.9635 -0.97888,1.39142 0,0.65039 0.50483,1.086 1.10907,1.086 0.4433,0 0.93274,-0.26752 1.14697,-0.68829 z m 0.1148,-0.55865 c 0.60424,-0.45868 0.73443,-0.81024 0.73443,-1.10852 0,-0.35211 -0.26807,-0.61194 -0.61963,-0.61194 -0.35925,0 -0.62732,0.25983 -0.62732,0.61194 10e-6,0.29059 0.20655,0.69598 0.51252,1.10852 z"
   style="fill:#252626" />
		</g>
		<g
   id="g147">
			<path
   id="path145"
   inkscape:connector-curvature="0"
   d="m 48.5072,160.6683 h 0.45922 v 0.63501 h 0.01538 c 0.17579,-0.45099 0.55042,-0.72675 1.02448,-0.72675 0.05383,0 0.10712,0.008 0.16095,0.023 v 0.45868 c -0.0769,-0.0148 -0.15326,-0.0225 -0.22192,-0.0225 -0.50483,0 -0.97889,0.36694 -0.97889,1.15466 v 2.53894 H 48.5072 c 1e-5,-2e-5 1e-5,-4.0611 0,-4.0611 z"
   style="fill:#252626" />
		</g>
		<g
   id="g151">
			<path
   id="path149"
   inkscape:connector-curvature="0"
   d="m 53.13519,163.38358 c -0.06866,0.86407 -0.54328,1.43756 -1.30792,1.43756 -0.85639,0 -1.36121,-0.59656 -1.36121,-2.12585 0,-1.40735 0.50483,-2.11871 1.39966,-2.11871 0.90253,0 1.30792,0.61963 1.30792,1.97314 v 0.16864 H 50.9555 v 0.19116 c 0,1.17004 0.41309,1.5293 0.86407,1.5293 0.48175,0 0.78003,-0.34442 0.85693,-1.05524 z m -0.45099,-1.0481 c -0.01538,-1.00909 -0.29829,-1.37604 -0.86461,-1.37604 -0.56579,0 -0.84869,0.36694 -0.86407,1.37604 z"
   style="fill:#252626" />
		</g>
		<g
   id="g155">
			<path
   id="path153"
   inkscape:connector-curvature="0"
   d="m 53.92401,159.2692 h 0.45868 v 5.46021 h -0.45868 z"
   style="fill:#252626" />
		</g>
		<g
   id="g159">
			<path
   id="path157"
   inkscape:connector-curvature="0"
   d="m 57.80164,163.38358 c -0.06866,0.86407 -0.54328,1.43756 -1.30792,1.43756 -0.85638,0 -1.36119,-0.59656 -1.36119,-2.12585 0,-1.40735 0.50483,-2.11871 1.39965,-2.11871 0.90253,0 1.30792,0.61963 1.30792,1.97314 v 0.16864 h -2.21814 v 0.19116 c 0,1.17004 0.41309,1.5293 0.86407,1.5293 0.48175,0 0.78003,-0.34442 0.85693,-1.05524 z m -0.45099,-1.0481 c -0.01535,-1.00909 -0.29828,-1.37604 -0.86462,-1.37604 -0.56579,0 -0.84869,0.36694 -0.86407,1.37604 z"
   style="fill:#252626" />
		</g>
		<g
   id="g163">
			<path
   id="path161"
   inkscape:connector-curvature="0"
   d="m 58.47564,161.8768 c 0,-0.83331 0.39771,-1.30023 1.25464,-1.30023 0.841,0 1.14697,0.43616 1.14697,1.07831 v 2.40161 c 0,0.22961 0.07635,0.33618 0.23675,0.33618 h 0.13019 v 0.33673 c -0.08405,0.0308 -0.15271,0.0461 -0.21423,0.0461 -0.35925,0 -0.58887,-0.0846 -0.58887,-0.50482 v -0.13788 h -0.01536 c -0.18347,0.53558 -0.59656,0.68829 -1.04754,0.68829 -0.71136,0 -1.03217,-0.4433 -1.03217,-1.14697 0,-0.53558 0.24445,-0.9635 0.81794,-1.12445 l 0.86407,-0.24445 c 0.32135,-0.0917 0.39001,-0.16864 0.39001,-0.6427 0,-0.51965 -0.29059,-0.70312 -0.70312,-0.70312 -0.54328,0 -0.78003,0.32849 -0.78003,0.91736 z m 1.94239,0.55811 h -0.01485 c -0.04612,0.13788 -0.30597,0.22192 -0.48944,0.26807 l -0.38233,0.0994 c -0.45922,0.12195 -0.69598,0.35925 -0.69598,0.841 0,0.47406 0.24445,0.79541 0.64215,0.79541 0.55811,0 0.94043,-0.42078 0.94043,-1.14697 v -0.85693 h 2e-5 z"
   style="fill:#252626" />
		</g>
		<g
   id="g167">
			<path
   id="path165"
   inkscape:connector-curvature="0"
   d="m 62.46148,162.71066 c -0.57349,-0.22192 -0.78003,-0.55865 -0.78003,-0.96405 0,-0.83331 0.5202,-1.17004 1.2085,-1.17004 0.76465,0 1.11621,0.39001 1.11621,1.13214 v 0.11481 h -0.45868 v -0.11481 c 0,-0.52789 -0.245,-0.74927 -0.66522,-0.74927 -0.53558,0 -0.74213,0.2829 -0.74213,0.68774 0,0.28345 0.09174,0.50482 0.55096,0.68115 l 0.66522,0.25214 c 0.55042,0.20654 0.75696,0.58887 0.75696,1.03217 0,0.69598 -0.39771,1.2085 -1.25409,1.2085 -0.83386,0 -1.24641,-0.34387 -1.24641,-1.26178 v -0.13019 h 0.45868 v 0.10712 c 0,0.59656 0.25982,0.90253 0.78003,0.90253 0.48944,0 0.8031,-0.27521 0.8031,-0.72675 0,-0.35925 -0.14557,-0.58887 -0.55096,-0.74927 z"
   style="fill:#252626" />
		</g>
		<g
   id="g171">
			<path
   id="path169"
   inkscape:connector-curvature="0"
   d="m 67.29601,163.38358 c -0.06866,0.86407 -0.54328,1.43756 -1.30792,1.43756 -0.85639,0 -1.36121,-0.59656 -1.36121,-2.12585 0,-1.40735 0.50483,-2.11871 1.39966,-2.11871 0.90252,0 1.30792,0.61963 1.30792,1.97314 v 0.16864 h -2.21814 v 0.19116 c 0,1.17004 0.41309,1.5293 0.86407,1.5293 0.48176,0 0.78003,-0.34442 0.85693,-1.05524 z m -0.45098,-1.0481 c -0.01536,-1.00909 -0.29829,-1.37604 -0.86462,-1.37604 -0.5658,0 -0.84869,0.36694 -0.86407,1.37604 z"
   style="fill:#252626" />
		</g>
		<g
   id="g175">
			<path
   id="path173"
   inkscape:connector-curvature="0"
   d="m 31.8025,168.44992 h 1.3612 l 0.96405,4.04517 h 0.01484 l 0.94867,-4.04517 h 1.33044 v 5.46021 h -0.82562 v -4.54285 H 35.5807 l -1.10138,4.54285 h -0.73389 l -1.10138,-4.54285 h -0.01537 v 4.54285 H 31.8025 c -10e-6,0 -10e-6,-5.46021 0,-5.46021 z"
   style="fill:#252626" />
		</g>
		<g
   id="g179">
			<path
   id="path177"
   inkscape:connector-curvature="0"
   d="m 39.97193,173.05374 c 0,0.15271 0.09174,0.29059 0.21423,0.29059 0.05384,0 0.10712,-0.008 0.13788,-0.023 v 0.53558 c -0.09943,0.0456 -0.245,0.0994 -0.4054,0.0994 -0.36694,0 -0.67291,-0.14557 -0.69598,-0.54327 h -0.01538 c -0.22192,0.4054 -0.54272,0.60425 -1.02448,0.60425 -0.65808,0 -1.07062,-0.36694 -1.07062,-1.15466 0,-0.91791 0.39771,-1.10907 0.95581,-1.29254 l 0.64215,-0.17578 c 0.29828,-0.084 0.48175,-0.16864 0.48175,-0.52789 0,-0.37463 -0.12964,-0.61194 -0.56579,-0.61194 -0.55042,0 -0.62677,0.39001 -0.62677,0.78772 h -0.78059 c 0,-0.87177 0.3598,-1.35352 1.4458,-1.35352 0.7262,0 1.30737,0.2829 1.30737,1.00964 v 2.35547 2e-5 z m -0.78003,-1.31561 c -0.21368,0.16809 -0.67292,0.26752 -0.91735,0.38232 -0.23731,0.11481 -0.33673,0.3598 -0.33673,0.66522 0,0.34442 0.16809,0.61963 0.51251,0.61963 0.49713,0 0.74158,-0.37463 0.74158,-0.97888 0,0 0,-0.68829 -1e-5,-0.68829 z"
   style="fill:#252626" />
		</g>
		<g
   id="g183">
			<path
   id="path181"
   inkscape:connector-curvature="0"
   d="m 40.81513,169.79575 h 0.82617 v 0.64215 h 0.01484 c 0.18347,-0.45868 0.48944,-0.74927 0.95636,-0.74927 0.09174,0 0.14502,0.0154 0.19886,0.0308 v 0.841 c -0.06153,-0.0154 -0.20654,-0.0456 -0.34442,-0.0456 -0.37464,0 -0.82562,0.16809 -0.82562,0.93274 v 2.46259 h -0.82618 v -4.11438 h -10e-6 v 0 z"
   style="fill:#252626" />
		</g>
		<g
   id="g187">
			<path
   id="path185"
   inkscape:connector-curvature="0"
   d="m 45.86334,172.41104 c -0.05384,0.98657 -0.39001,1.6062 -1.40734,1.6062 -1.19311,0 -1.5293,-0.88715 -1.5293,-2.16431 0,-1.27716 0.33618,-2.16431 1.5293,-2.16431 1.23102,-0.0154 1.41504,0.9635 1.41504,1.47601 h -0.82617 c 0,-0.38232 -0.10711,-0.87946 -0.58887,-0.86407 -0.59656,0 -0.70367,0.64215 -0.70367,1.55237 0,0.91022 0.10712,1.55237 0.70367,1.55237 0.45868,0.008 0.62731,-0.37463 0.62731,-0.99426 z"
   style="fill:#252626" />
		</g>
		<g
   id="g191">
			<path
   id="path189"
   inkscape:connector-curvature="0"
   d="m 48.37317,168.44992 h 1.7666 c 0.81078,0 1.46832,0.35925 1.46832,1.32275 0,0.66522 -0.25982,1.07062 -0.80255,1.23926 v 0.0149 c 0.59601,0.10712 0.97889,0.46692 0.97889,1.39197 0,0.91022 -0.65808,1.49139 -1.68256,1.49139 h -1.7287 z m 1.56005,2.30162 c 0.52789,0 0.80309,-0.35156 0.80309,-0.86407 0,-0.64984 -0.39001,-0.78003 -0.87946,-0.78003 h -0.61194 v 1.6441 z m 0.17633,2.50104 c 0.51965,0 0.80255,-0.33673 0.80255,-0.9635 0,-0.58887 -0.35156,-0.9256 -0.85639,-0.9256 h -0.81079 v 1.8891 z"
   style="fill:#252626" />
		</g>
		<g
   id="g195">
			<path
   id="path193"
   inkscape:connector-curvature="0"
   d="m 53.79712,169.68863 c 1.20081,0 1.53699,0.88715 1.53699,2.16431 0,1.27716 -0.39001,2.16431 -1.53699,2.16431 -1.13928,0 -1.5293,-0.88715 -1.5293,-2.16431 0,-1.27716 0.33618,-2.16431 1.5293,-2.16431 z m 0,3.71667 c 0.60424,0 0.71136,-0.50482 0.71136,-1.55237 0,-0.91022 -0.10712,-1.55237 -0.71136,-1.55237 -0.59656,0 -0.70367,0.64215 -0.70367,1.55237 -10e-6,1.04755 0.10711,1.55237 0.70367,1.55237 z"
   style="fill:#252626" />
		</g>
		<g
   id="g199">
			<path
   id="path197"
   inkscape:connector-curvature="0"
   d="m 58.07299,173.42838 h -0.0225 c -0.20654,0.36694 -0.59656,0.58887 -1.05578,0.58887 -0.61138,0 -1.02448,-0.2829 -1.02448,-1.34583 v -2.87567 h 0.82562 v 2.95203 c 0,0.45868 0.20654,0.61194 0.55865,0.61194 0.35156,0 0.67291,-0.22961 0.67291,-0.68829 v -2.87567 h 0.82563 v 4.11438 H 58.073 c 0,0 0,-0.48175 0,-0.48175 h -1e-5 z"
   style="fill:#252626" />
		</g>
		<g
   id="g203">
			<path
   id="path201"
   inkscape:connector-curvature="0"
   d="m 59.68853,168.44992 h 0.82562 v 5.46021 h -0.82562 z"
   style="fill:#252626" />
		</g>
		<g
   id="g207">
			<path
   id="path205"
   inkscape:connector-curvature="0"
   d="m 62.05993,171.96005 v 0.2373 c 0,0.55042 0.06866,1.25409 0.68829,1.25409 0.58887,0 0.65753,-0.67291 0.65753,-0.91791 h 0.78003 c 0,0.91022 -0.55042,1.4837 -1.44525,1.4837 -0.67291,0 -1.50677,-0.19885 -1.50677,-2.10333 0,-1.07831 0.22961,-2.22528 1.52215,-2.22528 1.14697,0 1.45295,0.68829 1.45295,1.83527 v 0.43616 c -1e-5,0 -2.14894,0 -2.14893,0 z m 1.32276,-0.56579 v -0.22192 c 0,-0.5202 -0.16809,-0.91791 -0.63446,-0.91791 -0.52789,0 -0.68829,0.5202 -0.68829,1.05579 v 0.0841 c 0,-1e-5 1.32275,-1e-5 1.32275,-1e-5 z m -0.52734,-3.23493 h 0.91735 l -0.81078,1.10138 h -0.56579 z"
   style="fill:#252626" />
		</g>
	</g>
	<g
   id="g307">
		<g
   id="g213">
			<path
   id="path211"
   inkscape:connector-curvature="0"
   d="m 30.5701,186.4697 c -0.06922,1.2464 -0.6427,1.94238 -1.62158,1.94238 -1.11622,0 -1.74353,-0.86407 -1.74353,-2.82184 0,-1.95777 0.62731,-2.82184 1.74353,-2.82184 1.10907,0 1.56775,0.78772 1.56775,1.68256 h -0.48944 c 0,-0.74213 -0.37464,-1.26947 -1.07831,-1.26947 -0.78003,0 -1.25409,0.64215 -1.25409,2.40875 0,1.7666 0.47406,2.40875 1.25409,2.40875 0.68829,0 1.07831,-0.58887 1.13215,-1.5293 h 0.48943 z"
   style="fill:#252626" />
		</g>
		<g
   id="g217">
			<path
   id="path215"
   inkscape:connector-curvature="0"
   d="m 32.42185,184.16751 c 0.89484,0 1.39966,0.71136 1.39966,2.11871 0,1.41449 -0.50483,2.12585 -1.39966,2.12585 -0.89429,0 -1.3991,-0.71136 -1.3991,-2.12585 -10e-6,-1.40734 0.50481,-2.11871 1.3991,-2.11871 z m 0,3.86224 c 0.51251,0 0.91021,-0.44385 0.91021,-1.74353 0,-1.29254 -0.3977,-1.73584 -0.91021,-1.73584 -0.51197,0 -0.90967,0.4433 -0.90967,1.73584 -10e-6,1.29969 0.3977,1.74353 0.90967,1.74353 z"
   style="fill:#252626" />
		</g>
		<g
   id="g221">
			<path
   id="path219"
   inkscape:connector-curvature="0"
   d="m 34.49552,184.25925 h 0.41309 v 0.56635 h 0.01538 c 0.22961,-0.45154 0.62731,-0.65808 1.03985,-0.65808 0.61963,0 1.04041,0.32135 1.04041,1.086 v 3.06683 h -0.45868 v -2.93665 c 0,-0.55811 -0.22961,-0.83331 -0.69599,-0.83331 -0.53558,0 -0.89483,0.41254 -0.89483,1.03986 v 2.7301 h -0.45923 c -10e-6,-1e-5 -10e-6,-4.0611 0,-4.0611 z"
   style="fill:#252626" />
		</g>
		<g
   id="g225">
			<path
   id="path223"
   inkscape:connector-curvature="0"
   d="m 40.33255,186.97452 c -0.06922,0.86407 -0.54328,1.43756 -1.29254,1.43756 -0.85693,0 -1.36121,-0.59656 -1.36121,-2.12585 0,-1.40735 0.50427,-2.11871 1.3991,-2.11871 0.76519,0 1.2085,0.46692 1.25464,1.30023 h -0.45922 c -0.05328,-0.63446 -0.30598,-0.91736 -0.79541,-0.91736 -0.49713,0 -0.90967,0.30542 -0.90967,1.74353 0,1.5293 0.4356,1.73584 0.86407,1.73584 0.46637,0 0.76466,-0.34442 0.84101,-1.05524 1e-5,-2e-5 0.45922,-2e-5 0.45923,-2e-5 z"
   style="fill:#252626" />
		</g>
		<g
   id="g229">
			<path
   id="path227"
   inkscape:connector-curvature="0"
   d="m 43.50705,186.97452 c -0.06866,0.86407 -0.54328,1.43756 -1.30793,1.43756 -0.85639,0 -1.36121,-0.59656 -1.36121,-2.12585 0,-1.40735 0.50483,-2.11871 1.39966,-2.11871 0.90253,0 1.30793,0.61963 1.30793,1.97314 v 0.16864 h -2.21814 v 0.19116 c 0,1.17004 0.41309,1.5293 0.86407,1.5293 0.48176,0 0.78003,-0.34442 0.85694,-1.05524 z m -0.45099,-1.0481 c -0.01538,-1.00909 -0.29828,-1.37604 -0.86462,-1.37604 -0.56579,0 -0.84869,0.36694 -0.86407,1.37604 z"
   style="fill:#252626" />
		</g>
		<g
   id="g233">
			<path
   id="path231"
   inkscape:connector-curvature="0"
   d="m 44.21952,184.25925 h 0.41309 v 0.58173 h 0.01538 c 0.14502,-0.37518 0.48175,-0.67346 1.0014,-0.67346 0.90253,0 1.29254,0.71906 1.29254,2.1264 0,1.39911 -0.4054,2.11816 -1.30023,2.11816 -0.50427,0 -0.84869,-0.27521 -0.94812,-0.70367 H 44.6782 v 1.95776 h -0.45868 c 0,0 0,-5.40692 0,-5.40692 z m 1.3612,0.29113 c -0.25983,0 -0.48944,0.13733 -0.64215,0.35925 -0.19886,0.2829 -0.26037,0.6806 -0.26037,1.38428 0,1.49854 0.42077,1.73584 0.88715,1.73584 0.45868,0 0.88715,-0.2373 0.88715,-1.73584 -2e-5,-1.47601 -0.42848,-1.74353 -0.87178,-1.74353 z"
   style="fill:#252626" />
		</g>
		<g
   id="g237">
			<path
   id="path235"
   inkscape:connector-curvature="0"
   d="m 47.83072,184.64212 h -0.55865 v -0.38287 h 0.55865 v -1.1239 h 0.45869 v 1.1239 h 0.71905 v 0.38287 h -0.71905 v 2.91357 c 0,0.32135 0.13788,0.42792 0.43616,0.42792 0.09174,0 0.18347,-0.0149 0.2829,-0.0456 v 0.38232 c -0.05383,0.0307 -0.16864,0.0461 -0.32135,0.0461 -0.61962,0 -0.85638,-0.16864 -0.85638,-0.71136 v -3.013 5e-5 z"
   style="fill:#252626" />
		</g>
		<g
   id="g241">
			<path
   id="path239"
   inkscape:connector-curvature="0"
   d="m 54.04953,187.65512 c -0.30597,0.45868 -0.78003,0.75696 -1.45295,0.75696 -0.94097,0 -1.52984,-0.64215 -1.52984,-1.44525 0,-0.57349 0.29059,-1.02502 0.78772,-1.40735 l 0.45153,-0.34387 c -0.39001,-0.51251 -0.62731,-0.91791 -0.62731,-1.34637 0,-0.65753 0.5125,-1.00909 1.11676,-1.00909 0.63446,0 1.04755,0.4054 1.04755,1.00909 0,0.44385 -0.18347,0.85693 -0.9635,1.40735 l 1.17773,1.65179 c 0.13733,-0.33618 0.19116,-0.69598 0.19885,-1.03217 h 0.45867 c 0,0.47406 -0.13788,0.97888 -0.38233,1.41449 l 0.71906,1.00964 h -0.5202 z m -1.51447,-2.13354 c -0.77234,0.53503 -0.97888,0.9635 -0.97888,1.39142 0,0.65039 0.50483,1.086 1.10907,1.086 0.44331,0 0.93274,-0.26752 1.14697,-0.68829 z m 0.11481,-0.55866 c 0.60424,-0.45868 0.73444,-0.81024 0.73444,-1.10852 0,-0.35211 -0.26807,-0.61194 -0.61963,-0.61194 -0.35925,0 -0.62732,0.25983 -0.62732,0.61194 0,0.29059 0.20654,0.69598 0.51251,1.10852 z"
   style="fill:#252626" />
		</g>
		<g
   id="g245">
			<path
   id="path243"
   inkscape:connector-curvature="0"
   d="m 58.81594,185.94949 v -0.41309 h 1.75122 v 2.78394 h -0.38233 v -0.90253 h -0.01536 c -0.16809,0.60425 -0.65753,0.99426 -1.2008,0.99426 -1.11622,0 -1.74353,-0.86407 -1.74353,-2.82184 0,-1.95777 0.62731,-2.82184 1.74353,-2.82184 1.04041,0 1.50677,0.6806 1.56775,1.62103 h -0.48944 c 0,-0.65753 -0.35925,-1.20795 -1.0783,-1.20795 -0.78003,0 -1.25409,0.64215 -1.25409,2.40875 0,1.7666 0.47406,2.40875 1.25409,2.40875 0.73443,0 1.13984,-0.65753 1.13984,-1.93469 v -0.11481 h -1.29254 -2e-5 -2e-5 z"
   style="fill:#252626" />
		</g>
		<g
   id="g249">
			<path
   id="path247"
   inkscape:connector-curvature="0"
   d="m 61.30271,182.86014 h 0.48944 v 3.92322 c 0,0.81793 0.35211,1.21564 1.07062,1.21564 0.71906,0 1.07117,-0.39771 1.07117,-1.21564 v -3.92322 h 0.48944 v 3.93091 c 0,1.14697 -0.55865,1.62103 -1.5606,1.62103 -1.00141,0 -1.56006,-0.47406 -1.56006,-1.62103 -1e-5,0 -1e-5,-3.93091 -1e-5,-3.93091 z"
   style="fill:#252626" />
		</g>
		<g
   id="g253">
			<path
   id="path251"
   inkscape:connector-curvature="0"
   d="m 65.23525,182.86014 h 0.48944 v 5.46021 h -0.48944 z"
   style="fill:#252626" />
		</g>
		<g
   id="g257">
			<path
   id="path255"
   inkscape:connector-curvature="0"
   d="m 27.97019,192.04086 h 1.7287 c 1.04754,0 1.50623,0.65753 1.50623,1.59082 0,0.97888 -0.57349,1.61334 -1.59797,1.61334 h -0.7652 v 2.25604 h -0.87177 c 0,1e-5 0,-5.4602 10e-6,-5.4602 z m 0.87177,2.54663 h 0.61963 c 0.46637,0 0.87176,-0.25269 0.87176,-0.94098 0,-0.58887 -0.23675,-0.94812 -0.93274,-0.94812 h -0.55865 z"
   style="fill:#252626" />
		</g>
		<g
   id="g261">
			<path
   id="path259"
   inkscape:connector-curvature="0"
   d="m 31.78079,191.97934 h 0.82562 v 0.82617 h -0.82562 z m 0,1.40735 h 0.82562 v 4.11438 h -0.82562 z"
   style="fill:#252626" />
		</g>
		<g
   id="g265">
			<path
   id="path263"
   inkscape:connector-curvature="0"
   d="m 34.15165,195.55099 v 0.2373 c 0,0.55042 0.06866,1.25409 0.68829,1.25409 0.58887,0 0.65753,-0.67291 0.65753,-0.91791 h 0.78003 c 0,0.91022 -0.55042,1.4837 -1.44526,1.4837 -0.67291,0 -1.50677,-0.19885 -1.50677,-2.10333 0,-1.07831 0.22961,-2.22528 1.52216,-2.22528 1.14697,0 1.45295,0.68829 1.45295,1.83527 v 0.43616 z m 1.32274,-0.56579 v -0.22192 c 0,-0.5202 -0.16809,-0.91791 -0.63446,-0.91791 -0.5279,0 -0.68829,0.5202 -0.68829,1.05579 v 0.084 h 1.32275 z"
   style="fill:#252626" />
		</g>
		<g
   id="g269">
			<path
   id="path267"
   inkscape:connector-curvature="0"
   d="m 36.98282,193.38669 h 0.82562 v 0.64215 h 0.01538 c 0.18347,-0.45868 0.48944,-0.74927 0.95636,-0.74927 0.09174,0 0.14502,0.0154 0.19886,0.0307 v 0.841 c -0.06153,-0.0154 -0.20654,-0.0456 -0.34442,-0.0456 -0.37464,0 -0.82617,0.16809 -0.82617,0.93274 v 2.46259 h -0.82562 v -4.11438 h -1e-5 z"
   style="fill:#252626" />
		</g>
		<g
   id="g273">
			<path
   id="path271"
   inkscape:connector-curvature="0"
   d="m 39.39267,193.38669 h 0.82617 v 0.64215 h 0.01483 c 0.18347,-0.45868 0.48944,-0.74927 0.95636,-0.74927 0.09174,0 0.14502,0.0154 0.19886,0.0307 v 0.841 c -0.06153,-0.0154 -0.20654,-0.0456 -0.34442,-0.0456 -0.37464,0 -0.82562,0.16809 -0.82562,0.93274 v 2.46259 h -0.82616 v -4.11438 h -2e-5 z"
   style="fill:#252626" />
		</g>
		<g
   id="g277">
			<path
   id="path275"
   inkscape:connector-curvature="0"
   d="m 42.51389,195.55099 v 0.2373 c 0,0.55042 0.06866,1.25409 0.68829,1.25409 0.58887,0 0.65754,-0.67291 0.65754,-0.91791 h 0.78003 c 0,0.91022 -0.55042,1.4837 -1.44526,1.4837 -0.67292,0 -1.50677,-0.19885 -1.50677,-2.10333 0,-1.07831 0.22961,-2.22528 1.52216,-2.22528 1.14698,0 1.45295,0.68829 1.45295,1.83527 v 0.43616 c -2e-5,0 -2.14895,0 -2.14894,0 z m 1.32275,-0.56579 v -0.22192 c 0,-0.5202 -0.16809,-0.91791 -0.63446,-0.91791 -0.5279,0 -0.68829,0.5202 -0.68829,1.05579 v 0.084 h 1.32275 z"
   style="fill:#252626" />
		</g>
		<g
   id="g281">
			<path
   id="path279"
   inkscape:connector-curvature="0"
   d="m 50.59158,195.5433 v 0.11481 c 0,0.98657 -0.39771,1.95007 -1.68256,1.95007 -1.37659,0 -1.80451,-0.88715 -1.80451,-2.83722 0,-1.95007 0.42792,-2.83722 1.8122,-2.83722 1.55236,0 1.6441,1.14697 1.6441,1.71277 v 0.0994 h -0.87177 v -0.0917 c 0,-0.50482 -0.15271,-1.086 -0.78003,-1.06293 -0.64214,0 -0.93274,0.39771 -0.93274,2.15662 0,1.75891 0.29058,2.20276 0.93274,2.20276 0.72674,0 0.81079,-0.81079 0.81079,-1.31561 v -0.0917 h 0.87178 z"
   style="fill:#252626" />
		</g>
		<g
   id="g285">
			<path
   id="path283"
   inkscape:connector-curvature="0"
   d="m 52.52023,193.27957 c 1.20081,0 1.53699,0.88715 1.53699,2.16431 0,1.27716 -0.39001,2.16431 -1.53699,2.16431 -1.13928,0 -1.52929,-0.88715 -1.52929,-2.16431 0,-1.27716 0.33618,-2.16431 1.52929,-2.16431 z m 0,3.71668 c 0.60424,0 0.71136,-0.50482 0.71136,-1.55237 0,-0.91022 -0.10712,-1.55237 -0.71136,-1.55237 -0.59655,0 -0.70366,0.64215 -0.70366,1.55237 0,1.04754 0.10711,1.55237 0.70366,1.55237 z"
   style="fill:#252626" />
		</g>
		<g
   id="g289">
			<path
   id="path287"
   inkscape:connector-curvature="0"
   d="m 54.73178,192.04086 h 0.82562 v 5.46021 h -0.82562 z"
   style="fill:#252626" />
		</g>
		<g
   id="g293">
			<path
   id="path291"
   inkscape:connector-curvature="0"
   d="m 56.43026,192.04086 h 0.82562 v 5.46021 h -0.82562 z"
   style="fill:#252626" />
		</g>
		<g
   id="g297">
			<path
   id="path295"
   inkscape:connector-curvature="0"
   d="m 60.78963,196.64468 c 0,0.15271 0.09174,0.29059 0.21423,0.29059 0.05383,0 0.10712,-0.008 0.13788,-0.023 v 0.53558 c -0.09943,0.0456 -0.245,0.0994 -0.4054,0.0994 -0.36694,0 -0.67291,-0.14557 -0.69598,-0.54327 H 60.025 c -0.22192,0.4054 -0.54272,0.60425 -1.02448,0.60425 -0.65808,0 -1.07062,-0.36694 -1.07062,-1.15466 0,-0.91791 0.39771,-1.10907 0.95581,-1.29254 l 0.64215,-0.17578 c 0.29829,-0.0841 0.48176,-0.16864 0.48176,-0.52789 0,-0.37463 -0.12964,-0.61194 -0.56579,-0.61194 -0.55042,0 -0.62677,0.39001 -0.62677,0.78772 h -0.78057 c 0,-0.87177 0.3598,-1.35352 1.4458,-1.35352 0.7262,0 1.30737,0.2829 1.30737,1.00964 0,0 0,2.35547 -10e-6,2.35547 z m -0.78002,-1.31561 c -0.21368,0.16809 -0.67291,0.26752 -0.91735,0.38232 -0.2373,0.11481 -0.33673,0.3598 -0.33673,0.66522 0,0.34442 0.16809,0.61963 0.51251,0.61963 0.49713,0 0.74158,-0.37463 0.74158,-0.97888 v -0.68829 z"
   style="fill:#252626" />
		</g>
		<g
   id="g301">
			<path
   id="path299"
   inkscape:connector-curvature="0"
   d="m 61.63229,193.38669 h 0.82617 v 0.64215 h 0.01485 c 0.18347,-0.45868 0.48944,-0.74927 0.95636,-0.74927 0.09174,0 0.14502,0.0154 0.19885,0.0307 v 0.841 c -0.06153,-0.0154 -0.20654,-0.0456 -0.34442,-0.0456 -0.37464,0 -0.82562,0.16809 -0.82562,0.93274 v 2.46259 h -0.82617 v -4.11438 h -10e-6 z"
   style="fill:#252626" />
		</g>
		<g
   id="g305">
			<path
   id="path303"
   inkscape:connector-curvature="0"
   d="m 66.14492,196.99625 h -0.01485 c -0.10712,0.26752 -0.31366,0.61194 -0.90253,0.61194 -0.9635,0 -1.34583,-0.8031 -1.34583,-2.21759 0,-1.82812 0.64215,-2.11102 1.26947,-2.11102 0.4433,0 0.78003,0.22192 0.93274,0.58887 h 0.01536 v -1.82758 h 0.82562 v 5.46021 h -0.78003 c 2e-5,0 2e-5,-0.50482 0,-0.50482 1e-5,-1e-5 4e-5,-1e-5 5e-5,-1e-5 z m -0.74927,-3.05915 c -0.47406,0 -0.64215,0.38232 -0.64215,1.49139 0,0.93329 0.12195,1.52216 0.69598,1.52216 0.56579,0 0.69544,-0.58118 0.69544,-1.46063 0,-0.98657 -0.11427,-1.55292 -0.74927,-1.55292 z"
   style="fill:#252626" />
		</g>
	</g>
</g>
<g
   id="g182"
   transform="matrix(1.3896279,0,0,1.3896279,-6.7331646e-4,0.28412407)">
	<path
   id="path158"
   inkscape:connector-curvature="0"
   d="m 36.32716,156.93129 h 1.13379 l 0.91919,4.14404 h 0.01904 l 0.83057,-4.14404 h 1.12426 l -1.38794,5.25806 h -1.2312 z"
   style="fill:#252626" />
	<path
   id="path160"
   inkscape:connector-curvature="0"
   d="m 41.83791,159.69691 v 0.30322 c 0,0.70386 0.08789,1.60254 0.87964,1.60254 0.7522,0 0.84009,-0.85986 0.84009,-1.17261 h 0.99683 c 0,1.16309 -0.70312,1.89624 -1.84717,1.89624 -0.85986,0 -1.92481,-0.25415 -1.92481,-2.68799 0,-1.37769 0.29297,-2.84399 1.94458,-2.84399 1.46631,0 1.85669,0.87964 1.85669,2.34595 v 0.55664 c 0,0 -2.74585,0 -2.74585,0 z m 1.69043,-0.7229 v -0.28345 c 0,-0.66431 -0.2146,-1.17261 -0.81079,-1.17261 -0.67456,0 -0.87964,0.66431 -0.87964,1.34839 v 0.10767 c 0,0 1.69043,0 1.69043,0 z"
   style="fill:#252626" />
	<path
   id="path162"
   inkscape:connector-curvature="0"
   d="m 45.45168,156.93129 h 1.05542 v 0.82104 h 0.01978 c 0.23438,-0.58667 0.62548,-0.95801 1.22168,-0.95801 0.11719,0 0.1853,0.0198 0.25415,0.0395 v 1.07446 c -0.07837,-0.0191 -0.2644,-0.0586 -0.44018,-0.0586 -0.479,0 -1.05542,0.21533 -1.05542,1.19238 v 3.14722 h -1.05542 l -10e-6,-5.25805 z"
   style="fill:#252626" />
	<path
   id="path164"
   inkscape:connector-curvature="0"
   d="m 50.79689,158.46571 v -0.13696 c 0,-0.42041 -0.14722,-0.81079 -0.69434,-0.81079 -0.42041,0 -0.7522,0.19556 -0.7522,0.68408 0,0.41016 0.1853,0.57642 0.74267,0.77197 l 0.67456,0.23438 c 0.78149,0.26367 1.1433,0.68408 1.1433,1.51465 0,1.12427 -0.82104,1.60327 -1.88672,1.60327 -1.32861,0 -1.72924,-0.61597 -1.72924,-1.63257 v -0.19482 h 0.93823 v 0.16553 c 0,0.60645 0.2146,0.93823 0.82031,0.93823 0.57715,0 0.8606,-0.29297 0.8606,-0.77197 0,-0.39111 -0.20508,-0.64453 -0.57715,-0.77197 l -0.85986,-0.30322 c -0.79174,-0.27319 -1.12354,-0.67383 -1.12354,-1.51465 0,-0.9873 0.71338,-1.44653 1.7981,-1.44653 1.33887,0 1.64209,0.78223 1.64209,1.43701 v 0.23438 h -0.99681 z"
   style="fill:#252626" />
	<path
   id="path166"
   inkscape:connector-curvature="0"
   d="m 52.74,155.13319 h 1.05542 v 1.05542 H 52.74 Z m 0,1.7981 h 1.05542 v 5.25806 H 52.74 Z"
   style="fill:#252626" />
	<path
   id="path168"
   inkscape:connector-curvature="0"
   d="m 56.60793,156.79433 c 1.53442,0 1.96509,1.13379 1.96509,2.76636 0,1.63184 -0.49878,2.76562 -1.96509,2.76562 -1.45606,0 -1.95411,-1.13379 -1.95411,-2.76562 0,-1.63257 0.42994,-2.76636 1.95411,-2.76636 z m 0,4.74975 c 0.77271,0 0.90893,-0.64453 0.90893,-1.9834 0,-1.16309 -0.13623,-1.98413 -0.90893,-1.98413 -0.76173,0 -0.89869,0.82104 -0.89869,1.98413 0,1.33887 0.13697,1.9834 0.89869,1.9834 z"
   style="fill:#252626" />
	<path
   id="path170"
   inkscape:connector-curvature="0"
   d="m 59.38234,156.93129 h 0.99719 v 0.61597 h 0.0293 c 0.26367,-0.46948 0.76245,-0.75293 1.34839,-0.75293 0.80201,0 1.30957,0.36182 1.30957,1.42676 v 3.96826 h -1.05542 v -3.60645 c 0,-0.68408 -0.20508,-0.94775 -0.73242,-0.94775 -0.43066,0 -0.84082,0.34204 -0.84082,1.02612 v 3.52808 h -1.05578 z"
   style="fill:#252626" />
	<path
   id="path174"
   inkscape:connector-curvature="0"
   d="m 71.22231,160.89955 h 1.11401 v 1.28979 h -1.11401 z"
   style="fill:#252626" />
	<path
   id="path176"
   inkscape:connector-curvature="0"
   d="M 77.31973,162.18935 H 73.2731 c 0,-3.01025 2.90259,-2.94141 2.90259,-5.0918 0,-0.56689 -0.2439,-1.0459 -0.85986,-1.0459 -0.83057,0 -0.96753,0.74268 -0.96753,1.44653 h -1.05542 c 0,-1.37769 0.56689,-2.22803 2.04272,-2.22803 1.41724,0 1.95484,0.84009 1.95484,1.84717 0,2.29614 -2.2478,2.44336 -2.77588,4.13379 h 2.80518 z"
   style="fill:#252626" />
	<path
   id="path178"
   inkscape:connector-curvature="0"
   d="m 78.25576,160.89955 h 1.11401 v 1.28979 h -1.11401 z"
   style="fill:#252626" />
	<path
   id="path180"
   inkscape:connector-curvature="0"
   d="m 82.33022,155.27016 c 1.32861,0 2.07129,0.84009 2.07129,3.52808 0,2.68726 -0.74267,3.52808 -2.07129,3.52808 -1.32935,0 -2.07203,-0.84082 -2.07203,-3.52808 0,-2.688 0.74269,-3.52808 2.07203,-3.52808 z m 0,6.27392 c 0.76173,0 0.95728,-0.73242 0.95728,-2.74585 0,-2.01343 -0.19556,-2.74658 -0.95728,-2.74658 -0.76245,0 -0.95801,0.73315 -0.95801,2.74658 0,2.01343 0.19556,2.74585 0.95801,2.74585 z"
   style="fill:#252626" />
	<path
   id="path176_1_"
   inkscape:connector-curvature="0"
   d="m 69.96075,162.18935 h -4.04663 c 0,-3.01025 2.90259,-2.94141 2.90259,-5.0918 0,-0.56689 -0.2439,-1.0459 -0.85986,-1.0459 -0.83057,0 -0.96753,0.74268 -0.96753,1.44653 H 65.9339 c 0,-1.37769 0.56689,-2.22803 2.04272,-2.22803 1.41724,0 1.95484,0.84009 1.95484,1.84717 0,2.29614 -2.2478,2.44336 -2.77588,4.13379 h 2.80517 z"
   style="fill:#252626" />
</g>
</svg>