<?xml version="1.0" encoding="UTF-8" standalone="no"?>
<svg
   xmlns:dc="http://purl.org/dc/elements/1.1/"
   xmlns:cc="http://creativecommons.org/ns#"
   xmlns:rdf="http://www.w3.org/1999/02/22-rdf-syntax-ns#"
   xmlns:svg="http://www.w3.org/2000/svg"
   xmlns="http://www.w3.org/2000/svg"
   xmlns:sodipodi="http://sodipodi.sourceforge.net/DTD/sodipodi-0.dtd"
   xmlns:inkscape="http://www.inkscape.org/namespaces/inkscape"
   id="Layer_1"
   data-name="Layer 1"
   width="7.1027198mm"
   height="7.1027198mm"
   viewBox="0 0 26.844924 26.844924"
   version="1.1"
   sodipodi:docname="C-WL.svg"
   inkscape:version="0.92.3 (2405546, 2018-03-11)">
  <metadata
     id="metadata15">
    <rdf:RDF>
      <cc:Work
         rdf:about="">
        <dc:format>image/svg+xml</dc:format>
        <dc:type
           rdf:resource="http://purl.org/dc/dcmitype/StillImage" />
        <dc:title>C-01</dc:title>
      </cc:Work>
    </rdf:RDF>
  </metadata>
  <defs
     id="defs13" />
  <sodipodi:namedview
     pagecolor="#ffffff"
     bordercolor="#666666"
     borderopacity="1"
     objecttolerance="10"
     gridtolerance="10"
     guidetolerance="10"
     inkscape:pageopacity="0"
     inkscape:pageshadow="2"
     inkscape:window-width="1920"
     inkscape:window-height="1017"
     id="namedview11"
     showgrid="false"
     inkscape:document-units="mm"
     units="mm"
     fit-margin-top="0"
     fit-margin-left="0"
     fit-margin-right="0"
     fit-margin-bottom="0"
     inkscape:zoom="11.252638"
     inkscape:cx="10.473047"
     inkscape:cy="10.486445"
     inkscape:window-x="-8"
     inkscape:window-y="-8"
     inkscape:window-maximized="1"
     inkscape:current-layer="Layer_1" />
  <title
     id="title2">C-01</title>
  <g
     id="g8"
     transform="matrix(1.279973,0,0,1.279973,-0.03451953,2.1038188e-4)">
    <path
       d="M 10.579,0 A 10.48652,10.48652 0 1 0 21,10.47282 10.54956,10.54956 0 0 0 10.579,0 Z"
       transform="translate(0,4e-5)"
       style="fill:#e5e5e5"
       id="path4"
       inkscape:connector-curvature="0" />
    <path
       d="m 12.98207,6.19728 2.507,-3.40019 c 2.95378,2.20882 4.24413,4.81517 4.24413,7.694 A 9.19575,9.19575 0 0 1 1.34171,10.50967 q 0,-0.0093 0,-0.01858 c 0,-2.92853 1.36489,-5.58457 4.31867,-7.79339 L 8.19175,6.14759 C 6.33036,7.53772 5.5858,8.9523 5.5858,10.4911 a 4.9392,4.9392 0 0 0 9.87839,0.01384 q 0,-0.0069 0,-0.01384 c 0,-1.5388 -0.64519,-2.90369 -2.48212,-4.29382 z"
       transform="translate(0,4e-5)"
       style="fill:#252626"
       id="path6"
       inkscape:connector-curvature="0" />
  </g>
</svg>
