<?xml version="1.0" encoding="UTF-8" standalone="no"?>
<svg
   width="55.879997mm"
   height="128.5mm"
   viewBox="0 0 211.19999 485.66934"
   version="1.1"
   id="svg1255"
   sodipodi:docname="dark energy.svg"
   inkscape:version="1.1.1 (3bf5ae0d25, 2021-09-20)"
   xmlns:inkscape="http://www.inkscape.org/namespaces/inkscape"
   xmlns:sodipodi="http://sodipodi.sourceforge.net/DTD/sodipodi-0.dtd"
   xmlns:xlink="http://www.w3.org/1999/xlink"
   xmlns="http://www.w3.org/2000/svg"
   xmlns:svg="http://www.w3.org/2000/svg">
  <sodipodi:namedview
     id="namedview1257"
     pagecolor="#ffffff"
     bordercolor="#666666"
     borderopacity="1.0"
     inkscape:pageshadow="2"
     inkscape:pageopacity="0.0"
     inkscape:pagecheckerboard="0"
     showgrid="false"
     inkscape:document-units="mm"
     units="mm"
     lock-margins="false"
     fit-margin-top="0"
     fit-margin-left="0"
     fit-margin-right="0"
     fit-margin-bottom="0"
     inkscape:zoom="1.8921053"
     inkscape:cx="-21.404729"
     inkscape:cy="190"
     inkscape:window-width="1920"
     inkscape:window-height="1009"
     inkscape:window-x="-8"
     inkscape:window-y="-8"
     inkscape:window-maximized="1"
     inkscape:current-layer="svg1255" />
  <defs
     id="defs13">
    <symbol
       id="uuid-e12b139b-675c-414a-99b1-81f7fcb24d8e"
       data-name="knob grading"
       viewBox="0 0 35.35541 35.34531">
      <g
         id="g10">
        <polyline
           points="5.76197 29.58334 17.67266 17.67265 29.58334 29.58334"
           fill="none"
           stroke="#262626"
           stroke-linejoin="round"
           stroke-width="1.65681"
           id="polyline2" />
        <circle
           cx="17.672661"
           cy="17.672649"
           r="16.84425"
           fill="#e5e5e5"
           id="circle4" />
        <path
           d="m 5.76196,29.58332 c 3.04821,3.04822 7.25928,4.93358 11.9107,4.93358 4.65142,0 8.86247,-1.88536 11.91068,-4.93357"
           fill="#e5e5e5"
           stroke="#262626"
           stroke-linecap="round"
           stroke-linejoin="round"
           stroke-width="1.65681"
           id="path6" />
        <path
           d="M 3.47313,26.75126 C 1.7884,24.11453 0.81631,20.97636 0.82852,17.61132 0.86228,8.30856 8.40592,0.79464 17.6777,0.82852 c 9.27178,-0.03388 16.81542,7.48004 16.84918,16.7828 0.01221,3.36504 -0.95988,6.50321 -2.64461,9.13994"
           fill="#e5e5e5"
           stroke="#262626"
           stroke-linecap="round"
           stroke-linejoin="round"
           stroke-width="1.65681"
           id="path8" />
      </g>
    </symbol>
  </defs>
  <g
     id="uuid-1b2d35bc-6e83-4428-988a-7db725454e5a"
     data-name="bg"
     transform="scale(1.28,1.2780771)">
    <rect
       width="165"
       height="380"
       fill="#e5e5e5"
       id="rect15"
       x="0"
       y="0" />
    <rect
       width="165"
       height="380"
       fill="#e5e5e5"
       id="rect17"
       x="0"
       y="0" />
    <rect
       width="165"
       height="380"
       fill="#e5e5e5"
       id="rect19"
       x="0"
       y="0" />
    <g
       id="g29">
      <g
         id="g25">
        <circle
           cx="22.896481"
           cy="7"
           r="5.73633"
           fill="#bcbcbc"
           id="circle21" />
        <path
           d="m 22.896,1.52747 c 3.01758,0 5.47266,2.45496 5.47266,5.47253 0,3.01757 -2.45508,5.47253 -5.47266,5.47253 -3.01758,0 -5.47266,-2.45496 -5.47266,-5.47253 0,-3.01757 2.45508,-5.47253 5.47266,-5.47253 M 22.896,1 c -3.31348,0 -6,2.68628 -6,6 0,3.31372 2.68652,6 6,6 3.31396,0 6,-2.68628 6,-6 0,-3.31372 -2.68604,-6 -6,-6 z"
           fill="#808080"
           id="path23" />
      </g>
      <polygon
         points="22.23683,10.49451 23.55551,10.49451 23.55551,7.65934 26.39067,7.65934 26.39067,6.34066 23.55551,6.34066 23.55551,3.50549 22.23683,3.50549 22.23683,6.34066 19.40166,6.34066 19.40166,7.65934 22.23683,7.65934 "
         fill="#6e6e6e"
         id="polygon27" />
    </g>
    <g
       id="g39">
      <g
         id="g35">
        <circle
           cx="141.89648"
           cy="7"
           r="5.73633"
           fill="#bcbcbc"
           id="circle31" />
        <path
           d="m 141.896,1.52747 c 3.01758,0 5.47266,2.45496 5.47266,5.47253 0,3.01757 -2.45508,5.47253 -5.47266,5.47253 -3.01758,0 -5.47266,-2.45496 -5.47266,-5.47253 0,-3.01757 2.45508,-5.47253 5.47266,-5.47253 M 141.896,1 c -3.31348,0 -6,2.68628 -6,6 0,3.31372 2.68652,6 6,6 3.31396,0 6,-2.68628 6,-6 0,-3.31372 -2.68604,-6 -6,-6 z"
           fill="#808080"
           id="path33" />
      </g>
      <polygon
         points="141.23683,10.49451 142.55551,10.49451 142.55551,7.65934 145.39067,7.65934 145.39067,6.34066 142.55551,6.34066 142.55551,3.50549 141.23683,3.50549 141.23683,6.34066 138.40166,6.34066 138.40166,7.65934 141.23683,7.65934 "
         fill="#6e6e6e"
         id="polygon37" />
    </g>
    <g
       id="g49">
      <g
         id="g45">
        <circle
           cx="23"
           cy="373"
           r="5.73633"
           fill="#bcbcbc"
           id="circle41" />
        <path
           d="m 23,367.52747 c 3.01758,0 5.47266,2.45496 5.47266,5.47253 0,3.01757 -2.45508,5.47253 -5.47266,5.47253 -3.01758,0 -5.47266,-2.45496 -5.47266,-5.47253 0,-3.01757 2.45508,-5.47253 5.47266,-5.47253 M 23,367 c -3.31348,0 -6,2.68628 -6,6 0,3.31372 2.68652,6 6,6 3.31396,0 6,-2.68628 6,-6 0,-3.31372 -2.68604,-6 -6,-6 z"
           fill="#808080"
           id="path43" />
      </g>
      <polygon
         points="22.3407,376.49451 23.65938,376.49451 23.65938,373.65934 26.49455,373.65934 26.49455,372.34066 23.65938,372.34066 23.65938,369.50549 22.3407,369.50549 22.3407,372.34066 19.50554,372.34066 19.50554,373.65934 22.3407,373.65934 "
         fill="#6e6e6e"
         id="polygon47" />
    </g>
    <g
       id="g59">
      <g
         id="g55">
        <circle
           cx="142"
           cy="373"
           r="5.73633"
           fill="#bcbcbc"
           id="circle51" />
        <path
           d="m 142,367.52747 c 3.01758,0 5.47266,2.45496 5.47266,5.47253 0,3.01757 -2.45508,5.47253 -5.47266,5.47253 -3.01758,0 -5.47266,-2.45496 -5.47266,-5.47253 0,-3.01757 2.45508,-5.47253 5.47266,-5.47253 M 142,367 c -3.31348,0 -6,2.68628 -6,6 0,3.31372 2.68652,6 6,6 3.31396,0 6,-2.68628 6,-6 0,-3.31372 -2.68604,-6 -6,-6 z"
           fill="#808080"
           id="path53" />
      </g>
      <polygon
         points="141.3407,376.49451 142.65938,376.49451 142.65938,373.65934 145.49455,373.65934 145.49455,372.34066 142.65938,372.34066 142.65938,369.50549 141.3407,369.50549 141.3407,372.34066 138.50554,372.34066 138.50554,373.65934 141.3407,373.65934 "
         fill="#6e6e6e"
         id="polygon57" />
    </g>
  </g>
  <g
     id="uuid-ccc868ea-d6a5-407f-b3d3-979d6e218980"
     data-name="serigraphy"
     transform="scale(1.28,1.2780771)">
    <line
       x1="82.5"
       y1="61.17065"
       x2="82.5"
       y2="71.278419"
       fill="none"
       stroke="#252626"
       stroke-linecap="round"
       stroke-linejoin="round"
       stroke-width="1.5"
       id="line62" />
    <line
       x1="82.5"
       y1="109.03677"
       x2="82.5"
       y2="119.14454"
       fill="none"
       stroke="#252626"
       stroke-linecap="round"
       stroke-linejoin="round"
       stroke-width="1.5"
       id="line64" />
    <g
       id="g80">
      <path
         d="m 8.75781,42.53516 -2.69434,-1.0459 1.0293,1.61035 -1.84473,0.48926 2.69434,1.0459 -0.29199,0.75293 -4.03027,-1.56445 0.27441,-0.70703 1.92383,-0.51074 -1.07617,-1.6748 0.27734,-0.71289 4.03027,1.56445 -0.29199,0.75293 z"
         fill="#252626"
         id="path66" />
      <path
         d="M 7.59473,39.93848 C 6.70215,39.06153 6.68946,37.62696 7.5625,36.73926 c 0.87695,-0.89355 2.31152,-0.90625 3.2041,-0.0293 0.88867,0.87305 0.89648,2.30371 0.01953,3.19629 -0.87207,0.88867 -2.30273,0.90527 -3.19141,0.03223 z M 8.16504,39.3584 c 0.57227,0.56152 1.49121,0.55371 2.0498,-0.01465 0.55762,-0.56738 0.54883,-1.48633 -0.02246,-2.04883 -0.57715,-0.56543 -1.49609,-0.55762 -2.05371,0.0098 -0.55762,0.56836 -0.5498,1.4873 0.02637,2.05371 z"
         fill="#252626"
         id="path68" />
      <path
         d="m 12.58398,38.19336 -1.7168,-3.96484 1.33105,-0.57617 c 1.11914,-0.48535 2.41895,0.01074 2.8916,1.10254 0.47168,1.0918 -0.05566,2.37793 -1.1748,2.8623 z m 1.01465,-1.30566 c 0.71289,-0.30859 1.04883,-1.12207 0.75,-1.8125 -0.29883,-0.69043 -1.12207,-1.00195 -1.83496,-0.69336 l -0.58984,0.25488 1.08496,2.50684 z"
         fill="#252626"
         id="path70" />
      <path
         d="m 17.81543,36.49414 0.41309,-4.30176 1.44434,0.1377 c 1.21387,0.11719 2.1123,1.17871 1.99902,2.36328 -0.11426,1.18457 -1.19727,2.05566 -2.41211,1.93945 z m 1.52051,-0.65332 c 0.77344,0.07422 1.45996,-0.47559 1.53223,-1.22461 0.07227,-0.74902 -0.49805,-1.41992 -1.27148,-1.49414 l -0.64062,-0.06152 -0.26074,2.71875 0.64062,0.06152 z"
         fill="#252626"
         id="path72" />
      <path
         d="m 21.83691,37.05469 1.78223,-3.93262 2.58984,1.17383 -0.3252,0.71777 -1.85059,-0.83789 -0.2627,0.58008 1.61328,0.73047 -0.33301,0.73438 -1.6123,-0.73047 -0.53125,1.1709 1.80078,0.81543 -0.33008,0.72949 -2.54102,-1.15137 z"
         fill="#252626"
         id="path74" />
      <path
         d="m 25.72852,39.33496 c -0.26465,-0.37402 -0.43359,-0.83301 -0.4834,-1.33887 l -0.0127,-0.1543 0.80566,-0.07617 0.01367,0.1543 c 0.03613,0.36816 0.14941,0.7002 0.3291,0.95312 l 0.0049,0.0039 c 0.05371,0.07617 0.11133,0.14746 0.17773,0.20996 0.11133,0.10352 0.2334,0.17773 0.35547,0.2168 0.14746,0.05566 0.36328,0.0752 0.53418,-0.10645 0.09082,-0.09766 0.11328,-0.21875 0.07031,-0.37598 -0.05371,-0.19238 -0.18457,-0.38965 -0.2832,-0.52441 -0.04395,-0.05957 -0.4082,-0.57715 -0.50781,-0.8877 -0.05762,-0.21289 -0.06445,-0.41992 -0.02246,-0.61426 0.04492,-0.19922 0.14258,-0.37402 0.28906,-0.5293 0.1582,-0.16797 0.36914,-0.28613 0.61719,-0.34473 0.21777,-0.03711 0.45117,-0.01855 0.68066,0.05664 0.23047,0.0752 0.44434,0.20117 0.63477,0.38086 0.0752,0.07031 0.14648,0.1543 0.21777,0.23828 0.24219,0.32812 0.40527,0.73145 0.45703,1.18164 l 0.01758,0.14941 -0.80469,0.10156 -0.01758,-0.14941 c -0.06738,-0.50586 -0.26465,-0.79199 -0.42383,-0.94141 -0.10156,-0.0957 -0.21582,-0.16113 -0.3291,-0.20117 -0.17773,-0.05859 -0.35742,-0.02832 -0.45703,0.07812 -0.0918,0.09766 -0.11523,0.19238 -0.08496,0.3291 0.03027,0.13672 0.11621,0.30176 0.27832,0.53809 0.02246,0.0293 0.0498,0.07129 0.07715,0.11328 0.15234,0.21094 0.34961,0.49707 0.42676,0.76172 0.0752,0.2207 0.08594,0.43945 0.04492,0.64355 -0.04102,0.20312 -0.14258,0.39062 -0.29297,0.5498 -0.1875,0.19922 -0.40723,0.32617 -0.6543,0.37695 -0.21387,0.04102 -0.45508,0.02246 -0.71973,-0.05957 -0.23047,-0.06641 -0.43652,-0.19336 -0.65332,-0.39746 -0.10156,-0.0957 -0.19531,-0.20898 -0.28516,-0.33594 z"
         fill="#252626"
         id="path76" />
      <path
         d="m 27.80078,41.83008 3.07129,-1.71777 -0.51758,-0.92578 0.69824,-0.3916 1.43262,2.56348 -0.69824,0.39062 -0.51855,-0.92676 -3.07031,1.7168 -0.39746,-0.70898 z"
         fill="#252626"
         id="path78" />
    </g>
    <g
       id="g94">
      <path
         d="m 135.73438,41.0625 -3.44336,-2.61133 1.7207,-2.26758 0.62793,0.47656 -1.22852,1.62012 0.50781,0.38477 1.07129,-1.41113 0.64258,0.4873 -1.07129,1.41211 1.02539,0.77734 1.19531,-1.57617 0.63867,0.48438 -1.68652,2.22363 z"
         fill="#1d1d1b"
         id="path82" />
      <path
         d="m 140.1709,36.77148 -1.82227,-0.64355 -0.0234,1.93652 -0.81152,0.56738 0.0293,-2.78613 -2.38867,-0.83984 0.81445,-0.57129 1.58203,0.55371 0.0205,-1.6748 0.8125,-0.56738 -0.0293,2.5332 2.62695,0.9248 -0.81055,0.56738 z"
         fill="#1d1d1b"
         id="path84" />
      <path
         d="m 142.13477,35.89941 -1.08887,-3.35645 -1.0127,0.32812 -0.24707,-0.76367 2.80078,-0.9082 0.24805,0.76367 -1.0127,0.32812 1.08691,3.35645 -0.77441,0.25195 z"
         fill="#1d1d1b"
         id="path86" />
      <path
         d="m 148.9873,35.42285 0.36719,-2.87012 -1.31738,1.3877 -0.91895,-1.67578 -0.36914,2.87207 -0.80273,-0.10352 0.55176,-4.29492 0.75391,0.09668 0.95996,1.74805 1.36816,-1.44922 0.75977,0.09766 -0.55078,4.29492 -0.80176,-0.10352 z"
         fill="#1d1d1b"
         id="path88" />
      <path
         d="m 151.21191,33.65625 c 0.5957,-1.09961 1.96973,-1.50684 3.06445,-0.91406 1.10059,0.59668 1.50684,1.97168 0.91113,3.07129 -0.59375,1.09375 -1.96484,1.49609 -3.06445,0.89941 -1.09375,-0.59277 -1.50488,-1.96289 -0.91113,-3.05664 z m 0.71484,0.3877 c -0.38184,0.7041 -0.12109,1.58496 0.57812,1.96484 0.7002,0.37988 1.58008,0.11816 1.96191,-0.58691 0.38574,-0.70898 0.12402,-1.58984 -0.5752,-1.96973 -0.69922,-0.37891 -1.5791,-0.11816 -1.96484,0.5918 z"
         fill="#1d1d1b"
         id="path90" />
      <path
         d="m 154.35059,38.01953 3.2334,-2.87305 0.96484,1.08594 c 0.81152,0.91211 0.74707,2.30273 -0.14453,3.09375 -0.89062,0.79102 -2.27832,0.69141 -3.08887,-0.2207 z m 1.55859,0.55664 c 0.51758,0.58203 1.39551,0.64648 1.95898,0.14648 0.56348,-0.50098 0.60156,-1.38086 0.0859,-1.96191 l -0.42871,-0.48145 -2.04199,1.81543 z"
         fill="#1d1d1b"
         id="path92" />
    </g>
    <g
       id="g114">
      <path
         d="m 47.42871,126.64258 -2.19824,1.875 1.90527,-0.14062 -0.44434,1.85352 2.19824,-1.875 0.52344,0.61523 -3.28711,2.80371 -0.49414,-0.57715 0.46484,-1.93555 -1.98438,0.15234 -0.49512,-0.58105 3.28711,-2.80371 0.52441,0.61328 z"
         fill="#1d1d1b"
         id="path96" />
      <path
         d="m 45.04492,125.95117 -2.53418,0.94531 -0.2832,-0.75684 2.53516,-0.94629 c 0.45508,-0.16992 0.69238,-0.68066 0.52539,-1.13086 -0.1709,-0.4541 -0.68164,-0.67871 -1.1377,-0.50977 l -2.53418,0.94727 -0.28516,-0.76367 2.53516,-0.94531 c 0.4209,-0.1582 0.88086,-0.14062 1.28711,0.0449 0.40918,0.19141 0.72363,0.52734 0.88086,0.94922 0.3252,0.87012 -0.11914,1.83984 -0.98926,2.16602 z"
         fill="#1d1d1b"
         id="path98" />
      <path
         d="m 45.2998,121.55664 -4.31152,0.24512 -0.04688,-0.81055 3.51855,-0.2002 -0.12598,-2.19922 0.79395,-0.0449 z"
         fill="#1d1d1b"
         id="path100" />
      <path
         d="m 45.32715,117.6875 -3.4668,-0.625 -0.18945,1.0459 -0.78906,-0.1416 0.52148,-2.89355 0.78906,0.1416 -0.18848,1.0459 3.46777,0.62598 -0.14453,0.80078 z"
         fill="#1d1d1b"
         id="path102" />
      <path
         d="m 47.15527,112.62695 -3.23535,-2.87109 0.96387,-1.08594 c 0.80957,-0.91211 2.19824,-1.0127 3.08789,-0.22266 0.89062,0.79004 0.95703,2.18066 0.14648,3.09375 z m 0.36816,-1.61523 c 0.51562,-0.58008 0.47559,-1.45996 -0.08691,-1.95996 -0.56348,-0.5 -1.44238,-0.43457 -1.95801,0.14648 l -0.42676,0.48145 2.04492,1.81445 z"
         fill="#1d1d1b"
         id="path104" />
      <path
         d="m 50.04785,109.63281 -2.24902,-3.69824 2.43652,-1.48242 0.41016,0.67578 -1.74023,1.05762 0.33203,0.54688 1.5166,-0.92285 0.41992,0.69043 -1.5166,0.92188 0.66895,1.10156 1.69434,-1.0293 0.41602,0.68555 -2.38867,1.45312 z"
         fill="#1d1d1b"
         id="path106" />
      <path
         d="m 53.97168,107.58203 c -0.28711,-0.0527 -0.5625,-0.15723 -0.81055,-0.31055 -0.25391,-0.15332 -0.46875,-0.35352 -0.6377,-0.59473 -0.18262,-0.24414 -0.30859,-0.51562 -0.37988,-0.81641 -0.2832,-1.21484 0.48047,-2.43652 1.69531,-2.7207 0.34375,-0.0811 0.70703,-0.0772 1.04492,0.007 0.33691,0.0762 0.66211,0.24414 0.92773,0.46875 l 0.12207,0.0977 -0.52344,0.61523 -0.11719,-0.0977 c -0.35059,-0.29883 -0.81348,-0.41016 -1.27051,-0.30273 -0.78125,0.18359 -1.27344,0.96582 -1.08984,1.74805 0.18359,0.78711 0.97266,1.27734 1.75488,1.0957 0.4502,-0.10547 0.81543,-0.41016 1.00488,-0.83594 l 0.06152,-0.13281 0.7373,0.31543 -0.06836,0.14062 c -0.14258,0.32715 -0.35059,0.60645 -0.62305,0.83203 -0.26562,0.22559 -0.58691,0.38184 -0.92969,0.46191 -0.2959,0.0693 -0.60059,0.0781 -0.89844,0.0293 z"
         fill="#1d1d1b"
         id="path108" />
      <path
         d="m 59.98926,107.39648 -0.31543,-1.20801 -1.42676,-0.15332 -0.57227,1.11133 -0.86328,-0.0928 2.11914,-4.12305 0.73047,0.0781 1.19824,4.48145 -0.87012,-0.0937 z m -0.54492,-2.03906 -0.28516,-1.08887 -0.51172,1.00293 z"
         fill="#1d1d1b"
         id="path110" />
      <path
         d="m 61.69922,107.92773 0.7959,-1.98633 -0.63672,-2.61328 0.92578,0.37109 0.39941,1.63379 1.41699,-0.90625 0.9209,0.36914 -2.26465,1.4502 -0.79688,1.9873 -0.76074,-0.30566 z"
         fill="#1d1d1b"
         id="path112" />
    </g>
    <g
       id="g128">
      <path
         d="m 74.25977,325.36914 -2.08398,-2.39551 -0.08203,0.38574 -0.78809,-0.17578 0.26074,-1.19922 0.47461,-0.41406 2.83691,3.26172 z"
         fill="#1d1d1b"
         id="path116" />
      <path
         d="m 76.72363,323.63477 -3.41797,-3.13086 0.78418,-0.38965 2.37988,2.18848 -0.29688,-3.22266 0.7793,-0.38574 0.43164,4.61426 -0.66016,0.32617 z"
         fill="#1d1d1b"
         id="path118" />
      <path
         d="m 78.92676,322.65918 0.82227,-4.56152 0.85938,-0.16406 -0.82812,4.5625 -0.85352,0.16309 z"
         fill="#1d1d1b"
         id="path120" />
      <path
         d="m 81.76074,319.84961 c 0.13184,-1.24512 1.24902,-2.14648 2.4873,-2.01562 1.24512,0.13281 2.14746,1.25 2.01465,2.49414 -0.13184,1.23926 -1.24902,2.13477 -2.49316,2.00293 -1.23828,-0.13184 -2.1416,-1.24316 -2.00879,-2.48145 z m 0.80957,0.0859 c -0.08496,0.79785 0.49316,1.51367 1.28418,1.59766 0.79199,0.084 1.50781,-0.49414 1.59277,-1.29102 0.08496,-0.80469 -0.49316,-1.51953 -1.2832,-1.60352 -0.79297,-0.085 -1.50879,0.49316 -1.59375,1.29688 z"
         fill="#1d1d1b"
         id="path122" />
      <path
         d="m 87.44727,323.09375 c -0.18652,-0.22266 -0.33008,-0.47852 -0.42188,-0.75586 -0.09766,-0.2793 -0.13574,-0.57031 -0.11035,-0.86426 0.01758,-0.30371 0.09277,-0.5918 0.23242,-0.86914 0.55957,-1.1123 1.92676,-1.56055 3.03906,-1.00195 0.31543,0.1582 0.5918,0.39258 0.79785,0.67285 0.20898,0.27539 0.35352,0.61133 0.41113,0.95508 l 0.03223,0.15137 -0.7959,0.1377 -0.02734,-0.15039 c -0.07715,-0.45312 -0.3623,-0.83398 -0.7793,-1.04395 -0.71777,-0.36035 -1.5957,-0.0742 -1.95605,0.6416 -0.36133,0.72266 -0.07031,1.60352 0.64648,1.96387 0.41211,0.20703 0.8877,0.20801 1.30469,0.003 l 0.13184,-0.0625 0.3623,0.71191 -0.13965,0.0654 c -0.31934,0.15918 -0.6582,0.24023 -1.0127,0.23926 -0.34668,0.003 -0.69141,-0.083 -1.00684,-0.24121 -0.27148,-0.13574 -0.50977,-0.32422 -0.70801,-0.55273 z"
         fill="#1d1d1b"
         id="path124" />
      <path
         d="m 90.76367,325.38281 2.45605,-2.52734 -0.76172,-0.74219 0.55762,-0.57422 2.10938,2.04883 -0.55859,0.57617 -0.7627,-0.74219 -2.45605,2.52832 -0.58398,-0.56738 z"
         fill="#1d1d1b"
         id="path126" />
    </g>
    <g
       id="g134">
      <rect
         x="74.328522"
         y="337.16101"
         width="16.881161"
         height="38.838982"
         rx="3.2074499"
         ry="3.2074499"
         fill="#252626"
         id="rect130" />
      <path
         d="m 86.61544,364.10641 c -0.11426,0.26348 -0.26582,0.48097 -0.45469,0.65224 -0.1891,0.17127 -0.40402,0.29843 -0.64567,0.38219 -0.24189,0.0835 -0.49434,0.12505 -0.75781,0.12505 -0.44812,0 -0.79723,-0.0657 -1.04757,-0.19755 -0.25034,-0.13185 -0.44601,-0.28553 -0.58632,-0.46126 -0.14969,-0.19332 -0.244,-0.40847 -0.28341,-0.64567 -0.03965,-0.2372 -0.05936,-0.4744 -0.05936,-0.7116 0,-0.3341 0.0068,-0.56449 0.01971,-0.69189 0.01337,-0.12763 0.02839,-0.19989 0.04622,-0.21749 0.03496,-0.0265 0.17995,-0.0394 0.43475,-0.0394 h 3.08382 c 0.08775,0 0.16024,0.007 0.21749,0.0197 0.05678,0.0131 0.10088,0.0481 0.13162,0.10534 0.03073,0.057 0.05044,0.14265 0.05936,0.25691 0.0087,0.11426 0.01337,0.27239 0.01337,0.4744 0,0.36905 -0.05748,0.68555 -0.17151,0.94903 m -5.32348,-12.82164 c 0.01174,-0.0828 0.0474,-0.14828 0.10699,-0.19591 0.05936,-0.0474 0.15414,-0.0772 0.28506,-0.0891 0.13068,-0.0117 0.31485,-0.0178 0.55252,-0.0178 0.92674,0 1.6367,0.25832 2.12986,0.77518 0.49294,0.51686 0.73975,1.20922 0.73975,2.07661 0,0.0821 -0.01713,0.25925 -0.02792,0.38078 -0.06827,-9.4e-4 -0.13655,-0.002 -0.20482,-0.003 -0.18699,-0.004 -0.39017,-0.0143 -0.60954,-0.0305 -0.0488,0.0244 -0.07508,0.0711 -0.0793,0.14007 -0.004,0.0692 0.01408,0.12411 0.05514,0.1647 l 0.21913,0.0244 c 0.1464,0.0162 0.26817,0.0427 0.36577,0.0791 0.0976,0.0366 0.1464,0.0753 0.1464,0.1159 0,0.0406 -0.0244,0.1159 -0.0732,0.22547 -0.0488,0.1098 -0.11379,0.24189 -0.19497,0.39604 -0.08142,0.15461 -0.16893,0.31932 -0.26207,0.49387 -0.09362,0.17479 -0.18113,0.33949 -0.26231,0.49364 -0.18699,0.35779 -0.37773,0.70901 -0.57293,1.05437 -0.19497,0.34559 -0.38595,0.68086 -0.5727,1.00581 -0.23603,-0.42255 -0.4676,-0.86551 -0.69494,-1.32864 -0.22758,-0.46337 -0.45516,-0.92228 -0.68274,-1.37768 -0.01642,-0.0324 -0.04458,-0.0931 -0.08517,-0.18277 -0.04082,-0.0892 -0.08352,-0.18464 -0.1281,-0.28647 -0.04481,-0.10159 -0.08352,-0.19685 -0.1159,-0.28647 -0.03261,-0.0894 -0.04857,-0.15039 -0.04857,-0.18277 0,-0.0488 0.03214,-0.0873 0.09736,-0.1159 0.06499,-0.0284 0.20319,-0.0629 0.41458,-0.10347 l 0.15836,-0.0244 c 0.04059,-0.0406 0.05889,-0.0976 0.0549,-0.1708 -0.0042,-0.073 -0.03473,-0.11778 -0.09127,-0.13397 -0.17315,0.0136 -0.38548,0.0235 -0.63722,0.0293 v -2.58643 c 0,-0.14265 0.0059,-0.2555 0.01783,-0.33879 m 1.00933,9.125 c 0,0.32518 -0.0042,0.58514 -0.0122,0.78011 -0.0082,0.19497 -0.03659,0.34747 -0.0854,0.45704 -0.01736,0.0394 -0.03801,0.0741 -0.0617,0.1044 -4.7e-4,2.3e-4 -0.0012,7e-4 -0.0016,9.4e-4 -0.14194,-0.0272 -0.2616,-0.0587 -0.35826,-0.0945 -0.16048,-0.0594 -0.27615,-0.16634 -0.34747,-0.32072 -0.07132,-0.15438 -0.1159,-0.37117 -0.13373,-0.6506 -0.01784,-0.27896 -0.02675,-0.6506 -0.02675,-1.11373 v -2.53786 l 0.63722,1.2416 c 0.08916,0.1708 0.16024,0.31509 0.21327,0.43287 0.05279,0.11801 0.09127,0.22758 0.11567,0.32917 0.02439,0.10182 0.04058,0.20928 0.0488,0.32307 0.008,0.11379 0.0122,0.25597 0.0122,0.42654 v 0.62174 z m 5.03092,1.50742 c 0.05278,-0.1464 0.10534,-0.30266 0.15836,-0.46924 0.05279,-0.16658 0.10159,-0.32917 0.1464,-0.48777 0.04458,-0.15837 0.07907,-0.29046 0.10371,-0.39627 -0.02464,-0.0565 -0.07133,-0.0931 -0.14031,-0.10957 -0.06921,-0.0162 -0.12387,-0.008 -0.1647,0.0244 -0.16259,0.31673 -0.31885,0.57693 -0.46924,0.7801 -0.15039,0.20341 -0.28248,0.33738 -0.39603,0.40237 -0.06523,0.0326 -0.1403,0.0608 -0.2257,0.0852 -0.08517,0.0244 -0.18699,0.0427 -0.30477,0.0549 -0.11777,0.0122 -0.25996,0.0225 -0.42653,0.0305 -0.16658,0.008 -0.36788,0.0122 -0.60344,0.0122 -0.26817,0 -0.48965,-0.008 -0.66444,-0.0244 -0.17479,-0.0162 -0.31486,-0.0366 -0.42043,-0.0608 -0.10582,-0.0246 -0.1891,-0.053 -0.24987,-0.0854 -0.061,-0.0324 -0.10793,-0.069 -0.14031,-0.1098 -0.0976,-0.10558 -0.16048,-0.26207 -0.18887,-0.46924 -0.02862,-0.2074 -0.0427,-0.47346 -0.0427,-0.79864 v -0.80451 c 0.0019,-0.11144 0.0052,-0.20998 0.0099,-0.29444 0.008,-0.15016 0.03027,-0.29046 0.06687,-0.42044 0.03659,-0.12998 0.09337,-0.2684 0.1708,-0.41457 0.0183,-0.035 0.03894,-0.0727 0.06077,-0.11238 0.02933,-9.4e-4 0.05982,-10e-4 0.09385,-10e-4 h 0.70714 c 0.23556,0 0.42865,0.004 0.57903,0.0122 0.15015,0.008 0.27005,0.0242 0.35967,0.0486 0.12177,0.0326 0.20905,0.0896 0.26207,0.1708 0.05279,0.0812 0.09127,0.17878 0.11591,0.29257 l 0.10956,0.47534 c 0.03238,0.0408 0.08728,0.0589 0.16447,0.0549 0.07718,-0.004 0.1281,-0.0263 0.1525,-0.0671 0,-0.13819 -0.0082,-0.31275 -0.0244,-0.52414 -0.01642,-0.21139 -0.0244,-0.42677 -0.0244,-0.64614 0,-0.23556 0.008,-0.46314 0.0244,-0.6825 0.01619,-0.2196 0.0244,-0.40237 0.0244,-0.54877 -0.0244,-0.0403 -0.07532,-0.0629 -0.1525,-0.0671 -0.07719,-0.004 -0.13209,0.0143 -0.16447,0.0549 l -0.09737,0.49997 c -0.03261,0.15438 -0.07132,0.25808 -0.1159,0.31087 -0.04481,0.0528 -0.1037,0.0913 -0.17667,0.11567 -0.0732,0.0244 -0.19943,0.0427 -0.37797,0.0549 -0.17901,0.0122 -0.39839,0.0183 -0.65834,0.0183 h -0.55089 c 0.0042,-0.007 0.008,-0.0131 0.0122,-0.0202 l 0.76791,-1.32864 c 0.15414,-0.26019 0.29445,-0.50185 0.42067,-0.72544 0.12576,-0.22336 0.24987,-0.42067 0.37163,-0.59124 0.12201,-0.17057 0.24776,-0.30876 0.37798,-0.41434 0.02698,-0.0218 0.05467,-0.0415 0.08306,-0.0601 0.08258,0.0328 0.15531,0.0716 0.21796,0.11684 0.10159,0.073 0.18464,0.15837 0.24987,0.25597 0.06499,0.0974 0.11777,0.20717 0.1586,0.32893 0.04035,0.122 0.08517,0.2562 0.13397,0.40237 0.03238,0.0408 0.0854,0.057 0.1586,0.0488 0.07297,-0.008 0.12176,-0.0324 0.14616,-0.0732 -0.01642,-0.12998 -0.0305,-0.27826 -0.04247,-0.44483 -0.01243,-0.16658 -0.02674,-0.32917 -0.04293,-0.48754 -0.01619,-0.1586 -0.03754,-0.30008 -0.05467,-0.42677 -0.04247,-0.31345 -0.03285,-0.58115 -0.03285,-0.58115 0,-0.61752 -0.17525,-1.15737 -0.44272,-1.60925 -0.26723,-0.45141 -0.60907,-0.80779 -1.02481,-1.06915 -0.41597,-0.26137 -0.90304,-0.44554 -1.46143,-0.55253 -0.55863,-0.10699 -1.21204,-0.16048 -1.96047,-0.16048 -0.74867,0 -1.40536,0.009 -1.96938,0.0267 -0.56449,0.0178 -1.08441,0.0565 -1.55974,0.1159 -0.07109,0.0357 -0.10981,0.10417 -0.11567,0.20482 -0.0061,0.10112 0.02041,0.18136 0.08024,0.24072 l 0.64145,0.0713 c 0.202,0.0239 0.35919,0.0624 0.47252,0.1159 0.11262,0.0533 0.19591,0.15133 0.2494,0.29398 0.05349,0.14265 0.08611,0.33269 0.09807,0.57036 0.01173,0.23767 0.01783,0.54666 0.01783,0.92674 v 6.57681 c 0,0.46314 -0.0061,0.83477 -0.01783,1.11373 -0.01196,0.27943 -0.05349,0.49622 -0.12482,0.6506 -0.07132,0.15438 -0.1783,0.26137 -0.32072,0.32072 -0.14265,0.0596 -0.34489,0.10699 -0.60601,0.14265 l -0.37445,0.0535 c -0.0542,0.0542 -0.07837,0.12834 -0.0732,0.22171 -4.7e-4,0.19074 -0.0026,0.25128 -0.0066,0.46619 -0.0042,0.24611 -0.01549,0.52109 -0.03355,0.82539 0.01806,0.0448 0.06922,0.0716 0.15438,0.0807 0.08493,0.009 0.14546,-0.009 0.18136,-0.0537 l 0.04012,-0.28201 c 0.02699,-0.19684 0.06264,-0.34888 0.10746,-0.4561 0.04481,-0.10746 0.12529,-0.18793 0.24166,-0.24166 0.11613,-0.0537 0.27943,-0.0854 0.48989,-0.0943 0.21022,-0.009 0.48988,-0.0131 0.83899,-0.0131 h 1.69113 c 0.07156,0 0.12763,0.004 0.16799,0.0131 0.04012,0.009 0.06921,0.0338 0.08704,0.0741 0.01783,0.0401 0.02909,0.10276 0.03378,0.18769 0.0042,0.0852 0.0066,0.20341 0.0066,0.35568 0,0.26864 -0.03355,0.46994 -0.10065,0.60414 -0.0671,0.1342 -0.17667,0.25057 -0.32894,0.34911 -0.15226,0.10746 -0.32002,0.21913 -0.50325,0.3355 -0.1837,0.11614 -0.36718,0.23251 -0.55042,0.34888 -0.18347,0.11637 -0.36014,0.22828 -0.53023,0.33574 -0.1701,0.10722 -0.31767,0.20576 -0.44296,0.29515 -0.3402,0.24166 -0.61986,0.46759 -0.839,0.67805 -0.21913,0.21022 -0.39134,0.42278 -0.51663,0.63746 -0.12552,0.21468 -0.21257,0.44061 -0.26183,0.67781 -0.04903,0.2372 -0.07367,0.4988 -0.07367,0.78527 0,0.25949 0.02229,0.45657 0.06687,0.59053 0.02698,0.0359 0.06053,0.0516 0.10088,0.0472 0.04012,-0.005 0.06922,-0.0249 0.08728,-0.0605 0.01759,-0.17901 0.06029,-0.34888 0.1274,-0.50982 0.0671,-0.16118 0.14969,-0.30008 0.24846,-0.41621 0.18793,-0.23274 0.40026,-0.45187 0.63746,-0.65787 0.23696,-0.20576 0.4988,-0.41598 0.78526,-0.63089 0.28623,-0.21468 0.60837,-0.43616 0.9664,-0.6642 0.35779,-0.22828 0.75171,-0.47674 1.1813,-0.74515 0.05372,-0.0359 0.10933,-0.065 0.16775,-0.0873 0.05795,-0.0225 0.10956,-0.0157 0.15438,0.0202 0.06241,0.16986 0.15649,0.35122 0.28177,0.54361 0.12528,0.19239 0.27967,0.37375 0.46314,0.54384 0.18347,0.16986 0.39815,0.31063 0.64426,0.42278 0.24612,0.11168 0.53024,0.16775 0.85237,0.16775 0.4744,0 0.86363,-0.10534 1.16793,-0.31556 0.30406,-0.21022 0.54126,-0.47651 0.71136,-0.79864 0.16986,-0.31321 0.27967,-0.65998 0.32894,-1.04006 0.04903,-0.38055 0.07554,-0.78104 0.07367,-1.20171 -0.0033,-0.7794 0.13702,-1.27538 0.13702,-1.27538"
         fill="#e6e5e5"
         id="path132" />
    </g>
    <g
       id="g156">
      <path
         d="m 32.70898,7.11523 h 2.72949 c 2.21973,0 4.02051,1.76758 4.02051,3.93359 0,2.16504 -1.80078,3.93262 -4.02051,3.93262 h -2.72949 z m 4.85059,3.93359 c 0,-1.11621 -0.9502,-2.04395 -2.12109,-2.04395 h -0.8291 v 4.08789 h 0.8291 c 1.1709,0 2.12109,-0.92871 2.12109,-2.04395 z"
         fill="#252626"
         id="path136" />
      <path
         d="m 46.52734,13.19141 h -2.20996 l -0.69531,1.79004 h -2.0332 l 3.02734,-7.86621 h 1.61328 l 3.03711,7.86621 h -2.06543 z m -1.10449,-3.02637 -0.37598,1.14844 h 0.74023 l -0.36426,-1.14844 z"
         fill="#252626"
         id="path138" />
      <path
         d="m 59.15332,14.98145 h -2.28711 l -2.60742,-3.40234 h -0.17676 v 3.40234 H 52.21484 V 7.11523 h 2.88379 c 0.57422,0 1.11523,0.23242 1.51367,0.62988 0.39746,0.40918 0.62891,1.02734 0.62891,1.60254 0,0.75098 -0.36426,1.48047 -0.94922,1.85547 l 2.86133,3.77832 z M 54.08203,9.70118 h 1.0166 c 0.1543,0 0.26465,-0.19922 0.26465,-0.35352 0,-0.15527 -0.11035,-0.35352 -0.26465,-0.35352 h -1.0166 v 0.70703 z"
         fill="#252626"
         id="path140" />
      <path
         d="m 64.8291,11.29199 c -0.26562,0.24316 -0.54199,0.51855 -0.8623,0.81738 v 2.87207 H 62.06641 V 7.11523 h 1.90039 v 2.39746 l 2.55176,-2.39746 h 2.76172 l -3.01562,2.85059 c 1.08301,1.51367 2.58496,3.6123 3.5791,5.01562 h -2.38574 l -2.62891,-3.68945 z"
         fill="#252626"
         id="path142" />
      <path
         d="m 77.90527,7.11523 h 5.3584 v 1.87891 h -3.43652 v 0.67383 h 3.00586 v 1.91113 h -3.00586 v 1.50195 h 3.35938 v 1.90039 H 77.90528 V 7.11523 Z"
         fill="#252626"
         id="path144" />
      <path
         d="m 88.81934,10.77246 v 4.20898 H 86.89649 V 7.11523 h 1.75684 l 2.81641,4.1875 v -4.1875 h 1.92285 v 7.86621 h -1.74512 l -2.82812,-4.20898 z"
         fill="#252626"
         id="path146" />
      <path
         d="m 97.21289,7.11523 h 5.3584 v 1.87891 h -3.43555 v 0.67383 h 3.00391 v 1.91113 h -3.00391 v 1.50195 h 3.35742 v 1.90039 h -5.28027 z"
         fill="#252626"
         id="path148" />
      <path
         d="m 113.08594,14.98145 h -2.28711 l -2.60742,-3.40234 h -0.17676 v 3.40234 h -1.86719 V 7.11523 h 2.88379 c 0.57422,0 1.11523,0.23242 1.51367,0.62988 0.39746,0.40918 0.62988,1.02734 0.62988,1.60254 0,0.75098 -0.36523,1.48047 -0.9502,1.85547 l 2.86133,3.77832 z m -5.07129,-5.28027 h 1.0166 c 0.1543,0 0.26465,-0.19922 0.26465,-0.35352 0,-0.15527 -0.11035,-0.35352 -0.26465,-0.35352 h -1.0166 v 0.70703 z"
         fill="#252626"
         id="path150" />
      <path
         d="m 115.00586,10.98242 c 0,-2.26465 1.84473,-4.10938 4.10938,-4.10938 1.10449,0 2.14355,0.43066 2.91602,1.21484 l 0.36523,0.37598 -1.37012,1.19238 -0.32031,-0.30859 c -0.43066,-0.41992 -0.99414,-0.65234 -1.59082,-0.65234 -1.25977,0 -2.28711,1.02734 -2.28711,2.28711 0,1.27051 1.02734,2.29785 2.28711,2.29785 0.60742,0 1.16016,-0.23242 1.59082,-0.65234 v -0.97168 h -2.0332 V 9.83301 h 3.85547 v 3.44727 l -0.0879,0.13281 c -0.7959,1.06055 -2.04395,1.68945 -3.3252,1.68945 -2.26465,0 -4.10938,-1.84473 -4.10938,-4.12012 z"
         fill="#252626"
         id="path152" />
      <path
         d="m 128.01758,11.16992 c -0.80664,-1.1377 -2.14258,-2.97168 -2.90527,-4.05469 h 2.35352 l 1.5127,2.11035 1.51367,-2.11035 h 2.3418 l -2.89355,4.05469 v 3.81152 h -1.92285 v -3.81152 z"
         fill="#252626"
         id="path154" />
    </g>
    <g
       id="g200">
      <path
         d="m 37.01172,22.54004 c -0.16016,-0.72266 -0.60156,-1.16309 -1.37109,-1.16309 -1.13477,0 -1.69727,1.03223 -1.69727,2.06445 0,1.03222 0.5625,2.06445 1.69727,2.06445 0.73242,0 1.33398,-0.57227 1.4082,-1.37988 h 0.5918 c -0.16016,1.16406 -0.91992,1.87695 -2,1.87695 -1.48242,0 -2.28906,-1.17285 -2.28906,-2.56152 0,-1.38867 0.80664,-2.5625 2.28906,-2.5625 1.0332,0 1.83008,0.55371 1.96289,1.66113 h -0.5918 z"
         fill="#252626"
         id="path158" />
      <path
         d="m 42.80469,23.44141 c 0,1.38867 -0.80664,2.56152 -2.29102,2.56152 -1.48242,0 -2.28906,-1.17285 -2.28906,-2.56152 0,-1.38867 0.80664,-2.5625 2.28906,-2.5625 1.48438,0 2.29102,1.17383 2.29102,2.5625 z m -3.98828,0 c 0,1.03223 0.5625,2.06445 1.69727,2.06445 1.13672,0 1.69922,-1.03223 1.69922,-2.06445 0,-1.03222 -0.5625,-2.06445 -1.69922,-2.06445 -1.13477,0 -1.69727,1.03223 -1.69727,2.06445 z"
         fill="#252626"
         id="path160" />
      <path
         d="m 43.68945,21.02051 h 0.54297 v 0.81641 h 0.0293 c 0.30859,-0.58203 0.81641,-0.95801 1.58594,-0.95801 0.63672,0 1.20898,0.31055 1.38867,0.94824 0.29102,-0.6377 0.90039,-0.94824 1.53906,-0.94824 1.06055,0 1.60352,0.55371 1.60352,1.69922 v 3.28418 h -0.58984 v -3.25586 c 0,-0.79785 -0.30078,-1.22949 -1.14648,-1.22949 -1.02148,0 -1.3125,0.84473 -1.3125,1.74512 v 2.74023 h -0.5918 v -3.28418 c 0.0098,-0.65723 -0.26172,-1.20117 -1.01367,-1.20117 -1.02344,0 -1.43555,0.76953 -1.44531,1.78223 v 2.70312 h -0.58984 v -4.8418 z"
         fill="#252626"
         id="path162" />
      <path
         d="m 51.50977,21.02051 h 0.54297 v 0.91895 h 0.01953 c 0.27148,-0.65625 0.94727,-1.06055 1.72656,-1.06055 1.47266,0 2.17773,1.19238 2.17773,2.5625 0,1.37012 -0.70508,2.56152 -2.17773,2.56152 -0.72266,0 -1.42578,-0.36621 -1.67969,-1.06055 h -0.01953 v 2.71191 H 51.50977 V 21.0205 Z m 2.28906,0.35645 c -1.30469,0 -1.69922,0.96582 -1.69922,2.06445 0,1.00391 0.44141,2.06445 1.69922,2.06445 1.125,0 1.58594,-1.06055 1.58594,-2.06445 0,-1.0039 -0.46094,-2.06445 -1.58594,-2.06445 z"
         fill="#252626"
         id="path164" />
      <path
         d="m 56.90625,19.16211 h 0.5918 v 6.7002 h -0.5918 z"
         fill="#252626"
         id="path166" />
      <path
         d="m 58.98242,23.60059 c 0.0098,0.86328 0.45898,1.90527 1.5957,1.90527 0.86328,0 1.33203,-0.50684 1.51953,-1.23926 h 0.5918 c -0.25391,1.09863 -0.89258,1.73633 -2.11133,1.73633 -1.53906,0 -2.1875,-1.18262 -2.1875,-2.56152 0,-1.27637 0.64844,-2.5625 2.1875,-2.5625 1.55664,0 2.17578,1.36133 2.12891,2.72168 z m 3.13477,-0.49707 c -0.0293,-0.8916 -0.58203,-1.72656 -1.53906,-1.72656 -0.9668,0 -1.50195,0.84473 -1.5957,1.72656 h 3.13477 z"
         fill="#252626"
         id="path168" />
      <path
         d="M 64.83008,23.34766 63.0957,21.02051 h 0.74023 l 1.37891,1.83887 1.35156,-1.83887 h 0.74219 l -1.74609,2.31738 1.88672,2.52441 h -0.75 l -1.52148,-2.03613 -1.49219,2.03613 h -0.73047 l 1.875,-2.51465 z"
         fill="#252626"
         id="path170" />
      <path
         d="m 70.63477,21.02051 h 0.54297 v 1.13477 h 0.01953 c 0.30078,-0.77832 0.95703,-1.23828 1.83008,-1.20117 v 0.5918 c -1.07031,-0.05664 -1.80273,0.73145 -1.80273,1.73535 v 2.58105 h -0.58984 v -4.8418 z"
         fill="#252626"
         id="path172" />
      <path
         d="m 73.5918,21.02051 h 0.54297 v 0.81641 h 0.0293 c 0.30859,-0.58203 0.81641,-0.95801 1.58594,-0.95801 0.63672,0 1.20898,0.31055 1.38867,0.94824 0.29102,-0.6377 0.90039,-0.94824 1.53906,-0.94824 1.06055,0 1.60352,0.55371 1.60352,1.69922 v 3.28418 h -0.58984 v -3.25586 c 0,-0.79785 -0.30078,-1.22949 -1.14648,-1.22949 -1.02148,0 -1.3125,0.84473 -1.3125,1.74512 v 2.74023 h -0.5918 v -3.28418 c 0.0098,-0.65723 -0.26172,-1.20117 -1.01367,-1.20117 -1.02344,0 -1.43555,0.76953 -1.44531,1.78223 v 2.70312 h -0.58984 v -4.8418 z"
         fill="#252626"
         id="path174" />
      <path
         d="m 85.88867,21.51758 h -0.95703 v 4.34473 h -0.5918 v -4.34473 h -0.82422 v -0.49707 h 0.82422 V 20.5791 c -0.0078,-0.83496 0.22656,-1.41699 1.17383,-1.41699 0.16797,0 0.31055,0.0098 0.49805,0.03711 v 0.50684 c -0.16016,-0.02832 -0.29102,-0.04688 -0.43164,-0.04688 -0.6582,0 -0.63867,0.41309 -0.64844,0.93848 v 0.42285 h 0.95703 z"
         fill="#252626"
         id="path176" />
      <path
         d="m 86.45312,21.02051 h 0.54492 v 0.81641 h 0.02734 c 0.31055,-0.58203 0.81641,-0.95801 1.58594,-0.95801 0.63867,0 1.21094,0.31055 1.38867,0.94824 0.29102,-0.6377 0.90039,-0.94824 1.53906,-0.94824 1.06055,0 1.60547,0.55371 1.60547,1.69922 v 3.28418 h -0.5918 v -3.25586 c 0,-0.79785 -0.30078,-1.22949 -1.14453,-1.22949 -1.02344,0 -1.31445,0.84473 -1.31445,1.74512 v 2.74023 H 89.5039 v -3.28418 c 0.0078,-0.65723 -0.26367,-1.20117 -1.01367,-1.20117 -1.02344,0 -1.43555,0.76953 -1.44531,1.78223 v 2.70312 h -0.5918 z"
         fill="#252626"
         id="path178" />
      <path
         d="m 101.21875,23.44141 c 0,1.38867 -0.80664,2.56152 -2.28906,2.56152 -1.48242,0 -2.28906,-1.17285 -2.28906,-2.56152 0,-1.38867 0.80664,-2.5625 2.28906,-2.5625 1.48242,0 2.28906,1.17383 2.28906,2.5625 z m -3.98828,0 c 0,1.03223 0.56445,2.06445 1.69922,2.06445 1.13477,0 1.69922,-1.03223 1.69922,-2.06445 0,-1.03222 -0.56445,-2.06445 -1.69922,-2.06445 -1.13477,0 -1.69922,1.03223 -1.69922,2.06445 z"
         fill="#252626"
         id="path180" />
      <path
         d="m 105.00391,22.4375 c -0.0293,-0.73242 -0.5918,-1.06055 -1.26758,-1.06055 -0.52539,0 -1.14453,0.20605 -1.14453,0.83496 0,0.52539 0.59961,0.71289 1.00391,0.81641 l 0.78906,0.17871 c 0.67578,0.10254 1.37891,0.49707 1.37891,1.3418 0,1.05078 -1.04102,1.4541 -1.94336,1.4541 -1.125,0 -1.89453,-0.52539 -1.98828,-1.70801 h 0.58984 c 0.0469,0.79785 0.63867,1.21094 1.42773,1.21094 0.55273,0 1.32227,-0.24414 1.32227,-0.91992 0,-0.5625 -0.52539,-0.75098 -1.06055,-0.88184 l -0.75977,-0.16895 C 102.58203,23.32812 102,23.06542 102,22.24023 c 0,-0.98535 0.9668,-1.36133 1.82031,-1.36133 0.9668,0 1.73633,0.50684 1.77344,1.55859 h -0.58984 z"
         fill="#252626"
         id="path182" />
      <path
         d="m 110.03516,22.54004 c -0.16016,-0.72266 -0.60156,-1.16309 -1.37109,-1.16309 -1.13477,0 -1.69727,1.03223 -1.69727,2.06445 0,1.03222 0.5625,2.06445 1.69727,2.06445 0.73242,0 1.33398,-0.57227 1.4082,-1.37988 h 0.5918 c -0.16016,1.16406 -0.91992,1.87695 -2,1.87695 -1.48242,0 -2.28906,-1.17285 -2.28906,-2.56152 0,-1.38867 0.80664,-2.5625 2.28906,-2.5625 1.0332,0 1.83008,0.55371 1.96289,1.66113 h -0.5918 z"
         fill="#252626"
         id="path184" />
      <path
         d="m 111.50195,19.16211 h 0.5918 v 0.94727 h -0.5918 z m 0,1.8584 h 0.5918 v 4.8418 h -0.5918 z"
         fill="#252626"
         id="path186" />
      <path
         d="m 113.23828,19.16211 h 0.5918 v 6.7002 h -0.5918 z"
         fill="#252626"
         id="path188" />
      <path
         d="m 114.97656,19.16211 h 0.5918 v 6.7002 h -0.5918 z"
         fill="#252626"
         id="path190" />
      <path
         d="m 116.64844,22.50293 c 0.0566,-1.13574 0.85352,-1.62402 1.96094,-1.62402 0.85352,0 1.7832,0.2627 1.7832,1.55859 v 2.57129 c 0,0.22461 0.11133,0.35645 0.34766,0.35645 0.0644,0 0.14062,-0.01953 0.1875,-0.03809 v 0.49805 c -0.13281,0.02734 -0.22656,0.03711 -0.38477,0.03711 -0.60156,0 -0.69531,-0.33789 -0.69531,-0.84473 h -0.0195 c -0.41211,0.62891 -0.83398,0.98535 -1.76367,0.98535 -0.89062,0 -1.62305,-0.44141 -1.62305,-1.41699 0,-1.36035 1.32227,-1.40723 2.59961,-1.55762 0.48828,-0.05664 0.75977,-0.12207 0.75977,-0.65723 0,-0.79688 -0.57227,-0.99414 -1.26758,-0.99414 -0.73047,0 -1.27539,0.33789 -1.29492,1.12598 h -0.58984 z m 3.15234,0.71289 h -0.0195 c -0.0742,0.14062 -0.33789,0.1875 -0.49609,0.21582 -1.00391,0.17871 -2.25195,0.16895 -2.25195,1.11719 0,0.59082 0.52539,0.95703 1.07812,0.95703 0.90039,0 1.69922,-0.57227 1.68945,-1.52051 z"
         fill="#252626"
         id="path192" />
      <path
         d="M 122.51562,21.02051 H 123.5 v 0.49707 h -0.98438 v 3.26562 c 0,0.38477 0.0566,0.61035 0.47852,0.6377 0.16992,0 0.33789,-0.0088 0.50586,-0.02734 v 0.50586 c -0.17773,0 -0.3457,0.01953 -0.52539,0.01953 -0.78711,0 -1.06055,-0.2627 -1.05078,-1.08887 v -3.3125 h -0.84375 v -0.49707 h 0.84375 v -1.45508 h 0.5918 v 1.45508 z"
         fill="#252626"
         id="path194" />
      <path
         d="m 128.69141,23.44141 c 0,1.38867 -0.80664,2.56152 -2.28906,2.56152 -1.48242,0 -2.28906,-1.17285 -2.28906,-2.56152 0,-1.38867 0.80664,-2.5625 2.28906,-2.5625 1.48242,0 2.28906,1.17383 2.28906,2.5625 z m -3.98828,0 c 0,1.03223 0.56445,2.06445 1.69922,2.06445 1.13477,0 1.69922,-1.03223 1.69922,-2.06445 0,-1.03222 -0.56445,-2.06445 -1.69922,-2.06445 -1.13477,0 -1.69922,1.03223 -1.69922,2.06445 z"
         fill="#252626"
         id="path196" />
      <path
         d="m 129.57617,21.02051 h 0.54492 v 1.13477 h 0.0176 c 0.30078,-0.77832 0.95703,-1.23828 1.83008,-1.20117 v 0.5918 c -1.07031,-0.05664 -1.80078,0.73145 -1.80078,1.73535 v 2.58105 h -0.5918 z"
         fill="#252626"
         id="path198" />
    </g>
    <line
       x1="30.961981"
       y1="247.62445"
       x2="30.961981"
       y2="171.76091"
       fill="none"
       stroke="#252626"
       stroke-linecap="round"
       stroke-linejoin="round"
       stroke-width="1.5"
       id="line202" />
    <path
       d="m 30.96198,256.74934 v 50.54236 c 0,4.66558 4.37021,7.97913 4.37021,7.97913"
       fill="none"
       stroke="#252626"
       stroke-linecap="round"
       stroke-linejoin="round"
       stroke-width="1.5"
       id="path204" />
    <line
       x1="134.01337"
       y1="247.62445"
       x2="134.01337"
       y2="171.76091"
       fill="none"
       stroke="#252626"
       stroke-linecap="round"
       stroke-linejoin="round"
       stroke-width="1.5"
       id="line206" />
    <g
       id="g218">
      <path
         d="m 114.51367,362.4082 c -0.14844,-0.25098 -0.24805,-0.52539 -0.29297,-0.81445 -0.0518,-0.29199 -0.041,-0.58594 0.0322,-0.87012 0.0654,-0.29785 0.18848,-0.57031 0.37207,-0.82031 0.73242,-1.00781 2.15527,-1.22754 3.16309,-0.49414 0.28418,0.20703 0.51953,0.48438 0.67676,0.79395 0.16113,0.30566 0.24805,0.66211 0.25,1.00977 l 0.008,0.15527 -0.80859,0.006 -0.003,-0.15234 c -0.003,-0.45996 -0.2207,-0.88281 -0.59863,-1.1582 -0.64941,-0.47266 -1.56348,-0.33398 -2.03418,0.31543 -0.47656,0.65332 -0.33301,1.57031 0.31543,2.04297 0.375,0.27148 0.84375,0.35059 1.28711,0.21484 l 0.1416,-0.04 0.24219,0.7627 -0.14941,0.041 c -0.34082,0.10547 -0.68848,0.12988 -1.03809,0.0723 -0.34277,-0.0557 -0.6709,-0.19531 -0.9541,-0.40332 -0.24609,-0.17871 -0.45215,-0.40234 -0.60938,-0.66113 z"
         fill="#252626"
         id="path208" />
      <path
         d="m 121.74316,365.96387 0.6084,-4.27637 2.80957,0.39941 -0.11133,0.78711 -2.01172,-0.28613 -0.0908,0.63086 1.1123,0.15723 -0.1123,0.79297 -1.11133,-0.1582 -0.29395,2.06543 -0.79883,-0.1123 z"
         fill="#252626"
         id="path210" />
      <path
         d="m 128.7793,366.04883 -1.78711,-1.90039 -0.34473,0.0449 0.26562,2.0918 -0.78027,0.0996 -0.54492,-4.2832 1.53418,-0.19434 c 0.28809,-0.0371 0.57324,0.043 0.81055,0.22656 0.23731,0.18359 0.38672,0.44043 0.42285,0.72949 0.0547,0.42676 -0.14941,0.84277 -0.49902,1.07129 l 1.87305,1.99219 z m -1.47852,-2.7334 c 0.16797,-0.0215 0.29492,-0.17871 0.27344,-0.35449 -0.0225,-0.17285 -0.18555,-0.29395 -0.35352,-0.27246 l -0.75195,0.0967 0.0791,0.625 z"
         fill="#252626"
         id="path212" />
      <path
         d="m 131.00586,365.49609 -1.61523,-4.00195 2.63672,-1.06445 0.29492,0.73047 -1.88281,0.75977 0.2373,0.59082 1.6416,-0.66309 0.30273,0.74805 -1.64258,0.66211 0.48145,1.19238 1.83203,-0.73926 0.2998,0.74219 -2.58594,1.04297 z"
         fill="#252626"
         id="path214" />
      <path
         d="m 133.68164,362.03516 c -0.80664,-0.95703 -0.68457,-2.38379 0.26758,-3.18457 0.23145,-0.19629 0.49805,-0.3418 0.78516,-0.43359 0.27832,-0.083 0.56934,-0.11426 0.86133,-0.0889 0.29785,0.0254 0.57617,0.10059 0.83496,0.23828 0.27344,0.13477 0.51172,0.32422 0.70605,0.55566 0.16504,0.19434 0.29688,0.41699 0.37988,0.65625 0.0732,0.19141 0.11719,0.38477 0.13379,0.58398 l 1.29199,0.11133 -0.87207,0.73535 -0.48828,-0.042 c -0.0498,0.19336 -0.13086,0.37988 -0.23145,0.55273 -0.13086,0.22168 -0.29883,0.41699 -0.49316,0.58203 -0.95117,0.80176 -2.375,0.68457 -3.17578,-0.2666 z m 0.62109,-0.52441 c 0.51562,0.6123 1.43066,0.69043 2.03809,0.17871 0.18555,-0.15625 0.3291,-0.36426 0.41309,-0.59375 l -1.53516,-0.12695 0.0732,-0.80664 1.53125,0.12988 c -0.0459,-0.23242 -0.15527,-0.45703 -0.31152,-0.64258 -0.52051,-0.61621 -1.43555,-0.69531 -2.04297,-0.18262 -0.60742,0.51172 -0.68652,1.42773 -0.16602,2.04395 z"
         fill="#252626"
         id="path216" />
    </g>
    <g
       id="g230">
      <path
         d="m 29.91113,363.56152 1.70215,-2.33887 -1.82129,0.58301 -9.8e-4,-1.91016 -1.70312,2.33789 -0.65332,-0.47461 2.54785,-3.49902 0.61328,0.44727 9.8e-4,1.99316 1.89551,-0.61133 0.61914,0.44922 -2.54688,3.49902 -0.65332,-0.47559 z"
         fill="#252626"
         id="path220" />
      <path
         d="m 35.9082,365.99805 0.56543,-4.28809 2.81934,0.37109 -0.10352,0.78906 -2.01855,-0.26562 -0.08301,0.63184 1.11426,0.14648 -0.10449,0.7959 -1.11523,-0.14746 -0.27246,2.07227 -0.80176,-0.10547 z"
         fill="#252626"
         id="path222" />
      <path
         d="m 42.9502,366.01465 -1.81055,-1.88477 -0.3418,0.0469 0.28613,2.09375 -0.7832,0.10742 -0.58594,-4.28516 1.5332,-0.20996 c 0.28906,-0.04 0.5752,0.0371 0.81543,0.21973 0.24023,0.18066 0.3916,0.43555 0.43066,0.72559 0.05859,0.42676 -0.1416,0.84668 -0.48926,1.0791 l 1.89648,1.97656 -0.95117,0.13086 z m -1.50879,-2.72363 c 0.16895,-0.0234 0.29492,-0.18164 0.27148,-0.35645 -0.02441,-0.17383 -0.18848,-0.29199 -0.35742,-0.26953 l -0.75195,0.10352 0.08594,0.625 z"
         fill="#252626"
         id="path224" />
      <path
         d="m 45.16113,365.44434 -1.65918,-3.99316 2.63086,-1.09277 0.30469,0.72852 -1.87988,0.78027 0.24512,0.58887 1.63672,-0.67969 0.31055,0.74609 -1.6377,0.67969 0.49414,1.19141 1.82715,-0.76074 0.30859,0.74121 -2.58105,1.07031 z"
         fill="#252626"
         id="path226" />
      <path
         d="m 47.8457,361.93262 c -0.81543,-0.94629 -0.70898,-2.37402 0.2334,-3.18555 0.22949,-0.19824 0.49414,-0.34766 0.78125,-0.44043 0.27637,-0.0869 0.56836,-0.12207 0.8584,-0.0996 0.2998,0.0225 0.57812,0.0947 0.83887,0.23047 0.27441,0.13184 0.51367,0.31738 0.71191,0.54785 0.16602,0.19238 0.2998,0.41309 0.38574,0.65234 0.0752,0.19043 0.12109,0.38184 0.14062,0.58203 l 1.29199,0.0957 -0.86328,0.74512 -0.48926,-0.0361 c -0.04785,0.19434 -0.12695,0.38086 -0.22461,0.55371 -0.12891,0.22363 -0.29395,0.42188 -0.48828,0.58789 -0.94141,0.81152 -2.36523,0.70898 -3.17676,-0.2334 z m 0.61523,-0.53027 c 0.52246,0.60645 1.43848,0.6748 2.04004,0.15625 0.18457,-0.15723 0.3252,-0.36621 0.40527,-0.59668 l -1.53516,-0.11035 0.06445,-0.80859 1.53027,0.11523 c -0.0459,-0.23242 -0.1582,-0.45508 -0.31641,-0.63867 -0.52637,-0.61133 -1.44238,-0.67969 -2.04395,-0.16211 -0.60156,0.51855 -0.6709,1.43457 -0.14453,2.04492 z"
         fill="#252626"
         id="path228" />
    </g>
    <g
       id="g242">
      <path
         d="m 33.05371,325.04688 1.25098,-2.28809 -0.14648,-0.3125 -1.9082,0.90137 -0.33594,-0.71191 3.90039,-1.84473 0.66016,1.39746 c 0.125,0.2627 0.13867,0.55859 0.03711,0.84082 -0.10156,0.28223 -0.29883,0.50293 -0.56152,0.62793 -0.38965,0.18359 -0.84863,0.11914 -1.17383,-0.14258 l -1.31152,2.39844 -0.41113,-0.86621 z m 2.13965,-2.25293 c 0.07227,0.1543 0.26074,0.22559 0.41992,0.15039 0.1582,-0.0752 0.22266,-0.2666 0.15039,-0.41992 l -0.32422,-0.68457 -0.56934,0.27051 0.32324,0.68359 z"
         fill="#252626"
         id="path232" />
      <path
         d="m 36.3418,329.36523 0.55859,-1.1123 -0.96484,-1.05664 -1.16211,0.45312 -0.58594,-0.64062 4.31055,-1.68555 0.49512,0.54199 -2.0625,4.14551 z m 0.93945,-1.88574 0.50391,-1.00391 -1.0459,0.41211 z"
         fill="#252626"
         id="path234" />
      <path
         d="m 38.50586,331.11035 1.95703,-2.93164 -0.88477,-0.58984 0.44629,-0.66797 2.44629,1.63281 -0.44531,0.66797 -0.88477,-0.58984 -1.95703,2.93066 z"
         fill="#252626"
         id="path236" />
      <path
         d="m 41.66797,332.87793 1.61914,-4.00781 0.75391,0.30469 -1.61914,4.00781 z"
         fill="#252626"
         id="path238" />
      <path
         d="m 44.4209,331.69824 c 0.16309,-1.24023 1.30371,-2.1123 2.53809,-1.94824 1.24219,0.16504 2.11523,1.30371 1.94922,2.54492 -0.16211,1.23535 -1.30273,2.10156 -2.54297,1.93652 -1.23438,-0.16309 -2.10938,-1.29688 -1.94434,-2.5332 z m 0.80762,0.10938 c -0.10645,0.79492 0.45312,1.52441 1.24219,1.62988 0.78906,0.10352 1.52051,-0.45508 1.625,-1.25 0.10547,-0.80078 -0.45312,-1.53223 -1.24219,-1.63574 -0.78906,-0.10547 -1.51953,0.45312 -1.625,1.25586 z"
         fill="#252626"
         id="path240" />
    </g>
    <g
       id="g264">
      <path
         d="m 44,177.00781 c 0.25586,-0.13867 0.53516,-0.22852 0.82422,-0.26367 0.29297,-0.0391 0.58594,-0.0176 0.86719,0.0664 0.29492,0.0762 0.56055,0.20898 0.80371,0.40039 0.97754,0.76758 1.14355,2.19531 0.37598,3.17383 -0.21777,0.27539 -0.50195,0.5 -0.81836,0.64453 -0.30957,0.15039 -0.66797,0.22266 -1.01562,0.21289 l -0.1543,0.002 0.02344,-0.80664 0.15234,0.004 c 0.46094,0.0137 0.88867,-0.18945 1.17773,-0.55664 0.49414,-0.62891 0.38965,-1.54492 -0.23926,-2.04102 -0.63574,-0.49805 -1.55566,-0.38672 -2.0498,0.24219 -0.28516,0.36133 -0.37988,0.82617 -0.26172,1.27539 l 0.0332,0.14258 -0.76953,0.21289 -0.03418,-0.15234 c -0.09277,-0.34375 -0.10449,-0.69141 -0.03418,-1.03711 0.06836,-0.33984 0.2207,-0.66016 0.4375,-0.9375 0.18652,-0.23828 0.41797,-0.43359 0.68164,-0.58203 z"
         fill="#252626"
         id="path244" />
      <path
         d="m 40.39062,183.40625 2.50586,-0.72656 0.11719,-0.32422 -1.98438,-0.7168 0.26758,-0.74023 4.06152,1.4668 -0.52637,1.45312 c -0.09766,0.27539 -0.29883,0.49219 -0.57031,0.61914 -0.27246,0.12891 -0.56836,0.14258 -0.8418,0.0449 -0.40527,-0.14648 -0.68359,-0.51758 -0.72754,-0.93359 l -2.62793,0.75977 0.32617,-0.90234 z m 3.10742,-0.0703 c -0.05859,0.16016 0.02344,0.3457 0.18945,0.4043 0.16504,0.0606 0.3457,-0.0293 0.4043,-0.18945 l 0.25781,-0.71289 -0.59375,-0.21484 -0.25781,0.71289 z"
         fill="#252626"
         id="path246" />
      <path
         d="m 42.00391,185.46484 c 1.24805,0.0625 2.20898,1.125 2.14551,2.36719 -0.06152,1.24805 -1.12598,2.20898 -2.37402,2.14648 -1.24219,-0.0625 -2.19727,-1.125 -2.13379,-2.37305 0.06348,-1.24219 1.11914,-2.20312 2.3623,-2.14062 z m -0.04102,0.8125 c -0.80078,-0.041 -1.48047,0.57422 -1.52148,1.36719 -0.03906,0.79492 0.57617,1.47656 1.37598,1.51758 0.80566,0.0391 1.4873,-0.57617 1.52637,-1.36914 0.04102,-0.79492 -0.5752,-1.47656 -1.38086,-1.51562 z"
         fill="#252626"
         id="path248" />
      <path
         d="m 40.21484,192.80469 c -0.0293,-0.45898 0.06836,-0.93945 0.29297,-1.39453 l 0.06934,-0.13867 0.72559,0.35938 -0.06934,0.13867 c -0.16309,0.33203 -0.24121,0.67383 -0.2207,0.98438 l 9.8e-4,0.004 c 0.0059,0.0937 0.01758,0.18555 0.04297,0.27344 0.03906,0.14648 0.10449,0.27344 0.1875,0.37109 0.0957,0.125 0.26953,0.25391 0.50977,0.18945 0.12891,-0.0352 0.21094,-0.125 0.25684,-0.2832 0.05566,-0.18945 0.04883,-0.42773 0.03613,-0.59375 -0.0078,-0.0742 -0.04492,-0.70508 0.0332,-1.02344 0.0625,-0.21094 0.16602,-0.38867 0.30273,-0.5332 0.14453,-0.14453 0.31836,-0.24414 0.52539,-0.29883 0.22168,-0.0586 0.46387,-0.0488 0.70508,0.0312 0.20508,0.082 0.39258,0.2207 0.54883,0.40625 0.1582,0.18359 0.27344,0.4043 0.3418,0.65625 0.02637,0.0996 0.04297,0.20898 0.05957,0.31836 0.03418,0.40625 -0.04004,0.83398 -0.23145,1.24414 l -0.06445,0.13672 -0.73828,-0.33594 0.06445,-0.13672 c 0.20703,-0.46484 0.18945,-0.8125 0.13281,-1.02344 -0.03516,-0.13477 -0.09766,-0.25 -0.17383,-0.34375 -0.11914,-0.14453 -0.29004,-0.21094 -0.43066,-0.17383 -0.12891,0.0352 -0.19727,0.10352 -0.24512,0.23633 -0.04492,0.13086 -0.05859,0.31836 -0.04492,0.60352 0.0039,0.0371 0.0049,0.0859 0.0059,0.13477 0.01953,0.25977 0.03711,0.60742 -0.03711,0.87305 -0.05273,0.22852 -0.15723,0.41992 -0.29883,0.57031 -0.1416,0.15234 -0.32617,0.25781 -0.53906,0.31641 -0.26367,0.0703 -0.51758,0.0625 -0.75391,-0.0254 -0.20508,-0.0781 -0.39941,-0.21875 -0.58203,-0.42773 -0.16016,-0.17773 -0.26855,-0.39453 -0.3457,-0.68164 -0.03711,-0.13477 -0.05664,-0.28125 -0.06641,-0.43359 z"
         fill="#252626"
         id="path250" />
      <path
         d="m 42.03125,197.33008 c -0.15137,-0.43164 -0.1875,-0.91797 -0.0957,-1.41797 l 0.0293,-0.15234 0.79492,0.14844 -0.03027,0.15234 c -0.06543,0.36328 -0.04785,0.71289 0.05566,1.00391 l 0.0029,0.006 c 0.03027,0.0879 0.06738,0.17188 0.1123,0.25 0.0791,0.13086 0.17578,0.23633 0.28223,0.30664 0.12598,0.0937 0.3291,0.16992 0.54199,0.043 0.11523,-0.0684 0.16992,-0.17773 0.1709,-0.3418 0.002,-0.19727 -0.06934,-0.42383 -0.12793,-0.58008 -0.02637,-0.0684 -0.2334,-0.66602 -0.24316,-0.99219 0.002,-0.2207 0.05273,-0.41992 0.14648,-0.5957 0.09766,-0.17969 0.23926,-0.32031 0.42285,-0.42773 0.19727,-0.11914 0.43359,-0.17383 0.68652,-0.16211 0.21973,0.0234 0.43848,0.10547 0.6377,0.24023 0.20117,0.13477 0.37305,0.31641 0.50586,0.53906 0.05371,0.0898 0.09961,0.18945 0.14453,0.29102 0.14258,0.38086 0.1875,0.8125 0.11523,1.25781 l -0.02539,0.14844 -0.80078,-0.12305 0.02441,-0.14844 c 0.0752,-0.50391 -0.03711,-0.83203 -0.14844,-1.01953 -0.07227,-0.12109 -0.16309,-0.21484 -0.26074,-0.2832 -0.15527,-0.10547 -0.33594,-0.125 -0.46094,-0.0508 -0.11523,0.0684 -0.16211,0.1543 -0.17188,0.29297 -0.0088,0.14062 0.0293,0.32227 0.11914,0.5918 0.01465,0.0352 0.0293,0.084 0.04297,0.13086 0.08887,0.24414 0.20117,0.57422 0.20117,0.84766 0.01172,0.23242 -0.03711,0.44727 -0.13281,0.63086 -0.0957,0.18359 -0.24414,0.33594 -0.43164,0.44727 -0.23535,0.14062 -0.48047,0.20117 -0.73242,0.18164 -0.2168,-0.0176 -0.44336,-0.10156 -0.6748,-0.25391 -0.20312,-0.12695 -0.36621,-0.30469 -0.51758,-0.56055 -0.07227,-0.11914 -0.12988,-0.25391 -0.18262,-0.40039 z"
         fill="#252626"
         id="path252" />
      <path
         d="m 46.73828,202.71484 2.52734,-3.50781 0.66016,0.47461 -2.52734,3.50781 z"
         fill="#252626"
         id="path254" />
      <path
         d="m 51.70117,205.37891 -0.71484,-3.34766 -1.06348,2.62695 -0.75488,-0.30469 1.62207,-4.00781 0.73145,0.29688 0.71191,3.33984 1.06152,-2.62305 0.75391,0.30469 -1.62109,4.00977 -0.72656,-0.29492 z"
         fill="#252626"
         id="path256" />
      <path
         d="m 54.55664,206.16211 0.29688,-4.31641 1.44727,0.0996 c 1.21875,0.084 2.14648,1.12109 2.06348,2.30859 -0.08105,1.1875 -1.14062,2.08984 -2.35938,2.00586 l -1.44824,-0.0977 z m 1.50293,-0.69531 c 0.77539,0.0527 1.44824,-0.51562 1.49902,-1.26758 0.05176,-0.75 -0.53711,-1.40625 -1.3125,-1.46094 l -0.6416,-0.043 -0.1875,2.72656 0.64258,0.0449 z"
         fill="#252626"
         id="path258" />
      <path
         d="m 59.94336,206.20117 -0.88477,-4.23438 2.78906,-0.58203 0.16016,0.77148 -1.99219,0.41602 0.13086,0.625 1.7373,-0.36328 0.16504,0.79102 -1.73633,0.36328 0.26367,1.26172 1.9375,-0.40625 0.16406,0.78516 -2.73438,0.57227 z"
         fill="#252626"
         id="path260" />
      <path
         d="m 66.96777,203.64453 -1.7373,-0.84766 -0.24219,1.92188 -0.87109,0.47266 0.3457,-2.76562 -2.2793,-1.10547 0.875,-0.47461 1.50879,0.72852 0.21094,-1.66016 0.87012,-0.47266 -0.31543,2.51172 2.50488,1.21875 -0.87012,0.47266 z"
         fill="#252626"
         id="path262" />
    </g>
    <g
       id="g284">
      <path
         d="m 103.78223,205.9082 c -0.42285,-0.17578 -0.80859,-0.47461 -1.11816,-0.87695 l -0.0937,-0.12305 0.64062,-0.49219 0.0937,0.12402 c 0.22656,0.29199 0.49902,0.5127 0.78516,0.63184 h 0.006 c 0.085,0.0352 0.17285,0.0644 0.26172,0.082 0.14844,0.0312 0.29102,0.0273 0.41504,-0.004 0.1543,-0.0312 0.34668,-0.12891 0.39551,-0.37305 0.0254,-0.13184 -0.0195,-0.24609 -0.14062,-0.35547 -0.14648,-0.13477 -0.3623,-0.23242 -0.5166,-0.29492 -0.0693,-0.0254 -0.65137,-0.26953 -0.90137,-0.48047 -0.16211,-0.14844 -0.27637,-0.32031 -0.3457,-0.50781 -0.0664,-0.19141 -0.0762,-0.39062 -0.0352,-0.60059 0.0449,-0.22559 0.16016,-0.43848 0.33984,-0.61816 0.16406,-0.14746 0.37109,-0.25586 0.60547,-0.31445 0.23438,-0.0586 0.48242,-0.0644 0.73926,-0.0137 0.10059,0.0195 0.20605,0.0527 0.30957,0.084 0.37988,0.15039 0.73047,0.4043 1.01367,0.75781 l 0.0947,0.11719 -0.62793,0.51367 -0.0937,-0.11719 c -0.32422,-0.3916 -0.64453,-0.5293 -0.85742,-0.57227 -0.13672,-0.0273 -0.26855,-0.0215 -0.38477,0.004 -0.18164,0.0459 -0.31738,0.16797 -0.3457,0.30957 -0.0254,0.13184 0.006,0.22363 0.10254,0.32324 0.0986,0.0996 0.25879,0.19336 0.52148,0.30859 0.0342,0.0127 0.0791,0.0332 0.125,0.0547 0.24023,0.0967 0.55957,0.23438 0.76465,0.41699 0.18164,0.14648 0.30664,0.32715 0.37988,0.52051 0.0732,0.19336 0.0869,0.40625 0.0449,0.62109 -0.0537,0.26758 -0.1709,0.49219 -0.35547,0.66602 -0.1582,0.14844 -0.37207,0.25977 -0.63965,0.33203 -0.22949,0.0644 -0.4707,0.0664 -0.76367,0.01 -0.13672,-0.0273 -0.27539,-0.0742 -0.41895,-0.13281 z"
         fill="#252626"
         id="path266" />
      <path
         d="m 107.59375,206.36328 -0.30762,-4.30664 2.83691,-0.20312 0.0557,0.78711 -2.02637,0.14453 0.0449,0.63477 1.7666,-0.12598 0.0576,0.80566 -1.76562,0.125 0.0918,1.28125 1.9707,-0.13965 0.0566,0.79785 -2.78125,0.19922 z"
         fill="#252626"
         id="path268" />
      <path
         d="m 112.09863,205.7832 -1.41602,-4.08594 0.76855,-0.26562 1.15625,3.33203 2.08203,-0.72168 0.25977,0.75195 -2.85059,0.98926 z"
         fill="#252626"
         id="path270" />
      <path
         d="m 116.29297,204.08398 -2.36719,-3.61133 2.375,-1.55664 0.43555,0.66504 -1.70117,1.11426 0.34961,0.53125 0.93945,-0.61523 0.43848,0.67188 -0.93848,0.61328 1.14258,1.74512 -0.67383,0.44238 z"
         fill="#252626"
         id="path272" />
      <path
         d="m 122.04492,198.88086 -3.56445,-2.43555 0.45898,-0.67188 3.56445,2.43652 -0.45898,0.6709 z"
         fill="#252626"
         id="path274" />
      <path
         d="m 124.58203,193.85156 -3.33203,0.80078 2.6582,0.99805 -0.28711,0.7627 -4.05078,-1.52148 0.27734,-0.73926 3.32422,-0.79688 -2.65137,-0.99609 0.28613,-0.76172 4.05078,1.52148 -0.27539,0.73242 z"
         fill="#252626"
         id="path276" />
      <path
         d="m 125.28711,190.98047 -4.31934,-0.17578 0.0596,-1.45117 c 0.0488,-1.21875 1.06055,-2.17383 2.25,-2.125 1.18945,0.0478 2.11914,1.08203 2.06934,2.30273 z m -0.73633,-1.48242 c 0.0322,-0.77539 -0.55469,-1.43359 -1.30664,-1.46289 -0.75293,-0.0312 -1.39062,0.57422 -1.42285,1.35156 l -0.0264,0.64258 2.73047,0.11133 z"
         fill="#252626"
         id="path278" />
      <path
         d="m 125.18945,185.63867 -4.20312,0.98535 -0.64844,-2.76758 0.7666,-0.18066 0.46387,1.97754 0.61914,-0.14648 -0.4043,-1.72168 0.78516,-0.18457 0.4043,1.72363 1.25098,-0.29395 -0.45117,-1.9248 0.77832,-0.18262 0.63867,2.71582 z"
         fill="#252626"
         id="path280" />
      <path
         d="m 122.45117,178.64062 -0.80078,1.75684 1.92383,0.19434 0.49219,0.85742 -2.76855,-0.27539 -1.04688,2.30273 -0.49609,-0.8623 0.69043,-1.52441 -1.66406,-0.16992 -0.49414,-0.85547 2.51758,0.25195 1.1543,-2.5332 0.49219,0.85742 z"
         fill="#252626"
         id="path282" />
    </g>
    <g
       id="g296">
      <path
         d="m 118.38086,334.25977 -1.63477,-2.03223 -0.34473,0.0166 0.10156,2.10547 -0.78613,0.0391 -0.20898,-4.31055 1.54297,-0.0742 c 0.29102,-0.0137 0.56934,0.0879 0.79102,0.28906 0.22168,0.20117 0.35059,0.46875 0.36426,0.75879 0.0215,0.43066 -0.21387,0.8291 -0.58105,1.03027 l 1.71191,2.13086 -0.95605,0.0469 z m -1.26172,-2.83984 c 0.16992,-0.008 0.30859,-0.1543 0.29883,-0.33008 -0.007,-0.17578 -0.16016,-0.30859 -0.32812,-0.29883 l -0.75781,0.0352 0.0312,0.63086 0.75586,-0.0371 z"
         fill="#252626"
         id="path286" />
      <path
         d="m 123.62793,332.87891 -0.8125,-0.94434 -1.34668,0.4873 -0.0254,1.24805 -0.81641,0.29492 0.0937,-4.62793 0.69043,-0.24902 3.03809,3.49414 z m -1.38184,-1.58984 -0.73438,-0.85156 -0.0195,1.12402 z"
         fill="#252626"
         id="path288" />
      <path
         d="m 126.06934,331.54785 -1.95605,-2.93066 -0.88574,0.58984 -0.44629,-0.66602 2.44629,-1.63477 0.44629,0.66797 -0.88477,0.59082 1.95801,2.93066 -0.67773,0.45215 z"
         fill="#252626"
         id="path290" />
      <path
         d="m 128.91406,329.30469 -3.08203,-3.03125 0.57129,-0.58008 3.08105,3.03223 z"
         fill="#252626"
         id="path292" />
      <path
         d="m 128.88086,326.30957 c -1.08301,-0.62598 -1.45117,-2.01465 -0.82715,-3.0918 0.62793,-1.08301 2.01465,-1.45215 3.09766,-0.8252 1.07812,0.625 1.44238,2.00781 0.81543,3.0918 -0.625,1.07812 -2.00781,1.45117 -3.08594,0.8252 z m 0.40918,-0.7041 c 0.69434,0.40234 1.58301,0.16602 1.98145,-0.52344 0.39844,-0.68946 0.16309,-1.57812 -0.53125,-1.97852 -0.69922,-0.40625 -1.58789,-0.16992 -1.9873,0.51953 -0.39941,0.68848 -0.16309,1.57812 0.53711,1.98242 z"
         fill="#252626"
         id="path294" />
    </g>
    <path
       d="m 134.02773,256.74934 v 50.54236 c 0,4.66558 -4.37021,7.97913 -4.37021,7.97913"
       fill="none"
       stroke="#252626"
       stroke-linecap="round"
       stroke-linejoin="round"
       stroke-width="1.5"
       id="path298" />
    <path
       d="M 30.34932,214.67095 C 38.8313,219.58792 57.63088,228.49678 82.5,228.49678"
       fill="none"
       stroke="#252626"
       stroke-linecap="round"
       stroke-linejoin="round"
       stroke-width="1.5"
       id="path300" />
    <path
       d="m 134.63268,214.67095 c -8.48198,4.91697 -27.28156,13.82583 -52.15068,13.82583"
       fill="none"
       stroke="#252626"
       stroke-linecap="round"
       stroke-linejoin="round"
       stroke-width="1.5"
       id="path302" />
    <g
       id="g312">
      <g
         id="g308">
        <circle
           cx="82.5"
           cy="69.940918"
           r="5.7393298"
           fill="#252626"
           id="circle304" />
        <path
           d="m 81.54785,66.88281 h 4.10742 v 1.43945 h -2.63379 v 0.5166 h 2.30371 v 1.46484 h -2.30371 v 1.15137 h 2.5752 v 1.45703 h -4.04883 v -6.0293 z"
           fill="#e5e5e5"
           id="path306" />
      </g>
      <rect
         x="78.032028"
         y="69.3284"
         width="2.49261"
         height="1.22505"
         fill="#e5e5e5"
         id="rect310" />
    </g>
    <path
       d="m 82.67286,127.03077 c -12.10264,0 -21.91376,9.81112 -21.91376,21.91376 0,7.56414 3.83247,14.23317 9.66156,18.17123"
       fill="none"
       stroke="#252626"
       stroke-linecap="round"
       stroke-linejoin="round"
       stroke-width="1.5"
       id="path314" />
    <path
       d="m 56.50335,155.17913 c 1.57878,6.64277 5.65946,12.32982 11.15078,16.03968"
       fill="none"
       stroke="#252626"
       stroke-linecap="round"
       stroke-linejoin="round"
       stroke-width="1.5"
       id="path316" />
    <path
       d="m 108.472,155.17913 c 2.72177,-10.02468 11.18286,-17.69164 21.64042,-19.2347"
       fill="none"
       stroke="#252626"
       stroke-linecap="round"
       stroke-linejoin="round"
       stroke-width="1.5"
       id="path318" />
    <path
       d="m 82.30249,127.03077 c 12.10264,0 21.91376,9.81112 21.91376,21.91376 0,7.56414 -3.83247,14.23317 -9.66156,18.17123"
       fill="none"
       stroke="#252626"
       stroke-linecap="round"
       stroke-linejoin="round"
       stroke-width="1.5"
       id="path320" />
    <use
       width="35.355412"
       height="35.34531"
       transform="translate(116.35513,144.44031)"
       xlink:href="#uuid-e12b139b-675c-414a-99b1-81f7fcb24d8e"
       id="use322"
       x="0"
       y="0" />
    <use
       width="35.355412"
       height="35.34531"
       transform="translate(13.28938,144.44031)"
       xlink:href="#uuid-e12b139b-675c-414a-99b1-81f7fcb24d8e"
       id="use324"
       x="0"
       y="0" />
    <circle
       cx="82.288727"
       cy="47.287441"
       r="15"
       fill="#252626"
       id="circle326" />
    <line
       x1="97.398041"
       y1="267.62869"
       x2="107.96277"
       y2="253.38445"
       fill="none"
       stroke="#252626"
       stroke-linecap="round"
       stroke-linejoin="round"
       stroke-width="1.5"
       id="line328" />
    <line
       x1="67.497482"
       y1="267.62869"
       x2="56.932751"
       y2="253.38445"
       fill="none"
       stroke="#252626"
       stroke-linecap="round"
       stroke-linejoin="round"
       stroke-width="1.5"
       id="line330" />
    <g
       id="g338">
      <line
         x1="82.5"
         y1="197.95227"
         x2="82.5"
         y2="197.95227"
         fill="none"
         stroke="#ff4257"
         stroke-linecap="round"
         stroke-miterlimit="10"
         stroke-width="1.657"
         id="line332" />
      <path
         d="m 80.04004,197.65479 c -1.18311,-0.30383 -2.31885,-0.83972 -3.33594,-1.6084"
         fill="none"
         stroke="#ff4257"
         stroke-dasharray="0, 0, 0, 2.48452"
         stroke-linecap="round"
         stroke-miterlimit="10"
         stroke-width="1.657"
         id="path334" />
      <line
         x1="75.763184"
         y1="195.23389"
         x2="75.763184"
         y2="195.23389"
         fill="none"
         stroke="#ff4257"
         stroke-linecap="round"
         stroke-miterlimit="10"
         stroke-width="1.657"
         id="line336" />
    </g>
    <path
       d="m 89.15208,195.12531 c -1.82861,1.85853 -4.23585,2.8024 -6.6521,2.82701"
       fill="none"
       stroke="#252626"
       stroke-linecap="round"
       stroke-linejoin="round"
       stroke-width="1.5"
       id="path340" />
    <line
       x1="107.5"
       y1="188.5"
       x2="82.672859"
       y2="227.99202"
       fill="none"
       stroke="#252626"
       stroke-linecap="round"
       stroke-linejoin="round"
       stroke-width="1.5"
       id="line342" />
    <line
       x1="82.351952"
       y1="149.27399"
       x2="57.5"
       y2="188.5"
       fill="none"
       stroke="#252626"
       stroke-linecap="round"
       stroke-linejoin="round"
       stroke-width="1.5"
       id="line344" />
    <line
       x1="70.584229"
       y1="108.54201"
       x2="57.5"
       y2="119.5"
       fill="none"
       stroke="#252626"
       stroke-linecap="round"
       stroke-linejoin="round"
       stroke-width="1.5"
       id="line346" />
    <g
       id="g354">
      <path
         d="m 107.96277,111.94815 c 0,-5.84162 4.73557,-10.5772 10.5772,-10.5772 5.84163,0 10.5772,4.73557 10.5772,10.5772 l 0.003,-4e-5 v 38.3389"
         fill="none"
         stroke="#252626"
         stroke-linecap="round"
         stroke-linejoin="round"
         stroke-width="1.5"
         id="path348" />
      <path
         d="m 107.96277,111.94815 c 0,-7.19759 5.8348,-13.03239 13.03239,-13.03239 7.19759,0 13.03239,5.8348 13.03239,13.03239 h -0.011 c 0,0 -0.003,28.59306 -0.003,28.59306 -11.92335,0 -21.58913,9.66578 -21.58913,21.58913 0,4.30914 1.26247,8.32341 3.43771,11.69311 l 18.87358,-11.69311"
         fill="none"
         stroke="#252626"
         stroke-linecap="round"
         stroke-linejoin="round"
         stroke-width="1.5"
         id="path350" />
      <path
         d="m 107.96277,111.94815 c 0,-8.5486 6.93001,-15.47862 15.47862,-15.47862 8.54861,0 15.47862,6.93001 15.47862,15.47862 h 0.003 v 19.9619"
         fill="none"
         stroke="#252626"
         stroke-linecap="round"
         stroke-linejoin="round"
         stroke-width="1.5"
         id="path352" />
    </g>
    <g
       id="g364">
      <path
         d="m 107.96277,117.01837 c 0,6.5939 5.40572,11.92523 12.02727,11.80408 6.49938,-0.11891 11.58497,-5.69514 11.58497,-12.19561 V 52.81445 c 0,-1.33748 -0.85541,-2.5215 -2.12976,-2.92758 -10.52102,-3.35262 -27.2259,-7.36034 -46.96475,-7.36034 -19.14856,0 -34.65458,3.7716 -44.53101,7.05793 -1.25446,0.41741 -2.09129,1.59278 -2.09129,2.91487 v 101.56961"
         fill="none"
         stroke="#252626"
         stroke-linecap="round"
         stroke-linejoin="round"
         stroke-width="1.5"
         id="path356" />
      <path
         d="m 107.96277,117.01837 c 0,8.10234 6.75887,14.62606 14.94601,14.24057 7.66818,-0.36105 13.56764,-6.96651 13.56764,-14.64318 V 59.50542 c 0,-1.29741 -0.80957,-2.4513 -2.02973,-2.89229 -9.68637,-3.50087 -28.72281,-9.05802 -51.96619,-9.05802 -22.79655,0 -40.43049,5.34554 -49.549,8.85389 -1.18906,0.45749 -1.96954,1.59602 -1.96954,2.87005 l 2e-5,81.26216 c 11.92335,0 21.58895,9.66578 21.58895,21.58913 0,4.30914 -1.26247,8.32341 -3.43771,11.69311 L 30.78398,162.13034"
         fill="none"
         stroke="#252626"
         stroke-linecap="round"
         stroke-linejoin="round"
         stroke-width="1.5"
         id="path358" />
      <path
         d="m 107.96277,117.01837 c 0,9.12071 7.30837,16.53445 16.38841,16.70454 9.36316,0.1754 17.02667,-7.77759 17.02667,-17.14239 V 66.56436 c 0,-1.23676 -0.73466,-2.35261 -1.87509,-2.83117 -6.39735,-2.68452 -28.55449,-11.02057 -57.02225,-11.02057 -28.33975,0 -48.70097,8.26125 -54.64208,10.98401 -1.08986,0.49947 -1.78306,1.59134 -1.78306,2.7902 v 69.63367 c 1.58998,-0.29809 3.22993,-0.45409 4.90644,-0.45409 12.21009,0 22.48883,8.26913 25.54155,19.51272"
         fill="none"
         stroke="#252626"
         stroke-linecap="round"
         stroke-linejoin="round"
         stroke-width="1.5"
         id="path360" />
      <path
         d="m 107.96277,117.01837 c 0,10.58081 8.57744,19.15825 19.15825,19.15825 10.58081,0 19.15825,-8.57744 19.15825,-19.15825 V 51"
         fill="none"
         stroke="#252626"
         stroke-linecap="round"
         stroke-linejoin="round"
         stroke-width="1.5"
         id="path362" />
    </g>
    <path
       d="m 108.472,155.17913 c -1.57878,6.64277 -5.65946,12.32982 -11.15078,16.03968 L 82.35195,149.27399"
       fill="none"
       stroke="#252626"
       stroke-linecap="round"
       stroke-linejoin="round"
       stroke-width="1.5"
       id="path366" />
    <path
       d="m 57.97991,253.38307 c -5.35581,3.14091 -10.06298,7.26849 -13.87192,12.13318"
       fill="none"
       stroke="#252626"
       stroke-linecap="round"
       stroke-linejoin="round"
       stroke-width="1.5"
       id="path368" />
    <path
       d="m 121.27746,265.32217 c -3.78214,-4.78092 -8.43567,-8.84087 -13.72077,-11.94004"
       fill="none"
       stroke="#252626"
       stroke-linecap="round"
       stroke-linejoin="round"
       stroke-width="1.5"
       id="path370" />
    <g
       id="g378">
      <line
         x1="82.5"
         y1="179.04773"
         x2="82.5"
         y2="179.04773"
         fill="none"
         stroke="#ff4257"
         stroke-linecap="round"
         stroke-miterlimit="10"
         stroke-width="1.657"
         id="line372" />
      <path
         d="m 80.04004,179.34521 c -1.18311,0.30383 -2.31885,0.83972 -3.33594,1.6084"
         fill="none"
         stroke="#ff4257"
         stroke-dasharray="0, 0, 0, 2.48452"
         stroke-linecap="round"
         stroke-miterlimit="10"
         stroke-width="1.657"
         id="path374" />
      <line
         x1="75.763184"
         y1="181.76611"
         x2="75.763184"
         y2="181.76611"
         fill="none"
         stroke="#ff4257"
         stroke-linecap="round"
         stroke-miterlimit="10"
         stroke-width="1.657"
         id="line376" />
    </g>
    <line
       x1="82.5"
       y1="178.90517"
       x2="82.5"
       y2="165.8049"
       fill="none"
       stroke="#252626"
       stroke-linecap="round"
       stroke-linejoin="round"
       stroke-width="1.5"
       id="line380" />
    <path
       d="m 89.15208,181.87469 c -1.82861,-1.85853 -4.23585,-2.8024 -6.6521,-2.82701"
       fill="none"
       stroke="#252626"
       stroke-linecap="round"
       stroke-linejoin="round"
       stroke-width="1.5"
       id="path382" />
    <g
       id="g388">
      <path
         d="m 91.3557,191.773 c 0.37948,-1.0194 0.58872,-2.12112 0.58872,-3.27288 0,-1.15207 -0.20923,-2.25376 -0.58869,-3.27311"
         fill="none"
         stroke="#252626"
         stroke-linecap="round"
         stroke-linejoin="round"
         stroke-width="1.5"
         id="path384" />
      <path
         d="m 73.63927,185.24052 c -0.37633,1.01557 -0.58377,2.11262 -0.58377,3.2596 0,1.14669 0.20745,2.24377 0.5838,3.25941"
         fill="none"
         stroke="#252626"
         stroke-linecap="round"
         stroke-linejoin="round"
         stroke-width="1.5"
         id="path386" />
    </g>
    <line
       x1="57.5"
       y1="188.5"
       x2="73.055496"
       y2="188.5"
       fill="none"
       stroke="#252626"
       stroke-linecap="round"
       stroke-linejoin="round"
       stroke-width="1.5"
       id="line390" />
    <line
       x1="91.94442"
       y1="188.5"
       x2="107.5"
       y2="188.5"
       fill="none"
       stroke="#252626"
       stroke-linecap="round"
       stroke-linejoin="round"
       stroke-width="1.5"
       id="line392" />
    <use
       width="35.355412"
       height="35.34531"
       transform="translate(64.82226,210.7272)"
       xlink:href="#uuid-e12b139b-675c-414a-99b1-81f7fcb24d8e"
       id="use394"
       x="0"
       y="0" />
    <path
       d="m 132.83405,215.04117 -17.02317,18.79629 c 4.69702,4.58664 11.12043,7.4131 18.20403,7.4131 14.39145,0 26.05802,-11.66657 26.05802,-26.05802 0,-12.71238 -9.09535,-23.29862 -21.13857,-25.5958 v 140.69655 c 0,9.12272 -7.48148,15.56717 -13.83951,18.07311 h -10e-6"
       fill="none"
       stroke="#252626"
       stroke-linecap="round"
       stroke-linejoin="round"
       stroke-width="1.5"
       id="path396" />
    <use
       width="35.355412"
       height="35.34531"
       transform="translate(116.35513,197.36854)"
       xlink:href="#uuid-e12b139b-675c-414a-99b1-81f7fcb24d8e"
       id="use398"
       x="0"
       y="0" />
    <path
       d="m 32.14795,215.04117 17.0232,18.79629 c -4.69702,4.58664 -11.12047,7.4131 -18.20407,7.4131 -14.39145,0 -26.05802,-11.66657 -26.05802,-26.05802 0,-12.71238 9.10308,-23.29862 21.14629,-25.5958 v 140.69655 c 0,9.12272 7.48148,15.56717 13.83951,18.07311 h 10e-6"
       fill="none"
       stroke="#252626"
       stroke-linecap="round"
       stroke-linejoin="round"
       stroke-width="1.5"
       id="path400" />
    <use
       width="35.355412"
       height="35.34531"
       transform="matrix(-1,0,0,1,48.64462,197.36854)"
       xlink:href="#uuid-e12b139b-675c-414a-99b1-81f7fcb24d8e"
       id="use402"
       x="0"
       y="0" />
    <use
       width="35.355412"
       height="35.34531"
       transform="translate(64.82226,277.92041)"
       xlink:href="#uuid-e12b139b-675c-414a-99b1-81f7fcb24d8e"
       id="use404"
       x="0"
       y="0" />
    <path
       d="m 114.45376,223.58545 c 3.2563,7.57936 10.78885,12.8873 19.56115,12.8873 11.75274,0 21.28022,-9.52748 21.28022,-21.28022 0,-11.75274 -9.52748,-21.28022 -21.28022,-21.28022 -1.6916,0 -3.32013,0.19738 -4.89775,0.57035 v 67.02719 c -9.3114,2.26964 -16.22306,10.73175 -16.22306,20.74191 0,3.02591 0.63156,5.90426 1.77005,8.51053 -8.68152,2.95826 -19.31133,5.25502 -31.39062,5.25502"
       fill="none"
       stroke="#252626"
       stroke-linecap="round"
       stroke-linejoin="round"
       stroke-width="1.5"
       id="path406" />
    <use
       width="35.355412"
       height="35.34531"
       transform="translate(116.35513,264.56175)"
       xlink:href="#uuid-e12b139b-675c-414a-99b1-81f7fcb24d8e"
       id="use408"
       x="0"
       y="0" />
    <path
       d="m 81.86785,296.01739 c -12.07929,0 -22.70908,-2.39388 -31.3906,-5.47724 1.13849,-2.60627 1.77005,-5.48468 1.77005,-8.51059 0,-10.01016 -7.07771,-18.40603 -16.3891,-20.67567 v -66.87122 c -1.57763,-0.37298 -3.19951,-0.57035 -4.89111,-0.57035 -11.75274,0 -21.28022,9.52748 -21.28022,21.28022 0,11.75274 9.52748,21.28022 21.28022,21.28022 8.7723,0 16.30486,-5.30794 19.56115,-12.8873"
       fill="none"
       stroke="#252626"
       stroke-linecap="round"
       stroke-linejoin="round"
       stroke-width="1.5"
       id="path410" />
    <use
       width="35.355412"
       height="35.34531"
       transform="translate(13.28938,264.33953)"
       xlink:href="#uuid-e12b139b-675c-414a-99b1-81f7fcb24d8e"
       id="use412"
       x="0"
       y="0" />
    <use
       width="35.355412"
       height="35.34531"
       transform="translate(64.82226,131.08165)"
       xlink:href="#uuid-e12b139b-675c-414a-99b1-81f7fcb24d8e"
       id="use414"
       x="0"
       y="0" />
    <g
       id="g424">
      <polyline
         points="70.58423 108.54201 82.49492 96.63133 94.4056 108.54201"
         fill="none"
         stroke="#262626"
         stroke-linejoin="round"
         stroke-width="1.65681"
         id="polyline416" />
      <circle
         cx="82.494919"
         cy="96.631332"
         r="16.84425"
         fill="#e5e5e5"
         id="circle418" />
      <path
         d="m 70.58421,108.54199 c 3.04821,3.04822 7.25928,4.93358 11.9107,4.93358 4.65142,0 8.86247,-1.88536 11.91068,-4.93357"
         fill="#e5e5e5"
         stroke="#262626"
         stroke-linecap="round"
         stroke-linejoin="round"
         stroke-width="1.65681"
         id="path420" />
      <path
         d="m 68.29538,105.70993 c -1.68473,-2.63673 -2.65682,-5.7749 -2.64461,-9.13994 0.03376,-9.30276 7.5774,-16.81668 16.84918,-16.7828 9.27178,-0.03388 16.81542,7.48004 16.84918,16.7828 0.01221,3.36504 -0.95988,6.50321 -2.64461,9.13994"
         fill="#e5e5e5"
         stroke="#262626"
         stroke-linecap="round"
         stroke-linejoin="round"
         stroke-width="1.65681"
         id="path422" />
    </g>
    <circle
       cx="136.5"
       cy="81.5"
       r="15"
       fill="#252626"
       id="circle426" />
    <circle
       cx="31.16663"
       cy="81.253242"
       r="15"
       fill="#252626"
       id="circle428" />
    <g
       id="g440">
      <path
         d="m 76.83301,256.53613 -2.42285,-0.97754 -0.29297,0.18457 1.12305,1.79395 -0.66797,0.41895 -2.29883,-3.66797 1.31152,-0.82422 c 0.24609,-0.15527 0.53906,-0.20117 0.83105,-0.13477 0.29395,0.0664 0.53613,0.23828 0.69043,0.48535 0.22949,0.36621 0.2207,0.83105 -9.8e-4,1.18555 l 2.53906,1.02539 -0.81152,0.51074 z m -2.49219,-1.86621 c 0.14258,-0.0908 0.19238,-0.28711 0.09766,-0.43652 -0.09277,-0.14941 -0.29102,-0.18945 -0.43359,-0.10059 l -0.64258,0.4043 0.33496,0.53613 z"
         fill="#1d1d1b"
         id="path430" />
      <path
         d="m 77.86328,256.04004 -1.21191,-4.15039 2.73242,-0.79883 0.22266,0.75879 -1.95312,0.57031 0.17871,0.61133 1.70312,-0.49805 0.22461,0.77539 -1.70117,0.49805 0.36035,1.23535 1.90137,-0.55469 0.22363,0.76953 -2.68066,0.7832 z"
         fill="#1d1d1b"
         id="path432" />
      <path
         d="m 82.37402,255.18652 c -0.44922,-0.0996 -0.88184,-0.3252 -1.26074,-0.66602 L 81,254.41601 l 0.54492,-0.59863 0.11328,0.10547 c 0.27637,0.24707 0.58301,0.41602 0.88574,0.48145 l 0.0059,9.8e-4 c 0.09082,0.0195 0.18262,0.0332 0.27344,0.0352 0.15137,0.002 0.29199,-0.0264 0.40918,-0.0791 0.14551,-0.0576 0.31934,-0.18848 0.32324,-0.4375 0.0019,-0.13379 -0.06348,-0.23926 -0.20117,-0.32617 -0.16797,-0.10645 -0.39844,-0.16504 -0.5625,-0.19824 -0.07324,-0.0127 -0.69141,-0.15039 -0.97363,-0.31348 -0.18652,-0.11914 -0.33008,-0.2666 -0.43066,-0.43848 -0.09961,-0.17871 -0.14551,-0.37402 -0.1416,-0.58691 0.0029,-0.22949 0.08008,-0.45996 0.22363,-0.66992 0.13672,-0.1748 0.32129,-0.31738 0.54199,-0.41797 0.2207,-0.0986 0.46484,-0.14941 0.72559,-0.14551 0.10449,0.002 0.21191,0.0156 0.32227,0.0293 0.40039,0.0801 0.79199,0.26855 1.13379,0.56641 l 0.11328,0.0996 -0.52832,0.61621 -0.11328,-0.0977 c -0.38867,-0.3291 -0.72852,-0.4082 -0.94727,-0.41113 -0.13965,-0.003 -0.26758,0.0254 -0.37793,0.0723 -0.1709,0.0762 -0.2832,0.2207 -0.28613,0.36621 -9.8e-4,0.13379 0.04492,0.2207 0.15918,0.30078 0.11426,0.0801 0.29102,0.14453 0.56836,0.21094 0.03613,0.006 0.08496,0.0176 0.13379,0.0303 0.25391,0.0537 0.59277,0.13281 0.82715,0.27637 0.20508,0.11328 0.36035,0.2666 0.46777,0.44531 0.10645,0.17969 0.1582,0.38672 0.1543,0.60449 -0.0049,0.27344 -0.08203,0.5166 -0.23145,0.7207 -0.13086,0.17383 -0.32129,0.32227 -0.57227,0.43945 -0.21484,0.10645 -0.45312,0.15039 -0.75098,0.14648 -0.13965,-0.004 -0.28516,-0.0244 -0.43555,-0.0566 z"
         fill="#1d1d1b"
         id="path434" />
      <path
         d="m 84.97461,255.38965 1.28613,-4.12891 2.71973,0.84668 -0.2334,0.75391 -1.94336,-0.60547 -0.18945,0.60938 1.69336,0.52734 -0.24023,0.77148 -1.69336,-0.52734 -0.38281,1.23047 1.89062,0.58789 -0.23828,0.76562 z"
         fill="#1d1d1b"
         id="path436" />
      <path
         d="m 88.94434,257.0166 1.94824,-2.93652 -0.8877,-0.58691 0.44434,-0.66895 2.4502,1.62598 -0.44336,0.66797 -0.88574,-0.58789 -1.94824,2.93555 -0.67773,-0.44922 z"
         fill="#1d1d1b"
         id="path438" />
    </g>
    <line
       x1="82.5"
       y1="312.43732"
       x2="82.5"
       y2="315.97156"
       fill="none"
       stroke="#252626"
       stroke-linecap="round"
       stroke-linejoin="round"
       stroke-width="1.5"
       id="line442" />
    <g
       id="g450">
      <path
         d="m 47.44434,304.1709 0.10449,-4.32227 0.8125,0.0186 -0.08496,3.52734 2.2041,0.0527 -0.01953,0.7959 -3.0166,-0.0723 z"
         fill="#1d1d1b"
         id="path444" />
      <path
         d="m 51.06348,302.05371 c 0.40527,-1.18359 1.69434,-1.81348 2.87109,-1.40918 1.18262,0.40625 1.81348,1.69336 1.40723,2.87695 -0.4043,1.17676 -1.68945,1.80176 -2.87402,1.39551 -1.17676,-0.4043 -1.80859,-1.68555 -1.4043,-2.86328 z m 0.76855,0.26367 c -0.25977,0.75781 0.14355,1.58398 0.89648,1.8418 0.75293,0.25782 1.57812,-0.14551 1.83789,-0.90332 0.26172,-0.76367 -0.14258,-1.58984 -0.89355,-1.84766 -0.75195,-0.25781 -1.57812,0.14551 -1.84082,0.90918 z"
         fill="#1d1d1b"
         id="path446" />
      <path
         d="m 57.60645,308.14941 0.48242,-2.1582 -2.10254,0.68555 -0.55371,-0.50293 2.01562,-4.01758 0.63086,0.57227 -1.45898,2.88867 1.85254,-0.60059 0.55273,0.50293 -0.4248,1.89844 2.74121,-1.72461 0.625,0.56836 -3.80664,2.39062 z"
         fill="#1d1d1b"
         id="path448" />
    </g>
    <g
       id="g458">
      <path
         d="m 106.51465,309.19141 -3.18848,-2.91895 0.54883,-0.60059 2.60156,2.38281 1.48926,-1.625 0.58691,0.53711 -2.03809,2.22461 z"
         fill="#1d1d1b"
         id="path452" />
      <path
         d="m 107.29883,305.07227 c -0.62598,-1.08301 -0.25293,-2.46875 0.82422,-3.08984 1.08398,-0.62402 2.46875,-0.25293 3.09375,0.83105 0.62109,1.0791 0.24707,2.45801 -0.83691,3.08301 -1.0791,0.62109 -2.45996,0.25391 -3.08105,-0.82422 z m 0.70312,-0.40625 c 0.40137,0.69434 1.28906,0.93359 1.97656,0.53613 0.69043,-0.39746 0.92871,-1.28516 0.52832,-1.97949 -0.40332,-0.69922 -1.29102,-0.9375 -1.97949,-0.54102 -0.68945,0.39746 -0.92773,1.28516 -0.52539,1.98438 z"
         fill="#1d1d1b"
         id="path454" />
      <path
         d="m 116.19238,304.14941 -1.30859,-1.78223 -0.86523,2.03516 -0.74219,0.0859 -1.7041,-4.16016 0.8457,-0.0986 1.21777,2.99902 0.76562,-1.79102 0.74316,-0.0869 1.15039,1.56836 0.50293,-3.19824 0.83984,-0.0977 -0.70215,4.43945 -0.74316,0.0869 z"
         fill="#1d1d1b"
         id="path456" />
    </g>
    <line
       x1="82.5"
       y1="197.95232"
       x2="82.5"
       y2="211.34193"
       fill="none"
       stroke="#252626"
       stroke-linecap="round"
       stroke-linejoin="round"
       stroke-width="1.5"
       id="line460" />
    <g
       id="g468">
      <line
         x1="135.11133"
         y1="22.98102"
         x2="135.11133"
         y2="22.98102"
         fill="none"
         stroke="#252626"
         stroke-linecap="round"
         stroke-miterlimit="10"
         stroke-width="1.657"
         id="line462" />
      <line
         x1="140.09473"
         y1="22.98102"
         x2="157.5376"
         y2="22.98102"
         fill="none"
         stroke="#252626"
         stroke-dasharray="0, 0, 0, 4.98371"
         stroke-linecap="round"
         stroke-miterlimit="10"
         stroke-width="1.657"
         id="line464" />
      <line
         x1="160.02979"
         y1="22.98102"
         x2="160.02979"
         y2="22.98102"
         fill="none"
         stroke="#252626"
         stroke-linecap="round"
         stroke-miterlimit="10"
         stroke-width="1.657"
         id="line466" />
    </g>
    <g
       id="g476">
      <line
         x1="3.88867"
         y1="22.98102"
         x2="3.88867"
         y2="22.98102"
         fill="none"
         stroke="#252626"
         stroke-linecap="round"
         stroke-miterlimit="10"
         stroke-width="1.657"
         id="line470" />
      <line
         x1="9.1176796"
         y1="22.98102"
         x2="27.417971"
         y2="22.98102"
         fill="none"
         stroke="#252626"
         stroke-dasharray="0, 0, 0, 5.22873"
         stroke-linecap="round"
         stroke-miterlimit="10"
         stroke-width="1.657"
         id="line472" />
      <line
         x1="30.032709"
         y1="22.98102"
         x2="30.032709"
         y2="22.98102"
         fill="none"
         stroke="#252626"
         stroke-linecap="round"
         stroke-miterlimit="10"
         stroke-width="1.657"
         id="line474" />
    </g>
    <g
       id="g482">
      <circle
         cx="59.045891"
         cy="49.499908"
         r="5.7393298"
         fill="#252626"
         id="circle478" />
      <path
         d="M 60.30664,52.44141 V 49.1045 c -0.44824,0.61035 -0.91406,1.23633 -1.26172,1.71973 L 57.79199,49.1045 v 3.33691 h -1.46582 v -6.0293 h 1.30469 l 1.41406,1.94727 1.41406,-1.94727 h 1.30469 v 6.0293 z"
         fill="#e5e5e5"
         id="path480" />
    </g>
    <g
       id="g488">
      <circle
         cx="105.95411"
         cy="49.499908"
         r="5.7393298"
         fill="#252626"
         id="circle484" />
      <path
         d="m 107.48535,50.22266 1.16016,0.85547 c -0.75293,1.00781 -1.64258,1.44824 -2.625,1.44824 -1.72754,0 -3.1416,-1.41406 -3.1416,-3.14258 0,-1.72754 1.41406,-3.13281 3.1416,-3.13281 0.99902,0 1.90527,0.46582 2.65918,1.47363 l -1.17676,0.86328 c -0.47461,-0.63477 -0.95703,-0.88867 -1.48242,-0.88867 -0.93945,0 -1.68555,0.75391 -1.68555,1.68457 0,0.94043 0.74609,1.68555 1.68555,1.68555 0.52539,0 0.99121,-0.21973 1.46484,-0.84668 z"
         fill="#e5e5e5"
         id="path486" />
    </g>
  </g>
</svg>
