<?xml version="1.0" encoding="UTF-8" standalone="no"?>
<!-- Generator: Adobe Illustrator 25.2.3, SVG Export Plug-In . SVG Version: 6.00 Build 0)  -->

<svg
   xmlns:dc="http://purl.org/dc/elements/1.1/"
   xmlns:cc="http://creativecommons.org/ns#"
   xmlns:rdf="http://www.w3.org/1999/02/22-rdf-syntax-ns#"
   xmlns:svg="http://www.w3.org/2000/svg"
   xmlns="http://www.w3.org/2000/svg"
   xmlns:sodipodi="http://sodipodi.sourceforge.net/DTD/sodipodi-0.dtd"
   xmlns:inkscape="http://www.inkscape.org/namespaces/inkscape"
   version="1.0"
   id="Layer_1"
   inkscape:version="0.92.3 (2405546, 2018-03-11)"
   sodipodi:docname="Energy-WL.svg"
   x="0px"
   y="0px"
   width="105"
   height="380"
   viewBox="0 0 105 380"
   enable-background="new 0 0 100.8 364.25195"
   xml:space="preserve"><metadata
   id="metadata473"><rdf:RDF><cc:Work
       rdf:about=""><dc:format>image/svg+xml</dc:format><dc:type
         rdf:resource="http://purl.org/dc/dcmitype/StillImage" /><dc:title></dc:title></cc:Work></rdf:RDF></metadata><defs
   id="defs471" />
<sodipodi:namedview
   bordercolor="#666666"
   borderopacity="1"
   fit-margin-bottom="0"
   fit-margin-left="0"
   fit-margin-right="0"
   fit-margin-top="0"
   gridtolerance="10"
   guidetolerance="10"
   id="namedview749"
   inkscape:current-layer="Layer_1"
   inkscape:cx="-330.72081"
   inkscape:cy="190.27221"
   inkscape:document-units="mm"
   inkscape:pageopacity="0"
   inkscape:pageshadow="2"
   inkscape:window-height="1017"
   inkscape:window-maximized="1"
   inkscape:window-width="1920"
   inkscape:window-x="-8"
   inkscape:window-y="-8"
   inkscape:zoom="0.62105263"
   objecttolerance="10"
   pagecolor="#ffffff"
   showgrid="false"
   units="mm">
	</sodipodi:namedview>
<g
   id="bg"
   transform="matrix(1.333334,0,0,1.333334,1.4666674e-4,-0.09457338)">
	<g
   id="g4">
		<linearGradient
   id="rect2_1_"
   gradientUnits="userSpaceOnUse"
   x1="39.37487"
   y1="0.070929997"
   x2="39.37487"
   y2="364.86761">
			<stop
   offset="0"
   style="stop-color:#EBEBEB"
   id="stop3" />
			<stop
   offset="1"
   style="stop-color:#E1E1E1"
   id="stop5" />
		</linearGradient>
		<rect
   id="rect2"
   x="-0.00011"
   y="0.070929997"
   width="78.749962"
   height="284.99985"
   style="fill:url(#rect2_1_)" />
	</g>
	<g
   id="g68">
		<path
   id="path62"
   inkscape:connector-curvature="0"
   d="m 43.62874,282.26578 h -7.84969 c -1.32856,0 -2.40559,-1.077 -2.40559,-2.40555 v -19.7486 c 0,-1.32858 1.07701,-2.40561 2.40559,-2.40561 h 7.8497 c 1.32857,0 2.40559,1.07703 2.40559,2.40561 v 19.7486 c -2e-5,1.32855 -1.07703,2.40555 -2.4056,2.40555 z"
   style="fill:#252626" />
		<g
   id="g66">
			<path
   id="path64"
   inkscape:connector-curvature="0"
   d="m 42.58865,273.34561 c -0.08569,0.1976 -0.19936,0.36072 -0.34101,0.4892 -0.14182,0.12845 -0.30301,0.22382 -0.48425,0.28662 -0.18142,0.0626 -0.37075,0.0938 -0.56836,0.0938 -0.33609,0 -0.59792,-0.0493 -0.78568,-0.14813 -0.18776,-0.0989 -0.33451,-0.21417 -0.43974,-0.34598 -0.11227,-0.14499 -0.183,-0.30634 -0.21255,-0.48422 -0.02974,-0.17792 -0.04452,-0.3558 -0.04452,-0.53372 0,-0.25055 0.0051,-0.42337 0.01478,-0.51892 0.01003,-0.0957 0.02129,-0.1499 0.03466,-0.16309 0.02622,-0.0199 0.13496,-0.0296 0.32606,-0.0296 h 2.31287 c 0.06581,0 0.12018,0.005 0.16312,0.0148 0.04259,0.01 0.07566,0.0361 0.09872,0.079 0.02305,0.0428 0.03783,0.10696 0.04451,0.19266 0.0065,0.0857 0.01003,0.20432 0.01003,0.3558 0,0.27679 -0.04312,0.51416 -0.12863,0.71179 m -3.99262,-9.61624 c 0.0088,-0.0621 0.03555,-0.11121 0.08024,-0.14694 0.04452,-0.0355 0.11561,-0.0579 0.2138,-0.0668 0.09801,-0.009 0.23614,-0.0134 0.41439,-0.0134 0.69505,0 1.22752,0.19376 1.59739,0.58139 0.36971,0.38766 0.55481,0.90692 0.55481,1.55746 0,0.0616 -0.01285,0.19443 -0.02094,0.28558 -0.0512,-7e-4 -0.10241,-0.002 -0.15361,-0.002 -0.14024,-0.003 -0.29263,-0.0107 -0.45715,-0.0229 -0.0366,0.0183 -0.05631,0.0533 -0.05947,0.10507 -0.003,0.0519 0.01056,0.0931 0.04136,0.1235 l 0.16435,0.0183 c 0.1098,0.0122 0.20113,0.032 0.27433,0.0593 0.0732,0.0275 0.1098,0.0565 0.1098,0.0869 0,0.0304 -0.0183,0.0869 -0.0549,0.1691 -0.03661,0.0823 -0.08535,0.1814 -0.14622,0.29703 -0.06106,0.11597 -0.12669,0.2395 -0.19655,0.37039 -0.07022,0.1311 -0.13585,0.25464 -0.19672,0.37024 -0.14024,0.26834 -0.2833,0.53177 -0.42971,0.79077 -0.14623,0.25919 -0.28946,0.51065 -0.42953,0.75436 -0.17702,-0.31693 -0.35069,-0.64914 -0.5212,-0.99649 -0.17068,-0.34753 -0.34137,-0.69171 -0.51205,-1.03326 -0.01232,-0.0243 -0.03343,-0.0698 -0.06388,-0.13708 -0.03062,-0.0668 -0.06264,-0.13846 -0.09608,-0.21484 -0.03362,-0.0762 -0.06264,-0.14761 -0.08692,-0.21484 -0.02446,-0.067 -0.03642,-0.11279 -0.03642,-0.13708 0,-0.0366 0.02411,-0.0654 0.07302,-0.0869 0.04874,-0.0213 0.15238,-0.0471 0.31092,-0.0776 l 0.11878,-0.0183 c 0.03044,-0.0304 0.04417,-0.0732 0.04118,-0.12811 -0.0032,-0.0548 -0.02605,-0.0883 -0.06845,-0.10046 -0.12986,0.0102 -0.28911,0.0176 -0.47792,0.022 v -1.93982 c 2e-5,-0.10699 0.0044,-0.19162 0.01339,-0.25412 m 0.75696,6.84374 c 0,0.2439 -0.0031,0.43887 -0.0091,0.58511 -0.0062,0.14621 -0.02744,0.26059 -0.06405,0.34277 -0.01302,0.0295 -0.02851,0.0556 -0.04627,0.0783 -3.5e-4,1.8e-4 -9e-4,5.5e-4 -0.0013,7.3e-4 -0.10645,-0.0204 -0.1962,-0.044 -0.2687,-0.0709 -0.12036,-0.0446 -0.20711,-0.12476 -0.2606,-0.24057 -0.05349,-0.11575 -0.08692,-0.27835 -0.10029,-0.48792 -0.01338,-0.20923 -0.02006,-0.48795 -0.02006,-0.8353 v -1.90341 l 0.47792,0.93121 c 0.06686,0.12808 0.12018,0.2363 0.15995,0.32465 0.03959,0.0885 0.06845,0.17065 0.08675,0.24686 0.0183,0.0764 0.03044,0.15698 0.0366,0.24231 0.006,0.0853 0.0091,0.19199 0.0091,0.31989 v 0.46631 h -10e-6 z m 3.77319,1.13059 c 0.03959,-0.1098 0.07901,-0.22699 0.11878,-0.35193 0.03959,-0.12494 0.07619,-0.24689 0.1098,-0.36584 0.03343,-0.11874 0.0593,-0.2178 0.07777,-0.29718 -0.01848,-0.0424 -0.0535,-0.0698 -0.10523,-0.0822 -0.05191,-0.0121 -0.0929,-0.006 -0.12352,0.0183 -0.12194,0.23755 -0.23914,0.43268 -0.35192,0.58508 -0.11279,0.15256 -0.21185,0.25302 -0.29702,0.30176 -0.04892,0.0244 -0.10522,0.0456 -0.16927,0.0639 -0.06388,0.0183 -0.14024,0.032 -0.22858,0.0412 -0.08833,0.009 -0.19497,0.0169 -0.3199,0.0229 -0.12494,0.006 -0.27591,0.009 -0.45258,0.009 -0.20113,0 -0.36724,-0.006 -0.49833,-0.0183 -0.13109,-0.0121 -0.23615,-0.0274 -0.31533,-0.0456 -0.07936,-0.0185 -0.14182,-0.0398 -0.1874,-0.0641 -0.04575,-0.0243 -0.08095,-0.0517 -0.10523,-0.0823 -0.0732,-0.0792 -0.12036,-0.19656 -0.14165,-0.35193 -0.02147,-0.15555 -0.03203,-0.3551 -0.03203,-0.599 v -0.60336 c 0.0014,-0.0836 0.0039,-0.1575 0.0074,-0.22083 0.006,-0.11264 0.02269,-0.21786 0.05015,-0.31534 0.02744,-0.0975 0.07003,-0.20129 0.1281,-0.31094 0.01373,-0.0262 0.02921,-0.0545 0.04558,-0.0843 0.022,-7e-4 0.04486,-7.6e-4 0.07038,-7.6e-4 h 0.53036 c 0.17667,0 0.32149,0.003 0.43428,0.009 0.11261,0.006 0.20253,0.0182 0.26974,0.0365 0.09133,0.0244 0.15679,0.0672 0.19655,0.12811 0.03959,0.0609 0.06845,0.13406 0.08693,0.21939 l 0.08217,0.35651 c 0.02428,0.0306 0.06546,0.0442 0.12335,0.0412 0.05789,-0.003 0.09608,-0.0197 0.11438,-0.0503 0,-0.10364 -0.0061,-0.23456 -0.0183,-0.39307 -0.01233,-0.15857 -0.0183,-0.3201 -0.0183,-0.48462 0,-0.17667 0.006,-0.34735 0.0183,-0.51187 0.01214,-0.1647 0.0183,-0.30179 0.0183,-0.41159 -0.0183,-0.0302 -0.05648,-0.0472 -0.11438,-0.0503 -0.05789,-0.003 -0.09907,0.0107 -0.12335,0.0412 l -0.07303,0.37497 c -0.02446,0.11575 -0.05349,0.19357 -0.08693,0.23312 -0.03361,0.0396 -0.07777,0.0685 -0.13249,0.0868 -0.0549,0.0183 -0.14957,0.032 -0.28348,0.0412 -0.13427,0.009 -0.29879,0.0137 -0.49376,0.0137 H 40.5234 c 0.0031,-0.005 0.006,-0.01 0.0091,-0.0151 l 0.57593,-0.99649 c 0.1156,-0.19516 0.22084,-0.3764 0.3155,-0.54407 0.09432,-0.16754 0.1874,-0.31552 0.27872,-0.44345 0.09151,-0.12793 0.18582,-0.23157 0.28349,-0.31076 0.02024,-0.0163 0.041,-0.0311 0.06229,-0.045 0.06194,0.0246 0.11649,0.0537 0.16347,0.0876 0.07619,0.0547 0.13848,0.11877 0.1874,0.19199 0.04874,0.0731 0.08833,0.15536 0.11895,0.2467 0.03027,0.0915 0.06388,0.19214 0.10048,0.30179 0.02428,0.0306 0.06405,0.0428 0.11895,0.0366 0.05473,-0.006 0.09132,-0.0243 0.10962,-0.0549 -0.01232,-0.0975 -0.02287,-0.20871 -0.03185,-0.33362 -0.0093,-0.12497 -0.02005,-0.24689 -0.0322,-0.36566 -0.01214,-0.11896 -0.02816,-0.22507 -0.041,-0.32007 -0.03185,-0.23511 -0.02464,-0.43588 -0.02464,-0.43588 0,-0.46313 -0.13144,-0.86801 -0.33205,-1.20694 -0.20042,-0.33856 -0.4568,-0.60583 -0.76861,-0.80185 -0.31198,-0.19604 -0.67729,-0.33417 -1.09607,-0.4144 -0.41897,-0.0802 -0.90903,-0.12036 -1.47036,-0.12036 -0.56149,0 -1.05402,0.007 -1.47703,0.0201 -0.42337,0.0134 -0.8133,0.0424 -1.1698,0.0869 -0.05332,0.0268 -0.08236,0.0782 -0.08675,0.15363 -0.0046,0.0759 0.01531,0.13602 0.06018,0.18054 l 0.48109,0.0535 c 0.1515,0.0179 0.26939,0.0468 0.35439,0.0869 0.08447,0.0399 0.14693,0.11349 0.18705,0.22046 0.04012,0.10699 0.06458,0.24951 0.07355,0.42776 0.0088,0.17825 0.01337,0.41 0.01337,0.69507 v 4.93262 c 0,0.34735 -0.0046,0.62607 -0.01337,0.8353 -0.009,0.20956 -0.04012,0.37216 -0.09362,0.48795 -0.05349,0.11578 -0.13372,0.19601 -0.24054,0.24054 -0.10699,0.0447 -0.25867,0.0802 -0.45451,0.10699 l -0.28084,0.0401 c -0.04065,0.0406 -0.05878,0.0962 -0.0549,0.16629 -3.5e-4,0.14307 -0.002,0.18848 -0.005,0.34964 -0.0032,0.1846 -0.01162,0.39081 -0.02516,0.61905 0.01355,0.0336 0.05191,0.0537 0.11579,0.0605 0.0637,0.007 0.10909,-0.007 0.13602,-0.0403 l 0.03009,-0.21152 c 0.02024,-0.14764 0.04698,-0.26166 0.08059,-0.34207 0.03362,-0.0806 0.09397,-0.14093 0.18125,-0.18124 0.0871,-0.0403 0.20957,-0.0641 0.36742,-0.0707 0.15767,-0.007 0.36741,-0.01 0.62924,-0.01 h 1.26835 c 0.05367,0 0.09573,0.003 0.126,0.01 0.03009,0.007 0.05191,0.0254 0.06528,0.0556 0.01337,0.0301 0.02182,0.0771 0.02534,0.14081 0.0032,0.0638 0.005,0.15253 0.005,0.26675 0,0.20145 -0.02516,0.35245 -0.07549,0.45309 -0.05032,0.10065 -0.1325,0.18793 -0.2467,0.26184 -0.1142,0.0806 -0.24001,0.16434 -0.37744,0.25162 -0.13778,0.0871 -0.27539,0.17438 -0.41282,0.26166 -0.1376,0.0873 -0.27011,0.1712 -0.39767,0.2518 -0.12757,0.0804 -0.23825,0.15433 -0.33222,0.22134 -0.25515,0.18127 -0.46489,0.35074 -0.62925,0.50858 -0.16435,0.15765 -0.2935,0.31705 -0.38747,0.47809 -0.09414,0.16098 -0.15942,0.33044 -0.19637,0.50833 -0.03677,0.17792 -0.05525,0.37411 -0.05525,0.58896 0,0.19461 0.01672,0.34244 0.05014,0.4429 0.02024,0.0269 0.0454,0.0387 0.07566,0.0353 0.03009,-0.004 0.05192,-0.0187 0.06546,-0.0453 0.01319,-0.13428 0.04522,-0.26166 0.09555,-0.38239 0.05032,-0.12085 0.11226,-0.22504 0.18634,-0.31213 0.14095,-0.17456 0.30019,-0.3389 0.47809,-0.49341 0.17772,-0.1543 0.3741,-0.31198 0.58895,-0.47314 0.21468,-0.16101 0.45628,-0.32712 0.7248,-0.49817 0.26834,-0.1712 0.56378,-0.35757 0.88598,-0.55887 0.04029,-0.0269 0.082,-0.0487 0.12581,-0.0654 0.04346,-0.0169 0.08217,-0.0118 0.11578,0.0152 0.0468,0.12738 0.11737,0.26343 0.21133,0.40771 0.09396,0.14428 0.20975,0.2803 0.34735,0.40787 0.13761,0.12738 0.29862,0.23297 0.4832,0.31708 0.18459,0.0838 0.39768,0.12582 0.63928,0.12582 0.3558,0 0.64772,-0.079 0.87595,-0.23666 0.22805,-0.15768 0.40594,-0.35739 0.53352,-0.599 0.1274,-0.23492 0.20975,-0.49496 0.2467,-0.78003 0.03677,-0.28543 0.05666,-0.58578 0.05525,-0.90131 -0.0025,-0.5845 0.10276,-0.95648 0.10276,-0.95648"
   style="fill:#e6e5e5" />
		</g>
	</g>
	<g
   id="g69">
		<g
   id="g39">
			
				<linearGradient
   id="SVGID_1_"
   gradientUnits="userSpaceOnUse"
   x1="301.81683"
   y1="-4057.0835"
   x2="314.81683"
   y2="-4057.0835"
   gradientTransform="rotate(90,-1874.5869,-2175.9539)">
				<stop
   offset="0"
   style="stop-color:#ABA9A9"
   id="stop14" />
				<stop
   offset="1"
   style="stop-color:#8F8F8F"
   id="stop16" />
			</linearGradient>
			<circle
   cx="6.5429001"
   cy="5.5280399"
   r="5.0781698"
   id="circle19"
   style="fill:url(#SVGID_1_)" />
			
				<linearGradient
   id="SVGID_2_"
   gradientUnits="userSpaceOnUse"
   x1="302.35397"
   y1="-4057.0835"
   x2="313.97784"
   y2="-4057.0835"
   gradientTransform="rotate(90,-1874.5869,-2175.9539)">
				<stop
   offset="0.00559"
   style="stop-color:#F5F5F5"
   id="stop21" />
				<stop
   offset="1"
   style="stop-color:#C2C2C2"
   id="stop23" />
			</linearGradient>
			<circle
   cx="6.5429001"
   cy="5.5276198"
   r="4.5406199"
   id="circle26"
   style="fill:url(#SVGID_2_)" />
			
				<linearGradient
   id="SVGID_3_"
   gradientUnits="userSpaceOnUse"
   x1="302.70325"
   y1="-4057.0835"
   x2="313.43298"
   y2="-4057.0835"
   gradientTransform="rotate(90,-1874.5869,-2175.9539)">
				<stop
   offset="0.00559"
   style="stop-color:#EBEBEB"
   id="stop28" />
				<stop
   offset="1"
   style="stop-color:#CCCCCC"
   id="stop30" />
			</linearGradient>
			<circle
   cx="6.5429001"
   cy="5.5276198"
   r="4.19134"
   id="circle33"
   style="fill:url(#SVGID_3_)" />
			<g
   id="g37">
				<path
   d="M 9.25299,4.98939 7.7189,4.80559 C 7.4834,4.77738 7.29779,4.59168 7.26967,4.35617 L 7.08664,2.82313 C 7.07866,2.75631 7.02198,2.706 6.95468,2.706 H 6.13113 c -0.06729,0 -0.12396,0.0503 -0.13195,0.11711 L 5.81571,4.35702 C 5.78754,4.59257 5.60183,4.77823 5.36628,4.80635 L 3.83286,4.98943 C 3.76604,4.99741 3.71573,5.05408 3.71573,5.12138 v 0.8236 c 0,0.06729 0.0503,0.12396 0.11711,0.13195 l 1.5336,0.18344 c 0.2355,0.02817 0.42115,0.21382 0.44932,0.44932 l 0.18343,1.53355 c 0.00799,0.06681 0.06466,0.11711 0.13195,0.11711 h 0.8236 c 0.06728,0 0.12394,-0.05028 0.13195,-0.11708 L 7.27045,6.70952 C 7.29866,6.47406 7.4843,6.28846 7.71976,6.2603 L 9.25297,6.07694 C 9.31978,6.06895 9.37008,6.01228 9.37008,5.94499 V 5.12133 C 9.37007,5.05405 9.31979,4.99739 9.25299,4.98939 Z"
   id="path35"
   inkscape:connector-curvature="0"
   style="fill:#8c8c8c" />
			</g>
		</g>
		<g
   id="g67">
			
				<linearGradient
   id="SVGID_4_"
   gradientUnits="userSpaceOnUse"
   x1="575.90247"
   y1="-4057.0835"
   x2="588.90247"
   y2="-4057.0835"
   gradientTransform="rotate(90,-1874.5869,-2175.9539)">
				<stop
   offset="0"
   style="stop-color:#ABA9A9"
   id="stop41" />
				<stop
   offset="1"
   style="stop-color:#8F8F8F"
   id="stop43" />
			</linearGradient>
			<circle
   cx="6.5429001"
   cy="279.61368"
   r="5.0781698"
   id="circle46"
   style="fill:url(#SVGID_4_)" />
			
				<linearGradient
   id="SVGID_5_"
   gradientUnits="userSpaceOnUse"
   x1="576.43958"
   y1="-4057.0835"
   x2="588.06348"
   y2="-4057.0835"
   gradientTransform="rotate(90,-1874.5869,-2175.9539)">
				<stop
   offset="0.00559"
   style="stop-color:#F5F5F5"
   id="stop48" />
				<stop
   offset="1"
   style="stop-color:#C2C2C2"
   id="stop50" />
			</linearGradient>
			<circle
   cx="6.5429001"
   cy="279.61325"
   r="4.5406199"
   id="circle53"
   style="fill:url(#SVGID_5_)" />
			
				<linearGradient
   id="SVGID_6_"
   gradientUnits="userSpaceOnUse"
   x1="576.78888"
   y1="-4057.0835"
   x2="587.51862"
   y2="-4057.0835"
   gradientTransform="rotate(90,-1874.5869,-2175.9539)">
				<stop
   offset="0.00559"
   style="stop-color:#EBEBEB"
   id="stop55" />
				<stop
   offset="1"
   style="stop-color:#CCCCCC"
   id="stop57" />
			</linearGradient>
			<circle
   cx="6.5429001"
   cy="279.61325"
   r="4.19134"
   id="circle60"
   style="fill:url(#SVGID_6_)" />
			<g
   id="g65">
				<path
   d="M 9.25299,279.07501 7.71891,278.89123 C 7.48341,278.863 7.2978,278.6773 7.26968,278.4418 l -0.18304,-1.53305 c -0.00798,-0.0668 -0.06465,-0.11713 -0.13195,-0.11713 H 6.13113 c -0.06729,0 -0.12396,0.0503 -0.13195,0.11713 l -0.18347,1.53391 c -0.02817,0.23553 -0.21388,0.4212 -0.44943,0.44934 l -1.53342,0.18307 c -0.06683,0.008 -0.11714,0.0646 -0.11714,0.13196 v 0.82358 c 0,0.0673 0.0503,0.12396 0.11711,0.13196 l 1.5336,0.18344 c 0.2355,0.0282 0.42115,0.21381 0.44932,0.44931 l 0.18343,1.53354 c 0.00799,0.0668 0.06466,0.11713 0.13195,0.11713 h 0.8236 c 0.06728,0 0.12394,-0.0503 0.13195,-0.1171 l 0.18376,-1.53375 c 0.02821,-0.23544 0.21385,-0.42105 0.44931,-0.44922 l 1.53321,-0.18335 c 0.06681,-0.008 0.11711,-0.0647 0.11711,-0.13196 v -0.82364 c 0,-0.0673 -0.05028,-0.12393 -0.11708,-0.13196 z"
   id="path63"
   inkscape:connector-curvature="0"
   style="fill:#8c8c8c" />
			</g>
		</g>
	</g>
	<g
   id="g125">
		<g
   id="g96">
			
				<linearGradient
   id="SVGID_7_"
   gradientUnits="userSpaceOnUse"
   x1="301.81683"
   y1="-4123.5645"
   x2="314.81683"
   y2="-4123.5645"
   gradientTransform="rotate(90,-1874.5869,-2175.9539)">
				<stop
   offset="0"
   style="stop-color:#ABA9A9"
   id="stop71" />
				<stop
   offset="1"
   style="stop-color:#8F8F8F"
   id="stop73" />
			</linearGradient>
			<circle
   cx="73.02388"
   cy="5.5280399"
   r="5.0781698"
   id="circle76"
   style="fill:url(#SVGID_7_)" />
			
				<linearGradient
   id="SVGID_8_"
   gradientUnits="userSpaceOnUse"
   x1="302.35397"
   y1="-4123.5645"
   x2="313.97784"
   y2="-4123.5645"
   gradientTransform="rotate(90,-1874.5869,-2175.9539)">
				<stop
   offset="0.00559"
   style="stop-color:#F5F5F5"
   id="stop78" />
				<stop
   offset="1"
   style="stop-color:#C2C2C2"
   id="stop80" />
			</linearGradient>
			<circle
   cx="73.023888"
   cy="5.5276198"
   r="4.5406199"
   id="circle83"
   style="fill:url(#SVGID_8_)" />
			
				<linearGradient
   id="SVGID_9_"
   gradientUnits="userSpaceOnUse"
   x1="302.70325"
   y1="-4123.5645"
   x2="313.43298"
   y2="-4123.5645"
   gradientTransform="rotate(90,-1874.5869,-2175.9539)">
				<stop
   offset="0.00559"
   style="stop-color:#EBEBEB"
   id="stop85" />
				<stop
   offset="1"
   style="stop-color:#CCCCCC"
   id="stop87" />
			</linearGradient>
			<circle
   cx="73.023888"
   cy="5.5276198"
   r="4.19134"
   id="circle90"
   style="fill:url(#SVGID_9_)" />
			<g
   id="g94">
				<path
   d="M 75.73397,4.98939 74.19989,4.80559 C 73.96439,4.77738 73.77878,4.59168 73.75066,4.35617 L 73.56762,2.82313 C 73.55965,2.75631 73.50297,2.706 73.43567,2.706 h -0.82355 c -0.06728,0 -0.12395,0.0503 -0.13194,0.11711 L 72.2967,4.35702 C 72.26852,4.59256 72.08282,4.77823 71.84727,4.80635 L 70.31385,4.98942 C 70.24702,4.9974 70.19671,5.05407 70.19671,5.12137 v 0.8236 c 0,0.06729 0.0503,0.12396 0.11711,0.13195 l 1.53359,0.18344 c 0.2355,0.02817 0.42115,0.21382 0.44932,0.44932 l 0.18343,1.53355 c 0.008,0.06681 0.06467,0.11711 0.13195,0.11711 h 0.82361 c 0.06728,0 0.12394,-0.05028 0.13194,-0.11708 L 73.75142,6.70951 C 73.77963,6.47405 73.96526,6.28845 74.20073,6.26029 L 75.73394,6.07693 C 75.80075,6.06894 75.85105,6.01227 75.85105,5.94498 V 5.12133 c 1e-5,-0.06728 -0.05028,-0.12394 -0.11708,-0.13194 z"
   id="path92"
   inkscape:connector-curvature="0"
   style="fill:#8c8c8c" />
			</g>
		</g>
		<g
   id="g123">
			
				<linearGradient
   id="SVGID_10_"
   gradientUnits="userSpaceOnUse"
   x1="575.90247"
   y1="-4123.5645"
   x2="588.90247"
   y2="-4123.5645"
   gradientTransform="rotate(90,-1874.5869,-2175.9539)">
				<stop
   offset="0"
   style="stop-color:#ABA9A9"
   id="stop98" />
				<stop
   offset="1"
   style="stop-color:#8F8F8F"
   id="stop100" />
			</linearGradient>
			<circle
   cx="73.02388"
   cy="279.61368"
   r="5.0781698"
   id="circle103"
   style="fill:url(#SVGID_10_)" />
			
				<linearGradient
   id="SVGID_11_"
   gradientUnits="userSpaceOnUse"
   x1="576.43958"
   y1="-4123.5645"
   x2="588.06348"
   y2="-4123.5645"
   gradientTransform="rotate(90,-1874.5869,-2175.9539)">
				<stop
   offset="0.00559"
   style="stop-color:#F5F5F5"
   id="stop105" />
				<stop
   offset="1"
   style="stop-color:#C2C2C2"
   id="stop107" />
			</linearGradient>
			<circle
   cx="73.023888"
   cy="279.61325"
   r="4.5406199"
   id="circle110"
   style="fill:url(#SVGID_11_)" />
			
				<linearGradient
   id="SVGID_12_"
   gradientUnits="userSpaceOnUse"
   x1="576.78888"
   y1="-4123.5645"
   x2="587.51862"
   y2="-4123.5645"
   gradientTransform="rotate(90,-1874.5869,-2175.9539)">
				<stop
   offset="0.00559"
   style="stop-color:#EBEBEB"
   id="stop112" />
				<stop
   offset="1"
   style="stop-color:#CCCCCC"
   id="stop114" />
			</linearGradient>
			<circle
   cx="73.023888"
   cy="279.61325"
   r="4.19134"
   id="circle117"
   style="fill:url(#SVGID_12_)" />
			<g
   id="g121">
				<path
   d="m 75.73397,279.07501 -1.53408,-0.18378 c -0.2355,-0.0282 -0.42111,-0.21393 -0.44923,-0.44943 l -0.18304,-1.53305 c -0.008,-0.0668 -0.06466,-0.11713 -0.13196,-0.11713 h -0.82355 c -0.06728,0 -0.12395,0.0503 -0.13194,0.11713 l -0.18347,1.53391 c -0.02818,0.23553 -0.21388,0.4212 -0.44943,0.44934 l -1.53342,0.18307 c -0.06683,0.008 -0.11714,0.0646 -0.11714,0.13196 v 0.82358 c 0,0.0673 0.0503,0.12396 0.11711,0.13196 l 1.53359,0.18344 c 0.2355,0.0282 0.42115,0.21381 0.44932,0.44931 l 0.18343,1.53354 c 0.008,0.0668 0.06467,0.11713 0.13195,0.11713 h 0.82361 c 0.06728,0 0.12394,-0.0503 0.13194,-0.1171 l 0.18376,-1.53375 c 0.02821,-0.23544 0.21384,-0.42105 0.44931,-0.44922 l 1.53321,-0.18335 c 0.06681,-0.008 0.11711,-0.0647 0.11711,-0.13196 v -0.82364 c 1e-5,-0.0673 -0.05028,-0.12393 -0.11708,-0.13196 z"
   id="path119"
   inkscape:connector-curvature="0"
   style="fill:#8c8c8c" />
			</g>
		</g>
	</g>
</g>
<g
   id="serigraphy"
   transform="matrix(1.333334,0,0,1.333334,1.4666674e-4,-0.09457338)">
	<g
   id="g83">
		<g
   id="g73">
			<path
   id="path71"
   inkscape:connector-curvature="0"
   d="m 1.02748,18.23572 c -0.16552,0 -0.32299,-0.06006 -0.44311,-0.18017 -0.11206,-0.11206 -0.17944,-0.26954 -0.17944,-0.43506 0,-0.08204 0.01465,-0.1648 0.052,-0.23951 0.03003,-0.07544 0.07544,-0.14282 0.12744,-0.20288 0.17285,-0.17212 0.45043,-0.23218 0.68261,-0.13477 0.07544,0.03003 0.14282,0.07471 0.20288,0.13477 0.052,0.06006 0.09741,0.12744 0.13477,0.20288 0.03003,0.07471 0.04541,0.15747 0.04541,0.23951 0,0.16552 -0.06811,0.32299 -0.18017,0.43506 -0.06006,0.06006 -0.12744,0.10547 -0.20288,0.1355 -0.07472,0.03002 -0.15748,0.04467 -0.23951,0.04467 z"
   style="fill:#252626" />
		</g>
		<g
   id="g77">
			<path
   id="path75"
   inkscape:connector-curvature="0"
   d="m 4.0348,17.62048 c 0,-0.34497 0.28491,-0.62256 0.62256,-0.62256 v 0 c 0.34497,0 0.62256,0.27759 0.62256,0.62256 v 0 c 0,0.33765 -0.27759,0.61523 -0.62256,0.61523 v 0 C 4.31972,18.23572 4.0348,17.95813 4.0348,17.62048 Z"
   style="fill:#252626" />
		</g>
		<g
   id="g81">
			<path
   id="path79"
   inkscape:connector-curvature="0"
   d="m 8.29456,18.23572 c -0.1648,0 -0.32227,-0.06006 -0.44238,-0.18017 C 7.79212,17.99549 7.74744,17.92811 7.71741,17.8534 7.68739,17.77796 7.672,17.70325 7.672,17.62049 c 0,-0.1648 0.06738,-0.32959 0.18017,-0.44238 0.06006,-0.06006 0.12744,-0.10474 0.20288,-0.13477 0.14941,-0.06006 0.32227,-0.06006 0.47241,0 0.07471,0.03003 0.14209,0.07471 0.20215,0.13477 0.12012,0.11279 0.18017,0.27759 0.18017,0.44238 0,0.08276 -0.01538,0.15747 -0.04541,0.23291 -0.03003,0.07471 -0.07471,0.14209 -0.13477,0.20215 -0.06006,0.06006 -0.12744,0.10547 -0.20215,0.1355 -0.07542,0.03002 -0.15012,0.04467 -0.23289,0.04467 z"
   style="fill:#252626" />
		</g>
	</g>
	<g
   id="g97">
		<g
   id="g87">
			<path
   id="path85"
   inkscape:connector-curvature="0"
   d="m 68.68491,18.23572 c -0.08276,0 -0.16553,-0.01465 -0.24023,-0.04468 -0.07471,-0.03003 -0.14281,-0.07544 -0.20214,-0.1355 -0.1128,-0.11206 -0.18018,-0.26954 -0.18018,-0.43507 0,-0.08204 0.01465,-0.1648 0.04468,-0.23951 0.03735,-0.07544 0.08276,-0.14282 0.13549,-0.20288 0.23218,-0.23218 0.65186,-0.23218 0.87744,0 0.11938,0.11279 0.17944,0.27759 0.17944,0.44238 0,0.16553 -0.06006,0.323 -0.17944,0.43506 -0.05272,0.06007 -0.12011,0.10548 -0.19556,0.13551 -0.07471,0.03004 -0.15747,0.04469 -0.2395,0.04469 z"
   style="fill:#252626" />
		</g>
		<g
   id="g91">
			<path
   id="path89"
   inkscape:connector-curvature="0"
   d="m 71.69224,17.62048 c 0,-0.34497 0.27759,-0.62256 0.62256,-0.62256 v 0 c 0.34497,0 0.62256,0.27759 0.62256,0.62256 v 0 c 0,0.33765 -0.27759,0.62256 -0.62256,0.62256 v 0 c -0.34497,0 -0.62256,-0.28491 -0.62256,-0.62256 z"
   style="fill:#252626" />
		</g>
		<g
   id="g95">
			<path
   id="path93"
   inkscape:connector-curvature="0"
   d="m 75.94468,18.24304 c -0.08276,0 -0.15747,-0.02197 -0.23218,-0.052 -0.07545,-0.03003 -0.14282,-0.07544 -0.20288,-0.13549 -0.12012,-0.12012 -0.1875,-0.26954 -0.1875,-0.43506 0,-0.08204 0.02272,-0.1648 0.05273,-0.23951 0.03,-0.07544 0.0747,-0.14282 0.13477,-0.20288 0.17285,-0.17212 0.44971,-0.22485 0.67529,-0.13477 0.0747,0.03003 0.14209,0.07471 0.20215,0.13477 0.06007,0.06006 0.10547,0.12744 0.13477,0.20288 0.03,0.07471 0.04537,0.15747 0.04537,0.23951 0,0.16552 -0.06007,0.32299 -0.18017,0.43506 -0.06007,0.06006 -0.12744,0.10547 -0.20215,0.13549 -0.07545,0.03004 -0.15748,0.052 -0.24024,0.052 z"
   style="fill:#252626" />
		</g>
	</g>
	<g
   id="g156">
		<g
   id="g101">
			<path
   id="path99"
   inkscape:connector-curvature="0"
   d="m 18.74988,5.45276 h 4.0188 v 1.40918 h -2.57666 v 0.50537 h 2.25293 v 1.43335 h -2.25293 v 1.12646 h 2.51806 v 1.42529 h -3.9602 z"
   style="fill:#252626" />
		</g>
		<g
   id="g105">
			<path
   id="path103"
   inkscape:connector-curvature="0"
   d="m 26.93469,8.19568 v 3.15673 H 25.49255 V 5.45276 h 1.31763 l 2.11231,3.14062 V 5.45276 h 1.44214 v 5.89965 h -1.30884 z"
   style="fill:#252626" />
		</g>
		<g
   id="g109">
			<path
   id="path107"
   inkscape:connector-curvature="0"
   d="m 33.22985,5.45276 h 4.0188 v 1.40918 h -2.57666 v 0.50537 h 2.25293 v 1.43335 h -2.25293 v 1.12646 h 2.51806 v 1.42529 h -3.9602 c 0,10e-6 0,-5.89965 0,-5.89965 z"
   style="fill:#252626" />
		</g>
		<g
   id="g113">
			<path
   id="path111"
   inkscape:connector-curvature="0"
   d="M 45.13464,11.35242 H 43.4193 L 41.46374,8.80067 h -0.13257 v 2.55175 H 39.93078 V 5.45276 h 2.16284 c 0.43066,0 0.83643,0.17431 1.13525,0.47241 0.2981,0.30688 0.47241,0.7705 0.47241,1.2019 0,0.56324 -0.27392,1.11035 -0.71265,1.3916 z m -3.80347,-3.9602 h 0.76245 c 0.11573,0 0.19849,-0.14941 0.19849,-0.26514 0,-0.11645 -0.08276,-0.26514 -0.19849,-0.26514 h -0.76245 z"
   style="fill:#252626" />
		</g>
		<g
   id="g117">
			<path
   id="path115"
   inkscape:connector-curvature="0"
   d="m 46.57457,8.35315 c 0,-1.69849 1.38354,-3.08203 3.08204,-3.08203 0.82837,0 1.60766,0.323 2.18702,0.91113 l 0.27392,0.28199 -1.0276,0.89429 -0.24024,-0.23145 C 50.52672,6.81214 50.1041,6.63783 49.65659,6.63783 c -0.94483,0 -1.71533,0.7705 -1.71533,1.71533 0,0.95288 0.77051,1.72339 1.71533,1.72339 0.45557,0 0.87012,-0.17431 1.19312,-0.48925 V 8.85853 h -1.5249 V 7.49109 h 2.8916 v 2.58545 l -0.06592,0.09961 c -0.59692,0.79541 -1.53296,1.26709 -2.4939,1.26709 -1.69847,0 -3.08202,-1.38354 -3.08202,-3.09009 z"
   style="fill:#252626" />
		</g>
		<g
   id="g154">
			<path
   id="path152"
   inkscape:connector-curvature="0"
   d="M 56.33335,8.49378 C 55.72837,7.64051 54.72642,6.26502 54.1544,5.45276 h 1.76514 l 1.13453,1.58276 1.13525,-1.58276 h 1.75634 L 57.7755,8.49378 v 2.85864 H 56.33336 V 8.49378 Z"
   style="fill:#252626" />
		</g>
	</g>
	<g
   id="g127">
		<path
   id="path125"
   inkscape:connector-curvature="0"
   d="m 38.41759,169.79277 c -0.14428,0 -0.28784,-0.0549 -0.3977,-0.16479 -3.79468,-3.79468 -8.53344,-6.49658 -13.7036,-7.81274 -0.69946,-0.17725 -1.18798,-0.7998 -1.18798,-1.51392 l -0.0015,-26.27708 c 0,-0.31055 0.25196,-0.5625 0.5625,-0.5625 0.31054,0 0.5625,0.25195 0.5625,0.5625 l 0.0015,26.27708 c 0,0.19849 0.13989,0.3728 0.33985,0.42407 5.36645,1.36597 10.28466,4.16968 14.22216,8.10718 0.21973,0.21973 0.21973,0.57568 0,0.79541 -0.10989,0.10986 -0.25343,0.16479 -0.39773,0.16479 z"
   style="fill:#252626" />
	</g>
	<g
   id="g131">
		<path
   id="path129"
   inkscape:connector-curvature="0"
   d="m 28.91735,179.293 c -0.14428,0 -0.28784,-0.0549 -0.3977,-0.16479 -3.09375,-3.09302 -7.2063,-4.79662 -11.58032,-4.79662 -1.80469,0 -3.56763,0.2849 -5.23974,0.8474 -0.48266,0.1626 -1.0144,0.082 -1.42529,-0.2124 -0.41162,-0.2959 -0.64746,-0.75731 -0.64746,-1.26561 v -37.85301 c 0,-0.31055 0.25196,-0.5625 0.5625,-0.5625 0.31054,0 0.5625,0.25195 0.5625,0.5625 v 37.85301 c 0,0.19409 0.11279,0.30396 0.17944,0.35229 0.11865,0.0857 0.26807,0.1084 0.40943,0.0593 1.78858,-0.60132 3.67163,-0.90601 5.59863,-0.90601 4.67431,0 9.06957,1.82079 12.37573,5.12621 0.21973,0.21973 0.21973,0.57568 0,0.79541 -0.10987,0.10986 -0.25343,0.16479 -0.39772,0.16479 z"
   style="fill:#252626" />
	</g>
	<g
   id="g135">
		<path
   id="path133"
   inkscape:connector-curvature="0"
   d="m 49.96128,179.293 c -0.14429,0 -0.28784,-0.0549 -0.39771,-0.16479 -0.21973,-0.21973 -0.21973,-0.57568 0,-0.79541 3.30615,-3.30542 7.7014,-5.12621 12.37573,-5.12621 1.92627,0 3.80932,0.30469 5.5979,0.90601 0.13989,0.0476 0.29004,0.0256 0.41016,-0.0593 0.06738,-0.0483 0.17944,-0.1582 0.17944,-0.35229 V 135.848 c 0,-0.31055 0.25195,-0.5625 0.5625,-0.5625 0.31055,0 0.5625,0.25195 0.5625,0.5625 v 37.85301 c 0,0.5083 -0.23584,0.96971 -0.64746,1.26561 -0.41089,0.29443 -0.94336,0.37427 -1.42529,0.2124 -1.67285,-0.5625 -3.43579,-0.8474 -5.23975,-0.8474 -4.37402,0 -8.48657,1.7036 -11.58031,4.79662 -0.10986,0.10986 -0.25415,0.16479 -0.39771,0.16479 z"
   style="fill:#252626" />
	</g>
	<g
   id="g139">
		<path
   id="path137"
   inkscape:connector-curvature="0"
   d="m 23.68933,136.40314 c -0.31055,0 -0.5625,-0.25195 -0.5625,-0.5625 V 36.34557 c 0,-1.03857 0.60571,-1.99878 1.54248,-2.44629 L 40.82653,26.1737 c 0.28125,-0.13257 0.61597,-0.01465 0.75,0.26514 0.13403,0.27979 0.01538,0.61597 -0.26514,0.75 l -16.15722,7.72558 c -0.54785,0.26147 -0.90235,0.82325 -0.90235,1.43115 v 99.49507 c 1e-5,0.31054 -0.25194,0.5625 -0.56249,0.5625 z"
   style="fill:#252626" />
	</g>
	<g
   id="g143">
		<path
   id="path141"
   inkscape:connector-curvature="0"
   d="m 16.87488,129.10162 c -0.31054,0 -0.5625,-0.25195 -0.5625,-0.5625 v -81.5229 c 0,-1.03784 0.60498,-1.99732 1.54102,-2.44629 L 39.14416,34.37755 c 0.28125,-0.13257 0.61743,-0.01465 0.75074,0.2644 0.13403,0.28051 0.01538,0.6167 -0.2644,0.75074 L 18.33973,45.58507 c -0.54859,0.26221 -0.90235,0.82397 -0.90235,1.43115 v 81.5229 c 0,0.31055 -0.25195,0.5625 -0.5625,0.5625 z"
   style="fill:#252626" />
	</g>
	<g
   id="g147">
		<path
   id="path145"
   inkscape:connector-curvature="0"
   d="m 10.18934,131.47174 c -0.31054,0 -0.5625,-0.25195 -0.5625,-0.5625 V 56.7545 c 0,-1.03858 0.60498,-1.99878 1.54174,-2.44629 L 34.92101,42.94688 c 0.27905,-0.13257 0.61597,-0.01465 0.75,0.26514 0.13403,0.27979 0.01538,0.61597 -0.26514,0.75 L 11.65345,55.32334 c -0.54785,0.26147 -0.90161,0.82324 -0.90161,1.43115 v 74.15475 c 0,0.31055 -0.25196,0.5625 -0.5625,0.5625 z"
   style="fill:#252626" />
	</g>
	<g
   id="g151">
		<path
   id="path149"
   inkscape:connector-curvature="0"
   d="m 55.18565,132.37701 c -0.31055,0 -0.5625,-0.25195 -0.5625,-0.5625 V 71.07993 c 0,-4.03125 -3.27978,-7.3103 -7.31104,-7.3103 -4.03125,0 -7.3103,3.27905 -7.3103,7.3103 0,0.31055 -0.25195,0.5625 -0.5625,0.5625 -0.31055,0 -0.5625,-0.25195 -0.5625,-0.5625 0,-4.65088 3.78442,-8.4353 8.4353,-8.4353 4.65162,0 8.43604,3.78442 8.43604,8.4353 v 60.73459 c 0,0.31054 -0.25195,0.56249 -0.5625,0.56249 z"
   style="fill:#252626" />
	</g>
	<g
   id="g155">
		<path
   id="path153"
   inkscape:connector-curvature="0"
   d="m 61.93492,128.96906 c -0.31055,0 -0.5625,-0.25195 -0.5625,-0.5625 V 71.07993 c 0,-5.89159 -4.7937,-10.6853 -10.6853,-10.6853 -5.8916,0 -10.6853,4.7937 -10.6853,10.6853 0,0.31055 -0.25196,0.5625 -0.5625,0.5625 -0.31054,0 -0.5625,-0.25195 -0.5625,-0.5625 0,-6.51196 5.29833,-11.8103 11.8103,-11.8103 6.51197,0 11.8103,5.29834 11.8103,11.8103 v 57.32663 c 0,0.31054 -0.25196,0.5625 -0.5625,0.5625 z"
   style="fill:#252626" />
	</g>
	<g
   id="g159">
		<path
   id="path157"
   inkscape:connector-curvature="0"
   d="m 68.68418,133.08673 v 0 c -0.31055,0 -0.5625,-0.25195 -0.5625,-0.5625 l 0.0051,-61.44431 c 0,-7.75415 -6.30835,-14.06249 -14.06249,-14.06249 -7.75414,0 -14.06249,6.30835 -14.06249,14.06249 0,0.31055 -0.25196,0.5625 -0.5625,0.5625 -0.31054,0 -0.5625,-0.25195 -0.5625,-0.5625 0,-8.37451 6.81298,-15.18749 15.18749,-15.18749 8.37451,0 15.18749,6.81298 15.18749,15.18749 l -0.0051,61.44431 c 0,0.31055 -0.25195,0.5625 -0.5625,0.5625 z"
   style="fill:#252626" />
	</g>
	<g
   id="g173">
		<g
   id="g163">
			<path
   id="path161"
   inkscape:connector-curvature="0"
   d="m 55.74229,97.77815 c -4.30737,0 -8.36425,-1.59741 -11.52759,-4.56225 -3.39258,-3.18017 -5.33789,-7.66919 -5.33789,-12.31714 0,-0.31055 0.25196,-0.56249 0.5625,-0.56249 0.31054,0 0.5625,0.25195 0.5625,0.56249 0,4.40186 1.76954,8.48438 4.98266,11.49609 3.2102,3.00953 7.40918,4.5022 11.82055,4.22388 8.24561,-0.53394 14.70409,-7.68384 14.70409,-16.2788 V 58.3065 c 0,-0.60718 -0.35376,-1.16821 -0.90161,-1.43042 L 43.35485,43.96275 c -0.28051,-0.1333 -0.40063,-0.46875 -0.26733,-0.74926 0.13257,-0.28051 0.46875,-0.39844 0.74926,-0.26734 L 71.09164,55.8602 c 0.9375,0.44897 1.54248,1.40918 1.54248,2.44629 v 22.03344 c 0,9.18603 -6.92065,16.82957 -15.75585,17.40086 -0.38085,0.02491 -0.75951,0.03736 -1.13598,0.03736 z"
   style="fill:#252626" />
		</g>
		<g
   id="g167">
			<path
   id="path165"
   inkscape:connector-curvature="0"
   d="m 52.31676,94.0494 c -0.08204,0 -0.16406,-7.3e-4 -0.2461,-0.0023 -7.30078,-0.13696 -13.24072,-6.19116 -13.24072,-13.4956 0,-0.31055 0.25195,-0.5625 0.5625,-0.5625 0.31054,0 0.5625,0.25195 0.5625,0.5625 0,6.69579 5.44409,12.24535 12.13622,12.3706 3.26514,0.06667 6.35156,-1.19678 8.73852,-3.53906 2.4602,-2.41406 3.87085,-5.75683 3.87085,-9.17065 V 48.23643 c 0,-0.60717 -0.35376,-1.16894 -0.90162,-1.43115 L 43.35265,37.01646 c -0.27979,-0.13403 -0.39844,-0.47021 -0.2644,-0.75074 0.13403,-0.27979 0.47021,-0.39844 0.75073,-0.2644 l 20.44629,9.78881 c 0.93604,0.44897 1.54028,1.40918 1.54028,2.44629 v 31.97606 c 0,3.71411 -1.53369,7.34912 -4.20776,9.97338 -2.5437,2.49683 -5.83887,3.86354 -9.30103,3.86354 z"
   style="fill:#252626" />
		</g>
		<g
   id="g171">
			<path
   id="path169"
   inkscape:connector-curvature="0"
   d="m 48.97398,90.68392 c -2.67041,0 -5.18114,-1.02539 -7.08984,-2.89892 -1.95484,-1.91968 -3.03149,-4.48535 -3.03149,-7.22461 0,-0.31055 0.25196,-0.5625 0.5625,-0.5625 0.31054,0 0.5625,0.25195 0.5625,0.5625 0,2.43456 0.95728,4.71533 2.69458,6.42188 1.7373,1.70508 4.02612,2.63306 6.4724,2.57519 4.8684,-0.08936 8.82934,-4.26709 8.82934,-9.31347 v -43.1074 c 0,-0.60424 -0.33618,-1.1477 -0.87672,-1.4187 L 39.11998,26.71643 c -0.27759,-0.13916 -0.39038,-0.47754 -0.25122,-0.75513 0.13989,-0.27686 0.47534,-0.38891 0.75513,-0.25122 l 17.97728,9.00146 c 0.92359,0.46289 1.4978,1.39234 1.4978,2.42505 v 43.1074 c 0,5.65502 -4.45605,10.33739 -9.93383,10.43847 -0.06372,7.3e-4 -0.12744,0.0015 -0.19116,0.0015 z"
   style="fill:#252626" />
		</g>
	</g>
	<g
   id="g177">
		<circle
   id="circle175"
   cx="39.392399"
   cy="35.695911"
   r="11.24999"
   style="fill:#252626" />
	</g>
	<g
   id="g181">
		<path
   id="path179"
   inkscape:connector-curvature="0"
   d="m 62.00377,261.28467 c -0.12891,0 -0.25854,-0.0396 -0.36987,-0.12231 -0.27539,-0.20508 -0.33252,-0.59399 -0.12817,-0.86938 l 8.3225,-11.18774 c 0.20508,-0.27539 0.59399,-0.33252 0.86938,-0.12817 0.27539,0.20508 0.33252,0.59399 0.12817,0.86938 l -8.3225,11.18774 c -0.12233,0.16405 -0.30983,0.25048 -0.49951,0.25048 z"
   style="fill:#252626" />
	</g>
	<g
   id="g185">
		<path
   id="path183"
   inkscape:connector-curvature="0"
   d="m 16.62366,261.28467 c -0.1897,0 -0.3772,-0.0864 -0.49951,-0.25049 L 7.80238,249.84644 c -0.20435,-0.27539 -0.14722,-0.66431 0.12818,-0.86938 0.27539,-0.20435 0.6643,-0.14722 0.86938,0.12817 l 8.32177,11.18774 c 0.20435,0.27539 0.14722,0.66431 -0.12818,0.86938 -0.11132,0.0828 -0.24097,0.12232 -0.36987,0.12232 z"
   style="fill:#252626" />
	</g>
	<g
   id="g189">
		<path
   id="path187"
   inkscape:connector-curvature="0"
   d="m 39.43859,219.88161 c -0.1084,0 -0.21899,-0.0315 -0.31567,-0.0974 -0.25708,-0.17432 -0.32373,-0.52441 -0.14868,-0.78149 L 59.4359,188.9119 c 0.17431,-0.25635 0.52295,-0.32446 0.78149,-0.14868 0.25708,0.17432 0.32373,0.52441 0.14868,0.78149 l -20.46166,30.09081 c -0.10912,0.15966 -0.28564,0.24609 -0.46582,0.24609 z"
   style="fill:#252626" />
	</g>
	<g
   id="g193">
		<path
   id="path191"
   inkscape:connector-curvature="0"
   d="m 52.37022,238.7583 c -0.31055,0 -0.5625,-0.25195 -0.5625,-0.5625 v -22.58568 c 0,-1.38281 0.41162,-2.71875 1.18945,-3.86353 l 9.38232,-13.79808 c 0.17285,-0.25562 0.52368,-0.3252 0.78149,-0.14868 0.25708,0.17432 0.32373,0.52441 0.14868,0.78149 l -9.38232,13.79808 c -0.65039,0.95654 -0.99463,2.07422 -0.99463,3.23071 v 22.58568 c 1e-5,0.31056 -0.25194,0.56251 -0.56249,0.56251 z"
   style="fill:#252626" />
	</g>
	<g
   id="g197">
		<path
   id="path195"
   inkscape:connector-curvature="0"
   d="m 62.38682,212.66432 c -0.1084,0 -0.21899,-0.0315 -0.31567,-0.0974 -0.25708,-0.17432 -0.32373,-0.52441 -0.14868,-0.78149 l 8.49096,-12.48778 c 0.17358,-0.25635 0.52295,-0.32446 0.78149,-0.14868 0.25708,0.17432 0.32373,0.52441 0.14868,0.78149 l -8.49096,12.48778 c -0.1084,0.15967 -0.28564,0.24609 -0.46582,0.24609 z"
   style="fill:#252626" />
	</g>
	<g
   id="g201">
		<path
   id="path199"
   inkscape:connector-curvature="0"
   d="m 39.11852,219.61574 c -0.18017,0 -0.35669,-0.0864 -0.46582,-0.24609 L 18.19104,189.27884 c -0.17505,-0.25708 -0.1084,-0.60718 0.14868,-0.78149 0.25708,-0.17651 0.60644,-0.10693 0.78149,0.14868 l 20.46166,30.09081 c 0.17505,0.25708 0.1084,0.60718 -0.14868,0.78149 -0.09667,0.0659 -0.20727,0.0974 -0.31567,0.0974 z"
   style="fill:#252626" />
	</g>
	<g
   id="g205">
		<path
   id="path203"
   inkscape:connector-curvature="0"
   d="m 26.24182,238.7583 c -0.31054,0 -0.5625,-0.25195 -0.5625,-0.5625 v -22.58568 c 0,-1.15723 -0.34351,-2.27417 -0.9939,-3.23071 l -9.38305,-13.79808 c -0.17505,-0.25708 -0.1084,-0.60718 0.14868,-0.78149 0.25708,-0.17651 0.60644,-0.10693 0.78149,0.14868 l 9.38305,13.79808 c 0.77783,1.14404 1.18872,2.47998 1.18872,3.86353 v 22.58568 c 10e-6,0.31054 -0.25194,0.56249 -0.56249,0.56249 z"
   style="fill:#252626" />
	</g>
	<g
   id="g209">
		<path
   id="path207"
   inkscape:connector-curvature="0"
   d="m 16.10144,212.13698 c -0.18017,0 -0.35669,-0.0864 -0.46582,-0.24609 L 7.55628,200.00956 c -0.17505,-0.25708 -0.1084,-0.60718 0.14868,-0.78149 0.25708,-0.17651 0.60644,-0.10693 0.78149,0.14868 l 8.07934,11.88133 c 0.17505,0.25708 0.1084,0.60718 -0.14868,0.78149 -0.09667,0.0659 -0.20727,0.0974 -0.31567,0.0974 z"
   style="fill:#252626" />
	</g>
	<g
   id="g213">
		<path
   id="path211"
   inkscape:connector-curvature="0"
   d="m 39.35143,56.71494 c -0.31054,0 -0.5625,-0.25195 -0.5625,-0.5625 V 36.07091 c 0,-0.31054 0.25196,-0.5625 0.5625,-0.5625 0.31054,0 0.5625,0.25196 0.5625,0.5625 v 20.08153 c 0,0.31055 -0.25195,0.5625 -0.5625,0.5625 z"
   style="fill:#252626" />
	</g>
	<g
   id="g225">
		<g
   id="g217">
			<circle
   id="circle215"
   cx="39.439152"
   cy="53.218239"
   r="4.7249999"
   style="fill:#252626" />
		</g>
		<g
   id="g223">
			<g
   id="g221">
				<path
   id="path219"
   inkscape:connector-curvature="0"
   d="M 37.92614,50.70176 H 41.307 v 1.18506 h -2.16797 v 0.4248 h 1.8955 v 1.20557 h -1.8955 v 0.94775 h 2.11963 v 1.19897 h -3.33252 c -10e-6,10e-6 -10e-6,-4.96215 0,-4.96215 z"
   style="fill:#e5e5e5" />
			</g>
		</g>
	</g>
	<g
   id="g229">
		<path
   id="path227"
   inkscape:connector-curvature="0"
   d="m 39.37487,200.06668 c -0.06958,0 -0.13989,-0.0125 -0.208,-0.0395 l -5.77954,-2.29907 c -0.80713,-0.32153 -1.2334,-1.21362 -0.97046,-2.03101 0.51489,-1.60693 0.77637,-3.28564 0.77637,-4.98853 0,-4.21947 -1.60473,-8.22289 -4.51904,-11.27269 -0.2146,-0.22485 -0.20654,-0.58081 0.01758,-0.79541 0.22412,-0.2146 0.58008,-0.20654 0.79541,0.0175 3.11572,3.26074 4.83105,7.54028 4.83105,12.05054 0,1.81934 -0.27905,3.61377 -0.83056,5.33203 -0.08204,0.25708 0.0564,0.53833 0.31567,0.64233 l 5.77954,2.29834 c 0.28857,0.11499 0.4292,0.44238 0.31494,0.73096 -0.0879,0.22047 -0.29957,0.3545 -0.52296,0.3545 z"
   style="fill:#252626" />
	</g>
	<g
   id="g233">
		<path
   id="path231"
   inkscape:connector-curvature="0"
   d="m 39.11779,149.38969 c -0.13037,0 -0.26147,-0.0447 -0.36768,-0.13696 L 16.5072,130.04352 c -0.23511,-0.20288 -0.26074,-0.55811 -0.05786,-0.79321 0.20361,-0.23584 0.55884,-0.26147 0.79321,-0.0578 l 22.24291,19.20923 c 0.23511,0.20288 0.26075,0.55811 0.05786,0.79321 -0.11134,0.12891 -0.26807,0.19482 -0.42554,0.19482 z"
   style="fill:#252626" />
	</g>
	<g
   id="g237">
		<path
   id="path235"
   inkscape:connector-curvature="0"
   d="m 61.87486,128.88336 c -0.1333,0 -0.2666,-0.0469 -0.37354,-0.14209 L 39.09727,108.80842 c -0.23218,-0.20654 -0.25342,-0.5625 -0.04688,-0.79395 0.20728,-0.23364 0.56324,-0.25269 0.79394,-0.0469 l 22.40404,19.93285 c 0.23218,0.20654 0.25342,0.5625 0.04688,0.79395 -0.11131,0.12525 -0.26586,0.18897 -0.42039,0.18897 z"
   style="fill:#252626" />
	</g>
	<g
   id="g245">
		<path
   id="path239"
   inkscape:connector-curvature="0"
   d="m 17.50183,135.84796 c 0,-0.31055 -0.25195,-0.5625 -0.5625,-0.5625 -0.31055,0 -0.5625,0.25195 -0.5625,0.5625 v 9.79137 h 1.125 z"
   style="fill:#252626" />
		<path
   id="path241"
   inkscape:connector-curvature="0"
   d="m 62.31211,126.49933 c 0,-0.31055 -0.25195,-0.5625 -0.5625,-0.5625 -0.31055,0 -0.5625,0.25195 -0.5625,0.5625 v 19.14 h 1.125 z"
   style="fill:#252626" />
		<path
   id="path243"
   inkscape:connector-curvature="0"
   d="m 61.18711,154.11748 c 0,0.69214 -0.26954,1.34326 -0.75953,1.83325 l -22.19091,22.17772 c -0.09595,0.0952 -0.22266,0.14429 -0.36475,0.12671 -0.07764,-0.01 -0.22119,-0.0476 -0.31567,-0.20068 -1.03858,-1.68896 -2.28662,-3.25122 -3.70898,-4.64207 -4.28247,-4.18652 -9.93017,-6.62695 -15.9038,-6.87085 -0.24756,-0.0103 -0.44165,-0.20288 -0.44165,-0.43945 V 152.8383 h -1.125 v 13.26379 c 0,0.84229 0.66797,1.52856 1.52124,1.56299 5.69457,0.23291 11.08007,2.55981 15.16259,6.55151 1.35718,1.32713 2.54736,2.81615 3.5376,4.42674 0.24976,0.40723 0.66578,0.6731 1.14111,0.72876 0.06299,0.008 0.12524,0.011 0.18676,0.011 0.41309,0 0.8086,-0.16187 1.10596,-0.45923 L 61.223,156.74611 c 0.70239,-0.70239 1.08911,-1.6355 1.08911,-2.62866 v -1.27917 h -1.125 c 0,0 0,1.27917 1e-5,1.27917 v 3e-5 z"
   style="fill:#252626" />
	</g>
	<g
   id="g249">
		<path
   id="path247"
   inkscape:connector-curvature="0"
   d="m 43.16442,164.63872 c -0.38965,0 -0.78149,-0.14575 -1.09058,-0.43945 -5.14966,-4.88452 -11.54223,-8.14087 -18.48485,-9.41748 -0.30542,-0.0557 -0.50757,-0.34937 -0.45117,-0.65479 0.05567,-0.30542 0.34643,-0.50903 0.65479,-0.45117 7.15796,1.31543 13.74682,4.67212 19.05614,9.70752 0.17871,0.16992 0.45044,0.16919 0.6189,7.3e-4 l 10.36816,-10.05762 c 0.50024,-0.4856 0.78735,-1.16309 0.78735,-1.85962 v -40.43186 c 0,-0.31055 0.25195,-0.5625 0.5625,-0.5625 0.31055,0 0.5625,0.25195 0.5625,0.5625 v 40.43186 c 0,0.99902 -0.41162,1.97095 -1.12866,2.66675 l -10.3623,10.05176 c -0.30176,0.30176 -0.6958,0.45338 -1.09278,0.45338 z"
   style="fill:#252626" />
	</g>
	<g
   id="g261">
		<g
   id="g253">
			<circle
   id="circle251"
   cx="16.87488"
   cy="107.74271"
   r="4.7249999"
   style="fill:#252626" />
		</g>
		<g
   id="g259">
			<g
   id="g257">
				<path
   id="path255"
   inkscape:connector-curvature="0"
   d="m 17.91346,110.16413 v -2.74584 c -0.37061,0.50171 -0.75293,1.01733 -1.03858,1.41504 l -1.03125,-1.41504 v 2.74584 H 14.6366 v -4.96215 h 1.07373 l 1.16455,1.60252 1.16308,-1.60254 h 1.07373 v 4.96216 z"
   style="fill:#e5e5e5" />
			</g>
		</g>
	</g>
	<g
   id="g273">
		<g
   id="g265">
			<circle
   id="circle263"
   cx="61.93914"
   cy="107.74271"
   r="4.7249999"
   style="fill:#252626" />
		</g>
		<g
   id="g271">
			<g
   id="g269">
				<path
   id="path267"
   inkscape:connector-curvature="0"
   d="m 63.19834,108.33821 0.95508,0.70386 c -0.62036,0.82909 -1.35204,1.19164 -2.16064,1.19164 -1.42163,0 -2.58545,-1.16381 -2.58545,-2.58544 0,-1.42163 1.16381,-2.57886 2.58545,-2.57886 0.82251,0 1.56811,0.38306 2.18847,1.21289 l -0.96899,0.71045 c -0.39038,-0.52222 -0.78735,-0.73169 -1.21948,-0.73169 -0.77344,0 -1.38721,0.62036 -1.38721,1.38721 0,0.77344 0.61377,1.38647 1.38721,1.38647 0.43213,0 0.81518,-0.1809 1.20556,-0.69653 z"
   style="fill:#e5e5e5" />
			</g>
		</g>
	</g>
	<g
   id="g311">
		<g
   id="g283">
			<g
   id="g277">
				<path
   id="path275"
   inkscape:connector-curvature="0"
   d="m 35.32458,125.08063 c -0.16479,-0.29956 -0.06006,-0.67456 0.23291,-0.84741 v 0 c 0.29956,-0.16479 0.68188,-0.0601 0.84741,0.24023 v 0 c 0.17212,0.29224 0.06738,0.67456 -0.23291,0.84009 v 0 c -0.09741,0.0593 -0.20214,0.082 -0.30762,0.082 v 0 c -0.21753,-1e-5 -0.427,-0.11206 -0.53979,-0.31494 z m 1.6648,-0.84741 c -0.08936,-0.33032 0.11279,-0.66723 0.44312,-0.75732 v 0.007 c 0.33691,-0.0901 0.67456,0.11279 0.75732,0.44238 v 0 c 0.09009,0.33032 -0.11279,0.67529 -0.44238,0.75732 v 0 0 0 c -0.05273,0.0154 -0.10547,0.0227 -0.15747,0.0227 v 0 c -0.2776,1e-5 -0.53247,-0.18749 -0.60059,-0.47241 z"
   style="fill:#ff4257" />
			</g>
			<g
   id="g281">
				<path
   id="path279"
   inkscape:connector-curvature="0"
   d="m 34.38708,126.52057 c -0.09009,0 -0.16479,-0.0146 -0.24023,-0.052 -0.07471,-0.03 -0.14209,-0.0754 -0.20215,-0.1355 -0.12012,-0.11206 -0.18017,-0.26953 -0.18017,-0.43506 0,-0.082 0.01538,-0.16479 0.04541,-0.2395 0.03003,-0.0754 0.07471,-0.14282 0.13477,-0.20288 0.05273,-0.0527 0.12012,-0.10474 0.20215,-0.13477 0.15015,-0.0601 0.32299,-0.0601 0.47314,0 0.07471,0.03 0.14209,0.082 0.20215,0.13477 0.06006,0.0601 0.10474,0.12744 0.13477,0.20288 0.03003,0.0747 0.04541,0.15747 0.04541,0.2395 0,0.16553 -0.06006,0.323 -0.18017,0.43506 -0.12014,0.12012 -0.27761,0.1875 -0.43508,0.1875 z"
   style="fill:#ff4257" />
			</g>
		</g>
		<g
   id="g293">
			<g
   id="g287">
				<path
   id="path285"
   inkscape:connector-curvature="0"
   d="m 40.61193,137.95074 c -0.08204,-0.33765 0.12012,-0.67529 0.45044,-0.75732 v 0 0 0 c 0.32959,-0.0828 0.66723,0.11206 0.75732,0.44971 v 0 c 0.08276,0.33032 -0.12012,0.66724 -0.44971,0.75 v 0 c -0.05273,0.0154 -0.10547,0.0227 -0.15747,0.0227 v 0 c -0.27027,2e-5 -0.52515,-0.18748 -0.60059,-0.46509 v -2e-5 z m 1.78491,-0.54783 c -0.1648,-0.29956 -0.06738,-0.67456 0.23291,-0.83936 v 0 c 0,0 0,0 0,-0.008 v 0 c 0.30029,-0.16479 0.68262,-0.0601 0.84741,0.24023 v 0 c 0.17285,0.29224 0.06738,0.67529 -0.23218,0.84741 v 0 c -0.09814,0.0527 -0.20288,0.0754 -0.30762,0.0754 v 0 c -0.2102,-2e-5 -0.42773,-0.11281 -0.54052,-0.31567 z"
   style="fill:#ff4257" />
			</g>
			<g
   id="g291">
				<path
   id="path289"
   inkscape:connector-curvature="0"
   d="m 44.42198,136.60089 c -0.08203,0 -0.16479,-0.0154 -0.2395,-0.0454 -0.07544,-0.03 -0.14282,-0.082 -0.19556,-0.13477 -0.06006,-0.0601 -0.10474,-0.12744 -0.13477,-0.20215 -0.03003,-0.0754 -0.05273,-0.1582 -0.05273,-0.24023 0,-0.0828 0.02271,-0.16479 0.05273,-0.24023 0.03003,-0.0747 0.07471,-0.14209 0.13477,-0.19482 0.05273,-0.0601 0.12012,-0.10474 0.19556,-0.13477 0.23218,-0.0981 0.50977,-0.0381 0.68188,0.13477 0.05273,0.0527 0.09814,0.12012 0.13549,0.19482 0.03003,0.0754 0.04468,0.15747 0.04468,0.24023 0,0.082 -0.01465,0.16479 -0.04468,0.24023 -0.03003,0.0747 -0.07544,0.14209 -0.13549,0.20215 -0.11938,0.11279 -0.26953,0.18018 -0.44238,0.18018 z"
   style="fill:#ff4257" />
			</g>
		</g>
		<g
   id="g297">
			<path
   id="path295"
   inkscape:connector-curvature="0"
   d="m 39.37194,138.58063 c -0.0015,0 -0.0037,0 -0.0059,0 -2.04052,-0.0205 -3.95288,-0.8335 -5.38477,-2.28809 -0.21753,-0.22192 -0.2146,-0.57788 0.0066,-0.79541 0.22338,-0.21973 0.57788,-0.21387 0.79614,0.006 1.22094,1.24146 2.85205,1.93506 4.59375,1.95264 0.31054,0.003 0.55957,0.25781 0.55664,0.56836 -0.0029,0.30835 -0.25415,0.55664 -0.5625,0.55664 z"
   style="fill:#252626" />
		</g>
		<g
   id="g301">
			<path
   id="path299"
   inkscape:connector-curvature="0"
   d="m 39.43493,148.60747 c -0.31054,0 -0.5625,-0.25195 -0.5625,-0.5625 v -10.01366 c 0,-0.31055 0.25196,-0.5625 0.5625,-0.5625 0.31054,0 0.5625,0.25195 0.5625,0.5625 v 10.01366 c 0,0.31054 -0.25196,0.5625 -0.5625,0.5625 z"
   style="fill:#252626" />
		</g>
		<g
   id="g305">
			<path
   id="path303"
   inkscape:connector-curvature="0"
   d="m 39.43493,124.42291 c -0.31054,0 -0.5625,-0.25195 -0.5625,-0.5625 v -10.01366 c 0,-0.31055 0.25196,-0.5625 0.5625,-0.5625 0.31054,0 0.5625,0.25195 0.5625,0.5625 v 10.01366 c 0,0.31055 -0.25196,0.5625 -0.5625,0.5625 z"
   style="fill:#252626" />
		</g>
		<g
   id="g309">
			<path
   id="path307"
   inkscape:connector-curvature="0"
   d="m 44.42418,126.54108 c -0.14576,0 -0.29078,-0.0564 -0.40063,-0.16772 -1.22241,-1.24146 -2.85352,-1.93506 -4.59448,-1.95264 -0.31054,-0.003 -0.55957,-0.25781 -0.55664,-0.56836 0.0029,-0.30834 0.25415,-0.55663 0.5625,-0.55663 0.0015,0 0.0037,0 0.0058,0 2.03979,0.0205 3.95214,0.83349 5.38403,2.28808 0.21827,0.22192 0.21533,0.57788 -0.0059,0.79541 -0.10987,0.10839 -0.25195,0.16186 -0.39478,0.16186 z"
   style="fill:#252626" />
		</g>
	</g>
	<g
   id="g315">
		<path
   id="path313"
   inkscape:connector-curvature="0"
   d="m 33.36316,121.19367 c -0.19702,0 -0.38818,-0.10327 -0.49145,-0.28711 -0.15161,-0.271 -0.05566,-0.61377 0.21533,-0.76611 1.86401,-1.04517 3.98511,-1.59741 6.1333,-1.59741 0.31054,0 0.5625,0.25195 0.5625,0.5625 0,0.31055 -0.25195,0.5625 -0.5625,0.5625 -1.9563,0 -3.88623,0.50244 -5.58252,1.45386 -0.08716,0.0483 -0.18165,0.0718 -0.27466,0.0718 z"
   style="fill:#252626" />
	</g>
	<g
   id="g385">
		<g
   id="g319">
			<path
   id="path317"
   inkscape:connector-curvature="0"
   d="m 12.59754,15.88171 h 0.40796 v 0.85108 h 0.01391 c 0.22558,-0.58374 0.71777,-0.92871 1.37256,-0.90088 v 0.44385 c -0.80273,-0.04248 -1.35132,0.54859 -1.35132,1.30151 v 1.93579 h -0.44312 z"
   style="fill:#252626" />
		</g>
		<g
   id="g323">
			<path
   id="path321"
   inkscape:connector-curvature="0"
   d="m 14.82191,14.48792 h 0.44385 v 0.71045 h -0.44385 z m 0,1.39379 h 0.44385 v 3.63135 h -0.44385 z"
   style="fill:#252626" />
		</g>
		<g
   id="g327">
			<path
   id="path325"
   inkscape:connector-curvature="0"
   d="m 16.11097,15.88171 h 0.44311 v 0.62622 h 0.01465 c 0.16187,-0.43652 0.64746,-0.73242 1.16089,-0.73242 1.02026,0 1.33008,0.5354 1.33008,1.40112 v 2.33642 h -0.44312 v -2.26611 c 0,-0.62622 -0.20435,-1.0979 -0.92212,-1.0979 -0.70386,0 -1.12573,0.53467 -1.14038,1.24585 v 2.11816 h -0.44312 c 10e-6,0 10e-6,-3.63134 10e-6,-3.63134 z"
   style="fill:#252626" />
		</g>
		<g
   id="g331">
			<path
   id="path329"
   inkscape:connector-curvature="0"
   d="m 22.96789,19.21716 c -0.0066,1.08398 -0.42188,1.7461 -1.61133,1.7461 -0.7251,0 -1.44287,-0.32373 -1.50659,-1.09863 h 0.44385 c 0.09814,0.5354 0.56983,0.7251 1.06274,0.7251 0.81592,0 1.16821,-0.48559 1.16821,-1.37256 v -0.49219 h -0.01391 c -0.20435,0.44311 -0.63355,0.7456 -1.15429,0.7456 -1.16162,0 -1.63989,-0.83056 -1.63989,-1.86475 0,-0.99976 0.59107,-1.83032 1.63989,-1.83032 0.52735,0 0.97778,0.33106 1.15429,0.73242 h 0.01391 v -0.62622 h 0.44312 z m -0.44311,-1.56225 c 0,-0.71045 -0.33106,-1.50586 -1.16821,-1.50586 -0.84449,0 -1.19678,0.75293 -1.19678,1.50586 0,0.73169 0.38013,1.44287 1.19678,1.44287 0.76684,0 1.16821,-0.70386 1.16821,-1.44287 z"
   style="fill:#252626" />
		</g>
		<g
   id="g335">
			<path
   id="path333"
   inkscape:connector-curvature="0"
   d="m 23.81458,15.88171 h 0.40796 v 0.61231 h 0.02124 c 0.23218,-0.43652 0.61231,-0.71851 1.18946,-0.71851 0.47828,0 0.90747,0.23291 1.0415,0.71118 0.21827,-0.47827 0.67529,-0.71118 1.15429,-0.71118 0.79541,0 1.20337,0.41528 1.20337,1.27442 v 2.46313 h -0.44311 v -2.44189 c 0,-0.59839 -0.22559,-0.92212 -0.85913,-0.92212 -0.76684,0 -0.98511,0.63355 -0.98511,1.30884 v 2.05517 h -0.44312 v -2.46313 c 0.0066,-0.49292 -0.19702,-0.90088 -0.76025,-0.90088 -0.76758,0 -1.07666,0.57715 -1.08398,1.33667 v 2.02735 h -0.44312 c -10e-6,0 -10e-6,-3.63136 0,-3.63136 z"
   style="fill:#252626" />
		</g>
		<g
   id="g339">
			<path
   id="path337"
   inkscape:connector-curvature="0"
   d="m 32.93102,17.69738 c 0,1.0415 -0.60498,1.92114 -1.71753,1.92114 -1.11181,0 -1.71679,-0.87964 -1.71679,-1.92114 0,-1.0415 0.60498,-1.92187 1.71679,-1.92187 1.11255,0 1.71753,0.88037 1.71753,1.92187 z m -2.99121,0 c 0,0.77417 0.42261,1.54834 1.27368,1.54834 0.8518,0 1.27441,-0.77417 1.27441,-1.54834 0,-0.77417 -0.42261,-1.54834 -1.27441,-1.54834 -0.85107,10e-6 -1.27368,0.77418 -1.27368,1.54834 z"
   style="fill:#252626" />
		</g>
		<g
   id="g343">
			<path
   id="path341"
   inkscape:connector-curvature="0"
   d="m 36.78942,19.51306 h -0.40796 v -0.68994 h -0.01392 c -0.19043,0.47168 -0.76758,0.79541 -1.29492,0.79541 -1.10522,0 -1.6333,-0.89356 -1.6333,-1.92114 0,-1.02758 0.52808,-1.92187 1.6333,-1.92187 0.54126,0 1.06934,0.27466 1.25977,0.79541 h 0.01391 v -2.083 h 0.44312 c 0,0 0,5.02513 0,5.02513 z m -1.7168,-0.26733 c 0.94263,0 1.27368,-0.79541 1.27368,-1.54834 0,-0.75293 -0.33105,-1.54834 -1.27368,-1.54834 -0.84521,0 -1.18945,0.79541 -1.18945,1.54834 0,0.75293 0.34424,1.54834 1.18945,1.54834 z"
   style="fill:#252626" />
		</g>
		<g
   id="g347">
			<path
   id="path345"
   inkscape:connector-curvature="0"
   d="m 42.84508,17.69738 c 0,1.0415 -0.60498,1.92114 -1.71753,1.92114 -1.11181,0 -1.71679,-0.87964 -1.71679,-1.92114 0,-1.0415 0.60498,-1.92187 1.71679,-1.92187 1.11255,0 1.71753,0.88037 1.71753,1.92187 z m -2.99121,0 c 0,0.77417 0.42261,1.54834 1.27368,1.54834 0.8518,0 1.27441,-0.77417 1.27441,-1.54834 0,-0.77417 -0.42261,-1.54834 -1.27441,-1.54834 -0.85107,10e-6 -1.27368,0.77418 -1.27368,1.54834 z"
   style="fill:#252626" />
		</g>
		<g
   id="g351">
			<path
   id="path349"
   inkscape:connector-curvature="0"
   d="m 45.68321,16.94446 c -0.02124,-0.54931 -0.44385,-0.79541 -0.94995,-0.79541 -0.39478,0 -0.85913,0.15454 -0.85913,0.62622 0,0.39404 0.45044,0.53467 0.75293,0.61231 l 0.59179,0.13403 c 0.50684,0.0769 1.03418,0.3728 1.03418,1.00635 0,0.78808 -0.78077,1.09057 -1.45678,1.09057 -0.84449,0 -1.42163,-0.39404 -1.49195,-1.28101 h 0.44312 c 0.03516,0.59839 0.479,0.9082 1.07007,0.9082 0.41528,0 0.99243,-0.18311 0.99243,-0.68994 0,-0.42188 -0.39404,-0.56323 -0.79541,-0.66138 l -0.56982,-0.12671 c -0.57715,-0.15527 -1.01367,-0.3523 -1.01367,-0.97119 0,-0.73901 0.7251,-1.021 1.36523,-1.021 0.7251,0 1.30225,0.38013 1.33008,1.16894 0,10e-6 -0.44311,10e-6 -0.44312,2e-5 z"
   style="fill:#252626" />
		</g>
		<g
   id="g355">
			<path
   id="path353"
   inkscape:connector-curvature="0"
   d="m 49.45665,17.02136 c -0.11938,-0.54199 -0.45044,-0.87232 -1.02759,-0.87232 -0.85108,0 -1.27368,0.77417 -1.27368,1.54834 0,0.77417 0.42261,1.54834 1.27368,1.54834 0.54932,0 0.99976,-0.4292 1.05615,-1.03491 h 0.44312 c -0.11938,0.87304 -0.68994,1.40771 -1.49927,1.40771 -1.11182,0 -1.71679,-0.87964 -1.71679,-1.92114 0,-1.0415 0.60498,-1.92187 1.71679,-1.92187 0.77417,0 1.37256,0.41528 1.47143,1.24585 z"
   style="fill:#252626" />
		</g>
		<g
   id="g359">
			<path
   id="path357"
   inkscape:connector-curvature="0"
   d="m 50.55675,14.48792 h 0.44385 v 0.71045 h -0.44385 z m 0,1.39379 h 0.44385 v 3.63135 h -0.44385 z"
   style="fill:#252626" />
		</g>
		<g
   id="g363">
			<path
   id="path361"
   inkscape:connector-curvature="0"
   d="m 51.85972,14.48792 h 0.44384 v 5.02515 h -0.44384 z"
   style="fill:#252626" />
		</g>
		<g
   id="g367">
			<path
   id="path365"
   inkscape:connector-curvature="0"
   d="m 53.1627,14.48792 h 0.44385 v 5.02515 H 53.1627 Z"
   style="fill:#252626" />
		</g>
		<g
   id="g371">
			<path
   id="path369"
   inkscape:connector-curvature="0"
   d="m 54.4166,16.99353 c 0.04248,-0.8518 0.64014,-1.21801 1.4707,-1.21801 0.64087,0 1.3374,0.19702 1.3374,1.16894 v 1.92847 c 0,0.16846 0.08422,0.26734 0.26074,0.26734 0.04907,0 0.10547,-0.01465 0.14062,-0.02857 v 0.37354 c -0.09888,0.0205 -0.1692,0.02783 -0.28858,0.02783 -0.45044,0 -0.52076,-0.25342 -0.52076,-0.63355 h -0.01465 c -0.30908,0.47168 -0.62622,0.73901 -1.32275,0.73901 -0.6687,0 -1.21802,-0.33106 -1.21802,-1.06274 0,-1.02026 0.99243,-1.05542 1.94971,-1.16822 0.36621,-0.04248 0.57056,-0.09155 0.57056,-0.49292 0,-0.59766 -0.42993,-0.74561 -0.95068,-0.74561 -0.54859,0 -0.95654,0.25342 -0.97119,0.84449 -2e-5,0 -0.44312,0 -0.44312,0 z m 2.36499,0.53467 h -0.01465 c -0.05566,0.10547 -0.25268,0.14062 -0.3728,0.16187 -0.75293,0.13403 -1.68896,0.12671 -1.68896,0.83789 0,0.44312 0.39404,0.71777 0.80933,0.71777 0.67529,0 1.27368,-0.4292 1.26709,-1.14038 V 17.5282 Z"
   style="fill:#252626" />
		</g>
		<g
   id="g375">
			<path
   id="path373"
   inkscape:connector-curvature="0"
   d="m 58.817,15.88171 h 0.73901 v 0.3728 H 58.817 v 2.44922 c 0,0.28858 0.04248,0.45776 0.35962,0.47827 0.12672,0 0.25342,-0.0066 0.37939,-0.0205 v 0.37939 c -0.13329,0 -0.26001,0.01465 -0.39404,0.01465 -0.59107,0 -0.79468,-0.19703 -0.78809,-0.81665 v -2.48438 h -0.63355 v -0.3728 h 0.63354 V 14.7904 h 0.44312 c 0,10e-6 0,1.09131 1e-5,1.09131 z"
   style="fill:#252626" />
		</g>
		<g
   id="g379">
			<path
   id="path377"
   inkscape:connector-curvature="0"
   d="m 63.44956,17.69738 c 0,1.0415 -0.60498,1.92114 -1.71753,1.92114 -1.11182,0 -1.7168,-0.87964 -1.7168,-1.92114 0,-1.0415 0.60498,-1.92187 1.7168,-1.92187 1.11256,0 1.71753,0.88037 1.71753,1.92187 z m -2.99121,0 c 0,0.77417 0.42261,1.54834 1.27368,1.54834 0.85181,0 1.27441,-0.77417 1.27441,-1.54834 0,-0.77417 -0.42261,-1.54834 -1.27441,-1.54834 -0.85108,10e-6 -1.27368,0.77418 -1.27368,1.54834 z"
   style="fill:#252626" />
		</g>
		<g
   id="g383">
			<path
   id="path381"
   inkscape:connector-curvature="0"
   d="m 64.11314,15.88171 h 0.40797 v 0.85108 h 0.01391 c 0.22559,-0.58374 0.71777,-0.92871 1.37256,-0.90088 v 0.44385 c -0.80273,-0.04248 -1.35132,0.54859 -1.35132,1.30151 v 1.93579 h -0.44312 z"
   style="fill:#252626" />
		</g>
	</g>
	<g
   id="g419">
		<g
   id="g389">
			<path
   id="path387"
   inkscape:connector-curvature="0"
   d="m 33.3778,81.69637 -1.27148,1.75781 1.36597,-0.44165 0.0051,1.43261 1.27076,-1.75854 0.49145,0.35596 -1.90137,2.62939 -0.46216,-0.33398 -0.0051,-1.49487 -1.42016,0.46362 -0.46509,-0.33691 1.90137,-2.62794 z"
   style="fill:#1d1d1b" />
		</g>
		<g
   id="g393">
			<path
   id="path391"
   inkscape:connector-curvature="0"
   d="m 31.51892,81.61581 -1.67725,1.14331 -0.34131,-0.50244 1.67725,-1.14185 c 0.30175,-0.20581 0.38379,-0.6211 0.18017,-0.91772 -0.20508,-0.30176 -0.61816,-0.37354 -0.91992,-0.16846 l -1.67724,1.14258 -0.34424,-0.50464 1.67725,-1.14258 c 0.27979,-0.19043 0.61816,-0.26074 0.94702,-0.19775 0.33179,0.06517 0.62183,0.25562 0.81152,0.53467 0.39331,0.57568 0.2439,1.3623 -0.33325,1.75488 z"
   style="fill:#1d1d1b" />
		</g>
		<g
   id="g397">
			<path
   id="path395"
   inkscape:connector-curvature="0"
   d="m 30.90954,78.35873 -3.10108,0.94849 -0.17871,-0.58374 2.53125,-0.77417 -0.4834,-1.58057 0.56983,-0.17432 z"
   style="fill:#1d1d1b" />
		</g>
		<g
   id="g401">
			<path
   id="path399"
   inkscape:connector-curvature="0"
   d="m 30.24816,75.55722 -2.64038,0.15893 0.04688,0.79688 -0.60059,0.03585 -0.13184,-2.20386 0.60132,-0.03662 0.04761,0.79761 2.64038,-0.1582 z"
   style="fill:#1d1d1b" />
		</g>
		<g
   id="g405">
			<path
   id="path403"
   inkscape:connector-curvature="0"
   d="m 30.29138,73.46616 -3.19629,-0.52953 0.09961,-0.60132 3.19702,0.52953 z"
   style="fill:#1d1d1b" />
		</g>
		<g
   id="g409">
			<path
   id="path407"
   inkscape:connector-curvature="0"
   d="m 30.55505,72.04526 -3.00586,-1.22681 0.43946,-1.07666 c 0.0835,-0.20654 0.24316,-0.36767 0.45117,-0.45557 0.20654,-0.0835 0.43066,-0.09082 0.63794,-0.0058 0.427,0.17505 0.62548,0.66431 0.4519,1.09058 l -0.21094,0.51489 1.46557,0.59839 z m -1.5791,-1.8999 c 0.04834,-0.11865 -0.01025,-0.25048 -0.12891,-0.29883 -0.11866,-0.04835 -0.25927,0.0074 -0.30615,0.12085 l -0.20947,0.51636 0.43433,0.17725 z"
   style="fill:#1d1d1b" />
		</g>
		<g
   id="g413">
			<path
   id="path411"
   inkscape:connector-curvature="0"
   d="m 31.52844,69.8392 -2.55688,-1.99512 0.375,-0.48048 2.08667,1.62817 1.0166,-1.30444 0.47095,0.36767 z"
   style="fill:#1d1d1b" />
		</g>
		<g
   id="g417">
			<path
   id="path415"
   inkscape:connector-curvature="0"
   d="m 33.57848,67.56723 -0.97705,-1.27222 -1.92701,-0.58739 0.59253,-0.45484 1.20556,0.36621 -0.04248,-1.26049 0.58887,-0.45191 0.07031,2.01416 0.97705,1.27148 z"
   style="fill:#1d1d1b" />
		</g>
	</g>
	<g
   id="g435">
		<g
   id="g433">
			<g
   id="g431">
				<g
   id="g429">
					
						<polyline
   id="polyline421"
   stroke-miterlimit="9.59991"
   points="       7.94187,137.25388 16.87488,128.32086 25.80789,137.25388      "
   style="fill:none;stroke:#262626;stroke-width:1.59052002;stroke-linejoin:round;stroke-miterlimit:9.59990978" />
					<circle
   id="circle423"
   cx="16.87488"
   cy="128.32086"
   r="12.63318"
   style="fill:#e5e5e5" />
					
						<path
   id="path425"
   inkscape:connector-curvature="0"
   stroke-miterlimit="9.59991"
   d="m 27.49304,135.16852 c 1.27496,-1.97292 2.01503,-4.32385 2.01503,-6.84766 0,-6.97711 -5.65607,-12.63318 -12.63318,-12.63318 -6.97711,0 -12.63319,5.65607 -12.63319,12.63318 0,2.4637 0.70524,4.76268 1.92486,6.70607"
   style="fill:#e5e5e5;stroke:#262626;stroke-width:1.59052002;stroke-linecap:round;stroke-linejoin:round;stroke-miterlimit:9.59990978" />
					
						<path
   id="path427"
   inkscape:connector-curvature="0"
   stroke-miterlimit="9.59991"
   d="m 7.94186,137.25386 c 2.28616,2.28616 5.44446,3.70018 8.93302,3.70018 3.48855,0 6.64685,-1.41402 8.933,-3.70016"
   style="fill:#e5e5e5;stroke:#262626;stroke-width:1.59052002;stroke-linecap:round;stroke-linejoin:round;stroke-miterlimit:9.59990978" />
				</g>
			</g>
		</g>
	</g>
	<g
   id="g461">
		<g
   id="g439">
			<path
   id="path437"
   inkscape:connector-curvature="0"
   d="m 66.1771,214.53712 1.65967,-2.79053 0.99976,0.59619 c 0.19189,0.11279 0.32739,0.29443 0.38306,0.51416 0.05201,0.2168 0.0249,0.43945 -0.08936,0.63135 -0.23511,0.39551 -0.74927,0.52002 -1.14478,0.28271 l -0.47828,-0.28271 -0.80933,1.35938 z m 2.11377,-1.2788 c 0.10986,0.0659 0.24902,0.0264 0.31422,-0.082 0.06592,-0.10986 0.03149,-0.25781 -0.07397,-0.3208 l -0.47828,-0.28418 -0.24023,0.40283 z"
   style="fill:#1d1d1b" />
		</g>
		<g
   id="g443">
			<path
   id="path441"
   inkscape:connector-curvature="0"
   d="m 68.21836,215.82765 2.34375,-2.24268 0.42261,0.44092 -1.91309,1.82959 1.1433,1.19531 -0.4314,0.41309 z"
   style="fill:#1d1d1b" />
		</g>
		<g
   id="g447">
			<path
   id="path445"
   inkscape:connector-curvature="0"
   d="m 70.94663,219.72267 0.64453,-0.67969 -0.46582,-0.96973 -0.9353,0.0762 -0.28198,-0.5874 3.46581,-0.28271 0.23877,0.49805 -2.3811,2.53564 z m 1.08399,-1.1543 0.58081,-0.6123 -0.84155,0.0703 z"
   style="fill:#1d1d1b" />
		</g>
		<g
   id="g451">
			<path
   id="path449"
   inkscape:connector-curvature="0"
   d="m 71.50108,222.65236 1.95337,-1.66846 -2.11451,0.2373 -0.06812,-0.60645 3.22266,-0.36182 0.06665,0.5874 -1.94897,1.66406 2.10937,-0.2373 0.06885,0.60645 -3.22338,0.36182 z"
   style="fill:#1d1d1b" />
		</g>
		<g
   id="g455">
			<path
   id="path453"
   inkscape:connector-curvature="0"
   d="m 71.41978,224.64455 c 0.13184,-0.17432 0.29443,-0.32227 0.48193,-0.43652 0.18896,-0.11719 0.39551,-0.19336 0.6145,-0.22412 0.22485,-0.0395 0.44897,-0.0308 0.67456,0.0249 0.9082,0.22266 1.46484,1.14844 1.24218,2.05664 -0.06298,0.25635 -0.1875,0.49805 -0.35815,0.6958 -0.16625,0.19775 -0.38891,0.36035 -0.62988,0.45996 l -0.10548,0.0498 -0.23364,-0.55957 0.10474,-0.0454 c 0.3186,-0.1333 0.55005,-0.4043 0.63354,-0.74561 0.14355,-0.58447 -0.21313,-1.1792 -0.79761,-1.32275 -0.5896,-0.14502 -1.18506,0.21533 -1.32861,0.80127 -0.08204,0.33545 -0.0029,0.68408 0.2168,0.95361 l 0.06812,0.0879 -0.46069,0.38525 -0.07104,-0.0937 c -0.17065,-0.20508 -0.28638,-0.44092 -0.34497,-0.69873 -0.06006,-0.25488 -0.05566,-0.52148 0.0074,-0.77783 0.0542,-0.22119 0.15161,-0.4292 0.28638,-0.61084 z"
   style="fill:#1d1d1b" />
		</g>
		<g
   id="g459">
			<path
   id="path457"
   inkscape:connector-curvature="0"
   d="m 69.38658,228.85744 2.07861,-0.0556 -0.11792,-0.70605 -0.99756,-0.6709 0.33765,-0.50244 2.69019,1.80908 -0.33838,0.50244 -1.00854,-0.67822 0.28711,1.75195 -0.48779,0.7251 -0.26954,-1.61426 -2.5979,0.0688 z"
   style="fill:#1d1d1b" />
		</g>
	</g>
	<g
   id="g475">
		<g
   id="g465">
			<path
   id="path463"
   inkscape:connector-curvature="0"
   d="m 71.20957,239.4292 0.69653,-0.62549 -0.38892,-1.00342 -0.93823,0.002 -0.23584,-0.60791 3.479,-0.008 0.19923,0.51416 -2.57446,2.34082 z m 1.17188,-1.06348 0.62695,-0.56543 -0.84448,0.005 z"
   style="fill:#1d1d1b" />
		</g>
		<g
   id="g469">
			<path
   id="path467"
   inkscape:connector-curvature="0"
   d="m 71.52085,242.59326 2.16724,-0.0366 -1.16968,-0.82617 1.14258,-0.86133 -2.16724,0.0337 -0.0095,-0.60498 3.2417,-0.0527 0.0088,0.56982 -1.19238,0.89795 1.22021,0.85986 0.0095,0.57275 -3.24097,0.0527 z"
   style="fill:#1d1d1b" />
		</g>
		<g
   id="g473">
			<path
   id="path471"
   inkscape:connector-curvature="0"
   d="m 71.37144,243.7915 3.10107,0.95215 -0.34058,1.11182 c -0.06518,0.2124 -0.21021,0.38672 -0.40942,0.49365 -0.19775,0.10107 -0.42041,0.12744 -0.63428,0.063 -0.43945,-0.13623 -0.68188,-0.60498 -0.54639,-1.04443 l 0.1626,-0.5332 -1.51173,-0.46289 z m 1.74096,1.75049 c -0.03735,0.12158 0.03296,0.24902 0.15527,0.28564 0.12231,0.0381 0.25708,-0.0307 0.2937,-0.14795 l 0.1626,-0.53174 -0.44824,-0.1377 z"
   style="fill:#1d1d1b" />
		</g>
	</g>
	<g
   id="g489">
		<g
   id="g479">
			<path
   id="path477"
   inkscape:connector-curvature="0"
   d="m 54.97691,247.70557 -0.39624,0.84595 0.74707,0.77124 0.86205,-0.36475 0.45337,0.46729 -3.19629,1.35864 -0.38379,-0.39551 1.45752,-3.15454 z m -0.66357,1.43408 -0.3567,0.76318 0.7749,-0.33105 z"
   style="fill:#1d1d1b" />
		</g>
		<g
   id="g483">
			<path
   id="path481"
   inkscape:connector-curvature="0"
   d="m 54.4276,247.03467 -2.93335,1.37988 -0.46362,-0.98438 c -0.38965,-0.8291 -0.04834,-1.81421 0.75879,-2.19434 0.80786,-0.37939 1.78491,-0.0146 2.17529,0.81372 z m -1.00268,-0.73096 c -0.24828,-0.52734 -0.86646,-0.76025 -1.37768,-0.52002 -0.51049,0.24097 -0.7251,0.86499 -0.47681,1.39233 l 0.20581,0.43652 1.85376,-0.87231 z"
   style="fill:#1d1d1b" />
		</g>
		<g
   id="g487">
			<path
   id="path485"
   inkscape:connector-curvature="0"
   d="m 53.19713,244.25879 -3.22412,0.36841 -0.12452,-1.08252 c -0.104,-0.91113 0.53613,-1.73584 1.42383,-1.83691 0.8877,-0.10181 1.69703,0.55737 1.80102,1.46851 z m -0.71705,-1.01514 c -0.06592,-0.57935 -0.57714,-0.99829 -1.13891,-0.93384 -0.56177,0.0637 -0.96533,0.5874 -0.89941,1.16675 l 0.05566,0.48047 2.0376,-0.23364 z"
   style="fill:#1d1d1b" />
		</g>
	</g>
	<g
   id="g515">
		<g
   id="g493">
			<path
   id="path491"
   inkscape:connector-curvature="0"
   d="m 9.13538,228.17043 -2.73193,1.75562 -0.62842,-0.97852 c -0.12085,-0.1875 -0.16113,-0.41162 -0.11353,-0.63135 0.05053,-0.21753 0.17359,-0.40503 0.36181,-0.52588 0.38745,-0.24902 0.90307,-0.12964 1.1521,0.25781 l 0.30029,0.46729 1.33154,-0.85547 z m -2.4624,0.20068 c -0.06958,-0.1084 -0.21167,-0.1355 -0.31933,-0.0667 -0.10694,0.0688 -0.14282,0.2168 -0.07617,0.31934 l 0.30103,0.46875 0.3955,-0.25415 z"
   style="fill:#1d1d1b" />
		</g>
		<g
   id="g497">
			<path
   id="path495"
   inkscape:connector-curvature="0"
   d="m 7.88441,226.105 -3.09814,0.96021 -0.18091,-0.58301 2.52832,-0.78369 -0.48925,-1.57983 0.56983,-0.17651 z"
   style="fill:#1d1d1b" />
		</g>
		<g
   id="g501">
			<path
   id="path499"
   inkscape:connector-curvature="0"
   d="m 7.18275,221.39992 -0.88037,0.31934 -0.01538,1.07593 0.87012,0.3501 -0.00953,0.65112 -3.22705,-1.29492 0.00805,-0.55225 3.26367,-1.2063 z m -1.48535,0.54785 -0.79248,0.28931 0.78369,0.31274 z"
   style="fill:#1d1d1b" />
		</g>
		<g
   id="g505">
			<path
   id="path503"
   inkscape:connector-curvature="0"
   d="m 7.98841,218.52882 -2.49097,0.62695 2.00024,0.72583 -0.208,0.57349 -3.04907,-1.10596 0.20215,-0.55664 2.48437,-0.62476 -1.99512,-0.72363 0.208,-0.57422 3.04907,1.10669 z"
   style="fill:#1d1d1b" />
		</g>
		<g
   id="g509">
			<path
   id="path507"
   inkscape:connector-curvature="0"
   d="m 8.95594,216.78566 c -0.19555,0.0959 -0.40723,0.15601 -0.62548,0.17432 -0.22192,0.0205 -0.44092,-0.003 -0.65039,-0.0733 -0.219,-0.0659 -0.41529,-0.17285 -0.59253,-0.323 -0.71338,-0.60498 -0.79834,-1.68237 -0.19409,-2.39502 0.17139,-0.20142 0.39111,-0.36255 0.63208,-0.46362 0.23731,-0.10254 0.5083,-0.14795 0.76904,-0.13037 l 0.11645,0.004 -0.04028,0.60425 -0.11425,-0.007 c -0.34497,-0.0227 -0.67309,0.11792 -0.90015,0.38525 -0.38965,0.45923 -0.33545,1.15063 0.12304,1.53955 0.46289,0.39258 1.15723,0.33545 1.54614,-0.12451 0.22412,-0.26367 0.30908,-0.61084 0.23291,-0.95068 l -0.02197,-0.1084 0.58374,-0.13843 0.0227,0.11426 c 0.06006,0.26074 0.0586,0.52368 -0.00443,0.78076 -0.05932,0.25415 -0.18237,0.49072 -0.35376,0.69287 -0.1472,0.17358 -0.32665,0.31421 -0.52879,0.41898 z"
   style="fill:#1d1d1b" />
		</g>
		<g
   id="g513">
			<path
   id="path511"
   inkscape:connector-curvature="0"
   d="m 12.65613,213.92336 -1.88525,-0.87817 -0.20874,0.68335 0.59253,1.0459 -0.52661,0.2981 -1.59888,-2.81909 0.52661,-0.2981 0.59985,1.05688 0.52515,-1.69556 0.76099,-0.43066 -0.47974,1.56372 2.35547,1.09863 z"
   style="fill:#1d1d1b" />
		</g>
	</g>
	<g
   id="g529">
		<g
   id="g519">
			<path
   id="path517"
   inkscape:connector-curvature="0"
   d="m 7.29774,242.95801 -0.79614,0.49365 0.20434,1.05542 0.92431,0.16479 0.12378,0.64014 -3.42481,-0.60864 -0.10474,-0.54199 2.94799,-1.8479 z m -1.3418,0.84009 -0.71704,0.44531 0.8313,0.14502 z"
   style="fill:#1d1d1b" />
		</g>
		<g
   id="g523">
			<path
   id="path521"
   inkscape:connector-curvature="0"
   d="m 7.55116,239.78955 -2.1394,-0.34863 1.00488,1.02173 -1.27735,0.64526 2.1394,0.34937 -0.09741,0.59766 -3.19995,-0.52295 0.09229,-0.56104 1.33228,-0.6731 -1.04956,-1.06201 0.09229,-0.56543 3.19995,0.52148 z"
   style="fill:#1d1d1b" />
		</g>
		<g
   id="g527">
			<path
   id="path525"
   inkscape:connector-curvature="0"
   d="M 7.91077,238.63672 5.0265,237.1499 5.55897,236.11719 c 0.10254,-0.19849 0.27539,-0.34497 0.48999,-0.41382 0.21313,-0.0644 0.43726,-0.052 0.63574,0.0506 0.40869,0.21094 0.56396,0.71558 0.35303,1.12573 l -0.25488,0.49438 1.40551,0.72437 z m -1.40405,-2.03027 c 0.0586,-0.11426 0.01172,-0.25049 -0.10181,-0.30981 -0.11353,-0.0586 -0.25855,-0.0154 -0.31494,0.0945 l -0.25488,0.49365 0.41675,0.21533 z"
   style="fill:#1d1d1b" />
		</g>
	</g>
	<g
   id="g543">
		<g
   id="g533">
			<path
   id="path531"
   inkscape:connector-curvature="0"
   d="m 25.51526,244.28955 0.9148,-0.19629 0.1626,-1.06128 -0.81299,-0.46582 0.09961,-0.6438 3.01465,1.72559 -0.08423,0.54492 -3.39478,0.74487 z m 1.54394,-0.33838 0.82397,-0.17725 -0.73242,-0.41748 z"
   style="fill:#1d1d1b" />
		</g>
		<g
   id="g537">
			<path
   id="path535"
   inkscape:connector-curvature="0"
   d="m 25.31311,245.13184 2.87329,1.50366 -0.50537,0.9646 c -0.42407,0.81152 -1.4165,1.13525 -2.20678,0.72144 -0.79102,-0.41382 -1.09058,-1.41357 -0.66577,-2.2251 z m 0.02417,1.24145 c -0.271,0.51709 -0.08276,1.14917 0.41748,1.41211 0.50098,0.26074 1.12793,0.0549 1.39746,-0.46216 l 0.22412,-0.427 -1.81567,-0.95068 z"
   style="fill:#1d1d1b" />
		</g>
		<g
   id="g541">
			<path
   id="path539"
   inkscape:connector-curvature="0"
   d="m 23.84461,247.79053 2.24267,2.34668 -0.78809,0.7522 c -0.66284,0.63281 -1.70654,0.62183 -2.32397,-0.0241 -0.61743,-0.646 -0.58081,-1.68896 0.08204,-2.32251 z m -0.375,1.18359 c -0.42188,0.40356 -0.44678,1.06421 -0.05567,1.47217 0.38965,0.40942 1.05103,0.41455 1.4729,0.0117 l 0.34937,-0.33398 -1.41724,-1.48315 z"
   style="fill:#1d1d1b" />
		</g>
	</g>
	<g
   id="g577">
		<g
   id="g547">
			<path
   id="path545"
   inkscape:connector-curvature="0"
   d="m 31.24426,103.29915 -1.99072,-0.8606 0.72583,1.23779 -1.39672,0.31348 1.99072,0.86133 -0.24097,0.55591 -2.97656,-1.2876 0.22559,-0.52222 1.45678,-0.32812 -0.75879,-1.28613 0.22778,-0.52734 2.9773,1.2876 z"
   style="fill:#1d1d1b" />
		</g>
		<g
   id="g551">
			<path
   id="path549"
   inkscape:connector-curvature="0"
   d="m 30.43054,101.33113 c -0.6709,-0.65625 -0.68262,-1.73145 -0.03003,-2.39868 0.65625,-0.67017 1.73218,-0.68188 2.40234,-0.0264 0.66797,0.65259 0.67603,1.72485 0.02051,2.39575 -0.65333,0.66797 -1.72559,0.68262 -2.39282,0.0293 z m 0.42627,-0.43579 c 0.42993,0.42041 1.11914,0.41235 1.53662,-0.0139 0.41674,-0.42627 0.41016,-1.11548 -0.0205,-1.53589 -0.43286,-0.42407 -1.12207,-0.41602 -1.53955,0.01096 -0.41749,0.42625 -0.40944,1.11473 0.02343,1.5388 z"
   style="fill:#1d1d1b" />
		</g>
		<g
   id="g555">
			<path
   id="path553"
   inkscape:connector-curvature="0"
   d="m 36.24377,99.00716 -0.91772,-1.96802 -0.27905,1.40918 -1.25537,-0.6936 0.91772,1.96802 -0.54932,0.25708 -1.37402,-2.94434 0.51636,-0.24097 1.3103,0.7229 0.28638,-1.46851 0.52075,-0.24316 1.37476,2.94434 z"
   style="fill:#1d1d1b" />
		</g>
		<g
   id="g559">
			<path
   id="path557"
   inkscape:connector-curvature="0"
   d="m 37.30212,98.68636 -0.3999,-3.21826 2.11816,-0.26367 0.07397,0.5874 -1.51391,0.18823 0.0586,0.4746 1.31982,-0.16406 0.07544,0.60132 -1.31983,0.16406 0.11865,0.95801 1.47437,-0.18384 0.07397,0.59692 z"
   style="fill:#1d1d1b" />
		</g>
		<g
   id="g563">
			<path
   id="path561"
   inkscape:connector-curvature="0"
   d="m 41.88488,98.81087 -1.00708,-2.36353 -0.40576,2.08887 -0.59912,-0.11646 0.6189,-3.18457 0.58081,0.11353 1.00488,2.35693 0.40429,-2.08374 0.59912,0.11646 -0.6189,3.18457 z"
   style="fill:#1d1d1b" />
		</g>
		<g
   id="g567">
			<path
   id="path565"
   inkscape:connector-curvature="0"
   d="m 43.54454,99.48396 1.27295,-2.31958 -0.70019,-0.38379 0.29004,-0.52808 1.93432,1.06201 -0.28857,0.52808 -0.7002,-0.38452 -1.27295,2.31958 z"
   style="fill:#1d1d1b" />
		</g>
		<g
   id="g571">
			<path
   id="path569"
   inkscape:connector-curvature="0"
   d="m 45.91319,99.4781 1.44067,-1.42676 0.42553,0.43066 -1.44067,1.42603 c -0.25927,0.25635 -0.2644,0.67896 -0.01099,0.93384 0.25635,0.25928 0.67529,0.25488 0.93384,-0.002 l 1.44141,-1.42529 0.42921,0.43359 -1.44067,1.42603 c -0.24023,0.23657 -0.55957,0.36768 -0.89428,0.36548 -0.33765,-0.005 -0.65625,-0.13843 -0.89356,-0.37793 -0.49072,-0.49513 -0.48633,-1.29494 0.0095,-1.78419 z"
   style="fill:#1d1d1b" />
		</g>
		<g
   id="g575">
			<path
   id="path573"
   inkscape:connector-curvature="0"
   d="m 48.10534,104.60652 1.96802,-0.9082 -1.40479,-0.28418 0.69727,-1.24878 -1.96729,0.90747 -0.25342,-0.54932 2.94213,-1.35791 0.23877,0.51636 -0.72729,1.30298 1.46338,0.29297 0.24023,0.52075 -2.94287,1.35718 z"
   style="fill:#1d1d1b" />
		</g>
	</g>
	<g
   id="g627">
		<g
   id="g581">
			<path
   id="path579"
   inkscape:connector-curvature="0"
   d="m 49.03038,259.84985 c 0.08422,-0.33325 0.26221,-0.65332 0.52588,-0.92798 l 0.0813,-0.0828 0.43726,0.42041 -0.0813,0.0835 c -0.19189,0.20068 -0.3252,0.42773 -0.38159,0.65332 v 0.005 c -0.01685,0.0674 -0.0293,0.13477 -0.03223,0.20361 -0.0051,0.11353 0.01245,0.21899 0.05054,0.30688 0.03955,0.11206 0.13403,0.24463 0.3208,0.25269 0.09961,0.004 0.17944,-0.041 0.24828,-0.14355 0.08276,-0.12451 0.13184,-0.29517 0.15967,-0.41675 0.01173,-0.0542 0.12891,-0.51416 0.25708,-0.72217 0.09302,-0.1377 0.20728,-0.24097 0.33838,-0.31348 0.13549,-0.071 0.28271,-0.10107 0.44165,-0.0937 0.17359,0.008 0.34351,0.0702 0.49878,0.18311 0.12672,0.10547 0.22924,0.24756 0.29956,0.41528 0.06958,0.16699 0.10254,0.35083 0.09375,0.54639 -0.0037,0.0784 -0.01685,0.15894 -0.03003,0.24023 -0.06738,0.2981 -0.21827,0.5881 -0.44824,0.83713 l -0.0769,0.0828 -0.45117,-0.40793 0.0769,-0.0835 c 0.25488,-0.28491 0.32153,-0.53687 0.32886,-0.70093 0.0044,-0.10474 -0.01391,-0.20142 -0.04688,-0.28418 -0.05273,-0.1311 -0.1582,-0.21753 -0.26807,-0.22266 -0.09961,-0.005 -0.16479,0.0286 -0.22852,0.11279 -0.06298,0.0842 -0.11499,0.21387 -0.1692,0.42114 -0.0058,0.0264 -0.01611,0.063 -0.02783,0.0989 -0.04395,0.1897 -0.1106,0.44165 -0.22412,0.6145 -0.08936,0.15158 -0.20801,0.26364 -0.34423,0.33981 -0.13477,0.0762 -0.29224,0.1106 -0.45557,0.10254 -0.20508,-0.01 -0.38453,-0.0725 -0.53467,-0.1897 -0.12744,-0.10107 -0.23511,-0.2468 -0.31787,-0.43796 -0.07397,-0.16333 -0.10181,-0.34277 -0.09155,-0.56543 0.0044,-0.10474 0.02345,-0.2124 0.05128,-0.32666 z"
   style="fill:#1d1d1b" />
		</g>
		<g
   id="g585">
			<path
   id="path583"
   inkscape:connector-curvature="0"
   d="m 49.07579,262.48291 3.17359,-0.65698 0.23511,1.13599 c 0.04541,0.21899 0.0029,0.44165 -0.12085,0.62988 -0.12452,0.18384 -0.30688,0.31421 -0.52515,0.35962 -0.45044,0.0923 -0.8877,-0.20288 -0.98071,-0.65186 l -0.11279,-0.54419 -1.54541,0.32007 z m 2.36572,0.69507 c 0.02563,0.12524 0.14868,0.20215 0.27319,0.17651 0.12524,-0.0257 0.21094,-0.15088 0.18604,-0.271 l -0.11279,-0.54419 -0.4585,0.0952 z"
   style="fill:#1d1d1b" />
		</g>
		<g
   id="g589">
			<path
   id="path587"
   inkscape:connector-curvature="0"
   d="m 49.8756,265.57886 2.92969,-1.3916 0.91626,1.9292 -0.53467,0.25415 -0.65479,-1.37769 -0.4314,0.20508 0.56983,1.20117 -0.54785,0.26001 -0.56909,-1.2019 -0.87305,0.41455 0.63721,1.3418 -0.54272,0.25781 z"
   style="fill:#1d1d1b" />
		</g>
		<g
   id="g593">
			<path
   id="path591"
   inkscape:connector-curvature="0"
   d="m 51.45251,268.48364 2.49463,-2.07422 1.36671,1.64282 -0.45557,0.37866 -0.97559,-1.17334 -0.36841,0.30615 0.85108,1.02319 -0.46655,0.38672 -0.85108,-1.02246 -0.74267,0.61743 0.94995,1.14258 -0.46216,0.38452 z"
   style="fill:#1d1d1b" />
		</g>
		<g
   id="g597">
			<path
   id="path595"
   inkscape:connector-curvature="0"
   d="m 53.70982,270.95996 1.8252,-2.67627 0.89868,0.6123 c 0.75586,0.51562 0.96167,1.53735 0.45922,2.27417 -0.50172,0.73608 -1.5293,0.91772 -2.28516,0.4021 z m 1.23487,0.12012 c 0.4812,0.32812 1.13086,0.2146 1.44873,-0.25122 0.31787,-0.46655 0.18604,-1.11255 -0.29516,-1.44067 l -0.39843,-0.27173 -1.15357,1.69263 z"
   style="fill:#1d1d1b" />
		</g>
		<g
   id="g601">
			<path
   id="path599"
   inkscape:connector-curvature="0"
   d="m 59.92515,272.2395 c 0.05273,-0.93677 0.85547,-1.65308 1.78711,-1.60107 0.9375,0.0527 1.65453,0.854 1.6018,1.79077 -0.05273,0.93237 -0.85328,1.64502 -1.79078,1.59229 -0.93235,-0.052 -1.65013,-0.84961 -1.59813,-1.78199 z m 0.61011,0.0344 c -0.03369,0.60059 0.42627,1.11475 1.02172,1.14844 0.59547,0.0322 1.10889,-0.427 1.14258,-1.02686 0.03442,-0.60498 -0.4248,-1.11841 -1.021,-1.1521 -0.59545,-0.0337 -1.10962,0.42554 -1.1433,1.03052 z"
   style="fill:#1d1d1b" />
		</g>
		<g
   id="g605">
			<path
   id="path603"
   inkscape:connector-curvature="0"
   d="m 64.32041,273.86987 -0.73096,-3.16113 2.07935,-0.4812 0.13403,0.58228 -1.48682,0.34351 0.10693,0.46582 0.82178,-0.18896 0.13549,0.58594 -0.82178,0.1897 0.35303,1.5271 z"
   style="fill:#1d1d1b" />
		</g>
		<g
   id="g609">
			<path
   id="path607"
   inkscape:connector-curvature="0"
   d="m 69.98569,271.56421 -2.08301,-2.4873 0.46802,-0.39258 1.69923,2.02954 1.26855,-1.06201 0.38306,0.45776 z"
   style="fill:#1d1d1b" />
		</g>
		<g
   id="g613">
			<path
   id="path611"
   inkscape:connector-curvature="0"
   d="m 72.49277,269.17725 -2.54883,-2.00537 0.37646,-0.47974 2.54955,2.00464 z"
   style="fill:#1d1d1b" />
		</g>
		<g
   id="g617">
			<path
   id="path615"
   inkscape:connector-curvature="0"
   d="m 72.12363,267.07666 c -0.84595,-0.39404 -1.21362,-1.40405 -0.81885,-2.25 0.09595,-0.20508 0.23145,-0.38818 0.39697,-0.5376 0.16406,-0.14868 0.35449,-0.26587 0.5647,-0.33911 l 0.11353,-0.0418 0.16992,0.57568 -0.09888,0.0388 c -0.2644,0.093 -0.47314,0.29224 -0.59839,0.56104 -0.25342,0.54419 -0.0183,1.19092 0.52661,1.44434 0.54859,0.25562 1.19971,0.022 1.45312,-0.52222 0.12891,-0.27539 0.13477,-0.57935 0.02783,-0.86572 l -0.61011,-0.28418 -0.37573,0.8042 -0.54859,-0.25562 0.62768,-1.34473 1.35204,0.63062 0.01538,0.0322 c 0.26147,0.4834 0.28052,1.05469 0.0564,1.53735 -0.39402,0.84521 -1.40403,1.21289 -2.25363,0.81665 z"
   style="fill:#1d1d1b" />
		</g>
		<g
   id="g621">
			<path
   id="path619"
   inkscape:connector-curvature="0"
   d="m 75.50376,261.78638 -1.55786,-0.20581 -0.17139,1.30444 1.5564,0.20581 -0.07984,0.60498 -3.21239,-0.4248 0.07983,-0.60571 1.06422,0.14136 0.17285,-1.30444 -1.06567,-0.13989 0.07984,-0.60571 3.21387,0.42554 z"
   style="fill:#1d1d1b" />
		</g>
		<g
   id="g625">
			<path
   id="path623"
   inkscape:connector-curvature="0"
   d="m 75.45689,259.3291 -2.61914,0.33911 0.10254,0.79028 -0.59619,0.0769 -0.28271,-2.18481 0.59619,-0.0776 0.10181,0.79028 2.61841,-0.33838 z"
   style="fill:#1d1d1b" />
		</g>
	</g>
	<g
   id="g653">
		<g
   id="g631">
			<path
   id="path629"
   inkscape:connector-curvature="0"
   d="m 30.81066,232.4082 1.51465,-1.83983 -0.29516,-0.0132 0.03149,-0.60498 0.92065,0.044 0.36547,0.30176 -2.0625,2.50342 z"
   style="fill:#1d1d1b" />
		</g>
		<g
   id="g635">
			<path
   id="path633"
   inkscape:connector-curvature="0"
   d="m 33.2401,234.04004 0.31934,-3.46434 0.58813,0.2915 -0.22705,2.41844 1.7915,-1.64207 0.583,0.29004 -2.56054,2.35252 z"
   style="fill:#1d1d1b" />
		</g>
		<g
   id="g639">
			<path
   id="path637"
   inkscape:connector-curvature="0"
   d="m 35.56701,235.02002 1.91602,-2.89159 0.6394,0.14061 -1.92041,2.8916 z"
   style="fill:#1d1d1b" />
		</g>
		<g
   id="g643">
			<path
   id="path641"
   inkscape:connector-curvature="0"
   d="m 38.20739,233.96387 c -0.04102,-0.9375 0.68408,-1.72998 1.61572,-1.771 0.93677,-0.0425 1.72998,0.68408 1.77172,1.62012 0.04175,0.93311 -0.68335,1.71973 -1.62012,1.76221 -0.93236,0.041 -1.72558,-0.67969 -1.76732,-1.61133 z m 0.61011,-0.0263 c 0.02637,0.59912 0.53393,1.06348 1.13013,1.03711 0.59546,-0.0264 1.05982,-0.53467 1.03345,-1.13525 -0.02637,-0.60352 -0.53467,-1.06787 -1.13086,-1.0415 -0.59547,0.0264 -1.05983,0.53319 -1.03272,1.13964 z"
   style="fill:#1d1d1b" />
		</g>
		<g
   id="g647">
			<path
   id="path645"
   inkscape:connector-curvature="0"
   d="m 43.63536,234.76367 c -0.21826,-0.009 -0.43213,-0.0586 -0.63208,-0.14648 -0.20435,-0.0879 -0.38525,-0.2124 -0.53467,-0.375 -0.1604,-0.16113 -0.28198,-0.34863 -0.36621,-0.56543 -0.33545,-0.87012 0.10328,-1.85448 0.97339,-2.19139 0.2461,-0.0952 0.51562,-0.13037 0.7749,-0.10254 0.25708,0.022 0.51709,0.11133 0.73682,0.25049 l 0.10034,0.0601 -0.32446,0.50977 -0.09668,-0.0601 c -0.2915,-0.18604 -0.646,-0.21973 -0.97266,-0.0923 -0.5603,0.21678 -0.84301,0.84813 -0.62622,1.4077 0.21753,0.56396 0.85328,0.84521 1.4143,0.62988 0.32153,-0.12451 0.56104,-0.38818 0.65699,-0.72217 l 0.03296,-0.10547 0.57715,0.15674 -0.03516,0.11133 c -0.07105,0.25635 -0.19775,0.48633 -0.37574,0.68115 -0.17358,0.19336 -0.39478,0.34277 -0.64087,0.43799 -0.21166,0.0821 -0.43578,0.12015 -0.6621,0.11575 v -3e-5 z"
   style="fill:#1d1d1b" />
		</g>
		<g
   id="g651">
			<path
   id="path649"
   inkscape:connector-curvature="0"
   d="m 47.05211,233.09961 -1.57617,-2.11668 -0.63867,0.47607 -0.35889,-0.48193 1.76587,-1.31543 0.35962,0.48193 -0.6394,0.47607 1.57764,2.11522 z"
   style="fill:#1d1d1b" />
		</g>
	</g>
	<g
   id="g671">
		<g
   id="g657">
			<path
   id="path655"
   inkscape:connector-curvature="0"
   d="m 11.41761,273.00195 0.94336,-1.95117 -1.26489,0.67236 -0.25562,-1.40698 -0.94336,1.95117 -0.54492,-0.2644 1.41064,-2.91797 0.51269,0.24756 0.26514,1.46851 1.31689,-0.70312 0.51636,0.24902 -1.41064,2.9187 z"
   style="fill:#1d1d1b" />
		</g>
		<g
   id="g661">
			<path
   id="path659"
   inkscape:connector-curvature="0"
   d="m 15.48914,273.95337 -0.2102,-0.91187 -1.06494,-0.14575 -0.45191,0.82104 -0.646,-0.0894 1.67725,-3.04321 0.54565,0.0747 0.80054,3.38306 z m -0.36328,-1.53955 -0.19043,-0.82178 -0.40503,0.73975 z"
   style="fill:#1d1d1b" />
		</g>
		<g
   id="g665">
			<path
   id="path663"
   inkscape:connector-curvature="0"
   d="m 18.07752,273.85669 c -0.34351,-0.019 -0.69068,-0.13477 -1.01001,-0.34277 l -0.09741,-0.0652 0.33325,-0.5061 0.09595,0.0637 c 0.23364,0.15088 0.48047,0.2395 0.71192,0.25269 l 0.0051,-7.3e-4 c 0.06958,0.004 0.13843,0.003 0.20508,-0.006 0.11353,-0.0169 0.21387,-0.0535 0.29444,-0.1062 0.10108,-0.0608 0.21313,-0.17871 0.1875,-0.36328 -0.01538,-0.0989 -0.07544,-0.16846 -0.1875,-0.2168 -0.13769,-0.0586 -0.31421,-0.0747 -0.43946,-0.0798 -0.05493,-7.3e-4 -0.52881,-0.03 -0.75733,-0.11719 -0.15161,-0.0667 -0.27539,-0.15894 -0.36987,-0.27393 -0.09595,-0.12012 -0.15235,-0.25928 -0.17431,-0.41675 -0.02417,-0.17139 0.0044,-0.3501 0.08642,-0.52295 0.08056,-0.14502 0.20069,-0.27173 0.35156,-0.37134 0.15161,-0.0996 0.32593,-0.16626 0.52002,-0.19336 0.07617,-0.011 0.1582,-0.014 0.24097,-0.0169 0.30542,0.0117 0.61743,0.10474 0.90454,0.28491 l 0.09668,0.0601 -0.31714,0.51929 -0.09668,-0.0601 c -0.32593,-0.19702 -0.58594,-0.21606 -0.7478,-0.19189 -0.10474,0.0146 -0.19629,0.0506 -0.27246,0.0981 -0.11645,0.0769 -0.18311,0.19629 -0.16772,0.30396 0.01391,0.0996 0.06006,0.15747 0.15307,0.20361 0.09375,0.0469 0.23144,0.0725 0.44531,0.0886 0.0271,7.3e-4 0.06445,0.005 0.10254,0.009 0.19336,0.009 0.4541,0.0264 0.64454,0.10547 0.1648,0.0586 0.29883,0.15527 0.39844,0.27393 0.09961,0.11865 0.16187,0.2666 0.18457,0.4292 0.02857,0.20215 7.3e-4,0.39111 -0.0857,0.55884 -0.07544,0.14429 -0.19995,0.27759 -0.37134,0.39331 -0.14648,0.104 -0.31641,0.16553 -0.5376,0.19702 -0.10401,0.0147 -0.21388,0.0161 -0.3296,0.01 z"
   style="fill:#1d1d1b" />
		</g>
		<g
   id="g669">
			<path
   id="path667"
   inkscape:connector-curvature="0"
   d="m 21.42981,272.98291 c -0.33692,0.0702 -0.70312,0.0484 -1.06494,-0.0681 l -0.1106,-0.0374 0.18896,-0.57642 0.10986,0.0366 c 0.2644,0.085 0.52661,0.10693 0.75366,0.0586 l 0.0051,-0.002 c 0.06738,-0.0146 0.1333,-0.0322 0.19629,-0.0601 0.10547,-0.0447 0.19263,-0.10693 0.25561,-0.17871 0.08276,-0.0857 0.15967,-0.22778 0.08716,-0.39844 -0.04028,-0.0923 -0.11645,-0.14429 -0.23804,-0.16187 -0.14868,-0.0205 -0.32299,0.0103 -0.44605,0.0374 -0.05273,0.0139 -0.51782,0.10913 -0.76099,0.085 -0.16406,-0.0242 -0.30762,-0.0813 -0.42993,-0.16772 -0.12304,-0.0908 -0.21387,-0.21094 -0.27612,-0.35742 -0.06885,-0.1582 -0.08642,-0.33984 -0.0542,-0.52661 0.04028,-0.16187 0.12304,-0.31567 0.24317,-0.45117 0.12012,-0.13623 0.27172,-0.24609 0.4519,-0.323 0.07105,-0.0308 0.15015,-0.0549 0.22924,-0.0791 0.29736,-0.0681 0.62256,-0.0601 0.94849,0.0395 l 0.10766,0.0315 -0.16992,0.58521 -0.10913,-0.0337 c -0.36767,-0.10474 -0.62256,-0.0542 -0.77417,0.0109 -0.09521,0.041 -0.17431,0.0989 -0.23657,0.16553 -0.09301,0.10474 -0.12451,0.2373 -0.08204,0.33765 0.03955,0.0923 0.09814,0.13623 0.20069,0.15674 0.10254,0.0212 0.24243,0.0103 0.45337,-0.0307 0.0271,-0.007 0.06445,-0.0125 0.10034,-0.019 0.19043,-0.0418 0.44677,-0.0923 0.65112,-0.0659 0.17431,0.0146 0.32812,0.0718 0.4563,0.16113 0.12671,0.0886 0.22632,0.21606 0.29077,0.36621 0.08056,0.1875 0.10254,0.3772 0.06372,0.56177 -0.03662,0.15967 -0.12085,0.32007 -0.25708,0.47681 -0.11353,0.13843 -0.26294,0.24316 -0.46729,0.33032 -0.09667,0.0418 -0.20287,0.0725 -0.31639,0.0967 z"
   style="fill:#1d1d1b" />
		</g>
	</g>
	<g
   id="g681">
		<g
   id="g679">
			<g
   id="g677">
				<path
   id="path673"
   inkscape:connector-curvature="0"
   d="m 61.93931,125.19269 c -0.6211,0 -1.20484,-0.2417 -1.64355,-0.68115 -0.90673,-0.906 -0.90673,-2.38183 0,-3.28783 0.43872,-0.43945 1.02246,-0.68115 1.64355,-0.68115 0.62036,0 1.20484,0.2417 1.64355,0.68115 0.90673,0.90601 0.90673,2.38184 0,3.28783 -0.43872,0.43945 -1.02319,0.68115 -1.64355,0.68115 z"
   style="fill:#999999" />
				<path
   id="path675"
   inkscape:connector-curvature="0"
   d="m 61.93913,120.84266 c 0.54089,0 1.04938,0.21066 1.43188,0.59308 0.78954,0.78955 0.78954,2.07422 0,2.86376 -0.3825,0.38242 -0.89099,0.59308 -1.43188,0.59308 -0.54089,0 -1.04938,-0.21066 -1.43188,-0.59308 -0.78955,-0.78954 -0.78955,-2.07421 0,-2.86376 0.3825,-0.38241 0.89099,-0.59308 1.43188,-0.59308 m 0,-0.60004 c -0.67181,0 -1.34354,0.25635 -1.85614,0.76886 -1.02512,1.02512 -1.02512,2.68716 0,3.71227 0.5126,0.51251 1.18433,0.76886 1.85614,0.76886 0.67181,0 1.34353,-0.25635 1.85614,-0.76886 1.02512,-1.02511 1.02512,-2.68716 0,-3.71227 -0.5126,-0.51251 -1.18432,-0.76886 -1.85614,-0.76886 z"
   style="fill:#252626" />
			</g>
		</g>
	</g>
	<g
   id="g699">
		<g
   id="g697">
			<g
   id="g695">
				<g
   id="g693">
					
						<polyline
   id="polyline683"
   stroke-miterlimit="9.59991"
   points="       7.94224,199.50383 16.87525,190.57083 25.80825,199.50383      "
   style="fill:none;stroke:#262626;stroke-width:1.59052002;stroke-linejoin:round;stroke-miterlimit:9.59990978" />
					<circle
   id="ellipse685"
   cx="16.874439"
   cy="190.57118"
   r="12.63312"
   style="fill:#e5e5e5" />
					
						<path
   id="path687"
   inkscape:connector-curvature="0"
   stroke-miterlimit="9.59991"
   d="m 27.49335,197.41843 c 1.27496,-1.97287 2.01508,-4.32385 2.01508,-6.8476 0,-6.48688 -4.89139,-11.82513 -11.18573,-12.54419"
   style="fill:#e5e5e5;stroke:#262626;stroke-width:1.59052002;stroke-linecap:round;stroke-linejoin:round;stroke-miterlimit:9.59990978" />
					
						<path
   id="path689"
   inkscape:connector-curvature="0"
   stroke-miterlimit="9.59991"
   d="m 15.42853,178.02655 c -6.2947,0.71878 -11.18645,6.05704 -11.18645,12.54428 0,2.46368 0.70523,4.76266 1.92481,6.70605"
   style="fill:#e5e5e5;stroke:#262626;stroke-width:1.59052002;stroke-linecap:round;stroke-linejoin:round;stroke-miterlimit:9.59990978" />
					
						<path
   id="path691"
   inkscape:connector-curvature="0"
   stroke-miterlimit="9.59991"
   d="m 7.94223,199.50383 c 2.28616,2.28616 5.44446,3.70018 8.93302,3.70018 3.48856,0 6.64685,-1.41402 8.933,-3.70018"
   style="fill:#e5e5e5;stroke:#262626;stroke-width:1.59052002;stroke-linecap:round;stroke-linejoin:round;stroke-miterlimit:9.59990978" />
				</g>
			</g>
		</g>
	</g>
	<g
   id="g717">
		<g
   id="g715">
			<g
   id="g713">
				<g
   id="g711">
					
						<polyline
   id="polyline701"
   stroke-miterlimit="9.59991"
   points="       52.81073,199.50383 61.74374,190.57082 70.67675,199.50383      "
   style="fill:none;stroke:#262626;stroke-width:1.59052002;stroke-linejoin:round;stroke-miterlimit:9.59990978" />
					<circle
   id="circle703"
   cx="61.74374"
   cy="190.57082"
   r="12.63318"
   style="fill:#e5e5e5" />
					
						<path
   id="path705"
   inkscape:connector-curvature="0"
   stroke-miterlimit="9.59991"
   d="m 72.36183,197.4184 c 1.27496,-1.97287 2.01508,-4.32385 2.01508,-6.84758 0,-6.48688 -4.89138,-11.82512 -11.18573,-12.54417"
   style="fill:#e5e5e5;stroke:#262626;stroke-width:1.59052002;stroke-linecap:round;stroke-linejoin:round;stroke-miterlimit:9.59990978" />
					
						<path
   id="path707"
   inkscape:connector-curvature="0"
   stroke-miterlimit="9.59991"
   d="m 60.29702,178.02655 c -6.2947,0.71878 -11.18645,6.05702 -11.18645,12.54427 0,2.46367 0.70523,4.76265 1.92481,6.70604"
   style="fill:#e5e5e5;stroke:#262626;stroke-width:1.59052002;stroke-linecap:round;stroke-linejoin:round;stroke-miterlimit:9.59990978" />
					
						<path
   id="path709"
   inkscape:connector-curvature="0"
   stroke-miterlimit="9.59991"
   d="m 52.81071,199.50381 c 2.28616,2.28616 5.44446,3.7002 8.93302,3.7002 3.48856,0 6.64685,-1.41403 8.93301,-3.70018"
   style="fill:#e5e5e5;stroke:#262626;stroke-width:1.59052002;stroke-linecap:round;stroke-linejoin:round;stroke-miterlimit:9.59990978" />
				</g>
			</g>
		</g>
	</g>
	<g
   id="g745">
		<g
   id="g743">
			<g
   id="g741">
				<g
   id="g739">
					<g
   id="g721">
						<path
   id="path719"
   inkscape:connector-curvature="0"
   d="m 70.36875,137.69366 -8.49389,-8.4939 -8.4939,8.49391 -0.87891,-0.87892 8.93334,-8.93335 c 0.24316,-0.2417 0.63574,-0.2417 0.87891,0 l 8.93335,8.93335 z"
   style="fill:#262626" />
					</g>
					<g
   id="g725">
						<circle
   id="circle723"
   cx="61.874859"
   cy="128.32086"
   r="12.63318"
   style="fill:#e5e5e5" />
					</g>
					<g
   id="g731">
						<path
   id="path727"
   inkscape:connector-curvature="0"
   d="m 72.49301,135.16852 c 1.27496,-1.97292 2.01503,-4.32385 2.01503,-6.84766 0,-6.97711 -5.65607,-12.63318 -12.63318,-12.63318 -6.97711,0 -12.63319,5.65607 -12.63319,12.63318 0,2.4637 0.70524,4.76268 1.92486,6.70607"
   style="fill:#e5e5e5" />
						<path
   id="path729"
   inkscape:connector-curvature="0"
   d="m 72.49204,135.78937 c -0.11572,0 -0.23218,-0.0323 -0.33691,-0.0996 -0.28784,-0.18604 -0.37061,-0.57056 -0.18384,-0.85913 1.25317,-1.93872 1.91602,-4.18945 1.91602,-6.50977 0,-6.62328 -5.38916,-12.01244 -12.01245,-12.01244 -6.62329,0 -12.01245,5.38916 -12.01245,12.01244 0,2.26392 0.63281,4.46851 1.83032,6.37573 0.18311,0.29077 0.09521,0.67383 -0.19556,0.8562 -0.29078,0.18164 -0.67455,0.0952 -0.8562,-0.19556 -1.32203,-2.10498 -2.02076,-4.53809 -2.02076,-7.03638 0,-7.30883 5.94579,-13.25463 13.25463,-13.25463 7.30884,0 13.25463,5.9458 13.25463,13.25463 0,2.55981 -0.73096,5.04419 -2.11523,7.18506 -0.11864,0.18385 -0.3186,0.28346 -0.5222,0.28346 z"
   style="fill:#262626" />
					</g>
					<g
   id="g737">
						<path
   id="path733"
   inkscape:connector-curvature="0"
   d="m 52.94183,137.25386 c 2.28616,2.28616 5.44446,3.70018 8.93303,3.70018 3.48856,0 6.64685,-1.41402 8.933,-3.70016"
   style="fill:#e5e5e5" />
						<path
   id="path735"
   inkscape:connector-curvature="0"
   d="m 61.87486,141.5755 c -3.53979,0 -6.86865,-1.37842 -9.3728,-3.88184 -0.24243,-0.24243 -0.24243,-0.63574 0,-0.87891 0.24316,-0.2417 0.63574,-0.24316 0.87891,0 2.26904,2.26904 5.28589,3.51855 8.4939,3.51855 3.20801,0 6.22485,-1.24951 8.4939,-3.51855 0.24316,-0.2417 0.63574,-0.2417 0.87891,0 0.24243,0.24316 0.24243,0.63647 0,0.87891 -2.50416,2.50342 -5.83301,3.88184 -9.37282,3.88184 z"
   style="fill:#262626" />
					</g>
				</g>
			</g>
		</g>
	</g>
</g>
</svg>