<?xml version="1.0" encoding="utf-8"?>
<!-- Generator: Adobe Illustrator 23.0.3, SVG Export Plug-In . SVG Version: 6.00 Build 0)  -->
<svg version="1.0" id="Layer_1" xmlns="http://www.w3.org/2000/svg" xmlns:xlink="http://www.w3.org/1999/xlink" x="0px" y="0px"
	 viewBox="0 0 105 380" enable-background="new 0 0 105 380" xml:space="preserve">
<g id="bg">
	<g>
		<rect fill="#E5E5E5" width="105" height="380"/>
	</g>
	<g>
		<g>
			<g>
				<g>
					<circle fill="#BCBCBC" cx="97.00985" cy="373.60947" r="5.73626"/>
					<path fill="#808080" d="M97.0098,379.08212c-3.02102-0.00348-5.46916-2.45166-5.47262-5.47269c0,0,0,0,0-0.00003
						c0.00002-3.02246,2.45023-5.47263,5.4727-5.4726c3.02247,0,5.47264,2.45023,5.47262,5.47269
						S100.03227,379.08215,97.0098,379.08212 M103.0098,373.60947c0-3.31372-2.68629-6-6-6s-6,2.68628-6,6c0,3.31369,2.68629,6,6,6
						C100.32345,379.60928,103.00964,376.9231,103.0098,373.60947z"/>
				</g>
				<polygon fill="#6E6E6E" points="100.50481,374.26846 97.66881,374.26846 97.66881,377.10446 96.35081,377.10446 
					96.35081,374.26846 93.51581,374.26846 93.51581,372.95047 96.35081,372.95047 96.35081,370.11447 97.66881,370.11447 
					97.66881,372.95047 100.50481,372.95047 				"/>
			</g>
		</g>
	</g>
	<g>
		<g>
			<g>
				<g>
					<circle fill="#BCBCBC" cx="7.99992" cy="373.60947" r="5.73626"/>
					<path fill="#808080" d="M7.99996,379.08212c3.02102-0.00348,5.46916-2.45166,5.47262-5.47269c0,0,0,0,0-0.00003
						c-0.00002-3.02246-2.45023-5.47263-5.4727-5.4726c-3.02247,0-5.47264,2.45023-5.47262,5.47269
						S4.97749,379.08215,7.99996,379.08212 M1.99996,373.60947c0-3.31372,2.68629-6,6-6s6,2.68628,6,6c0,3.31369-2.68629,6-6,6
						C4.68632,379.60928,2.00012,376.9231,1.99996,373.60947z"/>
				</g>
				<polygon fill="#6E6E6E" points="4.50496,374.26846 7.34096,374.26846 7.34096,377.10446 8.65896,377.10446 8.65896,374.26846 
					11.49396,374.26846 11.49396,372.95047 8.65896,372.95047 8.65896,370.11447 7.34096,370.11447 7.34096,372.95047 
					4.50496,372.95047 				"/>
			</g>
		</g>
	</g>
	<g>
		<g>
			<g>
				<g>
					<circle fill="#BCBCBC" cx="97.00985" cy="6.39054" r="5.73626"/>
					<path fill="#808080" d="M97.0098,11.8632c-3.02102-0.00348-5.46916-2.45164-5.47262-5.47267c0,0,0-0.00001,0-0.00003
						c0.00002-3.02247,2.45023-5.47264,5.4727-5.47262s5.47264,2.45023,5.47262,5.4727S100.03227,11.86322,97.0098,11.8632
						 M103.0098,6.39054c0-3.31371-2.68629-6-6-6s-6,2.68629-6,6s2.68629,6,6,6
						C100.32345,12.39038,103.00964,9.70418,103.0098,6.39054z"/>
				</g>
				<polygon fill="#6E6E6E" points="100.50481,7.04954 97.66881,7.04954 97.66881,9.88554 96.35081,9.88554 96.35081,7.04954 
					93.51581,7.04954 93.51581,5.73154 96.35081,5.73154 96.35081,2.89554 97.66881,2.89554 97.66881,5.73154 100.50481,5.73154 
									"/>
			</g>
		</g>
	</g>
	<g>
		<g>
			<g>
				<g>
					<circle fill="#BCBCBC" cx="7.99992" cy="6.39054" r="5.73626"/>
					<path fill="#808080" d="M7.99996,11.8632c3.02102-0.00348,5.46916-2.45164,5.47262-5.47267c0,0,0-0.00001,0-0.00003
						c-0.00002-3.02247-2.45023-5.47264-5.4727-5.47262s-5.47264,2.45023-5.47262,5.4727S4.97749,11.86322,7.99996,11.8632
						 M1.99996,6.39054c0-3.31371,2.68629-6,6-6s6,2.68629,6,6s-2.68629,6-6,6C4.68632,12.39038,2.00012,9.70418,1.99996,6.39054z"
						/>
				</g>
				<polygon fill="#6E6E6E" points="4.50496,7.04954 7.34096,7.04954 7.34096,9.88554 8.65896,9.88554 8.65896,7.04954 
					11.49396,7.04954 11.49396,5.73154 8.65896,5.73154 8.65896,2.89554 7.34096,2.89554 7.34096,5.73154 4.50496,5.73154 				"/>
			</g>
		</g>
	</g>
	<g>
		<path fill="#252626" d="M58.17183,376.26001H47.70557c-1.77142,0-3.20745-1.436-3.20745-3.20743V346.7211
			c0-1.77142,1.43602-3.20746,3.20745-3.20746h10.46627c1.77142,0,3.20745,1.43604,3.20745,3.20746v26.33148
			C61.37928,374.82401,59.94326,376.26001,58.17183,376.26001z"/>
		<g>
			<path fill="#E6E5E5" d="M56.78505,364.36642c-0.11426,0.26349-0.26582,0.48096-0.45469,0.65225
				c-0.1891,0.17126-0.40402,0.29843-0.64567,0.38217c-0.24189,0.08353-0.49434,0.12506-0.75781,0.12506
				c-0.44812,0-0.79723-0.0657-1.04757-0.19754c-0.25034-0.13187-0.44601-0.28555-0.58632-0.46127
				c-0.14969-0.19333-0.244-0.40848-0.28341-0.64566c-0.03965-0.23721-0.05936-0.4744-0.05936-0.71161
				c0-0.33408,0.00681-0.56448,0.01971-0.69189c0.01337-0.12762,0.02839-0.19989,0.04622-0.21747
				c0.03496-0.02652,0.17995-0.03943,0.43475-0.03943h3.08382c0.08775,0,0.16024,0.00656,0.21749,0.01971
				c0.05678,0.01312,0.10088,0.0481,0.13162,0.10535c0.03073,0.05701,0.05044,0.14264,0.05935,0.2569
				c0.00868,0.11426,0.01338,0.2724,0.01338,0.4744C56.95656,363.78644,56.89907,364.10294,56.78505,364.36642 M51.46156,351.54477
				c0.01173-0.08279,0.0474-0.14825,0.10699-0.19589c0.05936-0.04739,0.15414-0.07718,0.28506-0.08914
				c0.13068-0.01175,0.31485-0.01785,0.55252-0.01785c0.92674,0,1.6367,0.25833,2.12986,0.77518
				c0.49294,0.51688,0.73975,1.20923,0.73975,2.07663c0,0.08209-0.01713,0.25925-0.02792,0.38077
				c-0.06827-0.00095-0.13655-0.00186-0.20482-0.0033c-0.18699-0.00397-0.39017-0.01431-0.60954-0.03049
				c-0.0488,0.02441-0.07508,0.07108-0.0793,0.14008c-0.00399,0.06921,0.01408,0.12411,0.05514,0.1647l0.21913,0.02438
				c0.1464,0.0162,0.26817,0.04269,0.36577,0.07907c0.0976,0.03659,0.1464,0.07532,0.1464,0.11591s-0.0244,0.11591-0.0732,0.22546
				c-0.04881,0.1098-0.1138,0.24188-0.19497,0.39603c-0.08141,0.15463-0.16892,0.31934-0.26207,0.49387
				c-0.09362,0.1748-0.18113,0.33951-0.2623,0.49365c-0.18699,0.35779-0.37773,0.70901-0.57294,1.05438
				c-0.19497,0.34558-0.38595,0.68085-0.5727,1.0058c-0.23603-0.42255-0.46759-0.86551-0.69494-1.32864
				c-0.22758-0.46338-0.45516-0.92227-0.68274-1.37769c-0.01643-0.03238-0.04458-0.09314-0.08517-0.18277
				c-0.04082-0.08914-0.08352-0.18463-0.1281-0.28647c-0.04482-0.10159-0.08352-0.19684-0.1159-0.28647
				c-0.03261-0.08939-0.04856-0.15039-0.04856-0.18277c0-0.0488,0.03214-0.08725,0.09736-0.11588
				c0.06499-0.02841,0.20318-0.0629,0.41457-0.10349l0.15837-0.02438c0.04059-0.04059,0.05889-0.09763,0.0549-0.17081
				c-0.00422-0.07297-0.03473-0.1178-0.09127-0.13397c-0.17315,0.01361-0.38548,0.02347-0.63723,0.02933v-2.58643
				C51.44373,351.74094,51.4496,351.62808,51.46156,351.54477 M52.47089,360.66977c0,0.3252-0.00422,0.58514-0.0122,0.78012
				c-0.00821,0.19498-0.03659,0.34747-0.0854,0.45703c-0.01736,0.03943-0.03801,0.07413-0.0617,0.1044
				c-0.00047,0.00024-0.00117,0.0007-0.00165,0.00095c-0.14194-0.02722-0.2616-0.05865-0.35826-0.09454
				c-0.16048-0.05936-0.27615-0.16635-0.34747-0.32074c-0.07132-0.15436-0.1159-0.37115-0.13372-0.65057
				c-0.01784-0.27896-0.02675-0.6506-0.02675-1.11374v-2.53787l0.63723,1.24161c0.08915,0.17081,0.16024,0.31509,0.21326,0.43286
				c0.05279,0.11801,0.09127,0.22757,0.11567,0.32916c0.02439,0.10184,0.04058,0.20929,0.0488,0.32309
				c0.00798,0.11377,0.0122,0.25595,0.0122,0.42651v0.62173H52.47089z M57.50181,362.17722
				c0.05278-0.14642,0.10534-0.30267,0.15837-0.46924c0.05279-0.1666,0.10159-0.32919,0.1464-0.48779
				c0.04457-0.15836,0.07907-0.29044,0.1037-0.39627c-0.02464-0.05652-0.07133-0.09314-0.1403-0.10956
				c-0.06921-0.01617-0.12387-0.00821-0.1647,0.02441c-0.16259,0.31671-0.31885,0.5769-0.46923,0.78009
				c-0.15039,0.20343-0.28247,0.33737-0.39603,0.40237c-0.06523,0.03262-0.1403,0.06076-0.2257,0.08517
				c-0.08517,0.02438-0.18699,0.04269-0.30477,0.0549c-0.11777,0.01221-0.25996,0.02252-0.42653,0.03049
				c-0.16658,0.00821-0.36788,0.01221-0.60344,0.01221c-0.26817,0-0.48965-0.00797-0.66444-0.02441
				c-0.17479-0.01617-0.31486-0.03659-0.42044-0.06076c-0.10582-0.02463-0.1891-0.05301-0.24987-0.08539
				c-0.061-0.03238-0.10793-0.06897-0.14031-0.1098c-0.0976-0.10559-0.16048-0.26208-0.18887-0.46924
				c-0.02862-0.2074-0.0427-0.47345-0.0427-0.79865v-0.8045c0.00188-0.11145,0.00516-0.20999,0.00986-0.29443
				c0.00798-0.15018,0.03026-0.29047,0.06686-0.42044c0.03659-0.12997,0.09338-0.2684,0.1708-0.41458
				c0.0183-0.03494,0.03894-0.07272,0.06077-0.11237c0.02933-0.00095,0.05982-0.0014,0.09385-0.0014h0.70714
				c0.23556,0,0.42865,0.00397,0.57904,0.01218c0.15015,0.008,0.27004,0.02417,0.35966,0.04858
				c0.12177,0.03259,0.20905,0.08963,0.26207,0.17081c0.05279,0.08118,0.09127,0.17877,0.11591,0.29254l0.10956,0.47534
				c0.03238,0.04083,0.08728,0.0589,0.16447,0.0549c0.07719-0.00397,0.1281-0.02628,0.1525-0.06711
				c0-0.13818-0.00821-0.31274-0.0244-0.52411c-0.01643-0.2114-0.0244-0.42679-0.0244-0.64615
				c0-0.23557,0.00798-0.46313,0.0244-0.6825c0.01619-0.2196,0.0244-0.40237,0.0244-0.5488
				c-0.0244-0.04034-0.07531-0.06287-0.1525-0.06708c-0.07719-0.00375-0.13209,0.01431-0.16447,0.0549l-0.09737,0.49997
				c-0.03261,0.15436-0.07132,0.25809-0.1159,0.31085c-0.04481,0.0528-0.10369,0.09128-0.17666,0.11566
				c-0.0732,0.02441-0.19943,0.04272-0.37797,0.0549c-0.17902,0.01221-0.39839,0.01831-0.65834,0.01831h-0.55089
				c0.00423-0.00681,0.00798-0.01312,0.0122-0.02017l0.76791-1.32864c0.15414-0.26019,0.29445-0.50186,0.42067-0.72543
				c0.12576-0.22336,0.24987-0.42068,0.37163-0.59125c0.12201-0.17056,0.24776-0.30875,0.37798-0.41434
				c0.02698-0.02182,0.05466-0.04153,0.08305-0.06006c0.08258,0.03284,0.15532,0.07156,0.21796,0.11685
				c0.10159,0.07297,0.18464,0.15836,0.24987,0.25595c0.06499,0.09738,0.11777,0.20718,0.1586,0.32895
				c0.04036,0.12201,0.08517,0.2562,0.13397,0.40237c0.03238,0.0408,0.0854,0.05701,0.1586,0.0488
				c0.07297-0.008,0.12176-0.03238,0.14616-0.07321c-0.01643-0.12997-0.0305-0.27826-0.04247-0.44482
				c-0.01243-0.1666-0.02674-0.32916-0.04293-0.48755c-0.01619-0.1586-0.03754-0.30008-0.05466-0.42676
				c-0.04247-0.31345-0.03285-0.58115-0.03285-0.58115c0-0.61752-0.17525-1.15738-0.44273-1.60925
				c-0.26723-0.45142-0.60907-0.8078-1.02481-1.06915c-0.41597-0.26138-0.90305-0.44556-1.46143-0.55252
				c-0.55863-0.10699-1.21204-0.16049-1.96048-0.16049c-0.74866,0-1.40536,0.00891-1.96938,0.02676
				c-0.56449,0.01782-1.0844,0.05652-1.55974,0.11588c-0.07109,0.03568-0.10981,0.10419-0.11567,0.20483
				c-0.0061,0.10114,0.02041,0.18137,0.08024,0.24072l0.64145,0.07132c0.202,0.02393,0.35919,0.06241,0.47252,0.11591
				c0.11262,0.05325,0.19591,0.15134,0.2494,0.29398s0.08611,0.33267,0.09807,0.57034
				c0.01173,0.23767,0.01783,0.54666,0.01783,0.92676v6.57681c0,0.46313-0.0061,0.83478-0.01783,1.11374
				c-0.01196,0.27942-0.05349,0.49622-0.12482,0.65057c-0.07132,0.15439-0.1783,0.26138-0.32072,0.32074
				c-0.14265,0.05957-0.34489,0.10696-0.60601,0.14264l-0.37445,0.0535c-0.0542,0.0542-0.07837,0.12833-0.0732,0.22171
				c-0.00047,0.19073-0.00257,0.25128-0.00657,0.46619c-0.00422,0.24612-0.01549,0.52109-0.03355,0.82538
				c0.01806,0.04483,0.06921,0.07156,0.15438,0.08072c0.08493,0.00867,0.14546-0.00916,0.18136-0.05374l0.04012-0.28201
				c0.02699-0.19684,0.06264-0.34888,0.10746-0.45609c0.04482-0.10745,0.12529-0.18793,0.24166-0.24167
				c0.11613-0.05371,0.27943-0.08539,0.48989-0.0943c0.21022-0.0087,0.48988-0.01315,0.83899-0.01315h1.69113
				c0.07156,0,0.12764,0.00446,0.16799,0.01315c0.04012,0.00891,0.06921,0.03378,0.08704,0.07413
				c0.01783,0.04013,0.02909,0.10278,0.03378,0.18771c0.00422,0.08514,0.00657,0.2034,0.00657,0.35568
				c0,0.26862-0.03355,0.46994-0.10065,0.60413c-0.0671,0.13422-0.17667,0.25058-0.32894,0.34912
				c-0.15226,0.10745-0.32001,0.21912-0.50325,0.33551c-0.1837,0.11612-0.36718,0.23248-0.55042,0.34888
				c-0.18347,0.11636-0.36014,0.22827-0.53023,0.33572c-0.1701,0.10721-0.31767,0.20575-0.44296,0.29514
				c-0.3402,0.24167-0.61986,0.46762-0.839,0.67807c-0.21913,0.21021-0.39134,0.42276-0.51663,0.63745
				c-0.12552,0.21466-0.21256,0.44061-0.26183,0.6778c-0.04903,0.23721-0.07367,0.49881-0.07367,0.78528
				c0,0.25949,0.02229,0.45657,0.06686,0.59055c0.02698,0.03589,0.06053,0.05161,0.10088,0.04715
				c0.04012-0.0047,0.06922-0.02487,0.08728-0.06055c0.01759-0.17902,0.0603-0.34888,0.1274-0.50983
				c0.0671-0.16116,0.14968-0.30005,0.24846-0.4162c0.18793-0.23273,0.40026-0.45187,0.63746-0.65787
				c0.23696-0.20575,0.4988-0.41599,0.78526-0.63089c0.28624-0.21466,0.60837-0.43616,0.9664-0.66422
				c0.35779-0.22827,0.75171-0.47675,1.1813-0.74515c0.05372-0.03589,0.10933-0.06497,0.16775-0.08725
				c0.05795-0.02255,0.10956-0.01575,0.15438,0.02017c0.0624,0.16986,0.15649,0.35123,0.28177,0.54361
				s0.27967,0.37375,0.46313,0.54382c0.18348,0.16986,0.39816,0.31064,0.64426,0.42279
				c0.24612,0.11169,0.53024,0.16776,0.85237,0.16776c0.4744,0,0.86363-0.10535,1.16793-0.31555
				c0.30406-0.21024,0.54126-0.47653,0.71136-0.79865c0.16986-0.31323,0.27967-0.65997,0.32894-1.04007
				c0.04903-0.38055,0.07554-0.78104,0.07367-1.20172C57.3615,362.67319,57.50181,362.17722,57.50181,362.17722"/>
		</g>
	</g>
</g>
<g id="serigraphy">
	<g>
		<g>
			<path fill="#252626" d="M1.37012,24.21973c-0.2207,0-0.43066-0.08008-0.59082-0.24023
				c-0.14941-0.14941-0.23926-0.35938-0.23926-0.58008c0-0.10938,0.01953-0.21973,0.06934-0.31934
				c0.04004-0.10059,0.10059-0.19043,0.16992-0.27051C1.00977,22.58008,1.37988,22.5,1.68945,22.62988
				c0.10059,0.04004,0.19043,0.09961,0.27051,0.17969c0.06934,0.08008,0.12988,0.16992,0.17969,0.27051
				c0.04004,0.09961,0.06055,0.20996,0.06055,0.31934c0,0.2207-0.09082,0.43066-0.24023,0.58008
				c-0.08008,0.08008-0.16992,0.14063-0.27051,0.18066C1.58984,24.2002,1.47949,24.21973,1.37012,24.21973z"/>
		</g>
		<g>
			<path fill="#252626" d="M5.37988,23.39941c0-0.45996,0.37988-0.83008,0.83008-0.83008l0,0
				c0.45996,0,0.83008,0.37012,0.83008,0.83008l0,0c0,0.4502-0.37012,0.82031-0.83008,0.82031l0,0
				C5.75977,24.21973,5.37988,23.84961,5.37988,23.39941z"/>
		</g>
		<g>
			<path fill="#252626" d="M11.05957,24.21973c-0.21973,0-0.42969-0.08008-0.58984-0.24023
				c-0.08008-0.08008-0.13965-0.16992-0.17969-0.26953c-0.04004-0.10059-0.06055-0.2002-0.06055-0.31055
				c0-0.21973,0.08984-0.43945,0.24023-0.58984c0.08008-0.08008,0.16992-0.13965,0.27051-0.17969
				c0.19922-0.08008,0.42969-0.08008,0.62988,0c0.09961,0.04004,0.18945,0.09961,0.26953,0.17969
				c0.16016,0.15039,0.24023,0.37012,0.24023,0.58984c0,0.11035-0.02051,0.20996-0.06055,0.31055
				c-0.04004,0.09961-0.09961,0.18945-0.17969,0.26953s-0.16992,0.14063-0.26953,0.18066
				C11.26953,24.2002,11.16992,24.21973,11.05957,24.21973z"/>
		</g>
	</g>
	<g>
		<g>
			<path fill="#252626" d="M91.58008,24.21973c-0.11035,0-0.2207-0.01953-0.32031-0.05957s-0.19043-0.10059-0.26953-0.18066
				C90.83984,23.83008,90.75,23.62012,90.75,23.39941c0-0.10938,0.01953-0.21973,0.05957-0.31934
				c0.0498-0.10059,0.11035-0.19043,0.18066-0.27051c0.30957-0.30957,0.86914-0.30957,1.16992,0
				c0.15918,0.15039,0.23926,0.37012,0.23926,0.58984c0,0.2207-0.08008,0.43066-0.23926,0.58008
				c-0.0703,0.08009-0.16015,0.14064-0.26074,0.18068C91.7998,24.2002,91.68945,24.21973,91.58008,24.21973z"/>
		</g>
		<g>
			<path fill="#252626" d="M95.58984,23.39941c0-0.45996,0.37012-0.83008,0.83008-0.83008l0,0
				c0.45996,0,0.83008,0.37012,0.83008,0.83008l0,0c0,0.4502-0.37012,0.83008-0.83008,0.83008l0,0
				C95.95996,24.22949,95.58984,23.84961,95.58984,23.39941z"/>
		</g>
		<g>
			<path fill="#252626" d="M101.25977,24.22949c-0.11035,0-0.20996-0.0293-0.30957-0.06934
				c-0.10059-0.04004-0.19043-0.10059-0.27051-0.18066c-0.16016-0.16016-0.25-0.35938-0.25-0.58008
				c0-0.10938,0.03027-0.21973,0.07031-0.31934c0.04004-0.10059,0.09961-0.19043,0.17969-0.27051
				c0.23047-0.22949,0.59961-0.2998,0.90039-0.17969c0.09961,0.04004,0.18945,0.09961,0.26953,0.17969
				s0.14063,0.16992,0.17969,0.27051c0.04004,0.09961,0.06055,0.20996,0.06055,0.31934c0,0.2207-0.08008,0.43066-0.24023,0.58008
				c-0.08008,0.08008-0.16992,0.14063-0.26953,0.18066C101.47949,24.2002,101.37012,24.22949,101.25977,24.22949z"/>
		</g>
	</g>
	<g>
		<g>
			<path fill="#252626" d="M25,7.17578h5.3584v1.87891h-3.43555v0.67383h3.00391v1.91113h-3.00391v1.50195h3.35742v1.90039H25
				V7.17578z"/>
		</g>
		<g>
			<path fill="#252626" d="M35.91309,10.83301v4.20898h-1.92285V7.17578h1.75684l2.81641,4.1875v-4.1875h1.92285v7.86621h-1.74512
				L35.91309,10.83301z"/>
		</g>
		<g>
			<path fill="#252626" d="M44.30664,7.17578h5.3584v1.87891h-3.43555v0.67383h3.00391v1.91113h-3.00391v1.50195h3.35742v1.90039
				h-5.28027C44.30664,15.04199,44.30664,7.17578,44.30664,7.17578z"/>
		</g>
		<g>
			<path fill="#252626" d="M60.17969,15.04199h-2.28711l-2.60742-3.40234H55.1084v3.40234h-1.86719V7.17578H56.125
				c0.57422,0,1.11523,0.23242,1.51367,0.62988c0.39746,0.40918,0.62988,1.02734,0.62988,1.60254
				c0,0.75098-0.36523,1.48047-0.9502,1.85547L60.17969,15.04199z M55.1084,9.76172h1.0166
				c0.1543,0,0.26465-0.19922,0.26465-0.35352c0-0.15527-0.11035-0.35352-0.26465-0.35352h-1.0166V9.76172z"/>
		</g>
		<g>
			<path fill="#252626" d="M62.09961,11.04297c0-2.26465,1.84473-4.10938,4.10938-4.10938
				c1.10449,0,2.14355,0.43066,2.91602,1.21484l0.36523,0.37598L68.12012,9.7168L67.7998,9.4082
				c-0.43066-0.41992-0.99414-0.65234-1.59082-0.65234c-1.25977,0-2.28711,1.02734-2.28711,2.28711
				c0,1.27051,1.02734,2.29785,2.28711,2.29785c0.60742,0,1.16016-0.23242,1.59082-0.65234V11.7168h-2.0332V9.89355h3.85547v3.44727
				l-0.08789,0.13281c-0.7959,1.06055-2.04395,1.68945-3.3252,1.68945C63.94434,15.16309,62.09961,13.31836,62.09961,11.04297z"/>
		</g>
		<g>
			<path fill="#252626" d="M75.11133,11.23047c-0.80664-1.1377-2.14258-2.97168-2.90527-4.05469h2.35352l1.5127,2.11035
				l1.51367-2.11035h2.3418l-2.89355,4.05469v3.81152h-1.92285v-3.81152H75.11133z"/>
		</g>
	</g>
	<g>
		<path fill="#252626" d="M51.22363,226.2959c-0.19238,0-0.38379-0.07324-0.53027-0.21973
			c-5.05957-5.05957-11.37793-8.66211-18.27148-10.41699c-0.93262-0.23633-1.58398-1.06641-1.58398-2.01855l-0.00195-35.03613
			c0-0.41406,0.33594-0.75,0.75-0.75c0.41406,0,0.75,0.33594,0.75,0.75l0.00195,35.03613c0,0.26465,0.18652,0.49707,0.45313,0.56543
			c7.15527,1.82129,13.71289,5.55957,18.96289,10.80957c0.29297,0.29297,0.29297,0.76758,0,1.06055
			C51.60742,226.22266,51.41602,226.2959,51.22363,226.2959z"/>
	</g>
	<g>
		<path fill="#252626" d="M38.55664,238.96289c-0.19238,0-0.38379-0.07324-0.53027-0.21973
			c-4.125-4.12402-9.6084-6.39551-15.44043-6.39551c-2.40625,0-4.75684,0.37988-6.98633,1.12988
			c-0.64355,0.2168-1.35254,0.10938-1.90039-0.2832c-0.54883-0.39453-0.86328-1.00977-0.86328-1.6875v-50.4707
			c0-0.41406,0.33594-0.75,0.75-0.75s0.75,0.33594,0.75,0.75v50.4707c0,0.25879,0.15039,0.40527,0.23926,0.46973
			c0.1582,0.11426,0.35742,0.14453,0.5459,0.0791c2.38477-0.80176,4.89551-1.20801,7.46484-1.20801
			c6.23242,0,12.09277,2.42773,16.50098,6.83496c0.29297,0.29297,0.29297,0.76758,0,1.06055
			C38.94043,238.88965,38.74902,238.96289,38.55664,238.96289z"/>
	</g>
	<g>
		<path fill="#252626" d="M66.61523,238.96289c-0.19238,0-0.38379-0.07324-0.53027-0.21973
			c-0.29297-0.29297-0.29297-0.76758,0-1.06055c4.4082-4.40723,10.26855-6.83496,16.50098-6.83496
			c2.56836,0,5.0791,0.40625,7.46387,1.20801c0.18652,0.06348,0.38672,0.03418,0.54688-0.0791
			c0.08984-0.06445,0.23926-0.21094,0.23926-0.46973v-50.4707c0-0.41406,0.33594-0.75,0.75-0.75s0.75,0.33594,0.75,0.75v50.4707
			c0,0.67773-0.31445,1.29297-0.86328,1.6875c-0.54785,0.39258-1.25781,0.49902-1.90039,0.2832
			c-2.23047-0.75-4.58105-1.12988-6.98633-1.12988c-5.83203,0-11.31543,2.27148-15.44043,6.39551
			C66.99902,238.88965,66.80664,238.96289,66.61523,238.96289z"/>
	</g>
	<g>
		<path fill="#252626" d="M31.58594,181.77637c-0.41406,0-0.75-0.33594-0.75-0.75V48.36621
			c0-1.38477,0.80762-2.66504,2.05664-3.26172l21.54297-10.30078c0.375-0.17676,0.82129-0.01953,1,0.35352
			s0.02051,0.82129-0.35352,1L33.53906,46.45801c-0.73047,0.34863-1.20313,1.09766-1.20313,1.9082v132.66016
			C32.33594,181.44043,32,181.77637,31.58594,181.77637z"/>
	</g>
	<g>
		<path fill="#252626" d="M22.5,172.04102c-0.41406,0-0.75-0.33594-0.75-0.75V62.59375c0-1.38379,0.80664-2.66309,2.05469-3.26172
			l28.3877-13.58984c0.375-0.17676,0.82324-0.01953,1.00098,0.35254c0.17871,0.37402,0.02051,0.82227-0.35254,1.00098
			l-28.3877,13.58984c-0.73145,0.34961-1.20313,1.09863-1.20313,1.9082v108.69727
			C23.25,171.70508,22.91406,172.04102,22.5,172.04102z"/>
	</g>
	<g>
		<path fill="#252626" d="M13.58594,175.20117c-0.41406,0-0.75-0.33594-0.75-0.75V75.57813
			c0-1.38477,0.80664-2.66504,2.05566-3.26172l31.66992-15.14844c0.37207-0.17676,0.82129-0.01953,1,0.35352
			s0.02051,0.82129-0.35352,1L15.53809,73.66992c-0.73047,0.34863-1.20215,1.09766-1.20215,1.9082v98.87305
			C14.33594,174.86523,14,175.20117,13.58594,175.20117z"/>
	</g>
	<g>
		<path fill="#252626" d="M73.58105,176.4082c-0.41406,0-0.75-0.33594-0.75-0.75V94.67871c0-5.375-4.37305-9.74707-9.74805-9.74707
			s-9.74707,4.37207-9.74707,9.74707c0,0.41406-0.33594,0.75-0.75,0.75s-0.75-0.33594-0.75-0.75
			c0-6.20117,5.0459-11.24707,11.24707-11.24707c6.20215,0,11.24805,5.0459,11.24805,11.24707v80.97949
			C74.33105,176.07227,73.99512,176.4082,73.58105,176.4082z"/>
	</g>
	<g>
		<path fill="#252626" d="M82.58008,171.86426c-0.41406,0-0.75-0.33594-0.75-0.75V94.67871
			c0-7.85547-6.3916-14.24707-14.24707-14.24707s-14.24707,6.3916-14.24707,14.24707c0,0.41406-0.33594,0.75-0.75,0.75
			s-0.75-0.33594-0.75-0.75c0-8.68262,7.06445-15.74707,15.74707-15.74707s15.74707,7.06445,15.74707,15.74707v76.43555
			C83.33008,171.52832,82.99414,171.86426,82.58008,171.86426z"/>
	</g>
	<g>
		<path fill="#252626" d="M91.5791,177.35449L91.5791,177.35449c-0.41406,0-0.75-0.33594-0.75-0.75l0.00684-81.92578
			c0-10.33887-8.41113-18.75-18.75-18.75s-18.75,8.41113-18.75,18.75c0,0.41406-0.33594,0.75-0.75,0.75s-0.75-0.33594-0.75-0.75
			c0-11.16602,9.08398-20.25,20.25-20.25s20.25,9.08398,20.25,20.25l-0.00684,81.92578
			C92.3291,177.01855,91.99316,177.35449,91.5791,177.35449z"/>
	</g>
	<g>
		<g>
			<path fill="#252626" d="M74.32324,130.27637c-5.74316,0-11.15234-2.12988-15.37012-6.08301
				c-4.52344-4.24023-7.11719-10.22559-7.11719-16.42285c0-0.41406,0.33594-0.75,0.75-0.75s0.75,0.33594,0.75,0.75
				c0,5.86914,2.35938,11.3125,6.64355,15.32813c4.28027,4.0127,9.87891,6.00294,15.76074,5.63184
				c10.99414-0.71191,19.60547-10.24512,19.60547-21.70508V77.64746c0-0.80957-0.47168-1.55762-1.20215-1.90723l-36.3369-17.21777
				c-0.37402-0.17773-0.53418-0.625-0.35645-0.99902c0.17676-0.37402,0.625-0.53125,0.99902-0.35645l36.33984,17.21875
				c1.25,0.59863,2.05664,1.87891,2.05664,3.26172v29.37793c0,12.24805-9.22754,22.43945-21.00781,23.20117
				C75.33008,130.25977,74.8252,130.27637,74.32324,130.27637z"/>
		</g>
		<g>
			<path fill="#252626" d="M69.75586,125.30469c-0.10938,0-0.21875-0.00098-0.32813-0.00293
				c-9.73438-0.18262-17.6543-8.25488-17.6543-17.99414c0-0.41406,0.33594-0.75,0.75-0.75s0.75,0.33594,0.75,0.75
				c0,8.92773,7.25879,16.32715,16.18164,16.49414c4.35352,0.08887,8.46875-1.5957,11.65137-4.71875
				c3.28027-3.21875,5.16113-7.67578,5.16113-12.22754V64.2207c0-0.80957-0.47168-1.55859-1.20215-1.9082l-27.2617-13.05177
				c-0.37305-0.17871-0.53125-0.62695-0.35254-1.00098c0.17871-0.37305,0.62695-0.53125,1.00098-0.35254l27.26172,13.05176
				c1.24805,0.59863,2.05371,1.87891,2.05371,3.26172v42.63477c0,4.95215-2.04492,9.79883-5.61035,13.29785
				C78.76563,123.48242,74.37207,125.30469,69.75586,125.30469z"/>
		</g>
		<g>
			<path fill="#252626" d="M65.29883,120.81738c-3.56055,0-6.9082-1.36719-9.45313-3.86523
				c-2.60645-2.55957-4.04199-5.98047-4.04199-9.63281c0-0.41406,0.33594-0.75,0.75-0.75s0.75,0.33594,0.75,0.75
				c0,3.24609,1.27637,6.28711,3.59277,8.5625c2.31641,2.27344,5.36816,3.51074,8.62988,3.43359
				c6.49121-0.11914,11.77246-5.68945,11.77246-12.41797V49.4209c0-0.80566-0.44824-1.53027-1.16895-1.8916L52.16016,35.52734
				c-0.37012-0.18555-0.52051-0.63672-0.33496-1.00684c0.18652-0.36914,0.63379-0.51855,1.00684-0.33496L76.80176,46.1875
				c1.23145,0.61719,1.99707,1.85645,1.99707,3.2334v57.47656c0,7.54004-5.94141,13.7832-13.24512,13.91797
				C65.46875,120.81641,65.38379,120.81738,65.29883,120.81738z"/>
		</g>
	</g>
	<g>
		<circle fill="#252626" cx="52.52337" cy="47.5" r="15"/>
	</g>
	<g>
		<path fill="#252626" d="M82.67188,348.28516c-0.17188,0-0.34473-0.05273-0.49316-0.16309
			c-0.36719-0.27344-0.44336-0.79199-0.1709-1.15918l11.09668-14.91699c0.27344-0.36719,0.79199-0.44336,1.15918-0.1709
			c0.36719,0.27344,0.44336,0.79199,0.1709,1.15918l-11.09668,14.91699C83.1748,348.16992,82.9248,348.28516,82.67188,348.28516z"/>
	</g>
	<g>
		<path fill="#252626" d="M22.16504,348.28516c-0.25293,0-0.50293-0.11523-0.66602-0.33398l-11.0957-14.91699
			c-0.27246-0.36719-0.19629-0.88574,0.1709-1.15918c0.36719-0.27246,0.88574-0.19629,1.15918,0.1709l11.0957,14.91699
			c0.27246,0.36719,0.19629,0.88574-0.1709,1.15918C22.50977,348.23242,22.33691,348.28516,22.16504,348.28516z"/>
	</g>
	<g>
		<path fill="#252626" d="M52.58496,293.08105c-0.14453,0-0.29199-0.04199-0.4209-0.12988
			c-0.34277-0.23242-0.43164-0.69922-0.19824-1.04199l27.28223-40.12109c0.23242-0.3418,0.69727-0.43262,1.04199-0.19824
			c0.34277,0.23242,0.43164,0.69922,0.19824,1.04199l-27.28223,40.12109C53.06055,292.96582,52.8252,293.08105,52.58496,293.08105z"
			/>
	</g>
	<g>
		<path fill="#252626" d="M69.82715,318.25c-0.41406,0-0.75-0.33594-0.75-0.75v-30.11426c0-1.84375,0.54883-3.625,1.58594-5.15137
			l12.50977-18.39746c0.23047-0.34082,0.69824-0.43359,1.04199-0.19824c0.34277,0.23242,0.43164,0.69922,0.19824,1.04199
			l-12.50977,18.39746c-0.86719,1.27539-1.32617,2.76563-1.32617,4.30762V317.5C70.57715,317.91406,70.24121,318.25,69.82715,318.25
			z"/>
	</g>
	<g>
		<path fill="#252626" d="M83.18262,283.45801c-0.14453,0-0.29199-0.04199-0.4209-0.12988
			c-0.34277-0.23242-0.43164-0.69922-0.19824-1.04199l11.32129-16.65039c0.23145-0.3418,0.69727-0.43262,1.04199-0.19824
			c0.34277,0.23242,0.43164,0.69922,0.19824,1.04199l-11.32129,16.65039C83.65918,283.34277,83.42285,283.45801,83.18262,283.45801z
			"/>
	</g>
	<g>
		<path fill="#252626" d="M52.1582,292.72656c-0.24023,0-0.47559-0.11523-0.62109-0.32813l-27.28223-40.12109
			c-0.2334-0.34277-0.14453-0.80957,0.19824-1.04199c0.34277-0.23535,0.80859-0.14258,1.04199,0.19824l27.28223,40.12109
			c0.2334,0.34277,0.14453,0.80957-0.19824,1.04199C52.4502,292.68457,52.30273,292.72656,52.1582,292.72656z"/>
	</g>
	<g>
		<path fill="#252626" d="M34.98926,318.25c-0.41406,0-0.75-0.33594-0.75-0.75v-30.11426c0-1.54297-0.45801-3.03223-1.3252-4.30762
			l-12.51074-18.39746c-0.2334-0.34277-0.14453-0.80957,0.19824-1.04199c0.34277-0.23535,0.80859-0.14258,1.04199,0.19824
			l12.51074,18.39746c1.03711,1.52539,1.58496,3.30664,1.58496,5.15137V317.5C35.73926,317.91406,35.40332,318.25,34.98926,318.25z"
			/>
	</g>
	<g>
		<path fill="#252626" d="M21.46875,282.75488c-0.24023,0-0.47559-0.11523-0.62109-0.32813l-10.77246-15.8418
			c-0.2334-0.34277-0.14453-0.80957,0.19824-1.04199c0.34277-0.23535,0.80859-0.14258,1.04199,0.19824l10.77246,15.8418
			c0.2334,0.34277,0.14453,0.80957-0.19824,1.04199C21.76074,282.71289,21.61328,282.75488,21.46875,282.75488z"/>
	</g>
	<g>
		<path fill="#252626" d="M52.46875,75.52539c-0.41406,0-0.75-0.33594-0.75-0.75V48c0-0.41406,0.33594-0.75,0.75-0.75
			s0.75,0.33594,0.75,0.75v26.77539C53.21875,75.18945,52.88281,75.52539,52.46875,75.52539z"/>
	</g>
	<g>
		<g>
			<circle fill="#252626" cx="52.58571" cy="70.86311" r="6.3"/>
		</g>
		<g>
			<g>
				<path fill="#E5E5E5" d="M50.56836,67.50781h4.50781v1.58008h-2.89063v0.56641h2.52734v1.60742h-2.52734v1.26367h2.82617v1.59863
					h-4.44336C50.56835,74.12402,50.56835,67.50781,50.56836,67.50781z"/>
			</g>
		</g>
	</g>
	<g>
		<path fill="#252626" d="M52.5,266.66113c-0.09277,0-0.18652-0.0166-0.27734-0.05273l-7.70605-3.06543
			c-1.07617-0.42871-1.64453-1.61816-1.29395-2.70801c0.68652-2.14258,1.03516-4.38086,1.03516-6.65137
			c0-5.62598-2.13965-10.96387-6.02539-15.03027c-0.28613-0.2998-0.27539-0.77441,0.02344-1.06055s0.77344-0.27539,1.06055,0.02344
			c4.1543,4.34766,6.44141,10.05371,6.44141,16.06738c0,2.42578-0.37207,4.81836-1.10742,7.10938
			c-0.10938,0.34277,0.0752,0.71777,0.4209,0.85645l7.70605,3.06445c0.38477,0.15332,0.57227,0.58984,0.41992,0.97461
			C53.08008,266.48242,52.79785,266.66113,52.5,266.66113z"/>
	</g>
	<g>
		<path fill="#252626" d="M52.15723,199.0918c-0.17383,0-0.34863-0.05957-0.49023-0.18262l-29.65723-25.6123
			c-0.31348-0.27051-0.34766-0.74414-0.07715-1.05762c0.27148-0.31445,0.74512-0.34863,1.05762-0.07715l29.65723,25.6123
			c0.31348,0.27051,0.34766,0.74414,0.07715,1.05762C52.57617,199.00391,52.36719,199.0918,52.15723,199.0918z"/>
	</g>
	<g>
		<path fill="#252626" d="M82.5,171.75c-0.17773,0-0.35547-0.0625-0.49805-0.18945L52.12988,144.9834
			c-0.30957-0.27539-0.33789-0.75-0.0625-1.05859c0.27637-0.31152,0.75098-0.33691,1.05859-0.0625l29.87207,26.57715
			c0.30957,0.27539,0.33789,0.75,0.0625,1.05859C82.91211,171.66504,82.70605,171.75,82.5,171.75z"/>
	</g>
	<g>
		<path fill="#252626" d="M23.33594,181.03613c0-0.41406-0.33594-0.75-0.75-0.75s-0.75,0.33594-0.75,0.75v13.05518h1.5V181.03613z"
			/>
		<path fill="#252626" d="M83.08301,168.57129c0-0.41406-0.33594-0.75-0.75-0.75s-0.75,0.33594-0.75,0.75v25.52002h1.5V168.57129z"
			/>
		<path fill="#252626" d="M81.58301,205.39551c0,0.92285-0.35938,1.79102-1.0127,2.44434l-29.58789,29.57031
			c-0.12793,0.12695-0.29688,0.19238-0.48633,0.16895c-0.10352-0.0127-0.29492-0.06348-0.4209-0.26758
			c-1.38477-2.25195-3.04883-4.33496-4.94531-6.18945c-5.70996-5.58203-13.24023-8.83594-21.20508-9.16113
			c-0.33008-0.01367-0.58887-0.27051-0.58887-0.58594v-17.68506h-1.5V221.375c0,1.12305,0.89063,2.03809,2.02832,2.08398
			c7.59277,0.31055,14.77344,3.41309,20.2168,8.73535c1.80957,1.76953,3.39648,3.75488,4.7168,5.90234
			c0.33301,0.54297,0.8877,0.89746,1.52148,0.97168c0.08398,0.00977,0.16699,0.01465,0.24902,0.01465
			c0.55078,0,1.07813-0.21582,1.47461-0.6123l29.58789-29.57031c0.93652-0.93652,1.45215-2.18066,1.45215-3.50488v-1.70557h-1.5
			C81.583,203.68994,81.583,205.39551,81.58301,205.39551z"/>
	</g>
	<g>
		<path fill="#252626" d="M57.55273,219.42383c-0.51953,0-1.04199-0.19434-1.4541-0.58594
			c-6.86621-6.5127-15.38965-10.85449-24.64648-12.55664c-0.40723-0.07422-0.67676-0.46582-0.60156-0.87305
			c0.07422-0.40723,0.46191-0.67871,0.87305-0.60156c9.54395,1.75391,18.3291,6.22949,25.4082,12.94336
			c0.23828,0.22656,0.60059,0.22559,0.8252,0.00098l13.82422-13.41016c0.66699-0.64746,1.0498-1.55078,1.0498-2.47949v-53.90918
			c0-0.41406,0.33594-0.75,0.75-0.75s0.75,0.33594,0.75,0.75v53.90918c0,1.33203-0.54883,2.62793-1.50488,3.55566
			l-13.81641,13.40234C58.60742,219.22168,58.08203,219.42383,57.55273,219.42383z"/>
	</g>
	<g>
		<g>
			<circle fill="#252626" cx="22.5" cy="143.56245" r="6.3"/>
		</g>
		<g>
			<g>
				<path fill="#E5E5E5" d="M23.88477,146.79102v-3.66113c-0.49414,0.66895-1.00391,1.35645-1.38477,1.88672l-1.375-1.88672v3.66113
					h-1.60938v-6.61621h1.43164L22.5,142.31152l1.55078-2.13672h1.43164v6.61621H23.88477z"/>
			</g>
		</g>
	</g>
	<g>
		<g>
			<circle fill="#252626" cx="82.58572" cy="143.56245" r="6.3"/>
		</g>
		<g>
			<g>
				<path fill="#E5E5E5" d="M84.26465,144.35645l1.27344,0.93848c-0.82715,1.10547-1.80273,1.58887-2.88086,1.58887
					c-1.89551,0-3.44727-1.55176-3.44727-3.44727s1.55176-3.43848,3.44727-3.43848c1.09668,0,2.09082,0.51074,2.91797,1.61719
					l-1.29199,0.94727c-0.52051-0.69629-1.0498-0.97559-1.62598-0.97559c-1.03125,0-1.84961,0.82715-1.84961,1.84961
					c0,1.03125,0.81836,1.84863,1.84961,1.84863C83.2334,145.28516,83.74414,145.04395,84.26465,144.35645z"/>
			</g>
		</g>
	</g>
	<g>
		<g>
			<g>
				<path fill="#FF4257" d="M47.09961,166.67969c-0.21973-0.39941-0.08008-0.89941,0.31055-1.12988l0,0
					c0.39941-0.21973,0.90918-0.08008,1.12988,0.32031l0,0c0.22949,0.38965,0.08984,0.89941-0.31055,1.12012l0,0
					c-0.12988,0.0791-0.26953,0.10938-0.41016,0.10938l0,0C47.5293,167.09961,47.25,166.9502,47.09961,166.67969z
					 M49.31934,165.5498c-0.11914-0.44043,0.15039-0.88965,0.59082-1.00977v0.00977
					c0.44922-0.12012,0.89941,0.15039,1.00977,0.58984l0,0c0.12012,0.44043-0.15039,0.90039-0.58984,1.00977l0,0l0,0l0,0
					c-0.07031,0.02051-0.14063,0.03027-0.20996,0.03027l0,0C49.75,166.17969,49.41016,165.92969,49.31934,165.5498z"/>
			</g>
			<g>
				<path fill="#FF4257" d="M45.84961,168.59961c-0.12012,0-0.21973-0.01953-0.32031-0.06934
					c-0.09961-0.04004-0.18945-0.10059-0.26953-0.18066c-0.16016-0.14941-0.24023-0.35938-0.24023-0.58008
					c0-0.10938,0.02051-0.21973,0.06055-0.31934c0.04004-0.10059,0.09961-0.19043,0.17969-0.27051
					c0.07031-0.07031,0.16016-0.13965,0.26953-0.17969c0.2002-0.08008,0.43066-0.08008,0.63086,0
					c0.09961,0.04004,0.18945,0.10938,0.26953,0.17969c0.08008,0.08008,0.13965,0.16992,0.17969,0.27051
					c0.04004,0.09961,0.06055,0.20996,0.06055,0.31934c0,0.2207-0.08008,0.43066-0.24023,0.58008
					C46.26953,168.50977,46.05957,168.59961,45.84961,168.59961z"/>
			</g>
		</g>
		<g>
			<g>
				<path fill="#FF4257" d="M54.14941,183.83984c-0.10938-0.4502,0.16016-0.90039,0.60059-1.00977l0,0l0,0l0,0
					c0.43945-0.11035,0.88965,0.14941,1.00977,0.59961l0,0c0.11035,0.44043-0.16016,0.88965-0.59961,1l0,0
					c-0.07031,0.02051-0.14063,0.03027-0.20996,0.03027l0,0C54.58984,184.45996,54.25,184.20996,54.14941,183.83984z
					 M56.5293,183.10938c-0.21973-0.39941-0.08984-0.89941,0.31055-1.11914l0,0c0,0,0,0,0-0.01074l0,0
					c0.40039-0.21973,0.91016-0.08008,1.12988,0.32031l0,0c0.23047,0.38965,0.08984,0.90039-0.30957,1.12988l0,0
					c-0.13086,0.07031-0.27051,0.10059-0.41016,0.10059l0,0C56.96973,183.53027,56.67969,183.37988,56.5293,183.10938z"/>
			</g>
			<g>
				<path fill="#FF4257" d="M59.22949,182.04004c-0.10938,0-0.21973-0.02051-0.31934-0.06055
					c-0.10059-0.04004-0.19043-0.10938-0.26074-0.17969c-0.08008-0.08008-0.13965-0.16992-0.17969-0.26953
					c-0.04004-0.10059-0.07031-0.21094-0.07031-0.32031c0-0.11035,0.03027-0.21973,0.07031-0.32031
					c0.04004-0.09961,0.09961-0.18945,0.17969-0.25977c0.07031-0.08008,0.16016-0.13965,0.26074-0.17969
					c0.30957-0.13086,0.67969-0.05078,0.90918,0.17969c0.07031,0.07031,0.13086,0.16016,0.18066,0.25977
					c0.04004,0.10059,0.05957,0.20996,0.05957,0.32031c0,0.10938-0.01953,0.21973-0.05957,0.32031
					c-0.04004,0.09961-0.10059,0.18945-0.18066,0.26953C59.66016,181.9502,59.45996,182.04004,59.22949,182.04004z"/>
			</g>
		</g>
		<g>
			<path fill="#252626" d="M52.49609,184.67969c-0.00195,0-0.00488,0-0.00781,0c-2.7207-0.02734-5.27051-1.11133-7.17969-3.05078
				c-0.29004-0.2959-0.28613-0.77051,0.00879-1.06055c0.29785-0.29297,0.77051-0.28516,1.06152,0.00781
				c1.62793,1.65527,3.80273,2.58008,6.125,2.60352c0.41406,0.00391,0.74609,0.34375,0.74219,0.75781
				C53.24219,184.34863,52.90723,184.67969,52.49609,184.67969z"/>
		</g>
		<g>
			<path fill="#252626" d="M52.58008,198.04883c-0.41406,0-0.75-0.33594-0.75-0.75v-13.35156c0-0.41406,0.33594-0.75,0.75-0.75
				s0.75,0.33594,0.75,0.75v13.35156C53.33008,197.71289,52.99414,198.04883,52.58008,198.04883z"/>
		</g>
		<g>
			<path fill="#252626" d="M52.58008,165.80273c-0.41406,0-0.75-0.33594-0.75-0.75v-13.35156c0-0.41406,0.33594-0.75,0.75-0.75
				s0.75,0.33594,0.75,0.75v13.35156C53.33008,165.4668,52.99414,165.80273,52.58008,165.80273z"/>
		</g>
		<g>
			<path fill="#252626" d="M59.23242,168.62695c-0.19434,0-0.3877-0.0752-0.53418-0.22363
				c-1.62988-1.65527-3.80469-2.58008-6.12598-2.60352c-0.41406-0.00391-0.74609-0.34375-0.74219-0.75781
				c0.00391-0.41113,0.33887-0.74219,0.75-0.74219c0.00195,0,0.00488,0,0.00781,0c2.71973,0.02734,5.26953,1.11133,7.17871,3.05078
				c0.29102,0.2959,0.28711,0.77051-0.00781,1.06055C59.6123,168.55566,59.42285,168.62695,59.23242,168.62695z"/>
		</g>
	</g>
	<g>
		<path fill="#252626" d="M44.48438,161.49707c-0.2627,0-0.51758-0.1377-0.65527-0.38281
			c-0.20215-0.36133-0.07422-0.81836,0.28711-1.02148c2.48535-1.39355,5.31348-2.12988,8.17773-2.12988
			c0.41406,0,0.75,0.33594,0.75,0.75s-0.33594,0.75-0.75,0.75c-2.6084,0-5.18164,0.66992-7.44336,1.93848
			C44.73438,161.46582,44.6084,161.49707,44.48438,161.49707z"/>
	</g>
	<g>
		<g>
			<path fill="#252626" d="M16.79688,21.08105h0.54395v1.13477h0.01855c0.30078-0.77832,0.95703-1.23828,1.83008-1.20117v0.5918
				c-1.07031-0.05664-1.80176,0.73145-1.80176,1.73535v2.58105h-0.59082V21.08105z"/>
		</g>
		<g>
			<path fill="#252626" d="M19.7627,19.22266h0.5918v0.94727h-0.5918V19.22266z M19.7627,21.08105h0.5918v4.8418h-0.5918V21.08105z"
				/>
		</g>
		<g>
			<path fill="#252626" d="M21.48145,21.08105h0.59082v0.83496h0.01953c0.21582-0.58203,0.86328-0.97656,1.54785-0.97656
				c1.36035,0,1.77344,0.71387,1.77344,1.86816v3.11523h-0.59082v-3.02148c0-0.83496-0.27246-1.46387-1.22949-1.46387
				c-0.93848,0-1.50098,0.71289-1.52051,1.66113v2.82422h-0.59082C21.48145,25.92284,21.48145,21.08105,21.48145,21.08105z"/>
		</g>
		<g>
			<path fill="#252626" d="M30.62402,25.52832c-0.00879,1.44531-0.5625,2.32813-2.14844,2.32813
				c-0.9668,0-1.92383-0.43164-2.00879-1.46484h0.5918c0.13086,0.71387,0.75977,0.9668,1.41699,0.9668
				c1.08789,0,1.55762-0.64746,1.55762-1.83008v-0.65625h-0.01855c-0.27246,0.59082-0.84473,0.99414-1.53906,0.99414
				c-1.54883,0-2.18652-1.10742-2.18652-2.48633c0-1.33301,0.78809-2.44043,2.18652-2.44043
				c0.70313,0,1.30371,0.44141,1.53906,0.97656h0.01855v-0.83496h0.59082V25.52832z M30.0332,23.44531
				c0-0.94727-0.44141-2.00781-1.55762-2.00781c-1.12598,0-1.5957,1.00391-1.5957,2.00781c0,0.97559,0.50684,1.92383,1.5957,1.92383
				C29.49805,25.36914,30.0332,24.43066,30.0332,23.44531z"/>
		</g>
		<g>
			<path fill="#252626" d="M31.75293,21.08105h0.54395v0.81641h0.02832c0.30957-0.58203,0.81641-0.95801,1.58594-0.95801
				c0.6377,0,1.20996,0.31055,1.38867,0.94824c0.29102-0.6377,0.90039-0.94824,1.53906-0.94824
				c1.06055,0,1.60449,0.55371,1.60449,1.69922v3.28418h-0.59082v-3.25586c0-0.79785-0.30078-1.22949-1.14551-1.22949
				c-1.02246,0-1.31348,0.84473-1.31348,1.74512v2.74023h-0.59082v-3.28418c0.00879-0.65723-0.2627-1.20117-1.01367-1.20117
				c-1.02344,0-1.43555,0.76953-1.44531,1.78223v2.70313h-0.59082C31.75293,25.92286,31.75293,21.08105,31.75293,21.08105z"/>
		</g>
		<g>
			<path fill="#252626" d="M43.9082,23.50195c0,1.38867-0.80664,2.56152-2.29004,2.56152
				c-1.48242,0-2.28906-1.17285-2.28906-2.56152s0.80664-2.5625,2.28906-2.5625
				C43.10156,20.93945,43.9082,22.11328,43.9082,23.50195z M39.91992,23.50195c0,1.03223,0.56348,2.06445,1.69824,2.06445
				c1.13574,0,1.69922-1.03223,1.69922-2.06445s-0.56348-2.06445-1.69922-2.06445
				C40.4834,21.4375,39.91992,22.46973,39.91992,23.50195z"/>
		</g>
		<g>
			<path fill="#252626" d="M49.05273,25.92285h-0.54395v-0.91992h-0.01855c-0.25391,0.62891-1.02344,1.06055-1.72656,1.06055
				c-1.47363,0-2.17773-1.19141-2.17773-2.56152s0.7041-2.5625,2.17773-2.5625c0.72168,0,1.42578,0.36621,1.67969,1.06055h0.01855
				v-2.77734h0.59082C49.05273,19.22267,49.05273,25.92285,49.05273,25.92285z M46.76367,25.56641
				c1.25684,0,1.69824-1.06055,1.69824-2.06445s-0.44141-2.06445-1.69824-2.06445c-1.12695,0-1.58594,1.06055-1.58594,2.06445
				S45.63672,25.56641,46.76367,25.56641z"/>
		</g>
		<g>
			<path fill="#252626" d="M57.12695,23.50195c0,1.38867-0.80664,2.56152-2.29004,2.56152
				c-1.48242,0-2.28906-1.17285-2.28906-2.56152s0.80664-2.5625,2.28906-2.5625
				C56.32031,20.93945,57.12695,22.11328,57.12695,23.50195z M53.13867,23.50195c0,1.03223,0.56348,2.06445,1.69824,2.06445
				c1.13574,0,1.69922-1.03223,1.69922-2.06445s-0.56348-2.06445-1.69922-2.06445
				C53.70215,21.4375,53.13867,22.46973,53.13867,23.50195z"/>
		</g>
		<g>
			<path fill="#252626" d="M60.91113,22.49805c-0.02832-0.73242-0.5918-1.06055-1.2666-1.06055
				c-0.52637,0-1.14551,0.20605-1.14551,0.83496c0,0.52539,0.60059,0.71289,1.00391,0.81641l0.78906,0.17871
				c0.67578,0.10254,1.37891,0.49707,1.37891,1.3418c0,1.05078-1.04102,1.4541-1.94238,1.4541
				c-1.12598,0-1.89551-0.52539-1.98926-1.70801h0.59082c0.04688,0.79785,0.63867,1.21094,1.42676,1.21094
				c0.55371,0,1.32324-0.24414,1.32324-0.91992c0-0.5625-0.52539-0.75098-1.06055-0.88184l-0.75977-0.16895
				c-0.76953-0.20703-1.35156-0.46973-1.35156-1.29492c0-0.98535,0.9668-1.36133,1.82031-1.36133
				c0.9668,0,1.73633,0.50684,1.77344,1.55859C61.50195,22.49804,60.91113,22.49804,60.91113,22.49805z"/>
		</g>
		<g>
			<path fill="#252626" d="M65.94238,22.60059c-0.15918-0.72266-0.60059-1.16309-1.37012-1.16309
				c-1.13477,0-1.69824,1.03223-1.69824,2.06445s0.56348,2.06445,1.69824,2.06445c0.73242,0,1.33301-0.57227,1.4082-1.37988h0.59082
				c-0.15918,1.16406-0.91992,1.87695-1.99902,1.87695c-1.48242,0-2.28906-1.17285-2.28906-2.56152s0.80664-2.5625,2.28906-2.5625
				c1.03223,0,1.83008,0.55371,1.96191,1.66113h-0.59179V22.60059z"/>
		</g>
		<g>
			<path fill="#252626" d="M67.40918,19.22266h0.5918v0.94727h-0.5918V19.22266z M67.40918,21.08105h0.5918v4.8418h-0.5918V21.08105
				z"/>
		</g>
		<g>
			<path fill="#252626" d="M69.14648,19.22266h0.5918v6.7002h-0.5918V19.22266z"/>
		</g>
		<g>
			<path fill="#252626" d="M70.88379,19.22266h0.5918v6.7002h-0.5918V19.22266z"/>
		</g>
		<g>
			<path fill="#252626" d="M72.55566,22.56348c0.05664-1.13574,0.85352-1.62402,1.96094-1.62402
				c0.85449,0,1.7832,0.2627,1.7832,1.55859v2.57129c0,0.22461,0.1123,0.35645,0.34766,0.35645
				c0.06543,0,0.14063-0.01953,0.1875-0.03809v0.49805c-0.13184,0.02734-0.22559,0.03711-0.38477,0.03711
				c-0.60059,0-0.69434-0.33789-0.69434-0.84473h-0.01953c-0.41211,0.62891-0.83496,0.98535-1.76367,0.98535
				c-0.8916,0-1.62402-0.44141-1.62402-1.41699c0-1.36035,1.32324-1.40723,2.59961-1.55762
				c0.48828-0.05664,0.76074-0.12207,0.76074-0.65723c0-0.79688-0.57324-0.99414-1.26758-0.99414
				c-0.73145,0-1.27539,0.33789-1.29492,1.12598C73.14646,22.56348,72.55566,22.56348,72.55566,22.56348z M75.70898,23.27637
				h-0.01953c-0.07422,0.14063-0.33691,0.1875-0.49707,0.21582c-1.00391,0.17871-2.25195,0.16895-2.25195,1.11719
				c0,0.59082,0.52539,0.95703,1.0791,0.95703c0.90039,0,1.69824-0.57227,1.68945-1.52051V23.27637z"/>
		</g>
		<g>
			<path fill="#252626" d="M78.42285,21.08105h0.98535v0.49707h-0.98535v3.26563c0,0.38477,0.05664,0.61035,0.47949,0.6377
				c0.16895,0,0.33789-0.00879,0.50586-0.02734v0.50586c-0.17773,0-0.34668,0.01953-0.52539,0.01953
				c-0.78809,0-1.05957-0.2627-1.05078-1.08887v-3.3125H76.9873v-0.49707h0.84473v-1.45508h0.59082
				C78.42284,19.62598,78.42284,21.08105,78.42285,21.08105z"/>
		</g>
		<g>
			<path fill="#252626" d="M84.59961,23.50195c0,1.38867-0.80664,2.56152-2.29004,2.56152
				c-1.48242,0-2.28906-1.17285-2.28906-2.56152s0.80664-2.5625,2.28906-2.5625
				C83.79297,20.93945,84.59961,22.11328,84.59961,23.50195z M80.61133,23.50195c0,1.03223,0.56348,2.06445,1.69824,2.06445
				c1.13574,0,1.69922-1.03223,1.69922-2.06445s-0.56348-2.06445-1.69922-2.06445
				C81.1748,21.4375,80.61133,22.46973,80.61133,23.50195z"/>
		</g>
		<g>
			<path fill="#252626" d="M85.48438,21.08105h0.54395v1.13477h0.01855c0.30078-0.77832,0.95703-1.23828,1.83008-1.20117v0.5918
				c-1.07031-0.05664-1.80176,0.73145-1.80176,1.73535v2.58105h-0.59082V21.08105z"/>
		</g>
	</g>
	<g>
		<g>
			<path fill="#1D1D1B" d="M44.50391,108.83398l-1.69531,2.34375l1.82129-0.58887l0.00684,1.91016l1.69434-2.34473l0.65527,0.47461
				l-2.53516,3.50586l-0.61621-0.44531l-0.00684-1.99316l-1.89355,0.61816l-0.62012-0.44922l2.53516-3.50391L44.50391,108.83398z"/>
		</g>
		<g>
			<path fill="#1D1D1B" d="M42.02539,108.72656l-2.23633,1.52441l-0.45508-0.66992l2.23633-1.52246
				c0.40234-0.27441,0.51172-0.82813,0.24023-1.22363c-0.27344-0.40234-0.82422-0.49805-1.22656-0.22461l-2.23633,1.52344
				l-0.45898-0.67285l2.23633-1.52344c0.37305-0.25391,0.82422-0.34766,1.2627-0.26367
				c0.44238,0.08691,0.8291,0.34082,1.08203,0.71289C42.99414,107.1543,42.79492,108.20313,42.02539,108.72656z"/>
		</g>
		<g>
			<path fill="#1D1D1B" d="M41.21289,104.38379l-4.13477,1.26465l-0.23828-0.77832l3.375-1.03223l-0.64453-2.10742l0.75977-0.23242
				L41.21289,104.38379z"/>
		</g>
		<g>
			<path fill="#1D1D1B" d="M40.33105,100.64844l-3.52051,0.21191l0.0625,1.0625l-0.80078,0.04785l-0.17578-2.93848l0.80176-0.04883
				l0.06348,1.06348l3.52051-0.21094L40.33105,100.64844z"/>
		</g>
		<g>
			<path fill="#1D1D1B" d="M40.38867,97.86035l-4.26172-0.70605l0.13281-0.80176l4.2627,0.70605L40.38867,97.86035z"/>
		</g>
		<g>
			<path fill="#1D1D1B" d="M40.74023,95.96582l-4.00781-1.63574l0.58594-1.43555c0.11133-0.27539,0.32422-0.49023,0.60156-0.60742
				c0.27539-0.11133,0.57422-0.12109,0.85059-0.00781c0.56934,0.2334,0.83398,0.88574,0.60254,1.4541l-0.28125,0.68652
				l1.9541,0.79785L40.74023,95.96582z M38.63477,93.43262c0.06445-0.1582-0.01367-0.33398-0.17188-0.39844
				s-0.3457,0.00977-0.4082,0.16113l-0.2793,0.68848l0.5791,0.23633L38.63477,93.43262z"/>
		</g>
		<g>
			<path fill="#1D1D1B" d="M42.03809,93.02441l-3.40918-2.66016l0.5-0.64063l2.78223,2.1709l1.35547-1.73926l0.62793,0.49023
				L42.03809,93.02441z"/>
		</g>
		<g>
			<path fill="#1D1D1B" d="M44.77148,89.99512l-1.30273-1.69629l-2.56934-0.7832l0.79004-0.60645l1.60742,0.48828l-0.05664-1.68066
				l0.78516-0.60254l0.09375,2.68555l1.30273,1.69531L44.77148,89.99512z"/>
		</g>
	</g>
	<g>
		<g>
			<g>
				<g>
					<polyline fill="none" stroke="#262626" stroke-width="1.65681" stroke-linejoin="round" stroke-miterlimit="10" points="
						10.58931,182.91069 22.5,171 34.41069,182.91069 					"/>
					<circle fill="#E5E5E5" cx="22.5" cy="171" r="16.84425"/>
					
						<path fill="#E5E5E5" stroke="#262626" stroke-width="1.65681" stroke-linecap="round" stroke-linejoin="round" stroke-miterlimit="10" d="
						M36.65755,180.13022c1.69995-2.63055,2.68671-5.76515,2.68671-9.13022c0-9.30283-7.54143-16.84425-16.84425-16.84425
						S5.65575,161.69717,5.65575,171c0,3.28493,0.94032,6.35023,2.56648,8.94144"/>
					
						<path fill="#E5E5E5" stroke="#262626" stroke-width="1.65681" stroke-linecap="round" stroke-linejoin="round" stroke-miterlimit="10" d="
						M10.5893,182.91068c3.04821,3.04822,7.25928,4.93358,11.9107,4.93358c4.65141,0,8.86247-1.88536,11.91068-4.93356"/>
				</g>
			</g>
		</g>
	</g>
	<g>
		<g>
			<path fill="#1D1D1B" d="M88.23633,285.95508l2.21289-3.7207l1.33301,0.79492c0.25586,0.15039,0.43652,0.39258,0.51074,0.68555
				c0.06934,0.28906,0.0332,0.58594-0.11914,0.8418c-0.31348,0.52734-0.99902,0.69336-1.52637,0.37695l-0.6377-0.37695
				l-1.0791,1.8125L88.23633,285.95508z M91.05469,284.25c0.14648,0.08789,0.33203,0.03516,0.41895-0.10938
				c0.08789-0.14648,0.04199-0.34375-0.09863-0.42773l-0.6377-0.37891l-0.32031,0.53711L91.05469,284.25z"/>
		</g>
		<g>
			<path fill="#1D1D1B" d="M90.95801,287.67578l3.125-2.99023l0.56348,0.58789l-2.55078,2.43945l1.52441,1.59375l-0.5752,0.55078
				L90.95801,287.67578z"/>
		</g>
		<g>
			<path fill="#1D1D1B" d="M94.5957,292.86914l0.85938-0.90625l-0.62109-1.29297l-1.24707,0.10156l-0.37598-0.7832l4.62109-0.37695
				l0.31836,0.66406l-3.1748,3.38086L94.5957,292.86914z M96.04102,291.33008l0.77441-0.81641l-1.12207,0.09375L96.04102,291.33008z
				"/>
		</g>
		<g>
			<path fill="#1D1D1B" d="M95.33496,296.77539l2.60449-2.22461l-2.81934,0.31641l-0.09082-0.80859l4.29688-0.48242l0.08887,0.7832
				l-2.59863,2.21875l2.8125-0.31641l0.0918,0.80859l-4.29785,0.48242L95.33496,296.77539z"/>
		</g>
		<g>
			<path fill="#1D1D1B" d="M95.22656,299.43164c0.17578-0.23242,0.39258-0.42969,0.64258-0.58203
				c0.25195-0.15625,0.52734-0.25781,0.81934-0.29883c0.2998-0.05273,0.59863-0.04102,0.89941,0.0332
				c1.21094,0.29688,1.95313,1.53125,1.65625,2.74219c-0.08398,0.3418-0.25,0.66406-0.47754,0.92773
				c-0.22168,0.26367-0.51855,0.48047-0.83984,0.61328l-0.14063,0.06641l-0.31152-0.74609l0.13965-0.06055
				c0.4248-0.17773,0.7334-0.53906,0.84473-0.99414c0.19141-0.7793-0.28418-1.57227-1.06348-1.76367
				c-0.78613-0.19336-1.58008,0.28711-1.77148,1.06836c-0.10938,0.44727-0.00391,0.91211,0.28906,1.27148l0.09082,0.11719
				l-0.61426,0.51367l-0.09473-0.125c-0.22754-0.27344-0.38184-0.58789-0.45996-0.93164
				c-0.08008-0.33984-0.07422-0.69531,0.00977-1.03711C94.91699,299.95117,95.04688,299.67383,95.22656,299.43164z"/>
		</g>
		<g>
			<path fill="#1D1D1B" d="M92.51563,305.04883l2.77148-0.07422l-0.15723-0.94141l-1.33008-0.89453l0.4502-0.66992l3.58691,2.41211
				l-0.45117,0.66992l-1.34473-0.9043l0.38281,2.33594l-0.65039,0.9668l-0.35938-2.15234l-3.46387,0.0918L92.51563,305.04883z"/>
		</g>
	</g>
	<g>
		<g>
			<path fill="#1D1D1B" d="M94.94629,319.14453l0.92871-0.83398l-0.51855-1.33789l-1.25098,0.00195l-0.31445-0.81055
				l4.63867-0.00977l0.26563,0.68555l-3.43262,3.12109L94.94629,319.14453z M96.50879,317.72656l0.83594-0.75391l-1.12598,0.00586
				L96.50879,317.72656z"/>
		</g>
		<g>
			<path fill="#1D1D1B" d="M95.36133,323.36328l2.88965-0.04883l-1.55957-1.10156l1.52344-1.14844l-2.88965,0.04492l-0.0127-0.80664
				l4.32227-0.07031l0.01172,0.75977l-1.58984,1.19727l1.62695,1.14648l0.0127,0.76367l-4.32129,0.07031L95.36133,323.36328z"/>
		</g>
		<g>
			<path fill="#1D1D1B" d="M95.16211,324.96094l4.13477,1.26953l-0.4541,1.48242c-0.08691,0.2832-0.28027,0.51563-0.5459,0.6582
				c-0.26367,0.13477-0.56055,0.16992-0.8457,0.08398c-0.58594-0.18164-0.90918-0.80664-0.72852-1.39258l0.2168-0.71094
				l-2.01563-0.61719L95.16211,324.96094z M97.4834,327.29492c-0.0498,0.16211,0.04395,0.33203,0.20703,0.38086
				c0.16309,0.05078,0.34277-0.04102,0.3916-0.19727l0.2168-0.70898l-0.59766-0.18359L97.4834,327.29492z"/>
		</g>
	</g>
	<g>
		<g>
			<path fill="#1D1D1B" d="M73.30273,330.17969l-0.52832,1.12793l0.99609,1.02832l1.14941-0.48633l0.60449,0.62305l-4.26172,1.81152
				l-0.51172-0.52734l1.94336-4.20605L73.30273,330.17969z M72.41797,332.0918l-0.47559,1.01758l1.0332-0.44141L72.41797,332.0918z"
				/>
		</g>
		<g>
			<path fill="#1D1D1B" d="M72.57031,329.28516l-3.91113,1.83984l-0.61816-1.3125c-0.51953-1.10547-0.06445-2.41895,1.01172-2.92578
				c1.07715-0.50586,2.37988-0.01953,2.90039,1.08496L72.57031,329.28516z M71.2334,328.31055
				c-0.33105-0.70313-1.15527-1.01367-1.83691-0.69336c-0.68066,0.32129-0.9668,1.15332-0.63574,1.85645l0.27441,0.58203
				l2.47168-1.16309L71.2334,328.31055z"/>
		</g>
		<g>
			<path fill="#1D1D1B" d="M70.92969,325.58398l-4.29883,0.49121l-0.16602-1.44336
				c-0.13867-1.21484,0.71484-2.31445,1.89844-2.44922c1.18359-0.13574,2.2627,0.74316,2.40137,1.95801L70.92969,325.58398z
				 M69.97363,324.23047c-0.08789-0.77246-0.76953-1.33105-1.51855-1.24512c-0.74902,0.08496-1.28711,0.7832-1.19922,1.55566
				l0.07422,0.64063l2.7168-0.31152L69.97363,324.23047z"/>
		</g>
	</g>
	<g>
		<g>
			<path fill="#1D1D1B" d="M12.18066,304.13281l-3.64258,2.34082l-0.83789-1.30469c-0.16113-0.25-0.21484-0.54883-0.15137-0.8418
				c0.06738-0.29004,0.23145-0.54004,0.48242-0.70117c0.5166-0.33203,1.2041-0.17285,1.53613,0.34375l0.40039,0.62305
				l1.77539-1.14063L12.18066,304.13281z M8.89746,304.40039c-0.09277-0.14453-0.28223-0.18066-0.42578-0.08887
				c-0.14258,0.0918-0.19043,0.28906-0.10156,0.42578l0.40137,0.625l0.52734-0.33887L8.89746,304.40039z"/>
		</g>
		<g>
			<path fill="#1D1D1B" d="M10.5127,301.37891l-4.13086,1.28027l-0.24121-0.77734l3.37109-1.04492l-0.65234-2.10645l0.75977-0.23535
				L10.5127,301.37891z"/>
		</g>
		<g>
			<path fill="#1D1D1B" d="M9.57715,295.10547l-1.17383,0.42578l-0.02051,1.43457l1.16016,0.4668l-0.0127,0.86816l-4.30273-1.72656
				l0.01074-0.73633l4.35156-1.6084L9.57715,295.10547z M7.59668,295.83594l-1.05664,0.38574l1.04492,0.41699L7.59668,295.83594z"/>
		</g>
		<g>
			<path fill="#1D1D1B" d="M10.65137,291.27734l-3.32129,0.83594l2.66699,0.96777l-0.27734,0.76465l-4.06543-1.47461
				l0.26953-0.74219l3.3125-0.83301l-2.66016-0.96484l0.27734-0.76563l4.06543,1.47559L10.65137,291.27734z"/>
		</g>
		<g>
			<path fill="#1D1D1B" d="M11.94141,288.95313c-0.26074,0.12793-0.54297,0.20801-0.83398,0.23242
				c-0.2959,0.02734-0.58789-0.00391-0.86719-0.09766c-0.292-0.08789-0.55372-0.23047-0.79004-0.43066
				c-0.95117-0.80664-1.06445-2.24316-0.25879-3.19336c0.22852-0.26855,0.52148-0.4834,0.84277-0.61816
				c0.31641-0.13672,0.67773-0.19727,1.02539-0.17383l0.15527,0.00488l-0.05371,0.80566l-0.15234-0.00879
				c-0.45996-0.03027-0.89746,0.15723-1.2002,0.51367c-0.51953,0.6123-0.44727,1.53418,0.16406,2.05273
				c0.61719,0.52344,1.54297,0.44727,2.06152-0.16602c0.29883-0.35156,0.41211-0.81445,0.31055-1.26758l-0.0293-0.14453
				l0.77832-0.18457l0.03027,0.15234c0.08008,0.34766,0.07813,0.69824-0.00586,1.04102
				c-0.0791,0.33887-0.24316,0.6543-0.47168,0.92383C12.4502,288.62598,12.21094,288.81348,11.94141,288.95313z"/>
		</g>
		<g>
			<path fill="#1D1D1B" d="M16.875,285.13672l-2.51367-1.1709l-0.27832,0.91113l0.79004,1.39453l-0.70215,0.39746l-2.13184-3.75879
				l0.70215-0.39746l0.7998,1.40918l0.7002-2.26074l1.01465-0.57422l-0.63965,2.08496l3.14063,1.46484L16.875,285.13672z"/>
		</g>
	</g>
	<g>
		<g>
			<path fill="#1D1D1B" d="M9.73047,323.84961l-1.06152,0.6582l0.27246,1.40723l1.23242,0.21973l0.16504,0.85352l-4.56641-0.81152
				l-0.13965-0.72266l3.93066-2.46387L9.73047,323.84961z M7.94141,324.96973l-0.95605,0.59375l1.1084,0.19336L7.94141,324.96973z"
				/>
		</g>
		<g>
			<path fill="#1D1D1B" d="M10.06836,319.625l-2.85254-0.46484l1.33984,1.3623l-1.70313,0.86035l2.85254,0.46582l-0.12988,0.79688
				l-4.2666-0.69727l0.12305-0.74805l1.77637-0.89746l-1.39941-1.41602l0.12305-0.75391l4.2666,0.69531L10.06836,319.625z"/>
		</g>
		<g>
			<path fill="#1D1D1B" d="M10.54785,318.08789l-3.8457-1.98242l0.70996-1.37695c0.13672-0.26465,0.36719-0.45996,0.65332-0.55176
				c0.28418-0.08594,0.58301-0.06934,0.84766,0.06738c0.54492,0.28125,0.75195,0.9541,0.4707,1.50098l-0.33984,0.65918
				l1.87402,0.96582L10.54785,318.08789z M8.67578,315.38086c0.07813-0.15234,0.01563-0.33398-0.13574-0.41309
				c-0.15137-0.07813-0.34473-0.02051-0.41992,0.12598l-0.33984,0.6582l0.55566,0.28711L8.67578,315.38086z"/>
		</g>
	</g>
	<g>
		<g>
			<path fill="#1D1D1B" d="M34.02051,325.625l1.21973-0.26172l0.2168-1.41504l-1.08398-0.62109l0.13281-0.8584l4.01953,2.30078
				l-0.1123,0.72656l-4.52637,0.99316L34.02051,325.625z M36.0791,325.17383l1.09863-0.23633l-0.97656-0.55664L36.0791,325.17383z"
				/>
		</g>
		<g>
			<path fill="#1D1D1B" d="M33.75098,326.74805l3.83105,2.00488l-0.67383,1.28613c-0.56543,1.08203-1.88867,1.51367-2.94238,0.96191
				c-1.05469-0.55176-1.4541-1.88477-0.8877-2.9668L33.75098,326.74805z M33.7832,328.40332
				c-0.36133,0.68945-0.11035,1.53223,0.55664,1.88281c0.66797,0.34766,1.50391,0.07324,1.86328-0.61621l0.29883-0.56934
				l-2.4209-1.26758L33.7832,328.40332z"/>
		</g>
		<g>
			<path fill="#1D1D1B" d="M31.79297,330.29297l2.99023,3.12891l-1.05078,1.00293c-0.88379,0.84375-2.27539,0.8291-3.09863-0.03223
				s-0.77441-2.25195,0.10938-3.09668L31.79297,330.29297z M31.29297,331.87109c-0.5625,0.53809-0.5957,1.41895-0.07422,1.96289
				c0.51953,0.5459,1.40137,0.55273,1.96387,0.01563l0.46582-0.44531l-1.88965-1.97754L31.29297,331.87109z"/>
		</g>
	</g>
	<g>
		<g>
			<path fill="#1D1D1B" d="M41.65918,137.6377l-2.6543-1.14746l0.96777,1.65039l-1.8623,0.41797l2.6543,1.14844l-0.32129,0.74121
				l-3.96875-1.7168l0.30078-0.69629l1.94238-0.4375l-1.01172-1.71484l0.30371-0.70313l3.96973,1.7168L41.65918,137.6377z"/>
		</g>
		<g>
			<path fill="#1D1D1B" d="M40.57422,135.01367c-0.89453-0.875-0.91016-2.30859-0.04004-3.19824
				c0.875-0.89355,2.30957-0.90918,3.20313-0.03516c0.89063,0.87012,0.90137,2.2998,0.02734,3.19434
				C42.89355,135.86523,41.46387,135.88477,40.57422,135.01367z M41.14258,134.43262
				c0.57324,0.56055,1.49219,0.5498,2.04883-0.01855c0.55566-0.56836,0.54688-1.4873-0.02734-2.04785
				c-0.57715-0.56543-1.49609-0.55469-2.05273,0.01465C40.55469,132.94922,40.56543,133.86719,41.14258,134.43262z"/>
		</g>
		<g>
			<path fill="#1D1D1B" d="M48.3252,131.91504l-1.22363-2.62402l-0.37207,1.87891l-1.67383-0.9248l1.22363,2.62402l-0.73242,0.34277
				l-1.83203-3.92578l0.68848-0.32129l1.74707,0.96387l0.38184-1.95801l0.69434-0.32422l1.83301,3.92578L48.3252,131.91504z"/>
		</g>
		<g>
			<path fill="#1D1D1B" d="M49.73633,131.4873l-0.5332-4.29102l2.82422-0.35156l0.09863,0.7832l-2.01855,0.25098l0.07813,0.6328
				l1.75977-0.21875l0.10059,0.80176l-1.75977,0.21875l0.1582,1.27734l1.96582-0.24512l0.09863,0.7959L49.73633,131.4873z"/>
		</g>
		<g>
			<path fill="#1D1D1B" d="M55.84668,131.65332l-1.34277-3.15137l-0.54102,2.78516l-0.79883-0.15527l0.8252-4.24609l0.77441,0.15137
				l1.33984,3.14258l0.53906-2.77832l0.79883,0.15527l-0.8252,4.24609L55.84668,131.65332z"/>
		</g>
		<g>
			<path fill="#1D1D1B" d="M58.05957,132.55078l1.69727-3.09277l-0.93359-0.51172l0.38672-0.7041l2.5791,1.41602l-0.38477,0.7041
				l-0.93359-0.5127l-1.69727,3.09277L58.05957,132.55078z"/>
		</g>
		<g>
			<path fill="#1D1D1B" d="M61.21777,132.54297l1.9209-1.90234l0.56738,0.57422l-1.9209,1.90137
				c-0.3457,0.3418-0.35254,0.90527-0.01465,1.24512c0.3418,0.3457,0.90039,0.33984,1.24512-0.00195l1.92188-1.90039
				l0.57227,0.57813l-1.9209,1.90137c-0.32031,0.31543-0.74609,0.49023-1.19238,0.4873
				c-0.4502-0.00586-0.875-0.18457-1.19141-0.50391C60.55078,134.26172,60.55664,133.19531,61.21777,132.54297z"/>
		</g>
		<g>
			<path fill="#1D1D1B" d="M64.14063,139.38086l2.62402-1.21094l-1.87305-0.37891l0.92969-1.66504l-2.62305,1.20996
				l-0.33789-0.73242l3.92285-1.81055l0.31836,0.68848l-0.96973,1.7373l1.95117,0.39063l0.32031,0.69434l-3.92383,1.80957
				L64.14063,139.38086z"/>
		</g>
	</g>
	<g>
		<g>
			<path fill="#1D1D1B" d="M65.37402,346.37207c0.1123-0.44434,0.34961-0.87109,0.70117-1.2373l0.1084-0.11035l0.58301,0.56055
				l-0.1084,0.11133c-0.25586,0.26758-0.43359,0.57031-0.50879,0.87109v0.00586c-0.02246,0.08984-0.03906,0.17969-0.04297,0.27148
				c-0.00684,0.15137,0.0166,0.29199,0.06738,0.40918c0.05273,0.14941,0.17871,0.32617,0.42773,0.33691
				c0.13281,0.00586,0.23926-0.05469,0.33105-0.19141c0.11035-0.16602,0.17578-0.39355,0.21289-0.55566
				c0.01563-0.07227,0.17188-0.68555,0.34277-0.96289c0.12402-0.18359,0.27637-0.32129,0.45117-0.41797
				c0.18066-0.09473,0.37695-0.13477,0.58887-0.125c0.23145,0.01074,0.45801,0.09375,0.66504,0.24414
				c0.16895,0.14063,0.30566,0.33008,0.39941,0.55371c0.09277,0.22266,0.13672,0.46777,0.125,0.72852
				c-0.00488,0.10449-0.02246,0.21191-0.04004,0.32031c-0.08984,0.39746-0.29102,0.78418-0.59766,1.11621l-0.10254,0.11035
				l-0.60156-0.54395l0.10254-0.11133c0.33984-0.37988,0.42871-0.71582,0.43848-0.93457
				c0.00586-0.13965-0.01855-0.26855-0.0625-0.37891c-0.07031-0.1748-0.21094-0.29004-0.35742-0.29688
				c-0.13281-0.00684-0.21973,0.03809-0.30469,0.15039c-0.08398,0.1123-0.15332,0.28516-0.22559,0.56152
				c-0.00781,0.03516-0.02148,0.08398-0.03711,0.13184c-0.05859,0.25293-0.14746,0.58887-0.29883,0.81934
				c-0.11914,0.20215-0.27734,0.35156-0.45898,0.45313c-0.17969,0.10156-0.38965,0.14746-0.60742,0.13672
				c-0.27344-0.0127-0.5127-0.09668-0.71289-0.25293c-0.16992-0.13477-0.31348-0.3291-0.42383-0.58398
				c-0.09863-0.21777-0.13574-0.45703-0.12207-0.75391C65.31152,346.66797,65.33691,346.52441,65.37402,346.37207z"/>
		</g>
		<g>
			<path fill="#1D1D1B" d="M65.43457,349.88281l4.23145-0.87598l0.31348,1.51465c0.06055,0.29199,0.00391,0.58887-0.16113,0.83984
				c-0.16602,0.24512-0.40918,0.41895-0.7002,0.47949c-0.60059,0.12305-1.18359-0.27051-1.30762-0.86914l-0.15039-0.72559
				l-2.06055,0.42676L65.43457,349.88281z M68.58887,350.80957c0.03418,0.16699,0.19824,0.26953,0.36426,0.23535
				c0.16699-0.03418,0.28125-0.20117,0.24805-0.36133l-0.15039-0.72559l-0.61133,0.12695L68.58887,350.80957z"/>
		</g>
		<g>
			<path fill="#1D1D1B" d="M66.50098,354.01074l3.90625-1.85547l1.22168,2.57227l-0.71289,0.33887l-0.87305-1.83691l-0.5752,0.27344
				l0.75977,1.60156l-0.73047,0.34668l-0.75879-1.60254l-1.16406,0.55273l0.84961,1.78906l-0.72363,0.34375L66.50098,354.01074z"/>
		</g>
		<g>
			<path fill="#1D1D1B" d="M68.60352,357.88379l3.32617-2.76563l1.82227,2.19043l-0.60742,0.50488l-1.30078-1.56445l-0.49121,0.4082
				l1.13477,1.36426l-0.62207,0.51563l-1.13477-1.36328l-0.99023,0.82324l1.2666,1.52344l-0.61621,0.5127L68.60352,357.88379z"/>
		</g>
		<g>
			<path fill="#1D1D1B" d="M71.61328,361.18555l2.43359-3.56836l1.19824,0.81641c1.00781,0.6875,1.28223,2.0498,0.6123,3.03223
				c-0.66895,0.98145-2.03906,1.22363-3.04688,0.53613L71.61328,361.18555z M73.25977,361.3457
				c0.6416,0.4375,1.50781,0.28613,1.93164-0.33496c0.42383-0.62207,0.24805-1.4834-0.39355-1.9209l-0.53125-0.3623
				l-1.53809,2.25684L73.25977,361.3457z"/>
		</g>
		<g>
			<path fill="#1D1D1B" d="M79.90039,362.8916c0.07031-1.24902,1.14063-2.2041,2.38281-2.13477
				c1.25,0.07031,2.20605,1.13867,2.13574,2.3877c-0.07031,1.24316-1.1377,2.19336-2.3877,2.12305
				C80.78809,365.19824,79.83105,364.13477,79.90039,362.8916z M80.71387,362.9375c-0.04492,0.80078,0.56836,1.48633,1.3623,1.53125
				c0.79395,0.04297,1.47852-0.56934,1.52344-1.36914c0.0459-0.80664-0.56641-1.49121-1.36133-1.53613
				C81.44434,361.51855,80.75879,362.13086,80.71387,362.9375z"/>
		</g>
		<g>
			<path fill="#1D1D1B" d="M85.76074,365.06543l-0.97461-4.21484l2.77246-0.6416l0.17871,0.77637l-1.98242,0.45801l0.14258,0.62109
				l1.0957-0.25195l0.18066,0.78125l-1.0957,0.25293l0.4707,2.03613L85.76074,365.06543z"/>
		</g>
		<g>
			<path fill="#1D1D1B" d="M93.31445,361.99121l-2.77734-3.31641l0.62402-0.52344l2.26563,2.70605l1.69141-1.41602l0.51074,0.61035
				L93.31445,361.99121z"/>
		</g>
		<g>
			<path fill="#1D1D1B" d="M96.65723,358.80859l-3.39844-2.67383l0.50195-0.63965l3.39941,2.67285L96.65723,358.80859z"/>
		</g>
		<g>
			<path fill="#1D1D1B" d="M96.16504,356.00781c-1.12793-0.52539-1.61816-1.87207-1.0918-3
				c0.12793-0.27344,0.30859-0.51758,0.5293-0.7168c0.21875-0.19824,0.47266-0.35449,0.75293-0.45215l0.15137-0.05566
				l0.22656,0.76758l-0.13184,0.05176c-0.35254,0.12402-0.63086,0.38965-0.79785,0.74805
				c-0.33789,0.72559-0.02441,1.58789,0.70215,1.92578c0.73145,0.34082,1.59961,0.0293,1.9375-0.69629
				c0.17188-0.36719,0.17969-0.77246,0.03711-1.1543l-0.81348-0.37891l-0.50098,1.07227l-0.73145-0.34082l0.83691-1.79297
				l1.80273,0.84082l0.02051,0.04297c0.34863,0.64453,0.37402,1.40625,0.0752,2.0498
				C98.64453,356.0459,97.29785,356.53613,96.16504,356.00781z"/>
		</g>
		<g>
			<path fill="#1D1D1B" d="M100.67188,348.9541l-2.07715-0.27441l-0.22852,1.73926l2.0752,0.27441L100.33496,351.5l-4.2832-0.56641
				l0.10645-0.80762l1.41895,0.18848l0.23047-1.73926l-1.4209-0.18652l0.10645-0.80762l4.28516,0.56738L100.67188,348.9541z"/>
		</g>
		<g>
			<path fill="#1D1D1B" d="M100.60938,345.67773l-3.49219,0.45215l0.13672,1.05371l-0.79492,0.10254l-0.37695-2.91309
				l0.79492-0.10352l0.13574,1.05371l3.49121-0.45117L100.60938,345.67773z"/>
		</g>
	</g>
	<g>
		<g>
			<path fill="#1D1D1B" d="M41.08105,309.7832l2.01953-2.45313l-0.39355-0.01758l0.04199-0.80664l1.22754,0.05859l0.4873,0.40234
				l-2.75,3.33789L41.08105,309.7832z"/>
		</g>
		<g>
			<path fill="#1D1D1B" d="M44.32031,311.95898l0.42578-4.61914l0.78418,0.38867l-0.30273,3.22461l2.38867-2.18945l0.77734,0.38672
				l-3.41406,3.13672L44.32031,311.95898z"/>
		</g>
		<g>
			<path fill="#1D1D1B" d="M47.42285,313.26563l2.55469-3.85547l0.85254,0.1875l-2.56055,3.85547L47.42285,313.26563z"/>
		</g>
		<g>
			<path fill="#1D1D1B" d="M50.94336,311.85742c-0.05469-1.25,0.91211-2.30664,2.1543-2.36133
				c1.24902-0.05664,2.30664,0.91211,2.3623,2.16016c0.05566,1.24414-0.91113,2.29297-2.16016,2.34961
				C52.05664,314.06055,50.99902,313.09961,50.94336,311.85742z M51.75684,311.82227
				c0.03516,0.79883,0.71191,1.41797,1.50684,1.38281c0.79395-0.03516,1.41309-0.71289,1.37793-1.51367
				c-0.03516-0.80469-0.71289-1.42383-1.50781-1.38867C52.33984,310.33789,51.7207,311.01367,51.75684,311.82227z"/>
		</g>
		<g>
			<path fill="#1D1D1B" d="M58.18066,312.92383c-0.29102-0.01172-0.57617-0.07813-0.84277-0.19531
				c-0.27246-0.11719-0.51367-0.2832-0.71289-0.5c-0.21387-0.21484-0.37598-0.46484-0.48828-0.75391
				c-0.44727-1.16016,0.1377-2.47266,1.29785-2.92188c0.32813-0.12695,0.6875-0.17383,1.0332-0.13672
				c0.34277,0.0293,0.68945,0.14844,0.98242,0.33398l0.13379,0.08008l-0.43262,0.67969l-0.12891-0.08008
				c-0.38867-0.24805-0.86133-0.29297-1.29688-0.12305c-0.74707,0.28906-1.12402,1.13086-0.83496,1.87695
				c0.29004,0.75195,1.1377,1.12695,1.88574,0.83984c0.42871-0.16602,0.74805-0.51758,0.87598-0.96289l0.04395-0.14063
				l0.76953,0.20898l-0.04688,0.14844c-0.09473,0.3418-0.26367,0.64844-0.50098,0.9082
				c-0.23145,0.25781-0.52637,0.45703-0.85449,0.58398C58.78125,312.87891,58.48242,312.92969,58.18066,312.92383z"/>
		</g>
		<g>
			<path fill="#1D1D1B" d="M62.73633,310.70508l-2.10156-2.82227l-0.85156,0.63477l-0.47852-0.64258l2.35449-1.75391
				l0.47949,0.64258l-0.85254,0.63477l2.10352,2.82031L62.73633,310.70508z"/>
		</g>
	</g>
	<g>
		<g>
			<path fill="#1D1D1B" d="M15.22363,363.9082l1.25781-2.60156l-1.68652,0.89648l-0.34082-1.87598l-1.25781,2.60156
				l-0.72656-0.35254l1.88086-3.89063l0.68359,0.33008l0.35352,1.95801l1.75586-0.9375l0.68848,0.33203l-1.88086,3.8916
				L15.22363,363.9082z"/>
		</g>
		<g>
			<path fill="#1D1D1B" d="M20.65234,365.17676l-0.28027-1.21582l-1.41992-0.19434l-0.60254,1.09473l-0.86133-0.11914
				l2.23633-4.05762l0.72754,0.09961l1.06738,4.51074L20.65234,365.17676z M20.16797,363.12402l-0.25391-1.0957l-0.54004,0.98633
				L20.16797,363.12402z"/>
		</g>
		<g>
			<path fill="#1D1D1B" d="M24.10352,365.04785c-0.45801-0.02539-0.9209-0.17969-1.34668-0.45703l-0.12988-0.08691l0.44434-0.6748
				l0.12793,0.08496c0.31152,0.20117,0.64063,0.31934,0.94922,0.33691l0.00684-0.00098
				c0.09277,0.00488,0.18457,0.00391,0.27344-0.00781c0.15137-0.02246,0.28516-0.07129,0.39258-0.1416
				c0.13477-0.08105,0.28418-0.23828,0.25-0.48438c-0.02051-0.13184-0.10059-0.22461-0.25-0.28906
				c-0.18359-0.07813-0.41895-0.09961-0.58594-0.10645c-0.07324-0.00098-0.70508-0.04004-1.00977-0.15625
				c-0.20215-0.08887-0.36719-0.21191-0.49316-0.36523c-0.12793-0.16016-0.20313-0.3457-0.23242-0.55566
				c-0.03223-0.22852,0.00586-0.4668,0.11523-0.69727c0.10742-0.19336,0.26758-0.3623,0.46875-0.49512
				c0.20215-0.13281,0.43457-0.22168,0.69336-0.25781c0.10156-0.01465,0.21094-0.01855,0.32129-0.02246
				c0.40723,0.01563,0.82324,0.13965,1.20605,0.37988l0.12891,0.08008l-0.42285,0.69238l-0.12891-0.08008
				c-0.43457-0.2627-0.78125-0.28809-0.99707-0.25586c-0.13965,0.01953-0.26172,0.06738-0.36328,0.13086
				c-0.15527,0.10254-0.24414,0.26172-0.22363,0.40527c0.01855,0.13281,0.08008,0.20996,0.2041,0.27148
				c0.125,0.0625,0.30859,0.09668,0.59375,0.11816c0.03613,0.00098,0.08594,0.00586,0.13672,0.01172
				c0.25781,0.01172,0.60547,0.03516,0.85938,0.14063c0.21973,0.07813,0.39844,0.20703,0.53125,0.36523
				s0.21582,0.35547,0.24609,0.57227c0.03809,0.26953,0.00098,0.52148-0.11426,0.74512
				c-0.10059,0.19238-0.2666,0.37012-0.49512,0.52441c-0.19531,0.13867-0.42188,0.2207-0.7168,0.2627
				C24.4043,365.05469,24.25781,365.05664,24.10352,365.04785z"/>
		</g>
		<g>
			<path fill="#1D1D1B" d="M28.57324,363.88281c-0.44922,0.09375-0.9375,0.06445-1.41992-0.09082l-0.14746-0.0498l0.25195-0.76855
				l0.14648,0.04883c0.35254,0.11328,0.70215,0.14258,1.00488,0.07813l0.00684-0.00293
				c0.08984-0.01953,0.17773-0.04297,0.26172-0.08008c0.14063-0.05957,0.25684-0.14258,0.34082-0.23828
				c0.11035-0.11426,0.21289-0.30371,0.11621-0.53125c-0.05371-0.12305-0.15527-0.19238-0.31738-0.21582
				c-0.19824-0.02734-0.43066,0.01367-0.59473,0.0498c-0.07031,0.01855-0.69043,0.14551-1.01465,0.11328
				c-0.21875-0.03223-0.41016-0.1084-0.57324-0.22363c-0.16406-0.12109-0.28516-0.28125-0.36816-0.47656
				c-0.0918-0.21094-0.11523-0.45313-0.07227-0.70215c0.05371-0.21582,0.16406-0.4209,0.32422-0.60156
				c0.16016-0.18164,0.3623-0.32813,0.60254-0.43066c0.09473-0.04102,0.2002-0.07324,0.30566-0.10547
				c0.39648-0.09082,0.83008-0.08008,1.26465,0.05273l0.14355,0.04199l-0.22656,0.78027l-0.14551-0.04492
				c-0.49023-0.13965-0.83008-0.07227-1.03223,0.01465c-0.12695,0.05469-0.23242,0.13184-0.31543,0.2207
				c-0.12402,0.13965-0.16602,0.31641-0.10938,0.4502c0.05273,0.12305,0.13086,0.18164,0.26758,0.20898
				c0.13672,0.02832,0.32324,0.01367,0.60449-0.04102c0.03613-0.00879,0.08594-0.0166,0.13379-0.02539
				c0.25391-0.05566,0.5957-0.12305,0.86816-0.08789c0.23242,0.01953,0.4375,0.0957,0.6084,0.21484
				c0.16895,0.11816,0.30176,0.28809,0.3877,0.48828c0.10742,0.25,0.13672,0.50293,0.08496,0.74902
				c-0.04883,0.21289-0.16113,0.42676-0.34277,0.63574c-0.15137,0.18457-0.35059,0.32422-0.62305,0.44043
				C28.86621,363.80957,28.72461,363.85059,28.57324,363.88281z"/>
		</g>
	</g>
	<g>
		<g>
			<g>
				<path fill="#999999" d="M82.58594,166.8291c-0.82813,0-1.60645-0.32227-2.19141-0.9082
					c-1.20898-1.20801-1.20898-3.17578,0-4.38379c0.58496-0.58594,1.36328-0.9082,2.19141-0.9082
					c0.82715,0,1.60645,0.32227,2.19141,0.9082c1.20898,1.20801,1.20898,3.17578,0,4.38379
					C84.19238,166.50684,83.41309,166.8291,82.58594,166.8291z"/>
				<path fill="#252626" d="M82.58569,161.02905c0.72119,0,1.39917,0.28088,1.90918,0.79077
					c1.05273,1.05273,1.05273,2.76563,0,3.81836c-0.51001,0.50989-1.18799,0.79077-1.90918,0.79077
					s-1.39917-0.28088-1.90918-0.79077c-1.05273-1.05273-1.05273-2.76563,0-3.81836
					C81.18652,161.30994,81.8645,161.02905,82.58569,161.02905 M82.58569,160.229c-0.89575,0-1.79138,0.3418-2.47485,1.02515
					c-1.36682,1.36682-1.36682,3.58289,0,4.94971c0.68347,0.68335,1.5791,1.02515,2.47485,1.02515s1.79138-0.3418,2.47485-1.02515
					c1.36682-1.36682,1.36682-3.58289,0-4.94971C84.37708,160.5708,83.48145,160.229,82.58569,160.229L82.58569,160.229z"/>
			</g>
		</g>
	</g>
	<g>
		<g>
			<g>
				<g>
					<polyline fill="none" stroke="#262626" stroke-width="1.65681" stroke-linejoin="round" stroke-miterlimit="10" points="
						10.5898,265.91068 22.50049,254 34.41117,265.91068 					"/>
					
						<ellipse transform="matrix(0.02629 -0.99965 0.99965 0.02629 -232.00322 269.81543)" fill="#E5E5E5" cx="22.50049" cy="254" rx="16.84424" ry="16.84425"/>
					
						<path fill="#E5E5E5" stroke="#262626" stroke-width="1.65681" stroke-linecap="round" stroke-linejoin="round" stroke-miterlimit="10" d="
						M36.65796,263.13013c1.69995-2.63049,2.68677-5.76514,2.68677-9.13013c0-8.64917-6.52185-15.76685-14.91431-16.72559"/>
					
						<path fill="#E5E5E5" stroke="#262626" stroke-width="1.65681" stroke-linecap="round" stroke-linejoin="round" stroke-miterlimit="10" d="
						M20.57153,237.27429C12.17859,238.23267,5.65625,245.35034,5.65625,254c0,3.28491,0.94031,6.35022,2.56641,8.94141"/>
					
						<path fill="#E5E5E5" stroke="#262626" stroke-width="1.65681" stroke-linecap="round" stroke-linejoin="round" stroke-miterlimit="10" d="
						M10.58979,265.91068c3.04821,3.04822,7.25928,4.93356,11.9107,4.93356c4.65141,0,8.86247-1.88535,11.91068-4.93356"/>
				</g>
			</g>
		</g>
	</g>
	<g>
		<g>
			<g>
				<g>
					<polyline fill="none" stroke="#262626" stroke-width="1.65681" stroke-linejoin="round" stroke-miterlimit="10" points="
						70.41449,265.91068 82.32517,253.99998 94.23586,265.91068 					"/>
					<circle fill="#E5E5E5" cx="82.32517" cy="253.99998" r="16.84425"/>
					
						<path fill="#E5E5E5" stroke="#262626" stroke-width="1.65681" stroke-linecap="round" stroke-linejoin="round" stroke-miterlimit="10" d="
						M96.48264,263.1301c1.69995-2.63049,2.68677-5.76514,2.68677-9.13011c0-8.64917-6.52185-15.76685-14.91431-16.72559"/>
					
						<path fill="#E5E5E5" stroke="#262626" stroke-width="1.65681" stroke-linecap="round" stroke-linejoin="round" stroke-miterlimit="10" d="
						M80.39622,237.27428c-8.39294,0.95837-14.91528,8.07605-14.91528,16.72571c0,3.2849,0.94031,6.3502,2.56641,8.94139"/>
					
						<path fill="#E5E5E5" stroke="#262626" stroke-width="1.65681" stroke-linecap="round" stroke-linejoin="round" stroke-miterlimit="10" d="
						M70.41447,265.91064c3.04821,3.04822,7.25928,4.93359,11.9107,4.93359c4.65141,0,8.86248-1.88538,11.91069-4.93356"/>
				</g>
			</g>
		</g>
	</g>
	<g>
		<g>
			<g>
				<g>
					<g>
						<path fill="#262626" d="M93.8252,183.49707L82.5,172.17188l-11.3252,11.3252l-1.17188-1.17188l11.91113-11.91113
							c0.32422-0.32227,0.84766-0.32227,1.17188,0l11.91113,11.91113L93.8252,183.49707z"/>
					</g>
					<g>
						<circle fill="#E5E5E5" cx="82.5" cy="171" r="16.84425"/>
					</g>
					<g>
						<path fill="#E5E5E5" d="M96.65755,180.13022c1.69995-2.63055,2.68671-5.76515,2.68671-9.13022
							c0-9.30283-7.54143-16.84425-16.84425-16.84425S65.65575,161.69717,65.65575,171c0,3.28493,0.94032,6.35023,2.56648,8.94144"
							/>
						<path fill="#262626" d="M96.65625,180.95801c-0.1543,0-0.30957-0.04297-0.44922-0.13281
							c-0.38379-0.24805-0.49414-0.76074-0.24512-1.14551c1.6709-2.58496,2.55469-5.58594,2.55469-8.67969
							c0-8.83105-7.18555-16.0166-16.0166-16.0166S66.4834,162.16895,66.4834,171c0,3.01855,0.84375,5.95801,2.44043,8.50098
							c0.24414,0.3877,0.12695,0.89844-0.26074,1.1416c-0.3877,0.24219-0.89941,0.12695-1.1416-0.26074
							c-1.7627-2.80664-2.69434-6.05078-2.69434-9.38184c0-9.74512,7.92773-17.67285,17.67285-17.67285
							S100.17285,161.25488,100.17285,171c0,3.41309-0.97461,6.72559-2.82031,9.58008
							C97.19434,180.8252,96.92773,180.95801,96.65625,180.95801z"/>
					</g>
					<g>
						<path fill="#E5E5E5" d="M70.58929,182.91068c3.04822,3.04822,7.25928,4.93358,11.91071,4.93358
							c4.65141,0,8.86247-1.88536,11.91068-4.93356"/>
						<path fill="#262626" d="M82.5,188.67285c-4.71973,0-9.1582-1.83789-12.49707-5.17578
							c-0.32324-0.32324-0.32324-0.84766,0-1.17188c0.32422-0.32227,0.84766-0.32422,1.17188,0
							c3.02539,3.02539,7.04785,4.69141,11.3252,4.69141s8.2998-1.66602,11.3252-4.69141c0.32422-0.32227,0.84766-0.32227,1.17188,0
							c0.32324,0.32422,0.32324,0.84863,0,1.17188C91.6582,186.83496,87.21973,188.67285,82.5,188.67285z"/>
					</g>
				</g>
			</g>
		</g>
	</g>
</g>
</svg>
