<?xml version="1.0" encoding="UTF-8" standalone="no"?>
<!-- Generator: Adobe Illustrator 23.0.3, SVG Export Plug-In . SVG Version: 6.00 Build 0)  -->

<svg
   xmlns:dc="http://purl.org/dc/elements/1.1/"
   xmlns:cc="http://creativecommons.org/ns#"
   xmlns:rdf="http://www.w3.org/1999/02/22-rdf-syntax-ns#"
   xmlns:svg="http://www.w3.org/2000/svg"
   xmlns="http://www.w3.org/2000/svg"
   xmlns:sodipodi="http://sodipodi.sourceforge.net/DTD/sodipodi-0.dtd"
   xmlns:inkscape="http://www.inkscape.org/namespaces/inkscape"
   version="1.0"
   id="Layer_1"
   x="0px"
   y="0px"
   viewBox="0 0 134.4 485.66934"
   enable-background="new 0 0 105 380"
   xml:space="preserve"
   sodipodi:docname="Energy-WL.svg"
   width="35.560001mm"
   height="128.5mm"
   inkscape:version="0.92.3 (2405546, 2018-03-11)"><metadata
   id="metadata753"><rdf:RDF><cc:Work
       rdf:about=""><dc:format>image/svg+xml</dc:format><dc:type
         rdf:resource="http://purl.org/dc/dcmitype/StillImage" /><dc:title></dc:title></cc:Work></rdf:RDF></metadata><defs
   id="defs751" /><sodipodi:namedview
   pagecolor="#ffffff"
   bordercolor="#666666"
   borderopacity="1"
   objecttolerance="10"
   gridtolerance="10"
   guidetolerance="10"
   inkscape:pageopacity="0"
   inkscape:pageshadow="2"
   inkscape:window-width="1920"
   inkscape:window-height="1017"
   id="namedview749"
   showgrid="false"
   inkscape:document-units="mm"
   units="mm"
   fit-margin-top="0"
   fit-margin-left="0"
   fit-margin-right="0"
   fit-margin-bottom="0"
   inkscape:zoom="0.62105263"
   inkscape:cx="52.5"
   inkscape:cy="190.00001"
   inkscape:window-x="-8"
   inkscape:window-y="-8"
   inkscape:window-maximized="1"
   inkscape:current-layer="Layer_1" />
<g
   id="bg"
   transform="matrix(1.2799885,0,0,1.2799885,6.0813776e-4,-0.36316285)">
	<g
   id="g4">
		<rect
   width="105"
   height="380"
   id="rect2"
   x="0"
   y="0"
   style="fill:#e5e5e5" />
	</g>
	<g
   id="g18">
		<g
   id="g16">
			<g
   id="g14">
				<g
   id="g10">
					<circle
   cx="97.00985"
   cy="373.60947"
   r="5.7362599"
   id="circle6"
   style="fill:#bcbcbc" />
					<path
   d="m 97.0098,379.08212 c -3.02102,-0.003 -5.46916,-2.45166 -5.47262,-5.47269 0,0 0,0 0,-3e-5 2e-5,-3.02246 2.45023,-5.47263 5.4727,-5.4726 3.02247,0 5.47264,2.45023 5.47262,5.47269 -2e-5,3.02246 -2.45023,5.47266 -5.4727,5.47263 m 6,-5.47265 c 0,-3.31372 -2.68629,-6 -6,-6 -3.31371,0 -6,2.68628 -6,6 0,3.31369 2.68629,6 6,6 3.31365,-1.9e-4 5.99984,-2.68637 6,-6 z"
   id="path8"
   inkscape:connector-curvature="0"
   style="fill:#808080" />
				</g>
				<polygon
   points="100.50481,374.26846 97.66881,374.26846 97.66881,377.10446 96.35081,377.10446 96.35081,374.26846 93.51581,374.26846 93.51581,372.95047 96.35081,372.95047 96.35081,370.11447 97.66881,370.11447 97.66881,372.95047 100.50481,372.95047 "
   id="polygon12"
   style="fill:#6e6e6e" />
			</g>
		</g>
	</g>
	<g
   id="g32">
		<g
   id="g30">
			<g
   id="g28">
				<g
   id="g24">
					<circle
   cx="7.9999199"
   cy="373.60947"
   r="5.7362599"
   id="circle20"
   style="fill:#bcbcbc" />
					<path
   d="m 7.99996,379.08212 c 3.02102,-0.003 5.46916,-2.45166 5.47262,-5.47269 0,0 0,0 0,-3e-5 -2e-5,-3.02246 -2.45023,-5.47263 -5.4727,-5.4726 -3.02247,0 -5.47264,2.45023 -5.47262,5.47269 2e-5,3.02246 2.45023,5.47266 5.4727,5.47263 m -6,-5.47265 c 0,-3.31372 2.68629,-6 6,-6 3.31371,0 6,2.68628 6,6 0,3.31369 -2.68629,6 -6,6 -3.31364,-1.9e-4 -5.99984,-2.68637 -6,-6 z"
   id="path22"
   inkscape:connector-curvature="0"
   style="fill:#808080" />
				</g>
				<polygon
   points="4.50496,374.26846 7.34096,374.26846 7.34096,377.10446 8.65896,377.10446 8.65896,374.26846 11.49396,374.26846 11.49396,372.95047 8.65896,372.95047 8.65896,370.11447 7.34096,370.11447 7.34096,372.95047 4.50496,372.95047 "
   id="polygon26"
   style="fill:#6e6e6e" />
			</g>
		</g>
	</g>
	<g
   id="g46">
		<g
   id="g44">
			<g
   id="g42">
				<g
   id="g38">
					<circle
   cx="97.00985"
   cy="6.3905401"
   r="5.7362599"
   id="circle34"
   style="fill:#bcbcbc" />
					<path
   d="m 97.0098,11.8632 c -3.02102,-0.0035 -5.46916,-2.45164 -5.47262,-5.47267 0,0 0,-10e-6 0,-3e-5 2e-5,-3.02247 2.45023,-5.47264 5.4727,-5.47262 3.02247,2e-5 5.47264,2.45023 5.47262,5.4727 -2e-5,3.02247 -2.45023,5.47264 -5.4727,5.47262 m 6,-5.47266 c 0,-3.31371 -2.68629,-6 -6,-6 -3.31371,0 -6,2.68629 -6,6 0,3.31371 2.68629,6 6,6 3.31365,-1.6e-4 5.99984,-2.68636 6,-6 z"
   id="path36"
   inkscape:connector-curvature="0"
   style="fill:#808080" />
				</g>
				<polygon
   points="100.50481,7.04954 97.66881,7.04954 97.66881,9.88554 96.35081,9.88554 96.35081,7.04954 93.51581,7.04954 93.51581,5.73154 96.35081,5.73154 96.35081,2.89554 97.66881,2.89554 97.66881,5.73154 100.50481,5.73154 "
   id="polygon40"
   style="fill:#6e6e6e" />
			</g>
		</g>
	</g>
	<g
   id="g60">
		<g
   id="g58">
			<g
   id="g56">
				<g
   id="g52">
					<circle
   cx="7.9999199"
   cy="6.3905401"
   r="5.7362599"
   id="circle48"
   style="fill:#bcbcbc" />
					<path
   d="m 7.99996,11.8632 c 3.02102,-0.0035 5.46916,-2.45164 5.47262,-5.47267 0,0 0,-10e-6 0,-3e-5 -2e-5,-3.02247 -2.45023,-5.47264 -5.4727,-5.47262 -3.02247,2e-5 -5.47264,2.45023 -5.47262,5.4727 2e-5,3.02247 2.45023,5.47264 5.4727,5.47262 m -6,-5.47266 c 0,-3.31371 2.68629,-6 6,-6 3.31371,0 6,2.68629 6,6 0,3.31371 -2.68629,6 -6,6 -3.31364,-1.6e-4 -5.99984,-2.68636 -6,-6 z"
   id="path50"
   inkscape:connector-curvature="0"
   style="fill:#808080" />
				</g>
				<polygon
   points="4.50496,7.04954 7.34096,7.04954 7.34096,9.88554 8.65896,9.88554 8.65896,7.04954 11.49396,7.04954 11.49396,5.73154 8.65896,5.73154 8.65896,2.89554 7.34096,2.89554 7.34096,5.73154 4.50496,5.73154 "
   id="polygon54"
   style="fill:#6e6e6e" />
			</g>
		</g>
	</g>
	<g
   id="g68">
		<path
   d="M 58.17183,376.26001 H 47.70557 c -1.77142,0 -3.20745,-1.436 -3.20745,-3.20743 V 346.7211 c 0,-1.77142 1.43602,-3.20746 3.20745,-3.20746 h 10.46627 c 1.77142,0 3.20745,1.43604 3.20745,3.20746 v 26.33148 c -10e-6,1.77143 -1.43603,3.20743 -3.20746,3.20743 z"
   id="path62"
   inkscape:connector-curvature="0"
   style="fill:#252626" />
		<g
   id="g66">
			<path
   d="m 56.78505,364.36642 c -0.11426,0.26349 -0.26582,0.48096 -0.45469,0.65225 -0.1891,0.17126 -0.40402,0.29843 -0.64567,0.38217 -0.24189,0.0835 -0.49434,0.12506 -0.75781,0.12506 -0.44812,0 -0.79723,-0.0657 -1.04757,-0.19754 -0.25034,-0.13187 -0.44601,-0.28555 -0.58632,-0.46127 -0.14969,-0.19333 -0.244,-0.40848 -0.28341,-0.64566 -0.03965,-0.23721 -0.05936,-0.4744 -0.05936,-0.71161 0,-0.33408 0.0068,-0.56448 0.01971,-0.69189 0.01337,-0.12762 0.02839,-0.19989 0.04622,-0.21747 0.03496,-0.0265 0.17995,-0.0394 0.43475,-0.0394 h 3.08382 c 0.08775,0 0.16024,0.007 0.21749,0.0197 0.05678,0.0131 0.10088,0.0481 0.13162,0.10535 0.03073,0.057 0.05044,0.14264 0.05935,0.2569 0.0087,0.11426 0.01338,0.2724 0.01338,0.4744 0,0.36905 -0.05749,0.68555 -0.17151,0.94903 m -5.32349,-12.82165 c 0.01173,-0.0828 0.0474,-0.14825 0.10699,-0.19589 0.05936,-0.0474 0.15414,-0.0772 0.28506,-0.0891 0.13068,-0.0118 0.31485,-0.0179 0.55252,-0.0179 0.92674,0 1.6367,0.25833 2.12986,0.77518 0.49294,0.51688 0.73975,1.20923 0.73975,2.07663 0,0.0821 -0.01713,0.25925 -0.02792,0.38077 -0.06827,-9.5e-4 -0.13655,-0.002 -0.20482,-0.003 -0.18699,-0.004 -0.39017,-0.0143 -0.60954,-0.0305 -0.0488,0.0244 -0.07508,0.0711 -0.0793,0.14008 -0.004,0.0692 0.01408,0.12411 0.05514,0.1647 l 0.21913,0.0244 c 0.1464,0.0162 0.26817,0.0427 0.36577,0.0791 0.0976,0.0366 0.1464,0.0753 0.1464,0.11591 0,0.0406 -0.0244,0.11591 -0.0732,0.22546 -0.04881,0.1098 -0.1138,0.24188 -0.19497,0.39603 -0.08141,0.15463 -0.16892,0.31934 -0.26207,0.49387 -0.09362,0.1748 -0.18113,0.33951 -0.2623,0.49365 -0.18699,0.35779 -0.37773,0.70901 -0.57294,1.05438 -0.19497,0.34558 -0.38595,0.68085 -0.5727,1.0058 -0.23603,-0.42255 -0.46759,-0.86551 -0.69494,-1.32864 -0.22758,-0.46338 -0.45516,-0.92227 -0.68274,-1.37769 -0.01643,-0.0324 -0.04458,-0.0931 -0.08517,-0.18277 -0.04082,-0.0891 -0.08352,-0.18463 -0.1281,-0.28647 -0.04482,-0.10159 -0.08352,-0.19684 -0.1159,-0.28647 -0.03261,-0.0894 -0.04856,-0.15039 -0.04856,-0.18277 0,-0.0488 0.03214,-0.0872 0.09736,-0.11588 0.06499,-0.0284 0.20318,-0.0629 0.41457,-0.10349 l 0.15837,-0.0244 c 0.04059,-0.0406 0.05889,-0.0976 0.0549,-0.17081 -0.0042,-0.073 -0.03473,-0.1178 -0.09127,-0.13397 -0.17315,0.0136 -0.38548,0.0235 -0.63723,0.0293 v -2.58643 c 2e-5,-0.14263 0.0059,-0.25549 0.01785,-0.3388 m 1.00933,9.125 c 0,0.3252 -0.0042,0.58514 -0.0122,0.78012 -0.0082,0.19498 -0.03659,0.34747 -0.0854,0.45703 -0.01736,0.0394 -0.03801,0.0741 -0.0617,0.1044 -4.7e-4,2.4e-4 -0.0012,7e-4 -0.0017,9.5e-4 -0.14194,-0.0272 -0.2616,-0.0587 -0.35826,-0.0945 -0.16048,-0.0594 -0.27615,-0.16635 -0.34747,-0.32074 -0.07132,-0.15436 -0.1159,-0.37115 -0.13372,-0.65057 -0.01784,-0.27896 -0.02675,-0.6506 -0.02675,-1.11374 v -2.53787 l 0.63723,1.24161 c 0.08915,0.17081 0.16024,0.31509 0.21326,0.43286 0.05279,0.11801 0.09127,0.22757 0.11567,0.32916 0.02439,0.10184 0.04058,0.20929 0.0488,0.32309 0.008,0.11377 0.0122,0.25595 0.0122,0.42651 v 0.62173 h -10e-6 z m 5.03092,1.50745 c 0.05278,-0.14642 0.10534,-0.30267 0.15837,-0.46924 0.05279,-0.1666 0.10159,-0.32919 0.1464,-0.48779 0.04457,-0.15836 0.07907,-0.29044 0.1037,-0.39627 -0.02464,-0.0565 -0.07133,-0.0931 -0.1403,-0.10956 -0.06921,-0.0162 -0.12387,-0.008 -0.1647,0.0244 -0.16259,0.31671 -0.31885,0.5769 -0.46923,0.78009 -0.15039,0.20343 -0.28247,0.33737 -0.39603,0.40237 -0.06523,0.0326 -0.1403,0.0608 -0.2257,0.0852 -0.08517,0.0244 -0.18699,0.0427 -0.30477,0.0549 -0.11777,0.0122 -0.25996,0.0225 -0.42653,0.0305 -0.16658,0.008 -0.36788,0.0122 -0.60344,0.0122 -0.26817,0 -0.48965,-0.008 -0.66444,-0.0244 -0.17479,-0.0162 -0.31486,-0.0366 -0.42044,-0.0608 -0.10582,-0.0246 -0.1891,-0.053 -0.24987,-0.0854 -0.061,-0.0324 -0.10793,-0.069 -0.14031,-0.1098 -0.0976,-0.10559 -0.16048,-0.26208 -0.18887,-0.46924 -0.02862,-0.2074 -0.0427,-0.47345 -0.0427,-0.79865 v -0.8045 c 0.0019,-0.11145 0.0052,-0.20999 0.0099,-0.29443 0.008,-0.15018 0.03026,-0.29047 0.06686,-0.42044 0.03659,-0.12997 0.09338,-0.2684 0.1708,-0.41458 0.0183,-0.0349 0.03894,-0.0727 0.06077,-0.11237 0.02933,-9.5e-4 0.05982,-10e-4 0.09385,-10e-4 h 0.70714 c 0.23556,0 0.42865,0.004 0.57904,0.0122 0.15015,0.008 0.27004,0.0242 0.35966,0.0486 0.12177,0.0326 0.20905,0.0896 0.26207,0.17081 0.05279,0.0812 0.09127,0.17877 0.11591,0.29254 l 0.10956,0.47534 c 0.03238,0.0408 0.08728,0.0589 0.16447,0.0549 0.07719,-0.004 0.1281,-0.0263 0.1525,-0.0671 0,-0.13818 -0.0082,-0.31274 -0.0244,-0.52411 -0.01643,-0.2114 -0.0244,-0.42679 -0.0244,-0.64615 0,-0.23557 0.008,-0.46313 0.0244,-0.6825 0.01619,-0.2196 0.0244,-0.40237 0.0244,-0.5488 -0.0244,-0.0403 -0.07531,-0.0629 -0.1525,-0.0671 -0.07719,-0.004 -0.13209,0.0143 -0.16447,0.0549 l -0.09737,0.49997 c -0.03261,0.15436 -0.07132,0.25809 -0.1159,0.31085 -0.04481,0.0528 -0.10369,0.0913 -0.17666,0.11566 -0.0732,0.0244 -0.19943,0.0427 -0.37797,0.0549 -0.17902,0.0122 -0.39839,0.0183 -0.65834,0.0183 h -0.55089 c 0.0042,-0.007 0.008,-0.0131 0.0122,-0.0202 l 0.76791,-1.32864 c 0.15414,-0.26019 0.29445,-0.50186 0.42067,-0.72543 0.12576,-0.22336 0.24987,-0.42068 0.37163,-0.59125 0.12201,-0.17056 0.24776,-0.30875 0.37798,-0.41434 0.02698,-0.0218 0.05466,-0.0415 0.08305,-0.0601 0.08258,0.0328 0.15532,0.0716 0.21796,0.11685 0.10159,0.073 0.18464,0.15836 0.24987,0.25595 0.06499,0.0974 0.11777,0.20718 0.1586,0.32895 0.04036,0.12201 0.08517,0.2562 0.13397,0.40237 0.03238,0.0408 0.0854,0.057 0.1586,0.0488 0.07297,-0.008 0.12176,-0.0324 0.14616,-0.0732 -0.01643,-0.12997 -0.0305,-0.27826 -0.04247,-0.44482 -0.01243,-0.1666 -0.02674,-0.32916 -0.04293,-0.48755 -0.01619,-0.1586 -0.03754,-0.30008 -0.05466,-0.42676 -0.04247,-0.31345 -0.03285,-0.58115 -0.03285,-0.58115 0,-0.61752 -0.17525,-1.15738 -0.44273,-1.60925 -0.26723,-0.45142 -0.60907,-0.8078 -1.02481,-1.06915 -0.41597,-0.26138 -0.90305,-0.44556 -1.46143,-0.55252 -0.55863,-0.10699 -1.21204,-0.16049 -1.96048,-0.16049 -0.74866,0 -1.40536,0.009 -1.96938,0.0268 -0.56449,0.0178 -1.0844,0.0565 -1.55974,0.11588 -0.07109,0.0357 -0.10981,0.10419 -0.11567,0.20483 -0.0061,0.10114 0.02041,0.18137 0.08024,0.24072 l 0.64145,0.0713 c 0.202,0.0239 0.35919,0.0624 0.47252,0.11591 0.11262,0.0532 0.19591,0.15134 0.2494,0.29398 0.05349,0.14264 0.08611,0.33267 0.09807,0.57034 0.01173,0.23767 0.01783,0.54666 0.01783,0.92676 v 6.57681 c 0,0.46313 -0.0061,0.83478 -0.01783,1.11374 -0.01196,0.27942 -0.05349,0.49622 -0.12482,0.65057 -0.07132,0.15439 -0.1783,0.26138 -0.32072,0.32074 -0.14265,0.0596 -0.34489,0.10696 -0.60601,0.14264 l -0.37445,0.0535 c -0.0542,0.0542 -0.07837,0.12833 -0.0732,0.22171 -4.7e-4,0.19073 -0.0026,0.25128 -0.0066,0.46619 -0.0042,0.24612 -0.01549,0.52109 -0.03355,0.82538 0.01806,0.0448 0.06921,0.0716 0.15438,0.0807 0.08493,0.009 0.14546,-0.009 0.18136,-0.0537 l 0.04012,-0.28201 c 0.02699,-0.19684 0.06264,-0.34888 0.10746,-0.45609 0.04482,-0.10745 0.12529,-0.18793 0.24166,-0.24167 0.11613,-0.0537 0.27943,-0.0854 0.48989,-0.0943 0.21022,-0.009 0.48988,-0.0131 0.83899,-0.0131 h 1.69113 c 0.07156,0 0.12764,0.004 0.16799,0.0131 0.04012,0.009 0.06921,0.0338 0.08704,0.0741 0.01783,0.0401 0.02909,0.10278 0.03378,0.18771 0.0042,0.0851 0.0066,0.2034 0.0066,0.35568 0,0.26862 -0.03355,0.46994 -0.10065,0.60413 -0.0671,0.13422 -0.17667,0.25058 -0.32894,0.34912 -0.15226,0.10745 -0.32001,0.21912 -0.50325,0.33551 -0.1837,0.11612 -0.36718,0.23248 -0.55042,0.34888 -0.18347,0.11636 -0.36014,0.22827 -0.53023,0.33572 -0.1701,0.10721 -0.31767,0.20575 -0.44296,0.29514 -0.3402,0.24167 -0.61986,0.46762 -0.839,0.67807 -0.21913,0.21021 -0.39134,0.42276 -0.51663,0.63745 -0.12552,0.21466 -0.21256,0.44061 -0.26183,0.6778 -0.04903,0.23721 -0.07367,0.49881 -0.07367,0.78528 0,0.25949 0.02229,0.45657 0.06686,0.59055 0.02698,0.0359 0.06053,0.0516 0.10088,0.0471 0.04012,-0.005 0.06922,-0.0249 0.08728,-0.0605 0.01759,-0.17902 0.0603,-0.34888 0.1274,-0.50983 0.0671,-0.16116 0.14968,-0.30005 0.24846,-0.4162 0.18793,-0.23273 0.40026,-0.45187 0.63746,-0.65787 0.23696,-0.20575 0.4988,-0.41599 0.78526,-0.63089 0.28624,-0.21466 0.60837,-0.43616 0.9664,-0.66422 0.35779,-0.22827 0.75171,-0.47675 1.1813,-0.74515 0.05372,-0.0359 0.10933,-0.065 0.16775,-0.0872 0.05795,-0.0226 0.10956,-0.0158 0.15438,0.0202 0.0624,0.16986 0.15649,0.35123 0.28177,0.54361 0.12528,0.19238 0.27967,0.37375 0.46313,0.54382 0.18348,0.16986 0.39816,0.31064 0.64426,0.42279 0.24612,0.11169 0.53024,0.16776 0.85237,0.16776 0.4744,0 0.86363,-0.10535 1.16793,-0.31555 0.30406,-0.21024 0.54126,-0.47653 0.71136,-0.79865 0.16986,-0.31323 0.27967,-0.65997 0.32894,-1.04007 0.04903,-0.38055 0.07554,-0.78104 0.07367,-1.20172 -0.0033,-0.77937 0.13701,-1.27534 0.13701,-1.27534"
   id="path64"
   inkscape:connector-curvature="0"
   style="fill:#e6e5e5" />
		</g>
	</g>
</g>
<g
   id="serigraphy"
   transform="matrix(1.2799885,0,0,1.2799885,6.0813776e-4,-0.36316285)">
	<g
   id="g83">
		<g
   id="g73">
			<path
   d="m 1.37012,24.21973 c -0.2207,0 -0.43066,-0.08008 -0.59082,-0.24023 -0.14941,-0.14941 -0.23926,-0.35938 -0.23926,-0.58008 0,-0.10938 0.01953,-0.21973 0.06934,-0.31934 C 0.64942,22.97949 0.70997,22.88965 0.7793,22.80957 1.00977,22.58008 1.37988,22.5 1.68945,22.62988 c 0.10059,0.04004 0.19043,0.09961 0.27051,0.17969 0.06934,0.08008 0.12988,0.16992 0.17969,0.27051 0.04004,0.09961 0.06055,0.20996 0.06055,0.31934 0,0.2207 -0.09082,0.43066 -0.24023,0.58008 -0.08008,0.08008 -0.16992,0.14063 -0.27051,0.18066 -0.09962,0.04004 -0.20997,0.05957 -0.31934,0.05957 z"
   id="path71"
   inkscape:connector-curvature="0"
   style="fill:#252626" />
		</g>
		<g
   id="g77">
			<path
   d="m 5.37988,23.39941 c 0,-0.45996 0.37988,-0.83008 0.83008,-0.83008 v 0 c 0.45996,0 0.83008,0.37012 0.83008,0.83008 v 0 c 0,0.4502 -0.37012,0.82031 -0.83008,0.82031 v 0 c -0.45019,10e-6 -0.83008,-0.37011 -0.83008,-0.82031 z"
   id="path75"
   inkscape:connector-curvature="0"
   style="fill:#252626" />
		</g>
		<g
   id="g81">
			<path
   d="m 11.05957,24.21973 c -0.21973,0 -0.42969,-0.08008 -0.58984,-0.24023 -0.08008,-0.08008 -0.13965,-0.16992 -0.17969,-0.26953 -0.04004,-0.10059 -0.06055,-0.2002 -0.06055,-0.31055 0,-0.21973 0.08984,-0.43945 0.24023,-0.58984 0.08008,-0.08008 0.16992,-0.13965 0.27051,-0.17969 0.19922,-0.08008 0.42969,-0.08008 0.62988,0 0.09961,0.04004 0.18945,0.09961 0.26953,0.17969 0.16016,0.15039 0.24023,0.37012 0.24023,0.58984 0,0.11035 -0.02051,0.20996 -0.06055,0.31055 -0.04004,0.09961 -0.09961,0.18945 -0.17969,0.26953 -0.08008,0.08008 -0.16992,0.14063 -0.26953,0.18066 -0.10057,0.04004 -0.20018,0.05957 -0.31053,0.05957 z"
   id="path79"
   inkscape:connector-curvature="0"
   style="fill:#252626" />
		</g>
	</g>
	<g
   id="g97">
		<g
   id="g87">
			<path
   d="m 91.58008,24.21973 c -0.11035,0 -0.2207,-0.01953 -0.32031,-0.05957 C 91.16016,24.12012 91.06934,24.05957 90.99024,23.9795 90.83984,23.83008 90.75,23.62012 90.75,23.39941 c 0,-0.10938 0.01953,-0.21973 0.05957,-0.31934 0.0498,-0.10059 0.11035,-0.19043 0.18066,-0.27051 0.30957,-0.30957 0.86914,-0.30957 1.16992,0 0.15918,0.15039 0.23926,0.37012 0.23926,0.58984 0,0.2207 -0.08008,0.43066 -0.23926,0.58008 -0.0703,0.08009 -0.16015,0.14064 -0.26074,0.18068 -0.09961,0.04004 -0.20996,0.05957 -0.31933,0.05957 z"
   id="path85"
   inkscape:connector-curvature="0"
   style="fill:#252626" />
		</g>
		<g
   id="g91">
			<path
   d="m 95.58984,23.39941 c 0,-0.45996 0.37012,-0.83008 0.83008,-0.83008 v 0 c 0.45996,0 0.83008,0.37012 0.83008,0.83008 v 0 c 0,0.4502 -0.37012,0.83008 -0.83008,0.83008 v 0 c -0.45996,0 -0.83008,-0.37988 -0.83008,-0.83008 z"
   id="path89"
   inkscape:connector-curvature="0"
   style="fill:#252626" />
		</g>
		<g
   id="g95">
			<path
   d="m 101.25977,24.22949 c -0.11035,0 -0.20996,-0.0293 -0.30957,-0.06934 -0.10059,-0.04004 -0.19043,-0.10059 -0.27051,-0.18066 -0.16016,-0.16016 -0.25,-0.35938 -0.25,-0.58008 0,-0.10938 0.0303,-0.21973 0.0703,-0.31934 0.04,-0.10059 0.0996,-0.19043 0.17969,-0.27051 0.23047,-0.22949 0.59961,-0.2998 0.90039,-0.17969 0.0996,0.04004 0.18945,0.09961 0.26953,0.17969 0.0801,0.08008 0.14063,0.16992 0.17969,0.27051 0.04,0.09961 0.0605,0.20996 0.0605,0.31934 0,0.2207 -0.0801,0.43066 -0.24023,0.58008 -0.0801,0.08008 -0.16992,0.14063 -0.26953,0.18066 -0.1006,0.04005 -0.20997,0.06934 -0.32032,0.06934 z"
   id="path93"
   inkscape:connector-curvature="0"
   style="fill:#252626" />
		</g>
	</g>
	<g
   id="g123">
		<g
   id="g101">
			<path
   d="m 25,7.17578 h 5.3584 v 1.87891 h -3.43555 v 0.67383 h 3.00391 v 1.91113 h -3.00391 v 1.50195 h 3.35742 v 1.90039 H 25 Z"
   id="path99"
   inkscape:connector-curvature="0"
   style="fill:#252626" />
		</g>
		<g
   id="g105">
			<path
   d="m 35.91309,10.83301 v 4.20898 H 33.99024 V 7.17578 h 1.75684 l 2.81641,4.1875 v -4.1875 h 1.92285 v 7.86621 h -1.74512 z"
   id="path103"
   inkscape:connector-curvature="0"
   style="fill:#252626" />
		</g>
		<g
   id="g109">
			<path
   d="m 44.30664,7.17578 h 5.3584 v 1.87891 h -3.43555 v 0.67383 h 3.00391 v 1.91113 h -3.00391 v 1.50195 h 3.35742 v 1.90039 h -5.28027 c 0,0 0,-7.86621 0,-7.86621 z"
   id="path107"
   inkscape:connector-curvature="0"
   style="fill:#252626" />
		</g>
		<g
   id="g113">
			<path
   d="M 60.17969,15.04199 H 57.89258 L 55.28516,11.63965 H 55.1084 v 3.40234 H 53.24121 V 7.17578 H 56.125 c 0.57422,0 1.11523,0.23242 1.51367,0.62988 0.39746,0.40918 0.62988,1.02734 0.62988,1.60254 0,0.75098 -0.36523,1.48047 -0.9502,1.85547 z M 55.1084,9.76172 h 1.0166 c 0.1543,0 0.26465,-0.19922 0.26465,-0.35352 0,-0.15527 -0.11035,-0.35352 -0.26465,-0.35352 h -1.0166 z"
   id="path111"
   inkscape:connector-curvature="0"
   style="fill:#252626" />
		</g>
		<g
   id="g117">
			<path
   d="m 62.09961,11.04297 c 0,-2.26465 1.84473,-4.10938 4.10938,-4.10938 1.10449,0 2.14355,0.43066 2.91602,1.21484 L 69.49024,8.52441 68.12012,9.7168 67.7998,9.4082 C 67.36914,8.98828 66.80566,8.75586 66.20898,8.75586 c -1.25977,0 -2.28711,1.02734 -2.28711,2.28711 0,1.27051 1.02734,2.29785 2.28711,2.29785 0.60742,0 1.16016,-0.23242 1.59082,-0.65234 V 11.7168 H 65.7666 V 9.89355 h 3.85547 v 3.44727 l -0.08789,0.13281 c -0.7959,1.06055 -2.04395,1.68945 -3.3252,1.68945 -2.26464,10e-6 -4.10937,-1.84472 -4.10937,-4.12011 z"
   id="path115"
   inkscape:connector-curvature="0"
   style="fill:#252626" />
		</g>
		<g
   id="g121">
			<path
   d="M 75.11133,11.23047 C 74.30469,10.09277 72.96875,8.25879 72.20606,7.17578 h 2.35352 l 1.5127,2.11035 1.51367,-2.11035 h 2.3418 l -2.89355,4.05469 v 3.81152 h -1.92285 v -3.81152 z"
   id="path119"
   inkscape:connector-curvature="0"
   style="fill:#252626" />
		</g>
	</g>
	<g
   id="g127">
		<path
   d="m 51.22363,226.2959 c -0.19238,0 -0.38379,-0.0732 -0.53027,-0.21973 -5.05957,-5.05957 -11.37793,-8.66211 -18.27148,-10.41699 -0.93262,-0.23633 -1.58398,-1.06641 -1.58398,-2.01855 l -0.002,-35.03613 c 0,-0.41406 0.33594,-0.75 0.75,-0.75 0.41406,0 0.75,0.33594 0.75,0.75 l 0.002,35.03613 c 0,0.26465 0.18652,0.49707 0.45313,0.56543 7.15527,1.82129 13.71289,5.55957 18.96289,10.80957 0.29297,0.29297 0.29297,0.76758 0,1.06055 -0.1465,0.14648 -0.3379,0.21972 -0.53029,0.21972 z"
   id="path125"
   inkscape:connector-curvature="0"
   style="fill:#252626" />
	</g>
	<g
   id="g131">
		<path
   d="m 38.55664,238.96289 c -0.19238,0 -0.38379,-0.0732 -0.53027,-0.21973 -4.125,-4.12402 -9.6084,-6.39551 -15.44043,-6.39551 -2.40625,0 -4.75684,0.37988 -6.98633,1.12988 -0.64355,0.2168 -1.35254,0.10938 -1.90039,-0.2832 -0.54883,-0.39453 -0.86328,-1.00977 -0.86328,-1.6875 v -50.4707 c 0,-0.41406 0.33594,-0.75 0.75,-0.75 0.41406,0 0.75,0.33594 0.75,0.75 v 50.4707 c 0,0.25879 0.15039,0.40527 0.23926,0.46973 0.1582,0.11426 0.35742,0.14453 0.5459,0.0791 2.38477,-0.80176 4.89551,-1.20801 7.46484,-1.20801 6.23242,0 12.09277,2.42773 16.50098,6.83496 0.29297,0.29297 0.29297,0.76758 0,1.06055 -0.14649,0.14649 -0.3379,0.21973 -0.53028,0.21973 z"
   id="path129"
   inkscape:connector-curvature="0"
   style="fill:#252626" />
	</g>
	<g
   id="g135">
		<path
   d="m 66.61523,238.96289 c -0.19238,0 -0.38379,-0.0732 -0.53027,-0.21973 -0.29297,-0.29297 -0.29297,-0.76758 0,-1.06055 4.4082,-4.40723 10.26855,-6.83496 16.50098,-6.83496 2.56836,0 5.0791,0.40625 7.46387,1.20801 0.18652,0.0635 0.38672,0.0342 0.54688,-0.0791 0.08984,-0.0644 0.23926,-0.21094 0.23926,-0.46973 v -50.4707 c 0,-0.41406 0.33594,-0.75 0.75,-0.75 0.41406,0 0.75,0.33594 0.75,0.75 v 50.4707 c 0,0.67773 -0.31445,1.29297 -0.86328,1.6875 -0.54785,0.39258 -1.25781,0.49902 -1.90039,0.2832 -2.23047,-0.75 -4.58105,-1.12988 -6.98633,-1.12988 -5.83203,0 -11.31543,2.27148 -15.44043,6.39551 -0.1465,0.14649 -0.33888,0.21973 -0.53029,0.21973 z"
   id="path133"
   inkscape:connector-curvature="0"
   style="fill:#252626" />
	</g>
	<g
   id="g139">
		<path
   d="m 31.58594,181.77637 c -0.41406,0 -0.75,-0.33594 -0.75,-0.75 V 48.36621 c 0,-1.38477 0.80762,-2.66504 2.05664,-3.26172 L 54.43555,34.80371 c 0.375,-0.17676 0.82129,-0.01953 1,0.35352 0.17871,0.37305 0.02051,0.82129 -0.35352,1 L 33.53906,46.45801 c -0.73047,0.34863 -1.20313,1.09766 -1.20313,1.9082 v 132.66016 c 1e-5,0.41406 -0.33593,0.75 -0.74999,0.75 z"
   id="path137"
   inkscape:connector-curvature="0"
   style="fill:#252626" />
	</g>
	<g
   id="g143">
		<path
   d="m 22.5,172.04102 c -0.41406,0 -0.75,-0.33594 -0.75,-0.75 V 62.59375 c 0,-1.38379 0.80664,-2.66309 2.05469,-3.26172 l 28.3877,-13.58984 c 0.375,-0.17676 0.82324,-0.01953 1.00098,0.35254 0.17871,0.37402 0.02051,0.82227 -0.35254,1.00098 L 24.45313,60.68555 C 23.72168,61.03516 23.25,61.78418 23.25,62.59375 v 108.69727 c 0,0.41406 -0.33594,0.75 -0.75,0.75 z"
   id="path141"
   inkscape:connector-curvature="0"
   style="fill:#252626" />
	</g>
	<g
   id="g147">
		<path
   d="m 13.58594,175.20117 c -0.41406,0 -0.75,-0.33594 -0.75,-0.75 V 75.57813 c 0,-1.38477 0.80664,-2.66504 2.05566,-3.26172 L 46.56152,57.16797 c 0.37207,-0.17676 0.82129,-0.01953 1,0.35352 0.17871,0.37305 0.02051,0.82129 -0.35352,1 L 15.53809,73.66992 c -0.73047,0.34863 -1.20215,1.09766 -1.20215,1.9082 v 98.87305 c 0,0.41406 -0.33594,0.75 -0.75,0.75 z"
   id="path145"
   inkscape:connector-curvature="0"
   style="fill:#252626" />
	</g>
	<g
   id="g151">
		<path
   d="m 73.58105,176.4082 c -0.41406,0 -0.75,-0.33594 -0.75,-0.75 V 94.67871 c 0,-5.375 -4.37305,-9.74707 -9.74805,-9.74707 -5.375,0 -9.74707,4.37207 -9.74707,9.74707 0,0.41406 -0.33594,0.75 -0.75,0.75 -0.41406,0 -0.75,-0.33594 -0.75,-0.75 0,-6.20117 5.0459,-11.24707 11.24707,-11.24707 6.20215,0 11.24805,5.0459 11.24805,11.24707 v 80.97949 c 0,0.41407 -0.33593,0.75 -0.75,0.75 z"
   id="path149"
   inkscape:connector-curvature="0"
   style="fill:#252626" />
	</g>
	<g
   id="g155">
		<path
   d="m 82.58008,171.86426 c -0.41406,0 -0.75,-0.33594 -0.75,-0.75 V 94.67871 c 0,-7.85547 -6.3916,-14.24707 -14.24707,-14.24707 -7.85547,0 -14.24707,6.3916 -14.24707,14.24707 0,0.41406 -0.33594,0.75 -0.75,0.75 -0.41406,0 -0.75,-0.33594 -0.75,-0.75 0,-8.68262 7.06445,-15.74707 15.74707,-15.74707 8.68262,0 15.74707,7.06445 15.74707,15.74707 v 76.43555 c 0,0.41406 -0.33594,0.75 -0.75,0.75 z"
   id="path153"
   inkscape:connector-curvature="0"
   style="fill:#252626" />
	</g>
	<g
   id="g159">
		<path
   d="m 91.5791,177.35449 v 0 c -0.41406,0 -0.75,-0.33594 -0.75,-0.75 l 0.0068,-81.92578 c 0,-10.33887 -8.41113,-18.75 -18.75,-18.75 -10.33887,0 -18.75,8.41113 -18.75,18.75 0,0.41406 -0.33594,0.75 -0.75,0.75 -0.41406,0 -0.75,-0.33594 -0.75,-0.75 0,-11.16602 9.08398,-20.25 20.25,-20.25 11.16602,0 20.25,9.08398 20.25,20.25 l -0.0068,81.92578 c 0,0.41406 -0.33594,0.75 -0.75,0.75 z"
   id="path157"
   inkscape:connector-curvature="0"
   style="fill:#252626" />
	</g>
	<g
   id="g173">
		<g
   id="g163">
			<path
   d="m 74.32324,130.27637 c -5.74316,0 -11.15234,-2.12988 -15.37012,-6.08301 -4.52344,-4.24023 -7.11719,-10.22559 -7.11719,-16.42285 0,-0.41406 0.33594,-0.75 0.75,-0.75 0.41406,0 0.75,0.33594 0.75,0.75 0,5.86914 2.35938,11.3125 6.64355,15.32813 4.28027,4.0127 9.87891,6.00294 15.76074,5.63184 10.99414,-0.71191 19.60547,-10.24512 19.60547,-21.70508 V 77.64746 c 0,-0.80957 -0.47168,-1.55762 -1.20215,-1.90723 L 57.80664,58.52246 c -0.37402,-0.17773 -0.53418,-0.625 -0.35645,-0.99902 0.17676,-0.37402 0.625,-0.53125 0.99902,-0.35645 l 36.33984,17.21875 c 1.25,0.59863 2.05664,1.87891 2.05664,3.26172 v 29.37793 c 0,12.24805 -9.22754,22.43945 -21.00781,23.20117 -0.5078,0.0332 -1.01268,0.0498 -1.51464,0.0498 z"
   id="path161"
   inkscape:connector-curvature="0"
   style="fill:#252626" />
		</g>
		<g
   id="g167">
			<path
   d="m 69.75586,125.30469 c -0.10938,0 -0.21875,-9.8e-4 -0.32813,-0.003 -9.73438,-0.18262 -17.6543,-8.25488 -17.6543,-17.99414 0,-0.41406 0.33594,-0.75 0.75,-0.75 0.41406,0 0.75,0.33594 0.75,0.75 0,8.92773 7.25879,16.32715 16.18164,16.49414 4.35352,0.0889 8.46875,-1.5957 11.65137,-4.71875 3.28027,-3.21875 5.16113,-7.67578 5.16113,-12.22754 V 64.2207 c 0,-0.80957 -0.47168,-1.55859 -1.20215,-1.9082 L 57.80372,49.26073 c -0.37305,-0.17871 -0.53125,-0.62695 -0.35254,-1.00098 0.17871,-0.37305 0.62695,-0.53125 1.00098,-0.35254 l 27.26172,13.05176 c 1.24805,0.59863 2.05371,1.87891 2.05371,3.26172 v 42.63477 c 0,4.95215 -2.04492,9.79883 -5.61035,13.29785 -3.39161,3.32911 -7.78517,5.15138 -12.40138,5.15138 z"
   id="path165"
   inkscape:connector-curvature="0"
   style="fill:#252626" />
		</g>
		<g
   id="g171">
			<path
   d="m 65.29883,120.81738 c -3.56055,0 -6.9082,-1.36719 -9.45313,-3.86523 -2.60645,-2.55957 -4.04199,-5.98047 -4.04199,-9.63281 0,-0.41406 0.33594,-0.75 0.75,-0.75 0.41406,0 0.75,0.33594 0.75,0.75 0,3.24609 1.27637,6.28711 3.59277,8.5625 2.31641,2.27344 5.36816,3.51074 8.62988,3.43359 6.49121,-0.11914 11.77246,-5.68945 11.77246,-12.41797 V 49.4209 c 0,-0.80566 -0.44824,-1.53027 -1.16895,-1.8916 L 52.16016,35.52734 c -0.37012,-0.18555 -0.52051,-0.63672 -0.33496,-1.00684 0.18652,-0.36914 0.63379,-0.51855 1.00684,-0.33496 L 76.80176,46.1875 c 1.23145,0.61719 1.99707,1.85645 1.99707,3.2334 v 57.47656 c 0,7.54004 -5.94141,13.7832 -13.24512,13.91797 -0.08496,9.8e-4 -0.16992,0.002 -0.25488,0.002 z"
   id="path169"
   inkscape:connector-curvature="0"
   style="fill:#252626" />
		</g>
	</g>
	<g
   id="g177">
		<circle
   cx="52.523369"
   cy="47.5"
   r="15"
   id="circle175"
   style="fill:#252626" />
	</g>
	<g
   id="g181">
		<path
   d="m 82.67188,348.28516 c -0.17188,0 -0.34473,-0.0527 -0.49316,-0.16309 -0.36719,-0.27344 -0.44336,-0.79199 -0.1709,-1.15918 L 93.1045,332.0459 c 0.27344,-0.36719 0.79199,-0.44336 1.15918,-0.1709 0.36719,0.27344 0.44336,0.79199 0.1709,1.15918 L 83.3379,347.95117 c -0.1631,0.21875 -0.4131,0.33399 -0.66602,0.33399 z"
   id="path179"
   inkscape:connector-curvature="0"
   style="fill:#252626" />
	</g>
	<g
   id="g185">
		<path
   d="m 22.16504,348.28516 c -0.25293,0 -0.50293,-0.11523 -0.66602,-0.33398 l -11.0957,-14.91699 c -0.27246,-0.36719 -0.19629,-0.88574 0.1709,-1.15918 0.36719,-0.27246 0.88574,-0.19629 1.15918,0.1709 l 11.0957,14.91699 c 0.27246,0.36719 0.19629,0.88574 -0.1709,1.15918 -0.14843,0.11034 -0.32129,0.16308 -0.49316,0.16308 z"
   id="path183"
   inkscape:connector-curvature="0"
   style="fill:#252626" />
	</g>
	<g
   id="g189">
		<path
   d="m 52.58496,293.08105 c -0.14453,0 -0.29199,-0.042 -0.4209,-0.12988 -0.34277,-0.23242 -0.43164,-0.69922 -0.19824,-1.04199 l 27.28223,-40.12109 c 0.23242,-0.3418 0.69727,-0.43262 1.04199,-0.19824 0.34277,0.23242 0.43164,0.69922 0.19824,1.04199 l -27.28223,40.12109 c -0.1455,0.21289 -0.38085,0.32812 -0.62109,0.32812 z"
   id="path187"
   inkscape:connector-curvature="0"
   style="fill:#252626" />
	</g>
	<g
   id="g193">
		<path
   d="m 69.82715,318.25 c -0.41406,0 -0.75,-0.33594 -0.75,-0.75 v -30.11426 c 0,-1.84375 0.54883,-3.625 1.58594,-5.15137 l 12.50977,-18.39746 c 0.23047,-0.34082 0.69824,-0.43359 1.04199,-0.19824 0.34277,0.23242 0.43164,0.69922 0.19824,1.04199 l -12.50977,18.39746 c -0.86719,1.27539 -1.32617,2.76563 -1.32617,4.30762 V 317.5 c 0,0.41406 -0.33594,0.75 -0.75,0.75 z"
   id="path191"
   inkscape:connector-curvature="0"
   style="fill:#252626" />
	</g>
	<g
   id="g197">
		<path
   d="m 83.18262,283.45801 c -0.14453,0 -0.29199,-0.042 -0.4209,-0.12988 -0.34277,-0.23242 -0.43164,-0.69922 -0.19824,-1.04199 l 11.32129,-16.65039 c 0.23145,-0.3418 0.69727,-0.43262 1.04199,-0.19824 0.34277,0.23242 0.43164,0.69922 0.19824,1.04199 l -11.32129,16.65039 c -0.14453,0.21288 -0.38086,0.32812 -0.62109,0.32812 z"
   id="path195"
   inkscape:connector-curvature="0"
   style="fill:#252626" />
	</g>
	<g
   id="g201">
		<path
   d="m 52.1582,292.72656 c -0.24023,0 -0.47559,-0.11523 -0.62109,-0.32813 L 24.25488,252.27734 c -0.2334,-0.34277 -0.14453,-0.80957 0.19824,-1.04199 0.34277,-0.23535 0.80859,-0.14258 1.04199,0.19824 l 27.28223,40.12109 c 0.2334,0.34277 0.14453,0.80957 -0.19824,1.04199 -0.1289,0.0879 -0.27637,0.12989 -0.4209,0.12989 z"
   id="path199"
   inkscape:connector-curvature="0"
   style="fill:#252626" />
	</g>
	<g
   id="g205">
		<path
   d="m 34.98926,318.25 c -0.41406,0 -0.75,-0.33594 -0.75,-0.75 v -30.11426 c 0,-1.54297 -0.45801,-3.03223 -1.3252,-4.30762 L 20.40332,264.68066 c -0.2334,-0.34277 -0.14453,-0.80957 0.19824,-1.04199 0.34277,-0.23535 0.80859,-0.14258 1.04199,0.19824 l 12.51074,18.39746 c 1.03711,1.52539 1.58496,3.30664 1.58496,5.15137 V 317.5 c 1e-5,0.41406 -0.33593,0.75 -0.74999,0.75 z"
   id="path203"
   inkscape:connector-curvature="0"
   style="fill:#252626" />
	</g>
	<g
   id="g209">
		<path
   d="m 21.46875,282.75488 c -0.24023,0 -0.47559,-0.11523 -0.62109,-0.32813 L 10.0752,266.58495 c -0.2334,-0.34277 -0.14453,-0.80957 0.19824,-1.04199 0.34277,-0.23535 0.80859,-0.14258 1.04199,0.19824 l 10.77246,15.8418 c 0.2334,0.34277 0.14453,0.80957 -0.19824,1.04199 -0.12891,0.0879 -0.27637,0.12989 -0.4209,0.12989 z"
   id="path207"
   inkscape:connector-curvature="0"
   style="fill:#252626" />
	</g>
	<g
   id="g213">
		<path
   d="m 52.46875,75.52539 c -0.41406,0 -0.75,-0.33594 -0.75,-0.75 V 48 c 0,-0.41406 0.33594,-0.75 0.75,-0.75 0.41406,0 0.75,0.33594 0.75,0.75 v 26.77539 c 0,0.41406 -0.33594,0.75 -0.75,0.75 z"
   id="path211"
   inkscape:connector-curvature="0"
   style="fill:#252626" />
	</g>
	<g
   id="g225">
		<g
   id="g217">
			<circle
   cx="52.585709"
   cy="70.863113"
   r="6.3000002"
   id="circle215"
   style="fill:#252626" />
		</g>
		<g
   id="g223">
			<g
   id="g221">
				<path
   d="m 50.56836,67.50781 h 4.50781 v 1.58008 h -2.89063 v 0.56641 h 2.52734 v 1.60742 h -2.52734 v 1.26367 h 2.82617 v 1.59863 h -4.44336 c 0,0 0,-6.61621 10e-6,-6.61621 z"
   id="path219"
   inkscape:connector-curvature="0"
   style="fill:#e5e5e5" />
			</g>
		</g>
	</g>
	<g
   id="g229">
		<path
   d="m 52.5,266.66113 c -0.09277,0 -0.18652,-0.0166 -0.27734,-0.0527 L 44.51661,263.543 c -1.07617,-0.42871 -1.64453,-1.61816 -1.29395,-2.70801 0.68652,-2.14258 1.03516,-4.38086 1.03516,-6.65137 0,-5.62598 -2.13965,-10.96387 -6.02539,-15.03027 -0.28613,-0.2998 -0.27539,-0.77441 0.02344,-1.06055 0.29883,-0.28614 0.77344,-0.27539 1.06055,0.0234 4.1543,4.34766 6.44141,10.05371 6.44141,16.06738 0,2.42578 -0.37207,4.81836 -1.10742,7.10938 -0.10938,0.34277 0.0752,0.71777 0.4209,0.85645 l 7.70605,3.06445 c 0.38477,0.15332 0.57227,0.58984 0.41992,0.97461 -0.1172,0.29394 -0.39943,0.47265 -0.69728,0.47265 z"
   id="path227"
   inkscape:connector-curvature="0"
   style="fill:#252626" />
	</g>
	<g
   id="g233">
		<path
   d="m 52.15723,199.0918 c -0.17383,0 -0.34863,-0.0596 -0.49023,-0.18262 l -29.65723,-25.6123 c -0.31348,-0.27051 -0.34766,-0.74414 -0.07715,-1.05762 0.27148,-0.31445 0.74512,-0.34863 1.05762,-0.0771 l 29.65723,25.6123 c 0.31348,0.27051 0.34766,0.74414 0.07715,1.05762 -0.14845,0.17188 -0.35743,0.25977 -0.56739,0.25977 z"
   id="path231"
   inkscape:connector-curvature="0"
   style="fill:#252626" />
	</g>
	<g
   id="g237">
		<path
   d="m 82.5,171.75 c -0.17773,0 -0.35547,-0.0625 -0.49805,-0.18945 L 52.12988,144.9834 c -0.30957,-0.27539 -0.33789,-0.75 -0.0625,-1.05859 0.27637,-0.31152 0.75098,-0.33691 1.05859,-0.0625 l 29.87207,26.57715 c 0.30957,0.27539 0.33789,0.75 0.0625,1.05859 C 82.91211,171.66504 82.70605,171.75 82.5,171.75 Z"
   id="path235"
   inkscape:connector-curvature="0"
   style="fill:#252626" />
	</g>
	<g
   id="g245">
		<path
   d="m 23.33594,181.03613 c 0,-0.41406 -0.33594,-0.75 -0.75,-0.75 -0.41406,0 -0.75,0.33594 -0.75,0.75 v 13.05518 h 1.5 z"
   id="path239"
   inkscape:connector-curvature="0"
   style="fill:#252626" />
		<path
   d="m 83.08301,168.57129 c 0,-0.41406 -0.33594,-0.75 -0.75,-0.75 -0.41406,0 -0.75,0.33594 -0.75,0.75 v 25.52002 h 1.5 z"
   id="path241"
   inkscape:connector-curvature="0"
   style="fill:#252626" />
		<path
   d="m 81.58301,205.39551 c 0,0.92285 -0.35938,1.79102 -1.0127,2.44434 l -29.58789,29.57031 c -0.12793,0.12695 -0.29688,0.19238 -0.48633,0.16895 -0.10352,-0.0127 -0.29492,-0.0635 -0.4209,-0.26758 -1.38477,-2.25195 -3.04883,-4.33496 -4.94531,-6.18945 -5.70996,-5.58203 -13.24023,-8.83594 -21.20508,-9.16113 -0.33008,-0.0137 -0.58887,-0.27051 -0.58887,-0.58594 v -17.68506 h -1.5 V 221.375 c 0,1.12305 0.89063,2.03809 2.02832,2.08398 7.59277,0.31055 14.77344,3.41309 20.2168,8.73535 1.80957,1.76953 3.39648,3.75488 4.7168,5.90234 0.33301,0.54297 0.8877,0.89746 1.52148,0.97168 0.08398,0.01 0.16699,0.0146 0.24902,0.0146 0.55078,0 1.07813,-0.21582 1.47461,-0.6123 l 29.58789,-29.57031 c 0.93652,-0.93652 1.45215,-2.18066 1.45215,-3.50488 v -1.70557 h -1.5 c 0,0 0,1.70557 1e-5,1.70557 z"
   id="path243"
   inkscape:connector-curvature="0"
   style="fill:#252626" />
	</g>
	<g
   id="g249">
		<path
   d="m 57.55273,219.42383 c -0.51953,0 -1.04199,-0.19434 -1.4541,-0.58594 -6.86621,-6.5127 -15.38965,-10.85449 -24.64648,-12.55664 -0.40723,-0.0742 -0.67676,-0.46582 -0.60156,-0.87305 0.07422,-0.40723 0.46191,-0.67871 0.87305,-0.60156 9.54395,1.75391 18.3291,6.22949 25.4082,12.94336 0.23828,0.22656 0.60059,0.22559 0.8252,9.8e-4 l 13.82422,-13.41016 c 0.66699,-0.64746 1.0498,-1.55078 1.0498,-2.47949 v -53.90918 c 0,-0.41406 0.33594,-0.75 0.75,-0.75 0.41406,0 0.75,0.33594 0.75,0.75 v 53.90918 c 0,1.33203 -0.54883,2.62793 -1.50488,3.55566 l -13.81641,13.40234 c -0.40235,0.40235 -0.92774,0.6045 -1.45704,0.6045 z"
   id="path247"
   inkscape:connector-curvature="0"
   style="fill:#252626" />
	</g>
	<g
   id="g261">
		<g
   id="g253">
			<circle
   cx="22.5"
   cy="143.56245"
   r="6.3000002"
   id="circle251"
   style="fill:#252626" />
		</g>
		<g
   id="g259">
			<g
   id="g257">
				<path
   d="m 23.88477,146.79102 v -3.66113 c -0.49414,0.66895 -1.00391,1.35645 -1.38477,1.88672 l -1.375,-1.88672 v 3.66113 h -1.60938 v -6.61621 h 1.43164 l 1.55274,2.13671 1.55078,-2.13672 h 1.43164 v 6.61621 h -1.59765 z"
   id="path255"
   inkscape:connector-curvature="0"
   style="fill:#e5e5e5" />
			</g>
		</g>
	</g>
	<g
   id="g273">
		<g
   id="g265">
			<circle
   cx="82.585716"
   cy="143.56245"
   r="6.3000002"
   id="circle263"
   style="fill:#252626" />
		</g>
		<g
   id="g271">
			<g
   id="g269">
				<path
   d="m 84.26465,144.35645 1.27344,0.93848 c -0.82715,1.10547 -1.80273,1.58887 -2.88086,1.58887 -1.89551,0 -3.44727,-1.55176 -3.44727,-3.44727 0,-1.89551 1.55176,-3.43848 3.44727,-3.43848 1.09668,0 2.09082,0.51074 2.91797,1.61719 l -1.29199,0.94727 c -0.52051,-0.69629 -1.0498,-0.97559 -1.62598,-0.97559 -1.03125,0 -1.84961,0.82715 -1.84961,1.84961 0,1.03125 0.81836,1.84863 1.84961,1.84863 0.57617,0 1.08691,-0.24121 1.60742,-0.92871 z"
   id="path267"
   inkscape:connector-curvature="0"
   style="fill:#e5e5e5" />
			</g>
		</g>
	</g>
	<g
   id="g311">
		<g
   id="g283">
			<g
   id="g277">
				<path
   d="m 47.09961,166.67969 c -0.21973,-0.39941 -0.08008,-0.89941 0.31055,-1.12988 v 0 c 0.39941,-0.21973 0.90918,-0.0801 1.12988,0.32031 v 0 c 0.22949,0.38965 0.08984,0.89941 -0.31055,1.12012 v 0 c -0.12988,0.0791 -0.26953,0.10938 -0.41016,0.10938 v 0 c -0.29003,-10e-6 -0.56933,-0.14942 -0.71972,-0.41993 z m 2.21973,-1.12989 c -0.11914,-0.44043 0.15039,-0.88965 0.59082,-1.00977 v 0.01 c 0.44922,-0.12012 0.89941,0.15039 1.00977,0.58984 v 0 c 0.12012,0.44043 -0.15039,0.90039 -0.58984,1.00977 v 0 0 0 c -0.07031,0.0205 -0.14063,0.0303 -0.20996,0.0303 v 0 c -0.37013,1e-5 -0.70997,-0.24999 -0.80079,-0.62988 z"
   id="path275"
   inkscape:connector-curvature="0"
   style="fill:#ff4257" />
			</g>
			<g
   id="g281">
				<path
   d="m 45.84961,168.59961 c -0.12012,0 -0.21973,-0.0195 -0.32031,-0.0693 -0.09961,-0.04 -0.18945,-0.10059 -0.26953,-0.18066 -0.16016,-0.14941 -0.24023,-0.35938 -0.24023,-0.58008 0,-0.10938 0.02051,-0.21973 0.06055,-0.31934 0.04004,-0.10059 0.09961,-0.19043 0.17969,-0.27051 0.07031,-0.0703 0.16016,-0.13965 0.26953,-0.17969 0.2002,-0.0801 0.43066,-0.0801 0.63086,0 0.09961,0.04 0.18945,0.10938 0.26953,0.17969 0.08008,0.0801 0.13965,0.16992 0.17969,0.27051 0.04004,0.0996 0.06055,0.20996 0.06055,0.31934 0,0.2207 -0.08008,0.43066 -0.24023,0.58008 -0.16018,0.16016 -0.37014,0.25 -0.5801,0.25 z"
   id="path279"
   inkscape:connector-curvature="0"
   style="fill:#ff4257" />
			</g>
		</g>
		<g
   id="g293">
			<g
   id="g287">
				<path
   d="m 54.14941,183.83984 c -0.10938,-0.4502 0.16016,-0.90039 0.60059,-1.00977 v 0 0 0 c 0.43945,-0.11035 0.88965,0.14941 1.00977,0.59961 v 0 c 0.11035,0.44043 -0.16016,0.88965 -0.59961,1 v 0 c -0.07031,0.0205 -0.14063,0.0303 -0.20996,0.0303 v 0 c -0.36036,1e-5 -0.7002,-0.24999 -0.80079,-0.62011 z m 2.37989,-0.73046 c -0.21973,-0.39941 -0.08984,-0.89941 0.31055,-1.11914 v 0 c 0,0 0,0 0,-0.0107 v 0 c 0.40039,-0.21973 0.91016,-0.0801 1.12988,0.32031 v 0 c 0.23047,0.38965 0.08984,0.90039 -0.30957,1.12988 v 0 C 57.5293,183.5 57.38965,183.53028 57.25,183.53028 v 0 c -0.28027,-1e-5 -0.57031,-0.1504 -0.7207,-0.4209 z"
   id="path285"
   inkscape:connector-curvature="0"
   style="fill:#ff4257" />
			</g>
			<g
   id="g291">
				<path
   d="m 59.22949,182.04004 c -0.10938,0 -0.21973,-0.0205 -0.31934,-0.0606 -0.10059,-0.04 -0.19043,-0.10938 -0.26074,-0.17969 -0.08008,-0.0801 -0.13965,-0.16992 -0.17969,-0.26953 -0.04004,-0.10059 -0.07031,-0.21094 -0.07031,-0.32031 0,-0.11035 0.03027,-0.21973 0.07031,-0.32031 0.04004,-0.0996 0.09961,-0.18945 0.17969,-0.25977 0.07031,-0.0801 0.16016,-0.13965 0.26074,-0.17969 0.30957,-0.13086 0.67969,-0.0508 0.90918,0.17969 0.07031,0.0703 0.13086,0.16016 0.18066,0.25977 0.04004,0.10059 0.05957,0.20996 0.05957,0.32031 0,0.10938 -0.01953,0.21973 -0.05957,0.32031 -0.04004,0.0996 -0.10059,0.18945 -0.18066,0.26953 -0.15917,0.1504 -0.35937,0.24024 -0.58984,0.24024 z"
   id="path289"
   inkscape:connector-curvature="0"
   style="fill:#ff4257" />
			</g>
		</g>
		<g
   id="g297">
			<path
   d="m 52.49609,184.67969 c -0.002,0 -0.0049,0 -0.0078,0 -2.7207,-0.0273 -5.27051,-1.11133 -7.17969,-3.05078 -0.29004,-0.2959 -0.28613,-0.77051 0.0088,-1.06055 0.29785,-0.29297 0.77051,-0.28516 1.06152,0.008 1.62793,1.65527 3.80273,2.58008 6.125,2.60352 0.41406,0.004 0.74609,0.34375 0.74219,0.75781 -0.0039,0.41113 -0.33886,0.74219 -0.75,0.74219 z"
   id="path295"
   inkscape:connector-curvature="0"
   style="fill:#252626" />
		</g>
		<g
   id="g301">
			<path
   d="m 52.58008,198.04883 c -0.41406,0 -0.75,-0.33594 -0.75,-0.75 v -13.35156 c 0,-0.41406 0.33594,-0.75 0.75,-0.75 0.41406,0 0.75,0.33594 0.75,0.75 v 13.35156 c 0,0.41406 -0.33594,0.75 -0.75,0.75 z"
   id="path299"
   inkscape:connector-curvature="0"
   style="fill:#252626" />
		</g>
		<g
   id="g305">
			<path
   d="m 52.58008,165.80273 c -0.41406,0 -0.75,-0.33594 -0.75,-0.75 v -13.35156 c 0,-0.41406 0.33594,-0.75 0.75,-0.75 0.41406,0 0.75,0.33594 0.75,0.75 v 13.35156 c 0,0.41407 -0.33594,0.75 -0.75,0.75 z"
   id="path303"
   inkscape:connector-curvature="0"
   style="fill:#252626" />
		</g>
		<g
   id="g309">
			<path
   d="m 59.23242,168.62695 c -0.19434,0 -0.3877,-0.0752 -0.53418,-0.22363 -1.62988,-1.65527 -3.80469,-2.58008 -6.12598,-2.60352 -0.41406,-0.004 -0.74609,-0.34375 -0.74219,-0.75781 0.0039,-0.41113 0.33887,-0.74219 0.75,-0.74219 0.002,0 0.0049,0 0.0078,0 2.71973,0.0273 5.26953,1.11133 7.17871,3.05078 0.29102,0.2959 0.28711,0.77051 -0.0078,1.06055 -0.14648,0.14453 -0.33593,0.21582 -0.52636,0.21582 z"
   id="path307"
   inkscape:connector-curvature="0"
   style="fill:#252626" />
		</g>
	</g>
	<g
   id="g315">
		<path
   d="m 44.48438,161.49707 c -0.2627,0 -0.51758,-0.1377 -0.65527,-0.38281 -0.20215,-0.36133 -0.07422,-0.81836 0.28711,-1.02148 2.48535,-1.39355 5.31348,-2.12988 8.17773,-2.12988 0.41406,0 0.75,0.33594 0.75,0.75 0,0.41406 -0.33594,0.75 -0.75,0.75 -2.6084,0 -5.18164,0.66992 -7.44336,1.93848 -0.11621,0.0644 -0.24219,0.0957 -0.36621,0.0957 z"
   id="path313"
   inkscape:connector-curvature="0"
   style="fill:#252626" />
	</g>
	<g
   id="g385">
		<g
   id="g319">
			<path
   d="m 16.79688,21.08105 h 0.54395 v 1.13477 h 0.01855 c 0.30078,-0.77832 0.95703,-1.23828 1.83008,-1.20117 v 0.5918 C 18.11915,21.54981 17.3877,22.3379 17.3877,23.3418 v 2.58105 h -0.59082 z"
   id="path317"
   inkscape:connector-curvature="0"
   style="fill:#252626" />
		</g>
		<g
   id="g323">
			<path
   d="m 19.7627,19.22266 h 0.5918 v 0.94727 h -0.5918 z m 0,1.85839 h 0.5918 v 4.8418 h -0.5918 z"
   id="path321"
   inkscape:connector-curvature="0"
   style="fill:#252626" />
		</g>
		<g
   id="g327">
			<path
   d="m 21.48145,21.08105 h 0.59082 v 0.83496 h 0.01953 c 0.21582,-0.58203 0.86328,-0.97656 1.54785,-0.97656 1.36035,0 1.77344,0.71387 1.77344,1.86816 v 3.11523 h -0.59082 v -3.02148 c 0,-0.83496 -0.27246,-1.46387 -1.22949,-1.46387 -0.93848,0 -1.50098,0.71289 -1.52051,1.66113 v 2.82422 h -0.59082 c 0,0 0,-4.84179 0,-4.84179 z"
   id="path325"
   inkscape:connector-curvature="0"
   style="fill:#252626" />
		</g>
		<g
   id="g331">
			<path
   d="m 30.62402,25.52832 c -0.0088,1.44531 -0.5625,2.32813 -2.14844,2.32813 -0.9668,0 -1.92383,-0.43164 -2.00879,-1.46484 h 0.5918 c 0.13086,0.71387 0.75977,0.9668 1.41699,0.9668 1.08789,0 1.55762,-0.64746 1.55762,-1.83008 v -0.65625 h -0.01855 c -0.27246,0.59082 -0.84473,0.99414 -1.53906,0.99414 -1.54883,0 -2.18652,-1.10742 -2.18652,-2.48633 0,-1.33301 0.78809,-2.44043 2.18652,-2.44043 0.70313,0 1.30371,0.44141 1.53906,0.97656 h 0.01855 v -0.83496 h 0.59082 z M 30.0332,23.44531 c 0,-0.94727 -0.44141,-2.00781 -1.55762,-2.00781 -1.12598,0 -1.5957,1.00391 -1.5957,2.00781 0,0.97559 0.50684,1.92383 1.5957,1.92383 1.02247,0 1.55762,-0.93848 1.55762,-1.92383 z"
   id="path329"
   inkscape:connector-curvature="0"
   style="fill:#252626" />
		</g>
		<g
   id="g335">
			<path
   d="m 31.75293,21.08105 h 0.54395 v 0.81641 h 0.02832 c 0.30957,-0.58203 0.81641,-0.95801 1.58594,-0.95801 0.6377,0 1.20996,0.31055 1.38867,0.94824 0.29102,-0.6377 0.90039,-0.94824 1.53906,-0.94824 1.06055,0 1.60449,0.55371 1.60449,1.69922 v 3.28418 h -0.59082 v -3.25586 c 0,-0.79785 -0.30078,-1.22949 -1.14551,-1.22949 -1.02246,0 -1.31348,0.84473 -1.31348,1.74512 v 2.74023 h -0.59082 v -3.28418 c 0.0088,-0.65723 -0.2627,-1.20117 -1.01367,-1.20117 -1.02344,0 -1.43555,0.76953 -1.44531,1.78223 v 2.70313 h -0.59082 c 0,0 0,-4.84181 0,-4.84181 z"
   id="path333"
   inkscape:connector-curvature="0"
   style="fill:#252626" />
		</g>
		<g
   id="g339">
			<path
   d="m 43.9082,23.50195 c 0,1.38867 -0.80664,2.56152 -2.29004,2.56152 -1.48242,0 -2.28906,-1.17285 -2.28906,-2.56152 0,-1.38867 0.80664,-2.5625 2.28906,-2.5625 1.4834,0 2.29004,1.17383 2.29004,2.5625 z m -3.98828,0 c 0,1.03223 0.56348,2.06445 1.69824,2.06445 1.13574,0 1.69922,-1.03223 1.69922,-2.06445 0,-1.03222 -0.56348,-2.06445 -1.69922,-2.06445 -1.13476,0 -1.69824,1.03223 -1.69824,2.06445 z"
   id="path337"
   inkscape:connector-curvature="0"
   style="fill:#252626" />
		</g>
		<g
   id="g343">
			<path
   d="m 49.05273,25.92285 h -0.54395 v -0.91992 h -0.01855 c -0.25391,0.62891 -1.02344,1.06055 -1.72656,1.06055 -1.47363,0 -2.17773,-1.19141 -2.17773,-2.56152 0,-1.37011 0.7041,-2.5625 2.17773,-2.5625 0.72168,0 1.42578,0.36621 1.67969,1.06055 h 0.01855 v -2.77734 h 0.59082 c 0,0 0,6.70018 0,6.70018 z m -2.28906,-0.35644 c 1.25684,0 1.69824,-1.06055 1.69824,-2.06445 0,-1.0039 -0.44141,-2.06445 -1.69824,-2.06445 -1.12695,0 -1.58594,1.06055 -1.58594,2.06445 0,1.0039 0.45899,2.06445 1.58594,2.06445 z"
   id="path341"
   inkscape:connector-curvature="0"
   style="fill:#252626" />
		</g>
		<g
   id="g347">
			<path
   d="m 57.12695,23.50195 c 0,1.38867 -0.80664,2.56152 -2.29004,2.56152 -1.48242,0 -2.28906,-1.17285 -2.28906,-2.56152 0,-1.38867 0.80664,-2.5625 2.28906,-2.5625 1.4834,0 2.29004,1.17383 2.29004,2.5625 z m -3.98828,0 c 0,1.03223 0.56348,2.06445 1.69824,2.06445 1.13574,0 1.69922,-1.03223 1.69922,-2.06445 0,-1.03222 -0.56348,-2.06445 -1.69922,-2.06445 -1.13476,0 -1.69824,1.03223 -1.69824,2.06445 z"
   id="path345"
   inkscape:connector-curvature="0"
   style="fill:#252626" />
		</g>
		<g
   id="g351">
			<path
   d="m 60.91113,22.49805 c -0.02832,-0.73242 -0.5918,-1.06055 -1.2666,-1.06055 -0.52637,0 -1.14551,0.20605 -1.14551,0.83496 0,0.52539 0.60059,0.71289 1.00391,0.81641 l 0.78906,0.17871 c 0.67578,0.10254 1.37891,0.49707 1.37891,1.3418 0,1.05078 -1.04102,1.4541 -1.94238,1.4541 -1.12598,0 -1.89551,-0.52539 -1.98926,-1.70801 h 0.59082 c 0.04688,0.79785 0.63867,1.21094 1.42676,1.21094 0.55371,0 1.32324,-0.24414 1.32324,-0.91992 0,-0.5625 -0.52539,-0.75098 -1.06055,-0.88184 L 59.25976,23.5957 c -0.76953,-0.20703 -1.35156,-0.46973 -1.35156,-1.29492 0,-0.98535 0.9668,-1.36133 1.82031,-1.36133 0.9668,0 1.73633,0.50684 1.77344,1.55859 0,0 -0.59082,0 -0.59082,10e-6 z"
   id="path349"
   inkscape:connector-curvature="0"
   style="fill:#252626" />
		</g>
		<g
   id="g355">
			<path
   d="M 65.94238,22.60059 C 65.7832,21.87793 65.34179,21.4375 64.57226,21.4375 c -1.13477,0 -1.69824,1.03223 -1.69824,2.06445 0,1.03222 0.56348,2.06445 1.69824,2.06445 0.73242,0 1.33301,-0.57227 1.4082,-1.37988 h 0.59082 c -0.15918,1.16406 -0.91992,1.87695 -1.99902,1.87695 -1.48242,0 -2.28906,-1.17285 -2.28906,-2.56152 0,-1.38867 0.80664,-2.5625 2.28906,-2.5625 1.03223,0 1.83008,0.55371 1.96191,1.66113 h -0.59179 z"
   id="path353"
   inkscape:connector-curvature="0"
   style="fill:#252626" />
		</g>
		<g
   id="g359">
			<path
   d="m 67.40918,19.22266 h 0.5918 v 0.94727 h -0.5918 z m 0,1.85839 h 0.5918 v 4.8418 h -0.5918 z"
   id="path357"
   inkscape:connector-curvature="0"
   style="fill:#252626" />
		</g>
		<g
   id="g363">
			<path
   d="m 69.14648,19.22266 h 0.5918 v 6.7002 h -0.5918 z"
   id="path361"
   inkscape:connector-curvature="0"
   style="fill:#252626" />
		</g>
		<g
   id="g367">
			<path
   d="m 70.88379,19.22266 h 0.5918 v 6.7002 h -0.5918 z"
   id="path365"
   inkscape:connector-curvature="0"
   style="fill:#252626" />
		</g>
		<g
   id="g371">
			<path
   d="m 72.55566,22.56348 c 0.05664,-1.13574 0.85352,-1.62402 1.96094,-1.62402 0.85449,0 1.7832,0.2627 1.7832,1.55859 v 2.57129 c 0,0.22461 0.1123,0.35645 0.34766,0.35645 0.06543,0 0.14063,-0.01953 0.1875,-0.03809 v 0.49805 c -0.13184,0.02734 -0.22559,0.03711 -0.38477,0.03711 -0.60059,0 -0.69434,-0.33789 -0.69434,-0.84473 h -0.01953 c -0.41211,0.62891 -0.83496,0.98535 -1.76367,0.98535 -0.8916,0 -1.62402,-0.44141 -1.62402,-1.41699 0,-1.36035 1.32324,-1.40723 2.59961,-1.55762 0.48828,-0.05664 0.76074,-0.12207 0.76074,-0.65723 0,-0.79688 -0.57324,-0.99414 -1.26758,-0.99414 -0.73145,0 -1.27539,0.33789 -1.29492,1.12598 -2e-5,0 -0.59082,0 -0.59082,0 z m 3.15332,0.71289 h -0.01953 c -0.07422,0.14063 -0.33691,0.1875 -0.49707,0.21582 -1.00391,0.17871 -2.25195,0.16895 -2.25195,1.11719 0,0.59082 0.52539,0.95703 1.0791,0.95703 0.90039,0 1.69824,-0.57227 1.68945,-1.52051 z"
   id="path369"
   inkscape:connector-curvature="0"
   style="fill:#252626" />
		</g>
		<g
   id="g375">
			<path
   d="m 78.42285,21.08105 h 0.98535 v 0.49707 h -0.98535 v 3.26563 c 0,0.38477 0.05664,0.61035 0.47949,0.6377 0.16895,0 0.33789,-0.0088 0.50586,-0.02734 v 0.50586 c -0.17773,0 -0.34668,0.01953 -0.52539,0.01953 -0.78809,0 -1.05957,-0.2627 -1.05078,-1.08887 v -3.3125 H 76.9873 v -0.49707 h 0.84473 v -1.45508 h 0.59082 c -1e-5,0 -1e-5,1.45507 0,1.45507 z"
   id="path373"
   inkscape:connector-curvature="0"
   style="fill:#252626" />
		</g>
		<g
   id="g379">
			<path
   d="m 84.59961,23.50195 c 0,1.38867 -0.80664,2.56152 -2.29004,2.56152 -1.48242,0 -2.28906,-1.17285 -2.28906,-2.56152 0,-1.38867 0.80664,-2.5625 2.28906,-2.5625 1.4834,0 2.29004,1.17383 2.29004,2.5625 z m -3.98828,0 c 0,1.03223 0.56348,2.06445 1.69824,2.06445 1.13574,0 1.69922,-1.03223 1.69922,-2.06445 0,-1.03222 -0.56348,-2.06445 -1.69922,-2.06445 -1.13477,0 -1.69824,1.03223 -1.69824,2.06445 z"
   id="path377"
   inkscape:connector-curvature="0"
   style="fill:#252626" />
		</g>
		<g
   id="g383">
			<path
   d="m 85.48438,21.08105 h 0.54395 v 1.13477 h 0.01855 c 0.30078,-0.77832 0.95703,-1.23828 1.83008,-1.20117 v 0.5918 C 86.80665,21.54981 86.0752,22.3379 86.0752,23.3418 v 2.58105 h -0.59082 z"
   id="path381"
   inkscape:connector-curvature="0"
   style="fill:#252626" />
		</g>
	</g>
	<g
   id="g419">
		<g
   id="g389">
			<path
   d="m 44.50391,108.83398 -1.69531,2.34375 1.82129,-0.58887 0.0068,1.91016 1.69434,-2.34473 0.65527,0.47461 -2.53516,3.50586 -0.61621,-0.44531 -0.0068,-1.99316 -1.89355,0.61816 -0.62012,-0.44922 2.53516,-3.50391 z"
   id="path387"
   inkscape:connector-curvature="0"
   style="fill:#1d1d1b" />
		</g>
		<g
   id="g393">
			<path
   d="m 42.02539,108.72656 -2.23633,1.52441 -0.45508,-0.66992 2.23633,-1.52246 c 0.40234,-0.27441 0.51172,-0.82813 0.24023,-1.22363 -0.27344,-0.40234 -0.82422,-0.49805 -1.22656,-0.22461 l -2.23633,1.52344 -0.45898,-0.67285 2.23633,-1.52344 c 0.37305,-0.25391 0.82422,-0.34766 1.2627,-0.26367 0.44238,0.0869 0.8291,0.34082 1.08203,0.71289 0.52441,0.76758 0.32519,1.81641 -0.44434,2.33984 z"
   id="path391"
   inkscape:connector-curvature="0"
   style="fill:#1d1d1b" />
		</g>
		<g
   id="g397">
			<path
   d="m 41.21289,104.38379 -4.13477,1.26465 -0.23828,-0.77832 3.375,-1.03223 -0.64453,-2.10742 0.75977,-0.23242 z"
   id="path395"
   inkscape:connector-curvature="0"
   style="fill:#1d1d1b" />
		</g>
		<g
   id="g401">
			<path
   d="m 40.33105,100.64844 -3.52051,0.21191 0.0625,1.0625 -0.80078,0.0478 -0.17578,-2.93848 0.80176,-0.04883 0.06348,1.06348 3.52051,-0.21094 z"
   id="path399"
   inkscape:connector-curvature="0"
   style="fill:#1d1d1b" />
		</g>
		<g
   id="g405">
			<path
   d="m 40.38867,97.86035 -4.26172,-0.70605 0.13281,-0.80176 4.2627,0.70605 z"
   id="path403"
   inkscape:connector-curvature="0"
   style="fill:#1d1d1b" />
		</g>
		<g
   id="g409">
			<path
   d="m 40.74023,95.96582 -4.00781,-1.63574 0.58594,-1.43555 c 0.11133,-0.27539 0.32422,-0.49023 0.60156,-0.60742 0.27539,-0.11133 0.57422,-0.12109 0.85059,-0.0078 0.56934,0.2334 0.83398,0.88574 0.60254,1.4541 l -0.28125,0.68652 1.9541,0.79785 z m -2.10546,-2.5332 c 0.06445,-0.1582 -0.01367,-0.33398 -0.17188,-0.39844 -0.15821,-0.06446 -0.3457,0.0098 -0.4082,0.16113 l -0.2793,0.68848 0.5791,0.23633 z"
   id="path407"
   inkscape:connector-curvature="0"
   style="fill:#1d1d1b" />
		</g>
		<g
   id="g413">
			<path
   d="m 42.03809,93.02441 -3.40918,-2.66016 0.5,-0.64063 2.78223,2.1709 1.35547,-1.73926 0.62793,0.49023 z"
   id="path411"
   inkscape:connector-curvature="0"
   style="fill:#1d1d1b" />
		</g>
		<g
   id="g417">
			<path
   d="m 44.77148,89.99512 -1.30273,-1.69629 -2.56934,-0.7832 0.79004,-0.60645 1.60742,0.48828 -0.05664,-1.68066 0.78516,-0.60254 0.09375,2.68555 1.30273,1.69531 z"
   id="path415"
   inkscape:connector-curvature="0"
   style="fill:#1d1d1b" />
		</g>
	</g>
	<g
   id="g435">
		<g
   id="g433">
			<g
   id="g431">
				<g
   id="g429">
					<polyline
   stroke-miterlimit="10"
   points="       10.58931,182.91069 22.5,171 34.41069,182.91069      "
   id="polyline421"
   style="fill:none;stroke:#262626;stroke-width:1.65681005;stroke-linejoin:round;stroke-miterlimit:10" />
					<circle
   cx="22.5"
   cy="171"
   r="16.84425"
   id="circle423"
   style="fill:#e5e5e5" />
					
						<path
   stroke-miterlimit="10"
   d="m 36.65755,180.13022 c 1.69995,-2.63055 2.68671,-5.76515 2.68671,-9.13022 0,-9.30283 -7.54143,-16.84425 -16.84425,-16.84425 -9.30282,0 -16.84426,7.54142 -16.84426,16.84425 0,3.28493 0.94032,6.35023 2.56648,8.94144"
   id="path425"
   inkscape:connector-curvature="0"
   style="fill:#e5e5e5;stroke:#262626;stroke-width:1.65681005;stroke-linecap:round;stroke-linejoin:round;stroke-miterlimit:10" />
					
						<path
   stroke-miterlimit="10"
   d="m 10.5893,182.91068 c 3.04821,3.04822 7.25928,4.93358 11.9107,4.93358 4.65141,0 8.86247,-1.88536 11.91068,-4.93356"
   id="path427"
   inkscape:connector-curvature="0"
   style="fill:#e5e5e5;stroke:#262626;stroke-width:1.65681005;stroke-linecap:round;stroke-linejoin:round;stroke-miterlimit:10" />
				</g>
			</g>
		</g>
	</g>
	<g
   id="g461">
		<g
   id="g439">
			<path
   d="m 88.23633,285.95508 2.21289,-3.7207 1.33301,0.79492 c 0.25586,0.15039 0.43652,0.39258 0.51074,0.68555 0.06934,0.28906 0.0332,0.58594 -0.11914,0.8418 -0.31348,0.52734 -0.99902,0.69336 -1.52637,0.37695 l -0.6377,-0.37695 -1.0791,1.8125 z M 91.05469,284.25 c 0.14648,0.0879 0.33203,0.0352 0.41895,-0.10938 0.08789,-0.14648 0.04199,-0.34375 -0.09863,-0.42773 l -0.6377,-0.37891 -0.32031,0.53711 z"
   id="path437"
   inkscape:connector-curvature="0"
   style="fill:#1d1d1b" />
		</g>
		<g
   id="g443">
			<path
   d="m 90.95801,287.67578 3.125,-2.99023 0.56348,0.58789 -2.55078,2.43945 1.52441,1.59375 -0.5752,0.55078 z"
   id="path441"
   inkscape:connector-curvature="0"
   style="fill:#1d1d1b" />
		</g>
		<g
   id="g447">
			<path
   d="m 94.5957,292.86914 0.85938,-0.90625 -0.62109,-1.29297 -1.24707,0.10156 -0.37598,-0.7832 4.62109,-0.37695 0.31836,0.66406 -3.1748,3.38086 z m 1.44532,-1.53906 0.77441,-0.81641 -1.12207,0.0937 z"
   id="path445"
   inkscape:connector-curvature="0"
   style="fill:#1d1d1b" />
		</g>
		<g
   id="g451">
			<path
   d="m 95.33496,296.77539 2.60449,-2.22461 -2.81934,0.31641 -0.09082,-0.80859 4.29688,-0.48242 0.08887,0.7832 -2.59863,2.21875 2.8125,-0.31641 0.0918,0.80859 -4.29785,0.48242 z"
   id="path449"
   inkscape:connector-curvature="0"
   style="fill:#1d1d1b" />
		</g>
		<g
   id="g455">
			<path
   d="m 95.22656,299.43164 c 0.17578,-0.23242 0.39258,-0.42969 0.64258,-0.58203 0.25195,-0.15625 0.52734,-0.25781 0.81934,-0.29883 0.2998,-0.0527 0.59863,-0.041 0.89941,0.0332 1.21094,0.29688 1.95313,1.53125 1.65625,2.74219 -0.08398,0.3418 -0.25,0.66406 -0.47754,0.92773 -0.22168,0.26367 -0.51855,0.48047 -0.83984,0.61328 l -0.14063,0.0664 -0.31152,-0.74609 0.13965,-0.0605 c 0.4248,-0.17773 0.7334,-0.53906 0.84473,-0.99414 0.19141,-0.7793 -0.28418,-1.57227 -1.06348,-1.76367 -0.78613,-0.19336 -1.58008,0.28711 -1.77148,1.06836 -0.10938,0.44727 -0.0039,0.91211 0.28906,1.27148 l 0.09082,0.11719 -0.61426,0.51367 -0.09473,-0.125 c -0.22754,-0.27344 -0.38184,-0.58789 -0.45996,-0.93164 -0.08008,-0.33984 -0.07422,-0.69531 0.0098,-1.03711 0.07226,-0.29492 0.20215,-0.57226 0.38183,-0.81445 z"
   id="path453"
   inkscape:connector-curvature="0"
   style="fill:#1d1d1b" />
		</g>
		<g
   id="g459">
			<path
   d="m 92.51563,305.04883 2.77148,-0.0742 -0.15723,-0.94141 -1.33008,-0.89453 0.4502,-0.66992 3.58691,2.41211 -0.45117,0.66992 -1.34473,-0.9043 0.38281,2.33594 -0.65039,0.9668 -0.35938,-2.15234 -3.46387,0.0918 z"
   id="path457"
   inkscape:connector-curvature="0"
   style="fill:#1d1d1b" />
		</g>
	</g>
	<g
   id="g475">
		<g
   id="g465">
			<path
   d="m 94.94629,319.14453 0.92871,-0.83398 -0.51855,-1.33789 -1.25098,0.002 -0.31445,-0.81055 4.63867,-0.01 0.26563,0.68555 -3.43262,3.12109 z m 1.5625,-1.41797 0.83594,-0.75391 -1.12598,0.006 z"
   id="path463"
   inkscape:connector-curvature="0"
   style="fill:#1d1d1b" />
		</g>
		<g
   id="g469">
			<path
   d="m 95.36133,323.36328 2.88965,-0.0488 -1.55957,-1.10156 1.52344,-1.14844 -2.88965,0.0449 -0.0127,-0.80664 4.32227,-0.0703 0.01172,0.75977 -1.58984,1.19727 1.62695,1.14648 0.0127,0.76367 -4.32129,0.0703 z"
   id="path467"
   inkscape:connector-curvature="0"
   style="fill:#1d1d1b" />
		</g>
		<g
   id="g473">
			<path
   d="m 95.16211,324.96094 4.13477,1.26953 -0.4541,1.48242 c -0.08691,0.2832 -0.28027,0.51563 -0.5459,0.6582 -0.26367,0.13477 -0.56055,0.16992 -0.8457,0.084 -0.58594,-0.18164 -0.90918,-0.80664 -0.72852,-1.39258 l 0.2168,-0.71094 -2.01563,-0.61719 z m 2.32129,2.33398 c -0.0498,0.16211 0.04395,0.33203 0.20703,0.38086 0.16309,0.0508 0.34277,-0.041 0.3916,-0.19727 l 0.2168,-0.70898 -0.59766,-0.18359 z"
   id="path471"
   inkscape:connector-curvature="0"
   style="fill:#1d1d1b" />
		</g>
	</g>
	<g
   id="g489">
		<g
   id="g479">
			<path
   d="m 73.30273,330.17969 -0.52832,1.12793 0.99609,1.02832 1.14941,-0.48633 0.60449,0.62305 -4.26172,1.81152 -0.51172,-0.52734 1.94336,-4.20605 z m -0.88476,1.91211 -0.47559,1.01758 1.0332,-0.44141 z"
   id="path477"
   inkscape:connector-curvature="0"
   style="fill:#1d1d1b" />
		</g>
		<g
   id="g483">
			<path
   d="m 72.57031,329.28516 -3.91113,1.83984 -0.61816,-1.3125 c -0.51953,-1.10547 -0.06445,-2.41895 1.01172,-2.92578 1.07715,-0.50586 2.37988,-0.0195 2.90039,1.08496 z m -1.33691,-0.97461 c -0.33105,-0.70313 -1.15527,-1.01367 -1.83691,-0.69336 -0.68066,0.32129 -0.9668,1.15332 -0.63574,1.85645 l 0.27441,0.58203 2.47168,-1.16309 z"
   id="path481"
   inkscape:connector-curvature="0"
   style="fill:#1d1d1b" />
		</g>
		<g
   id="g487">
			<path
   d="m 70.92969,325.58398 -4.29883,0.49121 -0.16602,-1.44336 c -0.13867,-1.21484 0.71484,-2.31445 1.89844,-2.44922 1.18359,-0.13574 2.2627,0.74316 2.40137,1.95801 z m -0.95606,-1.35351 c -0.08789,-0.77246 -0.76953,-1.33105 -1.51855,-1.24512 -0.74902,0.085 -1.28711,0.7832 -1.19922,1.55566 l 0.07422,0.64063 2.7168,-0.31152 z"
   id="path485"
   inkscape:connector-curvature="0"
   style="fill:#1d1d1b" />
		</g>
	</g>
	<g
   id="g515">
		<g
   id="g493">
			<path
   d="m 12.18066,304.13281 -3.64258,2.34082 -0.83789,-1.30469 c -0.16113,-0.25 -0.21484,-0.54883 -0.15137,-0.8418 0.06738,-0.29004 0.23145,-0.54004 0.48242,-0.70117 0.5166,-0.33203 1.2041,-0.17285 1.53613,0.34375 l 0.40039,0.62305 1.77539,-1.14063 z m -3.2832,0.26758 c -0.09277,-0.14453 -0.28223,-0.18066 -0.42578,-0.0889 -0.14258,0.0918 -0.19043,0.28906 -0.10156,0.42578 l 0.40137,0.625 0.52734,-0.33887 z"
   id="path491"
   inkscape:connector-curvature="0"
   style="fill:#1d1d1b" />
		</g>
		<g
   id="g497">
			<path
   d="m 10.5127,301.37891 -4.13086,1.28027 -0.24121,-0.77734 3.37109,-1.04492 -0.65234,-2.10645 0.75977,-0.23535 z"
   id="path495"
   inkscape:connector-curvature="0"
   style="fill:#1d1d1b" />
		</g>
		<g
   id="g501">
			<path
   d="m 9.57715,295.10547 -1.17383,0.42578 -0.02051,1.43457 1.16016,0.4668 -0.0127,0.86816 -4.30273,-1.72656 0.01074,-0.73633 4.35156,-1.6084 z m -1.98047,0.73047 -1.05664,0.38574 1.04492,0.41699 z"
   id="path499"
   inkscape:connector-curvature="0"
   style="fill:#1d1d1b" />
		</g>
		<g
   id="g505">
			<path
   d="m 10.65137,291.27734 -3.32129,0.83594 2.66699,0.96777 -0.27734,0.76465 -4.06543,-1.47461 0.26953,-0.74219 3.3125,-0.83301 -2.66016,-0.96484 0.27734,-0.76563 4.06543,1.47559 z"
   id="path503"
   inkscape:connector-curvature="0"
   style="fill:#1d1d1b" />
		</g>
		<g
   id="g509">
			<path
   d="m 11.94141,288.95313 c -0.26074,0.12793 -0.54297,0.20801 -0.83398,0.23242 -0.2959,0.0273 -0.58789,-0.004 -0.86719,-0.0977 -0.292,-0.0879 -0.55372,-0.23047 -0.79004,-0.43066 -0.95117,-0.80664 -1.06445,-2.24316 -0.25879,-3.19336 0.22852,-0.26855 0.52148,-0.4834 0.84277,-0.61816 0.31641,-0.13672 0.67773,-0.19727 1.02539,-0.17383 l 0.15527,0.005 -0.05371,0.80566 -0.15234,-0.009 c -0.45996,-0.0303 -0.89746,0.15723 -1.2002,0.51367 -0.51953,0.6123 -0.44727,1.53418 0.16406,2.05273 0.61719,0.52344 1.54297,0.44727 2.06152,-0.16602 0.29883,-0.35156 0.41211,-0.81445 0.31055,-1.26758 l -0.0293,-0.14453 0.77832,-0.18457 0.03027,0.15234 c 0.08008,0.34766 0.07813,0.69824 -0.0059,1.04102 -0.0791,0.33887 -0.24316,0.6543 -0.47168,0.92383 -0.19627,0.23146 -0.43553,0.41896 -0.70506,0.55861 z"
   id="path507"
   inkscape:connector-curvature="0"
   style="fill:#1d1d1b" />
		</g>
		<g
   id="g513">
			<path
   d="m 16.875,285.13672 -2.51367,-1.1709 -0.27832,0.91113 0.79004,1.39453 -0.70215,0.39746 -2.13184,-3.75879 0.70215,-0.39746 0.7998,1.40918 0.7002,-2.26074 1.01465,-0.57422 -0.63965,2.08496 3.14063,1.46484 z"
   id="path511"
   inkscape:connector-curvature="0"
   style="fill:#1d1d1b" />
		</g>
	</g>
	<g
   id="g529">
		<g
   id="g519">
			<path
   d="m 9.73047,323.84961 -1.06152,0.6582 0.27246,1.40723 1.23242,0.21973 0.16504,0.85352 -4.56641,-0.81152 -0.13965,-0.72266 3.93066,-2.46387 z m -1.78906,1.12012 -0.95605,0.59375 1.1084,0.19336 z"
   id="path517"
   inkscape:connector-curvature="0"
   style="fill:#1d1d1b" />
		</g>
		<g
   id="g523">
			<path
   d="m 10.06836,319.625 -2.85254,-0.46484 1.33984,1.3623 -1.70313,0.86035 2.85254,0.46582 -0.12988,0.79688 -4.2666,-0.69727 0.12305,-0.74805 1.77637,-0.89746 -1.39941,-1.41602 0.12305,-0.75391 4.2666,0.69531 z"
   id="path521"
   inkscape:connector-curvature="0"
   style="fill:#1d1d1b" />
		</g>
		<g
   id="g527">
			<path
   d="m 10.54785,318.08789 -3.8457,-1.98242 0.70996,-1.37695 c 0.13672,-0.26465 0.36719,-0.45996 0.65332,-0.55176 0.28418,-0.0859 0.58301,-0.0693 0.84766,0.0674 0.54492,0.28125 0.75195,0.9541 0.4707,1.50098 l -0.33984,0.65918 1.87402,0.96582 z m -1.87207,-2.70703 c 0.07813,-0.15234 0.01563,-0.33398 -0.13574,-0.41309 -0.15137,-0.0781 -0.34473,-0.0205 -0.41992,0.12598 l -0.33984,0.6582 0.55566,0.28711 z"
   id="path525"
   inkscape:connector-curvature="0"
   style="fill:#1d1d1b" />
		</g>
	</g>
	<g
   id="g543">
		<g
   id="g533">
			<path
   d="m 34.02051,325.625 1.21973,-0.26172 0.2168,-1.41504 -1.08398,-0.62109 0.13281,-0.8584 4.01953,2.30078 -0.1123,0.72656 -4.52637,0.99316 z m 2.05859,-0.45117 1.09863,-0.23633 -0.97656,-0.55664 z"
   id="path531"
   inkscape:connector-curvature="0"
   style="fill:#1d1d1b" />
		</g>
		<g
   id="g537">
			<path
   d="m 33.75098,326.74805 3.83105,2.00488 -0.67383,1.28613 c -0.56543,1.08203 -1.88867,1.51367 -2.94238,0.96191 -1.05469,-0.55176 -1.4541,-1.88477 -0.8877,-2.9668 z m 0.03222,1.65527 c -0.36133,0.68945 -0.11035,1.53223 0.55664,1.88281 0.66797,0.34766 1.50391,0.0732 1.86328,-0.61621 l 0.29883,-0.56934 -2.4209,-1.26758 z"
   id="path535"
   inkscape:connector-curvature="0"
   style="fill:#1d1d1b" />
		</g>
		<g
   id="g541">
			<path
   d="m 31.79297,330.29297 2.99023,3.12891 -1.05078,1.00293 c -0.88379,0.84375 -2.27539,0.8291 -3.09863,-0.0322 -0.82324,-0.86133 -0.77441,-2.25195 0.10938,-3.09668 z m -0.5,1.57812 c -0.5625,0.53809 -0.5957,1.41895 -0.07422,1.96289 0.51953,0.5459 1.40137,0.55273 1.96387,0.0156 l 0.46582,-0.44531 -1.88965,-1.97754 z"
   id="path539"
   inkscape:connector-curvature="0"
   style="fill:#1d1d1b" />
		</g>
	</g>
	<g
   id="g577">
		<g
   id="g547">
			<path
   d="m 41.65918,137.6377 -2.6543,-1.14746 0.96777,1.65039 -1.8623,0.41797 2.6543,1.14844 -0.32129,0.74121 -3.96875,-1.7168 0.30078,-0.69629 1.94238,-0.4375 -1.01172,-1.71484 0.30371,-0.70313 3.96973,1.7168 z"
   id="path545"
   inkscape:connector-curvature="0"
   style="fill:#1d1d1b" />
		</g>
		<g
   id="g551">
			<path
   d="m 40.57422,135.01367 c -0.89453,-0.875 -0.91016,-2.30859 -0.04004,-3.19824 0.875,-0.89355 2.30957,-0.90918 3.20313,-0.0352 0.89063,0.87012 0.90137,2.2998 0.02734,3.19434 -0.8711,0.89062 -2.30078,0.91016 -3.19043,0.0391 z m 0.56836,-0.58105 c 0.57324,0.56055 1.49219,0.5498 2.04883,-0.0185 0.55566,-0.56836 0.54688,-1.4873 -0.02734,-2.04785 -0.57715,-0.56543 -1.49609,-0.55469 -2.05273,0.0146 -0.55665,0.56835 -0.54591,1.48632 0.03124,2.05175 z"
   id="path549"
   inkscape:connector-curvature="0"
   style="fill:#1d1d1b" />
		</g>
		<g
   id="g555">
			<path
   d="m 48.3252,131.91504 -1.22363,-2.62402 -0.37207,1.87891 -1.67383,-0.9248 1.22363,2.62402 -0.73242,0.34277 -1.83203,-3.92578 0.68848,-0.32129 1.74707,0.96387 0.38184,-1.95801 0.69434,-0.32422 1.83301,3.92578 z"
   id="path553"
   inkscape:connector-curvature="0"
   style="fill:#1d1d1b" />
		</g>
		<g
   id="g559">
			<path
   d="m 49.73633,131.4873 -0.5332,-4.29102 2.82422,-0.35156 0.09863,0.7832 -2.01855,0.25098 0.07813,0.6328 1.75977,-0.21875 0.10059,0.80176 -1.75977,0.21875 0.1582,1.27734 1.96582,-0.24512 0.09863,0.7959 z"
   id="path557"
   inkscape:connector-curvature="0"
   style="fill:#1d1d1b" />
		</g>
		<g
   id="g563">
			<path
   d="m 55.84668,131.65332 -1.34277,-3.15137 -0.54102,2.78516 -0.79883,-0.15527 0.8252,-4.24609 0.77441,0.15137 1.33984,3.14258 0.53906,-2.77832 0.79883,0.15527 -0.8252,4.24609 z"
   id="path561"
   inkscape:connector-curvature="0"
   style="fill:#1d1d1b" />
		</g>
		<g
   id="g567">
			<path
   d="m 58.05957,132.55078 1.69727,-3.09277 -0.93359,-0.51172 0.38672,-0.7041 2.5791,1.41602 -0.38477,0.7041 -0.93359,-0.5127 -1.69727,3.09277 z"
   id="path565"
   inkscape:connector-curvature="0"
   style="fill:#1d1d1b" />
		</g>
		<g
   id="g571">
			<path
   d="m 61.21777,132.54297 1.9209,-1.90234 0.56738,0.57422 -1.9209,1.90137 c -0.3457,0.3418 -0.35254,0.90527 -0.01465,1.24512 0.3418,0.3457 0.90039,0.33984 1.24512,-0.002 l 1.92188,-1.90039 0.57227,0.57813 -1.9209,1.90137 c -0.32031,0.31543 -0.74609,0.49023 -1.19238,0.4873 -0.4502,-0.006 -0.875,-0.18457 -1.19141,-0.50391 -0.6543,-0.66017 -0.64844,-1.72658 0.01269,-2.37892 z"
   id="path569"
   inkscape:connector-curvature="0"
   style="fill:#1d1d1b" />
		</g>
		<g
   id="g575">
			<path
   d="m 64.14063,139.38086 2.62402,-1.21094 -1.87305,-0.37891 0.92969,-1.66504 -2.62305,1.20996 -0.33789,-0.73242 3.92285,-1.81055 0.31836,0.68848 -0.96973,1.7373 1.95117,0.39063 0.32031,0.69434 -3.92383,1.80957 z"
   id="path573"
   inkscape:connector-curvature="0"
   style="fill:#1d1d1b" />
		</g>
	</g>
	<g
   id="g627">
		<g
   id="g581">
			<path
   d="m 65.37402,346.37207 c 0.1123,-0.44434 0.34961,-0.87109 0.70117,-1.2373 l 0.1084,-0.11035 0.58301,0.56055 -0.1084,0.11133 c -0.25586,0.26758 -0.43359,0.57031 -0.50879,0.87109 v 0.006 c -0.02246,0.0898 -0.03906,0.17969 -0.04297,0.27148 -0.0068,0.15137 0.0166,0.29199 0.06738,0.40918 0.05273,0.14941 0.17871,0.32617 0.42773,0.33691 0.13281,0.006 0.23926,-0.0547 0.33105,-0.19141 0.11035,-0.16602 0.17578,-0.39355 0.21289,-0.55566 0.01563,-0.0723 0.17188,-0.68555 0.34277,-0.96289 0.12402,-0.18359 0.27637,-0.32129 0.45117,-0.41797 0.18066,-0.0947 0.37695,-0.13477 0.58887,-0.125 0.23145,0.0107 0.45801,0.0937 0.66504,0.24414 0.16895,0.14063 0.30566,0.33008 0.39941,0.55371 0.09277,0.22266 0.13672,0.46777 0.125,0.72852 -0.0049,0.10449 -0.02246,0.21191 -0.04004,0.32031 -0.08984,0.39746 -0.29102,0.78418 -0.59766,1.11621 l -0.10254,0.11035 -0.60156,-0.54395 0.10254,-0.11133 c 0.33984,-0.37988 0.42871,-0.71582 0.43848,-0.93457 0.0059,-0.13965 -0.01855,-0.26855 -0.0625,-0.37891 -0.07031,-0.1748 -0.21094,-0.29004 -0.35742,-0.29688 -0.13281,-0.007 -0.21973,0.0381 -0.30469,0.15039 -0.08398,0.1123 -0.15332,0.28516 -0.22559,0.56152 -0.0078,0.0352 -0.02148,0.084 -0.03711,0.13184 -0.05859,0.25293 -0.14746,0.58887 -0.29883,0.81934 -0.11914,0.20215 -0.27734,0.35156 -0.45898,0.45313 -0.17969,0.10156 -0.38965,0.14746 -0.60742,0.13672 -0.27344,-0.0127 -0.5127,-0.0967 -0.71289,-0.25293 -0.16992,-0.13477 -0.31348,-0.3291 -0.42383,-0.58398 -0.09863,-0.21777 -0.13574,-0.45703 -0.12207,-0.75391 0.0059,-0.13964 0.03127,-0.2832 0.06838,-0.43554 z"
   id="path579"
   inkscape:connector-curvature="0"
   style="fill:#1d1d1b" />
		</g>
		<g
   id="g585">
			<path
   d="m 65.43457,349.88281 4.23145,-0.87598 0.31348,1.51465 c 0.06055,0.29199 0.0039,0.58887 -0.16113,0.83984 -0.16602,0.24512 -0.40918,0.41895 -0.7002,0.47949 -0.60059,0.12305 -1.18359,-0.27051 -1.30762,-0.86914 l -0.15039,-0.72559 -2.06055,0.42676 z m 3.1543,0.92676 c 0.03418,0.16699 0.19824,0.26953 0.36426,0.23535 0.16699,-0.0342 0.28125,-0.20117 0.24805,-0.36133 l -0.15039,-0.72559 -0.61133,0.12695 z"
   id="path583"
   inkscape:connector-curvature="0"
   style="fill:#1d1d1b" />
		</g>
		<g
   id="g589">
			<path
   d="m 66.50098,354.01074 3.90625,-1.85547 1.22168,2.57227 -0.71289,0.33887 -0.87305,-1.83691 -0.5752,0.27344 0.75977,1.60156 -0.73047,0.34668 -0.75879,-1.60254 -1.16406,0.55273 0.84961,1.78906 -0.72363,0.34375 z"
   id="path587"
   inkscape:connector-curvature="0"
   style="fill:#1d1d1b" />
		</g>
		<g
   id="g593">
			<path
   d="m 68.60352,357.88379 3.32617,-2.76563 1.82227,2.19043 -0.60742,0.50488 -1.30078,-1.56445 -0.49121,0.4082 1.13477,1.36426 -0.62207,0.51563 -1.13477,-1.36328 -0.99023,0.82324 1.2666,1.52344 -0.61621,0.5127 z"
   id="path591"
   inkscape:connector-curvature="0"
   style="fill:#1d1d1b" />
		</g>
		<g
   id="g597">
			<path
   d="m 71.61328,361.18555 2.43359,-3.56836 1.19824,0.81641 c 1.00781,0.6875 1.28223,2.0498 0.6123,3.03223 -0.66895,0.98145 -2.03906,1.22363 -3.04688,0.53613 z m 1.64649,0.16015 c 0.6416,0.4375 1.50781,0.28613 1.93164,-0.33496 0.42383,-0.62207 0.24805,-1.4834 -0.39355,-1.9209 l -0.53125,-0.3623 -1.53809,2.25684 z"
   id="path595"
   inkscape:connector-curvature="0"
   style="fill:#1d1d1b" />
		</g>
		<g
   id="g601">
			<path
   d="m 79.90039,362.8916 c 0.07031,-1.24902 1.14063,-2.2041 2.38281,-2.13477 1.25,0.0703 2.20605,1.13867 2.13574,2.3877 -0.07031,1.24316 -1.1377,2.19336 -2.3877,2.12305 -1.24315,-0.0693 -2.20019,-1.13281 -2.13085,-2.37598 z m 0.81348,0.0459 c -0.04492,0.80078 0.56836,1.48633 1.3623,1.53125 0.79395,0.043 1.47852,-0.56934 1.52344,-1.36914 0.0459,-0.80664 -0.56641,-1.49121 -1.36133,-1.53613 -0.79394,-0.0449 -1.47949,0.56738 -1.52441,1.37402 z"
   id="path599"
   inkscape:connector-curvature="0"
   style="fill:#1d1d1b" />
		</g>
		<g
   id="g605">
			<path
   d="m 85.76074,365.06543 -0.97461,-4.21484 2.77246,-0.6416 0.17871,0.77637 -1.98242,0.45801 0.14258,0.62109 1.0957,-0.25195 0.18066,0.78125 -1.0957,0.25293 0.4707,2.03613 z"
   id="path603"
   inkscape:connector-curvature="0"
   style="fill:#1d1d1b" />
		</g>
		<g
   id="g609">
			<path
   d="m 93.31445,361.99121 -2.77734,-3.31641 0.62402,-0.52344 2.26563,2.70605 1.69141,-1.41602 0.51074,0.61035 z"
   id="path607"
   inkscape:connector-curvature="0"
   style="fill:#1d1d1b" />
		</g>
		<g
   id="g613">
			<path
   d="m 96.65723,358.80859 -3.39844,-2.67383 0.50195,-0.63965 3.39941,2.67285 z"
   id="path611"
   inkscape:connector-curvature="0"
   style="fill:#1d1d1b" />
		</g>
		<g
   id="g617">
			<path
   d="m 96.16504,356.00781 c -1.12793,-0.52539 -1.61816,-1.87207 -1.0918,-3 0.12793,-0.27344 0.30859,-0.51758 0.5293,-0.7168 0.21875,-0.19824 0.47266,-0.35449 0.75293,-0.45215 l 0.15137,-0.0557 0.22656,0.76758 -0.13184,0.0518 c -0.35254,0.12402 -0.63086,0.38965 -0.79785,0.74805 -0.33789,0.72559 -0.02441,1.58789 0.70215,1.92578 0.73145,0.34082 1.59961,0.0293 1.9375,-0.69629 0.17188,-0.36719 0.17969,-0.77246 0.03711,-1.1543 l -0.81348,-0.37891 -0.50098,1.07227 -0.73145,-0.34082 0.83691,-1.79297 1.80273,0.84082 0.02051,0.043 c 0.34863,0.64453 0.37402,1.40625 0.0752,2.0498 -0.52538,1.12696 -1.87206,1.61719 -3.00487,1.08887 z"
   id="path615"
   inkscape:connector-curvature="0"
   style="fill:#1d1d1b" />
		</g>
		<g
   id="g621">
			<path
   d="m 100.67188,348.9541 -2.07715,-0.27441 -0.22852,1.73926 2.0752,0.27441 -0.10645,0.80664 -4.2832,-0.56641 0.10645,-0.80762 1.41895,0.18848 0.23047,-1.73926 -1.4209,-0.18652 0.10645,-0.80762 4.28516,0.56738 z"
   id="path619"
   inkscape:connector-curvature="0"
   style="fill:#1d1d1b" />
		</g>
		<g
   id="g625">
			<path
   d="m 100.60938,345.67773 -3.49219,0.45215 0.13672,1.05371 -0.79492,0.10254 -0.37695,-2.91309 0.79492,-0.10352 0.13574,1.05371 3.49121,-0.45117 z"
   id="path623"
   inkscape:connector-curvature="0"
   style="fill:#1d1d1b" />
		</g>
	</g>
	<g
   id="g653">
		<g
   id="g631">
			<path
   d="m 41.08105,309.7832 2.01953,-2.45313 -0.39355,-0.0176 0.04199,-0.80664 1.22754,0.0586 0.4873,0.40234 -2.75,3.33789 z"
   id="path629"
   inkscape:connector-curvature="0"
   style="fill:#1d1d1b" />
		</g>
		<g
   id="g635">
			<path
   d="m 44.32031,311.95898 0.42578,-4.61914 0.78418,0.38867 -0.30273,3.22461 2.38867,-2.18945 0.77734,0.38672 -3.41406,3.13672 z"
   id="path633"
   inkscape:connector-curvature="0"
   style="fill:#1d1d1b" />
		</g>
		<g
   id="g639">
			<path
   d="m 47.42285,313.26563 2.55469,-3.85547 0.85254,0.1875 -2.56055,3.85547 z"
   id="path637"
   inkscape:connector-curvature="0"
   style="fill:#1d1d1b" />
		</g>
		<g
   id="g643">
			<path
   d="m 50.94336,311.85742 c -0.05469,-1.25 0.91211,-2.30664 2.1543,-2.36133 1.24902,-0.0566 2.30664,0.91211 2.3623,2.16016 0.05566,1.24414 -0.91113,2.29297 -2.16016,2.34961 -1.24316,0.0547 -2.30078,-0.90625 -2.35644,-2.14844 z m 0.81348,-0.0351 c 0.03516,0.79883 0.71191,1.41797 1.50684,1.38281 0.79395,-0.0352 1.41309,-0.71289 1.37793,-1.51367 -0.03516,-0.80469 -0.71289,-1.42383 -1.50781,-1.38867 -0.79396,0.0352 -1.4131,0.71093 -1.37696,1.51953 z"
   id="path641"
   inkscape:connector-curvature="0"
   style="fill:#1d1d1b" />
		</g>
		<g
   id="g647">
			<path
   d="m 58.18066,312.92383 c -0.29102,-0.0117 -0.57617,-0.0781 -0.84277,-0.19531 -0.27246,-0.11719 -0.51367,-0.2832 -0.71289,-0.5 -0.21387,-0.21484 -0.37598,-0.46484 -0.48828,-0.75391 -0.44727,-1.16016 0.1377,-2.47266 1.29785,-2.92188 0.32813,-0.12695 0.6875,-0.17383 1.0332,-0.13672 0.34277,0.0293 0.68945,0.14844 0.98242,0.33398 l 0.13379,0.0801 -0.43262,0.67969 -0.12891,-0.0801 c -0.38867,-0.24805 -0.86133,-0.29297 -1.29688,-0.12305 -0.74707,0.28906 -1.12402,1.13086 -0.83496,1.87695 0.29004,0.75195 1.1377,1.12695 1.88574,0.83984 0.42871,-0.16602 0.74805,-0.51758 0.87598,-0.96289 l 0.04395,-0.14063 0.76953,0.20898 -0.04688,0.14844 c -0.09473,0.3418 -0.26367,0.64844 -0.50098,0.9082 -0.23145,0.25781 -0.52637,0.45703 -0.85449,0.58398 -0.28221,0.10941 -0.58104,0.16019 -0.8828,0.15433 z"
   id="path645"
   inkscape:connector-curvature="0"
   style="fill:#1d1d1b" />
		</g>
		<g
   id="g651">
			<path
   d="m 62.73633,310.70508 -2.10156,-2.82227 -0.85156,0.63477 -0.47852,-0.64258 2.35449,-1.75391 0.47949,0.64258 -0.85254,0.63477 2.10352,2.82031 z"
   id="path649"
   inkscape:connector-curvature="0"
   style="fill:#1d1d1b" />
		</g>
	</g>
	<g
   id="g671">
		<g
   id="g657">
			<path
   d="m 15.22363,363.9082 1.25781,-2.60156 -1.68652,0.89648 -0.34082,-1.87598 -1.25781,2.60156 -0.72656,-0.35254 1.88086,-3.89063 0.68359,0.33008 0.35352,1.95801 1.75586,-0.9375 0.68848,0.33203 -1.88086,3.8916 z"
   id="path655"
   inkscape:connector-curvature="0"
   style="fill:#1d1d1b" />
		</g>
		<g
   id="g661">
			<path
   d="m 20.65234,365.17676 -0.28027,-1.21582 -1.41992,-0.19434 -0.60254,1.09473 -0.86133,-0.11914 2.23633,-4.05762 0.72754,0.0996 1.06738,4.51074 z m -0.48437,-2.05274 -0.25391,-1.0957 -0.54004,0.98633 z"
   id="path659"
   inkscape:connector-curvature="0"
   style="fill:#1d1d1b" />
		</g>
		<g
   id="g665">
			<path
   d="m 24.10352,365.04785 c -0.45801,-0.0254 -0.9209,-0.17969 -1.34668,-0.45703 l -0.12988,-0.0869 0.44434,-0.6748 0.12793,0.085 c 0.31152,0.20117 0.64063,0.31934 0.94922,0.33691 l 0.0068,-9.8e-4 c 0.09277,0.005 0.18457,0.004 0.27344,-0.008 0.15137,-0.0225 0.28516,-0.0713 0.39258,-0.1416 0.13477,-0.0811 0.28418,-0.23828 0.25,-0.48438 -0.02051,-0.13184 -0.10059,-0.22461 -0.25,-0.28906 -0.18359,-0.0781 -0.41895,-0.0996 -0.58594,-0.10645 -0.07324,-9.8e-4 -0.70508,-0.04 -1.00977,-0.15625 -0.20215,-0.0889 -0.36719,-0.21191 -0.49316,-0.36523 -0.12793,-0.16016 -0.20313,-0.3457 -0.23242,-0.55566 -0.03223,-0.22852 0.0059,-0.4668 0.11523,-0.69727 0.10742,-0.19336 0.26758,-0.3623 0.46875,-0.49512 0.20215,-0.13281 0.43457,-0.22168 0.69336,-0.25781 0.10156,-0.0146 0.21094,-0.0186 0.32129,-0.0225 0.40723,0.0156 0.82324,0.13965 1.20605,0.37988 l 0.12891,0.0801 -0.42285,0.69238 -0.12891,-0.0801 c -0.43457,-0.2627 -0.78125,-0.28809 -0.99707,-0.25586 -0.13965,0.0195 -0.26172,0.0674 -0.36328,0.13086 -0.15527,0.10254 -0.24414,0.26172 -0.22363,0.40527 0.01855,0.13281 0.08008,0.20996 0.2041,0.27148 0.125,0.0625 0.30859,0.0967 0.59375,0.11816 0.03613,9.8e-4 0.08594,0.006 0.13672,0.0117 0.25781,0.0117 0.60547,0.0352 0.85938,0.14063 0.21973,0.0781 0.39844,0.20703 0.53125,0.36523 0.13281,0.1582 0.21582,0.35547 0.24609,0.57227 0.03809,0.26953 9.8e-4,0.52148 -0.11426,0.74512 -0.10059,0.19238 -0.2666,0.37012 -0.49512,0.52441 -0.19531,0.13867 -0.42188,0.2207 -0.7168,0.2627 -0.13868,0.0195 -0.28517,0.0215 -0.43946,0.0127 z"
   id="path663"
   inkscape:connector-curvature="0"
   style="fill:#1d1d1b" />
		</g>
		<g
   id="g669">
			<path
   d="m 28.57324,363.88281 c -0.44922,0.0937 -0.9375,0.0645 -1.41992,-0.0908 l -0.14746,-0.0498 0.25195,-0.76855 0.14648,0.0488 c 0.35254,0.11328 0.70215,0.14258 1.00488,0.0781 l 0.0068,-0.003 c 0.08984,-0.0195 0.17773,-0.043 0.26172,-0.0801 0.14063,-0.0596 0.25684,-0.14258 0.34082,-0.23828 0.11035,-0.11426 0.21289,-0.30371 0.11621,-0.53125 -0.05371,-0.12305 -0.15527,-0.19238 -0.31738,-0.21582 -0.19824,-0.0273 -0.43066,0.0137 -0.59473,0.0498 -0.07031,0.0186 -0.69043,0.14551 -1.01465,0.11328 -0.21875,-0.0322 -0.41016,-0.1084 -0.57324,-0.22363 -0.16406,-0.12109 -0.28516,-0.28125 -0.36816,-0.47656 -0.0918,-0.21094 -0.11523,-0.45313 -0.07227,-0.70215 0.05371,-0.21582 0.16406,-0.4209 0.32422,-0.60156 0.16016,-0.18164 0.3623,-0.32813 0.60254,-0.43066 0.09473,-0.041 0.2002,-0.0732 0.30566,-0.10547 0.39648,-0.0908 0.83008,-0.0801 1.26465,0.0527 l 0.14355,0.042 -0.22656,0.78027 -0.14551,-0.0449 c -0.49023,-0.13965 -0.83008,-0.0723 -1.03223,0.0146 -0.12695,0.0547 -0.23242,0.13184 -0.31543,0.2207 -0.12402,0.13965 -0.16602,0.31641 -0.10938,0.4502 0.05273,0.12305 0.13086,0.18164 0.26758,0.20898 0.13672,0.0283 0.32324,0.0137 0.60449,-0.041 0.03613,-0.009 0.08594,-0.0166 0.13379,-0.0254 0.25391,-0.0557 0.5957,-0.12305 0.86816,-0.0879 0.23242,0.0195 0.4375,0.0957 0.6084,0.21484 0.16895,0.11816 0.30176,0.28809 0.3877,0.48828 0.10742,0.25 0.13672,0.50293 0.08496,0.74902 -0.04883,0.21289 -0.16113,0.42676 -0.34277,0.63574 -0.15137,0.18457 -0.35059,0.32422 -0.62305,0.44043 -0.12889,0.0557 -0.27049,0.0967 -0.42186,0.12891 z"
   id="path667"
   inkscape:connector-curvature="0"
   style="fill:#1d1d1b" />
		</g>
	</g>
	<g
   id="g681">
		<g
   id="g679">
			<g
   id="g677">
				<path
   d="m 82.58594,166.8291 c -0.82813,0 -1.60645,-0.32227 -2.19141,-0.9082 -1.20898,-1.20801 -1.20898,-3.17578 0,-4.38379 0.58496,-0.58594 1.36328,-0.9082 2.19141,-0.9082 0.82715,0 1.60645,0.32227 2.19141,0.9082 1.20898,1.20801 1.20898,3.17578 0,4.38379 -0.58497,0.58594 -1.36426,0.9082 -2.19141,0.9082 z"
   id="path673"
   inkscape:connector-curvature="0"
   style="fill:#999999" />
				<path
   d="m 82.58569,161.02905 c 0.72119,0 1.39917,0.28088 1.90918,0.79077 1.05273,1.05273 1.05273,2.76563 0,3.81836 -0.51001,0.50989 -1.18799,0.79077 -1.90918,0.79077 -0.72119,0 -1.39917,-0.28088 -1.90918,-0.79077 -1.05273,-1.05273 -1.05273,-2.76563 0,-3.81836 0.51001,-0.50988 1.18799,-0.79077 1.90918,-0.79077 m 0,-0.80005 c -0.89575,0 -1.79138,0.3418 -2.47485,1.02515 -1.36682,1.36682 -1.36682,3.58289 0,4.94971 0.68347,0.68335 1.5791,1.02515 2.47485,1.02515 0.89575,0 1.79138,-0.3418 2.47485,-1.02515 1.36682,-1.36682 1.36682,-3.58289 0,-4.94971 -0.68346,-0.68335 -1.57909,-1.02515 -2.47485,-1.02515 z"
   id="path675"
   inkscape:connector-curvature="0"
   style="fill:#252626" />
			</g>
		</g>
	</g>
	<g
   id="g699">
		<g
   id="g697">
			<g
   id="g695">
				<g
   id="g693">
					<polyline
   stroke-miterlimit="10"
   points="       10.5898,265.91068 22.50049,254 34.41117,265.91068      "
   id="polyline683"
   style="fill:none;stroke:#262626;stroke-width:1.65681005;stroke-linejoin:round;stroke-miterlimit:10" />
					
						<ellipse
   transform="matrix(0.02629,-0.99965,0.99965,0.02629,-232.00322,269.81543)"
   cx="22.50049"
   cy="254"
   rx="16.84424"
   ry="16.84425"
   id="ellipse685"
   style="fill:#e5e5e5" />
					
						<path
   stroke-miterlimit="10"
   d="m 36.65796,263.13013 c 1.69995,-2.63049 2.68677,-5.76514 2.68677,-9.13013 0,-8.64917 -6.52185,-15.76685 -14.91431,-16.72559"
   id="path687"
   inkscape:connector-curvature="0"
   style="fill:#e5e5e5;stroke:#262626;stroke-width:1.65681005;stroke-linecap:round;stroke-linejoin:round;stroke-miterlimit:10" />
					
						<path
   stroke-miterlimit="10"
   d="M 20.57153,237.27429 C 12.17859,238.23267 5.65625,245.35034 5.65625,254 c 0,3.28491 0.94031,6.35022 2.56641,8.94141"
   id="path689"
   inkscape:connector-curvature="0"
   style="fill:#e5e5e5;stroke:#262626;stroke-width:1.65681005;stroke-linecap:round;stroke-linejoin:round;stroke-miterlimit:10" />
					
						<path
   stroke-miterlimit="10"
   d="m 10.58979,265.91068 c 3.04821,3.04822 7.25928,4.93356 11.9107,4.93356 4.65141,0 8.86247,-1.88535 11.91068,-4.93356"
   id="path691"
   inkscape:connector-curvature="0"
   style="fill:#e5e5e5;stroke:#262626;stroke-width:1.65681005;stroke-linecap:round;stroke-linejoin:round;stroke-miterlimit:10" />
				</g>
			</g>
		</g>
	</g>
	<g
   id="g717">
		<g
   id="g715">
			<g
   id="g713">
				<g
   id="g711">
					<polyline
   stroke-miterlimit="10"
   points="       70.41449,265.91068 82.32517,253.99998 94.23586,265.91068      "
   id="polyline701"
   style="fill:none;stroke:#262626;stroke-width:1.65681005;stroke-linejoin:round;stroke-miterlimit:10" />
					<circle
   cx="82.325172"
   cy="253.99998"
   r="16.84425"
   id="circle703"
   style="fill:#e5e5e5" />
					
						<path
   stroke-miterlimit="10"
   d="m 96.48264,263.1301 c 1.69995,-2.63049 2.68677,-5.76514 2.68677,-9.13011 0,-8.64917 -6.52185,-15.76685 -14.91431,-16.72559"
   id="path705"
   inkscape:connector-curvature="0"
   style="fill:#e5e5e5;stroke:#262626;stroke-width:1.65681005;stroke-linecap:round;stroke-linejoin:round;stroke-miterlimit:10" />
					
						<path
   stroke-miterlimit="10"
   d="m 80.39622,237.27428 c -8.39294,0.95837 -14.91528,8.07605 -14.91528,16.72571 0,3.2849 0.94031,6.3502 2.56641,8.94139"
   id="path707"
   inkscape:connector-curvature="0"
   style="fill:#e5e5e5;stroke:#262626;stroke-width:1.65681005;stroke-linecap:round;stroke-linejoin:round;stroke-miterlimit:10" />
					
						<path
   stroke-miterlimit="10"
   d="m 70.41447,265.91064 c 3.04821,3.04822 7.25928,4.93359 11.9107,4.93359 4.65141,0 8.86248,-1.88538 11.91069,-4.93356"
   id="path709"
   inkscape:connector-curvature="0"
   style="fill:#e5e5e5;stroke:#262626;stroke-width:1.65681005;stroke-linecap:round;stroke-linejoin:round;stroke-miterlimit:10" />
				</g>
			</g>
		</g>
	</g>
	<g
   id="g745">
		<g
   id="g743">
			<g
   id="g741">
				<g
   id="g739">
					<g
   id="g721">
						<path
   d="M 93.8252,183.49707 82.5,172.17188 71.1748,183.49708 70.00292,182.3252 81.91405,170.41407 c 0.32422,-0.32227 0.84766,-0.32227 1.17188,0 l 11.91113,11.91113 z"
   id="path719"
   inkscape:connector-curvature="0"
   style="fill:#262626" />
					</g>
					<g
   id="g725">
						<circle
   cx="82.5"
   cy="171"
   r="16.84425"
   id="circle723"
   style="fill:#e5e5e5" />
					</g>
					<g
   id="g731">
						<path
   d="m 96.65755,180.13022 c 1.69995,-2.63055 2.68671,-5.76515 2.68671,-9.13022 0,-9.30283 -7.54143,-16.84425 -16.84425,-16.84425 -9.30282,0 -16.84426,7.54142 -16.84426,16.84425 0,3.28493 0.94032,6.35023 2.56648,8.94144"
   id="path727"
   inkscape:connector-curvature="0"
   style="fill:#e5e5e5" />
						<path
   d="m 96.65625,180.95801 c -0.1543,0 -0.30957,-0.043 -0.44922,-0.13281 -0.38379,-0.24805 -0.49414,-0.76074 -0.24512,-1.14551 1.6709,-2.58496 2.55469,-5.58594 2.55469,-8.67969 0,-8.83105 -7.18555,-16.0166 -16.0166,-16.0166 -8.83105,0 -16.0166,7.18555 -16.0166,16.0166 0,3.01855 0.84375,5.95801 2.44043,8.50098 0.24414,0.3877 0.12695,0.89844 -0.26074,1.1416 -0.3877,0.24219 -0.89941,0.12695 -1.1416,-0.26074 -1.7627,-2.80664 -2.69434,-6.05078 -2.69434,-9.38184 0,-9.74512 7.92773,-17.67285 17.67285,-17.67285 9.74512,0 17.67285,7.92773 17.67285,17.67285 0,3.41309 -0.97461,6.72559 -2.82031,9.58008 -0.1582,0.24512 -0.42481,0.37793 -0.69629,0.37793 z"
   id="path729"
   inkscape:connector-curvature="0"
   style="fill:#262626" />
					</g>
					<g
   id="g737">
						<path
   d="m 70.58929,182.91068 c 3.04822,3.04822 7.25928,4.93358 11.91071,4.93358 4.65141,0 8.86247,-1.88536 11.91068,-4.93356"
   id="path733"
   inkscape:connector-curvature="0"
   style="fill:#e5e5e5" />
						<path
   d="m 82.5,188.67285 c -4.71973,0 -9.1582,-1.83789 -12.49707,-5.17578 -0.32324,-0.32324 -0.32324,-0.84766 0,-1.17188 0.32422,-0.32227 0.84766,-0.32422 1.17188,0 3.02539,3.02539 7.04785,4.69141 11.3252,4.69141 4.27735,0 8.2998,-1.66602 11.3252,-4.69141 0.32422,-0.32227 0.84766,-0.32227 1.17188,0 0.32324,0.32422 0.32324,0.84863 0,1.17188 -3.33889,3.33789 -7.77736,5.17578 -12.49709,5.17578 z"
   id="path735"
   inkscape:connector-curvature="0"
   style="fill:#262626" />
					</g>
				</g>
			</g>
		</g>
	</g>
</g>
</svg>