<?xml version="1.0" encoding="utf-8"?>
<!-- Generator: Adobe Illustrator 24.0.0, SVG Export Plug-In . SVG Version: 6.00 Build 0)  -->
<svg version="1.0" id="Layer_1" xmlns="http://www.w3.org/2000/svg" xmlns:xlink="http://www.w3.org/1999/xlink" x="0px" y="0px"
	 width="75px" height="380px" viewBox="0 0 75 380" enable-background="new 0 0 75 380" xml:space="preserve">
<g id="base" display="none">
</g>
<g id="GUIDES" display="none">
</g>
<g id="bg">
	<g>
		<rect fill="#E5E5E5" width="75" height="380"/>
	</g>
	<g>
		<g>
			<g>
				<g>
					<circle fill="#BCBCBC" cx="8.17472" cy="6.39054" r="5.73626"/>
					<path fill="#808080" d="M8.17476,11.8632c3.02102-0.00348,5.46916-2.45164,5.47262-5.47267c0,0,0-0.00001,0-0.00003
						c-0.00002-3.02247-2.45023-5.47264-5.4727-5.47262s-5.47264,2.45023-5.47262,5.4727S5.15229,11.86322,8.17476,11.8632
						 M2.17476,6.39054c0-3.31371,2.68629-6,6-6s6,2.68629,6,6s-2.68629,6-6,6C4.86111,12.39038,2.17492,9.70418,2.17476,6.39054z"
						/>
				</g>
				<polygon fill="#6E6E6E" points="4.67976,7.04954 7.51576,7.04954 7.51576,9.88554 8.83376,9.88554 8.83376,7.04954 
					11.66876,7.04954 11.66876,5.73154 8.83376,5.73154 8.83376,2.89554 7.51576,2.89554 7.51576,5.73154 4.67976,5.73154 				"/>
			</g>
		</g>
	</g>
	<g>
		<g>
			<g>
				<g>
					<circle fill="#BCBCBC" cx="67.18465" cy="373.60947" r="5.73626"/>
					<path fill="#808080" d="M67.1846,379.08212c-3.02102-0.00348-5.46916-2.45166-5.47262-5.47269c0,0,0,0,0-0.00003
						c0.00002-3.02246,2.45023-5.47263,5.4727-5.4726c3.02247,0,5.47264,2.45023,5.47262,5.47269
						S70.20707,379.08215,67.1846,379.08212 M73.1846,373.60947c0-3.31372-2.68629-6-6-6c-3.31371,0-6,2.68628-6,6
						c0,3.31369,2.68629,6,6,6C70.49825,379.60928,73.18444,376.9231,73.1846,373.60947z"/>
				</g>
				<polygon fill="#6E6E6E" points="70.6796,374.26846 67.84361,374.26846 67.84361,377.10446 66.5256,377.10446 66.5256,374.26846 
					63.69061,374.26846 63.69061,372.95047 66.5256,372.95047 66.5256,370.11447 67.84361,370.11447 67.84361,372.95047 
					70.6796,372.95047 				"/>
			</g>
		</g>
	</g>
	<g>
		<path fill="#252626" d="M43.34361,375.24466H32.87734c-1.77143,0-3.20745-1.43604-3.20745-3.20746v-31.33145
			c0-1.77142,1.43602-3.20746,3.20745-3.20746H43.3436c1.77143,0,3.20745,1.43604,3.20745,3.20746v31.33145
			C46.55106,373.80862,45.11503,375.24466,43.34361,375.24466z"/>
		<g>
			<path fill="#E6E5E5" d="M41.95682,363.35104c-0.11426,0.26349-0.26582,0.48099-0.45469,0.65225
				c-0.1891,0.17126-0.40401,0.29843-0.64567,0.3822c-0.24189,0.08353-0.49434,0.12503-0.75781,0.12503
				c-0.44812,0-0.79723-0.06567-1.04757-0.19754c-0.25034-0.13184-0.44601-0.28552-0.58632-0.46124
				c-0.14968-0.19333-0.244-0.40848-0.28341-0.64569c-0.03965-0.23718-0.05936-0.4744-0.05936-0.71158
				c0-0.33411,0.00681-0.56451,0.01971-0.69189c0.01337-0.12762,0.02839-0.19989,0.04622-0.2175
				c0.03496-0.02652,0.17995-0.0394,0.43475-0.0394h3.08382c0.08775,0,0.16024,0.00656,0.21749,0.01968
				c0.05678,0.01315,0.10088,0.0481,0.13162,0.10535c0.03073,0.05701,0.05044,0.14267,0.05936,0.25693
				c0.00868,0.11426,0.01337,0.27237,0.01337,0.4744C42.12833,362.77109,42.07085,363.08759,41.95682,363.35104 M36.63334,350.52942
				c0.01174-0.08282,0.0474-0.14828,0.10699-0.19592c0.05935-0.04736,0.15414-0.07718,0.28506-0.08914
				c0.13068-0.01172,0.31485-0.01782,0.55252-0.01782c0.92675,0,1.6367,0.2583,2.12986,0.77518
				c0.49294,0.51685,0.73975,1.20923,0.73975,2.0766c0,0.08212-0.01712,0.25925-0.02792,0.3808
				c-0.06827-0.00095-0.13655-0.00189-0.20482-0.0033c-0.18699-0.004-0.39017-0.01431-0.60954-0.03052
				c-0.0488,0.02441-0.07508,0.07111-0.0793,0.14008c-0.00399,0.06921,0.01408,0.12411,0.05514,0.1647l0.21913,0.02441
				c0.1464,0.01617,0.26817,0.04269,0.36577,0.07907c0.09761,0.03659,0.1464,0.07529,0.1464,0.11588s-0.0244,0.11591-0.0732,0.22549
				c-0.0488,0.1098-0.11379,0.24188-0.19497,0.39603c-0.08142,0.1546-0.16893,0.31931-0.26207,0.49387
				c-0.09362,0.1748-0.18113,0.33948-0.26231,0.49362c-0.18699,0.35782-0.37773,0.70901-0.57293,1.05438
				c-0.19497,0.34561-0.38595,0.68088-0.5727,1.0058c-0.23603-0.42255-0.4676-0.86548-0.69494-1.32861
				c-0.22758-0.46338-0.45516-0.9223-0.68274-1.37769c-0.01642-0.03238-0.04458-0.09314-0.08517-0.18277
				c-0.04082-0.08917-0.08352-0.18466-0.1281-0.28647c-0.04482-0.10159-0.08352-0.19684-0.1159-0.28647
				c-0.03262-0.08939-0.04857-0.15039-0.04857-0.18277c0-0.0488,0.03214-0.08728,0.09736-0.11591
				c0.06499-0.02838,0.20319-0.06287,0.41458-0.10345l0.15836-0.02441c0.04059-0.04059,0.05889-0.0976,0.0549-0.17081
				c-0.00422-0.07297-0.03473-0.11777-0.09127-0.13397c-0.17315,0.01361-0.38548,0.02347-0.63722,0.02933v-2.58643
				C36.61551,350.72556,36.62137,350.6127,36.63334,350.52942 M37.64266,359.65442c0,0.32516-0.00422,0.58514-0.0122,0.78009
				c-0.00821,0.19498-0.03659,0.34747-0.0854,0.45706c-0.01736,0.0394-0.03801,0.07413-0.06171,0.1044
				c-0.00047,0.00021-0.00117,0.0007-0.00164,0.00092c-0.14194-0.02719-0.2616-0.05865-0.35826-0.09454
				c-0.16048-0.05936-0.27615-0.16635-0.34747-0.32071c-0.07132-0.15439-0.1159-0.37119-0.13373-0.6506
				c-0.01783-0.27896-0.02675-0.6506-0.02675-1.11374v-2.53784l0.63722,1.24158c0.08916,0.17081,0.16024,0.31509,0.21327,0.43289
				c0.05279,0.11801,0.09127,0.22757,0.11567,0.32916c0.02439,0.10181,0.04058,0.20926,0.04879,0.32306
				c0.00798,0.1138,0.0122,0.25598,0.0122,0.42654v0.62173H37.64266z M42.67358,361.16183
				c0.05278-0.14639,0.10534-0.30264,0.15836-0.46924c0.05279-0.16656,0.10159-0.32916,0.1464-0.48776
				c0.04458-0.15836,0.07907-0.29047,0.10371-0.39627c-0.02464-0.05655-0.07133-0.09314-0.14031-0.10956
				c-0.06921-0.0162-0.12387-0.00821-0.1647,0.02438c-0.16259,0.31674-0.31885,0.57693-0.46924,0.78012
				c-0.15039,0.2034-0.28247,0.33737-0.39603,0.40237c-0.06523,0.03259-0.1403,0.06076-0.2257,0.08514
				c-0.08517,0.02441-0.18699,0.04269-0.30477,0.0549c-0.11777,0.01221-0.25996,0.02252-0.42653,0.03052
				c-0.16658,0.00821-0.36788,0.01218-0.60344,0.01218c-0.26817,0-0.48965-0.00797-0.66444-0.02438
				c-0.17479-0.0162-0.31486-0.03659-0.42043-0.06076c-0.10582-0.02466-0.1891-0.05304-0.24987-0.08542
				c-0.061-0.03238-0.10793-0.06897-0.1403-0.1098c-0.0976-0.10556-0.16048-0.26205-0.18887-0.46924
				c-0.02862-0.2074-0.0427-0.47345-0.0427-0.79861v-0.8045c0.00188-0.11145,0.00516-0.20999,0.00986-0.29446
				c0.00798-0.15015,0.03027-0.29047,0.06687-0.42044c0.03659-0.12997,0.09337-0.2684,0.1708-0.41455
				c0.0183-0.03497,0.03894-0.07275,0.06077-0.1124c0.02933-0.00095,0.05982-0.0014,0.09385-0.0014H39.754
				c0.23555,0,0.42865,0.004,0.57903,0.01221c0.15015,0.00797,0.27005,0.02417,0.35967,0.04855
				c0.12177,0.03262,0.20905,0.08963,0.26207,0.17081c0.05279,0.08118,0.09127,0.17877,0.11591,0.29257l0.10956,0.47534
				c0.03238,0.0408,0.08728,0.05887,0.16447,0.0549c0.07718-0.004,0.1281-0.02628,0.1525-0.06711
				c0-0.13818-0.00821-0.31274-0.0244-0.52414c-0.01642-0.2114-0.0244-0.42676-0.0244-0.64615
				c0-0.23553,0.00798-0.46313,0.0244-0.6825c0.01619-0.2196,0.0244-0.40237,0.0244-0.54877
				c-0.0244-0.04034-0.07532-0.06287-0.1525-0.06711c-0.07719-0.00375-0.1321,0.01431-0.16447,0.0549l-0.09737,0.49997
				c-0.03261,0.15439-0.07132,0.25809-0.1159,0.31088c-0.04482,0.0528-0.1037,0.09125-0.17667,0.11566
				c-0.0732,0.02441-0.19942,0.04269-0.37797,0.0549c-0.17901,0.01221-0.39839,0.01831-0.65834,0.01831h-0.55089
				c0.00422-0.00681,0.00798-0.01315,0.0122-0.0202l0.76791-1.32861c0.15414-0.26019,0.29445-0.50186,0.42067-0.72546
				c0.12576-0.22336,0.24987-0.42065,0.37163-0.59122c0.12201-0.17056,0.24776-0.30878,0.37798-0.41434
				c0.02698-0.02182,0.05467-0.04153,0.08306-0.06006c0.08258,0.03284,0.15531,0.07153,0.21796,0.11682
				c0.10159,0.07297,0.18464,0.15839,0.24987,0.25598c0.06499,0.09735,0.11777,0.20715,0.1586,0.32892
				c0.04035,0.12201,0.08517,0.25623,0.13397,0.40237c0.03238,0.04083,0.0854,0.05701,0.1586,0.0488
				c0.07297-0.00797,0.12177-0.03238,0.14616-0.07318c-0.01643-0.13-0.0305-0.27826-0.04247-0.44485
				c-0.01243-0.16656-0.02674-0.32916-0.04293-0.48752c-0.01619-0.1586-0.03754-0.30008-0.05467-0.42679
				c-0.04247-0.31345-0.03285-0.58115-0.03285-0.58115c0-0.61752-0.17525-1.15738-0.44272-1.60925
				c-0.26723-0.45139-0.60907-0.80777-1.02481-1.06915c-0.41597-0.26135-0.90305-0.44553-1.46143-0.55252
				c-0.55863-0.10699-1.21204-0.16046-1.96047-0.16046c-0.74867,0-1.40536,0.00891-1.96938,0.02673
				c-0.56449,0.01782-1.08441,0.05655-1.55974,0.11591c-0.07109,0.03568-0.10981,0.10416-0.11567,0.2048
				c-0.0061,0.10114,0.02041,0.18137,0.08024,0.24072l0.64145,0.07132c0.202,0.02396,0.3592,0.06241,0.47252,0.11591
				c0.11262,0.05328,0.19591,0.15134,0.2494,0.29398c0.05349,0.14267,0.08611,0.3327,0.09807,0.57037
				c0.01173,0.23767,0.01783,0.54666,0.01783,0.92673v6.57681c0,0.46313-0.0061,0.83478-0.01783,1.11374
				c-0.01196,0.27942-0.05349,0.49622-0.12482,0.6506c-0.07132,0.15436-0.17831,0.26135-0.32072,0.32071
				c-0.14265,0.0596-0.34489,0.10699-0.60601,0.14264l-0.37445,0.0535c-0.0542,0.0542-0.07837,0.12836-0.0732,0.22171
				c-0.00047,0.19077-0.00258,0.25128-0.00657,0.46619c-0.00423,0.24612-0.01549,0.52109-0.03355,0.82541
				c0.01807,0.0448,0.06922,0.07156,0.15438,0.08069c0.08493,0.0087,0.14546-0.00912,0.18136-0.05371l0.04012-0.28201
				c0.02699-0.19684,0.06264-0.34888,0.10746-0.45612c0.04481-0.10745,0.12528-0.18793,0.24165-0.24164
				c0.11613-0.05374,0.27943-0.08542,0.48989-0.09433c0.21022-0.00867,0.48988-0.01312,0.83899-0.01312h1.69113
				c0.07156,0,0.12763,0.00446,0.16799,0.01312c0.04012,0.00891,0.06921,0.03378,0.08704,0.07416
				c0.01783,0.0401,0.02909,0.10275,0.03378,0.18768c0.00422,0.08517,0.00657,0.20343,0.00657,0.35568
				c0,0.26865-0.03355,0.46994-0.10065,0.60416c-0.0671,0.13419-0.17667,0.25055-0.32894,0.34909
				c-0.15226,0.10745-0.32001,0.21915-0.50325,0.33551c-0.1837,0.11615-0.36718,0.23251-0.55042,0.34888
				c-0.18347,0.11636-0.36014,0.22827-0.53023,0.33575c-0.1701,0.10721-0.31767,0.20575-0.44296,0.29514
				c-0.3402,0.24167-0.61986,0.46759-0.839,0.67804c-0.21913,0.21024-0.39134,0.42279-0.51663,0.63745
				c-0.12552,0.21469-0.21257,0.44061-0.26183,0.67783c-0.04903,0.23718-0.07367,0.49878-0.07367,0.78528
				c0,0.25946,0.02229,0.45654,0.06687,0.59052c0.02698,0.03589,0.06053,0.05161,0.10088,0.04715
				c0.04012-0.00467,0.06921-0.02487,0.08728-0.06052c0.01759-0.17902,0.0603-0.34888,0.1274-0.50983
				c0.0671-0.16119,0.14969-0.30008,0.24846-0.4162c0.18793-0.23276,0.40026-0.4519,0.63746-0.6579
				c0.23696-0.20575,0.4988-0.41595,0.78526-0.63086c0.28624-0.21469,0.60837-0.43616,0.9664-0.66422
				c0.35779-0.22827,0.75171-0.47675,1.1813-0.74515c0.05372-0.03589,0.10933-0.065,0.16775-0.08728
				c0.05795-0.02252,0.10956-0.01572,0.15437,0.02017c0.06241,0.16986,0.15649,0.35123,0.28178,0.54361
				c0.12528,0.19238,0.27967,0.37375,0.46313,0.54385c0.18348,0.16986,0.39815,0.31064,0.64426,0.42279
				c0.24612,0.11166,0.53024,0.16772,0.85237,0.16772c0.4744,0,0.86363-0.10532,1.16793-0.31555
				c0.30406-0.21021,0.54126-0.4765,0.71136-0.79865c0.16986-0.3132,0.27967-0.65997,0.32894-1.04004
				c0.04903-0.38055,0.07555-0.78107,0.07367-1.20172C42.53328,361.65781,42.67358,361.16183,42.67358,361.16183"/>
		</g>
	</g>
</g>
<g id="serigraphy">
	<g>
		<g>
			<path fill="#FF4257" d="M27.51953,190.5498c-0.10938,0-0.21973-0.01953-0.31934-0.05957
				c-0.10059-0.04004-0.19043-0.10059-0.27051-0.18066s-0.13965-0.16992-0.17969-0.26953
				c-0.04004-0.10059-0.06055-0.20996-0.06055-0.31055c0-0.10938,0.02051-0.21973,0.06055-0.31934
				c0.04004-0.10059,0.09961-0.19043,0.17969-0.27051c0.24023-0.22949,0.59961-0.30957,0.90039-0.17969
				c0.10938,0.04004,0.18945,0.09961,0.26953,0.17969s0.14063,0.16992,0.17969,0.27051
				c0.05078,0.09961,0.07031,0.20996,0.07031,0.31934c0,0.10059-0.01953,0.20996-0.07031,0.31055
				c-0.03906,0.09961-0.09961,0.18945-0.17969,0.26953s-0.16992,0.14063-0.26953,0.18066
				C27.72949,190.53027,27.62988,190.5498,27.51953,190.5498z"/>
		</g>
		<g>
			<path fill="#FF4257" d="M26.68945,185.99023c0-0.45996,0.37012-0.83008,0.83008-0.83008l0,0
				c0.4502,0,0.83008,0.37012,0.83008,0.83008l0,0c0,0.44922-0.37988,0.8291-0.83008,0.8291l0,0
				C27.05957,186.81934,26.68945,186.43945,26.68945,185.99023z M26.68945,182.25c0-0.45996,0.37012-0.83008,0.83008-0.83008l0,0
				c0.4502,0,0.83008,0.37012,0.83008,0.83008l0,0c0,0.45996-0.37988,0.83008-0.83008,0.83008l0,0
				C27.05957,183.08008,26.68945,182.70996,26.68945,182.25z M26.68945,178.50977c0-0.4502,0.37012-0.83008,0.83008-0.83008l0,0
				c0.4502,0,0.83008,0.37988,0.83008,0.83008l0,0c0,0.45996-0.37988,0.83008-0.83008,0.83008l0,0
				C27.05957,179.33984,26.68945,178.96973,26.68945,178.50977z M26.68945,174.78027c0-0.46094,0.37012-0.83008,0.83008-0.83008l0,0
				c0.4502,0,0.83008,0.36914,0.83008,0.83008l0,0c0,0.44922-0.37988,0.81934-0.83008,0.81934l0,0
				C27.05957,175.59961,26.68945,175.22949,26.68945,174.78027z M26.68945,171.04004c0-0.45996,0.37012-0.83008,0.83008-0.83008l0,0
				c0.4502,0,0.83008,0.37012,0.83008,0.83008l0,0c0,0.4502-0.37988,0.83008-0.83008,0.83008l0,0
				C27.05957,171.87012,26.68945,171.49023,26.68945,171.04004z"/>
		</g>
	</g>
	<g>
		<g>
			<path fill="#1D1D1B" d="M8.58789,108.1123l-2.10254-2.37012l-0.71582,0.63477l-0.47949-0.54004l1.97949-1.75391l0.47754,0.53906
				l-0.71484,0.63477l2.10156,2.36914L8.58789,108.1123z"/>
		</g>
		<g>
			<path fill="#1D1D1B" d="M12.51758,105.53516l-2.08887-1.08203l-0.27734,0.14063l0.85156,1.69922l-0.63574,0.31934
				L8.625,103.13281l1.24609-0.62402c0.23535-0.11719,0.5-0.13477,0.75781-0.04883c0.25684,0.08496,0.45996,0.25781,0.57715,0.49316
				c0.17383,0.3457,0.125,0.7627-0.10547,1.05957l2.18848,1.13574L12.51758,105.53516z M10.44336,103.65234
				c0.1377-0.06836,0.19727-0.24023,0.12695-0.38184c-0.07129-0.1416-0.24512-0.19531-0.38086-0.12695l-0.61133,0.30566
				l0.25488,0.50879L10.44336,103.65234z"/>
		</g>
		<g>
			<path fill="#1D1D1B" d="M14.05273,105.03125l-0.92578-3.77539l0.70996-0.1748l0.92578,3.77637L14.05273,105.03125z"/>
		</g>
		<g>
			<path fill="#1D1D1B" d="M15.56445,102.5957c-0.00098-1.12012,0.90918-2.03125,2.02637-2.0332
				c0.27344,0,0.54102,0.05469,0.78613,0.15723c0.24512,0.10352,0.46973,0.25098,0.65527,0.44141l0.10352,0.10352l-0.53906,0.47559
				l-0.0918-0.08691c-0.23633-0.24023-0.55859-0.36523-0.91211-0.36523c-0.7207,0.00195-1.30371,0.58594-1.30273,1.30566
				c0.00195,0.72559,0.58496,1.31445,1.30566,1.31348c0.36523,0,0.69727-0.14746,0.95508-0.41113l-0.00195-0.80664h-1.06348
				l-0.00098-0.72363l1.7793-0.00293l0.00195,1.78906l-0.02832,0.0332c-0.3916,0.5293-1.00293,0.8418-1.64063,0.84277
				C16.47852,104.62891,15.56543,103.71875,15.56445,102.5957z"/>
		</g>
		<g>
			<path fill="#1D1D1B" d="M20.52637,102.77734c0.36035-1.06055,1.51758-1.62891,2.57617-1.26953
				c0.25879,0.08887,0.49414,0.22656,0.69238,0.40332c0.2002,0.17676,0.36426,0.38867,0.47949,0.62891l0.06445,0.13184
				l-0.66504,0.27539l-0.05957-0.1123c-0.14551-0.30273-0.40918-0.52539-0.74609-0.63965
				c-0.68066-0.23145-1.42285,0.13379-1.6543,0.81641c-0.2334,0.6875,0.12891,1.43262,0.81152,1.66504
				c0.34668,0.11719,0.70996,0.08496,1.03613-0.08105l0.26074-0.76465l-1.00781-0.3418l0.2334-0.6875l1.68457,0.57227
				l-0.57617,1.69531l-0.03613,0.02246c-0.54199,0.37402-1.22168,0.47266-1.82617,0.26563
				C20.73438,104.99805,20.16504,103.8418,20.52637,102.77734z"/>
		</g>
		<g>
			<path fill="#1D1D1B" d="M24.21387,106.37012l2.28418-3.15527l2.07813,1.50586l-0.41699,0.5752l-1.48438-1.0752l-0.33691,0.46582
				l1.29395,0.93652l-0.42578,0.58984l-1.29395-0.93652l-0.68066,0.93848l1.44336,1.04688l-0.42383,0.58398L24.21387,106.37012z"/>
		</g>
		<g>
			<path fill="#1D1D1B" d="M28.33398,110.30664l0.65039-2.26172l-0.19141-0.24609l-1.5,1.16992l-0.43848-0.55957l3.07129-2.39453
				l0.85645,1.10059c0.16211,0.20703,0.23047,0.46484,0.19727,0.73242c-0.0332,0.26855-0.16309,0.50195-0.36914,0.66406
				c-0.30762,0.23828-0.72363,0.27246-1.0625,0.10547l-0.68262,2.36914L28.33398,110.30664z M29.77441,107.90137
				c0.09277,0.12109,0.27246,0.14648,0.39746,0.0498c0.12598-0.09766,0.14355-0.27832,0.05078-0.40039l-0.4209-0.53809
				l-0.44727,0.34961L29.77441,107.90137z"/>
		</g>
	</g>
	<g>
		<g>
			<path fill="#1D1D1B" d="M6.39063,242.72852l-3.12793-2.32129l1.52832-2.06152l0.57227,0.4248l-1.09277,1.47266l0.46191,0.34082
				l0.95215-1.28223l0.58301,0.43457l-0.95117,1.28223l0.93164,0.69043l1.0625-1.43164l0.58008,0.43066L6.39063,242.72852z"/>
		</g>
		<g>
			<path fill="#1D1D1B" d="M9.44824,239.3584l-3.53613-2.21387l0.62988-0.47168l2.46484,1.5498l-0.78809-2.80469l0.625-0.46777
				l1.13477,4.01172L9.44824,239.3584z"/>
		</g>
		<g>
			<path fill="#1D1D1B" d="M11.75781,237.84961l-1.40234-3.62988l2.39063-0.9248l0.25684,0.66309l-1.70898,0.66113l0.20703,0.53516
				l1.48926-0.57617l0.26172,0.67773l-1.48828,0.57617l0.41797,1.08105l1.66113-0.64258l0.26074,0.67285L11.75781,237.84961z"/>
		</g>
		<g>
			<path fill="#1D1D1B" d="M17.40234,236.53906l-1.91211-2.40918l0.19336,2.54004l-0.72852,0.05566l-0.2959-3.87305l0.70801-0.05371
				l1.90625,2.4043l-0.19336-2.53516l0.72852-0.05566l0.29688,3.87305L17.40234,236.53906z"/>
		</g>
		<g>
			<path fill="#1D1D1B" d="M19.84668,236.77637l0.6582-3.10352l-0.93555-0.19824l0.14941-0.70605l2.58984,0.55078l-0.15137,0.70508
				l-0.93457-0.19824l-0.66016,3.10254L19.84668,236.77637z"/>
		</g>
		<g>
			<path fill="#1D1D1B" d="M23.09668,237.81934c-0.32422-0.25488-0.58691-0.60645-0.75879-1.0293l-0.05078-0.13086l0.67578-0.27051
				l0.0498,0.12988c0.12695,0.30762,0.30957,0.56445,0.52832,0.73633l0.00391,0.00293
				c0.06641,0.05078,0.13477,0.09863,0.20898,0.13477c0.12109,0.06152,0.24512,0.09277,0.35938,0.0957
				c0.14258,0.01172,0.33203-0.02734,0.43359-0.22656c0.05273-0.1084,0.04199-0.21875-0.03613-0.3418
				c-0.09473-0.15234-0.25684-0.29004-0.37695-0.38086c-0.05371-0.03809-0.49902-0.39258-0.66406-0.63379
				c-0.10449-0.16992-0.16211-0.3457-0.17676-0.52344c-0.01172-0.18359,0.0293-0.35938,0.11523-0.5293
				c0.09277-0.18457,0.24414-0.34082,0.44336-0.45508c0.17773-0.08789,0.38281-0.13086,0.60059-0.125
				c0.2168,0.00586,0.43457,0.05957,0.64355,0.16602c0.08398,0.04199,0.16699,0.0957,0.24902,0.14941
				c0.29199,0.2207,0.53613,0.52734,0.69531,0.90137l0.05273,0.12402l-0.66699,0.29297l-0.05371-0.125
				c-0.18652-0.41699-0.43066-0.61328-0.60449-0.70117c-0.11328-0.05859-0.22754-0.08496-0.33594-0.08984
				c-0.16699-0.00586-0.31445,0.06836-0.37305,0.18457c-0.05469,0.10645-0.0498,0.19434,0.01074,0.30469
				s0.17871,0.22949,0.37695,0.39258c0.02734,0.01855,0.06152,0.04883,0.09473,0.07813
				c0.18555,0.1416,0.42969,0.33789,0.5625,0.5459c0.12109,0.17188,0.18652,0.35742,0.20313,0.54297
				s-0.02344,0.37402-0.11133,0.54883c-0.11133,0.21973-0.26855,0.38477-0.46875,0.49121
				c-0.17383,0.08984-0.38574,0.13672-0.63477,0.13184c-0.21484,0.00293-0.4248-0.05469-0.66406-0.17578
				C23.31641,237.97949,23.20605,237.90625,23.09668,237.81934z"/>
		</g>
	</g>
	<g>
		<g>
			<path fill="#1D1D1B" d="M49.40527,250.2666l-2.14258-3.25293l2.14258-1.41113l0.3916,0.59277l-1.53223,1.00977l0.31738,0.47949
				l1.33398-0.87988l0.39941,0.60938l-1.33301,0.87793l0.6377,0.96777l1.49023-0.98145l0.39746,0.60449L49.40527,250.2666z"/>
		</g>
		<g>
			<path fill="#1D1D1B" d="M53.4502,248.14063l-2.5625-3.29102l0.75293-0.22754l1.7832,2.29883l0.2207-2.9043l0.74902-0.22461
				l-0.31055,4.15723L53.4502,248.14063z"/>
		</g>
		<g>
			<path fill="#1D1D1B" d="M56.12012,247.52246l-0.07422-3.8916l2.56445-0.04883l0.0127,0.71094l-1.83008,0.03516l0.00977,0.57422
				l1.59668-0.03125l0.01367,0.72754l-1.5957,0.03027l0.02246,1.1582l1.78027-0.0332l0.01465,0.7207L56.12012,247.52246z"/>
		</g>
		<g>
			<path fill="#1D1D1B" d="M61.87305,248.22656l-0.97168-2.91895l-0.68945,2.45215l-0.70313-0.19629l1.04883-3.74023
				l0.68457,0.19238l0.96582,2.91113l0.68848-2.44727l0.70313,0.19727l-1.0498,3.74023L61.87305,248.22656z"/>
		</g>
		<g>
			<path fill="#1D1D1B" d="M64.08789,249.28516l1.68164-2.69043l-0.81152-0.50684l0.38281-0.61133l2.24512,1.40332l-0.38379,0.6123
				l-0.81152-0.50781l-1.68066,2.68848L64.08789,249.28516z"/>
		</g>
		<g>
			<path fill="#1D1D1B" d="M66.78223,251.37988c-0.2168-0.35156-0.34277-0.77148-0.35938-1.22754l-0.00293-0.13965l0.72656-0.02246
				l0.00293,0.1377c0.01367,0.33301,0.09668,0.6377,0.24414,0.87402l0.00293,0.00391
				c0.04395,0.07031,0.0918,0.13867,0.14844,0.19824c0.09277,0.09863,0.19824,0.17188,0.30566,0.21289
				c0.12988,0.05957,0.32129,0.08887,0.48438-0.06543c0.08887-0.08203,0.11523-0.18945,0.08398-0.33301
				c-0.03711-0.1748-0.14258-0.35938-0.22266-0.48633c-0.03809-0.05566-0.33496-0.53906-0.4082-0.82324
				c-0.04004-0.19434-0.0332-0.37988,0.01465-0.55273c0.05176-0.1748,0.14941-0.32715,0.28906-0.45703
				c0.15137-0.14258,0.34668-0.23633,0.57129-0.27637c0.19922-0.02148,0.40527,0.00879,0.6084,0.08887
				c0.20215,0.08008,0.3877,0.20508,0.54785,0.37695c0.06445,0.06836,0.12305,0.14648,0.18262,0.22461
				c0.19824,0.30859,0.32227,0.67969,0.34473,1.08594l0.00586,0.13477l-0.72656,0.04688l-0.00781-0.13574
				c-0.03223-0.45605-0.19336-0.72461-0.32813-0.86719c-0.08594-0.0918-0.18359-0.15723-0.2832-0.19922
				c-0.15625-0.0625-0.31934-0.04395-0.41406,0.0459c-0.08789,0.08203-0.11426,0.16602-0.09473,0.29102
				c0.01855,0.12402,0.08887,0.27539,0.21973,0.49707c0.01953,0.02637,0.04004,0.06641,0.0625,0.10645
				c0.125,0.19629,0.28711,0.46387,0.34082,0.70508c0.05566,0.20313,0.05273,0.40039,0.00488,0.5791
				c-0.04785,0.18164-0.15039,0.34277-0.29395,0.47754c-0.17871,0.16895-0.38281,0.27051-0.6084,0.30176
				c-0.19336,0.02441-0.40918-0.00488-0.64063-0.09375c-0.20313-0.07129-0.37988-0.19727-0.56445-0.39258
				C66.93359,251.60547,66.85547,251.49902,66.78223,251.37988z"/>
		</g>
	</g>
	<g>
		<g>
			<path fill="#252626" d="M3.13965,24.01953c-0.22949,0-0.42969-0.08984-0.58984-0.25
				c-0.16016-0.14941-0.24023-0.35938-0.24023-0.58008c0-0.21973,0.08984-0.42969,0.24023-0.58984
				c0.30957-0.30957,0.86035-0.30957,1.16992,0c0.16016,0.16016,0.25,0.37012,0.25,0.58984c0,0.2207-0.08984,0.41992-0.25,0.58008
				C3.56934,23.92969,3.35938,24.01953,3.13965,24.01953z"/>
		</g>
		<g>
			<path fill="#252626" d="M7.46973,24.01953c-0.11035,0-0.21973-0.0293-0.32031-0.06934
				c-0.09961-0.04004-0.18945-0.10059-0.26953-0.18066c-0.15039-0.14941-0.24023-0.35938-0.24023-0.58008
				c0-0.21973,0.08984-0.42969,0.24023-0.58984c0.08008-0.06934,0.16992-0.13965,0.26953-0.17969
				c0.31055-0.12012,0.66992-0.0498,0.90039,0.17969c0.16016,0.16016,0.25,0.37012,0.25,0.58984
				c0,0.2207-0.08984,0.43066-0.25,0.58008C7.89941,23.92969,7.68945,24.01953,7.46973,24.01953z"/>
		</g>
	</g>
	<g>
		<g>
			<path fill="#252626" d="M67.76953,24.00977c-0.10938,0-0.21973-0.01953-0.31934-0.05957
				c-0.10059-0.04004-0.19043-0.10059-0.27051-0.18066C67.10938,23.68945,67.04004,23.60938,67,23.5
				c-0.04004-0.10059-0.06055-0.2002-0.06055-0.31055c0-0.21973,0.08984-0.43945,0.24023-0.58984
				c0.08008-0.08008,0.16992-0.13965,0.27051-0.17969c0.2998-0.12012,0.66992-0.0498,0.89941,0.17969
				c0.16016,0.15039,0.25,0.37012,0.25,0.58984c0,0.11035-0.01953,0.20996-0.07031,0.31055
				c-0.03906,0.10938-0.09961,0.18945-0.17969,0.26953C68.2002,23.92969,67.99023,24.00977,67.76953,24.00977z"/>
		</g>
		<g>
			<path fill="#252626" d="M72.09961,24.00977c-0.10938,0-0.21973-0.01953-0.32031-0.05957
				c-0.09961-0.04004-0.18945-0.10059-0.26953-0.18066c-0.07031-0.08008-0.13965-0.16992-0.17969-0.26953
				c-0.04004-0.10059-0.06055-0.2002-0.06055-0.31055c0-0.21973,0.08984-0.43945,0.24023-0.58984
				c0.08008-0.06934,0.16992-0.13965,0.26953-0.17969c0.21094-0.08008,0.44043-0.08008,0.64063,0
				c0.09961,0.04004,0.18945,0.09961,0.26953,0.17969c0.15039,0.15039,0.24023,0.37012,0.24023,0.58984
				c0,0.2207-0.08984,0.41992-0.24023,0.58008c-0.08008,0.08008-0.16992,0.14063-0.26953,0.18066
				C72.31934,23.99023,72.20996,24.00977,72.09961,24.00977z"/>
		</g>
	</g>
	<g>
		<path fill="#252626" d="M21.39551,8.9834h5.3584v1.88965h-3.44727v0.67383h1.90039v1.90039h-1.90039v3.40234h-1.91113
			C21.39551,16.84961,21.39551,8.9834,21.39551,8.9834z"/>
		<path fill="#252626" d="M33.84473,15.05957h-2.20996l-0.69531,1.79004h-2.0332L31.9336,8.9834h1.61328l3.03711,7.86621h-2.06543
			L33.84473,15.05957z M32.74023,12.0332l-0.37598,1.14844h0.74023L32.74023,12.0332z"/>
		<path fill="#252626" d="M40.83594,10.88379h-1.80078V8.9834h5.5127v1.90039h-1.80078v5.96582h-1.91113
			C40.83595,16.84961,40.83595,10.88379,40.83594,10.88379z"/>
		<path fill="#252626" d="M48.61133,8.9834h5.3584v1.87891H50.5332v0.67383h3.00586v1.91113H50.5332v1.50195h3.35938v1.90039
			h-5.28125V8.9834z"/>
	</g>
	<g>
		<path fill="#252626" d="M10.59863,23.01953c0.00977,0.86328,0.45996,1.90527,1.5957,1.90527
			c0.86328,0,1.33203-0.50684,1.51953-1.23926h0.5918c-0.25391,1.09863-0.8916,1.73633-2.11133,1.73633
			c-1.53906,0-2.18652-1.18262-2.18652-2.56152c0-1.27637,0.64746-2.5625,2.18652-2.5625c1.55762,0,2.17676,1.36133,2.12988,2.72168
			H10.59863z M13.7334,22.52246c-0.02832-0.8916-0.58203-1.72656-1.53906-1.72656c-0.9668,0-1.50195,0.84473-1.5957,1.72656H13.7334
			z"/>
		<path fill="#252626" d="M14.58008,20.43945h0.65723l1.52051,4.25098h0.01855l1.50098-4.25098h0.61035l-1.81152,4.8418h-0.62891
			L14.58008,20.43945z"/>
		<path fill="#252626" d="M19.81836,23.01953c0.00977,0.86328,0.45996,1.90527,1.5957,1.90527
			c0.86328,0,1.33203-0.50684,1.51953-1.23926h0.5918c-0.25391,1.09863-0.8916,1.73633-2.11133,1.73633
			c-1.53906,0-2.18652-1.18262-2.18652-2.56152c0-1.27637,0.64746-2.5625,2.18652-2.5625c1.55762,0,2.17676,1.36133,2.12988,2.72168
			H19.81836z M22.95313,22.52246c-0.02832-0.8916-0.58203-1.72656-1.53906-1.72656c-0.9668,0-1.50195,0.84473-1.5957,1.72656
			H22.95313z"/>
		<path fill="#252626" d="M24.33496,20.43945h0.59082v0.83496h0.01953c0.21582-0.58203,0.86328-0.97656,1.54785-0.97656
			c1.36035,0,1.77344,0.71387,1.77344,1.86816v3.11523h-0.59082v-3.02148c0-0.83496-0.27246-1.46387-1.22949-1.46387
			c-0.93848,0-1.50098,0.71289-1.52051,1.66113v2.82422h-0.59082C24.33496,25.28124,24.33496,20.43945,24.33496,20.43945z"/>
		<path fill="#252626" d="M30.3252,20.43945h0.98438v0.49707H30.3252v3.26563c0,0.38477,0.05566,0.61035,0.47852,0.6377
			c0.16895,0,0.33789-0.00879,0.50586-0.02734v0.50586c-0.17773,0-0.34668,0.01953-0.52539,0.01953
			c-0.78809,0-1.06055-0.2627-1.05078-1.08887v-3.3125h-0.84473v-0.49707h0.84473v-1.45508h0.5918
			C30.32521,18.98438,30.32521,20.43945,30.3252,20.43945z"/>
		<path fill="#252626" d="M34.77637,20.43945h0.54395v0.81641h0.02832c0.30957-0.58203,0.81641-0.95801,1.58594-0.95801
			c0.6377,0,1.20996,0.31055,1.38867,0.94824c0.29102-0.6377,0.90039-0.94824,1.53906-0.94824
			c1.06055,0,1.60449,0.55371,1.60449,1.69922v3.28418h-0.59082v-3.25586c0-0.79785-0.30078-1.22949-1.14551-1.22949
			c-1.02246,0-1.31348,0.84473-1.31348,1.74512v2.74023h-0.59082v-3.28418c0.00879-0.65723-0.2627-1.20117-1.01367-1.20117
			c-1.02344,0-1.43555,0.76953-1.44531,1.7832v2.70215h-0.59082C34.77636,25.28125,34.77636,20.43945,34.77637,20.43945z"/>
		<path fill="#252626" d="M46.93164,22.86035c0,1.38867-0.80664,2.56152-2.29004,2.56152
			c-1.48242,0-2.28906-1.17285-2.28906-2.56152s0.80664-2.5625,2.28906-2.5625C46.125,20.29785,46.93164,21.47168,46.93164,22.86035
			z M42.94336,22.86035c0,1.03223,0.56348,2.06445,1.69824,2.06445c1.13574,0,1.69922-1.03223,1.69922-2.06445
			s-0.56348-2.06445-1.69922-2.06445C43.50684,20.7959,42.94336,21.82813,42.94336,22.86035z"/>
		<path fill="#252626" d="M52.07617,25.28125h-0.54395v-0.91992h-0.01855c-0.25391,0.62891-1.02344,1.06055-1.72656,1.06055
			c-1.47363,0-2.17773-1.19141-2.17773-2.56152s0.7041-2.5625,2.17773-2.5625c0.72168,0,1.42578,0.36621,1.67969,1.06055h0.01855
			v-2.77734h0.59082C52.07618,18.58107,52.07618,25.28125,52.07617,25.28125z M49.78711,24.9248
			c1.25684,0,1.69824-1.06055,1.69824-2.06445s-0.44141-2.06445-1.69824-2.06445c-1.12695,0-1.58594,1.06055-1.58594,2.06445
			S48.66016,24.9248,49.78711,24.9248z"/>
		<path fill="#252626" d="M53.21387,18.58105h0.5918v0.94727h-0.5918V18.58105z M53.21387,20.43945h0.5918v4.8418h-0.5918V20.43945z
			"/>
		<path fill="#252626" d="M55.26074,20.93652h-0.8252v-0.49707h0.8252v-0.44141c-0.00879-0.83496,0.22559-1.41699,1.17285-1.41699
			c0.16895,0,0.31055,0.00977,0.49805,0.03711V19.125c-0.16016-0.02832-0.29102-0.04688-0.43164-0.04688
			c-0.65723,0-0.63867,0.41309-0.64746,0.93848v0.42285h0.95703v0.49707h-0.95703v4.34473h-0.5918V20.93652z M57.38184,18.58105
			h0.59082v0.94727h-0.59082V18.58105z M57.38184,20.43945h0.59082v4.8418h-0.59082V20.43945z"/>
		<path fill="#252626" d="M59.45703,23.01953c0.00977,0.86328,0.45996,1.90527,1.5957,1.90527
			c0.86328,0,1.33203-0.50684,1.51953-1.23926h0.5918c-0.25391,1.09863-0.8916,1.73633-2.11133,1.73633
			c-1.53906,0-2.18652-1.18262-2.18652-2.56152c0-1.27637,0.64746-2.5625,2.18652-2.5625c1.55762,0,2.17676,1.36133,2.12988,2.72168
			H59.45703z M62.5918,22.52246c-0.02832-0.8916-0.58203-1.72656-1.53906-1.72656c-0.9668,0-1.50195,0.84473-1.5957,1.72656H62.5918
			z"/>
		<path fill="#252626" d="M63.9834,20.43945h0.54395v1.13477h0.01855c0.30078-0.77832,0.95703-1.23828,1.83008-1.20117v0.5918
			c-1.07031-0.05664-1.80176,0.73145-1.80176,1.73535v2.58105H63.9834V20.43945z"/>
	</g>
	<g>
		<circle fill="#252626" cx="57.40705" cy="167.5" r="14.87217"/>
	</g>
	<g>
		<g>
			<path fill="#1D1D1B" d="M47.36914,101.83301l-2.9375,2.54395l-1.67285-1.93164l0.54004-0.4668l1.19824,1.38086l0.43262-0.37402
				l-0.66113-0.76367l0.54492-0.47168l0.66113,0.7627l1.41895-1.22949L47.36914,101.83301z"/>
		</g>
		<g>
			<path fill="#1D1D1B" d="M44.33594,97.21191l-1.13281,2.05859l0.13281,0.28223l1.71875-0.80957l0.30273,0.6416l-3.51758,1.65625
				l-0.59375-1.25977c-0.11035-0.2373-0.12109-0.50391-0.03027-0.75879c0.09277-0.25391,0.26953-0.45215,0.50684-0.56348
				c0.35156-0.16602,0.76563-0.10742,1.05762,0.12988l1.1875-2.1582L44.33594,97.21191z M42.40332,99.2373
				c-0.06445-0.1377-0.23535-0.2041-0.37793-0.13672c-0.14355,0.06738-0.20117,0.23926-0.13672,0.37793l0.29199,0.61719
				l0.5127-0.24219L42.40332,99.2373z"/>
		</g>
		<g>
			<path fill="#1D1D1B" d="M43.91016,95.9707l-3.82617,0.71191l-0.46875-2.52051l0.69922-0.12891l0.33398,1.7998l0.56445-0.10449
				l-0.29297-1.57031l0.71582-0.13281l0.29199,1.57031l1.13867-0.21289l-0.3252-1.75195l0.70898-0.13184L43.91016,95.9707z"/>
		</g>
		<g>
			<path fill="#1D1D1B" d="M43.44043,92.62305l-3.87793-0.29492l0.19434-2.55664l0.70801,0.05469l-0.13867,1.8252l0.57227,0.04395
				l0.12012-1.5918l0.72559,0.05566L41.62305,91.75l1.1543,0.08789l0.13672-1.77637l0.71875,0.05566L43.44043,92.62305z"/>
		</g>
		<g>
			<path fill="#1D1D1B" d="M50.52539,80.89941l-1.73828-0.95605l0.06445,1.98242l-0.57227,0.35156l-2.95508-2.74414l0.65039-0.40039
				l2.125,1.98145l-0.05273-1.74512l0.57031-0.35156l1.52734,0.84277l-0.79785-2.79395l0.64648-0.39648l1.10449,3.87891
				L50.52539,80.89941z"/>
		</g>
		<g>
			<path fill="#1D1D1B" d="M52.83203,80.01758l-0.98242-3.75781l0.70703-0.18555l0.98242,3.75879L52.83203,80.01758z"/>
		</g>
		<g>
			<path fill="#1D1D1B" d="M54.77539,79.55664l-0.14844-3.88867l0.73145-0.02734l0.12109,3.17285l1.98145-0.0752l0.02734,0.71484
				L54.77539,79.55664z"/>
		</g>
		<g>
			<path fill="#1D1D1B" d="M58.19043,79.5498l0.86719-3.78613l0.71191,0.16211L59.0625,79.0166l1.93164,0.44238l-0.16016,0.69531
				L58.19043,79.5498z"/>
		</g>
	</g>
	<g>
		<g>
			<path fill="#1D1D1B" d="M25.94043,339.3457c-0.01855,0.25977-0.08691,0.51465-0.20215,0.75
				c-0.11328,0.24121-0.27148,0.45215-0.4707,0.625c-0.20313,0.18457-0.43164,0.32227-0.69531,0.41211
				c-1.05664,0.36523-2.2168-0.2041-2.58203-1.26172c-0.10254-0.2998-0.13379-0.62305-0.08984-0.93164
				c0.03809-0.30762,0.15625-0.61523,0.33398-0.87109l0.07422-0.11914l0.59961,0.41211l-0.07813,0.1123
				c-0.23438,0.34082-0.29102,0.76465-0.15234,1.16113c0.2334,0.68066,0.97754,1.04688,1.6582,0.8125
				c0.68555-0.23633,1.05078-0.98633,0.81641-1.66602c-0.13477-0.39258-0.44043-0.69141-0.83594-0.81934l-0.12598-0.04395
				l0.21387-0.68457l0.13086,0.0459c0.30469,0.09668,0.57422,0.25879,0.80078,0.48047
				c0.22461,0.2168,0.39453,0.4873,0.49707,0.78711C25.9209,338.80469,25.95703,339.07422,25.94043,339.3457z"/>
		</g>
		<g>
			<path fill="#1D1D1B" d="M25.09473,333.89844l-1.88184,0.04102l0.03418,1.57617l1.88184-0.04102l0.01563,0.73242l-3.88379,0.08398
				l-0.01563-0.73047l1.28711-0.0293l-0.03418-1.57715l-1.28711,0.03027l-0.01563-0.73242l3.88379-0.08398L25.09473,333.89844z"/>
		</g>
		<g>
			<path fill="#1D1D1B" d="M23.21387,331.91895c-1.07324-0.33594-1.6709-1.47754-1.33594-2.54492
				c0.33496-1.07324,1.47754-1.66992,2.5498-1.33496c1.06836,0.33398,1.66113,1.47461,1.3252,2.54785
				C25.41797,331.6543,24.28125,332.25293,23.21387,331.91895z M23.43164,331.22168c0.6875,0.21484,1.41992-0.16797,1.63281-0.85059
				c0.21387-0.68164-0.16992-1.41406-0.85645-1.62891c-0.69238-0.2168-1.4248,0.16602-1.6377,0.84863
				C22.35645,330.27246,22.74023,331.00488,23.43164,331.22168z"/>
		</g>
		<g>
			<path fill="#1D1D1B" d="M26.8877,327.88574l-3.2998-2.06445l0.38867-0.62109l3.29883,2.06543L26.8877,327.88574z"/>
		</g>
		<g>
			<path fill="#1D1D1B" d="M28.5332,325.49707c-0.24414,0.09375-0.50293,0.14063-0.76563,0.1377
				c-0.26758,0-0.52539-0.05371-0.76563-0.16113c-0.25391-0.10449-0.47656-0.25488-0.66992-0.45313
				c-0.78223-0.80176-0.75977-2.0957,0.04102-2.87598c0.22656-0.22168,0.50684-0.3877,0.80469-0.48047
				c0.2959-0.09668,0.62402-0.11914,0.93262-0.06934l0.13867,0.01855l-0.11719,0.71582l-0.13477-0.02051
				c-0.40918-0.06738-0.81543,0.0625-1.11719,0.35547c-0.5166,0.50391-0.53223,1.33301-0.02832,1.84961
				c0.50684,0.51953,1.34082,0.53125,1.85645,0.02832c0.29688-0.28906,0.43848-0.69336,0.38574-1.10742l-0.01367-0.13086
				l0.71191-0.09863l0.01367,0.13867c0.04199,0.31738,0.01074,0.62988-0.09375,0.92969
				c-0.09961,0.29688-0.27441,0.56348-0.50098,0.78516C29.01563,325.24902,28.78516,325.39551,28.5332,325.49707z"/>
		</g>
		<g>
			<path fill="#1D1D1B" d="M31.14258,323.42383l-1.78516-3.45801l2.27734-1.1748l0.32617,0.63086l-1.62695,0.83984l0.26367,0.50879
				l1.41797-0.73145l0.33301,0.64648l-1.41797,0.73145l0.53027,1.0293l1.58301-0.81641l0.33105,0.63965L31.14258,323.42383z"/>
		</g>
		<g>
			<path fill="#1D1D1B" d="M43.19629,322.38672l1.92676-3.375l1.13281,0.64746c0.95313,0.54395,1.29785,1.74609,0.7666,2.67578
				c-0.53027,0.92871-1.74023,1.24316-2.69336,0.69922L43.19629,322.38672z M44.68359,322.41309
				c0.60645,0.34668,1.37305,0.14844,1.70898-0.43848c0.33496-0.58887,0.11719-1.34766-0.49023-1.69434l-0.50391-0.28711
				l-1.21777,2.13281L44.68359,322.41309z"/>
		</g>
		<g>
			<path fill="#1D1D1B" d="M46.57129,324.52246l2.76172-2.73242l1.7998,1.82031l-0.50391,0.49805l-1.28613-1.2998l-0.40723,0.40234
				l1.12012,1.13281l-0.51465,0.51074l-1.12109-1.13281l-0.82227,0.81348l1.25098,1.26465l-0.5127,0.50684L46.57129,324.52246z"/>
		</g>
		<g>
			<path fill="#1D1D1B" d="M48.83008,327.02051l3.36914-1.94141l0.69531,1.20703c0.13281,0.23242,0.16895,0.5,0.09961,0.76172
				c-0.07422,0.25684-0.23242,0.47363-0.46289,0.60742c-0.47852,0.27539-1.08887,0.10352-1.36328-0.37402l-0.33203-0.57813
				l-1.64258,0.94629L48.83008,327.02051z M51.78711,326.92285c0.07715,0.13379,0.24609,0.1748,0.37793,0.09863
				s0.18262-0.25098,0.10938-0.37891l-0.33203-0.57617l-0.4873,0.28027L51.78711,326.92285z"/>
		</g>
		<g>
			<path fill="#1D1D1B" d="M50.49023,330.46387l3.03711-0.88477l-0.26563-0.91797l0.69141-0.2002l0.73828,2.53418L54,331.19629
				l-0.26758-0.91602l-3.03906,0.88477L50.49023,330.46387z"/>
		</g>
		<g>
			<path fill="#1D1D1B" d="M51.11719,335.0957L53,335.07031l-0.02051-1.57715l-1.88379,0.02539l-0.00977-0.73242l3.88672-0.05176
				l0.00977,0.73242l-1.28906,0.0166l0.02246,1.57813l1.28809-0.01758l0.00977,0.73047l-3.88672,0.05273L51.11719,335.0957z"/>
		</g>
	</g>
	<g>
		<g>
			<g>
				<path fill="#00BC8B" d="M20.9305,59.17439c-0.14946-0.43065,0.08256-0.90553,0.51368-1.05465l0,0
					c0.43112-0.14912,0.90595,0.08279,1.05542,0.51344l0,0c0.14892,0.43092-0.0831,0.9058-0.51422,1.05492l0,0
					c-0.08795,0.0275-0.18238,0.04422-0.27033,0.04422l0,0C21.37242,59.73232,21.04651,59.51686,20.9305,59.17439z"/>
			</g>
			<g>
				<path fill="#00BC8B" d="M20.1134,55.40218L20.1134,55.40218c-0.04964-0.45843,0.28166-0.86724,0.73491-0.91119l0,0
					c0.45325-0.04989,0.86171,0.28153,0.91189,0.73429l0,0c0.04964,0.45303-0.2822,0.86158-0.73491,0.91146l0,0
					c-0.03345,0.00539-0.06097,0.00539-0.08849,0.00539l0,0C20.51701,56.14213,20.15765,55.82743,20.1134,55.40218z"/>
			</g>
			<g>
				<path fill="#00BC8B" d="M53.59015,51.77401c-0.04964-0.45277,0.28759-0.86158,0.7403-0.9058l0,0
					c0.45325-0.04962,0.86225,0.2818,0.90649,0.74023l0,0c0.04424,0.45843-0.2876,0.86157-0.7403,0.90553l0,0
					c-0.02806,0.00566-0.05558,0.00566-0.0831,0.00566l0,0C53.99376,52.51963,53.629,52.20493,53.59015,51.77401z"/>
			</g>
			<g>
				<path fill="#00BC8B" d="M21.48843,48.53212c-0.43112-0.14912-0.65775-0.624-0.50289-1.05465l0,0
					c0.15486-0.43632,0.62969-0.65717,1.06081-0.50265l0,0c0.43112,0.14912,0.65181,0.624,0.50289,1.05492l0,0
					c-0.1214,0.34221-0.44192,0.55227-0.78455,0.55227l0,0C21.6762,48.58201,21.58231,48.56529,21.48843,48.53212z"/>
			</g>
			<g>
				<path fill="#00BC8B" d="M22.98036,45.05832c-0.38688-0.24836-0.49749-0.76207-0.24875-1.1431l0,0
					c0.24281-0.3867,0.75703-0.50266,1.14337-0.25402l0,0c0.38148,0.24297,0.49749,0.75668,0.25414,1.1431l0,0
					c-0.15972,0.24863-0.43058,0.38103-0.70145,0.38103l0,0C23.27281,45.18533,23.11849,45.14677,22.98036,45.05832z"/>
			</g>
			<g>
				<path fill="#00BC8B" d="M49.08142,42.18101c-0.32051-0.32575-0.32051-0.85052,0.01133-1.17061l0,0
					c0.32591-0.32036,0.85092-0.31497,1.17143,0.01105l0,0c0.32051,0.32576,0.31458,0.85025-0.01133,1.17061l0,0
					c-0.16025,0.16018-0.37015,0.23758-0.58005,0.23758l0,0C49.45751,42.42964,49.24168,42.34685,49.08142,42.18101z"/>
			</g>
			<g>
				<path fill="#00BC8B" d="M28.06913,39.5135c-0.23796-0.38643-0.12195-0.89447,0.27033-1.13744l0,0
					c0.38688-0.24324,0.89516-0.12162,1.13851,0.26508l0,0c0.24281,0.39209,0.1214,0.90014-0.26547,1.1431l0,0
					c-0.13813,0.08279-0.28706,0.12162-0.43652,0.12162l0,0C28.49972,39.90586,28.22939,39.76779,28.06913,39.5135z"/>
			</g>
			<g>
				<path fill="#00BC8B" d="M43.06458,38.32617c-0.43113-0.15451-0.65181-0.62939-0.49749-1.06031l0,0
					c0.15486-0.43065,0.63023-0.65178,1.06081-0.49699l0,0c0.43112,0.15452,0.65235,0.62967,0.49749,1.06032l0,0
					c-0.1214,0.33681-0.44191,0.54688-0.77915,0.54688l0,0C43.25235,38.37606,43.15847,38.35934,43.06458,38.32617z"/>
			</g>
			<g>
				<path fill="#00BC8B" d="M35.0637,36.73569c-0.04964-0.45276,0.2822-0.86157,0.73491-0.91119h0.00594
					c0.45271-0.04422,0.85631,0.28719,0.90596,0.73996l0,0c0.04424,0.45303-0.28166,0.86157-0.7403,0.9058l0,0
					c0,0,0,0,0.00539,0.00539l0,0c-0.03291,0-0.06097,0.00566-0.08849,0.00566l0,0
					C35.4673,37.48132,35.10794,37.16095,35.0637,36.73569z"/>
			</g>
			<g>
				<path fill="#00BC8B" d="M23.3667,63.17295c-0.22069,0-0.43058-0.08845-0.59084-0.24297
					c-0.03345-0.03883-0.07176-0.08305-0.09982-0.12701c-0.03291-0.04422-0.05504-0.09411-0.07716-0.14373
					s-0.03885-0.09924-0.04964-0.15452c-0.01133-0.04989-0.01673-0.1049-0.01673-0.16018c0-0.21546,0.08849-0.43092,0.24335-0.58544
					c0.03831-0.03856,0.08256-0.07173,0.1268-0.1049c0.04424-0.02777,0.09389-0.05528,0.14353-0.07173
					c0.05018-0.02211,0.10522-0.03883,0.15486-0.04988c0.27087-0.05528,0.55792,0.03316,0.74624,0.22652
					c0.15432,0.15451,0.24281,0.36998,0.24281,0.58544c0,0.22086-0.08849,0.43065-0.24281,0.58544
					c-0.03345,0.03856-0.0777,0.07173-0.12195,0.1049c-0.04424,0.0275-0.09389,0.05528-0.14353,0.07739
					c-0.04964,0.01645-0.10522,0.0329-0.15486,0.04396C23.47192,63.16729,23.41688,63.17295,23.3667,63.17295z"/>
			</g>
			<g>
				<path fill="#00BC8B" d="M18.65941,60.61034c-0.16026-0.42526,0.05504-0.9058,0.48076-1.06598l0,0
					c0.42519-0.16557,0.90595,0.04989,1.0716,0.48054l0,0c0.16026,0.42526-0.05504,0.9058-0.48076,1.06598l0,0
					c-0.09928,0.03856-0.19856,0.05528-0.29245,0.05528l0,0C19.10133,61.14616,18.78621,60.94176,18.65941,60.61034z"/>
			</g>
			<g>
				<path fill="#00BC8B" d="M17.62612,56.81078c-0.07716-0.45303,0.23202-0.87802,0.67987-0.95002l0,0
					c0.45271-0.08279,0.87843,0.22652,0.95559,0.67389l0,0c0.07716,0.45277-0.22662,0.87803-0.67933,0.95542l0,0
					c-0.04425,0.01106-0.09443,0.01106-0.13813,0.01106l0,0C18.04591,57.50113,17.69788,57.21933,17.62612,56.81078z"/>
			</g>
			<g>
				<path fill="#00BC8B" d="M18.15652,53.73447c-0.45864-0.01079-0.81746-0.39209-0.80667-0.84486l0,0
					c0.01079-0.45843,0.39227-0.82274,0.84552-0.80629l0,0c0.45864,0.00539,0.81746,0.3867,0.81207,0.84486l0,0
					c-0.01079,0.45303-0.38148,0.80629-0.82879,0.80629l0,0C18.17325,53.73447,18.16192,53.73447,18.15652,53.73447z"/>
			</g>
			<g>
				<path fill="#00BC8B" d="M18.45491,49.97374c-0.44731-0.09951-0.72951-0.54121-0.62969-0.98859l0,0
					c0.09928-0.44737,0.5412-0.72917,0.98905-0.62966l0,0c0.44731,0.0995,0.72897,0.54121,0.62969,0.98292l0,0
					c-0.08849,0.3867-0.43112,0.65178-0.80667,0.65178l0,0C18.57632,49.99019,18.51588,49.98479,18.45491,49.97374z"/>
			</g>
			<g>
				<path fill="#00BC8B" d="M55.38898,46.33792c-0.18238-0.42526,0.01619-0.91119,0.44191-1.08809l0,0
					c0.41979-0.17663,0.90595,0.02211,1.08294,0.44198l0,0c0.17698,0.4196-0.02212,0.90553-0.44191,1.08243l0,0
					c-0.10522,0.04422-0.21583,0.06634-0.32051,0.06634l0,0C55.8255,46.84058,55.52117,46.65262,55.38898,46.33792z"/>
			</g>
			<g>
				<path fill="#00BC8B" d="M21.18464,42.96519c-0.37609-0.26508-0.46997-0.77851-0.2045-1.15416l0,0
					c0.25954-0.37537,0.77915-0.46382,1.1547-0.20441l0,0c0.37555,0.25969,0.46404,0.7734,0.2045,1.15443l0,0
					c-0.16026,0.22625-0.42033,0.35326-0.67987,0.35326l0,0C21.49382,43.11431,21.32817,43.06469,21.18464,42.96519z"/>
			</g>
			<g>
				<path fill="#00BC8B" d="M23.51077,39.98864c-0.32051-0.33142-0.30972-0.85618,0.01619-1.17627l0,0
					c0.33184-0.31497,0.85685-0.30391,1.17682,0.02184l0,0c0.31511,0.32602,0.30972,0.85052-0.02212,1.17088l0,0
					c-0.15971,0.15479-0.37015,0.23191-0.57411,0.23191l0,0C23.89171,40.237,23.67102,40.15422,23.51077,39.98864z"/>
			</g>
			<g>
				<path fill="#00BC8B" d="M48.02601,37.91763c-0.38094-0.25969-0.48022-0.77312-0.22609-1.14877l0,0
					c0.25414-0.38103,0.76782-0.48593,1.1493-0.22652l0,0c0.38094,0.25402,0.48023,0.76773,0.22609,1.14877l0,0
					c-0.16026,0.23757-0.41979,0.36459-0.68473,0.36459l0,0C48.33033,38.0557,48.17007,38.01147,48.02601,37.91763z"/>
			</g>
			<g>
				<path fill="#00BC8B" d="M29.64363,35.63115c-0.17105-0.42526,0.03885-0.91119,0.45864-1.07703l0,0
					c0.43113-0.17097,0.91189,0.03317,1.08294,0.45843l0,0c0.16565,0.42526-0.03885,0.91119-0.46404,1.07703l0,0
					c-0.09982,0.04423-0.2045,0.06068-0.30378,0.06068l0,0C30.08554,36.15026,29.77636,35.95152,29.64363,35.63115z"/>
			</g>
			<g>
				<path fill="#00BC8B" d="M41.39026,35.13956c-0.44731-0.09384-0.73491-0.53016-0.64642-0.97753l0,0
					c0.08849-0.44737,0.52501-0.73429,0.97826-0.64611l0,0c0.44731,0.08845,0.73491,0.53016,0.64642,0.97753l0,0
					c-0.08309,0.39209-0.42573,0.66283-0.8126,0.66283l0,0C41.50088,35.15628,41.44584,35.15062,41.39026,35.13956z"/>
			</g>
			<g>
				<path fill="#00BC8B" d="M21.1404,64.56469c-0.05558,0-0.11061-0.00567-0.16025-0.01672
					c-0.05558-0.01105-0.11061-0.02211-0.16026-0.04423c-0.04964-0.02184-0.09389-0.04961-0.13813-0.07712
					c-0.04964-0.02778-0.09389-0.06634-0.12734-0.1049c-0.15486-0.15479-0.24281-0.36458-0.24281-0.58544
					c0-0.05528,0.0054-0.1049,0.01619-0.16018c0.00593-0.05528,0.02212-0.1049,0.04424-0.15479
					c0.02212-0.04962,0.04964-0.09924,0.0777-0.14346c0.02752-0.04422,0.06637-0.08845,0.10468-0.12701
					c0.03345-0.03856,0.0777-0.07173,0.12734-0.09951c0.04424-0.03317,0.08849-0.06067,0.13813-0.07712
					c0.04964-0.02211,0.10468-0.03883,0.16026-0.04989c0.26493-0.05528,0.55253,0.03317,0.7457,0.22652
					c0.03885,0.03856,0.07176,0.08279,0.09928,0.12701c0.03345,0.04423,0.05558,0.09385,0.0777,0.14346
					c0.02212,0.04988,0.03831,0.09951,0.04964,0.15479c0.01079,0.05528,0.01673,0.1049,0.01673,0.16018
					c0,0.22086-0.08849,0.43065-0.24335,0.58544C21.57098,64.47623,21.35569,64.56469,21.1404,64.56469z"/>
			</g>
		</g>
		<g>
			<g>
				<path fill="#FF4257" d="M52.21077,63.80828c-0.05558,0-0.10522-0.00539-0.16026-0.01645s-0.10522-0.02211-0.15486-0.04423
					c-0.04964-0.02211-0.09928-0.04962-0.14353-0.07739c-0.04424-0.0275-0.08849-0.06634-0.12734-0.1049
					c-0.15432-0.15452-0.24281-0.36459-0.24281-0.58544c0-0.21546,0.08849-0.43065,0.24281-0.58544
					c0.03885-0.03856,0.0831-0.07173,0.12734-0.1049c0.04425-0.0275,0.09389-0.05528,0.14353-0.07173
					c0.04964-0.02211,0.09982-0.03856,0.15486-0.04962c0.27087-0.04988,0.55792,0.03856,0.7457,0.22625
					c0.15486,0.15479,0.24335,0.36998,0.24335,0.58544c0,0.22086-0.08849,0.43092-0.24335,0.58544
					C52.64189,63.71983,52.43145,63.80828,52.21077,63.80828z"/>
			</g>
			<g>
				<path fill="#FF4257" d="M53.7318,59.85923c-0.43112-0.15479-0.65181-0.62967-0.49749-1.06059l0,0
					c0.15486-0.43065,0.63023-0.65151,1.06081-0.49699l0,0c0.43112,0.15479,0.65235,0.63506,0.4921,1.06031h0.00539
					c-0.12141,0.33708-0.44191,0.54688-0.77915,0.54688l0,0C53.91957,59.90885,53.82569,59.89213,53.7318,59.85923z"/>
			</g>
			<g>
				<path fill="#FF4257" d="M54.79517,56.58718c-0.44785-0.05528-0.77376-0.46949-0.71872-0.92764l0,0
					c0.05558-0.45303,0.46997-0.77879,0.92322-0.71811l0,0c0.45271,0.05528,0.77861,0.46382,0.72358,0.92225l0,0
					c-0.05504,0.41986-0.409,0.72917-0.8234,0.72917l0,0C54.86694,56.59284,54.83348,56.58718,54.79517,56.58718z"/>
			</g>
			<g>
				<path fill="#FF4257" d="M21.21356,52.70758c-0.4581-0.05501-0.77861-0.46922-0.72897-0.92225l0,0
					c0.05504-0.45277,0.46404-0.77879,0.91728-0.7289l0,0c0.45864,0.05528,0.78455,0.46382,0.72897,0.92225l0,0
					c-0.04964,0.4196-0.40846,0.73456-0.82286,0.73456l0,0C21.27453,52.71325,21.24162,52.70758,21.21356,52.70758z"/>
			</g>
			<g>
				<path fill="#FF4257" d="M53.22733,48.70929c-0.14893-0.43092,0.08849-0.90014,0.51962-1.04926l0,0
					c0.43058-0.14912,0.90055,0.08818,1.04948,0.5191l0,0c0.14946,0.43065-0.08256,0.90014-0.51908,1.04926l0,0
					c-0.08849,0.03317-0.17698,0.04422-0.26547,0.04422l0,0C53.66925,49.27261,53.34334,49.05715,53.22733,48.70929z"/>
			</g>
			<g>
				<path fill="#FF4257" d="M51.69709,45.462c-0.23796-0.39236-0.11601-0.9058,0.27033-1.14337l0,0
					c0.39227-0.2373,0.90056-0.11596,1.13851,0.27074h0.00539c0.23742,0.38643,0.11601,0.90014-0.27087,1.13771l0,0
					c-0.13813,0.08818-0.28706,0.12701-0.43652,0.12701l0,0C52.12767,45.85409,51.85734,45.71602,51.69709,45.462z"/>
			</g>
			<g>
				<path fill="#FF4257" d="M25.61761,42.45201c-0.32591-0.32575-0.32051-0.85052,0.0054-1.17088l0,0
					c0.3259-0.32575,0.85092-0.32036,1.17143,0.00566l0,0c0.32051,0.32575,0.32051,0.85052-0.0054,1.17061l0,0
					c-0.16026,0.16018-0.37609,0.23757-0.58598,0.23757l0,0C25.99315,42.69498,25.77786,42.61219,25.61761,42.45201z"/>
			</g>
			<g>
				<path fill="#FF4257" d="M46.69087,40.36455c-0.38688-0.24863-0.49695-0.76234-0.24874-1.14877l0,0
					c0.24335-0.38103,0.75703-0.49726,1.14391-0.24863l0,0c0.38148,0.24863,0.49749,0.76207,0.24874,1.1431l0,0
					c-0.16026,0.24863-0.42573,0.3813-0.69606,0.3813l0,0C46.98386,40.49156,46.829,40.45273,46.69087,40.36455z"/>
			</g>
			<g>
				<path fill="#FF4257" d="M31.80604,38.17731c-0.14407-0.43605,0.08256-0.90553,0.51908-1.05465l0,0
					c0.43112-0.14912,0.90055,0.08818,1.05002,0.5191l0,0c0.14893,0.43065-0.0831,0.90014-0.51422,1.04926l0,0
					c-0.08795,0.03317-0.18238,0.04422-0.27033,0.04422l0,0C32.24796,38.73524,31.92205,38.51978,31.80604,38.17731z"/>
			</g>
			<g>
				<path fill="#FF4257" d="M39.96663,37.95107c-0.45325-0.05528-0.77915-0.46949-0.72358-0.92225l0,0
					c0.05504-0.45303,0.46404-0.77879,0.92268-0.72351l0,0c0.45271,0.05528,0.77916,0.46382,0.72358,0.92225l0,0
					c-0.04964,0.41959-0.409,0.7289-0.82339,0.7289l0,0C40.033,37.95646,39.99955,37.95107,39.96663,37.95107z"/>
			</g>
			<g>
				<path fill="#FF4257" d="M54.41549,65.23318c-0.21583,0-0.43113-0.08845-0.58598-0.24297
					c-0.03831-0.03883-0.07177-0.08279-0.09928-0.12701c-0.03345-0.04422-0.05558-0.09384-0.07716-0.14373
					c-0.02213-0.04961-0.03885-0.09924-0.05018-0.15452c-0.01079-0.05527-0.01619-0.1049-0.01619-0.16018
					c0-0.22086,0.08795-0.43631,0.24281-0.58544c0.19371-0.19335,0.48077-0.28153,0.75163-0.23191
					c0.04964,0.01105,0.10468,0.02751,0.15486,0.04962c0.04964,0.02211,0.09389,0.04422,0.14353,0.07739
					c0.04424,0.02751,0.08849,0.06634,0.1214,0.1049c0.15486,0.14912,0.24335,0.36458,0.24335,0.58544
					c0,0.05528-0.00594,0.1049-0.01673,0.16018c-0.00539,0.05528-0.02212,0.1049-0.04424,0.15452
					c-0.02213,0.04989-0.04964,0.09951-0.07716,0.14373c-0.02806,0.04423-0.06637,0.08818-0.10522,0.12701
					c-0.03291,0.03856-0.07716,0.07173-0.1214,0.09924c-0.04964,0.03316-0.09389,0.05528-0.14353,0.07739
					c-0.05018,0.02211-0.10522,0.03883-0.15486,0.04989C54.52556,65.22752,54.47052,65.23318,54.41549,65.23318z"/>
			</g>
			<g>
				<path fill="#FF4257" d="M55.84105,61.82005c-0.42573-0.17124-0.63023-0.65151-0.45864-1.07677l0,0
					c0.16565-0.42526,0.64642-0.63506,1.0716-0.46409l0,0c0.42573,0.17124,0.63562,0.65178,0.46404,1.07704l0,0
					c-0.1268,0.32575-0.44191,0.5191-0.76782,0.5191l0,0C56.04501,61.87533,55.94573,61.85888,55.84105,61.82005z"/>
			</g>
			<g>
				<path fill="#FF4257" d="M57.04539,58.23595c-0.44785-0.08279-0.74624-0.51371-0.66314-0.96647l0,0
					c0.0831-0.44737,0.51368-0.74562,0.96693-0.66283l0,0c0.44785,0.08279,0.7457,0.51371,0.66314,0.96647l0,0
					c-0.07177,0.39775-0.4198,0.67928-0.818,0.67928l0,0C57.14468,58.2524,57.09504,58.24701,57.04539,58.23595z"/>
			</g>
			<g>
				<path fill="#FF4257" d="M56.69197,53.66866c0-0.45843,0.36422-0.8284,0.82286-0.83407l0,0
					c0.45864-0.00539,0.83473,0.35919,0.83473,0.81735l0,0c0.0054,0.45843-0.35936,0.83407-0.818,0.83407l0,0
					c-0.0054,0-0.01079,0-0.01079,0l0,0C57.06752,54.48602,56.69736,54.12143,56.69197,53.66866z"/>
			</g>
			<g>
				<path fill="#FF4257" d="M56.31049,50.07324c-0.08849-0.44737,0.1991-0.88342,0.64642-0.97753l0,0
					c0.44731-0.08818,0.88383,0.19901,0.97826,0.64639l0,0c0.09388,0.4471-0.19371,0.88342-0.64696,0.97753l0,0
					c-0.05504,0.01079-0.11007,0.01645-0.16565,0.01645l0,0C56.73568,50.73608,56.39358,50.46533,56.31049,50.07324z"/>
			</g>
			<g>
				<path fill="#FF4257" d="M19.31882,46.52948c-0.41979-0.18769-0.60757-0.67362-0.42519-1.09349l0,0
					c0.18238-0.41959,0.67393-0.60755,1.08833-0.42526l0,0c0.41979,0.18795,0.6135,0.67389,0.42573,1.09349l0,0l0,0l0,0
					c-0.13274,0.3093-0.43652,0.49726-0.75703,0.49726l0,0C19.54005,46.60148,19.42404,46.57937,19.31882,46.52948z"/>
			</g>
			<g>
				<path fill="#FF4257" d="M53.52032,43.446c-0.25414-0.38103-0.15486-0.89447,0.22662-1.1485l0,0
					c0.38094-0.25429,0.89462-0.16018,1.1493,0.22086l0,0c0.25414,0.38103,0.15432,0.89447-0.22662,1.14877l0,0
					c-0.13813,0.09924-0.30433,0.14346-0.45864,0.14346l0,0C53.94012,43.81058,53.68058,43.68357,53.52032,43.446z"/>
			</g>
			<g>
				<path fill="#FF4257" d="M51.22172,40.65714c-0.32591-0.32036-0.32591-0.84485,0-1.17088l0,0
					c0.32051-0.32576,0.84552-0.32576,1.17142,0l0,0c0.32051,0.32036,0.32051,0.84512,0,1.17088l0,0
					c-0.16565,0.16018-0.37609,0.24297-0.58598,0.24297l0,0C51.59187,40.9001,51.38197,40.81732,51.22172,40.65714z"/>
			</g>
			<g>
				<path fill="#FF4257" d="M26.76691,37.96212c-0.24875-0.3867-0.14407-0.90041,0.24281-1.14877l0,0
					c0.38148-0.24863,0.89516-0.13807,1.14391,0.24297l0,0c0.25414,0.3867,0.14353,0.89474-0.24335,1.14877l0,0
					c-0.13813,0.08845-0.29245,0.1324-0.44731,0.1324l0,0C27.1921,38.33749,26.92123,38.20509,26.76691,37.96212z"/>
			</g>
			<g>
				<path fill="#FF4257" d="M45.24318,36.64751c-0.41979-0.17663-0.62429-0.66256-0.44731-1.08243l0,0
					c0.18238-0.4196,0.66314-0.61834,1.08833-0.44171l0,0C46.304,35.3,46.5031,35.7862,46.32612,36.2058l0,0
					c-0.1322,0.3147-0.43652,0.50805-0.76242,0.50805l0,0C45.45901,36.71385,45.3484,36.69174,45.24318,36.64751z"/>
			</g>
			<g>
				<path fill="#FF4257" d="M33.62388,34.86935c-0.0831-0.45276,0.21529-0.88369,0.6626-0.96647l0,0
					c0.44785-0.08279,0.88437,0.2098,0.96693,0.66283l0,0c0.0831,0.4471-0.2099,0.87802-0.66261,0.96647l0,0
					c-0.05018,0.00539-0.09982,0.01078-0.15486,0.01078l0,0C34.04907,35.54297,33.70104,35.26683,33.62388,34.86935z"/>
			</g>
			<g>
				<path fill="#FF4257" d="M38.19304,35.21182L38.19304,35.21182L38.19304,35.21182c-0.45864,0-0.8288-0.37564-0.8234-0.83407l0,0
					c0.00539-0.45843,0.37609-0.82274,0.83419-0.82274l0,0c0.45864,0.00539,0.82879,0.38103,0.82339,0.8338l0,0
					c-0.00539,0.45304-0.37015,0.82301-0.82339,0.82301l0,0C38.19843,35.21182,38.19843,35.21182,38.19304,35.21182z"/>
			</g>
		</g>
		<g>
			<path fill="#262626" d="M37.64844,72.79492c-4.7207,0-9.15918-1.83789-12.49707-5.17578
				c-0.32324-0.32324-0.32324-0.84863,0-1.17188c0.32422-0.32227,0.84766-0.32227,1.17188,0
				c3.02441,3.02539,7.04688,4.69141,11.3252,4.69141s8.30078-1.66602,11.32422-4.69141c0.32422-0.32227,0.84766-0.32422,1.17188,0
				c0.32324,0.32324,0.32324,0.84766,0,1.17188C46.80762,70.95703,42.37012,72.79492,37.64844,72.79492z"/>
		</g>
	</g>
	<g>
		<circle fill="#252626" cx="17.51179" cy="156.5" r="14.87217"/>
	</g>
	<g>
		<path fill="#252626" d="M57.87695,93.94824c-0.11914,0-0.24023-0.02832-0.35352-0.08887L40.3203,84.63184
			c-2.20214-1.18163-3.5703-3.46777-3.5703-5.96581V71.9668c0-0.41406,0.33594-0.75,0.75-0.75s0.75,0.33594,0.75,0.75v6.69922
			c0,1.94434,1.06543,3.72363,2.7793,4.64355l17.20313,9.22754c0.36523,0.19629,0.50195,0.65039,0.30664,1.01563
			C58.40332,93.80469,58.14453,93.94824,57.87695,93.94824z"/>
	</g>
	<g>
		<path fill="#FF4257" d="M37.53711,211.25c-3.70898,0-6.72656-3.01758-6.72656-6.72656v-9.85742c0-0.41406,0.33594-0.75,0.75-0.75
			s0.75,0.33594,0.75,0.75v9.85742c0,2.88184,2.34473,5.22656,5.22656,5.22656s5.22656-2.34473,5.22656-5.22656v-9.85645
			c0-0.41406,0.33594-0.75,0.75-0.75s0.75,0.33594,0.75,0.75v9.85645C44.26367,208.23242,41.24609,211.25,37.53711,211.25z"/>
	</g>
	<g>
		<path fill="#FF4257" d="M43.51367,229.08301c-0.41406,0-0.75-0.33594-0.75-0.75v-9.85645
			c0-2.88184-2.34473-5.22656-5.22656-5.22656s-5.22656,2.34473-5.22656,5.22656v9.85645c0,0.41406-0.33594,0.75-0.75,0.75
			s-0.75-0.33594-0.75-0.75v-9.85645c0-3.70898,3.01758-6.72656,6.72656-6.72656s6.72656,3.01758,6.72656,6.72656v9.85645
			C44.26367,228.74707,43.92773,229.08301,43.51367,229.08301z"/>
	</g>
	<g>
		<path fill="#252626" d="M57.49707,261.25c-0.11914,0-0.24023-0.02832-0.35352-0.08887l-9.83887-5.27637
			c-2.79785-1.50195-4.53613-4.40625-4.53613-7.58105l0.03711-13.60547c0.00098-0.41406,0.33691-0.74805,0.75-0.74805
			c0.00098,0,0.00098,0,0.00195,0c0.41406,0.00098,0.74902,0.33789,0.74805,0.75195l-0.03711,13.60352
			c0,2.61914,1.43555,5.01758,3.74512,6.25684l9.83887,5.27637c0.36523,0.19629,0.50195,0.65039,0.30664,1.01563
			C58.02344,261.10645,57.76465,261.25,57.49707,261.25z"/>
	</g>
	<g>
		<path fill="#252626" d="M16.98926,250.55664c-0.26758,0-0.52637-0.14355-0.66211-0.39551
			c-0.19531-0.36523-0.05859-0.81934,0.30664-1.01563l10.38965-5.57227c2.31055-1.23828,3.74512-3.63672,3.74512-6.25879v-2.61426
			c0-0.41406,0.33594-0.75,0.75-0.75s0.75,0.33594,0.75,0.75v2.61426c0,3.17578-1.73828,6.08105-4.53613,7.58105l-10.38965,5.57227
			C17.22949,250.52832,17.1084,250.55664,16.98926,250.55664z"/>
	</g>
	<g>
		<g>
			<path fill="#FF4257" d="M47.51953,190.5498c-0.21973,0-0.42969-0.08008-0.58984-0.24023
				c-0.08008-0.08008-0.13965-0.16992-0.17969-0.26953c-0.04004-0.10059-0.06055-0.2002-0.06055-0.31055
				c0-0.10938,0.02051-0.21973,0.06055-0.31934c0.0498-0.10059,0.10938-0.19043,0.17969-0.27051
				c0.08008-0.08008,0.16992-0.13965,0.27051-0.17969c0.30957-0.12988,0.66992-0.0498,0.90918,0.17969
				c0.15039,0.16016,0.24023,0.37012,0.24023,0.58984c0,0.10059-0.01953,0.20996-0.07031,0.31055
				c-0.03906,0.09961-0.09961,0.18945-0.16992,0.26953C47.9502,190.46973,47.74023,190.5498,47.51953,190.5498z"/>
		</g>
		<g>
			<path fill="#FF4257" d="M46.68945,185.75c0-0.45996,0.37012-0.83008,0.83008-0.83008l0,0
				c0.45996,0,0.83008,0.37012,0.83008,0.83008l0,0c0,0.4502-0.37012,0.83008-0.83008,0.83008l0,0
				C47.05957,186.58008,46.68945,186.2002,46.68945,185.75z"/>
		</g>
		<g>
			<path fill="#FF4257" d="M47.51953,182.59961c-0.10938,0-0.21973-0.01953-0.31934-0.05957
				c-0.10059-0.0498-0.19043-0.11035-0.27051-0.18066c-0.08008-0.0791-0.13965-0.16992-0.17969-0.26953
				s-0.06055-0.20996-0.06055-0.32031c0-0.21973,0.08984-0.42969,0.24023-0.58008c0.31055-0.30957,0.87012-0.30957,1.17969,0
				c0.07031,0.07031,0.13086,0.16016,0.16992,0.26074c0.05078,0.10938,0.07031,0.20996,0.07031,0.31934
				c0,0.11035-0.01953,0.2207-0.07031,0.32031c-0.03906,0.09961-0.09961,0.19043-0.16992,0.26953
				C47.93945,182.50977,47.74023,182.59961,47.51953,182.59961z"/>
		</g>
	</g>
	<g>
		<path fill="#252626" d="M43.51855,189.03809c-0.41406,0-0.75-0.33594-0.75-0.75v-8.63867
			c0-3.17383,1.73828-6.0791,4.53613-7.58105l9.75098-5.22949c0.36719-0.19629,0.81934-0.05762,1.01563,0.30664
			c0.19531,0.36523,0.05859,0.81934-0.30664,1.01563l-9.75098,5.22949c-2.30957,1.24023-3.74512,3.6377-3.74512,6.25879v8.63867
			C44.26855,188.70215,43.93262,189.03809,43.51855,189.03809z"/>
	</g>
	<g>
		<path fill="#252626" d="M31.51855,189.03809c-0.41406,0-0.75-0.33594-0.75-0.75v-19.79492
			c0-2.62207-1.43457-5.02051-3.74512-6.25879l-9.90039-5.30957c-0.36523-0.19629-0.50195-0.65039-0.30664-1.01563
			c0.19531-0.36426,0.64746-0.50391,1.01563-0.30664l9.90039,5.30957c2.79785,1.5,4.53613,4.40527,4.53613,7.58105v19.79492
			C32.26855,188.70215,31.93262,189.03809,31.51855,189.03809z"/>
	</g>
	<g>
		<g>
			<path fill="#FF4257" d="M38.7002,201.54004c0-0.4502,0.36914-0.82031,0.8291-0.82031l0,0
				c0.46094,0,0.83008,0.37012,0.83008,0.82031l0,0c0,0.45996-0.36914,0.83008-0.83008,0.83008l0,0
				C39.06934,202.37012,38.7002,202,38.7002,201.54004z M38.7002,197.91992c0-0.45996,0.36914-0.83008,0.8291-0.83008l0,0
				c0.46094,0,0.83008,0.37012,0.83008,0.83008l0,0c0,0.45996-0.36914,0.83008-0.83008,0.83008l0,0
				C39.06934,198.75,38.7002,198.37988,38.7002,197.91992z M38.7002,194.29004c0-0.45996,0.36914-0.83008,0.8291-0.83008l0,0
				c0.46094,0,0.83008,0.37012,0.83008,0.83008l0,0c0,0.45996-0.36914,0.83008-0.83008,0.83008l0,0
				C39.06934,195.12012,38.7002,194.75,38.7002,194.29004z M38.7002,190.66992c0-0.45996,0.36914-0.83008,0.8291-0.83008l0,0
				c0.46094,0,0.83008,0.37012,0.83008,0.83008l0,0c0,0.4502-0.36914,0.82031-0.83008,0.82031l0,0
				C39.06934,191.49023,38.7002,191.12012,38.7002,190.66992z M38.7002,187.04004c0-0.45996,0.36914-0.83008,0.8291-0.83008l0,0
				c0.46094,0,0.83008,0.37012,0.83008,0.83008l0,0c0,0.45996-0.36914,0.83008-0.83008,0.83008l0,0
				C39.06934,187.87012,38.7002,187.5,38.7002,187.04004z M38.7002,183.41016c0-0.45996,0.36914-0.83008,0.8291-0.83008l0,0
				c0.46094,0,0.83008,0.37012,0.83008,0.83008l0,0c0,0.45996-0.36914,0.83008-0.83008,0.83008l0,0
				C39.06934,184.24023,38.7002,183.87012,38.7002,183.41016z M38.7002,179.79004c0-0.45996,0.36914-0.83008,0.8291-0.83008l0,0
				c0.46094,0,0.83008,0.37012,0.83008,0.83008l0,0c0,0.45996-0.36914,0.81934-0.83008,0.81934l0,0
				C39.06934,180.60938,38.7002,180.25,38.7002,179.79004z M38.7002,176.16016c0-0.45996,0.36914-0.83008,0.8291-0.83008l0,0
				c0.46094,0,0.83008,0.37012,0.83008,0.83008l0,0c0,0.45996-0.36914,0.83008-0.83008,0.83008l0,0
				C39.06934,176.99023,38.7002,176.62012,38.7002,176.16016z M38.7002,172.53027c0-0.4502,0.36914-0.83008,0.8291-0.83008l0,0
				c0.46094,0,0.83008,0.37988,0.83008,0.83008l0,0c0,0.45996-0.36914,0.8291-0.83008,0.8291l0,0
				C39.06934,173.35938,38.7002,172.99023,38.7002,172.53027z M38.7002,168.91016c0-0.45996,0.36914-0.83008,0.8291-0.83008l0,0
				c0.46094,0,0.83008,0.37012,0.83008,0.83008l0,0c0,0.44922-0.36914,0.83008-0.83008,0.83008l0,0
				C39.06934,169.74023,38.7002,169.35938,38.7002,168.91016z M38.7002,165.28027c0-0.46094,0.36914-0.83008,0.8291-0.83008l0,0
				c0.46094,0,0.83008,0.36914,0.83008,0.83008l0,0c0,0.45996-0.36914,0.8291-0.83008,0.8291l0,0
				C39.06934,166.10938,38.7002,165.74023,38.7002,165.28027z M38.7002,161.66016c0-0.45996,0.36914-0.83008,0.8291-0.83008l0,0
				c0.46094,0,0.83008,0.37012,0.83008,0.83008l0,0c0,0.44922-0.36914,0.81934-0.83008,0.81934l0,0
				C39.06934,162.47949,38.7002,162.10938,38.7002,161.66016z M38.7002,158.03027c0-0.46094,0.36914-0.83008,0.8291-0.83008l0,0
				c0.46094,0,0.83008,0.36914,0.83008,0.83008l0,0c0,0.45996-0.36914,0.8291-0.83008,0.8291l0,0
				C39.06934,158.85938,38.7002,158.49023,38.7002,158.03027z M38.7002,154.39941c0-0.44922,0.36914-0.83008,0.8291-0.83008l0,0
				c0.46094,0,0.83008,0.38086,0.83008,0.83008l0,0c0,0.45996-0.36914,0.83008-0.83008,0.83008l0,0
				C39.06934,155.22949,38.7002,154.85938,38.7002,154.39941z M38.7002,150.76953c0-0.4502,0.36914-0.81934,0.8291-0.81934l0,0
				c0.46094,0,0.83008,0.36914,0.83008,0.81934l0,0c0,0.45996-0.36914,0.83008-0.83008,0.83008l0,0
				C39.06934,151.59961,38.7002,151.22949,38.7002,150.76953z M38.7002,147.14941c0-0.45996,0.36914-0.83008,0.8291-0.83008l0,0
				c0.46094,0,0.83008,0.37012,0.83008,0.83008l0,0c0,0.45996-0.36914,0.83008-0.83008,0.83008l0,0
				C39.06934,147.97949,38.7002,147.60938,38.7002,147.14941z M38.7002,143.51953c0-0.4502,0.36914-0.83008,0.8291-0.83008l0,0
				c0.46094,0,0.83008,0.37988,0.83008,0.83008l0,0c0,0.45996-0.36914,0.83008-0.83008,0.83008l0,0
				C39.06934,144.34961,38.7002,143.97949,38.7002,143.51953z M39.91016,140.75977c-0.41016-0.2002-0.59082-0.69043-0.40039-1.11035
				l0,0c0.19043-0.40918,0.69043-0.58984,1.09961-0.39941l0,0c0.41992,0.2002,0.60059,0.68945,0.40039,1.09961l0,0
				c-0.13965,0.31055-0.44043,0.48047-0.75,0.48047l0,0C40.13965,140.83008,40.0293,140.80957,39.91016,140.75977z
				 M41.83984,137.7002c-0.29004-0.36035-0.23047-0.88086,0.12988-1.16992l0,0c0.34961-0.28027,0.87988-0.23047,1.16016,0.12988l0,0
				c0.29004,0.35938,0.22949,0.87988-0.12988,1.16992l0,0c-0.15039,0.12012-0.33008,0.17969-0.52051,0.17969l0,0
				C42.24023,138.00977,42,137.89941,41.83984,137.7002z"/>
		</g>
		<g>
			<path fill="#FF4257" d="M39.5293,206.00977c-0.10938,0-0.21973-0.01953-0.31934-0.07031
				c-0.10059-0.04004-0.19043-0.09961-0.27051-0.17969c-0.14941-0.15039-0.23926-0.36035-0.23926-0.58008
				s0.08984-0.42969,0.23926-0.58984c0.31055-0.30957,0.87012-0.30957,1.18066,0c0.14941,0.16016,0.23926,0.37012,0.23926,0.58984
				c0,0.11035-0.01953,0.20996-0.05957,0.31055c-0.04004,0.10938-0.11035,0.19922-0.17969,0.26953
				c-0.08008,0.08008-0.16992,0.13965-0.27051,0.17969C39.75,205.99023,39.63965,206.00977,39.5293,206.00977z"/>
		</g>
	</g>
	<g>
		<g>
			<path fill="#252626" d="M16.64941,118.33008c-0.10938,0-0.20996-0.02051-0.30957-0.06055
				c-0.09961-0.0498-0.19043-0.10938-0.27051-0.18945c-0.0791-0.07031-0.13965-0.16016-0.17969-0.26074
				c-0.04004-0.09961-0.07031-0.20996-0.07031-0.31934c0-0.21973,0.09082-0.43066,0.25-0.58984
				c0.30078-0.30078,0.86035-0.30078,1.1709,0c0.0791,0.08008,0.13965,0.16992,0.17969,0.26953
				c0.04004,0.10059,0.05957,0.20996,0.05957,0.32031c0,0.21973-0.08008,0.42969-0.23926,0.58008
				c-0.08008,0.08008-0.1709,0.13965-0.27051,0.18945C16.87012,118.30957,16.75977,118.33008,16.64941,118.33008z"/>
		</g>
		<g>
			<path fill="#252626" d="M34.68945,201.54004c0-0.45996,0.37012-0.83008,0.83008-0.83008l0,0
				c0.45996,0,0.83008,0.37012,0.83008,0.83008l0,0c0,0.45996-0.37012,0.83008-0.83008,0.83008l0,0
				C35.05957,202.37012,34.68945,202,34.68945,201.54004z M34.68945,197.91016c0-0.45996,0.37012-0.83008,0.83008-0.83008l0,0
				c0.45996,0,0.83008,0.37012,0.83008,0.83008l0,0c0,0.45996-0.37012,0.83008-0.83008,0.83008l0,0
				C35.05957,198.74023,34.68945,198.37012,34.68945,197.91016z M34.68945,194.28027c0-0.46094,0.37012-0.83008,0.83008-0.83008l0,0
				c0.45996,0,0.83008,0.36914,0.83008,0.83008l0,0c0,0.44922-0.37012,0.8291-0.83008,0.8291l0,0
				C35.05957,195.10938,34.68945,194.72949,34.68945,194.28027z M34.68945,190.64941c0-0.45996,0.37012-0.83008,0.83008-0.83008l0,0
				c0.45996,0,0.83008,0.37012,0.83008,0.83008l0,0c0,0.4502-0.37012,0.82031-0.83008,0.82031l0,0
				C35.05957,191.46973,34.68945,191.09961,34.68945,190.64941z M34.68945,187.01953c0-0.45996,0.37012-0.83008,0.83008-0.83008l0,0
				c0.45996,0,0.83008,0.37012,0.83008,0.83008l0,0c0,0.4502-0.37012,0.82031-0.83008,0.82031l0,0
				C35.05957,187.83984,34.68945,187.46973,34.68945,187.01953z M34.68945,183.38965c0-0.45996,0.37012-0.83008,0.83008-0.83008l0,0
				c0.45996,0,0.83008,0.37012,0.83008,0.83008l0,0c0,0.4502-0.37012,0.82031-0.83008,0.82031l0,0
				C35.05957,184.20996,34.68945,183.83984,34.68945,183.38965z M34.68945,179.75977c0-0.45996,0.37012-0.83008,0.83008-0.83008l0,0
				c0.45996,0,0.83008,0.37012,0.83008,0.83008l0,0c0,0.4502-0.37012,0.82031-0.83008,0.82031l0,0
				C35.05957,180.58008,34.68945,180.20996,34.68945,179.75977z M34.68945,176.12012c0-0.4502,0.37012-0.82031,0.83008-0.82031l0,0
				c0.45996,0,0.83008,0.37012,0.83008,0.82031l0,0c0,0.45996-0.37012,0.83008-0.83008,0.83008l0,0
				C35.05957,176.9502,34.68945,176.58008,34.68945,176.12012z M34.68945,172.49023c0-0.45996,0.37012-0.83008,0.83008-0.83008l0,0
				c0.45996,0,0.83008,0.37012,0.83008,0.83008l0,0c0,0.45996-0.37012,0.8291-0.83008,0.8291l0,0
				C35.05957,173.31934,34.68945,172.9502,34.68945,172.49023z M34.68945,168.85938c0-0.44922,0.37012-0.8291,0.83008-0.8291l0,0
				c0.45996,0,0.83008,0.37988,0.83008,0.8291l0,0c0,0.45996-0.37012,0.83008-0.83008,0.83008l0,0
				C35.05957,169.68945,34.68945,169.31934,34.68945,168.85938z M34.68945,165.22949c0-0.44922,0.37012-0.83008,0.83008-0.83008l0,0
				c0.45996,0,0.83008,0.38086,0.83008,0.83008l0,0c0,0.45996-0.37012,0.83008-0.83008,0.83008l0,0
				C35.05957,166.05957,34.68945,165.68945,34.68945,165.22949z M34.68945,161.59961c0-0.4502,0.37012-0.83008,0.83008-0.83008l0,0
				c0.45996,0,0.83008,0.37988,0.83008,0.83008l0,0c0,0.45996-0.37012,0.83008-0.83008,0.83008l0,0
				C35.05957,162.42969,34.68945,162.05957,34.68945,161.59961z M34.68945,157.96973c0-0.45996,0.37012-0.83008,0.83008-0.83008l0,0
				c0.45996,0,0.83008,0.37012,0.83008,0.83008l0,0c0,0.45996-0.37012,0.83008-0.83008,0.83008l0,0
				C35.05957,158.7998,34.68945,158.42969,34.68945,157.96973z M34.68945,154.33984c0-0.45996,0.37012-0.83008,0.83008-0.83008l0,0
				c0.45996,0,0.83008,0.37012,0.83008,0.83008l0,0c0,0.45996-0.37012,0.83008-0.83008,0.83008l0,0
				C35.05957,155.16992,34.68945,154.7998,34.68945,154.33984z M34.68945,150.70996c0-0.45996,0.37012-0.83008,0.83008-0.83008l0,0
				c0.45996,0,0.83008,0.37012,0.83008,0.83008l0,0c0,0.45996-0.37012,0.83008-0.83008,0.83008l0,0
				C35.05957,151.54004,34.68945,151.16992,34.68945,150.70996z M34.68945,147.08008c0-0.45996,0.37012-0.83008,0.83008-0.83008l0,0
				c0.45996,0,0.83008,0.37012,0.83008,0.83008l0,0c0,0.4502-0.37012,0.83008-0.83008,0.83008l0,0
				C35.05957,147.91016,34.68945,147.53027,34.68945,147.08008z M34.68945,143.4502c0-0.45996,0.37012-0.83008,0.83008-0.83008l0,0
				c0.45996,0,0.83008,0.37012,0.83008,0.83008l0,0c0,0.44922-0.37012,0.81934-0.83008,0.81934l0,0
				C35.05957,144.26953,34.68945,143.89941,34.68945,143.4502z M34.68945,139.81934c0-0.45996,0.37012-0.8291,0.83008-0.8291l0,0
				c0.45996,0,0.83008,0.36914,0.83008,0.8291l0,0c0,0.4502-0.37012,0.82031-0.83008,0.82031l0,0
				C35.05957,140.63965,34.68945,140.26953,34.68945,139.81934z M34.68945,136.18945c0-0.45996,0.37012-0.83008,0.83008-0.83008l0,0
				c0.45996,0,0.83008,0.37012,0.83008,0.83008l0,0c0,0.45996-0.37012,0.83008-0.83008,0.83008l0,0
				C35.05957,137.01953,34.68945,136.64941,34.68945,136.18945z M34.68945,132.55957c0-0.45996,0.37012-0.83008,0.83008-0.83008l0,0
				c0.45996,0,0.83008,0.37012,0.83008,0.83008l0,0c0,0.4502-0.37012,0.82031-0.83008,0.82031l0,0
				C35.05957,133.37988,34.68945,133.00977,34.68945,132.55957z M34.04004,129.37988
				c-0.19043-0.41992-0.01074-0.91016,0.41016-1.09961l0,0c0.41992-0.19043,0.90918-0.01074,1.09961,0.39941l0,0l0,0l0,0
				c0.19043,0.41992,0.00977,0.91016-0.41016,1.10059l0,0c-0.11035,0.0498-0.22949,0.0791-0.33984,0.0791l0,0
				C34.47949,129.85938,34.18945,129.67969,34.04004,129.37988z M32.05957,126.83984
				c-0.34961-0.29004-0.41016-0.80957-0.12012-1.16992l0,0c0.28027-0.35059,0.80078-0.41016,1.16016-0.12012l0,0l0,0l0,0
				c0.36035,0.28027,0.41016,0.80957,0.12988,1.16016l0,0c-0.16992,0.20996-0.41016,0.30957-0.64941,0.30957l0,0
				C32.39941,127.01953,32.21973,126.95996,32.05957,126.83984z M29.05957,125.08984
				c-0.39941-0.20996-0.55957-0.71973-0.33984-1.12012l0,0c0.21973-0.40039,0.71973-0.5498,1.12012-0.33984l0,0
				c0.41016,0.21973,0.55957,0.71973,0.33984,1.12988l0,0c-0.15039,0.27051-0.42969,0.42969-0.72949,0.42969l0,0
				C29.31934,125.18945,29.17969,125.16016,29.05957,125.08984z M25.85938,123.37988
				c-0.39941-0.21973-0.5498-0.71973-0.33984-1.12012l0,0c0.2207-0.41016,0.7207-0.55957,1.12988-0.33984l0,0
				c0.40039,0.20996,0.55078,0.71973,0.33008,1.12012l0,0c-0.14941,0.2793-0.42969,0.43945-0.72949,0.43945l0,0
				C26.12012,123.47949,25.97949,123.43945,25.85938,123.37988z M22.66016,121.66016
				c-0.40039-0.20996-0.55078-0.7207-0.34082-1.12012l0,0c0.2207-0.40039,0.7207-0.56055,1.12012-0.33984l0,0
				c0.41016,0.21973,0.56055,0.71973,0.33984,1.11914l0,0c-0.14941,0.28027-0.42969,0.44043-0.72949,0.44043l0,0
				C22.91992,121.75977,22.79004,121.72949,22.66016,121.66016z M19.45996,119.93945
				c-0.40039-0.20996-0.5498-0.70996-0.33984-1.12012l0,0c0.21973-0.39941,0.71973-0.5498,1.12988-0.33984l0,0
				c0.39941,0.2207,0.5498,0.7207,0.33008,1.12988l0,0c-0.15039,0.28027-0.43066,0.43066-0.73047,0.43066l0,0
				C19.71973,120.04004,19.58984,120.00977,19.45996,119.93945z"/>
		</g>
		<g>
			<path fill="#252626" d="M35.51953,206.00977c-0.10938,0-0.21973-0.03027-0.31934-0.07031
				c-0.10059-0.04004-0.19043-0.09961-0.27051-0.17969c-0.07031-0.07031-0.13965-0.16016-0.17969-0.26953
				c-0.04004-0.09082-0.06055-0.2002-0.06055-0.31055c0-0.21973,0.08984-0.43945,0.24023-0.58984
				c0.08008-0.08008,0.16992-0.13965,0.27051-0.17969c0.30957-0.12988,0.67969-0.05078,0.89941,0.17969
				c0.16016,0.15039,0.24023,0.37012,0.24023,0.58984c0,0.11035-0.02051,0.21973-0.06055,0.31055
				c-0.03906,0.10938-0.09961,0.19922-0.17969,0.26953c-0.08008,0.08008-0.16992,0.13965-0.26953,0.17969
				C35.72949,205.97949,35.62988,206.00977,35.51953,206.00977z"/>
		</g>
	</g>
	<g>
		<path fill="#252626" d="M37.92871,335.20508c-0.41406,0-0.75-0.33594-0.75-0.75v-21.11035c0-0.41406,0.33594-0.75,0.75-0.75
			s0.75,0.33594,0.75,0.75v21.11035C38.67871,334.86914,38.34277,335.20508,37.92871,335.20508z"/>
	</g>
	<g>
		<path fill="#FF4257" d="M22.66797,282.61133c-0.19238,0-0.38574-0.07422-0.53223-0.22168l-6.29785-6.33594
			c-0.29199-0.29297-0.29004-0.76855,0.00391-1.06055c0.29199-0.29199,0.76855-0.29004,1.06055,0.00391l6.29785,6.33594
			c0.29199,0.29297,0.29004,0.76855-0.00391,1.06055C23.05078,282.53906,22.85938,282.61133,22.66797,282.61133z"/>
	</g>
	<g>
		<g>
			<path fill="#252626" d="M66.35226,116.94623c0.23098,0.28669,0.24997,0.70406,0.01876,1.01324
				c-0.27355,0.36714-0.79153,0.44337-1.15867,0.16981c-4.72306-3.51478-11.22781-3.38683-15.81938,0.31263
				c-5.54898,4.47084-6.42617,12.62318-1.95533,18.17216s12.62318,6.42618,18.17216,1.95534
				c4.45013-3.58549,6.02322-9.76901,3.82444-15.0367c-0.17609-0.42247,0.024-0.90724,0.44585-1.0841
				c0.42246-0.17609,0.90829,0.02065,1.08409,0.44585c2.47885,5.94373,0.70521,12.91962-4.31525,16.96465
				c-6.26075,5.04431-15.45668,4.05482-20.50101-2.20592c-5.04432-6.26076-4.05484-15.45669,2.20592-20.50101
				c5.1794-4.17307,12.51941-4.3181,17.84738-0.35139C66.25917,116.84315,66.30875,116.89223,66.35226,116.94623z"/>
		</g>
	</g>
	<g>
		<g>
			<g>
				<g>
					<path fill="#FF4257" d="M68.78979,120.61713c-0.34981,0.28185-0.87635,0.21824-1.16493-0.13993l0,0
						c-0.28246-0.35056-0.21824-0.87635,0.13993-1.16493l0,0c0.3567-0.27485,0.87711-0.21885,1.1657,0.13932l0,0
						c0.27348,0.35654,0.21824,0.87635-0.13233,1.15881l0,0L68.78979,120.61713z"/>
				</g>
			</g>
		</g>
	</g>
	<g>
		<g>
			<path fill="#FF4257" d="M16.37109,311.15234c-0.2334,0-0.46289-0.10742-0.60938-0.31055
				c-0.24219-0.33594-0.16602-0.80469,0.16895-1.04785l6.31348-4.55762c-1.68457-2.93652-2.47656-6.27344-2.29395-9.69629
				c0.50488-9.49414,8.05078-16.63379,17.56543-16.63379c0.40234,0.00293,0.84375,0.01465,1.26563,0.04395V222.25
				c0-0.85449,0.55957-1.61719,1.3623-1.85449c3.90039-1.15234,6.625-4.80859,6.625-8.88965v-14.77441
				c0-0.41406,0.33594-0.75,0.75-0.75s0.75,0.33594,0.75,0.75v14.77441c0,4.74121-3.16699,8.98828-7.7002,10.3291
				c-0.16895,0.0498-0.28711,0.2207-0.28711,0.41504v57.52441c0,0.21484-0.0918,0.41895-0.25195,0.56055
				c-0.16016,0.14355-0.36523,0.20703-0.58691,0.18457c-0.61328-0.07324-1.24121-0.11133-1.86426-0.11328
				c-0.02051,0-0.04199,0-0.0625,0c-8.7041,0-15.60645,6.5293-16.06738,15.21387c-0.17871,3.34863,0.66113,6.60742,2.42871,9.42285
				c0.20996,0.33496,0.12402,0.77539-0.19629,1.00684l-6.87109,4.96094C16.67676,311.10645,16.52246,311.15234,16.37109,311.15234z"
				/>
		</g>
	</g>
	<g>
		<g>
			<path fill="#FF4257" d="M17.23047,301.83691c-0.34277,0-0.65234-0.23633-0.73047-0.58496
				c-0.34961-1.54688-0.52637-3.14551-0.52637-4.75195c0-10.95215,8.04395-20.02441,18.82227-21.375l-0.0127-52.875
				c0-0.19434-0.11816-0.36523-0.28613-0.41504c-4.57227-1.34766-7.76563-5.5957-7.76563-10.3291v-14.77441
				c0-0.41406,0.33594-0.75,0.75-0.75s0.75,0.33594,0.75,0.75v14.77441c0,4.07324,2.75098,7.72852,6.68945,8.88965
				c0.80273,0.2373,1.3623,1,1.3623,1.85449l0.0127,53.54688c0,0.38672-0.29395,0.70996-0.67969,0.74707
				c-10.34277,0.97363-18.14258,9.55273-18.14258,19.95605c0,1.49512,0.16504,2.98242,0.48926,4.42188
				c0.0918,0.4043-0.16211,0.80566-0.56641,0.89648C17.34082,301.83105,17.28516,301.83691,17.23047,301.83691z"/>
		</g>
	</g>
	<g>
		<path fill="#00BC8B" d="M31.56055,232.23926c-0.07031,0-0.14258-0.00977-0.21484-0.03125
			c-9.07715-2.70996-15.41699-11.22559-15.41699-20.70801s6.33984-17.99805,15.41699-20.70801
			c0.40234-0.12012,0.81445,0.1084,0.93359,0.50391c0.11816,0.39746-0.10742,0.81543-0.50391,0.93359
			c-8.44727,2.52148-14.34668,10.44629-14.34668,19.27051s5.89941,16.74902,14.34668,19.27051
			c0.39648,0.11816,0.62207,0.53613,0.50391,0.93359C32.18164,232.0293,31.88379,232.23926,31.56055,232.23926z"/>
	</g>
	<g>
		<path fill="#00BC8B" d="M43.51367,232.23926c-0.32324,0-0.62109-0.20996-0.71875-0.53516
			c-0.11816-0.39746,0.10742-0.81543,0.50391-0.93359C51.7461,228.24902,57.64551,220.3252,57.64551,211.5
			s-5.89941-16.74902-14.34668-19.27051c-0.39648-0.11816-0.62207-0.53613-0.50391-0.93359
			c0.11914-0.39648,0.5293-0.625,0.93359-0.50391C52.80566,193.50195,59.1455,202.01758,59.1455,211.5
			s-6.33984,17.99805-15.41699,20.70801C43.65625,232.22949,43.58398,232.23926,43.51367,232.23926z"/>
	</g>
	<path fill="#262626" d="M37.51855,314.17285c-4.71973,0-9.1582-1.83789-12.49609-5.17578
		c-0.32324-0.32324-0.32324-0.84863,0-1.17188c0.32422-0.32227,0.84766-0.32227,1.17188,0
		c3.02441,3.02539,7.04688,4.69141,11.32422,4.69141s8.2998-1.66602,11.3252-4.69141c0.32422-0.32227,0.84766-0.32227,1.17188,0
		c0.32324,0.32422,0.32324,0.84863,0,1.17188C46.67676,312.33496,42.23828,314.17285,37.51855,314.17285z"/>
	<g>
		<g>
			<path fill="#FF4257" d="M59.18555,311.22363c-0.13867,0-0.28027-0.03906-0.40527-0.12012l-7.50977-4.84375
				c-0.16797-0.10742-0.28516-0.27734-0.32715-0.47168c-0.04199-0.19531-0.00488-0.39844,0.10352-0.56543
				c1.67871-2.59863,2.56641-5.61426,2.56641-8.72266c0-7.08008-4.73633-13.42676-11.51855-15.43457
				c-0.19336-0.05664-0.35645-0.19043-0.4502-0.36816c-0.09473-0.17871-0.1123-0.38867-0.05078-0.58008l1.21191-3.7627
				c0.12598-0.38867,0.54297-0.61035,0.92969-0.48828c9.02539,2.71484,15.3291,11.2002,15.3291,20.63379
				c0,1.60156-0.17676,3.2002-0.52637,4.75195c-0.09082,0.4043-0.49023,0.6582-0.89648,0.56641
				c-0.40332-0.09082-0.65723-0.49219-0.56641-0.89648c0.32422-1.44336,0.48926-2.93066,0.48926-4.42188
				c0-8.53125-5.54004-16.22852-13.56055-18.97266l-0.75195,2.33398c7.02148,2.42188,11.86133,9.15527,11.86133,16.63867
				c0,3.14551-0.83203,6.20605-2.41309,8.89746l6.89258,4.44629c0.34863,0.22461,0.44824,0.68848,0.22363,1.03613
				C59.67383,311.10254,59.43164,311.22363,59.18555,311.22363z"/>
		</g>
	</g>
	<g>
		<g>
			<circle fill="#FF4257" cx="59.25127" cy="310.47357" r="6.29999"/>
		</g>
		<g>
			<path fill="#E5E5E5" d="M57.25098,313.33594c-0.27637,0-0.5-0.22363-0.5-0.5v-4.72461c0-0.27637,0.22363-0.5,0.5-0.5
				s0.5,0.22363,0.5,0.5v4.72461C57.75098,313.1123,57.52734,313.33594,57.25098,313.33594z"/>
		</g>
		<g>
			<path fill="#E5E5E5" d="M59.25098,312.02344c-0.27637,0-0.5-0.22363-0.5-0.5v-2.09961c0-0.27637,0.22363-0.5,0.5-0.5
				s0.5,0.22363,0.5,0.5v2.09961C59.75098,311.7998,59.52734,312.02344,59.25098,312.02344z"/>
		</g>
		<g>
			<path fill="#E5E5E5" d="M61.25098,312.69824c-0.27637,0-0.5-0.22363-0.5-0.5v-3.44922c0-0.27637,0.22363-0.5,0.5-0.5
				s0.5,0.22363,0.5,0.5v3.44922C61.75098,312.47461,61.52734,312.69824,61.25098,312.69824z"/>
		</g>
		<g>
			<path fill="#E5E5E5" d="M55.25098,311.06738c-0.27637,0-0.5-0.22363-0.5-0.5v-0.1875c0-0.27637,0.22363-0.5,0.5-0.5
				s0.5,0.22363,0.5,0.5v0.1875C55.75098,310.84375,55.52734,311.06738,55.25098,311.06738z"/>
		</g>
		<g>
			<path fill="#E5E5E5" d="M63.25098,311.06738c-0.27637,0-0.5-0.22363-0.5-0.5v-0.1875c0-0.27637,0.22363-0.5,0.5-0.5
				s0.5,0.22363,0.5,0.5v0.1875C63.75098,310.84375,63.52734,311.06738,63.25098,311.06738z"/>
		</g>
	</g>
	<g>
		<g>
			
				<ellipse transform="matrix(0.99995 -0.0102 0.0102 0.99995 -3.16417 0.18316)" fill="#FF4257" cx="16.36977" cy="310.22095" rx="6.3" ry="6.29999"/>
		</g>
		<g>
			<path fill="#E5E5E5" d="M18.37012,313.70801c-0.27637,0-0.5-0.22363-0.5-0.5v-4.72461c0-0.27637,0.22363-0.5,0.5-0.5
				s0.5,0.22363,0.5,0.5v4.72461C18.87012,313.48438,18.64648,313.70801,18.37012,313.70801z"/>
		</g>
		<g>
			<path fill="#E5E5E5" d="M16.37012,311.08301c-0.27637,0-0.5-0.22363-0.5-0.5v-2.09961c0-0.27637,0.22363-0.5,0.5-0.5
				s0.5,0.22363,0.5,0.5v2.09961C16.87012,310.85938,16.64648,311.08301,16.37012,311.08301z"/>
		</g>
		<g>
			<path fill="#E5E5E5" d="M14.37012,312.43359c-0.27637,0-0.5-0.22363-0.5-0.5v-3.4502c0-0.27637,0.22363-0.5,0.5-0.5
				s0.5,0.22363,0.5,0.5v3.4502C14.87012,312.20996,14.64648,312.43359,14.37012,312.43359z"/>
		</g>
		<g>
			<path fill="#E5E5E5" d="M20.37012,309.1709c-0.27637,0-0.5-0.22363-0.5-0.5v-0.1875c0-0.27637,0.22363-0.5,0.5-0.5
				s0.5,0.22363,0.5,0.5v0.1875C20.87012,308.94727,20.64648,309.1709,20.37012,309.1709z"/>
		</g>
		<g>
			<path fill="#E5E5E5" d="M12.37012,309.1709c-0.27637,0-0.5-0.22363-0.5-0.5v-0.1875c0-0.27637,0.22363-0.5,0.5-0.5
				s0.5,0.22363,0.5,0.5v0.1875C12.87012,308.94727,12.64648,309.1709,12.37012,309.1709z"/>
		</g>
	</g>
	<g>
		<g>
			
				<ellipse transform="matrix(0.99995 -0.0102 0.0102 0.99995 -2.80827 0.18134)" fill="#FF4257" cx="16.36977" cy="275.33749" rx="6.3" ry="6.29999"/>
		</g>
		<g>
			<path fill="#E5E5E5" d="M14.37012,277.5752c-0.27637,0-0.5-0.22363-0.5-0.5v-4.72559c0-0.27637,0.22363-0.5,0.5-0.5
				s0.5,0.22363,0.5,0.5v4.72559C14.87012,277.35156,14.64648,277.5752,14.37012,277.5752z"/>
		</g>
		<g>
			<path fill="#E5E5E5" d="M16.37012,277.5752c-0.27637,0-0.5-0.22363-0.5-0.5v-2.10059c0-0.27637,0.22363-0.5,0.5-0.5
				s0.5,0.22363,0.5,0.5v2.10059C16.87012,277.35156,16.64648,277.5752,16.37012,277.5752z"/>
		</g>
		<g>
			<path fill="#E5E5E5" d="M18.37012,277.5752c-0.27637,0-0.5-0.22363-0.5-0.5v-3.4502c0-0.27637,0.22363-0.5,0.5-0.5
				s0.5,0.22363,0.5,0.5v3.4502C18.87012,277.35156,18.64648,277.5752,18.37012,277.5752z"/>
		</g>
		<g>
			<path fill="#E5E5E5" d="M12.37012,277.5752c-0.27637,0-0.5-0.22363-0.5-0.5v-0.1875c0-0.27637,0.22363-0.5,0.5-0.5
				s0.5,0.22363,0.5,0.5v0.1875C12.87012,277.35156,12.64648,277.5752,12.37012,277.5752z"/>
		</g>
		<g>
			<path fill="#E5E5E5" d="M20.37012,277.5752c-0.27637,0-0.5-0.22363-0.5-0.5v-0.1875c0-0.27637,0.22363-0.5,0.5-0.5
				s0.5,0.22363,0.5,0.5v0.1875C20.87012,277.35156,20.64648,277.5752,20.37012,277.5752z"/>
		</g>
	</g>
</g>
<g id="PUSH">
</g>
</svg>
