<?xml version="1.0" encoding="UTF-8" standalone="no"?>
<!-- Generator: Adobe Illustrator 24.0.0, SVG Export Plug-In . SVG Version: 6.00 Build 0)  -->

<svg
   xmlns:dc="http://purl.org/dc/elements/1.1/"
   xmlns:cc="http://creativecommons.org/ns#"
   xmlns:rdf="http://www.w3.org/1999/02/22-rdf-syntax-ns#"
   xmlns:svg="http://www.w3.org/2000/svg"
   xmlns="http://www.w3.org/2000/svg"
   xmlns:sodipodi="http://sodipodi.sourceforge.net/DTD/sodipodi-0.dtd"
   xmlns:inkscape="http://www.inkscape.org/namespaces/inkscape"
   version="1.0"
   id="Layer_1"
   x="0px"
   y="0px"
   width="25.4mm"
   height="128.5mm"
   viewBox="0 0 95.999999 485.66934"
   enable-background="new 0 0 75 380"
   xml:space="preserve"
   sodipodi:docname="Fate-WL.svg"
   inkscape:version="0.92.3 (2405546, 2018-03-11)"><metadata
   id="metadata666"><rdf:RDF><cc:Work
       rdf:about=""><dc:format>image/svg+xml</dc:format><dc:type
         rdf:resource="http://purl.org/dc/dcmitype/StillImage" /><dc:title></dc:title></cc:Work></rdf:RDF></metadata><defs
   id="defs664" /><sodipodi:namedview
   pagecolor="#ffffff"
   bordercolor="#666666"
   borderopacity="1"
   objecttolerance="10"
   gridtolerance="10"
   guidetolerance="10"
   inkscape:pageopacity="0"
   inkscape:pageshadow="2"
   inkscape:window-width="1920"
   inkscape:window-height="1017"
   id="namedview662"
   showgrid="false"
   inkscape:document-units="mm"
   units="mm"
   fit-margin-top="0"
   fit-margin-left="0"
   fit-margin-right="0"
   fit-margin-bottom="0"
   inkscape:zoom="1.7566021"
   inkscape:cx="47.137508"
   inkscape:cy="215.15544"
   inkscape:window-x="-8"
   inkscape:window-y="-8"
   inkscape:window-maximized="1"
   inkscape:current-layer="Layer_1" />
<g
   id="base"
   display="none"
   style="display:none"
   transform="translate(0,105.66929)">
</g>
<g
   id="GUIDES"
   display="none"
   style="display:none"
   transform="translate(0,105.66929)">
</g>
<g
   id="bg"
   transform="matrix(1.2800162,0,0,1.2800162,-6.0555561e-4,-0.36841885)">
	<g
   id="g6">
		<rect
   width="75"
   height="380"
   id="rect4"
   x="0"
   y="0"
   style="fill:#e5e5e5" />
	</g>
	<g
   id="g20">
		<g
   id="g18">
			<g
   id="g16">
				<g
   id="g12">
					<circle
   cx="8.1747198"
   cy="6.3905401"
   r="5.7362599"
   id="circle8"
   style="fill:#bcbcbc" />
					<path
   d="m 8.17476,11.8632 c 3.02102,-0.0035 5.46916,-2.45164 5.47262,-5.47267 0,0 0,-10e-6 0,-3e-5 -2e-5,-3.02247 -2.45023,-5.47264 -5.4727,-5.47262 -3.02247,2e-5 -5.47264,2.45023 -5.47262,5.4727 2e-5,3.02247 2.45023,5.47264 5.4727,5.47262 m -6,-5.47266 c 0,-3.31371 2.68629,-6 6,-6 3.31371,0 6,2.68629 6,6 0,3.31371 -2.68629,6 -6,6 -3.31365,-1.6e-4 -5.99984,-2.68636 -6,-6 z"
   id="path10"
   inkscape:connector-curvature="0"
   style="fill:#808080" />
				</g>
				<polygon
   points="7.51576,5.73154 4.67976,5.73154 4.67976,7.04954 7.51576,7.04954 7.51576,9.88554 8.83376,9.88554 8.83376,7.04954 11.66876,7.04954 11.66876,5.73154 8.83376,5.73154 8.83376,2.89554 7.51576,2.89554 "
   id="polygon14"
   style="fill:#6e6e6e" />
			</g>
		</g>
	</g>
	<g
   id="g34">
		<g
   id="g32">
			<g
   id="g30">
				<g
   id="g26">
					<circle
   cx="67.184647"
   cy="373.60947"
   r="5.7362599"
   id="circle22"
   style="fill:#bcbcbc" />
					<path
   d="m 67.1846,379.08212 c -3.02102,-0.003 -5.46916,-2.45166 -5.47262,-5.47269 0,0 0,0 0,-3e-5 2e-5,-3.02246 2.45023,-5.47263 5.4727,-5.4726 3.02247,0 5.47264,2.45023 5.47262,5.47269 -2e-5,3.02246 -2.45023,5.47266 -5.4727,5.47263 m 6,-5.47265 c 0,-3.31372 -2.68629,-6 -6,-6 -3.31371,0 -6,2.68628 -6,6 0,3.31369 2.68629,6 6,6 3.31365,-1.9e-4 5.99984,-2.68637 6,-6 z"
   id="path24"
   inkscape:connector-curvature="0"
   style="fill:#808080" />
				</g>
				<polygon
   points="67.84361,372.95047 70.6796,372.95047 70.6796,374.26846 67.84361,374.26846 67.84361,377.10446 66.5256,377.10446 66.5256,374.26846 63.69061,374.26846 63.69061,372.95047 66.5256,372.95047 66.5256,370.11447 67.84361,370.11447 "
   id="polygon28"
   style="fill:#6e6e6e" />
			</g>
		</g>
	</g>
	<g
   id="g42">
		<path
   d="M 43.34361,375.24466 H 32.87734 c -1.77143,0 -3.20745,-1.43604 -3.20745,-3.20746 v -31.33145 c 0,-1.77142 1.43602,-3.20746 3.20745,-3.20746 H 43.3436 c 1.77143,0 3.20745,1.43604 3.20745,3.20746 v 31.33145 c 1e-5,1.77142 -1.43602,3.20746 -3.20744,3.20746 z"
   id="path36"
   inkscape:connector-curvature="0"
   style="fill:#252626" />
		<g
   id="g40">
			<path
   d="m 41.95682,363.35104 c -0.11426,0.26349 -0.26582,0.48099 -0.45469,0.65225 -0.1891,0.17126 -0.40401,0.29843 -0.64567,0.3822 -0.24189,0.0835 -0.49434,0.12503 -0.75781,0.12503 -0.44812,0 -0.79723,-0.0657 -1.04757,-0.19754 -0.25034,-0.13184 -0.44601,-0.28552 -0.58632,-0.46124 -0.14968,-0.19333 -0.244,-0.40848 -0.28341,-0.64569 -0.03965,-0.23718 -0.05936,-0.4744 -0.05936,-0.71158 0,-0.33411 0.0068,-0.56451 0.01971,-0.69189 0.01337,-0.12762 0.02839,-0.19989 0.04622,-0.2175 0.03496,-0.0265 0.17995,-0.0394 0.43475,-0.0394 h 3.08382 c 0.08775,0 0.16024,0.007 0.21749,0.0197 0.05678,0.0131 0.10088,0.0481 0.13162,0.10535 0.03073,0.057 0.05044,0.14267 0.05936,0.25693 0.0087,0.11426 0.01337,0.27237 0.01337,0.4744 0,0.36905 -0.05748,0.68555 -0.17151,0.949 m -5.32348,-12.82162 c 0.01174,-0.0828 0.0474,-0.14828 0.10699,-0.19592 0.05935,-0.0474 0.15414,-0.0772 0.28506,-0.0891 0.13068,-0.0117 0.31485,-0.0178 0.55252,-0.0178 0.92675,0 1.6367,0.2583 2.12986,0.77518 0.49294,0.51685 0.73975,1.20923 0.73975,2.0766 0,0.0821 -0.01712,0.25925 -0.02792,0.3808 -0.06827,-9.5e-4 -0.13655,-0.002 -0.20482,-0.003 -0.18699,-0.004 -0.39017,-0.0143 -0.60954,-0.0305 -0.0488,0.0244 -0.07508,0.0711 -0.0793,0.14008 -0.004,0.0692 0.01408,0.12411 0.05514,0.1647 l 0.21913,0.0244 c 0.1464,0.0162 0.26817,0.0427 0.36577,0.0791 0.09761,0.0366 0.1464,0.0753 0.1464,0.11588 0,0.0406 -0.0244,0.11591 -0.0732,0.22549 -0.0488,0.1098 -0.11379,0.24188 -0.19497,0.39603 -0.08142,0.1546 -0.16893,0.31931 -0.26207,0.49387 -0.09362,0.1748 -0.18113,0.33948 -0.26231,0.49362 -0.18699,0.35782 -0.37773,0.70901 -0.57293,1.05438 -0.19497,0.34561 -0.38595,0.68088 -0.5727,1.0058 -0.23603,-0.42255 -0.4676,-0.86548 -0.69494,-1.32861 -0.22758,-0.46338 -0.45516,-0.9223 -0.68274,-1.37769 -0.01642,-0.0324 -0.04458,-0.0931 -0.08517,-0.18277 -0.04082,-0.0892 -0.08352,-0.18466 -0.1281,-0.28647 -0.04482,-0.10159 -0.08352,-0.19684 -0.1159,-0.28647 -0.03262,-0.0894 -0.04857,-0.15039 -0.04857,-0.18277 0,-0.0488 0.03214,-0.0873 0.09736,-0.11591 0.06499,-0.0284 0.20319,-0.0629 0.41458,-0.10345 l 0.15836,-0.0244 c 0.04059,-0.0406 0.05889,-0.0976 0.0549,-0.17081 -0.0042,-0.073 -0.03473,-0.11777 -0.09127,-0.13397 -0.17315,0.0136 -0.38548,0.0235 -0.63722,0.0293 v -2.58643 c 2e-5,-0.14264 0.0059,-0.2555 0.01785,-0.33878 m 1.00932,9.125 c 0,0.32516 -0.0042,0.58514 -0.0122,0.78009 -0.0082,0.19498 -0.03659,0.34747 -0.0854,0.45706 -0.01736,0.0394 -0.03801,0.0741 -0.06171,0.1044 -4.7e-4,2.1e-4 -0.0012,7e-4 -0.0016,9.2e-4 -0.14194,-0.0272 -0.2616,-0.0587 -0.35826,-0.0945 -0.16048,-0.0594 -0.27615,-0.16635 -0.34747,-0.32071 -0.07132,-0.15439 -0.1159,-0.37119 -0.13373,-0.6506 -0.01783,-0.27896 -0.02675,-0.6506 -0.02675,-1.11374 v -2.53784 l 0.63722,1.24158 c 0.08916,0.17081 0.16024,0.31509 0.21327,0.43289 0.05279,0.11801 0.09127,0.22757 0.11567,0.32916 0.02439,0.10181 0.04058,0.20926 0.04879,0.32306 0.008,0.1138 0.0122,0.25598 0.0122,0.42654 v 0.62173 h 10e-6 z m 5.03092,1.50741 c 0.05278,-0.14639 0.10534,-0.30264 0.15836,-0.46924 0.05279,-0.16656 0.10159,-0.32916 0.1464,-0.48776 0.04458,-0.15836 0.07907,-0.29047 0.10371,-0.39627 -0.02464,-0.0566 -0.07133,-0.0931 -0.14031,-0.10956 -0.06921,-0.0162 -0.12387,-0.008 -0.1647,0.0244 -0.16259,0.31674 -0.31885,0.57693 -0.46924,0.78012 -0.15039,0.2034 -0.28247,0.33737 -0.39603,0.40237 -0.06523,0.0326 -0.1403,0.0608 -0.2257,0.0851 -0.08517,0.0244 -0.18699,0.0427 -0.30477,0.0549 -0.11777,0.0122 -0.25996,0.0225 -0.42653,0.0305 -0.16658,0.008 -0.36788,0.0122 -0.60344,0.0122 -0.26817,0 -0.48965,-0.008 -0.66444,-0.0244 -0.17479,-0.0162 -0.31486,-0.0366 -0.42043,-0.0608 -0.10582,-0.0247 -0.1891,-0.053 -0.24987,-0.0854 -0.061,-0.0324 -0.10793,-0.069 -0.1403,-0.1098 -0.0976,-0.10556 -0.16048,-0.26205 -0.18887,-0.46924 -0.02862,-0.2074 -0.0427,-0.47345 -0.0427,-0.79861 v -0.8045 c 0.0019,-0.11145 0.0052,-0.20999 0.0099,-0.29446 0.008,-0.15015 0.03027,-0.29047 0.06687,-0.42044 0.03659,-0.12997 0.09337,-0.2684 0.1708,-0.41455 0.0183,-0.035 0.03894,-0.0727 0.06077,-0.1124 0.02933,-9.5e-4 0.05982,-0.001 0.09385,-0.001 H 39.754 c 0.23555,0 0.42865,0.004 0.57903,0.0122 0.15015,0.008 0.27005,0.0242 0.35967,0.0485 0.12177,0.0326 0.20905,0.0896 0.26207,0.17081 0.05279,0.0812 0.09127,0.17877 0.11591,0.29257 l 0.10956,0.47534 c 0.03238,0.0408 0.08728,0.0589 0.16447,0.0549 0.07718,-0.004 0.1281,-0.0263 0.1525,-0.0671 0,-0.13818 -0.0082,-0.31274 -0.0244,-0.52414 -0.01642,-0.2114 -0.0244,-0.42676 -0.0244,-0.64615 0,-0.23553 0.008,-0.46313 0.0244,-0.6825 0.01619,-0.2196 0.0244,-0.40237 0.0244,-0.54877 -0.0244,-0.0403 -0.07532,-0.0629 -0.1525,-0.0671 -0.07719,-0.004 -0.1321,0.0143 -0.16447,0.0549 l -0.09737,0.49997 c -0.03261,0.15439 -0.07132,0.25809 -0.1159,0.31088 -0.04482,0.0528 -0.1037,0.0913 -0.17667,0.11566 -0.0732,0.0244 -0.19942,0.0427 -0.37797,0.0549 -0.17901,0.0122 -0.39839,0.0183 -0.65834,0.0183 H 39.2031 c 0.0042,-0.007 0.008,-0.0131 0.0122,-0.0202 l 0.76791,-1.32861 c 0.15414,-0.26019 0.29445,-0.50186 0.42067,-0.72546 0.12576,-0.22336 0.24987,-0.42065 0.37163,-0.59122 0.12201,-0.17056 0.24776,-0.30878 0.37798,-0.41434 0.02698,-0.0218 0.05467,-0.0415 0.08306,-0.0601 0.08258,0.0328 0.15531,0.0715 0.21796,0.11682 0.10159,0.073 0.18464,0.15839 0.24987,0.25598 0.06499,0.0974 0.11777,0.20715 0.1586,0.32892 0.04035,0.12201 0.08517,0.25623 0.13397,0.40237 0.03238,0.0408 0.0854,0.057 0.1586,0.0488 0.07297,-0.008 0.12177,-0.0324 0.14616,-0.0732 -0.01643,-0.13 -0.0305,-0.27826 -0.04247,-0.44485 -0.01243,-0.16656 -0.02674,-0.32916 -0.04293,-0.48752 -0.01619,-0.1586 -0.03754,-0.30008 -0.05467,-0.42679 -0.04247,-0.31345 -0.03285,-0.58115 -0.03285,-0.58115 0,-0.61752 -0.17525,-1.15738 -0.44272,-1.60925 -0.26723,-0.45139 -0.60907,-0.80777 -1.02481,-1.06915 -0.41597,-0.26135 -0.90305,-0.44553 -1.46143,-0.55252 -0.55863,-0.10699 -1.21204,-0.16046 -1.96047,-0.16046 -0.74867,0 -1.40536,0.009 -1.96938,0.0267 -0.56449,0.0178 -1.08441,0.0565 -1.55974,0.11591 -0.07109,0.0357 -0.10981,0.10416 -0.11567,0.2048 -0.0061,0.10114 0.02041,0.18137 0.08024,0.24072 l 0.64145,0.0713 c 0.202,0.024 0.3592,0.0624 0.47252,0.11591 0.11262,0.0533 0.19591,0.15134 0.2494,0.29398 0.05349,0.14267 0.08611,0.3327 0.09807,0.57037 0.01173,0.23767 0.01783,0.54666 0.01783,0.92673 v 6.57681 c 0,0.46313 -0.0061,0.83478 -0.01783,1.11374 -0.01196,0.27942 -0.05349,0.49622 -0.12482,0.6506 -0.07132,0.15436 -0.17831,0.26135 -0.32072,0.32071 -0.14265,0.0596 -0.34489,0.10699 -0.60601,0.14264 l -0.37445,0.0535 c -0.0542,0.0542 -0.07837,0.12836 -0.0732,0.22171 -4.7e-4,0.19077 -0.0026,0.25128 -0.0066,0.46619 -0.0042,0.24612 -0.01549,0.52109 -0.03355,0.82541 0.01807,0.0448 0.06922,0.0716 0.15438,0.0807 0.08493,0.009 0.14546,-0.009 0.18136,-0.0537 l 0.04012,-0.28201 c 0.02699,-0.19684 0.06264,-0.34888 0.10746,-0.45612 0.04481,-0.10745 0.12528,-0.18793 0.24165,-0.24164 0.11613,-0.0537 0.27943,-0.0854 0.48989,-0.0943 0.21022,-0.009 0.48988,-0.0131 0.83899,-0.0131 h 1.69113 c 0.07156,0 0.12763,0.004 0.16799,0.0131 0.04012,0.009 0.06921,0.0338 0.08704,0.0742 0.01783,0.0401 0.02909,0.10275 0.03378,0.18768 0.0042,0.0852 0.0066,0.20343 0.0066,0.35568 0,0.26865 -0.03355,0.46994 -0.10065,0.60416 -0.0671,0.13419 -0.17667,0.25055 -0.32894,0.34909 -0.15226,0.10745 -0.32001,0.21915 -0.50325,0.33551 -0.1837,0.11615 -0.36718,0.23251 -0.55042,0.34888 -0.18347,0.11636 -0.36014,0.22827 -0.53023,0.33575 -0.1701,0.10721 -0.31767,0.20575 -0.44296,0.29514 -0.3402,0.24167 -0.61986,0.46759 -0.839,0.67804 -0.21913,0.21024 -0.39134,0.42279 -0.51663,0.63745 -0.12552,0.21469 -0.21257,0.44061 -0.26183,0.67783 -0.04903,0.23718 -0.07367,0.49878 -0.07367,0.78528 0,0.25946 0.02229,0.45654 0.06687,0.59052 0.02698,0.0359 0.06053,0.0516 0.10088,0.0471 0.04012,-0.005 0.06921,-0.0249 0.08728,-0.0605 0.01759,-0.17902 0.0603,-0.34888 0.1274,-0.50983 0.0671,-0.16119 0.14969,-0.30008 0.24846,-0.4162 0.18793,-0.23276 0.40026,-0.4519 0.63746,-0.6579 0.23696,-0.20575 0.4988,-0.41595 0.78526,-0.63086 0.28624,-0.21469 0.60837,-0.43616 0.9664,-0.66422 0.35779,-0.22827 0.75171,-0.47675 1.1813,-0.74515 0.05372,-0.0359 0.10933,-0.065 0.16775,-0.0873 0.05795,-0.0225 0.10956,-0.0157 0.15437,0.0202 0.06241,0.16986 0.15649,0.35123 0.28178,0.54361 0.12528,0.19238 0.27967,0.37375 0.46313,0.54385 0.18348,0.16986 0.39815,0.31064 0.64426,0.42279 0.24612,0.11166 0.53024,0.16772 0.85237,0.16772 0.4744,0 0.86363,-0.10532 1.16793,-0.31555 0.30406,-0.21021 0.54126,-0.4765 0.71136,-0.79865 0.16986,-0.3132 0.27967,-0.65997 0.32894,-1.04004 0.04903,-0.38055 0.07555,-0.78107 0.07367,-1.20172 -0.0033,-0.77939 0.137,-1.27537 0.137,-1.27537"
   id="path38"
   inkscape:connector-curvature="0"
   style="fill:#e6e5e5" />
		</g>
	</g>
</g>
<g
   id="serigraphy"
   transform="matrix(1.2800162,0,0,1.2800162,-6.0555561e-4,-0.36841885)">
	<g
   id="g53">
		<g
   id="g47">
			<path
   d="m 27.51953,190.5498 c -0.10938,0 -0.21973,-0.0195 -0.31934,-0.0596 -0.10059,-0.04 -0.19043,-0.10059 -0.27051,-0.18066 -0.08008,-0.0801 -0.13965,-0.16992 -0.17969,-0.26953 -0.04004,-0.10059 -0.06055,-0.20996 -0.06055,-0.31055 0,-0.10938 0.02051,-0.21973 0.06055,-0.31934 0.04004,-0.10059 0.09961,-0.19043 0.17969,-0.27051 0.24023,-0.22949 0.59961,-0.30957 0.90039,-0.17969 0.10938,0.04 0.18945,0.0996 0.26953,0.17969 0.08008,0.0801 0.14063,0.16992 0.17969,0.27051 0.05078,0.0996 0.07031,0.20996 0.07031,0.31934 0,0.10059 -0.01953,0.20996 -0.07031,0.31055 -0.03906,0.0996 -0.09961,0.18945 -0.17969,0.26953 -0.08008,0.0801 -0.16992,0.14063 -0.26953,0.18066 -0.10058,0.04 -0.20019,0.0596 -0.31054,0.0596 z"
   id="path45"
   inkscape:connector-curvature="0"
   style="fill:#ff4257" />
		</g>
		<g
   id="g51">
			<path
   d="m 26.68945,185.99023 c 0,-0.45996 0.37012,-0.83008 0.83008,-0.83008 v 0 c 0.4502,0 0.83008,0.37012 0.83008,0.83008 v 0 c 0,0.44922 -0.37988,0.8291 -0.83008,0.8291 v 0 c -0.45996,1e-5 -0.83008,-0.37988 -0.83008,-0.8291 z m 0,-3.74023 c 0,-0.45996 0.37012,-0.83008 0.83008,-0.83008 v 0 c 0.4502,0 0.83008,0.37012 0.83008,0.83008 v 0 c 0,0.45996 -0.37988,0.83008 -0.83008,0.83008 v 0 c -0.45996,0 -0.83008,-0.37012 -0.83008,-0.83008 z m 0,-3.74023 c 0,-0.4502 0.37012,-0.83008 0.83008,-0.83008 v 0 c 0.4502,0 0.83008,0.37988 0.83008,0.83008 v 0 c 0,0.45996 -0.37988,0.83008 -0.83008,0.83008 v 0 c -0.45996,-1e-5 -0.83008,-0.37012 -0.83008,-0.83008 z m 0,-3.7295 c 0,-0.46094 0.37012,-0.83008 0.83008,-0.83008 v 0 c 0.4502,0 0.83008,0.36914 0.83008,0.83008 v 0 c 0,0.44922 -0.37988,0.81934 -0.83008,0.81934 v 0 c -0.45996,0 -0.83008,-0.37012 -0.83008,-0.81934 z m 0,-3.74023 c 0,-0.45996 0.37012,-0.83008 0.83008,-0.83008 v 0 c 0.4502,0 0.83008,0.37012 0.83008,0.83008 v 0 c 0,0.4502 -0.37988,0.83008 -0.83008,0.83008 v 0 c -0.45996,0 -0.83008,-0.37989 -0.83008,-0.83008 z"
   id="path49"
   inkscape:connector-curvature="0"
   style="fill:#ff4257" />
		</g>
	</g>
	<g
   id="g83">
		<g
   id="g57">
			<path
   d="m 8.58789,108.1123 -2.10254,-2.37012 -0.71582,0.63477 -0.47949,-0.54004 1.97949,-1.75391 0.47754,0.53906 -0.71484,0.63477 2.10156,2.36914 z"
   id="path55"
   inkscape:connector-curvature="0"
   style="fill:#1d1d1b" />
		</g>
		<g
   id="g61">
			<path
   d="m 12.51758,105.53516 -2.08887,-1.08203 -0.27734,0.14063 0.85156,1.69922 -0.63574,0.31934 -1.74219,-3.47951 1.24609,-0.62402 c 0.23535,-0.11719 0.5,-0.13477 0.75781,-0.0488 0.25684,0.085 0.45996,0.25781 0.57715,0.49316 0.17383,0.3457 0.125,0.7627 -0.10547,1.05957 l 2.18848,1.13574 z m -2.07422,-1.88282 c 0.1377,-0.0684 0.19727,-0.24023 0.12695,-0.38184 -0.07129,-0.1416 -0.24512,-0.19531 -0.38086,-0.12695 L 9.57812,103.44921 9.833,103.958 Z"
   id="path59"
   inkscape:connector-curvature="0"
   style="fill:#1d1d1b" />
		</g>
		<g
   id="g65">
			<path
   d="m 14.05273,105.03125 -0.92578,-3.77539 0.70996,-0.1748 0.92578,3.77637 z"
   id="path63"
   inkscape:connector-curvature="0"
   style="fill:#1d1d1b" />
		</g>
		<g
   id="g69">
			<path
   d="m 15.56445,102.5957 c -9.8e-4,-1.12012 0.90918,-2.03125 2.02637,-2.0332 0.27344,0 0.54102,0.0547 0.78613,0.15723 0.24512,0.10352 0.46973,0.25098 0.65527,0.44141 l 0.10352,0.10352 -0.53906,0.47559 -0.0918,-0.0869 c -0.23633,-0.24023 -0.55859,-0.36523 -0.91211,-0.36523 -0.7207,0.002 -1.30371,0.58594 -1.30273,1.30566 0.0019,0.72559 0.58496,1.31445 1.30566,1.31348 0.36523,0 0.69727,-0.14746 0.95508,-0.41113 l -0.002,-0.80664 H 17.4853 l -9.8e-4,-0.72363 1.7793,-0.003 0.0019,1.78906 -0.02832,0.0332 c -0.3916,0.5293 -1.00293,0.8418 -1.64063,0.84277 -1.11815,9.6e-4 -2.03124,-0.9092 -2.03222,-2.03225 z"
   id="path67"
   inkscape:connector-curvature="0"
   style="fill:#1d1d1b" />
		</g>
		<g
   id="g73">
			<path
   d="m 20.52637,102.77734 c 0.36035,-1.06055 1.51758,-1.62891 2.57617,-1.26953 0.25879,0.0889 0.49414,0.22656 0.69238,0.40332 0.2002,0.17676 0.36426,0.38867 0.47949,0.62891 l 0.06445,0.13184 -0.66504,0.27539 -0.05957,-0.1123 c -0.14551,-0.30273 -0.40918,-0.52539 -0.74609,-0.63965 -0.68066,-0.23145 -1.42285,0.13379 -1.6543,0.81641 -0.2334,0.6875 0.12891,1.43262 0.81152,1.66504 0.34668,0.11719 0.70996,0.085 1.03613,-0.0811 l 0.26074,-0.76465 -1.00781,-0.3418 0.2334,-0.6875 1.68457,0.57227 -0.57617,1.69531 -0.03613,0.0225 c -0.54199,0.37402 -1.22168,0.47266 -1.82617,0.26563 -1.05956,-0.35939 -1.6289,-1.51564 -1.26757,-2.5801 z"
   id="path71"
   inkscape:connector-curvature="0"
   style="fill:#1d1d1b" />
		</g>
		<g
   id="g77">
			<path
   d="m 24.21387,106.37012 2.28418,-3.15527 2.07813,1.50586 -0.41699,0.5752 -1.48438,-1.0752 -0.33691,0.46582 1.29395,0.93652 -0.42578,0.58984 -1.29395,-0.93652 -0.68066,0.93848 1.44336,1.04688 -0.42383,0.58398 z"
   id="path75"
   inkscape:connector-curvature="0"
   style="fill:#1d1d1b" />
		</g>
		<g
   id="g81">
			<path
   d="m 28.33398,110.30664 0.65039,-2.26172 -0.19141,-0.24609 -1.5,1.16992 -0.43848,-0.55957 3.07129,-2.39453 0.85645,1.10059 c 0.16211,0.20703 0.23047,0.46484 0.19727,0.73242 -0.0332,0.26855 -0.16309,0.50195 -0.36914,0.66406 -0.30762,0.23828 -0.72363,0.27246 -1.0625,0.10547 l -0.68262,2.36914 z m 1.44043,-2.40527 c 0.09277,0.12109 0.27246,0.14648 0.39746,0.0498 0.12598,-0.0977 0.14355,-0.27832 0.05078,-0.40039 l -0.4209,-0.53809 -0.44727,0.34961 z"
   id="path79"
   inkscape:connector-curvature="0"
   style="fill:#1d1d1b" />
		</g>
	</g>
	<g
   id="g109">
		<g
   id="g87">
			<path
   d="m 6.39063,242.72852 -3.12793,-2.32129 1.52832,-2.06152 0.57227,0.4248 -1.09277,1.47266 0.46191,0.34082 0.95215,-1.28223 0.58301,0.43457 -0.95117,1.28223 0.93164,0.69043 1.0625,-1.43164 0.58008,0.43066 z"
   id="path85"
   inkscape:connector-curvature="0"
   style="fill:#1d1d1b" />
		</g>
		<g
   id="g91">
			<path
   d="m 9.44824,239.3584 -3.53613,-2.21387 0.62988,-0.47168 2.46484,1.5498 -0.78809,-2.80469 0.625,-0.46777 1.13477,4.01172 z"
   id="path89"
   inkscape:connector-curvature="0"
   style="fill:#1d1d1b" />
		</g>
		<g
   id="g95">
			<path
   d="m 11.75781,237.84961 -1.40234,-3.62988 2.39063,-0.9248 0.25684,0.66309 -1.70898,0.66113 0.20703,0.53516 1.48926,-0.57617 0.26172,0.67773 -1.48828,0.57617 0.41797,1.08105 1.66113,-0.64258 0.26074,0.67285 z"
   id="path93"
   inkscape:connector-curvature="0"
   style="fill:#1d1d1b" />
		</g>
		<g
   id="g99">
			<path
   d="m 17.40234,236.53906 -1.91211,-2.40918 0.19336,2.54004 -0.72852,0.0557 -0.2959,-3.87305 0.70801,-0.0537 1.90625,2.4043 -0.19336,-2.53516 0.72852,-0.0557 0.29688,3.87305 z"
   id="path97"
   inkscape:connector-curvature="0"
   style="fill:#1d1d1b" />
		</g>
		<g
   id="g103">
			<path
   d="m 19.84668,236.77637 0.6582,-3.10352 -0.93555,-0.19824 0.14941,-0.70605 2.58984,0.55078 -0.15137,0.70508 -0.93457,-0.19824 -0.66016,3.10254 z"
   id="path101"
   inkscape:connector-curvature="0"
   style="fill:#1d1d1b" />
		</g>
		<g
   id="g107">
			<path
   d="m 23.09668,237.81934 c -0.32422,-0.25488 -0.58691,-0.60645 -0.75879,-1.0293 l -0.05078,-0.13086 0.67578,-0.27051 0.0498,0.12988 c 0.12695,0.30762 0.30957,0.56445 0.52832,0.73633 l 0.0039,0.003 c 0.06641,0.0508 0.13477,0.0986 0.20898,0.13477 0.12109,0.0615 0.24512,0.0928 0.35938,0.0957 0.14258,0.0117 0.33203,-0.0273 0.43359,-0.22656 0.05273,-0.1084 0.04199,-0.21875 -0.03613,-0.3418 -0.09473,-0.15234 -0.25684,-0.29004 -0.37695,-0.38086 -0.05371,-0.0381 -0.49902,-0.39258 -0.66406,-0.63379 -0.10449,-0.16992 -0.16211,-0.3457 -0.17676,-0.52344 -0.01172,-0.18359 0.0293,-0.35938 0.11523,-0.5293 0.09277,-0.18457 0.24414,-0.34082 0.44336,-0.45508 0.17773,-0.0879 0.38281,-0.13086 0.60059,-0.125 0.2168,0.006 0.43457,0.0596 0.64355,0.16602 0.08398,0.042 0.16699,0.0957 0.24902,0.14941 0.29199,0.2207 0.53613,0.52734 0.69531,0.90137 l 0.05273,0.12402 -0.66699,0.29297 -0.05371,-0.125 c -0.18652,-0.41699 -0.43066,-0.61328 -0.60449,-0.70117 -0.11328,-0.0586 -0.22754,-0.085 -0.33594,-0.0898 -0.16699,-0.006 -0.31445,0.0684 -0.37305,0.18457 -0.05469,0.10645 -0.0498,0.19434 0.01074,0.30469 0.06054,0.11035 0.17871,0.22949 0.37695,0.39258 0.02734,0.0186 0.06152,0.0488 0.09473,0.0781 0.18555,0.1416 0.42969,0.33789 0.5625,0.5459 0.12109,0.17188 0.18652,0.35742 0.20313,0.54297 0.01661,0.18555 -0.02344,0.37402 -0.11133,0.54883 -0.11133,0.21973 -0.26855,0.38477 -0.46875,0.49121 -0.17383,0.0898 -0.38574,0.13672 -0.63477,0.13184 -0.21484,0.003 -0.4248,-0.0547 -0.66406,-0.17578 -0.11131,-0.0557 -0.22167,-0.12892 -0.33104,-0.21583 z"
   id="path105"
   inkscape:connector-curvature="0"
   style="fill:#1d1d1b" />
		</g>
	</g>
	<g
   id="g135">
		<g
   id="g113">
			<path
   d="m 49.40527,250.2666 -2.14258,-3.25293 2.14258,-1.41113 0.3916,0.59277 -1.53223,1.00977 0.31738,0.47949 1.33398,-0.87988 0.39941,0.60938 -1.33301,0.87793 0.6377,0.96777 1.49023,-0.98145 0.39746,0.60449 z"
   id="path111"
   inkscape:connector-curvature="0"
   style="fill:#1d1d1b" />
		</g>
		<g
   id="g117">
			<path
   d="m 53.4502,248.14063 -2.5625,-3.29102 0.75293,-0.22754 1.7832,2.29883 0.2207,-2.9043 0.74902,-0.22461 -0.31055,4.15723 z"
   id="path115"
   inkscape:connector-curvature="0"
   style="fill:#1d1d1b" />
		</g>
		<g
   id="g121">
			<path
   d="m 56.12012,247.52246 -0.07422,-3.8916 2.56445,-0.0488 0.0127,0.71094 -1.83008,0.0352 0.0098,0.57422 1.59668,-0.0312 0.01367,0.72754 -1.5957,0.0303 0.02246,1.1582 1.78027,-0.0332 0.01465,0.7207 z"
   id="path119"
   inkscape:connector-curvature="0"
   style="fill:#1d1d1b" />
		</g>
		<g
   id="g125">
			<path
   d="m 61.87305,248.22656 -0.97168,-2.91895 -0.68945,2.45215 -0.70313,-0.19629 1.04883,-3.74023 0.68457,0.19238 0.96582,2.91113 0.68848,-2.44727 0.70313,0.19727 -1.0498,3.74023 z"
   id="path123"
   inkscape:connector-curvature="0"
   style="fill:#1d1d1b" />
		</g>
		<g
   id="g129">
			<path
   d="m 64.08789,249.28516 1.68164,-2.69043 -0.81152,-0.50684 0.38281,-0.61133 2.24512,1.40332 -0.38379,0.6123 -0.81152,-0.50781 -1.68066,2.68848 z"
   id="path127"
   inkscape:connector-curvature="0"
   style="fill:#1d1d1b" />
		</g>
		<g
   id="g133">
			<path
   d="m 66.78223,251.37988 c -0.2168,-0.35156 -0.34277,-0.77148 -0.35938,-1.22754 l -0.0029,-0.13965 0.72656,-0.0225 0.0029,0.1377 c 0.01367,0.33301 0.09668,0.6377 0.24414,0.87402 l 0.0029,0.004 c 0.04395,0.0703 0.0918,0.13867 0.14844,0.19824 0.09277,0.0986 0.19824,0.17188 0.30566,0.21289 0.12988,0.0596 0.32129,0.0889 0.48438,-0.0654 0.08887,-0.082 0.11523,-0.18945 0.08398,-0.33301 -0.03711,-0.1748 -0.14258,-0.35938 -0.22266,-0.48633 -0.03809,-0.0557 -0.33496,-0.53906 -0.4082,-0.82324 -0.04004,-0.19434 -0.0332,-0.37988 0.01465,-0.55273 0.05176,-0.1748 0.14941,-0.32715 0.28906,-0.45703 0.15137,-0.14258 0.34668,-0.23633 0.57129,-0.27637 0.19922,-0.0215 0.40527,0.009 0.6084,0.0889 0.20215,0.0801 0.3877,0.20508 0.54785,0.37695 0.06445,0.0684 0.12305,0.14648 0.18262,0.22461 0.19824,0.30859 0.32227,0.67969 0.34473,1.08594 l 0.0059,0.13477 -0.72656,0.0469 -0.0078,-0.13574 c -0.03223,-0.45605 -0.19336,-0.72461 -0.32813,-0.86719 -0.08594,-0.0918 -0.18359,-0.15723 -0.2832,-0.19922 -0.15625,-0.0625 -0.31934,-0.0439 -0.41406,0.0459 -0.08789,0.082 -0.11426,0.16602 -0.09473,0.29102 0.01855,0.12402 0.08887,0.27539 0.21973,0.49707 0.01953,0.0264 0.04004,0.0664 0.0625,0.10645 0.125,0.19629 0.28711,0.46387 0.34082,0.70508 0.05566,0.20313 0.05273,0.40039 0.0049,0.5791 -0.04785,0.18164 -0.15039,0.34277 -0.29395,0.47754 -0.17871,0.16895 -0.38281,0.27051 -0.6084,0.30176 -0.19336,0.0244 -0.40918,-0.005 -0.64063,-0.0937 -0.20313,-0.0713 -0.37988,-0.19727 -0.56445,-0.39258 -0.08496,-0.0908 -0.16308,-0.19729 -0.23632,-0.31643 z"
   id="path131"
   inkscape:connector-curvature="0"
   style="fill:#1d1d1b" />
		</g>
	</g>
	<g
   id="g145">
		<g
   id="g139">
			<path
   d="m 3.13965,24.01953 c -0.22949,0 -0.42969,-0.08984 -0.58984,-0.25 -0.16016,-0.14941 -0.24023,-0.35938 -0.24023,-0.58008 0,-0.21973 0.08984,-0.42969 0.24023,-0.58984 0.30957,-0.30957 0.86035,-0.30957 1.16992,0 0.16016,0.16016 0.25,0.37012 0.25,0.58984 0,0.2207 -0.08984,0.41992 -0.25,0.58008 -0.15039,0.16016 -0.36035,0.25 -0.58008,0.25 z"
   id="path137"
   inkscape:connector-curvature="0"
   style="fill:#252626" />
		</g>
		<g
   id="g143">
			<path
   d="M 7.46973,24.01953 C 7.35938,24.01953 7.25,23.99023 7.14942,23.95019 7.04981,23.91015 6.95997,23.8496 6.87989,23.76953 6.7295,23.62012 6.63966,23.41015 6.63966,23.18945 c 0,-0.21973 0.08984,-0.42969 0.24023,-0.58984 0.08008,-0.06934 0.16992,-0.13965 0.26953,-0.17969 0.31055,-0.12012 0.66992,-0.0498 0.90039,0.17969 0.16016,0.16016 0.25,0.37012 0.25,0.58984 0,0.2207 -0.08984,0.43066 -0.25,0.58008 -0.1504,0.16016 -0.36036,0.25 -0.58008,0.25 z"
   id="path141"
   inkscape:connector-curvature="0"
   style="fill:#252626" />
		</g>
	</g>
	<g
   id="g155">
		<g
   id="g149">
			<path
   d="m 67.76953,24.00977 c -0.10938,0 -0.21973,-0.01953 -0.31934,-0.05957 C 67.3496,23.91016 67.25976,23.84961 67.17968,23.76954 67.10938,23.68945 67.04004,23.60938 67,23.5 c -0.04004,-0.10059 -0.06055,-0.2002 -0.06055,-0.31055 0,-0.21973 0.08984,-0.43945 0.24023,-0.58984 0.08008,-0.08008 0.16992,-0.13965 0.27051,-0.17969 0.2998,-0.12012 0.66992,-0.0498 0.89941,0.17969 0.16016,0.15039 0.25,0.37012 0.25,0.58984 0,0.11035 -0.01953,0.20996 -0.07031,0.31055 -0.03906,0.10938 -0.09961,0.18945 -0.17969,0.26953 -0.1494,0.16016 -0.35937,0.24024 -0.58007,0.24024 z"
   id="path147"
   inkscape:connector-curvature="0"
   style="fill:#252626" />
		</g>
		<g
   id="g153">
			<path
   d="m 72.09961,24.00977 c -0.10938,0 -0.21973,-0.01953 -0.32031,-0.05957 -0.09961,-0.04004 -0.18945,-0.10059 -0.26953,-0.18066 -0.07031,-0.08008 -0.13965,-0.16992 -0.17969,-0.26953 -0.04004,-0.10059 -0.06055,-0.2002 -0.06055,-0.31055 0,-0.21973 0.08984,-0.43945 0.24023,-0.58984 0.08008,-0.06934 0.16992,-0.13965 0.26953,-0.17969 0.21094,-0.08008 0.44043,-0.08008 0.64063,0 0.09961,0.04004 0.18945,0.09961 0.26953,0.17969 0.15039,0.15039 0.24023,0.37012 0.24023,0.58984 0,0.2207 -0.08984,0.41992 -0.24023,0.58008 -0.08008,0.08008 -0.16992,0.14063 -0.26953,0.18066 -0.10058,0.04003 -0.20996,0.05957 -0.32031,0.05957 z"
   id="path151"
   inkscape:connector-curvature="0"
   style="fill:#252626" />
		</g>
	</g>
	<g
   id="g165">
		<path
   d="m 21.39551,8.9834 h 5.3584 v 1.88965 h -3.44727 v 0.67383 h 1.90039 v 1.90039 h -1.90039 v 3.40234 h -1.91113 c 0,0 0,-7.86621 0,-7.86621 z"
   id="path157"
   inkscape:connector-curvature="0"
   style="fill:#252626" />
		<path
   d="m 33.84473,15.05957 h -2.20996 l -0.69531,1.79004 h -2.0332 L 31.9336,8.9834 h 1.61328 l 3.03711,7.86621 h -2.06543 z m -1.1045,-3.02637 -0.37598,1.14844 h 0.74023 z"
   id="path159"
   inkscape:connector-curvature="0"
   style="fill:#252626" />
		<path
   d="M 40.83594,10.88379 H 39.03516 V 8.9834 h 5.5127 v 1.90039 h -1.80078 v 5.96582 h -1.91113 c 0,0 0,-5.96582 -10e-6,-5.96582 z"
   id="path161"
   inkscape:connector-curvature="0"
   style="fill:#252626" />
		<path
   d="m 48.61133,8.9834 h 5.3584 v 1.87891 H 50.5332 v 0.67383 h 3.00586 v 1.91113 H 50.5332 v 1.50195 h 3.35938 v 1.90039 h -5.28125 z"
   id="path163"
   inkscape:connector-curvature="0"
   style="fill:#252626" />
	</g>
	<g
   id="g191">
		<path
   d="m 10.59863,23.01953 c 0.0098,0.86328 0.45996,1.90527 1.5957,1.90527 0.86328,0 1.33203,-0.50684 1.51953,-1.23926 h 0.5918 c -0.25391,1.09863 -0.8916,1.73633 -2.11133,1.73633 -1.53906,0 -2.18652,-1.18262 -2.18652,-2.56152 0,-1.27637 0.64746,-2.5625 2.18652,-2.5625 1.55762,0 2.17676,1.36133 2.12988,2.72168 z m 3.13477,-0.49707 c -0.02832,-0.8916 -0.58203,-1.72656 -1.53906,-1.72656 -0.9668,0 -1.50195,0.84473 -1.5957,1.72656 z"
   id="path167"
   inkscape:connector-curvature="0"
   style="fill:#252626" />
		<path
   d="m 14.58008,20.43945 h 0.65723 l 1.52051,4.25098 h 0.01855 l 1.50098,-4.25098 h 0.61035 l -1.81152,4.8418 h -0.62891 z"
   id="path169"
   inkscape:connector-curvature="0"
   style="fill:#252626" />
		<path
   d="m 19.81836,23.01953 c 0.0098,0.86328 0.45996,1.90527 1.5957,1.90527 0.86328,0 1.33203,-0.50684 1.51953,-1.23926 h 0.5918 c -0.25391,1.09863 -0.8916,1.73633 -2.11133,1.73633 -1.53906,0 -2.18652,-1.18262 -2.18652,-2.56152 0,-1.27637 0.64746,-2.5625 2.18652,-2.5625 1.55762,0 2.17676,1.36133 2.12988,2.72168 z m 3.13477,-0.49707 c -0.02832,-0.8916 -0.58203,-1.72656 -1.53906,-1.72656 -0.9668,0 -1.50195,0.84473 -1.5957,1.72656 z"
   id="path171"
   inkscape:connector-curvature="0"
   style="fill:#252626" />
		<path
   d="m 24.33496,20.43945 h 0.59082 v 0.83496 h 0.01953 c 0.21582,-0.58203 0.86328,-0.97656 1.54785,-0.97656 1.36035,0 1.77344,0.71387 1.77344,1.86816 v 3.11523 h -0.59082 v -3.02148 c 0,-0.83496 -0.27246,-1.46387 -1.22949,-1.46387 -0.93848,0 -1.50098,0.71289 -1.52051,1.66113 v 2.82422 h -0.59082 c 0,0 0,-4.84179 0,-4.84179 z"
   id="path173"
   inkscape:connector-curvature="0"
   style="fill:#252626" />
		<path
   d="m 30.3252,20.43945 h 0.98438 v 0.49707 H 30.3252 v 3.26563 c 0,0.38477 0.05566,0.61035 0.47852,0.6377 0.16895,0 0.33789,-0.0088 0.50586,-0.02734 v 0.50586 c -0.17773,0 -0.34668,0.01953 -0.52539,0.01953 -0.78809,0 -1.06055,-0.2627 -1.05078,-1.08887 v -3.3125 h -0.84473 v -0.49707 h 0.84473 v -1.45508 h 0.5918 c 0,0 0,1.45507 -10e-6,1.45507 z"
   id="path175"
   inkscape:connector-curvature="0"
   style="fill:#252626" />
		<path
   d="m 34.77637,20.43945 h 0.54395 v 0.81641 h 0.02832 c 0.30957,-0.58203 0.81641,-0.95801 1.58594,-0.95801 0.6377,0 1.20996,0.31055 1.38867,0.94824 0.29102,-0.6377 0.90039,-0.94824 1.53906,-0.94824 1.06055,0 1.60449,0.55371 1.60449,1.69922 v 3.28418 h -0.59082 v -3.25586 c 0,-0.79785 -0.30078,-1.22949 -1.14551,-1.22949 -1.02246,0 -1.31348,0.84473 -1.31348,1.74512 v 2.74023 h -0.59082 v -3.28418 c 0.0088,-0.65723 -0.2627,-1.20117 -1.01367,-1.20117 -1.02344,0 -1.43555,0.76953 -1.44531,1.7832 v 2.70215 h -0.59082 c -1e-5,0 -1e-5,-4.8418 0,-4.8418 z"
   id="path177"
   inkscape:connector-curvature="0"
   style="fill:#252626" />
		<path
   d="m 46.93164,22.86035 c 0,1.38867 -0.80664,2.56152 -2.29004,2.56152 -1.48242,0 -2.28906,-1.17285 -2.28906,-2.56152 0,-1.38867 0.80664,-2.5625 2.28906,-2.5625 1.4834,0 2.29004,1.17383 2.29004,2.5625 z m -3.98828,0 c 0,1.03223 0.56348,2.06445 1.69824,2.06445 1.13574,0 1.69922,-1.03223 1.69922,-2.06445 0,-1.03222 -0.56348,-2.06445 -1.69922,-2.06445 -1.13476,0 -1.69824,1.03223 -1.69824,2.06445 z"
   id="path179"
   inkscape:connector-curvature="0"
   style="fill:#252626" />
		<path
   d="m 52.07617,25.28125 h -0.54395 v -0.91992 h -0.01855 c -0.25391,0.62891 -1.02344,1.06055 -1.72656,1.06055 -1.47363,0 -2.17773,-1.19141 -2.17773,-2.56152 0,-1.37011 0.7041,-2.5625 2.17773,-2.5625 0.72168,0 1.42578,0.36621 1.67969,1.06055 h 0.01855 v -2.77734 h 0.59082 c 1e-5,0 1e-5,6.70018 0,6.70018 z M 49.78711,24.9248 c 1.25684,0 1.69824,-1.06055 1.69824,-2.06445 0,-1.0039 -0.44141,-2.06445 -1.69824,-2.06445 -1.12695,0 -1.58594,1.06055 -1.58594,2.06445 0,1.0039 0.45899,2.06445 1.58594,2.06445 z"
   id="path181"
   inkscape:connector-curvature="0"
   style="fill:#252626" />
		<path
   d="m 53.21387,18.58105 h 0.5918 v 0.94727 h -0.5918 z m 0,1.8584 h 0.5918 v 4.8418 h -0.5918 z"
   id="path183"
   inkscape:connector-curvature="0"
   style="fill:#252626" />
		<path
   d="m 55.26074,20.93652 h -0.8252 v -0.49707 h 0.8252 v -0.44141 c -0.0088,-0.83496 0.22559,-1.41699 1.17285,-1.41699 0.16895,0 0.31055,0.0098 0.49805,0.03711 V 19.125 C 56.77148,19.09668 56.64062,19.07812 56.5,19.07812 c -0.65723,0 -0.63867,0.41309 -0.64746,0.93848 v 0.42285 h 0.95703 v 0.49707 h -0.95703 v 4.34473 h -0.5918 z m 2.1211,-2.35547 h 0.59082 v 0.94727 h -0.59082 z m 0,1.8584 h 0.59082 v 4.8418 h -0.59082 z"
   id="path185"
   inkscape:connector-curvature="0"
   style="fill:#252626" />
		<path
   d="m 59.45703,23.01953 c 0.0098,0.86328 0.45996,1.90527 1.5957,1.90527 0.86328,0 1.33203,-0.50684 1.51953,-1.23926 h 0.5918 c -0.25391,1.09863 -0.8916,1.73633 -2.11133,1.73633 -1.53906,0 -2.18652,-1.18262 -2.18652,-2.56152 0,-1.27637 0.64746,-2.5625 2.18652,-2.5625 1.55762,0 2.17676,1.36133 2.12988,2.72168 z m 3.13477,-0.49707 c -0.02832,-0.8916 -0.58203,-1.72656 -1.53906,-1.72656 -0.9668,0 -1.50195,0.84473 -1.5957,1.72656 z"
   id="path187"
   inkscape:connector-curvature="0"
   style="fill:#252626" />
		<path
   d="m 63.9834,20.43945 h 0.54395 v 1.13477 h 0.01855 c 0.30078,-0.77832 0.95703,-1.23828 1.83008,-1.20117 v 0.5918 c -1.07031,-0.05664 -1.80176,0.73145 -1.80176,1.73535 v 2.58105 H 63.9834 Z"
   id="path189"
   inkscape:connector-curvature="0"
   style="fill:#252626" />
	</g>
	<g
   id="g195">
		<circle
   cx="57.407051"
   cy="167.5"
   r="14.87217"
   id="circle193"
   style="fill:#252626" />
	</g>
	<g
   id="g229">
		<g
   id="g199">
			<path
   d="m 47.36914,101.83301 -2.9375,2.54395 -1.67285,-1.93164 0.54004,-0.4668 1.19824,1.38086 0.43262,-0.37402 -0.66113,-0.76367 0.54492,-0.47168 0.66113,0.7627 1.41895,-1.22949 z"
   id="path197"
   inkscape:connector-curvature="0"
   style="fill:#1d1d1b" />
		</g>
		<g
   id="g203">
			<path
   d="m 44.33594,97.21191 -1.13281,2.05859 0.13281,0.28223 1.71875,-0.80957 0.30273,0.6416 -3.51758,1.65625 -0.59375,-1.25977 c -0.11035,-0.2373 -0.12109,-0.50391 -0.03027,-0.75879 0.09277,-0.25391 0.26953,-0.45215 0.50684,-0.56348 0.35156,-0.16602 0.76563,-0.10742 1.05762,0.12988 l 1.1875,-2.1582 z m -1.93262,2.02539 c -0.06445,-0.1377 -0.23535,-0.2041 -0.37793,-0.13672 -0.14355,0.06738 -0.20117,0.23926 -0.13672,0.37793 l 0.29199,0.61719 0.5127,-0.24219 z"
   id="path201"
   inkscape:connector-curvature="0"
   style="fill:#1d1d1b" />
		</g>
		<g
   id="g207">
			<path
   d="m 43.91016,95.9707 -3.82617,0.71191 -0.46875,-2.52051 0.69922,-0.12891 0.33398,1.7998 0.56445,-0.10449 -0.29297,-1.57031 0.71582,-0.13281 0.29199,1.57031 1.13867,-0.21289 -0.3252,-1.75195 0.70898,-0.13184 z"
   id="path205"
   inkscape:connector-curvature="0"
   style="fill:#1d1d1b" />
		</g>
		<g
   id="g211">
			<path
   d="m 43.44043,92.62305 -3.87793,-0.29492 0.19434,-2.55664 0.70801,0.05469 -0.13867,1.8252 0.57227,0.04395 0.12012,-1.5918 0.72559,0.05566 -0.12111,1.59081 1.1543,0.08789 0.13672,-1.77637 0.71875,0.05566 z"
   id="path209"
   inkscape:connector-curvature="0"
   style="fill:#1d1d1b" />
		</g>
		<g
   id="g215">
			<path
   d="m 50.52539,80.89941 -1.73828,-0.95605 0.06445,1.98242 -0.57227,0.35156 -2.95508,-2.74414 0.65039,-0.40039 2.125,1.98145 -0.05273,-1.74512 0.57031,-0.35156 1.52734,0.84277 -0.79785,-2.79395 0.64648,-0.39648 1.10449,3.87891 z"
   id="path213"
   inkscape:connector-curvature="0"
   style="fill:#1d1d1b" />
		</g>
		<g
   id="g219">
			<path
   d="m 52.83203,80.01758 -0.98242,-3.75781 0.70703,-0.18555 0.98242,3.75879 z"
   id="path217"
   inkscape:connector-curvature="0"
   style="fill:#1d1d1b" />
		</g>
		<g
   id="g223">
			<path
   d="m 54.77539,79.55664 -0.14844,-3.88867 0.73145,-0.02734 0.12109,3.17285 1.98145,-0.0752 0.02734,0.71484 z"
   id="path221"
   inkscape:connector-curvature="0"
   style="fill:#1d1d1b" />
		</g>
		<g
   id="g227">
			<path
   d="m 58.19043,79.5498 0.86719,-3.78613 0.71191,0.16211 -0.70703,3.09082 1.93164,0.44238 -0.16016,0.69531 z"
   id="path225"
   inkscape:connector-curvature="0"
   style="fill:#1d1d1b" />
		</g>
	</g>
	<g
   id="g275">
		<g
   id="g233">
			<path
   d="m 25.94043,339.3457 c -0.01855,0.25977 -0.08691,0.51465 -0.20215,0.75 -0.11328,0.24121 -0.27148,0.45215 -0.4707,0.625 -0.20313,0.18457 -0.43164,0.32227 -0.69531,0.41211 -1.05664,0.36523 -2.2168,-0.2041 -2.58203,-1.26172 -0.10254,-0.2998 -0.13379,-0.62305 -0.08984,-0.93164 0.03809,-0.30762 0.15625,-0.61523 0.33398,-0.87109 l 0.07422,-0.11914 0.59961,0.41211 -0.07813,0.1123 c -0.23438,0.34082 -0.29102,0.76465 -0.15234,1.16113 0.2334,0.68066 0.97754,1.04688 1.6582,0.8125 0.68555,-0.23633 1.05078,-0.98633 0.81641,-1.66602 -0.13477,-0.39258 -0.44043,-0.69141 -0.83594,-0.81934 l -0.12598,-0.0439 0.21387,-0.68457 0.13086,0.0459 c 0.30469,0.0967 0.57422,0.25879 0.80078,0.48047 0.22461,0.2168 0.39453,0.4873 0.49707,0.78711 0.08789,0.25783 0.12402,0.52736 0.10742,0.79884 z"
   id="path231"
   inkscape:connector-curvature="0"
   style="fill:#1d1d1b" />
		</g>
		<g
   id="g237">
			<path
   d="m 25.09473,333.89844 -1.88184,0.041 0.03418,1.57617 1.88184,-0.041 0.01563,0.73242 -3.88379,0.084 -0.01563,-0.73047 1.28711,-0.0293 -0.03418,-1.57715 -1.28711,0.0303 -0.01563,-0.73242 3.88379,-0.084 z"
   id="path235"
   inkscape:connector-curvature="0"
   style="fill:#1d1d1b" />
		</g>
		<g
   id="g241">
			<path
   d="m 23.21387,331.91895 c -1.07324,-0.33594 -1.6709,-1.47754 -1.33594,-2.54492 0.33496,-1.07324 1.47754,-1.66992 2.5498,-1.33496 1.06836,0.33398 1.66113,1.47461 1.3252,2.54785 -0.33496,1.06738 -1.47168,1.66601 -2.53906,1.33203 z m 0.21777,-0.69727 c 0.6875,0.21484 1.41992,-0.16797 1.63281,-0.85059 0.21387,-0.68164 -0.16992,-1.41406 -0.85645,-1.62891 -0.69238,-0.2168 -1.4248,0.16602 -1.6377,0.84863 -0.21385,0.68165 0.16993,1.41407 0.86134,1.63087 z"
   id="path239"
   inkscape:connector-curvature="0"
   style="fill:#1d1d1b" />
		</g>
		<g
   id="g245">
			<path
   d="m 26.8877,327.88574 -3.2998,-2.06445 0.38867,-0.62109 3.29883,2.06543 z"
   id="path243"
   inkscape:connector-curvature="0"
   style="fill:#1d1d1b" />
		</g>
		<g
   id="g249">
			<path
   d="m 28.5332,325.49707 c -0.24414,0.0937 -0.50293,0.14063 -0.76563,0.1377 -0.26758,0 -0.52539,-0.0537 -0.76563,-0.16113 -0.25391,-0.10449 -0.47656,-0.25488 -0.66992,-0.45313 -0.78223,-0.80176 -0.75977,-2.0957 0.04102,-2.87598 0.22656,-0.22168 0.50684,-0.3877 0.80469,-0.48047 0.2959,-0.0967 0.62402,-0.11914 0.93262,-0.0693 l 0.13867,0.0186 -0.11719,0.71582 -0.13477,-0.0205 c -0.40918,-0.0674 -0.81543,0.0625 -1.11719,0.35547 -0.5166,0.50391 -0.53223,1.33301 -0.02832,1.84961 0.50684,0.51953 1.34082,0.53125 1.85645,0.0283 0.29688,-0.28906 0.43848,-0.69336 0.38574,-1.10742 l -0.01367,-0.13086 0.71191,-0.0986 0.01367,0.13867 c 0.04199,0.31738 0.01074,0.62988 -0.09375,0.92969 -0.09961,0.29688 -0.27441,0.56348 -0.50098,0.78516 -0.19529,0.19043 -0.42576,0.33692 -0.67772,0.43848 z"
   id="path247"
   inkscape:connector-curvature="0"
   style="fill:#1d1d1b" />
		</g>
		<g
   id="g253">
			<path
   d="m 31.14258,323.42383 -1.78516,-3.45801 2.27734,-1.1748 0.32617,0.63086 -1.62695,0.83984 0.26367,0.50879 1.41797,-0.73145 0.33301,0.64648 -1.41797,0.73145 0.53027,1.0293 1.58301,-0.81641 0.33105,0.63965 z"
   id="path251"
   inkscape:connector-curvature="0"
   style="fill:#1d1d1b" />
		</g>
		<g
   id="g257">
			<path
   d="m 43.19629,322.38672 1.92676,-3.375 1.13281,0.64746 c 0.95313,0.54395 1.29785,1.74609 0.7666,2.67578 -0.53027,0.92871 -1.74023,1.24316 -2.69336,0.69922 z m 1.4873,0.0264 c 0.60645,0.34668 1.37305,0.14844 1.70898,-0.43848 0.33496,-0.58887 0.11719,-1.34766 -0.49023,-1.69434 l -0.50391,-0.28711 -1.21777,2.13281 z"
   id="path255"
   inkscape:connector-curvature="0"
   style="fill:#1d1d1b" />
		</g>
		<g
   id="g261">
			<path
   d="m 46.57129,324.52246 2.76172,-2.73242 1.7998,1.82031 -0.50391,0.49805 -1.28613,-1.2998 -0.40723,0.40234 1.12012,1.13281 -0.51465,0.51074 -1.12109,-1.13281 -0.82227,0.81348 1.25098,1.26465 -0.5127,0.50684 z"
   id="path259"
   inkscape:connector-curvature="0"
   style="fill:#1d1d1b" />
		</g>
		<g
   id="g265">
			<path
   d="m 48.83008,327.02051 3.36914,-1.94141 0.69531,1.20703 c 0.13281,0.23242 0.16895,0.5 0.09961,0.76172 -0.07422,0.25684 -0.23242,0.47363 -0.46289,0.60742 -0.47852,0.27539 -1.08887,0.10352 -1.36328,-0.37402 l -0.33203,-0.57813 -1.64258,0.94629 z m 2.95703,-0.0977 c 0.07715,0.13379 0.24609,0.1748 0.37793,0.0986 0.13184,-0.0762 0.18262,-0.25098 0.10938,-0.37891 l -0.33203,-0.57617 -0.4873,0.28027 z"
   id="path263"
   inkscape:connector-curvature="0"
   style="fill:#1d1d1b" />
		</g>
		<g
   id="g269">
			<path
   d="m 50.49023,330.46387 3.03711,-0.88477 -0.26563,-0.91797 0.69141,-0.2002 0.73828,2.53418 -0.6914,0.20118 -0.26758,-0.91602 -3.03906,0.88477 z"
   id="path267"
   inkscape:connector-curvature="0"
   style="fill:#1d1d1b" />
		</g>
		<g
   id="g273">
			<path
   d="M 51.11719,335.0957 53,335.07031 l -0.02051,-1.57715 -1.88379,0.0254 -0.0098,-0.73242 3.88672,-0.0518 0.0098,0.73242 -1.28906,0.0166 0.02246,1.57813 1.28809,-0.0176 0.0098,0.73047 -3.88672,0.0527 z"
   id="path271"
   inkscape:connector-curvature="0"
   style="fill:#1d1d1b" />
		</g>
	</g>
	<g
   id="g457">
		<g
   id="g361">
			<g
   id="g279">
				<path
   d="m 20.9305,59.17439 c -0.14946,-0.43065 0.08256,-0.90553 0.51368,-1.05465 v 0 c 0.43112,-0.14912 0.90595,0.08279 1.05542,0.51344 v 0 c 0.14892,0.43092 -0.0831,0.9058 -0.51422,1.05492 v 0 c -0.08795,0.0275 -0.18238,0.04422 -0.27033,0.04422 v 0 c -0.34263,0 -0.66854,-0.21546 -0.78455,-0.55793 z"
   id="path277"
   inkscape:connector-curvature="0"
   style="fill:#00bc8b" />
			</g>
			<g
   id="g283">
				<path
   d="m 20.1134,55.40218 v 0 c -0.04964,-0.45843 0.28166,-0.86724 0.73491,-0.91119 v 0 c 0.45325,-0.04989 0.86171,0.28153 0.91189,0.73429 v 0 c 0.04964,0.45303 -0.2822,0.86158 -0.73491,0.91146 v 0 c -0.03345,0.0054 -0.06097,0.0054 -0.08849,0.0054 v 0 c -0.41979,0 -0.77915,-0.3147 -0.8234,-0.73995 z"
   id="path281"
   inkscape:connector-curvature="0"
   style="fill:#00bc8b" />
			</g>
			<g
   id="g287">
				<path
   d="m 53.59015,51.77401 c -0.04964,-0.45277 0.28759,-0.86158 0.7403,-0.9058 v 0 c 0.45325,-0.04962 0.86225,0.2818 0.90649,0.74023 v 0 c 0.04424,0.45843 -0.2876,0.86157 -0.7403,0.90553 v 0 c -0.02806,0.0057 -0.05558,0.0057 -0.0831,0.0057 v 0 c -0.41978,0 -0.78454,-0.3147 -0.82339,-0.74562 z"
   id="path285"
   inkscape:connector-curvature="0"
   style="fill:#00bc8b" />
			</g>
			<g
   id="g291">
				<path
   d="m 21.48843,48.53212 c -0.43112,-0.14912 -0.65775,-0.624 -0.50289,-1.05465 v 0 c 0.15486,-0.43632 0.62969,-0.65717 1.06081,-0.50265 v 0 c 0.43112,0.14912 0.65181,0.624 0.50289,1.05492 v 0 c -0.1214,0.34221 -0.44192,0.55227 -0.78455,0.55227 v 0 c -0.08849,0 -0.18238,-0.01672 -0.27626,-0.04989 z"
   id="path289"
   inkscape:connector-curvature="0"
   style="fill:#00bc8b" />
			</g>
			<g
   id="g295">
				<path
   d="m 22.98036,45.05832 c -0.38688,-0.24836 -0.49749,-0.76207 -0.24875,-1.1431 v 0 c 0.24281,-0.3867 0.75703,-0.50266 1.14337,-0.25402 v 0 c 0.38148,0.24297 0.49749,0.75668 0.25414,1.1431 v 0 c -0.15972,0.24863 -0.43058,0.38103 -0.70145,0.38103 v 0 c -0.15486,0 -0.30918,-0.03856 -0.44731,-0.12701 z"
   id="path293"
   inkscape:connector-curvature="0"
   style="fill:#00bc8b" />
			</g>
			<g
   id="g299">
				<path
   d="m 49.08142,42.18101 c -0.32051,-0.32575 -0.32051,-0.85052 0.01133,-1.17061 v 0 c 0.32591,-0.32036 0.85092,-0.31497 1.17143,0.01105 v 0 c 0.32051,0.32576 0.31458,0.85025 -0.01133,1.17061 v 0 c -0.16025,0.16018 -0.37015,0.23758 -0.58005,0.23758 v 0 c -0.21529,0 -0.43112,-0.08279 -0.59138,-0.24863 z"
   id="path297"
   inkscape:connector-curvature="0"
   style="fill:#00bc8b" />
			</g>
			<g
   id="g303">
				<path
   d="m 28.06913,39.5135 c -0.23796,-0.38643 -0.12195,-0.89447 0.27033,-1.13744 v 0 c 0.38688,-0.24324 0.89516,-0.12162 1.13851,0.26508 v 0 c 0.24281,0.39209 0.1214,0.90014 -0.26547,1.1431 v 0 c -0.13813,0.08279 -0.28706,0.12162 -0.43652,0.12162 v 0 c -0.27626,0 -0.54659,-0.13807 -0.70685,-0.39236 z"
   id="path301"
   inkscape:connector-curvature="0"
   style="fill:#00bc8b" />
			</g>
			<g
   id="g307">
				<path
   d="m 43.06458,38.32617 c -0.43113,-0.15451 -0.65181,-0.62939 -0.49749,-1.06031 v 0 c 0.15486,-0.43065 0.63023,-0.65178 1.06081,-0.49699 v 0 c 0.43112,0.15452 0.65235,0.62967 0.49749,1.06032 v 0 c -0.1214,0.33681 -0.44191,0.54688 -0.77915,0.54688 v 0 c -0.09389,-10e-6 -0.18777,-0.01673 -0.28166,-0.0499 z"
   id="path305"
   inkscape:connector-curvature="0"
   style="fill:#00bc8b" />
			</g>
			<g
   id="g311">
				<path
   d="m 35.0637,36.73569 c -0.04964,-0.45276 0.2822,-0.86157 0.73491,-0.91119 h 0.0059 c 0.45271,-0.04422 0.85631,0.28719 0.90596,0.73996 v 0 c 0.04424,0.45303 -0.28166,0.86157 -0.7403,0.9058 v 0 c 0,0 0,0 0.0054,0.0054 v 0 c -0.03291,0 -0.06097,0.0057 -0.08849,0.0057 v 0 c -0.41981,10e-6 -0.77917,-0.32036 -0.82341,-0.74562 z"
   id="path309"
   inkscape:connector-curvature="0"
   style="fill:#00bc8b" />
			</g>
			<g
   id="g315">
				<path
   d="m 23.3667,63.17295 c -0.22069,0 -0.43058,-0.08845 -0.59084,-0.24297 C 22.74241,62.89115 22.7041,62.84693 22.67604,62.80297 22.64313,62.75875 22.621,62.70886 22.59888,62.65924 22.57676,62.60962 22.56003,62.56 22.54924,62.50472 c -0.01133,-0.04989 -0.01673,-0.1049 -0.01673,-0.16018 0,-0.21546 0.08849,-0.43092 0.24335,-0.58544 0.03831,-0.03856 0.08256,-0.07173 0.1268,-0.1049 0.04424,-0.02777 0.09389,-0.05528 0.14353,-0.07173 0.05018,-0.02211 0.10522,-0.03883 0.15486,-0.04988 0.27087,-0.05528 0.55792,0.03316 0.74624,0.22652 0.15432,0.15451 0.24281,0.36998 0.24281,0.58544 0,0.22086 -0.08849,0.43065 -0.24281,0.58544 -0.03345,0.03856 -0.0777,0.07173 -0.12195,0.1049 -0.04424,0.0275 -0.09389,0.05528 -0.14353,0.07739 -0.04964,0.01645 -0.10522,0.0329 -0.15486,0.04396 -0.05503,0.01105 -0.11007,0.01671 -0.16025,0.01671 z"
   id="path313"
   inkscape:connector-curvature="0"
   style="fill:#00bc8b" />
			</g>
			<g
   id="g319">
				<path
   d="m 18.65941,60.61034 c -0.16026,-0.42526 0.05504,-0.9058 0.48076,-1.06598 v 0 c 0.42519,-0.16557 0.90595,0.04989 1.0716,0.48054 v 0 c 0.16026,0.42526 -0.05504,0.9058 -0.48076,1.06598 v 0 c -0.09928,0.03856 -0.19856,0.05528 -0.29245,0.05528 v 0 c -0.33723,0 -0.65235,-0.2044 -0.77915,-0.53582 z"
   id="path317"
   inkscape:connector-curvature="0"
   style="fill:#00bc8b" />
			</g>
			<g
   id="g323">
				<path
   d="m 17.62612,56.81078 c -0.07716,-0.45303 0.23202,-0.87802 0.67987,-0.95002 v 0 c 0.45271,-0.08279 0.87843,0.22652 0.95559,0.67389 v 0 c 0.07716,0.45277 -0.22662,0.87803 -0.67933,0.95542 v 0 c -0.04425,0.01106 -0.09443,0.01106 -0.13813,0.01106 v 0 c -0.39821,0 -0.74624,-0.2818 -0.818,-0.69035 z"
   id="path321"
   inkscape:connector-curvature="0"
   style="fill:#00bc8b" />
			</g>
			<g
   id="g327">
				<path
   d="m 18.15652,53.73447 c -0.45864,-0.01079 -0.81746,-0.39209 -0.80667,-0.84486 v 0 c 0.01079,-0.45843 0.39227,-0.82274 0.84552,-0.80629 v 0 c 0.45864,0.0054 0.81746,0.3867 0.81207,0.84486 v 0 c -0.01079,0.45303 -0.38148,0.80629 -0.82879,0.80629 v 0 c -0.0054,0 -0.01673,0 -0.02213,0 z"
   id="path325"
   inkscape:connector-curvature="0"
   style="fill:#00bc8b" />
			</g>
			<g
   id="g331">
				<path
   d="M 18.45491,49.97374 C 18.0076,49.87423 17.7254,49.43253 17.82522,48.98515 v 0 c 0.09928,-0.44737 0.5412,-0.72917 0.98905,-0.62966 v 0 c 0.44731,0.0995 0.72897,0.54121 0.62969,0.98292 v 0 c -0.08849,0.3867 -0.43112,0.65178 -0.80667,0.65178 v 0 c -0.06097,0 -0.12141,-0.0054 -0.18238,-0.01645 z"
   id="path329"
   inkscape:connector-curvature="0"
   style="fill:#00bc8b" />
			</g>
			<g
   id="g335">
				<path
   d="m 55.38898,46.33792 c -0.18238,-0.42526 0.01619,-0.91119 0.44191,-1.08809 v 0 c 0.41979,-0.17663 0.90595,0.02211 1.08294,0.44198 v 0 c 0.17698,0.4196 -0.02212,0.90553 -0.44191,1.08243 v 0 c -0.10522,0.04422 -0.21583,0.06634 -0.32051,0.06634 v 0 c -0.32591,0 -0.63024,-0.18796 -0.76243,-0.50266 z"
   id="path333"
   inkscape:connector-curvature="0"
   style="fill:#00bc8b" />
			</g>
			<g
   id="g339">
				<path
   d="m 21.18464,42.96519 c -0.37609,-0.26508 -0.46997,-0.77851 -0.2045,-1.15416 v 0 c 0.25954,-0.37537 0.77915,-0.46382 1.1547,-0.20441 v 0 c 0.37555,0.25969 0.46404,0.7734 0.2045,1.15443 v 0 c -0.16026,0.22625 -0.42033,0.35326 -0.67987,0.35326 v 0 c -0.16565,0 -0.3313,-0.04962 -0.47483,-0.14912 z"
   id="path337"
   inkscape:connector-curvature="0"
   style="fill:#00bc8b" />
			</g>
			<g
   id="g343">
				<path
   d="m 23.51077,39.98864 c -0.32051,-0.33142 -0.30972,-0.85618 0.01619,-1.17627 v 0 c 0.33184,-0.31497 0.85685,-0.30391 1.17682,0.02184 v 0 c 0.31511,0.32602 0.30972,0.85052 -0.02212,1.17088 v 0 C 24.52195,40.15988 24.31151,40.237 24.10755,40.237 v 0 c -0.21584,0 -0.43653,-0.08278 -0.59678,-0.24836 z"
   id="path341"
   inkscape:connector-curvature="0"
   style="fill:#00bc8b" />
			</g>
			<g
   id="g347">
				<path
   d="m 48.02601,37.91763 c -0.38094,-0.25969 -0.48022,-0.77312 -0.22609,-1.14877 v 0 c 0.25414,-0.38103 0.76782,-0.48593 1.1493,-0.22652 v 0 c 0.38094,0.25402 0.48023,0.76773 0.22609,1.14877 v 0 c -0.16026,0.23757 -0.41979,0.36459 -0.68473,0.36459 v 0 c -0.16025,0 -0.32051,-0.04423 -0.46457,-0.13807 z"
   id="path345"
   inkscape:connector-curvature="0"
   style="fill:#00bc8b" />
			</g>
			<g
   id="g351">
				<path
   d="m 29.64363,35.63115 c -0.17105,-0.42526 0.03885,-0.91119 0.45864,-1.07703 v 0 c 0.43113,-0.17097 0.91189,0.03317 1.08294,0.45843 v 0 c 0.16565,0.42526 -0.03885,0.91119 -0.46404,1.07703 v 0 c -0.09982,0.04423 -0.2045,0.06068 -0.30378,0.06068 v 0 c -0.33185,0 -0.64103,-0.19874 -0.77376,-0.51911 z"
   id="path349"
   inkscape:connector-curvature="0"
   style="fill:#00bc8b" />
			</g>
			<g
   id="g355">
				<path
   d="M 41.39026,35.13956 C 40.94295,35.04572 40.65535,34.6094 40.74384,34.16203 v 0 c 0.08849,-0.44737 0.52501,-0.73429 0.97826,-0.64611 v 0 c 0.44731,0.08845 0.73491,0.53016 0.64642,0.97753 v 0 c -0.08309,0.39209 -0.42573,0.66283 -0.8126,0.66283 v 0 c -0.05504,0 -0.11008,-0.0057 -0.16566,-0.01672 z"
   id="path353"
   inkscape:connector-curvature="0"
   style="fill:#00bc8b" />
			</g>
			<g
   id="g359">
				<path
   d="m 21.1404,64.56469 c -0.05558,0 -0.11061,-0.0057 -0.16025,-0.01672 -0.05558,-0.01105 -0.11061,-0.02211 -0.16026,-0.04423 -0.04964,-0.02184 -0.09389,-0.04961 -0.13813,-0.07712 -0.04964,-0.02778 -0.09389,-0.06634 -0.12734,-0.1049 -0.15486,-0.15479 -0.24281,-0.36458 -0.24281,-0.58544 0,-0.05528 0.0054,-0.1049 0.01619,-0.16018 0.0059,-0.05528 0.02212,-0.1049 0.04424,-0.15479 0.02212,-0.04962 0.04964,-0.09924 0.0777,-0.14346 0.02752,-0.04422 0.06637,-0.08845 0.10468,-0.12701 0.03345,-0.03856 0.0777,-0.07173 0.12734,-0.09951 0.04424,-0.03317 0.08849,-0.06067 0.13813,-0.07712 0.04964,-0.02211 0.10468,-0.03883 0.16026,-0.04989 0.26493,-0.05528 0.55253,0.03317 0.7457,0.22652 0.03885,0.03856 0.07176,0.08279 0.09928,0.12701 0.03345,0.04423 0.05558,0.09385 0.0777,0.14346 0.02212,0.04988 0.03831,0.09951 0.04964,0.15479 0.01079,0.05528 0.01673,0.1049 0.01673,0.16018 0,0.22086 -0.08849,0.43065 -0.24335,0.58544 -0.15487,0.15451 -0.37016,0.24297 -0.58545,0.24297 z"
   id="path357"
   inkscape:connector-curvature="0"
   style="fill:#00bc8b" />
			</g>
		</g>
		<g
   id="g451">
			<g
   id="g365">
				<path
   d="m 52.21077,63.80828 c -0.05558,0 -0.10522,-0.0054 -0.16026,-0.01645 -0.05504,-0.01106 -0.10522,-0.02211 -0.15486,-0.04423 -0.04964,-0.02211 -0.09928,-0.04962 -0.14353,-0.07739 -0.04424,-0.0275 -0.08849,-0.06634 -0.12734,-0.1049 -0.15432,-0.15452 -0.24281,-0.36459 -0.24281,-0.58544 0,-0.21546 0.08849,-0.43065 0.24281,-0.58544 0.03885,-0.03856 0.0831,-0.07173 0.12734,-0.1049 0.04425,-0.0275 0.09389,-0.05528 0.14353,-0.07173 0.04964,-0.02211 0.09982,-0.03856 0.15486,-0.04962 0.27087,-0.04988 0.55792,0.03856 0.7457,0.22625 0.15486,0.15479 0.24335,0.36998 0.24335,0.58544 0,0.22086 -0.08849,0.43092 -0.24335,0.58544 -0.15432,0.15452 -0.36476,0.24297 -0.58544,0.24297 z"
   id="path363"
   inkscape:connector-curvature="0"
   style="fill:#ff4257" />
			</g>
			<g
   id="g369">
				<path
   d="m 53.7318,59.85923 c -0.43112,-0.15479 -0.65181,-0.62967 -0.49749,-1.06059 v 0 c 0.15486,-0.43065 0.63023,-0.65151 1.06081,-0.49699 v 0 c 0.43112,0.15479 0.65235,0.63506 0.4921,1.06031 h 0.0054 c -0.12141,0.33708 -0.44191,0.54688 -0.77915,0.54688 v 0 c -0.09389,1e-5 -0.18777,-0.01671 -0.28166,-0.04961 z"
   id="path367"
   inkscape:connector-curvature="0"
   style="fill:#ff4257" />
			</g>
			<g
   id="g373">
				<path
   d="M 54.79517,56.58718 C 54.34732,56.5319 54.02141,56.11769 54.07645,55.65954 v 0 c 0.05558,-0.45303 0.46997,-0.77879 0.92322,-0.71811 v 0 c 0.45271,0.05528 0.77861,0.46382 0.72358,0.92225 v 0 c -0.05504,0.41986 -0.409,0.72917 -0.8234,0.72917 v 0 c -0.03291,-10e-6 -0.06637,-0.0057 -0.10468,-0.0057 z"
   id="path371"
   inkscape:connector-curvature="0"
   style="fill:#ff4257" />
			</g>
			<g
   id="g377">
				<path
   d="m 21.21356,52.70758 c -0.4581,-0.05501 -0.77861,-0.46922 -0.72897,-0.92225 v 0 c 0.05504,-0.45277 0.46404,-0.77879 0.91728,-0.7289 v 0 c 0.45864,0.05528 0.78455,0.46382 0.72897,0.92225 v 0 c -0.04964,0.4196 -0.40846,0.73456 -0.82286,0.73456 v 0 c -0.03345,1e-5 -0.06636,-0.0057 -0.09442,-0.0057 z"
   id="path375"
   inkscape:connector-curvature="0"
   style="fill:#ff4257" />
			</g>
			<g
   id="g381">
				<path
   d="m 53.22733,48.70929 c -0.14893,-0.43092 0.08849,-0.90014 0.51962,-1.04926 v 0 c 0.43058,-0.14912 0.90055,0.08818 1.04948,0.5191 v 0 c 0.14946,0.43065 -0.08256,0.90014 -0.51908,1.04926 v 0 c -0.08849,0.03317 -0.17698,0.04422 -0.26547,0.04422 v 0 c -0.34263,0 -0.66854,-0.21546 -0.78455,-0.56332 z"
   id="path379"
   inkscape:connector-curvature="0"
   style="fill:#ff4257" />
			</g>
			<g
   id="g385">
				<path
   d="m 51.69709,45.462 c -0.23796,-0.39236 -0.11601,-0.9058 0.27033,-1.14337 v 0 c 0.39227,-0.2373 0.90056,-0.11596 1.13851,0.27074 h 0.0054 c 0.23742,0.38643 0.11601,0.90014 -0.27087,1.13771 v 0 c -0.13813,0.08818 -0.28706,0.12701 -0.43652,0.12701 v 0 c -0.27626,0 -0.54659,-0.13807 -0.70684,-0.39209 z"
   id="path383"
   inkscape:connector-curvature="0"
   style="fill:#ff4257" />
			</g>
			<g
   id="g389">
				<path
   d="m 25.61761,42.45201 c -0.32591,-0.32575 -0.32051,-0.85052 0.0054,-1.17088 v 0 c 0.3259,-0.32575 0.85092,-0.32036 1.17143,0.0057 v 0 c 0.32051,0.32575 0.32051,0.85052 -0.0054,1.17061 v 0 c -0.16026,0.16018 -0.37609,0.23757 -0.58598,0.23757 v 0 c -0.20991,10e-6 -0.4252,-0.08278 -0.58545,-0.24296 z"
   id="path387"
   inkscape:connector-curvature="0"
   style="fill:#ff4257" />
			</g>
			<g
   id="g393">
				<path
   d="m 46.69087,40.36455 c -0.38688,-0.24863 -0.49695,-0.76234 -0.24874,-1.14877 v 0 c 0.24335,-0.38103 0.75703,-0.49726 1.14391,-0.24863 v 0 c 0.38148,0.24863 0.49749,0.76207 0.24874,1.1431 v 0 c -0.16026,0.24863 -0.42573,0.3813 -0.69606,0.3813 v 0 c -0.15486,1e-5 -0.30972,-0.03882 -0.44785,-0.127 z"
   id="path391"
   inkscape:connector-curvature="0"
   style="fill:#ff4257" />
			</g>
			<g
   id="g397">
				<path
   d="m 31.80604,38.17731 c -0.14407,-0.43605 0.08256,-0.90553 0.51908,-1.05465 v 0 c 0.43112,-0.14912 0.90055,0.08818 1.05002,0.5191 v 0 c 0.14893,0.43065 -0.0831,0.90014 -0.51422,1.04926 v 0 c -0.08795,0.03317 -0.18238,0.04422 -0.27033,0.04422 v 0 c -0.34263,0 -0.66854,-0.21546 -0.78455,-0.55793 z"
   id="path395"
   inkscape:connector-curvature="0"
   style="fill:#ff4257" />
			</g>
			<g
   id="g401">
				<path
   d="m 39.96663,37.95107 c -0.45325,-0.05528 -0.77915,-0.46949 -0.72358,-0.92225 v 0 c 0.05504,-0.45303 0.46404,-0.77879 0.92268,-0.72351 v 0 c 0.45271,0.05528 0.77916,0.46382 0.72358,0.92225 v 0 c -0.04964,0.41959 -0.409,0.7289 -0.82339,0.7289 v 0 c -0.03292,0 -0.06637,-0.0054 -0.09929,-0.0054 z"
   id="path399"
   inkscape:connector-curvature="0"
   style="fill:#ff4257" />
			</g>
			<g
   id="g405">
				<path
   d="m 54.41549,65.23318 c -0.21583,0 -0.43113,-0.08845 -0.58598,-0.24297 -0.03831,-0.03883 -0.07177,-0.08279 -0.09928,-0.12701 -0.03345,-0.04422 -0.05558,-0.09384 -0.07716,-0.14373 -0.02213,-0.04961 -0.03885,-0.09924 -0.05018,-0.15452 -0.01079,-0.05527 -0.01619,-0.1049 -0.01619,-0.16018 0,-0.22086 0.08795,-0.43631 0.24281,-0.58544 0.19371,-0.19335 0.48077,-0.28153 0.75163,-0.23191 0.04964,0.01105 0.10468,0.02751 0.15486,0.04962 0.04964,0.02211 0.09389,0.04422 0.14353,0.07739 0.04424,0.02751 0.08849,0.06634 0.1214,0.1049 0.15486,0.14912 0.24335,0.36458 0.24335,0.58544 0,0.05528 -0.0059,0.1049 -0.01673,0.16018 -0.0054,0.05528 -0.02212,0.1049 -0.04424,0.15452 -0.02213,0.04989 -0.04964,0.09951 -0.07716,0.14373 -0.02806,0.04423 -0.06637,0.08818 -0.10522,0.12701 -0.03291,0.03856 -0.07716,0.07173 -0.1214,0.09924 -0.04964,0.03316 -0.09389,0.05528 -0.14353,0.07739 -0.05018,0.02211 -0.10522,0.03883 -0.15486,0.04989 -0.05558,0.01079 -0.11062,0.01645 -0.16565,0.01645 z"
   id="path403"
   inkscape:connector-curvature="0"
   style="fill:#ff4257" />
			</g>
			<g
   id="g409">
				<path
   d="m 55.84105,61.82005 c -0.42573,-0.17124 -0.63023,-0.65151 -0.45864,-1.07677 v 0 c 0.16565,-0.42526 0.64642,-0.63506 1.0716,-0.46409 v 0 c 0.42573,0.17124 0.63562,0.65178 0.46404,1.07704 v 0 c -0.1268,0.32575 -0.44191,0.5191 -0.76782,0.5191 v 0 c -0.10522,0 -0.2045,-0.01645 -0.30918,-0.05528 z"
   id="path407"
   inkscape:connector-curvature="0"
   style="fill:#ff4257" />
			</g>
			<g
   id="g413">
				<path
   d="m 57.04539,58.23595 c -0.44785,-0.08279 -0.74624,-0.51371 -0.66314,-0.96647 v 0 c 0.0831,-0.44737 0.51368,-0.74562 0.96693,-0.66283 v 0 c 0.44785,0.08279 0.7457,0.51371 0.66314,0.96647 v 0 c -0.07177,0.39775 -0.4198,0.67928 -0.818,0.67928 v 0 c -0.04964,0 -0.09928,-0.0054 -0.14893,-0.01645 z"
   id="path411"
   inkscape:connector-curvature="0"
   style="fill:#ff4257" />
			</g>
			<g
   id="g417">
				<path
   d="m 56.69197,53.66866 c 0,-0.45843 0.36422,-0.8284 0.82286,-0.83407 v 0 c 0.45864,-0.0054 0.83473,0.35919 0.83473,0.81735 v 0 c 0.0054,0.45843 -0.35936,0.83407 -0.818,0.83407 v 0 c -0.0054,0 -0.01079,0 -0.01079,0 v 0 c -0.45325,1e-5 -0.82341,-0.36458 -0.8288,-0.81735 z"
   id="path415"
   inkscape:connector-curvature="0"
   style="fill:#ff4257" />
			</g>
			<g
   id="g421">
				<path
   d="m 56.31049,50.07324 c -0.08849,-0.44737 0.1991,-0.88342 0.64642,-0.97753 v 0 c 0.44731,-0.08818 0.88383,0.19901 0.97826,0.64639 v 0 c 0.09388,0.4471 -0.19371,0.88342 -0.64696,0.97753 v 0 c -0.05504,0.01079 -0.11007,0.01645 -0.16565,0.01645 v 0 c -0.38688,0 -0.72898,-0.27075 -0.81207,-0.66284 z"
   id="path419"
   inkscape:connector-curvature="0"
   style="fill:#ff4257" />
			</g>
			<g
   id="g425">
				<path
   d="m 19.31882,46.52948 c -0.41979,-0.18769 -0.60757,-0.67362 -0.42519,-1.09349 v 0 c 0.18238,-0.41959 0.67393,-0.60755 1.08833,-0.42526 v 0 c 0.41979,0.18795 0.6135,0.67389 0.42573,1.09349 v 0 0 0 c -0.13274,0.3093 -0.43652,0.49726 -0.75703,0.49726 v 0 c -0.11061,0 -0.22662,-0.02211 -0.33184,-0.072 z"
   id="path423"
   inkscape:connector-curvature="0"
   style="fill:#ff4257" />
			</g>
			<g
   id="g429">
				<path
   d="m 53.52032,43.446 c -0.25414,-0.38103 -0.15486,-0.89447 0.22662,-1.1485 v 0 c 0.38094,-0.25429 0.89462,-0.16018 1.1493,0.22086 v 0 c 0.25414,0.38103 0.15432,0.89447 -0.22662,1.14877 v 0 c -0.13813,0.09924 -0.30433,0.14346 -0.45864,0.14346 v 0 c -0.27086,-10e-6 -0.5304,-0.12702 -0.69066,-0.36459 z"
   id="path427"
   inkscape:connector-curvature="0"
   style="fill:#ff4257" />
			</g>
			<g
   id="g433">
				<path
   d="m 51.22172,40.65714 c -0.32591,-0.32036 -0.32591,-0.84485 0,-1.17088 v 0 c 0.32051,-0.32576 0.84552,-0.32576 1.17142,0 v 0 c 0.32051,0.32036 0.32051,0.84512 0,1.17088 v 0 c -0.16565,0.16018 -0.37609,0.24297 -0.58598,0.24297 v 0 c -0.21529,-10e-6 -0.42519,-0.08279 -0.58544,-0.24297 z"
   id="path431"
   inkscape:connector-curvature="0"
   style="fill:#ff4257" />
			</g>
			<g
   id="g437">
				<path
   d="m 26.76691,37.96212 c -0.24875,-0.3867 -0.14407,-0.90041 0.24281,-1.14877 v 0 c 0.38148,-0.24863 0.89516,-0.13807 1.14391,0.24297 v 0 c 0.25414,0.3867 0.14353,0.89474 -0.24335,1.14877 v 0 c -0.13813,0.08845 -0.29245,0.1324 -0.44731,0.1324 v 0 c -0.27087,0 -0.54174,-0.1324 -0.69606,-0.37537 z"
   id="path435"
   inkscape:connector-curvature="0"
   style="fill:#ff4257" />
			</g>
			<g
   id="g441">
				<path
   d="m 45.24318,36.64751 c -0.41979,-0.17663 -0.62429,-0.66256 -0.44731,-1.08243 v 0 c 0.18238,-0.4196 0.66314,-0.61834 1.08833,-0.44171 v 0 C 46.304,35.3 46.5031,35.7862 46.32612,36.2058 v 0 c -0.1322,0.3147 -0.43652,0.50805 -0.76242,0.50805 v 0 c -0.10469,0 -0.2153,-0.02211 -0.32052,-0.06634 z"
   id="path439"
   inkscape:connector-curvature="0"
   style="fill:#ff4257" />
			</g>
			<g
   id="g445">
				<path
   d="m 33.62388,34.86935 c -0.0831,-0.45276 0.21529,-0.88369 0.6626,-0.96647 v 0 c 0.44785,-0.08279 0.88437,0.2098 0.96693,0.66283 v 0 c 0.0831,0.4471 -0.2099,0.87802 -0.66261,0.96647 v 0 c -0.05018,0.0054 -0.09982,0.01078 -0.15486,0.01078 v 0 c -0.38687,10e-6 -0.7349,-0.27613 -0.81206,-0.67361 z"
   id="path443"
   inkscape:connector-curvature="0"
   style="fill:#ff4257" />
			</g>
			<g
   id="g449">
				<path
   d="m 38.19304,35.21182 v 0 0 c -0.45864,0 -0.8288,-0.37564 -0.8234,-0.83407 v 0 c 0.0054,-0.45843 0.37609,-0.82274 0.83419,-0.82274 v 0 c 0.45864,0.0054 0.82879,0.38103 0.82339,0.8338 v 0 c -0.0054,0.45304 -0.37015,0.82301 -0.82339,0.82301 v 0 c -0.0054,0 -0.0054,0 -0.01079,0 z"
   id="path447"
   inkscape:connector-curvature="0"
   style="fill:#ff4257" />
			</g>
		</g>
		<g
   id="g455">
			<path
   d="m 37.64844,72.79492 c -4.7207,0 -9.15918,-1.83789 -12.49707,-5.17578 -0.32324,-0.32324 -0.32324,-0.84863 0,-1.17188 0.32422,-0.32227 0.84766,-0.32227 1.17188,0 3.02441,3.02539 7.04688,4.69141 11.3252,4.69141 4.27832,0 8.30078,-1.66602 11.32422,-4.69141 0.32422,-0.32227 0.84766,-0.32422 1.17188,0 0.32324,0.32324 0.32324,0.84766 0,1.17188 -3.33693,3.33789 -7.77443,5.17578 -12.49611,5.17578 z"
   id="path453"
   inkscape:connector-curvature="0"
   style="fill:#262626" />
		</g>
	</g>
	<g
   id="g461">
		<circle
   cx="17.511789"
   cy="156.5"
   r="14.87217"
   id="circle459"
   style="fill:#252626" />
	</g>
	<g
   id="g465">
		<path
   d="m 57.87695,93.94824 c -0.11914,0 -0.24023,-0.02832 -0.35352,-0.08887 L 40.3203,84.63184 C 38.11816,83.45021 36.75,81.16407 36.75,78.66603 V 71.9668 c 0,-0.41406 0.33594,-0.75 0.75,-0.75 0.41406,0 0.75,0.33594 0.75,0.75 v 6.69922 c 0,1.94434 1.06543,3.72363 2.7793,4.64355 l 17.20313,9.22754 c 0.36523,0.19629 0.50195,0.65039 0.30664,1.01563 -0.13575,0.25195 -0.39454,0.3955 -0.66212,0.3955 z"
   id="path463"
   inkscape:connector-curvature="0"
   style="fill:#252626" />
	</g>
	<g
   id="g469">
		<path
   d="m 37.53711,211.25 c -3.70898,0 -6.72656,-3.01758 -6.72656,-6.72656 v -9.85742 c 0,-0.41406 0.33594,-0.75 0.75,-0.75 0.41406,0 0.75,0.33594 0.75,0.75 v 9.85742 c 0,2.88184 2.34473,5.22656 5.22656,5.22656 2.88183,0 5.22656,-2.34473 5.22656,-5.22656 v -9.85645 c 0,-0.41406 0.33594,-0.75 0.75,-0.75 0.41406,0 0.75,0.33594 0.75,0.75 v 9.85645 c 0,3.70898 -3.01758,6.72656 -6.72656,6.72656 z"
   id="path467"
   inkscape:connector-curvature="0"
   style="fill:#ff4257" />
	</g>
	<g
   id="g473">
		<path
   d="m 43.51367,229.08301 c -0.41406,0 -0.75,-0.33594 -0.75,-0.75 v -9.85645 c 0,-2.88184 -2.34473,-5.22656 -5.22656,-5.22656 -2.88183,0 -5.22656,2.34473 -5.22656,5.22656 v 9.85645 c 0,0.41406 -0.33594,0.75 -0.75,0.75 -0.41406,0 -0.75,-0.33594 -0.75,-0.75 v -9.85645 c 0,-3.70898 3.01758,-6.72656 6.72656,-6.72656 3.70898,0 6.72656,3.01758 6.72656,6.72656 v 9.85645 c 0,0.41406 -0.33594,0.75 -0.75,0.75 z"
   id="path471"
   inkscape:connector-curvature="0"
   style="fill:#ff4257" />
	</g>
	<g
   id="g477">
		<path
   d="m 57.49707,261.25 c -0.11914,0 -0.24023,-0.0283 -0.35352,-0.0889 l -9.83887,-5.27637 c -2.79785,-1.50195 -4.53613,-4.40625 -4.53613,-7.58105 l 0.03711,-13.60547 c 9.8e-4,-0.41406 0.33691,-0.74805 0.75,-0.74805 9.8e-4,0 9.8e-4,0 0.0019,0 0.41406,9.8e-4 0.74902,0.33789 0.74805,0.75195 l -0.03711,13.60352 c 0,2.61914 1.43555,5.01758 3.74512,6.25684 l 9.83887,5.27637 c 0.36523,0.19629 0.50195,0.65039 0.30664,1.01563 -0.13574,0.25195 -0.39453,0.3955 -0.66211,0.3955 z"
   id="path475"
   inkscape:connector-curvature="0"
   style="fill:#252626" />
	</g>
	<g
   id="g481">
		<path
   d="m 16.98926,250.55664 c -0.26758,0 -0.52637,-0.14355 -0.66211,-0.39551 -0.19531,-0.36523 -0.05859,-0.81934 0.30664,-1.01563 l 10.38965,-5.57227 c 2.31055,-1.23828 3.74512,-3.63672 3.74512,-6.25879 v -2.61426 c 0,-0.41406 0.33594,-0.75 0.75,-0.75 0.41406,0 0.75,0.33594 0.75,0.75 v 2.61426 c 0,3.17578 -1.73828,6.08105 -4.53613,7.58105 l -10.38965,5.57227 c -0.11329,0.0606 -0.23438,0.0889 -0.35352,0.0889 z"
   id="path479"
   inkscape:connector-curvature="0"
   style="fill:#252626" />
	</g>
	<g
   id="g495">
		<g
   id="g485">
			<path
   d="m 47.51953,190.5498 c -0.21973,0 -0.42969,-0.0801 -0.58984,-0.24023 -0.08008,-0.0801 -0.13965,-0.16992 -0.17969,-0.26953 -0.04004,-0.10059 -0.06055,-0.2002 -0.06055,-0.31055 0,-0.10938 0.02051,-0.21973 0.06055,-0.31934 0.0498,-0.10059 0.10938,-0.19043 0.17969,-0.27051 0.08008,-0.0801 0.16992,-0.13965 0.27051,-0.17969 0.30957,-0.12988 0.66992,-0.0498 0.90918,0.17969 0.15039,0.16016 0.24023,0.37012 0.24023,0.58984 0,0.10059 -0.01953,0.20996 -0.07031,0.31055 -0.03906,0.0996 -0.09961,0.18945 -0.16992,0.26953 -0.15918,0.16017 -0.36915,0.24024 -0.58985,0.24024 z"
   id="path483"
   inkscape:connector-curvature="0"
   style="fill:#ff4257" />
		</g>
		<g
   id="g489">
			<path
   d="m 46.68945,185.75 c 0,-0.45996 0.37012,-0.83008 0.83008,-0.83008 v 0 c 0.45996,0 0.83008,0.37012 0.83008,0.83008 v 0 c 0,0.4502 -0.37012,0.83008 -0.83008,0.83008 v 0 c -0.45996,0 -0.83008,-0.37988 -0.83008,-0.83008 z"
   id="path487"
   inkscape:connector-curvature="0"
   style="fill:#ff4257" />
		</g>
		<g
   id="g493">
			<path
   d="m 47.51953,182.59961 c -0.10938,0 -0.21973,-0.0195 -0.31934,-0.0596 -0.10059,-0.0498 -0.19043,-0.11035 -0.27051,-0.18066 -0.08008,-0.0791 -0.13965,-0.16992 -0.17969,-0.26953 -0.04004,-0.0996 -0.06055,-0.20996 -0.06055,-0.32031 0,-0.21973 0.08984,-0.42969 0.24023,-0.58008 0.31055,-0.30957 0.87012,-0.30957 1.17969,0 0.07031,0.0703 0.13086,0.16016 0.16992,0.26074 0.05078,0.10938 0.07031,0.20996 0.07031,0.31934 0,0.11035 -0.01953,0.2207 -0.07031,0.32031 -0.03906,0.0996 -0.09961,0.19043 -0.16992,0.26953 -0.16991,0.15039 -0.36913,0.24023 -0.58983,0.24023 z"
   id="path491"
   inkscape:connector-curvature="0"
   style="fill:#ff4257" />
		</g>
	</g>
	<g
   id="g499">
		<path
   d="m 43.51855,189.03809 c -0.41406,0 -0.75,-0.33594 -0.75,-0.75 v -8.63867 c 0,-3.17383 1.73828,-6.0791 4.53613,-7.58105 l 9.75098,-5.22949 c 0.36719,-0.19629 0.81934,-0.0576 1.01563,0.30664 0.19531,0.36523 0.05859,0.81934 -0.30664,1.01563 l -9.75098,5.22949 c -2.30957,1.24023 -3.74512,3.6377 -3.74512,6.25879 v 8.63867 c 0,0.41405 -0.33593,0.74999 -0.75,0.74999 z"
   id="path497"
   inkscape:connector-curvature="0"
   style="fill:#252626" />
	</g>
	<g
   id="g503">
		<path
   d="m 31.51855,189.03809 c -0.41406,0 -0.75,-0.33594 -0.75,-0.75 v -19.79492 c 0,-2.62207 -1.43457,-5.02051 -3.74512,-6.25879 l -9.90039,-5.30957 c -0.36523,-0.19629 -0.50195,-0.65039 -0.30664,-1.01563 0.19531,-0.36426 0.64746,-0.50391 1.01563,-0.30664 l 9.90039,5.30957 c 2.79785,1.5 4.53613,4.40527 4.53613,7.58105 v 19.79492 c 0,0.41407 -0.33593,0.75001 -0.75,0.75001 z"
   id="path501"
   inkscape:connector-curvature="0"
   style="fill:#252626" />
	</g>
	<g
   id="g513">
		<g
   id="g507">
			<path
   d="m 38.7002,201.54004 c 0,-0.4502 0.36914,-0.82031 0.8291,-0.82031 v 0 c 0.46094,0 0.83008,0.37012 0.83008,0.82031 v 0 c 0,0.45996 -0.36914,0.83008 -0.83008,0.83008 v 0 c -0.45996,0 -0.8291,-0.37012 -0.8291,-0.83008 z m 0,-3.62012 c 0,-0.45996 0.36914,-0.83008 0.8291,-0.83008 v 0 c 0.46094,0 0.83008,0.37012 0.83008,0.83008 v 0 c 0,0.45996 -0.36914,0.83008 -0.83008,0.83008 v 0 c -0.45996,0 -0.8291,-0.37012 -0.8291,-0.83008 z m 0,-3.62988 c 0,-0.45996 0.36914,-0.83008 0.8291,-0.83008 v 0 c 0.46094,0 0.83008,0.37012 0.83008,0.83008 v 0 c 0,0.45996 -0.36914,0.83008 -0.83008,0.83008 v 0 c -0.45996,0 -0.8291,-0.37012 -0.8291,-0.83008 z m 0,-3.62012 c 0,-0.45996 0.36914,-0.83008 0.8291,-0.83008 v 0 c 0.46094,0 0.83008,0.37012 0.83008,0.83008 v 0 c 0,0.4502 -0.36914,0.82031 -0.83008,0.82031 v 0 c -0.45996,0 -0.8291,-0.37011 -0.8291,-0.82031 z m 0,-3.62988 c 0,-0.45996 0.36914,-0.83008 0.8291,-0.83008 v 0 c 0.46094,0 0.83008,0.37012 0.83008,0.83008 v 0 c 0,0.45996 -0.36914,0.83008 -0.83008,0.83008 v 0 c -0.45996,0 -0.8291,-0.37012 -0.8291,-0.83008 z m 0,-3.62988 c 0,-0.45996 0.36914,-0.83008 0.8291,-0.83008 v 0 c 0.46094,0 0.83008,0.37012 0.83008,0.83008 v 0 c 0,0.45996 -0.36914,0.83008 -0.83008,0.83008 v 0 c -0.45996,-1e-5 -0.8291,-0.37012 -0.8291,-0.83008 z m 0,-3.62012 c 0,-0.45996 0.36914,-0.83008 0.8291,-0.83008 v 0 c 0.46094,0 0.83008,0.37012 0.83008,0.83008 v 0 c 0,0.45996 -0.36914,0.81934 -0.83008,0.81934 v 0 c -0.45996,0 -0.8291,-0.35938 -0.8291,-0.81934 z m 0,-3.62988 c 0,-0.45996 0.36914,-0.83008 0.8291,-0.83008 v 0 c 0.46094,0 0.83008,0.37012 0.83008,0.83008 v 0 c 0,0.45996 -0.36914,0.83008 -0.83008,0.83008 v 0 c -0.45996,-1e-5 -0.8291,-0.37012 -0.8291,-0.83008 z m 0,-3.62989 c 0,-0.4502 0.36914,-0.83008 0.8291,-0.83008 v 0 c 0.46094,0 0.83008,0.37988 0.83008,0.83008 v 0 c 0,0.45996 -0.36914,0.8291 -0.83008,0.8291 v 0 c -0.45996,10e-6 -0.8291,-0.36914 -0.8291,-0.8291 z m 0,-3.62011 c 0,-0.45996 0.36914,-0.83008 0.8291,-0.83008 v 0 c 0.46094,0 0.83008,0.37012 0.83008,0.83008 v 0 c 0,0.44922 -0.36914,0.83008 -0.83008,0.83008 v 0 c -0.45996,-1e-5 -0.8291,-0.38086 -0.8291,-0.83008 z m 0,-3.62989 c 0,-0.46094 0.36914,-0.83008 0.8291,-0.83008 v 0 c 0.46094,0 0.83008,0.36914 0.83008,0.83008 v 0 c 0,0.45996 -0.36914,0.8291 -0.83008,0.8291 v 0 c -0.45996,10e-6 -0.8291,-0.36914 -0.8291,-0.8291 z m 0,-3.62011 c 0,-0.45996 0.36914,-0.83008 0.8291,-0.83008 v 0 c 0.46094,0 0.83008,0.37012 0.83008,0.83008 v 0 c 0,0.44922 -0.36914,0.81934 -0.83008,0.81934 v 0 c -0.45996,-1e-5 -0.8291,-0.37012 -0.8291,-0.81934 z m 0,-3.62989 c 0,-0.46094 0.36914,-0.83008 0.8291,-0.83008 v 0 c 0.46094,0 0.83008,0.36914 0.83008,0.83008 v 0 c 0,0.45996 -0.36914,0.8291 -0.83008,0.8291 v 0 c -0.45996,10e-6 -0.8291,-0.36914 -0.8291,-0.8291 z m 0,-3.63086 c 0,-0.44922 0.36914,-0.83008 0.8291,-0.83008 v 0 c 0.46094,0 0.83008,0.38086 0.83008,0.83008 v 0 c 0,0.45996 -0.36914,0.83008 -0.83008,0.83008 v 0 c -0.45996,0 -0.8291,-0.37011 -0.8291,-0.83008 z m 0,-3.62988 c 0,-0.4502 0.36914,-0.81934 0.8291,-0.81934 v 0 c 0.46094,0 0.83008,0.36914 0.83008,0.81934 v 0 c 0,0.45996 -0.36914,0.83008 -0.83008,0.83008 v 0 c -0.45996,0 -0.8291,-0.37012 -0.8291,-0.83008 z m 0,-3.62012 c 0,-0.45996 0.36914,-0.83008 0.8291,-0.83008 v 0 c 0.46094,0 0.83008,0.37012 0.83008,0.83008 v 0 c 0,0.45996 -0.36914,0.83008 -0.83008,0.83008 v 0 c -0.45996,0 -0.8291,-0.37011 -0.8291,-0.83008 z m 0,-3.62988 c 0,-0.4502 0.36914,-0.83008 0.8291,-0.83008 v 0 c 0.46094,0 0.83008,0.37988 0.83008,0.83008 v 0 c 0,0.45996 -0.36914,0.83008 -0.83008,0.83008 v 0 c -0.45996,0 -0.8291,-0.37012 -0.8291,-0.83008 z m 1.20996,-2.75976 c -0.41016,-0.2002 -0.59082,-0.69043 -0.40039,-1.11035 v 0 c 0.19043,-0.40918 0.69043,-0.58984 1.09961,-0.39941 v 0 c 0.41992,0.2002 0.60059,0.68945 0.40039,1.09961 v 0 c -0.13965,0.31055 -0.44043,0.48047 -0.75,0.48047 v 0 c -0.12012,-1e-5 -0.23047,-0.0205 -0.34961,-0.0703 z m 1.92968,-3.05957 c -0.29004,-0.36035 -0.23047,-0.88086 0.12988,-1.16992 v 0 c 0.34961,-0.28027 0.87988,-0.23047 1.16016,0.12988 v 0 c 0.29004,0.35938 0.22949,0.87988 -0.12988,1.16992 v 0 c -0.15039,0.12012 -0.33008,0.17969 -0.52051,0.17969 v 0 c -0.23926,0 -0.47949,-0.11036 -0.63965,-0.30957 z"
   id="path505"
   inkscape:connector-curvature="0"
   style="fill:#ff4257" />
		</g>
		<g
   id="g511">
			<path
   d="m 39.5293,206.00977 c -0.10938,0 -0.21973,-0.0195 -0.31934,-0.0703 -0.10059,-0.04 -0.19043,-0.0996 -0.27051,-0.17969 -0.14941,-0.15039 -0.23926,-0.36035 -0.23926,-0.58008 0,-0.21973 0.08984,-0.42969 0.23926,-0.58984 0.31055,-0.30957 0.87012,-0.30957 1.18066,0 0.14941,0.16016 0.23926,0.37012 0.23926,0.58984 0,0.11035 -0.01953,0.20996 -0.05957,0.31055 -0.04004,0.10938 -0.11035,0.19922 -0.17969,0.26953 -0.08008,0.0801 -0.16992,0.13965 -0.27051,0.17969 -0.0996,0.0508 -0.20995,0.0703 -0.3203,0.0703 z"
   id="path509"
   inkscape:connector-curvature="0"
   style="fill:#ff4257" />
		</g>
	</g>
	<g
   id="g527">
		<g
   id="g517">
			<path
   d="m 16.64941,118.33008 c -0.10938,0 -0.20996,-0.0205 -0.30957,-0.0605 -0.09961,-0.0498 -0.19043,-0.10938 -0.27051,-0.18945 -0.0791,-0.0703 -0.13965,-0.16016 -0.17969,-0.26074 -0.04004,-0.0996 -0.07031,-0.20996 -0.07031,-0.31934 0,-0.21973 0.09082,-0.43066 0.25,-0.58984 0.30078,-0.30078 0.86035,-0.30078 1.1709,0 0.0791,0.0801 0.13965,0.16992 0.17969,0.26953 0.04004,0.10059 0.05957,0.20996 0.05957,0.32031 0,0.21973 -0.08008,0.42969 -0.23926,0.58008 -0.08008,0.0801 -0.1709,0.13965 -0.27051,0.18945 -0.0996,0.04 -0.20995,0.0605 -0.32031,0.0605 z"
   id="path515"
   inkscape:connector-curvature="0"
   style="fill:#252626" />
		</g>
		<g
   id="g521">
			<path
   d="m 34.68945,201.54004 c 0,-0.45996 0.37012,-0.83008 0.83008,-0.83008 v 0 c 0.45996,0 0.83008,0.37012 0.83008,0.83008 v 0 c 0,0.45996 -0.37012,0.83008 -0.83008,0.83008 v 0 c -0.45996,0 -0.83008,-0.37012 -0.83008,-0.83008 z m 0,-3.62988 c 0,-0.45996 0.37012,-0.83008 0.83008,-0.83008 v 0 c 0.45996,0 0.83008,0.37012 0.83008,0.83008 v 0 c 0,0.45996 -0.37012,0.83008 -0.83008,0.83008 v 0 c -0.45996,-1e-5 -0.83008,-0.37012 -0.83008,-0.83008 z m 0,-3.62989 c 0,-0.46094 0.37012,-0.83008 0.83008,-0.83008 v 0 c 0.45996,0 0.83008,0.36914 0.83008,0.83008 v 0 c 0,0.44922 -0.37012,0.8291 -0.83008,0.8291 v 0 c -0.45996,10e-6 -0.83008,-0.37988 -0.83008,-0.8291 z m 0,-3.63086 c 0,-0.45996 0.37012,-0.83008 0.83008,-0.83008 v 0 c 0.45996,0 0.83008,0.37012 0.83008,0.83008 v 0 c 0,0.4502 -0.37012,0.82031 -0.83008,0.82031 v 0 c -0.45996,1e-5 -0.83008,-0.37011 -0.83008,-0.82031 z m 0,-3.62988 c 0,-0.45996 0.37012,-0.83008 0.83008,-0.83008 v 0 c 0.45996,0 0.83008,0.37012 0.83008,0.83008 v 0 c 0,0.4502 -0.37012,0.82031 -0.83008,0.82031 v 0 c -0.45996,0 -0.83008,-0.37011 -0.83008,-0.82031 z m 0,-3.62988 c 0,-0.45996 0.37012,-0.83008 0.83008,-0.83008 v 0 c 0.45996,0 0.83008,0.37012 0.83008,0.83008 v 0 c 0,0.4502 -0.37012,0.82031 -0.83008,0.82031 v 0 c -0.45996,0 -0.83008,-0.37012 -0.83008,-0.82031 z m 0,-3.62988 c 0,-0.45996 0.37012,-0.83008 0.83008,-0.83008 v 0 c 0.45996,0 0.83008,0.37012 0.83008,0.83008 v 0 c 0,0.4502 -0.37012,0.82031 -0.83008,0.82031 v 0 c -0.45996,0 -0.83008,-0.37012 -0.83008,-0.82031 z m 0,-3.63965 c 0,-0.4502 0.37012,-0.82031 0.83008,-0.82031 v 0 c 0.45996,0 0.83008,0.37012 0.83008,0.82031 v 0 c 0,0.45996 -0.37012,0.83008 -0.83008,0.83008 v 0 c -0.45996,0 -0.83008,-0.37012 -0.83008,-0.83008 z m 0,-3.62989 c 0,-0.45996 0.37012,-0.83008 0.83008,-0.83008 v 0 c 0.45996,0 0.83008,0.37012 0.83008,0.83008 v 0 c 0,0.45996 -0.37012,0.8291 -0.83008,0.8291 v 0 c -0.45996,1e-5 -0.83008,-0.36913 -0.83008,-0.8291 z m 0,-3.63085 c 0,-0.44922 0.37012,-0.8291 0.83008,-0.8291 v 0 c 0.45996,0 0.83008,0.37988 0.83008,0.8291 v 0 c 0,0.45996 -0.37012,0.83008 -0.83008,0.83008 v 0 c -0.45996,-1e-5 -0.83008,-0.37012 -0.83008,-0.83008 z m 0,-3.62989 c 0,-0.44922 0.37012,-0.83008 0.83008,-0.83008 v 0 c 0.45996,0 0.83008,0.38086 0.83008,0.83008 v 0 c 0,0.45996 -0.37012,0.83008 -0.83008,0.83008 v 0 c -0.45996,0 -0.83008,-0.37012 -0.83008,-0.83008 z m 0,-3.62988 c 0,-0.4502 0.37012,-0.83008 0.83008,-0.83008 v 0 c 0.45996,0 0.83008,0.37988 0.83008,0.83008 v 0 c 0,0.45996 -0.37012,0.83008 -0.83008,0.83008 v 0 c -0.45996,0 -0.83008,-0.37012 -0.83008,-0.83008 z m 0,-3.62988 c 0,-0.45996 0.37012,-0.83008 0.83008,-0.83008 v 0 c 0.45996,0 0.83008,0.37012 0.83008,0.83008 v 0 c 0,0.45996 -0.37012,0.83008 -0.83008,0.83008 v 0 c -0.45996,-1e-5 -0.83008,-0.37012 -0.83008,-0.83008 z m 0,-3.62989 c 0,-0.45996 0.37012,-0.83008 0.83008,-0.83008 v 0 c 0.45996,0 0.83008,0.37012 0.83008,0.83008 v 0 c 0,0.45996 -0.37012,0.83008 -0.83008,0.83008 v 0 c -0.45996,0 -0.83008,-0.37012 -0.83008,-0.83008 z m 0,-3.62988 c 0,-0.45996 0.37012,-0.83008 0.83008,-0.83008 v 0 c 0.45996,0 0.83008,0.37012 0.83008,0.83008 v 0 c 0,0.45996 -0.37012,0.83008 -0.83008,0.83008 v 0 c -0.45996,0 -0.83008,-0.37012 -0.83008,-0.83008 z m 0,-3.62988 c 0,-0.45996 0.37012,-0.83008 0.83008,-0.83008 v 0 c 0.45996,0 0.83008,0.37012 0.83008,0.83008 v 0 c 0,0.4502 -0.37012,0.83008 -0.83008,0.83008 v 0 c -0.45996,0 -0.83008,-0.37989 -0.83008,-0.83008 z m 0,-3.62988 c 0,-0.45996 0.37012,-0.83008 0.83008,-0.83008 v 0 c 0.45996,0 0.83008,0.37012 0.83008,0.83008 v 0 c 0,0.44922 -0.37012,0.81934 -0.83008,0.81934 v 0 c -0.45996,-1e-5 -0.83008,-0.37013 -0.83008,-0.81934 z m 0,-3.63086 c 0,-0.45996 0.37012,-0.8291 0.83008,-0.8291 v 0 c 0.45996,0 0.83008,0.36914 0.83008,0.8291 v 0 c 0,0.4502 -0.37012,0.82031 -0.83008,0.82031 v 0 c -0.45996,0 -0.83008,-0.37012 -0.83008,-0.82031 z m 0,-3.62989 c 0,-0.45996 0.37012,-0.83008 0.83008,-0.83008 v 0 c 0.45996,0 0.83008,0.37012 0.83008,0.83008 v 0 c 0,0.45996 -0.37012,0.83008 -0.83008,0.83008 v 0 c -0.45996,0 -0.83008,-0.37012 -0.83008,-0.83008 z m 0,-3.62988 c 0,-0.45996 0.37012,-0.83008 0.83008,-0.83008 v 0 c 0.45996,0 0.83008,0.37012 0.83008,0.83008 v 0 c 0,0.4502 -0.37012,0.82031 -0.83008,0.82031 v 0 c -0.45996,0 -0.83008,-0.37011 -0.83008,-0.82031 z m -0.64941,-3.17969 c -0.19043,-0.41992 -0.01074,-0.91016 0.41016,-1.09961 v 0 c 0.41992,-0.19043 0.90918,-0.0107 1.09961,0.39941 v 0 0 0 c 0.19043,0.41992 0.0098,0.91016 -0.41016,1.10059 v 0 c -0.11035,0.0498 -0.22949,0.0791 -0.33984,0.0791 v 0 c -0.32032,10e-6 -0.61036,-0.17968 -0.75977,-0.47949 z m -1.98047,-2.54004 c -0.34961,-0.29004 -0.41016,-0.80957 -0.12012,-1.16992 v 0 c 0.28027,-0.35059 0.80078,-0.41016 1.16016,-0.12012 v 0 0 0 c 0.36035,0.28027 0.41016,0.80957 0.12988,1.16016 v 0 c -0.16992,0.20996 -0.41016,0.30957 -0.64941,0.30957 v 0 c -0.18067,0 -0.36035,-0.0596 -0.52051,-0.17969 z m -3,-1.75 C 28.66016,124.87988 28.5,124.37011 28.71973,123.96972 v 0 c 0.21973,-0.40039 0.71973,-0.5498 1.12012,-0.33984 v 0 c 0.41016,0.21973 0.55957,0.71973 0.33984,1.12988 v 0 c -0.15039,0.27051 -0.42969,0.42969 -0.72949,0.42969 v 0 c -0.13086,0 -0.27051,-0.0293 -0.39063,-0.0996 z m -3.20019,-1.70996 c -0.39941,-0.21973 -0.5498,-0.71973 -0.33984,-1.12012 v 0 c 0.2207,-0.41016 0.7207,-0.55957 1.12988,-0.33984 v 0 c 0.40039,0.20996 0.55078,0.71973 0.33008,1.12012 v 0 c -0.14941,0.2793 -0.42969,0.43945 -0.72949,0.43945 v 0 c -0.12989,0 -0.27052,-0.04 -0.39063,-0.0996 z m -3.19922,-1.71972 c -0.40039,-0.20996 -0.55078,-0.7207 -0.34082,-1.12012 v 0 c 0.2207,-0.40039 0.7207,-0.56055 1.12012,-0.33984 v 0 c 0.41016,0.21973 0.56055,0.71973 0.33984,1.11914 v 0 c -0.14941,0.28027 -0.42969,0.44043 -0.72949,0.44043 v 0 c -0.12989,0 -0.25977,-0.0303 -0.38965,-0.0996 z m -3.2002,-1.72071 c -0.40039,-0.20996 -0.5498,-0.70996 -0.33984,-1.12012 v 0 c 0.21973,-0.39941 0.71973,-0.5498 1.12988,-0.33984 v 0 c 0.39941,0.2207 0.5498,0.7207 0.33008,1.12988 v 0 c -0.15039,0.28027 -0.43066,0.43066 -0.73047,0.43066 v 0 c -0.12988,1e-5 -0.25977,-0.0303 -0.38965,-0.10058 z"
   id="path519"
   inkscape:connector-curvature="0"
   style="fill:#252626" />
		</g>
		<g
   id="g525">
			<path
   d="m 35.51953,206.00977 c -0.10938,0 -0.21973,-0.0303 -0.31934,-0.0703 -0.10059,-0.04 -0.19043,-0.0996 -0.27051,-0.17969 -0.07031,-0.0703 -0.13965,-0.16016 -0.17969,-0.26953 -0.04004,-0.0908 -0.06055,-0.2002 -0.06055,-0.31055 0,-0.21973 0.08984,-0.43945 0.24023,-0.58984 0.08008,-0.0801 0.16992,-0.13965 0.27051,-0.17969 0.30957,-0.12988 0.67969,-0.0508 0.89941,0.17969 0.16016,0.15039 0.24023,0.37012 0.24023,0.58984 0,0.11035 -0.02051,0.21973 -0.06055,0.31055 -0.03906,0.10938 -0.09961,0.19922 -0.17969,0.26953 -0.08008,0.0801 -0.16992,0.13965 -0.26953,0.17969 -0.10056,0.04 -0.20017,0.0703 -0.31052,0.0703 z"
   id="path523"
   inkscape:connector-curvature="0"
   style="fill:#252626" />
		</g>
	</g>
	<g
   id="g531">
		<path
   d="m 37.92871,335.20508 c -0.41406,0 -0.75,-0.33594 -0.75,-0.75 v -21.11035 c 0,-0.41406 0.33594,-0.75 0.75,-0.75 0.41406,0 0.75,0.33594 0.75,0.75 v 21.11035 c 0,0.41406 -0.33594,0.75 -0.75,0.75 z"
   id="path529"
   inkscape:connector-curvature="0"
   style="fill:#252626" />
	</g>
	<g
   id="g535">
		<path
   d="m 22.66797,282.61133 c -0.19238,0 -0.38574,-0.0742 -0.53223,-0.22168 l -6.29785,-6.33594 c -0.29199,-0.29297 -0.29004,-0.76855 0.0039,-1.06055 0.29199,-0.29199 0.76855,-0.29004 1.06055,0.004 l 6.29785,6.33594 c 0.29199,0.29297 0.29004,0.76855 -0.0039,1.06055 -0.14551,0.1455 -0.33691,0.21777 -0.52832,0.21777 z"
   id="path533"
   inkscape:connector-curvature="0"
   style="fill:#ff4257" />
	</g>
	<g
   id="g541">
		<g
   id="g539">
			<path
   d="m 66.35226,116.94623 c 0.23098,0.28669 0.24997,0.70406 0.01876,1.01324 -0.27355,0.36714 -0.79153,0.44337 -1.15867,0.16981 -4.72306,-3.51478 -11.22781,-3.38683 -15.81938,0.31263 -5.54898,4.47084 -6.42617,12.62318 -1.95533,18.17216 4.47084,5.54898 12.62318,6.42618 18.17216,1.95534 4.45013,-3.58549 6.02322,-9.76901 3.82444,-15.0367 -0.17609,-0.42247 0.024,-0.90724 0.44585,-1.0841 0.42246,-0.17609 0.90829,0.0207 1.08409,0.44585 2.47885,5.94373 0.70521,12.91962 -4.31525,16.96465 -6.26075,5.04431 -15.45668,4.05482 -20.50101,-2.20592 -5.04432,-6.26076 -4.05484,-15.45669 2.20592,-20.50101 5.1794,-4.17307 12.51941,-4.3181 17.84738,-0.35139 0.05795,0.0424 0.10753,0.0914 0.15104,0.14544 z"
   id="path537"
   inkscape:connector-curvature="0"
   style="fill:#252626" />
		</g>
	</g>
	<g
   id="g551">
		<g
   id="g549">
			<g
   id="g547">
				<g
   id="g545">
					<path
   d="m 68.78979,120.61713 c -0.34981,0.28185 -0.87635,0.21824 -1.16493,-0.13993 v 0 c -0.28246,-0.35056 -0.21824,-0.87635 0.13993,-1.16493 v 0 c 0.3567,-0.27485 0.87711,-0.21885 1.1657,0.13932 v 0 c 0.27348,0.35654 0.21824,0.87635 -0.13233,1.15881 v 0 z"
   id="path543"
   inkscape:connector-curvature="0"
   style="fill:#ff4257" />
				</g>
			</g>
		</g>
	</g>
	<g
   id="g557">
		<g
   id="g555">
			<path
   d="m 16.37109,311.15234 c -0.2334,0 -0.46289,-0.10742 -0.60938,-0.31055 -0.24219,-0.33594 -0.16602,-0.80469 0.16895,-1.04785 l 6.31348,-4.55762 c -1.68457,-2.93652 -2.47656,-6.27344 -2.29395,-9.69629 0.50488,-9.49414 8.05078,-16.63379 17.56543,-16.63379 0.40234,0.003 0.84375,0.0146 1.26563,0.0439 V 222.25 c 0,-0.85449 0.55957,-1.61719 1.3623,-1.85449 3.90039,-1.15234 6.625,-4.80859 6.625,-8.88965 v -14.77441 c 0,-0.41406 0.33594,-0.75 0.75,-0.75 0.41406,0 0.75,0.33594 0.75,0.75 v 14.77441 c 0,4.74121 -3.16699,8.98828 -7.7002,10.3291 -0.16895,0.0498 -0.28711,0.2207 -0.28711,0.41504 v 57.52441 c 0,0.21484 -0.0918,0.41895 -0.25195,0.56055 -0.16016,0.14355 -0.36523,0.20703 -0.58691,0.18457 -0.61328,-0.0732 -1.24121,-0.11133 -1.86426,-0.11328 -0.02051,0 -0.04199,0 -0.0625,0 -8.7041,0 -15.60645,6.5293 -16.06738,15.21387 -0.17871,3.34863 0.66113,6.60742 2.42871,9.42285 0.20996,0.33496 0.12402,0.77539 -0.19629,1.00684 l -6.87109,4.96094 c -0.13281,0.0957 -0.28711,0.14159 -0.43848,0.14159 z"
   id="path553"
   inkscape:connector-curvature="0"
   style="fill:#ff4257" />
		</g>
	</g>
	<g
   id="g563">
		<g
   id="g561">
			<path
   d="m 17.23047,301.83691 c -0.34277,0 -0.65234,-0.23633 -0.73047,-0.58496 -0.34961,-1.54688 -0.52637,-3.14551 -0.52637,-4.75195 0,-10.95215 8.04395,-20.02441 18.82227,-21.375 L 34.7832,222.25 c 0,-0.19434 -0.11816,-0.36523 -0.28613,-0.41504 -4.57227,-1.34766 -7.76563,-5.5957 -7.76563,-10.3291 v -14.77441 c 0,-0.41406 0.33594,-0.75 0.75,-0.75 0.41406,0 0.75,0.33594 0.75,0.75 v 14.77441 c 0,4.07324 2.75098,7.72852 6.68945,8.88965 0.80273,0.2373 1.3623,1 1.3623,1.85449 l 0.0127,53.54688 c 0,0.38672 -0.29395,0.70996 -0.67969,0.74707 -10.34277,0.97363 -18.14258,9.55273 -18.14258,19.95605 0,1.49512 0.16504,2.98242 0.48926,4.42188 0.0918,0.4043 -0.16211,0.80566 -0.56641,0.89648 -0.05565,0.0127 -0.11131,0.0186 -0.166,0.0186 z"
   id="path559"
   inkscape:connector-curvature="0"
   style="fill:#ff4257" />
		</g>
	</g>
	<g
   id="g567">
		<path
   d="m 31.56055,232.23926 c -0.07031,0 -0.14258,-0.01 -0.21484,-0.0312 C 22.26856,229.49805 15.92872,220.98242 15.92872,211.5 c 0,-9.48242 6.33984,-17.99805 15.41699,-20.70801 0.40234,-0.12012 0.81445,0.1084 0.93359,0.50391 0.11816,0.39746 -0.10742,0.81543 -0.50391,0.93359 -8.44727,2.52148 -14.34668,10.44629 -14.34668,19.27051 0,8.82422 5.89941,16.74902 14.34668,19.27051 0.39648,0.11816 0.62207,0.53613 0.50391,0.93359 -0.09766,0.3252 -0.39551,0.53516 -0.71875,0.53516 z"
   id="path565"
   inkscape:connector-curvature="0"
   style="fill:#00bc8b" />
	</g>
	<g
   id="g571">
		<path
   d="m 43.51367,232.23926 c -0.32324,0 -0.62109,-0.20996 -0.71875,-0.53516 -0.11816,-0.39746 0.10742,-0.81543 0.50391,-0.93359 8.44727,-2.52149 14.34668,-10.44531 14.34668,-19.27051 0,-8.8252 -5.89941,-16.74902 -14.34668,-19.27051 -0.39648,-0.11816 -0.62207,-0.53613 -0.50391,-0.93359 0.11914,-0.39648 0.5293,-0.625 0.93359,-0.50391 9.07715,2.70996 15.41699,11.22559 15.41699,20.70801 0,9.48242 -6.33984,17.99805 -15.41699,20.70801 -0.07226,0.0215 -0.14453,0.0312 -0.21484,0.0312 z"
   id="path569"
   inkscape:connector-curvature="0"
   style="fill:#00bc8b" />
	</g>
	<path
   d="m 37.51855,314.17285 c -4.71973,0 -9.1582,-1.83789 -12.49609,-5.17578 -0.32324,-0.32324 -0.32324,-0.84863 0,-1.17188 0.32422,-0.32227 0.84766,-0.32227 1.17188,0 3.02441,3.02539 7.04688,4.69141 11.32422,4.69141 4.27734,0 8.2998,-1.66602 11.3252,-4.69141 0.32422,-0.32227 0.84766,-0.32227 1.17188,0 0.32324,0.32422 0.32324,0.84863 0,1.17188 -3.33888,3.33789 -7.77736,5.17578 -12.49709,5.17578 z"
   id="path573"
   inkscape:connector-curvature="0"
   style="fill:#262626" />
	<g
   id="g579">
		<g
   id="g577">
			<path
   d="m 59.18555,311.22363 c -0.13867,0 -0.28027,-0.0391 -0.40527,-0.12012 l -7.50977,-4.84375 c -0.16797,-0.10742 -0.28516,-0.27734 -0.32715,-0.47168 -0.04199,-0.19531 -0.0049,-0.39844 0.10352,-0.56543 1.67871,-2.59863 2.56641,-5.61426 2.56641,-8.72266 0,-7.08008 -4.73633,-13.42676 -11.51855,-15.43457 -0.19336,-0.0566 -0.35645,-0.19043 -0.4502,-0.36816 -0.09473,-0.17871 -0.1123,-0.38867 -0.05078,-0.58008 l 1.21191,-3.7627 c 0.12598,-0.38867 0.54297,-0.61035 0.92969,-0.48828 9.02539,2.71484 15.3291,11.2002 15.3291,20.63379 0,1.60156 -0.17676,3.2002 -0.52637,4.75195 -0.09082,0.4043 -0.49023,0.6582 -0.89648,0.56641 -0.40332,-0.0908 -0.65723,-0.49219 -0.56641,-0.89648 0.32422,-1.44336 0.48926,-2.93066 0.48926,-4.42188 0,-8.53125 -5.54004,-16.22852 -13.56055,-18.97266 l -0.75195,2.33398 c 7.02148,2.42188 11.86133,9.15527 11.86133,16.63867 0,3.14551 -0.83203,6.20605 -2.41309,8.89746 l 6.89258,4.44629 c 0.34863,0.22461 0.44824,0.68848 0.22363,1.03613 -0.14258,0.22268 -0.38477,0.34377 -0.63086,0.34377 z"
   id="path575"
   inkscape:connector-curvature="0"
   style="fill:#ff4257" />
		</g>
	</g>
	<g
   id="g605">
		<g
   id="g583">
			<circle
   cx="59.25127"
   cy="310.47357"
   r="6.2999902"
   id="circle581"
   style="fill:#ff4257" />
		</g>
		<g
   id="g587">
			<path
   d="m 57.25098,313.33594 c -0.27637,0 -0.5,-0.22363 -0.5,-0.5 v -4.72461 c 0,-0.27637 0.22363,-0.5 0.5,-0.5 0.27637,0 0.5,0.22363 0.5,0.5 v 4.72461 c 0,0.27636 -0.22364,0.5 -0.5,0.5 z"
   id="path585"
   inkscape:connector-curvature="0"
   style="fill:#e5e5e5" />
		</g>
		<g
   id="g591">
			<path
   d="m 59.25098,312.02344 c -0.27637,0 -0.5,-0.22363 -0.5,-0.5 v -2.09961 c 0,-0.27637 0.22363,-0.5 0.5,-0.5 0.27637,0 0.5,0.22363 0.5,0.5 v 2.09961 c 0,0.27636 -0.22364,0.5 -0.5,0.5 z"
   id="path589"
   inkscape:connector-curvature="0"
   style="fill:#e5e5e5" />
		</g>
		<g
   id="g595">
			<path
   d="m 61.25098,312.69824 c -0.27637,0 -0.5,-0.22363 -0.5,-0.5 v -3.44922 c 0,-0.27637 0.22363,-0.5 0.5,-0.5 0.27637,0 0.5,0.22363 0.5,0.5 v 3.44922 c 0,0.27637 -0.22364,0.5 -0.5,0.5 z"
   id="path593"
   inkscape:connector-curvature="0"
   style="fill:#e5e5e5" />
		</g>
		<g
   id="g599">
			<path
   d="m 55.25098,311.06738 c -0.27637,0 -0.5,-0.22363 -0.5,-0.5 v -0.1875 c 0,-0.27637 0.22363,-0.5 0.5,-0.5 0.27637,0 0.5,0.22363 0.5,0.5 v 0.1875 c 0,0.27637 -0.22364,0.5 -0.5,0.5 z"
   id="path597"
   inkscape:connector-curvature="0"
   style="fill:#e5e5e5" />
		</g>
		<g
   id="g603">
			<path
   d="m 63.25098,311.06738 c -0.27637,0 -0.5,-0.22363 -0.5,-0.5 v -0.1875 c 0,-0.27637 0.22363,-0.5 0.5,-0.5 0.27637,0 0.5,0.22363 0.5,0.5 v 0.1875 c 0,0.27637 -0.22364,0.5 -0.5,0.5 z"
   id="path601"
   inkscape:connector-curvature="0"
   style="fill:#e5e5e5" />
		</g>
	</g>
	<g
   id="g631">
		<g
   id="g609">
			
				<ellipse
   transform="matrix(0.99995,-0.0102,0.0102,0.99995,-3.16417,0.18316)"
   cx="16.36977"
   cy="310.22095"
   rx="6.3000002"
   ry="6.2999902"
   id="ellipse607"
   style="fill:#ff4257" />
		</g>
		<g
   id="g613">
			<path
   d="m 18.37012,313.70801 c -0.27637,0 -0.5,-0.22363 -0.5,-0.5 v -4.72461 c 0,-0.27637 0.22363,-0.5 0.5,-0.5 0.27637,0 0.5,0.22363 0.5,0.5 v 4.72461 c 0,0.27637 -0.22364,0.5 -0.5,0.5 z"
   id="path611"
   inkscape:connector-curvature="0"
   style="fill:#e5e5e5" />
		</g>
		<g
   id="g617">
			<path
   d="m 16.37012,311.08301 c -0.27637,0 -0.5,-0.22363 -0.5,-0.5 v -2.09961 c 0,-0.27637 0.22363,-0.5 0.5,-0.5 0.27637,0 0.5,0.22363 0.5,0.5 v 2.09961 c 0,0.27637 -0.22364,0.5 -0.5,0.5 z"
   id="path615"
   inkscape:connector-curvature="0"
   style="fill:#e5e5e5" />
		</g>
		<g
   id="g621">
			<path
   d="m 14.37012,312.43359 c -0.27637,0 -0.5,-0.22363 -0.5,-0.5 v -3.4502 c 0,-0.27637 0.22363,-0.5 0.5,-0.5 0.27637,0 0.5,0.22363 0.5,0.5 v 3.4502 c 0,0.27637 -0.22364,0.5 -0.5,0.5 z"
   id="path619"
   inkscape:connector-curvature="0"
   style="fill:#e5e5e5" />
		</g>
		<g
   id="g625">
			<path
   d="m 20.37012,309.1709 c -0.27637,0 -0.5,-0.22363 -0.5,-0.5 v -0.1875 c 0,-0.27637 0.22363,-0.5 0.5,-0.5 0.27637,0 0.5,0.22363 0.5,0.5 v 0.1875 c 0,0.27637 -0.22364,0.5 -0.5,0.5 z"
   id="path623"
   inkscape:connector-curvature="0"
   style="fill:#e5e5e5" />
		</g>
		<g
   id="g629">
			<path
   d="m 12.37012,309.1709 c -0.27637,0 -0.5,-0.22363 -0.5,-0.5 v -0.1875 c 0,-0.27637 0.22363,-0.5 0.5,-0.5 0.27637,0 0.5,0.22363 0.5,0.5 v 0.1875 c 0,0.27637 -0.22364,0.5 -0.5,0.5 z"
   id="path627"
   inkscape:connector-curvature="0"
   style="fill:#e5e5e5" />
		</g>
	</g>
	<g
   id="g657">
		<g
   id="g635">
			
				<ellipse
   transform="matrix(0.99995,-0.0102,0.0102,0.99995,-2.80827,0.18134)"
   cx="16.36977"
   cy="275.33749"
   rx="6.3000002"
   ry="6.2999902"
   id="ellipse633"
   style="fill:#ff4257" />
		</g>
		<g
   id="g639">
			<path
   d="m 14.37012,277.5752 c -0.27637,0 -0.5,-0.22363 -0.5,-0.5 v -4.72559 c 0,-0.27637 0.22363,-0.5 0.5,-0.5 0.27637,0 0.5,0.22363 0.5,0.5 v 4.72559 c 0,0.27636 -0.22364,0.5 -0.5,0.5 z"
   id="path637"
   inkscape:connector-curvature="0"
   style="fill:#e5e5e5" />
		</g>
		<g
   id="g643">
			<path
   d="m 16.37012,277.5752 c -0.27637,0 -0.5,-0.22363 -0.5,-0.5 v -2.10059 c 0,-0.27637 0.22363,-0.5 0.5,-0.5 0.27637,0 0.5,0.22363 0.5,0.5 v 2.10059 c 0,0.27636 -0.22364,0.5 -0.5,0.5 z"
   id="path641"
   inkscape:connector-curvature="0"
   style="fill:#e5e5e5" />
		</g>
		<g
   id="g647">
			<path
   d="m 18.37012,277.5752 c -0.27637,0 -0.5,-0.22363 -0.5,-0.5 v -3.4502 c 0,-0.27637 0.22363,-0.5 0.5,-0.5 0.27637,0 0.5,0.22363 0.5,0.5 v 3.4502 c 0,0.27636 -0.22364,0.5 -0.5,0.5 z"
   id="path645"
   inkscape:connector-curvature="0"
   style="fill:#e5e5e5" />
		</g>
		<g
   id="g651">
			<path
   d="m 12.37012,277.5752 c -0.27637,0 -0.5,-0.22363 -0.5,-0.5 v -0.1875 c 0,-0.27637 0.22363,-0.5 0.5,-0.5 0.27637,0 0.5,0.22363 0.5,0.5 v 0.1875 c 0,0.27636 -0.22364,0.5 -0.5,0.5 z"
   id="path649"
   inkscape:connector-curvature="0"
   style="fill:#e5e5e5" />
		</g>
		<g
   id="g655">
			<path
   d="m 20.37012,277.5752 c -0.27637,0 -0.5,-0.22363 -0.5,-0.5 v -0.1875 c 0,-0.27637 0.22363,-0.5 0.5,-0.5 0.27637,0 0.5,0.22363 0.5,0.5 v 0.1875 c 0,0.27636 -0.22364,0.5 -0.5,0.5 z"
   id="path653"
   inkscape:connector-curvature="0"
   style="fill:#e5e5e5" />
		</g>
	</g>
</g>
<g
   id="PUSH"
   transform="matrix(1.2800162,0,0,1.2800162,-6.0555561e-4,-0.36841885)">
</g>
</svg>