<?xml version="1.0" encoding="utf-8"?>
<!-- Generator: Adobe Illustrator 25.2.3, SVG Export Plug-In . SVG Version: 6.00 Build 0)  -->
<svg version="1.0"
	 id="Layer_1" xmlns:cc="http://creativecommons.org/ns#" xmlns:dc="http://purl.org/dc/elements/1.1/" xmlns:inkscape="http://www.inkscape.org/namespaces/inkscape" xmlns:rdf="http://www.w3.org/1999/02/22-rdf-syntax-ns#" xmlns:sodipodi="http://sodipodi.sourceforge.net/DTD/sodipodi-0.dtd" xmlns:svg="http://www.w3.org/2000/svg"
	 xmlns="http://www.w3.org/2000/svg" xmlns:xlink="http://www.w3.org/1999/xlink" x="0px" y="0px" width="22.07849px"
	 height="22.07849px" viewBox="0 0 22.07849 22.07849" enable-background="new 0 0 22.07849 22.07849" xml:space="preserve">
<sodipodi:namedview  bordercolor="#666666" borderopacity="1" fit-margin-bottom="0" fit-margin-left="0" fit-margin-right="0" fit-margin-top="0" gridtolerance="10" guidetolerance="10" id="namedview17" inkscape:current-layer="Layer_1" inkscape:cx="11.5" inkscape:cy="11.499999" inkscape:document-units="mm" inkscape:pageopacity="0" inkscape:pageshadow="2" inkscape:window-height="1017" inkscape:window-maximized="1" inkscape:window-width="1920" inkscape:window-x="-8" inkscape:window-y="-8" inkscape:zoom="10.26087" objecttolerance="10" pagecolor="#ffffff" showgrid="false" units="mm">
	</sodipodi:namedview>
<g>
	<g>
		
			<linearGradient id="SVGID_1_" gradientUnits="userSpaceOnUse" x1="-602.39911" y1="1784.88037" x2="-580.3205" y2="1784.88037" gradientTransform="matrix(0 1 1 0 -1773.84119 602.39905)">
			<stop  offset="0" style="stop-color:#828181"/>
			<stop  offset="1" style="stop-color:#575757"/>
		</linearGradient>
		<path fill="url(#SVGID_1_)" d="M11.03948,22.07854c-6.08726,0-11.03976-4.95203-11.03976-11.03882
			c0-6.08773,4.9525-11.03976,11.03976-11.03976s11.03929,4.95203,11.03929,11.03977
			C22.07877,17.1265,17.12674,22.07854,11.03948,22.07854z"/>
	</g>
	
		<linearGradient id="SVGID_2_" gradientUnits="userSpaceOnUse" x1="1061.79529" y1="-4092.87915" x2="1082.76868" y2="-4092.87915" gradientTransform="matrix(0 1 -1 0 -4081.83984 -1061.23169)">
		<stop  offset="0.00559" style="stop-color:#FFFFFF"/>
		<stop  offset="1" style="stop-color:#7A7A7A"/>
	</linearGradient>
	<circle fill="url(#SVGID_2_)" cx="11.03924" cy="11.0503" r="10.4867"/>
	<circle fill="#E0E0E0" cx="11.03924" cy="11.0503" r="9.86427"/>
	
		<linearGradient id="SVGID_3_" gradientUnits="userSpaceOnUse" x1="-1241.41919" y1="-383.08658" x2="-1224.9115" y2="-383.08658" gradientTransform="matrix(0 -1 -1 0 -372.04718 -1222.1261)">
		<stop  offset="0" style="stop-color:#B0AEAE"/>
		<stop  offset="1" style="stop-color:#616161"/>
	</linearGradient>
	<circle fill="url(#SVGID_3_)" cx="11.03938" cy="11.03921" r="8.2538"/>
	<circle fill="#1F1F1F" cx="11.03939" cy="11.03921" r="7.71365"/>
	<path opacity="0.28" fill="#404040" d="M11.03939,3.8313c3.97952,0,7.20556,3.57242,7.20556,7.97922
		s-3.22604,8.77256-7.20556,8.77256s-7.20556-4.36576-7.20556-8.77256S7.05986,3.8313,11.03939,3.8313z"/>
	
		<linearGradient id="SVGID_4_" gradientUnits="userSpaceOnUse" x1="-1886.05286" y1="19.94837" x2="-1886.05286" y2="5.53241" gradientTransform="matrix(-1 0 0 -1 -1875.01343 23.77966)">
		<stop  offset="0" style="stop-color:#FFFEFE"/>
		<stop  offset="1" style="stop-color:#545454"/>
	</linearGradient>
	<circle fill="url(#SVGID_4_)" cx="11.03939" cy="11.03928" r="7.20798"/>
	<circle fill="#E0E0E0" cx="11.03939" cy="11.03928" r="6.42285"/>
	<g opacity="0.43">
		<path fill="#404040" d="M11.03939,4.25539c3.94322,0,7.14194,3.0765,7.20011,6.89151
			c0.00052-0.0362,0.00542-0.07131,0.00542-0.10763c0-3.98086-3.22599-7.20795-7.20553-7.20795S3.83381,7.0584,3.83381,11.03927
			c0,0.03632,0.0049,0.07143,0.00542,0.10763C3.8974,7.3319,7.09618,4.25539,11.03939,4.25539z"/>
		<path opacity="0.28" fill="#404040" d="M3.83923,11.1469c-0.00052,0.03517-0.00542,0.06918-0.00542,0.10446
			c0,3.86372,3.22605,6.99591,7.20558,6.99591C7.09618,18.24727,3.8974,15.07761,3.83923,11.1469z"/>
		<path opacity="0.28" fill="#404040" d="M11.03939,18.24727c3.97954,0,7.20553-3.13219,7.20553-6.99591
			c0-0.03528-0.0049-0.06929-0.00542-0.10446C18.18133,15.07761,14.98261,18.24727,11.03939,18.24727z"/>
	</g>
	
		<linearGradient id="SVGID_5_" gradientUnits="userSpaceOnUse" x1="-1886.05286" y1="7.53206" x2="-1886.05286" y2="17.94871" gradientTransform="matrix(-1 0 0 -1 -1875.01343 23.77966)">
		<stop  offset="0" style="stop-color:#FFFEFE"/>
		<stop  offset="1" style="stop-color:#706C6C"/>
	</linearGradient>
	<circle fill="url(#SVGID_5_)" cx="11.03939" cy="11.03928" r="5.20833"/>
	<circle cx="11.03939" cy="11.03921" r="4.59739"/>
</g>
</svg>
