<?xml version="1.0" encoding="UTF-8" standalone="no"?>
<svg
   xmlns:dc="http://purl.org/dc/elements/1.1/"
   xmlns:cc="http://creativecommons.org/ns#"
   xmlns:rdf="http://www.w3.org/1999/02/22-rdf-syntax-ns#"
   xmlns:svg="http://www.w3.org/2000/svg"
   xmlns="http://www.w3.org/2000/svg"
   xmlns:sodipodi="http://sodipodi.sourceforge.net/DTD/sodipodi-0.dtd"
   xmlns:inkscape="http://www.inkscape.org/namespaces/inkscape"
   id="Layer_1"
   data-name="Layer 1"
   width="7.7887998mm"
   height="7.7887998mm"
   viewBox="0 0 29.437983 29.437983"
   version="1.1"
   sodipodi:docname="Jack-WL.svg"
   inkscape:version="0.92.3 (2405546, 2018-03-11)">
  <metadata
     id="metadata21">
    <rdf:RDF>
      <cc:Work
         rdf:about="">
        <dc:format>image/svg+xml</dc:format>
        <dc:type
           rdf:resource="http://purl.org/dc/dcmitype/StillImage" />
        <dc:title>Jack</dc:title>
      </cc:Work>
    </rdf:RDF>
  </metadata>
  <defs
     id="defs19" />
  <sodipodi:namedview
     pagecolor="#ffffff"
     bordercolor="#666666"
     borderopacity="1"
     objecttolerance="10"
     gridtolerance="10"
     guidetolerance="10"
     inkscape:pageopacity="0"
     inkscape:pageshadow="2"
     inkscape:window-width="1920"
     inkscape:window-height="1017"
     id="namedview17"
     showgrid="false"
     inkscape:document-units="mm"
     units="mm"
     fit-margin-top="0"
     fit-margin-left="0"
     fit-margin-right="0"
     fit-margin-bottom="0"
     inkscape:zoom="10.26087"
     inkscape:cx="11.5"
     inkscape:cy="11.499999"
     inkscape:window-x="-8"
     inkscape:window-y="-8"
     inkscape:window-maximized="1"
     inkscape:current-layer="Layer_1" />
  <title
     id="title2">Jack</title>
  <path
     d="M 14.718992,-1.0200992e-7 A 14.718992,14.718992 0 1 0 29.437984,14.718992 14.718992,14.718992 0 0 0 14.718992,-1.0200992e-7 Z"
     style="fill:#878787;stroke-width:1.27991235"
     id="path4"
     inkscape:connector-curvature="0" />
  <path
     d="M 14.718992,0.7295499 A 13.989442,13.989442 0 1 0 28.708434,14.718992 v 0 A 14.002241,14.002241 0 0 0 14.718992,0.7295499 Z"
     style="fill:#e5e5e5;stroke-width:1.27991235"
     id="path6"
     inkscape:connector-curvature="0" />
  <path
     d="M 14.718992,2.9054009 A 11.813591,11.813591 0 1 0 26.532583,14.718992 v 0 A 11.82639,11.82639 0 0 0 14.718992,2.9054009 Z"
     style="fill:#969696;stroke-width:1.27991235"
     id="path8"
     inkscape:connector-curvature="0" />
  <path
     d="m 14.718992,24.407929 a 9.6889366,9.6889366 0 1 1 9.688937,-9.688937 v 0 a 9.6889366,9.6889366 0 0 1 -9.688937,9.688937 z"
     style="fill:#e5e5e5;stroke-width:1.27991235"
     id="path10"
     inkscape:connector-curvature="0" />
  <path
     d="m 14.718992,22.091287 a 7.3722952,7.3722952 0 1 1 7.372295,-7.372295 v 0 a 7.3722952,7.3722952 0 0 1 -7.372295,7.372295 z"
     style="fill:#515151;stroke-width:1.27991235"
     id="path12"
     inkscape:connector-curvature="0" />
  <path
     d="M 14.718992,8.0762469 A 6.6427451,6.6427451 0 1 0 21.361737,14.718992 6.6427451,6.6427451 0 0 0 14.718992,8.0762469 Z"
     style="fill:#141414;stroke-width:1.27991235"
     id="path14"
     inkscape:connector-curvature="0" />
</svg>
