<?xml version="1.0" encoding="UTF-8" standalone="no"?>
<!-- Generator: Adobe Illustrator 25.2.3, SVG Export Plug-In . SVG Version: 6.00 Build 0)  -->

<svg
   version="1.0"
   id="Layer_1"
   inkscape:version="1.3.2 (091e20e, 2023-11-25, custom)"
   sodipodi:docname="TwinParadox-WL.svg"
   x="0px"
   y="0px"
   width="315"
   height="380"
   viewBox="0 0 315 380"
   enable-background="new 0 0 302.39999 364.25195"
   xml:space="preserve"
   xmlns:inkscape="http://www.inkscape.org/namespaces/inkscape"
   xmlns:sodipodi="http://sodipodi.sourceforge.net/DTD/sodipodi-0.dtd"
   xmlns="http://www.w3.org/2000/svg"
   xmlns:svg="http://www.w3.org/2000/svg"
   xmlns:rdf="http://www.w3.org/1999/02/22-rdf-syntax-ns#"
   xmlns:cc="http://creativecommons.org/ns#"
   xmlns:dc="http://purl.org/dc/elements/1.1/"><metadata
   id="metadata1375"><rdf:RDF><cc:Work
       rdf:about=""><dc:format>image/svg+xml</dc:format><dc:type
         rdf:resource="http://purl.org/dc/dcmitype/StillImage" /><dc:title /></cc:Work></rdf:RDF></metadata><defs
   id="defs1373" />
<sodipodi:namedview
   bordercolor="#666666"
   borderopacity="1"
   fit-margin-bottom="0"
   fit-margin-left="0"
   fit-margin-right="0"
   fit-margin-top="0"
   gridtolerance="10"
   guidetolerance="10"
   id="namedview2553"
   inkscape:current-layer="Layer_1"
   inkscape:cx="98.770234"
   inkscape:cy="211.48785"
   inkscape:document-units="mm"
   inkscape:pageopacity="0"
   inkscape:pageshadow="2"
   inkscape:window-height="1057"
   inkscape:window-maximized="1"
   inkscape:window-width="1920"
   inkscape:window-x="-8"
   inkscape:window-y="1072"
   inkscape:zoom="1.7566021"
   objecttolerance="10"
   pagecolor="#ffffff"
   showgrid="false"
   units="mm"
   inkscape:showpageshadow="2"
   inkscape:pagecheckerboard="0"
   inkscape:deskcolor="#d1d1d1">
	</sodipodi:namedview>
<g
   id="bg"
   transform="matrix(1.3333336,0,0,1.3333336,-1.7333337e-4,-0.09533336)">
	<g
   id="g4">
		<linearGradient
   id="rect2_1_"
   gradientUnits="userSpaceOnUse"
   x1="118.1251"
   y1="285.07144"
   x2="118.1251"
   y2="-79.729622">
			<stop
   offset="0"
   style="stop-color:#EBEBEB"
   id="stop3" />
			<stop
   offset="1"
   style="stop-color:#E1E1E1"
   id="stop5" />
		</linearGradient>
		<rect
   id="rect2"
   x="0.00013"
   y="0.071500003"
   width="236.24994"
   height="284.99994"
   style="fill:url(#rect2_1_)" />
	</g>
	<g
   id="g68">
		<path
   id="path62"
   inkscape:connector-curvature="0"
   d="m 122.04058,281.07913 h -7.84969 c -1.32857,0 -2.40558,-1.07703 -2.40558,-2.40561 v -19.7486 c 0,-1.32858 1.07701,-2.40558 2.40558,-2.40558 h 7.84969 c 1.32857,0 2.40559,1.077 2.40559,2.40558 v 19.7486 c 0,1.32859 -1.07702,2.40561 -2.40559,2.40561 z"
   style="fill:#252626" />
		<g
   id="g66">
			<path
   id="path64"
   inkscape:connector-curvature="0"
   d="m 121.0005,272.15891 c -0.0857,0.19763 -0.19936,0.36075 -0.34101,0.4892 -0.14182,0.12845 -0.30302,0.22382 -0.48425,0.28665 -0.18141,0.0626 -0.37076,0.0938 -0.56836,0.0938 -0.33609,0 -0.59793,-0.0493 -0.78568,-0.14816 -0.18775,-0.0989 -0.3345,-0.21414 -0.43973,-0.34595 -0.11227,-0.14499 -0.18301,-0.30634 -0.21256,-0.48425 -0.0298,-0.17789 -0.0446,-0.3558 -0.0446,-0.53369 0,-0.25058 0.005,-0.42337 0.0148,-0.51892 0.0101,-0.0957 0.0213,-0.1499 0.0346,-0.16312 0.0263,-0.0199 0.13496,-0.0295 0.32607,-0.0295 h 2.31286 c 0.0658,0 0.12019,0.005 0.16312,0.0148 0.0426,0.01 0.0757,0.0361 0.0987,0.079 0.023,0.0428 0.0379,0.10699 0.0446,0.19269 0.007,0.0857 0.0101,0.20428 0.0101,0.35577 0,0.27682 -0.0431,0.51419 -0.12863,0.71179 m -3.99263,-9.61622 c 0.009,-0.0621 0.0356,-0.11124 0.0803,-0.14694 0.0446,-0.0356 0.11561,-0.0579 0.2138,-0.0668 0.098,-0.009 0.23614,-0.0134 0.41439,-0.0134 0.69506,0 1.22752,0.19373 1.59739,0.58139 0.36971,0.38763 0.55482,0.90689 0.55482,1.55746 0,0.0616 -0.0128,0.19443 -0.0209,0.28555 -0.0512,-6.7e-4 -0.10242,-0.002 -0.15362,-0.002 -0.14024,-0.003 -0.29263,-0.0107 -0.45715,-0.0229 -0.0366,0.0183 -0.0563,0.0533 -0.0595,0.10504 -0.003,0.0519 0.0106,0.0931 0.0413,0.12354 l 0.16434,0.0183 c 0.10979,0.0122 0.20112,0.032 0.27433,0.0593 0.0732,0.0274 0.10979,0.0565 0.10979,0.0869 0,0.0304 -0.0183,0.0869 -0.0549,0.1691 -0.0366,0.0824 -0.0853,0.18146 -0.14622,0.29706 -0.0611,0.11594 -0.1267,0.23947 -0.19656,0.37039 -0.0702,0.13107 -0.13585,0.25461 -0.19673,0.37021 -0.14024,0.26834 -0.2833,0.53177 -0.4297,0.7908 -0.14622,0.25919 -0.28946,0.51062 -0.42952,0.75433 -0.17703,-0.31689 -0.35071,-0.64911 -0.52121,-0.99646 -0.17069,-0.34753 -0.34137,-0.69171 -0.51205,-1.03326 -0.0123,-0.0243 -0.0335,-0.0699 -0.0639,-0.13705 -0.0306,-0.0669 -0.0626,-0.13852 -0.0961,-0.21487 -0.0336,-0.0762 -0.0626,-0.14764 -0.0869,-0.21484 -0.0244,-0.0671 -0.0365,-0.11279 -0.0365,-0.13708 0,-0.0366 0.0241,-0.0655 0.073,-0.0869 0.0487,-0.0213 0.15239,-0.0472 0.31093,-0.0776 l 0.11877,-0.0183 c 0.0305,-0.0305 0.0442,-0.0732 0.0412,-0.12811 -0.003,-0.0548 -0.026,-0.0883 -0.0685,-0.10049 -0.12987,0.0102 -0.28912,0.0176 -0.47792,0.022 v -1.93982 c -1e-5,-0.10696 0.005,-0.19162 0.0134,-0.25406 m 0.75699,6.84374 c 0,0.24387 -0.003,0.43881 -0.009,0.58505 -0.006,0.14624 -0.0275,0.26062 -0.064,0.34277 -0.0131,0.0295 -0.0285,0.0556 -0.0463,0.0783 -3.6e-4,1.5e-4 -7.6e-4,5.2e-4 -0.002,6.7e-4 -0.10645,-0.0204 -0.1962,-0.044 -0.26868,-0.0709 -0.12037,-0.0445 -0.20712,-0.12476 -0.2606,-0.24051 -0.0535,-0.11581 -0.0869,-0.27841 -0.1003,-0.48798 -0.0133,-0.2092 -0.02,-0.48795 -0.02,-0.8353 v -1.90341 l 0.47792,0.93121 c 0.0669,0.12811 0.12017,0.23633 0.15994,0.32465 0.0396,0.0885 0.0685,0.17072 0.0867,0.24689 0.0183,0.0763 0.0305,0.15695 0.0366,0.24231 0.006,0.0854 0.009,0.19196 0.009,0.31992 z m 3.7732,1.13055 c 0.0396,-0.1098 0.079,-0.22702 0.11877,-0.35193 0.0396,-0.12494 0.0762,-0.24689 0.1098,-0.36581 0.0335,-0.1188 0.0593,-0.21786 0.0778,-0.29721 -0.0185,-0.0424 -0.0535,-0.0698 -0.10522,-0.0822 -0.0519,-0.0122 -0.0929,-0.006 -0.12353,0.0183 -0.12194,0.23755 -0.23914,0.43268 -0.35193,0.58505 -0.11279,0.15259 -0.21185,0.25305 -0.29702,0.30179 -0.0489,0.0244 -0.10523,0.0456 -0.16928,0.0639 -0.0639,0.0183 -0.14024,0.032 -0.22858,0.0412 -0.0883,0.009 -0.19497,0.0169 -0.31991,0.0229 -0.12492,0.006 -0.2759,0.009 -0.45257,0.009 -0.20113,0 -0.36724,-0.006 -0.49833,-0.0183 -0.1311,-0.0122 -0.23615,-0.0274 -0.31533,-0.0456 -0.0794,-0.0185 -0.14183,-0.0397 -0.1874,-0.064 -0.0457,-0.0243 -0.0809,-0.0518 -0.10522,-0.0824 -0.0732,-0.0792 -0.12036,-0.19653 -0.14165,-0.35193 -0.0215,-0.15555 -0.032,-0.35507 -0.032,-0.59897 v -0.60339 c 0.002,-0.0836 0.004,-0.15747 0.007,-0.22083 0.006,-0.11261 0.0227,-0.21783 0.0502,-0.31531 0.0275,-0.0975 0.07,-0.20132 0.12811,-0.31094 0.0137,-0.0262 0.0292,-0.0545 0.0456,-0.0843 0.022,-7e-4 0.0448,-7.3e-4 0.0704,-7.3e-4 h 0.53035 c 0.17667,0 0.32148,0.003 0.43427,0.009 0.11262,0.006 0.20254,0.0181 0.26974,0.0364 0.0913,0.0244 0.1568,0.0672 0.19656,0.12811 0.0396,0.0609 0.0685,0.13409 0.0869,0.21942 l 0.0822,0.35651 c 0.0243,0.0306 0.0655,0.0442 0.12334,0.0412 0.0579,-0.003 0.0961,-0.0197 0.11439,-0.0503 0,-0.10364 -0.006,-0.23456 -0.0183,-0.3931 -0.0123,-0.15854 -0.0183,-0.3201 -0.0183,-0.48462 0,-0.17664 0.006,-0.34735 0.0183,-0.51187 0.0122,-0.1647 0.0183,-0.30176 0.0183,-0.41156 -0.0183,-0.0303 -0.0565,-0.0472 -0.11439,-0.0503 -0.0579,-0.003 -0.0991,0.0107 -0.12334,0.0412 l -0.073,0.37497 c -0.0244,0.11578 -0.0535,0.19357 -0.0869,0.23315 -0.0336,0.0396 -0.0778,0.0685 -0.1325,0.0868 -0.0549,0.0183 -0.14957,0.032 -0.28347,0.0412 -0.13426,0.009 -0.29879,0.0137 -0.49375,0.0137 h -0.41317 c 0.003,-0.005 0.006,-0.01 0.009,-0.0151 l 0.57594,-0.99649 c 0.11561,-0.19516 0.22084,-0.37637 0.31551,-0.54407 0.0943,-0.16754 0.18739,-0.31549 0.27872,-0.44345 0.0915,-0.12793 0.18582,-0.23157 0.28349,-0.31073 0.0202,-0.0163 0.041,-0.0311 0.0623,-0.0451 0.0619,0.0247 0.11649,0.0537 0.16347,0.0876 0.0762,0.0548 0.13848,0.11877 0.18741,0.19199 0.0487,0.0731 0.0883,0.15536 0.11895,0.2467 0.0302,0.0915 0.0639,0.19214 0.10046,0.30176 0.0243,0.0306 0.0641,0.0428 0.11897,0.0366 0.0547,-0.006 0.0913,-0.0243 0.10962,-0.0549 -0.0123,-0.0975 -0.0229,-0.20865 -0.0319,-0.33362 -0.009,-0.12491 -0.02,-0.24686 -0.0322,-0.36566 -0.0122,-0.11893 -0.0281,-0.22504 -0.041,-0.32007 -0.0319,-0.23508 -0.0246,-0.43585 -0.0246,-0.43585 0,-0.46313 -0.13144,-0.86804 -0.33204,-1.20694 -0.20042,-0.33853 -0.4568,-0.60583 -0.76861,-0.80185 -0.31198,-0.19601 -0.67728,-0.33417 -1.09607,-0.4144 -0.41898,-0.0803 -0.90904,-0.12036 -1.47036,-0.12036 -0.56151,0 -1.05402,0.007 -1.47704,0.0201 -0.42337,0.0133 -0.81331,0.0425 -1.1698,0.0869 -0.0533,0.0267 -0.0824,0.0781 -0.0868,0.15359 -0.004,0.0758 0.0153,0.13602 0.0601,0.18054 l 0.48109,0.0535 c 0.1515,0.0179 0.26939,0.0468 0.35439,0.0869 0.0845,0.0399 0.14693,0.11353 0.18704,0.22049 0.0401,0.10699 0.0646,0.24954 0.0736,0.4278 0.009,0.17825 0.0134,0.40997 0.0134,0.69504 v 4.93262 c 0,0.34735 -0.005,0.62607 -0.0134,0.8353 -0.009,0.20956 -0.0401,0.37216 -0.0936,0.48795 -0.0535,0.11578 -0.13373,0.19601 -0.24055,0.24054 -0.10698,0.0447 -0.25866,0.0802 -0.4545,0.10696 l -0.28084,0.0401 c -0.0406,0.0406 -0.0588,0.0962 -0.0549,0.16629 -3.4e-4,0.14307 -0.002,0.18845 -0.005,0.34964 -0.003,0.1846 -0.0116,0.39081 -0.0251,0.61902 0.0136,0.0336 0.0519,0.0537 0.11578,0.0605 0.0637,0.007 0.10909,-0.007 0.13602,-0.0403 l 0.0301,-0.21149 c 0.0202,-0.14767 0.0469,-0.26166 0.0806,-0.3421 0.0336,-0.0806 0.094,-0.14093 0.18125,-0.18121 0.0871,-0.0403 0.20956,-0.0641 0.36741,-0.0707 0.15765,-0.007 0.3674,-0.01 0.62924,-0.01 h 1.26835 c 0.0537,0 0.0957,0.003 0.12599,0.01 0.0301,0.007 0.0519,0.0254 0.0652,0.0556 0.0134,0.0301 0.0218,0.0771 0.0253,0.14078 0.003,0.0639 0.005,0.15256 0.005,0.26675 0,0.20148 -0.0251,0.35245 -0.0755,0.45309 -0.0503,0.10068 -0.13248,0.18793 -0.2467,0.26184 -0.11419,0.0806 -0.24001,0.16437 -0.37744,0.25165 -0.13777,0.0871 -0.27538,0.17438 -0.41281,0.26166 -0.1376,0.0872 -0.2701,0.1712 -0.39767,0.25177 -0.12758,0.0804 -0.23826,0.15436 -0.33222,0.22137 -0.25515,0.18124 -0.4649,0.35071 -0.62926,0.50854 -0.16434,0.15765 -0.2935,0.31708 -0.38746,0.47809 -0.0941,0.16101 -0.15943,0.33044 -0.19638,0.50836 -0.0367,0.17789 -0.0553,0.37408 -0.0553,0.58893 0,0.19464 0.0167,0.34244 0.0502,0.44293 0.0202,0.0269 0.0454,0.0387 0.0757,0.0354 0.0301,-0.004 0.0519,-0.0187 0.0655,-0.0454 0.0132,-0.13425 0.0452,-0.26166 0.0956,-0.38235 0.0503,-0.12091 0.11227,-0.22507 0.18634,-0.31216 0.14095,-0.17456 0.30019,-0.33893 0.4781,-0.49341 0.17771,-0.15433 0.37409,-0.31198 0.58894,-0.47318 0.21467,-0.16098 0.45628,-0.32712 0.72479,-0.49814 0.26834,-0.17123 0.56378,-0.35754 0.88598,-0.55887 0.0403,-0.0269 0.082,-0.0487 0.12582,-0.0655 0.0434,-0.0169 0.0822,-0.0118 0.11578,0.0151 0.0468,0.12741 0.11737,0.26343 0.21133,0.40771 0.094,0.14429 0.20976,0.2803 0.34735,0.4079 0.13762,0.12738 0.29862,0.23297 0.48321,0.31705 0.18458,0.0838 0.39768,0.12582 0.63927,0.12582 0.3558,0 0.64772,-0.079 0.87595,-0.23666 0.22804,-0.15765 0.40594,-0.35736 0.53352,-0.59897 0.1274,-0.23492 0.20975,-0.495 0.2467,-0.78006 0.0367,-0.2854 0.0566,-0.58578 0.0553,-0.90128 -0.002,-0.58456 0.10272,-0.95654 0.10272,-0.95654"
   style="fill:#e6e5e5" />
		</g>
	</g>
	<g
   id="g69">
		<g
   id="g39">
			
				<linearGradient
   id="SVGID_1_"
   gradientUnits="userSpaceOnUse"
   x1="380.55411"
   y1="-3988.9099"
   x2="393.55411"
   y2="-3988.9099"
   gradientTransform="rotate(90,-1795.6579,-2175.926)">
				<stop
   offset="0"
   style="stop-color:#ABA9A9"
   id="stop14" />
				<stop
   offset="1"
   style="stop-color:#8F8F8F"
   id="stop16" />
			</linearGradient>
			<circle
   cx="17.325939"
   cy="5.36411"
   r="5.0781102"
   id="circle19"
   style="fill:url(#SVGID_1_)" />
			
				<linearGradient
   id="SVGID_2_"
   gradientUnits="userSpaceOnUse"
   x1="381.09125"
   y1="-3988.9099"
   x2="392.71512"
   y2="-3988.9099"
   gradientTransform="rotate(90,-1795.6579,-2175.926)">
				<stop
   offset="0.00559"
   style="stop-color:#F5F5F5"
   id="stop21" />
				<stop
   offset="1"
   style="stop-color:#C2C2C2"
   id="stop23" />
			</linearGradient>
			<circle
   cx="17.325939"
   cy="5.3636999"
   r="4.5405598"
   id="circle26"
   style="fill:url(#SVGID_2_)" />
			
				<linearGradient
   id="SVGID_3_"
   gradientUnits="userSpaceOnUse"
   x1="381.44052"
   y1="-3988.9099"
   x2="392.17026"
   y2="-3988.9099"
   gradientTransform="rotate(90,-1795.6579,-2175.926)">
				<stop
   offset="0.00559"
   style="stop-color:#EBEBEB"
   id="stop28" />
				<stop
   offset="1"
   style="stop-color:#CCCCCC"
   id="stop30" />
			</linearGradient>
			<circle
   cx="17.325939"
   cy="5.3636999"
   r="4.1912899"
   id="circle33"
   style="fill:url(#SVGID_3_)" />
			<g
   id="g37">
				<path
   d="M 20.036,4.82547 18.50193,4.64168 C 18.26643,4.61347 18.08082,4.42778 18.0527,4.19227 L 17.86967,2.65925 C 17.8617,2.59241 17.80502,2.5421 17.73772,2.5421 h -0.82354 c -0.06729,0 -0.12396,0.05029 -0.13195,0.11711 l -0.18347,1.5339 c -0.02817,0.23554 -0.21388,0.4212 -0.44942,0.44933 l -1.5334,0.18307 C 14.54912,4.83349 14.4988,4.89016 14.4988,4.95746 v 0.82359 c 0,0.06729 0.05029,0.12396 0.11711,0.13195 l 1.53358,0.18343 c 0.2355,0.02817 0.42114,0.21381 0.44931,0.44931 l 0.18343,1.53353 c 0.008,0.06681 0.06466,0.11711 0.13195,0.11711 h 0.8236 c 0.06728,0 0.12394,-0.05028 0.13194,-0.11708 L 18.05348,6.54557 C 18.08169,6.31011 18.26732,6.12452 18.50279,6.09636 L 20.03597,5.913 C 20.10278,5.90501 20.15308,5.84834 20.15308,5.78105 V 4.95741 c 0,-0.06728 -0.05028,-0.12394 -0.11708,-0.13194 z"
   id="path35"
   inkscape:connector-curvature="0"
   style="fill:#8c8c8c" />
			</g>
		</g>
		<g
   id="g67">
			
				<linearGradient
   id="SVGID_4_"
   gradientUnits="userSpaceOnUse"
   x1="654.63654"
   y1="-3988.9099"
   x2="667.63654"
   y2="-3988.9099"
   gradientTransform="rotate(90,-1795.6579,-2175.926)">
				<stop
   offset="0"
   style="stop-color:#ABA9A9"
   id="stop41" />
				<stop
   offset="1"
   style="stop-color:#8F8F8F"
   id="stop43" />
			</linearGradient>
			<circle
   cx="17.325939"
   cy="279.44653"
   r="5.0781102"
   id="circle46"
   style="fill:url(#SVGID_4_)" />
			
				<linearGradient
   id="SVGID_5_"
   gradientUnits="userSpaceOnUse"
   x1="655.17365"
   y1="-3988.9099"
   x2="666.79755"
   y2="-3988.9099"
   gradientTransform="rotate(90,-1795.6579,-2175.926)">
				<stop
   offset="0.00559"
   style="stop-color:#F5F5F5"
   id="stop48" />
				<stop
   offset="1"
   style="stop-color:#C2C2C2"
   id="stop50" />
			</linearGradient>
			<circle
   cx="17.325939"
   cy="279.44611"
   r="4.5405598"
   id="circle53"
   style="fill:url(#SVGID_5_)" />
			
				<linearGradient
   id="SVGID_6_"
   gradientUnits="userSpaceOnUse"
   x1="655.52295"
   y1="-3988.9099"
   x2="666.25269"
   y2="-3988.9099"
   gradientTransform="rotate(90,-1795.6579,-2175.926)">
				<stop
   offset="0.00559"
   style="stop-color:#EBEBEB"
   id="stop55" />
				<stop
   offset="1"
   style="stop-color:#CCCCCC"
   id="stop57" />
			</linearGradient>
			<circle
   cx="17.325939"
   cy="279.44611"
   r="4.1912899"
   id="circle60"
   style="fill:url(#SVGID_6_)" />
			<g
   id="g65">
				<path
   d="m 20.036,278.9079 -1.53407,-0.18381 c -0.2355,-0.0282 -0.42111,-0.2139 -0.44923,-0.4494 l -0.18303,-1.53302 c -0.008,-0.0668 -0.06465,-0.11716 -0.13195,-0.11716 h -0.82354 c -0.06729,0 -0.12396,0.0503 -0.13195,0.11713 l -0.18347,1.53391 c -0.02817,0.23553 -0.21388,0.4212 -0.44942,0.44931 l -1.5334,0.18307 c -0.06682,0.008 -0.11714,0.0647 -0.11714,0.13196 v 0.82358 c 0,0.0673 0.05029,0.12396 0.11711,0.13196 l 1.53358,0.18344 c 0.2355,0.0282 0.42114,0.21381 0.44931,0.44931 l 0.18343,1.53354 c 0.008,0.0668 0.06466,0.1171 0.13195,0.1171 h 0.8236 c 0.06728,0 0.12394,-0.0503 0.13194,-0.1171 l 0.18376,-1.53372 c 0.02821,-0.23544 0.21384,-0.42105 0.44931,-0.44922 l 1.53319,-0.18335 c 0.06681,-0.008 0.11711,-0.0647 0.11711,-0.13196 v -0.82364 c -10e-6,-0.0673 -0.05029,-0.12394 -0.11709,-0.13193 z"
   id="path63"
   inkscape:connector-curvature="0"
   style="fill:#8c8c8c" />
			</g>
		</g>
	</g>
	<g
   id="g125">
		<g
   id="g96">
			
				<linearGradient
   id="SVGID_7_"
   gradientUnits="userSpaceOnUse"
   x1="380.55411"
   y1="-4190.7417"
   x2="393.55411"
   y2="-4190.7417"
   gradientTransform="rotate(90,-1795.6579,-2175.926)">
				<stop
   offset="0"
   style="stop-color:#ABA9A9"
   id="stop71" />
				<stop
   offset="1"
   style="stop-color:#8F8F8F"
   id="stop73" />
			</linearGradient>
			<circle
   cx="219.15785"
   cy="5.36411"
   r="5.0781102"
   id="circle76"
   style="fill:url(#SVGID_7_)" />
			
				<linearGradient
   id="SVGID_8_"
   gradientUnits="userSpaceOnUse"
   x1="381.09125"
   y1="-4190.7417"
   x2="392.71512"
   y2="-4190.7417"
   gradientTransform="rotate(90,-1795.6579,-2175.926)">
				<stop
   offset="0.00559"
   style="stop-color:#F5F5F5"
   id="stop78" />
				<stop
   offset="1"
   style="stop-color:#C2C2C2"
   id="stop80" />
			</linearGradient>
			<circle
   cx="219.15785"
   cy="5.3636999"
   r="4.5405598"
   id="circle83"
   style="fill:url(#SVGID_8_)" />
			
				<linearGradient
   id="SVGID_9_"
   gradientUnits="userSpaceOnUse"
   x1="381.44052"
   y1="-4190.7417"
   x2="392.17026"
   y2="-4190.7417"
   gradientTransform="rotate(90,-1795.6579,-2175.926)">
				<stop
   offset="0.00559"
   style="stop-color:#EBEBEB"
   id="stop85" />
				<stop
   offset="1"
   style="stop-color:#CCCCCC"
   id="stop87" />
			</linearGradient>
			<circle
   cx="219.15785"
   cy="5.3636999"
   r="4.1912899"
   id="circle90"
   style="fill:url(#SVGID_9_)" />
			<g
   id="g94">
				<path
   d="m 221.8679,4.82547 -1.53406,-0.18379 c -0.2355,-0.02821 -0.42111,-0.2139 -0.44923,-0.44941 l -0.18303,-1.53302 c -0.008,-0.06682 -0.0647,-0.11713 -0.13196,-0.11713 h -0.82353 c -0.0673,0 -0.12396,0.05029 -0.13196,0.11711 l -0.18347,1.5339 c -0.0282,0.23554 -0.21387,0.4212 -0.44942,0.44933 l -1.5334,0.18307 c -0.0668,0.00798 -0.11714,0.06465 -0.11714,0.13195 v 0.82359 c 0,0.06729 0.0503,0.12396 0.11711,0.13195 l 1.53358,0.18343 c 0.23549,0.02817 0.42114,0.21381 0.44931,0.44931 l 0.18343,1.53353 c 0.008,0.06681 0.0647,0.11711 0.13194,0.11711 h 0.82361 c 0.0673,0 0.12393,-0.05028 0.13194,-0.11708 l 0.18375,-1.53373 c 0.0282,-0.23546 0.21385,-0.42105 0.44931,-0.44921 l 1.53319,-0.18336 c 0.0668,-0.00799 0.11711,-0.06466 0.11711,-0.13195 V 4.95741 c 1e-5,-0.06728 -0.0503,-0.12394 -0.11708,-0.13194 z"
   id="path92"
   inkscape:connector-curvature="0"
   style="fill:#8c8c8c" />
			</g>
		</g>
		<g
   id="g123">
			
				<linearGradient
   id="SVGID_10_"
   gradientUnits="userSpaceOnUse"
   x1="654.63654"
   y1="-4190.7417"
   x2="667.63654"
   y2="-4190.7417"
   gradientTransform="rotate(90,-1795.6579,-2175.926)">
				<stop
   offset="0"
   style="stop-color:#ABA9A9"
   id="stop98" />
				<stop
   offset="1"
   style="stop-color:#8F8F8F"
   id="stop100" />
			</linearGradient>
			<circle
   cx="219.15785"
   cy="279.44653"
   r="5.0781102"
   id="circle103"
   style="fill:url(#SVGID_10_)" />
			
				<linearGradient
   id="SVGID_11_"
   gradientUnits="userSpaceOnUse"
   x1="655.17365"
   y1="-4190.7417"
   x2="666.79755"
   y2="-4190.7417"
   gradientTransform="rotate(90,-1795.6579,-2175.926)">
				<stop
   offset="0.00559"
   style="stop-color:#F5F5F5"
   id="stop105" />
				<stop
   offset="1"
   style="stop-color:#C2C2C2"
   id="stop107" />
			</linearGradient>
			<circle
   cx="219.15785"
   cy="279.44611"
   r="4.5405598"
   id="circle110"
   style="fill:url(#SVGID_11_)" />
			
				<linearGradient
   id="SVGID_12_"
   gradientUnits="userSpaceOnUse"
   x1="655.52295"
   y1="-4190.7417"
   x2="666.25269"
   y2="-4190.7417"
   gradientTransform="rotate(90,-1795.6579,-2175.926)">
				<stop
   offset="0.00559"
   style="stop-color:#EBEBEB"
   id="stop112" />
				<stop
   offset="1"
   style="stop-color:#CCCCCC"
   id="stop114" />
			</linearGradient>
			<circle
   cx="219.15785"
   cy="279.44611"
   r="4.1912899"
   id="circle117"
   style="fill:url(#SVGID_12_)" />
			<g
   id="g121">
				<path
   d="m 221.8679,278.9079 -1.53406,-0.18381 c -0.2355,-0.0282 -0.42111,-0.2139 -0.44923,-0.4494 l -0.18303,-1.53302 c -0.008,-0.0668 -0.0647,-0.11716 -0.13196,-0.11716 h -0.82353 c -0.0673,0 -0.12396,0.0503 -0.13196,0.11713 l -0.18347,1.53391 c -0.0282,0.23553 -0.21387,0.4212 -0.44942,0.44931 l -1.5334,0.18307 c -0.0668,0.008 -0.11714,0.0647 -0.11714,0.13196 v 0.82358 c 0,0.0673 0.0503,0.12396 0.11711,0.13196 l 1.53358,0.18344 c 0.23549,0.0282 0.42114,0.21381 0.44931,0.44931 l 0.18343,1.53354 c 0.008,0.0668 0.0647,0.1171 0.13194,0.1171 h 0.82361 c 0.0673,0 0.12393,-0.0503 0.13194,-0.1171 l 0.18375,-1.53372 c 0.0282,-0.23544 0.21385,-0.42105 0.44931,-0.44922 l 1.53319,-0.18335 c 0.0668,-0.008 0.11711,-0.0647 0.11711,-0.13196 v -0.82364 c 1e-5,-0.0673 -0.0503,-0.12394 -0.11708,-0.13193 z"
   id="path119"
   inkscape:connector-curvature="0"
   style="fill:#8c8c8c" />
			</g>
		</g>
	</g>
</g>

<g
   id="g2540"
   transform="matrix(1.2800039,0,0,1.2800039,-1.6640051e-4,15.107442)">
</g>
<g
   id="g2542"
   transform="matrix(1.2800039,0,0,1.2800039,-1.6640051e-4,15.107442)">
</g>
<g
   id="g2544"
   transform="matrix(1.2800039,0,0,1.2800039,-1.6640051e-4,15.107442)">
</g>
<g
   id="g2546"
   transform="matrix(1.2800039,0,0,1.2800039,-1.6640051e-4,15.107442)">
</g>
<g
   id="g2548"
   transform="matrix(1.2800039,0,0,1.2800039,-1.6640051e-4,15.107442)">
</g>
<g
   id="g2550"
   transform="matrix(1.2800039,0,0,1.2800039,-1.6640051e-4,15.107442)">
</g>
</svg>
