<?xml version="1.0" encoding="UTF-8" standalone="no"?>
<!-- Generator: Adobe Illustrator 23.0.3, SVG Export Plug-In . SVG Version: 6.00 Build 0)  -->

<svg
   xmlns:dc="http://purl.org/dc/elements/1.1/"
   xmlns:cc="http://creativecommons.org/ns#"
   xmlns:rdf="http://www.w3.org/1999/02/22-rdf-syntax-ns#"
   xmlns:svg="http://www.w3.org/2000/svg"
   xmlns="http://www.w3.org/2000/svg"
   xmlns:sodipodi="http://sodipodi.sourceforge.net/DTD/sodipodi-0.dtd"
   xmlns:inkscape="http://www.inkscape.org/namespaces/inkscape"
   version="1.0"
   id="Layer_1"
   x="0px"
   y="0px"
   viewBox="0 0 35.838387 35.838386"
   enable-background="new 0 0 28 27.99998"
   xml:space="preserve"
   sodipodi:docname="Knob-WL.svg"
   width="9.4822397mm"
   height="9.4822397mm"
   inkscape:version="0.92.3 (2405546, 2018-03-11)"><metadata
   id="metadata57"><rdf:RDF><cc:Work
       rdf:about=""><dc:format>image/svg+xml</dc:format><dc:type
         rdf:resource="http://purl.org/dc/dcmitype/StillImage" /><dc:title>Knob</dc:title></cc:Work></rdf:RDF></metadata><defs
   id="defs55" /><sodipodi:namedview
   pagecolor="#ffffff"
   bordercolor="#666666"
   borderopacity="1"
   objecttolerance="10"
   gridtolerance="10"
   guidetolerance="10"
   inkscape:pageopacity="0"
   inkscape:pageshadow="2"
   inkscape:window-width="1920"
   inkscape:window-height="1017"
   id="namedview53"
   showgrid="false"
   inkscape:document-units="mm"
   units="mm"
   fit-margin-top="0"
   fit-margin-left="0"
   fit-margin-right="0"
   fit-margin-bottom="0"
   inkscape:zoom="8.4285772"
   inkscape:cx="14"
   inkscape:cy="14.000011"
   inkscape:window-x="-8"
   inkscape:window-y="-8"
   inkscape:window-maximized="1"
   inkscape:current-layer="Layer_1" />
<title
   id="title2">Knob</title>
<g
   id="g50"
   transform="scale(1.2799424)">
	<g
   id="g16">
		<circle
   cx="13.99993"
   cy="14.00007"
   r="12.94678"
   id="circle4"
   style="fill:#383838" />
		<path
   d="m 14.18633,12.94299 2.106,-11.9437 c 0.05181,-0.29382 0.33878,-0.49518 0.63031,-0.43175 1.85868,0.40442 3.61543,1.19075 5.15748,2.31112 1.54205,1.12037 2.83276,2.54815 3.79175,4.19088 0.15041,0.25766 0.04758,0.59281 -0.21584,0.73288 l -10.70834,5.69373 c -0.38513,0.20477 -0.83711,-0.1236 -0.76136,-0.55316 z"
   id="path6"
   inkscape:connector-curvature="0"
   style="fill:#595959" />
		<path
   d="m 15.06288,13.85069 12.01323,-1.68835 c 0.2934,-0.04124 0.57207,0.1681 0.60171,0.4629 0.04592,0.45673 0.06894,0.91558 0.06894,1.37483 0,3.37893 -1.24579,6.63565 -3.48625,9.14844 -0.19883,0.223 -0.54998,0.22896 -0.76489,0.02143 l -8.72355,-8.42423 c -0.31377,-0.303 -0.14113,-0.83432 0.29081,-0.89502 z"
   id="path8"
   inkscape:connector-curvature="0"
   style="fill:#595959" />
		<path
   d="m 14.47048,14.96483 5.31654,10.90053 c 0.13079,0.26815 0.01698,0.59974 -0.25616,0.71978 -1.74141,0.76532 -3.62484,1.16176 -5.53093,1.16176 -1.90609,0 -3.78952,-0.39644 -5.53093,-1.16176 C 8.19587,26.4651 8.08206,26.13352 8.21284,25.86536 l 5.31654,-10.90053 c 0.19122,-0.39204 0.74989,-0.39204 0.9411,0 z"
   id="path10"
   inkscape:connector-curvature="0"
   style="fill:#595959" />
		<path
   d="M 13.2278,14.74571 4.50425,23.16994 C 4.28934,23.37748 3.93819,23.37151 3.73936,23.14851 1.4989,20.63572 0.25311,17.37899 0.25311,14.00007 c 0,-0.45926 0.02301,-0.91811 0.06894,-1.37483 0.02964,-0.2948 0.30831,-0.50414 0.60171,-0.4629 l 12.01323,1.68835 c 0.43194,0.0607 0.60457,0.59202 0.29081,0.89502 z"
   id="path12"
   inkscape:connector-curvature="0"
   style="fill:#595959" />
		<path
   d="M 13.05219,13.49615 2.34384,7.80242 C 2.08042,7.66235 1.97759,7.3272 2.128,7.06954 3.08699,5.42681 4.3777,3.99903 5.91976,2.87866 c 1.54206,-1.12037 3.2988,-1.9067 5.15748,-2.31112 0.29153,-0.06343 0.5785,0.13793 0.63031,0.43175 l 2.106,11.9437 c 0.07573,0.42956 -0.37624,0.75793 -0.76136,0.55316 z"
   id="path14"
   inkscape:connector-curvature="0"
   style="fill:#595959" />
	</g>
	<path
   d="M 13.99993,14.01739 15.99108,2.72502 c 1.7154,0.30247 3.33954,0.99188 4.74873,2.01572 1.4092,1.02384 2.56675,2.35545 3.3845,3.89342 z"
   id="path18"
   inkscape:connector-curvature="0"
   style="fill:#424242" />
	<path
   d="m 13.99993,14.01739 11.35498,-1.59584 c 0.0743,0.5287 0.11159,1.06194 0.11159,1.59584 0,2.97079 -1.15452,5.82834 -3.21821,7.96535 z"
   id="path20"
   inkscape:connector-curvature="0"
   style="fill:#424242" />
	<path
   d="m 13.99993,14.01739 5.02661,10.30609 c -1.56557,0.76358 -3.28475,1.16048 -5.02661,1.16048 -1.74186,0 -3.46104,-0.3969 -5.02662,-1.16048 z"
   id="path22"
   inkscape:connector-curvature="0"
   style="fill:#424242" />
	<path
   d="M 13.99993,14.01739 5.75157,21.98274 C 3.68788,19.84573 2.53336,16.98818 2.53336,14.01739 c 0,-0.5339 0.03729,-1.06714 0.11159,-1.59584 z"
   id="path24"
   inkscape:connector-curvature="0"
   style="fill:#424242" />
	<path
   d="M 13.99993,14.01739 3.87555,8.63416 C 4.6933,7.09619 5.85086,5.76458 7.26005,4.74074 8.66924,3.7169 10.29338,3.02749 12.00878,2.72502 Z"
   id="path26"
   inkscape:connector-curvature="0"
   style="fill:#424242" />
	<circle
   cx="13.99993"
   cy="14.01739"
   r="10.36684"
   id="circle28"
   style="fill:#424242" />
	<g
   id="g34">
		<path
   d="m 13.99975,11.19595 c -0.04648,0 -0.19877,-0.01384 -0.23042,-0.19333 L 11.99622,0.94639 c -0.01187,-0.06527 0.004,-0.13301 0.04252,-0.18641 0.03758,-0.05093 0.09098,-0.08307 0.15031,-0.09147 0.59928,-0.08109 1.20845,-0.12213 1.81069,-0.12213 0.60225,0 1.21141,0.04104 1.81069,0.12262 0.05933,0.00791 0.11274,0.04005 0.15031,0.09098 0.03857,0.0539 0.05538,0.12164 0.04351,0.1869 l -1.77311,10.05523 c -0.03163,0.17999 -0.18491,0.19384 -0.23139,0.19384 z"
   id="path30"
   inkscape:connector-curvature="0"
   style="fill:#fcfcfc" />
		<path
   d="m 13.99994,0.83957 c 0.56831,0 1.14177,0.03734 1.70561,0.11102 L 13.99966,10.62478 12.27981,0.9525 c 0.5685,-0.07495 1.14695,-0.11293 1.72013,-0.11293 m 0,-0.58632 c -0.61907,0 -1.23723,0.04182 -1.85026,0.12511 -0.29472,0.04005 -0.49416,0.32586 -0.4425,0.61877 l 1.7731,10.05575 c 0.05126,0.2907 0.28546,0.43606 0.51967,0.43606 0.2342,0 0.46841,-0.14535 0.51967,-0.43606 L 16.29272,0.99713 C 16.34437,0.70422 16.14493,0.41841 15.85022,0.37836 15.23716,0.29507 14.619,0.25325 13.99994,0.25325 Z"
   id="path32"
   inkscape:connector-curvature="0"
   style="fill:#b2b2b2" />
	</g>
	<g
   id="g40">
		<path
   d="m 12.41057,7.58099 c -0.2314,0 -0.4193,-0.1874 -0.4193,-0.41831 V 0.96469 c 0,-0.23091 0.18789,-0.41831 0.4193,-0.41831 h 3.17935 c 0.23042,0 0.41831,0.1874 0.41831,0.41831 v 6.19799 c 0,0.23091 -0.18789,0.41831 -0.41831,0.41831 z"
   id="path36"
   inkscape:connector-curvature="0"
   style="fill:#fcfcfc" />
		<path
   d="m 15.58945,0.83957 c 0.06897,0 0.12508,0.05611 0.12508,0.12508 V 7.1628 c 0,0.06897 -0.05611,0.12508 -0.12508,0.12508 h -3.17903 c -0.06897,0 -0.12508,-0.05611 -0.12508,-0.12508 V 0.96465 c 0,-0.06897 0.05611,-0.12508 0.12508,-0.12508 h 3.17903 m 0,-0.58632 h -3.17903 c -0.3929,0 -0.7114,0.31851 -0.7114,0.7114 V 7.1628 c 0,0.39289 0.31851,0.7114 0.7114,0.7114 h 3.17903 c 0.3929,0 0.7114,-0.31851 0.7114,-0.7114 V 0.96465 c 0,-0.3929 -0.3185,-0.7114 -0.7114,-0.7114 z"
   id="path38"
   inkscape:connector-curvature="0"
   style="fill:#b2b2b2" />
	</g>
	<rect
   x="12.29432"
   y="2.15909"
   width="3.4112201"
   height="4.1581702"
   id="rect42"
   style="opacity:0.36000001;fill:#969696" />
	<circle
   stroke-miterlimit="10"
   cx="13.99993"
   cy="14.00968"
   r="8.9462004"
   id="circle44"
   style="fill:#f3f3f3;stroke:#b2b2b2;stroke-width:0.57857001;stroke-miterlimit:10" />
	<g
   id="g48">
		<path
   d="m 14,0.25316 c 0.61906,0 1.23713,0.04191 1.85025,0.1251 0.29269,0.03978 0.4915,0.32209 0.44355,0.61284 -5.3e-4,0.00273 -0.001,0.00545 -0.0015,0.00819 L 16.24632,1.26086 16.2928,0.99707 c 3.5e-4,-0.00198 6.9e-4,-0.00398 0.001,-0.00597 0.04874,-0.25292 0.27211,-0.43532 0.52043,-0.43529 0.03578,0 0.07212,0.00379 0.10849,0.0117 1.85866,0.40446 3.61521,1.19077 5.15741,2.31121 1.5422,1.12031 2.83273,2.54804 3.79172,4.19075 0.15056,0.25773 0.04771,0.59285 -0.21583,0.7329 L 25.42958,7.9229 c 0.69644,1.30733 1.16493,2.7509 1.37755,4.27715 l 0.26898,-0.0377 c 0.02486,-0.0035 0.04961,-0.0052 0.07412,-0.0052 0.26476,0 0.50048,0.19828 0.52764,0.468 0.04598,0.45675 0.06898,0.91561 0.06898,1.37484 0,3.37898 -1.24578,6.63571 -3.48641,9.14853 -0.10254,0.11504 -0.2456,0.17232 -0.38959,0.17232 -0.13513,0 -0.27107,-0.05045 -0.37508,-0.15093 l -0.18889,-0.18246 c -1.04305,1.07989 -2.27325,1.97165 -3.63671,2.63817 l 0.11693,0.23981 c 0.13078,0.26799 0.01706,0.59965 -0.25637,0.71968 -1.74122,0.76542 -3.62461,1.16173 -5.53073,1.16173 -1.90612,0 -3.78951,-0.39631 -5.53097,-1.16173 C 8.19584,26.46508 8.08212,26.13342 8.2129,25.86543 L 8.32983,25.62562 C 6.96613,24.9591 5.73618,24.06734 4.69312,22.98745 L 4.50423,23.16991 C 4.40021,23.2704 4.26424,23.32084 4.12903,23.32084 3.985,23.32084 3.84184,23.26355 3.73931,23.14852 1.49895,20.63571 0.25316,17.37898 0.25316,14 c 0,-0.45922 0.023,-0.91808 0.06898,-1.37484 0.02716,-0.26974 0.26285,-0.46803 0.52764,-0.468 0.02449,0 0.04927,0.0017 0.07412,0.0052 l 0.26874,0.03783 C 1.4055,10.67392 1.87375,9.23024 2.57043,7.9229 L 2.34397,7.80238 C 2.08043,7.66233 1.97759,7.32721 2.12789,7.06948 3.08714,5.42677 4.37766,3.99903 5.91987,2.87873 7.46183,1.75829 9.21863,0.97198 11.07728,0.56752 11.11368,0.5596 11.15,0.5558 11.1858,0.5558 c 0.25091,0 0.47622,0.18622 0.52165,0.44325 L 11.70721,0.99706 C 11.65554,0.70422 11.85506,0.4183 12.14975,0.37825 12.76263,0.29507 13.38094,0.25316 14,0.25316 M 14,0 C 13.37249,0 12.73852,0.04286 12.11569,0.1274 11.9112,0.1552 11.73033,0.26202 11.60509,0.42863 11.48227,0.34887 11.33751,0.30265 11.1858,0.30265 c -0.05438,0 -0.109,0.00589 -0.16235,0.0175 C 9.11659,0.73509 7.34943,1.52702 5.77105,2.67392 4.19278,3.82044 2.89348,5.25636 1.90927,6.94182 1.80309,7.12389 1.77684,7.3372 1.83527,7.54259 1.89409,7.74935 2.03621,7.92552 2.22517,8.02593 L 2.23011,8.02856 C 1.61648,9.23735 1.19638,10.54232 0.97922,11.91448 L 0.95919,11.91166 C 0.9225,11.90651 0.88591,11.904 0.84978,11.904 0.45196,11.90397 0.10955,12.20961 0.07026,12.5998 0.02364,13.06285 0,13.53394 0,14 c 0,3.44026 1.26087,6.74911 3.55036,9.317 0.14557,0.16332 0.3565,0.257 0.57869,0.257 0.20718,0 0.40289,-0.07884 0.55109,-0.22201 l 0.00854,-0.0083 c 0.9666,0.96287 2.07603,1.76751 3.30379,2.39616 l -0.00711,0.01459 c -0.0938,0.1922 -0.10517,0.41825 -0.03116,0.62011 0.07351,0.2005 0.22018,0.35757 0.41301,0.44229 C 10.15333,27.60194 12.04848,28 14,28 c 1.9516,0 3.84668,-0.39806 5.63261,-1.18313 0.19284,-0.08465 0.33961,-0.24173 0.41317,-0.44226 0.07403,-0.20185 0.06268,-0.4279 -0.03117,-0.6202 l -0.0071,-0.01452 c 1.22792,-0.62883 2.33738,-1.43346 3.30379,-2.39615 l 0.0086,0.0083 c 0.14818,0.14316 0.34385,0.222 0.55097,0.222 0.2221,0 0.43299,-0.09368 0.57857,-0.25703 C 26.73904,20.74922 28,17.44037 28,14 28,13.53394 27.97637,13.06285 27.92974,12.59981 27.89046,12.20964 27.54804,11.904 27.15022,11.904 c -0.03615,0 -0.07267,0.0025 -0.10935,0.0077 L 27.0206,11.9145 C 26.80372,10.54299 26.38372,9.23812 25.76986,8.02858 l 0.0051,-0.00272 C 25.96387,7.92548 26.10598,7.74924 26.16474,7.54242 26.2231,7.337 26.19672,7.12369 26.09045,6.94178 25.10659,5.25648 23.80737,3.82054 22.22892,2.6739 20.65021,1.52693 18.88304,0.73501 16.97655,0.32014 16.92323,0.30855 16.86865,0.30266 16.8143,0.30264 16.66092,0.30263 16.51608,0.34789 16.3936,0.42689 16.26839,0.2613 16.08789,0.15507 15.88434,0.1274 15.26123,0.04286 14.62726,0 14,0 Z"
   id="path46"
   inkscape:connector-curvature="0"
   style="fill:#141414" />
	</g>
</g>
</svg>