<?xml version="1.0" encoding="utf-8"?>
<!-- Generator: Adobe Illustrator 25.2.3, SVG Export Plug-In . SVG Version: 6.00 Build 0)  -->
<svg version="1.0"
	 id="Layer_1" xmlns:cc="http://creativecommons.org/ns#" xmlns:dc="http://purl.org/dc/elements/1.1/" xmlns:inkscape="http://www.inkscape.org/namespaces/inkscape" xmlns:rdf="http://www.w3.org/1999/02/22-rdf-syntax-ns#" xmlns:sodipodi="http://sodipodi.sourceforge.net/DTD/sodipodi-0.dtd" xmlns:svg="http://www.w3.org/2000/svg"
	 xmlns="http://www.w3.org/2000/svg" xmlns:xlink="http://www.w3.org/1999/xlink" x="0px" y="0px" width="26.87879px"
	 height="26.87882px" viewBox="0 0 26.87879 26.87882" enable-background="new 0 0 26.87879 26.87882" xml:space="preserve">
<sodipodi:namedview  bordercolor="#666666" borderopacity="1" fit-margin-bottom="0" fit-margin-left="0" fit-margin-right="0" fit-margin-top="0" gridtolerance="10" guidetolerance="10" id="namedview55" inkscape:current-layer="Layer_1" inkscape:cx="14" inkscape:cy="13.999929" inkscape:document-units="mm" inkscape:pageopacity="0" inkscape:pageshadow="2" inkscape:window-height="1017" inkscape:window-maximized="1" inkscape:window-width="1920" inkscape:window-x="-8" inkscape:window-y="-8" inkscape:zoom="8.4285892" objecttolerance="10" pagecolor="#ffffff" showgrid="false" units="mm">
	</sodipodi:namedview>
<g>
	<g opacity="0.32">
		<g>
			<path d="M23.09073,8.88574c0.03386,0.07225,0.05578,0.15067,0.08799,0.2238c0.10655,0.24099,0.20149,0.48772,0.29012,0.73776
				c0.05826,0.16505,0.11413,0.33035,0.16442,0.499c0.08658,0.2891,0.16184,0.58276,0.22457,0.88148
				c0.01336,0.06399,0.03581,0.12434,0.04805,0.18871c0.05738,0.30226,0.35085,0.50045,0.65549,0.45765l0.33433-0.04698
				c0.00024,0.00165,0.00029,0.0034,0.00053,0.00505l0.85976-0.12084c-0.20397-1.47425-0.65534-2.86842-1.32687-4.13161
				l-0.78528,0.41756c0.00151,0.00282,0.00345,0.0053,0.00496,0.00811L23.2879,8.19735
				C23.07008,8.35303,22.9747,8.63799,23.09073,8.88574z"/>
		</g>
		<g>
			<path d="M2.21901,11.87404c0.30469,0.04285,0.59816-0.15533,0.65555-0.4576c0.01224-0.06443,0.03474-0.12477,0.0481-0.18876
				c0.06253-0.29794,0.13765-0.59078,0.22394-0.87915c0.05068-0.1701,0.10694-0.33681,0.16573-0.50327
				c0.08848-0.2494,0.18313-0.49559,0.28944-0.73601C3.63398,9.03618,3.6559,8.9579,3.68971,8.8857
				c0.11603-0.2478,0.0207-0.53271-0.19717-0.68844L3.13169,8.00539c0.00151-0.00282,0.00345-0.0053,0.00496-0.00811
				L2.35137,7.57971c-0.67153,1.26318-1.12292,2.65736-1.32689,4.13165l0.85976,0.12084
				c0.00024-0.0017,0.00029-0.0034,0.00053-0.0051L2.21901,11.87404z"/>
		</g>
		<g>
			<path d="M8.44856,23.57596c0.13012-0.2668,0.03858-0.59107-0.21374-0.74276c-0.79232-0.43564-1.5223-0.96525-2.17619-1.57935
				c-0.20455-0.18604-0.50998-0.18085-0.72512-0.01361L5.03255,21.5309c-0.0018-0.00185-0.0033-0.00398-0.0051-0.00583
				l-0.61512,0.59398c1.00678,1.0407,2.19407,1.89988,3.50948,2.54202l0.37724-0.77342
				c-0.00068-0.00034-0.00141-0.00053-0.00209-0.00088L8.44856,23.57596z"/>
		</g>
		<g>
			<path d="M20.72181,21.25388c-0.65384,0.61405-1.38383,1.1437-2.1761,1.57929c-0.25237,0.15164-0.344,0.47601-0.21388,0.74281
				l0.15159,0.31082c-0.00068,0.00034-0.00141,0.00053-0.00209,0.00088l0.37723,0.77342
				c1.31542-0.64213,2.50275-1.50131,3.50954-2.542c-0.17404-0.16802-0.37587-0.36295-0.61512-0.59399
				c-0.0018,0.0019-0.0033,0.00394-0.0051,0.00583l-0.3009-0.2906C21.23193,21.07304,20.92637,21.06779,20.72181,21.25388z"/>
		</g>
	</g>
	<g opacity="0.4">
		<path opacity="0.4" d="M1.8842,11.83222c-0.07473,0.53398-0.11253,1.07262-0.11253,1.61185
			c-0.00001,3.0102,1.16979,5.90559,3.26085,8.07096l-0.74548,0.70918c-0.23176,0.22379-0.6091,0.21772-0.8224-0.02371
			c-2.13256-2.41442-3.31751-5.53269-3.3175-8.76717c0-0.4213,0.02007-0.84232,0.0602-1.26153
			c0.03061-0.31971,0.33049-0.54472,0.64855-0.50001L1.8842,11.83222z"/>
		<path opacity="0.4" d="M18.48338,23.88681c-1.58629,0.77366-3.32826,1.17582-5.09321,1.17581
			c-1.76417,0-3.50526-0.40192-5.09111-1.17496l-0.45624,0.91947c-0.14129,0.28973-0.0189,0.64704,0.27685,0.77536
			c1.66146,0.72075,3.45531,1.09396,5.27055,1.09396c1.81519,0,3.60905-0.3732,5.27055-1.09394
			c0.29571-0.12832,0.4181-0.48563,0.27681-0.77536l-0.45415-0.92035c-0.00068,0.00034-0.00141,0.00053-0.00209,0.00087"/>
		<path opacity="0.4" d="M21.74785,21.51506c2.09102-2.16535,3.26088-5.06074,3.26088-8.07094
			c0-0.54093-0.0378-1.08127-0.11306-1.61695l1.02889-0.15538c0.31806-0.04465,0.61799,0.18036,0.64855,0.50007
			c0.04013,0.41921,0.06025,0.84018,0.06025,1.26153c-0.00001,3.23448-1.18502,6.35274-3.31758,8.76711
			c-0.21325,0.24148-0.58966,0.24848-0.82137,0.02468L21.74785,21.51506z"/>
		<g>
			<path opacity="0.4" d="M24.79627,6.70422c-0.92054-1.56038-2.15281-2.91739-3.62189-3.98472s-3.14038-1.82001-4.90891-2.21326
				c-0.11948-0.02662-0.23301-0.00209-0.33615,0.04447c-0.0012,0.02077,0.00261,0.04113-0.00282,0.06201l-0.31631,1.21723V1.82682
				h-0.01023l0,0.22048c1.66634,0.32321,3.24503,0.99864,4.61948,1.99727c1.4279,1.03736,2.60071,2.38666,3.42933,3.94505
				l0.91637-0.49796C24.84915,7.34071,24.95975,6.98117,24.79627,6.70422z"/>
		</g>
		<g>
			<path opacity="0.4" d="M11.17037,1.82995l-0.31626-1.21723c-0.00543-0.02088-0.00162-0.04124-0.00282-0.06201
				c-0.10314-0.04656-0.21672-0.0712-0.3362-0.04447C8.74655,0.89948,7.07526,1.65206,5.60612,2.71948
				c-1.46903,1.06732-2.7013,2.42434-3.6219,3.98461C1.8208,6.98115,1.9314,7.34058,2.21541,7.49153L3.13167,7.9896
				c0.82858-1.55839,2.00149-2.90758,3.42934-3.94504C7.93546,3.04592,9.51427,2.3705,11.18055,2.0473V1.82682l-0.01018,0V1.82995z"
				/>
		</g>
	</g>
	<path fill="#333333" d="M10.84465,0.55441c-0.00946-0.14268,0.08097-0.27472,0.21757-0.32106
		C4.75913,1.33741-0.03564,6.82477-0.03565,13.44407c-0.00001,7.41499,6.01099,13.42589,13.42587,13.4259
		s13.42589-6.01088,13.4259-13.42587c0.00001-6.6193-4.79469-12.10646-11.09768-13.21074
		c0.1309,0.04443,0.21937,0.16759,0.21816,0.30339c0.10314-0.04656,0.20938-0.05713,0.32886-0.03051
		c1.76854,0.39325,3.43983,1.14594,4.90891,2.21326s2.70135,2.42434,3.62189,3.98472
		c0.16348,0.27696,0.05287,0.63649-0.23113,0.78744l-0.13603,0.08811c0.66942,1.2592,1.11946,2.64879,1.32439,4.11792
		l0.17105-0.02589c0.31809-0.04468,0.61801,0.18039,0.64855,0.50005c0.04014,0.41925,0.06029,0.84016,0.06029,1.2615
		c0,3.23454-1.18503,6.35278-3.31759,8.7672c-0.21328,0.24136-0.58967,0.24846-0.82137,0.02464l-0.12632-0.10606
		c-1.00531,1.03913-2.19092,1.89725-3.50404,2.53906l0.07355,0.14897c0.14124,0.28969,0.01889,0.64703-0.27685,0.77533
		c-1.66148,0.72073-3.45533,1.09404-5.27053,1.09404c-1.81525,0-3.6091-0.37332-5.27053-1.09405
		c-0.29575-0.1283-0.41815-0.48564-0.27685-0.77533l0.07386-0.14887c-1.31338-0.64192-2.49893-1.49983-3.50434-2.53918
		l-0.12533,0.10512c-0.23175,0.22372-0.60909,0.21766-0.82236-0.0237c-2.13256-2.41442-3.31753-5.53267-3.31752-8.76721
		c0-0.42133,0.0201-0.84225,0.06018-1.2615c0.03064-0.31965,0.33051-0.54473,0.64855-0.50005l0.17094,0.02672
		c0.20482-1.46945,0.65502-2.85935,1.32455-4.11875L2.21541,7.49153C1.9314,7.34058,1.8208,6.98115,1.98423,6.70409
		c0.9206-1.56027,2.15287-2.91728,3.6219-3.98461c1.46914-1.06743,3.14043-1.82,4.90897-2.21325
		C10.63457,0.47951,10.74151,0.50785,10.84465,0.55441z"/>
	<g>
		<path fill="#424242" d="M24.8957,11.82714l-0.33432,0.04698c-0.30467,0.0428-0.59813-0.15534-0.65554-0.45766
			c-0.16839-0.88693-0.44279-1.73586-0.81511-2.53072c-0.12705-0.27122-0.00882-0.59484,0.25561-0.73535l0.30248-0.16077
			c-0.82862-1.55839-2.00149-2.90779-3.42939-3.94505c-1.37163-0.99655-2.94683-1.67093-4.6093-1.99487l0,0.96658l-4.43977,0
			l0-0.96648C9.5079,2.37373,7.9327,3.04801,6.56107,4.04456c-1.4279,1.03736-2.60082,2.38665-3.4294,3.94494L3.4341,8.15036
			C3.69848,8.29088,3.81675,8.6145,3.68971,8.88571c-0.37232,0.79485-0.64672,1.64378-0.81516,2.53071
			c-0.05736,0.30232-0.35087,0.50046-0.65549,0.45766l-0.33427-0.04698c-0.07527,0.53564-0.11311,1.07599-0.11311,1.61696
			c0,3.0102,1.16983,5.90556,3.26089,8.07101l0.24976-0.24136c0.21662-0.2091,0.56284-0.22163,0.78269-0.01587
			c0.64776,0.60611,1.37132,1.1308,2.15443,1.56236c0.2661,0.14657,0.3623,0.48272,0.22909,0.75581L8.29696,23.8867
			c1.58632,0.77377,3.32829,1.1759,5.09322,1.1759c1.76499,0,3.50696-0.40212,5.09322-1.17578l-0.15158-0.31078
			c-0.13315-0.2731-0.03695-0.60924,0.22915-0.75581c0.78311-0.43156,1.50661-0.95614,2.15438-1.56236
			c0.21985-0.20576,0.56613-0.19323,0.78269,0.01587l0.24981,0.24136c2.09106-2.16533,3.2609-5.0608,3.26091-8.071
			C25.00876,12.90323,24.97097,12.36289,24.8957,11.82714z"/>
	</g>
	<g>
		<rect x="11.17033" y="2.57877" fill="#E3E3E3" width="4.4398" height="8.52784"/>
		<path opacity="0.58" fill="#FFFFFF" d="M15.92647,0.61266c0.04664-0.17952-0.06892-0.36543-0.25169-0.39699
			c-0.74259-0.12821-1.50533-0.19737-2.28453-0.19737c-0.7792,0-1.54189,0.06915-2.28447,0.19736
			c-0.18277,0.03156-0.29834,0.21748-0.25169,0.39699l0.31628,1.2173V1.82682l4.43982,0v0.00313L15.92647,0.61266z"/>
		<rect x="11.17034" y="1.82999" opacity="0.81" fill="#FFFFFF" width="4.4398" height="0.74878"/>
	</g>
</g>
</svg>
