<?xml version="1.0" encoding="utf-8"?>
<!-- Generator: Adobe Illustrator 23.0.3, SVG Export Plug-In . SVG Version: 6.00 Build 0)  -->
<svg version="1.0" id="Layer_1" xmlns="http://www.w3.org/2000/svg" xmlns:xlink="http://www.w3.org/1999/xlink" x="0px" y="0px"
	 viewBox="0 0 165 380" enable-background="new 0 0 165 380" xml:space="preserve">
<g id="bg">
	<g>
		<rect y="-0.00001" fill="#E5E5E5" width="165" height="380"/>
	</g>
	<g>
		<g>
			<g>
				<circle fill="#BCBCBC" cx="23.00036" cy="6.99999" r="5.73633"/>
				<path fill="#808080" d="M23.00005,1.52746c3.01758,0,5.47253,2.45496,5.47253,5.47253s-2.45496,5.47253-5.47253,5.47253
					s-5.47253-2.45495-5.47253-5.47253S19.98247,1.52746,23.00005,1.52746 M23.00005,0.99999c-3.31372,0-6,2.68628-6,6
					s2.68628,6,6,6s6-2.68628,6-6S26.31377,0.99999,23.00005,0.99999L23.00005,0.99999z"/>
			</g>
			<polygon fill="#6E6E6E" points="26.49455,6.34065 23.65938,6.34065 23.65938,3.50548 22.3407,3.50548 22.3407,6.34065 
				19.50554,6.34065 19.50554,7.65933 22.3407,7.65933 22.3407,10.4945 23.65938,10.4945 23.65938,7.65933 26.49455,7.65933 			"/>
		</g>
	</g>
	<g>
		<g>
			<g>
				<circle fill="#BCBCBC" cx="142.00035" cy="6.99999" r="5.73633"/>
				<path fill="#808080" d="M142.00005,1.52746c3.01758,0,5.47253,2.45496,5.47253,5.47253s-2.45496,5.47253-5.47253,5.47253
					s-5.47253-2.45495-5.47253-5.47253S138.98247,1.52746,142.00005,1.52746 M142.00005,0.99999c-3.31372,0-6,2.68628-6,6
					s2.68628,6,6,6s6-2.68628,6-6S145.31377,0.99999,142.00005,0.99999L142.00005,0.99999z"/>
			</g>
			<polygon fill="#6E6E6E" points="145.49455,6.34065 142.65938,6.34065 142.65938,3.50548 141.3407,3.50548 141.3407,6.34065 
				138.50554,6.34065 138.50554,7.65933 141.3407,7.65933 141.3407,10.4945 142.65938,10.4945 142.65938,7.65933 145.49455,7.65933 
							"/>
		</g>
	</g>
	<g>
		<g>
			<g>
				<circle fill="#BCBCBC" cx="23.00036" cy="373" r="5.73633"/>
				<path fill="#808080" d="M23.00005,367.52747c3.01758,0,5.47253,2.45496,5.47253,5.47253s-2.45496,5.47253-5.47253,5.47253
					S17.52752,376.01758,17.52752,373S19.98247,367.52747,23.00005,367.52747 M23.00005,367c-3.31372,0-6,2.68628-6,6s2.68628,6,6,6
					s6-2.68628,6-6S26.31377,367,23.00005,367L23.00005,367z"/>
			</g>
			<polygon fill="#6E6E6E" points="26.49455,372.34067 23.65938,372.34067 23.65938,369.50549 22.3407,369.50549 22.3407,372.34067 
				19.50554,372.34067 19.50554,373.65933 22.3407,373.65933 22.3407,376.49451 23.65938,376.49451 23.65938,373.65933 
				26.49455,373.65933 			"/>
		</g>
	</g>
	<g>
		<g>
			<g>
				<circle fill="#BCBCBC" cx="142.00035" cy="373" r="5.73633"/>
				<path fill="#808080" d="M142.00005,367.52747c3.01758,0,5.47253,2.45496,5.47253,5.47253s-2.45496,5.47253-5.47253,5.47253
					s-5.47253-2.45496-5.47253-5.47253S138.98247,367.52747,142.00005,367.52747 M142.00005,367c-3.31372,0-6,2.68628-6,6
					s2.68628,6,6,6s6-2.68628,6-6S145.31377,367,142.00005,367L142.00005,367z"/>
			</g>
			<polygon fill="#6E6E6E" points="145.49455,372.34067 142.65938,372.34067 142.65938,369.50549 141.3407,369.50549 
				141.3407,372.34067 138.50554,372.34067 138.50554,373.65933 141.3407,373.65933 141.3407,376.49451 142.65938,376.49451 
				142.65938,373.65933 145.49455,373.65933 			"/>
		</g>
	</g>
</g>
<g id="serigraphy">
	<g>
		<g>
			<path fill="#FF4257" d="M146.84514,215.49023c-0.16992-0.4209,0.03027-0.90039,0.4502-1.08008l0,0
				c0.41992-0.18066,0.91016,0.01953,1.08984,0.44922l0,0c0.16992,0.4209-0.0293,0.90039-0.4502,1.08008l0,0
				C147.83537,215.97949,147.72502,216,147.61565,216l0,0C147.29533,216,146.98576,215.80957,146.84514,215.49023z
				 M144.84514,211.46973c-0.22949-0.38965-0.09961-0.90039,0.30078-1.12988l0,0c0.38965-0.23047,0.89941-0.09961,1.12988,0.2998
				l0,0c0.22949,0.39063,0.09961,0.90039-0.30078,1.12988l0,0c-0.12988,0.08008-0.26953,0.11035-0.40918,0.11035l0,0
				C145.2758,211.87988,145.00529,211.72949,144.84514,211.46973z M142.33537,207.74023L142.33537,207.74023L142.33537,207.74023
				c-0.28027-0.36035-0.21973-0.88086,0.13965-1.16016l0,0c0.37012-0.28027,0.88086-0.20996,1.1709,0.14941l0,0
				c0.2793,0.36035,0.20996,0.87988-0.15039,1.16016l0,0c-0.15039,0.12012-0.33008,0.17969-0.50977,0.17969l0,0
				C142.73576,208.06934,142.49553,207.95996,142.33537,207.74023z M89.69573,205.01953
				c-0.33008-0.31934-0.33984-0.83984-0.02051-1.16992l0,0c0.31055-0.33008,0.83984-0.33984,1.16992-0.01953l0,0
				c0.33008,0.31934,0.33984,0.83984,0.02051,1.16992l0,0c-0.16016,0.16992-0.37988,0.25-0.60059,0.25l0,0
				C90.06585,205.25,89.85589,205.17969,89.69573,205.01953z M93.02581,201.83984c-0.29004-0.36035-0.23047-0.87988,0.12988-1.16016
				l0,0c0.35938-0.29004,0.87988-0.22949,1.16992,0.12988l0,0c0.28027,0.35059,0.21973,0.87988-0.14063,1.16016l0,0l0,0l0,0
				c-0.14941,0.12012-0.3291,0.17969-0.50977,0.17969l0,0C93.42522,202.14941,93.18499,202.0498,93.02581,201.83984z
				 M96.74554,199.12012c-0.24023-0.39063-0.11035-0.90039,0.28027-1.14063l0,0c0.38965-0.22949,0.89941-0.09961,1.13965,0.29004
				l0,0c0.23047,0.39063,0.09961,0.90039-0.29004,1.12988l0,0l0,0l0,0c-0.12988,0.08008-0.28027,0.12012-0.41992,0.12012l0,0
				C97.17522,199.51953,96.89593,199.37988,96.74554,199.12012z M100.78558,196.91992
				c-0.17969-0.41992,0.00977-0.91016,0.42969-1.08984l0,0c0.41992-0.19043,0.91016,0.00977,1.08984,0.42969l0,0
				c0.18066,0.41992-0.00977,0.90039-0.42969,1.08984l0,0c-0.11035,0.04004-0.21973,0.07031-0.33008,0.07031l0,0
				C101.22503,197.41992,100.91546,197.22949,100.78558,196.91992z M119.47503,194.79004
				c-0.45996-0.06055-0.7793-0.4707-0.72949-0.91992l0,0c0.05957-0.45996,0.46973-0.78027,0.91992-0.73047l0,0
				c0.45996,0.06055,0.78027,0.46973,0.73047,0.91992l0,0c-0.05078,0.41992-0.41016,0.73047-0.82031,0.73047l0,0
				C119.53558,194.79004,119.5053,194.79004,119.47503,194.79004z M114.14593,193.72949
				c-0.01074-0.45996,0.35938-0.83008,0.81934-0.83008v-0.00977c0.45996,0,0.83008,0.36035,0.83984,0.82031l0,0
				c0,0.45996-0.37012,0.83008-0.81934,0.83984l0,0l0,0l0,0h-0.01074l0,0
				C114.52581,194.5498,114.15569,194.18945,114.14593,193.72949z"/>
		</g>
	</g>
	<g>
		<g>
			<path fill="#FF4257" d="M18.03848,173.28906c0.16992,0.4209-0.03027,0.90039-0.4502,1.08008l0,0
				c-0.41992,0.18066-0.91016-0.01953-1.08984-0.44922l0,0c-0.16992-0.4209,0.0293-0.90039,0.4502-1.08008l0,0
				c0.09961-0.04004,0.20996-0.06055,0.31934-0.06055l0,0C17.58829,172.7793,17.89786,172.96973,18.03848,173.28906z
				 M20.03848,177.30957c0.22949,0.38965,0.09961,0.90039-0.30078,1.12988l0,0c-0.38965,0.23047-0.89941,0.09961-1.12988-0.2998l0,0
				c-0.22949-0.39063-0.09961-0.90039,0.30078-1.12988l0,0c0.12988-0.08008,0.26953-0.11035,0.40918-0.11035l0,0
				C19.60782,176.89941,19.87833,177.0498,20.03848,177.30957z M22.54825,181.03906L22.54825,181.03906L22.54825,181.03906
				c0.28027,0.36035,0.21973,0.88086-0.13965,1.16016l0,0c-0.37012,0.28027-0.88086,0.20996-1.1709-0.14941l0,0
				c-0.2793-0.36035-0.20996-0.87988,0.15039-1.16016l0,0c0.15039-0.12012,0.33008-0.17969,0.50977-0.17969l0,0
				C22.14786,180.70996,22.38809,180.81934,22.54825,181.03906z M75.1879,183.75977
				c0.33008,0.31934,0.33984,0.83984,0.02051,1.16992l0,0c-0.31055,0.33008-0.83984,0.33984-1.16992,0.01953l0,0
				c-0.33008-0.31934-0.33984-0.83984-0.02051-1.16992l0,0c0.16016-0.16992,0.37988-0.25,0.60059-0.25l0,0
				C74.81778,183.5293,75.02774,183.59961,75.1879,183.75977z M71.85782,186.93945c0.29004,0.36035,0.23047,0.87988-0.12988,1.16016
				l0,0c-0.35938,0.29004-0.87988,0.22949-1.16992-0.12988l0,0c-0.28027-0.35059-0.21973-0.87988,0.14063-1.16016l0,0l0,0l0,0
				c0.14941-0.12012,0.3291-0.17969,0.50977-0.17969l0,0C71.4584,186.62988,71.69864,186.72949,71.85782,186.93945z
				 M68.13809,189.65918c0.24023,0.39063,0.11035,0.90039-0.28027,1.14063l0,0c-0.38965,0.22949-0.89941,0.09961-1.13965-0.29004
				l0,0c-0.23047-0.39063-0.09961-0.90039,0.29004-1.12988l0,0l0,0l0,0c0.12988-0.08008,0.28027-0.12012,0.41992-0.12012l0,0
				C67.7084,189.25977,67.9877,189.39941,68.13809,189.65918z M64.09805,191.85938c0.17969,0.41992-0.00977,0.91016-0.42969,1.08984
				l0,0c-0.41992,0.19043-0.91016-0.00977-1.08984-0.42969l0,0c-0.18066-0.41992,0.00977-0.90039,0.42969-1.08984l0,0
				c0.11035-0.04004,0.21973-0.07031,0.33008-0.07031l0,0C63.6586,191.35938,63.96817,191.5498,64.09805,191.85938z
				 M45.4086,193.98926c0.45996,0.06055,0.7793,0.4707,0.72949,0.91992l0,0c-0.05957,0.45996-0.46973,0.78027-0.91992,0.73047l0,0
				c-0.45996-0.06055-0.78027-0.46973-0.73047-0.91992l0,0c0.05078-0.41992,0.41016-0.73047,0.82031-0.73047l0,0
				C45.34805,193.98926,45.37833,193.98926,45.4086,193.98926z M50.7377,195.0498c0.01074,0.45996-0.35938,0.83008-0.81934,0.83008
				v0.00977c-0.45996,0-0.83008-0.36035-0.83984-0.82031l0,0c0-0.45996,0.37012-0.83008,0.81934-0.83984l0,0l0,0l0,0h0.01074l0,0
				C50.35782,194.22949,50.72794,194.58984,50.7377,195.0498z"/>
		</g>
	</g>
	<g>
		<path fill="#252626" d="M152.48535,144.2002c-0.14063-0.43848-0.16309-0.92676-0.05859-1.42383l0.0332-0.15137l0.79199,0.16895
			l-0.0332,0.15137c-0.0752,0.36328-0.06738,0.71387,0.02832,1.00781l0.00293,0.00586
			c0.02832,0.08789,0.0625,0.17383,0.10742,0.25293c0.07422,0.13281,0.16895,0.24023,0.27441,0.31445
			c0.12402,0.09668,0.32422,0.17969,0.54102,0.05859c0.11621-0.06543,0.17383-0.1748,0.18066-0.33789
			c0.00586-0.19824-0.05957-0.42773-0.11328-0.58496c-0.02539-0.07031-0.21582-0.67383-0.21875-1
			c0.00879-0.22168,0.06445-0.41992,0.16309-0.59375c0.10254-0.17578,0.24902-0.3125,0.43457-0.41797
			c0.20117-0.1123,0.43848-0.16113,0.69141-0.14453c0.21973,0.03125,0.43652,0.11914,0.63379,0.25977
			s0.36328,0.3252,0.49219,0.55371c0.0498,0.08984,0.09375,0.19141,0.13574,0.29297
			c0.13379,0.38477,0.16699,0.81836,0.08203,1.26465l-0.02832,0.14746l-0.79883-0.14453l0.02832-0.14746
			c0.08789-0.50293-0.01563-0.83594-0.12207-1.02734c-0.06836-0.12109-0.1582-0.21777-0.25293-0.29004
			c-0.15332-0.10938-0.33301-0.13281-0.46094-0.06152c-0.11719,0.06445-0.16602,0.15039-0.17969,0.28906
			c-0.0127,0.13867,0.02051,0.32227,0.10449,0.5957c0.0127,0.03516,0.02539,0.08301,0.03906,0.13184
			c0.08301,0.24609,0.18555,0.5791,0.17969,0.85449c0.00488,0.23438-0.0498,0.44629-0.15039,0.62793
			c-0.09961,0.18164-0.25293,0.33105-0.44434,0.4375c-0.23926,0.13379-0.48633,0.18848-0.7373,0.16309
			c-0.21777-0.02441-0.44238-0.11523-0.66992-0.27246c-0.19922-0.13281-0.3584-0.31641-0.50391-0.5752
			C152.58887,144.4834,152.53418,144.34668,152.48535,144.2002z"/>
		<path fill="#252626" d="M155.33301,146.36426l2.6377-0.59473l0.17773,0.78906l-2.63867,0.59375
			c-0.47363,0.10742-0.77832,0.58105-0.67285,1.0498c0.10742,0.47363,0.58398,0.76563,1.05762,0.6582l2.63867-0.59375
			l0.17871,0.79297l-2.63867,0.59473c-0.43848,0.09961-0.8916,0.02051-1.27051-0.21777
			c-0.37891-0.24512-0.64453-0.62109-0.74316-1.05957C153.85547,147.46973,154.4248,146.56836,155.33301,146.36426z"/>
		<path fill="#252626" d="M154.51953,151.10254l4.32129,0.22168l-0.0791,1.54688c-0.01563,0.29785-0.14453,0.57129-0.36816,0.77344
			c-0.22266,0.19531-0.50293,0.30176-0.7998,0.28711c-0.61328-0.03223-1.0791-0.56055-1.04785-1.17383l0.03809-0.74023
			l-2.10645-0.1084L154.51953,151.10254z M157.34082,152.79883c-0.00879,0.16992,0.12402,0.31055,0.29492,0.31836
			c0.16895,0.00879,0.32227-0.12305,0.33105-0.28711l0.03711-0.73926l-0.625-0.0332L157.34082,152.79883z"/>
		<path fill="#252626" d="M154.18457,154.71191l4.12695,1.29688l-0.85547,2.71875l-0.75293-0.23633l0.61133-1.94141
			l-0.60938-0.19141l-0.53223,1.69141l-0.77051-0.24219l0.53223-1.69238l-1.22852-0.38672l-0.59473,1.88867l-0.76465-0.23926
			L154.18457,154.71191z"/>
		<path fill="#252626" d="M151.46289,160.44727l2.60938-0.09668l0.19336-0.28613l-1.75293-1.17871l0.44043-0.65527l3.58594,2.41113
			l-0.86328,1.28418c-0.16309,0.24219-0.41113,0.4043-0.70508,0.46191c-0.29492,0.05762-0.58594,0.00195-0.82813-0.16211
			c-0.35742-0.23926-0.53711-0.66797-0.47852-1.08105l-2.73535,0.09766L151.46289,160.44727z M154.49707,161.13379
			c-0.09473,0.14063-0.05957,0.33887,0.08594,0.4375s0.34277,0.05566,0.43848-0.08496l0.42285-0.62988l-0.52441-0.35254
			L154.49707,161.13379z"/>
		<path fill="#252626" d="M148.37402,163.40527l3.27734,0.98535l-1.79004-2.19824l0.63086-0.51465l2.73047,3.35254l-0.61133,0.49902
			l-3.27148-0.98633l1.78809,2.19434l-0.63086,0.51367l-2.73047-3.35156L148.37402,163.40527z"/>
		<path fill="#252626" d="M147.93457,166.38379c0.43457,1.17285-0.16309,2.47754-1.33008,2.91113
			c-1.17285,0.43457-2.47656-0.16211-2.91211-1.33594c-0.43359-1.16699,0.16602-2.46582,1.33887-2.90039
			C146.19824,164.625,147.50098,165.21777,147.93457,166.38379z M147.1709,166.66797
			c-0.2793-0.75195-1.11426-1.13477-1.86035-0.85742c-0.74609,0.27637-1.12891,1.1123-0.84961,1.86328
			c0.28223,0.75781,1.11621,1.13965,1.8623,0.86328S147.45215,167.4248,147.1709,166.66797z"/>
		<path fill="#252626" d="M141.03809,165.98145l1.8623,4.24609l-0.87402,0.03906l-1.29395-2.96387l-1.03027,3.06836
			l-0.86719,0.03906l1.46875-4.39551L141.03809,165.98145z"/>
		<path fill="#252626" d="M135.82227,165.44727l0.18945,1.23535l1.40332,0.30078l0.68457-1.04688l0.85059,0.18262l-2.53809,3.88379
			l-0.71875-0.1543l-0.72754-4.58496L135.82227,165.44727z M136.15234,167.53418l0.17188,1.11328l0.61328-0.94531
			L136.15234,167.53418z"/>
	</g>
	<g>
		<path fill="#252626" d="M152.48535,111.04591c-0.14063,0.43848-0.16309,0.92676-0.05859,1.42383l0.0332,0.15137l0.79199-0.16895
			l-0.0332-0.15137c-0.0752-0.36328-0.06738-0.71387,0.02832-1.00781l0.00293-0.00586
			c0.02832-0.08789,0.0625-0.17383,0.10742-0.25293c0.07422-0.13281,0.16895-0.24023,0.27441-0.31445
			c0.12402-0.09668,0.32422-0.17969,0.54102-0.05859c0.11621,0.06543,0.17383,0.1748,0.18066,0.33789
			c0.00586,0.19824-0.05957,0.42773-0.11328,0.58496c-0.02539,0.07031-0.21582,0.67383-0.21875,1
			c0.00879,0.22168,0.06445,0.41992,0.16309,0.59375c0.10254,0.17578,0.24902,0.3125,0.43457,0.41797
			c0.20117,0.1123,0.43848,0.16113,0.69141,0.14453c0.21973-0.03125,0.43652-0.11914,0.63379-0.25977
			s0.36328-0.3252,0.49219-0.55371c0.0498-0.08984,0.09375-0.19141,0.13574-0.29297
			c0.13379-0.38477,0.16699-0.81836,0.08203-1.26465l-0.02832-0.14746l-0.79883,0.14453l0.02832,0.14746
			c0.08789,0.50293-0.01563,0.83594-0.12207,1.02734c-0.06836,0.12109-0.1582,0.21777-0.25293,0.29004
			c-0.15332,0.10938-0.33301,0.13281-0.46094,0.06152c-0.11719-0.06445-0.16602-0.15039-0.17969-0.28906
			c-0.0127-0.13867,0.02051-0.32227,0.10449-0.5957c0.0127-0.03516,0.02539-0.08301,0.03906-0.13184
			c0.08301-0.24609,0.18555-0.5791,0.17969-0.85449c0.00488-0.23438-0.0498-0.44629-0.15039-0.62793
			c-0.09961-0.18164-0.25293-0.33105-0.44434-0.4375c-0.23926-0.13379-0.48633-0.18848-0.7373-0.16309
			c-0.21777,0.02441-0.44238,0.11523-0.66992,0.27246c-0.19922,0.13281-0.3584,0.31641-0.50391,0.5752
			C152.58887,110.7627,152.53418,110.89942,152.48535,111.04591z"/>
		<path fill="#252626" d="M155.33301,108.88184l2.6377,0.59473l0.17773-0.78906l-2.63867-0.59375
			c-0.47363-0.10742-0.77832-0.58105-0.67285-1.0498c0.10742-0.47363,0.58398-0.76563,1.05762-0.6582l2.63867,0.59375
			l0.17871-0.79297l-2.63867-0.59473c-0.43848-0.09961-0.8916-0.02051-1.27051,0.21777
			c-0.37891,0.24512-0.64453,0.62109-0.74316,1.05957C153.85547,107.77637,154.4248,108.67774,155.33301,108.88184z"/>
		<path fill="#252626" d="M154.51953,104.14356l4.32129-0.22168l-0.0791-1.54688c-0.01563-0.29785-0.14453-0.57129-0.36816-0.77344
			c-0.22266-0.19531-0.50293-0.30176-0.7998-0.28711c-0.61328,0.03223-1.0791,0.56055-1.04785,1.17383l0.03809,0.74023
			l-2.10645,0.1084L154.51953,104.14356z M157.34082,102.44727c-0.00879-0.16992,0.12402-0.31055,0.29492-0.31836
			c0.16895-0.00879,0.32227,0.12305,0.33105,0.28711l0.03711,0.73926l-0.625,0.0332L157.34082,102.44727z"/>
		<path fill="#252626" d="M154.18457,100.53418l4.12695-1.29688l-0.85547-2.71875l-0.75293,0.23633l0.61133,1.94141
			l-0.60938,0.19141l-0.53223-1.69141l-0.77051,0.24219l0.53223,1.69238l-1.22852,0.38672l-0.59473-1.88867l-0.76465,0.23926
			L154.18457,100.53418z"/>
		<path fill="#252626" d="M151.46289,94.79884l2.60938,0.09668l0.19336,0.28613l-1.75293,1.17871l0.44043,0.65527l3.58594-2.41113
			l-0.86328-1.28418c-0.16309-0.24219-0.41113-0.4043-0.70508-0.46191c-0.29492-0.05762-0.58594-0.00195-0.82813,0.16211
			c-0.35742,0.23926-0.53711,0.66797-0.47852,1.08105l-2.73535-0.09766L151.46289,94.79884z M154.49707,94.11231
			c-0.09473-0.14063-0.05957-0.33887,0.08594-0.4375s0.34277-0.05566,0.43848,0.08496l0.42285,0.62988l-0.52441,0.35254
			L154.49707,94.11231z"/>
		<path fill="#252626" d="M148.37402,91.84084l3.27734-0.98535l-1.79004,2.19824l0.63086,0.51465l2.73047-3.35254l-0.61133-0.49902
			l-3.27148,0.98633l1.78809-2.19434l-0.63086-0.51367l-2.73047,3.35156L148.37402,91.84084z"/>
		<path fill="#252626" d="M147.93457,88.86231c0.43457-1.17285-0.16309-2.47754-1.33008-2.91113
			c-1.17285-0.43457-2.47656,0.16211-2.91211,1.33594c-0.43359,1.16699,0.16602,2.46582,1.33887,2.90039
			C146.19824,90.6211,147.50098,90.02834,147.93457,88.86231z M147.1709,88.57813c-0.2793,0.75195-1.11426,1.13477-1.86035,0.85742
			c-0.74609-0.27637-1.12891-1.1123-0.84961-1.86328c0.28223-0.75781,1.11621-1.13965,1.8623-0.86328
			S147.45215,87.82129,147.1709,88.57813z"/>
		<path fill="#252626" d="M141.03809,89.26466l1.8623-4.24609l-0.87402-0.03906l-1.29395,2.96387l-1.03027-3.06836l-0.86719-0.03906
			l1.46875,4.39551L141.03809,89.26466z"/>
		<path fill="#252626" d="M135.82227,89.79884l0.18945-1.23535l1.40332-0.30078l0.68457,1.04688l0.85059-0.18262l-2.53809-3.88379
			l-0.71875,0.1543l-0.72754,4.58496L135.82227,89.79884z M136.15234,87.71192l0.17188-1.11328l0.61328,0.94531L136.15234,87.71192z
			"/>
	</g>
	<g>
		<path fill="#252626" d="M11.07813,242.76465c0.0752,0.4541,0.02539,0.94043-0.15234,1.41699l-0.05566,0.14453l-0.75781-0.28418
			l0.05566-0.14551c0.12793-0.34766,0.17188-0.69531,0.12109-1.00098l-0.00098-0.00488
			c-0.01563-0.0918-0.03711-0.18164-0.06934-0.26758c-0.05371-0.1416-0.13184-0.26172-0.22461-0.35156
			c-0.10742-0.11328-0.29395-0.22559-0.52637-0.1377c-0.125,0.04785-0.19824,0.14648-0.22852,0.30762
			c-0.03711,0.19531-0.00586,0.43066,0.02344,0.59473c0.01563,0.07324,0.11523,0.69824,0.06934,1.02246
			c-0.04199,0.2168-0.12598,0.40527-0.24805,0.56152c-0.12891,0.15918-0.29395,0.27344-0.49219,0.34863
			c-0.2168,0.08203-0.45801,0.0957-0.70605,0.04102c-0.21289-0.0625-0.41406-0.18164-0.58887-0.34961
			c-0.17383-0.16797-0.31152-0.37598-0.4043-0.62109c-0.03613-0.0957-0.06348-0.20215-0.0918-0.30859
			c-0.07324-0.40234-0.04199-0.83691,0.10742-1.26367l0.0498-0.14258l0.76953,0.26074l-0.05078,0.14258
			c-0.16113,0.48438-0.1084,0.8291-0.03027,1.0332c0.04883,0.13086,0.12305,0.24023,0.20703,0.3252
			c0.13379,0.13086,0.30957,0.18066,0.44629,0.12988c0.12402-0.04785,0.18652-0.12402,0.21973-0.25977
			s0.02734-0.32227-0.01465-0.60547c-0.00781-0.03613-0.0127-0.08594-0.01953-0.13574
			c-0.04395-0.25586-0.09766-0.60059-0.05078-0.87207c0.0293-0.23145,0.11523-0.43262,0.24121-0.59766
			s0.30078-0.28906,0.50488-0.36816c0.25586-0.0957,0.50977-0.11328,0.75488-0.05078
			c0.20898,0.05664,0.41797,0.17969,0.62012,0.36914c0.17871,0.16016,0.30762,0.36426,0.41309,0.64355
			C11.01855,242.46875,11.05371,242.61133,11.07813,242.76465z"/>
		<path fill="#252626" d="M8.58398,240.20117l-2.69727,0.19727l-0.05859-0.80664l2.69727-0.19629
			c0.48438-0.03516,0.85547-0.45898,0.82129-0.9375c-0.03613-0.48535-0.46484-0.84375-0.94824-0.80762l-2.69824,0.19629
			l-0.05859-0.81152l2.69727-0.19727c0.44824-0.03418,0.88574,0.11133,1.22363,0.40332
			c0.33887,0.29883,0.5459,0.71094,0.57813,1.15918C10.20801,239.32813,9.51172,240.13379,8.58398,240.20117z"/>
		<path fill="#252626" d="M10.08984,235.65918l-4.24121-0.85938l0.30762-1.51953c0.05957-0.29199,0.22754-0.54297,0.47949-0.70801
			c0.24902-0.16113,0.54102-0.22656,0.83301-0.16699c0.60156,0.12207,0.98438,0.71484,0.86133,1.31641l-0.14746,0.72656
			l2.06836,0.41895L10.08984,235.65918z M7.55078,233.56348c0.0332-0.16699-0.07715-0.32617-0.24414-0.35938
			c-0.16699-0.03418-0.33691,0.07422-0.37012,0.23438l-0.14746,0.72656l0.61426,0.125L7.55078,233.56348z"/>
		<path fill="#252626" d="M10.94824,232.13574l-3.89648-1.8877l1.24316-2.56738l0.71191,0.34473l-0.8877,1.83301l0.57324,0.27832
			l0.77539-1.59766l0.72754,0.35254l-0.77441,1.59863l1.16016,0.56152l0.86426-1.7832l0.72266,0.34961L10.94824,232.13574z"/>
		<path fill="#252626" d="M14.49902,226.84766l-2.5957-0.29199l-0.2334,0.25488l1.55859,1.4248l-0.53223,0.58301l-3.18848-2.91602
			l1.04395-1.1416c0.19629-0.21582,0.4668-0.33887,0.76563-0.35254c0.30078-0.01367,0.58008,0.08496,0.79492,0.28223
			c0.31836,0.29004,0.43262,0.74121,0.31348,1.1416l2.71875,0.30762L14.49902,226.84766z M11.59961,225.71875
			c0.11426-0.12598,0.11035-0.32715-0.02051-0.44629c-0.12891-0.11816-0.33008-0.10645-0.44434,0.01953l-0.5127,0.55957
			l0.46582,0.42676L11.59961,225.71875z"/>
		<path fill="#252626" d="M17.99316,224.38086l-3.09668-1.46191l1.44531,2.44043l-0.69922,0.41406l-2.20508-3.71973l0.67969-0.40234
			l3.08887,1.45996l-1.44336-2.43457l0.7002-0.41602l2.20313,3.71973L17.99316,224.38086z"/>
		<path fill="#252626" d="M18.86914,221.49902c-0.25684-1.22461,0.52637-2.4248,1.74512-2.68164
			c1.22559-0.25684,2.42578,0.52832,2.68262,1.75293c0.25586,1.21777-0.53027,2.41309-1.75488,2.66992
			C20.32422,223.49609,19.12402,222.71777,18.86914,221.49902z M19.66504,221.33203
			c0.16504,0.78418,0.93457,1.28711,1.71289,1.12305c0.7793-0.16211,1.28125-0.93262,1.11719-1.7168
			c-0.16602-0.79004-0.93652-1.29297-1.71484-1.13086C20.00195,219.77148,19.49902,220.54102,19.66504,221.33203z"/>
		<path fill="#252626" d="M25.62891,222.91797l-1.21387-4.47559l0.86914,0.09082l0.84082,3.12305l1.47363-2.88086l0.86426,0.08887
			l-2.10352,4.12988L25.62891,222.91797z"/>
		<path fill="#252626" d="M30.70703,224.21973l-0.00391-1.24902l-1.34375-0.50586l-0.83203,0.93359l-0.81445-0.30664
			l3.08594-3.46387l0.68848,0.25879l0.03906,4.6416L30.70703,224.21973z M30.69043,222.1084l-0.00488-1.12598l-0.74707,0.84277
			L30.69043,222.1084z"/>
	</g>
	<g>
		<g>
			<path fill="#252626" d="M48.3584,7.0664h2.90625c0.57422,0,1.11523,0.23145,1.52441,0.62891
				c0.39746,0.40918,0.62988,1.02734,0.62988,1.60254c0,1.19238-0.9834,2.24219-2.1543,2.24219h-0.99512v3.3916H48.3584V7.0664z
				 M51.49609,9.29784c0-0.14355-0.09961-0.34277-0.23145-0.34277h-0.99512v0.69629h0.99512
				C51.39648,9.65136,51.49609,9.4414,51.49609,9.29784z"/>
		</g>
		<g>
			<path fill="#252626" d="M64.23145,7.0664v4.83789c0,1.72363-1.40234,3.12695-3.12598,3.12695
				c-1.71191,0-3.11523-1.40332-3.11523-3.12695V7.0664h1.90039v4.83789c0,0.68555,0.55176,1.2373,1.21484,1.2373
				c0.67383,0,1.21484-0.55176,1.21484-1.2373V7.0664H64.23145z"/>
		</g>
		<g>
			<path fill="#252626" d="M69.25684,7.0664h1.91113v5.97656h3.73438v1.88867h-5.64551
				C69.25685,14.93163,69.25685,7.0664,69.25684,7.0664z"/>
		</g>
		<g>
			<path fill="#252626" d="M81.41797,14.90917c-0.79492-0.16504-1.52441-0.53027-2.46289-1.33594l1.25879-1.44727
				c0.69629,0.60742,1.10547,0.83887,1.59082,0.92773c0.14355,0.0332,0.28711,0.05469,0.41992,0.05469
				c0.2207,0,0.41992-0.04395,0.57422-0.12109c0.13281-0.06641,0.36523-0.20996,0.36523-0.50781
				c0-0.30957-0.57422-0.49707-1.07227-0.59668c-0.2207-0.04492-1.30273-0.27637-1.74512-0.54199
				c-0.75098-0.44141-1.1377-1.11523-1.1377-1.95508c0-0.46387,0.1543-0.90527,0.4082-1.28125
				c0.25488-0.35352,0.6084-0.62988,1.0166-0.81738l-0.01074,0.01074c0.41994-0.19922,0.89455-0.29785,1.34768-0.29785
				c0.1875,0,0.36426,0.01074,0.58594,0.04395c0.70703,0.12109,1.3584,0.4082,2.26465,1.16016l-1.21582,1.45801
				c-0.81738-0.67383-1.2373-0.77344-1.65723-0.77344c-0.20996,0-0.375,0.04395-0.50781,0.11035
				c-0.20996,0.08887-0.32031,0.24316-0.32031,0.38672c0,0.29883,0.39746,0.44238,1.03809,0.57422
				c0.06641,0.02246,0.14355,0.02246,0.22168,0.04492c0.43066,0.09863,1.07129,0.23145,1.49121,0.47461h-0.01172
				c0.7959,0.44238,1.21582,1.1377,1.21582,2c0,0.50781-0.13281,0.98242-0.41992,1.38086
				c-0.25391,0.36426-0.62988,0.62988-1.0498,0.83887c-0.44141,0.23242-0.89453,0.29883-1.3916,0.29883
				C81.94824,14.99804,81.66113,14.96483,81.41797,14.90917z"/>
		</g>
		<g>
			<path fill="#252626" d="M93.64648,13.14159h-2.20996l-0.69531,1.79004H88.708l3.02734-7.86523h1.6123l3.03809,7.86523H94.3203
				L93.64648,13.14159z M92.54199,10.11522l-0.37598,1.14844h0.74023L92.54199,10.11522z"/>
		</g>
		<g>
			<path fill="#252626" d="M107.48633,14.93163h-2.28711l-2.60742-3.40234h-0.17676v3.40234h-1.86719V7.0664h2.88379
				c0.57422,0,1.11523,0.23145,1.51367,0.62891c0.39746,0.40918,0.62891,1.02734,0.62891,1.60254
				c0,0.75098-0.36426,1.47949-0.94922,1.85547L107.48633,14.93163z M102.41504,9.65136h1.0166
				c0.1543,0,0.26465-0.19922,0.26465-0.35352c0-0.15527-0.11035-0.35352-0.26465-0.35352h-1.0166V9.65136z"/>
		</g>
		<g>
			<path fill="#252626" d="M113.35059,14.90917c-0.79492-0.16504-1.52441-0.53027-2.46289-1.33594l1.25879-1.44727
				c0.69629,0.60742,1.10547,0.83887,1.59082,0.92773c0.14355,0.0332,0.28711,0.05469,0.41992,0.05469
				c0.2207,0,0.41992-0.04395,0.57422-0.12109c0.13281-0.06641,0.36523-0.20996,0.36523-0.50781
				c0-0.30957-0.5752-0.49707-1.07227-0.59668c-0.2207-0.04492-1.30273-0.27637-1.74512-0.54199
				c-0.75098-0.44141-1.1377-1.11523-1.1377-1.95508c0-0.46387,0.1543-0.90527,0.4082-1.28125
				c0.25488-0.35352,0.6084-0.62988,1.0166-0.81738l-0.01074,0.01074c0.41994-0.19922,0.89455-0.29785,1.34767-0.29785
				c0.1875,0,0.36426,0.01074,0.58594,0.04395c0.70703,0.12109,1.3584,0.4082,2.26465,1.16016l-1.21582,1.45801
				c-0.81738-0.67383-1.2373-0.77344-1.65723-0.77344c-0.20996,0-0.375,0.04395-0.50781,0.11035
				c-0.20996,0.08887-0.32031,0.24316-0.32031,0.38672c0,0.29883,0.39746,0.44238,1.03809,0.57422
				c0.06641,0.02246,0.14355,0.02246,0.22168,0.04492c0.43066,0.09863,1.07129,0.23145,1.49121,0.47461H115.792
				c0.7959,0.44238,1.21582,1.1377,1.21582,2c0,0.50781-0.13281,0.98242-0.41992,1.38086
				c-0.25391,0.36426-0.62988,0.62988-1.0498,0.83887c-0.44141,0.23242-0.89453,0.29883-1.3916,0.29883
				C113.88086,14.99804,113.59375,14.96483,113.35059,14.90917z"/>
		</g>
	</g>
	<g>
		<g>
			<path fill="#252626" d="M110.30273,66.48925l1.21191,2.31543l0.3418,0.05078l0.30859-2.09082l0.78125,0.11523l-0.63086,4.27637
				l-1.5332-0.22559c-0.28809-0.04297-0.54199-0.19629-0.7207-0.43848c-0.17871-0.24121-0.25293-0.52832-0.21094-0.81641
				c0.06348-0.42676,0.37305-0.77344,0.77148-0.89941l-1.26758-2.42676L110.30273,66.48925z M110.99121,69.52538
				c-0.16895-0.02539-0.33301,0.09082-0.35938,0.26563c-0.02539,0.1748,0.09863,0.33398,0.26563,0.3584l0.75195,0.11133
				l0.0918-0.625L110.99121,69.52538z"/>
		</g>
		<g>
			<path fill="#252626" d="M108.90137,66.12109l-1.69922,3.98242l-2.62305-1.11914l0.30957-0.72754l1.87305,0.7998l0.25195-0.58691
				l-1.63281-0.69727l0.31641-0.74414l1.63379,0.69727l0.50586-1.18555l-1.82324-0.77832l0.31445-0.73926L108.90137,66.12109z"/>
		</g>
		<g>
			<path fill="#252626" d="M104.43359,63.64745l-1.50879,4.37891l-0.66699-0.5625l1.05762-3.05273l-2.83594,1.55469
				l-0.66309-0.55957l4.05566-2.23145L104.43359,63.64745z"/>
		</g>
		<g>
			<path fill="#252626" d="M102.20215,61.51269l-3.56445,2.4414l-1.6084-2.34766l0.65039-0.44629l1.14941,1.67773l0.52441-0.36035
				l-1.00098-1.46191l0.66602-0.45605l1.00195,1.46191l1.06152-0.72559l-1.11719-1.63281l0.66016-0.45215L102.20215,61.51269z"/>
		</g>
		<g>
			<path fill="#252626" d="M99.36816,55.79882l-1.54297,2.11328l0.10547,0.3291l2.01563-0.64648l0.24219,0.75195l-4.12305,1.3252
				l-0.47363-1.47559c-0.08984-0.27832-0.06348-0.5752,0.07324-0.84277c0.13867-0.2666,0.36328-0.45996,0.64063-0.5498
				c0.41113-0.13281,0.86035-0.00879,1.14941,0.29395l1.62012-2.21289L99.36816,55.79882z M96.94629,57.75976
				c-0.05273-0.16211-0.23047-0.25781-0.39844-0.20508c-0.16797,0.05469-0.25684,0.2373-0.2041,0.39941l0.23242,0.72363
				l0.60156-0.19434L96.94629,57.75976z"/>
		</g>
		<g>
			<path fill="#252626" d="M99,53.25292c-0.07227,0.45313-0.27344,0.89844-0.59277,1.29492l-0.09863,0.11914l-0.62793-0.50879
				l0.09863-0.12012c0.23145-0.29004,0.38379-0.60547,0.43164-0.91211v-0.00586c0.01367-0.0918,0.02246-0.18359,0.01855-0.27441
				c-0.00488-0.15137-0.04199-0.29004-0.10059-0.40332c-0.06641-0.14258-0.20801-0.30859-0.45605-0.29883
				c-0.13477,0.00586-0.23535,0.07715-0.31445,0.21973c-0.0957,0.17383-0.1416,0.40723-0.16504,0.57324
				c-0.00977,0.07324-0.1123,0.69727-0.25879,0.98926c-0.1084,0.19238-0.24805,0.34375-0.41406,0.4541
				c-0.17188,0.11133-0.36328,0.16699-0.57617,0.17578c-0.23145,0.00879-0.46484-0.05469-0.68359-0.18555
				c-0.18164-0.12695-0.33496-0.30371-0.44629-0.5166c-0.11133-0.21484-0.17578-0.45605-0.1875-0.7168
				c-0.00293-0.10449,0.00391-0.21387,0.0127-0.32324c0.05566-0.4043,0.22266-0.80566,0.50098-1.16406l0.0918-0.11914
				l0.64551,0.49023l-0.0918,0.12109c-0.30664,0.40625-0.36426,0.75-0.35645,0.96875
				c0.00586,0.13965,0.04102,0.26563,0.09473,0.37402c0.08496,0.16602,0.23535,0.26953,0.38184,0.26367
				c0.13281-0.00586,0.2168-0.05762,0.29004-0.17578c0.0752-0.11816,0.12891-0.29688,0.17773-0.5791
				c0.00488-0.03613,0.01465-0.08594,0.02539-0.13477c0.03809-0.25684,0.09766-0.59961,0.22754-0.84277
				c0.10059-0.21094,0.24707-0.375,0.41895-0.49121c0.1709-0.11621,0.37598-0.17871,0.59375-0.18848
				c0.27344-0.01074,0.52051,0.05273,0.73242,0.18945c0.18066,0.12012,0.33984,0.30371,0.47168,0.54785
				c0.11816,0.20703,0.17578,0.44336,0.18848,0.74023C99.03711,52.95409,99.02539,53.0996,99,53.25292z"/>
		</g>
		<g>
			<path fill="#252626" d="M99.08105,50.26757l-4.21191-0.97559l0.6416-2.77441l0.76953,0.17871l-0.45898,1.98047l0.62207,0.14551
				l0.40039-1.72852l0.78613,0.18262l-0.40039,1.72656l1.25391,0.29199l0.44727-1.92969l0.78125,0.18164L99.08105,50.26757z"/>
		</g>
		<g>
			<path fill="#252626" d="M102.50488,42.86034c-0.37012,0.27148-0.82715,0.44727-1.33105,0.50586l-0.1543,0.01563l-0.08984-0.80371
				l0.1543-0.0166c0.36816-0.04199,0.69824-0.16113,0.94727-0.3457l0.00391-0.00391
				c0.07422-0.05469,0.14551-0.11523,0.20703-0.18262c0.10254-0.11133,0.17383-0.23535,0.21094-0.35742
				c0.05273-0.14844,0.06836-0.36523-0.11523-0.53223c-0.09961-0.09082-0.2207-0.11035-0.37793-0.06445
				c-0.19043,0.05664-0.38672,0.19043-0.51953,0.29102c-0.05762,0.04688-0.56836,0.41895-0.87891,0.52246
				c-0.21191,0.06152-0.41797,0.07227-0.6123,0.03418c-0.2002-0.04199-0.37695-0.1377-0.53418-0.28027
				c-0.1709-0.15527-0.29297-0.36523-0.35547-0.61133c-0.04102-0.21777-0.02539-0.4502,0.04492-0.68164
				c0.07129-0.23145,0.19434-0.44824,0.37012-0.6416c0.06934-0.07617,0.15137-0.14941,0.23438-0.22168
				c0.32422-0.24707,0.72461-0.41699,1.17383-0.47656l0.14844-0.02051l0.11719,0.80371l-0.15039,0.02051
				c-0.50391,0.0752-0.78711,0.27734-0.93555,0.43945c-0.09277,0.10352-0.15625,0.21777-0.19434,0.33203
				c-0.05566,0.17773-0.02148,0.35742,0.08691,0.45605c0.09766,0.08984,0.19336,0.11035,0.33008,0.0791
				c0.13574-0.03223,0.2998-0.12109,0.53223-0.28711c0.0293-0.02344,0.07129-0.05176,0.11328-0.0791
				c0.20703-0.15625,0.49121-0.3584,0.75293-0.44043c0.2207-0.07813,0.43848-0.09375,0.64258-0.05566
				c0.20313,0.03809,0.39355,0.13672,0.55566,0.28418c0.20215,0.18359,0.33301,0.40039,0.38672,0.64844
				c0.0459,0.21289,0.03027,0.4541-0.04688,0.7207c-0.0625,0.23047-0.18555,0.43848-0.38672,0.65918
				C102.74023,42.67284,102.62988,42.76854,102.50488,42.86034z"/>
		</g>
		<g>
			<path fill="#252626" d="M104.58594,40.84374l-2.35547-3.63086l1.30078-0.84375c0.25-0.16211,0.54785-0.2168,0.8418-0.1543
				c0.28906,0.06641,0.54004,0.22949,0.70215,0.47949c0.33398,0.51465,0.17871,1.20313-0.33691,1.53711l-0.62207,0.40332
				l1.14746,1.76953L104.58594,40.84374z M104.30469,37.56249c0.14355-0.0918,0.17969-0.28223,0.08691-0.4248
				c-0.09277-0.14355-0.28906-0.18945-0.42676-0.10059l-0.62207,0.4043l0.34082,0.52539L104.30469,37.56249z"/>
		</g>
		<g>
			<path fill="#252626" d="M109.95703,38.25878l-0.78906-0.9668l-1.35938,0.45215l-0.05762,1.24805l-0.82422,0.27344
				l0.21484-4.62402l0.69727-0.23242l2.94629,3.57324L109.95703,38.25878z M108.61621,36.63183l-0.71191-0.86914l-0.04785,1.12207
				L108.61621,36.63183z"/>
		</g>
		<g>
			<path fill="#252626" d="M112.48828,37.78222c-0.26953-0.1123-0.51563-0.27148-0.72656-0.47461
				c-0.21582-0.20313-0.38281-0.44336-0.49707-0.71582c-0.12695-0.27734-0.19238-0.56836-0.19824-0.87793
				c-0.02051-1.24707,0.98242-2.2793,2.22949-2.30176c0.35352-0.00586,0.70703,0.07324,1.02051,0.22656
				c0.3125,0.14746,0.5957,0.37891,0.80664,0.65527l0.10059,0.12109l-0.64355,0.49121l-0.09277-0.12012
				c-0.28027-0.36719-0.70898-0.57227-1.17773-0.56445c-0.80273,0.01367-1.44824,0.6748-1.43457,1.47852
				c0.01367,0.80762,0.68164,1.4541,1.48535,1.43945c0.46094-0.00684,0.88379-0.22754,1.15625-0.60254l0.08984-0.11816
				l0.65234,0.46387l-0.0957,0.12305c-0.20801,0.28906-0.47168,0.51855-0.78516,0.68262
				c-0.30664,0.16406-0.65234,0.24902-1.00488,0.25391C113.06934,37.94823,112.76953,37.89257,112.48828,37.78222z"/>
		</g>
		<g>
			<path fill="#252626" d="M116.20313,38.0869l1.17383-4.16016l2.74023,0.77344l-0.21484,0.75879l-1.95801-0.55273l-0.17188,0.61426
				l1.70508,0.48145l-0.21875,0.77637l-1.70605-0.48047l-0.34961,1.23828l1.90527,0.53809l-0.21777,0.77051L116.20313,38.0869z"/>
		</g>
		<g>
			<path fill="#252626" d="M120.52051,39.71581l1.80957-3.02441l-0.91211-0.5459l0.41211-0.68848l2.52246,1.50977l-0.41113,0.68848
				l-0.91211-0.5459l-1.80859,3.02441L120.52051,39.71581z"/>
		</g>
		<g>
			<path fill="#252626" d="M123.02637,41.49901l2.95703-3.15039l0.59277,0.55566l-2.95703,3.15234L123.02637,41.49901z"/>
		</g>
		<g>
			<path fill="#252626" d="M126.27734,45.57128l2.44629-1.54199l-1.9082-0.13379l0.70703-1.77344l-2.44824,1.54102l-0.43066-0.68262
				l3.66016-2.30859l0.40527,0.64355l-0.7373,1.85156l1.98827,0.13281l0.4082,0.64746l-3.66016,2.30762L126.27734,45.57128z"/>
		</g>
		<g>
			<path fill="#252626" d="M127.05078,47.27733l4.16992-1.14648l0.75586,2.74805l-0.76172,0.20898l-0.53906-1.96191
				l-0.61523,0.16797l0.4707,1.71094l-0.7793,0.21387l-0.46973-1.70996l-1.24219,0.3418l0.52539,1.91016l-0.77344,0.21191
				L127.05078,47.27733z"/>
		</g>
	</g>
	<g>
		<g>
			<path fill="#252626" d="M43.89648,39.97655c-0.29004,0.02734-0.58105,0.00098-0.86133-0.08008
				c-0.28613-0.0791-0.5459-0.21289-0.77344-0.39941c-0.24121-0.18652-0.43457-0.41309-0.58398-0.68457
				c-0.59766-1.08984-0.19238-2.46875,0.89844-3.06738c0.30859-0.16992,0.6582-0.26465,1.00488-0.27637
				c0.34473-0.01563,0.70313,0.05859,1.01855,0.2041l0.14355,0.05957l-0.33887,0.73242l-0.13867-0.06348
				c-0.41699-0.19238-0.89258-0.1748-1.30078,0.05078C42.26172,36.83788,42,37.72265,42.38574,38.42479
				c0.38867,0.70703,1.2793,0.9668,1.98047,0.58008c0.40527-0.2207,0.6748-0.6123,0.74121-1.07031l0.02441-0.14648l0.79199,0.10645
				l-0.02734,0.15234c-0.04883,0.35352-0.1748,0.67773-0.375,0.96875c-0.19531,0.28711-0.46094,0.52344-0.76953,0.69238
				C44.48633,39.85351,44.19629,39.94335,43.89648,39.97655z"/>
		</g>
		<g>
			<path fill="#252626" d="M46.58984,36.3369c-0.20313-1.23535,0.63379-2.40137,1.86328-2.60449
				c1.23633-0.20313,2.40234,0.63379,2.60547,1.87109c0.20215,1.22852-0.63574,2.38965-1.87109,2.59375
				C47.95703,38.39745,46.79199,37.56737,46.58984,36.3369z M47.39453,36.20507c0.12891,0.79297,0.87598,1.32813,1.66211,1.19922
				c0.78613-0.12988,1.32227-0.87598,1.19238-1.66797c-0.13086-0.79785-0.87891-1.33398-1.66504-1.20508
				C47.79883,34.66015,47.2627,35.40722,47.39453,36.20507z"/>
		</g>
		<g>
			<path fill="#252626" d="M53.33496,38.04687c-0.43164-0.15723-0.83203-0.4375-1.16211-0.8252l-0.09863-0.11914l0.61914-0.52246
				l0.09961,0.11914c0.24023,0.28223,0.52246,0.49023,0.81445,0.5957h0.00586c0.08789,0.03223,0.17578,0.05664,0.2666,0.07129
				c0.15039,0.02246,0.29297,0.0127,0.41504-0.02441c0.1543-0.03809,0.3418-0.14551,0.37891-0.39258
				c0.01953-0.13281-0.03223-0.24414-0.15723-0.34863c-0.15332-0.12793-0.37402-0.2168-0.53125-0.27051
				c-0.07031-0.02246-0.66504-0.24023-0.9248-0.43945c-0.16895-0.1416-0.29199-0.30762-0.36914-0.49121
				c-0.07617-0.18945-0.0957-0.38867-0.06445-0.59961c0.03516-0.22949,0.14063-0.44727,0.31055-0.63672
				c0.1582-0.1543,0.36035-0.27246,0.5918-0.3418c0.23242-0.06934,0.48047-0.08887,0.73926-0.04883
				c0.10254,0.01465,0.20898,0.04199,0.31543,0.07129c0.38672,0.13086,0.75,0.37012,1.04883,0.70898l0.10059,0.11426
				l-0.60352,0.54297l-0.09961-0.11328c-0.34375-0.37695-0.66992-0.49902-0.88574-0.53125
				c-0.13867-0.02051-0.26953-0.01074-0.38477,0.02246c-0.17969,0.05273-0.30957,0.18066-0.33105,0.3252
				c-0.02051,0.13184,0.01465,0.22363,0.11816,0.31836c0.10156,0.09473,0.26758,0.18164,0.53516,0.2832
				c0.03516,0.01172,0.08203,0.03027,0.12793,0.0498c0.24609,0.08594,0.57129,0.20801,0.78516,0.38184
				c0.18848,0.13867,0.32227,0.3125,0.4043,0.50391c0.08203,0.18945,0.10547,0.40137,0.07324,0.61816
				c-0.04004,0.27148-0.14844,0.50098-0.32324,0.68359c-0.15234,0.15527-0.36133,0.27734-0.62598,0.3623
				c-0.22559,0.07617-0.46777,0.08887-0.7627,0.0459C53.62305,38.13964,53.48145,38.0996,53.33496,38.04687z"/>
		</g>
		<g>
			<path fill="#252626" d="M58.93164,39.93944l1.28418-2.59375l-1.69824,0.88281l-0.32422-1.88281l-1.2832,2.59375l-0.72559-0.3584
				l1.91992-3.88086l0.68066,0.33691l0.33789,1.96484l1.76758-0.92383l0.68555,0.33789l-1.91895,3.88281L58.93164,39.93944z"/>
		</g>
		<g>
			<path fill="#252626" d="M60.77344,41.28319l2.86133-3.24219l0.61035,0.53906l-2.86133,3.24219L60.77344,41.28319z"/>
		</g>
		<g>
			<path fill="#252626" d="M63.10645,43.54589c-0.05664-0.28613-0.05957-0.5791-0.00586-0.86621
				c0.0498-0.29199,0.15723-0.56445,0.32031-0.81055c0.16113-0.25879,0.36719-0.47363,0.62305-0.64941
				c1.02637-0.70605,2.44043-0.44043,3.14746,0.58594c0.19922,0.29004,0.3291,0.62793,0.375,0.97363
				c0.0498,0.34082,0.01367,0.70605-0.09961,1.03418l-0.04492,0.14941l-0.76465-0.26367l0.04883-0.14355
				c0.15039-0.43555,0.08496-0.90625-0.18066-1.29199c-0.45508-0.66113-1.36328-0.83398-2.02344-0.37891
				c-0.66602,0.45801-0.83496,1.37207-0.37988,2.03223c0.26172,0.37988,0.67871,0.61133,1.1416,0.63086l0.14648,0.00879
				l-0.02539,0.80078l-0.1543-0.0127c-0.35547-0.01172-0.69336-0.10449-1.00195-0.27539
				c-0.30566-0.16602-0.56836-0.40723-0.76758-0.69727C63.28906,44.12206,63.16992,43.84179,63.10645,43.54589z"/>
		</g>
		<g>
			<path fill="#252626" d="M65.95117,51.35351l4.23828-1.87109l0.04004,0.87305l-2.95703,1.2998l3.06738,1.02148l0.04004,0.86621
				l-4.39355-1.45703L65.95117,51.35351z"/>
		</g>
		<g>
			<path fill="#252626" d="M68.18945,54.58007c1.20898,0.32715,1.92383,1.57227,1.59961,2.77539
				c-0.32617,1.20898-1.57129,1.9248-2.78027,1.59863c-1.20313-0.32422-1.91309-1.56934-1.58691-2.77734
				C65.74707,54.97362,66.98633,54.25683,68.18945,54.58007z M67.97656,55.36718c-0.77441-0.20898-1.57227,0.25-1.7793,1.01758
				c-0.20801,0.76953,0.25,1.56738,1.02539,1.77734c0.78027,0.20996,1.57813-0.24805,1.78516-1.01758
				C69.21582,56.37597,68.75781,55.57714,67.97656,55.36718z"/>
		</g>
		<g>
			<path fill="#252626" d="M64.29297,59.20995l3.76074,2.13574l-0.40137,0.70801l-3.76172-2.13574L64.29297,59.20995z"/>
		</g>
		<g>
			<path fill="#252626" d="M63.24316,61.06151l3.14648,2.97266l-0.99805,1.05664c-0.83984,0.8877-2.23145,0.94434-3.09766,0.12598
				s-0.88867-2.21191-0.04883-3.09961L63.24316,61.06151z M62.82422,62.66308c-0.53516,0.56641-0.52344,1.44824,0.02539,1.96582
				c0.54785,0.51758,1.42773,0.47949,1.96289-0.08594l0.44238-0.46875L63.2666,62.1953L62.82422,62.66308z"/>
		</g>
	</g>
	<g>
		<circle fill="#252626" cx="82.5" cy="127.33595" r="14.87217"/>
	</g>
	<g>
		<circle fill="#252626" cx="115.47451" cy="294.33453" r="14.87217"/>
	</g>
	<g>
		
			<ellipse transform="matrix(0.09854 -0.99513 0.99513 0.09854 -144.26054 363.53766)" fill="#252626" cx="128.52614" cy="261.39417" rx="14.87217" ry="14.87218"/>
	</g>
	<g>
		<circle fill="#252626" cx="115.48129" cy="228.3364" r="14.87218"/>
	</g>
	<g>
		<circle fill="#252626" cx="82.43137" cy="215.33397" r="14.87217"/>
	</g>
	<g>
		<circle fill="#252626" cx="49.45833" cy="228.33594" r="14.87217"/>
	</g>
	<g>
		<circle fill="#252626" cx="36.47385" cy="261.39417" r="14.87217"/>
	</g>
	<g>
		<circle fill="#252626" cx="49.5" cy="294.33453" r="14.87217"/>
	</g>
	<g>
		<circle fill="#252626" cx="82.5" cy="307.42032" r="14.87217"/>
	</g>
	<g>
		<path fill="#252626" d="M140.32813,70.84472c-0.21191,0-0.42383-0.08105-0.58594-0.24219
			c-4.02832-4.03027-8.49512-7.64063-13.27637-10.7334c-0.38379-0.24805-0.49414-0.76074-0.24512-1.14551
			s0.76074-0.49219,1.14551-0.24512c4.87793,3.15527,9.43652,6.83984,13.54785,10.95215c0.32324,0.32422,0.32324,0.84863,0,1.17188
			C140.75195,70.76366,140.54004,70.84472,140.32813,70.84472z"/>
	</g>
	<g>
		<path fill="#252626" d="M25.20313,71.14843c-0.21191,0-0.42383-0.08105-0.58594-0.24219
			c-0.32324-0.32422-0.32324-0.84863,0-1.17188c4.15039-4.14941,8.75-7.86035,13.67285-11.03125
			c0.38477-0.24902,0.89746-0.13672,1.14453,0.24805c0.24805,0.38379,0.13672,0.89648-0.24805,1.14453
			c-4.82324,3.10742-9.33105,6.74414-13.39746,10.81055C25.62695,71.06738,25.41504,71.14843,25.20313,71.14843z"/>
	</g>
	<g>
		<path fill="#252626" d="M38.61328,330.74121c-0.1543,0-0.30957-0.04297-0.44922-0.13281
			c-4.87695-3.1543-9.43457-6.83984-13.54785-10.95215c-0.32324-0.32324-0.32324-0.84863,0-1.17188
			c0.32422-0.32227,0.84766-0.32227,1.17188,0c4.03027,4.03027,8.49707,7.6416,13.27637,10.7334
			c0.38379,0.24805,0.49414,0.76074,0.24512,1.14551C39.15137,330.6084,38.88477,330.74121,38.61328,330.74121z"/>
	</g>
	<g>
		<path fill="#252626" d="M125.97461,330.3623c-0.27246,0-0.53906-0.13379-0.69727-0.37988
			c-0.24805-0.38379-0.13672-0.89648,0.24805-1.14453c4.82423-3.10742,9.33105-6.74512,13.39648-10.81055
			c0.32422-0.32227,0.84766-0.32227,1.17188,0c0.32324,0.32324,0.32324,0.84863,0,1.17188
			c-4.14844,4.14844-8.74805,7.86035-13.67188,11.03125C126.2832,330.32031,126.12793,330.3623,125.97461,330.3623z"/>
	</g>
	<g>
		<g>
			<path fill="#252626" d="M109.18164,317.0498l1.8418,1.85352l0.34277-0.05273l-0.32422-2.08984l0.78027-0.12012l0.66211,4.27344
				l-1.53027,0.2373c-0.28906,0.04492-0.57617-0.02832-0.81934-0.20605c-0.24219-0.17676-0.39844-0.42871-0.44238-0.7168
				c-0.06543-0.42676,0.12598-0.84961,0.4707-1.08691l-1.92871-1.94531L109.18164,317.0498z M110.73633,319.74707
				c-0.16797,0.02539-0.29102,0.18555-0.26367,0.36035c0.02637,0.17285,0.19238,0.29004,0.36035,0.26367l0.75-0.11621
				l-0.09668-0.625L110.73633,319.74707z"/>
		</g>
		<g>
			<path fill="#252626" d="M106.57031,317.77832l1.71875,3.96973l-2.61523,1.13184l-0.31348-0.72461l1.86816-0.80859
				l-0.25391-0.58594l-1.62793,0.70605l-0.32129-0.74219l1.62793-0.7041l-0.51074-1.18262l-1.81836,0.78711l-0.31836-0.73633
				L106.57031,317.77832z"/>
		</g>
		<g>
			<path fill="#252626" d="M100.92969,320.97949l4.04883,2.25684l-0.67383,0.55957l-2.82031-1.58008l1.03125,3.06738
				l-0.66699,0.55469l-1.48535-4.38965L100.92969,320.97949z"/>
		</g>
		<g>
			<path fill="#252626" d="M97.82813,324.0332l3.54688,2.47461l-1.62988,2.33691l-0.64844-0.45215l1.16504-1.66895l-0.52246-0.36426
				l-1.01563,1.4541l-0.66309-0.46289l1.01563-1.4541l-1.05664-0.7373l-1.13281,1.62402l-0.6582-0.45801L97.82813,324.0332z"/>
		</g>
		<g>
			<path fill="#252626" d="M94.3125,330.87793l2.49805-0.7666l0.11133-0.32715l-1.99707-0.68652l0.25684-0.74707l4.08789,1.40625
				l-0.50391,1.46387c-0.09473,0.27539-0.29297,0.49609-0.5625,0.62793s-0.56641,0.15234-0.8418,0.05762
				c-0.40723-0.13965-0.69141-0.50684-0.74219-0.92285L94,331.78418L94.3125,330.87793z M97.42188,330.75781
				c-0.05469,0.16113,0.03027,0.34473,0.19629,0.40234c0.16699,0.05664,0.3457-0.03613,0.40137-0.19629l0.24707-0.71777
				l-0.59668-0.2041L97.42188,330.75781z"/>
		</g>
		<g>
			<path fill="#252626" d="M93.64063,334.70996c0.12207-0.44238,0.36914-0.86426,0.72852-1.22363l0.11133-0.1084l0.57031,0.57422
				l-0.11133,0.1084c-0.26172,0.2627-0.44629,0.56152-0.52734,0.86035v0.00586c-0.02441,0.08984-0.04297,0.17969-0.04883,0.27148
				c-0.00977,0.15137,0.01074,0.29199,0.05762,0.41016c0.0498,0.15039,0.17285,0.33008,0.4209,0.34668
				c0.13281,0.00879,0.24121-0.05176,0.33594-0.18555c0.11426-0.16211,0.18359-0.38965,0.22559-0.5498
				c0.0166-0.07324,0.18652-0.68262,0.36328-0.95703c0.12793-0.17969,0.2832-0.31445,0.45996-0.40723
				c0.18262-0.09082,0.37988-0.12598,0.5918-0.1123c0.23047,0.01563,0.45508,0.10352,0.65918,0.25879
				c0.16602,0.14355,0.2998,0.33594,0.3877,0.56152s0.12695,0.4707,0.10938,0.73145
				c-0.00781,0.10254-0.02734,0.21191-0.04688,0.31934c-0.09961,0.39551-0.30762,0.77734-0.62207,1.10352l-0.10449,0.10938
				l-0.58984-0.55859l0.10547-0.10742c0.34766-0.37305,0.44238-0.70898,0.45703-0.92578
				c0.00977-0.14063-0.01172-0.26855-0.05273-0.38086c-0.06836-0.17578-0.20605-0.29492-0.35156-0.30469
				c-0.13281-0.00879-0.2207,0.0332-0.30762,0.14453c-0.08691,0.10938-0.15918,0.28125-0.23828,0.55566
				c-0.00879,0.03613-0.02441,0.08496-0.04004,0.13086c-0.06445,0.25195-0.16113,0.58691-0.31641,0.81348
				c-0.12305,0.19824-0.28516,0.3457-0.46875,0.44336c-0.18262,0.09766-0.39258,0.1377-0.61133,0.12305
				c-0.27246-0.01855-0.50977-0.10742-0.70605-0.2666c-0.16699-0.13965-0.30566-0.33789-0.41113-0.59473
				c-0.09375-0.21973-0.12695-0.45898-0.10742-0.75586C93.57227,335.00391,93.60059,334.85938,93.64063,334.70996z"/>
		</g>
		<g>
			<path fill="#252626" d="M93.69922,338.92969l4.24414-0.84961l0.55859,2.7959l-0.77539,0.1543l-0.39844-1.99609l-0.62695,0.12402
				l0.34863,1.74121l-0.79199,0.1582l-0.34863-1.74023l-1.2627,0.25293l0.3877,1.94238l-0.78613,0.15723L93.69922,338.92969z"/>
		</g>
		<g>
			<path fill="#252626" d="M97.88086,348.59277c-0.21582-0.4043-0.32617-0.88086-0.3125-1.38867l0.00684-0.1543l0.80762,0.02539
				l-0.00586,0.15332c-0.00879,0.37012,0.06152,0.71289,0.20801,0.98535l0.00488,0.00586
				c0.04297,0.08105,0.0918,0.16016,0.15039,0.22852c0.09668,0.11816,0.20898,0.20605,0.32422,0.25977
				c0.13965,0.07422,0.35156,0.11914,0.54297-0.03809c0.10352-0.08594,0.13965-0.20313,0.11719-0.36426
				c-0.0293-0.19824-0.13477-0.41016-0.21582-0.55566c-0.03711-0.06445-0.33301-0.62207-0.39355-0.94336
				c-0.03125-0.21875-0.01172-0.42285,0.05371-0.61035c0.07031-0.19238,0.18848-0.35352,0.35254-0.48926
				c0.17773-0.14648,0.40137-0.23828,0.65527-0.26563c0.2207-0.00977,0.44824,0.03809,0.66797,0.1416
				c0.21777,0.10156,0.41504,0.25391,0.58203,0.45605c0.06543,0.0791,0.12598,0.1709,0.18555,0.26367
				c0.19922,0.35449,0.31055,0.77539,0.30664,1.22754l-0.00098,0.15039l-0.81055,0.00098l0.00098-0.15137
				c-0.00391-0.50879-0.16406-0.81738-0.30273-0.98535c-0.08984-0.10742-0.19434-0.18652-0.30176-0.24023
				c-0.16895-0.08008-0.35059-0.07129-0.46289,0.02148c-0.10352,0.08398-0.1377,0.17676-0.125,0.31543
				c0.0127,0.13965,0.07813,0.3125,0.20898,0.56738c0.01855,0.03223,0.04004,0.07715,0.06152,0.12207
				c0.12598,0.22852,0.28613,0.53613,0.3291,0.80762c0.04785,0.22949,0.03125,0.44727-0.03516,0.64355
				c-0.06543,0.19629-0.19043,0.37012-0.35938,0.50977c-0.20996,0.17383-0.44336,0.27246-0.69531,0.29102
				c-0.2168,0.01465-0.45313-0.03418-0.70605-0.14844c-0.21973-0.09375-0.40723-0.24512-0.59766-0.47559
				C98.0332,348.85156,97.95508,348.72852,97.88086,348.59277z"/>
		</g>
		<g>
			<path fill="#252626" d="M100.73633,351.55469l2.52734-3.50488l1.25586,0.90625c0.24023,0.17383,0.40039,0.42969,0.44727,0.72656
				c0.04395,0.29297-0.01758,0.58594-0.19141,0.82715c-0.3584,0.49707-1.05469,0.60059-1.55273,0.24121l-0.59961-0.43164
				l-1.23242,1.70801L100.73633,351.55469z M103.6875,350.10742c0.13867,0.09863,0.32813,0.06348,0.42773-0.07422
				c0.09961-0.13672,0.07227-0.33691-0.06055-0.43359l-0.60059-0.43262l-0.36621,0.50684L103.6875,350.10742z"/>
		</g>
		<g>
			<path fill="#252626" d="M107.01172,355.00684l0.01953-1.24902l-1.33301-0.53125l-0.85059,0.91699l-0.80664-0.32129
				l3.15039-3.40527l0.68359,0.27344l-0.05078,4.63965L107.01172,355.00684z M107.03516,352.89453l0.0166-1.125l-0.7627,0.82813
				L107.03516,352.89453z"/>
		</g>
		<g>
			<path fill="#252626" d="M110.8877,355.74219c-0.25684-0.1377-0.48633-0.32129-0.67383-0.54395
				c-0.19531-0.22461-0.33789-0.47949-0.4248-0.76172c-0.09766-0.28809-0.13281-0.58301-0.10742-0.89258
				c0.10352-1.24023,1.20508-2.16504,2.44629-2.06152c0.35059,0.02832,0.69434,0.14355,0.99023,0.32617
				c0.2959,0.17676,0.55469,0.43652,0.7373,0.73242l0.08691,0.12988l-0.68848,0.42285l-0.08008-0.12891
				c-0.24219-0.3916-0.64746-0.63867-1.11328-0.67773c-0.7998-0.06738-1.50781,0.52539-1.57422,1.32422
				c-0.06641,0.80566,0.53125,1.51367,1.33105,1.58105c0.45996,0.03809,0.90137-0.1377,1.20996-0.4834l0.10059-0.1084
				l0.60156,0.52539l-0.10645,0.11328c-0.23633,0.26758-0.52051,0.46875-0.84863,0.59961
				c-0.32129,0.13184-0.67285,0.18164-1.02441,0.15234C111.44727,355.96484,111.15625,355.87988,110.8877,355.74219z"/>
		</g>
		<g>
			<path fill="#252626" d="M115.98438,355.83008l-0.87305-4.24121l2.79395-0.5752l0.15918,0.77441l-1.99512,0.41016l0.12891,0.62598
				l1.73828-0.35938l0.16309,0.79297l-1.73828,0.3584l0.25977,1.2627l1.94141-0.39941l0.16211,0.78613L115.98438,355.83008z"/>
		</g>
		<g>
			<path fill="#252626" d="M121.59082,354.11719l-1.57129-3.15527l-0.95117,0.47266l-0.35742-0.71777l2.63281-1.31055
				l0.35742,0.71875l-0.95215,0.47266l1.57129,3.15625L121.59082,354.11719z"/>
		</g>
		<g>
			<path fill="#252626" d="M125.05078,352.03516l-2.66992-3.40039l0.63965-0.50293l2.66895,3.39941L125.05078,352.03516z"/>
		</g>
		<g>
			<path fill="#252626" d="M129.50781,347.39551l-2.29688-1.75488l0.54004,1.83398l-1.90723-0.04199l2.29688,1.75293
				l-0.48926,0.64258l-3.43652-2.62402l0.46094-0.60254l1.98926,0.04395l-0.56738-1.9082l0.46484-0.60742l3.43555,2.62305
				L129.50781,347.39551z"/>
		</g>
		<g>
			<path fill="#252626" d="M131.12012,344.56348l-4.04004-1.55371l1.02246-2.66016l0.7373,0.28418l-0.73047,1.89941l0.59668,0.22949
				l0.63574-1.65723l0.75586,0.29004l-0.63672,1.6582l1.20215,0.46191l0.71094-1.85059l0.74902,0.28809L131.12012,344.56348z"/>
		</g>
	</g>
	<g>
		<g>
			<path fill="#252626" d="M44.83984,354.77637c-0.22266-0.18848-0.40723-0.41602-0.54395-0.6748
				c-0.14355-0.25977-0.22949-0.54004-0.25391-0.83398c-0.03418-0.30371-0.00684-0.60059,0.08398-0.89648
				c0.36426-1.19238,1.63867-1.86426,2.83008-1.5c0.33691,0.10254,0.65039,0.28711,0.89941,0.5293
				c0.25293,0.23633,0.45117,0.54492,0.56738,0.87305l0.05664,0.14453l-0.76172,0.26953l-0.05176-0.14355
				c-0.15332-0.43457-0.49805-0.7627-0.94629-0.89941c-0.76758-0.23535-1.58691,0.19531-1.82129,0.96289
				c-0.23633,0.77344,0.2002,1.59375,0.96777,1.82813c0.44141,0.13574,0.91113,0.05664,1.28711-0.2168l0.12109-0.08301
				l0.47754,0.6416l-0.12793,0.08789c-0.28809,0.21094-0.60938,0.34766-0.95801,0.40723
				c-0.34277,0.06055-0.69824,0.03418-1.03418-0.06934C45.33984,355.11426,45.07324,354.96973,44.83984,354.77637z"/>
		</g>
		<g>
			<path fill="#252626" d="M49.56738,353.81543c-0.04492-1.25293,0.93359-2.30469,2.18066-2.34863
				c1.25195-0.04492,2.30273,0.93359,2.34766,2.18652c0.04492,1.24609-0.93457,2.29102-2.18652,2.33594
				C50.66309,356.0332,49.61133,355.06055,49.56738,353.81543z M50.38184,353.78613
				c0.02832,0.80176,0.70215,1.42969,1.49902,1.40039c0.7959-0.02734,1.42285-0.70215,1.39453-1.50391
				c-0.0293-0.80859-0.70313-1.43555-1.49902-1.40723S50.35254,352.97754,50.38184,353.78613z"/>
		</g>
		<g>
			<path fill="#252626" d="M57.41992,354.9248c-0.4541,0.06348-0.93945,0.00195-1.41113-0.18555l-0.14355-0.05957l0.30273-0.75
				l0.14355,0.05859c0.34375,0.13574,0.69043,0.18848,0.99707,0.14453l0.00586-0.00195
				c0.0918-0.0127,0.18164-0.03125,0.26855-0.06152c0.14258-0.05078,0.26367-0.12598,0.35547-0.21582
				c0.11719-0.10547,0.23242-0.28809,0.15039-0.52344c-0.04395-0.12598-0.1416-0.20117-0.30176-0.23535
				c-0.19434-0.04102-0.43066-0.01563-0.59473,0.01074c-0.07324,0.0127-0.7002,0.09766-1.02246,0.04395
				c-0.21582-0.04688-0.40234-0.13574-0.55566-0.26172c-0.15625-0.13281-0.2666-0.29883-0.33691-0.5
				c-0.07617-0.21777-0.08496-0.45996-0.02441-0.70703c0.06836-0.21094,0.19238-0.4082,0.36328-0.57813
				c0.17188-0.1709,0.38379-0.30273,0.62988-0.38965c0.09766-0.03418,0.2041-0.05957,0.3125-0.08398
				c0.40234-0.06445,0.83496-0.02441,1.25879,0.13672l0.1416,0.05371l-0.2793,0.76172l-0.1416-0.05371
				c-0.47949-0.17285-0.8252-0.12891-1.03125-0.05664c-0.13184,0.04688-0.24219,0.11816-0.3291,0.20117
				c-0.13379,0.12988-0.18945,0.30371-0.14063,0.44141c0.04395,0.12598,0.11816,0.19043,0.25391,0.22656
				s0.32227,0.03516,0.60547-0.00098c0.03613-0.00586,0.08691-0.01074,0.13672-0.01563
				c0.25586-0.03906,0.60156-0.08301,0.87109-0.03027c0.23145,0.03516,0.43066,0.12598,0.5918,0.25586
				c0.16309,0.12988,0.2832,0.30664,0.35547,0.5127c0.08984,0.25781,0.10254,0.51074,0.03418,0.75488
				c-0.0625,0.20801-0.19043,0.41406-0.38477,0.61133c-0.16309,0.1748-0.37109,0.29883-0.65234,0.39746
				C57.71777,354.87207,57.57422,354.90332,57.41992,354.9248z"/>
		</g>
		<g>
			<path fill="#252626" d="M63.85059,351.38965l-1.72852-2.31738l0.0166,1.91211l-1.82422-0.56543l1.72949,2.31934l-0.64746,0.4834
				l-2.58594-3.46875l0.6084-0.45313l1.90332,0.58984l-0.02344-1.99219l0.61426-0.45703l2.58594,3.4668L63.85059,351.38965z"/>
		</g>
		<g>
			<path fill="#252626" d="M66.32031,348.87793l-3.38281-2.69629l0.50781-0.63672l3.38281,2.69629L66.32031,348.87793z"/>
		</g>
		<g>
			<path fill="#252626" d="M68.62988,345.20898c-0.21777,0.19336-0.46973,0.34375-0.74414,0.44238
				c-0.27734,0.10547-0.56738,0.15039-0.86035,0.13281c-0.30469-0.00879-0.59375-0.07715-0.875-0.20801
				c-1.12598-0.52832-1.61133-1.88184-1.08301-3.00879c0.14844-0.31934,0.375-0.60156,0.64941-0.81543
				c0.26953-0.21582,0.60156-0.36816,0.94238-0.43652l0.15137-0.03613l0.15918,0.79199l-0.14941,0.03027
				c-0.45117,0.09082-0.82324,0.38574-1.02148,0.80859c-0.33984,0.72559-0.03027,1.59473,0.69531,1.93457
				c0.73047,0.34277,1.60254,0.02832,1.94238-0.69824c0.19629-0.41797,0.18457-0.89258-0.03223-1.30273l-0.06641-0.13086
				l0.70117-0.38184l0.07031,0.13965c0.16699,0.31348,0.25781,0.65039,0.2666,1.00293
				c0.01172,0.34766-0.06348,0.69434-0.21387,1.0127C69.03418,344.76172,68.85254,345.00488,68.62988,345.20898z"/>
		</g>
		<g>
			<path fill="#252626" d="M70.80762,334.54785l-4.12109,2.12402l-0.09473-0.87012l2.87891-1.47656l-3.12695-0.83691
				l-0.09277-0.86328l4.47754,1.19238L70.80762,334.54785z"/>
		</g>
		<g>
			<path fill="#252626" d="M68.1416,331.40039c-1.14844,0.49805-2.4834-0.03027-2.97852-1.17383
				c-0.49805-1.14844,0.0293-2.4834,1.17871-2.98145c1.14355-0.49512,2.47266,0.03418,2.97168,1.18359
				C69.80859,329.57227,69.28516,330.9043,68.1416,331.40039z M67.81836,330.65332c0.73633-0.31934,1.07422-1.17578,0.75781-1.90527
				c-0.31641-0.73047-1.17285-1.06934-1.9082-0.75c-0.74121,0.32129-1.0791,1.17676-0.76367,1.90723
				C66.22168,330.63574,67.07617,330.97363,67.81836,330.65332z"/>
		</g>
		<g>
			<path fill="#252626" d="M67.01758,324.56543l-3.41602,2.64648l-0.49805-0.64258l3.41602-2.64746L67.01758,324.56543z"/>
		</g>
		<g>
			<path fill="#252626" d="M64.95313,322.10254l-2.72266,3.36523l-1.12988-0.91406c-0.9502-0.76953-1.11328-2.15234-0.36426-3.07813
				c0.74902-0.92773,2.13672-1.05664,3.08691-0.28809L64.95313,322.10254z M63.32227,321.80664
				c-0.60449-0.48828-1.4834-0.40918-1.95703,0.17676c-0.47461,0.58594-0.36914,1.46191,0.23633,1.95117l0.50098,0.40527
				l1.7207-2.12695L63.32227,321.80664z"/>
		</g>
	</g>
	<g>
		<g>
			<path fill="#252626" d="M88.00223,375.83594H77.53596c-1.77142,0-3.20745-1.43604-3.20745-3.20746v-26.33145
				c0-1.77142,1.43603-3.20746,3.20745-3.20746h10.46626c1.77142,0,3.20745,1.43604,3.20745,3.20746v26.33145
				C91.20968,374.3999,89.77365,375.83594,88.00223,375.83594z"/>
		</g>
		<g>
			<g>
				<path fill="#E6E5E5" d="M86.61544,363.94235c-0.11426,0.26346-0.26582,0.48096-0.45468,0.65222
					c-0.1891,0.17126-0.40401,0.29843-0.64568,0.3822c-0.24188,0.08353-0.49434,0.12506-0.75781,0.12506
					c-0.44812,0-0.79723-0.0657-1.04757-0.19757c-0.25034-0.13184-0.44601-0.28552-0.58631-0.46124
					c-0.14969-0.19333-0.244-0.40848-0.28342-0.64566c-0.03965-0.23721-0.05936-0.4744-0.05936-0.71161
					c0-0.33411,0.00681-0.56448,0.01971-0.69189c0.01337-0.12762,0.02839-0.19989,0.04622-0.2175
					c0.03496-0.02649,0.17995-0.0394,0.43475-0.0394h3.08382c0.08775,0,0.16024,0.00656,0.21749,0.01971
					c0.05678,0.01312,0.10088,0.0481,0.13162,0.10535c0.03073,0.05701,0.05044,0.14264,0.05936,0.2569
					c0.00867,0.11426,0.01337,0.2724,0.01337,0.4744C86.78696,363.36237,86.72948,363.67886,86.61544,363.94235 M81.29196,351.1207
					c0.01173-0.08282,0.04739-0.14828,0.10699-0.19589c0.05936-0.04739,0.15414-0.07721,0.28506-0.08917
					c0.13068-0.01172,0.31485-0.01782,0.55252-0.01782c0.92674,0,1.6367,0.25833,2.12986,0.77518
					c0.49294,0.51688,0.73975,1.20923,0.73975,2.0766c0,0.08212-0.01713,0.25925-0.02792,0.3808
					c-0.06827-0.00095-0.13654-0.00189-0.20482-0.0033c-0.18699-0.004-0.39017-0.01431-0.60954-0.03049
					c-0.0488,0.02438-0.07508,0.07108-0.0793,0.14005c-0.00399,0.06921,0.01408,0.12411,0.05514,0.1647l0.21913,0.02441
					c0.1464,0.01617,0.26817,0.04269,0.36577,0.07907c0.0976,0.03659,0.1464,0.07532,0.1464,0.11591
					s-0.02441,0.11591-0.0732,0.22546c-0.04881,0.1098-0.1138,0.24188-0.19497,0.39603
					c-0.08141,0.1546-0.16892,0.31931-0.26207,0.49387c-0.09361,0.1748-0.18112,0.33951-0.26231,0.49365
					c-0.18699,0.35779-0.37773,0.70901-0.57293,1.05435c-0.19498,0.34561-0.38596,0.68088-0.57271,1.00583
					c-0.23603-0.42255-0.4676-0.86551-0.69494-1.32864c-0.22758-0.46338-0.45516-0.9223-0.68274-1.37769
					c-0.01643-0.03238-0.04458-0.09314-0.08517-0.18277c-0.04082-0.08914-0.08353-0.18463-0.12811-0.28647
					c-0.04481-0.10159-0.08352-0.19684-0.1159-0.28647c-0.03261-0.08939-0.04856-0.15039-0.04856-0.18277
					c0-0.0488,0.03214-0.08728,0.09736-0.11591c0.06499-0.02838,0.20319-0.06287,0.41457-0.10345l0.15837-0.02441
					c0.04059-0.04059,0.05889-0.0976,0.0549-0.17078c-0.00423-0.07297-0.03473-0.1178-0.09127-0.13397
					c-0.17315,0.01361-0.38548,0.02347-0.63722,0.02933v-2.58643C81.27413,351.31683,81.28,351.20398,81.29196,351.1207
					 M82.30128,360.2457c0,0.3252-0.00422,0.58514-0.0122,0.78012c-0.00821,0.19495-0.03659,0.34747-0.0854,0.45703
					c-0.01736,0.0394-0.03801,0.07413-0.06171,0.1044c-0.00047,0.00024-0.00117,0.0007-0.00165,0.00095
					c-0.14194-0.02722-0.2616-0.05865-0.35825-0.09457c-0.16048-0.05936-0.27615-0.16632-0.34747-0.32071
					s-0.1159-0.37115-0.13373-0.6506c-0.01784-0.27896-0.02675-0.65057-0.02675-1.11371v-2.53787l0.63722,1.24161
					c0.08916,0.17078,0.16024,0.31506,0.21326,0.43286c0.0528,0.11801,0.09127,0.22757,0.11567,0.32916
					c0.0244,0.10184,0.04059,0.20929,0.0488,0.32306c0.00798,0.1138,0.0122,0.25598,0.0122,0.42654v0.62173H82.30128z
					 M87.33221,361.75311c0.05278-0.14639,0.10534-0.30264,0.15836-0.46924c0.0528-0.16656,0.10159-0.32916,0.1464-0.48776
					c0.04458-0.15836,0.07907-0.29047,0.10371-0.39627c-0.02464-0.05655-0.07133-0.09314-0.1403-0.10956
					c-0.06921-0.0162-0.12388-0.00821-0.1647,0.02438c-0.16259,0.31674-0.31885,0.57693-0.46924,0.78012
					c-0.15038,0.2034-0.28247,0.33737-0.39603,0.40237c-0.06522,0.03259-0.1403,0.06076-0.2257,0.08517
					c-0.08517,0.02438-0.18699,0.04269-0.30477,0.05487c-0.11777,0.01221-0.25996,0.02255-0.42654,0.03052
					c-0.16657,0.00821-0.36787,0.01221-0.60343,0.01221c-0.26817,0-0.48965-0.008-0.66444-0.02441
					c-0.17479-0.01617-0.31487-0.03659-0.42043-0.06076c-0.10582-0.02463-0.1891-0.05301-0.24987-0.08539
					c-0.061-0.03238-0.10793-0.069-0.14031-0.1098c-0.0976-0.10559-0.16048-0.26208-0.18887-0.46924
					c-0.02862-0.2074-0.0427-0.47348-0.0427-0.79865v-0.8045c0.00188-0.11145,0.00517-0.20999,0.00986-0.29446
					c0.00797-0.15015,0.03027-0.29044,0.06686-0.42041c0.0366-0.13,0.09338-0.2684,0.1708-0.41458
					c0.0183-0.03497,0.03895-0.07272,0.06077-0.1124c0.02933-0.00092,0.05982-0.0014,0.09385-0.0014h0.70714
					c0.23556,0,0.42864,0.004,0.57903,0.01221c0.15015,0.00797,0.27005,0.02417,0.35966,0.04855
					c0.12177,0.03262,0.20905,0.08963,0.26207,0.17081c0.0528,0.08118,0.09127,0.1788,0.11591,0.29257l0.10957,0.47534
					c0.03238,0.04083,0.08728,0.0589,0.16447,0.0549c0.07718-0.004,0.1281-0.02628,0.1525-0.06711
					c0-0.13818-0.00821-0.31274-0.0244-0.52414c-0.01643-0.2114-0.02441-0.42676-0.02441-0.64612
					c0-0.23557,0.00798-0.46313,0.02441-0.68253c0.01619-0.2196,0.0244-0.40234,0.0244-0.54877
					c-0.0244-0.04034-0.07532-0.06287-0.1525-0.06708c-0.07719-0.00375-0.1321,0.01428-0.16447,0.0549l-0.09737,0.49997
					c-0.03261,0.15436-0.07133,0.25806-0.1159,0.31085c-0.04482,0.0528-0.1037,0.09128-0.17667,0.11566
					c-0.0732,0.02441-0.19943,0.04269-0.37797,0.0549c-0.17902,0.01221-0.39839,0.01831-0.65834,0.01831h-0.55089
					c0.00423-0.00681,0.00797-0.01315,0.0122-0.02017l0.76791-1.32864c0.15414-0.26019,0.29445-0.50186,0.42067-0.72543
					c0.12576-0.22336,0.24987-0.42068,0.37164-0.59125c0.122-0.17056,0.24776-0.30875,0.37798-0.41434
					c0.02698-0.02182,0.05466-0.04153,0.08305-0.06006c0.08258,0.03284,0.15531,0.07156,0.21796,0.11685
					c0.10159,0.07294,0.18464,0.15836,0.24987,0.25595c0.06499,0.09738,0.11777,0.20718,0.1586,0.32895
					c0.04035,0.12198,0.08517,0.2562,0.13397,0.40234c0.03237,0.04083,0.0854,0.05704,0.1586,0.04883
					c0.07297-0.008,0.12176-0.03238,0.14616-0.07321c-0.01643-0.12997-0.0305-0.27826-0.04247-0.44482
					c-0.01244-0.1666-0.02675-0.32919-0.04293-0.48755c-0.01619-0.1586-0.03754-0.30008-0.05467-0.42676
					c-0.04247-0.31348-0.03284-0.58118-0.03284-0.58118c0-0.61749-0.17525-1.15735-0.44273-1.60922
					c-0.26723-0.45142-0.60907-0.8078-1.02481-1.06915c-0.41598-0.26138-0.90305-0.44556-1.46143-0.55255
					c-0.55862-0.10696-1.21204-0.16046-1.96047-0.16046c-0.74866,0-1.40536,0.00891-1.96938,0.02673
					c-0.5645,0.01785-1.08441,0.05655-1.55975,0.11591c-0.07109,0.03568-0.10981,0.10419-0.11567,0.20483
					c-0.0061,0.1011,0.02041,0.18137,0.08024,0.24072l0.64145,0.07132c0.202,0.02393,0.3592,0.06241,0.47252,0.11591
					c0.11262,0.05325,0.19591,0.15131,0.2494,0.29398c0.05349,0.14264,0.08611,0.33267,0.09807,0.57034
					c0.01173,0.23767,0.01783,0.54666,0.01783,0.92676v6.57681c0,0.46313-0.0061,0.83475-0.01783,1.11371
					c-0.01196,0.27945-0.0535,0.49622-0.12482,0.6506s-0.1783,0.26135-0.32072,0.32071
					c-0.14265,0.0596-0.34489,0.10699-0.60601,0.14267l-0.37445,0.0535c-0.0542,0.0542-0.07837,0.12833-0.0732,0.22171
					c-0.00047,0.19073-0.00258,0.25128-0.00657,0.46619c-0.00422,0.24609-0.01549,0.52109-0.03355,0.82538
					c0.01806,0.0448,0.06921,0.07156,0.15437,0.08072c0.08493,0.00867,0.14546-0.00916,0.18137-0.05374l0.04012-0.28201
					c0.02699-0.19684,0.06264-0.34888,0.10745-0.45609c0.04482-0.10745,0.12529-0.18793,0.24166-0.24167
					c0.11613-0.05371,0.27943-0.08539,0.48988-0.0943c0.21022-0.0087,0.48988-0.01315,0.83899-0.01315h1.69113
					c0.07156,0,0.12763,0.00446,0.16798,0.01315c0.04012,0.00891,0.06921,0.03378,0.08704,0.07413
					c0.01783,0.04013,0.02909,0.10275,0.03378,0.18768c0.00423,0.08517,0.00658,0.20343,0.00658,0.35568
					c0,0.26865-0.03355,0.46994-0.10065,0.60416c-0.0671,0.13419-0.17667,0.25058-0.32894,0.34912
					c-0.15226,0.10745-0.32001,0.21912-0.50325,0.33548c-0.18371,0.11615-0.36718,0.23251-0.55042,0.34888
					c-0.18347,0.11639-0.36014,0.2283-0.53024,0.33575c-0.1701,0.10721-0.31767,0.20575-0.44296,0.29514
					c-0.3402,0.24167-0.61987,0.46759-0.839,0.67804c-0.21912,0.21024-0.39134,0.42279-0.51662,0.63748
					c-0.12552,0.21466-0.21256,0.44061-0.26183,0.6778c-0.04903,0.23721-0.07367,0.49881-0.07367,0.78528
					c0,0.25949,0.02229,0.45657,0.06686,0.59052c0.02699,0.03592,0.06053,0.05164,0.10089,0.04718
					c0.04012-0.0047,0.06921-0.02487,0.08728-0.06055c0.01759-0.17902,0.06029-0.34888,0.1274-0.50983
					c0.06709-0.16116,0.14968-0.30008,0.24846-0.4162c0.18793-0.23276,0.40025-0.45187,0.63746-0.65787
					c0.23696-0.20578,0.49879-0.41599,0.78526-0.63089c0.28623-0.21469,0.60837-0.43616,0.96639-0.66422
					c0.3578-0.22827,0.75172-0.47675,1.1813-0.74515c0.05372-0.03589,0.10932-0.06497,0.16775-0.08728
					c0.05795-0.02252,0.10957-0.01572,0.15438,0.02017c0.06241,0.16989,0.15649,0.35123,0.28177,0.54361
					c0.12529,0.19241,0.27967,0.37375,0.46314,0.54385c0.18347,0.16986,0.39815,0.31064,0.64426,0.42279
					c0.24612,0.11166,0.53024,0.16776,0.85237,0.16776c0.4744,0,0.86362-0.10535,1.16793-0.31558
					c0.30406-0.21021,0.54126-0.4765,0.71136-0.79861c0.16987-0.31323,0.27967-0.66,0.32894-1.04007
					c0.04903-0.38055,0.07554-0.78104,0.07367-1.20172C87.1919,362.24911,87.33221,361.75311,87.33221,361.75311"/>
			</g>
		</g>
	</g>
	<g>
		<g>
			<path fill="#252626" d="M2.5,23.66601c-0.11035,0-0.2207-0.02051-0.32031-0.06055s-0.18945-0.09961-0.26953-0.17969
				c-0.07031-0.08008-0.13086-0.16992-0.18066-0.27051c-0.04004-0.09961-0.05957-0.19922-0.05957-0.30957
				s0.01953-0.21973,0.07031-0.32031c0.03906-0.09961,0.09961-0.18945,0.16992-0.26953
				c0.08008-0.08008,0.16992-0.13965,0.26953-0.17969c0.20996-0.08008,0.42969-0.08008,0.63965,0
				c0.10059,0.04004,0.19043,0.09961,0.26074,0.17969c0.08008,0.08008,0.13965,0.16992,0.18945,0.26953
				c0.04004,0.10059,0.06055,0.20996,0.06055,0.32031s-0.02051,0.20996-0.06055,0.30957
				c-0.0498,0.10059-0.10938,0.19043-0.18945,0.27051c-0.07031,0.08008-0.16016,0.13965-0.26074,0.17969
				C2.71973,23.6455,2.60938,23.66601,2.5,23.66601z"/>
		</g>
		<g>
			<path fill="#252626" d="M13.20996,22.84569c0-0.45996,0.37012-0.83008,0.83008-0.83008l0,0
				c0.45996,0,0.83008,0.37012,0.83008,0.83008l0,0c0,0.4502-0.37012,0.82031-0.83008,0.82031l0,0
				C13.58008,23.66601,13.20996,23.29589,13.20996,22.84569z M7.43945,22.84569c0-0.45996,0.37012-0.83008,0.83008-0.83008l0,0
				c0.45996,0,0.83008,0.37012,0.83008,0.83008l0,0c0,0.4502-0.37012,0.82031-0.83008,0.82031l0,0
				C7.80957,23.66601,7.43945,23.29589,7.43945,22.84569z"/>
		</g>
		<g>
			<path fill="#252626" d="M19.80957,23.66601c-0.10938,0-0.20996-0.02051-0.31934-0.06055
				c-0.09082-0.04004-0.19043-0.09961-0.26074-0.17969c-0.08008-0.08008-0.13965-0.16992-0.17969-0.27051
				c-0.04004-0.09961-0.07031-0.19922-0.07031-0.30957s0.03027-0.21973,0.07031-0.32031
				c0.04004-0.09961,0.09961-0.18945,0.17969-0.26953c0.07031-0.08008,0.16016-0.13965,0.27051-0.17969
				c0.2998-0.13086,0.66992-0.05078,0.89941,0.17969c0.08008,0.08008,0.14063,0.16992,0.18066,0.26953
				c0.04004,0.10059,0.05957,0.20996,0.05957,0.32031s-0.01953,0.20996-0.05957,0.30957
				c-0.04004,0.10059-0.10059,0.19043-0.18066,0.27051C20.24023,23.58593,20.0293,23.66601,19.80957,23.66601z"/>
		</g>
	</g>
	<g>
		<g>
			<path fill="#252626" d="M145.72949,23.66601c-0.12012,0-0.21973-0.02051-0.31934-0.06055
				c-0.10059-0.04004-0.19043-0.09961-0.27051-0.17969S145,23.25585,144.95996,23.15526
				c-0.04004-0.09961-0.06055-0.20996-0.06055-0.30957c0-0.11035,0.02051-0.21973,0.06055-0.32031
				c0.04004-0.09961,0.09961-0.18945,0.17969-0.26953c0.07031-0.08008,0.16992-0.13965,0.27051-0.17969
				c0.19922-0.08008,0.42969-0.08008,0.62988,0c0.09961,0.04004,0.2002,0.09961,0.26953,0.17969
				c0.08008,0.08008,0.14063,0.16992,0.18066,0.26953c0.03906,0.10059,0.06934,0.20996,0.06934,0.32031
				c0,0.09961-0.03027,0.20996-0.06934,0.30957c-0.04004,0.10059-0.10059,0.19043-0.18066,0.27051s-0.16992,0.13965-0.26953,0.17969
				C145.93945,23.6455,145.83984,23.66601,145.72949,23.66601z"/>
		</g>
		<g>
			<path fill="#252626" d="M156.08008,22.84569c0-0.45996,0.37012-0.83008,0.83008-0.83008l0,0
				c0.44922,0,0.83008,0.37012,0.83008,0.83008l0,0c0,0.4502-0.38086,0.82031-0.83008,0.82031l0,0
				C156.4502,23.66601,156.08008,23.29589,156.08008,22.84569z M150.49023,22.84569c0-0.45996,0.36914-0.83008,0.8291-0.83008l0,0
				c0.4502,0,0.83008,0.37012,0.83008,0.83008l0,0c0,0.4502-0.37988,0.82031-0.83008,0.82031l0,0
				C150.85938,23.66601,150.49023,23.29589,150.49023,22.84569z"/>
		</g>
		<g>
			<path fill="#252626" d="M162.5,23.66601c-0.2207,0-0.43066-0.08008-0.58984-0.24023
				c-0.15039-0.16016-0.24023-0.36035-0.24023-0.58008s0.08984-0.42969,0.24023-0.58984
				c0.08008-0.08008,0.16992-0.13965,0.26953-0.17969c0.20996-0.08008,0.42969-0.08008,0.63965,0
				c0.10059,0.04004,0.19043,0.09961,0.27051,0.17969c0.07031,0.08008,0.12988,0.16992,0.16992,0.26953
				c0.0498,0.10059,0.07031,0.20996,0.07031,0.32031c0,0.21973-0.08984,0.41992-0.24023,0.58008
				C162.92969,23.58593,162.71973,23.66601,162.5,23.66601z"/>
		</g>
	</g>
	<g>
		<g>
			<path fill="#00BC8B" d="M65.50977,198.23535c-0.04004-0.44922,0.30957-0.84961,0.75977-0.87988l0,0l0,0l0,0
				c0.45996-0.04004,0.86035,0.31055,0.89063,0.76074l0,0c0.0293,0.45996-0.31055,0.85938-0.77051,0.88965l0,0
				c-0.01953,0-0.04004,0-0.05957,0l0,0C65.89941,199.00586,65.54004,198.67578,65.50977,198.23535z M61.22949,198.38574
				L61.22949,198.38574c-0.41992-0.16992-0.62988-0.65039-0.46973-1.08008l0,0c0.16992-0.41992,0.65039-0.63965,1.08008-0.46973l0,0
				c0.42969,0.16992,0.62988,0.64941,0.46973,1.08008l0,0c-0.12988,0.31934-0.43945,0.51953-0.76953,0.51953l0,0
				C61.43945,198.43555,61.33008,198.41602,61.22949,198.38574z M70.31934,197.53613
				c-0.10938-0.4502,0.16016-0.89063,0.60059-1.01074l0,0l0,0l0,0c0.43945-0.10938,0.88965,0.15039,1.00977,0.59082l0,0
				c0.11035,0.44922-0.15039,0.89941-0.58984,1.00977h-0.00977c-0.07031,0.01953-0.14063,0.0293-0.2002,0.0293l0,0
				C70.75977,198.15527,70.41992,197.90527,70.31934,197.53613z M75,196.16602c-0.14063-0.43066,0.08984-0.90039,0.51953-1.0498l0,0
				c0.43066-0.15039,0.90039,0.0791,1.0498,0.50977l0,0c0.15039,0.43945-0.0791,0.91016-0.50977,1.05957l0,0
				c-0.08984,0.03027-0.17969,0.04004-0.26953,0.04004l0,0C75.43945,196.72559,75.12012,196.50586,75,196.16602z
				 M79.58984,194.52539c-0.16016-0.42969,0.05957-0.90918,0.49023-1.06934l0,0c0.41992-0.16016,0.89941,0.0498,1.06934,0.47949l0,0
				c0.16016,0.43066-0.05957,0.91016-0.48926,1.07031l0,0c-0.09082,0.04004-0.19043,0.0498-0.29004,0.0498l0,0
				C80.0293,195.05566,79.71973,194.85547,79.58984,194.52539z M84.14941,192.7959
				c-0.14941-0.42969,0.06055-0.91016,0.49023-1.07031l0,0c0.42969-0.16016,0.91016,0.06055,1.07031,0.49023l0,0
				c0.16016,0.42969-0.06055,0.90039-0.49023,1.05957l0,0c-0.08984,0.04004-0.19043,0.06055-0.29004,0.06055l0,0
				C84.59961,193.33594,84.2793,193.12598,84.14941,192.7959z M88.74023,191.13574c-0.14063-0.44043,0.08984-0.91016,0.5293-1.0498
				l0,0c0.43066-0.14063,0.90039,0.08984,1.04004,0.53027l0,0c0.15039,0.42969-0.08984,0.89941-0.51953,1.0498l0,0
				c-0.08984,0.01953-0.18066,0.04004-0.26074,0.04004l0,0C89.17969,191.70605,88.85938,191.48535,88.74023,191.13574z
				 M103.37012,190.60547c-0.40039-0.20996-0.55078-0.71973-0.34082-1.12012l0,0c0.21094-0.39941,0.71094-0.55957,1.12012-0.33984
				l0,0c0.40039,0.20996,0.56055,0.70996,0.34082,1.11035l0,0c-0.14063,0.29004-0.43066,0.4502-0.73047,0.4502l0,0
				C103.62988,190.70605,103.5,190.66602,103.37012,190.60547z M93.41016,189.72559
				c-0.10059-0.4502,0.17969-0.88965,0.61914-0.99023l0,0c0.4502-0.09961,0.89063,0.16992,0.99023,0.62012l0,0
				c0.11035,0.4502-0.16992,0.89063-0.62012,0.99023l0,0c-0.05957,0.02051-0.12012,0.02051-0.17969,0.02051l0,0
				C93.83984,190.36621,93.49023,190.10547,93.41016,189.72559z M98.20996,188.90527
				c-0.00977-0.45996,0.35938-0.8291,0.81934-0.83984l0,0c0.4502,0,0.83008,0.36035,0.84082,0.82031l0,0
				c0,0.45996-0.36035,0.83008-0.82031,0.83984l0,0h-0.00977l0,0C98.58984,189.72559,98.21973,189.36621,98.20996,188.90527z"/>
		</g>
	</g>
	<g>
		<path fill="#252626" d="M11.91643,196.80078l1.61914-2.05566l-0.09375-0.33301l-2.03711,0.57422l-0.21387-0.76172l4.16699-1.17383
			l0.4209,1.49219c0.0791,0.28125,0.04199,0.57617-0.10449,0.83887c-0.14844,0.2627-0.37988,0.44824-0.66016,0.52734
			c-0.41602,0.11621-0.85938-0.02441-1.1377-0.33691l-1.7002,2.15234L11.91643,196.80078z M14.40862,194.92871
			c0.04688,0.16309,0.2207,0.2666,0.39063,0.21875s0.26563-0.22559,0.21875-0.38965l-0.20703-0.73242l-0.6084,0.17188
			L14.40862,194.92871z"/>
		<path fill="#252626" d="M14.5805,197.88672c1.06055-0.66602,2.45898-0.34668,3.12109,0.70703
			c0.66504,1.05957,0.3457,2.45703-0.71387,3.12402c-1.05371,0.66309-2.44629,0.34082-3.1123-0.71973
			C13.21233,199.94434,13.52678,198.54883,14.5805,197.88672z M15.01409,198.57617
			c-0.67969,0.42578-0.88281,1.32227-0.46094,1.99609c0.42383,0.67383,1.32031,0.87695,1.99902,0.45117
			c0.68457-0.42969,0.88867-1.32617,0.46484-2C16.59319,198.35059,15.69768,198.14551,15.01409,198.57617z"/>
		<path fill="#252626" d="M17.29046,204.99805l2.32031-2.65039l-0.79883-0.69922l0.52832-0.60547l2.21191,1.9375l-0.52832,0.60352
			l-0.79883-0.7002l-2.32227,2.64941L17.29046,204.99805z"/>
		<path fill="#252626" d="M22.67425,208.53223l0.14258-1.23926l-1.27246-0.65918l-0.93555,0.8291l-0.77148-0.39844l3.4668-3.0752
			l0.65234,0.33691l-0.50488,4.60938L22.67425,208.53223z M22.90471,206.43555l0.12695-1.11621l-0.83789,0.74805L22.90471,206.43555
			z"/>
		<path fill="#252626" d="M25.78753,209.55762l0.78516-3.43555l-1.03809-0.2373l0.17969-0.78125l2.86719,0.6543l-0.17871,0.78125
			l-1.03613-0.23633l-0.78613,3.4375L25.78753,209.55762z"/>
		<path fill="#252626" d="M29.81194,210.13086l0.06836-4.32422l0.81445,0.0127l-0.06836,4.32422L29.81194,210.13086z"/>
		<path fill="#252626" d="M32.35882,207.99902c-0.28809-1.21777,0.4668-2.43848,1.67969-2.72559
			c1.21875-0.28906,2.43945,0.46484,2.72656,1.68359c0.28809,1.21289-0.46875,2.42871-1.68652,2.7168
			C33.86565,209.95996,32.64495,209.21094,32.35882,207.99902z M33.15179,207.8125c0.18359,0.78027,0.96777,1.26367,1.74121,1.08008
			c0.77539-0.18359,1.25879-0.96484,1.07422-1.74609c-0.18555-0.78711-0.96777-1.26953-1.74219-1.08594
			C33.44964,206.24219,32.96526,207.02539,33.15179,207.8125z"/>
		<path fill="#252626" d="M41.77679,206.65625l-3.12695-1.39844l1.49609,2.41211l-0.69141,0.42871l-2.28223-3.67578l0.67188-0.41699
			l3.11914,1.39648l-1.49414-2.40625l0.69141-0.42969l2.2832,3.67578L41.77679,206.65625z"/>
	</g>
	<g>
		<g>
			<path fill="#252626" d="M127.32659,184.7998l-2.45898-0.8877l-0.28613,0.19434l1.18652,1.75l-0.6543,0.44434l-2.42578-3.58008
				l1.28125-0.86914c0.24023-0.16406,0.53125-0.22266,0.82617-0.16504c0.29688,0.05664,0.54492,0.21777,0.70898,0.45898
				c0.24219,0.35645,0.25,0.82129,0.04102,1.18457l2.57616,0.92969L127.32659,184.7998z M124.76604,183.02734
				c0.14063-0.09473,0.18359-0.29297,0.08398-0.43848c-0.09766-0.14551-0.29688-0.17871-0.4375-0.08398l-0.62695,0.42578
				l0.35156,0.52246L124.76604,183.02734z"/>
			<path fill="#252626" d="M127.53362,182.08887c-0.36914-1.19629,0.30078-2.46387,1.49023-2.83301
				c1.19531-0.36914,2.46484,0.30078,2.83398,1.49707c0.36719,1.19043-0.30371,2.4541-1.5,2.82324
				C129.16643,183.94336,127.90081,183.2793,127.53362,182.08887z M128.31096,181.84961
				c0.23633,0.76563,1.04883,1.19531,1.81055,0.95996c0.75977-0.23438,1.18945-1.04785,0.95313-1.81445
				c-0.24023-0.77148-1.05273-1.20117-1.8125-0.96582C128.50041,180.26367,128.07072,181.07617,128.31096,181.84961z"/>
			<path fill="#252626" d="M134.13127,182.86816l-0.02148-3.52246l-1.0625,0.00781l-0.00586-0.80273l2.94141-0.01953
				l0.00391,0.80273l-1.0625,0.00684l0.02246,3.52246L134.13127,182.86816z"/>
			<path fill="#252626" d="M139.37151,183.625l-0.13477-1.24121l-1.38867-0.36328l-0.73047,1.0166l-0.8418-0.21973l2.70703-3.76855
				l0.71094,0.1875l0.52539,4.61133L139.37151,183.625z M139.13322,181.52734l-0.12305-1.11914l-0.6543,0.91602L139.13322,181.52734
				z"/>
			<path fill="#252626" d="M141.2299,184.46777l1.7002-3.08887l-0.93262-0.5127l0.3877-0.70215l2.57617,1.41797l-0.38574,0.70215
				l-0.93262-0.5127l-1.69727,3.08887L141.2299,184.46777z"/>
			<path fill="#252626" d="M143.79436,186.14551l2.83398-3.27246l0.61621,0.5332l-2.83398,3.27148L143.79436,186.14551z"/>
			<path fill="#252626" d="M147.07854,186.04883c1.03516-0.70508,2.44727-0.44043,3.15039,0.58984
				c0.70605,1.0332,0.44141,2.44336-0.59375,3.15039c-1.02832,0.70313-2.43555,0.43359-3.14258-0.59961
				C145.79045,188.16113,146.05119,186.75293,147.07854,186.04883z M147.53947,186.72266
				c-0.66211,0.45313-0.83203,1.35547-0.38281,2.01367c0.44922,0.65723,1.35352,0.82813,2.01563,0.375
				c0.66797-0.45605,0.83789-1.35938,0.3877-2.01758C149.11076,186.43652,148.20744,186.26563,147.53947,186.72266z"/>
			<path fill="#252626" d="M148.82268,194.47266l2.23242-2.59766l-2.73633,0.74609l-0.21289-0.78516l4.17188-1.13672
				l0.20605,0.76172l-2.22754,2.58984l2.73047-0.74316l0.21484,0.78418l-4.17383,1.13672L148.82268,194.47266z"/>
		</g>
	</g>
	<g>
		<path fill="#252626" d="M134.77483,226.4707l-1.94336-1.87891l0.5625-0.58105l1.94238,1.87988
			c0.34961,0.33789,0.91309,0.33398,1.24609-0.01172c0.33789-0.34961,0.31934-0.90723-0.0293-1.24609l-1.94238-1.87891
			l0.56738-0.58594l1.94141,1.88086c0.32324,0.3125,0.50684,0.73438,0.5127,1.18164
			c0.00293,0.45117-0.16504,0.87891-0.47852,1.20215C136.50725,227.10059,135.44279,227.11719,134.77483,226.4707z"/>
		<path fill="#252626" d="M141.30998,223.65625l-2.92285-1.78516l1.17676,2.58203l-0.74023,0.33691l-1.79395-3.93555
			l0.71777-0.32715l2.91602,1.78223l-1.17383-2.5752l0.74023-0.33789l1.79395,3.93555L141.30998,223.65625z"/>
		<path fill="#252626" d="M143.07561,223.23828l-0.57324-4.28711l0.80762-0.10742l0.57227,4.28711L143.07561,223.23828z"/>
	</g>
	<g>
		<path fill="#252626" d="M157.93791,241.90527l-3.91992-1.82617l0.67773-1.4541c0.12305-0.26465,0.35449-0.47168,0.62598-0.56543
			c0.26953-0.10254,0.5791-0.09277,0.84277,0.03125c0.16016,0.07324,0.29102,0.18164,0.39453,0.30371
			c0.10938-0.07617,0.22754-0.1416,0.35352-0.18359c0.36621-0.1377,0.76074-0.12012,1.11328,0.04297
			c0.35156,0.16504,0.61719,0.45703,0.75391,0.82715c0.06445,0.17773,0.09668,0.36719,0.08789,0.55664
			c-0.00293,0.19434-0.04883,0.37988-0.12891,0.55176L157.93791,241.90527z M155.97112,239.22656
			c0.07129-0.1543,0.00195-0.33496-0.14746-0.4043c-0.14844-0.06836-0.32617-0.00488-0.40918,0.14551l-0.33398,0.71484
			l0.55664,0.25977L155.97112,239.22656z M158.01506,239.85742c0.14063-0.3291-0.00586-0.71973-0.33105-0.87109
			c-0.31836-0.14941-0.71191-0.01074-0.86621,0.30566l-0.45996,0.98535l1.20117,0.56055L158.01506,239.85742z"/>
		<path fill="#252626" d="M159.76408,237.04297l-4.25195-0.76953l0.14453-0.79883l4.25195,0.76758L159.76408,237.04297z"/>
	</g>
	<g>
		<path fill="#252626" d="M139.93401,248.52441l0.04492-1.24609l-1.31836-0.55762l-0.86719,0.89844l-0.7998-0.33789l3.21387-3.33301
			l0.67676,0.28613l-0.14551,4.62988L139.93401,248.52441z M140.00041,246.41797l0.04004-1.12305l-0.77734,0.81055
			L140.00041,246.41797z"/>
		<path fill="#252626" d="M142.50237,249.16797l0.27637-4.31738l0.81152,0.05176l-0.22461,3.52344l2.20117,0.14063l-0.05176,0.79395
			L142.50237,249.16797z"/>
		<path fill="#252626" d="M147.23869,249.15137l-1.06543-4.18652l0.78809-0.20117l0.86914,3.41699l2.13574-0.54395l0.19531,0.77051
			L147.23869,249.15137z"/>
	</g>
	<g>
		<path fill="#252626" d="M22.23577,169.04297l-0.59766-2.63477l0.78809-0.17773l0.59668,2.63477
			c0.10742,0.47363,0.58105,0.77734,1.04883,0.6709c0.47461-0.10742,0.76465-0.58398,0.65723-1.05762l-0.59766-2.63477
			l0.79395-0.18066l0.59766,2.63574c0.09961,0.4375,0.02051,0.8916-0.2168,1.26855
			c-0.24414,0.37891-0.62012,0.64551-1.05859,0.74512C23.34221,170.51758,22.43987,169.94922,22.23577,169.04297z"/>
		<path fill="#252626" d="M30.18889,167.48438l-3.17188-1.28125l1.58203,2.35059l-0.6748,0.4541l-2.41113-3.58398l0.6543-0.44141
			l3.16309,1.28027l-1.57715-2.34668l0.67383-0.45313l2.41113,3.58398L30.18889,167.48438z"/>
		<path fill="#252626" d="M32.41448,165.32813l-3.36133-2.7207l0.51074-0.63281l3.36328,2.7207L32.41448,165.32813z"/>
	</g>
	<g>
		<path fill="#252626" d="M9.99065,154.24219l-4.18066-1.08594l0.40332-1.5498c0.07227-0.28223,0.26172-0.52637,0.51172-0.66895
			c0.24609-0.14941,0.55273-0.19531,0.83398-0.12109c0.16992,0.04297,0.31836,0.12598,0.44238,0.22656
			c0.09277-0.09473,0.19629-0.17969,0.31348-0.24414c0.33398-0.20117,0.72461-0.25684,1.10156-0.15918
			c0.375,0.09766,0.68945,0.33594,0.88867,0.67578c0.0957,0.16309,0.16211,0.34375,0.18848,0.53223
			c0.03223,0.19043,0.01953,0.38184-0.02734,0.56348L9.99065,154.24219z M7.57268,151.9668
			c0.04297-0.16504-0.05859-0.32813-0.2168-0.37109c-0.1582-0.04004-0.32129,0.05469-0.375,0.21582l-0.19922,0.7627l0.59375,0.15527
			L7.57268,151.9668z M9.69573,152.2168c0.07813-0.34961-0.13672-0.70605-0.48242-0.7959
			c-0.34082-0.08887-0.70215,0.11816-0.79688,0.45801l-0.27246,1.0498l1.28027,0.33301L9.69573,152.2168z"/>
		<path fill="#252626" d="M11.27776,150.38574l-3.75293-2.14648l0.4043-0.70703l3.75293,2.14746L11.27776,150.38574z"/>
	</g>
	<g>
		<path fill="#252626" d="M19.69378,144.44238l-0.69434-1.03711l-1.39648,0.32227l-0.17578,1.2373l-0.8457,0.19531l0.64941-4.58789
			l0.71582-0.16504l2.59863,3.83789L19.69378,144.44238z M18.51214,142.69531l-0.62695-0.93359l-0.1543,1.11328L18.51214,142.69531z
			"/>
		<path fill="#252626" d="M20.89593,144.34766l0.50488-4.29492l0.80859,0.09473l-0.41211,3.50488l2.19043,0.25684l-0.09375,0.79004
			L20.89593,144.34766z"/>
		<path fill="#252626" d="M24.2885,144.85547l1.79297-3.92578l0.73926,0.33789l-1.46387,3.20313l2.00195,0.91504l-0.33008,0.72168
			L24.2885,144.85547z"/>
	</g>
	<path fill="#252626" d="M82.49999,80.48145c-25.83594,0-46.85449,21.01855-46.85449,46.85448
		c0,25.30225,20.16248,45.97047,45.263,46.81409v-1.65613c-24.1864-0.8429-43.60675-20.76978-43.60675-45.15797
		c0-24.92188,20.27637-45.19824,45.19824-45.19824s45.19824,20.27637,45.19824,45.19824S107.42188,172.53418,82.5,172.53418
		c-0.02301,0-0.04559-0.00171-0.0686-0.00171v1.65625c0.02301,0,0.04559,0.00171,0.0686,0.00171
		c25.83594,0,46.85448-21.01855,46.85448-46.8545S108.33593,80.48145,82.49999,80.48145z"/>
	<path fill="#252626" d="M82.49999,214.54004c-25.83594,0-46.85449,21.01855-46.85449,46.85449
		c0,25.30225,20.16248,45.97046,45.263,46.81409v-1.65613c-24.1864-0.8429-43.60675-20.76978-43.60675-45.15796
		c0-24.92188,20.27637-45.19824,45.19824-45.19824s45.19824,20.27637,45.19824,45.19824S107.42188,306.59277,82.5,306.59277
		c-0.02301,0-0.04559-0.00171-0.0686-0.00171v1.65625c0.02301,0,0.04559,0.00171,0.0686,0.00171
		c25.83594,0,46.85448-21.01855,46.85448-46.85449S108.33593,214.54004,82.49999,214.54004z"/>
	<g>
		<path fill="#252626" d="M26.47991,20.81835h0.59082v0.83496h0.01953c0.21582-0.58203,0.86328-0.97656,1.54785-0.97656
			c1.36035,0,1.77344,0.71387,1.77344,1.86816v3.11523h-0.59082v-3.02148c0-0.83496-0.27246-1.46387-1.22949-1.46387
			c-0.93848,0-1.50098,0.71289-1.52051,1.66113v2.82422h-0.59082C26.47991,25.66014,26.47991,20.81835,26.47991,20.81835z"/>
		<path fill="#252626" d="M31.87835,23.39843c0.00977,0.86328,0.45996,1.90527,1.59571,1.90527
			c0.86328,0,1.33203-0.50684,1.51953-1.23926h0.5918c-0.25391,1.09863-0.8916,1.73633-2.11133,1.73633
			c-1.53906,0-2.18653-1.18262-2.18653-2.56152c0-1.27637,0.64746-2.5625,2.18653-2.5625c1.55762,0,2.17676,1.36133,2.12988,2.72168
			H31.87835z M35.01311,22.90136c-0.02832-0.8916-0.58203-1.72656-1.53906-1.72656c-0.9668,0-1.50196,0.84473-1.59571,1.72656
			H35.01311z"/>
		<path fill="#252626" d="M40.32659,25.66015h-0.54395V24.7871h-0.01855c-0.30957,0.64746-0.94824,1.01367-1.6709,1.01367
			c-1.21973,0-1.69824-0.71289-1.69824-1.83887v-3.14355h0.59082v3.15234c0.02832,0.87305,0.35742,1.33301,1.29492,1.33301
			c1.01367,0,1.45508-0.95703,1.45508-1.94238v-2.54297h0.59082V25.66015z"/>
		<path fill="#252626" d="M42.38421,20.81835h0.98535v0.49707h-0.98535v3.26563c0,0.38477,0.05664,0.61035,0.47949,0.6377
			c0.16895,0,0.33789-0.00879,0.50586-0.02734v0.50586c-0.17773,0-0.34668,0.01953-0.52539,0.01953
			c-0.78809,0-1.05957-0.2627-1.05078-1.08887v-3.3125h-0.84473v-0.49707h0.84473v-1.45508h0.59082
			C42.3842,19.36328,42.3842,20.81835,42.38421,20.81835z"/>
		<path fill="#252626" d="M44.22601,20.81835h0.54395v1.13477h0.01855c0.30078-0.77832,0.95703-1.23828,1.83008-1.20117v0.5918
			c-1.07031-0.05664-1.80176,0.73145-1.80176,1.73535v2.58105h-0.59082V20.81835z"/>
		<path fill="#252626" d="M51.34905,23.23925c0,1.38867-0.80664,2.56152-2.29004,2.56152
			c-1.48242,0-2.28906-1.17285-2.28906-2.56152s0.80664-2.5625,2.28906-2.5625
			C50.54241,20.67675,51.34905,21.85058,51.34905,23.23925z M47.36077,23.23925c0,1.03223,0.56348,2.06445,1.69824,2.06445
			c1.13574,0,1.69922-1.03223,1.69922-2.06445s-0.56348-2.06445-1.69922-2.06445
			C47.92425,21.17479,47.36077,22.20702,47.36077,23.23925z"/>
		<path fill="#252626" d="M52.22405,20.81835h0.59082v0.83496h0.01953c0.21582-0.58203,0.86328-0.97656,1.54785-0.97656
			c1.36035,0,1.77344,0.71387,1.77344,1.86816v3.11523h-0.59082v-3.02148c0-0.83496-0.27246-1.46387-1.22949-1.46387
			c-0.93848,0-1.50098,0.71289-1.52051,1.66113v2.82422h-0.59082C52.22405,25.66014,52.22405,20.81835,52.22405,20.81835z"/>
		<path fill="#252626" d="M59.88616,20.81835h0.54395v0.91895h0.01855c0.27246-0.65625,0.94824-1.06055,1.72656-1.06055
			c1.47363,0,2.17773,1.19238,2.17773,2.5625s-0.7041,2.56152-2.17773,2.56152c-0.72266,0-1.42578-0.36621-1.67969-1.06055h-0.01855
			v2.71191h-0.59082C59.88616,27.45213,59.88616,20.81835,59.88616,20.81835z M62.17522,21.17479
			c-1.30371,0-1.69824,0.96582-1.69824,2.06445c0,1.00391,0.44141,2.06445,1.69824,2.06445
			c1.12598,0,1.58594-1.06055,1.58594-2.06445S63.3012,21.17479,62.17522,21.17479z"/>
		<path fill="#252626" d="M69.60979,23.23925c0,1.38867-0.80666,2.56152-2.29004,2.56152
			c-1.48242,0-2.28906-1.17285-2.28906-2.56152s0.80664-2.5625,2.28906-2.5625
			C68.80314,20.67675,69.60979,21.85058,69.60979,23.23925z M65.62151,23.23925c0,1.03223,0.56348,2.06445,1.69824,2.06445
			c1.13574,0,1.69922-1.03223,1.69922-2.06445s-0.56348-2.06445-1.69922-2.06445
			C66.18499,21.17479,65.62151,22.20702,65.62151,23.23925z"/>
		<path fill="#252626" d="M70.00628,20.81835h0.62891l1.23828,4.14746h0.01855l1.18262-4.14746h0.66602l1.18262,4.14746h0.01855
			l1.23926-4.14746h0.62891l-1.55762,4.8418h-0.64844l-1.19141-4.07227h-0.01855l-1.18262,4.07227H71.5639L70.00628,20.81835z"/>
		<path fill="#252626" d="M77.79827,23.39843c0.00977,0.86328,0.45996,1.90527,1.5957,1.90527
			c0.86328,0,1.33203-0.50684,1.51953-1.23926h0.5918c-0.25391,1.09863-0.8916,1.73633-2.11133,1.73633
			c-1.53906,0-2.18652-1.18262-2.18652-2.56152c0-1.27637,0.64746-2.5625,2.18652-2.5625c1.55762,0,2.17676,1.36133,2.12988,2.72168
			H77.79827z M80.93304,22.90136c-0.02832-0.8916-0.58203-1.72656-1.53906-1.72656c-0.9668,0-1.50195,0.84473-1.5957,1.72656
			H80.93304z"/>
		<path fill="#252626" d="M82.32464,20.81835h0.54395v1.13477h0.01855c0.30078-0.77832,0.95703-1.23828,1.83008-1.20117v0.5918
			c-1.07031-0.05664-1.80176,0.73145-1.80176,1.73535v2.58105h-0.59082V20.81835z"/>
		<path fill="#252626" d="M85.4594,23.39843c0.00977,0.86328,0.45996,1.90527,1.5957,1.90527
			c0.86328,0,1.33203-0.50684,1.51953-1.23926h0.5918c-0.25391,1.09863-0.8916,1.73633-2.11133,1.73633
			c-1.53906,0-2.18652-1.18262-2.18652-2.56152c0-1.27637,0.64746-2.5625,2.18652-2.5625c1.55762,0,2.17676,1.36133,2.12988,2.72168
			H85.4594z M88.59417,22.90136c-0.02832-0.8916-0.58203-1.72656-1.53906-1.72656c-0.9668,0-1.50197,0.84473-1.5957,1.72656
			H88.59417z"/>
		<path fill="#252626" d="M94.24554,25.66015h-0.54395v-0.91992h-0.01855c-0.25391,0.62891-1.02344,1.06055-1.72656,1.06055
			c-1.47363,0-2.17773-1.19141-2.17773-2.56152s0.7041-2.5625,2.17773-2.5625c0.72166,0,1.42578,0.36621,1.67969,1.06055h0.01855
			v-2.77734h0.59082C94.24553,18.95997,94.24553,25.66015,94.24554,25.66015z M91.95647,25.3037
			c1.25684,0,1.69824-1.06055,1.69824-2.06445s-0.44141-2.06445-1.69824-2.06445c-1.12695,0-1.58594,1.06055-1.58594,2.06445
			S90.82952,25.3037,91.95647,25.3037z"/>
		<path fill="#252626" d="M100.59515,20.81835h0.54395v0.81641h0.02832c0.30957-0.58203,0.81641-0.95801,1.58594-0.95801
			c0.6377,0,1.20996,0.31055,1.38867,0.94824c0.29102-0.6377,0.90039-0.94824,1.53906-0.94824
			c1.06055,0,1.60449,0.55371,1.60449,1.69922v3.28418h-0.59082v-3.25586c0-0.79785-0.30078-1.22949-1.14551-1.22949
			c-1.02246,0-1.31348,0.84473-1.31348,1.74512v2.74023h-0.59082v-3.28418c0.00879-0.65723-0.2627-1.20117-1.01367-1.20117
			c-1.02344,0-1.43555,0.76953-1.44531,1.78223v2.70313h-0.59082C100.59516,25.66016,100.59516,20.81835,100.59515,20.81835z"/>
		<path fill="#252626" d="M112.75042,23.23925c0,1.38867-0.80664,2.56152-2.29004,2.56152
			c-1.48242,0-2.28906-1.17285-2.28906-2.56152s0.80664-2.5625,2.28906-2.5625
			C111.94378,20.67675,112.75042,21.85058,112.75042,23.23925z M108.76214,23.23925c0,1.03223,0.56348,2.06445,1.69824,2.06445
			c1.13574,0,1.69922-1.03223,1.69922-2.06445s-0.56348-2.06445-1.69922-2.06445
			C109.32561,21.17479,108.76214,22.20702,108.76214,23.23925z"/>
		<path fill="#252626" d="M113.63519,20.81835h0.54395v1.13477h0.01855c0.30078-0.77832,0.95703-1.23828,1.83008-1.20117v0.5918
			c-1.07031-0.05664-1.80176,0.73145-1.80176,1.73535v2.58105h-0.59082V20.81835z"/>
		<path fill="#252626" d="M116.59222,20.81835h0.54395v0.91895h0.01855c0.27246-0.65625,0.94824-1.06055,1.72656-1.06055
			c1.47363,0,2.17773,1.19238,2.17773,2.5625s-0.7041,2.56152-2.17773,2.56152c-0.72266,0-1.42578-0.36621-1.67969-1.06055h-0.01855
			v2.71191h-0.59082C116.59222,27.45213,116.59222,20.81835,116.59222,20.81835z M118.88128,21.17479
			c-1.30371,0-1.69824,0.96582-1.69824,2.06445c0,1.00391,0.44141,2.06445,1.69824,2.06445
			c1.12598,0,1.58594-1.06055,1.58594-2.06445S120.00726,21.17479,118.88128,21.17479z"/>
		<path fill="#252626" d="M121.97112,18.95995h0.59082v2.69336h0.01953c0.21582-0.58203,0.86328-0.97656,1.54785-0.97656
			c1.36035,0,1.77344,0.71387,1.77344,1.86816v3.11523h-0.59082v-3.02148c0-0.83496-0.27246-1.46387-1.22949-1.46387
			c-0.93848,0-1.50098,0.71289-1.52051,1.66113v2.82422h-0.59082V18.95995z"/>
		<path fill="#252626" d="M127.03167,18.95995h0.5918v0.94727h-0.5918V18.95995z M127.03167,20.81835h0.5918v4.8418h-0.5918
			V20.81835z"/>
		<path fill="#252626" d="M128.75041,20.81835h0.59082v0.83496h0.01953c0.21582-0.58203,0.86328-0.97656,1.54785-0.97656
			c1.36035,0,1.77344,0.71387,1.77344,1.86816v3.11523h-0.59082v-3.02148c0-0.83496-0.27246-1.46387-1.22949-1.46387
			c-0.93848,0-1.50098,0.71289-1.52051,1.66113v2.82422h-0.59082V20.81835z"/>
		<path fill="#252626" d="M137.89299,25.26562c-0.00879,1.44531-0.5625,2.32813-2.14844,2.32813
			c-0.9668,0-1.92383-0.43164-2.00879-1.46484h0.5918c0.13086,0.71387,0.75977,0.9668,1.41699,0.9668
			c1.08789,0,1.55762-0.64746,1.55762-1.83008v-0.65625h-0.01855c-0.27246,0.59082-0.84473,0.99414-1.53906,0.99414
			c-1.54883,0-2.18652-1.10742-2.18652-2.48633c0-1.33301,0.78809-2.44043,2.18652-2.44043
			c0.70313,0,1.30371,0.44141,1.53906,0.97656h0.01855v-0.83496h0.59082V25.26562z M137.30217,23.18261
			c0-0.94727-0.44141-2.00781-1.55762-2.00781c-1.12598,0-1.5957,1.00391-1.5957,2.00781c0,0.97559,0.50684,1.92383,1.5957,1.92383
			C136.76701,25.10644,137.30217,24.16796,137.30217,23.18261z"/>
	</g>
</g>
</svg>
