<?xml version="1.0" encoding="UTF-8" standalone="no"?>
<svg
   xmlns:dc="http://purl.org/dc/elements/1.1/"
   xmlns:cc="http://creativecommons.org/ns#"
   xmlns:rdf="http://www.w3.org/1999/02/22-rdf-syntax-ns#"
   xmlns:svg="http://www.w3.org/2000/svg"
   xmlns="http://www.w3.org/2000/svg"
   xmlns:sodipodi="http://sodipodi.sourceforge.net/DTD/sodipodi-0.dtd"
   xmlns:inkscape="http://www.inkscape.org/namespaces/inkscape"
   id="Layer_1"
   data-name="Layer 1"
   width="5.0803204mm"
   height="5.0803204mm"
   viewBox="0 0 19.201211 19.201211"
   version="1.1"
   sodipodi:docname="PushButton1_1.svg"
   inkscape:version="0.92.3 (2405546, 2018-03-11)">
  <metadata
     id="metadata15">
    <rdf:RDF>
      <cc:Work
         rdf:about="">
        <dc:format>image/svg+xml</dc:format>
        <dc:type
           rdf:resource="http://purl.org/dc/dcmitype/StillImage" />
        <dc:title>PushButton1_1</dc:title>
      </cc:Work>
    </rdf:RDF>
  </metadata>
  <defs
     id="defs13" />
  <sodipodi:namedview
     pagecolor="#ffffff"
     bordercolor="#666666"
     borderopacity="1"
     objecttolerance="10"
     gridtolerance="10"
     guidetolerance="10"
     inkscape:pageopacity="0"
     inkscape:pageshadow="2"
     inkscape:window-width="1920"
     inkscape:window-height="1017"
     id="namedview11"
     showgrid="false"
     inkscape:document-units="mm"
     units="mm"
     fit-margin-top="0"
     fit-margin-left="0"
     fit-margin-right="0"
     fit-margin-bottom="0"
     inkscape:zoom="15.733333"
     inkscape:cx="7.5"
     inkscape:cy="7.5000005"
     inkscape:window-x="-8"
     inkscape:window-y="-8"
     inkscape:window-maximized="1"
     inkscape:current-layer="Layer_1" />
  <title
     id="title2">PushButton1_1</title>
  <circle
     cx="9.600606"
     cy="9.600606"
     r="9.600605"
     style="fill:#141414;stroke-width:1.28008068"
     id="circle4" />
  <path
     d="M 9.6006056,2.04813 A 7.4854635,7.4854635 0 0 0 2.0481299,9.4659796 q -6.144e-4,0.067307 0,0.1346261 a 7.4854635,7.4854635 0 0 0 7.4178496,7.5524763 q 0.067307,6.14e-4 0.1346261,0 A 7.4854635,7.4854635 0 0 0 17.153081,9.7352318 q 6.15e-4,-0.067307 0,-0.1346261 A 7.4854635,7.4854635 0 0 0 9.7352317,2.04813 q -0.067294,-6.145e-4 -0.1346261,0 z"
     style="fill:#5c5e5e;stroke-width:1.28008068"
     id="path6"
     inkscape:connector-curvature="0" />
  <path
     d="m 9.6006056,2.04813 a 7.4854635,7.4854635 0 0 1 7.5524754,7.4178496 q 6.15e-4,0.067307 0,0.1346261 A 7.4854635,7.4854635 0 0 1 9.7352317,17.153082 q -0.067307,6.14e-4 -0.1346261,0 A 7.4854635,7.4854635 0 0 1 2.0481299,9.7352318 q -6.144e-4,-0.067294 0,-0.1346261 A 7.4854635,7.4854635 0 0 1 9.4659795,2.04813 q 0.067307,-6.145e-4 0.1346261,0 m 0,-0.7680484 a 8.303883,8.303883 0 1 0 0.033282,0 q -0.016641,0 -0.033282,0 z"
     style="fill:#424242;stroke-width:1.28008068"
     id="path8"
     inkscape:connector-curvature="0" />
</svg>
