<?xml version="1.0" encoding="UTF-8" standalone="no"?>
<!-- Generator: Adobe Illustrator 25.2.3, SVG Export Plug-In . SVG Version: 6.00 Build 0)  -->

<svg
   xmlns:dc="http://purl.org/dc/elements/1.1/"
   xmlns:cc="http://creativecommons.org/ns#"
   xmlns:rdf="http://www.w3.org/1999/02/22-rdf-syntax-ns#"
   xmlns:svg="http://www.w3.org/2000/svg"
   xmlns="http://www.w3.org/2000/svg"
   xmlns:sodipodi="http://sodipodi.sourceforge.net/DTD/sodipodi-0.dtd"
   xmlns:inkscape="http://www.inkscape.org/namespaces/inkscape"
   version="1.0"
   id="Layer_1"
   inkscape:version="0.92.3 (2405546, 2018-03-11)"
   sodipodi:docname="Torus-WL.svg"
   x="0px"
   y="0px"
   width="75"
   height="380"
   viewBox="0 0 75 380"
   enable-background="new 0 0 72 364.25195"
   xml:space="preserve"><metadata
   id="metadata209"><rdf:RDF><cc:Work
       rdf:about=""><dc:format>image/svg+xml</dc:format><dc:type
         rdf:resource="http://purl.org/dc/dcmitype/StillImage" /><dc:title></dc:title></cc:Work></rdf:RDF></metadata><defs
   id="defs207" />
<sodipodi:namedview
   bordercolor="#666666"
   borderopacity="1"
   fit-margin-bottom="0"
   fit-margin-left="0"
   fit-margin-right="0"
   fit-margin-top="0"
   gridtolerance="10"
   guidetolerance="10"
   id="namedview197"
   inkscape:current-layer="Layer_1"
   inkscape:cx="-87.712995"
   inkscape:cy="169.56511"
   inkscape:document-units="mm"
   inkscape:pageopacity="0"
   inkscape:pageshadow="2"
   inkscape:window-height="1017"
   inkscape:window-maximized="1"
   inkscape:window-width="1920"
   inkscape:window-x="-8"
   inkscape:window-y="-8"
   inkscape:zoom="1.7566021"
   objecttolerance="10"
   pagecolor="#ffffff"
   showgrid="false"
   units="mm">
	</sodipodi:namedview>
<g
   id="bg"
   transform="matrix(1.3333333,0,0,1.3333333,-1.5999999e-4,-0.09594667)">
	<g
   id="g4">
		<linearGradient
   id="rect2_1_"
   gradientUnits="userSpaceOnUse"
   x1="28.12512"
   y1="0.071960002"
   x2="28.12512"
   y2="364.8765">
			<stop
   offset="0"
   style="stop-color:#EBEBEB"
   id="stop3" />
			<stop
   offset="1"
   style="stop-color:#E1E1E1"
   id="stop5" />
		</linearGradient>
		<rect
   id="rect2"
   x="0.00012"
   y="0.071960002"
   width="56.25"
   height="285"
   style="fill:url(#rect2_1_)" />
	</g>
	<g
   id="g12">
		<path
   id="path6"
   inkscape:connector-curvature="0"
   d="m 31.98817,281.07962 h -7.8497 c -1.32857,0 -2.40559,-1.07703 -2.40559,-2.40558 v -27.24861 c 0,-1.32857 1.07701,-2.40558 2.40559,-2.40558 h 7.8497 c 1.32857,0 2.40559,1.07701 2.40559,2.40558 v 27.24861 c 0,1.32855 -1.07701,2.40558 -2.40559,2.40558 z"
   style="fill:#252626" />
		<g
   id="g10">
			<path
   id="path8"
   inkscape:connector-curvature="0"
   d="m 30.94809,272.15942 c -0.0857,0.1976 -0.19937,0.36075 -0.34102,0.4892 -0.14182,0.12845 -0.30301,0.22382 -0.48425,0.28665 -0.18142,0.0626 -0.37075,0.0937 -0.56836,0.0937 -0.33609,0 -0.59792,-0.0493 -0.78568,-0.14813 -0.18776,-0.0989 -0.33451,-0.21414 -0.43974,-0.34598 -0.11226,-0.14496 -0.183,-0.30634 -0.21256,-0.48422 -0.02974,-0.17789 -0.04452,-0.3558 -0.04452,-0.53369 0,-0.25058 0.0051,-0.4234 0.01478,-0.51892 0.01003,-0.0957 0.02129,-0.14993 0.03466,-0.16312 0.02622,-0.0199 0.13496,-0.0296 0.32606,-0.0296 h 2.31287 c 0.06581,0 0.12018,0.005 0.16312,0.0148 0.04259,0.01 0.07566,0.0361 0.09871,0.079 0.02305,0.0428 0.03783,0.10696 0.04452,0.19266 0.0065,0.0857 0.01003,0.20432 0.01003,0.3558 0,0.27682 -0.04311,0.51419 -0.12863,0.71179 m -3.99261,-9.61624 c 0.0088,-0.0621 0.03555,-0.11121 0.08024,-0.14694 0.04452,-0.0355 0.11561,-0.0579 0.2138,-0.0668 0.09801,-0.009 0.23614,-0.0133 0.41439,-0.0133 0.69506,0 1.22752,0.19373 1.59739,0.58139 0.3697,0.38763 0.55481,0.90689 0.55481,1.55743 0,0.0616 -0.01285,0.19446 -0.02094,0.28558 -0.0512,-6.7e-4 -0.10241,-0.002 -0.15361,-0.002 -0.14024,-0.003 -0.29263,-0.0107 -0.45716,-0.0229 -0.0366,0.0183 -0.05631,0.0533 -0.05947,0.10507 -0.003,0.0519 0.01056,0.0931 0.04136,0.12354 l 0.16435,0.0183 c 0.1098,0.0121 0.20113,0.032 0.27433,0.0593 0.0732,0.0274 0.1098,0.0565 0.1098,0.0869 0,0.0304 -0.0183,0.0869 -0.0549,0.1691 -0.0366,0.0824 -0.08535,0.18143 -0.14623,0.29706 -0.06107,0.11594 -0.1267,0.23947 -0.19655,0.37039 -0.07022,0.13107 -0.13585,0.25461 -0.19673,0.37021 -0.14024,0.26834 -0.2833,0.53177 -0.4297,0.7908 -0.14623,0.25919 -0.28946,0.51062 -0.42953,0.75433 -0.17702,-0.31689 -0.35069,-0.64914 -0.5212,-0.99649 -0.17069,-0.3475 -0.34137,-0.69168 -0.51205,-1.03323 -0.01232,-0.0243 -0.03343,-0.0699 -0.06388,-0.13708 -0.03061,-0.0669 -0.06264,-0.13849 -0.09608,-0.21484 -0.03361,-0.0762 -0.06264,-0.14764 -0.08692,-0.21484 -0.02446,-0.067 -0.03642,-0.11279 -0.03642,-0.13708 0,-0.0366 0.0241,-0.0655 0.07302,-0.0869 0.04874,-0.0213 0.15239,-0.0472 0.31094,-0.0776 l 0.11877,-0.0183 c 0.03044,-0.0304 0.04417,-0.0732 0.04118,-0.12808 -0.0031,-0.0547 -0.02605,-0.0883 -0.06845,-0.10049 -0.12986,0.0102 -0.28911,0.0176 -0.47791,0.022 v -1.93982 c 2e-5,-0.10696 0.0044,-0.19162 0.01339,-0.25409 m 0.75697,6.84374 c 0,0.2439 -0.0031,0.43884 -0.0091,0.58508 -0.0062,0.14624 -0.02744,0.26059 -0.06405,0.34277 -0.01302,0.0295 -0.02851,0.0556 -0.04628,0.0783 -3.5e-4,1.8e-4 -9e-4,5.5e-4 -0.0013,7e-4 -0.10645,-0.0204 -0.1962,-0.044 -0.26869,-0.0709 -0.12036,-0.0445 -0.20711,-0.12476 -0.26061,-0.24054 -0.05349,-0.11578 -0.08692,-0.27838 -0.10029,-0.48795 -0.01338,-0.20923 -0.02006,-0.48795 -0.02006,-0.8353 v -1.90341 l 0.47791,0.93121 c 0.06687,0.12811 0.12018,0.23633 0.15995,0.32465 0.03959,0.0885 0.06845,0.17068 0.08675,0.24689 0.01829,0.0763 0.03044,0.15695 0.03659,0.24231 0.006,0.0853 0.0092,0.19196 0.0092,0.31989 v 0.46631 h 1e-5 z m 3.77319,1.13058 c 0.03959,-0.1098 0.079,-0.22702 0.11877,-0.35193 0.03959,-0.12497 0.07619,-0.24689 0.1098,-0.36584 0.03343,-0.11877 0.0593,-0.21783 0.07777,-0.29718 -0.01848,-0.0424 -0.0535,-0.0698 -0.10523,-0.0822 -0.05191,-0.0122 -0.0929,-0.006 -0.12352,0.0183 -0.12194,0.23758 -0.23914,0.43271 -0.35193,0.58508 -0.11279,0.15256 -0.21185,0.25305 -0.29702,0.30179 -0.04892,0.0244 -0.10522,0.0456 -0.16928,0.0639 -0.06388,0.0183 -0.14024,0.032 -0.22858,0.0412 -0.08833,0.009 -0.19497,0.0169 -0.3199,0.0229 -0.12494,0.006 -0.27591,0.009 -0.45258,0.009 -0.20113,0 -0.36724,-0.006 -0.49833,-0.0183 -0.13109,-0.0121 -0.23615,-0.0274 -0.31532,-0.0456 -0.07936,-0.0185 -0.14182,-0.0398 -0.1874,-0.064 -0.04575,-0.0243 -0.08095,-0.0518 -0.10523,-0.0824 -0.0732,-0.0792 -0.12036,-0.19653 -0.14165,-0.35193 -0.02147,-0.15555 -0.03203,-0.35507 -0.03203,-0.59897 v -0.60339 c 0.0014,-0.0836 0.0039,-0.15747 0.0074,-0.22083 0.006,-0.11261 0.0227,-0.21783 0.05015,-0.31534 0.02744,-0.0975 0.07003,-0.20129 0.1281,-0.31091 0.01373,-0.0262 0.02921,-0.0545 0.04558,-0.0843 0.022,-7e-4 0.04486,-7.6e-4 0.07039,-7.6e-4 h 0.53036 c 0.17666,0 0.32149,0.003 0.43427,0.009 0.11261,0.006 0.20254,0.0181 0.26975,0.0364 0.09133,0.0244 0.15679,0.0672 0.19655,0.12811 0.03959,0.0609 0.06845,0.13406 0.08693,0.21942 l 0.08217,0.35651 c 0.02428,0.0306 0.06546,0.0442 0.12335,0.0412 0.05788,-0.003 0.09608,-0.0197 0.11437,-0.0503 0,-0.10364 -0.0062,-0.23456 -0.0183,-0.3931 -0.01232,-0.15854 -0.0183,-0.3201 -0.0183,-0.48462 0,-0.17664 0.006,-0.34735 0.0183,-0.51187 0.01214,-0.1647 0.0183,-0.30179 0.0183,-0.41156 -0.0183,-0.0303 -0.05649,-0.0472 -0.11437,-0.0503 -0.05789,-0.003 -0.09908,0.0107 -0.12335,0.0412 l -0.07305,0.37442 c -0.02446,0.11578 -0.05349,0.19357 -0.08692,0.23315 -0.03361,0.0396 -0.07777,0.0685 -0.1325,0.0868 -0.0549,0.0183 -0.14957,0.032 -0.28348,0.0412 -0.13426,0.009 -0.29879,0.0137 -0.49376,0.0137 H 28.8828 c 0.0032,-0.005 0.006,-0.01 0.0092,-0.0152 l 0.57593,-0.99646 c 0.11561,-0.19516 0.22084,-0.37637 0.3155,-0.5441 0.09432,-0.16751 0.1874,-0.31549 0.27872,-0.44342 0.09151,-0.12793 0.18582,-0.23157 0.28348,-0.31073 0.02024,-0.0164 0.041,-0.0311 0.06229,-0.0451 0.06194,0.0247 0.11649,0.0537 0.16347,0.0876 0.07619,0.0548 0.13848,0.11877 0.1874,0.19199 0.04874,0.0731 0.08833,0.15536 0.11895,0.24667 0.03027,0.0915 0.06388,0.19217 0.10048,0.30179 0.02428,0.0306 0.06405,0.0428 0.11895,0.0366 0.05473,-0.006 0.09132,-0.0243 0.10962,-0.0549 -0.01232,-0.0975 -0.02287,-0.20868 -0.03185,-0.33362 -0.0093,-0.12491 -0.02006,-0.24686 -0.0322,-0.36566 -0.01214,-0.11896 -0.02816,-0.22504 -0.041,-0.32007 -0.03185,-0.23508 -0.02464,-0.43585 -0.02464,-0.43585 0,-0.46313 -0.13144,-0.86804 -0.33204,-1.20694 -0.20042,-0.33853 -0.4568,-0.60583 -0.76861,-0.80188 -0.31198,-0.19601 -0.67729,-0.33414 -1.09607,-0.41437 -0.41897,-0.0803 -0.90903,-0.12039 -1.47035,-0.12039 -0.5615,0 -1.05402,0.007 -1.47704,0.0201 -0.42337,0.0133 -0.81331,0.0424 -1.16981,0.0869 -0.05332,0.0267 -0.08235,0.0781 -0.08675,0.15363 -0.0046,0.0758 0.01531,0.13602 0.06018,0.18054 l 0.48109,0.0535 c 0.1515,0.0179 0.2694,0.0468 0.35439,0.0869 0.08447,0.04 0.14693,0.11349 0.18705,0.22049 0.04012,0.10696 0.06458,0.24951 0.07355,0.42776 0.0088,0.17825 0.01337,0.41 0.01337,0.69507 v 4.93259 c 0,0.34735 -0.0046,0.6261 -0.01337,0.83533 -0.009,0.20956 -0.04012,0.37216 -0.09361,0.48795 -0.05349,0.11575 -0.13372,0.19601 -0.24054,0.24054 -0.10699,0.0447 -0.25867,0.0802 -0.45451,0.10696 l -0.28084,0.0401 c -0.04065,0.0406 -0.05878,0.0962 -0.0549,0.16629 -3.5e-4,0.14307 -0.002,0.18845 -0.005,0.34964 -0.0031,0.18457 -0.01161,0.39081 -0.02516,0.61902 0.01355,0.0336 0.05191,0.0537 0.11579,0.0605 0.0637,0.007 0.10909,-0.007 0.13602,-0.0403 l 0.03009,-0.21152 c 0.02024,-0.14764 0.04698,-0.26166 0.0806,-0.34207 0.03361,-0.0806 0.09397,-0.14096 0.18125,-0.18124 0.0871,-0.0403 0.20957,-0.064 0.36742,-0.0707 0.15767,-0.007 0.36741,-0.01 0.62924,-0.01 h 1.26835 c 0.05367,0 0.09572,0.003 0.12598,0.01 0.03009,0.007 0.05191,0.0254 0.06528,0.0556 0.01337,0.0301 0.02182,0.0771 0.02533,0.14078 0.0032,0.0639 0.005,0.15253 0.005,0.26675 0,0.20148 -0.02516,0.35245 -0.07549,0.45309 -0.05033,0.10064 -0.1325,0.18793 -0.24671,0.26184 -0.11419,0.0806 -0.24001,0.16437 -0.37744,0.25162 -0.13778,0.0871 -0.27538,0.17441 -0.41282,0.26166 -0.1376,0.0873 -0.27011,0.1712 -0.39767,0.2518 -0.12758,0.0804 -0.23825,0.15433 -0.33222,0.22137 -0.25515,0.18124 -0.4649,0.35071 -0.62925,0.50854 -0.16435,0.15765 -0.2935,0.31708 -0.38747,0.47809 -0.09414,0.16101 -0.15943,0.33044 -0.19637,0.50836 -0.03677,0.17789 -0.05525,0.37408 -0.05525,0.58893 0,0.19461 0.01672,0.34244 0.05015,0.4429 0.02024,0.0269 0.0454,0.0387 0.07566,0.0353 0.03009,-0.004 0.05191,-0.0187 0.06546,-0.0454 0.01319,-0.13425 0.04522,-0.26166 0.09555,-0.38235 0.05033,-0.12091 0.11226,-0.22507 0.18634,-0.31219 0.14095,-0.17453 0.3002,-0.3389 0.47809,-0.49338 0.17772,-0.15433 0.3741,-0.31201 0.58894,-0.47318 0.21468,-0.16101 0.45628,-0.32712 0.7248,-0.49814 0.26834,-0.17123 0.56378,-0.35757 0.88598,-0.55887 0.04029,-0.0269 0.082,-0.0487 0.12581,-0.0655 0.04346,-0.0169 0.08217,-0.0118 0.11579,0.0152 0.04681,0.12738 0.11737,0.26343 0.21133,0.40771 0.09397,0.14429 0.20975,0.2803 0.34735,0.40787 0.1376,0.12741 0.29861,0.233 0.48319,0.31708 0.18459,0.0838 0.39768,0.12582 0.63928,0.12582 0.3558,0 0.64772,-0.079 0.87595,-0.23666 0.22805,-0.15765 0.40594,-0.35739 0.53352,-0.599 0.1274,-0.23489 0.20975,-0.49496 0.24671,-0.78003 0.03677,-0.2854 0.05665,-0.58578 0.05525,-0.90128 -0.0025,-0.58456 0.10275,-0.95654 0.10275,-0.95654"
   style="fill:#e6e5e5" />
		</g>
	</g>
</g>
<g
   id="serigraphy"
   transform="matrix(1.3333333,0,0,1.3333333,-1.5999999e-4,-0.09594667)">
	<g
   id="g55">
		<g
   id="g45">
			<path
   id="path43"
   inkscape:connector-curvature="0"
   d="m 3.75012,18.24407 c -0.08276,0 -0.16552,-0.02198 -0.24023,-0.05201 C 3.43518,18.16203 3.3678,18.11662 3.30774,18.05657 3.25501,17.99651 3.20227,17.92913 3.17224,17.85442 3.14221,17.77897 3.12756,17.70427 3.12756,17.62151 c 0,-0.08204 0.01465,-0.1648 0.04468,-0.2395 0.03735,-0.07544 0.08276,-0.14282 0.13549,-0.20288 0.06006,-0.06006 0.12744,-0.10474 0.20215,-0.13477 0.23291,-0.09741 0.50244,-0.03735 0.68262,0.13477 0.11279,0.12012 0.18017,0.27759 0.18017,0.44238 0,0.08276 -0.01538,0.15747 -0.04541,0.23291 -0.03735,0.07471 -0.08203,0.14209 -0.13477,0.20215 -0.1201,0.12012 -0.27757,0.1875 -0.44237,0.1875 z"
   style="fill:#252626" />
		</g>
		<g
   id="g49">
			<path
   id="path47"
   inkscape:connector-curvature="0"
   d="m 6.08216,17.62151 c 0,-0.34497 0.28565,-0.62256 0.62256,-0.62256 v 0 c 0.34497,0 0.62256,0.27759 0.62256,0.62256 v 0 c 0,0.33765 -0.27759,0.61523 -0.62256,0.61523 v 0 C 6.3678,18.23675 6.08216,17.95916 6.08216,17.62151 Z"
   style="fill:#252626" />
		</g>
		<g
   id="g53">
			<path
   id="path51"
   inkscape:connector-curvature="0"
   d="m 9.66736,18.23675 c -0.1648,0 -0.32227,-0.06006 -0.44238,-0.18017 -0.11279,-0.11206 -0.18017,-0.26954 -0.18017,-0.43506 0,-0.1648 0.06738,-0.32227 0.18017,-0.44238 0.06006,-0.06006 0.12744,-0.10474 0.20215,-0.13477 0.15015,-0.06006 0.323,-0.06006 0.47315,0 0.08204,0.03003 0.14942,0.07471 0.20215,0.13477 0.06006,0.06006 0.10474,0.12744 0.13477,0.20288 0.03809,0.07471 0.05273,0.15747 0.05273,0.23951 0,0.15747 -0.06738,0.31494 -0.1875,0.43506 -0.1128,0.1201 -0.27027,0.18016 -0.43507,0.18016 z"
   style="fill:#252626" />
		</g>
	</g>
	<g
   id="g69">
		<g
   id="g59">
			<path
   id="path57"
   inkscape:connector-curvature="0"
   d="m 46.58216,18.23675 c -0.08204,0 -0.15747,-0.01465 -0.23218,-0.04468 -0.07471,-0.03003 -0.14282,-0.07544 -0.20288,-0.13549 -0.05933,-0.06006 -0.10474,-0.12744 -0.13477,-0.20215 -0.03003,-0.07544 -0.05273,-0.15015 -0.05273,-0.23291 0,-0.1648 0.06812,-0.32959 0.1875,-0.44238 0.16552,-0.17212 0.44312,-0.23218 0.67529,-0.13477 0.07471,0.03003 0.14282,0.07471 0.20288,0.13477 0.05201,0.06006 0.09741,0.12744 0.13477,0.20288 0.03003,0.07471 0.04468,0.15747 0.04468,0.23951 0,0.08276 -0.01465,0.15747 -0.04468,0.23291 -0.03003,0.07471 -0.08276,0.14209 -0.13477,0.20215 -0.06006,0.06006 -0.12817,0.10547 -0.20288,0.1355 -0.07471,0.03002 -0.15747,0.04466 -0.24023,0.04466 z"
   style="fill:#252626" />
		</g>
		<g
   id="g63">
			<path
   id="path61"
   inkscape:connector-curvature="0"
   d="m 48.92224,17.62151 c 0,-0.34497 0.27759,-0.62256 0.62256,-0.62256 v 0 c 0.33765,0 0.61523,0.27759 0.61523,0.62256 v 0 c 0,0.33765 -0.27759,0.61523 -0.61523,0.61523 v 0 c -0.34497,10e-6 -0.62256,-0.27758 -0.62256,-0.61523 z"
   style="fill:#252626" />
		</g>
		<g
   id="g67">
			<path
   id="path65"
   inkscape:connector-curvature="0"
   d="m 52.50012,18.23675 c -0.16553,0 -0.32299,-0.06006 -0.44238,-0.18017 -0.05273,-0.06006 -0.09814,-0.12744 -0.13549,-0.20215 -0.03003,-0.07544 -0.04468,-0.15015 -0.04468,-0.23291 0,-0.08204 0.01465,-0.1648 0.04468,-0.23951 0.03735,-0.07544 0.08276,-0.14282 0.13549,-0.20288 0.06006,-0.06006 0.12744,-0.10474 0.20215,-0.13477 0.15015,-0.06006 0.32227,-0.06006 0.47974,0 0.07545,0.03003 0.14282,0.07471 0.19556,0.13477 0.06006,0.06006 0.10474,0.12744 0.14209,0.20288 0.03003,0.07471 0.04541,0.15747 0.04541,0.23951 0,0.16552 -0.06738,0.31494 -0.1875,0.43506 -0.05273,0.06006 -0.12012,0.10547 -0.19556,0.13549 -0.07471,0.03004 -0.15747,0.04468 -0.23951,0.04468 z"
   style="fill:#252626" />
		</g>
	</g>
	<g
   id="g73">
		
			<line
   id="line71"
   stroke-miterlimit="9.60012"
   x1="28.047741"
   y1="244.12355"
   x2="28.132191"
   y2="48.378471"
   style="fill:none;stroke:#252626;stroke-width:1.59055996;stroke-linecap:round;stroke-miterlimit:9.60011959" />
	</g>
	
		<path
   id="path75"
   inkscape:connector-curvature="0"
   stroke-miterlimit="9.60012"
   d="m 37.4214,43.06093 c -1.88039,3.18274 -5.34623,5.31754 -9.31068,5.31754 -3.98633,0 -7.46852,-2.15842 -9.34166,-5.37032"
   style="fill:none;stroke:#252626;stroke-width:1.59055996;stroke-linecap:round;stroke-miterlimit:9.60011959" />
	<g
   id="g87">
		<path
   id="path77"
   inkscape:connector-curvature="0"
   d="M 11.78919,8.2348 H 10.4386 V 6.80951 h 4.13525 V 8.2348 h -1.35058 v 4.47436 h -1.43408 c 0,0 0,-4.47436 0,-4.47436 z"
   style="fill:#252626" />
		<path
   id="path79"
   inkscape:connector-curvature="0"
   d="m 23.02454,9.72601 c 0,1.68237 -1.3916,3.05786 -3.07471,3.05786 -1.69043,0 -3.06446,-1.37549 -3.06446,-3.05786 0,-1.69849 1.37402,-3.07324 3.06446,-3.07324 1.68311,-1e-5 3.07471,1.37475 3.07471,3.07324 z m -1.45019,0 c 0,-0.90307 -0.7207,-1.65674 -1.62451,-1.65674 -0.90235,0 -1.63183,0.75366 -1.63183,1.65674 0,0.89502 0.72949,1.63257 1.63183,1.63257 0.9038,0 1.62451,-0.73755 1.62451,-1.63257 z"
   style="fill:#252626" />
		<path
   id="path81"
   inkscape:connector-curvature="0"
   d="M 31.1178,12.70916 H 29.40247 L 27.4469,10.15741 h -0.1333 v 2.55175 H 25.91321 V 6.80951 h 2.16358 c 0.43066,0 0.83642,0.17431 1.13525,0.47241 0.29736,0.30688 0.47168,0.77051 0.47168,1.2019 0,0.56324 -0.27392,1.11035 -0.71191,1.3916 z m -3.8042,-3.9602 h 0.76318 c 0.11573,0 0.19775,-0.14941 0.19775,-0.26514 0,-0.11645 -0.08203,-0.26514 -0.19775,-0.26514 H 27.3136 Z"
   style="fill:#252626" />
		<path
   id="path83"
   inkscape:connector-curvature="0"
   d="m 38.10071,6.80951 v 3.62915 c 0,1.29272 -1.05176,2.34521 -2.34521,2.34521 -1.2832,0 -2.33642,-1.05249 -2.33642,-2.34521 V 6.80951 h 1.42529 v 3.62915 c 0,0.51416 0.41455,0.92797 0.91113,0.92797 0.50537,0 0.91113,-0.41382 0.91113,-0.92797 V 6.80951 Z"
   style="fill:#252626" />
		<path
   id="path85"
   inkscape:connector-curvature="0"
   d="m 42.85413,12.69232 c -0.59619,-0.12378 -1.14258,-0.3977 -1.84717,-1.00196 l 0.94483,-1.08545 c 0.52148,0.45556 0.8291,0.62915 1.19238,0.6958 0.1084,0.0249 0.21533,0.04102 0.31494,0.04102 0.16553,0 0.31494,-0.03296 0.43066,-0.09082 0.09961,-0.04981 0.27393,-0.15747 0.27393,-0.38086 0,-0.23218 -0.43066,-0.3728 -0.8042,-0.44751 -0.16552,-0.03296 -0.97705,-0.20728 -1.30811,-0.40649 -0.56396,-0.33106 -0.854,-0.83642 -0.854,-1.46631 0,-0.3479 0.11573,-0.67969 0.30615,-0.96094 0.19189,-0.26514 0.45704,-0.47241 0.76319,-0.61303 l -0.0088,0.00806 c 0.31494,-0.14942 0.6709,-0.22339 1.01075,-0.22339 0.14062,0 0.27392,0.00806 0.43945,0.03296 0.53027,0.09082 1.01954,0.30615 1.69922,0.87012 l -0.9126,1.09351 C 43.88245,8.25166 43.5675,8.17695 43.25256,8.17695 c -0.1582,0 -0.28125,0.03296 -0.38086,0.08276 -0.15821,0.06665 -0.24023,0.18237 -0.24023,0.29004 0,0.22412 0.29736,0.33179 0.77783,0.43067 0.04981,0.01684 0.1084,0.01684 0.167,0.03369 0.32227,0.07397 0.80273,0.17359 1.11767,0.35596 h -0.0088 c 0.59766,0.33179 0.9126,0.85328 0.9126,1.5 0,0.38086 -0.09961,0.73681 -0.31494,1.03565 -0.19043,0.27319 -0.47314,0.47168 -0.78809,0.62915 -0.33106,0.17432 -0.6709,0.22412 -1.04297,0.22412 -0.19922,-2e-5 -0.41455,-0.02493 -0.59766,-0.06667 z"
   style="fill:#252626" />
	</g>
	<g
   id="g109">
		<path
   id="path89"
   inkscape:connector-curvature="0"
   d="m 13.43421,16.19915 h 0.40869 v 0.61231 h 0.0205 c 0.23291,-0.43652 0.61231,-0.71851 1.18945,-0.71851 0.479,0 0.90821,0.23291 1.0415,0.71118 0.21826,-0.47828 0.67529,-0.71118 1.15429,-0.71118 0.79541,0 1.2041,0.41528 1.2041,1.27442 v 2.46313 h -0.44385 v -2.44189 c 0,-0.59839 -0.22558,-0.92212 -0.8584,-0.92212 -0.76758,0 -0.98584,0.63355 -0.98584,1.30884 v 2.05517 h -0.44238 v -2.46313 c 0.0059,-0.49292 -0.19775,-0.90088 -0.76025,-0.90088 -0.76758,0 -1.07666,0.57715 -1.08398,1.33667 v 2.02735 h -0.44385 v -3.63136 z"
   style="fill:#252626" />
		<path
   id="path91"
   inkscape:connector-curvature="0"
   d="m 22.24085,19.8305 h -0.40723 v -0.65479 h -0.01465 c -0.23144,0.4856 -0.71045,0.76025 -1.25244,0.76025 -0.91552,0 -1.27441,-0.53467 -1.27441,-1.37915 v -2.35766 h 0.44385 v 2.36425 c 0.02051,0.65479 0.2666,0.99976 0.97119,0.99976 0.76025,0 1.09131,-0.71777 1.09131,-1.45679 v -1.90723 h 0.44238 z"
   style="fill:#252626" />
		<path
   id="path93"
   inkscape:connector-curvature="0"
   d="m 23.08752,14.80535 h 0.44385 v 5.02515 h -0.44385 z"
   style="fill:#252626" />
		<path
   id="path95"
   inkscape:connector-curvature="0"
   d="m 25.08704,16.19915 h 0.73975 v 0.3728 h -0.73975 v 2.44922 c 0,0.28858 0.04248,0.45776 0.36035,0.47827 0.12598,0 0.25342,-0.0066 0.37939,-0.0205 v 0.37939 c -0.1333,0 -0.26074,0.01465 -0.39404,0.01465 -0.59179,0 -0.79541,-0.19702 -0.78809,-0.81665 v -2.48438 h -0.63427 v -0.3728 h 0.63427 v -1.09131 h 0.44238 c 0,0 0,1.09131 10e-6,1.09131 z"
   style="fill:#252626" />
		<path
   id="path97"
   inkscape:connector-curvature="0"
   d="m 26.47571,14.80535 h 0.44385 v 0.71045 h -0.44385 z m 0,1.3938 h 0.44385 v 3.63135 h -0.44385 z"
   style="fill:#252626" />
		<path
   id="path99"
   inkscape:connector-curvature="0"
   d="m 27.7721,16.19915 h 0.40723 v 0.61231 h 0.02197 c 0.23144,-0.43652 0.61231,-0.71851 1.18946,-0.71851 0.47754,0 0.90673,0.23291 1.0415,0.71118 0.21827,-0.47828 0.67529,-0.71118 1.15429,-0.71118 0.79541,0 1.20264,0.41528 1.20264,1.27442 v 2.46313 h -0.44238 v -2.44189 c 0,-0.59839 -0.22559,-0.92212 -0.85986,-0.92212 -0.76611,0 -0.98438,0.63355 -0.98438,1.30884 v 2.05517 h -0.44385 v -2.46313 c 0.0073,-0.49292 -0.19629,-0.90088 -0.76025,-0.90088 -0.76758,0 -1.07666,0.57715 -1.08398,1.33667 v 2.02735 H 27.7721 Z"
   style="fill:#252626" />
		<path
   id="path101"
   inkscape:connector-curvature="0"
   d="m 33.64319,14.80535 h 0.44385 v 0.71045 h -0.44385 z m 0,1.3938 h 0.44385 v 3.63135 h -0.44385 z"
   style="fill:#252626" />
		<path
   id="path103"
   inkscape:connector-curvature="0"
   d="m 35.93127,17.94452 -1.30079,-1.74536 h 0.55517 l 1.03418,1.37915 1.01367,-1.37915 h 0.55664 l -1.30957,1.73803 1.41504,1.89331 h -0.5625 L 36.192,18.3034 35.07286,19.8305 h -0.54785 z"
   style="fill:#252626" />
		<path
   id="path105"
   inkscape:connector-curvature="0"
   d="m 38.58704,18.13421 c 0.0073,0.64746 0.34423,1.42895 1.19677,1.42895 0.64746,0 0.99902,-0.38013 1.13965,-0.92945 h 0.44385 c -0.19043,0.82397 -0.66943,1.30225 -1.5835,1.30225 -1.15429,0 -1.64062,-0.88696 -1.64062,-1.92114 0,-0.95728 0.48633,-1.92188 1.64062,-1.92188 1.16748,0 1.63184,1.021 1.59668,2.04126 h -2.79345 z m 2.35107,-0.3728 c -0.02198,-0.6687 -0.43652,-1.29492 -1.15429,-1.29492 -0.7251,0 -1.12646,0.63355 -1.19677,1.29492 z"
   style="fill:#252626" />
		<path
   id="path107"
   inkscape:connector-curvature="0"
   d="m 41.98108,16.19915 h 0.40869 v 0.85108 h 0.01318 c 0.22559,-0.58374 0.71777,-0.92871 1.37256,-0.90088 v 0.44385 c -0.80273,-0.04248 -1.35059,0.54859 -1.35059,1.30151 v 1.93579 h -0.44385 c 10e-6,0 10e-6,-3.63135 10e-6,-3.63135 z"
   style="fill:#252626" />
	</g>
	
		<path
   id="path111"
   inkscape:connector-curvature="0"
   stroke-miterlimit="9.60012"
   d="m 12.95398,85.75169 c -1.76454,2.77135 -2.78681,6.06143 -2.78681,9.59029 0,9.87516 8.0054,17.88055 17.88056,17.88055 9.87516,0 17.88055,-8.00539 17.88055,-17.88055 0,-3.52914 -1.02242,-6.81947 -2.78722,-9.59094"
   style="fill:none;stroke:#252626;stroke-width:1.59055996;stroke-linecap:round;stroke-miterlimit:9.60011959" />
	<g
   id="XMLID_112_">
		
			<path
   id="path113"
   inkscape:connector-curvature="0"
   stroke-miterlimit="9.60012"
   d="m 19.1921,73.50496 c 2.28616,2.28616 5.44446,3.70019 8.93303,3.70019 3.48856,0 6.64685,-1.41402 8.93301,-3.70017"
   style="fill:#e5e5e5;stroke:#262626;stroke-width:1.59055996;stroke-linecap:round;stroke-linejoin:round;stroke-miterlimit:9.60011959" />
		
			<path
   id="path115"
   inkscape:connector-curvature="0"
   stroke-miterlimit="9.60012"
   d="m 25.04896,52.33172 c -5.48749,1.37568 -9.55701,6.32619 -9.55701,12.24023 0,2.46368 0.70532,4.76266 1.92481,6.70605"
   style="fill:#e5e5e5;stroke:#262626;stroke-width:1.59055996;stroke-linecap:round;stroke-linejoin:round;stroke-miterlimit:9.60011959" />
		
			<path
   id="path117"
   inkscape:connector-curvature="0"
   stroke-miterlimit="9.60012"
   d="m 38.74323,71.41955 c 1.27496,-1.97286 2.01507,-4.32385 2.01507,-6.8476 0,-5.90771 -4.06091,-10.85385 -9.53943,-12.23565"
   style="fill:#e5e5e5;stroke:#262626;stroke-width:1.59055996;stroke-linecap:round;stroke-linejoin:round;stroke-miterlimit:9.60011959" />
	</g>
	
		<circle
   id="circle120"
   stroke-miterlimit="9.60012"
   cx="28.047741"
   cy="120.82195"
   r="17.88056"
   style="fill:none;stroke:#252626;stroke-width:1.59055996;stroke-linecap:round;stroke-miterlimit:9.60011959" />
	
		<path
   id="path122"
   inkscape:connector-curvature="0"
   stroke-miterlimit="9.60012"
   d="m 12.90873,80.30918 c 3.24095,4.5546 8.56286,7.52545 14.57865,7.52545 6.24106,0 11.73531,-3.1975 14.9339,-8.0437"
   style="fill:none;stroke:#252626;stroke-width:1.59055996;stroke-linecap:round;stroke-miterlimit:9.60011959" />
	
		<circle
   id="circle124"
   stroke-miterlimit="9.60012"
   cx="28.047741"
   cy="146.32196"
   r="17.88056"
   style="fill:none;stroke:#252626;stroke-width:1.59055996;stroke-linecap:round;stroke-miterlimit:9.60011959" />
	
		<circle
   id="circle126"
   stroke-miterlimit="9.60012"
   cx="28.047741"
   cy="171.82196"
   r="17.88056"
   style="fill:none;stroke:#252626;stroke-width:1.59055996;stroke-linecap:round;stroke-miterlimit:9.60011959" />
	
		<circle
   id="circle128"
   stroke-miterlimit="9.60012"
   cx="28.047741"
   cy="197.32195"
   r="17.88055"
   style="fill:none;stroke:#252626;stroke-width:1.59055996;stroke-linecap:round;stroke-miterlimit:9.60011959" />
	
		<circle
   id="circle130"
   stroke-miterlimit="9.60012"
   cx="28.047741"
   cy="222.82195"
   r="17.88055"
   style="fill:none;stroke:#252626;stroke-width:1.59055996;stroke-linecap:round;stroke-miterlimit:9.60011959" />
	
		<path
   id="path132"
   inkscape:connector-curvature="0"
   stroke-miterlimit="9.60012"
   d="m 42.58538,258.77335 c 2.10411,-2.93246 3.34292,-6.52782 3.34292,-10.41249 0,-9.87515 -8.00539,-17.88054 -17.88055,-17.88054 -9.87516,0 -17.88056,8.00539 -17.88056,17.88054 0,4.62177 1.75351,8.83394 4.63153,12.00761"
   style="fill:none;stroke:#252626;stroke-width:1.59055996;stroke-linecap:round;stroke-miterlimit:9.60011959" />
	
		<path
   id="path134"
   inkscape:connector-curvature="0"
   stroke-miterlimit="9.60012"
   d="m 42.87458,263.82477 c -3.21326,-4.75626 -8.65486,-7.88339 -14.82684,-7.88339 -6.83425,0 -12.77298,3.83423 -15.78241,9.4689"
   style="fill:none;stroke:#252626;stroke-width:1.59055996;stroke-linecap:round;stroke-miterlimit:9.60011959" />
	<circle
   id="circle136"
   cx="28.12512"
   cy="95.321953"
   r="11.15413"
   style="fill:#252626" />
	<circle
   id="circle138"
   cx="28.12512"
   cy="120.82195"
   r="11.15413"
   style="fill:#252626" />
	<circle
   id="circle140"
   cx="28.12512"
   cy="146.32196"
   r="11.15413"
   style="fill:#252626" />
	<circle
   id="circle142"
   cx="28.12512"
   cy="171.82196"
   r="11.15413"
   style="fill:#252626" />
	<circle
   id="circle144"
   cx="28.12512"
   cy="197.32195"
   r="11.15413"
   style="fill:#252626" />
	<circle
   id="circle146"
   cx="28.12512"
   cy="222.82195"
   r="11.15412"
   style="fill:#252626" />
	<circle
   id="circle148"
   cx="28.12512"
   cy="248.32195"
   r="11.15412"
   style="fill:#252626" />
	<g
   id="g166">
		<g
   id="g152">
			<path
   id="path150"
   inkscape:connector-curvature="0"
   d="m 36.98816,33.13861 c -0.20948,0 -0.41382,-0.10547 -0.53101,-0.29736 -0.17871,-0.29297 -0.08642,-0.67529 0.20654,-0.854 l 0.64014,-0.39111 c 0.2937,-0.17725 0.67529,-0.08642 0.854,0.20654 0.17871,0.29296 0.08642,0.67529 -0.20654,0.854 l -0.64014,0.39111 c -0.10107,0.06151 -0.2124,0.09082 -0.32299,0.09082 z"
   style="fill:#00bc8b" />
		</g>
		<g
   id="g156">
			<path
   id="path154"
   inkscape:connector-curvature="0"
   d="m 38.00623,35.21868 c -0.26075,0 -0.50317,-0.16552 -0.5896,-0.42627 -0.1084,-0.32593 0.06885,-0.67749 0.39404,-0.78516 l 0.71191,-0.23584 c 0.32886,-0.10986 0.67749,0.06885 0.78516,0.39404 0.1084,0.32593 -0.06885,0.67749 -0.39404,0.78516 l -0.71191,0.23584 c -0.06519,0.02198 -0.13111,0.03223 -0.19556,0.03223 z"
   style="fill:#00bc8b" />
		</g>
		<g
   id="g160">
			<path
   id="path158"
   inkscape:connector-curvature="0"
   d="m 38.52698,37.52948 c -0.32007,0 -0.5918,-0.2461 -0.6189,-0.57056 -0.0271,-0.34204 0.22705,-0.64233 0.56909,-0.67016 l 0.7478,-0.06006 c 0.35522,-0.03369 0.64233,0.22705 0.66943,0.56836 0.02783,0.34204 -0.22632,0.64234 -0.56836,0.66943 l -0.7478,0.06152 c -0.01758,7.3e-4 -0.03442,0.0015 -0.05127,0.0015 v -3e-5 z"
   style="fill:#00bc8b" />
		</g>
		<g
   id="g164">
			<path
   id="path162"
   inkscape:connector-curvature="0"
   d="m 39.23084,40.04095 c -0.03223,0 -0.06518,-0.0022 -0.09814,-0.0074 l -0.74047,-0.11719 c -0.33838,-0.05347 -0.56983,-0.37207 -0.51636,-0.71118 0.0542,-0.33765 0.375,-0.56836 0.71118,-0.51636 l 0.74047,0.11719 c 0.33838,0.05347 0.56982,0.37207 0.51636,0.71118 -0.04834,0.30543 -0.31274,0.52369 -0.61303,0.52369 v 2e-5 z"
   style="fill:#00bc8b" />
		</g>
	</g>
	<g
   id="g184">
		<g
   id="g170">
			<path
   id="path168"
   inkscape:connector-curvature="0"
   d="m 18.87756,32.94452 c -0.08276,0 -0.1648,-0.01538 -0.24023,-0.04541 -0.07471,-0.03735 -0.14209,-0.08204 -0.20215,-0.13477 -0.11279,-0.12011 -0.18018,-0.27758 -0.18018,-0.44238 0,-0.1648 0.06738,-0.323 0.18017,-0.44238 0.17212,-0.17285 0.44971,-0.22559 0.68262,-0.1355 0.07471,0.03809 0.14209,0.08276 0.19483,0.1355 0.12012,0.11938 0.1875,0.27758 0.1875,0.44238 0,0.08203 -0.01538,0.16479 -0.04541,0.2395 -0.03735,0.07544 -0.08204,0.14282 -0.14209,0.20288 -0.05273,0.05273 -0.12012,0.09741 -0.19483,0.13477 -0.07543,0.03002 -0.15819,0.04541 -0.24023,0.04541 z"
   style="fill:#ff4257" />
		</g>
		<g
   id="g174">
			<path
   id="path172"
   inkscape:connector-curvature="0"
   d="m 18.1781,35.21868 c -0.06446,0 -0.13037,-0.01025 -0.19556,-0.03223 l -0.71191,-0.23584 c -0.32519,-0.10767 -0.50244,-0.45923 -0.39404,-0.78516 0.10766,-0.32519 0.4563,-0.50464 0.78516,-0.39404 l 0.71192,0.23584 c 0.32519,0.10766 0.50244,0.45922 0.39404,0.78516 -0.08644,0.26075 -0.32887,0.42627 -0.58961,0.42627 z"
   style="fill:#ff4257" />
		</g>
		<g
   id="g178">
			<path
   id="path176"
   inkscape:connector-curvature="0"
   d="m 18.03089,37.56024 c -0.01685,0 -0.03369,-7.3e-4 -0.05127,-0.0022 l -1.49487,-0.1216 c -0.34204,-0.0271 -0.59619,-0.32739 -0.56836,-0.66943 0.02783,-0.34131 0.31201,-0.60352 0.66944,-0.56836 l 1.49487,0.12158 c 0.34204,0.0271 0.59619,0.32739 0.56836,0.66943 -0.02638,0.32445 -0.29811,0.57055 -0.61817,0.57055 z"
   style="fill:#ff4257" />
		</g>
		<g
   id="g182">
			<path
   id="path180"
   inkscape:connector-curvature="0"
   d="m 16.21228,40.15813 c -0.30029,0 -0.5647,-0.21827 -0.61304,-0.52368 -0.05347,-0.33911 0.17798,-0.65771 0.51636,-0.71118 l 2.22217,-0.35156 c 0.33985,-0.05127 0.65771,0.17871 0.71118,0.51636 0.05347,0.33911 -0.17798,0.65771 -0.51636,0.71118 l -2.22217,0.35156 c -0.03296,0.0051 -0.06592,0.0074 -0.09814,0.0074 z"
   style="fill:#ff4257" />
		</g>
	</g>
</g>
<g
   id="LEDS"
   transform="matrix(1.3333333,0,0,1.3333333,-1.5999999e-4,-0.09594667)">
	<g
   id="g189">
		<path
   id="path187"
   inkscape:connector-curvature="0"
   d="m 24.93323,30.6242 c -0.21313,0 -0.42114,-0.10913 -0.53687,-0.30688 L 23.60315,28.966 C 23.27869,28.41229 22.67736,28.06805 22.03577,28.06805 H 18.6703 c -0.34277,0 -0.6211,-0.27832 -0.6211,-0.6211 0,-0.34278 0.27832,-0.6211 0.6211,-0.6211 h 3.36547 c 1.08106,0 2.09179,0.57935 2.63965,1.51172 l 0.79322,1.35132 c 0.17359,0.2959 0.07397,0.67603 -0.22192,0.85034 -0.09815,0.05788 -0.20655,0.08497 -0.31349,0.08497 z"
   style="fill:#1f86cc" />
	</g>
	<g
   id="g193">
		<path
   id="path191"
   inkscape:connector-curvature="0"
   d="m 31.41956,30.6242 c -0.10693,0 -0.21533,-0.0271 -0.31348,-0.08496 -0.2959,-0.17432 -0.3955,-0.55445 -0.22192,-0.85034 l 0.79322,-1.35132 c 0.54712,-0.93237 1.55932,-1.51172 2.64038,-1.51172 h 3.38891 c 0.34277,0 0.6211,0.27832 0.6211,0.6211 0,0.34278 -0.27832,0.6211 -0.6211,0.6211 h -3.38891 c -0.64234,0 -1.24365,0.34424 -1.56812,0.89795 l -0.79321,1.35132 C 31.8407,30.51507 31.6327,30.6242 31.41956,30.6242 Z"
   style="fill:#1f86cc" />
	</g>
</g>
<g
   id="g147"
   transform="matrix(1.0416535,0,0,1.0416535,4.7077912e-4,0.28781833)">
	<g
   id="g118">
		
			<linearGradient
   id="SVGID_1_"
   gradientUnits="userSpaceOnUse"
   x1="372.20877"
   y1="-5206.7949"
   x2="385.20877"
   y2="-5206.7949"
   gradientTransform="rotate(90,-2413.45,-2785.5602)">
			<stop
   offset="0"
   style="stop-color:#ABA9A9"
   id="stop93" />
			<stop
   offset="1"
   style="stop-color:#8F8F8F"
   id="stop95" />
		</linearGradient>
		<circle
   cx="7.7846599"
   cy="6.5986099"
   r="6.5"
   id="circle98"
   style="fill:url(#SVGID_1_)" />
		
			<linearGradient
   id="SVGID_2_"
   gradientUnits="userSpaceOnUse"
   x1="372.8963"
   y1="-5206.7949"
   x2="384.52017"
   y2="-5206.7949"
   gradientTransform="rotate(90,-2413.45,-2785.5602)">
			<stop
   offset="0.00559"
   style="stop-color:#F5F5F5"
   id="stop100" />
			<stop
   offset="1"
   style="stop-color:#C2C2C2"
   id="stop102" />
		</linearGradient>
		<circle
   cx="7.7846599"
   cy="6.5980802"
   r="5.8119402"
   id="circle105"
   style="fill:url(#SVGID_2_)" />
		
			<linearGradient
   id="SVGID_3_"
   gradientUnits="userSpaceOnUse"
   x1="373.34338"
   y1="-5206.7949"
   x2="384.07312"
   y2="-5206.7949"
   gradientTransform="rotate(90,-2413.45,-2785.5602)">
			<stop
   offset="0.00559"
   style="stop-color:#EBEBEB"
   id="stop107" />
			<stop
   offset="1"
   style="stop-color:#CCCCCC"
   id="stop109" />
		</linearGradient>
		<circle
   cx="7.7846599"
   cy="6.5980802"
   r="5.3648701"
   id="circle112"
   style="fill:url(#SVGID_3_)" />
		<g
   id="g116">
			<path
   d="M 11.25354,5.90914 9.28993,5.67388 C 8.9885,5.63777 8.75091,5.40009 8.71492,5.09864 L 8.48064,3.13636 C 8.47043,3.05082 8.39788,2.98643 8.31174,2.98643 H 7.2576 c -0.08613,0 -0.15867,0.06438 -0.16889,0.1499 L 6.85387,5.09973 C 6.8178,5.40121 6.5801,5.63887 6.2786,5.67486 L 4.31584,5.90919 C 4.2303,5.91941 4.16591,5.99195 4.16591,6.07809 v 1.0542 c 0,0.08613 0.06438,0.15867 0.1499,0.16889 L 6.2788,7.53598 C 6.58023,7.57204 6.81785,7.80966 6.85391,8.1111 l 0.23479,1.96293 c 0.01023,0.08552 0.08277,0.1499 0.16889,0.1499 h 1.0542 c 0.08612,0 0.15865,-0.06436 0.16889,-0.14986 L 8.7159,8.11088 C 8.75201,7.80949 8.98962,7.57193 9.29102,7.53589 l 1.96249,-0.2347 c 0.08552,-0.01023 0.1499,-0.08276 0.1499,-0.16889 V 6.07803 c 0,-0.08612 -0.06436,-0.15865 -0.14987,-0.16889 z"
   id="path114"
   inkscape:connector-curvature="0"
   style="fill:#8c8c8c" />
		</g>
	</g>
	<g
   id="g145">
		
			<linearGradient
   id="SVGID_4_"
   gradientUnits="userSpaceOnUse"
   x1="723.0354"
   y1="-5206.7949"
   x2="736.0354"
   y2="-5206.7949"
   gradientTransform="rotate(90,-2413.45,-2785.5602)">
			<stop
   offset="0"
   style="stop-color:#ABA9A9"
   id="stop120" />
			<stop
   offset="1"
   style="stop-color:#8F8F8F"
   id="stop122" />
		</linearGradient>
		<circle
   cx="7.7846599"
   cy="357.4252"
   r="6.5"
   id="circle125"
   style="fill:url(#SVGID_4_)" />
		
			<linearGradient
   id="SVGID_5_"
   gradientUnits="userSpaceOnUse"
   x1="723.7229"
   y1="-5206.7949"
   x2="735.3468"
   y2="-5206.7949"
   gradientTransform="rotate(90,-2413.45,-2785.5602)">
			<stop
   offset="0.00559"
   style="stop-color:#F5F5F5"
   id="stop127" />
			<stop
   offset="1"
   style="stop-color:#C2C2C2"
   id="stop129" />
		</linearGradient>
		<circle
   cx="7.7846599"
   cy="357.42468"
   r="5.8119402"
   id="circle132"
   style="fill:url(#SVGID_5_)" />
		
			<linearGradient
   id="SVGID_6_"
   gradientUnits="userSpaceOnUse"
   x1="724.16998"
   y1="-5206.7949"
   x2="734.89972"
   y2="-5206.7949"
   gradientTransform="rotate(90,-2413.45,-2785.5602)">
			<stop
   offset="0.00559"
   style="stop-color:#EBEBEB"
   id="stop134" />
			<stop
   offset="1"
   style="stop-color:#CCCCCC"
   id="stop136" />
		</linearGradient>
		<circle
   cx="7.7846599"
   cy="357.42468"
   r="5.3648701"
   id="circle139"
   style="fill:url(#SVGID_6_)" />
		<g
   id="g143">
			<path
   d="m 11.25354,356.73575 -1.96361,-0.23526 c -0.30144,-0.0361 -0.53902,-0.2738 -0.57501,-0.57526 l -0.23428,-1.96228 c -0.01021,-0.0855 -0.08276,-0.14993 -0.1689,-0.14993 H 7.2576 c -0.08613,0 -0.15867,0.0644 -0.16889,0.1499 l -0.23484,1.96341 c -0.03606,0.30148 -0.27377,0.53912 -0.57526,0.57513 l -1.96276,0.23431 c -0.08554,0.0102 -0.14993,0.0828 -0.14993,0.16891 v 1.0542 c 0,0.0861 0.06438,0.15866 0.1499,0.16888 l 1.96299,0.2348 c 0.30144,0.036 0.53906,0.27368 0.57512,0.57513 l 0.23479,1.96292 c 0.01023,0.0855 0.08277,0.1499 0.16889,0.1499 h 1.0542 c 0.08612,0 0.15865,-0.0644 0.16889,-0.14987 l 0.23521,-1.9632 c 0.03611,-0.30139 0.27372,-0.53894 0.57512,-0.57498 l 1.96249,-0.23471 c 0.08552,-0.0102 0.1499,-0.0828 0.1499,-0.16888 v -1.05426 c -1e-5,-0.0861 -0.06437,-0.15864 -0.14988,-0.16886 z"
   id="path141"
   inkscape:connector-curvature="0"
   style="fill:#8c8c8c" />
		</g>
	</g>
</g>
<g
   id="g204"
   transform="matrix(1.0416535,0,0,1.0416535,4.7077912e-4,0.28781833)">
	<g
   id="g175">
		
			<linearGradient
   id="SVGID_7_"
   gradientUnits="userSpaceOnUse"
   x1="372.20877"
   y1="-5263.3403"
   x2="385.20877"
   y2="-5263.3403"
   gradientTransform="rotate(90,-2413.45,-2785.5602)">
			<stop
   offset="0"
   style="stop-color:#ABA9A9"
   id="stop149" />
			<stop
   offset="1"
   style="stop-color:#8F8F8F"
   id="stop151" />
		</linearGradient>
		<circle
   cx="64.330254"
   cy="6.5986099"
   r="6.5"
   id="circle154"
   style="fill:url(#SVGID_7_)" />
		
			<linearGradient
   id="SVGID_8_"
   gradientUnits="userSpaceOnUse"
   x1="372.8963"
   y1="-5263.3403"
   x2="384.52017"
   y2="-5263.3403"
   gradientTransform="rotate(90,-2413.45,-2785.5602)">
			<stop
   offset="0.00559"
   style="stop-color:#F5F5F5"
   id="stop156" />
			<stop
   offset="1"
   style="stop-color:#C2C2C2"
   id="stop158" />
		</linearGradient>
		<circle
   cx="64.330254"
   cy="6.5980802"
   r="5.8119402"
   id="circle161"
   style="fill:url(#SVGID_8_)" />
		
			<linearGradient
   id="SVGID_9_"
   gradientUnits="userSpaceOnUse"
   x1="373.34338"
   y1="-5263.3403"
   x2="384.07312"
   y2="-5263.3403"
   gradientTransform="rotate(90,-2413.45,-2785.5602)">
			<stop
   offset="0.00559"
   style="stop-color:#EBEBEB"
   id="stop163" />
			<stop
   offset="1"
   style="stop-color:#CCCCCC"
   id="stop165" />
		</linearGradient>
		<circle
   cx="64.330254"
   cy="6.5980802"
   r="5.3648701"
   id="circle168"
   style="fill:url(#SVGID_9_)" />
		<g
   id="g172">
			<path
   d="M 67.79914,5.90914 65.83552,5.67388 C 65.53409,5.63777 65.2965,5.40008 65.26052,5.09863 L 65.02623,3.13635 C 65.01602,3.05081 64.94347,2.98642 64.85734,2.98642 H 63.8032 c -0.08613,0 -0.15866,0.06438 -0.1689,0.1499 l -0.23484,1.9634 C 63.3634,5.40121 63.12569,5.63886 62.8242,5.67486 l -1.96276,0.23433 c -0.08553,0.01021 -0.14993,0.08276 -0.14993,0.1689 v 1.0542 c 0,0.08613 0.06438,0.15867 0.14989,0.16889 l 1.96299,0.2348 c 0.30144,0.03606 0.53906,0.27368 0.57512,0.57512 l 0.23479,1.96293 c 0.01023,0.08552 0.08276,0.1499 0.1689,0.1499 h 1.0542 c 0.08611,0 0.15865,-0.06436 0.16889,-0.14986 L 65.2615,8.11089 C 65.29761,7.8095 65.53522,7.57194 65.83662,7.5359 L 67.79911,7.3012 C 67.88462,7.29096 67.949,7.21842 67.949,7.13229 V 6.07803 c 0,-0.08612 -0.06436,-0.15865 -0.14986,-0.16889 z"
   id="path170"
   inkscape:connector-curvature="0"
   style="fill:#8c8c8c" />
		</g>
	</g>
	<g
   id="g202">
		
			<linearGradient
   id="SVGID_10_"
   gradientUnits="userSpaceOnUse"
   x1="723.0354"
   y1="-5263.3403"
   x2="736.0354"
   y2="-5263.3403"
   gradientTransform="rotate(90,-2413.45,-2785.5602)">
			<stop
   offset="0"
   style="stop-color:#ABA9A9"
   id="stop177" />
			<stop
   offset="1"
   style="stop-color:#8F8F8F"
   id="stop179" />
		</linearGradient>
		<circle
   cx="64.330254"
   cy="357.4252"
   r="6.5"
   id="circle182"
   style="fill:url(#SVGID_10_)" />
		
			<linearGradient
   id="SVGID_11_"
   gradientUnits="userSpaceOnUse"
   x1="723.7229"
   y1="-5263.3403"
   x2="735.3468"
   y2="-5263.3403"
   gradientTransform="rotate(90,-2413.45,-2785.5602)">
			<stop
   offset="0.00559"
   style="stop-color:#F5F5F5"
   id="stop184" />
			<stop
   offset="1"
   style="stop-color:#C2C2C2"
   id="stop186" />
		</linearGradient>
		<circle
   cx="64.330254"
   cy="357.42468"
   r="5.8119402"
   id="circle189"
   style="fill:url(#SVGID_11_)" />
		
			<linearGradient
   id="SVGID_12_"
   gradientUnits="userSpaceOnUse"
   x1="724.16998"
   y1="-5263.3403"
   x2="734.89972"
   y2="-5263.3403"
   gradientTransform="rotate(90,-2413.45,-2785.5602)">
			<stop
   offset="0.00559"
   style="stop-color:#EBEBEB"
   id="stop191" />
			<stop
   offset="1"
   style="stop-color:#CCCCCC"
   id="stop193" />
		</linearGradient>
		<circle
   cx="64.330254"
   cy="357.42468"
   r="5.3648701"
   id="circle196"
   style="fill:url(#SVGID_12_)" />
		<g
   id="g200">
			<path
   d="m 67.79914,356.73575 -1.96362,-0.23526 c -0.30143,-0.0361 -0.53902,-0.2738 -0.575,-0.57526 l -0.23429,-1.96228 c -0.01021,-0.0855 -0.08276,-0.14993 -0.16889,-0.14993 H 63.8032 c -0.08613,0 -0.15866,0.0644 -0.1689,0.1499 l -0.23484,1.96341 c -0.03606,0.30148 -0.27377,0.53912 -0.57526,0.57513 l -1.96276,0.23431 c -0.08553,0.0102 -0.14993,0.0828 -0.14993,0.16891 v 1.0542 c 0,0.0861 0.06438,0.15866 0.14989,0.16888 l 1.96299,0.2348 c 0.30144,0.036 0.53906,0.27368 0.57512,0.57513 l 0.23479,1.96292 c 0.01023,0.0855 0.08276,0.1499 0.1689,0.1499 h 1.0542 c 0.08611,0 0.15865,-0.0644 0.16889,-0.14987 l 0.23521,-1.9632 c 0.03611,-0.30139 0.27372,-0.53894 0.57512,-0.57498 l 1.96249,-0.23471 c 0.08552,-0.0102 0.14989,-0.0828 0.14989,-0.16888 v -1.05426 c 0,-0.0861 -0.06436,-0.15864 -0.14986,-0.16886 z"
   id="path198"
   inkscape:connector-curvature="0"
   style="fill:#8c8c8c" />
		</g>
	</g>
</g>
</svg>