<?xml version="1.0" encoding="utf-8"?>
<!-- Generator: Adobe Illustrator 23.0.3, SVG Export Plug-In . SVG Version: 6.00 Build 0)  -->
<svg version="1.0" id="Layer_1" xmlns="http://www.w3.org/2000/svg" xmlns:xlink="http://www.w3.org/1999/xlink" x="0px" y="0px"
	 viewBox="0 0 75 380" enable-background="new 0 0 75 380" xml:space="preserve">
<g id="bg">
	<g>
		<rect fill="#E5E5E5" width="75" height="380"/>
	</g>
	<g>
		<path fill="#252626" d="M42.65073,374.67691H32.18447c-1.77143,0-3.20745-1.43604-3.20745-3.20746v-36.33148
			c0-1.77142,1.43602-3.20743,3.20745-3.20743h10.46626c1.77143,0,3.20745,1.436,3.20745,3.20743v36.33148
			C45.85818,373.24088,44.42216,374.67691,42.65073,374.67691z"/>
		<g>
			<path fill="#E6E5E5" d="M41.26395,362.78329c-0.11426,0.26349-0.26582,0.48099-0.45469,0.65225
				c-0.1891,0.17126-0.40401,0.29843-0.64567,0.3822c-0.24189,0.0835-0.49434,0.12503-0.75781,0.12503
				c-0.44812,0-0.79723-0.06567-1.04757-0.19754s-0.44601-0.28552-0.58632-0.46127c-0.14968-0.1933-0.244-0.40845-0.28341-0.64566
				c-0.03965-0.23718-0.05936-0.4744-0.05936-0.71158c0-0.33411,0.00681-0.56451,0.01971-0.69189
				c0.01338-0.12766,0.02839-0.19989,0.04622-0.2175c0.03496-0.02652,0.17995-0.03943,0.43475-0.03943h3.08382
				c0.08775,0,0.16024,0.00659,0.21749,0.01971c0.05678,0.01315,0.10088,0.0481,0.13162,0.10535
				c0.03073,0.05701,0.05044,0.14264,0.05936,0.2569c0.00867,0.11426,0.01337,0.2724,0.01337,0.4744
				C41.43546,362.20334,41.37798,362.51984,41.26395,362.78329 M35.94046,349.96167c0.01173-0.08282,0.0474-0.14828,0.10699-0.19592
				c0.05936-0.04739,0.15414-0.07718,0.28506-0.08914c0.13068-0.01175,0.31485-0.01782,0.55252-0.01782
				c0.92675,0,1.6367,0.2583,2.12986,0.77518c0.49294,0.51685,0.73975,1.2092,0.73975,2.0766
				c0,0.08212-0.01713,0.25925-0.02792,0.38077c-0.06827-0.00092-0.13655-0.00186-0.20482-0.00327
				c-0.18699-0.004-0.39017-0.01431-0.60954-0.03052c-0.0488,0.02441-0.07508,0.07111-0.0793,0.14008
				c-0.00399,0.06921,0.01408,0.12411,0.05514,0.1647l0.21913,0.02438c0.1464,0.0162,0.26817,0.04272,0.36577,0.07907
				c0.0976,0.03662,0.1464,0.07532,0.1464,0.11591s-0.0244,0.11591-0.0732,0.22546c-0.0488,0.1098-0.1138,0.24191-0.19497,0.39606
				c-0.08142,0.1546-0.16893,0.31931-0.26207,0.49387c-0.09362,0.17477-0.18113,0.33948-0.26231,0.49362
				c-0.18699,0.35779-0.37773,0.70901-0.57293,1.05438c-0.19497,0.34558-0.38595,0.68085-0.57271,1.0058
				c-0.23603-0.42255-0.46759-0.86551-0.69494-1.32864c-0.22758-0.46335-0.45516-0.92227-0.68274-1.37766
				c-0.01643-0.03238-0.04458-0.09317-0.08517-0.18277c-0.04082-0.08917-0.08352-0.18466-0.1281-0.28647
				c-0.04481-0.10159-0.08352-0.19687-0.1159-0.28647c-0.03261-0.08939-0.04856-0.15039-0.04856-0.18277
				c0-0.0488,0.03214-0.08728,0.09736-0.11591c0.06499-0.02838,0.20319-0.06287,0.41458-0.10349l0.15836-0.02438
				c0.04059-0.04059,0.05889-0.0976,0.0549-0.17081c-0.00422-0.07297-0.03473-0.11777-0.09127-0.13397
				c-0.17315,0.01361-0.38548,0.02347-0.63722,0.02933v-2.58643C35.92264,350.15781,35.9285,350.04495,35.94046,349.96167
				 M36.94979,359.08667c0,0.32516-0.00422,0.58511-0.0122,0.78009c-0.00821,0.19498-0.03659,0.34747-0.0854,0.45703
				c-0.01736,0.03943-0.03801,0.07416-0.06171,0.10443c-0.00047,0.00021-0.00117,0.0007-0.00165,0.00092
				c-0.14194-0.02722-0.2616-0.05865-0.35825-0.09454c-0.16048-0.05936-0.27615-0.16635-0.34748-0.32071
				c-0.07132-0.15439-0.1159-0.37119-0.13372-0.6506c-0.01784-0.27896-0.02675-0.6506-0.02675-1.11374v-2.53787l0.63722,1.24161
				c0.08916,0.17081,0.16024,0.31509,0.21326,0.43286c0.05279,0.11801,0.09127,0.2276,0.11567,0.32919
				c0.02439,0.10181,0.04058,0.20926,0.04879,0.32306c0.00798,0.1138,0.0122,0.25595,0.0122,0.42654v0.62173H36.94979z
				 M41.98071,360.59409c0.05278-0.14639,0.10534-0.30267,0.15836-0.46924c0.05279-0.1666,0.10159-0.32916,0.1464-0.48776
				c0.04458-0.15839,0.07907-0.29047,0.1037-0.39627c-0.02464-0.05655-0.07133-0.09314-0.1403-0.10959
				c-0.06921-0.01617-0.12387-0.00821-0.1647,0.02441c-0.16259,0.31674-0.31885,0.57693-0.46924,0.78009
				c-0.15039,0.20343-0.28247,0.3374-0.39603,0.40237c-0.06523,0.03262-0.1403,0.06079-0.2257,0.08517
				c-0.08517,0.02441-0.18699,0.04269-0.30477,0.0549c-0.11777,0.01221-0.25996,0.02252-0.42654,0.03049
				c-0.16658,0.00824-0.36788,0.01221-0.60344,0.01221c-0.26817,0-0.48965-0.00797-0.66444-0.02438
				c-0.17479-0.0162-0.31486-0.03662-0.42043-0.06076c-0.10582-0.02466-0.1891-0.05304-0.24987-0.08542
				c-0.061-0.03238-0.10793-0.06897-0.14031-0.1098c-0.0976-0.10556-0.16048-0.26205-0.18887-0.46924
				c-0.02862-0.2074-0.0427-0.47345-0.0427-0.79865v-0.8045c0.00188-0.11142,0.00517-0.20996,0.00986-0.29443
				c0.00798-0.15015,0.03027-0.29047,0.06687-0.42044c0.03659-0.12997,0.09337-0.2684,0.1708-0.41458
				c0.0183-0.03494,0.03894-0.07272,0.06077-0.11237c0.02933-0.00095,0.05982-0.0014,0.09385-0.0014h0.70714
				c0.23555,0,0.42865,0.004,0.57903,0.01221c0.15015,0.00797,0.27005,0.02414,0.35966,0.04855
				c0.12177,0.03262,0.20905,0.08963,0.26207,0.17081c0.05279,0.08118,0.09127,0.17877,0.11591,0.29257l0.10956,0.47534
				c0.03238,0.0408,0.08728,0.05887,0.16447,0.0549c0.07718-0.004,0.1281-0.02631,0.1525-0.06711
				c0-0.13818-0.00821-0.31274-0.0244-0.52414c-0.01643-0.2114-0.0244-0.42679-0.0244-0.64615
				c0-0.23553,0.00798-0.46313,0.0244-0.6825c0.01619-0.2196,0.0244-0.40237,0.0244-0.54877
				c-0.0244-0.04037-0.07532-0.0629-0.1525-0.06711c-0.07719-0.00375-0.1321,0.01431-0.16447,0.0549L40.39,355.99838
				c-0.03261,0.15439-0.07132,0.25809-0.1159,0.31088c-0.04482,0.05276-0.1037,0.09125-0.17667,0.11566
				c-0.0732,0.02438-0.19943,0.04269-0.37797,0.0549c-0.17901,0.01221-0.39839,0.01828-0.65834,0.01828h-0.55089
				c0.00423-0.00681,0.00798-0.01312,0.0122-0.02017l0.76791-1.32864c0.15414-0.26019,0.29445-0.50183,0.42067-0.72543
				c0.12576-0.22336,0.24987-0.42065,0.37163-0.59125c0.12201-0.17056,0.24776-0.30875,0.37798-0.41431
				c0.02698-0.02182,0.05466-0.04153,0.08305-0.06009c0.08258,0.03287,0.15532,0.07156,0.21796,0.11685
				c0.10159,0.07297,0.18464,0.15836,0.24987,0.25598c0.06499,0.09735,0.11777,0.20715,0.1586,0.32892
				c0.04036,0.12201,0.08517,0.2562,0.13397,0.40237c0.03238,0.04083,0.0854,0.05701,0.1586,0.0488
				c0.07297-0.00797,0.12176-0.03238,0.14616-0.07321c-0.01643-0.12997-0.0305-0.27823-0.04247-0.44482
				c-0.01243-0.16656-0.02674-0.32916-0.04293-0.48755c-0.01619-0.1586-0.03754-0.30005-0.05467-0.42676
				c-0.04247-0.31345-0.03285-0.58115-0.03285-0.58115c0-0.61752-0.17525-1.15738-0.44272-1.60925
				c-0.26723-0.45139-0.60907-0.80777-1.02481-1.06915c-0.41597-0.26135-0.90305-0.44553-1.46143-0.55252
				c-0.55863-0.10699-1.21204-0.16049-1.96047-0.16049c-0.74867,0-1.40536,0.00894-1.96938,0.02676
				c-0.5645,0.01782-1.08441,0.05655-1.55975,0.11591c-0.07109,0.03564-0.1098,0.10416-0.11567,0.2048
				c-0.0061,0.10114,0.02042,0.18137,0.08024,0.24072l0.64145,0.07132c0.202,0.02393,0.3592,0.06241,0.47252,0.11591
				c0.11262,0.05325,0.19591,0.15134,0.2494,0.29398s0.08611,0.3327,0.09807,0.57037
				c0.01173,0.23767,0.01783,0.54666,0.01783,0.92673v6.57681c0,0.46313-0.0061,0.83478-0.01783,1.11374
				c-0.01196,0.27942-0.05349,0.49622-0.12482,0.6506c-0.07132,0.15436-0.1783,0.26135-0.32072,0.32071
				c-0.14265,0.0596-0.34489,0.10699-0.60601,0.14264l-0.37445,0.0535c-0.0542,0.0542-0.07837,0.12833-0.0732,0.22171
				c-0.00047,0.19077-0.00257,0.25128-0.00657,0.46619c-0.00422,0.24612-0.01548,0.52109-0.03355,0.82538
				c0.01807,0.04483,0.06921,0.07156,0.15438,0.08072c0.08493,0.0087,0.14546-0.00916,0.18136-0.05371l0.04012-0.28201
				c0.02699-0.19687,0.06264-0.34888,0.10746-0.45612c0.04482-0.10745,0.12529-0.18793,0.24166-0.24164
				c0.11613-0.05374,0.27943-0.08542,0.48989-0.09433c0.21022-0.00867,0.48988-0.01312,0.83899-0.01312h1.69113
				c0.07156,0,0.12763,0.00446,0.16798,0.01312c0.04012,0.00891,0.06921,0.03378,0.08704,0.07416
				c0.01783,0.0401,0.02909,0.10275,0.03378,0.18768c0.00422,0.08517,0.00657,0.2034,0.00657,0.35568
				c0,0.26865-0.03355,0.46994-0.10065,0.60413c-0.0671,0.13422-0.17667,0.25058-0.32894,0.34912
				c-0.15226,0.10745-0.32001,0.21915-0.50325,0.33551c-0.1837,0.11612-0.36718,0.23251-0.55042,0.34888
				c-0.18347,0.11636-0.36014,0.22827-0.53023,0.33572c-0.1701,0.10724-0.31767,0.20578-0.44296,0.29517
				c-0.3402,0.24164-0.61986,0.46759-0.839,0.67804c-0.21913,0.21021-0.39134,0.42279-0.51662,0.63745
				c-0.12552,0.21469-0.21257,0.44061-0.26183,0.67783c-0.04903,0.23718-0.07367,0.49878-0.07367,0.78525
				c0,0.25949,0.02229,0.45657,0.06687,0.59055c0.02698,0.03589,0.06053,0.05161,0.10088,0.04715
				c0.04012-0.0047,0.06921-0.02487,0.08728-0.06052c0.01759-0.17902,0.06029-0.34888,0.1274-0.50983
				c0.0671-0.16119,0.14968-0.30008,0.24846-0.41623c0.18793-0.23273,0.40026-0.45187,0.63746-0.65787
				c0.23696-0.20575,0.4988-0.41599,0.78526-0.63089c0.28624-0.21466,0.60837-0.43616,0.9664-0.66418
				c0.35779-0.2283,0.75171-0.47675,1.1813-0.74515c0.05372-0.03592,0.10933-0.065,0.16775-0.08728
				c0.05795-0.02252,0.10956-0.01572,0.15438,0.02017c0.06241,0.16986,0.15649,0.35123,0.28177,0.54361
				c0.12529,0.19238,0.27967,0.37375,0.46314,0.54385c0.18347,0.16986,0.39815,0.31064,0.64426,0.42276
				c0.24612,0.11169,0.53024,0.16776,0.85237,0.16776c0.4744,0,0.86363-0.10535,1.16793-0.31555
				c0.30406-0.21021,0.54126-0.4765,0.71136-0.79865c0.16986-0.3132,0.27967-0.65997,0.32894-1.04007
				c0.04903-0.38052,0.07554-0.78104,0.07367-1.20169C41.8404,361.09006,41.98071,360.59409,41.98071,360.59409"/>
		</g>
	</g>
	<g>
		<g>
			<g>
				<g>
					<circle fill="#BCBCBC" cx="7.99992" cy="6.39054" r="5.73626"/>
					<path fill="#808080" d="M7.99996,11.8632c3.02102-0.00348,5.46916-2.45164,5.47262-5.47267c0,0,0-0.00001,0-0.00003
						c-0.00002-3.02247-2.45023-5.47264-5.4727-5.47262s-5.47264,2.45023-5.47262,5.4727S4.97749,11.86322,7.99996,11.8632
						 M1.99996,6.39054c0-3.31371,2.68629-6,6-6s6,2.68629,6,6s-2.68629,6-6,6C4.68632,12.39038,2.00012,9.70418,1.99996,6.39054z"
						/>
				</g>
				<polygon fill="#6E6E6E" points="4.50496,7.04954 7.34096,7.04954 7.34096,9.88554 8.65896,9.88554 8.65896,7.04954 
					11.49396,7.04954 11.49396,5.73154 8.65896,5.73154 8.65896,2.89554 7.34096,2.89554 7.34096,5.73154 4.50496,5.73154 				"/>
			</g>
		</g>
	</g>
	<g>
		<g>
			<g>
				<g>
					<circle fill="#BCBCBC" cx="67.00985" cy="373.60947" r="5.73626"/>
					<path fill="#808080" d="M67.0098,379.08212c-3.02102-0.00348-5.46916-2.45166-5.47262-5.47269c0,0,0,0,0-0.00003
						c0.00002-3.02246,2.45023-5.47263,5.4727-5.4726c3.02247,0,5.47264,2.45023,5.47262,5.47269
						S70.03227,379.08215,67.0098,379.08212 M73.0098,373.60947c0-3.31372-2.68629-6-6-6c-3.31371,0-6,2.68628-6,6
						c0,3.31369,2.68629,6,6,6C70.32345,379.60928,73.00964,376.9231,73.0098,373.60947z"/>
				</g>
				<polygon fill="#6E6E6E" points="70.50481,374.26846 67.66881,374.26846 67.66881,377.10446 66.35081,377.10446 
					66.35081,374.26846 63.51581,374.26846 63.51581,372.95047 66.35081,372.95047 66.35081,370.11447 67.66881,370.11447 
					67.66881,372.95047 70.50481,372.95047 				"/>
			</g>
		</g>
	</g>
</g>
<g id="serigraphy">
	<g>
		<g>
			<path fill="#252626" d="M5,24.22949c-0.11035,0-0.2207-0.0293-0.32031-0.06934s-0.18945-0.10059-0.26953-0.18066
				c-0.07031-0.08008-0.14063-0.16992-0.18066-0.26953c-0.04004-0.10059-0.05957-0.2002-0.05957-0.31055
				c0-0.10938,0.01953-0.21973,0.05957-0.31934c0.0498-0.10059,0.11035-0.19043,0.18066-0.27051
				c0.08008-0.08008,0.16992-0.13965,0.26953-0.17969c0.31055-0.12988,0.66992-0.0498,0.91016,0.17969
				c0.15039,0.16016,0.24023,0.37012,0.24023,0.58984c0,0.11035-0.02051,0.20996-0.06055,0.31055
				c-0.0498,0.09961-0.10938,0.18945-0.17969,0.26953C5.42969,24.13965,5.21973,24.22949,5,24.22949z"/>
		</g>
		<g>
			<path fill="#252626" d="M8.10938,23.39941c0-0.45996,0.38086-0.83008,0.83008-0.83008l0,0
				c0.45996,0,0.83008,0.37012,0.83008,0.83008l0,0c0,0.4502-0.37012,0.82031-0.83008,0.82031l0,0
				C8.49023,24.21973,8.10938,23.84961,8.10938,23.39941z"/>
		</g>
		<g>
			<path fill="#252626" d="M12.88965,24.21973c-0.21973,0-0.42969-0.08008-0.58984-0.24023
				c-0.15039-0.14941-0.24023-0.35938-0.24023-0.58008c0-0.21973,0.08984-0.42969,0.24023-0.58984
				c0.08008-0.08008,0.16992-0.13965,0.26953-0.17969c0.2002-0.08008,0.43066-0.08008,0.63086,0
				c0.10938,0.04004,0.19922,0.09961,0.26953,0.17969c0.08008,0.08008,0.13965,0.16992,0.17969,0.27051
				c0.05078,0.09961,0.07031,0.20996,0.07031,0.31934c0,0.20996-0.08984,0.41992-0.25,0.58008
				C13.31934,24.13965,13.10938,24.21973,12.88965,24.21973z"/>
		</g>
	</g>
	<g>
		<g>
			<path fill="#252626" d="M62.10938,24.21973c-0.10938,0-0.20996-0.01953-0.30957-0.05957s-0.19043-0.10059-0.27051-0.18066
				c-0.0791-0.08008-0.13965-0.16992-0.17969-0.26953c-0.04004-0.10059-0.07031-0.2002-0.07031-0.31055
				c0-0.21973,0.09082-0.43945,0.25-0.58984c0.2207-0.22949,0.59082-0.30957,0.90039-0.17969
				c0.09961,0.04004,0.19043,0.09961,0.27051,0.17969c0.06934,0.08008,0.12988,0.16992,0.17969,0.27051
				c0.04004,0.09961,0.05957,0.20996,0.05957,0.31934c0,0.11035-0.01953,0.20996-0.05957,0.31055
				c-0.04004,0.09961-0.11035,0.18945-0.17969,0.26953c-0.08008,0.08008-0.1709,0.14063-0.27051,0.18066
				S62.21973,24.21973,62.10938,24.21973z"/>
		</g>
		<g>
			<path fill="#252626" d="M65.22949,23.39941c0-0.45996,0.37012-0.83008,0.83008-0.83008l0,0
				c0.4502,0,0.82031,0.37012,0.82031,0.83008l0,0c0,0.4502-0.37012,0.82031-0.82031,0.82031l0,0
				C65.59961,24.21973,65.22949,23.84961,65.22949,23.39941z"/>
		</g>
		<g>
			<path fill="#252626" d="M70,24.21973c-0.2207,0-0.43066-0.08008-0.58984-0.24023
				c-0.07031-0.08008-0.13086-0.16992-0.18066-0.26953c-0.04004-0.10059-0.05957-0.2002-0.05957-0.31055
				c0-0.10938,0.01953-0.21973,0.05957-0.31934c0.0498-0.10059,0.11035-0.19043,0.18066-0.27051
				c0.08008-0.08008,0.16992-0.13965,0.26953-0.17969c0.2002-0.08008,0.42969-0.08008,0.63965,0
				c0.10059,0.04004,0.19043,0.09961,0.26074,0.17969c0.08008,0.08008,0.13965,0.16992,0.18945,0.27051
				c0.04004,0.09961,0.06055,0.20996,0.06055,0.31934c0,0.2207-0.08984,0.41992-0.25,0.58008
				c-0.07031,0.08008-0.16016,0.14063-0.26074,0.18066C70.21973,24.2002,70.10938,24.21973,70,24.21973z"/>
		</g>
	</g>
	<g>
		
			<line fill="none" stroke="#252626" stroke-width="1.65681" stroke-linecap="round" stroke-miterlimit="10" x1="37.39682" y1="325.40213" x2="37.50942" y2="64.40868"/>
	</g>
	<path fill="none" stroke="#252626" stroke-width="1.65681" stroke-linecap="round" stroke-miterlimit="10" d="M49.89503,57.31863
		c-2.50719,4.24366-7.12831,7.09005-12.41424,7.09005c-5.3151,0-9.95803-2.87789-12.45555-7.16042"/>
	<g>
		<path fill="#252626" d="M15.71875,10.88379h-1.80078V8.9834h5.51367v1.90039h-1.80078v5.96582h-1.91211
			C15.71875,16.84961,15.71875,10.88379,15.71875,10.88379z"/>
		<path fill="#252626" d="M30.69922,12.87207c0,2.24316-1.85547,4.07715-4.09961,4.07715
			c-2.25391,0-4.08594-1.83398-4.08594-4.07715c0-2.26465,1.83203-4.09766,4.08594-4.09766
			C28.84375,8.77441,30.69922,10.60742,30.69922,12.87207z M28.76563,12.87207c0-1.2041-0.96094-2.20898-2.16602-2.20898
			c-1.20313,0-2.17578,1.00488-2.17578,2.20898c0,1.19336,0.97266,2.17676,2.17578,2.17676
			C27.80469,15.04883,28.76563,14.06543,28.76563,12.87207z"/>
		<path fill="#252626" d="M41.49023,16.84961h-2.28711l-2.60742-3.40234h-0.17773v3.40234h-1.86719V8.9834h2.88477
			c0.57422,0,1.11523,0.23242,1.51367,0.62988c0.39648,0.40918,0.62891,1.02734,0.62891,1.60254
			c0,0.75098-0.36523,1.48047-0.94922,1.85547L41.49023,16.84961z M36.41797,11.56934h1.01758
			c0.1543,0,0.26367-0.19922,0.26367-0.35352c0-0.15527-0.10938-0.35352-0.26367-0.35352h-1.01758V11.56934z"/>
		<path fill="#252626" d="M50.80078,8.9834v4.83887c0,1.72363-1.40234,3.12695-3.12695,3.12695
			c-1.71094,0-3.11523-1.40332-3.11523-3.12695V8.9834h1.90039v4.83887c0,0.68555,0.55273,1.2373,1.21484,1.2373
			c0.67383,0,1.21484-0.55176,1.21484-1.2373V8.9834H50.80078z"/>
		<path fill="#252626" d="M57.13867,16.82715c-0.79492-0.16504-1.52344-0.53027-2.46289-1.33594l1.25977-1.44727
			c0.69531,0.60742,1.10547,0.83887,1.58984,0.92773c0.14453,0.0332,0.28711,0.05469,0.41992,0.05469
			c0.2207,0,0.41992-0.04395,0.57422-0.12109c0.13281-0.06641,0.36523-0.20996,0.36523-0.50781
			c0-0.30957-0.57422-0.49707-1.07227-0.59668c-0.2207-0.04395-1.30273-0.27637-1.74414-0.54199
			c-0.75195-0.44141-1.13867-1.11523-1.13867-1.95508c0-0.46387,0.1543-0.90625,0.4082-1.28125
			c0.25586-0.35352,0.60938-0.62988,1.01758-0.81738l-0.01172,0.01074c0.41992-0.19922,0.89453-0.29785,1.34766-0.29785
			c0.1875,0,0.36523,0.01074,0.58594,0.04395c0.70703,0.12109,1.35938,0.4082,2.26563,1.16016l-1.2168,1.45801
			c-0.81641-0.67383-1.23633-0.77344-1.65625-0.77344c-0.21094,0-0.375,0.04395-0.50781,0.11035
			c-0.21094,0.08887-0.32031,0.24316-0.32031,0.38672c0,0.29883,0.39648,0.44238,1.03711,0.57422
			c0.06641,0.02246,0.14453,0.02246,0.22266,0.04492c0.42969,0.09863,1.07031,0.23145,1.49023,0.47461h-0.01172
			c0.79688,0.44238,1.2168,1.1377,1.2168,2c0,0.50781-0.13281,0.98242-0.41992,1.38086
			c-0.25391,0.36426-0.63086,0.62891-1.05078,0.83887c-0.44141,0.23242-0.89453,0.29883-1.39063,0.29883
			C57.66992,16.91602,57.38281,16.88281,57.13867,16.82715z"/>
	</g>
	<g>
		<path fill="#252626" d="M17.91211,21.50293h0.54492v0.81641h0.02734c0.31055-0.58203,0.81641-0.95801,1.58594-0.95801
			c0.63867,0,1.21094,0.31055,1.38867,0.94824c0.29102-0.6377,0.90039-0.94824,1.53906-0.94824
			c1.06055,0,1.60547,0.55371,1.60547,1.69922v3.28418h-0.5918v-3.25586c0-0.79785-0.30078-1.22949-1.14453-1.22949
			c-1.02344,0-1.31445,0.84473-1.31445,1.74512v2.74023h-0.58984v-3.28418c0.00781-0.65723-0.26367-1.20117-1.01367-1.20117
			c-1.02344,0-1.43555,0.76953-1.44531,1.78223v2.70313h-0.5918V21.50293z"/>
		<path fill="#252626" d="M29.6543,26.34473h-0.54297v-0.87305H29.0918c-0.30859,0.64746-0.94727,1.01367-1.66992,1.01367
			c-1.2207,0-1.69922-0.71289-1.69922-1.83887v-3.14355h0.5918v3.15234c0.02734,0.87305,0.35547,1.33301,1.29492,1.33301
			c1.01367,0,1.45508-0.95703,1.45508-1.94238v-2.54297h0.58984V26.34473z"/>
		<path fill="#252626" d="M30.7832,19.64453h0.5918v6.7002h-0.5918V19.64453z"/>
		<path fill="#252626" d="M33.44922,21.50293h0.98633V22h-0.98633v3.26563c0,0.38477,0.05664,0.61035,0.48047,0.6377
			c0.16797,0,0.33789-0.00879,0.50586-0.02734v0.50586c-0.17773,0-0.34766,0.01953-0.52539,0.01953
			c-0.78906,0-1.06055-0.2627-1.05078-1.08887V22h-0.8457v-0.49707h0.8457v-1.45508h0.58984
			C33.44921,20.04785,33.44921,21.50293,33.44922,21.50293z"/>
		<path fill="#252626" d="M35.30078,19.64453h0.5918v0.94727h-0.5918V19.64453z M35.30078,21.50293h0.5918v4.8418h-0.5918V21.50293z
			"/>
		<path fill="#252626" d="M37.0293,21.50293h0.54297v0.81641h0.0293c0.30859-0.58203,0.81641-0.95801,1.58594-0.95801
			c0.63672,0,1.20898,0.31055,1.38867,0.94824c0.29102-0.6377,0.90039-0.94824,1.53906-0.94824
			c1.06055,0,1.60352,0.55371,1.60352,1.69922v3.28418h-0.58984v-3.25586c0-0.79785-0.30078-1.22949-1.14648-1.22949
			c-1.02148,0-1.3125,0.84473-1.3125,1.74512v2.74023h-0.5918v-3.28418c0.00977-0.65723-0.26172-1.20117-1.01367-1.20117
			c-1.02344,0-1.43555,0.76953-1.44531,1.78223v2.70313H37.0293V21.50293z"/>
		<path fill="#252626" d="M44.85742,19.64453h0.5918v0.94727h-0.5918V19.64453z M44.85742,21.50293h0.5918v4.8418h-0.5918V21.50293z
			"/>
		<path fill="#252626" d="M47.9082,23.83008l-1.73438-2.32715h0.74023l1.37891,1.83887l1.35156-1.83887h0.74219l-1.74609,2.31738
			l1.88672,2.52441h-0.75l-1.52148-2.03613l-1.49219,2.03613H46.0332L47.9082,23.83008z"/>
		<path fill="#252626" d="M51.44922,24.08301c0.00977,0.86328,0.45898,1.90527,1.5957,1.90527
			c0.86328,0,1.33203-0.50684,1.51953-1.23926h0.5918c-0.25391,1.09863-0.89258,1.73633-2.11133,1.73633
			c-1.53906,0-2.1875-1.18262-2.1875-2.56152c0-1.27637,0.64844-2.5625,2.1875-2.5625c1.55664,0,2.17578,1.36133,2.12891,2.72168
			H51.44922z M54.58398,23.58594c-0.0293-0.8916-0.58203-1.72656-1.53906-1.72656c-0.9668,0-1.50195,0.84473-1.5957,1.72656
			H54.58398z"/>
		<path fill="#252626" d="M55.97461,21.50293h0.54492v1.13477h0.01758c0.30078-0.77832,0.95703-1.23828,1.83008-1.20117v0.5918
			c-1.07031-0.05664-1.80078,0.73145-1.80078,1.73535v2.58105h-0.5918C55.97461,26.34473,55.97461,21.50293,55.97461,21.50293z"/>
	</g>
	<path fill="none" stroke="#252626" stroke-width="1.65681" stroke-linecap="round" stroke-miterlimit="10" d="M17.27181,114.23964
		c-2.35272,3.69513-3.71574,8.08192-3.71574,12.78705c0,13.16689,10.67387,23.84074,23.84074,23.84074
		s23.84074-10.67386,23.84074-23.84074c0-4.70551-1.36322-9.09261-3.71629-12.78792"/>
	<g id="XMLID_112_">
		
			<path fill="#E5E5E5" stroke="#262626" stroke-width="1.65681" stroke-linecap="round" stroke-linejoin="round" stroke-miterlimit="10" d="
			M25.5893,97.91067c3.04821,3.04822,7.25928,4.93359,11.9107,4.93359c4.65141,0,8.86247-1.88535,11.91068-4.93356"/>
		
			<path fill="#E5E5E5" stroke="#262626" stroke-width="1.65681" stroke-linecap="round" stroke-linejoin="round" stroke-miterlimit="10" d="
			M33.39844,69.67969C26.08179,71.51392,20.65576,78.11462,20.65576,86c0,3.28491,0.94043,6.35022,2.56641,8.94141"/>
		
			<path fill="#E5E5E5" stroke="#262626" stroke-width="1.65681" stroke-linecap="round" stroke-linejoin="round" stroke-miterlimit="10" d="
			M51.65747,95.13013c1.69995-2.63049,2.68677-5.76514,2.68677-9.13013c0-7.87695-5.41455-14.4718-12.71924-16.31421"/>
	</g>
	
		<circle fill="none" stroke="#252626" stroke-width="1.65681" stroke-linecap="round" stroke-miterlimit="10" cx="37.39682" cy="161" r="23.84074"/>
	<path fill="none" stroke="#252626" stroke-width="1.65681" stroke-linecap="round" stroke-miterlimit="10" d="M17.21148,106.98296
		c4.32126,6.07281,11.41714,10.03394,19.4382,10.03394c8.32141,0,15.64708-4.26334,19.91187-10.72494"/>
	
		<circle fill="none" stroke="#252626" stroke-width="1.65681" stroke-linecap="round" stroke-miterlimit="10" cx="37.39682" cy="195" r="23.84074"/>
	
		<circle fill="none" stroke="#252626" stroke-width="1.65681" stroke-linecap="round" stroke-miterlimit="10" cx="37.39682" cy="229" r="23.84074"/>
	
		<circle fill="none" stroke="#252626" stroke-width="1.65681" stroke-linecap="round" stroke-miterlimit="10" cx="37.39682" cy="263" r="23.84074"/>
	
		<circle fill="none" stroke="#252626" stroke-width="1.65681" stroke-linecap="round" stroke-miterlimit="10" cx="37.39682" cy="297" r="23.84073"/>
	<path fill="none" stroke="#252626" stroke-width="1.65681" stroke-linecap="round" stroke-miterlimit="10" d="M56.78035,344.93521
		c2.80548-3.90997,4.45722-8.70377,4.45722-13.88333c0-13.16687-10.67386-23.84073-23.84074-23.84073
		s-23.84074,10.67386-23.84074,23.84073c0,6.16235,2.33801,11.77859,6.17537,16.01013"/>
	<path fill="none" stroke="#252626" stroke-width="1.65681" stroke-linecap="round" stroke-miterlimit="10" d="M57.16594,351.67041
		c-4.28435-6.34167-11.53982-10.51117-19.76912-10.51117c-9.11234,0-17.03064,5.1123-21.04321,12.62521"/>
	<circle fill="#252626" cx="37.5" cy="127" r="14.87217"/>
	<circle fill="#252626" cx="37.5" cy="161" r="14.87217"/>
	<circle fill="#252626" cx="37.5" cy="195" r="14.87217"/>
	<circle fill="#252626" cx="37.5" cy="229" r="14.87217"/>
	<circle fill="#252626" cx="37.5" cy="263" r="14.87217"/>
	<circle fill="#252626" cx="37.5" cy="297" r="14.87217"/>
	<circle fill="#252626" cx="37.5" cy="331" r="14.87217"/>
	<g>
		<g>
			<path fill="#00BC8B" d="M49.31738,44.08887c-0.2793,0-0.55176-0.14063-0.70801-0.39648
				c-0.23828-0.39063-0.11523-0.90039,0.27539-1.13867l0.85352-0.52148c0.3916-0.23633,0.90039-0.11523,1.13867,0.27539
				s0.11523,0.90039-0.27539,1.13867l-0.85352,0.52148C49.61328,44.0498,49.46484,44.08887,49.31738,44.08887z"/>
		</g>
		<g>
			<path fill="#00BC8B" d="M50.6748,46.8623c-0.34766,0-0.6709-0.2207-0.78613-0.56836
				c-0.14453-0.43457,0.0918-0.90332,0.52539-1.04688l0.94922-0.31445c0.43848-0.14648,0.90332,0.0918,1.04688,0.52539
				c0.14453,0.43457-0.0918,0.90332-0.52539,1.04688l-0.94922,0.31445C50.84863,46.84863,50.76074,46.8623,50.6748,46.8623z"/>
		</g>
		<g>
			<path fill="#00BC8B" d="M51.36914,49.94336c-0.42676,0-0.78906-0.32813-0.8252-0.76074
				c-0.03613-0.45605,0.30273-0.85645,0.75879-0.89355l0.99707-0.08008c0.47363-0.04492,0.85645,0.30273,0.89258,0.75781
				c0.03711,0.45605-0.30176,0.85645-0.75781,0.89258l-0.99707,0.08203C51.41406,49.94238,51.3916,49.94336,51.36914,49.94336z"/>
		</g>
		<g>
			<path fill="#00BC8B" d="M52.30762,53.29199c-0.04297,0-0.08691-0.00293-0.13086-0.00977l-0.9873-0.15625
				c-0.45117-0.07129-0.75977-0.49609-0.68848-0.94824c0.07227-0.4502,0.5-0.75781,0.94824-0.68848l0.9873,0.15625
				c0.45117,0.07129,0.75977,0.49609,0.68848,0.94824C53.06055,53.00098,52.70801,53.29199,52.30762,53.29199z"/>
		</g>
	</g>
	<g>
		<g>
			<path fill="#FF4257" d="M25.16992,43.83008c-0.11035,0-0.21973-0.02051-0.32031-0.06055
				c-0.09961-0.0498-0.18945-0.10938-0.26953-0.17969C24.42969,43.42969,24.33984,43.21973,24.33984,43
				s0.08984-0.43066,0.24023-0.58984c0.22949-0.23047,0.59961-0.30078,0.91016-0.18066
				c0.09961,0.05078,0.18945,0.11035,0.25977,0.18066C25.91016,42.56934,26,42.78027,26,43
				c0,0.10938-0.02051,0.21973-0.06055,0.31934c-0.0498,0.10059-0.10938,0.19043-0.18945,0.27051
				c-0.07031,0.07031-0.16016,0.12988-0.25977,0.17969C25.38965,43.80957,25.2793,43.83008,25.16992,43.83008z"/>
		</g>
		<g>
			<path fill="#FF4257" d="M24.2373,46.8623c-0.08594,0-0.17383-0.01367-0.26074-0.04297l-0.94922-0.31445
				c-0.43359-0.14355-0.66992-0.6123-0.52539-1.04688c0.14355-0.43359,0.6084-0.67285,1.04688-0.52539l0.94922,0.31445
				c0.43359,0.14355,0.66992,0.6123,0.52539,1.04688C24.9082,46.6416,24.58496,46.8623,24.2373,46.8623z"/>
		</g>
		<g>
			<path fill="#FF4257" d="M24.04102,49.98438c-0.02246,0-0.04492-0.00098-0.06836-0.00293l-1.99316-0.16211
				c-0.45605-0.03613-0.79492-0.43652-0.75781-0.89258c0.03711-0.45508,0.41602-0.80469,0.89258-0.75781l1.99316,0.16211
				c0.45605,0.03613,0.79492,0.43652,0.75781,0.89258C24.83008,49.65625,24.46777,49.98438,24.04102,49.98438z"/>
		</g>
		<g>
			<path fill="#FF4257" d="M21.61621,53.44824c-0.40039,0-0.75293-0.29102-0.81738-0.69824
				c-0.07129-0.45215,0.2373-0.87695,0.68848-0.94824l2.96289-0.46875c0.45313-0.06836,0.87695,0.23828,0.94824,0.68848
				c0.07129,0.45215-0.2373,0.87695-0.68848,0.94824l-2.96289,0.46875C21.70313,53.44531,21.65918,53.44824,21.61621,53.44824z"/>
		</g>
	</g>
</g>
<g id="LEDS">
	<g>
		<path fill="#1F86CC" d="M33.24414,40.73633c-0.28418,0-0.56152-0.14551-0.71582-0.40918l-1.05762-1.80176
			c-0.43262-0.73828-1.23438-1.19727-2.08984-1.19727h-4.4873c-0.45703,0-0.82813-0.37109-0.82813-0.82813
			s0.37109-0.82813,0.82813-0.82813h4.4873c1.44141,0,2.78906,0.77246,3.51953,2.01563l1.05762,1.80176
			c0.23145,0.39453,0.09863,0.90137-0.2959,1.13379C33.53125,40.7002,33.38672,40.73633,33.24414,40.73633z"/>
	</g>
	<g>
		<path fill="#1F86CC" d="M41.89258,40.73633c-0.14258,0-0.28711-0.03613-0.41797-0.11328
			c-0.39453-0.23242-0.52734-0.73926-0.2959-1.13379l1.05762-1.80176c0.72949-1.24316,2.0791-2.01563,3.52051-2.01563h4.51855
			c0.45703,0,0.82813,0.37109,0.82813,0.82813s-0.37109,0.82813-0.82813,0.82813h-4.51855
			c-0.85645,0-1.6582,0.45898-2.09082,1.19727l-1.05762,1.80176C42.4541,40.59082,42.17676,40.73633,41.89258,40.73633z"/>
	</g>
</g>
</svg>
