<?xml version="1.0" encoding="UTF-8" standalone="no"?>
<!-- Generator: Adobe Illustrator 23.0.3, SVG Export Plug-In . SVG Version: 6.00 Build 0)  -->

<svg
   xmlns:dc="http://purl.org/dc/elements/1.1/"
   xmlns:cc="http://creativecommons.org/ns#"
   xmlns:rdf="http://www.w3.org/1999/02/22-rdf-syntax-ns#"
   xmlns:svg="http://www.w3.org/2000/svg"
   xmlns="http://www.w3.org/2000/svg"
   xmlns:sodipodi="http://sodipodi.sourceforge.net/DTD/sodipodi-0.dtd"
   xmlns:inkscape="http://www.inkscape.org/namespaces/inkscape"
   version="1.0"
   id="Layer_1"
   x="0px"
   y="0px"
   viewBox="0 0 95.999999 485.66934"
   enable-background="new 0 0 75 380"
   xml:space="preserve"
   sodipodi:docname="Torus-WL.svg"
   width="25.4mm"
   height="128.5mm"
   inkscape:version="0.92.3 (2405546, 2018-03-11)"><metadata
   id="metadata201"><rdf:RDF><cc:Work
       rdf:about=""><dc:format>image/svg+xml</dc:format><dc:type
         rdf:resource="http://purl.org/dc/dcmitype/StillImage" /><dc:title></dc:title></cc:Work></rdf:RDF></metadata><defs
   id="defs199" /><sodipodi:namedview
   pagecolor="#ffffff"
   bordercolor="#666666"
   borderopacity="1"
   objecttolerance="10"
   gridtolerance="10"
   guidetolerance="10"
   inkscape:pageopacity="0"
   inkscape:pageshadow="2"
   inkscape:window-width="1920"
   inkscape:window-height="1017"
   id="namedview197"
   showgrid="false"
   inkscape:document-units="mm"
   units="mm"
   fit-margin-top="0"
   fit-margin-left="0"
   fit-margin-right="0"
   fit-margin-bottom="0"
   inkscape:zoom="1.7566021"
   inkscape:cx="4.7946969"
   inkscape:cy="169.28876"
   inkscape:window-x="-8"
   inkscape:window-y="-8"
   inkscape:window-maximized="1"
   inkscape:current-layer="Layer_1" />
<g
   id="bg"
   transform="matrix(1.2800162,0,0,1.2800162,-6.0555561e-4,-0.36841885)">
	<g
   id="g4">
		<rect
   width="75"
   height="380"
   id="rect2"
   x="0"
   y="0"
   style="fill:#e5e5e5" />
	</g>
	<g
   id="g12">
		<path
   d="M 42.65073,374.67691 H 32.18447 c -1.77143,0 -3.20745,-1.43604 -3.20745,-3.20746 v -36.33148 c 0,-1.77142 1.43602,-3.20743 3.20745,-3.20743 h 10.46626 c 1.77143,0 3.20745,1.436 3.20745,3.20743 v 36.33148 c 0,1.77143 -1.43602,3.20746 -3.20745,3.20746 z"
   id="path6"
   inkscape:connector-curvature="0"
   style="fill:#252626" />
		<g
   id="g10">
			<path
   d="m 41.26395,362.78329 c -0.11426,0.26349 -0.26582,0.48099 -0.45469,0.65225 -0.1891,0.17126 -0.40401,0.29843 -0.64567,0.3822 -0.24189,0.0835 -0.49434,0.12503 -0.75781,0.12503 -0.44812,0 -0.79723,-0.0657 -1.04757,-0.19754 -0.25034,-0.13187 -0.44601,-0.28552 -0.58632,-0.46127 -0.14968,-0.1933 -0.244,-0.40845 -0.28341,-0.64566 -0.03965,-0.23718 -0.05936,-0.4744 -0.05936,-0.71158 0,-0.33411 0.0068,-0.56451 0.01971,-0.69189 0.01338,-0.12766 0.02839,-0.19989 0.04622,-0.2175 0.03496,-0.0265 0.17995,-0.0394 0.43475,-0.0394 h 3.08382 c 0.08775,0 0.16024,0.007 0.21749,0.0197 0.05678,0.0131 0.10088,0.0481 0.13162,0.10535 0.03073,0.057 0.05044,0.14264 0.05936,0.2569 0.0087,0.11426 0.01337,0.2724 0.01337,0.4744 0,0.36908 -0.05748,0.68558 -0.17151,0.94903 m -5.32349,-12.82162 c 0.01173,-0.0828 0.0474,-0.14828 0.10699,-0.19592 0.05936,-0.0474 0.15414,-0.0772 0.28506,-0.0891 0.13068,-0.0118 0.31485,-0.0178 0.55252,-0.0178 0.92675,0 1.6367,0.2583 2.12986,0.77518 0.49294,0.51685 0.73975,1.2092 0.73975,2.0766 0,0.0821 -0.01713,0.25925 -0.02792,0.38077 -0.06827,-9.2e-4 -0.13655,-0.002 -0.20482,-0.003 -0.18699,-0.004 -0.39017,-0.0143 -0.60954,-0.0305 -0.0488,0.0244 -0.07508,0.0711 -0.0793,0.14008 -0.004,0.0692 0.01408,0.12411 0.05514,0.1647 l 0.21913,0.0244 c 0.1464,0.0162 0.26817,0.0427 0.36577,0.0791 0.0976,0.0366 0.1464,0.0753 0.1464,0.11591 0,0.0406 -0.0244,0.11591 -0.0732,0.22546 -0.0488,0.1098 -0.1138,0.24191 -0.19497,0.39606 -0.08142,0.1546 -0.16893,0.31931 -0.26207,0.49387 -0.09362,0.17477 -0.18113,0.33948 -0.26231,0.49362 -0.18699,0.35779 -0.37773,0.70901 -0.57293,1.05438 -0.19497,0.34558 -0.38595,0.68085 -0.57271,1.0058 -0.23603,-0.42255 -0.46759,-0.86551 -0.69494,-1.32864 -0.22758,-0.46335 -0.45516,-0.92227 -0.68274,-1.37766 -0.01643,-0.0324 -0.04458,-0.0932 -0.08517,-0.18277 -0.04082,-0.0892 -0.08352,-0.18466 -0.1281,-0.28647 -0.04481,-0.10159 -0.08352,-0.19687 -0.1159,-0.28647 -0.03261,-0.0894 -0.04856,-0.15039 -0.04856,-0.18277 0,-0.0488 0.03214,-0.0873 0.09736,-0.11591 0.06499,-0.0284 0.20319,-0.0629 0.41458,-0.10349 l 0.15836,-0.0244 c 0.04059,-0.0406 0.05889,-0.0976 0.0549,-0.17081 -0.0042,-0.073 -0.03473,-0.11777 -0.09127,-0.13397 -0.17315,0.0136 -0.38548,0.0235 -0.63722,0.0293 v -2.58643 c 3e-5,-0.14263 0.0059,-0.25549 0.01785,-0.33877 m 1.00933,9.125 c 0,0.32516 -0.0042,0.58511 -0.0122,0.78009 -0.0082,0.19498 -0.03659,0.34747 -0.0854,0.45703 -0.01736,0.0394 -0.03801,0.0742 -0.06171,0.10443 -4.7e-4,2.1e-4 -0.0012,7e-4 -0.0017,9.2e-4 -0.14194,-0.0272 -0.2616,-0.0587 -0.35825,-0.0945 -0.16048,-0.0594 -0.27615,-0.16635 -0.34748,-0.32071 -0.07132,-0.15439 -0.1159,-0.37119 -0.13372,-0.6506 -0.01784,-0.27896 -0.02675,-0.6506 -0.02675,-1.11374 v -2.53787 l 0.63722,1.24161 c 0.08916,0.17081 0.16024,0.31509 0.21326,0.43286 0.05279,0.11801 0.09127,0.2276 0.11567,0.32919 0.02439,0.10181 0.04058,0.20926 0.04879,0.32306 0.008,0.1138 0.0122,0.25595 0.0122,0.42654 v 0.62173 h 2e-5 z m 5.03092,1.50742 c 0.05278,-0.14639 0.10534,-0.30267 0.15836,-0.46924 0.05279,-0.1666 0.10159,-0.32916 0.1464,-0.48776 0.04458,-0.15839 0.07907,-0.29047 0.1037,-0.39627 -0.02464,-0.0565 -0.07133,-0.0931 -0.1403,-0.10959 -0.06921,-0.0162 -0.12387,-0.008 -0.1647,0.0244 -0.16259,0.31674 -0.31885,0.57693 -0.46924,0.78009 -0.15039,0.20343 -0.28247,0.3374 -0.39603,0.40237 -0.06523,0.0326 -0.1403,0.0608 -0.2257,0.0852 -0.08517,0.0244 -0.18699,0.0427 -0.30477,0.0549 -0.11777,0.0122 -0.25996,0.0225 -0.42654,0.0305 -0.16658,0.008 -0.36788,0.0122 -0.60344,0.0122 -0.26817,0 -0.48965,-0.008 -0.66444,-0.0244 -0.17479,-0.0162 -0.31486,-0.0366 -0.42043,-0.0608 -0.10582,-0.0247 -0.1891,-0.053 -0.24987,-0.0854 -0.061,-0.0324 -0.10793,-0.069 -0.14031,-0.1098 -0.0976,-0.10556 -0.16048,-0.26205 -0.18887,-0.46924 -0.02862,-0.2074 -0.0427,-0.47345 -0.0427,-0.79865 v -0.8045 c 0.0019,-0.11142 0.0052,-0.20996 0.0099,-0.29443 0.008,-0.15015 0.03027,-0.29047 0.06687,-0.42044 0.03659,-0.12997 0.09337,-0.2684 0.1708,-0.41458 0.0183,-0.0349 0.03894,-0.0727 0.06077,-0.11237 0.02933,-9.5e-4 0.05982,-10e-4 0.09385,-10e-4 h 0.70714 c 0.23555,0 0.42865,0.004 0.57903,0.0122 0.15015,0.008 0.27005,0.0241 0.35966,0.0485 0.12177,0.0326 0.20905,0.0896 0.26207,0.17081 0.05279,0.0812 0.09127,0.17877 0.11591,0.29257 l 0.10956,0.47534 c 0.03238,0.0408 0.08728,0.0589 0.16447,0.0549 0.07718,-0.004 0.1281,-0.0263 0.1525,-0.0671 0,-0.13818 -0.0082,-0.31274 -0.0244,-0.52414 -0.01643,-0.2114 -0.0244,-0.42679 -0.0244,-0.64615 0,-0.23553 0.008,-0.46313 0.0244,-0.6825 0.01619,-0.2196 0.0244,-0.40237 0.0244,-0.54877 -0.0244,-0.0404 -0.07532,-0.0629 -0.1525,-0.0671 -0.07719,-0.004 -0.1321,0.0143 -0.16447,0.0549 L 40.39,355.99838 c -0.03261,0.15439 -0.07132,0.25809 -0.1159,0.31088 -0.04482,0.0528 -0.1037,0.0913 -0.17667,0.11566 -0.0732,0.0244 -0.19943,0.0427 -0.37797,0.0549 -0.17901,0.0122 -0.39839,0.0183 -0.65834,0.0183 h -0.55089 c 0.0042,-0.007 0.008,-0.0131 0.0122,-0.0202 l 0.76791,-1.32864 c 0.15414,-0.26019 0.29445,-0.50183 0.42067,-0.72543 0.12576,-0.22336 0.24987,-0.42065 0.37163,-0.59125 0.12201,-0.17056 0.24776,-0.30875 0.37798,-0.41431 0.02698,-0.0218 0.05466,-0.0415 0.08305,-0.0601 0.08258,0.0329 0.15532,0.0716 0.21796,0.11685 0.10159,0.073 0.18464,0.15836 0.24987,0.25598 0.06499,0.0974 0.11777,0.20715 0.1586,0.32892 0.04036,0.12201 0.08517,0.2562 0.13397,0.40237 0.03238,0.0408 0.0854,0.057 0.1586,0.0488 0.07297,-0.008 0.12176,-0.0324 0.14616,-0.0732 -0.01643,-0.12997 -0.0305,-0.27823 -0.04247,-0.44482 -0.01243,-0.16656 -0.02674,-0.32916 -0.04293,-0.48755 -0.01619,-0.1586 -0.03754,-0.30005 -0.05467,-0.42676 -0.04247,-0.31345 -0.03285,-0.58115 -0.03285,-0.58115 0,-0.61752 -0.17525,-1.15738 -0.44272,-1.60925 -0.26723,-0.45139 -0.60907,-0.80777 -1.02481,-1.06915 -0.41597,-0.26135 -0.90305,-0.44553 -1.46143,-0.55252 -0.55863,-0.10699 -1.21204,-0.16049 -1.96047,-0.16049 -0.74867,0 -1.40536,0.009 -1.96938,0.0268 -0.5645,0.0178 -1.08441,0.0566 -1.55975,0.11591 -0.07109,0.0356 -0.1098,0.10416 -0.11567,0.2048 -0.0061,0.10114 0.02042,0.18137 0.08024,0.24072 l 0.64145,0.0713 c 0.202,0.0239 0.3592,0.0624 0.47252,0.11591 0.11262,0.0533 0.19591,0.15134 0.2494,0.29398 0.05349,0.14264 0.08611,0.3327 0.09807,0.57037 0.01173,0.23767 0.01783,0.54666 0.01783,0.92673 v 6.57681 c 0,0.46313 -0.0061,0.83478 -0.01783,1.11374 -0.01196,0.27942 -0.05349,0.49622 -0.12482,0.6506 -0.07132,0.15436 -0.1783,0.26135 -0.32072,0.32071 -0.14265,0.0596 -0.34489,0.10699 -0.60601,0.14264 l -0.37445,0.0535 c -0.0542,0.0542 -0.07837,0.12833 -0.0732,0.22171 -4.7e-4,0.19077 -0.0026,0.25128 -0.0066,0.46619 -0.0042,0.24612 -0.01548,0.52109 -0.03355,0.82538 0.01807,0.0448 0.06921,0.0716 0.15438,0.0807 0.08493,0.009 0.14546,-0.009 0.18136,-0.0537 l 0.04012,-0.28201 c 0.02699,-0.19687 0.06264,-0.34888 0.10746,-0.45612 0.04482,-0.10745 0.12529,-0.18793 0.24166,-0.24164 0.11613,-0.0537 0.27943,-0.0854 0.48989,-0.0943 0.21022,-0.009 0.48988,-0.0131 0.83899,-0.0131 H 36.649 c 0.07156,0 0.12763,0.004 0.16798,0.0131 0.04012,0.009 0.06921,0.0338 0.08704,0.0742 0.01783,0.0401 0.02909,0.10275 0.03378,0.18768 0.0042,0.0852 0.0066,0.2034 0.0066,0.35568 0,0.26865 -0.03355,0.46994 -0.10065,0.60413 -0.0671,0.13422 -0.17667,0.25058 -0.32894,0.34912 -0.15226,0.10745 -0.32001,0.21915 -0.50325,0.33551 -0.1837,0.11612 -0.36718,0.23251 -0.55042,0.34888 -0.18347,0.11636 -0.36014,0.22827 -0.53023,0.33572 -0.1701,0.10724 -0.31767,0.20578 -0.44296,0.29517 -0.3402,0.24164 -0.61986,0.46759 -0.839,0.67804 -0.21913,0.21021 -0.39134,0.42279 -0.51662,0.63745 -0.12552,0.21469 -0.21257,0.44061 -0.26183,0.67783 -0.04903,0.23718 -0.07367,0.49878 -0.07367,0.78525 0,0.25949 0.02229,0.45657 0.06687,0.59055 0.02698,0.0359 0.06053,0.0516 0.10088,0.0471 0.04012,-0.005 0.06921,-0.0249 0.08728,-0.0605 0.01759,-0.17902 0.06029,-0.34888 0.1274,-0.50983 0.0671,-0.16119 0.14968,-0.30008 0.24846,-0.41623 0.18793,-0.23273 0.40026,-0.45187 0.63746,-0.65787 0.23696,-0.20575 0.4988,-0.41599 0.78526,-0.63089 0.28624,-0.21466 0.60837,-0.43616 0.9664,-0.66418 0.35779,-0.2283 0.75171,-0.47675 1.1813,-0.74515 0.05372,-0.0359 0.10933,-0.065 0.16775,-0.0873 0.05795,-0.0225 0.10956,-0.0157 0.15438,0.0202 0.06241,0.16986 0.15649,0.35123 0.28177,0.54361 0.12529,0.19238 0.27967,0.37375 0.46314,0.54385 0.18347,0.16986 0.39815,0.31064 0.64426,0.42276 0.24612,0.11169 0.53024,0.16776 0.85237,0.16776 0.4744,0 0.86363,-0.10535 1.16793,-0.31555 0.30406,-0.21021 0.54126,-0.4765 0.71136,-0.79865 0.16986,-0.3132 0.27967,-0.65997 0.32894,-1.04007 0.04903,-0.38052 0.07554,-0.78104 0.07367,-1.20169 -0.0033,-0.77942 0.137,-1.27539 0.137,-1.27539"
   id="path8"
   inkscape:connector-curvature="0"
   style="fill:#e6e5e5" />
		</g>
	</g>
	<g
   id="g26">
		<g
   id="g24">
			<g
   id="g22">
				<g
   id="g18">
					<circle
   cx="7.9999199"
   cy="6.3905401"
   r="5.7362599"
   id="circle14"
   style="fill:#bcbcbc" />
					<path
   d="m 7.99996,11.8632 c 3.02102,-0.0035 5.46916,-2.45164 5.47262,-5.47267 0,0 0,-10e-6 0,-3e-5 -2e-5,-3.02247 -2.45023,-5.47264 -5.4727,-5.47262 -3.02247,2e-5 -5.47264,2.45023 -5.47262,5.4727 2e-5,3.02247 2.45023,5.47264 5.4727,5.47262 m -6,-5.47266 c 0,-3.31371 2.68629,-6 6,-6 3.31371,0 6,2.68629 6,6 0,3.31371 -2.68629,6 -6,6 -3.31364,-1.6e-4 -5.99984,-2.68636 -6,-6 z"
   id="path16"
   inkscape:connector-curvature="0"
   style="fill:#808080" />
				</g>
				<polygon
   points="7.34096,5.73154 4.50496,5.73154 4.50496,7.04954 7.34096,7.04954 7.34096,9.88554 8.65896,9.88554 8.65896,7.04954 11.49396,7.04954 11.49396,5.73154 8.65896,5.73154 8.65896,2.89554 7.34096,2.89554 "
   id="polygon20"
   style="fill:#6e6e6e" />
			</g>
		</g>
	</g>
	<g
   id="g40">
		<g
   id="g38">
			<g
   id="g36">
				<g
   id="g32">
					<circle
   cx="67.00985"
   cy="373.60947"
   r="5.7362599"
   id="circle28"
   style="fill:#bcbcbc" />
					<path
   d="m 67.0098,379.08212 c -3.02102,-0.003 -5.46916,-2.45166 -5.47262,-5.47269 0,0 0,0 0,-3e-5 2e-5,-3.02246 2.45023,-5.47263 5.4727,-5.4726 3.02247,0 5.47264,2.45023 5.47262,5.47269 -2e-5,3.02246 -2.45023,5.47266 -5.4727,5.47263 m 6,-5.47265 c 0,-3.31372 -2.68629,-6 -6,-6 -3.31371,0 -6,2.68628 -6,6 0,3.31369 2.68629,6 6,6 3.31365,-1.9e-4 5.99984,-2.68637 6,-6 z"
   id="path30"
   inkscape:connector-curvature="0"
   style="fill:#808080" />
				</g>
				<polygon
   points="67.66881,372.95047 70.50481,372.95047 70.50481,374.26846 67.66881,374.26846 67.66881,377.10446 66.35081,377.10446 66.35081,374.26846 63.51581,374.26846 63.51581,372.95047 66.35081,372.95047 66.35081,370.11447 67.66881,370.11447 "
   id="polygon34"
   style="fill:#6e6e6e" />
			</g>
		</g>
	</g>
</g>
<g
   id="serigraphy"
   transform="matrix(1.2800162,0,0,1.2800162,-6.0555561e-4,-0.36841885)">
	<g
   id="g55">
		<g
   id="g45">
			<path
   d="m 5,24.22949 c -0.11035,0 -0.2207,-0.0293 -0.32031,-0.06934 C 4.58008,24.12011 4.49024,24.05956 4.41016,23.97949 4.33985,23.89941 4.26953,23.80957 4.2295,23.70996 4.18946,23.60937 4.16993,23.50976 4.16993,23.39941 c 0,-0.10938 0.01953,-0.21973 0.05957,-0.31934 0.0498,-0.10059 0.11035,-0.19043 0.18066,-0.27051 0.08008,-0.08008 0.16992,-0.13965 0.26953,-0.17969 0.31055,-0.12988 0.66992,-0.0498 0.91016,0.17969 0.15039,0.16016 0.24023,0.37012 0.24023,0.58984 0,0.11035 -0.02051,0.20996 -0.06055,0.31055 C 5.71973,23.80956 5.66015,23.8994 5.58984,23.97948 5.42969,24.13965 5.21973,24.22949 5,24.22949 Z"
   id="path43"
   inkscape:connector-curvature="0"
   style="fill:#252626" />
		</g>
		<g
   id="g49">
			<path
   d="m 8.10938,23.39941 c 0,-0.45996 0.38086,-0.83008 0.83008,-0.83008 v 0 c 0.45996,0 0.83008,0.37012 0.83008,0.83008 v 0 c 0,0.4502 -0.37012,0.82031 -0.83008,0.82031 v 0 c -0.44923,10e-6 -0.83008,-0.37011 -0.83008,-0.82031 z"
   id="path47"
   inkscape:connector-curvature="0"
   style="fill:#252626" />
		</g>
		<g
   id="g53">
			<path
   d="m 12.88965,24.21973 c -0.21973,0 -0.42969,-0.08008 -0.58984,-0.24023 -0.15039,-0.14941 -0.24023,-0.35938 -0.24023,-0.58008 0,-0.21973 0.08984,-0.42969 0.24023,-0.58984 0.08008,-0.08008 0.16992,-0.13965 0.26953,-0.17969 0.2002,-0.08008 0.43066,-0.08008 0.63086,0 0.10938,0.04004 0.19922,0.09961 0.26953,0.17969 0.08008,0.08008 0.13965,0.16992 0.17969,0.27051 0.05078,0.09961 0.07031,0.20996 0.07031,0.31934 0,0.20996 -0.08984,0.41992 -0.25,0.58008 -0.15039,0.16014 -0.36035,0.24022 -0.58008,0.24022 z"
   id="path51"
   inkscape:connector-curvature="0"
   style="fill:#252626" />
		</g>
	</g>
	<g
   id="g69">
		<g
   id="g59">
			<path
   d="M 62.10938,24.21973 C 62,24.21973 61.89942,24.2002 61.79981,24.16016 61.7002,24.12012 61.60938,24.05957 61.5293,23.9795 61.4502,23.89942 61.38965,23.80958 61.34961,23.70997 61.30957,23.60938 61.2793,23.50977 61.2793,23.39942 c 0,-0.21973 0.09082,-0.43945 0.25,-0.58984 0.2207,-0.22949 0.59082,-0.30957 0.90039,-0.17969 0.09961,0.04004 0.19043,0.09961 0.27051,0.17969 0.06934,0.08008 0.12988,0.16992 0.17969,0.27051 0.04004,0.09961 0.05957,0.20996 0.05957,0.31934 0,0.11035 -0.01953,0.20996 -0.05957,0.31055 -0.04004,0.09961 -0.11035,0.18945 -0.17969,0.26953 -0.08008,0.08008 -0.1709,0.14063 -0.27051,0.18066 -0.09961,0.04003 -0.20996,0.05956 -0.32031,0.05956 z"
   id="path57"
   inkscape:connector-curvature="0"
   style="fill:#252626" />
		</g>
		<g
   id="g63">
			<path
   d="m 65.22949,23.39941 c 0,-0.45996 0.37012,-0.83008 0.83008,-0.83008 v 0 c 0.4502,0 0.82031,0.37012 0.82031,0.83008 v 0 c 0,0.4502 -0.37012,0.82031 -0.82031,0.82031 v 0 c -0.45996,10e-6 -0.83008,-0.37011 -0.83008,-0.82031 z"
   id="path61"
   inkscape:connector-curvature="0"
   style="fill:#252626" />
		</g>
		<g
   id="g67">
			<path
   d="m 70,24.21973 c -0.2207,0 -0.43066,-0.08008 -0.58984,-0.24023 -0.07031,-0.08008 -0.13086,-0.16992 -0.18066,-0.26953 -0.04004,-0.10059 -0.05957,-0.2002 -0.05957,-0.31055 0,-0.10938 0.01953,-0.21973 0.05957,-0.31934 0.0498,-0.10059 0.11035,-0.19043 0.18066,-0.27051 0.08008,-0.08008 0.16992,-0.13965 0.26953,-0.17969 0.2002,-0.08008 0.42969,-0.08008 0.63965,0 0.10059,0.04004 0.19043,0.09961 0.26074,0.17969 0.08008,0.08008 0.13965,0.16992 0.18945,0.27051 0.04004,0.09961 0.06055,0.20996 0.06055,0.31934 0,0.2207 -0.08984,0.41992 -0.25,0.58008 -0.07031,0.08008 -0.16016,0.14063 -0.26074,0.18066 C 70.21973,24.2002 70.10938,24.21973 70,24.21973 Z"
   id="path65"
   inkscape:connector-curvature="0"
   style="fill:#252626" />
		</g>
	</g>
	<g
   id="g73">
		
			<line
   stroke-miterlimit="10"
   x1="37.39682"
   y1="325.40213"
   x2="37.509418"
   y2="64.408684"
   id="line71"
   style="fill:none;stroke:#252626;stroke-width:1.65681005;stroke-linecap:round;stroke-miterlimit:10" />
	</g>
	<path
   stroke-miterlimit="10"
   d="m 49.89503,57.31863 c -2.50719,4.24366 -7.12831,7.09005 -12.41424,7.09005 -5.3151,0 -9.95803,-2.87789 -12.45555,-7.16042"
   id="path75"
   inkscape:connector-curvature="0"
   style="fill:none;stroke:#252626;stroke-width:1.65681005;stroke-linecap:round;stroke-miterlimit:10" />
	<g
   id="g87">
		<path
   d="M 15.71875,10.88379 H 13.91797 V 8.9834 h 5.51367 v 1.90039 h -1.80078 v 5.96582 h -1.91211 c 0,0 0,-5.96582 0,-5.96582 z"
   id="path77"
   inkscape:connector-curvature="0"
   style="fill:#252626" />
		<path
   d="m 30.69922,12.87207 c 0,2.24316 -1.85547,4.07715 -4.09961,4.07715 -2.25391,0 -4.08594,-1.83398 -4.08594,-4.07715 0,-2.26465 1.83203,-4.09766 4.08594,-4.09766 2.24414,0 4.09961,1.83301 4.09961,4.09766 z m -1.93359,0 c 0,-1.2041 -0.96094,-2.20898 -2.16602,-2.20898 -1.20313,0 -2.17578,1.00488 -2.17578,2.20898 0,1.19336 0.97266,2.17676 2.17578,2.17676 1.20508,0 2.16602,-0.9834 2.16602,-2.17676 z"
   id="path79"
   inkscape:connector-curvature="0"
   style="fill:#252626" />
		<path
   d="M 41.49023,16.84961 H 39.20312 L 36.5957,13.44727 h -0.17773 v 3.40234 H 34.55078 V 8.9834 h 2.88477 c 0.57422,0 1.11523,0.23242 1.51367,0.62988 0.39648,0.40918 0.62891,1.02734 0.62891,1.60254 0,0.75098 -0.36523,1.48047 -0.94922,1.85547 z m -5.07226,-5.28027 h 1.01758 c 0.1543,0 0.26367,-0.19922 0.26367,-0.35352 0,-0.15527 -0.10938,-0.35352 -0.26367,-0.35352 h -1.01758 z"
   id="path81"
   inkscape:connector-curvature="0"
   style="fill:#252626" />
		<path
   d="m 50.80078,8.9834 v 4.83887 c 0,1.72363 -1.40234,3.12695 -3.12695,3.12695 -1.71094,0 -3.11523,-1.40332 -3.11523,-3.12695 V 8.9834 h 1.90039 v 4.83887 c 0,0.68555 0.55273,1.2373 1.21484,1.2373 0.67383,0 1.21484,-0.55176 1.21484,-1.2373 V 8.9834 Z"
   id="path83"
   inkscape:connector-curvature="0"
   style="fill:#252626" />
		<path
   d="m 57.13867,16.82715 c -0.79492,-0.16504 -1.52344,-0.53027 -2.46289,-1.33594 l 1.25977,-1.44727 c 0.69531,0.60742 1.10547,0.83887 1.58984,0.92773 0.14453,0.0332 0.28711,0.05469 0.41992,0.05469 0.2207,0 0.41992,-0.04395 0.57422,-0.12109 0.13281,-0.06641 0.36523,-0.20996 0.36523,-0.50781 0,-0.30957 -0.57422,-0.49707 -1.07227,-0.59668 -0.2207,-0.04395 -1.30273,-0.27637 -1.74414,-0.54199 -0.75195,-0.44141 -1.13867,-1.11523 -1.13867,-1.95508 0,-0.46387 0.1543,-0.90625 0.4082,-1.28125 0.25586,-0.35352 0.60938,-0.62988 1.01758,-0.81738 l -0.01172,0.01074 c 0.41992,-0.19922 0.89453,-0.29785 1.34766,-0.29785 0.1875,0 0.36523,0.01074 0.58594,0.04395 0.70703,0.12109 1.35938,0.4082 2.26563,1.16016 l -1.2168,1.45801 c -0.81641,-0.67383 -1.23633,-0.77344 -1.65625,-0.77344 -0.21094,0 -0.375,0.04395 -0.50781,0.11035 -0.21094,0.08887 -0.32031,0.24316 -0.32031,0.38672 0,0.29883 0.39648,0.44238 1.03711,0.57422 0.06641,0.02246 0.14453,0.02246 0.22266,0.04492 0.42969,0.09863 1.07031,0.23145 1.49023,0.47461 h -0.01172 c 0.79688,0.44238 1.2168,1.1377 1.2168,2 0,0.50781 -0.13281,0.98242 -0.41992,1.38086 -0.25391,0.36426 -0.63086,0.62891 -1.05078,0.83887 -0.44141,0.23242 -0.89453,0.29883 -1.39063,0.29883 -0.26563,-10e-6 -0.55274,-0.03322 -0.79688,-0.08888 z"
   id="path85"
   inkscape:connector-curvature="0"
   style="fill:#252626" />
	</g>
	<g
   id="g109">
		<path
   d="m 17.91211,21.50293 h 0.54492 v 0.81641 h 0.02734 c 0.31055,-0.58203 0.81641,-0.95801 1.58594,-0.95801 0.63867,0 1.21094,0.31055 1.38867,0.94824 0.29102,-0.6377 0.90039,-0.94824 1.53906,-0.94824 1.06055,0 1.60547,0.55371 1.60547,1.69922 v 3.28418 h -0.5918 v -3.25586 c 0,-0.79785 -0.30078,-1.22949 -1.14453,-1.22949 -1.02344,0 -1.31445,0.84473 -1.31445,1.74512 v 2.74023 h -0.58984 v -3.28418 c 0.0078,-0.65723 -0.26367,-1.20117 -1.01367,-1.20117 -1.02344,0 -1.43555,0.76953 -1.44531,1.78223 v 2.70313 h -0.5918 z"
   id="path89"
   inkscape:connector-curvature="0"
   style="fill:#252626" />
		<path
   d="M 29.6543,26.34473 H 29.11133 V 25.47168 H 29.0918 c -0.30859,0.64746 -0.94727,1.01367 -1.66992,1.01367 -1.2207,0 -1.69922,-0.71289 -1.69922,-1.83887 v -3.14355 h 0.5918 v 3.15234 c 0.02734,0.87305 0.35547,1.33301 1.29492,1.33301 1.01367,0 1.45508,-0.95703 1.45508,-1.94238 v -2.54297 h 0.58984 z"
   id="path91"
   inkscape:connector-curvature="0"
   style="fill:#252626" />
		<path
   d="m 30.7832,19.64453 h 0.5918 v 6.7002 h -0.5918 z"
   id="path93"
   inkscape:connector-curvature="0"
   style="fill:#252626" />
		<path
   d="m 33.44922,21.50293 h 0.98633 V 22 h -0.98633 v 3.26563 c 0,0.38477 0.05664,0.61035 0.48047,0.6377 0.16797,0 0.33789,-0.0088 0.50586,-0.02734 v 0.50586 c -0.17773,0 -0.34766,0.01953 -0.52539,0.01953 -0.78906,0 -1.06055,-0.2627 -1.05078,-1.08887 V 22 h -0.8457 v -0.49707 h 0.8457 v -1.45508 h 0.58984 c -10e-6,0 -10e-6,1.45508 0,1.45508 z"
   id="path95"
   inkscape:connector-curvature="0"
   style="fill:#252626" />
		<path
   d="m 35.30078,19.64453 h 0.5918 v 0.94727 h -0.5918 z m 0,1.8584 h 0.5918 v 4.8418 h -0.5918 z"
   id="path97"
   inkscape:connector-curvature="0"
   style="fill:#252626" />
		<path
   d="m 37.0293,21.50293 h 0.54297 v 0.81641 h 0.0293 c 0.30859,-0.58203 0.81641,-0.95801 1.58594,-0.95801 0.63672,0 1.20898,0.31055 1.38867,0.94824 0.29102,-0.6377 0.90039,-0.94824 1.53906,-0.94824 1.06055,0 1.60352,0.55371 1.60352,1.69922 v 3.28418 h -0.58984 v -3.25586 c 0,-0.79785 -0.30078,-1.22949 -1.14648,-1.22949 -1.02148,0 -1.3125,0.84473 -1.3125,1.74512 v 2.74023 h -0.5918 v -3.28418 c 0.0098,-0.65723 -0.26172,-1.20117 -1.01367,-1.20117 -1.02344,0 -1.43555,0.76953 -1.44531,1.78223 v 2.70313 H 37.0293 Z"
   id="path99"
   inkscape:connector-curvature="0"
   style="fill:#252626" />
		<path
   d="m 44.85742,19.64453 h 0.5918 v 0.94727 h -0.5918 z m 0,1.8584 h 0.5918 v 4.8418 h -0.5918 z"
   id="path101"
   inkscape:connector-curvature="0"
   style="fill:#252626" />
		<path
   d="m 47.9082,23.83008 -1.73438,-2.32715 h 0.74023 l 1.37891,1.83887 1.35156,-1.83887 h 0.74219 l -1.74609,2.31738 1.88672,2.52441 h -0.75 l -1.52148,-2.03613 -1.49219,2.03613 H 46.0332 Z"
   id="path103"
   inkscape:connector-curvature="0"
   style="fill:#252626" />
		<path
   d="m 51.44922,24.08301 c 0.0098,0.86328 0.45898,1.90527 1.5957,1.90527 0.86328,0 1.33203,-0.50684 1.51953,-1.23926 h 0.5918 c -0.25391,1.09863 -0.89258,1.73633 -2.11133,1.73633 -1.53906,0 -2.1875,-1.18262 -2.1875,-2.56152 0,-1.27637 0.64844,-2.5625 2.1875,-2.5625 1.55664,0 2.17578,1.36133 2.12891,2.72168 z m 3.13476,-0.49707 c -0.0293,-0.8916 -0.58203,-1.72656 -1.53906,-1.72656 -0.9668,0 -1.50195,0.84473 -1.5957,1.72656 z"
   id="path105"
   inkscape:connector-curvature="0"
   style="fill:#252626" />
		<path
   d="m 55.97461,21.50293 h 0.54492 v 1.13477 h 0.01758 c 0.30078,-0.77832 0.95703,-1.23828 1.83008,-1.20117 v 0.5918 c -1.07031,-0.05664 -1.80078,0.73145 -1.80078,1.73535 v 2.58105 h -0.5918 c 0,0 0,-4.8418 0,-4.8418 z"
   id="path107"
   inkscape:connector-curvature="0"
   style="fill:#252626" />
	</g>
	<path
   stroke-miterlimit="10"
   d="m 17.27181,114.23964 c -2.35272,3.69513 -3.71574,8.08192 -3.71574,12.78705 0,13.16689 10.67387,23.84074 23.84074,23.84074 13.16687,0 23.84074,-10.67386 23.84074,-23.84074 0,-4.70551 -1.36322,-9.09261 -3.71629,-12.78792"
   id="path111"
   inkscape:connector-curvature="0"
   style="fill:none;stroke:#252626;stroke-width:1.65681005;stroke-linecap:round;stroke-miterlimit:10" />
	<g
   id="XMLID_112_">
		
			<path
   stroke-miterlimit="10"
   d="m 25.5893,97.91067 c 3.04821,3.04822 7.25928,4.93359 11.9107,4.93359 4.65141,0 8.86247,-1.88535 11.91068,-4.93356"
   id="path113"
   inkscape:connector-curvature="0"
   style="fill:#e5e5e5;stroke:#262626;stroke-width:1.65681005;stroke-linecap:round;stroke-linejoin:round;stroke-miterlimit:10" />
		
			<path
   stroke-miterlimit="10"
   d="M 33.39844,69.67969 C 26.08179,71.51392 20.65576,78.11462 20.65576,86 c 0,3.28491 0.94043,6.35022 2.56641,8.94141"
   id="path115"
   inkscape:connector-curvature="0"
   style="fill:#e5e5e5;stroke:#262626;stroke-width:1.65681005;stroke-linecap:round;stroke-linejoin:round;stroke-miterlimit:10" />
		
			<path
   stroke-miterlimit="10"
   d="M 51.65747,95.13013 C 53.35742,92.49964 54.34424,89.36499 54.34424,86 c 0,-7.87695 -5.41455,-14.4718 -12.71924,-16.31421"
   id="path117"
   inkscape:connector-curvature="0"
   style="fill:#e5e5e5;stroke:#262626;stroke-width:1.65681005;stroke-linecap:round;stroke-linejoin:round;stroke-miterlimit:10" />
	</g>
	
		<circle
   stroke-miterlimit="10"
   cx="37.39682"
   cy="161"
   r="23.84074"
   id="circle120"
   style="fill:none;stroke:#252626;stroke-width:1.65681005;stroke-linecap:round;stroke-miterlimit:10" />
	<path
   stroke-miterlimit="10"
   d="m 17.21148,106.98296 c 4.32126,6.07281 11.41714,10.03394 19.4382,10.03394 8.32141,0 15.64708,-4.26334 19.91187,-10.72494"
   id="path122"
   inkscape:connector-curvature="0"
   style="fill:none;stroke:#252626;stroke-width:1.65681005;stroke-linecap:round;stroke-miterlimit:10" />
	
		<circle
   stroke-miterlimit="10"
   cx="37.39682"
   cy="195"
   r="23.84074"
   id="circle124"
   style="fill:none;stroke:#252626;stroke-width:1.65681005;stroke-linecap:round;stroke-miterlimit:10" />
	
		<circle
   stroke-miterlimit="10"
   cx="37.39682"
   cy="229"
   r="23.84074"
   id="circle126"
   style="fill:none;stroke:#252626;stroke-width:1.65681005;stroke-linecap:round;stroke-miterlimit:10" />
	
		<circle
   stroke-miterlimit="10"
   cx="37.39682"
   cy="263"
   r="23.84074"
   id="circle128"
   style="fill:none;stroke:#252626;stroke-width:1.65681005;stroke-linecap:round;stroke-miterlimit:10" />
	
		<circle
   stroke-miterlimit="10"
   cx="37.39682"
   cy="297"
   r="23.840731"
   id="circle130"
   style="fill:none;stroke:#252626;stroke-width:1.65681005;stroke-linecap:round;stroke-miterlimit:10" />
	<path
   stroke-miterlimit="10"
   d="m 56.78035,344.93521 c 2.80548,-3.90997 4.45722,-8.70377 4.45722,-13.88333 0,-13.16687 -10.67386,-23.84073 -23.84074,-23.84073 -13.16688,0 -23.84074,10.67386 -23.84074,23.84073 0,6.16235 2.33801,11.77859 6.17537,16.01013"
   id="path132"
   inkscape:connector-curvature="0"
   style="fill:none;stroke:#252626;stroke-width:1.65681005;stroke-linecap:round;stroke-miterlimit:10" />
	<path
   stroke-miterlimit="10"
   d="m 57.16594,351.67041 c -4.28435,-6.34167 -11.53982,-10.51117 -19.76912,-10.51117 -9.11234,0 -17.03064,5.1123 -21.04321,12.62521"
   id="path134"
   inkscape:connector-curvature="0"
   style="fill:none;stroke:#252626;stroke-width:1.65681005;stroke-linecap:round;stroke-miterlimit:10" />
	<circle
   cx="37.5"
   cy="127"
   r="14.87217"
   id="circle136"
   style="fill:#252626" />
	<circle
   cx="37.5"
   cy="161"
   r="14.87217"
   id="circle138"
   style="fill:#252626" />
	<circle
   cx="37.5"
   cy="195"
   r="14.87217"
   id="circle140"
   style="fill:#252626" />
	<circle
   cx="37.5"
   cy="229"
   r="14.87217"
   id="circle142"
   style="fill:#252626" />
	<circle
   cx="37.5"
   cy="263"
   r="14.87217"
   id="circle144"
   style="fill:#252626" />
	<circle
   cx="37.5"
   cy="297"
   r="14.87217"
   id="circle146"
   style="fill:#252626" />
	<circle
   cx="37.5"
   cy="331"
   r="14.87217"
   id="circle148"
   style="fill:#252626" />
	<g
   id="g166">
		<g
   id="g152">
			<path
   d="m 49.31738,44.08887 c -0.2793,0 -0.55176,-0.14063 -0.70801,-0.39648 -0.23828,-0.39063 -0.11523,-0.90039 0.27539,-1.13867 l 0.85352,-0.52148 c 0.3916,-0.23633 0.90039,-0.11523 1.13867,0.27539 0.23828,0.39062 0.11523,0.90039 -0.27539,1.13867 l -0.85352,0.52148 c -0.13476,0.08202 -0.2832,0.12109 -0.43066,0.12109 z"
   id="path150"
   inkscape:connector-curvature="0"
   style="fill:#00bc8b" />
		</g>
		<g
   id="g156">
			<path
   d="m 50.6748,46.8623 c -0.34766,0 -0.6709,-0.2207 -0.78613,-0.56836 -0.14453,-0.43457 0.0918,-0.90332 0.52539,-1.04688 l 0.94922,-0.31445 c 0.43848,-0.14648 0.90332,0.0918 1.04688,0.52539 0.14453,0.43457 -0.0918,0.90332 -0.52539,1.04688 l -0.94922,0.31445 c -0.08692,0.0293 -0.17481,0.04297 -0.26075,0.04297 z"
   id="path154"
   inkscape:connector-curvature="0"
   style="fill:#00bc8b" />
		</g>
		<g
   id="g160">
			<path
   d="m 51.36914,49.94336 c -0.42676,0 -0.78906,-0.32813 -0.8252,-0.76074 -0.03613,-0.45605 0.30273,-0.85645 0.75879,-0.89355 l 0.99707,-0.08008 c 0.47363,-0.04492 0.85645,0.30273 0.89258,0.75781 0.03711,0.45605 -0.30176,0.85645 -0.75781,0.89258 l -0.99707,0.08203 c -0.02344,9.7e-4 -0.0459,0.002 -0.06836,0.002 z"
   id="path158"
   inkscape:connector-curvature="0"
   style="fill:#00bc8b" />
		</g>
		<g
   id="g164">
			<path
   d="m 52.30762,53.29199 c -0.04297,0 -0.08691,-0.0029 -0.13086,-0.0098 l -0.9873,-0.15625 c -0.45117,-0.07129 -0.75977,-0.49609 -0.68848,-0.94824 0.07227,-0.4502 0.5,-0.75781 0.94824,-0.68848 l 0.9873,0.15625 c 0.45117,0.07129 0.75977,0.49609 0.68848,0.94824 -0.06445,0.40724 -0.41699,0.69825 -0.81738,0.69825 z"
   id="path162"
   inkscape:connector-curvature="0"
   style="fill:#00bc8b" />
		</g>
	</g>
	<g
   id="g184">
		<g
   id="g170">
			<path
   d="m 25.16992,43.83008 c -0.11035,0 -0.21973,-0.02051 -0.32031,-0.06055 C 24.75,43.71973 24.66016,43.66015 24.58008,43.58984 24.42969,43.42969 24.33984,43.21973 24.33984,43 c 0,-0.21973 0.08984,-0.43066 0.24023,-0.58984 0.22949,-0.23047 0.59961,-0.30078 0.91016,-0.18066 0.09961,0.05078 0.18945,0.11035 0.25977,0.18066 C 25.91016,42.56934 26,42.78027 26,43 c 0,0.10938 -0.02051,0.21973 -0.06055,0.31934 -0.0498,0.10059 -0.10938,0.19043 -0.18945,0.27051 -0.07031,0.07031 -0.16016,0.12988 -0.25977,0.17969 -0.10058,0.04003 -0.21093,0.06054 -0.32031,0.06054 z"
   id="path168"
   inkscape:connector-curvature="0"
   style="fill:#ff4257" />
		</g>
		<g
   id="g174">
			<path
   d="m 24.2373,46.8623 c -0.08594,0 -0.17383,-0.01367 -0.26074,-0.04297 l -0.94922,-0.31445 c -0.43359,-0.14355 -0.66992,-0.6123 -0.52539,-1.04688 0.14355,-0.43359 0.6084,-0.67285 1.04688,-0.52539 l 0.94922,0.31445 c 0.43359,0.14355 0.66992,0.6123 0.52539,1.04688 -0.11524,0.34766 -0.43848,0.56836 -0.78614,0.56836 z"
   id="path172"
   inkscape:connector-curvature="0"
   style="fill:#ff4257" />
		</g>
		<g
   id="g178">
			<path
   d="m 24.04102,49.98438 c -0.02246,0 -0.04492,-9.8e-4 -0.06836,-0.0029 L 21.9795,49.81934 c -0.45605,-0.03613 -0.79492,-0.43652 -0.75781,-0.89258 0.03711,-0.45508 0.41602,-0.80469 0.89258,-0.75781 l 1.99316,0.16211 c 0.45605,0.03613 0.79492,0.43652 0.75781,0.89258 -0.03516,0.43261 -0.39747,0.76074 -0.82422,0.76074 z"
   id="path176"
   inkscape:connector-curvature="0"
   style="fill:#ff4257" />
		</g>
		<g
   id="g182">
			<path
   d="m 21.61621,53.44824 c -0.40039,0 -0.75293,-0.29102 -0.81738,-0.69824 -0.07129,-0.45215 0.2373,-0.87695 0.68848,-0.94824 l 2.96289,-0.46875 c 0.45313,-0.06836 0.87695,0.23828 0.94824,0.68848 0.07129,0.45215 -0.2373,0.87695 -0.68848,0.94824 l -2.96289,0.46875 c -0.04394,0.0068 -0.08789,0.0098 -0.13086,0.0098 z"
   id="path180"
   inkscape:connector-curvature="0"
   style="fill:#ff4257" />
		</g>
	</g>
</g>
<g
   id="LEDS"
   transform="matrix(1.2800162,0,0,1.2800162,-6.0555561e-4,-0.36841885)">
	<g
   id="g189">
		<path
   d="m 33.24414,40.73633 c -0.28418,0 -0.56152,-0.14551 -0.71582,-0.40918 L 31.4707,38.52539 c -0.43262,-0.73828 -1.23438,-1.19727 -2.08984,-1.19727 h -4.4873 c -0.45703,0 -0.82813,-0.37109 -0.82813,-0.82813 0,-0.45704 0.37109,-0.82813 0.82813,-0.82813 h 4.4873 c 1.44141,0 2.78906,0.77246 3.51953,2.01563 l 1.05762,1.80176 c 0.23145,0.39453 0.09863,0.90137 -0.2959,1.13379 -0.13086,0.07716 -0.27539,0.11329 -0.41797,0.11329 z"
   id="path187"
   inkscape:connector-curvature="0"
   style="fill:#1f86cc" />
	</g>
	<g
   id="g193">
		<path
   d="m 41.89258,40.73633 c -0.14258,0 -0.28711,-0.03613 -0.41797,-0.11328 -0.39453,-0.23242 -0.52734,-0.73926 -0.2959,-1.13379 l 1.05762,-1.80176 c 0.72949,-1.24316 2.0791,-2.01563 3.52051,-2.01563 h 4.51855 c 0.45703,0 0.82813,0.37109 0.82813,0.82813 0,0.45704 -0.37109,0.82813 -0.82813,0.82813 h -4.51855 c -0.85645,0 -1.6582,0.45898 -2.09082,1.19727 l -1.05762,1.80176 c -0.1543,0.26366 -0.43164,0.40917 -0.71582,0.40917 z"
   id="path191"
   inkscape:connector-curvature="0"
   style="fill:#1f86cc" />
	</g>
</g>
</svg>